<?xml version="1.0" encoding="UTF-8"?>
<svg width="122.7mm" height="39.929mm" version="1.1" viewBox="0 0 122.7 39.929" xmlns="http://www.w3.org/2000/svg" xmlns:xlink="http://www.w3.org/1999/xlink"><defs><marker id="Triangle" overflow="visible" markerHeight="0.5" markerWidth="0.5" orient="auto-start-reverse" preserveAspectRatio="xMidYMid" viewBox="0 0 1 1"><path transform="scale(.5)" d="m5.77 0-8.65 5v-10z" fill="context-stroke" fill-rule="evenodd" stroke="context-stroke" stroke-width="1pt"/></marker></defs><g transform="translate(-46.302 -189.04)"><g transform="translate(187.57 71.791)"><g id="g462" transform="matrix(.97032 0 0 .97032 13.945 11.832)"><rect x="-129.6" y="118.85" width="20.783" height="13.747" ry=".64464" fill="none" stroke="#000" stroke-linecap="round" stroke-width=".2696" style="paint-order:fill markers stroke"/><rect x="-129.33" y="119.13" width="20.228" height="13.228" ry=".39404" fill="none" stroke="#000" stroke-linecap="round" stroke-width=".18784" style="paint-order:fill markers stroke"/><path d="m-129.36 119.52h20.311" fill="none" stroke="#000" stroke-width=".21301" style="paint-order:fill markers stroke"/><path d="m-129.36 131.97h20.311" fill="none" stroke="#000" stroke-width=".21301" style="paint-order:fill markers stroke"/><path d="m-109.48 119.14v13.258" fill="none" stroke="#000" stroke-width=".26916" style="paint-order:fill markers stroke"/><path d="m-128.95 119.14v13.258" fill="none" stroke="#000" stroke-width=".26916" style="paint-order:fill markers stroke"/></g><use id="use462" transform="translate(23.293)" xlink:href="#g462"/><use id="use463" transform="translate(23.293)" xlink:href="#use462"/><use id="use464" transform="translate(23.293)" xlink:href="#use463"/><use id="use465" transform="translate(-46.619 16.549)" xlink:href="#use464"/><use id="use466" transform="translate(23.304)" xlink:href="#use465"/><use id="use467" transform="translate(23.304)" xlink:href="#use466"/><use transform="translate(-69.911)" xlink:href="#use467"/><g transform="matrix(.95924 0 0 .95924 49.716 3.368)" stroke="#000"><rect x="-128.87" y="119.59" width="14.764" height="5.3187" stroke-linecap="round" stroke-width=".30012" style="paint-order:fill markers stroke"/><rect x="-129.6" y="118.85" width="16.29" height="6.8382" ry=".64464" fill="none" stroke-linecap="round" stroke-width=".2696" style="paint-order:fill markers stroke"/><rect x="-129.33" y="119.13" width="15.745" height="6.2837" ry=".39404" fill="none" stroke-linecap="round" stroke-width=".18784" style="paint-order:fill markers stroke"/><path d="m-129.36 119.52h15.8" fill="none" stroke-width=".18787" style="paint-order:fill markers stroke"/><path d="m-129.36 125.05h15.8" fill="none" stroke-width=".18787" style="paint-order:fill markers stroke"/><path d="m-113.97 119.14v6.2771" fill="none" stroke-width=".18521" style="paint-order:fill markers stroke"/><path d="m-128.95 119.14v6.2771" fill="none" stroke-width=".18521" style="paint-order:fill markers stroke"/></g><g opacity=".5"><g transform="matrix(.95924 0 0 .95924 68.343 3.368)" stroke="#000"><rect x="-128.87" y="119.59" width="14.764" height="5.3187" stroke-linecap="round" stroke-width=".30012" style="paint-order:fill markers stroke"/><rect x="-129.6" y="118.85" width="16.29" height="6.8382" ry=".64464" fill="none" stroke-linecap="round" stroke-width=".2696" style="paint-order:fill markers stroke"/><rect x="-129.33" y="119.13" width="15.745" height="6.2837" ry=".39404" fill="none" stroke-linecap="round" stroke-width=".18784" style="paint-order:fill markers stroke"/><path d="m-129.36 119.52h15.8" fill="none" stroke-width=".18787" style="paint-order:fill markers stroke"/><path d="m-129.36 125.05h15.8" fill="none" stroke-width=".18787" style="paint-order:fill markers stroke"/><path d="m-113.97 119.14v6.2771" fill="none" stroke-width=".18521" style="paint-order:fill markers stroke"/><path d="m-128.95 119.14v6.2771" fill="none" stroke-width=".18521" style="paint-order:fill markers stroke"/></g><g transform="matrix(.95924 0 0 .95924 12.462 3.368)" stroke="#000"><rect x="-128.87" y="119.59" width="14.764" height="5.3187" stroke-linecap="round" stroke-width=".30012" style="paint-order:fill markers stroke"/><rect x="-129.6" y="118.85" width="16.29" height="6.8382" ry=".64464" fill="none" stroke-linecap="round" stroke-width=".2696" style="paint-order:fill markers stroke"/><rect x="-129.33" y="119.13" width="15.745" height="6.2837" ry=".39404" fill="none" stroke-linecap="round" stroke-width=".18784" style="paint-order:fill markers stroke"/><path d="m-129.36 119.52h15.8" fill="none" stroke-width=".18787" style="paint-order:fill markers stroke"/><path d="m-129.36 125.05h15.8" fill="none" stroke-width=".18787" style="paint-order:fill markers stroke"/><path d="m-113.97 119.14v6.2771" fill="none" stroke-width=".18521" style="paint-order:fill markers stroke"/><path d="m-128.95 119.14v6.2771" fill="none" stroke-width=".18521" style="paint-order:fill markers stroke"/></g><g transform="matrix(.95924 0 0 .95924 31.089 3.368)" stroke="#000"><rect x="-128.87" y="119.59" width="14.764" height="5.3187" stroke-linecap="round" stroke-width=".30012" style="paint-order:fill markers stroke"/><rect x="-129.6" y="118.85" width="16.29" height="6.8382" ry=".64464" fill="none" stroke-linecap="round" stroke-width=".2696" style="paint-order:fill markers stroke"/><rect x="-129.33" y="119.13" width="15.745" height="6.2837" ry=".39404" fill="none" stroke-linecap="round" stroke-width=".18784" style="paint-order:fill markers stroke"/><path d="m-129.36 119.52h15.8" fill="none" stroke-width=".18787" style="paint-order:fill markers stroke"/><path d="m-129.36 125.05h15.8" fill="none" stroke-width=".18787" style="paint-order:fill markers stroke"/><path d="m-113.97 119.14v6.2771" fill="none" stroke-width=".18521" style="paint-order:fill markers stroke"/><path d="m-128.95 119.14v6.2771" fill="none" stroke-width=".18521" style="paint-order:fill markers stroke"/></g><g transform="matrix(.95924 0 0 .95924 86.97 3.368)" stroke="#000"><rect x="-128.87" y="119.59" width="14.764" height="5.3187" stroke-linecap="round" stroke-width=".30012" style="paint-order:fill markers stroke"/><rect x="-129.6" y="118.85" width="16.29" height="6.8382" ry=".64464" fill="none" stroke-linecap="round" stroke-width=".2696" style="paint-order:fill markers stroke"/><rect x="-129.33" y="119.13" width="15.745" height="6.2837" ry=".39404" fill="none" stroke-linecap="round" stroke-width=".18784" style="paint-order:fill markers stroke"/><path d="m-129.36 119.52h15.8" fill="none" stroke-width=".18787" style="paint-order:fill markers stroke"/><path d="m-129.36 125.05h15.8" fill="none" stroke-width=".18787" style="paint-order:fill markers stroke"/><path d="m-113.97 119.14v6.2771" fill="none" stroke-width=".18521" style="paint-order:fill markers stroke"/><path d="m-128.95 119.14v6.2771" fill="none" stroke-width=".18521" style="paint-order:fill markers stroke"/></g><text transform="matrix(.26458 0 0 .26458 -119.94 -81.589)" fill="none" font-family="sans-serif" font-weight="bold" stroke="#e66525" stroke-opacity=".48608" stroke-width=".7" style="paint-order:fill markers stroke;shape-inside:url(#rect472-6);white-space:pre" xml:space="preserve"><tspan x="111.22852" y="769.63002"><tspan fill="#ffffff" font-family="Sans" font-size="14.667px" font-weight="normal" stroke="#ffffff" stroke-opacity="1">AUTO</tspan></tspan></text><text transform="matrix(.26458 0 0 .26458 -138.29 -81.591)" fill="none" font-family="sans-serif" font-weight="bold" stroke="#e66525" stroke-opacity=".48608" stroke-width=".7" style="paint-order:fill markers stroke;shape-inside:url(#rect462-9);white-space:pre" xml:space="preserve"><tspan x="111.22852" y="769.63002"><tspan fill="#ffffff" font-family="Sans" font-size="14.667px" font-weight="normal" stroke="#ffffff" stroke-opacity="1">CUES</tspan></tspan></text><text transform="matrix(.21367 0 0 .26628 -78.882 -82.886)" fill="none" font-family="sans-serif" font-weight="bold" stroke="#e66525" stroke-opacity=".48608" stroke-width=".7" style="paint-order:fill markers stroke;shape-inside:url(#rect474-7);white-space:pre" xml:space="preserve"><tspan x="111.22852" y="769.63002"><tspan fill="#ffffff" font-family="Sans" font-size="14.667px" font-weight="normal" stroke="#ffffff" stroke-opacity="1">SAMPLER</tspan></tspan></text><text transform="matrix(.26458 0 0 .26458 -65.284 -81.591)" fill="none" font-family="sans-serif" font-weight="bold" stroke="#e66525" stroke-opacity=".48608" stroke-width=".7" style="paint-order:fill markers stroke;shape-inside:url(#rect475-4);white-space:pre" xml:space="preserve"><tspan x="111.22852" y="769.63002"><tspan fill="#ffffff" font-family="Sans" font-size="14.667px" font-weight="normal" stroke="#ffffff" stroke-opacity="1">SLICER</tspan></tspan></text><text transform="translate(-.065177 136.11)" x="-104.1564" y="-9.8178453" fill="#000000" font-family="Sans" font-size="2.1167px" font-weight="bold" stroke-linecap="square" stroke-width=".52917" text-align="center" text-anchor="middle" style="font-variant-caps:normal;font-variant-east-asian:normal;font-variant-ligatures:normal;font-variant-numeric:normal;paint-order:fill markers stroke" xml:space="preserve"><tspan x="-104.1564" y="-9.8178453" font-family="Sans" font-size="2.1167px" font-weight="bold" stroke-width=".52917" style="font-variant-caps:normal;font-variant-east-asian:normal;font-variant-ligatures:normal;font-variant-numeric:normal">CUE LOOPS</tspan></text><text transform="translate(-.065177 136.11)" x="-30.121334" y="-9.8178453" fill="#000000" font-family="Sans" font-size="2.1167px" font-weight="bold" stroke-linecap="square" stroke-width=".52917" text-align="center" text-anchor="middle" style="font-variant-caps:normal;font-variant-east-asian:normal;font-variant-ligatures:normal;font-variant-numeric:normal;paint-order:fill markers stroke" xml:space="preserve"><tspan x="-30.121334" y="-9.8178453" font-family="Sans" font-size="2.1167px" font-weight="bold" stroke-width=".52917" style="font-variant-caps:normal;font-variant-east-asian:normal;font-variant-ligatures:normal;font-variant-numeric:normal">SLICER LOOP</tspan></text><text transform="translate(-.065177 136.11)" x="-85.560066" y="-9.8178453" fill="#000000" font-family="Sans" font-size="2.1167px" font-weight="bold" stroke-linecap="square" stroke-width=".52917" text-align="center" text-anchor="middle" style="font-variant-caps:normal;font-variant-east-asian:normal;font-variant-ligatures:normal;font-variant-numeric:normal;paint-order:fill markers stroke" xml:space="preserve"><tspan x="-85.560066" y="-9.8178453" font-family="Sans" font-size="2.1167px" font-weight="bold" stroke-width=".52917" style="font-variant-caps:normal;font-variant-east-asian:normal;font-variant-ligatures:normal;font-variant-numeric:normal">ROLL</tspan></text><text transform="translate(-.065177 136.11)" x="-47.720997" y="-9.8178453" fill="#000000" font-family="Sans" font-size="2.1167px" font-weight="bold" stroke-linecap="square" stroke-width=".52917" text-align="center" text-anchor="middle" style="font-variant-caps:normal;font-variant-east-asian:normal;font-variant-ligatures:normal;font-variant-numeric:normal;paint-order:fill markers stroke" xml:space="preserve"><tspan x="-47.720997" y="-9.8178453" font-family="Sans" font-size="2.1167px" font-weight="bold" stroke-width=".52917" style="font-variant-caps:normal;font-variant-east-asian:normal;font-variant-ligatures:normal;font-variant-numeric:normal">VELOCITY</tspan></text></g><text transform="matrix(.26458 0 0 .26458 -101.49 -81.589)" fill="none" font-family="sans-serif" font-weight="bold" stroke="#e66525" stroke-opacity=".48608" stroke-width=".7" style="paint-order:fill markers stroke;shape-inside:url(#rect473-3);white-space:pre" xml:space="preserve"><tspan x="111.22852" y="769.63002"><tspan fill="#ffffff" font-family="Sans" font-size="14.667px" font-weight="normal" stroke="#ffffff" stroke-opacity="1">LOOP</tspan></tspan></text><g id="g34" transform="matrix(.61306 0 0 .61306 -55.68 73.211)"><path d="m-112.65 99.929c-1.7792 0.0186-3.4167 1.3255-3.8316 3.0555-0.42527 1.7361 0.43973 3.6762 2.0438 4.4839 1.8067 0.98807 4.309 0.27957 5.2878-1.5457 1.0943-1.7417 0.49467-4.2638-1.2578-5.3416-0.65766-0.43719-1.4536-0.66675-2.2422-0.65208z" fill="none" stroke="#000" stroke-width=".15003" style="paint-order:fill markers stroke"/><path d="m-112.66 99.457c-1.9898 0.02081-3.821 1.4824-4.285 3.417-0.47559 1.9415 0.49175 4.1112 2.2857 5.0144 2.0205 1.105 4.8189 0.31265 5.9135-1.7286 1.2238-1.9478 0.55321-4.7683-1.4066-5.9736-0.73549-0.48892-1.6256-0.74565-2.5075-0.72925z" fill="none" stroke="#000" stroke-width=".33848" style="paint-order:fill markers stroke"/><path d="m-112.66 98.92c-2.229 0.02331-4.2803 1.6606-4.8 3.8278-0.53276 2.1749 0.55087 4.6054 2.5604 5.6172 2.2633 1.2378 5.3982 0.35024 6.6243-1.9364 1.3709-2.1819 0.61971-5.3415-1.5757-6.6917-0.82389-0.54769-1.821-0.83528-2.8089-0.8169z" fill="none" stroke="#000" stroke-width=".17075" style="paint-order:fill markers stroke"/></g><use transform="translate(-13.443)" xlink:href="#g34"/><path id="path35" d="m-125.37 135.79v2.2444l1.9782-1.1046z" fill="#060606" stroke-width="0" style="paint-order:fill markers stroke"/><use transform="matrix(-1 0 0 1 -262.63 -.0013007)" xlink:href="#path35"/><path id="rect35" d="m-135.37 138.23h2.6148v0.56478h-2.9488z" fill="#060606" stroke-width="0" style="paint-order:fill markers stroke"/><use id="use36" transform="matrix(-1 0 0 1 -262.88 0)" xlink:href="#rect35"/><use transform="rotate(180 -131.44 136.92)" xlink:href="#rect35"/><use transform="rotate(180 -131.44 136.92)" xlink:href="#use36"/><text x="-132.0385" y="139.26042" fill="#060606" font-family="sans-serif" font-size="1.7639px" stroke="#ffffff" stroke-width="0" style="font-variant-caps:normal;font-variant-east-asian:normal;font-variant-ligatures:normal;font-variant-numeric:normal;paint-order:fill markers stroke" xml:space="preserve"><tspan x="-132.0385" y="139.26042" font-family="Sans" font-size="1.7639px" font-weight="bold" stroke-width="0" style="font-variant-caps:normal;font-variant-east-asian:normal;font-variant-ligatures:normal;font-variant-numeric:normal">2</tspan></text><text x="-131.94147" y="136.10722" fill="#060606" font-family="sans-serif" font-size="1.7639px" stroke="#ffffff" stroke-width="0" style="font-variant-caps:normal;font-variant-east-asian:normal;font-variant-ligatures:normal;font-variant-numeric:normal;paint-order:fill markers stroke" xml:space="preserve"><tspan x="-131.94147" y="136.10722" font-family="Sans" font-size="1.7639px" font-weight="bold" stroke-width="0" style="font-variant-caps:normal;font-variant-east-asian:normal;font-variant-ligatures:normal;font-variant-numeric:normal">1</tspan></text><text transform="scale(.95524 1.0469)" x="-147.22719" y="126.00233" fill="#060606" font-family="Sans" font-size="1.957px" font-weight="bold" stroke="#ffffff" stroke-width="0" style="font-variant-caps:normal;font-variant-east-asian:normal;font-variant-ligatures:normal;font-variant-numeric:normal;paint-order:fill markers stroke" xml:space="preserve"><tspan x="-147.22719" y="126.00233" stroke-width="0">PARAMETER ADJUST</tspan></text><rect x="-114.71" y="118.7" width="96.08" height="4.0471" rx="0" ry="0" fill="none" stroke="#000" stroke-linecap="round" stroke-width=".13229" style="paint-order:fill markers stroke"/><path d="m-114.69 120.81h-2.7324v16.076h-4.1998" fill="none" stroke="#000" stroke-linecap="round" stroke-width=".13229" style="paint-order:fill markers stroke"/></g></g><g transform="translate(-1.9204e-7 -9.9138)"><g font-family="Sans" font-size="3.7577px" font-weight="bold" stroke-linecap="round" stroke-width=".26458" text-anchor="middle"><text x="39.542385" y="27.834658" text-align="center" style="paint-order:fill markers stroke" xml:space="preserve"><tspan x="39.542385" y="27.834658" fill="#000000" stroke-width=".26458">Loop In</tspan></text><text x="62.829433" y="27.834658" text-align="center" style="paint-order:fill markers stroke" xml:space="preserve"><tspan x="62.829433" y="27.834658" fill="#000000" stroke-width=".26458">Loop Out</tspan></text><text x="86.212624" y="25.467333" text-align="center" style="paint-order:fill markers stroke" xml:space="preserve"><tspan x="86.212624" y="25.467333">Loop</tspan><tspan x="86.212624" y="30.164408">Activate</tspan></text><text x="109.4679" y="25.035202" text-align="center" style="paint-order:fill markers stroke" xml:space="preserve"><tspan x="109.4679" y="25.035202">Loop</tspan><tspan x="109.4679" y="29.732277">Toggle</tspan></text><text x="39.725819" y="42.016205" text-align="center" style="paint-order:fill markers stroke" xml:space="preserve"><tspan x="39.725819" y="42.016205">Jump</tspan><tspan x="39.725819" y="46.71328">Back</tspan></text><text x="62.783253" y="42.016205" text-align="center" style="paint-order:fill markers stroke" xml:space="preserve"><tspan x="62.783253" y="42.016205">Jump</tspan><tspan x="62.783253" y="46.71328">Forward</tspan></text><text x="86.116478" y="44.383533" text-align="center" style="paint-order:fill markers stroke" xml:space="preserve"><tspan x="86.116478" y="44.383533" fill="#000000" stroke-width=".26458">Loop /2</tspan></text><text x="109.40353" y="44.383533" text-align="center" style="paint-order:fill markers stroke" xml:space="preserve"><tspan x="109.40353" y="44.383533" fill="#000000" stroke-width=".26458">Loop x2</tspan></text></g><text x="9.7133188" y="42.16132" fill="#000000" font-family="Sans" font-size="3.7577px" font-weight="bold" stroke-linecap="round" stroke-width=".26458" text-align="center" text-anchor="middle" style="paint-order:fill markers stroke" xml:space="preserve"><tspan x="9.7133188" y="42.16132">No</tspan><tspan x="9.7133188" y="46.858395">Function</tspan></text><path d="m9.7417 39.134v-3.2887l-6.6206-6e-3v-1.6171" fill="none" marker-end="url(#Triangle)" stroke="#000" stroke-width=".79375" style="paint-order:fill markers stroke"/><path d="m9.7417 35.845 6.8233-0.0029v-1.585" fill="none" marker-end="url(#Triangle)" stroke="#000" stroke-width=".79375" style="paint-order:fill markers stroke"/></g></svg>
