<?xml version="1.0" encoding="UTF-8"?>
<svg width="80mm" height="80mm" version="1.1" viewBox="0 0 80 80" xmlns="http://www.w3.org/2000/svg" xmlns:xlink="http://www.w3.org/1999/xlink"><g transform="translate(-79.375 -122.77)"><g transform="matrix(.78067 0 0 .78067 28.234 65.492)"><path d="m116.56 94.382a30.235 30.235 0 0 0-3.0773 0.21962l0.59428 4.8953a25.316 25.316 0 0 1 2.4831-0.19534zm0.66249 0.01964v4.9222a25.316 25.316 0 0 1 2.4805 0.19482l0.59428-4.8969a30.235 30.235 0 0 0-3.0748-0.22014zm-4.4013 0.24753a30.235 30.235 0 0 0-3.0251 0.60358l1.1782 4.7816a25.316 25.316 0 0 1 2.4422-0.48524zm8.1375 0.02015-0.59531 4.9015a25.316 25.316 0 0 1 2.4278 0.52658l1.1803-4.7873a30.235 30.235 0 0 0-3.0127-0.64079zm-11.81 0.7245a30.235 30.235 0 0 0-2.9316 0.95136l1.7384 4.5837a25.316 25.316 0 0 1 2.3756-0.73949zm15.47 0.05736-1.1834 4.8007a25.316 25.316 0 0 1 2.3523 0.77618l1.742-4.593a30.235 30.235 0 0 0-2.9109-0.98392zm-19.022 1.1255a30.235 30.235 0 0 0-2.7978 1.2847l2.2603 4.3067a25.316 25.316 0 0 1 2.2841-0.98547zm22.553 0.08992-1.7498 4.6147a25.316 25.316 0 0 1 2.2531 1.0144l2.2665-4.3181a30.235 30.235 0 0 0-2.7699-1.311zm-25.932 1.5121a30.235 30.235 0 0 0-2.6272 1.6004l2.7848 4.0344a25.316 25.316 0 0 1 2.1182-1.2981zm29.283 0.11627-2.2815 4.347a25.316 25.316 0 0 1 2.1017 1.2878l2.773-4.0173a30.235 30.235 0 0 0-2.5931-1.6175zm-32.44 1.881a30.235 30.235 0 0 0-2.4216 1.8919l3.2902 3.714a25.316 25.316 0 0 1 1.8877-1.6123zm35.564 0.13332-2.7647 4.0054a25.316 25.316 0 0 1 1.8691 1.5963l3.2799-3.7021a30.235 30.235 0 0 0-2.3844-1.8996zm-38.454 2.2273a30.235 30.235 0 0 0-2.1699 2.1699l3.7316 3.3063a25.316 25.316 0 0 1 1.6934-1.8009zm41.307 0.14107-3.2453 3.6634a25.316 25.316 0 0 1 1.6542 1.803l3.7383-3.312a30.235 30.235 0 0 0-2.1472-2.1544zm-43.89 2.5482a30.235 30.235 0 0 0-1.8345 2.4505l4.0566 2.8004a25.316 25.316 0 0 1 1.4924-1.9601zm46.435 0.13797-3.7062 3.2835a25.316 25.316 0 0 1 1.4547 1.9508l4.068-2.8081a30.235 30.235 0 0 0-1.8164-2.4262zm-48.667 2.8432a30.235 30.235 0 0 0-1.4717 2.6768l4.3 2.2567a25.316 25.316 0 0 1 1.2795-2.0986zm50.871 0.11989-4.1088 2.8365a25.316 25.316 0 0 1 1.247 2.0784l4.3108-2.2624a30.235 30.235 0 0 0-1.449-2.6526zm-52.66 3.1378a30.235 30.235 0 0 0-1.1503 2.8158l4.5765 1.7358a25.316 25.316 0 0 1 0.93689-2.2619zm54.426 0.0961-4.3739 2.2955a25.316 25.316 0 0 1 0.92346 2.2288l4.5744-1.7343a30.235 30.235 0 0 0-1.124-2.79zm-55.808 3.3404a30.235 30.235 0 0 0-0.81804 2.9166l4.7775 1.1777a25.316 25.316 0 0 1 0.5948-2.3673zm57.163 0.0698-4.5517 1.7265a25.316 25.316 0 0 1 0.57516 2.3347l4.777-1.1772a30.235 30.235 0 0 0-0.80047-2.8841zm-58.122 3.4938a30.235 30.235 0 0 0-0.48059 2.9792l4.8938 0.59428a25.316 25.316 0 0 1 0.35088-2.3993zm59.063 0.0372-4.763 1.1741a25.316 25.316 0 0 1 0.3421 2.3626l4.8943-0.59428a30.235 30.235 0 0 0-0.47336-2.9425zm-59.591 3.6029a30.235 30.235 0 0 0-0.1788 2.4975 30.235 30.235 0 0 0 0.03617 0.50643h4.9222a25.316 25.316 0 0 1-0.03979-0.50643 25.316 25.316 0 0 1 0.14986-1.9038zm60.112 5.2e-4 -4.8896 0.59376a25.316 25.316 0 0 1 0.14986 1.9032 25.316 25.316 0 0 1-0.0129 0.46923h4.9201a30.235 30.235 0 0 0 0.0114-0.46923 30.235 30.235 0 0 0-0.1788-2.497zm-4.7702 3.6282a25.316 25.316 0 0 1-0.22066 2.3601l4.886 0.59325a30.235 30.235 0 0 0 0.25631-2.9533zm-55.436 0.0377a30.235 30.235 0 0 0 0.21342 2.9895l4.902-0.59532a25.316 25.316 0 0 1-0.18862-2.3942zm55.124 2.9776a25.316 25.316 0 0 1-0.49971 2.3053l4.777 1.1777a30.235 30.235 0 0 0 0.60461-2.8903zm-49.915 0.0724-4.8741 0.59169a30.235 30.235 0 0 0 0.6351 2.9182l4.7982-1.1824a25.316 25.316 0 0 1-0.55914-2.3275zm49.238 2.8711a25.316 25.316 0 0 1-0.75655 2.2221l4.593 1.742a30.235 30.235 0 0 0 0.94154-2.7864zm-48.525 0.0997-4.8121 1.186a30.235 30.235 0 0 0 1.0206 2.7957l4.6064-1.7467a25.316 25.316 0 0 1-0.81494-2.235zm47.509 2.7326a25.316 25.316 0 0 1-1.0098 2.1068l4.3579 2.2872a30.235 30.235 0 0 0 1.2609-2.6464zm-46.441 0.1142-4.6287 1.7554a30.235 30.235 0 0 0 1.3146 2.6515l4.332-2.2732a25.316 25.316 0 0 1-1.018-2.1337zm45.105 2.5699a25.316 25.316 0 0 1-1.2506 1.9627l4.0473 2.7936a30.235 30.235 0 0 0 1.5601-2.4696zm-43.74 0.12971-4.361 2.2888a30.235 30.235 0 0 0 1.5896 2.481l4.0018-2.7621a25.316 25.316 0 0 1-1.2304-2.0076zm42.103 2.3709a25.316 25.316 0 0 1-1.4707 1.7927l3.6856 3.2654a30.235 30.235 0 0 0 1.8376-2.2614zm-40.461 0.1571-4.0163 2.7719a30.235 30.235 0 0 0 1.8423 2.2862l3.6969-3.2752a25.316 25.316 0 0 1-1.5229-1.7828zm38.549 2.1286a25.316 25.316 0 0 1-1.6692 1.6004l3.2623 3.682a30.235 30.235 0 0 0 2.0841-2.0242zm-36.596 0.15813-3.6577 3.2406a30.235 30.235 0 0 0 2.0727 2.0686l3.3125-3.7393a25.316 25.316 0 0 1-1.7275-1.5699zm34.426 1.8758a25.316 25.316 0 0 1-1.8356 1.3953l2.7926 4.0458a30.235 30.235 0 0 0 2.3042-1.7601zm-32.195 0.12403-3.284 3.7073a30.235 30.235 0 0 0 2.3363 1.7492l2.8009-4.0576a25.316 25.316 0 0 1-1.8531-1.3989zm29.809 1.6387a25.316 25.316 0 0 1-1.9777 1.1762l2.2841 4.3527a30.235 30.235 0 0 0 2.4903-1.4769zm-27.391 0.10645-2.8355 4.1088a30.235 30.235 0 0 0 2.5528 1.402l2.2572-4.301a25.316 25.316 0 0 1-1.9746-1.2098zm24.82 1.3637a25.316 25.316 0 0 1-2.0996 0.93225l1.743 4.5956a30.235 30.235 0 0 0 2.6427-1.1715zm-22.238 0.11421-2.2831 4.3501a30.235 30.235 0 0 0 2.6763 1.1183l1.7389-4.5852a25.316 25.316 0 0 1-2.1322-0.88315zm19.517 1.0464a25.316 25.316 0 0 1-2.1926 0.67747l1.1782 4.7796a30.235 30.235 0 0 0 2.7611-0.85111zm-16.773 0.0904-1.7306 4.563a30.235 30.235 0 0 0 2.7724 0.82682l1.1798-4.7868a25.316 25.316 0 0 1-2.2216-0.60306zm13.938 0.74672a25.316 25.316 0 0 1-2.2572 0.4129l0.59325 4.8855a30.235 30.235 0 0 0 2.8406-0.52452zm-11.072 0.0109-1.1762 4.7728a30.235 30.235 0 0 0 2.8401 0.52968l0.59479-4.8984a25.316 25.316 0 0 1-2.2588-0.4041zm2.9192 0.45578-0.59376 4.8938a30.235 30.235 0 0 0 2.8804 0.20619v-4.9201a25.316 25.316 0 0 1-2.2867-0.17984zm5.24 0.0357a25.316 25.316 0 0 1-2.2913 0.14263v4.9201a30.235 30.235 0 0 0 2.8835-0.18604z" style="paint-order:fill markers stroke"/><path d="m116.56 100.75a23.87 23.87 0 0 0-2.3115 0.16485l0.17312 1.4237a22.435 22.435 0 0 1 2.1384-0.15296zm0.66249 0.0196v1.4356a22.435 22.435 0 0 1 2.1358 0.15296l0.17311-1.4237a23.87 23.87 0 0 0-2.3089-0.16484zm-3.6349 0.19275a23.87 23.87 0 0 0-2.2717 0.46044l0.34262 1.3906a22.435 22.435 0 0 1 2.1017-0.42788zm6.6042 0.0258-0.17312 1.4278a22.435 22.435 0 0 1 2.0903 0.45475l0.34262-1.3911a23.87 23.87 0 0 0-2.2598-0.49144zm-9.5234 0.57516a23.87 23.87 0 0 0-2.2004 0.72088l0.50747 1.3389a22.435 22.435 0 0 1 2.0355-0.66921zm12.43 0.0574-0.34262 1.3911a22.435 22.435 0 0 1 2.0144 0.70176l0.50798-1.3389a23.87 23.87 0 0 0-2.1797-0.75396zm-15.251 0.89503a23.87 23.87 0 0 0-2.0986 0.971l0.66559 1.2681a22.435 22.435 0 0 1 1.941-0.9002zm18.051 0.0899-0.50797 1.3389a22.435 22.435 0 0 1 1.9125 0.92655l0.66559-1.2681a23.87 23.87 0 0 0-2.0702-0.99735zm-20.731 1.1984a23.87 23.87 0 0 0-1.9694 1.2066l0.81442 1.1793a22.435 22.435 0 0 1 1.82-1.1178zm23.382 0.11627-0.6656 1.2681a22.435 22.435 0 0 1 1.7865 1.1353l0.8139-1.1793a23.87 23.87 0 0 0-1.9348-1.2242zm-25.882 1.4872a23.87 23.87 0 0 0-1.8133 1.4242l0.95137 1.0738a22.435 22.435 0 0 1 1.6759-1.3183zm28.347 0.13384-0.8139 1.1792a22.435 22.435 0 0 1 1.6387 1.326l0.95136-1.0738a23.87 23.87 0 0 0-1.7761-1.4314zm-30.629 1.7591a23.87 23.87 0 0 0-1.6268 1.6268l1.0738 0.95136a22.435 22.435 0 0 1 1.5043-1.5043zm32.873 0.14108-0.95137 1.0738a22.435 22.435 0 0 1 1.4723 1.4971l1.0759-0.95291a23.87 23.87 0 0 0-1.5968-1.618zm-34.906 2.0118a23.87 23.87 0 0 0-1.3741 1.8356l1.1793 0.8139a22.435 22.435 0 0 1 1.2702-1.697zm36.901 0.13798-1.0754 0.95291a22.435 22.435 0 0 1 1.2516 1.6722l1.1798-0.8139a23.87 23.87 0 0 0-1.356-1.8113zm-38.654 2.2402a23.87 23.87 0 0 0-1.0955 2.0066l1.2681 0.66559a22.435 22.435 0 0 1 1.0123-1.8547zm40.373 0.12506-1.1849 0.81804a22.435 22.435 0 0 1 0.99684 1.8247l1.2681-0.66559a23.87 23.87 0 0 0-1.08-1.9771zm-41.786 2.4624a23.87 23.87 0 0 0-0.83664 2.1167l1.3389 0.50798a22.435 22.435 0 0 1 0.76584-1.9591zm43.183 0.0961-1.2681 0.66559a22.435 22.435 0 0 1 0.73898 1.9327l1.3389-0.50798a23.87 23.87 0 0 0-0.80977-2.0903zm-44.252 2.6407a23.87 23.87 0 0 0-0.58808 2.1859l1.3911 0.34261a22.435 22.435 0 0 1 0.5364-2.0206zm45.293 0.0703-1.3389 0.50797a22.435 22.435 0 0 1 0.5178 1.9875l1.3911-0.34313a23.87 23.87 0 0 0-0.57-2.1523zm-46.021 2.7626a23.87 23.87 0 0 0-0.33745 2.2252l1.4232 0.17312a22.435 22.435 0 0 1 0.30541-2.0557zm46.733 0.0372-1.3911 0.34262a22.435 22.435 0 0 1 0.29714 2.019l1.4232-0.17312a23.87 23.87 0 0 0-0.32918-2.1885zm-47.117 2.8494a23.87 23.87 0 0 0-0.12402 1.7312 23.87 23.87 0 0 0 0.03617 0.50643h1.4356a22.435 22.435 0 0 1-0.03617-0.50643 22.435 22.435 0 0 1 0.11162-1.5586zm47.494 5.2e-4 -1.4237 0.1726a22.435 22.435 0 0 1 0.11162 1.558 22.435 22.435 0 0 1-0.0119 0.46923h1.4139a23.87 23.87 0 0 0 0.0336-0.46923 23.87 23.87 0 0 0-0.12351-1.7306zm-1.341 2.8618a22.435 22.435 0 0 1-0.19792 2.0133l1.4252 0.1726a23.87 23.87 0 0 0 0.15657-2.1859zm-46.193 0.0377a23.87 23.87 0 0 0 0.15865 2.2236l1.4273-0.17311a22.435 22.435 0 0 1-0.15038-2.0505zm45.891 2.6293a22.435 22.435 0 0 1-0.4253 1.9647l1.3612 0.3359a23.87 23.87 0 0 0 0.46354-2.1306zm-44.164 0.0708-1.4273 0.17311a23.87 23.87 0 0 0 0.47129 2.1668l1.3906-0.34262a22.435 22.435 0 0 1-0.4346-1.9973zm43.557 2.5311a22.435 22.435 0 0 1-0.65629 1.8883l1.2971 0.49196a23.87 23.87 0 0 0 0.75913-2.035zm-42.954 0.10645-1.3994 0.3452a23.87 23.87 0 0 0 0.77153 2.0686l1.3389-0.50746a22.435 22.435 0 0 1-0.71107-1.9064zm42.049 2.3957a22.435 22.435 0 0 1-0.8723 1.788l1.2211 0.6413a23.87 23.87 0 0 0 0.96531-1.9306zm-41.107 0.13074-1.3389 0.50798a23.87 23.87 0 0 0 1.001 1.9523l1.2681-0.66559a22.435 22.435 0 0 1-0.93018-1.7947zm39.908 2.234a22.435 22.435 0 0 1-1.0661 1.6681l1.142 0.78807a23.87 23.87 0 0 0 1.1544-1.8102zm-38.66 0.14211-1.2681 0.66559a23.87 23.87 0 0 0 1.1963 1.8226l1.1793-0.81391a22.435 22.435 0 0 1-1.1074-1.6743zm37.201 2.0598a22.435 22.435 0 0 1-1.2526 1.5219l1.0604 0.93896a23.87 23.87 0 0 0 1.3296-1.6759zm-35.697 0.14469-1.1793 0.81391a23.87 23.87 0 0 0 1.3746 1.6774l1.0733-0.95136a22.435 22.435 0 0 1-1.2687-1.54zm33.999 1.8671a22.435 22.435 0 0 1-1.4196 1.3581l0.94723 1.0687a23.87 23.87 0 0 0 1.5084-1.5084zm-32.262 0.14211-1.0733 0.95137a23.87 23.87 0 0 0 1.5358 1.5182l0.95239-1.0754a22.435 22.435 0 0 1-1.4149-1.3942zm30.338 1.6449a22.435 22.435 0 0 1-1.5575 1.1865l0.79168 1.1467a23.87 23.87 0 0 0 1.7032-1.2748zm-28.391 0.1478-0.95291 1.0749a23.87 23.87 0 0 0 1.7218 1.2888l0.81339-1.1793a22.435 22.435 0 0 1-1.5823-1.1844zm26.28 1.403a22.435 22.435 0 0 1-1.6831 0.99012l0.64234 1.2247a23.87 23.87 0 0 0 1.8547-1.0356zm-24.15 0.15452-0.81752 1.1844a23.87 23.87 0 0 0 1.8815 1.0273l0.66559-1.2676a22.435 22.435 0 0 1-1.7296-0.94412zm21.881 1.142a22.435 22.435 0 0 1-1.7864 0.78187l0.49092 1.2935a23.87 23.87 0 0 0 1.9436-0.83974zm-19.57 0.11989-0.66559 1.2676a23.87 23.87 0 0 0 1.9771 0.80408l0.50798-1.3384a22.435 22.435 0 0 1-1.8195-0.73329zm17.163 0.89452a22.435 22.435 0 0 1-1.8598 0.57723l0.33383 1.3544a23.87 23.87 0 0 0 2.0164-0.63924zm-14.724 0.0703-0.50746 1.3384a23.87 23.87 0 0 0 2.0407 0.59635l0.34261-1.3906a22.435 22.435 0 0 1-1.8758-0.54416zm12.219 0.65888a22.435 22.435 0 0 1-1.9141 0.3545l0.1726 1.4226a23.87 23.87 0 0 0 2.0727-0.43357zm-9.696 0.0264-0.34262 1.3901a23.87 23.87 0 0 0 2.0862 0.38602l0.17312-1.4232a22.435 22.435 0 0 1-1.9167-0.35295zm2.5776 0.40049-0.1726 1.4227a23.87 23.87 0 0 0 2.1146 0.15141v-1.4351a22.435 22.435 0 0 1-1.942-0.13901zm4.5475 0.0114a22.435 22.435 0 0 1-1.9436 0.12558v1.4118a23.87 23.87 0 0 0 2.112-0.1509z" fill="none" stroke="#000" stroke-linecap="square" stroke-width=".26458" style="paint-order:fill markers stroke"/><path d="m104.9 135.39-2.1999 2.1999h4.3997zm2.1699 2.7218h-4.3398l2.1699 2.1699z" stroke-linecap="round" stroke-width=".26458" style="paint-order:fill markers stroke"/><text transform="scale(.88094 1.1352)" x="126.46577" y="94.005325" fill="#000000" font-family="Sans" font-size="2.5554px" font-weight="bold" stroke-linecap="round" stroke-width=".26458" text-align="center" text-anchor="middle" style="paint-order:fill markers stroke" xml:space="preserve"><tspan x="126.46577" y="94.005325" font-size="2.5554px" stroke-width=".26458">DECK</tspan></text><text transform="scale(.91811 1.0892)" x="139.31689" y="125.88251" fill="#000000" font-family="Sans" font-size="2.153px" font-weight="bold" stroke-linecap="round" stroke-width=".26458" text-align="center" text-anchor="middle" style="paint-order:fill markers stroke" xml:space="preserve"><tspan x="139.31689" y="125.88251" stroke-width=".26458">PITCH</tspan></text><text transform="scale(.91644 1.0912)" x="144.86057" y="119.66292" fill="#000000" font-family="Sans" font-size="2.4455px" font-weight="bold" stroke-linecap="round" stroke-width=".26458" text-align="center" text-anchor="middle" style="paint-order:fill markers stroke" xml:space="preserve"><tspan x="144.86057" y="119.66292" stroke-width=".26458">KEY</tspan></text><text transform="scale(.88121 1.1348)" x="151.14355" y="109.42086" fill="#000000" font-family="Sans" font-size="2.532px" font-weight="bold" stroke-linecap="round" stroke-width=".26458" text-align="center" text-anchor="middle" style="paint-order:fill markers stroke" xml:space="preserve"><tspan x="151.14355" y="109.42086" stroke-width=".26458">BPM</tspan></text><g id="g93"><path d="m112.79 111.59-1.1116 1.2898v3.5269l0.74414 0.86299 0.82372-0.9555v-3.6189c0-0.43246-0.17424-0.82303-0.4563-1.1054z" stroke-linecap="round" stroke-width=".26458" style="paint-order:fill markers stroke"/><path d="m107.65 117.56 0.62736 0.72812h3.2727l0.62787-0.72812-0.62787-0.72813h-3.2727z" stroke-linecap="round" stroke-width=".26458" style="paint-order:fill markers stroke"/><path d="m107.35 111.39 0.93018 1.079h3.2727l0.94723-1.0986c-0.23693-0.14452-0.51442-0.22944-0.81338-0.22944h-3.4908c-0.31263 0-0.60223 0.0921-0.84594 0.24908z" stroke-linecap="round" stroke-width=".26458" style="paint-order:fill markers stroke"/><path d="m106.63 116.37 0.77463 0.89865 0.74363-0.86299v-3.5269l-1.0873-1.2619c-0.26656 0.27997-0.43099 0.65858-0.43099 1.0774z" stroke-linecap="round" stroke-width=".26458" style="paint-order:fill markers stroke"/><path d="m106.96 123.61 1.1891-1.3798v-3.5269l-0.74363-0.863-0.77463 0.89865v3.9119c0 0.36242 0.1236 0.69464 0.32918 0.95911z" stroke-linecap="round" stroke-width=".26458" style="paint-order:fill markers stroke"/><path d="m112.63 123.9-1.0759-1.248h-3.2727l-1.0563 1.2258c0.26653 0.21177 0.60363 0.33848 0.97203 0.33848h3.4908c0.35497 0 0.68028-0.11827 0.94206-0.31626z" stroke-linecap="round" stroke-width=".26458" style="paint-order:fill markers stroke"/><path d="m113.25 118.8-0.82372-0.9555-0.74414 0.863v3.5269l1.216 1.4108c0.21999-0.26909 0.35191-0.61387 0.35191-0.99012z" stroke-linecap="round" stroke-width=".26458" style="paint-order:fill markers stroke"/></g><g transform="matrix(.58 0 0 .58 44.715 72.94)" stroke-linecap="round" stroke-width=".45618"><path d="m112.79 111.59-1.1116 1.2898v3.5269l0.74414 0.86299 0.82372-0.9555v-3.6189c0-0.43246-0.17424-0.82303-0.4563-1.1054z" style="paint-order:fill markers stroke"/><path id="path94" d="m107.65 117.56 0.62736 0.72812h3.2727l0.62787-0.72812-0.62787-0.72813h-3.2727z" stroke-linecap="round" stroke-width=".45618" style="paint-order:fill markers stroke"/><path d="m113.25 118.8-0.82372-0.9555-0.74414 0.863v3.5269l1.216 1.4108c0.21999-0.26909 0.35191-0.61387 0.35191-0.99012z" style="paint-order:fill markers stroke"/></g><use transform="matrix(.58 0 0 .58 35.812 62.138)" stroke-width="1.7241" xlink:href="#path94"/><g id="g103" transform="translate(-8.4918)"><path d="m112.79 111.59-1.1116 1.2898v3.5269l0.74414 0.86299 0.82372-0.9555v-3.6189c0-0.43246-0.17424-0.82303-0.4563-1.1054z" stroke-linecap="round" stroke-width=".26458" style="paint-order:fill markers stroke"/><path d="m113.25 118.8-0.82372-0.9555-0.74414 0.863v3.5269l1.216 1.4108c0.21999-0.26909 0.35191-0.61387 0.35191-0.99012z" stroke-linecap="round" stroke-width=".26458" style="paint-order:fill markers stroke"/></g><use id="use104" transform="translate(8.4619)" xlink:href="#g93"/><use id="use105" transform="translate(8.2125)" xlink:href="#use104"/><use id="use106" transform="matrix(.61375 0 0 .61375 26.407 58.099)" stroke-width="1.6293" xlink:href="#use105"/><use id="use107" transform="translate(5.2698)" xlink:href="#use106"/><use id="use108" transform="translate(5.2698)" xlink:href="#use107"/><use id="use109" transform="translate(5.2698)" xlink:href="#use108"/><use id="use110" transform="matrix(.80001 0 0 .80001 28.847 26.865)" stroke-width="1.25" xlink:href="#use109"/><path d="m132.2 130.79v0.89555h-0.20412v0.99425h1.8557v-0.99425h-0.20412v-0.89555zm0.20774 0.1974h1.032v0.68678h-1.032z" stroke-linecap="round" stroke-width=".26458" style="paint-order:fill markers stroke"/><use id="use118" transform="matrix(1.1161 0 0 1.1161 -26.504 -5.1852)" stroke-width=".896" xlink:href="#use110"/><use transform="translate(4.1829)" xlink:href="#use118"/><use transform="matrix(.79947 0 0 .79947 31.087 29.025)" stroke-width="1.2508" xlink:href="#use118"/><text transform="scale(.92911 1.0763)" x="133.71385" y="132.77667" fill="#ffffff" font-family="Sans" font-size="3.0545px" font-weight="bold" stroke-linecap="round" stroke-width=".26458" text-align="center" text-anchor="middle" style="paint-order:fill markers stroke" xml:space="preserve"><tspan x="133.71385" y="132.77667" fill="#000000" stroke-width=".26458">%</tspan></text><use id="use125" transform="matrix(.53068 0 0 .53068 67.618 64.517)" stroke-width="1.8844" xlink:href="#use118"/><use transform="translate(2.2502)" xlink:href="#use125"/><use transform="matrix(.31312 0 0 .31312 93.233 102.6)" stroke-width="3.1937" xlink:href="#g103"/><use transform="matrix(.8696 0 0 .8696 8.2875 -8.2483)" stroke-width="1.15" xlink:href="#use110"/><circle id="path120" cx="122.51" cy="123.64" r=".3884" stroke-width="0" style="paint-order:fill markers stroke"/><use id="use130" transform="matrix(.63479 0 0 .63479 34.254 50.842)" xlink:href="#path120"/><use id="use131" transform="translate(0 1.9819)" xlink:href="#use130"/><use id="use132" transform="translate(10.54 2.7693)" xlink:href="#use131"/><use transform="matrix(.75034 0 0 .75034 27.316 43.908)" xlink:href="#use132"/><circle transform="matrix(1.281 0 0 1.281 202.4 66.918)" cx="-66.868" cy="45.034" r="25.558" fill="none" stroke="#000" stroke-width=".52917" style="paint-order:fill markers stroke"/></g><path d="m116.64 144.94-0.73977 0.1852-3.7558-15.002-0.71061 0.17789 3.7558 15.002-0.73839 0.18484 1.568 1.6195z" color="#000000" fill-rule="evenodd" stroke="#fff" stroke-width=".12217"/><path d="m105.6 144.16-0.62452 0.43764-8.2146-10.17-0.5999 0.42039 8.2146 10.17-0.62336 0.43682 2.0436 0.95124z" color="#000000" fill-rule="evenodd" stroke="#fff" stroke-width=".12217"/><path d="m106.09 155.32-0.29652 0.70258-17.497-7.1982-0.28483 0.67489 17.497 7.1983-0.29598 0.70128 2.2367-0.28005z" color="#000000" fill-rule="evenodd" stroke="#fff" stroke-width=".12217"/><path d="m105.96 167.56 0.17714 0.74173-17.304 4.2825 0.17016 0.7125 17.304-4.2825 0.1768 0.74036 1.6365-1.5502z" color="#000000" fill-rule="evenodd" stroke="#fff" stroke-width=".12217"/><path d="m106.47 174.31 0.39899 0.64988-13.18 8.0916 0.38327 0.62427 13.18-8.0916 0.39825 0.64868 1.0733-1.9822z" color="#000000" fill-rule="evenodd" stroke="#fff" stroke-width=".12217"/><path d="m116.58 180.68 0.76142 0.0422-0.71107 13.107 0.73141 0.0405 0.7111-13.107 0.76001 0.0421-1.018-2.0112z" color="#000000" fill-rule="evenodd" stroke="#fff" stroke-width=".12217"/><path d="m133.14 176.48 0.21374-0.73202 14.846 4.3349 0.20529-0.70317-14.846-4.3349 0.21333-0.73067-2.1897 0.53544z" color="#000000" fill-rule="evenodd" stroke="#fff" stroke-width=".12217"/><path d="m135.74 168.3-8e-3 -0.76255 15.465-0.15465-7e-3 -0.73249-15.465 0.15462-8e-3 -0.76113-1.9404 1.1472z" color="#000000" fill-rule="evenodd" stroke="#fff" stroke-width=".12217"/><path d="m131.12 147.05-0.49665-0.5787 11.741-10.066-0.47655-0.55632-11.741 10.066-0.49574-0.57761-0.74772 2.1265z" color="#000000" fill-rule="evenodd" stroke="#fff" stroke-width=".12217"/><text x="111.05454" y="129.52858" fill="#000000" font-family="Sans" font-size="3.7577px" font-weight="bold" stroke-linecap="round" stroke-width=".26458" text-align="center" text-anchor="middle" style="paint-order:fill markers stroke" xml:space="preserve"><tspan x="111.05454" y="129.52858" fill="#000000" stroke-width=".26458">1</tspan></text><text x="95.728523" y="134.18707" fill="#000000" font-family="Sans" font-size="3.7577px" font-weight="bold" stroke-linecap="round" stroke-width=".26458" text-align="center" text-anchor="middle" style="paint-order:fill markers stroke" xml:space="preserve"><tspan x="95.728523" y="134.18707" fill="#000000" stroke-width=".26458">2</tspan></text><text x="85.956177" y="150.21158" fill="#000000" font-family="Sans" font-size="3.7577px" font-weight="bold" stroke-linecap="round" stroke-width=".26458" text-align="center" text-anchor="middle" style="paint-order:fill markers stroke" xml:space="preserve"><tspan x="85.956177" y="150.21158" fill="#000000" stroke-width=".26458">5</tspan></text><text x="87.224907" y="174.69362" fill="#000000" font-family="Sans" font-size="3.7577px" font-weight="bold" stroke-linecap="round" stroke-width=".26458" text-align="center" text-anchor="middle" style="paint-order:fill markers stroke" xml:space="preserve"><tspan x="87.224907" y="174.69362" fill="#000000" stroke-width=".26458">4</tspan></text><text x="92.699448" y="185.11023" fill="#000000" font-family="Sans" font-size="3.7577px" font-weight="bold" stroke-linecap="round" stroke-width=".26458" text-align="center" text-anchor="middle" style="paint-order:fill markers stroke" xml:space="preserve"><tspan x="92.699448" y="185.11023" fill="#000000" stroke-width=".26458">6</tspan></text><text x="116.80588" y="196.90889" fill="#000000" font-family="Sans" font-size="3.7577px" font-weight="bold" stroke-linecap="round" stroke-width=".26458" text-align="center" text-anchor="middle" style="paint-order:fill markers stroke" xml:space="preserve"><tspan x="116.80588" y="196.90889" fill="#000000" stroke-width=".26458">7</tspan></text><text x="149.86111" y="181.48334" fill="#000000" font-family="Sans" font-size="3.7577px" font-weight="bold" stroke-linecap="round" stroke-width=".26458" text-align="center" text-anchor="middle" style="paint-order:fill markers stroke" xml:space="preserve"><tspan x="149.86111" y="181.48334" fill="#000000" stroke-width=".26458">8</tspan></text><text x="152.68202" y="168.62204" fill="#000000" font-family="Sans" font-size="3.7577px" font-weight="bold" stroke-linecap="round" stroke-width=".26458" text-align="center" text-anchor="middle" style="paint-order:fill markers stroke" xml:space="preserve"><tspan x="152.68202" y="168.62204" fill="#000000" stroke-width=".26458">9</tspan></text><text x="143.52632" y="137.08926" fill="#000000" font-family="Sans" font-size="3.7577px" font-weight="bold" stroke-linecap="round" stroke-width=".26458" text-align="center" text-anchor="middle" style="paint-order:fill markers stroke" xml:space="preserve"><tspan x="143.52632" y="137.08926" fill="#000000" stroke-width=".26458">3</tspan></text></g></svg>
