<?xml version="1.0" encoding="UTF-8"?>
<svg width="182.08mm" height="13.669mm" version="1.1" viewBox="0 0 182.08 13.669" xml:space="preserve" xmlns="http://www.w3.org/2000/svg" xmlns:xlink="http://www.w3.org/1999/xlink"><g transform="translate(-12.158 -126.58)"><g fill="none" stroke="#000"><path d="m103.2 126.64-90.086 0.0801c-0.49062 4.4e-4 -0.88824 0.39805-0.88867 0.88867v2.5508c-1.96e-4 0.23387 0.09172 0.45841 0.25586 0.625l9 9.123c0.16723 0.16891 0.39512 0.26387 0.63281 0.26367h53.496c0.23674 1.9e-4 0.46378-0.094 0.63086-0.26172l3.7734-3.8066c0.0085-7e-3 0.19628-0.17042 0.44922-0.33984 0.25855-0.17319 0.62608-0.26986 0.49609-0.26953 1.1681-3e-3 16.395 9e-3 22.24 0.0137h2e-3c5.8455-5e-3 21.072-0.0168 22.24-0.0137-0.12999-3.3e-4 0.23754 0.0963 0.49609 0.26953 0.25294 0.16942 0.44072 0.33249 0.44922 0.33984l3.7734 3.8066c0.16707 0.16772 0.39412 0.26191 0.63086 0.26172h53.496c0.23769 2e-4 0.46558-0.0948 0.63281-0.26367l9-9.123c0.16414-0.16659 0.25606-0.39113 0.25586-0.625v-2.5508c-4.3e-4 -0.49062-0.39805-0.88823-0.88867-0.88867l-90.086-0.0801z" stroke-width=".13229" style="paint-order:fill markers stroke" xlink:href="#path1"/><path id="path1" d="m103.2 127.53-90.086 0.0801v2.5508l9 9.123h53.496l3.8086-3.8418s0.95472-0.83448 1.5391-0.83594c1.1944-3e-3 16.397 9e-3 22.242 0.0137 5.8456-5e-3 21.048-0.0169 22.242-0.0137 0.58433 1e-3 1.541 0.83594 1.541 0.83594l3.8086 3.8418h53.496l9-9.123v-2.5508z" fill="none" stroke="#000" stroke-width=".13229" style="paint-order:fill markers stroke"/><path d="m81.453 135.43v-0.78137m43.495 0.78137v-0.78137m-45.421 1.9245v-1.1848m47.347 1.1848v-1.1848m-50.975 4.7155v-1.1077m54.603 1.1077v-1.1077m-55.453 1.1892v-0.87392m56.304 0.87392v-0.87392m-108.74-0.0189 0.0013 0.87093m161.18-0.87093-1e-3 0.87093m-161.99-1.1598 0.0081 1.0956m162.78-1.0956-8e-3 1.0956m-171.48-13.36-3.56e-4 0.87545h-0.8806m181.05-0.87545 3.6e-4 0.87545h0.88059" stroke-linecap="round" stroke-width=".13229" style="paint-order:fill markers stroke"/><path d="m17.845 130.09-1.1154 1.1154m171.83-1.1154 1.1154 1.1154m-166.41 4.2965-1.1344 1.1344m161.01-1.1344 1.1344 1.1344m-167.66-7.8108 7.8357 7.8357c0.32206 0.32206 0.32406 0.83861 0.0045 1.1582-0.31958 0.31958-0.83613 0.31758-1.1582-4e-3l-7.8357-7.8357c-0.32206-0.32206-0.32406-0.83861-0.0045-1.1582 0.31958-0.31958 0.83613-0.31758 1.1582 4e-3zm173.18 0-7.8357 7.8357c-0.32206 0.32206-0.32406 0.83861-5e-3 1.1582 0.31958 0.31958 0.83613 0.31758 1.1582-4e-3l7.8357-7.8357c0.32206-0.32206 0.32406-0.83861 4e-3 -1.1582-0.31958-0.31958-0.83613-0.31758-1.1582 4e-3z" stroke-width=".079375" style="paint-order:fill markers stroke"/></g><text transform="scale(.97714 1.0234)" x="35.492256" y="126.91833" fill="#000000" font-family="Sans" font-size=".86463px" stroke-width="0" text-align="center" text-anchor="middle" style="paint-order:fill markers stroke" xml:space="preserve"><tspan x="35.492256" y="126.91833" stroke-width="0">MIC 1</tspan></text><g id="g20"><g id="use460" transform="matrix(.37247 0 0 .37247 27.987 121.73)"><g transform="matrix(.76326 0 0 .76326 4.2248 -7.1259)"><path d="m17.822 61.165-0.79893 0.0028s-0.0491-0.60772-0.7834-0.79376c-0.72895-0.20602-1.0753 0.29572-1.0753 0.29572l-0.69049-0.40189m-0.08297-11.908-0.69329 0.39704s0.26134 0.55085-0.28156 1.0791c-0.52827 0.5429-1.0791 0.28156-1.0791 0.28156l-0.39704 0.69329m-0.94504 3.5269-0.0028 0.79893s0.60772 0.0491 0.79376 0.7834c0.20602 0.72895-0.29572 1.0753-0.29572 1.0753l0.40189 0.69049m-0.89713-3.3481-0.0028-0.79893s0.60772-0.0491 0.81772-0.87279c0.22998-0.81834-0.27177-1.1647-0.27177-1.1647l0.40189-0.69049m11.908 0.08297-0.39704-0.69329s-0.55085 0.26134-1.1446-0.347c-0.60833-0.59371-0.347-1.1446-0.347-1.1446l-0.69329-0.39704m-6.7921 11.956-0.69329-0.39704s0.26134-0.55085-0.347-1.1446c-0.59371-0.60833-1.1446-0.347-1.1446-0.347l-0.39704-0.69329m6.0258-10.271 0.79893-0.0028s0.0491 0.60772 0.7834 0.79376c0.72895 0.20602 1.0753-0.29572 1.0753-0.29572l0.69049 0.40189m-3.3481-0.89713-0.79893-0.0028s-0.0491 0.60772-0.87279 0.81772c-0.81834 0.22998-1.1647-0.27177-1.1647-0.27177l-0.69049 0.40189m6.958 11.86 0.69329-0.39704s-0.26134-0.55085 0.28156-1.0791c0.52827-0.5429 1.0791-0.28156 1.0791-0.28156l0.39704-0.69329m-2.451 2.451-0.69049 0.40189s-0.34638-0.50175-1.1647-0.27177c-0.82369 0.21-0.87279 0.81772-0.87279 0.81772l-0.79893-0.0028m6.923-6.923 0.0028-0.79893s-0.60772-0.0491-0.79376-0.7834c-0.20602-0.72895 0.29572-1.0753 0.29572-1.0753l-0.40189-0.69049m0.89713 3.3481 0.0028 0.79893s-0.60772 0.0491-0.81772 0.87279c-0.22998 0.81834 0.27177 1.1647 0.27177 1.1647l-0.40189 0.69049" fill="none" stroke="#000" stroke-linecap="square" stroke-width=".13229" style="paint-order:fill markers stroke"/><circle cx="17.846" cy="54.291" r="7.415" fill="none" stroke="#000" stroke-linecap="square" stroke-width=".13229" style="paint-order:fill markers stroke"/><circle cx="17.846" cy="54.291" r="7.0351" fill="none" stroke="#000" stroke-linecap="square" stroke-width=".13229" style="paint-order:fill markers stroke"/><circle cx="17.846" cy="54.291" r="5.9607" fill="none" stroke="#000" stroke-linecap="square" stroke-width=".13229" style="paint-order:fill markers stroke"/><circle cx="17.846" cy="54.291" r="5.1482" fill="none" stroke="#000" stroke-linecap="square" stroke-width=".39688" style="paint-order:fill markers stroke"/></g><path d="m21.099 40.209-0.68386-1.0079" fill="none" stroke="#000" stroke-linecap="square" stroke-width=".52917" style="paint-order:fill markers stroke"/><path d="m14.377 40.399 0.8682-1.4661" fill="none" stroke="#000" stroke-linecap="square" stroke-width=".13229" style="paint-order:fill markers stroke"/><path transform="translate(7.0833e-7 18.096)" d="m17.843 16.531v-5.9639" fill="none" stroke="#000" stroke-linecap="round" stroke-width=".52917" style="paint-order:fill markers stroke"/></g><path d="m33.442 129.03c-0.09427 0-0.17053 0.0763-0.17053 0.17054v0.72295c0 0.0943 0.07626 0.17002 0.17053 0.17002h2.4174c0.09427 0 0.17002-0.0757 0.17002-0.17002v-0.72295c0-0.0943-0.07574-0.17054-0.17002-0.17054zm8.8842 1.5105v-0.31833c0-0.36521-0.29888-0.65939-0.67024-0.65939h-5.6265v0.3607c0 0.0943-0.07574 0.17002-0.17002 0.17002h-2.4174c-0.09427 0-0.17053-0.0757-0.17053-0.17002v-0.3607h-5.6152c-0.37137 0-0.67024 0.29418-0.67024 0.65939v0.31833" fill="none" stroke="#000" stroke-width=".13229" style="paint-order:fill markers stroke"/><use id="use19" transform="translate(-7.6953)" xlink:href="#use460"/><use transform="translate(15.391)" xlink:href="#use19"/><text transform="matrix(.927 0 0 1.0787 -2.0833e-8 -1.2083e-6)" x="29.056042" y="121.99364" fill="#000000" font-family="Sans" font-size=".82027px" stroke-width="0" text-align="center" text-anchor="middle" style="paint-order:fill markers stroke" xml:space="preserve"><tspan x="29.056042" y="121.99364" stroke-width="0">LOW</tspan></text><text transform="matrix(.927 0 0 1.0787 -2.0833e-8 -1.2083e-6)" x="37.437428" y="121.99364" fill="#000000" font-family="Sans" font-size=".82027px" stroke-width="0" text-align="center" text-anchor="middle" style="paint-order:fill markers stroke" xml:space="preserve"><tspan x="37.437428" y="121.99364" stroke-width="0">HIGH</tspan></text><text transform="matrix(.9835 0 0 1.0168 -2.0833e-8 -1.2083e-6)" x="42.977482" y="129.42876" fill="#000000" font-family="Sans" font-size=".87026px" stroke-width="0" text-align="center" text-anchor="middle" style="paint-order:fill markers stroke" xml:space="preserve"><tspan x="42.977482" y="129.42876" stroke-width="0">LEVEL</tspan></text></g><text transform="matrix(.97714 0 0 1.0234 -2.0833e-8 -1.2083e-6)" x="59.044193" y="126.91833" fill="#000000" font-family="Sans" font-size=".86463px" stroke-width="0" text-align="center" text-anchor="middle" style="paint-order:fill markers stroke" xml:space="preserve"><tspan x="59.044193" y="126.91833" stroke-width="0">MIC 2</tspan></text><use transform="translate(23.013)" xlink:href="#g20"/><g transform="translate(118.09)"><path d="m32.865 128.94c-0.1051 0-0.19013 0.0851-0.19013 0.19014v0.80603c0 0.10513 0.08502 0.18955 0.19013 0.18955h1.7554c0.1051 0 0.18955-0.0844 0.18955-0.18955v-0.80603c0-0.10514-0.08444-0.19014-0.18955-0.19014zm9.4532 1.6841v-0.35491c0-0.40718-0.33322-0.73516-0.74726-0.73516h-6.7611v0.40215c0 0.10513-0.08444 0.18955-0.18955 0.18955h-1.7554c-0.1051 0-0.19013-0.0844-0.19013-0.18955v-0.40215h-6.7123c-0.41404 0-0.74726 0.32798-0.74726 0.73516v0.35491" fill="none" stroke="#000" stroke-width=".14749" style="paint-order:fill markers stroke"/><use transform="translate(-9.4459)" xlink:href="#use460"/><use transform="translate(15.391)" xlink:href="#use19"/><text transform="scale(.927 1.0787)" x="27.167583" y="121.99364" fill="#000000" font-family="Sans" font-size=".82027px" stroke-width="0" text-align="center" text-anchor="middle" style="paint-order:fill markers stroke" xml:space="preserve"><tspan x="27.167583" y="121.99364">MIX</tspan><tspan x="27.167583" y="123.01897"/></text><text transform="scale(.927 1.0787)" x="36.198784" y="121.99364" fill="#000000" font-family="Sans" font-size=".82027px" stroke-width="0" text-align="center" text-anchor="middle" style="paint-order:fill markers stroke" xml:space="preserve"><tspan x="36.198784" y="121.99364" stroke-width="0">SPLIT</tspan></text><text transform="matrix(.9835 0 0 1.0168 -2.0833e-8 -1.2083e-6)" x="42.977482" y="129.42876" fill="#000000" font-family="Sans" font-size=".87026px" stroke-width="0" text-align="center" text-anchor="middle" style="paint-order:fill markers stroke" xml:space="preserve"><tspan x="42.977482" y="129.42876" stroke-width="0">GAIN</tspan></text><g transform="translate(27.195 152.49)"><path d="m8.4907-17.59c3.27e-5 -0.70196-0.56897-1.2711-1.2709-1.2712-0.019779 0.0011-0.039526 0.0027-0.059228 0.0047h-1.2064c-9.105e-4 9.2e-5 -0.00182 1.84e-4 -0.00279 2.78e-4 -0.67572 0.03311-1.2071 0.5897-1.2089 1.2662-3.27e-5 0.70197 0.56896 1.2711 1.2709 1.2712 0.039001-1.44e-4 0.077974-0.0021 0.1168-0.0058h1.0163c0.024385 0.0026 0.048845 0.0045 0.073344 0.0058 0.70196-1.2e-4 1.271-0.56925 1.2709-1.2712zm-0.25657 0c3.38e-5 0.56027-0.4541 1.0145-1.0144 1.0146-0.00182-1.79e-4 -0.0037-3.65e-4 -0.00554-5.36e-4 -0.1209-8.03e-4 -0.24069-0.0232-0.35371-0.06615-0.086205-0.03362-0.16741-0.07888-0.24134-0.13451-0.074259 0.05532-0.15574 0.1002-0.24217 0.1334-0.11604 0.0447-0.23932 0.06768-0.36368 0.06781-0.020717-0.0012-0.041396-0.0031-0.061997-0.0056-0.53379-0.03279-0.95049-0.47431-0.95237-1.0091 0.00187-0.5348 0.41857-0.97632 0.95237-1.0091 0.020604-0.0025 0.041278-0.0043 0.061997-0.0056 0.12413 4.9e-4 0.24712 0.02376 0.36285 0.06864 0.085915 0.03368 0.16683 0.07894 0.24051 0.13451 0.073595-0.05555 0.15442-0.10079 0.24024-0.13451 0.11403-0.04404 0.23508-0.0671 0.35731-0.06808 0.00182-1.9e-4 0.0037-3.74e-4 0.00554-5.35e-4 0.56027 1.19e-4 1.0144 0.45437 1.0144 1.0146z" fill="none" stroke="#000" stroke-linecap="square" stroke-width=".070854" style="paint-order:fill markers stroke"/><path d="m8.2341-17.59c3.38e-5 -0.56027-0.4541-1.0145-1.0144-1.0146-0.00182 1.79e-4 -0.0037 3.63e-4 -0.00554 5.34e-4 -0.12223 9.64e-4 -0.24328 0.02406-0.35731 0.06808-0.085818 0.03371-0.16664 0.07897-0.24024 0.13451-0.073679-0.05556-0.1546-0.10082-0.24051-0.13451-0.11573-0.04488-0.23872-0.06815-0.36285-0.06864-0.020717 0.0012-0.041396 0.0031-0.061997 0.0056-0.53379 0.03279-0.95049 0.47431-0.95237 1.0091 0.00187 0.5348 0.41858 0.97632 0.95237 1.0091 0.020604 0.0025 0.041278 0.0043 0.061997 0.0056 0.12436-1.25e-4 0.24763-0.02311 0.36368-0.06781 0.086433-0.0332 0.16792-0.07809 0.24217-0.1334 0.073937 0.05563 0.15514 0.10088 0.24134 0.13451 0.11302 0.04295 0.23281 0.06535 0.35371 0.06615 0.00182 1.89e-4 0.0037 3.75e-4 0.00554 5.36e-4 0.56027-1.19e-4 1.0144-0.45438 1.0144-1.0146z" fill="none" stroke="#000" stroke-linecap="square" stroke-width=".14171" style="paint-order:fill markers stroke"/><text transform="scale(.8322 1.2016)" x="4.726316" y="-14.509734" fill="#000000" font-family="Sans" font-size=".67713px" stroke-width="0" text-align="center" text-anchor="middle" style="paint-order:fill markers stroke" xml:space="preserve"><tspan x="4.726316" y="-14.509734" stroke-width="0">OFF</tspan></text><text transform="scale(.8322 1.2016)" x="11.030548" y="-14.509734" fill="#000000" font-family="Sans" font-size=".67713px" stroke-width="0" text-align="center" text-anchor="middle" style="paint-order:fill markers stroke" xml:space="preserve"><tspan x="11.030548" y="-14.509734" stroke-width="0">ON</tspan></text></g><text transform="scale(.97714 1.0234)" x="34.511852" y="126.91833" fill="#000000" font-family="Sans" font-size=".86463px" stroke-width="0" text-align="center" text-anchor="middle" style="paint-order:fill markers stroke" xml:space="preserve"><tspan x="34.511852" y="126.91833" stroke-width="0">CUE</tspan></text></g><circle id="path37" cx="169.54" cy="134.49" r=".60566" fill="none" stroke="#000" stroke-width=".052917" style="paint-order:fill markers stroke"/><use id="use37" transform="matrix(1.6918 0 0 1.6918 -117.28 -93.039)" stroke-width=".078196" xlink:href="#path37"/><use transform="matrix(1.1868 0 0 1.1868 -31.676 -25.128)" xlink:href="#use37"/><g transform="matrix(1.7223 0 0 1.7223 -116.71 -97.134)"><circle cx="169.54" cy="134.49" r=".60566" fill="none" stroke="#000" stroke-width=".052917" style="paint-order:fill markers stroke"/><use transform="matrix(1.2524 0 0 1.2524 -42.788 -33.943)" stroke-width=".078196" xlink:href="#path37"/><use transform="matrix(.86381 0 0 .86381 23.088 18.315)" xlink:href="#use37"/></g><path transform="matrix(1.7223 0 0 1.7223 -116.71 -97.134)" d="m167.77 134.04c-0.26928 0-0.48757 0.21835-0.48756 0.48768 1.9e-4 0.11452 0.0407 0.22534 0.11436 0.31301v0.026c0 0.091 0.0445 0.16441 0.0998 0.16441h0.1196v-0.50689h-0.1196c-0.0553 0-0.0998 0.0734-0.0998 0.1644v0.0271c-0.0294-0.0583-0.0448-0.12265-0.0448-0.18792 2e-5 -0.23088 0.18716-0.41802 0.41798-0.418 0.2308 2e-5 0.41789 0.18715 0.41791 0.418-5e-5 0.0652-0.0154 0.12964-0.0448 0.18792v-0.0271c0-0.091-0.0445-0.1644-0.0998-0.1644h-0.1196v0.50689h0.1196c0.0553 0 0.0998-0.0734 0.0998-0.16441v-0.026c0.0737-0.0876 0.11418-0.19849 0.11436-0.31301 1e-5 -0.2693-0.21824-0.48764-0.48749-0.48768z" fill="#090909" style="paint-order:fill markers stroke"/><g transform="translate(9.4527 116.65)"><circle id="path51" cx="64.206" cy="17.792" r="1.3271" fill="none" stroke="#000" stroke-width=".11605" style="paint-order:fill markers stroke"/><use id="use52" transform="matrix(1.2349 0 0 1.2349 -15.08 -4.1787)" xlink:href="#path51"/><use transform="matrix(1.1455 0 0 1.1455 -9.3397 -2.5881)" xlink:href="#use52"/><rect x="63.98" y="15.909" width=".40661" height="1.6125" rx="0" ry="0" fill="#fdfdfd" stroke="#000" stroke-width=".13229" style="paint-order:fill markers stroke"/><text transform="scale(.92569 1.0803)" x="69.323547" y="12.869208" fill="#000000" font-family="Sans" font-size=".79835px" stroke-width="0" text-align="center" text-anchor="middle" style="paint-order:fill markers stroke" xml:space="preserve"><tspan x="69.323547" y="12.869208">CF</tspan><tspan x="69.323547" y="13.867149">CONTOUR</tspan></text></g><path d="m101.49 128.55 3.3218 4.8456h1.4702l-3.3233-4.8456zm3.3275 0 3.3233 4.8456h1.4702l-3.3233-4.8456zm3.3288 0 3.3233 4.8456h1.4689l-3.3233-4.8456zm-8.415 0h1.2569v4.8464h-1.2569zm-5.0384 4.8455v-2.8378l1.5927 2.4172h0.03236l1.6081-2.441v2.8618h1.2494v-4.8456h-1.3549l-1.5026 2.4157-1.5026-2.4157h-1.3549v4.8456zm10.944-1.1931 0.73474 1.0716 0.75741-1.1047-0.73474-1.0714zm-1.6642-2.4275 0.73486 1.072 0.75729-1.1045-0.73499-1.0717-0.75704 1.1042zm7.4979-1.2256-0.8408 1.226 0.73464 1.0713 1.575-2.2973zm-9.9807 4.8464h1.4701l0.84042-1.2258-0.73499-1.072-1.5755 2.2977zm7.4758-1.1934 0.73475 1.0714 0.75705-1.1042-0.73475-1.0714zm-1.6641-2.427 0.73463 1.0713 0.75704-1.1042-0.73463-1.0712-0.75704 1.104z" stroke-width=".12119"/></g><g transform="translate(-2.7058 -9.9251)"><text x="162.82309" y="22.23892" fill="#000000" font-family="Sans" font-size="2.8677px" font-weight="bold" stroke-linecap="round" stroke-width=".20192" text-align="center" text-anchor="middle" style="paint-order:fill markers stroke" xml:space="preserve"><tspan x="162.82309" y="22.23892" fill="#000000" stroke-width=".20192">1</tspan></text><text x="150.78282" y="22.23892" fill="#000000" font-family="Sans" font-size="2.8677px" font-weight="bold" stroke-linecap="round" stroke-width=".20192" text-align="center" text-anchor="middle" style="paint-order:fill markers stroke" xml:space="preserve"><tspan x="150.78282" y="22.23892" fill="#000000" stroke-width=".20192">2</tspan></text><text x="142.64365" y="22.23892" fill="#000000" font-family="Sans" font-size="2.8677px" font-weight="bold" stroke-linecap="round" stroke-width=".20192" text-align="center" text-anchor="middle" style="paint-order:fill markers stroke" xml:space="preserve"><tspan x="142.64365" y="22.23892" fill="#000000" stroke-width=".20192">3</tspan></text><text x="64.142387" y="22.23892" fill="#000000" font-family="Sans" font-size="2.8677px" font-weight="bold" stroke-linecap="round" stroke-width=".20192" text-align="center" text-anchor="middle" style="paint-order:fill markers stroke" xml:space="preserve"><tspan x="64.142387" y="22.23892" fill="#000000" stroke-width=".20192">5</tspan></text><text id="text44" x="55.863842" y="22.23892" fill="#000000" font-family="Sans" font-size="2.8677px" font-weight="bold" stroke-linecap="round" stroke-width=".20192" text-align="center" text-anchor="middle" style="paint-order:fill markers stroke" xml:space="preserve"><tspan x="55.863842" y="22.23892" fill="#000000" stroke-width=".20192">6</tspan></text><text x="133.84959" y="22.23892" fill="#000000" font-family="Sans" font-size="2.8677px" font-weight="bold" stroke-linecap="round" stroke-width=".20192" text-align="center" text-anchor="middle" style="paint-order:fill markers stroke" xml:space="preserve"><tspan x="133.84959" y="22.23892" fill="#000000" stroke-width=".20192">4</tspan></text><text id="text46" x="48.307625" y="22.23892" fill="#000000" font-family="Sans" font-size="2.8677px" font-weight="bold" stroke-linecap="round" stroke-width=".20192" text-align="center" text-anchor="middle" style="paint-order:fill markers stroke" xml:space="preserve"><tspan x="48.307625" y="22.23892" fill="#000000" stroke-width=".20192">7</tspan></text><text id="text47" x="40.399136" y="22.23892" fill="#000000" font-family="Sans" font-size="2.8677px" font-weight="bold" stroke-linecap="round" stroke-width=".20192" text-align="center" text-anchor="middle" style="paint-order:fill markers stroke" xml:space="preserve"><tspan x="40.399136" y="22.23892" fill="#000000" stroke-width=".20192">8</tspan></text><use transform="translate(-23.046)" xlink:href="#text44"/><use transform="translate(-23.046)" xlink:href="#text46"/><use transform="translate(-23.046)" xlink:href="#text47"/></g></svg>
