<?xml version="1.0" encoding="UTF-8"?>
<svg width="85.03mm" height="57.226mm" version="1.1" viewBox="0 0 85.03 57.226" xmlns="http://www.w3.org/2000/svg" xmlns:xlink="http://www.w3.org/1999/xlink"><defs><marker id="marker192" overflow="visible" markerHeight="0.5" markerWidth="0.5" orient="auto-start-reverse" preserveAspectRatio="xMidYMid" viewBox="0 0 1 1"><path transform="scale(.5)" d="m5.77 0-8.65 5v-10z" fill="context-stroke" fill-rule="evenodd" stroke="context-stroke" stroke-width="1pt"/></marker></defs><g transform="translate(-72.301 -130.07)"><g transform="translate(190.53 210.47)"><g transform="translate(-49.17)"><g transform="translate(49.161)"><g transform="matrix(.95924 0 0 .95924 7.0181 -160.92)" stroke="#000"><rect x="-128.87" y="119.59" width="7.8903" height="5.3187" stroke-linecap="round" stroke-width=".30012" style="paint-order:fill markers stroke"/><rect x="-129.6" y="118.85" width="9.4913" height="6.8382" rx=".64464" ry=".64464" fill="none" stroke-linecap="round" stroke-width=".2696" style="paint-order:fill markers stroke"/><rect x="-129.33" y="119.13" width="8.9024" height="6.2837" rx=".39404" ry=".39404" fill="none" stroke-linecap="round" stroke-width=".18784" style="paint-order:fill markers stroke"/><path d="m-129.36 119.52h8.9504" fill="none" stroke-width=".21389" style="paint-order:fill markers stroke"/><path d="m-129.36 125.05h8.9439" fill="none" stroke-width=".21398" style="paint-order:fill markers stroke"/><path d="m-120.84 119.14v6.2771" fill="none" stroke-width=".18521" style="paint-order:fill markers stroke"/><path d="m-128.95 119.14v6.2771" fill="none" stroke-width=".18521" style="paint-order:fill markers stroke"/></g><text transform="matrix(.45208 0 0 .46429 -175.41 -398.51)" x="6.4919991" fill="none" font-family="sans-serif" font-weight="bold" stroke="#e66525" stroke-opacity=".48608" stroke-width=".40426" text-align="center" style="paint-order:fill markers stroke;shape-inside:url(#rect77);white-space:pre" xml:space="preserve"><tspan x="131.33403" y="767.20366"><tspan fill="#ffffff" font-family="Sans" font-size="8px" font-weight="normal" stroke="#ffffff" stroke-opacity="1">FX 1</tspan></tspan></text><text id="text312" transform="matrix(.8911 0 0 1.1222 -25.563 -131.86)" x="-97.623383" y="84.075127" fill="#000000" font-family="Sans" font-size="2.3348px" font-weight="bold" stroke-width="0" text-align="center" text-anchor="middle" style="font-variant-caps:normal;font-variant-east-asian:normal;font-variant-ligatures:normal;font-variant-numeric:normal;paint-order:fill markers stroke" xml:space="preserve"><tspan x="-97.623383" y="84.075127" stroke-width="0" text-align="center" text-anchor="middle">FX SELECT</tspan></text></g><g transform="translate(73.962)"><use id="use312" transform="translate(.072484)" xlink:href="#text312"/><g transform="matrix(.95924 0 0 .95924 7.0181 -160.92)" stroke="#000"><rect x="-128.87" y="119.59" width="7.8903" height="5.3187" stroke-linecap="round" stroke-width=".30012" style="paint-order:fill markers stroke"/><rect x="-129.6" y="118.85" width="9.4913" height="6.8382" rx=".64464" ry=".64464" fill="none" stroke-linecap="round" stroke-width=".2696" style="paint-order:fill markers stroke"/><rect x="-129.33" y="119.13" width="8.9024" height="6.2837" rx=".39404" ry=".39404" fill="none" stroke-linecap="round" stroke-width=".18784" style="paint-order:fill markers stroke"/><path d="m-129.36 119.52h8.9504" fill="none" stroke-width=".21389" style="paint-order:fill markers stroke"/><path d="m-129.36 125.05h8.9439" fill="none" stroke-width=".21398" style="paint-order:fill markers stroke"/><path d="m-120.84 119.14v6.2771" fill="none" stroke-width=".18521" style="paint-order:fill markers stroke"/><path d="m-128.95 119.14v6.2771" fill="none" stroke-width=".18521" style="paint-order:fill markers stroke"/></g><text transform="matrix(.39272 0 0 .4015 -167.26 -350.52)" x="6.4919991" fill="none" font-family="sans-serif" font-weight="bold" stroke="#e66525" stroke-opacity=".48608" stroke-width=".46642" text-align="center" style="paint-order:fill markers stroke;shape-inside:url(#rect121);white-space:pre" xml:space="preserve"><tspan x="131.33403" y="767.20366"><tspan fill="#ffffff" font-family="Sans" font-size="8px" font-weight="normal" stroke="#ffffff" stroke-opacity="1">FX 2</tspan></tspan></text></g><g transform="translate(98.762)"><g transform="matrix(.95924 0 0 .95924 7.0181 -160.92)" stroke="#000"><rect x="-128.87" y="119.59" width="7.8903" height="5.3187" stroke-linecap="round" stroke-width=".30012" style="paint-order:fill markers stroke"/><rect x="-129.6" y="118.85" width="9.4913" height="6.8382" rx=".64464" ry=".64464" fill="none" stroke-linecap="round" stroke-width=".2696" style="paint-order:fill markers stroke"/><rect x="-129.33" y="119.13" width="8.9024" height="6.2837" rx=".39404" ry=".39404" fill="none" stroke-linecap="round" stroke-width=".18784" style="paint-order:fill markers stroke"/><path d="m-129.36 119.52h8.9504" fill="none" stroke-width=".21389" style="paint-order:fill markers stroke"/><path d="m-129.36 125.05h8.9439" fill="none" stroke-width=".21398" style="paint-order:fill markers stroke"/><path d="m-120.84 119.14v6.2771" fill="none" stroke-width=".18521" style="paint-order:fill markers stroke"/><path d="m-128.95 119.14v6.2771" fill="none" stroke-width=".18521" style="paint-order:fill markers stroke"/></g><use transform="translate(.072485)" xlink:href="#use312"/><text transform="matrix(.41539 0 0 .42547 -170.42 -368.84)" x="6.4919991" fill="none" font-family="sans-serif" font-weight="bold" stroke="#e66525" stroke-opacity=".48608" stroke-width=".44055" text-align="center" style="paint-order:fill markers stroke;shape-inside:url(#rect123);white-space:pre" xml:space="preserve"><tspan x="131.33403" y="767.20366"><tspan fill="#ffffff" font-family="Sans" font-size="8px" font-weight="normal" stroke="#ffffff" stroke-opacity="1">FX 3</tspan></tspan></text></g><g transform="translate(123.56)"><g transform="matrix(.95924 0 0 .95924 7.0181 -160.92)" stroke="#000"><rect x="-128.87" y="119.59" width="7.8903" height="5.3187" stroke-linecap="round" stroke-width=".30012" style="paint-order:fill markers stroke"/><rect x="-129.6" y="118.85" width="9.4913" height="6.8382" rx=".64464" ry=".64464" fill="none" stroke-linecap="round" stroke-width=".2696" style="paint-order:fill markers stroke"/><rect x="-129.33" y="119.13" width="8.9024" height="6.2837" rx=".39404" ry=".39404" fill="none" stroke-linecap="round" stroke-width=".18784" style="paint-order:fill markers stroke"/><path d="m-129.36 119.52h8.9504" fill="none" stroke-width=".21389" style="paint-order:fill markers stroke"/><path d="m-129.36 125.05h8.9439" fill="none" stroke-width=".21398" style="paint-order:fill markers stroke"/><path d="m-120.84 119.14v6.2771" fill="none" stroke-width=".18521" style="paint-order:fill markers stroke"/><path d="m-128.95 119.14v6.2771" fill="none" stroke-width=".18521" style="paint-order:fill markers stroke"/></g><text transform="scale(.8911 1.1222)" x="-126.61237" y="-33.426769" fill="#000000" font-family="Sans" font-size="2.3348px" font-weight="bold" stroke-width="0" text-align="center" text-anchor="middle" style="font-variant-caps:normal;font-variant-east-asian:normal;font-variant-ligatures:normal;font-variant-numeric:normal;paint-order:fill markers stroke" xml:space="preserve"><tspan x="-126.61237" y="-33.426769" stroke-width="0" text-align="center" text-anchor="middle">MODE</tspan></text><text transform="matrix(.4615 0 0 .47453 -176.77 -406.33)" x="6.4919991" fill="none" font-family="sans-serif" font-weight="bold" stroke="#e66525" stroke-opacity=".48608" stroke-width=".39577" text-align="center" style="paint-order:fill markers stroke;shape-inside:url(#rect125);white-space:pre" xml:space="preserve"><tspan x="132.16203" y="767.20366"><tspan fill="#ffffff" font-family="Sans" font-size="8px" font-weight="normal" stroke="#ffffff" stroke-opacity="1">TAP</tspan></tspan></text></g></g><g transform="matrix(.65517 0 0 .65517 -49.792 -95.514)" fill="none" stroke="#000" stroke-linecap="square"><path d="m17.822 61.165-0.79893 0.0028s-0.0491-0.60772-0.7834-0.79376c-0.72895-0.20602-1.0753 0.29572-1.0753 0.29572l-0.69049-0.40189m-0.08297-11.908-0.69329 0.39704s0.26134 0.55085-0.28156 1.0791c-0.52827 0.5429-1.0791 0.28156-1.0791 0.28156l-0.39704 0.69329m-0.94504 3.5269-0.0028 0.79893s0.60772 0.0491 0.79376 0.7834c0.20602 0.72895-0.29572 1.0753-0.29572 1.0753l0.40189 0.69049m-0.89713-3.3481-0.0028-0.79893s0.60772-0.0491 0.81772-0.87279c0.22998-0.81834-0.27177-1.1647-0.27177-1.1647l0.40189-0.69049m11.908 0.08297-0.39704-0.69329s-0.55085 0.26134-1.1446-0.347c-0.60833-0.59371-0.347-1.1446-0.347-1.1446l-0.69329-0.39704m-6.7921 11.956-0.69329-0.39704s0.26134-0.55085-0.347-1.1446c-0.59371-0.60833-1.1446-0.347-1.1446-0.347l-0.39704-0.69329m6.0258-10.271 0.79893-0.0028s0.0491 0.60772 0.7834 0.79376c0.72895 0.20602 1.0753-0.29572 1.0753-0.29572l0.69049 0.40189m-3.3481-0.89713-0.79893-0.0028s-0.0491 0.60772-0.87279 0.81772c-0.81834 0.22998-1.1647-0.27177-1.1647-0.27177l-0.69049 0.40189m6.958 11.86 0.69329-0.39704s-0.26134-0.55085 0.28156-1.0791c0.52827-0.5429 1.0791-0.28156 1.0791-0.28156l0.39704-0.69329m-2.451 2.451-0.69049 0.40189s-0.34638-0.50175-1.1647-0.27177c-0.82369 0.21-0.87279 0.81772-0.87279 0.81772l-0.79893-0.0028m6.923-6.923 0.0028-0.79893s-0.60772-0.0491-0.79376-0.7834c-0.20602-0.72895 0.29572-1.0753 0.29572-1.0753l-0.40189-0.69049m0.89713 3.3481 0.0028 0.79893s-0.60772 0.0491-0.81772 0.87279c-0.22998 0.81834 0.27177 1.1647 0.27177 1.1647l-0.40189 0.69049" stroke-width=".13229" style="paint-order:fill markers stroke"/><circle cx="17.846" cy="54.291" r="7.415" stroke-width=".13229" style="paint-order:fill markers stroke"/><circle cx="17.846" cy="54.291" r="7.0351" stroke-width=".13229" style="paint-order:fill markers stroke"/><circle cx="17.846" cy="54.291" r="5.9607" stroke-width=".13229" style="paint-order:fill markers stroke"/><circle cx="17.846" cy="54.291" r="5.1482" stroke-width=".39688" style="paint-order:fill markers stroke"/></g><g id="use458" transform="translate(-130.36 -94.498)"><g transform="matrix(.76326 0 0 .76326 4.2248 -7.1259)"><path d="m17.822 61.165-0.79893 0.0028s-0.0491-0.60772-0.7834-0.79376c-0.72895-0.20602-1.0753 0.29572-1.0753 0.29572l-0.69049-0.40189m-0.08297-11.908-0.69329 0.39704s0.26134 0.55085-0.28156 1.0791c-0.52827 0.5429-1.0791 0.28156-1.0791 0.28156l-0.39704 0.69329m-0.94504 3.5269-0.0028 0.79893s0.60772 0.0491 0.79376 0.7834c0.20602 0.72895-0.29572 1.0753-0.29572 1.0753l0.40189 0.69049m-0.89713-3.3481-0.0028-0.79893s0.60772-0.0491 0.81772-0.87279c0.22998-0.81834-0.27177-1.1647-0.27177-1.1647l0.40189-0.69049m11.908 0.08297-0.39704-0.69329s-0.55085 0.26134-1.1446-0.347c-0.60833-0.59371-0.347-1.1446-0.347-1.1446l-0.69329-0.39704m-6.7921 11.956-0.69329-0.39704s0.26134-0.55085-0.347-1.1446c-0.59371-0.60833-1.1446-0.347-1.1446-0.347l-0.39704-0.69329m6.0258-10.271 0.79893-0.0028s0.0491 0.60772 0.7834 0.79376c0.72895 0.20602 1.0753-0.29572 1.0753-0.29572l0.69049 0.40189m-3.3481-0.89713-0.79893-0.0028s-0.0491 0.60772-0.87279 0.81772c-0.81834 0.22998-1.1647-0.27177-1.1647-0.27177l-0.69049 0.40189m6.958 11.86 0.69329-0.39704s-0.26134-0.55085 0.28156-1.0791c0.52827-0.5429 1.0791-0.28156 1.0791-0.28156l0.39704-0.69329m-2.451 2.451-0.69049 0.40189s-0.34638-0.50175-1.1647-0.27177c-0.82369 0.21-0.87279 0.81772-0.87279 0.81772l-0.79893-0.0028m6.923-6.923 0.0028-0.79893s-0.60772-0.0491-0.79376-0.7834c-0.20602-0.72895 0.29572-1.0753 0.29572-1.0753l-0.40189-0.69049m0.89713 3.3481 0.0028 0.79893s-0.60772 0.0491-0.81772 0.87279c-0.22998 0.81834 0.27177 1.1647 0.27177 1.1647l-0.40189 0.69049" fill="none" stroke="#000" stroke-linecap="square" stroke-width=".13229" style="paint-order:fill markers stroke"/><circle cx="17.846" cy="54.291" r="7.415" fill="none" stroke="#000" stroke-linecap="square" stroke-width=".13229" style="paint-order:fill markers stroke"/><circle cx="17.846" cy="54.291" r="7.0351" fill="none" stroke="#000" stroke-linecap="square" stroke-width=".13229" style="paint-order:fill markers stroke"/><circle cx="17.846" cy="54.291" r="5.9607" fill="none" stroke="#000" stroke-linecap="square" stroke-width=".13229" style="paint-order:fill markers stroke"/><circle cx="17.846" cy="54.291" r="5.1482" fill="none" stroke="#000" stroke-linecap="square" stroke-width=".39688" style="paint-order:fill markers stroke"/></g><path d="m21.099 40.209-0.68386-1.0079" fill="none" stroke="#000" stroke-linecap="square" stroke-width=".52917" style="paint-order:fill markers stroke"/><path d="m14.377 40.399 0.8682-1.4661" fill="none" stroke="#000" stroke-linecap="square" stroke-width=".13229" style="paint-order:fill markers stroke"/><path transform="translate(7.0833e-7 18.096)" d="m17.843 16.531v-5.9639" fill="none" stroke="#000" stroke-linecap="round" stroke-width=".52917" style="paint-order:fill markers stroke"/></g><use id="use459" transform="translate(24.77)" xlink:href="#use458"/><use transform="translate(24.77)" xlink:href="#use459"/></g></g><path d="m30.609 48.079v-2.9356" fill="none" marker-end="url(#marker192)" stroke="#000" stroke-width=".79375" style="paint-order:fill markers stroke"/><g transform="translate(-131.18 -55.08)"><g transform="translate(35.248 -85.378)"><text x="126.55083" y="192.38348" fill="#000000" font-family="Sans" font-size="3.7577px" font-weight="bold" stroke-linecap="round" stroke-width=".26458" text-align="center" text-anchor="middle" style="paint-order:fill markers stroke" xml:space="preserve"><tspan x="126.55083" y="192.38348" fill="#000000" stroke-width=".26458">42</tspan></text></g></g><path d="m26.548 50.565-21.106-0.05988v-5.983" fill="none" marker-end="url(#marker192)" stroke="#000" stroke-width=".79375" style="paint-order:fill markers stroke"/><path d="m34.67 50.565 21.106-0.05988v-5.983" fill="none" marker-end="url(#marker192)" stroke="#000" stroke-width=".79375" style="paint-order:fill markers stroke"/><path d="m74.013 50.565 5.8305-0.0149v-5.983" fill="none" marker-end="url(#marker192)" stroke="#000" stroke-width=".79375" style="paint-order:fill markers stroke"/><g transform="translate(-91.389 -55.08)"><g transform="translate(35.248 -85.378)"><text x="126.55083" y="192.38348" fill="#000000" font-family="Sans" font-size="3.7577px" font-weight="bold" stroke-linecap="round" stroke-width=".26458" text-align="center" text-anchor="middle" style="paint-order:fill markers stroke" xml:space="preserve"><tspan x="126.55083" y="192.38348" fill="#000000" stroke-width=".26458">44</tspan></text></g></g><path d="m30.609 6.9222v2.9356" fill="none" marker-end="url(#marker192)" stroke="#000" stroke-width=".79375" style="paint-order:fill markers stroke"/><g transform="translate(-131.18 -101.21)"><g transform="translate(35.248 -85.378)"><text x="126.55083" y="192.38348" fill="#000000" font-family="Sans" font-size="3.7577px" font-weight="bold" stroke-linecap="round" stroke-width=".26458" text-align="center" text-anchor="middle" style="paint-order:fill markers stroke" xml:space="preserve"><tspan x="126.55083" y="192.38348" fill="#000000" stroke-width=".26458">43</tspan></text></g></g><path d="m26.548 4.4364-21.106 0.05988v5.983" fill="none" marker-end="url(#marker192)" stroke="#000" stroke-width=".79375" style="paint-order:fill markers stroke"/><path d="m34.67 4.4364 21.106 0.05988v5.983" fill="none" marker-end="url(#marker192)" stroke="#000" stroke-width=".79375" style="paint-order:fill markers stroke"/><path d="m74.013 4.4364 5.8305 0.0149v5.983" fill="none" marker-end="url(#marker192)" stroke="#000" stroke-width=".79375" style="paint-order:fill markers stroke"/><g transform="translate(-91.389 -101.25)"><g transform="translate(35.248 -85.378)"><text x="126.55083" y="192.38348" fill="#000000" font-family="Sans" font-size="3.7577px" font-weight="bold" stroke-linecap="round" stroke-width=".26458" text-align="center" text-anchor="middle" style="paint-order:fill markers stroke" xml:space="preserve"><tspan x="126.55083" y="192.38348" fill="#000000" stroke-width=".26458">45</tspan></text></g></g></svg>
