<?xml version="1.0" encoding="UTF-8"?>
<svg width="44.794mm" height="178.15mm" version="1.1" viewBox="0 0 44.794 178.15" xmlns="http://www.w3.org/2000/svg" xmlns:xlink="http://www.w3.org/1999/xlink"><defs><marker id="marker192" overflow="visible" markerHeight="0.5" markerWidth="0.5" orient="auto-start-reverse" preserveAspectRatio="xMidYMid" viewBox="0 0 1 1"><path transform="scale(.5)" d="m5.77 0-8.65 5v-10z" fill="context-stroke" fill-rule="evenodd" stroke="context-stroke" stroke-width="1pt"/></marker></defs><g transform="translate(-128.32 -56.993)"><g transform="translate(122.51 107.15)"><g transform="matrix(.95924 0 0 .95924 137.78 -164.04)" stroke="#000"><rect x="-128.87" y="119.59" width="7.8903" height="5.3187" stroke-linecap="round" stroke-width=".30012" style="paint-order:fill markers stroke"/><rect x="-129.6" y="118.85" width="9.4913" height="6.8382" rx=".64464" ry=".64464" fill="none" stroke-linecap="round" stroke-width=".2696" style="paint-order:fill markers stroke"/><rect x="-129.33" y="119.13" width="8.9024" height="6.2837" rx=".39404" ry=".39404" fill="none" stroke-linecap="round" stroke-width=".18784" style="paint-order:fill markers stroke"/><path d="m-129.36 119.52h8.9504" fill="none" stroke-width=".21389" style="paint-order:fill markers stroke"/><path d="m-129.36 125.05h8.9439" fill="none" stroke-width=".21398" style="paint-order:fill markers stroke"/><path d="m-120.84 119.14v6.2771" fill="none" stroke-width=".18521" style="paint-order:fill markers stroke"/><path d="m-128.95 119.14v6.2771" fill="none" stroke-width=".18521" style="paint-order:fill markers stroke"/></g><text transform="matrix(.26458 0 0 .26458 -14.238 -248.98)" fill="none" font-family="sans-serif" font-weight="bold" stroke="#e66525" stroke-opacity=".48608" stroke-width=".7" style="paint-order:fill markers stroke;shape-inside:url(#rect81-0);white-space:pre" xml:space="preserve"><tspan x="111.22852" y="767.20366"><tspan fill="#ffffff" font-family="Sans" font-size="8px" font-weight="normal" stroke="#ffffff" stroke-opacity="1">LOAD</tspan></tspan></text><g id="g173" transform="matrix(.65885 0 0 .65885 86.591 -101.5)"><path d="m-112.65 99.929c-1.7792 0.0186-3.4167 1.3255-3.8316 3.0555-0.42527 1.7361 0.43973 3.6762 2.0438 4.4839 1.8067 0.98807 4.309 0.27957 5.2878-1.5457 1.0943-1.7417 0.49467-4.2638-1.2578-5.3416-0.65766-0.43719-1.4536-0.66675-2.2422-0.65208z" stroke="#000" stroke-width=".13975" style="paint-order:fill markers stroke"/><path d="m-112.66 99.457c-1.9898 0.02081-3.821 1.4824-4.285 3.417-0.47559 1.9415 0.49175 4.1112 2.2857 5.0144 2.0205 1.105 4.8189 0.31265 5.9135-1.7286 1.2238-1.9478 0.55321-4.7683-1.4066-5.9736-0.73549-0.48892-1.6256-0.74565-2.5075-0.72925z" fill="none" stroke="#000" stroke-width=".31496" style="paint-order:fill markers stroke"/><path d="m-112.66 98.92c-2.229 0.02331-4.2803 1.6606-4.8 3.8278-0.53276 2.1749 0.55087 4.6054 2.5604 5.6172 2.2633 1.2378 5.3982 0.35024 6.6243-1.9364 1.3709-2.1819 0.61971-5.3415-1.5757-6.6917-0.82389-0.54769-1.821-0.83528-2.8089-0.8169z" fill="none" stroke="#000" stroke-width=".15889" style="paint-order:fill markers stroke"/></g><text x="12.408257" y="-31.766834" fill="#000000" font-family="Sans" font-size="2.1167px" font-weight="bold" stroke="#000000" stroke-linecap="square" stroke-width=".092075" text-align="center" text-anchor="middle" style="font-variant-caps:normal;font-variant-east-asian:normal;font-variant-ligatures:normal;font-variant-numeric:normal;paint-order:fill markers stroke" xml:space="preserve"><tspan x="12.408257" y="-31.766834" fill="#ffffff" font-family="Sans" font-size="3.5278px" font-weight="bold" stroke="none" stroke-width=".092075" style="font-variant-caps:normal;font-variant-east-asian:normal;font-variant-ligatures:normal;font-variant-numeric:normal">A</tspan></text><use transform="translate(10.866)" xlink:href="#g173"/><text x="23.274626" y="-31.766834" fill="#000000" font-family="Sans" font-size="2.1167px" font-weight="bold" stroke="#000000" stroke-linecap="square" stroke-width=".092075" text-align="center" text-anchor="middle" style="font-variant-caps:normal;font-variant-east-asian:normal;font-variant-ligatures:normal;font-variant-numeric:normal;paint-order:fill markers stroke" xml:space="preserve"><tspan x="23.274626" y="-31.766834" fill="#ffffff" font-family="Sans" font-size="3.5278px" font-weight="bold" stroke="none" stroke-width=".092075" style="font-variant-caps:normal;font-variant-east-asian:normal;font-variant-ligatures:normal;font-variant-numeric:normal">B</tspan></text><g id="g336" transform="translate(0 -18.096)"><use transform="matrix(.76326 0 0 .76326 4.2248 -7.1259)" stroke-width="1.3102" xlink:href="#g333"/><path d="m21.099 40.209-0.68386-1.0079" fill="none" stroke="#000" stroke-linecap="square" stroke-width=".52917" style="paint-order:fill markers stroke"/><path d="m14.377 40.399 0.8682-1.4661" fill="none" stroke="#000" stroke-linecap="square" stroke-width=".13229" style="paint-order:fill markers stroke"/><path transform="translate(7.0833e-7 18.096)" d="m17.843 16.531v-5.9639" fill="none" stroke="#000" stroke-linecap="round" stroke-width=".52917" style="paint-order:fill markers stroke"/><text transform="scale(.92148 1.0852)" x="23.798138" y="39.014782" fill="none" font-family="Sans" font-size="1.3287px" font-weight="bold" stroke="#000000" stroke-linecap="square" stroke-width=".52917" text-align="center" text-anchor="middle" style="font-variant-caps:normal;font-variant-east-asian:normal;font-variant-ligatures:normal;font-variant-numeric:normal;paint-order:fill markers stroke" xml:space="preserve"><tspan x="23.798138" y="39.014782" fill="#000000" stroke="none" stroke-width=".52917">MAX</tspan></text><text transform="scale(.92148 1.0852)" x="15.228603" y="39.014782" fill="none" font-family="Sans" font-size="1.3287px" font-weight="bold" stroke="#000000" stroke-linecap="square" stroke-width=".52917" text-align="center" text-anchor="middle" style="font-variant-caps:normal;font-variant-east-asian:normal;font-variant-ligatures:normal;font-variant-numeric:normal;paint-order:fill markers stroke" xml:space="preserve"><tspan x="15.228603" y="39.014782" fill="#000000" stroke="none" stroke-width=".52917">MIN</tspan></text></g><use id="use336" transform="translate(0 18.096)" xlink:href="#g336"/><use transform="translate(0 -36.192)" xlink:href="#use336"/><text transform="scale(.87757 1.1395)" x="20.203552" y="37.661602" fill="#000000" font-family="Sans" font-size="2.0013px" font-weight="bold" stroke-linecap="square" stroke-width=".52917" text-align="center" text-anchor="middle" style="font-variant-caps:normal;font-variant-east-asian:normal;font-variant-ligatures:normal;font-variant-numeric:normal;paint-order:fill markers stroke" xml:space="preserve"><tspan x="20.203552" y="37.661602" stroke-width=".52917">LOW</tspan></text><text transform="scale(.87757 1.1395)" x="20.203552" y="21.882437" fill="#000000" font-family="Sans" font-size="2.0013px" font-weight="bold" stroke-linecap="square" stroke-width=".52917" text-align="center" text-anchor="middle" style="font-variant-caps:normal;font-variant-east-asian:normal;font-variant-ligatures:normal;font-variant-numeric:normal;paint-order:fill markers stroke" xml:space="preserve"><tspan x="20.203552" y="21.882437" stroke-width=".52917">MID</tspan></text><text transform="scale(.82065 1.2185)" x="21.604822" y="5.5223312" fill="#000000" font-family="Sans" font-size="1.8715px" font-weight="bold" stroke-linecap="square" stroke-width=".52917" text-align="center" text-anchor="middle" style="font-variant-caps:normal;font-variant-east-asian:normal;font-variant-ligatures:normal;font-variant-numeric:normal;paint-order:fill markers stroke" xml:space="preserve"><tspan x="21.604822" y="5.5223312" stroke-width=".52917">HIGH</tspan></text><use transform="translate(0 -54.194)" xlink:href="#use336"/><text transform="scale(.82065 1.2185)" x="21.604822" y="-9.2504683" fill="#000000" font-family="Sans" font-size="1.8715px" font-weight="bold" stroke-linecap="square" stroke-width=".52917" text-align="center" text-anchor="middle" style="font-variant-caps:normal;font-variant-east-asian:normal;font-variant-ligatures:normal;font-variant-numeric:normal;paint-order:fill markers stroke" xml:space="preserve"><tspan x="21.604822" y="-9.2504683" stroke-width=".52917">GAIN</tspan></text><path transform="translate(-.24755 -.17908)" d="m24.201 63.581-1.2279-1.544m1.9423 0.92566-1.3302-1.3839m1.9836 0.70138-1.4205-1.2244m2.0071 0.48371-1.466-1.0413m1.9806 0.24898-1.5132-0.87408m1.9513 0.03704-1.5245-0.69924m1.8823-0.17516-1.5006-0.52453m1.775-0.37953-1.4847-0.36723m1.6732-0.55855-1.4268-0.21375m1.5278-0.72562-1.3534-0.07441m1.366-0.87029-1.2836 0.0499m1.2077-0.99163-1.1694 0.15602m1.0057-1.0865-1.0676 0.24594m0.81745-1.157-0.96058 0.31853m0.62618-1.2022-0.85159 0.37415m0.43592-1.2226-0.74268 0.41323m0.24939-1.219-0.63769 0.43769m0.07111-1.1937-0.5381 0.44892m-0.09679-1.1486-0.44612 0.44942m-0.25149-1.0866-0.36225 0.44077m-0.39196-1.0098-0.28773 0.4259m-0.51645-0.92179-0.22267 0.40724m-0.62441-0.82565-0.16643 0.38653m-0.71611-0.72378-0.11849 0.36634m-0.79175-0.61946-0.07764 0.34877m-0.8523-0.51555-0.0421 0.33432m-0.89938-0.41328-0.01033 0.32815m-0.9344-0.31861 0.02163 0.34674m-0.96132-0.24877 0.05334 0.33899m-0.97973-0.15346 0.0886 0.3472m-0.99355-0.07574 0.13277 0.37105m-1.0083-0.01603 0.17931 0.38344m-1.0178 0.052 0.22588 0.38446m-1.0199 0.12758 0.2978 0.41279m-1.0404 0.17135 0.37377 0.42723m-1.0584 0.22388 0.448 0.42432m-1.0686 0.28803 0.53754 0.42107m-1.0887 0.34628 0.64389 0.41336m-1.1208 0.40223 0.74105 0.38291m-1.1395 0.47375 0.83715 0.33743m-1.1536 0.55277 0.95761 0.28511m-1.1893 0.63082 1.0583 0.20969m-1.2033 0.72391 1.1431 0.11678m-1.1999 0.82629 1.2501 0.01004m-1.2184 0.93421 1.3255-0.11393m-1.2055 1.0511 1.3803-0.25049m-1.1731 1.1723 1.4428-0.40443m-1.1502 1.3028 1.464-0.56292m-1.0886 1.4299 1.4706-0.7302m-1.0157 1.5582 1.4646-0.90734m-0.93412 1.6891 1.4138-1.0713m-0.8124 1.7999 1.3626-1.2497m-0.69562 1.9188 1.2775-1.4138m-0.55082 2.0175 1.1633-1.5591" fill="none" stroke="#000" stroke-linecap="square" stroke-width=".3175" style="paint-order:fill markers stroke"/><text transform="matrix(.74417 .33309 -.50108 1.1195 7.0833e-7 -7.5e-7)" x="47.607189" y="43.381214" fill="none" font-family="Sans" font-size="4.3838px" font-weight="bold" stroke="#000000" stroke-linecap="square" stroke-width=".26458" text-align="center" text-anchor="middle" style="font-variant-caps:normal;font-variant-east-asian:normal;font-variant-ligatures:normal;font-variant-numeric:normal;paint-order:fill markers stroke" xml:space="preserve"><tspan x="47.607189" y="43.381214" fill="#000000" font-family="Sans" font-size="1.7535px" font-weight="bold" stroke="none" stroke-width=".26458" style="font-variant-caps:normal;font-variant-east-asian:normal;font-variant-ligatures:normal;font-variant-numeric:normal">LO</tspan></text><text transform="matrix(.80264 -.14323 .21547 1.2074 7.0833e-7 -7.5e-7)" x="12.541478" y="54.889225" fill="none" font-family="Sans" font-size="4.3838px" font-weight="bold" stroke="#000000" stroke-linecap="square" stroke-width=".26458" text-align="center" text-anchor="middle" style="font-variant-caps:normal;font-variant-east-asian:normal;font-variant-ligatures:normal;font-variant-numeric:normal;paint-order:fill markers stroke" xml:space="preserve"><tspan x="12.541478" y="54.889225" fill="#000000" font-family="Sans" font-size="1.7535px" font-weight="bold" stroke="none" stroke-width=".26458" style="font-variant-caps:normal;font-variant-east-asian:normal;font-variant-ligatures:normal;font-variant-numeric:normal">HI</tspan></text><g id="g333"><path d="m17.822 61.165-0.79893 0.0028s-0.0491-0.60772-0.7834-0.79376c-0.72895-0.20602-1.0753 0.29572-1.0753 0.29572l-0.69049-0.40189m-0.08297-11.908-0.69329 0.39704s0.26134 0.55085-0.28156 1.0791c-0.52827 0.5429-1.0791 0.28156-1.0791 0.28156l-0.39704 0.69329m-0.94504 3.5269-0.0028 0.79893s0.60772 0.0491 0.79376 0.7834c0.20602 0.72895-0.29572 1.0753-0.29572 1.0753l0.40189 0.69049m-0.89713-3.3481-0.0028-0.79893s0.60772-0.0491 0.81772-0.87279c0.22998-0.81834-0.27177-1.1647-0.27177-1.1647l0.40189-0.69049m11.908 0.08297-0.39704-0.69329s-0.55085 0.26134-1.1446-0.347c-0.60833-0.59371-0.347-1.1446-0.347-1.1446l-0.69329-0.39704m-6.7921 11.956-0.69329-0.39704s0.26134-0.55085-0.347-1.1446c-0.59371-0.60833-1.1446-0.347-1.1446-0.347l-0.39704-0.69329m6.0258-10.271 0.79893-0.0028s0.0491 0.60772 0.7834 0.79376c0.72895 0.20602 1.0753-0.29572 1.0753-0.29572l0.69049 0.40189m-3.3481-0.89713-0.79893-0.0028s-0.0491 0.60772-0.87279 0.81772c-0.81834 0.22998-1.1647-0.27177-1.1647-0.27177l-0.69049 0.40189m6.958 11.86 0.69329-0.39704s-0.26134-0.55085 0.28156-1.0791c0.52827-0.5429 1.0791-0.28156 1.0791-0.28156l0.39704-0.69329m-2.451 2.451-0.69049 0.40189s-0.34638-0.50175-1.1647-0.27177c-0.82369 0.21-0.87279 0.81772-0.87279 0.81772l-0.79893-0.0028m6.923-6.923 0.0028-0.79893s-0.60772-0.0491-0.79376-0.7834c-0.20602-0.72895 0.29572-1.0753 0.29572-1.0753l-0.40189-0.69049m0.89713 3.3481 0.0028 0.79893s-0.60772 0.0491-0.81772 0.87279c-0.22998 0.81834 0.27177 1.1647 0.27177 1.1647l-0.40189 0.69049" fill="none" stroke="#000" stroke-linecap="square" stroke-width=".13229" style="paint-order:fill markers stroke"/><circle cx="17.846" cy="54.291" r="7.415" fill="none" stroke="#000" stroke-linecap="square" stroke-width=".13229" style="paint-order:fill markers stroke"/><circle cx="17.846" cy="54.291" r="7.0351" fill="none" stroke="#000" stroke-linecap="square" stroke-width=".13229" style="paint-order:fill markers stroke"/><circle cx="17.846" cy="54.291" r="5.9607" fill="none" stroke="#000" stroke-linecap="square" stroke-width=".13229" style="paint-order:fill markers stroke"/><circle cx="17.846" cy="54.291" r="5.1482" fill="none" stroke="#000" stroke-linecap="square" stroke-width=".39688" style="paint-order:fill markers stroke"/></g><text transform="scale(.8911 1.1222)" x="20.028343" y="60.377335" fill="#000000" font-family="Sans" font-size="2.3348px" font-weight="bold" stroke-width="0" text-align="center" text-anchor="middle" style="font-variant-caps:normal;font-variant-east-asian:normal;font-variant-ligatures:normal;font-variant-numeric:normal;paint-order:fill markers stroke" xml:space="preserve"><tspan x="20.028343" y="60.377335" stroke-width="0" text-align="center" text-anchor="middle">FILTER</tspan></text><g transform="matrix(.90456 0 0 .90522 142.7 18.811)" stroke="#000"><path d="m-148.11 118.02h20.121" fill="none" stroke-width=".55255" style="paint-order:fill markers stroke"/><path d="m-147.82 113.77h19.527" fill="none" stroke-width=".33153" style="paint-order:fill markers stroke"/><path d="m-147.82 109.63h19.527" fill="none" stroke-width=".34147" style="paint-order:fill markers stroke"/><path d="m-147.82 105.49h19.527" fill="none" stroke-width=".34147" style="paint-order:fill markers stroke"/><path d="m-147.82 101.34h19.527" fill="none" stroke-width=".34147" style="paint-order:fill markers stroke"/><path d="m-147.82 97.199h19.527" fill="none" stroke-width=".34147" style="paint-order:fill markers stroke"/><path d="m-147.82 93.055h19.527" fill="none" stroke-width=".34147" style="paint-order:fill markers stroke"/><path d="m-147.82 88.911h19.527" fill="none" stroke-width=".34147" style="paint-order:fill markers stroke"/><path d="m-147.82 84.767h19.527" fill="none" stroke-width=".34147" style="paint-order:fill markers stroke"/><path d="m-148.11 80.523h20.121" fill="none" stroke-width=".53809" style="paint-order:fill markers stroke"/><path d="m-138.1 120.49v-39.739" fill="none" stroke-width=".22102" style="paint-order:fill markers stroke"/><rect x="-139.1" y="80.514" width="2.0106" height="39.986" fill="none" stroke-width=".22102" style="paint-order:fill markers stroke"/><rect x="-146.29" y="77.077" width="16.532" height="7.4908" fill="none" stroke-linecap="square" stroke-width=".29239" style="paint-order:fill markers stroke"/><rect x="-146.2" y="78.134" width="16.303" height="5.2832" fill="none" stroke-linecap="square" stroke-width=".29239" style="paint-order:fill markers stroke"/><path d="m-146.24 79.547v2.1573h16.109v-2.1573zm4.4023 0.30028h7.6964c0.41587 0 0.75067 0.33484 0.75067 0.7507v0.11018c0 0.41586-0.3348 0.7507-0.75067 0.7507h-7.6964c-0.41586 0-0.75067-0.33484-0.75067-0.7507v-0.11018c0-0.41586 0.33481-0.7507 0.75067-0.7507z" stroke-linecap="square" stroke-width=".29239" style="paint-order:fill markers stroke"/></g><g transform="matrix(.87931 0 0 .87931 1.2926 8.7307)" stroke-width="1.1372"><use transform="matrix(1.0915 0 0 1.0915 -2.8322 108.39)" stroke-width="1.042" xlink:href="#g173"/><path d="m10.711 70.122c-1.2067-1.2e-5 -2.185 0.97846-2.185 2.1854 8.559e-4 0.51327 0.18227 1.0099 0.5125 1.4028v0.11633c0 0.40811 0.19947 0.73676 0.4472 0.73676h0.53596v-2.2718h-0.53596c-0.24773 0-0.4472 0.32865-0.4472 0.73676v0.12143c-0.13171-0.26121-0.20043-0.54965-0.20065-0.8422 9.31e-5 -1.0346 0.83874-1.8733 1.8732-1.8732 1.0343 9.3e-5 1.8727 0.8387 1.8728 1.8732-2.15e-4 0.29255-0.06894 0.58099-0.20065 0.8422v-0.12143c0-0.4081-0.19947-0.73676-0.4472-0.73676h-0.53596v2.2718h0.53596c0.24774 0 0.4472-0.32865 0.4472-0.73676v-0.11633c0.33023-0.39288 0.51166-0.8895 0.5125-1.4028 1.1e-5 -1.2069-0.97806-2.1853-2.1847-2.1854z" fill="#fff" style="paint-order:fill markers stroke"/><text transform="matrix(1.0134 0 0 1.2762 -1.47 -9.929)" x="11.914729" y="69.067017" fill="#000000" font-family="Sans" font-size="2.3348px" font-weight="bold" stroke-width="0" text-align="center" text-anchor="middle" style="font-variant-caps:normal;font-variant-east-asian:normal;font-variant-ligatures:normal;font-variant-numeric:normal;paint-order:fill markers stroke" xml:space="preserve"><tspan x="11.914729" y="69.067017" stroke-width="0" text-align="center" text-anchor="middle">CUE</tspan></text></g><path d="m22.415 69.993v0.0031c-0.0071-2.07e-4 -0.01412-3.79e-4 -0.02119-5.17e-4 -1.2223 1.01e-4 -2.2132 1.0083-2.2133 2.2521 8.2e-5 1.2437 0.99098 2.252 2.2133 2.2521 0.0071-6.55e-4 0.01413-0.0013 0.02119-0.0021v0.0015h5.1552v-0.0026c0.01084 0.0011 0.0217 0.0021 0.03256 0.0031 1.2223-1.02e-4 2.2132-1.0083 2.2133-2.2521-8.2e-5 -1.2437-0.99097-2.252-2.2133-2.2521-0.01086 9.52e-4 -0.02171 2e-3 -0.03256 0.0031v-0.0057zm-0.02119 0.47336c0.0071 3.01e-4 0.01413 6.46e-4 0.02119 1e-3 0.50633 0.0062 0.98524 0.23518 1.3131 0.62787 0.10108-0.11942 0.21754-0.22442 0.34623-0.31212 0.27908-0.18605 0.60532-0.28552 0.93896-0.28629 0.32697 1.98e-4 0.64712 0.09521 0.92294 0.27388 0.14062 0.09093 0.26752 0.20216 0.37672 0.33021 0.31745-0.37124 0.77381-0.58938 1.2573-0.601 0.01084-0.0011 0.0217-0.0022 0.03256-0.0031 0.95017 8.3e-5 1.7204 0.78395 1.7203 1.7508 7.3e-5 0.96685-0.77014 1.7507-1.7203 1.7508-0.01086-9.28e-4 -0.02171-2e-3 -0.03256-0.0031-0.48617-0.01158-0.94481-0.23199-1.2625-0.60668-0.10816 0.12914-0.23419 0.24159-0.37414 0.33383-0.27486 0.17893-0.59406 0.27464-0.92036 0.27595-0.33405-7.15e-4 -0.66067-0.10037-0.93999-0.2868-0.13048-0.08899-0.24836-0.19575-0.35037-0.31729-0.32583 0.39306-0.80268 0.62367-1.3079 0.63252-0.0071 7.33e-4 -0.01412 0.0014-0.02119 0.0021-0.96665-1.52e-4 -1.7502-0.79762-1.7503-1.7813 4.4e-5 -0.98367 0.78363-1.7811 1.7503-1.7813z" fill="none" stroke="#000" stroke-linecap="square" stroke-width=".13229" style="paint-order:fill markers stroke"/><path d="m22.409 70.466c-0.96665 1.52e-4 -1.7502 0.79762-1.7503 1.7813 4.4e-5 0.98367 0.78363 1.7811 1.7503 1.7813 0.0071-6.45e-4 0.01413-0.0013 0.02119-0.0021 0.50525-0.0089 0.98211-0.23946 1.3079-0.63252 0.102 0.12154 0.21989 0.2283 0.35037 0.31729 0.27932 0.18643 0.60595 0.28609 0.93999 0.2868 0.32629-0.0013 0.6455-0.09702 0.92036-0.27595 0.13995-0.09224 0.26598-0.20469 0.37414-0.33383 0.31764 0.37469 0.77629 0.5951 1.2625 0.60668 0.01084 0.0011 0.0217 0.0022 0.03256 0.0031 0.95017-8.2e-5 1.7204-0.78394 1.7203-1.7508 7.3e-5 -0.96686-0.77014-1.7507-1.7203-1.7508-0.01086 9.29e-4 -0.02171 2e-3 -0.03256 0.0031-0.48348 0.01162-0.93983 0.22976-1.2573 0.601-0.1092-0.12805-0.2361-0.23928-0.37672-0.33021-0.27582-0.17868-0.59597-0.27369-0.92294-0.27388-0.33364 7.66e-4 -0.65988 0.10023-0.93896 0.28629-0.12869 0.08771-0.24516 0.1927-0.34623 0.31212-0.32785-0.39269-0.80677-0.62169-1.3131-0.62787-0.0071-3.88e-4 -0.01412-7.33e-4 -0.02119-1e-3z" fill="none" stroke="#000" stroke-linecap="square" stroke-width=".26458" style="paint-order:fill markers stroke"/><text transform="scale(.8911 1.1222)" x="28.115564" y="69.067009" fill="#000000" font-family="Sans" font-size="2.3348px" font-weight="bold" stroke-width="0" text-align="center" text-anchor="middle" style="font-variant-caps:normal;font-variant-east-asian:normal;font-variant-ligatures:normal;font-variant-numeric:normal;paint-order:fill markers stroke" xml:space="preserve"><tspan x="28.115564" y="69.067009" stroke-width="0" text-align="center" text-anchor="middle">A OFF B</tspan></text><rect x="6.4893" y="-6.6361" width="3.2822" height="28.073" fill="none" stroke="#000" stroke-width=".13229" style="paint-order:fill markers stroke"/><rect x="5.9443" y="-7.2111" width="4.3722" height="29.223" fill="none" stroke="#000" stroke-width=".26458" style="paint-order:fill markers stroke"/><rect x="7.0767" y="-5.9812" width="2.1073" height="26.764" fill="none" stroke="#000" stroke-width=".13229" style="paint-order:fill markers stroke"/><rect x="7.0282" y="-5.2124" width="1.9501" height="3.9819" fill="none" stroke="#000" stroke-width=".26458" style="paint-order:fill markers stroke"/><rect x="7.0282" y=".045612" width="1.9501" height="3.9819" fill="none" stroke="#000" stroke-width=".26458" style="paint-order:fill markers stroke"/><rect x="7.0282" y="15.82" width="1.9501" height="3.9819" fill="none" stroke="#000" stroke-width=".26458" style="paint-order:fill markers stroke"/><rect x="7.0282" y="5.3036" width="1.9501" height="3.9819" fill="none" stroke="#000" stroke-width=".26458" style="paint-order:fill markers stroke"/><rect x="7.0282" y="10.562" width="1.9501" height="3.9819" fill="none" stroke="#000" stroke-width=".26458" style="paint-order:fill markers stroke"/><path d="m9.7512 21.435-0.56964-0.64857" fill="none" stroke="#000" stroke-linecap="round" stroke-width=".13229" style="paint-order:fill markers stroke"/><path d="m7.0861 20.777-0.57434 0.64438" fill="none" stroke="#000" stroke-linecap="round" stroke-width=".13229" style="paint-order:fill markers stroke"/><path d="m7.0909-5.9469-0.59984-0.67602" fill="none" stroke="#000" stroke-linecap="round" stroke-width=".13229" style="paint-order:fill markers stroke"/><path d="m9.1943-5.9709 0.52904-0.63307" fill="none" stroke="#000" stroke-linecap="round" stroke-width=".13229" style="paint-order:fill markers stroke"/><rect x="15.058" y="81.073" width="5.4367" height="5.341" ry=".75999" fill="none" stroke="#000" stroke-linecap="square" stroke-width=".26458" style="paint-order:fill markers stroke"/><text x="16.140032" y="82.885643" fill="#000000" font-family="Sans" font-size="4.5861px" stroke-linecap="square" stroke-width=".26458" text-align="center" style="font-variant-caps:normal;font-variant-east-asian:normal;font-variant-ligatures:normal;font-variant-numeric:normal;paint-order:fill markers stroke;shape-inside:url(#rect441);white-space:pre" xml:space="preserve"><tspan x="16.033645" y="85.245053">N</tspan></text></g><path transform="rotate(180 136.84 179.8)" d="m115.43 160.51h5.2995" fill="none" marker-end="url(#marker192)" stroke="#000" stroke-width=".79375" style="paint-order:fill markers stroke"/><path d="m155.16 190.9h-8.3009" fill="none" marker-end="url(#marker192)" stroke="#000" stroke-width=".79375" style="paint-order:fill markers stroke"/><path d="m155.13 186.59h-14.74v-6.9834h-2.3356" fill="none" marker-end="url(#marker192)" stroke="#000" stroke-width=".79375" style="paint-order:fill markers stroke"/><path d="m157.63 179.6h-2.9217" fill="none" marker-end="url(#marker192)" stroke="#000" stroke-width=".79375" style="paint-order:fill markers stroke"/><path d="m157.63 162.06h-5.0947" fill="none" marker-end="url(#marker192)" stroke="#000" stroke-width=".79375" style="paint-order:fill markers stroke"/><path d="m157.63 141.65h-9.437" fill="none" marker-end="url(#marker192)" stroke="#000" stroke-width=".79375" style="paint-order:fill markers stroke"/><path d="m157.63 123.52h-9.437" fill="none" marker-end="url(#marker192)" stroke="#000" stroke-width=".79375" style="paint-order:fill markers stroke"/><path d="m157.63 105.4h-9.437" fill="none" marker-end="url(#marker192)" stroke="#000" stroke-width=".79375" style="paint-order:fill markers stroke"/><path d="m157.63 87.274h-9.437" fill="none" marker-end="url(#marker192)" stroke="#000" stroke-width=".79375" style="paint-order:fill markers stroke"/><path d="m157.63 115.68h-22.523" fill="none" marker-end="url(#marker192)" stroke="#000" stroke-width=".79375" style="paint-order:fill markers stroke"/><path d="m157.63 60.343h-9.437" fill="none" marker-end="url(#marker192)" stroke="#000" stroke-width=".79375" style="paint-order:fill markers stroke"/><path d="m157.63 67.144h-22.672v1.9609" fill="none" marker-end="url(#marker192)" stroke="#000" stroke-width=".79375" style="paint-order:fill markers stroke"/><path d="m157.63 67.144h-11.867v1.9609" fill="none" marker-end="url(#marker192)" stroke="#000" stroke-width=".79375" style="paint-order:fill markers stroke"/><text transform="matrix(.26458 0 0 .26458 128.32 56.993)" fill="none" font-family="Sans" font-size="5.3333px" stroke="#000000" stroke-width="3" text-align="center" style="paint-order:fill markers stroke;shape-inside:url(#rect62);white-space:pre" xml:space="preserve"/><g transform="translate(35.248 8.1272)"><text x="126.55083" y="192.38348" fill="#000000" font-family="Sans" font-size="3.7577px" font-weight="bold" stroke-linecap="round" stroke-width=".26458" text-align="center" text-anchor="middle" style="paint-order:fill markers stroke" xml:space="preserve"><tspan x="126.55083" y="192.38348" fill="#000000" stroke-width=".26458">12</tspan></text></g><text x="161.74651" y="204.49377" fill="none" font-family="Sans" font-size="1.4111px" stroke="#000000" stroke-width=".79375" text-align="center" text-anchor="middle" style="paint-order:fill markers stroke" xml:space="preserve"><tspan stroke-width=".79375"/></text><g transform="translate(34.542 -1.2662)"><text x="126.55083" y="192.38348" fill="#000000" font-family="Sans" font-size="2.4694px" font-weight="bold" stroke-linecap="round" stroke-width=".26458" text-align="center" text-anchor="middle" style="paint-order:fill markers stroke" xml:space="preserve"><tspan x="126.55083" y="192.38348">Mixer</tspan><tspan x="126.55083" y="195.47029">Channel</tspan></text></g><g transform="translate(35.248 -4.764)"><text x="126.55083" y="192.38348" fill="#000000" font-family="Sans" font-size="3.7577px" font-weight="bold" stroke-linecap="round" stroke-width=".26458" text-align="center" text-anchor="middle" style="paint-order:fill markers stroke" xml:space="preserve"><tspan x="126.55083" y="192.38348" fill="#000000" stroke-width=".26458">13</tspan></text></g><g transform="translate(35.248 -11.36)"><text x="126.55083" y="192.38348" fill="#000000" font-family="Sans" font-size="3.7577px" font-weight="bold" stroke-linecap="round" stroke-width=".26458" text-align="center" text-anchor="middle" style="paint-order:fill markers stroke" xml:space="preserve"><tspan x="126.55083" y="192.38348" fill="#000000" stroke-width=".26458">14</tspan></text></g><g transform="translate(35.248 -28.957)"><text x="126.55083" y="192.38348" fill="#000000" font-family="Sans" font-size="3.7577px" font-weight="bold" stroke-linecap="round" stroke-width=".26458" text-align="center" text-anchor="middle" style="paint-order:fill markers stroke" xml:space="preserve"><tspan x="126.55083" y="192.38348" fill="#000000" stroke-width=".26458">47</tspan></text></g><g transform="translate(35.248 -49.332)"><text x="126.55083" y="192.38348" fill="#000000" font-family="Sans" font-size="3.7577px" font-weight="bold" stroke-linecap="round" stroke-width=".26458" text-align="center" text-anchor="middle" style="paint-order:fill markers stroke" xml:space="preserve"><tspan x="126.55083" y="192.38348" fill="#000000" stroke-width=".26458">11</tspan></text></g><g transform="translate(35.248 -67.355)"><text x="126.55083" y="192.38348" fill="#000000" font-family="Sans" font-size="3.7577px" font-weight="bold" stroke-linecap="round" stroke-width=".26458" text-align="center" text-anchor="middle" style="paint-order:fill markers stroke" xml:space="preserve"><tspan x="126.55083" y="192.38348" fill="#000000" stroke-width=".26458">10</tspan></text></g><g transform="translate(35.248 -75.391)"><text x="126.55083" y="192.38348" fill="#000000" font-family="Sans" font-size="3.7577px" font-weight="bold" stroke-linecap="round" stroke-width=".26458" text-align="center" text-anchor="middle" style="paint-order:fill markers stroke" xml:space="preserve"><tspan x="126.55083" y="192.38348" fill="#000000" stroke-width=".26458">8</tspan></text></g><g transform="translate(35.248 -85.378)"><text x="126.55083" y="192.38348" fill="#000000" font-family="Sans" font-size="3.7577px" font-weight="bold" stroke-linecap="round" stroke-width=".26458" text-align="center" text-anchor="middle" style="paint-order:fill markers stroke" xml:space="preserve"><tspan x="126.55083" y="192.38348" fill="#000000" stroke-width=".26458">9</tspan></text></g><g transform="translate(35.248 -103.53)"><text x="126.55083" y="192.38348" fill="#000000" font-family="Sans" font-size="3.7577px" font-weight="bold" stroke-linecap="round" stroke-width=".26458" text-align="center" text-anchor="middle" style="paint-order:fill markers stroke" xml:space="preserve"><tspan x="126.55083" y="192.38348" fill="#000000" stroke-width=".26458">7</tspan></text></g><g transform="translate(35.248 -123.8)"><text x="126.55083" y="192.38348" fill="#000000" font-family="Sans" font-size="3.7577px" font-weight="bold" stroke-linecap="round" stroke-width=".26458" text-align="center" text-anchor="middle" style="paint-order:fill markers stroke" xml:space="preserve"><tspan x="126.55083" y="192.38348" fill="#000000" stroke-width=".26458">46</tspan></text></g><g transform="translate(35.248 -130.62)"><text x="126.55083" y="192.38348" fill="#000000" font-family="Sans" font-size="3.7577px" font-weight="bold" stroke-linecap="round" stroke-width=".26458" text-align="center" text-anchor="middle" style="paint-order:fill markers stroke" xml:space="preserve"><tspan x="126.55083" y="192.38348" fill="#000000" stroke-width=".26458">38</tspan></text></g></g></svg>
