<?xml version="1.0" encoding="UTF-8"?>
<svg width="227.54mm" height="72.76mm" version="1.1" viewBox="0 0 227.54 72.76" xml:space="preserve" xmlns="http://www.w3.org/2000/svg"><g fill="none" stroke="#000" stroke-linecap="round" stroke-linejoin="round" stroke-width=".15739"><rect x="19.57" y="28.92" width="2.4811" height=".95589" style="paint-order:normal"/><rect x="24.332" y="28.92" width="2.4811" height=".95589" style="paint-order:normal"/></g><rect x="7.9974" y="11.196" width="211.13" height="56.941" fill="none" stroke="#000" stroke-linecap="round" stroke-linejoin="round" stroke-width=".273"/><g transform="matrix(.037753 0 0 .037753 -121.42 -22.295)" clip-rule="evenodd" fill-rule="evenodd" stroke-linejoin="round" stroke-miterlimit="1.5"><g transform="translate(-287,-128)"><g transform="translate(764.65 1552.8)"><g transform="matrix(-1,0,0,-1.0028,5071.4,1200.2)"><path d="m1955.6 260.58c0-6.248-5.08-11.32-11.35-11.32h-80.61c-6.26 0-11.35 5.072-11.35 11.32v697.61h103.31z" fill="none" stroke="#000" stroke-linecap="round" stroke-width="6.24px"/></g><g transform="matrix(-1,0,0,-1.0028,5174.7,1200.2)"><path d="m1955.6 260.58c0-6.248-5.08-11.32-11.35-11.32h-80.61c-6.26 0-11.35 5.072-11.35 11.32v697.61h103.31z" fill="none" stroke="#000" stroke-linecap="round" stroke-width="6.24px"/></g><g transform="translate(516.56)"><g transform="matrix(-1,0,0,-1.0016,4657.2,959.83)"><rect x="1926.8" y="239.31" width="55.911" height="480.06" stroke="#000" stroke-linecap="round" stroke-width="6.25px"/></g></g><g transform="matrix(.25582 0 0 1 2457.9 0)"><path d="m3379.3 239.31h-807.68" fill="none" stroke="#000" stroke-linecap="square" stroke-width="8.56px"/></g></g><g transform="translate(1487.9 1552.8)"><g transform="matrix(-1,0,0,-1.0028,4554.8,1200.2)"><path d="m1955.6 260.58c0-6.248-5.08-11.32-11.35-11.32h-80.61c-6.26 0-11.35 5.072-11.35 11.32v697.61h103.31z" fill="none" stroke="#000" stroke-linecap="round" stroke-width="6.24px"/></g><g transform="matrix(-1,0,0,-1.0028,4658.1,1200.2)"><path d="m1955.6 260.58c0-6.248-5.08-11.32-11.35-11.32h-80.61c-6.26 0-11.35 5.072-11.35 11.32v697.61h103.31z" fill="none" stroke="#000" stroke-linecap="round" stroke-width="6.24px"/></g><g transform="matrix(-1,0,0,-1.0028,4761.4,1200.2)"><path d="m1955.6 260.58c0-6.248-5.08-11.32-11.35-11.32h-80.61c-6.26 0-11.35 5.072-11.35 11.32v697.61h103.31z" fill="none" stroke="#000" stroke-linecap="round" stroke-width="6.24px"/></g><g transform="matrix(-1,0,0,-1.0028,4864.7,1200.2)"><path d="m1955.6 260.58c0-6.248-5.08-11.32-11.35-11.32h-80.61c-6.26 0-11.35 5.072-11.35 11.32v697.61h103.31z" fill="none" stroke="#000" stroke-linecap="round" stroke-width="6.24px"/></g><g transform="matrix(-1,0,0,-1.0028,4968,1200.2)"><path d="m1955.6 260.58c0-6.248-5.08-11.32-11.35-11.32h-80.61c-6.26 0-11.35 5.072-11.35 11.32v697.61h103.31z" fill="none" stroke="#000" stroke-linecap="round" stroke-width="6.24px"/></g><g transform="matrix(-1,0,0,-1.0028,5071.4,1200.2)"><path d="m1955.6 260.58c0-6.248-5.08-11.32-11.35-11.32h-80.61c-6.26 0-11.35 5.072-11.35 11.32v697.61h103.31z" fill="none" stroke="#000" stroke-linecap="round" stroke-width="6.24px"/></g><g transform="matrix(-1,0,0,-1.0028,5174.7,1200.2)"><path d="m1955.6 260.58c0-6.248-5.08-11.32-11.35-11.32h-80.61c-6.26 0-11.35 5.072-11.35 11.32v697.61h103.31z" fill="none" stroke="#000" stroke-linecap="round" stroke-width="6.24px"/></g><g transform="matrix(-1,0,0,-1.0016,4657.2,959.83)"><rect x="1926.8" y="239.31" width="55.911" height="480.06" stroke="#000" stroke-linecap="round" stroke-width="6.25px"/></g><g transform="translate(103.31)"><g transform="matrix(-1,0,0,-1.0016,4657.2,959.83)"><rect x="1926.8" y="239.31" width="55.911" height="480.06" stroke="#000" stroke-linecap="round" stroke-width="6.25px"/></g></g><g transform="translate(309.94)"><g transform="matrix(-1,0,0,-1.0016,4657.2,959.83)"><rect x="1926.8" y="239.31" width="55.911" height="480.06" stroke="#000" stroke-linecap="round" stroke-width="6.25px"/></g></g><g transform="translate(413.25)"><g transform="matrix(-1,0,0,-1.0016,4657.2,959.83)"><rect x="1926.8" y="239.31" width="55.911" height="480.06" stroke="#000" stroke-linecap="round" stroke-width="6.25px"/></g></g><g transform="translate(516.56)"><g transform="matrix(-1,0,0,-1.0016,4657.2,959.83)"><rect x="1926.8" y="239.31" width="55.911" height="480.06" stroke="#000" stroke-linecap="round" stroke-width="6.25px"/></g></g><g transform="matrix(.89538 0 0 1 296.62 0)"><path d="m3379.3 239.31h-807.68" fill="none" stroke="#000" stroke-linecap="square" stroke-width="6.58px"/></g></g><g transform="translate(2211 1552.8)"><g transform="matrix(-1,0,0,-1.0028,4554.8,1200.2)"><path d="m1955.6 260.58c0-6.248-5.08-11.32-11.35-11.32h-80.61c-6.26 0-11.35 5.072-11.35 11.32v697.61h103.31z" fill="none" stroke="#000" stroke-linecap="round" stroke-width="6.24px"/></g><g transform="matrix(-1,0,0,-1.0028,4658.1,1200.2)"><path d="m1955.6 260.58c0-6.248-5.08-11.32-11.35-11.32h-80.61c-6.26 0-11.35 5.072-11.35 11.32v697.61h103.31z" fill="none" stroke="#000" stroke-linecap="round" stroke-width="6.24px"/></g><g transform="matrix(-1,0,0,-1.0028,4761.4,1200.2)"><path d="m1955.6 260.58c0-6.248-5.08-11.32-11.35-11.32h-80.61c-6.26 0-11.35 5.072-11.35 11.32v697.61h103.31z" fill="none" stroke="#000" stroke-linecap="round" stroke-width="6.24px"/></g><g transform="matrix(-1,0,0,-1.0028,4864.7,1200.2)"><path d="m1955.6 260.58c0-6.248-5.08-11.32-11.35-11.32h-80.61c-6.26 0-11.35 5.072-11.35 11.32v697.61h103.31z" fill="none" stroke="#000" stroke-linecap="round" stroke-width="6.24px"/></g><g transform="matrix(-1,0,0,-1.0028,4968,1200.2)"><path d="m1955.6 260.58c0-6.248-5.08-11.32-11.35-11.32h-80.61c-6.26 0-11.35 5.072-11.35 11.32v697.61h103.31z" fill="none" stroke="#000" stroke-linecap="round" stroke-width="6.24px"/></g><g transform="matrix(-1,0,0,-1.0028,5071.4,1200.2)"><path d="m1955.6 260.58c0-6.248-5.08-11.32-11.35-11.32h-80.61c-6.26 0-11.35 5.072-11.35 11.32v697.61h103.31z" fill="none" stroke="#000" stroke-linecap="round" stroke-width="6.24px"/></g><g transform="matrix(-1,0,0,-1.0028,5174.7,1200.2)"><path d="m1955.6 260.58c0-6.248-5.08-11.32-11.35-11.32h-80.61c-6.26 0-11.35 5.072-11.35 11.32v697.61h103.31z" fill="none" stroke="#000" stroke-linecap="round" stroke-width="6.24px"/></g><g transform="matrix(-1,0,0,-1.0016,4657.2,959.83)"><rect x="1926.8" y="239.31" width="55.911" height="480.06" stroke="#000" stroke-linecap="round" stroke-width="6.25px"/></g><g transform="translate(103.31)"><g transform="matrix(-1,0,0,-1.0016,4657.2,959.83)"><rect x="1926.8" y="239.31" width="55.911" height="480.06" stroke="#000" stroke-linecap="round" stroke-width="6.25px"/></g></g><g transform="translate(309.94)"><g transform="matrix(-1,0,0,-1.0016,4657.2,959.83)"><rect x="1926.8" y="239.31" width="55.911" height="480.06" stroke="#000" stroke-linecap="round" stroke-width="6.25px"/></g></g><g transform="translate(413.25)"><g transform="matrix(-1,0,0,-1.0016,4657.2,959.83)"><rect x="1926.8" y="239.31" width="55.911" height="480.06" stroke="#000" stroke-linecap="round" stroke-width="6.25px"/></g></g><g transform="translate(516.56)"><g transform="matrix(-1,0,0,-1.0016,4657.2,959.83)"><rect x="1926.8" y="239.31" width="55.911" height="480.06" stroke="#000" stroke-linecap="round" stroke-width="6.25px"/></g></g><g transform="matrix(.89538 0 0 1 296.62 0)"><path d="m3379.3 239.31h-807.68" fill="none" stroke="#000" stroke-linecap="square" stroke-width="6.58px"/></g></g><g transform="translate(2934.2 1552.8)"><g transform="matrix(-1,0,0,-1.0028,4554.8,1200.2)"><path d="m1955.6 260.58c0-6.248-5.08-11.32-11.35-11.32h-80.61c-6.26 0-11.35 5.072-11.35 11.32v697.61h103.31z" fill="none" stroke="#000" stroke-linecap="round" stroke-width="6.24px"/></g><g transform="matrix(-1,0,0,-1.0028,4658.1,1200.2)"><path d="m1955.6 260.58c0-6.248-5.08-11.32-11.35-11.32h-80.61c-6.26 0-11.35 5.072-11.35 11.32v697.61h103.31z" fill="none" stroke="#000" stroke-linecap="round" stroke-width="6.24px"/></g><g transform="matrix(-1,0,0,-1.0028,4761.4,1200.2)"><path d="m1955.6 260.58c0-6.248-5.08-11.32-11.35-11.32h-80.61c-6.26 0-11.35 5.072-11.35 11.32v697.61h103.31z" fill="none" stroke="#000" stroke-linecap="round" stroke-width="6.24px"/></g><g transform="matrix(-1,0,0,-1.0028,4864.7,1200.2)"><path d="m1955.6 260.58c0-6.248-5.08-11.32-11.35-11.32h-80.61c-6.26 0-11.35 5.072-11.35 11.32v697.61h103.31z" fill="none" stroke="#000" stroke-linecap="round" stroke-width="6.24px"/></g><g transform="matrix(-1,0,0,-1.0028,4968,1200.2)"><path d="m1955.6 260.58c0-6.248-5.08-11.32-11.35-11.32h-80.61c-6.26 0-11.35 5.072-11.35 11.32v697.61h103.31z" fill="none" stroke="#000" stroke-linecap="round" stroke-width="6.24px"/></g><g transform="matrix(-1,0,0,-1.0028,5071.4,1200.2)"><path d="m1955.6 260.58c0-6.248-5.08-11.32-11.35-11.32h-80.61c-6.26 0-11.35 5.072-11.35 11.32v697.61h103.31z" fill="none" stroke="#000" stroke-linecap="round" stroke-width="6.24px"/></g><g transform="matrix(-1,0,0,-1.0028,5174.7,1200.2)"><path d="m1955.6 260.58c0-6.248-5.08-11.32-11.35-11.32h-80.61c-6.26 0-11.35 5.072-11.35 11.32v697.61h103.31z" fill="none" stroke="#000" stroke-linecap="round" stroke-width="6.24px"/></g><g transform="matrix(-1,0,0,-1.0016,4657.2,959.83)"><rect x="1926.8" y="239.31" width="55.911" height="480.06" stroke="#000" stroke-linecap="round" stroke-width="6.25px"/></g><g transform="translate(103.31)"><g transform="matrix(-1,0,0,-1.0016,4657.2,959.83)"><rect x="1926.8" y="239.31" width="55.911" height="480.06" stroke="#000" stroke-linecap="round" stroke-width="6.25px"/></g></g><g transform="translate(309.94)"><g transform="matrix(-1,0,0,-1.0016,4657.2,959.83)"><rect x="1926.8" y="239.31" width="55.911" height="480.06" stroke="#000" stroke-linecap="round" stroke-width="6.25px"/></g></g><g transform="translate(413.25)"><g transform="matrix(-1,0,0,-1.0016,4657.2,959.83)"><rect x="1926.8" y="239.31" width="55.911" height="480.06" stroke="#000" stroke-linecap="round" stroke-width="6.25px"/></g></g><g transform="translate(516.56)"><g transform="matrix(-1,0,0,-1.0016,4657.2,959.83)"><rect x="1926.8" y="239.31" width="55.911" height="480.06" stroke="#000" stroke-linecap="round" stroke-width="6.25px"/></g></g><g transform="matrix(.89538 0 0 1 296.62 0)"><path d="m3379.3 239.31h-807.68" fill="none" stroke="#000" stroke-linecap="square" stroke-width="6.58px"/></g></g><g transform="translate(3657.4 1552.8)"><g transform="matrix(-1,0,0,-1.0028,4554.8,1200.2)"><path d="m1955.6 260.58c0-6.248-5.08-11.32-11.35-11.32h-80.61c-6.26 0-11.35 5.072-11.35 11.32v697.61h103.31z" fill="none" stroke="#000" stroke-linecap="round" stroke-width="6.24px"/></g><g transform="matrix(-1,0,0,-1.0028,4658.1,1200.2)"><path d="m1955.6 260.58c0-6.248-5.08-11.32-11.35-11.32h-80.61c-6.26 0-11.35 5.072-11.35 11.32v697.61h103.31z" fill="none" stroke="#000" stroke-linecap="round" stroke-width="6.24px"/></g><g transform="matrix(-1,0,0,-1.0028,4761.4,1200.2)"><path d="m1955.6 260.58c0-6.248-5.08-11.32-11.35-11.32h-80.61c-6.26 0-11.35 5.072-11.35 11.32v697.61h103.31z" fill="none" stroke="#000" stroke-linecap="round" stroke-width="6.24px"/></g><g transform="matrix(-1,0,0,-1.0028,4864.7,1200.2)"><path d="m1955.6 260.58c0-6.248-5.08-11.32-11.35-11.32h-80.61c-6.26 0-11.35 5.072-11.35 11.32v697.61h103.31z" fill="none" stroke="#000" stroke-linecap="round" stroke-width="6.24px"/></g><g transform="matrix(-1,0,0,-1.0028,4968,1200.2)"><path d="m1955.6 260.58c0-6.248-5.08-11.32-11.35-11.32h-80.61c-6.26 0-11.35 5.072-11.35 11.32v697.61h103.31z" fill="none" stroke="#000" stroke-linecap="round" stroke-width="6.24px"/></g><g transform="matrix(-1,0,0,-1.0028,5071.4,1200.2)"><path d="m1955.6 260.58c0-6.248-5.08-11.32-11.35-11.32h-80.61c-6.26 0-11.35 5.072-11.35 11.32v697.61h103.31z" fill="none" stroke="#000" stroke-linecap="round" stroke-width="6.24px"/></g><g transform="matrix(-1,0,0,-1.0028,5174.7,1200.2)"><path d="m1955.6 260.58c0-6.248-5.08-11.32-11.35-11.32h-80.61c-6.26 0-11.35 5.072-11.35 11.32v697.61h103.31z" fill="none" stroke="#000" stroke-linecap="round" stroke-width="6.24px"/></g><g transform="matrix(-1,0,0,-1.0016,4657.2,959.83)"><rect x="1926.8" y="239.31" width="55.911" height="480.06" stroke="#000" stroke-linecap="round" stroke-width="6.25px"/></g><g transform="translate(103.31)"><g transform="matrix(-1,0,0,-1.0016,4657.2,959.83)"><rect x="1926.8" y="239.31" width="55.911" height="480.06" stroke="#000" stroke-linecap="round" stroke-width="6.25px"/></g></g><g transform="translate(309.94)"><g transform="matrix(-1,0,0,-1.0016,4657.2,959.83)"><rect x="1926.8" y="239.31" width="55.911" height="480.06" stroke="#000" stroke-linecap="round" stroke-width="6.25px"/></g></g><g transform="translate(413.25)"><g transform="matrix(-1,0,0,-1.0016,4657.2,959.83)"><rect x="1926.8" y="239.31" width="55.911" height="480.06" stroke="#000" stroke-linecap="round" stroke-width="6.25px"/></g></g><g transform="translate(516.56)"><g transform="matrix(-1,0,0,-1.0016,4657.2,959.83)"><rect x="1926.8" y="239.31" width="55.911" height="480.06" stroke="#000" stroke-linecap="round" stroke-width="6.25px"/></g></g><g transform="matrix(.89538 0 0 1 296.62 0)"><path d="m3379.3 239.31h-807.68" fill="none" stroke="#000" stroke-linecap="square" stroke-width="6.58px"/></g></g><g transform="translate(4380.5 1552.8)"><g transform="matrix(-1,0,0,-1.0028,4554.8,1200.2)"><path d="m1955.6 260.58c0-6.248-5.08-11.32-11.35-11.32h-80.61c-6.26 0-11.35 5.072-11.35 11.32v697.61h103.31z" fill="none" stroke="#000" stroke-linecap="round" stroke-width="6.24px"/></g><g transform="matrix(-1,0,0,-1.0028,4658.1,1200.2)"><path d="m1955.6 260.58c0-6.248-5.08-11.32-11.35-11.32h-80.61c-6.26 0-11.35 5.072-11.35 11.32v697.61h103.31z" fill="none" stroke="#000" stroke-linecap="round" stroke-width="6.24px"/></g><g transform="matrix(-1,0,0,-1.0028,4761.4,1200.2)"><path d="m1955.6 260.58c0-6.248-5.08-11.32-11.35-11.32h-80.61c-6.26 0-11.35 5.072-11.35 11.32v697.61h103.31z" fill="none" stroke="#000" stroke-linecap="round" stroke-width="6.24px"/></g><g transform="matrix(-1,0,0,-1.0028,4864.7,1200.2)"><path d="m1955.6 260.58c0-6.248-5.08-11.32-11.35-11.32h-80.61c-6.26 0-11.35 5.072-11.35 11.32v697.61h103.31z" fill="none" stroke="#000" stroke-linecap="round" stroke-width="6.24px"/></g><g transform="matrix(-1,0,0,-1.0028,4968,1200.2)"><path d="m1955.6 260.58c0-6.248-5.08-11.32-11.35-11.32h-80.61c-6.26 0-11.35 5.072-11.35 11.32v697.61h103.31z" fill="none" stroke="#000" stroke-linecap="round" stroke-width="6.24px"/></g><g transform="matrix(-1,0,0,-1.0028,5071.4,1200.2)"><path d="m1955.6 260.58c0-6.248-5.08-11.32-11.35-11.32h-80.61c-6.26 0-11.35 5.072-11.35 11.32v697.61h103.31z" fill="none" stroke="#000" stroke-linecap="round" stroke-width="6.24px"/></g><g transform="matrix(-1,0,0,-1.0028,5174.7,1200.2)"><path d="m1955.6 260.58c0-6.248-5.08-11.32-11.35-11.32h-80.61c-6.26 0-11.35 5.072-11.35 11.32v697.61h103.31z" fill="none" stroke="#000" stroke-linecap="round" stroke-width="6.24px"/></g><g transform="matrix(-1,0,0,-1.0016,4657.2,959.83)"><rect x="1926.8" y="239.31" width="55.911" height="480.06" stroke="#000" stroke-linecap="round" stroke-width="6.25px"/></g><g transform="translate(103.31)"><g transform="matrix(-1,0,0,-1.0016,4657.2,959.83)"><rect x="1926.8" y="239.31" width="55.911" height="480.06" stroke="#000" stroke-linecap="round" stroke-width="6.25px"/></g></g><g transform="translate(309.94)"><g transform="matrix(-1,0,0,-1.0016,4657.2,959.83)"><rect x="1926.8" y="239.31" width="55.911" height="480.06" stroke="#000" stroke-linecap="round" stroke-width="6.25px"/></g></g><g transform="translate(413.25)"><g transform="matrix(-1,0,0,-1.0016,4657.2,959.83)"><rect x="1926.8" y="239.31" width="55.911" height="480.06" stroke="#000" stroke-linecap="round" stroke-width="6.25px"/></g></g><g transform="translate(516.56)"><g transform="matrix(-1,0,0,-1.0016,4657.2,959.83)"><rect x="1926.8" y="239.31" width="55.911" height="480.06" stroke="#000" stroke-linecap="round" stroke-width="6.25px"/></g></g><g transform="matrix(.89538 0 0 1 296.62 0)"><path d="m3379.3 239.31h-807.68" fill="none" stroke="#000" stroke-linecap="square" stroke-width="6.58px"/></g></g><g transform="translate(5103.8 1552.8)"><g transform="matrix(-1,0,0,-1.0028,4554.8,1200.2)"><path d="m1955.6 260.58c0-6.248-5.08-11.32-11.35-11.32h-80.61c-6.26 0-11.35 5.072-11.35 11.32v697.61h103.31z" fill="none" stroke="#000" stroke-linecap="round" stroke-width="6.24px"/></g><g transform="matrix(-1,0,0,-1.0028,4658.1,1200.2)"><path d="m1955.6 260.58c0-6.248-5.08-11.32-11.35-11.32h-80.61c-6.26 0-11.35 5.072-11.35 11.32v697.61h103.31z" fill="none" stroke="#000" stroke-linecap="round" stroke-width="6.24px"/></g><g transform="matrix(-1,0,0,-1.0028,4761.4,1200.2)"><path d="m1955.6 260.58c0-6.248-5.08-11.32-11.35-11.32h-80.61c-6.26 0-11.35 5.072-11.35 11.32v697.61h103.31z" fill="none" stroke="#000" stroke-linecap="round" stroke-width="6.24px"/></g><g transform="matrix(-1,0,0,-1.0028,4864.7,1200.2)"><path d="m1955.6 260.58c0-6.248-5.08-11.32-11.35-11.32h-80.61c-6.26 0-11.35 5.072-11.35 11.32v697.61h103.31z" fill="none" stroke="#000" stroke-linecap="round" stroke-width="6.24px"/></g><g transform="matrix(-1,0,0,-1.0028,4968,1200.2)"><path d="m1955.6 260.58c0-6.248-5.08-11.32-11.35-11.32h-80.61c-6.26 0-11.35 5.072-11.35 11.32v697.61h103.31z" fill="none" stroke="#000" stroke-linecap="round" stroke-width="6.24px"/></g><g transform="matrix(-1,0,0,-1.0028,5071.4,1200.2)"><path d="m1955.6 260.58c0-6.248-5.08-11.32-11.35-11.32h-80.61c-6.26 0-11.35 5.072-11.35 11.32v697.61h103.31z" fill="none" stroke="#000" stroke-linecap="round" stroke-width="6.24px"/></g><g transform="matrix(-1,0,0,-1.0028,5174.7,1200.2)"><path d="m1955.6 260.58c0-6.248-5.08-11.32-11.35-11.32h-80.61c-6.26 0-11.35 5.072-11.35 11.32v697.61h103.31z" fill="none" stroke="#000" stroke-linecap="round" stroke-width="6.24px"/></g><g transform="matrix(-1,0,0,-1.0016,4657.2,959.83)"><rect x="1926.8" y="239.31" width="55.911" height="480.06" stroke="#000" stroke-linecap="round" stroke-width="6.25px"/></g><g transform="translate(103.31)"><g transform="matrix(-1,0,0,-1.0016,4657.2,959.83)"><rect x="1926.8" y="239.31" width="55.911" height="480.06" stroke="#000" stroke-linecap="round" stroke-width="6.25px"/></g></g><g transform="translate(309.94)"><g transform="matrix(-1,0,0,-1.0016,4657.2,959.83)"><rect x="1926.8" y="239.31" width="55.911" height="480.06" stroke="#000" stroke-linecap="round" stroke-width="6.25px"/></g></g><g transform="translate(413.25)"><g transform="matrix(-1,0,0,-1.0016,4657.2,959.83)"><rect x="1926.8" y="239.31" width="55.911" height="480.06" stroke="#000" stroke-linecap="round" stroke-width="6.25px"/></g></g><g transform="translate(516.56)"><g transform="matrix(-1,0,0,-1.0016,4657.2,959.83)"><rect x="1926.8" y="239.31" width="55.911" height="480.06" stroke="#000" stroke-linecap="round" stroke-width="6.25px"/></g></g><g transform="matrix(.89538 0 0 1 296.62 0)"><path d="m3379.3 239.31h-807.68" fill="none" stroke="#000" stroke-linecap="square" stroke-width="6.58px"/></g></g><g transform="translate(5826.9 1552.8)"><g transform="matrix(-1,0,0,-1.0028,4554.8,1200.2)"><path d="m1955.6 260.58c0-6.248-5.08-11.32-11.35-11.32h-80.61c-6.26 0-11.35 5.072-11.35 11.32v697.61h103.31z" fill="none" stroke="#000" stroke-linecap="round" stroke-width="6.24px"/></g><g transform="matrix(-1,0,0,-1.0028,4658.1,1200.2)"><path d="m1955.6 260.58c0-6.248-5.08-11.32-11.35-11.32h-80.61c-6.26 0-11.35 5.072-11.35 11.32v697.61h103.31z" fill="none" stroke="#000" stroke-linecap="round" stroke-width="6.24px"/></g><g transform="matrix(-1,0,0,-1.0028,4761.4,1200.2)"><path d="m1955.6 260.58c0-6.248-5.08-11.32-11.35-11.32h-80.61c-6.26 0-11.35 5.072-11.35 11.32v697.61h103.31z" fill="none" stroke="#000" stroke-linecap="round" stroke-width="6.24px"/></g><g transform="matrix(-1,0,0,-1.0028,4864.7,1200.2)"><path d="m1955.6 260.58c0-6.248-5.08-11.32-11.35-11.32h-80.61c-6.26 0-11.35 5.072-11.35 11.32v697.61h103.31z" fill="none" stroke="#000" stroke-linecap="round" stroke-width="6.24px"/></g><g transform="matrix(-1,0,0,-1.0028,4968,1200.2)"><path d="m1955.6 260.58c0-6.248-5.08-11.32-11.35-11.32h-80.61c-6.26 0-11.35 5.072-11.35 11.32v697.61h103.31z" fill="none" stroke="#000" stroke-linecap="round" stroke-width="6.24px"/></g><g transform="matrix(-1,0,0,-1.0028,5071.4,1200.2)"><path d="m1955.6 260.58c0-6.248-5.08-11.32-11.35-11.32h-80.61c-6.26 0-11.35 5.072-11.35 11.32v697.61h103.31z" fill="none" stroke="#000" stroke-linecap="round" stroke-width="6.24px"/></g><g transform="matrix(-1,0,0,-1.0028,5174.7,1200.2)"><path d="m1955.6 260.58c0-6.248-5.08-11.32-11.35-11.32h-80.61c-6.26 0-11.35 5.072-11.35 11.32v697.61h103.31z" fill="none" stroke="#000" stroke-linecap="round" stroke-width="6.24px"/></g><g transform="matrix(-1,0,0,-1.0016,4657.2,959.83)"><rect x="1926.8" y="239.31" width="55.911" height="480.06" stroke="#000" stroke-linecap="round" stroke-width="6.25px"/></g><g transform="translate(103.31)"><g transform="matrix(-1,0,0,-1.0016,4657.2,959.83)"><rect x="1926.8" y="239.31" width="55.911" height="480.06" stroke="#000" stroke-linecap="round" stroke-width="6.25px"/></g></g><g transform="translate(309.94)"><g transform="matrix(-1,0,0,-1.0016,4657.2,959.83)"><rect x="1926.8" y="239.31" width="55.911" height="480.06" stroke="#000" stroke-linecap="round" stroke-width="6.25px"/></g></g><g transform="translate(413.25)"><g transform="matrix(-1,0,0,-1.0016,4657.2,959.83)"><rect x="1926.8" y="239.31" width="55.911" height="480.06" stroke="#000" stroke-linecap="round" stroke-width="6.25px"/></g></g><g transform="translate(516.56)"><g transform="matrix(-1,0,0,-1.0016,4657.2,959.83)"><rect x="1926.8" y="239.31" width="55.911" height="480.06" stroke="#000" stroke-linecap="round" stroke-width="6.25px"/></g></g><g transform="matrix(.89538 0 0 1 296.62 0)"><path d="m3379.3 239.31h-807.68" fill="none" stroke="#000" stroke-linecap="square" stroke-width="6.58px"/></g></g></g></g><g transform="translate(8.7313 -112.05)" stroke="#000" stroke-linecap="round" stroke-linejoin="round" stroke-width=".17799"><rect x="116.07" y="126.67" width="4.1536" height="3.7538" rx=".4" fill="none" style="paint-order:normal"/><rect x="121.46" y="126.67" width="4.1536" height="3.7538" rx=".4" fill="none" style="paint-order:normal"/><rect x="126.85" y="126.67" width="4.1536" height="3.7538" rx=".4" fill="none" style="paint-order:normal"/><rect x="132.24" y="126.67" width="4.1536" height="3.7538" rx=".4" fill="none" style="paint-order:normal"/><rect x="116.07" y="131.13" width="4.1536" height="3.7538" rx=".4" fill="none" style="paint-order:normal"/><rect x="121.46" y="131.13" width="4.1536" height="3.7538" rx=".4" fill="none" style="paint-order:normal"/><rect x="126.85" y="131.13" width="4.1536" height="3.7538" rx=".4" fill="#b8f8fe" style="paint-order:normal"/><rect x="132.24" y="131.13" width="4.1536" height="3.7538" rx=".4" fill="none" style="paint-order:normal"/><rect x="116.07" y="135.6" width="4.1536" height="3.7538" rx=".4" fill="#b8f8fe" style="paint-order:normal"/><rect x="121.46" y="135.6" width="4.1536" height="3.7538" rx=".4" fill="none" style="paint-order:normal"/><rect x="126.85" y="135.6" width="4.1536" height="3.7538" rx=".4" fill="none" style="paint-order:normal"/><rect x="132.24" y="135.6" width="4.1536" height="3.7538" rx=".4" fill="none" style="paint-order:normal"/><rect x="116.07" y="140.06" width="4.1536" height="3.7538" rx=".4" fill="none" style="paint-order:normal"/><rect x="121.46" y="140.06" width="4.1536" height="3.7538" rx=".4" fill="none" style="paint-order:normal"/><rect x="126.85" y="140.06" width="4.1536" height="3.7538" rx=".4" fill="none" style="paint-order:normal"/><rect x="132.24" y="140.06" width="4.1536" height="3.7538" rx=".4" fill="none" style="paint-order:normal"/></g><g stroke="#000" stroke-linecap="round" stroke-linejoin="round" stroke-width=".173"><rect x="55.323" y="17.456" width="2.2393" height="1.2796" fill="#287da5" style="paint-order:normal"/><rect x="55.323" y="22.537" width="2.2393" height="1.2796" fill="none" style="paint-order:normal"/></g><g transform="translate(8.7313 -112.05)" fill="none" stroke="#000" stroke-linecap="round" stroke-linejoin="round" stroke-width=".173"><circle cx="51.551" cy="130.15" r="1.131" style="paint-order:normal"/><circle cx="56.367" cy="130.15" r="1.131" style="paint-order:normal"/><circle cx="61.183" cy="130.15" r="1.131" style="paint-order:normal"/><circle cx="66" cy="130.15" r="1.131" style="paint-order:normal"/><circle cx="70.816" cy="130.15" r="1.131" style="paint-order:normal"/><circle cx="51.551" cy="135.23" r="1.131" style="paint-order:normal"/><circle cx="56.367" cy="135.23" r="1.131" style="paint-order:normal"/><circle cx="61.183" cy="135.23" r="1.131" style="paint-order:normal"/><circle cx="66" cy="135.23" r="1.131" style="paint-order:normal"/><circle cx="70.816" cy="135.23" r="1.131" style="paint-order:normal"/></g><g transform="translate(0 -.32097)"><rect x="86.154" y="16.19" width=".43826" height="8.8925" rx=".1" style="paint-order:normal"/><rect x="85.132" y="21.573" width="2.5192" height=".85972" style="paint-order:normal"/><rect x="85.132" y="21.85" width="2.506" height=".042" fill="#fff" style="paint-order:normal"/></g><g transform="translate(4.1331 -.32097)"><rect x="86.154" y="16.19" width=".43826" height="8.8925" rx=".1" style="paint-order:normal"/><g transform="translate(0 2.1167)"><rect x="85.132" y="21.573" width="2.5192" height=".85972" style="paint-order:normal"/><rect x="85.132" y="21.85" width="2.506" height=".042" fill="#fff" style="paint-order:normal"/></g></g><g transform="translate(8.2663 -.32097)"><rect x="86.154" y="16.19" width=".43826" height="8.8925" rx=".1" style="paint-order:normal"/><g transform="translate(0 1.0583)"><rect x="85.132" y="21.573" width="2.5192" height=".85972" style="paint-order:normal"/><rect x="85.132" y="21.85" width="2.506" height=".042" fill="#fff" style="paint-order:normal"/></g></g><g transform="translate(12.399 -.32097)"><rect x="86.154" y="16.19" width=".43826" height="8.8925" rx=".1" style="paint-order:normal"/><rect x="85.132" y="21.573" width="2.5192" height=".85972" style="paint-order:normal"/><rect x="85.132" y="21.85" width="2.506" height=".042" fill="#fff" style="paint-order:normal"/></g><g transform="translate(16.533 -.32097)"><rect x="86.154" y="16.19" width=".43826" height="8.8925" rx=".1" style="paint-order:normal"/><g transform="translate(0,1.5875)"><rect x="85.132" y="21.573" width="2.5192" height=".85972" style="paint-order:normal"/><rect x="85.132" y="21.85" width="2.506" height=".042" fill="#fff" style="paint-order:normal"/></g></g><g transform="translate(20.666 -.32097)"><rect x="86.154" y="16.19" width=".43826" height="8.8925" rx=".1" style="paint-order:normal"/><rect x="85.132" y="21.573" width="2.5192" height=".85972" style="paint-order:normal"/><rect x="85.132" y="21.85" width="2.506" height=".042" fill="#fff" style="paint-order:normal"/></g><g transform="translate(24.799 -.32097)"><rect x="86.154" y="16.19" width=".43826" height="8.8925" rx=".1" style="paint-order:normal"/><rect x="85.132" y="21.573" width="2.5192" height=".85972" style="paint-order:normal"/><rect x="85.132" y="21.85" width="2.506" height=".042" fill="#fff" style="paint-order:normal"/></g><g transform="translate(28.932 -.32097)"><rect x="86.154" y="16.19" width=".43826" height="8.8925" rx=".1" style="paint-order:normal"/><rect x="85.132" y="21.573" width="2.5192" height=".85972" style="paint-order:normal"/><rect x="85.132" y="21.85" width="2.506" height=".042" fill="#fff" style="paint-order:normal"/></g><g transform="translate(33.065 -.32097)"><rect x="86.154" y="16.19" width=".43826" height="8.8925" rx=".1" style="paint-order:normal"/><g transform="translate(0 -4.7625)"><rect x="85.132" y="21.573" width="2.5192" height=".85972" style="paint-order:normal"/><rect x="85.132" y="21.85" width="2.506" height=".042" fill="#fff" style="paint-order:normal"/></g></g><rect x="54.195" y="15.212" width="67.545" height="11.763" fill="none" stroke="#a2a2a2" stroke-linecap="round" stroke-linejoin="round" stroke-width=".179" style="paint-order:normal"/><g transform="translate(8.7313 -112.05)" stroke-linecap="round" stroke-linejoin="round"><rect x="46.371" y="140.63" width="2.2393" height="1.2796" fill="none" stroke="#000" stroke-width=".173" style="paint-order:normal"/><rect x="49.629" y="140.63" width="2.2393" height="1.2796" fill="#287da5" stroke="#000" stroke-width=".173" style="paint-order:normal"/><rect x="52.888" y="140.63" width="2.2393" height="1.2796" fill="none" stroke="#000" stroke-width=".173" style="paint-order:normal"/><rect x="56.147" y="140.63" width="2.2393" height="1.2796" fill="none" stroke="#000" stroke-width=".173" style="paint-order:normal"/><rect x="59.406" y="140.63" width="2.2393" height="1.2796" fill="none" stroke="#000" stroke-width=".173" style="paint-order:normal"/><rect x="62.665" y="140.63" width="2.2393" height="1.2796" fill="none" stroke="#000" stroke-width=".173" style="paint-order:normal"/><rect x="65.924" y="140.63" width="2.2393" height="1.2796" fill="none" stroke="#000" stroke-width=".173" style="paint-order:normal"/><rect x="69.183" y="140.63" width="2.2393" height="1.2796" fill="none" stroke="#000" stroke-width=".173" style="paint-order:normal"/><rect x="72.442" y="140.63" width="2.2393" height="1.2796" fill="none" stroke="#000" stroke-width=".173" style="paint-order:normal"/><rect x="75.701" y="140.63" width="2.2393" height="1.2796" fill="none" stroke="#000" stroke-width=".173" style="paint-order:normal"/><rect x="45.393" y="139.88" width="34.018" height="4.8672" fill="none" stroke="#a2a2a2" stroke-width=".179" style="paint-order:normal"/></g><g transform="translate(7.8714 -111.46)" stroke-linecap="round" stroke-linejoin="round"><rect x="93.062" y="140.63" width="2.2393" height="1.2796" fill="none" stroke="#000" stroke-width=".173" style="paint-order:normal"/><rect x="96.321" y="140.63" width="2.2393" height="1.2796" fill="none" stroke="#000" stroke-width=".173" style="paint-order:normal"/><rect x="99.579" y="140.63" width="2.2393" height="1.2796" fill="none" stroke="#000" stroke-width=".173" style="paint-order:normal"/><rect x="102.84" y="140.63" width="2.2393" height="1.2796" stroke="#000" stroke-width=".173" style="paint-order:normal"/><g fill="none"><rect x="106.1" y="140.63" width="2.2393" height="1.2796" stroke="#69bbed" stroke-width=".573" style="paint-order:normal"/><rect x="106.1" y="140.63" width="2.2393" height="1.2796" stroke="#000" stroke-width=".173" style="paint-order:normal"/></g><rect x="109.36" y="140.63" width="2.2393" height="1.2796" fill="none" stroke="#000" stroke-width=".173" style="paint-order:normal"/><rect x="91.526" y="139.87" width="21.567" height="4.8913" fill="none" stroke="#a2a2a2" stroke-width=".179" style="paint-order:normal"/></g><g fill="none" stroke="#000" stroke-linecap="round" stroke-linejoin="round" stroke-width=".173"><rect x="19.566" y="16.06" width="2.4882" height="9.7266" style="paint-order:normal"/><rect x="24.329" y="16.06" width="2.4882" height="9.7266" style="paint-order:normal"/></g><rect x="31.218" y="21.379" width="21.144" height="11.167" style="paint-order:normal"/><g fill="none" stroke-linecap="round" stroke-linejoin="round"><circle cx="34.885" cy="18.601" r="1.131" stroke="#69bbed" stroke-width=".573" style="paint-order:normal"/><circle cx="34.885" cy="18.601" r="1.131" stroke="#000" stroke-width=".173" style="paint-order:normal"/></g><circle cx="34.885" cy="23.682" r="1.131" fill="none" stroke="#fff" stroke-linecap="round" stroke-linejoin="round" stroke-width=".173" style="paint-order:normal"/><circle cx="34.885" cy="28.763" r="1.131" fill="none" stroke="#fff" stroke-linecap="round" stroke-linejoin="round" stroke-width=".173" style="paint-order:normal"/><rect x="31.308" y="15.171" width="21.144" height="17.501" fill="none" stroke="#a2a2a2" stroke-linecap="round" stroke-linejoin="round" stroke-width=".179" style="paint-order:normal"/><rect x="39.019" y="22.168" width="12.328" height="3.8454" fill="#69bbed" stroke="#fff" stroke-linecap="round" stroke-linejoin="round" stroke-width=".173" style="paint-order:normal"/><rect x="38.933" y="28.344" width="8.3162" height="2.8275" fill="#69bbed" style="paint-order:normal"/><rect x="47.189" y="28.344" width="4.2446" height="2.8275" fill="#fff" style="paint-order:normal"/><rect x="47.848" y="29.118" width="2.2393" height="1.2796" fill="none" stroke="#000" stroke-linecap="round" stroke-linejoin="round" stroke-width=".173" style="paint-order:normal"/><rect x="40.377" y="29.118" width="2.2393" height="1.2796" fill="none" stroke="#000" stroke-linecap="round" stroke-linejoin="round" stroke-width=".173" style="paint-order:normal"/><rect x="44.112" y="29.118" width="2.2393" height="1.2796" fill="#287da5" stroke="#000" stroke-linecap="round" stroke-linejoin="round" stroke-width=".173" style="paint-order:normal"/><rect transform="scale(1,-1)" x="48.3" y="-19.751" width="3.3677" height="2.3" rx=".1" style="paint-order:normal"/><g stroke-width=".057233" aria-label="KEYLAB 88"><path d="m38.769 19.554h0.41482l-0.79668-1.0879 0.78844-0.85986h-0.43405l-0.83789 0.93404v-0.93404h-0.32966v1.9477h0.32966v-0.56042l0.25823-0.28296zm1.8901 0v-0.30768h-0.8736v-0.51647h0.79118v-0.29944h-0.79118v-0.51647h0.8736v-0.30768h-1.2033v1.9477zm0.8791-0.82415v0.82415h0.32966v-0.82415l0.68679-1.1236h-0.37087l-0.46977 0.81591-0.46702-0.81591h-0.3901z" fill="#69bbed"/><path d="m44.038 19.554v-0.31318h-0.89283v-1.6346h-0.32966v1.9477zm1.6703 0h0.35988l-0.75822-1.9477h-0.38186l-0.75822 1.9477h0.34889l0.18131-0.489h0.82415zm-0.59614-1.5906 0.29669 0.79668h-0.59339zm1.217-0.35713v1.9477h0.71976c0.36263 0 0.60438-0.22527 0.60438-0.53845 0-0.23076-0.14285-0.40933-0.34889-0.46427 0.16758-0.06044 0.28845-0.21428 0.28845-0.42032 0-0.30494-0.21977-0.52471-0.59339-0.52471zm0.32691 0.82415v-0.54394h0.2912c0.20054 0 0.31592 0.10714 0.31592 0.27197 0 0.16208-0.11538 0.27197-0.30768 0.27197zm0 0.84338v-0.56592h0.34614c0.20329 0 0.31592 0.11813 0.31592 0.28571 0 0.17307-0.12912 0.28021-0.32691 0.28021z"/><path d="m49.22 18.516c-0.17582-0.0027-0.2912-0.11263-0.2912-0.26098 0-0.13461 0.10989-0.25274 0.2912-0.25274s0.29395 0.11813 0.29395 0.25274c0 0.14835-0.11538 0.25823-0.29395 0.26098zm0 0.80217c-0.21428 0-0.33241-0.12637-0.33241-0.27197s0.11813-0.27472 0.33241-0.27472c0.21703 0 0.33516 0.12912 0.33516 0.27472s-0.11813 0.27197-0.33516 0.27197zm0 0.27746c0.40933 0 0.66207-0.21977 0.66207-0.51647 0-0.20329-0.14285-0.37087-0.32966-0.4368 0.17032-0.06319 0.28845-0.23351 0.28845-0.40658 0-0.29669-0.26373-0.50273-0.62086-0.50273s-0.61811 0.20604-0.61811 0.50273c0 0.17582 0.11813 0.3434 0.28845 0.40658-0.18956 0.06593-0.32966 0.23351-0.32966 0.4368 0 0.2967 0.25274 0.51647 0.65932 0.51647zm1.5522-1.0796c-0.17582-0.0027-0.2912-0.11263-0.2912-0.26098 0-0.13461 0.10989-0.25274 0.2912-0.25274s0.29395 0.11813 0.29395 0.25274c0 0.14835-0.11538 0.25823-0.29395 0.26098zm0 0.80217c-0.21428 0-0.33241-0.12637-0.33241-0.27197s0.11813-0.27472 0.33241-0.27472c0.21703 0 0.33516 0.12912 0.33516 0.27472s-0.11813 0.27197-0.33516 0.27197zm0 0.27746c0.40933 0 0.66207-0.21977 0.66207-0.51647 0-0.20329-0.14285-0.37087-0.32966-0.4368 0.17032-0.06319 0.28845-0.23351 0.28845-0.40658 0-0.29669-0.26373-0.50273-0.62086-0.50273s-0.61811 0.20604-0.61811 0.50273c0 0.17582 0.11813 0.3434 0.28845 0.40658-0.18955 0.06593-0.32966 0.23351-0.32966 0.4368 0 0.2967 0.25274 0.51647 0.65932 0.51647z" fill="#fff"/></g><path d="m58.851 4.6c0 0.33179 0.25718 0.5334 0.5715 0.5334 0.15558 0 0.35084-0.049212 0.35084-0.049212v-0.51276h-0.35719v0.10954h0.22701v0.31274s-0.10001 0.026987-0.20002 0.026987c-0.28099 0-0.45402-0.18415-0.45402-0.4318 0-0.22384 0.14129-0.43974 0.42545-0.43974 0.17939 0 0.30798 0.084137 0.30798 0.084137l0.05239-0.11748s-0.14129-0.079375-0.35242-0.079375c-0.36671 0-0.5715 0.2667-0.5715 0.56356zm1.0858 0.35401c0 0.10478 0.07779 0.17939 0.20002 0.17939 0.14446 0 0.22225-0.1016 0.23654-0.12382 0.01588 0.058738 0.05398 0.10478 0.15399 0.11589l0.04127-0.10001s-0.07937-0.00159-0.07937-0.09525v-0.32226c0-0.16034-0.0508-0.22701-0.20638-0.22701-0.1778 0-0.29686 0.087312-0.29686 0.087312l0.0381 0.10001s0.10478-0.079375 0.22384-0.079375 0.11748 0.079375 0.11748 0.16351v0.026987c-0.27146 0.034925-0.42862 0.127-0.42862 0.27464zm0.22542 0.071438c-0.05239 0-0.09366-0.023813-0.09366-0.079375 0-0.092075 0.09525-0.14288 0.29686-0.17621v0.13176c-0.0508 0.058738-0.11589 0.12382-0.2032 0.12382zm0.64611-0.80645c0.04763 0 0.08573-0.0381 0.08573-0.085725s-0.0381-0.085725-0.08573-0.085725c-0.04762 0-0.08572 0.0381-0.08572 0.085725s0.0381 0.085725 0.08572 0.085725zm-0.0635 0.89535h0.12382v-0.71438h-0.12382zm0.36195 0h0.12382v-0.47149c0.04604-0.04445 0.16828-0.1524 0.26194-0.1524 0.05398 0 0.09684 0.033338 0.09684 0.1397v0.48419h0.12382v-0.51911c0-0.15399-0.08096-0.21431-0.18732-0.21431-0.13811 0-0.24924 0.10001-0.29528 0.14764v-0.1397l-0.12383 0.022225z" stroke-width=".26458" aria-label="Gain"/><path d="m60.282 5.8267v10.774" fill="none" stroke="#a2a2a2" stroke-dasharray="0.180494, 0.360988" stroke-linecap="round" stroke-linejoin="round" stroke-width=".18049" style="paint-order:normal"/><path d="m63.641 5.1144h0.13018v-0.48578h0.62548v0.48578h0.13018v-1.0589h-0.13018v0.46355h-0.62548v-0.46355h-0.13018zm1.2129-0.89535c0.04763 0 0.08573-0.0381 0.08573-0.085725s-0.0381-0.085725-0.08573-0.085725c-0.04762 0-0.08572 0.0381-0.08572 0.085725s0.0381 0.085725 0.08572 0.085725zm-0.0635 0.89535h0.12382v-0.71438h-0.12382zm0.35719-0.12859c0 0.047625 0.04921 0.0762 0.11906 0.096838-0.08096 0.041275-0.18574 0.10795-0.18574 0.21749 0 0.127 0.15081 0.1905 0.3048 0.1905 0.2032 0 0.381-0.11748 0.381-0.26352 0-0.13018-0.1397-0.16828-0.27622-0.19844-0.13494-0.030162-0.20955-0.046037-0.20955-0.0762 0-0.020637 0.03016-0.042863 0.0635-0.066675 0.01746 0.00318 0.03651 0.00476 0.05715 0.00476 0.14288 0 0.30321-0.080963 0.30321-0.24765 0-0.06985-0.03493-0.11906-0.05398-0.1397 0.01588 0.00159 0.0381 0.00317 0.05874 0.00317h0.09049l-0.011113-0.11112s-0.04763 0.015875-0.09366 0.015875h-0.0762c-0.07779 0-0.12224-0.030162-0.20479-0.030162-0.15558 0-0.29528 0.092075-0.29528 0.24924 0 0.10001 0.05239 0.18415 0.13811 0.2286-0.0508 0.030163-0.10954 0.0762-0.10954 0.127zm0.04762 0.29686c0-0.079375 0.09049-0.127 0.17462-0.17304 0.02699 0.00476 0.05239 0.00953 0.07937 0.015875 0.10795 0.023813 0.1905 0.049213 0.1905 0.11906 0 0.079375-0.10954 0.15081-0.24448 0.15081-0.08414 0-0.20002-0.026987-0.20002-0.11271zm0.21749-0.48736c-0.1143 0-0.16669-0.077787-0.16669-0.15716 0-0.090488 0.06191-0.16192 0.16351-0.16192 0.11271 0 0.16828 0.092075 0.16828 0.17304 0 0.093662-0.07144 0.14605-0.1651 0.14605zm0.53816 0.31909h0.12382v-0.47308c0.04762-0.04445 0.16828-0.15081 0.26035-0.15081 0.05397 0 0.09684 0.033338 0.09684 0.1397v0.48419h0.12382v-0.51911c0-0.15399-0.08096-0.21431-0.18732-0.21431-0.13652 0-0.24765 0.096837-0.29369 0.14605v-0.5461l-0.12382 0.022225z" stroke-width=".26458" aria-label="High"/><path d="m65.098 5.8267v10.774" fill="none" stroke="#a2a2a2" stroke-dasharray="0.180494, 0.360988" stroke-linecap="round" stroke-linejoin="round" stroke-width=".18049" style="paint-order:normal"/><path d="m68.745 5.1144h0.127l0.02858-0.91122 0.33972 0.91122h0.09843l0.33972-0.90011 0.03334 0.90011h0.127l-0.038112-1.0589h-0.18732l-0.32385 0.87471-0.31909-0.87471h-0.18732zm1.4049-0.89535c0.04763 0 0.08573-0.0381 0.08573-0.085725s-0.0381-0.085725-0.08573-0.085725c-0.04762 0-0.08572 0.0381-0.08572 0.085725s0.0381 0.085725 0.08572 0.085725zm-0.0635 0.89535h0.12382v-0.71438h-0.12382zm0.31591-0.33338c0 0.19685 0.12065 0.35242 0.30639 0.35242 0.1143 0 0.19209-0.058737 0.23178-0.12224 0.0079 0.049213 0.02223 0.1143 0.02223 0.1143l0.12224-0.011113s-0.03175-0.13335-0.03175-0.22066v-0.91281l-0.12382 0.022225v0.40322c-0.01905-0.00794-0.06668-0.0254-0.13811-0.0254-0.25559 0-0.38894 0.19368-0.38894 0.40005zm0.32226 0.24448c-0.10795 0-0.1905-0.093662-0.1905-0.25241 0-0.18256 0.10636-0.28734 0.25876-0.28734 0.06826 0 0.13335 0.022225 0.13652 0.1016v0.30798c-0.01905 0.030163-0.09208 0.13018-0.20479 0.13018z" stroke-width=".26458" aria-label="Mid"/><path d="m69.915 5.8267v10.774" fill="none" stroke="#a2a2a2" stroke-dasharray="0.180494, 0.360988" stroke-linecap="round" stroke-linejoin="round" stroke-width=".18049" style="paint-order:normal"/><path d="m73.407 5.1144h0.63818v-0.10954h-0.508v-0.94932h-0.13018zm0.72072-0.35401c0 0.18891 0.12859 0.37306 0.34925 0.37306 0.23971 0 0.35719-0.2159 0.35719-0.39052 0-0.18415-0.12859-0.36195-0.35084-0.36195-0.23654 0-0.3556 0.20161-0.3556 0.37941zm0.13018-0.014288c0-0.15399 0.08731-0.25718 0.22225-0.25718 0.16034 0 0.22384 0.13811 0.22384 0.27464 0 0.15399-0.08731 0.26194-0.22225 0.26194-0.15558 0-0.22384-0.1397-0.22384-0.2794zm0.90805 0.37624h0.12065l0.20161-0.54451 0.16986 0.54451h0.12065l0.27622-0.72231h-0.12859l-0.20161 0.57468-0.17145-0.57468h-0.11112l-0.20479 0.57468-0.16986-0.57468h-0.13018z" stroke-width=".26458" aria-label="Low"/><path d="m74.731 5.8267v10.774" fill="none" stroke="#a2a2a2" stroke-dasharray="0.180494, 0.360988" stroke-linecap="round" stroke-linejoin="round" stroke-width=".18049" style="paint-order:normal"/><path d="m77.699 5.1144h0.6223v-0.10954h-0.49212v-0.37624h0.39052v-0.10954h-0.39052v-0.35401h0.49371v-0.10954h-0.62389zm0.73184-0.61436h0.11271v0.61436h0.12382v-0.6223h0.33655v0.6223h0.12382v-0.61436h0.20161v-0.10001h-0.20161v-0.090488c0-0.17939 0.08096-0.24289 0.16828-0.24289 0.07461 0 0.14605 0.0508 0.14605 0.0508l0.05715-0.098425s-0.08096-0.060325-0.20002-0.060325c-0.09366 0-0.17145 0.036513-0.22384 0.10319-0.03334-0.020638-0.1143-0.0635-0.21272-0.0635-0.19209 0-0.31909 0.12859-0.31909 0.35719v0.036512l-0.11271 0.042863zm0.57309-0.18415v0.084138h-0.33655v-0.0508c0-0.17939 0.09049-0.24289 0.19209-0.24289 0.07144 0 0.14129 0.039687 0.16669 0.055562-0.01429 0.04445-0.02223 0.096837-0.02223 0.15399zm0.42228 0.4572c0 0.18732 0.11748 0.36036 0.35401 0.36036 0.17145 0 0.27464-0.10319 0.27464-0.10319l-0.03651-0.09525s-0.1016 0.090488-0.22384 0.090488c-0.1397 0-0.22542-0.10001-0.23654-0.24765l0.42069-0.055562 0.0762-0.022225c0-0.20479-0.12065-0.31909-0.28575-0.31909-0.2032 0-0.3429 0.16828-0.3429 0.39211zm0.33496-0.28892c0.14288 0 0.15716 0.1524 0.15716 0.1524l-0.35878 0.046037c0.017462-0.11112 0.087312-0.19844 0.20161-0.19844zm0.43656 0.28099c0 0.20796 0.14129 0.3683 0.35242 0.3683 0.16192 0 0.24606-0.092075 0.24606-0.092075l-0.04286-0.092075s-0.07779 0.0762-0.19368 0.0762c-0.14764 0-0.23178-0.12224-0.23178-0.2667 0-0.14764 0.08572-0.26988 0.22701-0.26988 0.11112 0 0.18574 0.066675 0.18574 0.066675l0.05556-0.096838s-0.08096-0.077787-0.23336-0.077787c-0.23336 0-0.36512 0.1905-0.36512 0.38418zm0.80645 0.16034c0 0.14605 0.07303 0.20796 0.18574 0.20796 0.11906 0 0.20638-0.073025 0.20638-0.073025l-0.030162-0.10001s-0.0762 0.065087-0.15081 0.065087c-0.05398 0-0.08731-0.0381-0.08731-0.13335v-0.39211h0.23178v-0.10001h-0.23178v-0.19685l-0.12382 0.030163v0.15875l-0.1016 0.041275v0.066675h0.1016z" stroke-width=".26458" aria-label="Effect"/><path d="m79.547 5.8267v10.774" fill="none" stroke="#a2a2a2" stroke-dasharray="0.180494, 0.360988" stroke-linecap="round" stroke-linejoin="round" stroke-width=".18049" style="paint-order:normal"/><path d="m117.31 5.1144h0.14923l0.2794-0.42704 0.27781 0.42704h0.15399l-0.35401-0.53022 0.35401-0.52864h-0.14923l-0.2794 0.42704-0.27781-0.42704h-0.15399l0.35402 0.53181zm0.95409-0.33972h0.35878v-0.1143h-0.35878zm0.47149-0.27464h0.11271v0.61436h0.12383v-0.61436h0.20161v-0.10001h-0.20161v-0.090488c0-0.17939 0.081-0.24289 0.16827-0.24289 0.0746 0 0.14605 0.0508 0.14605 0.0508l0.0571-0.098425s-0.081-0.060325-0.20002-0.060325c-0.1778 0-0.29528 0.12859-0.29528 0.35719v0.0762l-0.11271 0.042863zm0.53181 0.45402c0 0.10478 0.0778 0.17939 0.20003 0.17939 0.14446 0 0.22225-0.1016 0.23653-0.12382 0.0159 0.058738 0.054 0.10478 0.15399 0.11589l0.0413-0.10001s-0.0794-0.00159-0.0794-0.09525v-0.32226c0-0.16034-0.0508-0.22701-0.20637-0.22701-0.1778 0-0.29687 0.087312-0.29687 0.087312l0.0381 0.10001s0.10478-0.079375 0.22384-0.079375 0.11748 0.079375 0.11748 0.16351v0.026987c-0.27147 0.034925-0.42863 0.127-0.42863 0.27464zm0.22543 0.071438c-0.0524 0-0.0937-0.023813-0.0937-0.079375 0-0.092075 0.0953-0.14288 0.29687-0.17621v0.13176c-0.0508 0.058738-0.11589 0.12382-0.2032 0.12382zm0.5334-0.24448c0 0.19685 0.12065 0.35242 0.30638 0.35242 0.1143 0 0.19209-0.058737 0.23178-0.12224 8e-3 0.049213 0.0222 0.1143 0.0222 0.1143l0.12224-0.011113s-0.0318-0.13335-0.0318-0.22066v-0.91281l-0.12382 0.022225v0.40322c-0.0191-0.00794-0.0667-0.0254-0.13812-0.0254-0.25558 0-0.38893 0.19368-0.38893 0.40005zm0.32226 0.24448c-0.10795 0-0.1905-0.093662-0.1905-0.25241 0-0.18256 0.10636-0.28734 0.25876-0.28734 0.0683 0 0.13335 0.022225 0.13653 0.1016v0.30798c-0.0191 0.030163-0.0921 0.13018-0.20479 0.13018zm0.52388-0.25241c0 0.18732 0.11747 0.36036 0.35401 0.36036 0.17145 0 0.27464-0.10319 0.27464-0.10319l-0.0365-0.09525s-0.1016 0.090488-0.22383 0.090488c-0.1397 0-0.22543-0.10001-0.23654-0.24765l0.42069-0.055562 0.0762-0.022225c0-0.20479-0.12065-0.31909-0.28575-0.31909-0.2032 0-0.3429 0.16828-0.3429 0.39211zm0.33496-0.28893c0.14287 0 0.15716 0.1524 0.15716 0.1524l-0.35877 0.046037c0.0175-0.11112 0.0873-0.19844 0.20161-0.19844z" stroke-width=".26458" aria-label="X-fade"/><path d="m119.46 5.8106v8.8682" fill="none" stroke="#a2a2a2" stroke-dasharray="0.18,0.35999889" stroke-linecap="round" stroke-linejoin="round" stroke-width=".18" style="paint-order:normal"/><path d="m90.6 3.3166h0.127l0.38259-1.0668h-0.13335l-0.30956 0.87471-0.30956-0.87471h-0.13811zm0.52864-0.36195c0 0.18891 0.12859 0.37306 0.34925 0.37306 0.23971 0 0.35719-0.2159 0.35719-0.39052 0-0.18415-0.12859-0.36195-0.35084-0.36195-0.23654 0-0.3556 0.20161-0.3556 0.37941zm0.13018-0.014288c0-0.15399 0.08731-0.25718 0.22225-0.25718 0.16034 0 0.22384 0.13811 0.22384 0.27464 0 0.15399-0.08731 0.26194-0.22225 0.26194-0.15558 0-0.22384-0.1397-0.22384-0.2794zm0.76676 0.3683h0.12382v-1.1335l-0.12382 0.022225zm0.3556-0.19526c0 0.15399 0.0762 0.21431 0.19368 0.21431 0.13494 0 0.23971-0.092075 0.28258-0.13811 0.0063 0.0508 0.02381 0.13018 0.02381 0.13018l0.12224-0.011113s-0.03175-0.13335-0.03175-0.22066v-0.49371h-0.12382v0.49054c-0.04763 0.047625-0.14922 0.13335-0.2413 0.13335-0.05715 0-0.1016-0.030162-0.1016-0.1397v-0.48419h-0.12382zm0.83185 0.19526h0.12382v-0.47308c0.04128-0.041275 0.16192-0.15081 0.254-0.15081 0.04921 0 0.0889 0.033338 0.0889 0.1397v0.48419h0.12382v-0.48419c0.0508-0.047625 0.15875-0.1397 0.24289-0.1397 0.04921 0 0.0889 0.033338 0.0889 0.1397v0.48419h0.12382v-0.51911c0-0.15399-0.07779-0.21431-0.17939-0.21431-0.12859 0-0.23495 0.093663-0.28416 0.14288-0.02064-0.1016-0.08731-0.14288-0.17145-0.14288-0.13335 0-0.24289 0.098425-0.28734 0.14605v-0.13811l-0.12382 0.022225zm1.2303-0.34131c0 0.18732 0.11748 0.36036 0.35401 0.36036 0.17145 0 0.27464-0.10319 0.27464-0.10319l-0.03651-0.09525s-0.1016 0.090488-0.22384 0.090488c-0.1397 0-0.22542-0.10001-0.23654-0.24765l0.42069-0.055563 0.0762-0.022225c0-0.20479-0.12065-0.31909-0.28575-0.31909-0.2032 0-0.3429 0.16828-0.3429 0.39211zm0.33496-0.28892c0.14288 0 0.15716 0.1524 0.15716 0.1524l-0.35878 0.046037c0.01746-0.11112 0.08731-0.19844 0.20161-0.19844z" stroke-width=".26458" aria-label="Volume"/><g transform="translate(0 -.9744)"><path d="m97.923 6.0888h0.26035c0.38259 0 0.64929-0.1905 0.64929-0.5461 0-0.37624-0.30004-0.51276-0.58896-0.51276h-0.32068zm0.13018-0.10954v-0.83979h0.16828c0.30798 0 0.47149 0.16351 0.47149 0.41751 0 0.23495-0.1397 0.42228-0.52546 0.42228zm0.87789 0.068263h0.45244v0.34766h0.12382v-0.34766h0.15081v-0.1016h-0.15081v-0.6223h-0.10478l-0.47149 0.63976zm0.13494-0.1016 0.3175-0.43021v0.43021z" stroke-width=".26458" aria-label="D4"/><path d="m98.791 6.785v8.8682" fill="none" stroke="#a2a2a2" stroke-dasharray="0.18,0.35999889" stroke-linecap="round" stroke-linejoin="round" stroke-width=".18" style="paint-order:normal"/><path d="m93.845 6.0888h0.26035c0.38259 0 0.64929-0.1905 0.64929-0.5461 0-0.37624-0.30004-0.51276-0.58896-0.51276h-0.32068zm0.13018-0.10954v-0.83979h0.16828c0.30798 0 0.47149 0.16351 0.47149 0.41751 0 0.23495-0.1397 0.42228-0.52546 0.42228zm0.94615 0.10954h0.56039v-0.10636h-0.38735c0.13811-0.11589 0.32068-0.27622 0.32068-0.44609 0-0.12065-0.10319-0.21272-0.24289-0.21272-0.14288 0-0.26035 0.10001-0.26035 0.10001l0.05397 0.080963s0.0889-0.073025 0.18574-0.073025c0.07937 0 0.13335 0.049213 0.13335 0.12065 0 0.18732-0.37624 0.45561-0.37624 0.45561z" stroke-width=".26458" aria-label="D2"/><path d="m94.658 6.785v8.8682" fill="none" stroke="#a2a2a2" stroke-dasharray="0.18,0.35999889" stroke-linecap="round" stroke-linejoin="round" stroke-width=".18" style="paint-order:normal"/><path d="m89.771 6.0888h0.26035c0.38259 0 0.64929-0.1905 0.64929-0.5461 0-0.37624-0.30004-0.51276-0.58896-0.51276h-0.32068zm0.13018-0.10954v-0.83979h0.16828c0.30798 0 0.47149 0.16351 0.47149 0.41751 0 0.23495-0.1397 0.42228-0.52546 0.42228zm0.94298 0.10954h0.44609v-0.10636h-0.15558v-0.63976h-0.2794v0.098425h0.15558v0.54134h-0.16669z" stroke-width=".26458" aria-label="D1"/><path d="m90.525 6.785v8.8682" fill="none" stroke="#a2a2a2" stroke-dasharray="0.18,0.35999889" stroke-linecap="round" stroke-linejoin="round" stroke-width=".18" style="paint-order:normal"/><path d="m85.603 6.0888h0.26035c0.38259 0 0.64929-0.1905 0.64929-0.5461 0-0.37624-0.30004-0.51276-0.58896-0.51276h-0.32068zm0.13018-0.10954v-0.83979h0.16828c0.30798 0 0.47149 0.16351 0.47149 0.41751 0 0.23495-0.1397 0.42228-0.52546 0.42228zm0.90646 0.31274 0.01111 0.098425c0.01429 0.00159 0.02858 0.00159 0.04286 0.00159 0.26988 0 0.46196-0.1397 0.46196-0.3429 0-0.12541-0.07779-0.21908-0.21908-0.24924 0.09049-0.052388 0.19209-0.14764 0.19209-0.2667 0-0.12382-0.10319-0.20955-0.23971-0.20955-0.14605 0-0.26194 0.10001-0.26194 0.10001l0.05398 0.080963s0.09049-0.073025 0.19209-0.073025c0.07461 0 0.12541 0.04445 0.12541 0.1143 0 0.11112-0.14605 0.22066-0.26194 0.23336v0.1016h0.04445c0.11906 0 0.24448 0.041275 0.24448 0.1778 0 0.1524-0.15558 0.23495-0.33814 0.23495-0.01588 0-0.03175 0-0.04762-0.00159z" stroke-width=".26458" aria-label="D3"/><path d="m86.392 6.785v8.8682" fill="none" stroke="#a2a2a2" stroke-dasharray="0.18,0.35999889" stroke-linecap="round" stroke-linejoin="round" stroke-width=".18" style="paint-order:normal"/></g><g transform="translate(-14.817 -61.383)"><g transform="translate(-30.789 63.1)" fill="none" stroke="#a2a2a2" stroke-linecap="round" stroke-linejoin="round" stroke-width=".18"><path d="m90.838 10.136v15.82" stroke-dasharray="0.18,0.36" style="paint-order:normal"/><path d="m87.103 10.136v15.82" stroke-dasharray="0.18, 0.36" style="paint-order:normal"/></g><g transform="translate(-30.789 63.1)" stroke-width=".26458"><path d="m89.421 7.1037h0.26035c0.38259 0 0.64929-0.1905 0.64929-0.5461 0-0.37624-0.30004-0.51276-0.58896-0.51276h-0.32068zm0.13018-0.10954v-0.83979h0.16828c0.30798 0 0.47149 0.16351 0.47149 0.41751 0 0.23495-0.1397 0.42228-0.52546 0.42228zm0.94615 0.10954h0.56039v-0.10636h-0.38735c0.13811-0.11589 0.32068-0.27622 0.32068-0.44609 0-0.12065-0.10319-0.21272-0.24289-0.21272-0.14288 0-0.26035 0.10001-0.26035 0.10001l0.05398 0.080963s0.0889-0.073025 0.18574-0.073025c0.07937 0 0.13335 0.049212 0.13335 0.12065 0 0.18732-0.37624 0.45561-0.37624 0.45561zm0.70485-0.13494c0.0508 0.071438 0.07461 0.12382 0.07461 0.18574 0 0.080963-0.0381 0.11112-0.10001 0.16669l0.05556 0.05715c0.09842-0.074612 0.16034-0.16351 0.16034-0.28099 0-0.065088-0.01905-0.12224-0.06032-0.17145zm0.32544 0.093662h0.45244v0.34766h0.12382v-0.34766h0.15081v-0.1016h-0.15081v-0.6223h-0.10478l-0.47149 0.63976zm0.13494-0.1016 0.3175-0.43021v0.43021z" aria-label="D2,4"/><path d="m85.857 7.1496h0.26035c0.38259 0 0.64929-0.1905 0.64929-0.5461 0-0.37624-0.30004-0.51276-0.58896-0.51276h-0.32068zm0.13018-0.10954v-0.83979h0.16828c0.30798 0 0.47149 0.16351 0.47149 0.41751 0 0.23495-0.1397 0.42228-0.52546 0.42228zm0.94297 0.10954h0.44609v-0.10636h-0.15558v-0.63976h-0.2794v0.098425h0.15558v0.54134h-0.16669zm0.57785-0.13494c0.0508 0.071438 0.07461 0.12382 0.07461 0.18574 0 0.080963-0.0381 0.11112-0.10001 0.16669l0.05556 0.05715c0.09842-0.074612 0.16034-0.16351 0.16034-0.28099 0-0.065087-0.01905-0.12224-0.06032-0.17145zm0.32544 0.33814 0.01111 0.098425c0.01429 0.00159 0.02858 0.00159 0.04286 0.00159 0.26988 0 0.46196-0.1397 0.46196-0.3429 0-0.12541-0.07779-0.21908-0.21908-0.24924 0.09049-0.052388 0.19209-0.14764 0.19209-0.2667 0-0.12382-0.10319-0.20955-0.23971-0.20955-0.14605 0-0.26194 0.10001-0.26194 0.10001l0.05398 0.080963s0.09049-0.073025 0.19209-0.073025c0.07461 0 0.12541 0.04445 0.12541 0.1143 0 0.11112-0.14605 0.22066-0.26194 0.23336v0.1016h0.04445c0.11906 0 0.24448 0.041275 0.24448 0.1778 0 0.1524-0.15558 0.23495-0.33814 0.23495-0.01588 0-0.03175 0-0.04762-0.00159z" aria-label="D1,3"/><path transform="translate(30.789 -63.1)" d="m54.467 72.101h0.26035c0.38259 0 0.64929-0.1905 0.64929-0.5461 0-0.37624-0.30004-0.51276-0.58896-0.51276h-0.32068zm0.13018-0.10954v-0.83979h0.16828c0.30798 0 0.47149 0.16351 0.47149 0.41751 0 0.23495-0.1397 0.42228-0.52546 0.42228zm0.92551-0.23178c0 0.18732 0.11748 0.36036 0.35401 0.36036 0.17145 0 0.27464-0.10319 0.27464-0.10319l-0.03651-0.09525s-0.1016 0.09049-0.22384 0.09049c-0.1397 0-0.22542-0.10001-0.23654-0.24765l0.42069-0.05556 0.0762-0.02223c0-0.20479-0.12065-0.31909-0.28575-0.31909-0.2032 0-0.3429 0.16828-0.3429 0.39211zm0.33496-0.28892c0.14288 0 0.15716 0.1524 0.15716 0.1524l-0.35878 0.04604c0.01746-0.11112 0.08731-0.19844 0.20161-0.19844zm0.43656 0.28099c0 0.20796 0.14129 0.3683 0.35242 0.3683 0.16192 0 0.24606-0.09208 0.24606-0.09208l-0.04286-0.09207s-0.07779 0.0762-0.19368 0.0762c-0.14764 0-0.23178-0.12224-0.23178-0.2667 0-0.14764 0.08572-0.26988 0.22701-0.26988 0.11112 0 0.18574 0.06668 0.18574 0.06668l0.05556-0.09684s-0.08096-0.07779-0.23336-0.07779c-0.23336 0-0.36512 0.1905-0.36512 0.38418zm0.7747 0.34925h0.12382v-0.34766h0.01905l0.30956 0.34766h0.16669l-0.36354-0.39846 0.33338-0.31591h-0.1651l-0.28258 0.27464h-0.01746v-0.69374l-0.12382 0.02222zm1.0858-0.06985s0.12224 0.0889 0.30639 0.0889c0.1905 0 0.34766-0.09525 0.34766-0.2794 0-0.33655-0.50324-0.30956-0.50324-0.55562 0-0.09684 0.09049-0.14605 0.20796-0.14605 0.12382 0 0.2413 0.05397 0.2413 0.05397l0.03334-0.12224s-0.13018-0.04762-0.26988-0.04762c-0.22066 0-0.34449 0.12224-0.34449 0.27622 0 0.32385 0.50324 0.30956 0.50324 0.55086 0 0.1016-0.09684 0.15399-0.21114 0.15399-0.15399 0-0.27622-0.09525-0.27622-0.09525zm0.80328-0.27146c0 0.18732 0.11748 0.36036 0.35401 0.36036 0.17145 0 0.27464-0.10319 0.27464-0.10319l-0.03651-0.09525s-0.1016 0.09049-0.22384 0.09049c-0.1397 0-0.22542-0.10001-0.23654-0.24765l0.42069-0.05556 0.0762-0.02223c0-0.20479-0.12065-0.31909-0.28575-0.31909-0.2032 0-0.3429 0.16828-0.3429 0.39211zm0.33496-0.28892c0.14288 0 0.15716 0.1524 0.15716 0.1524l-0.35878 0.04604c0.01746-0.11112 0.08731-0.19844 0.20161-0.19844zm0.48736 0.63024h0.12382v-1.1335l-0.12382 0.02222zm0.31591-0.34131c0 0.18732 0.11748 0.36036 0.35401 0.36036 0.17145 0 0.27464-0.10319 0.27464-0.10319l-0.03651-0.09525s-0.1016 0.09049-0.22384 0.09049c-0.1397 0-0.22542-0.10001-0.23654-0.24765l0.42069-0.05556 0.0762-0.02223c0-0.20479-0.12065-0.31909-0.28575-0.31909-0.2032 0-0.3429 0.16828-0.3429 0.39211zm0.33496-0.28892c0.14288 0 0.15716 0.1524 0.15716 0.1524l-0.35878 0.04604c0.01746-0.11112 0.08731-0.19844 0.20161-0.19844zm0.43656 0.28099c0 0.20796 0.14129 0.3683 0.35242 0.3683 0.16192 0 0.24606-0.09208 0.24606-0.09208l-0.04286-0.09207s-0.07779 0.0762-0.19368 0.0762c-0.14764 0-0.23178-0.12224-0.23178-0.2667 0-0.14764 0.08572-0.26988 0.22701-0.26988 0.11112 0 0.18574 0.06668 0.18574 0.06668l0.05556-0.09684s-0.08096-0.07779-0.23336-0.07779c-0.23336 0-0.36512 0.1905-0.36512 0.38418zm0.80645 0.16034c0 0.14605 0.07303 0.20796 0.18574 0.20796 0.11906 0 0.20638-0.07303 0.20638-0.07303l-0.03016-0.10001s-0.0762 0.06509-0.15081 0.06509c-0.05398 0-0.08731-0.0381-0.08731-0.13335v-0.39211h0.23178v-0.10001h-0.23178v-0.19685l-0.12382 0.03016v0.15875l-0.1016 0.04127v0.06668h0.1016z" aria-label="Deck Select"/></g></g><g stroke-width=".26458" aria-label="Main Output Gain, Headphone Gain"><path d="m28.847 3.5269h0.127l0.02858-0.91122 0.33972 0.91122h0.09843l0.33972-0.90011 0.03334 0.90011h0.127l-0.0381-1.0589h-0.18734l-0.32385 0.87471-0.31909-0.87471h-0.18732zm1.2748-0.16034c0 0.10478 0.07779 0.17939 0.20002 0.17939 0.14446 0 0.22225-0.1016 0.23654-0.12382 0.01587 0.058737 0.05397 0.10478 0.15399 0.11589l0.04128-0.10001s-0.07938-0.00159-0.07938-0.09525v-0.32226c0-0.16034-0.0508-0.22701-0.20638-0.22701-0.1778 0-0.29686 0.087312-0.29686 0.087312l0.0381 0.10001s0.10478-0.079375 0.22384-0.079375 0.11748 0.079375 0.11748 0.16351v0.026987c-0.27146 0.034925-0.42862 0.127-0.42862 0.27464zm0.22542 0.071438c-0.05239 0-0.09366-0.023813-0.09366-0.079375 0-0.092075 0.09525-0.14288 0.29686-0.17621v0.13176c-0.0508 0.058737-0.11589 0.12382-0.2032 0.12382zm0.64611-0.80645c0.04763 0 0.08573-0.0381 0.08573-0.085725s-0.0381-0.085725-0.08573-0.085725-0.08573 0.0381-0.08573 0.085725 0.0381 0.085725 0.08573 0.085725zm-0.0635 0.89535h0.12382v-0.71438h-0.12382zm0.36195 0h0.12382v-0.47149c0.04604-0.04445 0.16828-0.1524 0.26194-0.1524 0.05397 0 0.09684 0.033338 0.09684 0.1397v0.48419h0.12382v-0.51911c0-0.15399-0.08096-0.21431-0.18732-0.21431-0.13811 0-0.24924 0.10001-0.29528 0.14764v-0.1397l-0.12382 0.022225zm1.1795-0.52705c0 0.29369 0.21908 0.5461 0.54451 0.5461 0.33496 0 0.5588-0.26988 0.5588-0.56832 0-0.29369-0.21431-0.52864-0.54451-0.52864-0.3556 0-0.5588 0.26988-0.5588 0.55086zm0.1397-0.00953c0-0.21272 0.14764-0.42862 0.41116-0.42862 0.26511 0 0.41275 0.21114 0.41275 0.42862s-0.1524 0.44291-0.41434 0.44291c-0.26352 0-0.40958-0.23178-0.40958-0.44291zm1.1446 0.34131c0 0.15399 0.0762 0.21431 0.19368 0.21431 0.13494 0 0.23971-0.092075 0.28258-0.13811 0.0063 0.0508 0.02381 0.13018 0.02381 0.13018l0.12224-0.011112s-0.03175-0.13335-0.03175-0.22066v-0.49371h-0.12382v0.49054c-0.04762 0.047625-0.14922 0.13335-0.2413 0.13335-0.05715 0-0.1016-0.030162-0.1016-0.1397v-0.48419h-0.12382zm0.86678 0.00635c0 0.14605 0.07303 0.20796 0.18574 0.20796 0.11906 0 0.20638-0.073025 0.20638-0.073025l-0.03016-0.10001s-0.0762 0.065087-0.15081 0.065087c-0.05398 0-0.08731-0.0381-0.08731-0.13335v-0.39211h0.23178v-0.10001h-0.23178v-0.19685l-0.12382 0.030162v0.15875l-0.1016 0.041275v0.066675h0.1016zm0.53975 0.55721 0.12382-0.022225v-0.37148c0.02858 0.022225 0.08414 0.04445 0.16034 0.04445 0.21908 0 0.35878-0.18098 0.35878-0.39688 0-0.19685-0.11589-0.3556-0.30321-0.3556-0.11271 0-0.18574 0.058737-0.21908 0.11906v-0.11112l-0.12065 0.022225zm0.32385-0.9906c0.10795 0 0.18732 0.093663 0.18732 0.254 0 0.1778-0.09842 0.28258-0.25241 0.28258-0.08096 0-0.13494-0.028575-0.13494-0.093663v-0.32068c0.01746-0.0254 0.09049-0.12224 0.20002-0.12224zm0.50165 0.42704c0 0.15399 0.0762 0.21431 0.19368 0.21431 0.13494 0 0.23971-0.092075 0.28258-0.13811 0.0063 0.0508 0.02381 0.13018 0.02381 0.13018l0.12224-0.011112s-0.03175-0.13335-0.03175-0.22066v-0.49371h-0.12382v0.49054c-0.04762 0.047625-0.14922 0.13335-0.2413 0.13335-0.05715 0-0.1016-0.030162-0.1016-0.1397v-0.48419h-0.12382zm0.86678 0.00635c0 0.14605 0.07303 0.20796 0.18574 0.20796 0.11906 0 0.20638-0.073025 0.20638-0.073025l-0.03016-0.10001s-0.0762 0.065087-0.15081 0.065087c-0.05398 0-0.08731-0.0381-0.08731-0.13335v-0.39211h0.23178v-0.10001h-0.23178v-0.19685l-0.12382 0.030162v0.15875l-0.1016 0.041275v0.066675h0.1016zm0.88265-0.32544c0 0.33179 0.25718 0.5334 0.5715 0.5334 0.15558 0 0.35084-0.049212 0.35084-0.049212v-0.51276h-0.35719v0.10954h0.22701v0.31274s-0.10001 0.026987-0.20002 0.026987c-0.28099 0-0.45402-0.18415-0.45402-0.4318 0-0.22384 0.14129-0.43974 0.42545-0.43974 0.17939 0 0.30798 0.084137 0.30798 0.084137l0.05239-0.11748s-0.14129-0.079375-0.35242-0.079375c-0.36671 0-0.5715 0.2667-0.5715 0.56356zm1.0858 0.35401c0 0.10478 0.07779 0.17939 0.20002 0.17939 0.14446 0 0.22225-0.1016 0.23654-0.12382 0.01588 0.058737 0.05398 0.10478 0.15399 0.11589l0.04127-0.10001s-0.07937-0.00159-0.07937-0.09525v-0.32226c0-0.16034-0.0508-0.22701-0.20638-0.22701-0.1778 0-0.29686 0.087312-0.29686 0.087312l0.0381 0.10001s0.10478-0.079375 0.22384-0.079375 0.11748 0.079375 0.11748 0.16351v0.026987c-0.27146 0.034925-0.42862 0.127-0.42862 0.27464zm0.22542 0.071438c-0.05239 0-0.09366-0.023813-0.09366-0.079375 0-0.092075 0.09525-0.14288 0.29686-0.17621v0.13176c-0.0508 0.058737-0.11589 0.12382-0.2032 0.12382zm0.64611-0.80645c0.04763 0 0.08573-0.0381 0.08573-0.085725s-0.0381-0.085725-0.08573-0.085725c-0.04762 0-0.08572 0.0381-0.08572 0.085725s0.0381 0.085725 0.08572 0.085725zm-0.0635 0.89535h0.12382v-0.71438h-0.12382zm0.36195 0h0.12382v-0.47148c0.04604-0.04445 0.16828-0.1524 0.26194-0.1524 0.05398 0 0.09684 0.033338 0.09684 0.1397v0.48419h0.12382v-0.51911c0-0.15399-0.08096-0.21431-0.18732-0.21431-0.13811 0-0.24924 0.10001-0.29528 0.14764v-0.1397l-0.12382 0.022225zm0.80328-0.13494c0.0508 0.071438 0.07461 0.12382 0.07461 0.18574 0 0.080963-0.0381 0.11112-0.10001 0.16669l0.05556 0.05715c0.09842-0.074612 0.16034-0.16351 0.16034-0.28099 0-0.065088-0.01905-0.12224-0.06032-0.17145z"/><path d="m29.498 5.5113h0.13018v-0.48578h0.62548v0.48578h0.13018v-1.0589h-0.13018v0.46355h-0.62548v-0.46355h-0.13018zm1.0922-0.34131c0 0.18732 0.11748 0.36036 0.35401 0.36036 0.17145 0 0.27464-0.10319 0.27464-0.10319l-0.03651-0.09525s-0.1016 0.090488-0.22384 0.090488c-0.1397 0-0.22542-0.10001-0.23654-0.24765l0.42069-0.055562 0.0762-0.022225c0-0.20479-0.12065-0.31909-0.28575-0.31909-0.2032 0-0.3429 0.16828-0.3429 0.39211zm0.33496-0.28892c0.14288 0 0.15716 0.1524 0.15716 0.1524l-0.35878 0.046037c0.01746-0.11112 0.08731-0.19844 0.20161-0.19844zm0.42386 0.4699c0 0.10478 0.07779 0.17939 0.20002 0.17939 0.14446 0 0.22225-0.1016 0.23654-0.12382 0.01588 0.058738 0.05398 0.10478 0.15399 0.11589l0.04128-0.10001s-0.07938-0.00159-0.07938-0.09525v-0.32226c0-0.16034-0.0508-0.22701-0.20638-0.22701-0.1778 0-0.29686 0.087313-0.29686 0.087313l0.0381 0.10001s0.10478-0.079375 0.22384-0.079375 0.11748 0.079375 0.11748 0.16351v0.026988c-0.27146 0.034925-0.42862 0.127-0.42862 0.27464zm0.22542 0.071438c-0.05239 0-0.09366-0.023813-0.09366-0.079375 0-0.092075 0.09525-0.14288 0.29686-0.17621v0.13176c-0.0508 0.058737-0.11589 0.12382-0.2032 0.12382zm0.5334-0.24448c0 0.19685 0.12065 0.35242 0.30639 0.35242 0.1143 0 0.19209-0.058738 0.23178-0.12224 0.0079 0.049212 0.02222 0.1143 0.02222 0.1143l0.12224-0.011113s-0.03175-0.13335-0.03175-0.22066v-0.91281l-0.12382 0.022225v0.40322c-0.01905-0.00794-0.06668-0.0254-0.13811-0.0254-0.25559 0-0.38894 0.19368-0.38894 0.40005zm0.32226 0.24448c-0.10795 0-0.1905-0.093663-0.1905-0.25241 0-0.18256 0.10636-0.28734 0.25876-0.28734 0.06826 0 0.13335 0.022225 0.13652 0.1016v0.30798c-0.01905 0.030163-0.09208 0.13018-0.20479 0.13018zm0.56991 0.4572 0.12382-0.022225v-0.37148c0.02858 0.022225 0.08414 0.04445 0.16034 0.04445 0.21908 0 0.35878-0.18098 0.35878-0.39688 0-0.19685-0.11589-0.3556-0.30321-0.3556-0.11271 0-0.18574 0.058738-0.21908 0.11906v-0.11112l-0.12065 0.022225zm0.32385-0.9906c0.10795 0 0.18732 0.093662 0.18732 0.254 0 0.1778-0.09842 0.28258-0.25241 0.28258-0.08096 0-0.13494-0.028575-0.13494-0.093662v-0.32068c0.01746-0.0254 0.09049-0.12224 0.20002-0.12224zm0.51118 0.6223h0.12382v-0.47308c0.04762-0.04445 0.16828-0.15081 0.26035-0.15081 0.05397 0 0.09684 0.033338 0.09684 0.1397v0.48419h0.12382v-0.51911c0-0.15399-0.08096-0.21431-0.18732-0.21431-0.13652 0-0.24765 0.096838-0.29369 0.14605v-0.5461l-0.12383 0.022225zm0.7874-0.35401c0 0.18891 0.12859 0.37306 0.34925 0.37306 0.23971 0 0.35719-0.2159 0.35719-0.39052 0-0.18415-0.12859-0.36195-0.35084-0.36195-0.23654 0-0.3556 0.20161-0.3556 0.37941zm0.13018-0.014288c0-0.15399 0.08731-0.25718 0.22225-0.25718 0.16034 0 0.22384 0.13811 0.22384 0.27464 0 0.15399-0.08731 0.26194-0.22225 0.26194-0.15558 0-0.22384-0.1397-0.22384-0.2794zm0.76359 0.3683h0.12382v-0.47149c0.04604-0.04445 0.16828-0.1524 0.26194-0.1524 0.05398 0 0.09684 0.033338 0.09684 0.1397v0.48419h0.12382v-0.51911c0-0.15399-0.08096-0.21431-0.18732-0.21431-0.13811 0-0.24924 0.10001-0.29528 0.14764v-0.1397l-0.12382 0.022225zm0.79058-0.34131c0 0.18732 0.11748 0.36036 0.35401 0.36036 0.17145 0 0.27464-0.10319 0.27464-0.10319l-0.03651-0.09525s-0.1016 0.090488-0.22384 0.090488c-0.1397 0-0.22542-0.10001-0.23654-0.24765l0.42069-0.055562 0.0762-0.022225c0-0.20479-0.12065-0.31909-0.28575-0.31909-0.2032 0-0.3429 0.16828-0.3429 0.39211zm0.33496-0.28892c0.14288 0 0.15716 0.1524 0.15716 0.1524l-0.35878 0.046037c0.01746-0.11112 0.08731-0.19844 0.20161-0.19844zm0.82709 0.11589c0 0.33179 0.25718 0.5334 0.5715 0.5334 0.15558 0 0.35084-0.049213 0.35084-0.049213v-0.51276h-0.35719v0.10954h0.22701v0.31274s-0.10001 0.026988-0.20002 0.026988c-0.28099 0-0.45402-0.18415-0.45402-0.4318 0-0.22384 0.14129-0.43974 0.42545-0.43974 0.17939 0 0.30798 0.084138 0.30798 0.084138l0.05239-0.11748s-0.14129-0.079375-0.35242-0.079375c-0.36671 0-0.5715 0.2667-0.5715 0.56356zm1.0858 0.35401c0 0.10478 0.07779 0.17939 0.20002 0.17939 0.14446 0 0.22225-0.1016 0.23654-0.12382 0.01588 0.058738 0.05398 0.10478 0.15399 0.11589l0.04127-0.10001s-0.07937-0.00159-0.07937-0.09525v-0.32226c0-0.16034-0.0508-0.22701-0.20638-0.22701-0.1778 0-0.29686 0.087313-0.29686 0.087313l0.0381 0.10001s0.10478-0.079375 0.22384-0.079375 0.11748 0.079375 0.11748 0.16351v0.026988c-0.27146 0.034925-0.42862 0.127-0.42862 0.27464zm0.22542 0.071438c-0.05239 0-0.09366-0.023813-0.09366-0.079375 0-0.092075 0.09525-0.14288 0.29686-0.17621v0.13176c-0.0508 0.058737-0.11589 0.12382-0.2032 0.12382zm0.64611-0.80645c0.04763 0 0.08573-0.0381 0.08573-0.085725s-0.0381-0.085725-0.08573-0.085725c-0.04762 0-0.08572 0.0381-0.08572 0.085725s0.0381 0.085725 0.08572 0.085725zm-0.0635 0.89535h0.12382v-0.71438h-0.12382zm0.36195 0h0.12382v-0.47149c0.04604-0.04445 0.16828-0.1524 0.26194-0.1524 0.05398 0 0.09684 0.033338 0.09684 0.1397v0.48419h0.12382v-0.51911c0-0.15399-0.08096-0.21431-0.18732-0.21431-0.13811 0-0.24924 0.10001-0.29528 0.14764v-0.1397l-0.12382 0.022225z"/></g><path d="m34.917 6.2893v10.311" fill="none" stroke="#a2a2a2" stroke-dasharray="0.18, 0.36" stroke-linecap="round" stroke-linejoin="round" stroke-width=".18" style="paint-order:normal"/><path d="m33.208 28.832h-4.7006v-17.025" fill="none" stroke="#a2a2a2" stroke-dasharray="0.18, 0.36" stroke-linecap="round" stroke-linejoin="round" stroke-width=".18"/><g stroke-width=".26458" aria-label="Select Param, Change Value"><path d="m24.782 8.5661s0.12224 0.0889 0.30639 0.0889c0.1905 0 0.34766-0.09525 0.34766-0.2794 0-0.33655-0.50324-0.30956-0.50324-0.55562 0-0.096838 0.09049-0.14605 0.20796-0.14605 0.12382 0 0.2413 0.053975 0.2413 0.053975l0.03334-0.12224s-0.13018-0.047625-0.26988-0.047625c-0.22066 0-0.34449 0.12224-0.34449 0.27622 0 0.32385 0.50324 0.30956 0.50324 0.55086 0 0.1016-0.09684 0.15399-0.21114 0.15399-0.15399 0-0.27622-0.09525-0.27622-0.09525zm0.80328-0.27146c0 0.18732 0.11748 0.36036 0.35401 0.36036 0.17145 0 0.27464-0.10319 0.27464-0.10319l-0.03651-0.09525s-0.1016 0.090488-0.22384 0.090488c-0.1397 0-0.22542-0.10001-0.23654-0.24765l0.42069-0.055563 0.0762-0.022225c0-0.20479-0.12065-0.31909-0.28575-0.31909-0.2032 0-0.3429 0.16828-0.3429 0.39211zm0.33496-0.28892c0.14288 0 0.15716 0.1524 0.15716 0.1524l-0.35877 0.046038c0.01746-0.11112 0.08731-0.19844 0.20161-0.19844zm0.48736 0.63024h0.12382v-1.1335l-0.12382 0.022225zm0.31591-0.34131c0 0.18732 0.11748 0.36036 0.35401 0.36036 0.17145 0 0.27464-0.10319 0.27464-0.10319l-0.03651-0.09525s-0.1016 0.090488-0.22384 0.090488c-0.1397 0-0.22542-0.10001-0.23654-0.24765l0.42069-0.055563 0.0762-0.022225c0-0.20479-0.12065-0.31909-0.28575-0.31909-0.2032 0-0.3429 0.16828-0.3429 0.39211zm0.33496-0.28892c0.14288 0 0.15716 0.1524 0.15716 0.1524l-0.35878 0.046038c0.01746-0.11112 0.08731-0.19844 0.20161-0.19844zm0.43656 0.28099c0 0.20796 0.14129 0.3683 0.35242 0.3683 0.16192 0 0.24606-0.092075 0.24606-0.092075l-0.04286-0.092075s-0.07779 0.0762-0.19368 0.0762c-0.14764 0-0.23178-0.12224-0.23178-0.2667 0-0.14764 0.08573-0.26988 0.22701-0.26988 0.11112 0 0.18574 0.066675 0.18574 0.066675l0.05556-0.096837s-0.08096-0.077788-0.23336-0.077788c-0.23336 0-0.36512 0.1905-0.36512 0.38418zm0.80645 0.16034c0 0.14605 0.07303 0.20796 0.18574 0.20796 0.11906 0 0.20638-0.073025 0.20638-0.073025l-0.03016-0.10001s-0.0762 0.065088-0.15081 0.065088c-0.05398 0-0.08731-0.0381-0.08731-0.13335v-0.39211h0.23178v-0.10001h-0.23178v-0.19685l-0.12382 0.030162v0.15875l-0.1016 0.041275v0.066675h0.1016zm0.95885 0.18891h0.13018v-0.4064h0.17621c0.22225 0 0.37782-0.12541 0.37782-0.33972 0-0.16828-0.10478-0.31274-0.37782-0.31274h-0.30639zm0.13018-0.51594v-0.43339h0.1524c0.19368 0 0.26194 0.09525 0.26194 0.21431 0 0.13652-0.08255 0.21908-0.26194 0.21908zm0.65087 0.3556c0 0.10478 0.07779 0.17939 0.20002 0.17939 0.14446 0 0.22225-0.1016 0.23654-0.12382 0.01587 0.058738 0.05397 0.10478 0.15399 0.11589l0.04128-0.10001s-0.07938-0.00159-0.07938-0.09525v-0.32226c0-0.16034-0.0508-0.22701-0.20638-0.22701-0.1778 0-0.29686 0.087313-0.29686 0.087313l0.0381 0.10001s0.10478-0.079375 0.22384-0.079375 0.11748 0.079375 0.11748 0.16351v0.026987c-0.27146 0.034925-0.42862 0.127-0.42862 0.27464zm0.22542 0.071438c-0.05239 0-0.09366-0.023813-0.09366-0.079375 0-0.092075 0.09525-0.14288 0.29686-0.17621v0.13176c-0.0508 0.058737-0.11589 0.12382-0.2032 0.12382zm0.57944 0.0889h0.12382v-0.45244c0.02858-0.049213 0.09525-0.14605 0.1778-0.14605 0.02858 0 0.06032 0.0127 0.06032 0.0127l0.03175-0.13335s-0.02223-0.014288-0.06191-0.014288c-0.10795 0-0.18098 0.1016-0.20796 0.14922v-0.14129l-0.12382 0.022225zm0.4699-0.16034c0 0.10478 0.07779 0.17939 0.20002 0.17939 0.14446 0 0.22225-0.1016 0.23654-0.12382 0.01588 0.058738 0.05398 0.10478 0.15399 0.11589l0.04127-0.10001s-0.07937-0.00159-0.07937-0.09525v-0.32226c0-0.16034-0.0508-0.22701-0.20638-0.22701-0.1778 0-0.29686 0.087313-0.29686 0.087313l0.0381 0.10001s0.10478-0.079375 0.22384-0.079375 0.11748 0.079375 0.11748 0.16351v0.026987c-0.27146 0.034925-0.42862 0.127-0.42862 0.27464zm0.22542 0.071438c-0.05239 0-0.09366-0.023813-0.09366-0.079375 0-0.092075 0.09525-0.14288 0.29686-0.17621v0.13176c-0.0508 0.058737-0.11589 0.12382-0.2032 0.12382zm0.57944 0.0889h0.12382v-0.47308c0.04127-0.041275 0.16192-0.15081 0.254-0.15081 0.04921 0 0.0889 0.033338 0.0889 0.1397v0.48419h0.12382v-0.48419c0.0508-0.047625 0.15875-0.1397 0.24289-0.1397 0.04921 0 0.0889 0.033338 0.0889 0.1397v0.48419h0.12382v-0.51911c0-0.15399-0.07779-0.21431-0.17939-0.21431-0.12859 0-0.23495 0.093663-0.28416 0.14288-0.02064-0.1016-0.08731-0.14288-0.17145-0.14288-0.13335 0-0.24289 0.098425-0.28734 0.14605v-0.13811l-0.12382 0.022225zm1.243-0.13494c0.0508 0.071438 0.07461 0.12382 0.07461 0.18574 0 0.080963-0.0381 0.11112-0.10001 0.16669l0.05556 0.05715c0.09843-0.074613 0.16034-0.16351 0.16034-0.28099 0-0.065088-0.01905-0.12224-0.06033-0.17145z"/><path d="m24.737 10.098c0 0.3175 0.23336 0.54134 0.55086 0.54134 0.23178 0 0.381-0.12065 0.381-0.12065l-0.05397-0.09843s-0.13494 0.10636-0.31591 0.10636c-0.24765 0-0.42228-0.19685-0.42228-0.43815 0-0.2159 0.1397-0.43339 0.4191-0.43339 0.18415 0 0.30798 0.09525 0.30798 0.09525l0.05239-0.11748s-0.1397-0.090488-0.35084-0.090488c-0.34766 0-0.56832 0.24765-0.56832 0.55562zm1.1097 0.52229h0.12382v-0.47308c0.04763-0.04445 0.16828-0.15081 0.26035-0.15081 0.05398 0 0.09684 0.033338 0.09684 0.1397v0.48419h0.12382v-0.51911c0-0.15399-0.08096-0.21431-0.18732-0.21431-0.13652 0-0.24765 0.096837-0.29369 0.14605v-0.5461l-0.12382 0.022225zm0.7747-0.16034c0 0.10478 0.07779 0.17939 0.20002 0.17939 0.14446 0 0.22225-0.1016 0.23654-0.12382 0.01588 0.05874 0.05398 0.10478 0.15399 0.11589l0.04127-0.10001s-0.07937-0.0016-0.07937-0.09525v-0.32226c0-0.16034-0.0508-0.22701-0.20638-0.22701-0.1778 0-0.29686 0.087312-0.29686 0.087312l0.0381 0.10001s0.10478-0.079375 0.22384-0.079375 0.11748 0.079375 0.11748 0.16351v0.02699c-0.27146 0.03493-0.42862 0.127-0.42862 0.27464zm0.22542 0.07144c-0.05239 0-0.09366-0.02381-0.09366-0.07938 0-0.09207 0.09525-0.14288 0.29686-0.17621v0.13176c-0.0508 0.05874-0.11589 0.12382-0.2032 0.12382zm0.57944 0.0889h0.12382v-0.47149c0.04604-0.04445 0.16828-0.1524 0.26194-0.1524 0.05398 0 0.09684 0.033338 0.09684 0.1397v0.48419h0.12382v-0.51911c0-0.15399-0.08096-0.21431-0.18732-0.21431-0.13811 0-0.24924 0.10001-0.29528 0.14764v-0.1397l-0.12382 0.022225zm0.83185-0.12859c0 0.04763 0.04921 0.0762 0.11906 0.09684-0.08096 0.04127-0.18574 0.10795-0.18574 0.21749 0 0.127 0.15081 0.1905 0.3048 0.1905 0.2032 0 0.381-0.11748 0.381-0.26352 0-0.13018-0.1397-0.16828-0.27622-0.19844-0.13494-0.03016-0.20955-0.04604-0.20955-0.0762 0-0.02064 0.03016-0.04286 0.0635-0.06667 0.01746 0.0032 0.03651 0.0048 0.05715 0.0048 0.14288 0 0.30321-0.08096 0.30321-0.24765 0-0.06985-0.03493-0.11906-0.05398-0.1397 0.01588 0.0016 0.0381 0.0032 0.05874 0.0032h0.09049l-0.01111-0.11112s-0.04763 0.015875-0.09366 0.015875h-0.0762c-0.07779 0-0.12224-0.030162-0.20479-0.030162-0.15558 0-0.29528 0.092075-0.29528 0.24924 0 0.10001 0.05239 0.18415 0.13811 0.2286-0.0508 0.03016-0.10954 0.0762-0.10954 0.127zm0.04763 0.29686c0-0.07938 0.09049-0.127 0.17462-0.17304 0.02699 0.0048 0.05239 0.0095 0.07937 0.01587 0.10795 0.02381 0.1905 0.04921 0.1905 0.11906 0 0.07937-0.10954 0.15081-0.24448 0.15081-0.08414 0-0.20002-0.02699-0.20002-0.11271zm0.21749-0.48736c-0.1143 0-0.16669-0.07779-0.16669-0.15716 0-0.09049 0.06191-0.16193 0.16351-0.16193 0.11271 0 0.16828 0.092075 0.16828 0.17304 0 0.09366-0.07144 0.14605-0.1651 0.14605zm0.48895-0.02223c0 0.18732 0.11748 0.36036 0.35401 0.36036 0.17145 0 0.27464-0.10319 0.27464-0.10319l-0.03651-0.09525s-0.1016 0.09049-0.22384 0.09049c-0.1397 0-0.22542-0.10001-0.23654-0.24765l0.42069-0.05556 0.0762-0.02223c0-0.20479-0.12065-0.31909-0.28575-0.31909-0.2032 0-0.3429 0.16828-0.3429 0.39211zm0.33496-0.28892c0.14288 0 0.15716 0.1524 0.15716 0.1524l-0.35878 0.04604c0.01746-0.11112 0.08731-0.19844 0.20161-0.19844zm1.1509 0.63817h0.127l0.38258-1.0668h-0.13335l-0.30956 0.87471-0.30956-0.87471h-0.13811zm0.54293-0.16828c0 0.10478 0.07779 0.17939 0.20002 0.17939 0.14446 0 0.22225-0.1016 0.23654-0.12382 0.01587 0.05874 0.05397 0.10478 0.15399 0.11589l0.04128-0.10001s-0.07938-0.0016-0.07938-0.09525v-0.32226c0-0.16034-0.0508-0.22701-0.20638-0.22701-0.1778 0-0.29686 0.087312-0.29686 0.087312l0.0381 0.10001s0.10478-0.079375 0.22384-0.079375 0.11748 0.079375 0.11748 0.16351v0.02699c-0.27146 0.03493-0.42862 0.127-0.42862 0.27464zm0.22542 0.07144c-0.05239 0-0.09366-0.02381-0.09366-0.07938 0-0.09207 0.09525-0.14288 0.29686-0.17621v0.13176c-0.0508 0.05874-0.11589 0.12382-0.2032 0.12382zm0.58261 0.0889h0.12382v-1.1335l-0.12382 0.022225zm0.3556-0.19526c0 0.15399 0.0762 0.21431 0.19368 0.21431 0.13494 0 0.23971-0.09207 0.28258-0.13811 0.0063 0.0508 0.02381 0.13018 0.02381 0.13018l0.12224-0.01111s-0.03175-0.13335-0.03175-0.22066v-0.49371h-0.12382v0.49054c-0.04762 0.04763-0.14922 0.13335-0.2413 0.13335-0.05715 0-0.1016-0.03016-0.1016-0.1397v-0.48419h-0.12382zm0.78581-0.14605c0 0.18732 0.11748 0.36036 0.35401 0.36036 0.17145 0 0.27464-0.10319 0.27464-0.10319l-0.03651-0.09525s-0.1016 0.09049-0.22384 0.09049c-0.1397 0-0.22542-0.10001-0.23654-0.24765l0.42069-0.05556 0.0762-0.02223c0-0.20479-0.12065-0.31909-0.28575-0.31909-0.2032 0-0.3429 0.16828-0.3429 0.39211zm0.33496-0.28892c0.14288 0 0.15716 0.1524 0.15716 0.1524l-0.35878 0.04604c0.01746-0.11112 0.08731-0.19844 0.20161-0.19844z"/></g><path d="m33.208 23.62h-3.4611v-11.857" fill="none" stroke="#a2a2a2" stroke-dasharray="0.18, 0.36" stroke-linecap="round" stroke-linejoin="round" stroke-width=".18"/><path d="m54.083 33.314c3.0005 3.7118 3.2291-2.5883 6.5701 2.759 3.2014-5.1703 2.7854 1.0909 6.5701-2.759" fill="none" stroke="#a2a2a2" stroke-dasharray="0.179735, 0.359472" stroke-linecap="round" stroke-linejoin="round" stroke-width=".17974"/><path d="m60.653 36.257v32.749" fill="none" stroke="#a2a2a2" stroke-dasharray="0.18, 0.36" stroke-linecap="round" stroke-linejoin="round" stroke-width=".18" style="paint-order:normal"/><path d="m52.138 70.994h0.26035c0.38259 0 0.64929-0.1905 0.64929-0.5461 0-0.37624-0.30004-0.51276-0.58896-0.51276h-0.32068zm0.13018-0.10954v-0.83979h0.16828c0.30798 0 0.47149 0.16351 0.47149 0.41751 0 0.23495-0.1397 0.42228-0.52546 0.42228zm0.96837 0.10954h0.12382v-0.45244c0.02858-0.04921 0.09525-0.14605 0.1778-0.14605 0.02858 0 0.06033 0.0127 0.06033 0.0127l0.03175-0.13335s-0.02222-0.01429-0.06191-0.01429c-0.10795 0-0.18098 0.1016-0.20796 0.14922v-0.14129l-0.12382 0.02223zm0.52387-0.19526c0 0.15399 0.0762 0.21431 0.19368 0.21431 0.13494 0 0.23971-0.09208 0.28258-0.13811 0.0063 0.0508 0.02381 0.13018 0.02381 0.13018l0.12224-0.01111s-0.03175-0.13335-0.03175-0.22066v-0.49371h-0.12382v0.49054c-0.04762 0.04762-0.14922 0.13335-0.2413 0.13335-0.05715 0-0.1016-0.03016-0.1016-0.1397v-0.48419h-0.12382zm0.83185 0.19526h0.12382v-0.47308c0.04127-0.04127 0.16192-0.15081 0.254-0.15081 0.04921 0 0.0889 0.03334 0.0889 0.1397v0.48419h0.12382v-0.48419c0.0508-0.04762 0.15875-0.1397 0.24289-0.1397 0.04921 0 0.0889 0.03334 0.0889 0.1397v0.48419h0.12382v-0.51911c0-0.15399-0.07779-0.21431-0.17939-0.21431-0.12859 0-0.23495 0.09366-0.28416 0.14288-0.02064-0.1016-0.08731-0.14288-0.17145-0.14288-0.13335 0-0.24289 0.09843-0.28734 0.14605v-0.13811l-0.12382 0.02223zm1.6955 0h0.13018v-0.4064h0.17621c0.22225 0 0.37782-0.12541 0.37782-0.33972 0-0.16828-0.10478-0.31274-0.37782-0.31274h-0.30639zm0.13018-0.51594v-0.43339h0.1524c0.19368 0 0.26194 0.09525 0.26194 0.21431 0 0.13652-0.08255 0.21908-0.26194 0.21908zm0.65087 0.3556c0 0.10478 0.07779 0.17939 0.20002 0.17939 0.14446 0 0.22225-0.1016 0.23654-0.12382 0.01588 0.05874 0.05398 0.10478 0.15399 0.11589l0.04127-0.10001s-0.07937-0.0016-0.07937-0.09525v-0.32226c0-0.16034-0.0508-0.22701-0.20638-0.22701-0.1778 0-0.29686 0.08731-0.29686 0.08731l0.0381 0.10001s0.10478-0.07937 0.22384-0.07937 0.11748 0.07937 0.11748 0.16351v0.02699c-0.27146 0.03493-0.42862 0.127-0.42862 0.27464zm0.22542 0.07144c-0.05239 0-0.09366-0.02381-0.09366-0.07937 0-0.09208 0.09525-0.14288 0.29686-0.17621v0.13176c-0.0508 0.05874-0.11589 0.12382-0.2032 0.12382zm0.5334-0.24448c0 0.19685 0.12065 0.35242 0.30639 0.35242 0.1143 0 0.19209-0.05874 0.23178-0.12224 0.0079 0.04921 0.02222 0.1143 0.02222 0.1143l0.12224-0.01111s-0.03175-0.13335-0.03175-0.22066v-0.91281l-0.12382 0.02223v0.40322c-0.01905-0.0079-0.06668-0.0254-0.13811-0.0254-0.25559 0-0.38894 0.19368-0.38894 0.40005zm0.32226 0.24448c-0.10795 0-0.1905-0.09366-0.1905-0.25241 0-0.18256 0.10636-0.28734 0.25876-0.28734 0.06826 0 0.13335 0.02222 0.13652 0.1016v0.30798c-0.01905 0.03016-0.09208 0.13018-0.20479 0.13018zm0.97155 0.0889h0.127l0.02857-0.91122 0.33972 0.91122h0.09842l0.33972-0.90011 0.03334 0.90011h0.127l-0.0381-1.0589h-0.18732l-0.32385 0.87471-0.31909-0.87471h-0.18732zm1.2811-0.35401c0 0.18891 0.12859 0.37306 0.34925 0.37306 0.23971 0 0.35719-0.2159 0.35719-0.39052 0-0.18415-0.12859-0.36195-0.35084-0.36195-0.23654 0-0.3556 0.20161-0.3556 0.37941zm0.13018-0.01429c0-0.15399 0.08731-0.25718 0.22225-0.25718 0.16034 0 0.22384 0.13811 0.22384 0.27464 0 0.15399-0.08731 0.26194-0.22225 0.26194-0.15558 0-0.22384-0.1397-0.22384-0.2794zm0.71755 0.03493c0 0.19685 0.12065 0.35242 0.30639 0.35242 0.1143 0 0.19209-0.05874 0.23178-0.12224 0.0079 0.04921 0.02222 0.1143 0.02222 0.1143l0.12224-0.01111s-0.03175-0.13335-0.03175-0.22066v-0.91281l-0.12382 0.02223v0.40322c-0.01905-0.0079-0.06667-0.0254-0.13811-0.0254-0.25559 0-0.38894 0.19368-0.38894 0.40005zm0.32226 0.24448c-0.10795 0-0.1905-0.09366-0.1905-0.25241 0-0.18256 0.10636-0.28734 0.25876-0.28734 0.06826 0 0.13335 0.02222 0.13652 0.1016v0.30798c-0.01905 0.03016-0.09208 0.13018-0.20479 0.13018zm0.52388-0.25241c0 0.18732 0.11748 0.36036 0.35401 0.36036 0.17145 0 0.27464-0.10319 0.27464-0.10319l-0.03651-0.09525s-0.1016 0.09049-0.22384 0.09049c-0.1397 0-0.22542-0.10001-0.23654-0.24765l0.42069-0.05556 0.0762-0.02223c0-0.20479-0.12065-0.31909-0.28575-0.31909-0.2032 0-0.3429 0.16828-0.3429 0.39211zm0.33496-0.28892c0.14288 0 0.15716 0.1524 0.15716 0.1524l-0.35878 0.04604c0.01746-0.11112 0.08731-0.19844 0.20161-0.19844zm0.82391 0.56039s0.12224 0.0889 0.30639 0.0889c0.1905 0 0.34766-0.09525 0.34766-0.2794 0-0.33655-0.50324-0.30956-0.50324-0.55562 0-0.09684 0.09049-0.14605 0.20796-0.14605 0.12382 0 0.2413 0.05397 0.2413 0.05397l0.03334-0.12224s-0.13018-0.04762-0.26988-0.04762c-0.22066 0-0.34449 0.12224-0.34449 0.27622 0 0.32385 0.50324 0.30956 0.50324 0.55086 0 0.1016-0.09684 0.15399-0.21114 0.15399-0.15399 0-0.27622-0.09525-0.27622-0.09525zm0.80328-0.27146c0 0.18732 0.11748 0.36036 0.35401 0.36036 0.17145 0 0.27464-0.10319 0.27464-0.10319l-0.03651-0.09525s-0.1016 0.09049-0.22384 0.09049c-0.1397 0-0.22542-0.10001-0.23654-0.24765l0.42069-0.05556 0.0762-0.02223c0-0.20479-0.12065-0.31909-0.28575-0.31909-0.2032 0-0.3429 0.16828-0.3429 0.39211zm0.33496-0.28892c0.14288 0 0.15716 0.1524 0.15716 0.1524l-0.35878 0.04604c0.01746-0.11112 0.08731-0.19844 0.20161-0.19844zm0.48736 0.63024h0.12382v-1.1335l-0.12382 0.02223zm0.31591-0.34131c0 0.18732 0.11748 0.36036 0.35401 0.36036 0.17145 0 0.27464-0.10319 0.27464-0.10319l-0.03651-0.09525s-0.1016 0.09049-0.22384 0.09049c-0.1397 0-0.22542-0.10001-0.23654-0.24765l0.42069-0.05556 0.0762-0.02223c0-0.20479-0.12065-0.31909-0.28575-0.31909-0.2032 0-0.3429 0.16828-0.3429 0.39211zm0.33496-0.28892c0.14288 0 0.15716 0.1524 0.15716 0.1524l-0.35878 0.04604c0.01746-0.11112 0.08731-0.19844 0.20161-0.19844zm0.43656 0.28099c0 0.20796 0.14129 0.3683 0.35242 0.3683 0.16192 0 0.24606-0.09208 0.24606-0.09208l-0.04286-0.09207s-0.07779 0.0762-0.19368 0.0762c-0.14764 0-0.23178-0.12224-0.23178-0.2667 0-0.14764 0.08572-0.26988 0.22701-0.26988 0.11112 0 0.18574 0.06667 0.18574 0.06667l0.05556-0.09684s-0.08096-0.07779-0.23336-0.07779c-0.23336 0-0.36512 0.1905-0.36512 0.38418zm0.80645 0.16034c0 0.14605 0.07303 0.20796 0.18574 0.20796 0.11906 0 0.20638-0.07303 0.20638-0.07303l-0.03016-0.10001s-0.0762 0.06509-0.15081 0.06509c-0.05398 0-0.08731-0.0381-0.08731-0.13335v-0.39211h0.23178v-0.10001h-0.23178v-0.19685l-0.12382 0.03016v0.15875l-0.1016 0.04127v0.06668h0.1016zm0.60642-0.70644c0.04762 0 0.08572-0.0381 0.08572-0.08573 0-0.04762-0.0381-0.08572-0.08572-0.08572s-0.08572 0.0381-0.08572 0.08572c0 0.04763 0.0381 0.08573 0.08572 0.08573zm-0.0635 0.89535h0.12382v-0.71438h-0.12382zm0.31432-0.35401c0 0.18891 0.12859 0.37306 0.34925 0.37306 0.23971 0 0.35719-0.2159 0.35719-0.39052 0-0.18415-0.12859-0.36195-0.35084-0.36195-0.23654 0-0.3556 0.20161-0.3556 0.37941zm0.13018-0.01429c0-0.15399 0.08731-0.25718 0.22225-0.25718 0.16034 0 0.22384 0.13811 0.22384 0.27464 0 0.15399-0.08731 0.26194-0.22225 0.26194-0.15558 0-0.22384-0.1397-0.22384-0.2794zm0.76359 0.3683h0.12382v-0.47149c0.04604-0.04445 0.16828-0.1524 0.26194-0.1524 0.05398 0 0.09684 0.03334 0.09684 0.1397v0.48419h0.12382v-0.51911c0-0.15399-0.08096-0.21431-0.18732-0.21431-0.13811 0-0.24924 0.10001-0.29528 0.14764v-0.1397l-0.12382 0.02223z" stroke-width=".26458" aria-label="Drum Pad Mode Selection"/><g transform="translate(43.545)"><path d="m55.846 33.326c4.9274 3.6793 5.3027-2.5656 10.789 2.7349 5.2574-5.1251 4.5741 1.0814 10.789-2.7349" fill="none" stroke="#a2a2a2" stroke-dasharray="0.167266, 0.334534" stroke-linecap="round" stroke-linejoin="round" stroke-width=".16727"/><path d="m66.694 36.257v32.749" fill="none" stroke="#a2a2a2" stroke-dasharray="0.18, 0.36" stroke-linecap="round" stroke-linejoin="round" stroke-width=".18" style="paint-order:normal"/><path d="m63.592 70.994h0.13018v-0.94932h0.381v-0.10954h-0.88582v0.10954h0.37465zm0.50324 0h0.12382v-0.45244c0.02858-0.04921 0.09525-0.14605 0.1778-0.14605 0.02857 0 0.06032 0.0127 0.06032 0.0127l0.03175-0.13335s-0.02222-0.01429-0.06191-0.01429c-0.10795 0-0.18098 0.1016-0.20796 0.14922v-0.14129l-0.12382 0.02223zm0.4699-0.16034c0 0.10478 0.07779 0.17939 0.20002 0.17939 0.14446 0 0.22225-0.1016 0.23654-0.12382 0.01588 0.05874 0.05398 0.10478 0.15399 0.11589l0.04128-0.10001s-0.07938-0.0016-0.07938-0.09525v-0.32226c0-0.16034-0.0508-0.22701-0.20638-0.22701-0.1778 0-0.29686 0.08731-0.29686 0.08731l0.0381 0.10001s0.10478-0.07937 0.22384-0.07937 0.11748 0.07937 0.11748 0.16351v0.02699c-0.27146 0.03493-0.42862 0.127-0.42862 0.27464zm0.22542 0.07144c-0.05239 0-0.09366-0.02381-0.09366-0.07937 0-0.09208 0.09525-0.14288 0.29686-0.17621v0.13176c-0.0508 0.05874-0.11589 0.12382-0.2032 0.12382zm0.57944 0.0889h0.12382v-0.47149c0.04604-0.04445 0.16828-0.1524 0.26194-0.1524 0.05398 0 0.09684 0.03334 0.09684 0.1397v0.48419h0.12382v-0.51911c0-0.15399-0.08096-0.21431-0.18732-0.21431-0.13811 0-0.24924 0.10001-0.29528 0.14764v-0.1397l-0.12382 0.02223zm0.78581-0.04445s0.08414 0.0635 0.2286 0.0635c0.16192 0 0.26194-0.07937 0.26194-0.20638 0-0.23654-0.35084-0.21272-0.35084-0.35878 0-0.04921 0.03969-0.08414 0.12541-0.08414 0.0889 0 0.17462 0.04127 0.17462 0.04127l0.03334-0.10478s-0.07779-0.03969-0.19844-0.03969c-0.18256 0-0.26035 0.0889-0.26035 0.19685 0 0.2286 0.35084 0.20638 0.35084 0.35878 0 0.05556-0.04445 0.09366-0.13335 0.09366-0.1143 0-0.20479-0.06985-0.20479-0.06985zm0.67469 0.41275 0.12382-0.02223v-0.37148c0.02858 0.02223 0.08414 0.04445 0.16034 0.04445 0.21908 0 0.35878-0.18098 0.35878-0.39688 0-0.19685-0.11589-0.3556-0.30321-0.3556-0.11271 0-0.18574 0.05874-0.21908 0.11906v-0.11112l-0.12065 0.02223zm0.32385-0.9906c0.10795 0 0.18732 0.09366 0.18732 0.254 0 0.1778-0.09843 0.28258-0.25241 0.28258-0.08096 0-0.13494-0.02858-0.13494-0.09366v-0.32068c0.01746-0.0254 0.09049-0.12224 0.20002-0.12224zm0.46038 0.26829c0 0.18891 0.12859 0.37306 0.34925 0.37306 0.23971 0 0.35719-0.2159 0.35719-0.39052 0-0.18415-0.12859-0.36195-0.35084-0.36195-0.23654 0-0.3556 0.20161-0.3556 0.37941zm0.13018-0.01429c0-0.15399 0.08731-0.25718 0.22225-0.25718 0.16034 0 0.22384 0.13811 0.22384 0.27464 0 0.15399-0.08731 0.26194-0.22225 0.26194-0.15558 0-0.22384-0.1397-0.22384-0.2794zm0.76359 0.3683h0.12382v-0.45244c0.02858-0.04921 0.09525-0.14605 0.1778-0.14605 0.02857 0 0.06032 0.0127 0.06032 0.0127l0.03175-0.13335s-0.02223-0.01429-0.06191-0.01429c-0.10795 0-0.18098 0.1016-0.20796 0.14922v-0.14129l-0.12382 0.02223zm0.56515-0.18891c0 0.14605 0.07303 0.20796 0.18574 0.20796 0.11906 0 0.20638-0.07303 0.20638-0.07303l-0.03016-0.10001s-0.0762 0.06509-0.15081 0.06509c-0.05398 0-0.08731-0.0381-0.08731-0.13335v-0.39211h0.23178v-0.10001h-0.23178v-0.19685l-0.12382 0.03016v0.15875l-0.1016 0.04127v0.06668h0.1016zm0.48895 0.14446s0.08414 0.0635 0.2286 0.0635c0.16192 0 0.26194-0.07937 0.26194-0.20638 0-0.23654-0.35084-0.21272-0.35084-0.35878 0-0.04921 0.03969-0.08414 0.12541-0.08414 0.0889 0 0.17462 0.04127 0.17462 0.04127l0.03334-0.10478s-0.07779-0.03969-0.19844-0.03969c-0.18256 0-0.26035 0.0889-0.26035 0.19685 0 0.2286 0.35084 0.20638 0.35084 0.35878 0 0.05556-0.04445 0.09366-0.13335 0.09366-0.1143 0-0.20479-0.06985-0.20479-0.06985z" stroke-width=".26458" aria-label="Transports"/></g><path d="m134.93 5.7674v4.6051" fill="none" stroke="#a2a2a2" stroke-dasharray="0.18,0.35999723" stroke-linecap="round" stroke-linejoin="round" stroke-width=".18" style="paint-order:normal"/><path d="m128.18 5.0445s0.12224 0.0889 0.30639 0.0889c0.1905 0 0.34766-0.09525 0.34766-0.2794 0-0.33655-0.50324-0.30956-0.50324-0.55562 0-0.096837 0.0905-0.14605 0.20796-0.14605 0.12383 0 0.2413 0.053975 0.2413 0.053975l0.0333-0.12224s-0.13017-0.047625-0.26987-0.047625c-0.22067 0-0.34449 0.12224-0.34449 0.27622 0 0.32385 0.50324 0.30956 0.50324 0.55086 0 0.1016-0.0968 0.15399-0.21114 0.15399-0.15399 0-0.27623-0.09525-0.27623-0.09525zm0.78899-0.090488c0 0.10478 0.0778 0.17939 0.20002 0.17939 0.14446 0 0.22225-0.1016 0.23654-0.12382 0.0159 0.058738 0.054 0.10478 0.15399 0.11589l0.0413-0.10001s-0.0794-0.00159-0.0794-0.09525v-0.32226c0-0.16034-0.0508-0.22701-0.20638-0.22701-0.1778 0-0.29686 0.087312-0.29686 0.087312l0.0381 0.10001s0.10477-0.079375 0.22384-0.079375c0.11906 0 0.11747 0.079375 0.11747 0.16351v0.026987c-0.27146 0.034925-0.42862 0.127-0.42862 0.27464zm0.22542 0.071438c-0.0524 0-0.0937-0.023813-0.0937-0.079375 0-0.092075 0.0952-0.14288 0.29686-0.17621v0.13176c-0.0508 0.058738-0.11589 0.12382-0.2032 0.12382zm0.57944 0.0889h0.12382v-0.47308c0.0413-0.041275 0.16193-0.15081 0.254-0.15081 0.0492 0 0.0889 0.033338 0.0889 0.1397v0.48419h0.12383v-0.48419c0.0508-0.047625 0.15875-0.1397 0.24289-0.1397 0.0492 0 0.0889 0.033338 0.0889 0.1397v0.48419h0.12382v-0.51911c0-0.15399-0.0778-0.21431-0.17939-0.21431-0.12858 0-0.23495 0.093662-0.28416 0.14288-0.0206-0.1016-0.0873-0.14288-0.17145-0.14288-0.13335 0-0.24289 0.098425-0.28734 0.14605v-0.13811l-0.12382 0.022225zm1.2764 0.3683 0.12383-0.022225v-0.37148c0.0286 0.022225 0.0841 0.04445 0.16033 0.04445 0.21908 0 0.35878-0.18098 0.35878-0.39688 0-0.19685-0.11589-0.3556-0.30321-0.3556-0.11272 0-0.18574 0.058737-0.21908 0.11906v-0.11112l-0.12065 0.022225zm0.32385-0.9906c0.10795 0 0.18733 0.093663 0.18733 0.254 0 0.1778-0.0984 0.28258-0.25242 0.28258-0.081 0-0.13493-0.028575-0.13493-0.093662v-0.32068c0.0175-0.0254 0.0905-0.12224 0.20002-0.12224zm0.51118 0.6223h0.12382v-1.1335l-0.12382 0.022225zm0.31591-0.34131c0 0.18732 0.11747 0.36036 0.35401 0.36036 0.17145 0 0.27464-0.10319 0.27464-0.10319l-0.0365-0.09525s-0.1016 0.090488-0.22383 0.090488c-0.1397 0-0.22543-0.10001-0.23654-0.24765l0.42069-0.055562 0.0762-0.022225c0-0.20479-0.12065-0.31909-0.28575-0.31909-0.2032 0-0.3429 0.16828-0.3429 0.39211zm0.33496-0.28892c0.14287 0 0.15716 0.1524 0.15716 0.1524l-0.35877 0.046037c0.0175-0.11112 0.0873-0.19844 0.20161-0.19844zm0.48419 0.63024h0.12382v-0.45244c0.0286-0.049213 0.0952-0.14605 0.1778-0.14605 0.0286 0 0.0603 0.0127 0.0603 0.0127l0.0318-0.13335s-0.0222-0.014288-0.0619-0.014288c-0.10795 0-0.18097 0.1016-0.20796 0.14922v-0.14129l-0.12382 0.022225zm0.47942-0.04445s0.0841 0.0635 0.2286 0.0635c0.16193 0 0.26194-0.079375 0.26194-0.20638 0-0.23654-0.35084-0.21272-0.35084-0.35878 0-0.049212 0.0397-0.084137 0.12541-0.084137 0.0889 0 0.17463 0.041275 0.17463 0.041275l0.0333-0.10478s-0.0778-0.039687-0.19844-0.039687c-0.18256 0-0.26035 0.0889-0.26035 0.19685 0 0.2286 0.35084 0.20638 0.35084 0.35878 0 0.055562-0.0445 0.093662-0.13335 0.093662-0.1143 0-0.20479-0.06985-0.20479-0.06985zm1.0081-0.30956c0 0.18891 0.12859 0.37306 0.34925 0.37306 0.23972 0 0.35719-0.2159 0.35719-0.39052 0-0.18415-0.12859-0.36195-0.35084-0.36195-0.23653 0-0.3556 0.20161-0.3556 0.37941zm0.13018-0.014288c0-0.15399 0.0873-0.25718 0.22225-0.25718 0.16034 0 0.22384 0.13811 0.22384 0.27464 0 0.15399-0.0873 0.26194-0.22225 0.26194-0.15558 0-0.22384-0.1397-0.22384-0.2794zm0.76359 0.3683h0.12382v-0.45244c0.0286-0.049213 0.0952-0.14605 0.1778-0.14605 0.0286 0 0.0603 0.0127 0.0603 0.0127l0.0318-0.13335s-0.0222-0.014288-0.0619-0.014288c-0.10795 0-0.18097 0.1016-0.20796 0.14922v-0.14129l-0.12382 0.022225zm0.94932 0h0.13018v-0.48578h0.62547v0.48578h0.13018v-1.0589h-0.13018v0.46355h-0.62547v-0.46355h-0.13018zm1.089-0.35401c0 0.18891 0.12858 0.37306 0.34925 0.37306 0.23971 0 0.35718-0.2159 0.35718-0.39052 0-0.18415-0.12858-0.36195-0.35083-0.36195-0.23654 0-0.3556 0.20161-0.3556 0.37941zm0.13017-0.014288c0-0.15399 0.0873-0.25718 0.22225-0.25718 0.16034 0 0.22384 0.13811 0.22384 0.27464 0 0.15399-0.0873 0.26194-0.22225 0.26194-0.15558 0-0.22384-0.1397-0.22384-0.2794zm0.79851 0.17939c0 0.14605 0.073 0.20796 0.18574 0.20796 0.11906 0 0.20638-0.073025 0.20638-0.073025l-0.03017-0.10001s-0.0762 0.065087-0.15081 0.065087c-0.054 0-0.0873-0.0381-0.0873-0.13335v-0.39211h0.23177v-0.10001h-0.23177v-0.19685l-0.12383 0.030163v0.15875l-0.1016 0.041275v0.066675h0.1016zm0.49213-0.16034c0 0.20796 0.14129 0.3683 0.35242 0.3683 0.16193 0 0.24607-0.092075 0.24607-0.092075l-0.0429-0.092075s-0.0778 0.0762-0.19367 0.0762c-0.14764 0-0.23178-0.12224-0.23178-0.2667 0-0.14764 0.0857-0.26988 0.22702-0.26988 0.11112 0 0.18573 0.066675 0.18573 0.066675l0.0556-0.096838s-0.081-0.077787-0.23337-0.077787c-0.23336 0-0.36512 0.1905-0.36512 0.38418zm0.76517 0.15399c0 0.15399 0.0762 0.21431 0.19368 0.21431 0.13494 0 0.23971-0.092075 0.28257-0.13811 6e-3 0.0508 0.0238 0.13018 0.0238 0.13018l0.12223-0.011113s-0.0318-0.13335-0.0318-0.22066v-0.49371h-0.12382v0.49054c-0.0476 0.047625-0.14923 0.13335-0.2413 0.13335-0.0572 0-0.1016-0.030162-0.1016-0.1397v-0.48419h-0.12383zm0.78582-0.14605c0 0.18732 0.11747 0.36036 0.35401 0.36036 0.17145 0 0.27464-0.10319 0.27464-0.10319l-0.0365-0.09525s-0.1016 0.090488-0.22383 0.090488c-0.1397 0-0.22543-0.10001-0.23654-0.24765l0.42069-0.055562 0.0762-0.022225c0-0.20479-0.12065-0.31909-0.28575-0.31909-0.2032 0-0.3429 0.16828-0.3429 0.39211zm0.33496-0.28892c0.14287 0 0.15716 0.1524 0.15716 0.1524l-0.35877 0.046037c0.0175-0.11112 0.0873-0.19844 0.20161-0.19844zm0.43338 0.58579s0.0841 0.0635 0.2286 0.0635c0.16193 0 0.26194-0.079375 0.26194-0.20638 0-0.23654-0.35084-0.21272-0.35084-0.35878 0-0.049212 0.0397-0.084137 0.12542-0.084137 0.0889 0 0.17462 0.041275 0.17462 0.041275l0.0333-0.10478s-0.0778-0.039687-0.19844-0.039687c-0.18256 0-0.26035 0.0889-0.26035 0.19685 0 0.2286 0.35084 0.20638 0.35084 0.35878 0 0.055562-0.0445 0.093662-0.13335 0.093662-0.1143 0-0.20479-0.06985-0.20479-0.06985z" stroke-width=".26458" aria-label="Samplers or Hotcues"/><path d="m145.14 13.196c-4.6629-3.6888-5.0181 2.5723-10.21-2.742-4.9752 5.1383-4.3286-1.0842-10.21 2.742" fill="none" stroke="#a2a2a2" stroke-dasharray="0.162926, 0.325853" stroke-linecap="round" stroke-linejoin="round" stroke-width=".16293"/><g transform="translate(16.404)"><path d="m89.591 3.3087h0.33496c0.21272 0 0.36195-0.12065 0.36195-0.30798 0-0.17462-0.13018-0.23971-0.1905-0.26035 0.05556-0.042863 0.12859-0.12224 0.12859-0.23654 0-0.12224-0.08572-0.254-0.35878-0.254h-0.27622zm0.13018-0.10954v-0.381h0.18098c0.17145 0 0.24606 0.079375 0.24606 0.19209s-0.0762 0.18891-0.24606 0.18891zm0-0.83979h0.12224c0.1905 0 0.24289 0.06985 0.24289 0.15716 0 0.13018-0.11906 0.19209-0.11906 0.19209h-0.24606zm0.71755 0.60801c0 0.18732 0.11748 0.36036 0.35401 0.36036 0.17145 0 0.27464-0.10319 0.27464-0.10319l-0.03651-0.09525s-0.1016 0.090488-0.22384 0.090488c-0.1397 0-0.22542-0.10001-0.23654-0.24765l0.42069-0.055563 0.0762-0.022225c0-0.20479-0.12065-0.31909-0.28575-0.31909-0.2032 0-0.3429 0.16828-0.3429 0.39211zm0.33496-0.28892c0.14288 0 0.15716 0.1524 0.15716 0.1524l-0.35878 0.046037c0.017463-0.11112 0.087313-0.19844 0.20161-0.19844zm0.42386 0.4699c0 0.10478 0.07779 0.17939 0.20002 0.17939 0.14446 0 0.22225-0.1016 0.23654-0.12382 0.01588 0.058738 0.05398 0.10478 0.15399 0.11589l0.04127-0.10001s-0.07937-0.00159-0.07937-0.09525v-0.32226c0-0.16034-0.0508-0.22701-0.20638-0.22701-0.1778 0-0.29686 0.087312-0.29686 0.087312l0.0381 0.10001s0.10478-0.079375 0.22384-0.079375 0.11748 0.079375 0.11748 0.16351v0.026988c-0.27146 0.034925-0.42862 0.127-0.42862 0.27464zm0.22542 0.071438c-0.05239 0-0.09366-0.023813-0.09366-0.079375 0-0.092075 0.09525-0.14288 0.29686-0.17621v0.13176c-0.0508 0.058737-0.11589 0.12382-0.2032 0.12382zm0.60801-0.10001c0 0.14605 0.07303 0.20796 0.18574 0.20796 0.11906 0 0.20638-0.073025 0.20638-0.073025l-0.03016-0.10001s-0.0762 0.065088-0.15081 0.065088c-0.05397 0-0.08731-0.0381-0.08731-0.13335v-0.39211h0.23178v-0.10001h-0.23178v-0.19685l-0.12382 0.030162v0.15875l-0.1016 0.041275v0.066675h0.1016zm0.87947 0.11906s0.12224 0.0889 0.30639 0.0889c0.1905 0 0.34766-0.09525 0.34766-0.2794 0-0.33655-0.50324-0.30956-0.50324-0.55562 0-0.096837 0.09049-0.14605 0.20796-0.14605 0.12382 0 0.2413 0.053975 0.2413 0.053975l0.03334-0.12224s-0.13018-0.047625-0.26988-0.047625c-0.22066 0-0.34449 0.12224-0.34449 0.27622 0 0.32385 0.50324 0.30956 0.50324 0.55086 0 0.1016-0.09684 0.15399-0.21114 0.15399-0.15399 0-0.27622-0.09525-0.27622-0.09525zm0.74295 0.3429 0.03969 0.10319c0.15558-0.01905 0.24289-0.16669 0.30798-0.32226l0.31909-0.76835h-0.13018l-0.20161 0.50482-0.20796-0.50482h-0.13494l0.27781 0.66199-0.04604 0.10636c-0.04921 0.11271-0.12065 0.19844-0.22384 0.21908zm0.80963-0.27305h0.12382v-0.47149c0.04604-0.04445 0.16828-0.1524 0.26194-0.1524 0.05397 0 0.09684 0.033338 0.09684 0.1397v0.48419h0.12382v-0.51911c0-0.15399-0.08096-0.21431-0.18732-0.21431-0.13811 0-0.24924 0.10001-0.29528 0.14764v-0.1397l-0.12382 0.022225zm0.78899-0.34925c0 0.20796 0.14129 0.3683 0.35242 0.3683 0.16192 0 0.24606-0.092075 0.24606-0.092075l-0.04286-0.092075s-0.07779 0.0762-0.19368 0.0762c-0.14764 0-0.23178-0.12224-0.23178-0.2667 0-0.14764 0.08572-0.26988 0.22701-0.26988 0.11112 0 0.18574 0.066675 0.18574 0.066675l0.05556-0.096838s-0.08096-0.077787-0.23336-0.077787c-0.23336 0-0.36512 0.1905-0.36512 0.38418z" stroke-width=".26458" aria-label="Beat Sync"/><g transform="translate(0 -.9744)"><path d="m97.923 6.0888h0.26035c0.38259 0 0.64929-0.1905 0.64929-0.5461 0-0.37624-0.30004-0.51276-0.58896-0.51276h-0.32068zm0.13018-0.10954v-0.83979h0.16828c0.30798 0 0.47149 0.16351 0.47149 0.41751 0 0.23495-0.1397 0.42228-0.52546 0.42228zm0.87789 0.068263h0.45244v0.34766h0.12382v-0.34766h0.15081v-0.1016h-0.15081v-0.6223h-0.10478l-0.47149 0.63976zm0.13494-0.1016 0.3175-0.43021v0.43021z" stroke-width=".26458" aria-label="D4"/><path d="m98.791 6.785v8.8682" fill="none" stroke="#a2a2a2" stroke-dasharray="0.18, 0.359999" stroke-linecap="round" stroke-linejoin="round" stroke-width=".18" style="paint-order:normal"/><path d="m93.845 6.0888h0.26035c0.38259 0 0.64929-0.1905 0.64929-0.5461 0-0.37624-0.30004-0.51276-0.58896-0.51276h-0.32068zm0.13018-0.10954v-0.83979h0.16828c0.30798 0 0.47149 0.16351 0.47149 0.41751 0 0.23495-0.1397 0.42228-0.52546 0.42228zm0.94615 0.10954h0.56039v-0.10636h-0.38735c0.13811-0.11589 0.32068-0.27622 0.32068-0.44609 0-0.12065-0.10319-0.21272-0.24289-0.21272-0.14288 0-0.26035 0.10001-0.26035 0.10001l0.05397 0.080963s0.0889-0.073025 0.18574-0.073025c0.07937 0 0.13335 0.049213 0.13335 0.12065 0 0.18732-0.37624 0.45561-0.37624 0.45561z" stroke-width=".26458" aria-label="D2"/><path d="m94.658 6.785v8.8682" fill="none" stroke="#a2a2a2" stroke-dasharray="0.18, 0.359999" stroke-linecap="round" stroke-linejoin="round" stroke-width=".18" style="paint-order:normal"/><path d="m89.771 6.0888h0.26035c0.38259 0 0.64929-0.1905 0.64929-0.5461 0-0.37624-0.30004-0.51276-0.58896-0.51276h-0.32068zm0.13018-0.10954v-0.83979h0.16828c0.30798 0 0.47149 0.16351 0.47149 0.41751 0 0.23495-0.1397 0.42228-0.52546 0.42228zm0.94298 0.10954h0.44609v-0.10636h-0.15558v-0.63976h-0.2794v0.098425h0.15558v0.54134h-0.16669z" stroke-width=".26458" aria-label="D1"/><path d="m90.525 6.785v8.8682" fill="none" stroke="#a2a2a2" stroke-dasharray="0.18, 0.359999" stroke-linecap="round" stroke-linejoin="round" stroke-width=".18" style="paint-order:normal"/><path d="m85.603 6.0888h0.26035c0.38259 0 0.64929-0.1905 0.64929-0.5461 0-0.37624-0.30004-0.51276-0.58896-0.51276h-0.32068zm0.13018-0.10954v-0.83979h0.16828c0.30798 0 0.47149 0.16351 0.47149 0.41751 0 0.23495-0.1397 0.42228-0.52546 0.42228zm0.90646 0.31274 0.01111 0.098425c0.01429 0.00159 0.02858 0.00159 0.04286 0.00159 0.26988 0 0.46196-0.1397 0.46196-0.3429 0-0.12541-0.07779-0.21908-0.21908-0.24924 0.09049-0.052388 0.19209-0.14764 0.19209-0.2667 0-0.12382-0.10319-0.20955-0.23971-0.20955-0.14605 0-0.26194 0.10001-0.26194 0.10001l0.05398 0.080963s0.09049-0.073025 0.19209-0.073025c0.07461 0 0.12541 0.04445 0.12541 0.1143 0 0.11112-0.14605 0.22066-0.26194 0.23336v0.1016h0.04445c0.11906 0 0.24448 0.041275 0.24448 0.1778 0 0.1524-0.15558 0.23495-0.33814 0.23495-0.01588 0-0.03175 0-0.04762-0.00159z" stroke-width=".26458" aria-label="D3"/><path d="m86.392 6.785v8.8682" fill="none" stroke="#a2a2a2" stroke-dasharray="0.18, 0.359999" stroke-linecap="round" stroke-linejoin="round" stroke-width=".18" style="paint-order:normal"/></g></g></svg>
