<?xml version="1.0" encoding="UTF-8"?>
<svg width="180.02mm" height="24.359mm" version="1.1" viewBox="0 0 180.02 24.359" xmlns="http://www.w3.org/2000/svg">
 <g transform="translate(-2.2151 -101.97)">
  <path d="m2.6549 103.65h179.14v-0.95782h-179.14z"/>
  <g transform="matrix(.35278 0 0 -.35278 180.59 115.61)">
   <path d="m0 0c2.71 0 2.88 2.442 2.88 2.442l1.69 32.28h-510.08l1.692-32.28s0.279-2.442 2.624-2.442" fill="#2e2e2e"/>
   <path d="m0 0c2.71 0 2.88 2.442 2.88 2.442l1.69 32.28h-510.08l1.692-32.28s0.279-2.442 2.624-2.442z" fill="none" stroke="#fff" stroke-width=".206"/>
  </g>
  <path d="m2.2269 103.09h180v-1.1246h-180z" fill="#2e2e2e"/>
  <g transform="matrix(.35278 0 0 -.35278 47.082 105.44)">
   <path d="m0 0c-1.09-1.09-1.09-2.857 0-3.948 1.09-1.089 2.857-1.089 3.947 0 1.09 1.091 1.09 2.858 0 3.948-0.544 0.546-1.259 0.818-1.974 0.818-0.714 0-1.428-0.272-1.973-0.818" fill="#c7c7c7"/>
  </g>
  <g transform="matrix(.35278 0 0 -.35278 48.082 105.59)">
   <path d="m0 0c-0.038 0.028-0.092 0.021-0.122-0.014l-0.768-0.928c-0.03-0.035-0.086-0.043-0.125-0.019l-1.013 0.653c-0.038 0.026-0.094 0.016-0.12-0.021l-0.263-0.358c-0.028-0.037-0.021-0.092 0.015-0.121l0.933-0.785c0.036-0.031 0.045-0.087 0.018-0.125l-0.658-0.997c-0.025-0.038-0.016-0.093 0.022-0.121l0.357-0.262c0.037-0.027 0.091-0.021 0.121 0.015l0.764 0.917c0.03 0.035 0.086 0.044 0.125 0.02l1.017-0.645c0.039-0.024 0.093-0.014 0.122 0.023l0.262 0.357c0.027 0.037 0.021 0.092-0.015 0.121l-0.92 0.761c-0.036 0.03-0.044 0.086-0.02 0.126l0.648 1.021c0.025 0.039 0.015 0.093-0.023 0.121" fill="#020202"/>
  </g>
  <g transform="matrix(.35278 0 0 -.35278 40.956 108.42)">
   <path d="m0 0h-10.15c-0.07 0-0.13-0.018-0.185-0.042-0.061-0.028-0.114-0.065-0.166-0.098-0.038-0.051-0.062-0.095-0.076-0.146-0.015-0.051-0.02-0.109-0.02-0.188v-9.851c0-0.082 9e-3 -0.136 0.027-0.186 0.019-0.047 0.046-0.091 0.086-0.153 0.057-0.061 0.107-0.097 0.16-0.12 0.049-0.018 0.104-0.024 0.174-0.024h11.282c0.082 0 0.136 0.014 0.19 0.04 0.044 0.023 0.087 0.057 0.142 0.099 0.041 0.043 0.07 0.087 0.09 0.14 0.019 0.056 0.028 0.122 0.028 0.204v9.851c0 0.079-0.011 0.147-0.035 0.207-0.023 0.06-0.058 0.115-0.106 0.161-0.058 0.041-0.097 0.065-0.136 0.081-0.046 0.02-0.091 0.025-0.173 0.025" fill="#c7c7c7"/>
  </g>
  <g fill="#808080">
   <path d="m38.694 109.76h0.44768v-0.13899h-0.44768z"/>
   <path d="m39.589 109.76h0.44803v-0.13899h-0.44803z"/>
   <path d="m38.694 111.04h0.44768v-0.13863h-0.44768z"/>
   <path d="m39.589 111.04h0.44803v-0.13863h-0.44803z"/>
  </g>
  <g transform="matrix(.35278 0 0 -.35278 40.941 109.84)">
   <path d="m0 0c0.056 0 0.143 0.02 0.194 0.042 0 0 0.161 0.072 0.161 0.213 0 0.14-0.161 0.212-0.161 0.212-0.051 0.022-0.138 0.041-0.194 0.041h-0.05c-0.056 0-0.101 0.046-0.101 0.102v0.026c0 0.055-0.033 0.133-0.072 0.172l-2.038 2.038c-0.04 0.04-0.118 0.071-0.174 0.071h-4.062c-0.056 0-0.133-0.031-0.172-0.071l-2.038-2.038c-0.039-0.039-0.072-0.117-0.072-0.173v-0.025c0-0.056-0.045-0.102-0.101-0.102h-0.052c-0.055 0-0.142-0.019-0.193-0.041 0 0-0.162-0.072-0.162-0.212 0-0.141 0.162-0.213 0.162-0.213 0.051-0.022 0.138-0.042 0.193-0.042h0.35c0.057 0 0.102-0.045 0.102-0.101v-4.06c0-0.054-0.045-0.103-0.102-0.103h-0.35c-0.055 0-0.142-0.017-0.193-0.041 0 0-0.162-0.073-0.162-0.213 0-0.139 0.162-0.211 0.162-0.211 0.051-0.024 0.138-0.042 0.193-0.042h0.052c0.056 0 0.101-0.045 0.101-0.102v-0.431c0-0.054 0.046-0.1 0.102-0.1h8.424c0.056 0 0.102 0.046 0.102 0.1v0.431c0 0.057 0.045 0.102 0.101 0.102h0.05c0.056 0 0.143 0.018 0.194 0.042 0 0 0.161 0.072 0.161 0.211 0 0.14-0.161 0.213-0.161 0.213-0.051 0.024-0.138 0.041-0.194 0.041h-0.378c-0.056 0-0.101 0.049-0.101 0.103v4.06c0 0.056 0.045 0.101 0.101 0.101"/>
  </g>
  <g transform="matrix(.35278 0 0 -.35278 39.106 109.62)">
   <path d="m0 0h-1.173v-0.386h1.27v0.386" fill="#808080"/>
  </g>
  <g transform="matrix(.35278 0 0 -.35278 40 109.62)">
   <path d="m0 0h-1.173v-0.386h1.27v0.386" fill="#808080"/>
  </g>
  <g transform="matrix(.35278 0 0 -.35278 39.106 110.9)">
   <path d="m0 0h-1.167v-0.395h1.264v0.395" fill="#808080"/>
  </g>
  <g transform="matrix(.35278 0 0 -.35278 40.001 110.9)">
   <path d="m0 0h-1.167v-0.395h1.264v0.395" fill="#808080"/>
  </g>
  <g transform="matrix(.35278 0 0 -.35278 31.505 108.31)">
   <path d="m0 0c-0.071-0.089-0.048-0.146-0.048-0.185v-10.645c0-0.05-0.012-0.154 0.02-0.226 0.063-0.074 0.193-0.048 0.235-0.048h8.621c0.043 0 0.196-7e-3 0.234 0.046 0.037 0.058 0.024 0.178 0.024 0.228v10.645c0 0.039 0.014 0.119-0.04 0.196-0.058 0.068-0.175 0.05-0.218 0.05h-8.621c-0.017 0-0.039 4e-3 -0.065 4e-3 -0.039 0-0.088-0.011-0.142-0.065" fill="#808080"/>
  </g>
  <g transform="matrix(.35278 0 0 -.35278 31.927 109.92)">
   <path d="m0 0c0-1.834 1.491-3.325 3.323-3.325 1.833 0 3.324 1.491 3.324 3.325s-1.491 3.324-3.324 3.324c-1.832 0-3.323-1.49-3.323-3.324" fill="#c7c7c7"/>
  </g>
  <g transform="matrix(.35278 0 0 -.35278 34.227 109.92)">
   <path d="m0 0c0-1.765-1.431-3.197-3.197-3.197-1.765 0-3.197 1.432-3.197 3.197 0 1.767 1.432 3.198 3.197 3.198 1.766 0 3.197-1.431 3.197-3.198"/>
  </g>
  <g transform="matrix(.35278 0 0 -.35278 33.645 109.92)">
   <path d="m0 0c0-0.856-0.692-1.546-1.547-1.546-0.853 0-1.546 0.69-1.546 1.546 0 0.854 0.693 1.547 1.546 1.547 0.855 0 1.547-0.693 1.547-1.547" fill="#393939"/>
  </g>
  <g transform="matrix(.35278 0 0 -.35278 32.994 109.58)">
   <path d="m0 0c-0.156-0.047-0.302-0.129-0.423-0.251-0.12-0.121-0.203-0.266-0.25-0.419-0.053-0.175-0.058-0.363-0.017-0.541 0.042-0.178 0.131-0.346 0.267-0.482 0.121-0.121 0.267-0.204 0.423-0.252 0.188-0.056 0.389-0.056 0.578-5e-3 0.162 0.047 0.314 0.13 0.44 0.257 0.136 0.136 0.226 0.304 0.268 0.483 0.041 0.177 0.035 0.365-0.018 0.54-0.047 0.154-0.13 0.298-0.25 0.419-0.126 0.126-0.278 0.211-0.44 0.256-0.092 0.025-0.186 0.038-0.281 0.038-0.1 0-0.2-0.015-0.297-0.043" fill="#fff"/>
  </g>
  <g transform="matrix(.35278 0 0 -.35278 33.52 110.74)">
   <path d="m0 0h-2.646c-0.078 0-0.125-8e-3 -0.205-0.033-0.025-9e-3 -0.047-0.02-0.068-0.031-0.025-0.015-0.048-0.034-0.067-0.054-0.026-0.029-0.051-0.058-0.075-0.086 0.087-0.065 0.176-0.125 0.268-0.182 0.063-0.038 0.127-0.076 0.192-0.107 0.078-0.04 0.158-0.077 0.237-0.109 0.748-0.302 1.615-0.293 2.364 3e-3 0.068 0.028 0.134 0.057 0.2 0.088 0.085 0.041 0.167 0.085 0.245 0.131 0.143 0.082 0.312 0.109 0.178 0.262-0.019 0.022-0.041 0.035-0.065 0.045-0.021 8e-3 -0.044 0.015-0.068 0.023-0.096 0.026-0.173 0.05-0.274 0.05" fill="#c7c7c7"/>
  </g>
  <g transform="matrix(.35278 0 0 -.35278 19.816 110.36)">
   <path d="m0 0c0-0.56-0.457-1.016-1.016-1.016h-5.074c-0.558 0-1.015 0.456-1.015 1.016v1.015c0 0.558 0.457 1.014 1.015 1.014h5.074c0.559 0 1.016-0.456 1.016-1.014"/>
   <path d="m0 0c0-0.56-0.457-1.016-1.016-1.016h-5.074c-0.558 0-1.015 0.456-1.015 1.016v1.015c0 0.558 0.457 1.014 1.015 1.014h5.074c0.559 0 1.016-0.456 1.016-1.014z" fill="none" stroke="#ababab" stroke-linecap="round" stroke-linejoin="round" stroke-miterlimit="10" stroke-width=".18"/>
  </g>
  <g transform="matrix(.35278 0 0 -.35278 40.415 109.76)">
   <path d="m0 0h-6.121v-3.268h6.283v3.268" fill="#c7c7c7"/>
  </g>
  <g transform="matrix(.35278 0 0 -.35278 43.632 108.41)">
   <path d="m0 0c-0.974-1.66-0.974-3.721 0-5.378 0.96-1.66 2.731-2.69 4.623-2.69 1.942 0.027 3.732 1.07 4.672 2.718 0.976 1.634 0.976 3.685-1e-3 5.351-0.946 1.658-2.737 2.688-4.671 2.688-1.908 0-3.68-1.03-4.623-2.689m0.131-5.302c-0.946 1.611-0.946 3.614 0 5.225l1e-3 2e-3c0.917 1.612 2.638 2.613 4.491 2.613 1.88 0 3.62-1.001 4.54-2.613 0.948-1.619 0.948-3.61 1e-3 -5.197-0.916-1.605-2.656-2.618-4.542-2.644-1.837 0-3.558 1.001-4.491 2.614m-0.132 5.302h1e-3v1e-3" fill="#c7c7c7"/>
  </g>
  <g transform="matrix(.35278 0 0 -.35278 45.273 108.2)">
   <path d="m0 0c-1.161 0.015-2.258-0.613-2.855-1.643-0.595-1.033-0.595-2.25 0-3.284 0.597-1.031 1.694-1.656 2.855-1.656 1.158 0.015 2.254 0.625 2.85 1.656 0.595 1.034 0.595 2.251 0 3.284-0.596 1.03-1.692 1.658-2.85 1.658" fill="#fff" fill-rule="evenodd"/>
  </g>
  <g transform="matrix(.35278 0 0 -.35278 46.278 108.78)">
   <path d="m0 0c0.595-1.033 0.595-2.25 0-3.284-0.596-1.031-1.692-1.642-2.85-1.656-1.161 0-2.258 0.625-2.855 1.656-0.595 1.034-0.595 2.251 0 3.284 0.597 1.029 1.694 1.657 2.855 1.643v0.014c1.158 0 2.254-0.628 2.85-1.657m-2.85 2.653c-1.518 0.019-2.952-0.802-3.732-2.148-0.778-1.35-0.778-2.943 0-4.294 0.78-1.348 2.214-2.166 3.732-2.166 1.515 0.019 2.948 0.818 3.728 2.166 0.778 1.351 0.778 2.944 0 4.294-0.78 1.346-2.213 2.167-3.728 2.167" fill="#dadada" fill-rule="evenodd"/>
  </g>
  <g transform="matrix(.35278 0 0 -.35278 45.272 108.83)">
   <path d="m0 0c0.842 0 1.523-0.681 1.523-1.521 0-0.843-0.681-1.524-1.523-1.524-0.841 0-1.522 0.681-1.522 1.524 0 0.84 0.681 1.521 1.522 1.521" fill-rule="evenodd"/>
  </g>
  <g transform="matrix(.35278 0 0 -.35278 48.645 108.41)">
   <path d="m0 0c-0.975-1.66-0.975-3.72 0-5.38 0.96-1.658 2.731-2.688 4.623-2.688 1.942 0.028 3.731 1.069 4.672 2.719 0.976 1.633 0.976 3.685-1e-3 5.351-0.945 1.657-2.736 2.687-4.671 2.687-1.908 0-3.68-1.03-4.623-2.689m0.131-5.301c-0.946 1.61-0.946 3.613 0 5.224l1e-3 2e-3c0.917 1.611 2.638 2.612 4.491 2.612 1.881 0 3.62-1.001 4.54-2.612 0.948-1.62 0.948-3.61 1e-3 -5.198-0.916-1.603-2.656-2.616-4.543-2.644-1.835 0-3.556 1.002-4.49 2.616m-0.131 5.301v2e-3" fill="#c7c7c7"/>
  </g>
  <g transform="matrix(.35278 0 0 -.35278 50.285 108.2)">
   <path d="m0 0c-1.161 0.014-2.258-0.614-2.855-1.643-0.595-1.034-0.595-2.25 0-3.284 0.597-1.031 1.694-1.656 2.855-1.656 1.157 0.015 2.254 0.625 2.85 1.656 0.595 1.034 0.595 2.25 0 3.284-0.596 1.029-1.693 1.657-2.85 1.657" fill="#808080" fill-rule="evenodd"/>
  </g>
  <g transform="matrix(.35278 0 0 -.35278 51.291 108.78)">
   <path d="m0 0c0.595-1.034 0.595-2.25 0-3.284-0.596-1.031-1.692-1.641-2.85-1.656-1.161 0-2.258 0.625-2.855 1.656-0.595 1.034-0.595 2.25 0 3.284 0.597 1.029 1.694 1.657 2.855 1.643v0.014c1.158 0 2.254-0.628 2.85-1.657m-2.85 2.653c-1.518 0.018-2.952-0.802-3.732-2.148-0.778-1.35-0.778-2.943 0-4.295 0.78-1.348 2.214-2.165 3.732-2.165 1.515 0.02 2.948 0.817 3.728 2.165 0.778 1.352 0.778 2.945 0 4.295-0.78 1.346-2.213 2.166-3.728 2.166" fill="#c7c7c7" fill-rule="evenodd"/>
  </g>
  <g transform="matrix(.35278 0 0 -.35278 50.284 108.83)">
   <path d="m0 0c0.842 0 1.522-0.681 1.522-1.522 0-0.843-0.68-1.523-1.522-1.523-0.841 0-1.522 0.68-1.522 1.523 0 0.841 0.681 1.522 1.522 1.522" fill-rule="evenodd"/>
  </g>
  <g transform="matrix(.35278 0 0 -.35278 54.546 108.41)">
   <path d="m0 0c-0.975-1.66-0.975-3.721 0-5.378 0.96-1.66 2.731-2.69 4.623-2.69 1.942 0.027 3.731 1.07 4.672 2.718 0.976 1.634 0.976 3.685-1e-3 5.351-0.945 1.658-2.736 2.688-4.671 2.688-1.908 0-3.68-1.03-4.623-2.689m0.131-5.302c-0.946 1.611-0.946 3.614 0 5.225l1e-3 2e-3c0.917 1.612 2.638 2.613 4.491 2.613 1.88 0 3.62-1.001 4.539-2.613 0.949-1.619 0.949-3.61 2e-3 -5.197-0.916-1.605-2.656-2.618-4.542-2.644-1.837 0-3.557 1.001-4.491 2.614m-0.132 5.302h1e-3v1e-3" fill="#c7c7c7"/>
  </g>
  <g transform="matrix(.35278 0 0 -.35278 56.186 108.2)">
   <path d="m0 0c-1.161 0.015-2.258-0.613-2.855-1.643-0.595-1.033-0.595-2.25 0-3.284 0.597-1.031 1.694-1.656 2.855-1.656 1.157 0.015 2.254 0.625 2.85 1.656 0.594 1.034 0.594 2.251 0 3.284-0.596 1.03-1.693 1.658-2.85 1.658" fill="#fff" fill-rule="evenodd"/>
  </g>
  <g transform="matrix(.35278 0 0 -.35278 57.191 108.78)">
   <path d="m0 0c0.595-1.033 0.595-2.25 0-3.284-0.596-1.031-1.692-1.642-2.85-1.656-1.161 0-2.258 0.625-2.855 1.656-0.595 1.034-0.595 2.251 0 3.284 0.597 1.029 1.694 1.657 2.855 1.643v0.014c1.158 0 2.254-0.628 2.85-1.657m-2.85 2.653c-1.518 0.019-2.952-0.802-3.732-2.148-0.778-1.35-0.778-2.943 0-4.294 0.78-1.348 2.214-2.166 3.732-2.166 1.514 0.019 2.948 0.818 3.727 2.166 0.779 1.351 0.779 2.944 0 4.294-0.779 1.346-2.213 2.167-3.727 2.167" fill="#dadada" fill-rule="evenodd"/>
  </g>
  <g transform="matrix(.35278 0 0 -.35278 56.185 108.83)">
   <path d="m0 0c0.842 0 1.523-0.681 1.523-1.521 0-0.843-0.681-1.524-1.523-1.524-0.841 0-1.521 0.681-1.521 1.524 0 0.84 0.68 1.521 1.521 1.521" fill-rule="evenodd"/>
  </g>
  <g transform="matrix(.35278 0 0 -.35278 59.559 108.41)">
   <path d="m0 0c-0.974-1.66-0.974-3.72 0-5.38 0.96-1.658 2.732-2.688 4.623-2.688 1.942 0.028 3.732 1.069 4.672 2.719 0.976 1.633 0.976 3.685 0 5.351-0.946 1.657-2.737 2.687-4.672 2.687-1.908 0-3.68-1.03-4.623-2.689m0.131-5.301c-0.945 1.61-0.945 3.613 0 5.224l1e-3 2e-3c0.918 1.611 2.638 2.612 4.491 2.612 1.881 0 3.62-1.001 4.54-2.612 0.949-1.62 0.949-3.61 1e-3 -5.198-0.915-1.603-2.656-2.616-4.542-2.644-1.836 0-3.557 1.002-4.491 2.616m-0.131 5.301v2e-3" fill="#c7c7c7"/>
  </g>
  <g transform="matrix(.35278 0 0 -.35278 61.199 108.2)">
   <path d="m0 0c-1.161 0.014-2.258-0.614-2.855-1.643-0.594-1.034-0.594-2.25 0-3.284 0.597-1.031 1.694-1.656 2.855-1.656 1.157 0.015 2.254 0.625 2.85 1.656 0.595 1.034 0.595 2.25 0 3.284-0.596 1.029-1.693 1.657-2.85 1.657" fill="#808080" fill-rule="evenodd"/>
  </g>
  <g transform="matrix(.35278 0 0 -.35278 62.204 108.78)">
   <path d="m0 0c0.595-1.034 0.595-2.25 0-3.284-0.596-1.031-1.692-1.641-2.85-1.656-1.161 0-2.257 0.625-2.855 1.656-0.594 1.034-0.594 2.25 0 3.284 0.598 1.029 1.694 1.657 2.855 1.643v0.014c1.158 0 2.254-0.628 2.85-1.657m-2.85 2.653c-1.518 0.018-2.951-0.802-3.732-2.148-0.777-1.35-0.777-2.943 0-4.295 0.781-1.348 2.214-2.165 3.732-2.165 1.515 0.02 2.948 0.817 3.728 2.165 0.778 1.352 0.778 2.945 0 4.295-0.78 1.346-2.213 2.166-3.728 2.166" fill="#c7c7c7" fill-rule="evenodd"/>
  </g>
  <g transform="matrix(.35278 0 0 -.35278 61.198 108.83)">
   <path d="m0 0c0.842 0 1.523-0.681 1.523-1.522 0-0.843-0.681-1.523-1.523-1.523-0.84 0-1.522 0.68-1.522 1.523 0 0.841 0.682 1.522 1.522 1.522" fill-rule="evenodd"/>
  </g>
  <g transform="matrix(.35278 0 0 -.35278 57.995 105.44)">
   <path d="m0 0c-1.09-1.09-1.09-2.857 0-3.948 1.089-1.089 2.857-1.089 3.947 0 1.09 1.091 1.09 2.858 0 3.948-0.545 0.546-1.259 0.818-1.974 0.818-0.714 0-1.428-0.272-1.973-0.818" fill="#c7c7c7"/>
  </g>
  <g transform="matrix(.35278 0 0 -.35278 58.996 105.59)">
   <path d="m0 0c-0.038 0.028-0.093 0.021-0.122-0.014l-0.768-0.928c-0.03-0.035-0.087-0.043-0.125-0.019l-1.013 0.653c-0.038 0.026-0.094 0.016-0.12-0.021l-0.264-0.358c-0.027-0.037-0.02-0.092 0.015-0.121l0.934-0.785c0.035-0.031 0.044-0.087 0.018-0.125l-0.658-0.997c-0.025-0.038-0.016-0.093 0.021-0.121l0.358-0.262c0.036-0.027 0.091-0.021 0.121 0.015l0.764 0.917c0.029 0.035 0.086 0.044 0.125 0.02l1.017-0.645c0.039-0.024 0.093-0.014 0.121 0.023l0.263 0.357c0.027 0.037 0.02 0.092-0.015 0.121l-0.921 0.761c-0.035 0.03-0.043 0.086-0.019 0.126l0.648 1.021c0.025 0.039 0.014 0.093-0.023 0.121" fill="#020202"/>
  </g>
  <g transform="matrix(.35278 0 0 -.35278 47.623 112.32)">
   <path d="m0 0h-0.717v0.451c0.01 0 0.019 0 0.029-2e-3 8e-3 -2e-3 0.018-4e-3 0.028-4e-3h0.022c0.01-2e-3 0.018-4e-3 0.03-4e-3 0.205 0 0.387 0.039 0.543 0.116 0.156 0.076 0.249 0.179 0.28 0.31h0.553v-2.801h-0.768" fill="#fff"/>
  </g>
  <g transform="matrix(.35278 0 0 -.35278 58.367 112.74)">
   <path d="m0 0c0.135 0.195 0.279 0.367 0.438 0.51 0.093 0.086 0.185 0.164 0.276 0.238 0.091 0.072 0.167 0.143 0.229 0.209 0.024 0.027 0.045 0.057 0.064 0.084 0.019 0.029 0.035 0.057 0.044 0.086 0.017 0.037 0.03 0.074 0.036 0.107 8e-3 0.036 0.011 0.069 0.011 0.1 0 0.086-0.022 0.16-0.068 0.225-0.044 0.064-0.098 0.097-0.159 0.097-0.147 0-0.241-0.045-0.279-0.135-0.037-0.091-0.056-0.23-0.056-0.416h-0.753c0.017 0.307 0.09 0.555 0.217 0.745 0.127 0.189 0.418 0.283 0.871 0.283 0.392 0 0.659-0.08 0.802-0.238 0.142-0.161 0.214-0.342 0.214-0.549v-0.088c0-0.029-4e-3 -0.059-0.011-0.092-0.028-0.145-0.1-0.281-0.216-0.408-0.118-0.129-0.243-0.246-0.377-0.358-0.143-0.113-0.277-0.218-0.397-0.318-0.119-0.098-0.189-0.189-0.205-0.273h1.23v-0.538h-2.128c0.01 0.29 0.083 0.534 0.217 0.729" fill="#fff"/>
  </g>
  <g transform="matrix(.35278 0 0 -.35278 29.515 107.22)">
   <path d="m0 0h-0.538v0.339c9e-3 0 0.016 0 0.022-1e-3 6e-3 -3e-3 0.014-3e-3 0.022-3e-3 5e-3 0 0.01 0 0.016-2e-3 7e-3 -1e-3 0.014-1e-3 0.021-1e-3 0.155 0 0.291 0.028 0.409 0.085 0.117 0.057 0.187 0.135 0.21 0.234h0.413v-2.101h-0.575" fill="#fff"/>
  </g>
  <g transform="matrix(.35278 0 0 -.35278 29.964 107.54)">
   <path d="m0 0c0.1 0.147 0.209 0.274 0.328 0.382 0.07 0.064 0.139 0.124 0.207 0.18 0.068 0.053 0.126 0.106 0.172 0.155 0.018 0.021 0.035 0.043 0.049 0.063 0.014 0.022 0.025 0.044 0.032 0.066 0.013 0.028 0.022 0.054 0.026 0.081 6e-3 0.025 8e-3 0.049 8e-3 0.073 0 0.063-0.016 0.122-0.049 0.17-0.034 0.048-0.074 0.072-0.12 0.072-0.111 0-0.181-0.033-0.209-0.101-0.028-0.069-0.042-0.172-0.042-0.311h-0.565c0.013 0.229 0.067 0.416 0.163 0.557 0.095 0.142 0.313 0.213 0.653 0.213 0.294 0 0.494-0.06 0.601-0.179s0.16-0.257 0.16-0.411v-0.066c0-0.022-3e-3 -0.046-8e-3 -0.069-0.02-0.11-0.074-0.212-0.161-0.308-0.088-0.095-0.182-0.184-0.283-0.266-0.108-0.085-0.207-0.165-0.298-0.239-0.09-0.074-0.142-0.142-0.154-0.206h0.924v-0.403h-1.597c8e-3 0.219 0.062 0.401 0.163 0.547" fill="#fff"/>
  </g>
  <g transform="matrix(.35278 0 0 -.35278 30.735 106.97)">
   <path d="m0 0h0.518l0.252-1.473 0.27 1.473h0.522l-0.477-2.146h-0.612" fill="#fff"/>
  </g>
  <g transform="matrix(.35278 0 0 -.35278 32.979 107.19)">
   <path d="m0 0h-0.537v0.338c8e-3 0 0.015 0 0.021-1e-3 7e-3 -1e-3 0.014-2e-3 0.022-2e-3 5e-3 0 0.01 0 0.017-1e-3 6e-3 -1e-3 0.014-1e-3 0.021-1e-3 0.154 0 0.291 0.028 0.408 0.085s0.188 0.135 0.21 0.233h0.414v-2.1h-0.576" fill="#fff"/>
  </g>
  <g transform="matrix(.35278 0 0 -.35278 33.699 107.59)">
   <path d="m0 0c0.029 0.031 0.044 0.112 0.044 0.248v0.935c0 0.079-0.012 0.144-0.035 0.194-0.023 0.051-0.077 0.075-0.161 0.075-0.081 0-0.131-0.024-0.155-0.075-0.024-0.05-0.035-0.115-0.035-0.194v-0.935c0-0.102 0.015-0.175 0.045-0.221 0.028-0.048 0.077-0.073 0.145-0.073 0.071 0 0.122 0.017 0.152 0.046m-0.907 1.271c0 0.03 3e-3 0.06 8e-3 0.093s0.014 0.067 0.027 0.101c0.036 0.087 0.107 0.166 0.213 0.238 0.106 0.071 0.274 0.108 0.507 0.108 0.314 0 0.524-0.058 0.63-0.172 0.105-0.116 0.158-0.251 0.158-0.411v-1.024c0-0.235-0.08-0.394-0.241-0.478-0.161-0.083-0.353-0.125-0.575-0.125-0.268 0.01-0.455 0.067-0.564 0.17-0.108 0.101-0.163 0.23-0.163 0.387" fill="#fff"/>
  </g>
  <g transform="matrix(.35278 0 0 -.35278 34.365 107.59)">
   <path d="m0 0c0.03 0.031 0.045 0.112 0.045 0.248v0.935c0 0.079-0.012 0.144-0.035 0.194-0.023 0.051-0.077 0.075-0.162 0.075-0.081 0-0.132-0.024-0.155-0.075-0.023-0.05-0.035-0.115-0.035-0.194v-0.935c0-0.102 0.015-0.175 0.044-0.221 0.03-0.048 0.078-0.073 0.146-0.073 0.072 0 0.123 0.017 0.152 0.046m-0.906 1.271c0 0.03 3e-3 0.06 7e-3 0.093 6e-3 0.033 0.015 0.067 0.028 0.101 0.036 0.087 0.106 0.166 0.212 0.238 0.106 0.071 0.274 0.108 0.507 0.108 0.315 0 0.524-0.058 0.629-0.172 0.106-0.116 0.159-0.251 0.159-0.411v-1.024c0-0.235-0.081-0.394-0.241-0.478-0.162-0.083-0.353-0.125-0.575-0.125-0.267 0.01-0.456 0.067-0.564 0.17-0.108 0.101-0.162 0.23-0.162 0.387" fill="#fff"/>
  </g>
  <g transform="matrix(.35278 0 0 -.35278 35.032 107.59)">
   <path d="m0 0c0.029 0.031 0.044 0.112 0.044 0.248v0.935c0 0.079-0.012 0.144-0.035 0.194-0.023 0.051-0.077 0.075-0.161 0.075-0.08 0-0.133-0.024-0.156-0.075-0.023-0.05-0.034-0.115-0.034-0.194v-0.935c0-0.102 0.014-0.175 0.044-0.221 0.029-0.048 0.078-0.073 0.146-0.073 0.071 0 0.122 0.017 0.152 0.046m-0.907 1.271c0 0.03 3e-3 0.06 8e-3 0.093s0.014 0.067 0.027 0.101c0.036 0.087 0.107 0.166 0.212 0.238 0.107 0.071 0.275 0.108 0.508 0.108 0.313 0 0.524-0.058 0.63-0.172 0.105-0.116 0.158-0.251 0.158-0.411v-1.024c0-0.235-0.08-0.394-0.242-0.478-0.161-0.083-0.352-0.125-0.574-0.125-0.268 0.01-0.456 0.067-0.565 0.17-0.107 0.101-0.162 0.23-0.162 0.387" fill="#fff"/>
  </g>
  <g transform="matrix(.35278 0 0 -.35278 35.554 107.13)">
   <path d="m0 0h0.45v-0.181c0.037 0.06 0.081 0.109 0.134 0.144s0.108 0.059 0.167 0.069c0.01 2e-3 0.021 4e-3 0.034 5e-3 0.014 2e-3 0.025 2e-3 0.036 2e-3 0.068 0 0.132-0.018 0.19-0.056 0.059-0.036 0.097-0.09 0.12-0.164 0.03 0.066 0.073 0.116 0.131 0.152 0.058 0.035 0.119 0.056 0.183 0.065 0.01 0 0.018 0 0.029 1e-3 8e-3 2e-3 0.018 2e-3 0.026 2e-3h0.026c0.088-7e-3 0.169-0.039 0.242-0.098 0.072-0.06 0.109-0.146 0.109-0.262v-1.309h-0.45v1.131c0 0.051-0.013 0.088-0.036 0.115-0.024 0.029-0.05 0.046-0.077 0.052h-0.016c-0.03 0-0.058-0.015-0.084-0.042-0.026-0.028-0.038-0.069-0.038-0.125v-1.131h-0.451v1.131c0 0.051-0.012 0.088-0.037 0.115-0.023 0.029-0.048 0.046-0.077 0.052h-0.016c-0.03 0-0.058-0.015-0.083-0.042-0.026-0.028-0.039-0.069-0.039-0.125v-1.131h-0.473" fill="#fff"/>
  </g>
  <g transform="matrix(.35278 0 0 -.35278 36.642 107.42)">
   <path d="m0 0-0.132 0.949-0.142-0.949zm-0.41 1.33h0.59l0.48-2.145h-0.525l-0.069 0.425h-0.386l-0.067-0.425h-0.515" fill="#fff"/>
  </g>
  <g fill="#fff">
   <path d="m31.497 107.53h0.26809v-0.0892h-0.26809z"/>
   <path d="m31.9 107.53h0.26846v-0.0892h-0.26846z"/>
   <path d="m32.302 107.53h0.26846v-0.0892h-0.26846z"/>
   <path d="m31.497 107.23h1.0735v-0.0893h-1.0735z"/>
  </g>
  <g transform="matrix(.35278 0 0 -.35278 50.814 104.85)">
   <path d="m0 0c0-0.081 0.025-0.142 0.075-0.183 0.051-0.042 0.106-0.063 0.166-0.063h0.012c0.057 3e-3 0.11 0.026 0.16 0.065 0.047 0.039 0.072 0.1 0.072 0.181v1.455c0 0.08-0.025 0.141-0.072 0.181-0.05 0.041-0.103 0.061-0.16 0.064h-0.012c-0.06 0-0.115-0.019-0.166-0.059-0.05-0.041-0.075-0.103-0.075-0.186zm-0.691 1.425c0 0.286 0.091 0.489 0.274 0.607 0.184 0.12 0.405 0.179 0.666 0.179 0.034 0 0.069-1e-3 0.105-4e-3s0.071-6e-3 0.105-0.01c0.184-0.024 0.35-0.094 0.5-0.209 0.151-0.115 0.226-0.302 0.226-0.563v-1.276c0-0.283-0.075-0.507-0.226-0.673-0.15-0.166-0.396-0.249-0.74-0.249-0.35 0-0.589 0.093-0.717 0.281-0.129 0.187-0.193 0.401-0.193 0.641" fill="#fff"/>
  </g>
  <g transform="matrix(.35278 0 0 -.35278 51.624 104.09)">
   <path d="m0 0v-2.172c0-0.075 0.022-0.134 0.065-0.178 0.043-0.043 0.091-0.065 0.142-0.068h0.03c6e-3 0 0.01 2e-3 0.013 5e-3 0.051 5e-3 0.099 0.031 0.141 0.076 0.044 0.046 0.065 0.111 0.065 0.194v2.143h0.7v-2.022c0-0.343-0.079-0.579-0.237-0.705-0.157-0.126-0.371-0.189-0.639-0.189-0.321 0-0.563 0.063-0.726 0.189s-0.244 0.331-0.244 0.615v2.112" fill="#fff"/>
  </g>
  <g transform="matrix(.35278 0 0 -.35278 52.356 104.29)">
   <path d="m0 0h-0.537v0.566h1.744v-0.566h-0.507v-2.294h-0.7" fill="#fff"/>
  </g>
  <g transform="matrix(.35278 0 0 -.35278 53.307 104.49)">
   <path d="m0 0c0.045 0.075 0.068 0.191 0.068 0.346 0 0.099-0.03 0.17-0.092 0.211-0.061 0.039-0.143 0.059-0.243 0.059h-0.12v-0.729c0.213 0 0.341 0.038 0.387 0.113m-1.079 1.123h0.821c0.404 0 0.676-0.074 0.816-0.219 0.14-0.147 0.211-0.362 0.211-0.648 0-0.372-0.096-0.613-0.284-0.722-0.189-0.108-0.413-0.163-0.671-0.163-0.017 0-0.034 1e-3 -0.051 2e-3 -0.016 1e-3 -0.033 2e-3 -0.047 2e-3 -0.017 0-0.034 0-0.051 2e-3 -0.018 2e-3 -0.035 2e-3 -0.052 2e-3v-1.116h-0.692" fill="#fff"/>
  </g>
  <g transform="matrix(.35278 0 0 -.35278 53.969 104.09)">
   <path d="m0 0v-2.172c0-0.075 0.022-0.134 0.064-0.178 0.043-0.043 0.091-0.065 0.143-0.068h0.029c7e-3 0 0.01 2e-3 0.014 5e-3 0.05 5e-3 0.098 0.031 0.141 0.076 0.043 0.046 0.064 0.111 0.064 0.194v2.143h0.701v-2.022c0-0.343-0.079-0.579-0.237-0.705-0.157-0.126-0.371-0.189-0.639-0.189-0.322 0-0.564 0.063-0.726 0.189-0.163 0.126-0.245 0.331-0.245 0.615v2.112" fill="#fff"/>
  </g>
  <g transform="matrix(.35278 0 0 -.35278 54.701 104.29)">
   <path d="m0 0h-0.537v0.566h1.743v-0.566h-0.506v-2.294h-0.7" fill="#fff"/>
  </g>
  <g transform="matrix(.35278 0 0 -.35278 55.46 104.75)">
   <path d="m0 0v-0.034c-2e-3 -6e-3 -3e-3 -0.012-3e-3 -0.019v-0.02c-4e-3 -0.01-6e-3 -0.023-7e-3 -0.035-2e-3 -0.01-3e-3 -0.021-3e-3 -0.03 0-0.128 0.026-0.226 0.077-0.291 0.053-0.066 0.11-0.1 0.173-0.103h0.032c7e-3 0 0.014 2e-3 0.02 4e-3 0.051 0.011 0.097 0.041 0.138 0.088 0.042 0.047 0.063 0.11 0.063 0.192s-0.028 0.154-0.084 0.214c-0.055 0.06-0.125 0.116-0.208 0.172-0.041 0.029-0.081 0.055-0.124 0.082-0.044 0.024-0.087 0.054-0.129 0.086-0.138 0.089-0.263 0.198-0.378 0.33s-0.172 0.31-0.172 0.533c0 3e-3 1e-3 6e-3 3e-3 8e-3 1e-3 3e-3 2e-3 7e-3 2e-3 0.013 0 3e-3 0 5e-3 1e-3 8e-3 2e-3 3e-3 3e-3 6e-3 3e-3 9e-3 0 0.014 0 0.029 2e-3 0.043 1e-3 0.015 2e-3 0.028 2e-3 0.044 0.026 0.169 0.113 0.322 0.261 0.46 0.15 0.14 0.34 0.209 0.572 0.209s0.436-0.07 0.612-0.21c0.176-0.141 0.264-0.362 0.264-0.666v-0.061h-0.627v0.083c0 0.1-0.02 0.177-0.059 0.231-0.041 0.055-0.086 0.089-0.134 0.102-0.011 3e-3 -0.022 6e-3 -0.03 8e-3s-0.017 2e-3 -0.026 2e-3h-0.012c-0.049-4e-3 -0.094-0.024-0.136-0.064s-0.063-0.09-0.063-0.151c0-0.089 0.031-0.162 0.093-0.22 0.062-0.06 0.137-0.116 0.226-0.166 0.034-0.024 0.07-0.045 0.109-0.067 0.038-0.021 0.079-0.044 0.117-0.066 0.133-0.077 0.254-0.177 0.364-0.299s0.169-0.295 0.178-0.518v-0.074c0-0.337-0.091-0.567-0.273-0.692-0.181-0.124-0.393-0.187-0.634-0.187l-0.089-4e-3c-0.243 0.015-0.43 0.096-0.56 0.243-0.131 0.151-0.196 0.361-0.196 0.633 0 0.014 1e-3 0.029 3e-3 0.042 1e-3 0.015 2e-3 0.029 2e-3 0.044v0.034c2e-3 8e-3 4e-3 0.019 4e-3 0.031v0.029" fill="#fff"/>
  </g>
  <g transform="matrix(.35278 0 0 -.35278 38.496 104.09)">
   <path d="m0 0v-2.173c0-0.075 0.022-0.133 0.064-0.178 0.043-0.041 0.09-0.064 0.143-0.068h0.029c6e-3 0 9e-3 2e-3 0.013 5e-3 0.052 6e-3 0.099 0.032 0.142 0.078 0.043 0.045 0.064 0.108 0.064 0.193v2.143h0.701v-2.022c0-0.344-0.079-0.58-0.237-0.705-0.157-0.126-0.371-0.188-0.641-0.188-0.32 0-0.562 0.062-0.725 0.188-0.163 0.125-0.244 0.331-0.244 0.614v2.113" fill="#fff"/>
  </g>
  <g transform="matrix(.35278 0 0 -.35278 39.257 104.75)">
   <path d="m0 0v-0.034c-3e-3 -6e-3 -4e-3 -0.012-4e-3 -0.02v-0.019c-3e-3 -0.011-5e-3 -0.022-8e-3 -0.034-1e-3 -0.01-2e-3 -0.022-2e-3 -0.031 0-0.129 0.027-0.226 0.079-0.292 0.051-0.065 0.108-0.099 0.171-0.101h0.032c7e-3 0 0.014 1e-3 0.02 4e-3 0.051 0.011 0.098 0.04 0.14 0.088 0.04 0.045 0.062 0.11 0.062 0.19 0 0.084-0.028 0.155-0.085 0.215-0.055 0.06-0.125 0.117-0.208 0.172-0.039 0.028-0.081 0.055-0.124 0.081s-0.087 0.055-0.13 0.088c-0.137 0.088-0.262 0.197-0.376 0.329-0.115 0.131-0.173 0.309-0.173 0.532 0 4e-3 1e-3 7e-3 2e-3 9e-3 1e-3 3e-3 2e-3 7e-3 2e-3 0.012 0 3e-3 1e-3 7e-3 3e-3 9e-3 1e-3 4e-3 2e-3 7e-3 2e-3 0.01 0 0.013 0 0.027 2e-3 0.041 1e-3 0.017 2e-3 0.03 2e-3 0.045 0.027 0.168 0.114 0.322 0.262 0.461 0.149 0.139 0.34 0.208 0.571 0.208 0.232 0 0.436-0.07 0.613-0.21 0.175-0.141 0.263-0.362 0.263-0.665v-0.061h-0.626v0.081c0 0.101-0.02 0.178-0.06 0.232-0.041 0.055-0.086 0.089-0.134 0.103-0.012 3e-3 -0.021 4e-3 -0.03 6e-3s-0.017 4e-3 -0.026 4e-3h-0.013c-0.048-4e-3 -0.093-0.026-0.135-0.065-0.042-0.04-0.062-0.09-0.062-0.151 0-0.089 0.031-0.162 0.092-0.221 0.062-0.059 0.137-0.114 0.226-0.164 0.033-0.025 0.071-0.047 0.11-0.068 0.038-0.021 0.077-0.043 0.118-0.065 0.132-0.079 0.252-0.179 0.362-0.3 0.111-0.122 0.17-0.295 0.178-0.517v-0.074c0-0.337-0.09-0.568-0.272-0.692-0.182-0.126-0.393-0.187-0.634-0.187l-0.09-5e-3c-0.244 0.013-0.43 0.095-0.56 0.244-0.131 0.149-0.196 0.36-0.196 0.632 0 0.015 1e-3 0.03 2e-3 0.042 2e-3 0.015 2e-3 0.03 2e-3 0.044v0.034c4e-3 9e-3 6e-3 0.019 6e-3 0.031v0.029" fill="#fff"/>
  </g>
  <g transform="matrix(.35278 0 0 -.35278 40.164 104.9)">
   <path d="m0 0c0.087 0.038 0.131 0.139 0.131 0.305 0 0.155-0.047 0.251-0.141 0.291-0.094 0.038-0.219 0.063-0.374 0.079v-0.732c0.168 0 0.297 0.021 0.384 0.057m-0.03 1.25c0.068 0.046 0.101 0.146 0.101 0.3 0 0.075-0.021 0.133-0.062 0.178-0.042 0.043-0.099 0.063-0.174 0.063h-0.219v-0.609c0.168 0 0.287 0.021 0.354 0.068m-1.015 1.048h0.941c0.222 0 0.425-0.052 0.604-0.152 0.18-0.102 0.271-0.281 0.271-0.536 0-0.163-0.027-0.29-0.08-0.381-0.052-0.092-0.11-0.159-0.173-0.198-0.026-0.014-0.052-0.027-0.078-0.037-0.025-0.01-0.048-0.015-0.068-0.019 0.152-0.075 0.261-0.161 0.328-0.255 0.068-0.097 0.101-0.244 0.101-0.445 0-0.269-0.068-0.476-0.202-0.62-0.134-0.145-0.36-0.218-0.674-0.218h-0.97" fill="#fff"/>
  </g>
  <g transform="matrix(.35278 0 0 -.35278 31.956 104.91)">
   <path d="m0 0c0.078 0.033 0.118 0.116 0.118 0.253v1.304c0 0.112-0.034 0.184-0.103 0.217s-0.143 0.051-0.224 0.053h-0.098v-1.876c0.125 0 0.227 0.016 0.307 0.049m-0.999 2.304h0.79c0.375 0 0.641-0.042 0.795-0.126 0.154-0.085 0.232-0.262 0.232-0.531v-1.514c0-0.211-0.068-0.378-0.202-0.502-0.135-0.124-0.359-0.188-0.675-0.188h-0.94" fill="#fff"/>
  </g>
  <g transform="matrix(.35278 0 0 -.35278 33.055 104.7)">
   <path d="m0 0v-0.457c0-0.22-0.067-0.384-0.204-0.496-0.136-0.111-0.286-0.184-0.449-0.218-0.049-0.013-0.097-0.019-0.146-0.023-0.049-5e-3 -0.095-7e-3 -0.138-7e-3 -0.32 0-0.557 0.071-0.71 0.214-0.153 0.144-0.23 0.379-0.23 0.709v1.274c0 0.227 0.069 0.42 0.209 0.578 0.138 0.159 0.383 0.239 0.731 0.239 0.284 0 0.511-0.07 0.681-0.209 0.171-0.138 0.256-0.351 0.256-0.637v-0.249h-0.73v0.37c0 0.058-0.021 0.101-0.062 0.134-0.042 0.034-0.088 0.053-0.139 0.059h-0.045c-0.054-6e-3 -0.102-0.027-0.145-0.062s-0.065-0.09-0.065-0.161v-1.515c0-0.067 0.022-0.121 0.065-0.163 0.043-0.041 0.091-0.064 0.145-0.07h0.039c7e-3 0 0.01 1e-3 0.014 4e-3 0.057 6e-3 0.109 0.032 0.154 0.081s0.069 0.118 0.069 0.208v0.397" fill="#fff"/>
  </g>
  <path d="m33.547 105.1h0.24374v-1.0086h-0.24374z" fill="#fff"/>
  <g transform="matrix(.35278 0 0 -.35278 33.955 104.09)">
   <path d="m0 0h0.691l0.546-1.654-0.091 1.654h0.671v-2.86h-0.7l-0.546 1.593 0.091-1.593h-0.662" fill="#fff"/>
  </g>
  <g transform="matrix(.35278 0 0 -.35278 9.6914 111.56)">
   <path d="m0 0c-0.777 0-1.405-0.627-1.405-1.404l-1e-3 -1.117c1e-3 -0.139 0.111-0.254 0.249-0.26h0.283v1.377c0 0.484 0.39 0.875 0.874 0.875 0.369 0 0.685-0.229 0.812-0.553h0.554c-0.145 0.621-0.7 1.082-1.366 1.082" fill="#fff"/>
  </g>
  <g transform="matrix(.35278 0 0 -.35278 7.1933 111.94)">
   <path d="m0 0c0.128 0.326 0.443 0.557 0.813 0.557 0.371 0 0.687-0.231 0.814-0.557zm0.813 1.086c-0.775 0-1.405-0.627-1.405-1.404 0-0.776 0.63-1.407 1.405-1.407 0.635 0 1.169 0.42 1.344 0.995h-0.572c-0.147-0.274-0.438-0.463-0.772-0.463-0.415 0-0.763 0.293-0.851 0.681h2.242c8e-3 0.065 0.015 0.127 0.015 0.194 0 0.777-0.629 1.404-1.406 1.404" fill="#fff"/>
  </g>
  <g transform="matrix(.35278 0 0 -.35278 12.975 111.94)">
   <path d="m0 0c0.127 0.326 0.442 0.557 0.813 0.557 0.372 0 0.687-0.231 0.814-0.557zm0.813 1.086c-0.775 0-1.404-0.627-1.404-1.404 0-0.776 0.629-1.407 1.404-1.407 0.633 0 1.168 0.42 1.344 0.995h-0.572c-0.147-0.274-0.437-0.463-0.772-0.463-0.416 0-0.764 0.293-0.852 0.681h2.244c8e-3 0.065 0.015 0.127 0.015 0.194 0 0.777-0.63 1.404-1.407 1.404" fill="#fff"/>
  </g>
  <g transform="matrix(.35278 0 0 -.35278 12.167 112.36)">
   <path d="m0 0c-0.484 0-0.875 0.393-0.875 0.875 0 0.484 0.391 0.875 0.875 0.875 0.481 0 0.873-0.391 0.873-0.875 0-0.482-0.392-0.875-0.873-0.875m0 2.279c-0.776 0-1.405-0.627-1.405-1.404 0-0.775 0.629-1.406 1.405-1.406 0.33 0 0.635 0.115 0.875 0.308v-0.173c0-0.485-0.391-0.875-0.873-0.875-0.371 0-0.686 0.228-0.813 0.552h-0.555c0.146-0.621 0.701-1.084 1.368-1.084 0.776 0 1.405 0.631 1.401 1.407v1.251c0 6e-3 2e-3 0.014 2e-3 0.02 0 0.777-0.629 1.404-1.405 1.404" fill="#fff"/>
  </g>
  <g transform="matrix(.35278 0 0 -.35278 10.356 111.25)">
   <path d="m0 0c-0.147 0-0.266-0.119-0.266-0.266 0-0.144 0.119-0.265 0.266-0.265 0.146 0 0.266 0.121 0.266 0.265 0 0.147-0.12 0.266-0.266 0.266" fill="#fff"/>
  </g>
  <g transform="matrix(.35278 0 0 -.35278 11.076 111.56)">
   <path d="m0 0c-0.777 0-1.406-0.627-1.406-1.404v-1.114c0-0.144 0.119-0.263 0.265-0.263h0.264l2e-3 1.377c0 0.484 0.391 0.875 0.875 0.875 0.482 0 0.873-0.391 0.873-0.875v-1.114c0-0.144 0.12-0.263 0.268-0.263h0.264l-2e-3 1.377c0 0.777-0.628 1.404-1.403 1.404" fill="#fff"/>
  </g>
  <g transform="matrix(.35278 0 0 -.35278 14.356 111.56)">
   <path d="m0 0c-0.775 0-1.405-0.627-1.405-1.404v-1.123c7e-3 -0.141 0.121-0.254 0.264-0.254h0.267v1.377c0 0.484 0.391 0.875 0.874 0.875 0.371 0 0.686-0.229 0.813-0.553h0.555c-0.145 0.621-0.701 1.082-1.368 1.082" fill="#fff"/>
  </g>
  <g transform="matrix(.35278 0 0 -.35278 6.3883 112.36)">
   <path d="m0 0c-0.482 0-0.874 0.393-0.874 0.875 0 0.484 0.392 0.875 0.874 0.875 0.483 0 0.874-0.391 0.874-0.875 0-0.482-0.391-0.875-0.874-0.875m0 2.279c-0.337 0-0.649-0.117-0.893-0.32v1.08c0 0.149-0.119 0.266-0.267 0.266v2e-3h-0.244v-2.411c0-7e-3 -2e-3 -0.013-2e-3 -0.021 0-0.775 0.63-1.406 1.406-1.406 0.775 0 1.406 0.631 1.406 1.406 0 0.777-0.631 1.404-1.406 1.404" fill="#fff"/>
  </g>
  <g transform="matrix(.35278 0 0 -.35278 10.263 112.45)">
   <path d="m0 0c1e-3 -0.145 0.119-0.264 0.266-0.264v-2e-3h0.265v2.766h-0.531" fill="#fff"/>
  </g>
  <g transform="matrix(.35278 0 0 -.35278 8.5752 111.56)">
   <path d="m0 0c-0.331 0-0.634-0.113-0.873-0.303v1.065c-1e-3 0.148-0.119 0.265-0.266 0.265h-0.267v-3.548c0-0.145 0.118-0.264 0.267-0.264h0.267l-1e-3 1.424c0.024 0.465 0.404 0.832 0.873 0.832 0.482 0 0.873-0.391 0.873-0.875v-1.116c0-0.14 0.111-0.255 0.251-0.261h0.279l1e-3 1.377c0 0.777-0.628 1.404-1.404 1.404" fill="#fff"/>
  </g>
  <g transform="matrix(.35278 0 0 -.35278 7.2205 110.44)">
   <path d="m0 0-0.054 0.074-0.104 0.164-0.074 0.183-0.027 0.086-0.027 0.187v0.195l0.012 0.089 0.044 0.188 0.035 0.088 0.088 0.175 8.071 11.011 0.057 0.073 0.069 0.076 0.065 0.059 0.154 0.117 0.17 0.086 0.187 0.057 0.185 0.028h0.187l0.193-0.028 0.086-0.028 0.177-0.072 0.164-0.102 0.141-0.117 0.062-0.071 8.024-11.01 0.106-0.166 0.071-0.176 0.028-0.093 0.028-0.186v-0.193l-0.028-0.187-0.026-0.084-0.073-0.183-0.104-0.172-0.117-0.136-0.069-0.063-0.162-0.117-0.076-0.043-0.091-0.039-0.184-0.061-0.087-0.019-0.201-0.014h-15.968l-0.203 0.014-0.085 0.019-0.183 0.059-0.171 0.086-0.161 0.115-0.067 0.063zm0.325-0.637 0.226-0.074 0.117-0.025 0.243-0.022h16.002l0.224 0.016 0.131 0.029 0.217 0.068 0.123 0.055 0.1 0.055 0.196 0.142 0.094 0.082 0.094 0.102 0.063 0.082 0.124 0.201 0.099 0.242 0.033 0.103 0.038 0.236 3e-3 0.244-0.035 0.235-0.042 0.142-0.083 0.205-0.132 0.215-8.035 11.027-0.085 0.095-0.101 0.09-0.08 0.065-0.207 0.129-0.214 0.088-0.119 0.039-0.246 0.04-0.235 1e-3 -0.235-0.035-0.235-0.07-0.22-0.109-0.207-0.156-0.083-0.071-0.091-0.1-0.067-0.087-8.02-10.939-0.066-0.089-0.112-0.218-0.045-0.121-0.059-0.237-0.017-0.113-1e-3 -0.244 0.034-0.236 0.038-0.129 0.086-0.215 0.134-0.214 0.064-0.09 0.084-0.094 0.093-0.086 0.192-0.14" fill="#fff"/>
  </g>
  <g transform="matrix(.35278 0 0 -.35278 8.9558 109.88)">
   <path d="m0 0c0.276-0.222 0.6-0.298 0.91-0.316 0.418-0.023 0.857 0.064 1.087 0.13 0.324 0.091 0.795 0.27 1.474 0.718 0.593 0.39 1.236 0.96 1.728 1.531 0.675 0.786 1.336 1.955 1.402 2.914 0.168 2.419-1.971 2.092-2.779 1.824-0.657-0.22-1.347-0.674-1.451-0.744-2e-3 -1e-3 -3e-3 -1e-3 -4e-3 -3e-3 -4e-3 -1e-3 -5e-3 -4e-3 -8e-3 -4e-3 -3e-3 -4e-3 -3e-3 -4e-3 -3e-3 -4e-3 -0.032-0.025-0.046-0.06-0.032-0.082 0.015-0.026 0.054-0.027 0.092-8e-3v-2e-3s0.55 0.378 1.202 0.569c0.46 0.132 0.972 0.166 1.375-0.064 1.071-0.618 0.523-2.468-0.329-3.695-0.49-0.704-1.2-1.466-1.997-1.982-0.613-0.397-1.206-0.67-1.9-0.671-1.43-5e-3 -1.275 1.588-1.275 1.588h-1e-3c0 2e-3 1e-3 2e-3 1e-3 5e-3 3e-3 0.047-0.011 0.086-0.033 0.089-0.023 2e-3 -0.046-0.033-0.05-0.08v-8e-3c-0.017-0.23-0.16-1.102 0.591-1.705" fill="#fff"/>
  </g>
  <g transform="matrix(.35278 0 0 -.35278 8.972 109.05)">
   <path d="M 0,0 C 0.142,0.022 0.336,0.07 0.557,0.158 0.865,0.283 1.482,0.601 2.062,1.153 2.52,1.592 2.812,2.088 2.802,2.481 2.788,3.037 2.176,3.04 1.934,3.019 1.875,3.015 1.823,2.986 1.795,2.946 1.517,2.541 -0.056,0.25 -0.122,0.158 -0.199,0.05 -0.156,-0.026 0,0" fill="#fff"/>
  </g>
  <g transform="matrix(.35278 0 0 -.35278 40.887 107.04)">
   <path d="m0 0-1.138 0.571v-0.408h-4.895c0.382 0.375 1.02 1.002 1.082 1.063h0.775c0.071-0.236 0.287-0.409 0.547-0.409 0.314 0 0.569 0.256 0.569 0.572 0 0.314-0.255 0.571-0.569 0.571-0.26 0-0.476-0.171-0.547-0.407h-0.841c-0.044 0-0.085-0.017-0.114-0.047 0 0-1.278-1.255-1.367-1.343h-0.592c-0.076 0.378-0.408 0.661-0.807 0.661-0.453 0-0.822-0.369-0.822-0.824 0-0.453 0.369-0.823 0.822-0.823 0.399 0 0.731 0.283 0.807 0.659h1.794c0.087-0.087 1.365-1.342 1.365-1.342 0.031-0.03 0.07-0.047 0.114-0.047h0.854v-0.407h1.141v1.143h-1.141v-0.409h-0.787c-0.063 0.062-0.7 0.688-1.082 1.062h3.694v-0.406" fill="#fff"/>
  </g>
  <g transform="matrix(.35278 0 0 -.35278 34.261 113.39)">
   <path d="m0 0c0 0.539 0.438 0.977 0.977 0.977 0.538 0 0.976-0.438 0.976-0.977s-0.438-0.977-0.976-0.977c-0.539 0-0.977 0.438-0.977 0.977m-2.045-0.174h1.832c0.085-0.582 0.583-1.033 1.19-1.033 0.665 0 1.207 0.541 1.207 1.207s-0.542 1.209-1.207 1.209c-0.607 0-1.105-0.451-1.19-1.035h-1.832c-0.081 0.433-0.462 0.764-0.919 0.764-0.516 0-0.937-0.42-0.937-0.938 0-0.516 0.421-0.938 0.937-0.938 0.457 0 0.838 0.331 0.919 0.764m-4.827 0.291h-1.376v-0.23198h1.376zm-1.665-0.117c0 0.539 0.439 0.977 0.976 0.977 0.54 0 0.977-0.438 0.977-0.977s-0.437-0.977-0.977-0.977c-0.537 0-0.976 0.438-0.976 0.977m-0.23 0c0-0.666 0.542-1.207 1.206-1.207 0.607 0 1.106 0.451 1.191 1.033h1.725c0.088-0.853 0.804-1.523 1.681-1.523 0.502 0 0.976 0.218 1.299 0.605l-0.265 0.223c-0.257-0.305-0.634-0.483-1.034-0.483-0.746 0-1.352 0.606-1.352 1.352s0.606 1.352 1.352 1.352c0.4 0 0.777-0.176 1.034-0.485l0.265 0.225c-0.323 0.385-0.796 0.605-1.299 0.605-0.877 0-1.593-0.67-1.681-1.523h-1.725c-0.085 0.584-0.584 1.035-1.191 1.035-0.664 0-1.206-0.543-1.206-1.209m9.628 0.117h-0.572v-0.232h0.572v-0.573h0.232v0.573h0.571v0.232h-0.571v0.571h-0.232" fill="#fff"/>
  </g>
  <g transform="matrix(.35278 0 0 -.35278 56.442 104.62)">
   <path d="m0 0h18.912" fill="none" stroke="#fff" stroke-linecap="round" stroke-width=".537"/>
   <g transform="translate(-37.223)">
    <path d="m0 0h18.909" fill="none" stroke="#fff" stroke-linecap="round" stroke-width=".537"/>
   </g>
  </g>
  <g transform="matrix(.35278 0 0 -.35278 18.951 108.8)">
   <path d="m0 0c-0.118-0.096-0.293-0.077-0.392 0.041l-0.899 1.105 0.893 1.109c0.097 0.119 0.273 0.138 0.391 0.041 0.121-0.099 0.137-0.275 0.04-0.396l-0.636-0.737 0.643-0.767c0.097-0.121 0.081-0.296-0.04-0.396m-1.533 0.212c0-0.152-0.124-0.279-0.28-0.279-0.153 0-0.277 0.127-0.277 0.279v1.86c0 0.154 0.124 0.28 0.277 0.28 0.156 0 0.28-0.126 0.28-0.28zm-0.298 3.127c0 0.392 0.319 0.712 0.711 0.712s0.711-0.32 0.711-0.712v-0.582h-1.422zm1.978 0c0 0.699-0.568 1.266-1.267 1.266-0.698 0-1.267-0.567-1.267-1.266v-0.582h-0.503v-3.223h3.539v3.223h-0.502" fill="#fff"/>
  </g>
  <g transform="matrix(.35278 0 0 -.35278 73.415 112.97)">
   <path d="m0 0h-14.434c-1.494 0-2.741 0.309-3.738 0.926-0.999 0.615-1.725 1.351-2.176 2.209-0.452 0.853-0.677 1.66-0.677 2.416v7.919c0 0.851 0.291 1.681 0.872 2.487 0.582 0.81 1.278 1.466 2.086 1.969 0.806 0.503 1.484 0.755 2.03 0.755h15.934v-4.377h-12.468c-0.469 0-0.936-0.144-1.4-0.43-0.465-0.286-0.845-0.643-1.14-1.067-0.296-0.427-0.443-0.826-0.443-1.201v-4.378c0-0.414 0.112-0.822 0.339-1.222 0.225-0.399 0.551-0.733 0.976-0.998 0.425-0.262 0.895-0.397 1.408-0.397h12.831" fill="#fff"/>
   <path d="m0 0h-14.434c-1.494 0-2.741 0.309-3.738 0.926-0.999 0.615-1.725 1.351-2.176 2.209-0.452 0.853-0.677 1.66-0.677 2.416v7.919c0 0.851 0.291 1.681 0.872 2.487 0.582 0.81 1.278 1.466 2.086 1.969 0.806 0.503 1.484 0.755 2.03 0.755h15.934v-4.377h-12.468c-0.469 0-0.936-0.144-1.4-0.43-0.465-0.286-0.845-0.643-1.14-1.067-0.296-0.427-0.443-0.826-0.443-1.201v-4.378c0-0.414 0.112-0.822 0.339-1.222 0.225-0.399 0.551-0.733 0.976-0.998 0.425-0.262 0.895-0.397 1.408-0.397h12.831z" fill="none" stroke="#fff" stroke-miterlimit="10"/>
   <path d="m0 0h-14.434c-1.494 0-2.741 0.309-3.738 0.926-0.999 0.615-1.725 1.351-2.176 2.209-0.452 0.853-0.677 1.66-0.677 2.416v7.919c0 0.851 0.291 1.681 0.872 2.487 0.582 0.81 1.278 1.466 2.086 1.969 0.806 0.503 1.484 0.755 2.03 0.755h15.934v-4.377h-12.468c-0.469 0-0.936-0.144-1.4-0.43-0.465-0.286-0.845-0.643-1.14-1.067-0.296-0.427-0.443-0.826-0.443-1.201v-4.378c0-0.414 0.112-0.822 0.339-1.222 0.225-0.399 0.551-0.733 0.976-0.998 0.425-0.262 0.895-0.397 1.408-0.397h12.831" fill="#fff"/>
   <path d="m0 0h-14.434c-1.494 0-2.741 0.309-3.738 0.926-0.999 0.615-1.725 1.351-2.176 2.209-0.452 0.853-0.677 1.66-0.677 2.416v7.919c0 0.851 0.291 1.681 0.872 2.487 0.582 0.81 1.278 1.466 2.086 1.969 0.806 0.503 1.484 0.755 2.03 0.755h15.934v-4.377h-12.468c-0.469 0-0.936-0.144-1.4-0.43-0.465-0.286-0.845-0.643-1.14-1.067-0.296-0.427-0.443-0.826-0.443-1.201v-4.378c0-0.414 0.112-0.822 0.339-1.222 0.225-0.399 0.551-0.733 0.976-0.998 0.425-0.262 0.895-0.397 1.408-0.397h12.831z" fill="none" stroke="#fff" stroke-width=".179"/>
  </g>
  <g transform="matrix(.35278 0 0 -.35278 86.489 112.97)">
   <path d="m0 0h-5.392v11.581c0 0.191-0.08 0.358-0.243 0.502-0.159 0.143-0.309 0.214-0.448 0.214-0.383 0-0.651-0.168-0.808-0.507l-6.474-11.79h-5.106l-6.671 11.842c-0.035 0.147-0.109 0.277-0.221 0.391-0.113 0.112-0.233 0.198-0.359 0.253-0.125 0.058-0.223 0.085-0.293 0.085-0.165 0-0.312-0.087-0.443-0.26-0.13-0.173-0.196-0.356-0.196-0.547v-11.764h-5.288v14.383c0 0.694 0.169 1.335 0.508 1.921 0.337 0.587 0.764 1.079 1.277 1.478 0.512 0.4 1.055 0.71 1.628 0.931 0.573 0.222 1.072 0.333 1.498 0.333 1.216 0 2.234-0.31 3.055-0.932 0.821-0.62 1.678-1.687 2.572-3.198l5.341-9.627 5.498 9.654c0.712 1.336 1.49 2.355 2.332 3.055 0.843 0.699 1.884 1.048 3.128 1.048 0.729 0 1.413-0.143 2.05-0.43 0.639-0.287 1.188-0.674 1.648-1.159 0.461-0.486 0.81-1.021 1.05-1.603 0.238-0.582 0.357-1.145 0.357-1.694" fill="#fff"/>
   <path d="m0 0h-5.392v11.581c0 0.191-0.08 0.358-0.243 0.502-0.159 0.143-0.309 0.214-0.448 0.214-0.383 0-0.651-0.168-0.808-0.507l-6.474-11.79h-5.106l-6.671 11.842c-0.035 0.147-0.109 0.277-0.221 0.391-0.113 0.112-0.233 0.198-0.359 0.253-0.125 0.058-0.223 0.085-0.293 0.085-0.165 0-0.312-0.087-0.443-0.26-0.13-0.173-0.196-0.356-0.196-0.547v-11.764h-5.288v14.383c0 0.694 0.169 1.335 0.508 1.921 0.337 0.587 0.764 1.079 1.277 1.478 0.512 0.4 1.055 0.71 1.628 0.931 0.573 0.222 1.072 0.333 1.498 0.333 1.216 0 2.234-0.31 3.055-0.932 0.821-0.62 1.678-1.687 2.572-3.198l5.341-9.627 5.498 9.654c0.712 1.336 1.49 2.355 2.332 3.055 0.843 0.699 1.884 1.048 3.128 1.048 0.729 0 1.413-0.143 2.05-0.43 0.639-0.287 1.188-0.674 1.648-1.159 0.461-0.486 0.81-1.021 1.05-1.603 0.238-0.582 0.357-1.145 0.357-1.694z" fill="none" stroke="#fff" stroke-miterlimit="10"/>
   <path d="m0 0h-5.392v11.581c0 0.191-0.08 0.358-0.243 0.502-0.159 0.143-0.309 0.214-0.448 0.214-0.383 0-0.651-0.168-0.808-0.507l-6.474-11.79h-5.106l-6.671 11.842c-0.035 0.147-0.109 0.277-0.221 0.391-0.113 0.112-0.233 0.198-0.359 0.253-0.125 0.058-0.223 0.085-0.293 0.085-0.165 0-0.312-0.087-0.443-0.26-0.13-0.173-0.196-0.356-0.196-0.547v-11.764h-5.288v14.383c0 0.694 0.169 1.335 0.508 1.921 0.337 0.587 0.764 1.079 1.277 1.478 0.512 0.4 1.055 0.71 1.628 0.931 0.573 0.222 1.072 0.333 1.498 0.333 1.216 0 2.234-0.31 3.055-0.932 0.821-0.62 1.678-1.687 2.572-3.198l5.341-9.627 5.498 9.654c0.712 1.336 1.49 2.355 2.332 3.055 0.843 0.699 1.884 1.048 3.128 1.048 0.729 0 1.413-0.143 2.05-0.43 0.639-0.287 1.188-0.674 1.648-1.159 0.461-0.486 0.81-1.021 1.05-1.603 0.238-0.582 0.357-1.145 0.357-1.694" fill="#fff"/>
   <path d="m0 0h-5.392v11.581c0 0.191-0.08 0.358-0.243 0.502-0.159 0.143-0.309 0.214-0.448 0.214-0.383 0-0.651-0.168-0.808-0.507l-6.474-11.79h-5.106l-6.671 11.842c-0.035 0.147-0.109 0.277-0.221 0.391-0.113 0.112-0.233 0.198-0.359 0.253-0.125 0.058-0.223 0.085-0.293 0.085-0.165 0-0.312-0.087-0.443-0.26-0.13-0.173-0.196-0.356-0.196-0.547v-11.764h-5.288v14.383c0 0.694 0.169 1.335 0.508 1.921 0.337 0.587 0.764 1.079 1.277 1.478 0.512 0.4 1.055 0.71 1.628 0.931 0.573 0.222 1.072 0.333 1.498 0.333 1.216 0 2.234-0.31 3.055-0.932 0.821-0.62 1.678-1.687 2.572-3.198l5.341-9.627 5.498 9.654c0.712 1.336 1.49 2.355 2.332 3.055 0.843 0.699 1.884 1.048 3.128 1.048 0.729 0 1.413-0.143 2.05-0.43 0.639-0.287 1.188-0.674 1.648-1.159 0.461-0.486 0.81-1.021 1.05-1.603 0.238-0.582 0.357-1.145 0.357-1.694z" fill="none" stroke="#fff" stroke-width=".179"/>
  </g>
  <g transform="matrix(.35278 0 0 -.35278 96.805 111.21)">
   <path d="m0 0c0-0.869-0.312-1.686-0.933-2.449-0.623-0.764-1.365-1.379-2.228-1.842-0.861-0.465-1.596-0.699-2.205-0.699h-18.357v11.504h5.395v-6.916h9.838c1.05 0 1.834 0.291 2.349 0.877 0.517 0.588 0.775 1.328 0.775 2.22v3.791c-0.018 0.557-0.15 1.044-0.398 1.467-0.248 0.421-0.617 0.753-1.107 0.996-0.491 0.243-1.092 0.364-1.804 0.364h-15.164v4.377h18.157c1.067 0 2.039-0.304 2.912-0.912 0.874-0.606 1.554-1.34 2.04-2.195 0.487-0.854 0.73-1.617 0.73-2.286" fill="#fff"/>
   <path d="m0 0c0-0.869-0.312-1.686-0.933-2.449-0.623-0.764-1.365-1.379-2.228-1.842-0.861-0.465-1.596-0.699-2.205-0.699h-18.357v11.504h5.395v-6.916h9.838c1.05 0 1.834 0.291 2.349 0.877 0.517 0.588 0.775 1.328 0.775 2.22v3.791c-0.018 0.557-0.15 1.044-0.398 1.467-0.248 0.421-0.617 0.753-1.107 0.996-0.491 0.243-1.092 0.364-1.804 0.364h-15.164v4.377h18.157c1.067 0 2.039-0.304 2.912-0.912 0.874-0.606 1.554-1.34 2.04-2.195 0.487-0.854 0.73-1.617 0.73-2.286z" fill="none" stroke="#fff" stroke-miterlimit="10"/>
   <path d="m0 0c0-0.869-0.312-1.686-0.933-2.449-0.623-0.764-1.365-1.379-2.228-1.842-0.861-0.465-1.596-0.699-2.205-0.699h-18.357v11.504h5.395v-6.916h9.838c1.05 0 1.834 0.291 2.349 0.877 0.517 0.588 0.775 1.328 0.775 2.22v3.791c-0.018 0.557-0.15 1.044-0.398 1.467-0.248 0.421-0.617 0.753-1.107 0.996-0.491 0.243-1.092 0.364-1.804 0.364h-15.164v4.377h18.157c1.067 0 2.039-0.304 2.912-0.912 0.874-0.606 1.554-1.34 2.04-2.195 0.487-0.854 0.73-1.617 0.73-2.286" fill="#fff"/>
   <path d="m0 0c0-0.869-0.312-1.686-0.933-2.449-0.623-0.764-1.365-1.379-2.228-1.842-0.861-0.465-1.596-0.699-2.205-0.699h-18.357v11.504h5.395v-6.916h9.838c1.05 0 1.834 0.291 2.349 0.877 0.517 0.588 0.775 1.328 0.775 2.22v3.791c-0.018 0.557-0.15 1.044-0.398 1.467-0.248 0.421-0.617 0.753-1.107 0.996-0.491 0.243-1.092 0.364-1.804 0.364h-15.164v4.377h18.157c1.067 0 2.039-0.304 2.912-0.912 0.874-0.606 1.554-1.34 2.04-2.195 0.487-0.854 0.73-1.617 0.73-2.286z" fill="none" stroke="#fff" stroke-width=".179"/>
  </g>
  <g transform="matrix(.35278 0 0 -.35278 111.58 111.95)">
   <path d="m0 0c0-0.783-0.227-1.457-0.683-2.025-0.458-0.571-1.095-0.856-1.922-0.856h-21.613v4.588h17.328c0.304 0 0.625 0.109 0.964 0.33 0.337 0.223 0.508 0.559 0.508 1.01 0 0.242-0.071 0.473-0.216 0.689-0.143 0.219-0.357 0.393-0.644 0.522-0.288 0.13-0.598 0.197-0.936 0.197h-13.111c-0.625 0-1.182 0.158-1.673 0.474-0.49 0.317-0.866 0.686-1.132 1.107-0.264 0.423-0.396 0.766-0.396 1.036v6.057c0 0.52 0.289 1.097 0.866 1.727s1.322 0.944 2.233 0.944h19.408v-4.428h-16.02c-0.33 0-0.594-0.139-0.794-0.418-0.201-0.277-0.301-0.568-0.301-0.874 0-0.275 0.138-0.676 0.41-0.987 0.274-0.314 0.664-0.47 1.167-0.47h13.144c1.165 0 2.024-0.299 2.58-0.9 0.556-0.598 0.833-1.384 0.833-2.356" fill="#fff"/>
   <path d="m0 0c0-0.783-0.227-1.457-0.683-2.025-0.458-0.571-1.095-0.856-1.922-0.856h-21.613v4.588h17.328c0.304 0 0.625 0.109 0.964 0.33 0.337 0.223 0.508 0.559 0.508 1.01 0 0.242-0.071 0.473-0.216 0.689-0.143 0.219-0.357 0.393-0.644 0.522-0.288 0.13-0.598 0.197-0.936 0.197h-13.111c-0.625 0-1.182 0.158-1.673 0.474-0.49 0.317-0.866 0.686-1.132 1.107-0.264 0.423-0.396 0.766-0.396 1.036v6.057c0 0.52 0.289 1.097 0.866 1.727s1.322 0.944 2.233 0.944h19.408v-4.428h-16.02c-0.33 0-0.594-0.139-0.794-0.418-0.201-0.277-0.301-0.568-0.301-0.874 0-0.275 0.138-0.676 0.41-0.987 0.274-0.314 0.664-0.47 1.167-0.47h13.144c1.165 0 2.024-0.299 2.58-0.9 0.556-0.598 0.833-1.384 0.833-2.356z" fill="none" stroke="#fff" stroke-miterlimit="10"/>
   <path d="m0 0c0-0.783-0.227-1.457-0.683-2.025-0.458-0.571-1.095-0.856-1.922-0.856h-21.613v4.588h17.328c0.304 0 0.625 0.109 0.964 0.33 0.337 0.223 0.508 0.559 0.508 1.01 0 0.242-0.071 0.473-0.216 0.689-0.143 0.219-0.357 0.393-0.644 0.522-0.288 0.13-0.598 0.197-0.936 0.197h-13.111c-0.625 0-1.182 0.158-1.673 0.474-0.49 0.317-0.866 0.686-1.132 1.107-0.264 0.423-0.396 0.766-0.396 1.036v6.057c0 0.52 0.289 1.097 0.866 1.727s1.322 0.944 2.233 0.944h19.408v-4.428h-16.02c-0.33 0-0.594-0.139-0.794-0.418-0.201-0.277-0.301-0.568-0.301-0.874 0-0.275 0.138-0.676 0.41-0.987 0.274-0.314 0.664-0.47 1.167-0.47h13.144c1.165 0 2.024-0.299 2.58-0.9 0.556-0.598 0.833-1.384 0.833-2.356" fill="#fff"/>
   <path d="m0 0c0-0.783-0.227-1.457-0.683-2.025-0.458-0.571-1.095-0.856-1.922-0.856h-21.613v4.588h17.328c0.304 0 0.625 0.109 0.964 0.33 0.337 0.223 0.508 0.559 0.508 1.01 0 0.242-0.071 0.473-0.216 0.689-0.143 0.219-0.357 0.393-0.644 0.522-0.288 0.13-0.598 0.197-0.936 0.197h-13.111c-0.625 0-1.182 0.158-1.673 0.474-0.49 0.317-0.866 0.686-1.132 1.107-0.264 0.423-0.396 0.766-0.396 1.036v6.057c0 0.52 0.289 1.097 0.866 1.727s1.322 0.944 2.233 0.944h19.408v-4.428h-16.02c-0.33 0-0.594-0.139-0.794-0.418-0.201-0.277-0.301-0.568-0.301-0.874 0-0.275 0.138-0.676 0.41-0.987 0.274-0.314 0.664-0.47 1.167-0.47h13.144c1.165 0 2.024-0.299 2.58-0.9 0.556-0.598 0.833-1.384 0.833-2.356z" fill="none" stroke="#fff" stroke-width=".179"/>
  </g>
  <g transform="matrix(.35278 0 0 -.35278 121.8 106.38)">
   <path d="m0 0h-24.635v-4.494h9.666v-14.187h5.302v14.173h9.667" fill="#fff"/>
   <path d="m0 0h-24.635v-4.494h9.666v-14.187h5.302v14.173h9.667z" fill="none" stroke="#fff" stroke-miterlimit="10"/>
   <path d="m0 0h-24.635v-4.494h9.666v-14.187h5.302v14.173h9.667" fill="#fff"/>
   <path d="m0 0h-24.635v-4.494h9.666v-14.187h5.302v14.173h9.667z" fill="none" stroke="#fff" stroke-width=".179"/>
  </g>
  <g transform="matrix(.35278 0 0 -.35278 132.07 111.17)">
   <path d="m0 0c0-0.633-0.246-1.354-0.736-2.162-0.491-0.809-1.111-1.498-1.859-2.07-0.744-0.575-1.484-0.862-2.214-0.862h-13.17c-1.058 0-2.043 0.309-2.95 0.926-0.907 0.615-1.622 1.395-2.142 2.34-0.522 0.941-0.783 1.855-0.783 2.74v12.675h5.29v-11.293c0-0.515 0.15-0.985 0.45-1.415 0.301-0.43 0.651-0.77 1.054-1.016 0.405-0.246 0.763-0.369 1.076-0.369h8.088c0.339 0 0.698 0.145 1.076 0.436 0.379 0.291 0.694 0.636 0.943 1.041 0.253 0.404 0.378 0.75 0.378 1.035v11.581h5.499" fill="#fff"/>
   <path d="m0 0c0-0.633-0.246-1.354-0.736-2.162-0.491-0.809-1.111-1.498-1.859-2.07-0.744-0.575-1.484-0.862-2.214-0.862h-13.17c-1.058 0-2.043 0.309-2.95 0.926-0.907 0.615-1.622 1.395-2.142 2.34-0.522 0.941-0.783 1.855-0.783 2.74v12.675h5.29v-11.293c0-0.515 0.15-0.985 0.45-1.415 0.301-0.43 0.651-0.77 1.054-1.016 0.405-0.246 0.763-0.369 1.076-0.369h8.088c0.339 0 0.698 0.145 1.076 0.436 0.379 0.291 0.694 0.636 0.943 1.041 0.253 0.404 0.378 0.75 0.378 1.035v11.581h5.499z" fill="none" stroke="#fff" stroke-miterlimit="10"/>
   <path d="m0 0c0-0.633-0.246-1.354-0.736-2.162-0.491-0.809-1.111-1.498-1.859-2.07-0.744-0.575-1.484-0.862-2.214-0.862h-13.17c-1.058 0-2.043 0.309-2.95 0.926-0.907 0.615-1.622 1.395-2.142 2.34-0.522 0.941-0.783 1.855-0.783 2.74v12.675h5.29v-11.293c0-0.515 0.15-0.985 0.45-1.415 0.301-0.43 0.651-0.77 1.054-1.016 0.405-0.246 0.763-0.369 1.076-0.369h8.088c0.339 0 0.698 0.145 1.076 0.436 0.379 0.291 0.694 0.636 0.943 1.041 0.253 0.404 0.378 0.75 0.378 1.035v11.581h5.499" fill="#fff"/>
   <path d="m0 0c0-0.633-0.246-1.354-0.736-2.162-0.491-0.809-1.111-1.498-1.859-2.07-0.744-0.575-1.484-0.862-2.214-0.862h-13.17c-1.058 0-2.043 0.309-2.95 0.926-0.907 0.615-1.622 1.395-2.142 2.34-0.522 0.941-0.783 1.855-0.783 2.74v12.675h5.29v-11.293c0-0.515 0.15-0.985 0.45-1.415 0.301-0.43 0.651-0.77 1.054-1.016 0.405-0.246 0.763-0.369 1.076-0.369h8.088c0.339 0 0.698 0.145 1.076 0.436 0.379 0.291 0.694 0.636 0.943 1.041 0.253 0.404 0.378 0.75 0.378 1.035v11.581h5.499z" fill="none" stroke="#fff" stroke-width=".179"/>
  </g>
  <g transform="matrix(.35278 0 0 -.35278 142.32 111.21)">
   <path d="m0 0c0-0.867-0.31-1.686-0.94-2.449-0.62-0.762-1.36-1.379-2.22-1.842-0.87-0.465-1.6-0.697-2.21-0.697h-18.36v11.503h5.4v-6.917h9.84c1.05 0 1.83 0.293 2.35 0.877 0.51 0.588 0.77 1.328 0.77 2.221v3.791c-0.02 0.556-0.15 1.045-0.4 1.466-0.25 0.423-0.62 0.754-1.1 0.998-0.5 0.241-1.1 0.364-1.81 0.364h-15.16v4.377h18.15c1.07 0 2.04-0.304 2.92-0.913 0.87-0.605 1.55-1.339 2.04-2.195 0.48-0.855 0.73-1.616 0.73-2.286" fill="#fff"/>
   <path d="m0 0c0-0.867-0.31-1.686-0.94-2.449-0.62-0.762-1.36-1.379-2.22-1.842-0.87-0.465-1.6-0.697-2.21-0.697h-18.36v11.503h5.4v-6.917h9.84c1.05 0 1.83 0.293 2.35 0.877 0.51 0.588 0.77 1.328 0.77 2.221v3.791c-0.02 0.556-0.15 1.045-0.4 1.466-0.25 0.423-0.62 0.754-1.1 0.998-0.5 0.241-1.1 0.364-1.81 0.364h-15.16v4.377h18.15c1.07 0 2.04-0.304 2.92-0.913 0.87-0.605 1.55-1.339 2.04-2.195 0.48-0.855 0.73-1.616 0.73-2.286z" fill="none" stroke="#fff" stroke-miterlimit="10"/>
   <path d="m0 0c0-0.867-0.31-1.686-0.94-2.449-0.62-0.762-1.36-1.379-2.22-1.842-0.87-0.465-1.6-0.697-2.21-0.697h-18.36v11.503h5.4v-6.917h9.84c1.05 0 1.83 0.293 2.35 0.877 0.51 0.588 0.77 1.328 0.77 2.221v3.791c-0.02 0.556-0.15 1.045-0.4 1.466-0.25 0.423-0.62 0.754-1.1 0.998-0.5 0.241-1.1 0.364-1.81 0.364h-15.16v4.377h18.15c1.07 0 2.04-0.304 2.92-0.913 0.87-0.605 1.55-1.339 2.04-2.195 0.48-0.855 0.73-1.616 0.73-2.286" fill="#fff"/>
   <path d="m0 0c0-0.867-0.31-1.686-0.94-2.449-0.62-0.762-1.36-1.379-2.22-1.842-0.87-0.465-1.6-0.697-2.21-0.697h-18.36v11.503h5.4v-6.917h9.84c1.05 0 1.83 0.293 2.35 0.877 0.51 0.588 0.77 1.328 0.77 2.221v3.791c-0.02 0.556-0.15 1.045-0.4 1.466-0.25 0.423-0.62 0.754-1.1 0.998-0.5 0.241-1.1 0.364-1.81 0.364h-15.16v4.377h18.15c1.07 0 2.04-0.304 2.92-0.913 0.87-0.605 1.55-1.339 2.04-2.195 0.48-0.855 0.73-1.616 0.73-2.286z" fill="none" stroke="#fff" stroke-width=".179"/>
  </g>
  <path d="m144.31 112.97h1.8944v-6.5899h-1.8944z" fill="#fff"/>
  <path d="m146.2 112.97h-1.8944v-6.5899h1.8944z" fill="none" stroke="#fff" stroke-miterlimit="10" stroke-width=".35278"/>
  <path d="m144.31 112.97h1.8944v-6.5899h-1.8944z" fill="#fff"/>
  <path d="m146.2 112.97h-1.8944v-6.5899h1.8944z" fill="none" stroke="#fff" stroke-width=".063147"/>
  <g transform="matrix(.35278 0 0 -.35278 155.22 110.34)">
   <path d="m0 0v3.838c0 0.807-0.27 1.492-0.82 2.057-0.54 0.563-1.41 0.844-2.59 0.844h-8.27c-0.33 0-0.72-0.122-1.2-0.364-0.47-0.244-0.88-0.564-1.23-0.962-0.35-0.4-0.53-0.825-0.53-1.275v-3.657c0.02-0.875 0.25-1.611 0.71-2.209 0.45-0.6 1.14-0.9 2.04-0.9h9.21c0.75 0 1.38 0.203 1.9 0.605 0.52 0.404 0.78 1.078 0.78 2.023m5.37-1.753c0-1.036-0.29-1.987-0.87-2.854-0.57-0.869-1.28-1.557-2.11-2.066-0.83-0.506-1.56-0.76-2.19-0.76h-14.36c-1.18 0-2.23 0.307-3.14 0.924s-1.61 1.384-2.1 2.306c-0.49 0.92-0.74 1.801-0.74 2.645v7.008c0 0.763 0.17 1.496 0.5 2.194 0.34 0.699 0.78 1.317 1.33 1.858 0.54 0.539 1.14 0.963 1.79 1.276 0.65 0.312 1.27 0.469 1.85 0.469h14.14c0.63 0 1.41-0.208 2.34-0.625s1.76-1.094 2.48-2.034c0.72-0.935 1.08-2.144 1.08-3.621" fill="#fff"/>
   <path d="m0 0v3.838c0 0.807-0.27 1.492-0.82 2.057-0.54 0.563-1.41 0.844-2.59 0.844h-8.27c-0.33 0-0.72-0.122-1.2-0.364-0.47-0.244-0.88-0.564-1.23-0.962-0.35-0.4-0.53-0.825-0.53-1.275v-3.657c0.02-0.875 0.25-1.611 0.71-2.209 0.45-0.6 1.14-0.9 2.04-0.9h9.21c0.75 0 1.38 0.203 1.9 0.605 0.52 0.404 0.78 1.078 0.78 2.023" fill="none" stroke="#fff" stroke-miterlimit="10"/>
   <g transform="translate(5.37,-1.753)">
    <path d="m0 0c0-1.036-0.29-1.987-0.87-2.854-0.57-0.869-1.28-1.557-2.11-2.066-0.83-0.506-1.56-0.76-2.19-0.76h-14.36c-1.18 0-2.23 0.307-3.14 0.924s-1.61 1.384-2.1 2.306c-0.49 0.92-0.74 1.801-0.74 2.645v7.008c0 0.763 0.17 1.496 0.5 2.194 0.34 0.699 0.78 1.317 1.33 1.858 0.54 0.539 1.14 0.963 1.79 1.276 0.65 0.312 1.27 0.469 1.85 0.469h14.14c0.63 0 1.41-0.208 2.34-0.625s1.76-1.094 2.48-2.034c0.72-0.935 1.08-2.144 1.08-3.621z" fill="none" stroke="#fff" stroke-miterlimit="10"/>
   </g>
   <path d="m0 0v3.838c0 0.807-0.27 1.492-0.82 2.057-0.54 0.563-1.41 0.844-2.59 0.844h-8.27c-0.33 0-0.72-0.122-1.2-0.364-0.47-0.244-0.88-0.564-1.23-0.962-0.35-0.4-0.53-0.825-0.53-1.275v-3.657c0.02-0.875 0.25-1.611 0.71-2.209 0.45-0.6 1.14-0.9 2.04-0.9h9.21c0.75 0 1.38 0.203 1.9 0.605 0.52 0.404 0.78 1.078 0.78 2.023m5.37-1.753c0-1.036-0.29-1.987-0.87-2.854-0.57-0.869-1.28-1.557-2.11-2.066-0.83-0.506-1.56-0.76-2.19-0.76h-14.36c-1.18 0-2.23 0.307-3.14 0.924s-1.61 1.384-2.1 2.306c-0.49 0.92-0.74 1.801-0.74 2.645v7.008c0 0.763 0.17 1.496 0.5 2.194 0.34 0.699 0.78 1.317 1.33 1.858 0.54 0.539 1.14 0.963 1.79 1.276 0.65 0.312 1.27 0.469 1.85 0.469h14.14c0.63 0 1.41-0.208 2.34-0.625s1.76-1.094 2.48-2.034c0.72-0.935 1.08-2.144 1.08-3.621" fill="#fff"/>
   <path d="m0 0v3.838c0 0.807-0.27 1.492-0.82 2.057-0.54 0.563-1.41 0.844-2.59 0.844h-8.27c-0.33 0-0.72-0.122-1.2-0.364-0.47-0.244-0.88-0.564-1.23-0.962-0.35-0.4-0.53-0.825-0.53-1.275v-3.657c0.02-0.875 0.25-1.611 0.71-2.209 0.45-0.6 1.14-0.9 2.04-0.9h9.21c0.75 0 1.38 0.203 1.9 0.605 0.52 0.404 0.78 1.078 0.78 2.023z" fill="none" stroke="#fff" stroke-width=".179"/>
   <g transform="translate(5.37,-1.753)">
    <path d="m0 0c0-1.036-0.29-1.987-0.87-2.854-0.57-0.869-1.28-1.557-2.11-2.066-0.83-0.506-1.56-0.76-2.19-0.76h-14.36c-1.18 0-2.23 0.307-3.14 0.924s-1.61 1.384-2.1 2.306c-0.49 0.92-0.74 1.801-0.74 2.645v7.008c0 0.763 0.17 1.496 0.5 2.194 0.34 0.699 0.78 1.317 1.33 1.858 0.54 0.539 1.14 0.963 1.79 1.276 0.65 0.312 1.27 0.469 1.85 0.469h14.14c0.63 0 1.41-0.208 2.34-0.625s1.76-1.094 2.48-2.034c0.72-0.935 1.08-2.144 1.08-3.621z" fill="none" stroke="#fff" stroke-width=".179"/>
   </g>
  </g>
  <g transform="matrix(.35278 0 0 -.35278 167.09 108.9)">
   <path d="m0 0h-2.53v6.957h-5.46v-6.852h-9.11v2.679h-5.43v-7.139h14.54v-6.928h5.46v6.928h2.53z" fill="none" stroke="#fff" stroke-width=".644"/>
   <g transform="translate(25.88,6.955)">
    <path d="m0 0h-19.62v-4.173h17.66c0.71 0 1.29-0.7 1.29-1.41 0-0.708-0.58-1.372-1.29-1.372h-15.01c-0.76 0-1.42-0.306-1.98-0.917-0.57-0.612-0.86-1.346-0.86-2.409v-5.426c0.01-0.482 0.2-0.918 0.47-1.307 0.26-0.386 0.6-0.687 1.02-0.902 0.42-0.217 0.83-0.322 1.25-0.322h15.37c0.36 0 0.76 0.138 1.21 0.414 0.45 0.277 0.75 0.578 0.9 0.904v-1.318h5.67v12.495c0 5.963-6.08 5.743-6.08 5.743z" fill="none" stroke="#fff" stroke-width=".644"/>
    <g transform="translate(-1.96,-11.182)">
     <path d="m0 0h-11.01c-0.7 0-1.28-0.574-1.28-1.283s0.58-1.267 1.28-1.267h11.01c0.71 0 1.29 0.558 1.29 1.267s-0.58 1.283-1.29 1.283z" fill="none" stroke="#fff" stroke-width=".644"/>
    </g>
   </g>
  </g>
  <g transform="matrix(.35278 0 0 -.35278 33.149 113.03)">
   <path d="m0 0v-25.087" fill="none" stroke="#fff" stroke-miterlimit="10" stroke-width="1.6"/>
  </g>
  <g transform="matrix(.35278 0 0 -.35278 32.258 113.3)">
   <path d="M 0,0 2.541,4.404 5.084,0"/>
   <path d="M 0,0 2.541,4.404 5.084,0 Z" fill="none" stroke="#fff" stroke-miterlimit="10"/>
  </g>
  <g transform="matrix(.35278 0 0 -.35278 33.149 113.03)">
   <path d="m0 0v-25.381" fill="none" stroke="#000" stroke-miterlimit="10" stroke-width=".6"/>
  </g>
  <g transform="matrix(.35278 0 0 -.35278 32.258 113.3)">
   <path d="M 0,0 2.541,4.404 5.084,0"/>
  </g>
  <text x="31.055931" y="125.30996" fill="#000000" font-family="SQFRoundCond1D_V1" font-size="4.5861px" stroke-width=".35278"><tspan x="31.055931" y="125.30996" font-family="'Open Sans Condensed'" stroke-width=".35278">(6)</tspan></text>
  <g transform="matrix(.35278 0 0 -.35278 18.528 111.98)">
   <path d="m0 0v-28.087" fill="none" stroke="#fff" stroke-miterlimit="10" stroke-width="1.6"/>
  </g>
  <g transform="matrix(.35278 0 0 -.35278 17.636 112.24)">
   <path d="M 0,0 2.541,4.404 5.084,0"/>
   <path d="M 0,0 2.541,4.404 5.084,0 Z" fill="none" stroke="#fff" stroke-miterlimit="10"/>
  </g>
  <g transform="matrix(.35278 0 0 -.35278 18.528 111.98)">
   <path d="m0 0v-28.381" fill="none" stroke="#000" stroke-miterlimit="10" stroke-width=".6"/>
  </g>
  <g transform="matrix(.35278 0 0 -.35278 17.636 112.24)">
   <path d="M 0,0 2.541,4.404 5.084,0"/>
  </g>
  <text x="16.433647" y="125.30996" fill="#000000" font-family="SQFRoundCond1D_V1" font-size="4.5861px" stroke-width=".35278"><tspan x="16.433647" y="125.30996" font-family="'Open Sans Condensed'" stroke-width=".35278">(5)</tspan></text>
  <g transform="matrix(.35278 0 0 -.35278 39.514 113.11)">
   <path d="m0 0v-25.087" fill="none" stroke="#fff" stroke-miterlimit="10" stroke-width="1.6"/>
  </g>
  <g transform="matrix(.35278 0 0 -.35278 38.623 113.3)">
   <path d="M 0,0 2.541,4.404 5.084,0"/>
   <path d="M 0,0 2.541,4.404 5.084,0 Z" fill="none" stroke="#fff" stroke-miterlimit="10"/>
  </g>
  <g transform="matrix(.35278 0 0 -.35278 39.514 113.11)">
   <path d="m0 0v-25.087" fill="none" stroke="#000" stroke-miterlimit="10" stroke-width=".6"/>
  </g>
  <g transform="matrix(.35278 0 0 -.35278 38.623 113.3)">
   <path d="M 0,0 2.541,4.404 5.084,0"/>
  </g>
  <text x="37.420399" y="125.30996" fill="#000000" font-family="SQFRoundCond1D_V1" font-size="4.5861px" stroke-width=".35278"><tspan x="37.420399" y="125.30996" font-family="'Open Sans Condensed'" stroke-width=".35278">(7)</tspan></text>
  <g transform="matrix(.35278 0 0 -.35278 47.769 118.8)">
   <path d="m0 0v-8.737" fill="none" stroke="#fff" stroke-linecap="round" stroke-miterlimit="10" stroke-width="1.6"/>
   <g transform="translate(30.962)">
    <path d="m0 0v-8.737" fill="none" stroke="#fff" stroke-linecap="round" stroke-miterlimit="10" stroke-width="1.6"/>
   </g>
  </g>
  <text x="45.809441" y="125.30996" fill="#000000" font-family="SQFRoundCond1D_V1" font-size="4.5861px" stroke-width=".35278"><tspan x="45.809441" y="125.30996" font-family="'Open Sans Condensed'" stroke-width=".35278">(8)</tspan></text>
  <g transform="matrix(.35278 0 0 -.35278 50.284 110.91)">
   <path d="m0 0v-18.908c0-1.905-1.558-3.462-3.462-3.462h-7.285c-1.904 0-3.462 1.557-3.462 3.462v18.908" fill="none" stroke="#fff" stroke-linecap="round" stroke-miterlimit="10" stroke-width="1.6"/>
  </g>
  <g transform="matrix(.35278 0 0 -.35278 49.445 111.16)">
   <path d="M 0,0 2.393,4.145 4.787,0"/>
   <path d="M 0,0 2.393,4.145 4.787,0 Z" fill="none" stroke="#fff" stroke-miterlimit="10"/>
  </g>
  <g transform="matrix(.35278 0 0 -.35278 46.111 111.16)">
   <path d="M 0,0 -2.393,4.145 -4.787,0"/>
   <path d="m0 0-2.393 4.145-2.394-4.145z" fill="none" stroke="#fff" stroke-miterlimit="10"/>
  </g>
  <g transform="matrix(.35278 0 0 -.35278 61.199 110.91)">
   <path d="m0 0v-18.908c0-1.905-1.559-3.462-3.463-3.462h-7.287c-1.905 0-3.463 1.557-3.463 3.462v18.908" fill="none" stroke="#fff" stroke-linecap="round" stroke-miterlimit="10" stroke-width="1.6"/>
  </g>
  <g transform="matrix(.35278 0 0 -.35278 60.359 111.16)">
   <path d="M 0,0 2.393,4.145 4.787,0"/>
   <path d="M 0,0 2.393,4.145 4.787,0 Z" fill="none" stroke="#fff" stroke-miterlimit="10"/>
  </g>
  <g transform="matrix(.35278 0 0 -.35278 57.025 111.16)">
   <path d="M 0,0 -2.393,4.145 -4.787,0"/>
   <path d="m0 0-2.393 4.145-2.394-4.145z" fill="none" stroke="#fff" stroke-miterlimit="10"/>
  </g>
  <g transform="matrix(.35278 0 0 -.35278 50.284 110.91)">
   <path d="m0 0v-18.908c0-1.905-1.558-3.462-3.462-3.462h-7.285c-1.904 0-3.462 1.557-3.462 3.462v18.908" fill="none" stroke="#000" stroke-linecap="round" stroke-miterlimit="10" stroke-width=".6"/>
  </g>
  <g transform="matrix(.35278 0 0 -.35278 49.445 111.16)">
   <path d="M 0,0 2.393,4.145 4.787,0"/>
  </g>
  <g transform="matrix(.35278 0 0 -.35278 46.111 111.16)">
   <path d="M 0,0 -2.393,4.145 -4.787,0"/>
  </g>
  <g transform="matrix(.35278 0 0 -.35278 61.199 110.91)">
   <path d="m0 0v-18.908c0-1.905-1.559-3.462-3.463-3.462h-7.287c-1.905 0-3.463 1.557-3.463 3.462v18.908" fill="none" stroke="#000" stroke-linecap="round" stroke-miterlimit="10" stroke-width=".6"/>
  </g>
  <g transform="matrix(.35278 0 0 -.35278 60.359 111.16)">
   <path d="M 0,0 2.393,4.145 4.787,0"/>
  </g>
  <g transform="matrix(.35278 0 0 -.35278 57.025 111.16)">
   <path d="M 0,0 -2.393,4.145 -4.787,0"/>
  </g>
  <g transform="matrix(.35278 0 0 -.35278 47.769 118.8)">
   <path d="m0 0v-8.737" fill="none" stroke="#000" stroke-linecap="round" stroke-miterlimit="10" stroke-width=".6"/>
   <g transform="translate(30.962)">
    <path d="m0 0v-8.737" fill="none" stroke="#000" stroke-linecap="round" stroke-miterlimit="10" stroke-width=".6"/>
   </g>
  </g>
  <text x="56.687267" y="125.60296" fill="#000000" font-family="SQFRoundCond1D_V1" font-size="4.5861px" stroke-width=".35278"><tspan x="56.687267" y="125.60296" font-family="'Open Sans Condensed'" stroke-width=".35278">(9)</tspan></text>
 </g>
</svg>
