<?xml version="1.0" encoding="UTF-8"?>
<svg width="83.92mm" height="34.069mm" version="1.1" viewBox="0 0 83.92 34.069" xmlns="http://www.w3.org/2000/svg">
 <defs>
  <clipPath id="clipPath8093">
   <path d="m819.87 673.22-0.014-0.018-0.017-0.019-0.012-0.017-0.015-0.018-0.016-0.018-0.013-0.018-0.014-0.016-0.015-0.019-0.014-0.018-0.014-0.016-0.015-0.016-0.028-0.036-0.012-0.016-0.013-0.016-0.014-0.019-0.012-0.013-0.012-0.017-0.013-0.014-0.014-0.016-0.011-0.015-0.013-0.012-0.011-0.019-0.012-0.014-0.022-0.026-0.02-0.024-0.021-0.026-0.023-0.025-0.042-0.05-0.022-0.027-0.021-0.025-0.022-0.025-0.021-0.026-0.021-0.023-0.022-0.027-0.022-0.025-0.02-0.027-0.023-0.025-0.02-0.026-0.023-0.027-0.02-0.024-0.023-0.023-0.02-0.028-0.022-0.026-0.021-0.023-0.021-0.026-0.022-0.028-0.015-0.015-0.014-0.019-0.014-0.018-0.014-0.016-0.012-0.016-0.013-0.016-0.012-0.013-0.011-0.013-0.011-0.015-0.01-0.012-9e-3 -0.013-0.01-0.01-6e-3 -0.01-9e-3 -8e-3 -8e-3 -0.01-5e-3 -8e-3 -5e-3 -7e-3 -7e-3 -5e-3 -2e-3 -4e-3 -5e-3 -5e-3 -2e-3 -6e-3 -4e-3 -2e-3 -1e-3 -2e-3 -0.194-0.23 0.029-0.022 0.032-0.015 0.03-0.013 0.027-9e-3 0.027-7e-3 0.027-1e-3 0.023-2e-3 0.023 2e-3h0.023l0.018 5e-3 0.019 3e-3 0.017 6e-3 0.019 5e-3 0.017 0.01 0.015 3e-3 0.032 0.018 0.027 0.018 0.014 0.011 0.012 0.012 0.011 0.01 0.012 0.012 0.011 0.012 0.185 0.222 0.125 0.145 0.511 0.61 0.198 0.239 0.362 0.429 0.014 0.02 0.013 0.019 0.012 0.015 0.013 0.019 9e-3 0.017 0.01 0.023 0.01 0.02 8e-3 0.021 8e-3 0.022 6e-3 0.023 4e-3 0.023 4e-3 0.022v0.072l-4e-3 0.024-4e-3 0.025-8e-3 0.024-9e-3 0.022-0.013 0.026-0.016 0.024-0.017 0.017-0.019 0.022-0.021 0.015"/>
  </clipPath>
  <clipPath id="clipPath8109">
   <path d="m819.93 674.38-1.804-2.163c-0.028-0.033-0.02-0.083 0.019-0.117l0.411-0.343c0.037-0.031 0.092-0.03 0.119 2e-3l1.806 2.16c0.027 0.035 0.02 0.09-0.019 0.12l-0.41 0.345c-0.018 0.014-0.04 0.021-0.061 0.021-0.024 0-0.046-8e-3 -0.061-0.025"/>
  </clipPath>
  <clipPath id="clipPath8229">
   <path d="m872.6 673.22-0.013-0.018-0.016-0.019-0.013-0.017-0.03-0.036-0.014-0.018-0.014-0.016-0.016-0.019-0.012-0.018-0.016-0.016-0.014-0.016-0.013-0.018-0.014-0.018-0.026-0.032-0.014-0.019-0.012-0.013-0.013-0.017-0.012-0.014-0.014-0.016-0.011-0.015-0.013-0.012-0.011-0.019-0.012-0.014-0.022-0.026-0.02-0.024-0.022-0.026-0.021-0.025-0.023-0.025-0.02-0.025-0.021-0.027-0.023-0.025-0.021-0.025-0.021-0.026-0.021-0.023-0.022-0.027-0.022-0.025-0.02-0.027-0.022-0.025-0.022-0.026-0.021-0.027-0.022-0.024-0.021-0.023-0.02-0.028-0.023-0.026-0.02-0.023-0.022-0.026-0.022-0.028-0.014-0.015-0.014-0.019-0.015-0.018-0.039-0.048-0.011-0.013-0.012-0.013-0.012-0.015-9e-3 -0.012-0.01-0.013-0.016-0.02-9e-3 -8e-3 -6e-3 -0.01-6e-3 -8e-3 -5e-3 -7e-3 -6e-3 -5e-3 -3e-3 -4e-3 -5e-3 -5e-3 -1e-3 -6e-3 -3e-3 -1e-3 -2e-3 -1e-3v-2e-3l-0.196-0.23 0.031-0.022 0.031-0.015 0.03-0.013 0.027-9e-3 0.028-7e-3 0.026-1e-3 0.023-2e-3 0.024 2e-3h0.021l0.019 5e-3 0.019 3e-3 0.017 6e-3 0.018 5e-3 0.017 0.01 0.017 3e-3 0.03 0.018 0.014 8e-3 0.014 0.01 0.014 0.011 0.011 0.012 0.013 0.01 0.011 0.012 0.01 0.012 0.186 0.222 0.124 0.145 0.512 0.61 0.197 0.239 0.364 0.429 0.013 0.02 0.013 0.019 0.013 0.015 0.011 0.019 0.01 0.017 0.011 0.023 9e-3 0.02 8e-3 0.021 8e-3 0.022 6e-3 0.023 4e-3 0.023 4e-3 0.022 1e-3 0.023v0.027l-1e-3 0.022-4e-3 0.024-4e-3 0.025-8e-3 0.024-9e-3 0.022-0.012 0.026-0.016 0.024-0.018 0.017-0.019 0.022-0.021 0.015"/>
  </clipPath>
  <clipPath id="clipPath8245">
   <path d="m872.66 674.38-1.805-2.163c-0.027-0.033-0.019-0.083 0.019-0.117l0.412-0.343c0.037-0.031 0.091-0.03 0.118 2e-3l1.807 2.16c0.027 0.035 0.02 0.09-0.018 0.12l-0.412 0.345c-0.018 0.014-0.04 0.021-0.061 0.021-0.023 0-0.045-8e-3 -0.06-0.025"/>
  </clipPath>
 </defs>
 <g transform="translate(-19.272 -137.94)">
  <path d="m20.001 140.8h82.458v-1.6309h-82.458z"/>
  <g transform="matrix(.35278 0 0 -.35278 21.91 161.16)">
   <path d="m0 0h222.49c4.618 0 4.907 4.159 4.907 4.159l2.881 54.964h-237.62" fill="#2e2e2e"/>
  </g>
  <path d="m19.272 139.85h83.92v-1.9142h-83.92z" fill="#2e2e2e"/>
  <g transform="matrix(.35278 0 0 -.35278 19.36 140.31)">
   <path d="m0 0h237.5l-2.882-54.965s-0.476-4.158-4.469-4.158h-230.15" fill="#2e2e2e"/>
  </g>
  <g transform="matrix(.35278 0 0 -.35278 62.181 141.58)">
   <path d="m0 0h1.399c0.686 0 1.15-0.123 1.388-0.37 0.24-0.251 0.358-0.618 0.358-1.107 0-0.634-0.159-1.043-0.481-1.228-0.323-0.187-0.704-0.278-1.141-0.278-0.03 0-0.058 2e-3 -0.09 4e-3 -0.029 2e-3 -0.054 2e-3 -0.079 2e-3 -0.029 0-0.059 2e-3 -0.088 4e-3 -0.029 3e-3 -0.058 4e-3 -0.087 4e-3v-1.903h-1.179zm1.837-1.911c0.079 0.128 0.117 0.324 0.117 0.588 0 0.171-0.055 0.292-0.158 0.357-0.106 0.07-0.242 0.103-0.413 0.103h-0.204v-1.241c0.36 0 0.58 0.063 0.658 0.193" fill="#fff"/>
  </g>
  <g transform="matrix(.35278 0 0 -.35278 63.533 141.58)">
   <path d="m0 0h1.179v-1.848h0.774v1.848h1.193v-4.872h-1.193v2.007h-0.774v-2.007h-1.179" fill="#fff"/>
  </g>
  <g transform="matrix(.35278 0 0 -.35278 64.917 142.01)">
   <path d="m0 0c0 0.488 0.158 0.833 0.469 1.035 0.313 0.203 0.691 0.304 1.134 0.304 0.058 0 0.119-1e-3 0.18-7e-3 0.06-5e-3 0.12-0.011 0.179-0.016 0.314-0.042 0.595-0.161 0.851-0.357 0.258-0.195 0.386-0.515 0.386-0.959v-2.172c0-0.483-0.128-0.866-0.386-1.149-0.256-0.283-0.676-0.424-1.26-0.424-0.595 0-1.003 0.16-1.223 0.479-0.22 0.318-0.33 0.682-0.33 1.094zm1.179-2.429c0-0.134 0.044-0.239 0.13-0.311 0.085-0.072 0.177-0.105 0.281-0.105h0.021c0.098 4e-3 0.187 0.04 0.27 0.109 0.083 0.068 0.124 0.173 0.124 0.307v2.481c0 0.136-0.041 0.239-0.124 0.305-0.083 0.071-0.172 0.106-0.27 0.11h-0.021c-0.104 0-0.196-0.031-0.281-0.101-0.086-0.068-0.13-0.172-0.13-0.314" fill="#fff"/>
  </g>
  <g transform="matrix(.35278 0 0 -.35278 66.302 141.58)">
   <path d="m0 0h1.179l0.927-2.813-0.15 2.813h1.139v-4.872h-1.191l-0.931 2.716 0.156-2.716h-1.129" fill="#fff"/>
  </g>
  <g transform="matrix(.35278 0 0 -.35278 67.674 141.58)">
   <path d="m0 0h2.714v-0.914h-1.542v-0.934h1.442v-1.017h-1.442v-1.041h1.542v-0.966h-2.714" fill="#fff"/>
  </g>
  <g transform="matrix(.35278 0 0 -.35278 69.227 142.7)">
   <path d="m0 0v-0.06c-5e-3 -9e-3 -7e-3 -0.019-7e-3 -0.033v-0.032c-6e-3 -0.021-9e-3 -0.039-0.012-0.059-2e-3 -0.018-2e-3 -0.037-2e-3 -0.051 0-0.22 0.042-0.386 0.131-0.497 0.089-0.113 0.184-0.171 0.291-0.176h0.056c0.013 0 0.022 4e-3 0.033 8e-3 0.089 0.018 0.167 0.069 0.239 0.149 0.07 0.08 0.105 0.188 0.105 0.326 0 0.141-0.047 0.263-0.143 0.365-0.095 0.104-0.212 0.201-0.355 0.293-0.068 0.048-0.137 0.096-0.213 0.14-0.073 0.043-0.144 0.093-0.219 0.146-0.234 0.152-0.448 0.338-0.642 0.562-0.195 0.225-0.293 0.527-0.293 0.908 0 4e-3 0 9e-3 3e-3 0.015s4e-3 0.012 4e-3 0.022c0 5e-3 1e-3 9e-3 3e-3 0.015 3e-3 5e-3 3e-3 9e-3 3e-3 0.014 0 0.024 2e-3 0.049 3e-3 0.073 4e-3 0.025 5e-3 0.048 5e-3 0.073 0.044 0.288 0.194 0.551 0.446 0.786 0.254 0.237 0.577 0.356 0.973 0.356 0.395 0 0.743-0.119 1.043-0.358 0.3-0.24 0.45-0.617 0.45-1.135v-0.102h-1.068v0.138c0 0.171-0.034 0.304-0.103 0.395-0.069 0.095-0.143 0.152-0.228 0.175-0.018 7e-3 -0.036 0.01-0.05 0.013-0.016 2e-3 -0.029 4e-3 -0.044 4e-3h-0.022c-0.082-4e-3 -0.159-0.043-0.231-0.111-0.069-0.066-0.106-0.155-0.106-0.257 0-0.149 0.053-0.275 0.159-0.375 0.104-0.099 0.233-0.196 0.384-0.282 0.059-0.038 0.119-0.078 0.186-0.114 0.066-0.037 0.132-0.073 0.2-0.11 0.225-0.136 0.432-0.303 0.619-0.509 0.188-0.208 0.291-0.503 0.304-0.884v-0.125c0-0.576-0.155-0.97-0.464-1.18-0.31-0.214-0.67-0.321-1.081-0.321l-0.153-6e-3c-0.413 0.027-0.731 0.164-0.954 0.417-0.223 0.254-0.334 0.613-0.334 1.077 0 0.023 3e-3 0.048 4e-3 0.072 4e-3 0.025 4e-3 0.048 4e-3 0.073v0.059c4e-3 0.015 8e-3 0.032 8e-3 0.052v0.051" fill="#fff"/>
  </g>
  <g transform="matrix(.35278 0 0 -.35278 71.587 142.43)">
   <path d="m0 0h49.854" fill="none" stroke="#fff" stroke-linecap="round" stroke-width=".914"/>
   <g transform="translate(-81.052)">
    <path d="m0 0h49.83" fill="none" stroke="#fff" stroke-linecap="round" stroke-width=".914"/>
   </g>
  </g>
  <g transform="matrix(.35278 0 0 -.35278 83.918 145.23)">
   <path d="m0 0c-0.012-0.041 0.193-2.099 0.308-2.815 0.122-0.313 0.268-0.22 0.354-0.075 0.112 0.182-0.227 2.916-0.282 3.006-0.096 0.162-0.346 0.358-0.38-0.116" fill="#fff"/>
  </g>
  <g transform="matrix(.35278 0 0 -.35278 85.438 145.23)">
   <path d="m0 0c-0.034 0.474-0.282 0.278-0.379 0.116-0.056-0.09-0.394-2.824-0.284-3.006 0.088-0.145 0.231-0.238 0.356 0.075 0.114 0.716 0.319 2.774 0.307 2.815" fill="#fff"/>
  </g>
  <g transform="matrix(.35278 0 0 -.35278 85.902 145.32)">
   <path d="m0 0c0.065 0.446 0.12 0.862 0.12 0.862s0.028 0.182 2e-3 0.237c-0.037 0.081-0.065 0.103-0.166 0.183-0.079 0.067-0.302 0.122-0.406 0.351 0.116 0.108-0.102 0.436-0.173 0.565-0.057 0.108-0.172 0.223-0.216 0.236-3e-3 2e-3 -0.068 0.016-0.07 0.017 0.01 0.036 2e-3 0.106-0.013 0.134-0.052 0.114-0.297 0.313-0.432 0.401-0.136 0.089-0.49 0.252-1.019 0.423-0.52 0.171-1.112 0.167-1.125 0.167s-0.604 4e-3 -1.124-0.167c-0.527-0.171-0.881-0.334-1.018-0.423-0.134-0.088-0.381-0.287-0.433-0.401-0.011-0.028-0.021-0.098-0.011-0.134-2e-3 -1e-3 -0.068-0.015-0.07-0.017-0.044-0.013-0.159-0.128-0.216-0.236-0.071-0.129-0.292-0.457-0.172-0.565-0.106-0.229-0.328-0.284-0.409-0.351-0.101-0.08-0.127-0.102-0.164-0.183-0.029-0.055 0-0.237 0-0.237s0.052-0.397 0.115-0.837l0.01-0.058c-0.487-0.373-0.317-2.545 0.773-2.571 0.011-0.066 0.019-0.114 0.027-0.132 0.021-0.06 0.25-0.041 0.245-0.01-0.016 0.132-0.329 3.16-0.432 3.188-0.029 7e-3 -0.089-9e-3 -0.1-0.068-3e-3 -0.014-3e-3 -0.034-3e-3 -0.062l-0.062-0.016c-5e-3 0.038-7e-3 0.062-7e-3 0.062l-0.102 0.525c0.024 0.033 0.05 0.06 0.075 0.086 0.019 0.025 0.018 0.055 0.018 0.089s0.014 0.096 0.053 0.159c0.028 0.045 0.117 0.25 0.146 0.316 0.033-0.014 0.064-0.021 0.073-0.021 0.033 0 0.051 0.078 0.051 0.078 0.141 0.252 0.414 0.445 0.414 0.445l-5e-3 0.101c0.164-0.036 0.537 0.19 0.594 0.229 0.063 0.042 0.409 0.213 0.58 0.272 0.167 0.056 0.881 0.186 1.154 0.193 0.272-7e-3 0.99-0.137 1.157-0.193 0.167-0.059 0.518-0.23 0.58-0.272 0.058-0.039 0.427-0.265 0.592-0.229l-3e-3 -0.101s0.273-0.193 0.414-0.445c0 0 0.018-0.078 0.05-0.078 8e-3 0 0.039 7e-3 0.073 0.021 0.028-0.066 0.114-0.271 0.145-0.316 0.042-0.063 0.055-0.125 0.055-0.159s-3e-3 -0.064 0.018-0.089c0.024-0.026 0.049-0.053 0.075-0.086l-0.103-0.525s-3e-3 -0.024-8e-3 -0.062l-0.06 0.016c0 0.028 0 0.048-3e-3 0.062-0.012 0.059-0.073 0.075-0.104 0.068-0.102-0.028-0.411-3.056-0.43-3.188-2e-3 -0.031 0.225-0.05 0.245 0.01 6e-3 0.018 0.018 0.066 0.029 0.132 1.091 0.026 1.26 2.213 0.773 2.585" fill="#fff"/>
  </g>
  <g transform="matrix(.35278 0 0 -.35278 61.993 144.56)">
   <path d="m0 0h1.177l0.572-3.342 0.613 3.342h1.185l-1.083-4.872h-1.389" fill="#fff"/>
  </g>
  <g transform="matrix(.35278 0 0 -.35278 63.457 144.99)">
   <path d="m0 0c0 0.487 0.157 0.831 0.469 1.035 0.31 0.202 0.69 0.303 1.133 0.303 0.058 0 0.118-3e-3 0.18-7e-3 0.06-6e-3 0.12-0.01 0.179-0.015 0.313-0.044 0.597-0.163 0.854-0.357 0.254-0.196 0.383-0.516 0.383-0.959v-2.173c0-0.482-0.129-0.868-0.383-1.148-0.257-0.285-0.679-0.426-1.262-0.426-0.599 0-1.005 0.16-1.224 0.481-0.219 0.317-0.329 0.682-0.329 1.093zm1.18-2.429c0-0.137 0.039-0.242 0.125-0.312s0.182-0.105 0.284-0.105h0.019c0.099 4e-3 0.189 0.041 0.273 0.109 0.083 0.067 0.125 0.171 0.125 0.308v2.479c0 0.138-0.042 0.241-0.125 0.307-0.084 0.069-0.174 0.106-0.273 0.11h-0.019c-0.102 0-0.198-0.032-0.284-0.102-0.086-0.067-0.125-0.174-0.125-0.315" fill="#fff"/>
  </g>
  <g transform="matrix(.35278 0 0 -.35278 64.831 144.56)">
   <path d="m0 0h1.17v-3.906h1.391v-0.966h-2.561" fill="#fff"/>
  </g>
  <g transform="matrix(.35278 0 0 -.35278 66.386 144.56)">
   <path d="m0 0v-3.702c0-0.126 0.037-0.227 0.108-0.3 0.076-0.071 0.157-0.112 0.243-0.116h0.051c0.011 0 0.018 3e-3 0.022 7e-3 0.089 8e-3 0.169 0.053 0.241 0.131 0.074 0.079 0.111 0.188 0.111 0.33v3.65h1.192v-3.444c0-0.585-0.135-0.987-0.402-1.201-0.268-0.215-0.631-0.323-1.089-0.323-0.549 0-0.959 0.108-1.238 0.323-0.278 0.214-0.416 0.564-0.416 1.046v3.599" fill="#fff"/>
  </g>
  <g transform="matrix(.35278 0 0 -.35278 67.368 144.56)">
   <path d="m0 0h1.647l0.564-2.919 0.605 2.919h1.596v-4.872h-1.068l0.1 3.753-0.832-3.753h-0.813l-0.835 3.753 0.154-3.753h-1.118" fill="#fff"/>
  </g>
  <g transform="matrix(.35278 0 0 -.35278 69.219 144.56)">
   <path d="m0 0h2.716v-0.914h-1.544v-0.938h1.442v-1.016h-1.442v-1.038h1.544v-0.966h-2.716" fill="#fff"/>
  </g>
  <g transform="matrix(.35278 0 0 -.35278 45.626 144.58)">
   <path d="m0 0h1.647l0.563-2.92 0.608 2.92h1.596v-4.874h-1.07l0.104 3.754-0.835-3.754h-0.811l-0.835 3.754 0.153-3.754h-1.12" fill="#fff"/>
  </g>
  <path d="m47.49 146.3h0.41557v-1.7191h-0.41557z" fill="#fff"/>
  <g transform="matrix(.35278 0 0 -.35278 48.161 144.58)">
   <path d="m0 0h1.126l0.571-1.427 0.564 1.427h1.133l-1.031-2.407 1.082-2.467h-1.236l-0.512 1.479-0.621-1.479h-1.128l1.076 2.467" fill="#fff"/>
  </g>
  <g transform="matrix(.35278 0 0 -.35278 43.917 149.97)">
   <path d="m0 0c-2.274-5.588 0.41-11.956 5.997-14.23 5.584-2.272 11.955 0.409 14.23 5.997 2.274 5.585-0.413 11.956-5.998 14.229-1.348 0.549-2.743 0.809-4.113 0.808-4.309 0-8.39-2.568-10.116-6.804" fill="#444"/>
   <path d="m0 0c-2.274-5.588 0.41-11.956 5.997-14.23 5.584-2.272 11.955 0.409 14.23 5.997 2.274 5.585-0.413 11.956-5.998 14.229-1.348 0.549-2.743 0.809-4.113 0.808-4.309 0-8.39-2.568-10.116-6.804" fill="none" stroke="#000" stroke-miterlimit="10" stroke-width=".269"/>
  </g>
  <g transform="matrix(.35278 0 0 -.35278 50.369 151.42)">
   <path d="m0 0c0-4.519-3.66-8.18-8.176-8.18-4.515 0-8.177 3.661-8.177 8.18 0 4.515 3.662 8.178 8.177 8.178 4.516 0 8.176-3.663 8.176-8.178" fill="#c7c7c7"/>
  </g>
  <g transform="matrix(.35278 0 0 -.35278 46.888 154.63)">
   <path d="m0 0c-0.294-0.294-0.389-0.63-0.389-0.63l-0.013-0.168c0.012 0 0.025-4e-3 0.035-4e-3 0.198 0.014 0.3 0.126 0.34 0.205 0.026 0.045 0.071 0.167 0.22 0.334 0.269 0.303 0.572 0.366 0.849 0.347 0.277-0.02 0.566-0.128 0.79-0.467 0.121-0.184 0.169-0.327 0.185-0.374 0.029-0.084 0.102-0.197 0.289-0.241 0.011 0 0.026 3e-3 0.035 3e-3l0.013 0.165s-0.04 0.309-0.273 0.658c-0.191 0.28-0.536 0.588-1.013 0.62-0.477 0.035-0.778-0.161-1.068-0.448" fill="#808080"/>
  </g>
  <g transform="matrix(.35278 0 0 -.35278 47.6 154.9)">
   <path d="m0 0c-0.016 0.047-0.064 0.189-0.186 0.374-0.223 0.339-0.512 0.447-0.79 0.467-0.276 0.018-0.579-0.044-0.847-0.347-0.15-0.168-0.197-0.289-0.221-0.334-0.04-0.079-0.143-0.191-0.34-0.205 0.434-0.09 0.878-0.158 1.331-0.192 0.452-0.03 0.9-0.029 1.343-4e-3 -0.188 0.044-0.26 0.157-0.29 0.241" fill="#c7c7c7"/>
  </g>
  <g transform="matrix(.35278 0 0 -.35278 48.888 154.37)">
   <path d="m0 0c-0.064-0.409 0.056-0.738 0.056-0.738l0.088-0.144c0.01 6e-3 0.021 0.012 0.03 0.019 0.153 0.125 0.17 0.278 0.156 0.364-6e-3 0.051-0.041 0.176-0.018 0.398 0.038 0.406 0.245 0.634 0.482 0.781 0.235 0.146 0.534 0.23 0.914 0.087 0.207-0.079 0.327-0.163 0.368-0.193 0.074-0.051 0.199-0.1 0.376-0.026 9e-3 7e-3 0.02 0.016 0.027 0.022l-0.087 0.143s-0.214 0.225-0.606 0.371c-0.322 0.115-0.781 0.162-1.185-0.094-0.408-0.251-0.538-0.588-0.601-0.99" fill="#808080"/>
  </g>
  <g transform="matrix(.35278 0 0 -.35278 49.62 154.17)">
   <path d="m0 0c-0.041 0.029-0.161 0.114-0.368 0.192-0.38 0.144-0.678 0.06-0.914-0.088-0.237-0.145-0.444-0.374-0.482-0.776-0.023-0.225 0.011-0.351 0.018-0.401 0.015-0.086-3e-3 -0.24-0.154-0.365 0.404 0.181 0.801 0.387 1.189 0.627 0.384 0.238 0.744 0.505 1.087 0.785-0.176-0.075-0.301-0.025-0.376 0.026" fill="#c7c7c7"/>
  </g>
  <g transform="matrix(.35278 0 0 -.35278 50.353 152.98)">
   <path d="m0 0c0.188-0.372 0.478-0.567 0.478-0.567l0.155-0.064c4e-3 0.011 9e-3 0.021 0.014 0.031 0.049 0.197-0.027 0.326-0.089 0.388-0.036 0.037-0.136 0.12-0.25 0.314-0.206 0.348-0.174 0.657-0.068 0.911 0.105 0.258 0.297 0.501 0.688 0.609 0.216 0.057 0.364 0.057 0.412 0.057 0.09 6e-3 0.221 0.04 0.319 0.205 4e-3 0.011 6e-3 0.023 9e-3 0.034l-0.154 0.062s-0.305 0.058-0.709-0.054c-0.327-0.097-0.726-0.33-0.903-0.777-0.182-0.439-0.089-0.786 0.098-1.149" fill="#808080"/>
  </g>
  <g transform="matrix(.35278 0 0 -.35278 50.826 152.39)">
   <path d="m0 0c-0.049 0-0.198 0-0.412-0.057-0.392-0.108-0.583-0.351-0.688-0.609-0.107-0.254-0.139-0.563 0.067-0.91 0.114-0.195 0.215-0.278 0.251-0.315 0.061-0.062 0.137-0.191 0.089-0.386 0.221 0.383 0.42 0.785 0.594 1.208 0.17 0.422 0.305 0.844 0.417 1.274-0.098-0.165-0.229-0.199-0.318-0.205" fill="#c7c7c7"/>
  </g>
  <g transform="matrix(.35278 0 0 -.35278 50.72 151)">
   <path d="m0 0c0.374-0.188 0.72-0.177 0.72-0.177l0.163 0.043c-3e-3 0.011-3e-3 0.021-7e-3 0.034-0.074 0.183-0.212 0.247-0.298 0.26-0.051 9e-3 -0.181 0.016-0.387 0.107-0.371 0.161-0.525 0.428-0.591 0.699-0.067 0.268-0.054 0.578 0.199 0.895 0.14 0.175 0.258 0.261 0.299 0.29 0.069 0.056 0.156 0.16 0.138 0.352-2e-3 0.012-0.01 0.022-0.013 0.031l-0.162-0.04s-0.281-0.132-0.54-0.461c-0.209-0.268-0.393-0.69-0.275-1.156 0.112-0.464 0.392-0.691 0.754-0.877" fill="#808080"/>
  </g>
  <g transform="matrix(.35278 0 0 -.35278 50.755 150.24)">
   <path d="m0 0c-0.041-0.029-0.159-0.115-0.299-0.29-0.252-0.317-0.266-0.627-0.199-0.896 0.066-0.27 0.221-0.538 0.589-0.699 0.208-0.091 0.338-0.097 0.389-0.106 0.086-0.013 0.224-0.077 0.298-0.26-0.047 0.44-0.121 0.882-0.229 1.327-0.108 0.438-0.249 0.861-0.41 1.276 0.018-0.193-0.07-0.296-0.139-0.352" fill="#c7c7c7"/>
  </g>
  <g transform="matrix(.35278 0 0 -.35278 49.852 149.18)">
   <path d="m0 0c0.413 0.064 0.687 0.279 0.687 0.279l0.109 0.128c-0.01 8e-3 -0.016 0.017-0.028 0.025-0.167 0.104-0.315 0.075-0.394 0.035-0.047-0.023-0.155-0.094-0.374-0.14-0.396-0.09-0.678 0.037-0.891 0.217-0.211 0.178-0.383 0.435-0.365 0.842 0.011 0.223 0.055 0.361 0.071 0.411 0.025 0.085 0.036 0.221-0.094 0.365-8e-3 6e-3 -0.021 0.013-0.029 0.019l-0.107-0.128s-0.151-0.272-0.166-0.689c-0.011-0.343 0.088-0.794 0.455-1.1 0.365-0.309 0.724-0.327 1.126-0.264" fill="#808080"/>
  </g>
  <g transform="matrix(.35278 0 0 -.35278 49.435 148.55)">
   <path d="m0 0c-0.017-0.05-0.061-0.188-0.072-0.411-0.018-0.407 0.155-0.664 0.366-0.842 0.213-0.18 0.495-0.307 0.888-0.22 0.221 0.049 0.33 0.12 0.376 0.143 0.079 0.04 0.228 0.069 0.395-0.034-0.297 0.328-0.618 0.641-0.963 0.937-0.347 0.29-0.711 0.552-1.085 0.792 0.129-0.144 0.118-0.28 0.095-0.365" fill="#c7c7c7"/>
  </g>
  <g transform="matrix(.35278 0 0 -.35278 48.08 148.22)">
   <path d="m0 0c0.296 0.296 0.392 0.629 0.392 0.629l0.013 0.168c-0.013 1e-3 -0.025 4e-3 -0.036 4e-3 -0.199-0.014-0.3-0.125-0.341-0.203-0.025-0.046-0.07-0.166-0.219-0.333-0.268-0.306-0.571-0.369-0.848-0.349-0.278 0.021-0.566 0.128-0.791 0.466-0.123 0.187-0.168 0.328-0.184 0.375-0.031 0.083-0.102 0.196-0.29 0.24-0.011 2e-3 -0.026-1e-3 -0.035-1e-3l-0.013-0.167s0.039-0.308 0.271-0.656c0.192-0.282 0.536-0.588 1.016-0.621 0.476-0.035 0.779 0.161 1.065 0.448" fill="#808080"/>
  </g>
  <g transform="matrix(.35278 0 0 -.35278 47.37 147.95)">
   <path d="m0 0c0.016-0.047 0.061-0.188 0.184-0.375 0.224-0.338 0.512-0.445 0.791-0.466 0.277-0.019 0.58 0.043 0.848 0.348 0.149 0.168 0.196 0.288 0.219 0.334 0.041 0.078 0.142 0.189 0.34 0.203-0.434 0.092-0.877 0.155-1.332 0.193-0.45 0.032-0.897 0.03-1.34 3e-3 0.187-0.044 0.258-0.157 0.29-0.24" fill="#c7c7c7"/>
  </g>
  <g transform="matrix(.35278 0 0 -.35278 46.08 148.48)">
   <path d="m0 0c0.066 0.409-0.054 0.737-0.054 0.737l-0.088 0.143c-9e-3 -4e-3 -0.021-0.01-0.03-0.019-0.154-0.125-0.171-0.277-0.157-0.362 7e-3 -0.05 0.04-0.177 0.017-0.398-0.035-0.408-0.243-0.635-0.48-0.782-0.236-0.144-0.534-0.23-0.916-0.088-0.207 0.081-0.325 0.165-0.366 0.194-0.075 0.052-0.199 0.1-0.376 0.025-0.01-7e-3 -0.02-0.016-0.029-0.021l0.089-0.144s0.212-0.224 0.605-0.374c0.322-0.112 0.779-0.157 1.187 0.099 0.407 0.249 0.536 0.587 0.598 0.99" fill="#808080"/>
  </g>
  <g transform="matrix(.35278 0 0 -.35278 45.349 148.68)">
   <path d="m0 0c0.041-0.028 0.159-0.113 0.366-0.193 0.382-0.143 0.679-0.057 0.915 0.088 0.238 0.146 0.446 0.374 0.483 0.778 0.021 0.224-0.013 0.351-0.019 0.401-0.014 0.085 3e-3 0.238 0.157 0.363-0.408-0.181-0.805-0.388-1.193-0.627-0.383-0.235-0.743-0.504-1.085-0.785 0.177 0.076 0.3 0.027 0.376-0.025" fill="#c7c7c7"/>
  </g>
  <g transform="matrix(.35278 0 0 -.35278 44.617 149.87)">
   <path d="m0 0c-0.19 0.373-0.481 0.565-0.481 0.565l-0.153 0.067c-4e-3 -0.012-0.012-0.025-0.015-0.033-0.047-0.197 0.026-0.325 0.088-0.388 0.036-0.037 0.135-0.118 0.248-0.312 0.21-0.348 0.174-0.657 0.07-0.915-0.108-0.256-0.298-0.497-0.688-0.608-0.216-0.057-0.364-0.054-0.412-0.059-0.089-4e-3 -0.22-0.035-0.319-0.2-2e-3 -0.012-6e-3 -0.025-9e-3 -0.034l0.155-0.065s0.304-0.056 0.707 0.053c0.328 0.099 0.725 0.33 0.905 0.78 0.182 0.439 0.088 0.787-0.096 1.149" fill="#808080"/>
  </g>
  <g transform="matrix(.35278 0 0 -.35278 44.143 150.46)">
   <path d="m0 0c0.048 5e-3 0.196 2e-3 0.412 0.059 0.391 0.111 0.581 0.351 0.687 0.61 0.106 0.256 0.141 0.564-0.066 0.911-0.116 0.195-0.215 0.277-0.251 0.314-0.062 0.063-0.135 0.191-0.088 0.387-0.222-0.385-0.423-0.787-0.595-1.209-0.17-0.419-0.305-0.843-0.417-1.272 0.098 0.165 0.23 0.196 0.318 0.2" fill="#c7c7c7"/>
  </g>
  <g transform="matrix(.35278 0 0 -.35278 44.249 151.85)">
   <path d="m0 0c-0.373 0.191-0.723 0.176-0.723 0.176l-0.162-0.038c5e-3 -0.012 5e-3 -0.025 9e-3 -0.034 0.074-0.187 0.21-0.248 0.299-0.261 0.051-0.01 0.18-0.017 0.384-0.107 0.374-0.16 0.526-0.427 0.592-0.699 0.065-0.267 0.053-0.579-0.198-0.898-0.14-0.172-0.26-0.257-0.298-0.288-0.07-0.056-0.158-0.159-0.14-0.349 4e-3 -0.013 0.01-0.025 0.013-0.034l0.163 0.04s0.278 0.132 0.539 0.459c0.21 0.271 0.393 0.691 0.277 1.159-0.112 0.466-0.394 0.691-0.755 0.874" fill="#808080"/>
  </g>
  <g transform="matrix(.35278 0 0 -.35278 44.215 152.61)">
   <path d="m0 0c0.038 0.031 0.157 0.116 0.298 0.288 0.251 0.319 0.263 0.631 0.198 0.899-0.067 0.271-0.219 0.539-0.59 0.699-0.207 0.09-0.337 0.098-0.386 0.106-0.089 0.014-0.225 0.074-0.3 0.261 0.046-0.441 0.121-0.885 0.228-1.327 0.11-0.439 0.251-0.861 0.412-1.275-0.019 0.191 0.07 0.293 0.14 0.349" fill="#c7c7c7"/>
  </g>
  <g transform="matrix(.35278 0 0 -.35278 45.467 153.48)">
   <path d="m0 0-0.024-1e-3 -0.022-8e-3 -0.024-4e-3 -0.021-6e-3 -0.022-9e-3 -0.021-7e-3 -0.021-0.012-0.019-0.015-0.019-0.013-0.018-0.012-0.018-0.014-0.016-0.013-0.015-0.016-0.016-0.017-0.015-0.015h-1e-3l-0.362-0.434-0.197-0.235-0.515-0.612-0.119-0.144-0.186-0.223-0.011-0.013-8e-3 -0.012-0.011-0.013-7e-3 -0.014-0.01-0.014-6e-3 -0.019-8e-3 -0.014-6e-3 -0.017-3e-3 -0.014-5e-3 -0.022-4e-3 -0.014-3e-3 -0.02-1e-3 -0.017-1e-3 -0.019 1e-3 -0.019 1e-3 -0.023 3e-3 -0.024 7e-3 -0.023 8e-3 -0.023 9e-3 -0.028 0.014-0.024 0.016-0.028 0.022-0.028 0.026-0.025 0.193 0.232v1e-3l1e-3 3e-3h2e-3l5e-3 4e-3 2e-3 3e-3 6e-3 5e-3 6e-3 8e-3 4e-3 5e-3 6e-3 9e-3 8e-3 6e-3 8e-3 0.011 9e-3 9e-3 7e-3 0.011 0.012 0.01 0.01 0.014 0.01 0.011 0.013 0.016 0.012 0.013 0.012 0.012 0.013 0.018 0.014 0.016 0.015 0.018 0.015 0.016 0.015 0.018 0.021 0.027 0.022 0.024 0.021 0.023 0.021 0.029 0.021 0.025 0.022 0.026 0.022 0.024 0.021 0.028 0.021 0.023 0.021 0.027 0.022 0.025 0.021 0.026 0.023 0.024 0.021 0.026 0.022 0.027 0.02 0.026 0.02 0.024 0.022 0.027 0.022 0.023 0.023 0.025 0.019 0.028 0.022 0.025 0.023 0.025 0.021 0.027 0.01 0.012 0.014 0.016 0.012 0.013 0.013 0.015 0.013 0.013 0.014 0.017 0.011 0.015 0.015 0.016 0.013 0.014 0.015 0.017 0.014 0.016 0.013 0.017 0.015 0.019 0.014 0.016 0.015 0.015 0.014 0.019 0.032 0.032 0.013 0.017 0.015 0.017 0.016 0.019 0.015 0.014 0.015 0.02 0.017 0.018 0.615 0.732-0.021 0.018-0.023 0.019-0.024 0.011-0.025 0.01-0.025 8e-3 -0.027 6e-3 -0.023 3e-3 -0.025 1e-3" fill="#808080"/>
  </g>
  <g transform="matrix(.35278 0 0 -.35278 45.391 154.06)">
   <path d="m0 0-0.022-0.025-0.019-0.025-0.021-0.025-0.023-0.026-0.042-0.05-0.021-0.027-0.023-0.025-0.021-0.025-0.021-0.026-0.021-0.023-0.023-0.027-0.021-0.024-0.021-0.027-0.021-0.026-0.021-0.025-0.023-0.028-0.021-0.024-0.023-0.022-0.019-0.029-0.023-0.025-0.021-0.024-0.021-0.026-0.022-0.027-0.014-0.016-0.013-0.019-0.016-0.018-0.013-0.016-0.013-0.015-0.013-0.017-0.01-0.013-0.013-0.012-0.011-0.015-0.01-0.013-8e-3 -0.012-0.01-0.01-8e-3 -0.011-8e-3 -8e-3 -7e-3 -0.01-6e-3 -8e-3 -0.01-0.012-3e-3 -4e-3 -5e-3 -5e-3 -3e-3 -6e-3 -4e-3 -2e-3 -1e-3 -1e-3 -0.195-0.231 0.031-0.021 0.031-0.016 0.031-0.013 0.026-9e-3 0.029-6e-3 0.026-1e-3 0.022-2e-3 0.025 2e-3h0.021l0.018 5e-3 0.019 2e-3 0.018 6e-3 0.018 5e-3 0.018 0.01 0.014 4e-3 0.017 9e-3 0.014 8e-3 0.013 8e-3 0.015 0.011 0.014 0.011 0.012 0.011 0.013 0.01 0.01 0.013 0.011 0.012 0.185 0.221 0.125 0.146 0.511 0.609 0.198 0.239 0.362 0.429 0.015 0.021 0.013 0.018 0.013 0.016 0.011 0.018 0.02 0.04 0.01 0.021 8e-3 0.02 8e-3 0.022 0.01 0.046 3e-3 0.022v0.073l-3e-3 0.023-5e-3 0.025-8e-3 0.025-9e-3 0.022-0.011 0.025-0.016 0.024-0.018 0.018-0.019 0.021-0.022 0.016-0.615-0.734-0.014-0.017-0.017-0.019-0.011-0.018-0.016-0.017-0.016-0.018-0.013-0.019-0.013-0.016-0.015-0.018-0.015-0.019-0.014-0.015-0.015-0.017-0.026-0.036-0.027-0.031-0.013-0.019-0.013-0.014-0.013-0.017-0.012-0.013-0.014-0.016-0.01-0.016-0.013-0.012-0.012-0.018" fill="#808080"/>
  </g>
  <g transform="matrix(.35278 0 0 -.35278 -243.73 391.42)">
   <g clip-path="url(#clipPath8093)">
    <g transform="translate(817.53 672.56)">
     <path d="m0 0 1.876 2.354 2.313-1.846-1.878-2.354" fill="#808080"/>
    </g>
   </g>
  </g>
  <g transform="matrix(.35278 0 0 -.35278 45.569 153.51)">
   <path d="m0 0 0.411-0.345c0.039-0.029 0.046-0.084 0.019-0.119l-1.807-2.16c-0.027-0.032-0.081-0.033-0.118-2e-3l-0.412 0.343c-0.038 0.033-0.046 0.084-0.019 0.117l1.805 2.163c0.029 0.032 0.083 0.034 0.121 3e-3" fill="#444"/>
  </g>
  <g transform="matrix(.35278 0 0 -.35278 -243.73 391.42)">
   <g clip-path="url(#clipPath8109)">
    <g transform="translate(816.79 672.82)">
     <path d="m0 0 2.311 2.766 2.722-2.275-2.31-2.763" fill="#444"/>
    </g>
   </g>
  </g>
  <g transform="matrix(.35278 0 0 -.35278 81.766 151.49)">
   <path d="m0 0c0-4.544 3.684-8.228 8.228-8.228 4.547 0 8.232 3.684 8.232 8.228 0 4.548-3.685 8.232-8.232 8.232-4.544 0-8.228-3.684-8.228-8.232" fill="#808080"/>
  </g>
  <g transform="matrix(.35278 0 0 -.35278 82.669 153.49)">
   <path d="m0 0c-1.515 1.517-2.348 3.53-2.348 5.67 0 4.422 3.596 8.018 8.018 8.018 4.419 0 8.018-3.596 8.018-8.018s-3.599-8.016-8.018-8.016c-2.141 0-4.154 0.832-5.67 2.346" fill="#c7c7c7"/>
  </g>
  <g transform="matrix(.35278 0 0 -.35278 82.526 151.49)">
   <path d="m0 0c0-3.355 2.72-6.072 6.073-6.072 3.355 0 6.075 2.717 6.075 6.072 0 3.357-2.72 6.077-6.075 6.077-3.353 0-6.073-2.72-6.073-6.077" fill="#2e2e2e"/>
  </g>
  <g transform="matrix(.35278 0 0 -.35278 86.629 151.49)">
   <path d="m0 0c0 3.071-2.487 5.558-5.557 5.558-3.067 0-5.555-2.487-5.555-5.558 0-3.066 2.488-5.555 5.555-5.555 3.07 0 5.557 2.489 5.557 5.555"/>
  </g>
  <g transform="matrix(.35278 0 0 -.35278 62.517 149.97)">
   <path d="m0 0c-2.274-5.588 0.41-11.956 5.997-14.23 5.584-2.272 11.955 0.409 14.23 5.997 2.274 5.585-0.413 11.956-5.998 14.229-1.348 0.549-2.743 0.809-4.113 0.808-4.309 0-8.39-2.568-10.116-6.804" fill="#444"/>
   <path d="m0 0c-2.274-5.588 0.41-11.956 5.997-14.23 5.584-2.272 11.955 0.409 14.23 5.997 2.274 5.585-0.413 11.956-5.998 14.229-1.348 0.549-2.743 0.809-4.113 0.808-4.309 0-8.39-2.568-10.116-6.804" fill="none" stroke="#000" stroke-miterlimit="10" stroke-width=".269"/>
  </g>
  <g transform="matrix(.35278 0 0 -.35278 68.969 151.42)">
   <path d="m0 0c0-4.519-3.659-8.18-8.176-8.18-4.514 0-8.177 3.661-8.177 8.18 0 4.515 3.663 8.178 8.177 8.178 4.517 0 8.176-3.663 8.176-8.178" fill="#c7c7c7"/>
  </g>
  <g transform="matrix(.35278 0 0 -.35278 65.489 154.63)">
   <path d="m0 0c-0.294-0.294-0.389-0.63-0.389-0.63l-0.013-0.168c0.012 0 0.025-4e-3 0.035-4e-3 0.198 0.014 0.3 0.126 0.34 0.205 0.026 0.045 0.071 0.167 0.22 0.334 0.269 0.303 0.572 0.366 0.849 0.347 0.277-0.02 0.566-0.128 0.79-0.467 0.121-0.184 0.169-0.327 0.185-0.374 0.029-0.084 0.102-0.197 0.289-0.241 0.011 0 0.026 3e-3 0.035 3e-3l0.013 0.165s-0.04 0.309-0.273 0.658c-0.191 0.28-0.536 0.588-1.013 0.62-0.477 0.035-0.778-0.161-1.068-0.448" fill="#808080"/>
  </g>
  <g transform="matrix(.35278 0 0 -.35278 66.2 154.9)">
   <path d="m0 0c-0.016 0.047-0.064 0.189-0.186 0.374-0.223 0.339-0.512 0.447-0.79 0.467-0.276 0.018-0.579-0.044-0.847-0.347-0.15-0.168-0.197-0.289-0.221-0.334-0.04-0.079-0.143-0.191-0.34-0.205 0.434-0.09 0.878-0.158 1.331-0.192 0.452-0.03 0.9-0.029 1.343-4e-3 -0.188 0.044-0.26 0.157-0.29 0.241" fill="#c7c7c7"/>
  </g>
  <g transform="matrix(.35278 0 0 -.35278 67.489 154.37)">
   <path d="m0 0c-0.064-0.409 0.056-0.738 0.056-0.738l0.088-0.144c0.01 6e-3 0.021 0.012 0.03 0.019 0.153 0.125 0.17 0.278 0.156 0.364-6e-3 0.051-0.041 0.176-0.018 0.398 0.038 0.406 0.245 0.634 0.482 0.781 0.235 0.146 0.534 0.23 0.914 0.087 0.207-0.079 0.327-0.163 0.368-0.193 0.074-0.051 0.199-0.1 0.376-0.026 9e-3 7e-3 0.02 0.016 0.027 0.022l-0.087 0.143s-0.214 0.225-0.606 0.371c-0.322 0.115-0.781 0.162-1.185-0.094-0.408-0.251-0.538-0.588-0.601-0.99" fill="#808080"/>
  </g>
  <g transform="matrix(.35278 0 0 -.35278 68.221 154.17)">
   <path d="m0 0c-0.041 0.029-0.161 0.114-0.368 0.192-0.38 0.144-0.678 0.06-0.914-0.088-0.237-0.145-0.444-0.374-0.482-0.776-0.023-0.225 0.011-0.351 0.018-0.401 0.015-0.086-3e-3 -0.24-0.154-0.365 0.404 0.181 0.801 0.387 1.189 0.627 0.384 0.238 0.744 0.505 1.087 0.785-0.176-0.075-0.301-0.025-0.376 0.026" fill="#c7c7c7"/>
  </g>
  <g transform="matrix(.35278 0 0 -.35278 68.953 152.98)">
   <path d="m0 0c0.188-0.372 0.479-0.567 0.479-0.567l0.154-0.064c5e-3 0.011 0.01 0.021 0.015 0.031 0.048 0.197-0.027 0.326-0.089 0.388-0.036 0.037-0.137 0.12-0.25 0.314-0.206 0.348-0.174 0.657-0.068 0.911 0.105 0.258 0.297 0.501 0.688 0.609 0.215 0.057 0.363 0.057 0.412 0.057 0.09 6e-3 0.221 0.04 0.318 0.205 5e-3 0.011 7e-3 0.023 0.01 0.034l-0.154 0.062s-0.306 0.058-0.709-0.054c-0.327-0.097-0.726-0.33-0.904-0.777-0.181-0.439-0.088-0.786 0.098-1.149" fill="#808080"/>
  </g>
  <g transform="matrix(.35278 0 0 -.35278 69.426 152.39)">
   <path d="m0 0c-0.049 0-0.198 0-0.412-0.057-0.392-0.108-0.583-0.351-0.688-0.609-0.107-0.254-0.139-0.563 0.067-0.91 0.114-0.195 0.215-0.278 0.251-0.315 0.061-0.062 0.137-0.191 0.089-0.386 0.221 0.383 0.42 0.785 0.594 1.208 0.17 0.422 0.305 0.844 0.417 1.274-0.098-0.165-0.229-0.199-0.318-0.205" fill="#c7c7c7"/>
  </g>
  <g transform="matrix(.35278 0 0 -.35278 69.321 151)">
   <path d="m0 0c0.374-0.188 0.72-0.177 0.72-0.177l0.163 0.043c-3e-3 0.011-3e-3 0.021-7e-3 0.034-0.074 0.183-0.212 0.247-0.298 0.26-0.051 9e-3 -0.181 0.016-0.387 0.107-0.371 0.161-0.525 0.428-0.591 0.699-0.067 0.268-0.054 0.578 0.199 0.895 0.14 0.175 0.258 0.261 0.299 0.29 0.069 0.056 0.156 0.16 0.138 0.352-2e-3 0.012-0.01 0.022-0.013 0.031l-0.162-0.04s-0.281-0.132-0.54-0.461c-0.209-0.268-0.393-0.69-0.275-1.156 0.112-0.464 0.392-0.691 0.754-0.877" fill="#808080"/>
  </g>
  <g transform="matrix(.35278 0 0 -.35278 69.355 150.24)">
   <path d="m0 0c-0.041-0.029-0.159-0.115-0.299-0.29-0.252-0.317-0.266-0.627-0.199-0.896 0.066-0.27 0.221-0.538 0.589-0.699 0.208-0.091 0.338-0.097 0.389-0.106 0.086-0.013 0.224-0.077 0.298-0.26-0.047 0.44-0.121 0.882-0.229 1.327-0.108 0.438-0.249 0.861-0.41 1.276 0.018-0.193-0.07-0.296-0.139-0.352" fill="#c7c7c7"/>
  </g>
  <g transform="matrix(.35278 0 0 -.35278 68.453 149.18)">
   <path d="m0 0c0.412 0.064 0.687 0.279 0.687 0.279l0.108 0.128c-0.01 8e-3 -0.016 0.017-0.027 0.025-0.167 0.104-0.315 0.075-0.395 0.035-0.047-0.023-0.154-0.094-0.373-0.14-0.396-0.09-0.678 0.037-0.891 0.217-0.211 0.178-0.383 0.435-0.365 0.842 0.011 0.223 0.055 0.361 0.071 0.411 0.024 0.085 0.035 0.221-0.094 0.365-9e-3 6e-3 -0.022 0.013-0.03 0.019l-0.107-0.128s-0.15-0.272-0.166-0.689c-0.011-0.343 0.089-0.794 0.456-1.1 0.364-0.309 0.724-0.327 1.126-0.264" fill="#808080"/>
  </g>
  <g transform="matrix(.35278 0 0 -.35278 68.035 148.55)">
   <path d="m0 0c-0.017-0.05-0.061-0.188-0.072-0.411-0.018-0.407 0.155-0.664 0.366-0.842 0.213-0.18 0.495-0.307 0.888-0.22 0.221 0.049 0.33 0.12 0.376 0.143 0.079 0.04 0.228 0.069 0.395-0.034-0.297 0.328-0.618 0.641-0.963 0.937-0.347 0.29-0.711 0.552-1.085 0.792 0.129-0.144 0.118-0.28 0.095-0.365" fill="#c7c7c7"/>
  </g>
  <g transform="matrix(.35278 0 0 -.35278 66.681 148.22)">
   <path d="m0 0c0.296 0.296 0.392 0.629 0.392 0.629l0.013 0.168c-0.013 1e-3 -0.025 4e-3 -0.036 4e-3 -0.199-0.014-0.3-0.125-0.341-0.203-0.025-0.046-0.07-0.166-0.219-0.333-0.268-0.306-0.571-0.369-0.848-0.349-0.278 0.021-0.566 0.128-0.791 0.466-0.123 0.187-0.168 0.328-0.184 0.375-0.031 0.083-0.102 0.196-0.29 0.24-0.011 2e-3 -0.026-1e-3 -0.035-1e-3l-0.013-0.167s0.039-0.308 0.271-0.656c0.192-0.282 0.536-0.588 1.016-0.621 0.476-0.035 0.779 0.161 1.065 0.448" fill="#808080"/>
  </g>
  <g transform="matrix(.35278 0 0 -.35278 65.97 147.95)">
   <path d="m0 0c0.016-0.047 0.061-0.188 0.184-0.375 0.224-0.338 0.512-0.445 0.791-0.466 0.277-0.019 0.58 0.043 0.848 0.348 0.149 0.168 0.196 0.288 0.219 0.334 0.041 0.078 0.142 0.189 0.34 0.203-0.434 0.092-0.877 0.155-1.332 0.193-0.45 0.032-0.897 0.03-1.34 3e-3 0.187-0.044 0.258-0.157 0.29-0.24" fill="#c7c7c7"/>
  </g>
  <g transform="matrix(.35278 0 0 -.35278 64.681 148.48)">
   <path d="m0 0c0.066 0.409-0.054 0.737-0.054 0.737l-0.088 0.143c-9e-3 -4e-3 -0.021-0.01-0.03-0.019-0.154-0.125-0.171-0.277-0.157-0.362 7e-3 -0.05 0.04-0.177 0.017-0.398-0.035-0.408-0.243-0.635-0.48-0.782-0.236-0.144-0.534-0.23-0.916-0.088-0.207 0.081-0.325 0.165-0.366 0.194-0.075 0.052-0.199 0.1-0.376 0.025-0.01-7e-3 -0.02-0.016-0.029-0.021l0.089-0.144s0.212-0.224 0.605-0.374c0.322-0.112 0.779-0.157 1.187 0.099 0.407 0.249 0.536 0.587 0.598 0.99" fill="#808080"/>
  </g>
  <g transform="matrix(.35278 0 0 -.35278 63.949 148.68)">
   <path d="m0 0c0.04-0.028 0.159-0.113 0.365-0.193 0.383-0.143 0.68-0.057 0.915 0.088 0.238 0.146 0.447 0.374 0.483 0.778 0.021 0.224-0.013 0.351-0.018 0.401-0.015 0.085 3e-3 0.238 0.156 0.363-0.408-0.181-0.804-0.388-1.192-0.627-0.383-0.235-0.744-0.504-1.086-0.785 0.177 0.076 0.3 0.027 0.377-0.025" fill="#c7c7c7"/>
  </g>
  <g transform="matrix(.35278 0 0 -.35278 63.218 149.87)">
   <path d="m0 0c-0.19 0.373-0.481 0.565-0.481 0.565l-0.153 0.067c-4e-3 -0.012-0.012-0.025-0.015-0.033-0.047-0.197 0.026-0.325 0.088-0.388 0.036-0.037 0.135-0.118 0.248-0.312 0.21-0.348 0.174-0.657 0.07-0.915-0.108-0.256-0.298-0.497-0.688-0.608-0.216-0.057-0.364-0.054-0.412-0.059-0.089-4e-3 -0.22-0.035-0.319-0.2-2e-3 -0.012-6e-3 -0.025-9e-3 -0.034l0.155-0.065s0.304-0.056 0.707 0.053c0.328 0.099 0.725 0.33 0.905 0.78 0.182 0.439 0.088 0.787-0.096 1.149" fill="#808080"/>
  </g>
  <g transform="matrix(.35278 0 0 -.35278 62.744 150.46)">
   <path d="m0 0c0.048 5e-3 0.196 2e-3 0.412 0.059 0.391 0.111 0.581 0.351 0.687 0.61 0.106 0.256 0.141 0.564-0.066 0.911-0.116 0.195-0.215 0.277-0.251 0.314-0.062 0.063-0.135 0.191-0.088 0.387-0.222-0.385-0.423-0.787-0.595-1.209-0.17-0.419-0.305-0.843-0.417-1.272 0.098 0.165 0.23 0.196 0.318 0.2" fill="#c7c7c7"/>
  </g>
  <g transform="matrix(.35278 0 0 -.35278 62.849 151.85)">
   <path d="m0 0c-0.373 0.191-0.723 0.176-0.723 0.176l-0.162-0.038c5e-3 -0.012 5e-3 -0.025 9e-3 -0.034 0.074-0.187 0.21-0.248 0.299-0.261 0.051-0.01 0.18-0.017 0.384-0.107 0.374-0.16 0.526-0.427 0.592-0.699 0.065-0.267 0.053-0.579-0.198-0.898-0.14-0.172-0.26-0.257-0.298-0.288-0.07-0.056-0.158-0.159-0.14-0.349 4e-3 -0.013 0.01-0.025 0.013-0.034l0.163 0.04s0.278 0.132 0.539 0.459c0.21 0.271 0.393 0.691 0.277 1.159-0.112 0.466-0.394 0.691-0.755 0.874" fill="#808080"/>
  </g>
  <g transform="matrix(.35278 0 0 -.35278 62.816 152.61)">
   <path d="m0 0c0.038 0.031 0.157 0.116 0.298 0.288 0.251 0.319 0.263 0.631 0.198 0.899-0.067 0.271-0.219 0.539-0.59 0.699-0.207 0.09-0.337 0.098-0.386 0.106-0.089 0.014-0.225 0.074-0.3 0.261 0.046-0.441 0.121-0.885 0.228-1.327 0.11-0.439 0.251-0.861 0.412-1.275-0.019 0.191 0.07 0.293 0.14 0.349" fill="#c7c7c7"/>
  </g>
  <g transform="matrix(.35278 0 0 -.35278 64.067 153.48)">
   <path d="m0 0-0.024-1e-3 -0.021-8e-3 -0.025-4e-3 -0.021-6e-3 -0.021-9e-3 -0.021-7e-3 -0.021-0.012-0.02-0.015-0.019-0.013-0.018-0.012-0.018-0.014-0.016-0.013-0.045-0.048h-2e-3l-0.362-0.434-0.197-0.235-0.514-0.612-0.12-0.144-0.185-0.223-0.012-0.013-8e-3 -0.012-0.011-0.013-7e-3 -0.014-9e-3 -0.014-7e-3 -0.019-8e-3 -0.014-5e-3 -0.017-3e-3 -0.014-5e-3 -0.022-5e-3 -0.014-3e-3 -0.02v-0.017l-2e-3 -0.019 2e-3 -0.019v-0.023l3e-3 -0.024 7e-3 -0.023 8e-3 -0.023 9e-3 -0.028 0.015-0.024 0.015-0.028 0.022-0.028 0.026-0.025 0.194 0.232v4e-3h3e-3l5e-3 4e-3 1e-3 3e-3 7e-3 5e-3 5e-3 8e-3 5e-3 5e-3 6e-3 9e-3 8e-3 6e-3 7e-3 0.011 9e-3 9e-3 7e-3 0.011 0.013 0.01 0.01 0.014 9e-3 0.011 0.013 0.016 0.012 0.013 0.013 0.012 0.013 0.018 0.013 0.016 0.016 0.018 0.014 0.016 0.015 0.018 0.021 0.027 0.023 0.024 0.021 0.023 0.021 0.029 0.02 0.025 0.022 0.026 0.023 0.024 0.02 0.028 0.021 0.023 0.021 0.027 0.022 0.025 0.022 0.026 0.022 0.024 0.021 0.026 0.023 0.027 0.02 0.026 0.019 0.024 0.023 0.027 0.021 0.023 0.023 0.025 0.019 0.028 0.046 0.05 0.021 0.027 9e-3 0.012 0.015 0.016 0.011 0.013 0.013 0.015 0.013 0.013 0.015 0.017 0.01 0.015 0.016 0.016 0.013 0.014 0.015 0.017 0.013 0.016 0.013 0.017 0.016 0.019 0.013 0.016 0.016 0.015 0.013 0.019 0.032 0.032 0.013 0.017 0.015 0.017 0.016 0.019 0.015 0.014 0.016 0.02 0.016 0.018 0.616 0.732-0.021 0.018-0.023 0.019-0.025 0.011-0.024 0.01-0.026 8e-3 -0.026 6e-3 -0.024 3e-3 -0.025 1e-3" fill="#808080"/>
  </g>
  <g transform="matrix(.35278 0 0 -.35278 63.992 154.06)">
   <path d="m0 0-0.022-0.025-0.02-0.025-0.021-0.025-0.022-0.026-0.022-0.025-0.021-0.025-0.021-0.027-0.044-0.05-0.021-0.026-0.021-0.023-0.022-0.027-0.022-0.024-0.02-0.027-0.022-0.026-0.021-0.025-0.022-0.028-0.022-0.024-0.022-0.022-0.019-0.029-0.023-0.025-0.021-0.024-0.021-0.026-0.022-0.027-0.014-0.016-0.014-0.019-0.015-0.018-0.013-0.016-0.013-0.015-0.013-0.017-0.011-0.013-0.012-0.012-0.011-0.015-0.01-0.013-9e-3 -0.012-0.01-0.01-7e-3 -0.011-8e-3 -8e-3 -7e-3 -0.01-6e-3 -8e-3 -5e-3 -6e-3 -6e-3 -6e-3 -3e-3 -4e-3 -5e-3 -5e-3 -2e-3 -6e-3 -4e-3 -2e-3 -1e-3 -1e-3 -0.195-0.231 0.031-0.021 0.031-0.016 0.03-0.013 0.027-9e-3 0.028-6e-3 0.026-1e-3 0.023-2e-3 0.024 2e-3h0.021l0.019 5e-3 0.019 2e-3 0.017 6e-3 0.019 5e-3 0.017 0.01 0.015 4e-3 0.016 9e-3 0.015 8e-3 0.013 8e-3 0.015 0.011 0.014 0.011 0.011 0.011 0.013 0.01 0.011 0.013 0.011 0.012 0.185 0.221 0.124 0.146 0.512 0.609 0.198 0.239 0.362 0.429 0.014 0.021 0.013 0.018 0.013 0.016 0.012 0.018 0.02 0.04 9e-3 0.021 8e-3 0.02 8e-3 0.022 6e-3 0.023 4e-3 0.023 4e-3 0.022v0.073l-4e-3 0.023-4e-3 0.025-8e-3 0.025-9e-3 0.022-0.012 0.025-0.016 0.024-0.018 0.018-0.019 0.021-0.021 0.016-0.615-0.734-0.014-0.017-0.017-0.019-0.012-0.018-0.015-0.017-0.016-0.018-0.013-0.019-0.014-0.016-0.015-0.018-0.014-0.019-0.014-0.015-0.015-0.017-0.014-0.018-0.013-0.018-0.013-0.016-0.013-0.015-0.014-0.019-0.012-0.014-0.013-0.017-0.012-0.013-0.014-0.016-0.011-0.016-0.013-0.012-0.011-0.018" fill="#808080"/>
  </g>
  <g transform="matrix(.35278 0 0 -.35278 -243.73 391.42)">
   <g clip-path="url(#clipPath8229)">
    <g transform="translate(870.25 672.56)">
     <path d="m0 0 1.876 2.354 2.313-1.846-1.878-2.354" fill="#808080"/>
    </g>
   </g>
  </g>
  <g transform="matrix(.35278 0 0 -.35278 64.169 153.51)">
   <path d="m0 0 0.411-0.345c0.039-0.029 0.046-0.084 0.019-0.119l-1.807-2.16c-0.027-0.032-0.081-0.033-0.118-2e-3l-0.412 0.343c-0.038 0.033-0.046 0.084-0.019 0.117l1.805 2.163c0.029 0.032 0.083 0.034 0.121 3e-3" fill="#444"/>
  </g>
  <g transform="matrix(.35278 0 0 -.35278 -243.73 391.42)">
   <g clip-path="url(#clipPath8245)">
    <g transform="translate(869.51 672.82)">
     <path d="m0 0 2.311 2.766 2.722-2.275-2.31-2.763" fill="#444"/>
    </g>
   </g>
  </g>
  <g transform="matrix(.35278 0 0 -.35278 68.424 156.32)">
   <path d="m0 0c0-0.704 0.571-1.275 1.273-1.275 0.704 0 1.277 0.571 1.277 1.275 0 0.705-0.573 1.278-1.277 1.278-0.702 0-1.273-0.573-1.273-1.278" fill="#fff"/>
  </g>
  <g transform="matrix(.35278 0 0 -.35278 62.847 156.32)">
   <path d="m0 0c0-0.704 0.571-1.276 1.274-1.276 0.708 0 1.276 0.572 1.276 1.276 0 0.702-0.568 1.273-1.276 1.273-0.703 0-1.274-0.571-1.274-1.273" fill="#fff"/>
  </g>
  <g transform="matrix(.35278 0 0 -.35278 49.84 156.32)">
   <path d="m0 0c0-0.704 0.571-1.275 1.273-1.275 0.705 0 1.277 0.571 1.277 1.275 0 0.705-0.572 1.278-1.277 1.278-0.702 0-1.273-0.573-1.273-1.278" fill="#fff"/>
  </g>
  <g transform="matrix(.35278 0 0 -.35278 44.264 156.32)">
   <path d="m0 0c0-0.704 0.571-1.276 1.274-1.276 0.707 0 1.277 0.572 1.277 1.276 0 0.702-0.57 1.273-1.277 1.273-0.703 0-1.274-0.571-1.274-1.273" fill="#fff"/>
  </g>
  <g transform="matrix(.35278 0 0 -.35278 100.97 158.92)">
   <path d="m0 0v-4.391h0.596c1.214 0 2.197 0.984 2.197 2.195 0 1.213-0.983 2.196-2.197 2.196"/>
  </g>
  <g transform="matrix(.35278 0 0 -.35278 47.485 155.79)">
   <path d="m0 0v-33.065" fill="none" stroke="#fff" stroke-miterlimit="10" stroke-width="1.6"/>
  </g>
  <g transform="matrix(.35278 0 0 -.35278 46.593 156.05)">
   <path d="M 0,0 2.541,4.404 5.084,0"/>
   <path d="M 0,0 2.541,4.404 5.084,0 Z" fill="none" stroke="#fff" stroke-miterlimit="10"/>
  </g>
  <g transform="matrix(.35278 0 0 -.35278 47.485 155.79)">
   <path d="m0 0v-33.065" fill="none" stroke="#000" stroke-miterlimit="10" stroke-width=".6"/>
  </g>
  <g transform="matrix(.35278 0 0 -.35278 46.593 156.05)">
   <path d="M 0,0 2.541,4.404 5.084,0"/>
  </g>
  <g transform="matrix(.35278 0 0 -.35278 66.079 155.79)">
   <path d="m0 0v-33.065" fill="none" stroke="#fff" stroke-miterlimit="10" stroke-width="1.6"/>
  </g>
  <g transform="matrix(.35278 0 0 -.35278 65.188 156.05)">
   <path d="M 0,0 2.541,4.404 5.084,0"/>
   <path d="M 0,0 2.541,4.404 5.084,0 Z" fill="none" stroke="#fff" stroke-miterlimit="10"/>
  </g>
  <g transform="matrix(.35278 0 0 -.35278 66.079 155.79)">
   <path d="m0 0v-33.065" fill="none" stroke="#000" stroke-miterlimit="10" stroke-width=".6"/>
  </g>
  <g transform="matrix(.35278 0 0 -.35278 65.188 156.05)">
   <path d="M 0,0 2.541,4.404 5.084,0"/>
  </g>
  <g transform="matrix(.35278 0 0 -.35278 84.674 154.38)">
   <path d="m0 0v-37.065" fill="none" stroke="#fff" stroke-miterlimit="10" stroke-width="1.6"/>
  </g>
  <g transform="matrix(.35278 0 0 -.35278 83.783 154.64)">
   <path d="M 0,0 2.541,4.404 5.084,0"/>
   <path d="M 0,0 2.541,4.404 5.084,0 Z" fill="none" stroke="#fff" stroke-miterlimit="10"/>
  </g>
  <g transform="matrix(.35278 0 0 -.35278 84.674 154.38)">
   <path d="m0 0v-37.065" fill="none" stroke="#000" stroke-miterlimit="10" stroke-width=".6"/>
  </g>
  <g transform="matrix(.35278 0 0 -.35278 83.783 154.64)">
   <path d="M 0,0 2.541,4.404 5.084,0"/>
  </g>
  <g fill="#000000" font-family="SQFRoundCond1D_V1" font-size="4.5861px" stroke-width=".35278">
   <text x="45.541065" y="171.07651"><tspan x="45.541065" y="171.07651" font-family="'Open Sans Condensed'" stroke-width=".35278">(1)</tspan></text>
   <text x="64.227394" y="171.13226"><tspan x="64.227394" y="171.13226" font-family="'Open Sans Condensed'" stroke-width=".35278">(2)</tspan></text>
   <text x="82.742218" y="171.27928"><tspan x="82.742218" y="171.27928" font-family="'Open Sans Condensed'" stroke-width=".35278">(3)</tspan></text>
  </g>
 </g>
</svg>
