<?xml version="1.0" encoding="UTF-8"?>
<svg width="42.578mm" height="43.799mm" version="1.1" viewBox="0 0 42.578 43.799" xmlns="http://www.w3.org/2000/svg">
 <defs>
  <clipPath id="clipPath7405">
   <path d="m847.27 367.22 12.894 22.333-22.332 12.893-12.894-22.332"/>
  </clipPath>
  <clipPath id="clipPath7411">
   <path d="m833.11 384.84c0-5.213 4.227-9.438 9.438-9.438 5.213 0 9.439 4.225 9.439 9.438 0 5.214-4.226 9.44-9.439 9.44-5.211 0-9.438-4.226-9.438-9.44"/>
  </clipPath>
  <clipPath id="clipPath7419">
   <path d="m847.27 367.22 12.894 22.332-22.332 12.894-12.894-22.332z"/>
  </clipPath>
  <linearGradient id="linearGradient7425" x2="1" gradientTransform="matrix(10.452 18.103 -18.103 10.452 838.06 377.02)" gradientUnits="userSpaceOnUse">
   <stop stop-color="#5a5a5a" offset="0"/>
   <stop offset="1"/>
  </linearGradient>
  <clipPath id="clipPath7443">
   <path d="m845.09 400.86-18.559-13.484 13.484-18.56 18.56 13.484"/>
  </clipPath>
  <clipPath id="clipPath7449">
   <path d="m834.34 384.84c0-4.535 3.678-8.211 8.212-8.211 4.537 0 8.212 3.676 8.212 8.211 0 4.537-3.675 8.213-8.212 8.213-4.534 0-8.212-3.676-8.212-8.213"/>
  </clipPath>
  <clipPath id="clipPath7457">
   <path d="m845.09 400.86-18.559-13.484 13.484-18.559 18.559 13.484z"/>
  </clipPath>
  <linearGradient id="linearGradient7463" x2="1" gradientTransform="matrix(-19.17 -13.928 13.928 -19.17 853.76 392.96)" gradientUnits="userSpaceOnUse">
   <stop stop-color="#fff" offset="0"/>
   <stop offset="1"/>
  </linearGradient>
  <clipPath id="clipPath7473">
   <path d="m834.99 377.28h15.118v15.118h-15.118z"/>
  </clipPath>
  <clipPath id="clipPath7479">
   <path d="m834.99 384.84c0-4.174 3.385-7.559 7.56-7.559 4.173 0 7.558 3.385 7.558 7.559 0 4.175-3.385 7.559-7.558 7.559-4.175 0-7.56-3.384-7.56-7.559"/>
  </clipPath>
  <clipPath id="clipPath7487">
   <path d="m834.99 377.28h15.118v15.118h-15.118z"/>
  </clipPath>
  <radialGradient id="radialGradient7495" cx="0" cy="0" r="1" gradientTransform="matrix(7.5657 0 0 7.5657 842.55 384.83)" gradientUnits="userSpaceOnUse">
   <stop stop-color="#797979" offset="0"/>
   <stop stop-color="#5f5f5f" offset=".8956"/>
   <stop stop-color="#161616" offset="1"/>
  </radialGradient>
  <clipPath id="clipPath7739">
   <path d="m804.11 479.06h120.69v-125h-120.69z"/>
  </clipPath>
  <clipPath id="clipPath7859">
   <path d="m875.32 445.17-0.011-0.015-0.016-0.015-0.01-0.016-0.011-0.014-0.014-0.015-0.012-0.015-0.011-0.014-0.012-0.013-0.013-0.017-0.011-0.014-0.012-0.013-0.01-0.014-0.012-0.016-0.01-0.011-0.012-0.014-0.014-0.016-9e-3 -0.012-9e-3 -0.014-0.011-0.011-0.01-0.013-0.011-0.013-0.01-0.01-9e-3 -0.016-0.01-0.013-0.018-0.02-0.016-0.021-0.021-0.021-0.016-0.023-0.018-0.018-0.018-0.022-0.017-0.022-0.019-0.022-0.017-0.019-0.017-0.022-0.019-0.021-0.019-0.02-0.016-0.02-0.018-0.024-0.018-0.02-0.017-0.022-0.019-0.021-0.017-0.023-0.019-0.02-0.017-0.022-0.017-0.019-0.019-0.021-0.018-0.022-0.017-0.023-0.012-0.013-0.013-0.016-0.012-0.015-0.01-0.011-0.011-0.015-0.012-0.013-9e-3 -0.012-0.027-0.033-0.016-0.018-5e-3 -9e-3 -7e-3 -7e-3 -4e-3 -8e-3 -6e-3 -8e-3 -4e-3 -4e-3 -8e-3 -5e-3 -2e-3 -3e-3 -4e-3 -4e-3v-4e-3l-2e-3 -1e-3 -3e-3 -2e-3v-1e-3l-0.161-0.192 0.024-0.018 0.027-0.013 0.024-9e-3 0.045-0.015 0.023-1e-3 0.018-3e-3 0.022 3e-3h0.017l0.014 4e-3 0.018 4e-3 0.028 8e-3 0.015 8e-3 0.013 3e-3 0.015 8e-3 0.01 6e-3 0.013 7e-3 0.01 0.01 0.012 0.01 0.012 8e-3 8e-3 8e-3 0.01 0.011 8e-3 0.011 0.154 0.183 0.103 0.12 0.428 0.51 0.164 0.196 0.301 0.359 0.012 0.017 0.011 0.013 0.01 0.015 0.011 0.015 8e-3 0.014 9e-3 0.019 8e-3 0.018 5e-3 0.015 7e-3 0.02 3e-3 0.02 6e-3 0.018 1e-3 0.02v0.058l-1e-3 0.02-6e-3 0.02-4e-3 0.021-8e-3 0.019-0.01 0.02-0.016 0.019-0.012 0.017-0.016 0.016-0.018 0.016"/>
  </clipPath>
  <clipPath id="clipPath7875">
   <path d="m875.37 446.13-1.504-1.801c-0.021-0.025-0.016-0.07 0.015-0.096l0.343-0.286c0.031-0.026 0.077-0.025 0.099 1e-3l1.503 1.799c0.023 0.03 0.017 0.072-0.015 0.098l-0.34 0.287c-0.017 0.013-0.037 0.02-0.055 0.02s-0.035-7e-3 -0.046-0.022"/>
  </clipPath>
 </defs>
 <g transform="translate(-102.69 -93.005)">
  <g transform="matrix(.35278 0 0 -.35278 141.61 126.24)">
   <path d="m0 0v85.572c0 3.168-2.592 5.76-5.76 5.76h-86.488v-91.332" fill="#6b6b6b"/>
   <path d="m0 0v85.572c0 3.168-2.592 5.76-5.76 5.76h-86.488v-91.332z" fill="none" stroke="#000" stroke-width=".75"/>
  </g>
  <g transform="matrix(.35278 0 0 -.35278 -180.98 262.01)">
   <g clip-path="url(#clipPath7405)">
    <g clip-path="url(#clipPath7411)">
     <g clip-path="url(#clipPath7419)">
      <path d="m833.11 384.84c0-5.213 4.227-9.438 9.438-9.438 5.213 0 9.439 4.225 9.439 9.438 0 5.214-4.226 9.44-9.439 9.44-5.211 0-9.438-4.226-9.438-9.44" fill="url(#linearGradient7425)"/>
     </g>
    </g>
   </g>
  </g>
  <g transform="matrix(.35278 0 0 -.35278 119.04 126.24)">
   <path d="m0 0c0-4.365-3.539-7.904-7.905-7.904-4.365 0-7.904 3.539-7.904 7.904 0 4.366 3.539 7.904 7.904 7.904 4.366 0 7.905-3.538 7.905-7.904" fill="#020202"/>
   <path d="m0 0c0-4.365-3.539-7.904-7.905-7.904-4.365 0-7.904 3.539-7.904 7.904 0 4.366 3.539 7.904 7.904 7.904 4.366 0 7.905-3.538 7.905-7.904z" fill="none" stroke="#515151" stroke-width=".094"/>
  </g>
  <g transform="matrix(.35278 0 0 -.35278 -180.98 262.01)">
   <g clip-path="url(#clipPath7443)">
    <g clip-path="url(#clipPath7449)">
     <g clip-path="url(#clipPath7457)">
      <path d="m834.34 384.84c0-4.535 3.678-8.211 8.212-8.211 4.537 0 8.212 3.676 8.212 8.211 0 4.537-3.675 8.213-8.212 8.213-4.534 0-8.212-3.676-8.212-8.213" fill="url(#linearGradient7463)"/>
     </g>
    </g>
   </g>
   <g clip-path="url(#clipPath7473)">
    <g clip-path="url(#clipPath7479)">
     <g clip-path="url(#clipPath7487)">
      <path d="m834.99 384.84c0-4.174 3.385-7.559 7.56-7.559 4.173 0 7.558 3.385 7.558 7.559 0 4.175-3.385 7.559-7.558 7.559-4.175 0-7.56-3.384-7.56-7.559" fill="url(#radialGradient7495)"/>
     </g>
    </g>
   </g>
  </g>
  <g transform="matrix(.35278 0 0 -.35278 113.5 121.69)">
   <path d="m0 0v-0.039c-2e-3 -6e-3 -4e-3 -0.014-4e-3 -0.022v-0.021c-4e-3 -0.013-6e-3 -0.025-8e-3 -0.039-1e-3 -0.012-2e-3 -0.024-2e-3 -0.033 0-0.144 0.03-0.252 0.086-0.326 0.059-0.075 0.122-0.112 0.193-0.116h0.036c8e-3 0 0.015 2e-3 0.021 5e-3 0.059 0.013 0.11 0.046 0.157 0.099 0.046 0.053 0.07 0.124 0.07 0.213 0 0.093-0.031 0.174-0.094 0.24-0.062 0.067-0.141 0.131-0.233 0.191-0.046 0.034-0.091 0.063-0.14 0.092-0.048 0.029-0.096 0.061-0.145 0.096-0.152 0.099-0.293 0.223-0.421 0.37-0.127 0.147-0.192 0.346-0.192 0.595 0 4e-3 0 7e-3 2e-3 9e-3 2e-3 4e-3 2e-3 8e-3 2e-3 0.015 0 3e-3 2e-3 7e-3 3e-3 0.01s3e-3 7e-3 3e-3 9e-3c0 0.017 0 0.033 2e-3 0.048 2e-3 0.016 2e-3 0.032 2e-3 0.048 0.029 0.189 0.127 0.361 0.293 0.517 0.166 0.154 0.379 0.232 0.639 0.232 0.259 0 0.487-0.078 0.683-0.235 0.197-0.157 0.296-0.405 0.296-0.744v-0.068h-0.7v0.092c0 0.112-0.024 0.199-0.069 0.26-0.044 0.061-0.093 0.098-0.148 0.114-0.013 3e-3 -0.024 5e-3 -0.033 7e-3 -0.01 2e-3 -0.02 3e-3 -0.029 3e-3h-0.014c-0.055-3e-3 -0.106-0.027-0.152-0.072-0.046-0.044-0.07-0.101-0.07-0.168 0-0.099 0.034-0.181 0.103-0.247s0.154-0.127 0.253-0.186c0.038-0.025 0.079-0.049 0.122-0.074 0.043-0.023 0.088-0.049 0.132-0.074 0.147-0.086 0.282-0.197 0.406-0.333 0.122-0.136 0.188-0.329 0.199-0.579v-0.081c0-0.378-0.102-0.636-0.306-0.775-0.203-0.14-0.439-0.209-0.707-0.209l-0.101-6e-3c-0.272 0.017-0.481 0.108-0.627 0.274-0.145 0.167-0.217 0.402-0.217 0.707 0 0.015 0 0.031 2e-3 0.047 2e-3 0.015 2e-3 0.032 2e-3 0.049v0.038c4e-3 8e-3 5e-3 0.02 5e-3 0.034v0.033" fill="#fff"/>
  </g>
  <g transform="matrix(.35278 0 0 -.35278 114.84 121.64)">
   <path d="m0 0v-0.514c0-0.244-0.077-0.427-0.228-0.552-0.152-0.125-0.32-0.206-0.501-0.245-0.055-0.013-0.11-0.021-0.165-0.027-0.054-4e-3 -0.105-6e-3 -0.153-6e-3 -0.358 0-0.622 0.08-0.794 0.24s-0.257 0.423-0.257 0.791v1.426c0 0.253 0.077 0.468 0.234 0.646 0.154 0.178 0.427 0.266 0.817 0.266 0.318 0 0.57-0.078 0.761-0.232 0.191-0.156 0.286-0.393 0.286-0.713v-0.279h-0.816v0.413c0 0.063-0.024 0.114-0.07 0.151-0.047 0.037-0.098 0.059-0.156 0.065h-0.048c-0.061-6e-3 -0.114-0.03-0.163-0.07-0.048-0.04-0.072-0.1-0.072-0.18v-1.694c0-0.074 0.024-0.134 0.072-0.179 0.049-0.047 0.102-0.074 0.163-0.08h0.043c7e-3 0 0.012 2e-3 0.015 5e-3 0.064 6e-3 0.121 0.037 0.173 0.09 0.05 0.055 0.077 0.131 0.077 0.231v0.447" fill="#fff"/>
  </g>
  <g transform="matrix(.35278 0 0 -.35278 115.34 121.45)">
   <path d="m0 0c0.074 0 0.142 0.029 0.204 0.09 0.063 0.06 0.094 0.16 0.094 0.299v0.09c-0.032 0.186-0.089 0.294-0.171 0.324-0.082 0.031-0.184 0.046-0.305 0.046v-0.849zm-0.951 1.381h1.119c0.266 0 0.48-0.063 0.643-0.187 0.164-0.124 0.253-0.329 0.269-0.614 0-0.205-0.031-0.375-0.094-0.509-0.062-0.134-0.169-0.235-0.318-0.301 0.117-0.034 0.211-0.083 0.277-0.151 0.068-0.066 0.102-0.15 0.102-0.254l0.033-0.777c0-0.118 0.015-0.198 0.043-0.24 0.029-0.041 0.059-0.063 0.092-0.063v-0.1h-0.682c-0.099 0-0.164 0.015-0.192 0.045-0.028 0.031-0.043 0.106-0.043 0.223v0.668c0 0.106-0.021 0.184-0.063 0.234-0.042 0.052-0.12 0.079-0.235 0.079h-0.178v-1.249h-0.773" fill="#fff"/>
  </g>
  <g transform="matrix(.35278 0 0 -.35278 116.37 121.66)">
   <path d="m0 0-0.196 1.415-0.211-1.415zm-0.609 1.981h0.879l0.714-3.196h-0.782l-0.1 0.634h-0.577l-0.1-0.634h-0.769" fill="#fff"/>
  </g>
  <g transform="matrix(.35278 0 0 -.35278 116.96 121.18)">
   <path d="m0 0h-0.601v0.633h1.95v-0.633h-0.567v-2.563h-0.782" fill="#fff"/>
  </g>
  <g transform="matrix(.35278 0 0 -.35278 118.33 121.64)">
   <path d="m0 0v-0.514c0-0.244-0.076-0.427-0.229-0.552-0.152-0.125-0.318-0.206-0.5-0.245-0.055-0.013-0.11-0.021-0.164-0.027-0.054-4e-3 -0.105-6e-3 -0.154-6e-3 -0.358 0-0.623 0.08-0.795 0.24-0.17 0.16-0.256 0.423-0.256 0.791v1.426c0 0.253 0.078 0.468 0.233 0.646s0.427 0.266 0.818 0.266c0.318 0 0.57-0.078 0.762-0.232 0.189-0.156 0.285-0.393 0.285-0.713v-0.279h-0.816v0.413c0 0.063-0.024 0.114-0.07 0.151s-0.098 0.059-0.156 0.065h-0.048c-0.06-6e-3 -0.115-0.03-0.163-0.07s-0.071-0.1-0.071-0.18v-1.694c0-0.074 0.023-0.134 0.071-0.179 0.048-0.047 0.103-0.074 0.163-0.08h0.043c6e-3 0 0.012 2e-3 0.016 5e-3 0.062 6e-3 0.121 0.037 0.172 0.09 0.05 0.055 0.076 0.131 0.076 0.231v0.447" fill="#fff"/>
  </g>
  <g transform="matrix(.35278 0 0 -.35278 118.49 120.96)">
   <path d="m0 0h0.772v-1.213h0.509v1.213h0.782v-3.196h-0.782v1.315h-0.509v-1.315h-0.772" fill="#fff"/>
  </g>
  <g transform="matrix(.35278 0 0 -.35278 127.81 97.716)">
   <path d="m0 0h1.08l0.369-1.915 0.399 1.915h1.047v-3.196h-0.702l0.069 2.462-0.549-2.462h-0.532l-0.547 2.462 0.1-2.462h-0.734" fill="#fff"/>
  </g>
  <g transform="matrix(.35278 0 0 -.35278 129.46 98.415)">
   <path d="m0 0-0.197 1.415-0.211-1.415zm-0.61 1.981h0.879l0.714-3.196h-0.782l-0.1 0.633h-0.578l-0.099-0.633h-0.769" fill="#fff"/>
  </g>
  <path d="m129.97 98.844h0.27237v-1.1275h-0.27237z" fill="#fff"/>
  <g transform="matrix(.35278 0 0 -.35278 130.42 97.716)">
   <path d="m0 0h0.771l0.61-1.848-0.1 1.848h0.748v-3.196h-0.782l-0.609 1.781 0.1-1.781h-0.738" fill="#fff"/>
  </g>
  <g transform="matrix(.35278 0 0 -.35278 128.47 115.59)">
   <path d="m0 0-1.273 0.639v-0.456h-5.47c0.426 0.419 1.139 1.12 1.208 1.187h0.866c0.079-0.263 0.321-0.456 0.61-0.456 0.352 0 0.637 0.287 0.637 0.639 0 0.351-0.285 0.638-0.637 0.638-0.289 0-0.531-0.192-0.61-0.455h-0.938c-0.05 0-0.096-0.019-0.128-0.053 0 0-1.429-1.404-1.529-1.5h-0.662c-0.086 0.421-0.455 0.739-0.9 0.739-0.508 0-0.92-0.414-0.92-0.922s0.412-0.92 0.92-0.92c0.445 0 0.814 0.316 0.9 0.736h2.006c0.098-0.095 1.525-1.498 1.525-1.498 0.034-0.034 0.079-0.052 0.127-0.052h0.955v-0.456h1.276v1.276h-1.276v-0.456h-0.879c-0.07 0.068-0.783 0.768-1.21 1.186h4.129v-0.455" fill="#fff"/>
  </g>
  <g transform="matrix(.35278 0 0 -.35278 134.2 116.2)">
   <path d="m0 0c0-0.76-0.622-1.382-1.382-1.382h-24.109c-0.76 0-1.383 0.622-1.383 1.382v3.418c0 0.76 0.623 1.381 1.383 1.381h24.109c0.76 0 1.382-0.621 1.382-1.381z" fill="none" stroke="#fff" stroke-width=".346"/>
  </g>
  <path d="m129.68 116.45h0.0889v-0.46108h-0.0889z" fill="#fff"/>
  <path d="m129.77 116.45h-0.0889v-0.46108h0.0889z" fill="none" stroke="#fff" stroke-width=".016228"/>
  <g transform="matrix(.35278 0 0 -.35278 130.22 116.37)">
   <path d="m0 0-0.021 1.091h0.25v-1.306h-0.416l-0.555 1.091h-0.01l0.022-1.091h-0.25v1.306h0.414l0.558-1.091" fill="#fff"/>
   <path d="m0 0-0.021 1.091h0.25v-1.306h-0.416l-0.555 1.091h-0.01l0.022-1.091h-0.25v1.306h0.414l0.558-1.091z" fill="none" stroke="#fff" stroke-width=".046"/>
  </g>
  <g transform="matrix(.35278 0 0 -.35278 130.61 116.06)">
   <path d="m0 0v-1.092h-0.252v1.092h-0.383v0.215h1.018v-0.215" fill="#fff"/>
   <path d="m0 0v-1.092h-0.252v1.092h-0.383v0.215h1.018v-0.215z" fill="none" stroke="#fff" stroke-width=".046"/>
  </g>
  <g transform="matrix(.35278 0 0 -.35278 130.92 116.06)">
   <path d="m0 0v-0.324h0.611v-0.207h-0.611v-0.346h0.65v-0.215h-0.9v1.307h0.895v-0.215" fill="#fff"/>
   <path d="m0 0v-0.324h0.611v-0.207h-0.611v-0.346h0.65v-0.215h-0.9v1.307h0.895v-0.215z" fill="none" stroke="#fff" stroke-width=".046"/>
  </g>
  <g transform="matrix(.35278 0 0 -.35278 131.33 116.22)">
   <path d="m0 0h0.33c0.094 0 0.156 0.014 0.186 0.043 0.029 0.029 0.045 0.092 0.045 0.185 0 0.092-0.014 0.151-0.04 0.178-0.027 0.027-0.083 0.039-0.173 0.039h-0.348zm0.385-0.215h-0.385v-0.431h-0.252v1.306h0.668c0.145 0 0.246-0.029 0.307-0.086 0.058-0.058 0.088-0.16 0.088-0.306 0-0.116-0.01-0.198-0.034-0.244-0.031-0.067-0.097-0.108-0.198-0.124v-7e-3c0.085-6e-3 0.145-0.036 0.179-0.084 0.028-0.043 0.043-0.114 0.043-0.211v-0.244h-0.252v0.244c0 0.125-0.055 0.187-0.164 0.187" fill="#fff"/>
   <path d="m0 0h0.33c0.094 0 0.156 0.014 0.186 0.043 0.029 0.029 0.045 0.092 0.045 0.185 0 0.092-0.014 0.151-0.04 0.178-0.027 0.027-0.083 0.039-0.173 0.039h-0.348z" fill="none" stroke="#fff" stroke-width=".046"/>
   <g transform="translate(.385 -.215)">
    <path d="m0 0h-0.385v-0.431h-0.252v1.306h0.668c0.145 0 0.246-0.029 0.307-0.086 0.058-0.058 0.088-0.16 0.088-0.306 0-0.116-0.01-0.198-0.034-0.244-0.031-0.067-0.097-0.108-0.198-0.124v-7e-3c0.085-6e-3 0.145-0.036 0.179-0.084 0.028-0.043 0.043-0.114 0.043-0.211v-0.244h-0.252v0.244c0 0.125-0.055 0.187-0.164 0.187z" fill="none" stroke="#fff" stroke-width=".046"/>
   </g>
  </g>
  <g transform="matrix(.35278 0 0 -.35278 131.81 116.06)">
   <path d="m0 0v-0.346h0.582v-0.206h-0.582v-0.54h-0.252v1.307h0.865v-0.215" fill="#fff"/>
   <path d="m0 0v-0.346h0.582v-0.206h-0.582v-0.54h-0.252v1.307h0.865v-0.215z" fill="none" stroke="#fff" stroke-width=".046"/>
  </g>
  <g transform="matrix(.35278 0 0 -.35278 132.36 116.29)">
   <path d="m0 0-0.225 0.678h-4e-3l-0.222-0.678zm0.056-0.189h-0.564l-0.082-0.249h-0.26l0.434 1.307h0.369l0.443-1.307h-0.254" fill="#fff"/>
   <path d="m0 0-0.225 0.678h-4e-3l-0.222-0.678z" fill="none" stroke="#fff" stroke-width=".046"/>
   <g transform="translate(.056 -.189)">
    <path d="m0 0h-0.564l-0.082-0.249h-0.26l0.434 1.307h0.369l0.443-1.307h-0.254z" fill="none" stroke="#fff" stroke-width=".046"/>
   </g>
  </g>
  <g transform="matrix(.35278 0 0 -.35278 132.94 116.14)">
   <path d="m0 0h-0.251v0.072c0 0.071-0.02 0.117-0.058 0.137-0.031 0.016-0.105 0.025-0.22 0.025-0.127 0-0.209-0.018-0.244-0.053-0.036-0.036-0.053-0.118-0.053-0.245v-0.29c0-0.132 0.017-0.218 0.052-0.255 0.034-0.037 0.116-0.056 0.245-0.056 0.113 0 0.187 9e-3 0.222 0.026 0.047 0.026 0.069 0.081 0.069 0.167v0.072h0.252v-0.086c0-0.123-0.024-0.215-0.071-0.274-0.038-0.051-0.1-0.084-0.187-0.098-0.043-9e-3 -0.139-0.016-0.285-0.021-0.222-0.01-0.37 0.026-0.448 0.108-0.066 0.07-0.099 0.207-0.099 0.408v0.299c0 0.202 0.043 0.339 0.129 0.413 0.076 0.065 0.217 0.098 0.418 0.098 0.195 0 0.324-0.015 0.386-0.047 0.095-0.048 0.143-0.158 0.143-0.328" fill="#fff"/>
   <path d="m0 0h-0.251v0.072c0 0.071-0.02 0.117-0.058 0.137-0.031 0.016-0.105 0.025-0.22 0.025-0.127 0-0.209-0.018-0.244-0.053-0.036-0.036-0.053-0.118-0.053-0.245v-0.29c0-0.132 0.017-0.218 0.052-0.255 0.034-0.037 0.116-0.056 0.245-0.056 0.113 0 0.187 9e-3 0.222 0.026 0.047 0.026 0.069 0.081 0.069 0.167v0.072h0.252v-0.086c0-0.123-0.024-0.215-0.071-0.274-0.038-0.051-0.1-0.084-0.187-0.098-0.043-9e-3 -0.139-0.016-0.285-0.021-0.222-0.01-0.37 0.026-0.448 0.108-0.066 0.07-0.099 0.207-0.099 0.408v0.299c0 0.202 0.043 0.339 0.129 0.413 0.076 0.065 0.217 0.098 0.418 0.098 0.195 0 0.324-0.015 0.386-0.047 0.095-0.048 0.143-0.158 0.143-0.328z" fill="none" stroke="#fff" stroke-width=".046"/>
  </g>
  <g transform="matrix(.35278 0 0 -.35278 133.13 116.06)">
   <path d="m0 0v-0.324h0.611v-0.207h-0.611v-0.346h0.65v-0.215h-0.9v1.307h0.895v-0.215" fill="#fff"/>
   <path d="m0 0v-0.324h0.611v-0.207h-0.611v-0.346h0.65v-0.215h-0.9v1.307h0.895v-0.215z" fill="none" stroke="#fff" stroke-width=".046"/>
  </g>
  <g transform="matrix(.35278 0 0 -.35278 128.84 114.5)">
   <path d="m0 0v-6.181" fill="none" stroke="#fff" stroke-width=".346"/>
   <path d="m0 0v-3.52h15.196v2.446c0 0.592-0.484 1.074-1.075 1.074" fill="#fff"/>
   <path d="m0 0v-3.52h15.196v2.446c0 0.592-0.484 1.074-1.075 1.074z" fill="none" stroke="#fff" stroke-width=".346"/>
  </g>
  <g transform="matrix(.35278 0 0 -.35278 130.67 114.71)">
   <path d="m0 0v-1.659c0-0.193-0.088-0.349-0.264-0.474-0.166-0.123-0.371-0.183-0.617-0.183h-1.717c-0.246 0-0.451 0.06-0.617 0.183-0.176 0.125-0.264 0.281-0.264 0.474v1.659h0.692v-1.659c0-0.032 6e-3 -0.056 0.016-0.069 9e-3 -0.013 0.017-0.02 0.024-0.024 0.026-0.02 0.077-0.031 0.149-0.031h1.717c0.072 0 0.123 0.011 0.15 0.031 6e-3 4e-3 0.014 0.011 0.024 0.024 0.011 0.013 0.016 0.037 0.016 0.069v1.659h0.601"/>
   <path d="m0 0v-1.659c0-0.193-0.088-0.349-0.264-0.474-0.166-0.123-0.371-0.183-0.617-0.183h-1.717c-0.246 0-0.451 0.06-0.617 0.183-0.176 0.125-0.264 0.281-0.264 0.474v1.659h0.692v-1.659c0-0.032 6e-3 -0.056 0.016-0.069 9e-3 -0.013 0.017-0.02 0.024-0.024 0.026-0.02 0.077-0.031 0.149-0.031h1.717c0.072 0 0.123 0.011 0.15 0.031 6e-3 4e-3 0.014 0.011 0.024 0.024 0.011 0.013 0.016 0.037 0.016 0.069v1.659z" fill="none" stroke="#000" stroke-width=".046"/>
  </g>
  <g transform="matrix(.35278 0 0 -.35278 132.12 114.71)">
   <path d="m0 0v-0.529h-2.509c-0.046 0-0.09-0.014-0.131-0.041-0.043-0.029-0.062-0.057-0.062-0.086v-0.108c0-0.04 0.012-0.071 0.037-0.093 0.025-0.023 0.076-0.034 0.156-0.034h1.618c0.232 0 0.437-0.058 0.613-0.175 0.179-0.127 0.267-0.288 0.267-0.483v-0.11c0-0.184-0.091-0.341-0.273-0.47-0.182-0.125-0.385-0.187-0.607-0.187h-2.512v0.529h2.512c0.046 0 0.089 0.014 0.129 0.039 0.04 0.027 0.06 0.057 0.06 0.089v0.11c0 0.035-5e-3 0.059-0.014 0.07-0.011 0.012-0.019 0.022-0.025 0.026-0.028 0.019-0.076 0.028-0.15 0.028l-1.618 4e-3c-0.245 0-0.452 0.06-0.621 0.18-0.176 0.124-0.265 0.284-0.265 0.477v0.108c0 0.18 0.091 0.336 0.275 0.466 0.179 0.127 0.383 0.19 0.611 0.19h2.419"/>
   <path d="m0 0v-0.529h-2.509c-0.046 0-0.09-0.014-0.131-0.041-0.043-0.029-0.062-0.057-0.062-0.086v-0.108c0-0.04 0.012-0.071 0.037-0.093 0.025-0.023 0.076-0.034 0.156-0.034h1.618c0.232 0 0.437-0.058 0.613-0.175 0.179-0.127 0.267-0.288 0.267-0.483v-0.11c0-0.184-0.091-0.341-0.273-0.47-0.182-0.125-0.385-0.187-0.607-0.187h-2.512v0.529h2.512c0.046 0 0.089 0.014 0.129 0.039 0.04 0.027 0.06 0.057 0.06 0.089v0.11c0 0.035-5e-3 0.059-0.014 0.07-0.011 0.012-0.019 0.022-0.025 0.026-0.028 0.019-0.076 0.028-0.15 0.028l-1.618 4e-3c-0.245 0-0.452 0.06-0.621 0.18-0.176 0.124-0.265 0.284-0.265 0.477v0.108c0 0.18 0.091 0.336 0.275 0.466 0.179 0.127 0.383 0.19 0.611 0.19z" fill="none" stroke="#000" stroke-width=".046"/>
  </g>
  <g transform="matrix(.35278 0 0 -.35278 133.35 114.95)">
   <path d="m0 0c0 0.037-0.013 0.067-0.037 0.092-0.026 0.023-0.078 0.035-0.158 0.035h-1.93v-1.25h1.93c0.08 0 0.132 0.012 0.158 0.033 0.024 0.024 0.037 0.053 0.037 0.09v0.119c0 0.023-8e-3 0.039-0.021 0.055-0.012 0.013-0.03 0.025-0.049 0.034-0.02 7e-3 -0.041 0.013-0.065 0.017-0.023 4e-3 -0.043 6e-3 -0.06 6e-3h-1.631v0.539h1.631c0.09 0 0.144 0.011 0.166 0.035 0.019 0.023 0.029 0.05 0.029 0.08zm0.687-0.115c0-0.147-0.056-0.275-0.169-0.383 0.07-0.068 0.115-0.141 0.138-0.215 0.02-0.063 0.031-0.16 0.031-0.287 0-0.193-0.089-0.352-0.265-0.473-0.165-0.123-0.371-0.183-0.617-0.183h-2.618v2.313h2.618c0.246 0 0.452-0.061 0.617-0.183 0.176-0.122 0.265-0.281 0.265-0.474"/>
   <path d="m0 0c0 0.037-0.013 0.067-0.037 0.092-0.026 0.023-0.078 0.035-0.158 0.035h-1.93v-1.25h1.93c0.08 0 0.132 0.012 0.158 0.033 0.024 0.024 0.037 0.053 0.037 0.09v0.119c0 0.023-8e-3 0.039-0.021 0.055-0.012 0.013-0.03 0.025-0.049 0.034-0.02 7e-3 -0.041 0.013-0.065 0.017-0.023 4e-3 -0.043 6e-3 -0.06 6e-3h-1.631v0.539h1.631c0.09 0 0.144 0.011 0.166 0.035 0.019 0.023 0.029 0.05 0.029 0.08z" fill="none" stroke="#000" stroke-width=".046"/>
   <g transform="translate(.687 -.115)">
    <path d="m0 0c0-0.147-0.056-0.275-0.169-0.383 0.07-0.068 0.115-0.141 0.138-0.215 0.02-0.063 0.031-0.16 0.031-0.287 0-0.193-0.089-0.352-0.265-0.473-0.165-0.123-0.371-0.183-0.617-0.183h-2.618v2.313h2.618c0.246 0 0.452-0.061 0.617-0.183 0.176-0.122 0.265-0.281 0.265-0.474z" fill="none" stroke="#000" stroke-width=".046"/>
   </g>
  </g>
  <g transform="matrix(.35278 0 0 -.35278 132.17 98.277)">
   <path d="m0 0h8.756" fill="none" stroke="#fff" stroke-linecap="round" stroke-width=".8"/>
   <g transform="translate(-24.131)">
    <path d="m0 0h8.756" fill="none" stroke="#fff" stroke-linecap="round" stroke-width=".8"/>
   </g>
  </g>
  <g transform="matrix(.35278 0 0 -.35278 131.26 106.52)">
   <path d="m0 0c0-0.462 0.374-0.836 0.836-0.836 0.463 0 0.836 0.374 0.836 0.836s-0.373 0.838-0.836 0.838c-0.462 0-0.836-0.376-0.836-0.838" fill="#fff"/>
  </g>
  <g transform="matrix(.35278 0 0 -.35278 127.06 106.52)">
   <path d="m0 0c0-0.463 0.375-0.838 0.838-0.838 0.462 0 0.836 0.375 0.836 0.838 0 0.461-0.374 0.836-0.836 0.836-0.463 0-0.838-0.375-0.838-0.836" fill="#fff"/>
  </g>
  <g transform="matrix(.35278 0 0 -.35278 112.32 102.88)">
   <path d="m0 0c0 5.034-4.081 9.115-9.114 9.115-5.035 0-9.116-4.081-9.116-9.115 0-5.033 4.081-9.115 9.116-9.115 5.033 0 9.114 4.082 9.114 9.115" fill="#c7c7c7"/>
  </g>
  <g transform="matrix(.35278 0 0 -.35278 106.06 102.87)">
   <path d="m0 0c0-4.77 3.866-8.635 8.635-8.635s8.636 3.865 8.636 8.635c0 4.769-3.867 8.635-8.636 8.635s-8.635-3.866-8.635-8.635" fill="#2e2e2e"/>
  </g>
  <g transform="matrix(.35278 0 0 -.35278 109.06 100.73)">
   <path d="m0 0c-0.047-8e-3 -0.094-0.02-0.139-0.037-0.044-0.015-0.086-0.035-0.127-0.059-0.038-0.021-0.076-0.047-0.111-0.075-0.033-0.026-0.064-0.058-0.095-0.09-0.028-0.032-0.055-0.065-0.079-0.1-0.023-0.036-0.045-0.075-0.062-0.112-0.018-0.04-0.033-0.079-0.045-0.119-0.014-0.041-0.022-0.083-0.029-0.125-6e-3 -0.041-0.01-0.084-0.01-0.129 0-0.041 4e-3 -0.085 0.01-0.127 7e-3 -0.041 0.015-0.084 0.029-0.124 0.012-0.04 0.027-0.081 0.045-0.118 0.017-0.039 0.039-0.076 0.062-0.111 0.024-0.036 0.051-0.07 0.079-0.103 0.031-0.032 0.062-0.062 0.095-0.089 0.035-0.029 0.072-0.053 0.111-0.076 0.041-0.022 0.083-0.043 0.126-0.058 0.046-0.016 0.093-0.03 0.14-0.037 0.047-9e-3 0.096-0.013 0.145-0.013 0.048 0 0.099 4e-3 0.148 0.014 0.049 8e-3 0.098 0.022 0.145 0.04 0.046 0.017 0.091 0.041 0.134 0.066s0.084 0.056 0.12 0.088c0.038 0.033 0.072 0.068 0.103 0.107 0.03 0.039 0.059 0.08 0.081 0.123 0.023 0.043 0.044 0.088 0.06 0.133 0.015 0.047 0.027 0.094 0.036 0.143 7e-3 0.047 0.01 0.095 0.01 0.144 0 0.048-3e-3 0.098-0.01 0.145-9e-3 0.048-0.021 0.095-0.036 0.14-0.017 0.046-0.037 0.092-0.06 0.134-0.023 0.043-0.051 0.085-0.081 0.123-0.031 0.038-0.066 0.073-0.103 0.108-0.037 0.032-0.077 0.061-0.12 0.087s-0.088 0.048-0.134 0.066c-0.047 0.019-0.096 0.031-0.145 0.041-0.051 8e-3 -0.1 0.014-0.148 0.014-0.049 0-0.098-5e-3 -0.145-0.014" fill="#fff"/>
  </g>
  <g transform="matrix(.35278 0 0 -.35278 106.03 108.12)">
   <path d="m0 0h17.214c1.245 0 2.262-1.018 2.262-2.262v-6.054c0-1.245-1.017-2.262-2.262-2.262h-17.214" fill="#c7c7c7"/>
  </g>
  <g transform="matrix(.35278 0 0 -.35278 105.68 111)">
   <path d="m0 0c0-0.625 0.511-1.134 1.134-1.134h16.933c0.623 0 1.133 0.509 1.133 1.134v5.771c0 0.625-0.51 1.134-1.133 1.134h-16.933c-0.623 0-1.134-0.509-1.134-1.134"/>
  </g>
  <g transform="matrix(.35278 0 0 -.35278 109.09 109.78)">
   <path d="m0 0-0.617-0.98h0.617zm-1.297-1.561v0.581l1.205 1.949h0.899v-1.949h0.357v-0.581h-0.357v-0.599h-0.807v0.599" fill="#c7c7c7"/>
  </g>
  <g transform="matrix(.35278 0 0 -.35278 112.91 126.24)">
   <path d="m0 0c0-5.213 4.227-9.438 9.439-9.438 5.213 0 9.439 4.225 9.439 9.438 0 5.214-4.226 9.439-9.439 9.439-5.212 0-9.439-4.225-9.439-9.439" fill="#2e2e2e"/>
  </g>
  <g transform="matrix(.35278 0 0 -.35278 113.34 126.24)">
   <path d="m0 0c0-4.535 3.678-8.211 8.213-8.211s8.212 3.676 8.212 8.211c0 4.537-3.677 8.213-8.212 8.213s-8.213-3.676-8.213-8.213" fill="#808080"/>
  </g>
  <g transform="matrix(.35278 0 0 -.35278 113.57 126.24)">
   <path d="m0 0c0-4.174 3.383-7.559 7.557-7.559s7.558 3.385 7.558 7.559c0 4.175-3.384 7.559-7.558 7.559s-7.557-3.384-7.557-7.559" fill="#c7c7c7"/>
   <path d="m0 0c0-4.174 3.383-7.559 7.557-7.559s7.558 3.385 7.558 7.559c0 4.175-3.384 7.559-7.558 7.559s-7.557-3.384-7.557-7.559" fill="none" stroke="#000" stroke-width=".1"/>
  </g>
  <g transform="matrix(.35278 0 0 -.35278 133 129.21)">
   <path d="m0 0c-0.515-0.515-1.224-0.834-2.002-0.834h-16.081c-0.778 0-1.486 0.318-2 0.832-0.646 0.645-0.834 1.447-0.834 2.332v12.078c0 0.926 0.152 1.758 0.834 2.438 0.514 0.512 1.222 0.83 2 0.83h16.081c0.778 0 1.487-0.318 2.002-0.832 0.681-0.68 0.833-1.512 0.833-2.436v-12.076c0-0.885-0.187-1.687-0.833-2.332" fill="#c7c7c7"/>
  </g>
  <g transform="matrix(.35278 0 0 -.35278 132.25 128.91)">
   <path d="m0 0c0.695 0 1.266 0.569 1.266 1.266v12.579c0 0.696-0.571 1.263-1.266 1.263h-15.819c-0.696 0-1.265-0.567-1.265-1.263v-12.579c0-0.697 0.569-1.266 1.265-1.266"/>
  </g>
  <g transform="matrix(.35278 0 0 -.35278 129.58 126.93)">
   <path d="m0 0c0.195 0.084 0.293 0.311 0.293 0.683 0 0.344-0.105 0.561-0.316 0.647-0.211 0.087-0.49 0.147-0.834 0.178v-1.632c0.377 0 0.662 0.042 0.857 0.124m-0.066 2.795c0.15 0.101 0.225 0.326 0.225 0.672 0 0.166-0.046 0.297-0.139 0.392-0.092 0.097-0.223 0.145-0.389 0.145h-0.488v-1.363c0.377 0 0.64 0.05 0.791 0.154m-2.271 2.342h2.103c0.499 0 0.951-0.114 1.353-0.341 0.403-0.228 0.606-0.626 0.606-1.195 0-0.365-0.061-0.65-0.178-0.855-0.119-0.205-0.248-0.351-0.389-0.441-0.058-0.032-0.116-0.059-0.174-0.082-0.056-0.022-0.109-0.036-0.153-0.043 0.339-0.166 0.585-0.357 0.734-0.571 0.152-0.214 0.226-0.546 0.226-0.994 0-0.601-0.15-1.064-0.451-1.386-0.301-0.325-0.803-0.486-1.508-0.486h-2.169" fill="#c7c7c7"/>
  </g>
  <g transform="matrix(.35278 0 0 -.35278 -180.98 262.01)">
   <g clip-path="url(#clipPath7739)" fill="#fff">
    <path d="m804.11 377.28h18.356v101.78h-18.356z"/>
    <path d="m804.11 356.01h120.69v28.825h-120.69z"/>
   </g>
  </g>
  <g transform="matrix(.35278 0 0 -.35278 109.23 94.025)">
   <path d="m0 0v-1.5" fill="none" stroke="#000" stroke-width=".75"/>
  </g>
  <path d="m109.24 95.628v29.549" fill="none" stroke="#000" stroke-dasharray="1.07456, 1.07456" stroke-width=".26458"/>
  <g transform="matrix(.35278 0 0 -.35278 109.23 125.71)">
   <path d="m0 0v-1.5h1.5" fill="none" stroke="#000" stroke-width=".75"/>
  </g>
  <path d="m110.84 126.24h29.699" fill="none" stroke="#000" stroke-dasharray="1.07985, 1.07985" stroke-width=".26458"/>
  <g transform="matrix(.35278 0 0 -.35278 141.08 126.24)">
   <path d="m0 0h1.496" fill="none" stroke="#000" stroke-width=".75"/>
  </g>
  <g transform="matrix(.35278 0 0 -.35278 126.49 101.68)">
   <path d="m0 0c-1.893-4.65 0.34-9.949 4.989-11.842 4.647-1.889 9.949 0.341 11.842 4.99 1.892 4.649-0.344 9.951-4.992 11.841-1.122 0.458-2.279 0.674-3.422 0.674-3.586 0-6.981-2.138-8.417-5.663" fill="#444"/>
   <path d="m0 0c-1.893-4.65 0.34-9.949 4.989-11.842 4.647-1.889 9.949 0.341 11.842 4.99 1.892 4.649-0.344 9.951-4.992 11.841-1.122 0.458-2.279 0.674-3.422 0.674-3.586 0-6.981-2.138-8.417-5.663" fill="none" stroke="#000" stroke-miterlimit="10" stroke-width=".224"/>
  </g>
  <g transform="matrix(.35278 0 0 -.35278 131.86 102.88)">
   <path d="m0 0c0-3.759-3.045-6.807-6.803-6.807s-6.802 3.048-6.802 6.807c0 3.757 3.044 6.803 6.802 6.803s6.803-3.046 6.803-6.803" fill="#c7c7c7"/>
  </g>
  <g transform="matrix(.35278 0 0 -.35278 128.96 105.55)">
   <path d="m0 0c-0.246-0.246-0.324-0.526-0.324-0.526l-0.011-0.139c0.01 0 0.021-2e-3 0.028-2e-3 0.164 0.01 0.25 0.104 0.286 0.169 0.02 0.038 0.058 0.14 0.182 0.278 0.224 0.252 0.475 0.305 0.706 0.289 0.231-0.017 0.471-0.106 0.656-0.388 0.102-0.156 0.141-0.273 0.155-0.311 0.024-0.07 0.083-0.165 0.242-0.201 9e-3 0 0.02 2e-3 0.027 2e-3l0.011 0.139s-0.032 0.256-0.227 0.545c-0.158 0.235-0.446 0.491-0.843 0.517-0.399 0.03-0.647-0.134-0.888-0.372" fill="#808080"/>
  </g>
  <g transform="matrix(.35278 0 0 -.35278 129.55 105.78)">
   <path d="m0 0c-0.014 0.038-0.053 0.155-0.154 0.311-0.186 0.282-0.426 0.371-0.657 0.388-0.231 0.016-0.482-0.037-0.706-0.289-0.124-0.139-0.165-0.24-0.182-0.278-0.035-0.065-0.121-0.159-0.285-0.169 0.362-0.075 0.73-0.133 1.109-0.16 0.376-0.028 0.747-0.025 1.117-4e-3 -0.159 0.036-0.217 0.131-0.242 0.201" fill="#c7c7c7"/>
  </g>
  <g transform="matrix(.35278 0 0 -.35278 130.62 105.34)">
   <path d="m0 0c-0.054-0.342 0.047-0.615 0.047-0.615l0.073-0.118c0.01 4e-3 0.017 8e-3 0.026 0.013 0.126 0.105 0.14 0.232 0.129 0.305-5e-3 0.042-0.035 0.146-0.017 0.33 0.034 0.338 0.206 0.528 0.403 0.651 0.197 0.122 0.445 0.192 0.761 0.073 0.172-0.066 0.272-0.138 0.307-0.161 0.059-0.042 0.166-0.085 0.312-0.021 7e-3 7e-3 0.016 0.014 0.022 0.018l-0.072 0.117s-0.178 0.189-0.506 0.31c-0.266 0.095-0.648 0.135-0.986-0.078-0.339-0.21-0.446-0.489-0.499-0.824" fill="#808080"/>
  </g>
  <g transform="matrix(.35278 0 0 -.35278 131.23 105.17)">
   <path d="m0 0c-0.034 0.023-0.135 0.096-0.307 0.161-0.315 0.119-0.563 0.049-0.76-0.073-0.198-0.122-0.37-0.313-0.404-0.65-0.017-0.185 0.012-0.29 0.018-0.331 0.011-0.073-3e-3 -0.2-0.13-0.304 0.338 0.149 0.668 0.323 0.989 0.523 0.322 0.197 0.62 0.419 0.907 0.653-0.147-0.064-0.253-0.021-0.313 0.021" fill="#c7c7c7"/>
  </g>
  <g transform="matrix(.35278 0 0 -.35278 131.84 104.18)">
   <path d="m0 0c0.156-0.31 0.398-0.471 0.398-0.471l0.129-0.053c4e-3 9e-3 9e-3 0.017 0.011 0.026 0.042 0.16-0.02 0.27-0.073 0.322-0.03 0.031-0.113 0.099-0.208 0.261-0.17 0.29-0.145 0.546-0.057 0.76 0.088 0.213 0.248 0.414 0.572 0.506 0.181 0.047 0.303 0.047 0.344 0.047 0.074 4e-3 0.184 0.033 0.266 0.169 3e-3 9e-3 4e-3 0.021 8e-3 0.029l-0.13 0.051s-0.254 0.049-0.589-0.044c-0.273-0.081-0.604-0.274-0.752-0.645-0.15-0.368-0.073-0.655 0.081-0.958" fill="#808080"/>
  </g>
  <g transform="matrix(.35278 0 0 -.35278 132.24 103.69)">
   <path d="m0 0c-0.041 0-0.163 0-0.344-0.048-0.324-0.092-0.484-0.293-0.572-0.506-0.088-0.214-0.113-0.469 0.056-0.759 0.095-0.163 0.178-0.231 0.209-0.261 0.052-0.052 0.115-0.162 0.073-0.322 0.185 0.32 0.351 0.654 0.496 1.003 0.141 0.352 0.254 0.705 0.348 1.062-0.082-0.137-0.192-0.165-0.266-0.169" fill="#c7c7c7"/>
  </g>
  <g transform="matrix(.35278 0 0 -.35278 132.15 102.53)">
   <path d="m0 0c0.311-0.158 0.601-0.147 0.601-0.147l0.134 0.034c-2e-3 9e-3 -2e-3 0.018-6e-3 0.029-0.06 0.151-0.176 0.205-0.249 0.216-0.042 7e-3 -0.149 0.014-0.32 0.089-0.308 0.133-0.437 0.357-0.492 0.581-0.057 0.224-0.044 0.482 0.165 0.746 0.116 0.143 0.214 0.216 0.249 0.242 0.057 0.044 0.131 0.131 0.116 0.291-3e-3 9e-3 -9e-3 0.021-0.012 0.026l-0.134-0.034s-0.235-0.108-0.449-0.383c-0.176-0.222-0.329-0.574-0.23-0.961 0.094-0.385 0.326-0.576 0.627-0.729" fill="#808080"/>
  </g>
  <g transform="matrix(.35278 0 0 -.35278 132.18 101.9)">
   <path d="m0 0c-0.035-0.026-0.133-0.099-0.249-0.242-0.209-0.264-0.222-0.522-0.165-0.746 0.055-0.224 0.184-0.448 0.489-0.581 0.174-0.076 0.28-0.082 0.323-0.089 0.073-0.011 0.189-0.065 0.249-0.216-0.038 0.366-0.101 0.732-0.19 1.103-0.091 0.365-0.207 0.719-0.341 1.062 0.015-0.16-0.059-0.247-0.116-0.291" fill="#c7c7c7"/>
  </g>
  <g transform="matrix(.35278 0 0 -.35278 131.43 101.02)">
   <path d="m0 0c0.342 0.056 0.57 0.234 0.57 0.234l0.091 0.106c-0.01 7e-3 -0.014 0.014-0.023 0.02-0.139 0.088-0.262 0.064-0.329 0.03-0.038-0.018-0.128-0.078-0.309-0.116-0.33-0.076-0.565 0.031-0.743 0.18-0.176 0.148-0.318 0.362-0.305 0.701 0.012 0.184 0.047 0.3 0.062 0.342 0.019 0.07 0.026 0.181-0.079 0.303-7e-3 6e-3 -0.019 0.011-0.026 0.015l-0.089-0.105s-0.123-0.227-0.137-0.574c-9e-3 -0.284 0.073-0.659 0.379-0.916 0.302-0.256 0.602-0.273 0.938-0.22" fill="#808080"/>
  </g>
  <g transform="matrix(.35278 0 0 -.35278 131.08 100.49)">
   <path d="m0 0c-0.015-0.042-0.05-0.158-0.062-0.342-0.012-0.339 0.129-0.554 0.307-0.701 0.176-0.149 0.411-0.256 0.737-0.181 0.185 0.038 0.275 0.099 0.313 0.117 0.067 0.034 0.19 0.058 0.329-0.029-0.246 0.274-0.512 0.533-0.801 0.78-0.289 0.243-0.592 0.461-0.902 0.659 0.105-0.122 0.099-0.233 0.079-0.303" fill="#c7c7c7"/>
  </g>
  <g transform="matrix(.35278 0 0 -.35278 129.95 100.22)">
   <path d="m0 0c0.248 0.246 0.326 0.523 0.326 0.523l0.011 0.14c-0.011 2e-3 -0.02 4e-3 -0.029 4e-3 -0.166-0.013-0.249-0.104-0.286-0.169-0.019-0.038-0.057-0.138-0.181-0.278-0.224-0.255-0.476-0.307-0.706-0.289-0.232 0.017-0.471 0.106-0.657 0.388-0.103 0.155-0.14 0.273-0.154 0.312-0.025 0.067-0.084 0.164-0.242 0.199-9e-3 1e-3 -0.02-2e-3 -0.028-1e-3l-0.01-0.139s0.031-0.256 0.224-0.544c0.161-0.237 0.447-0.492 0.847-0.518 0.396-0.029 0.647 0.134 0.885 0.372" fill="#808080"/>
  </g>
  <g transform="matrix(.35278 0 0 -.35278 129.36 99.993)">
   <path d="m0 0c0.014-0.039 0.051-0.157 0.153-0.312 0.187-0.282 0.426-0.371 0.658-0.388 0.23-0.018 0.482 0.034 0.706 0.288 0.124 0.141 0.164 0.241 0.181 0.279 0.036 0.065 0.119 0.156 0.285 0.169-0.362 0.075-0.73 0.131-1.108 0.161-0.375 0.028-0.748 0.024-1.117 2e-3 0.158-0.035 0.217-0.132 0.242-0.199" fill="#c7c7c7"/>
  </g>
  <g transform="matrix(.35278 0 0 -.35278 128.29 100.43)">
   <path d="m0 0c0.055 0.343-0.044 0.616-0.044 0.616l-0.073 0.118c-0.01-5e-3 -0.019-8e-3 -0.027-0.015-0.127-0.106-0.14-0.231-0.129-0.305 5e-3 -0.04 0.034-0.143 0.013-0.328-0.029-0.34-0.202-0.528-0.399-0.651-0.197-0.122-0.445-0.192-0.762-0.074-0.173 0.067-0.271 0.139-0.306 0.162-0.062 0.041-0.164 0.084-0.312 0.02-8e-3 -6e-3 -0.016-0.014-0.024-0.017l0.074-0.12s0.176-0.186 0.503-0.31c0.269-0.095 0.649-0.132 0.989 0.081 0.339 0.208 0.446 0.489 0.497 0.823" fill="#808080"/>
  </g>
  <g transform="matrix(.35278 0 0 -.35278 127.68 100.6)">
   <path d="m0 0c0.034-0.023 0.133-0.096 0.306-0.162 0.317-0.118 0.564-0.048 0.761 0.073 0.198 0.123 0.371 0.312 0.404 0.65 0.016 0.186-0.012 0.29-0.018 0.33-0.011 0.074 2e-3 0.199 0.13 0.304-0.338-0.149-0.669-0.322-0.991-0.521-0.32-0.197-0.618-0.419-0.905-0.654 0.149 0.064 0.25 0.021 0.313-0.02" fill="#c7c7c7"/>
  </g>
  <g transform="matrix(.35278 0 0 -.35278 127.07 101.59)">
   <path d="m0 0c-0.157 0.31-0.399 0.469-0.399 0.469l-0.126 0.055c-5e-3 -9e-3 -0.012-0.018-0.014-0.027-0.041-0.163 0.02-0.269 0.073-0.322 0.03-0.031 0.111-0.098 0.206-0.26 0.174-0.29 0.145-0.546 0.059-0.761-0.088-0.214-0.248-0.415-0.573-0.507-0.179-0.047-0.302-0.045-0.343-0.048-0.073-3e-3 -0.184-0.03-0.266-0.166-2e-3 -0.011-6e-3 -0.022-8e-3 -0.03l0.13-0.053s0.252-0.046 0.589 0.046c0.273 0.081 0.603 0.273 0.752 0.645 0.152 0.367 0.074 0.656-0.08 0.959" fill="#808080"/>
  </g>
  <g transform="matrix(.35278 0 0 -.35278 126.68 102.08)">
   <path d="m0 0c0.041 2e-3 0.164 1e-3 0.343 0.048 0.325 0.092 0.485 0.293 0.572 0.508 0.087 0.214 0.116 0.47-0.055 0.759-0.098 0.164-0.178 0.229-0.209 0.26-0.052 0.053-0.114 0.159-0.073 0.322-0.185-0.319-0.353-0.655-0.496-1.004-0.141-0.349-0.255-0.703-0.348-1.06 0.082 0.137 0.193 0.163 0.266 0.167" fill="#c7c7c7"/>
  </g>
  <g transform="matrix(.35278 0 0 -.35278 126.76 103.24)">
   <path d="m0 0c-0.309 0.159-0.6 0.147-0.6 0.147l-0.135-0.032c5e-3 -0.011 5e-3 -0.022 6e-3 -0.029 0.064-0.155 0.177-0.206 0.25-0.217 0.042-9e-3 0.148-0.015 0.319-0.089 0.311-0.133 0.438-0.358 0.493-0.583 0.056-0.223 0.044-0.481-0.164-0.747-0.117-0.142-0.216-0.214-0.249-0.239-0.058-0.046-0.132-0.132-0.117-0.291 4e-3 -0.01 9e-3 -0.021 0.012-0.028l0.136 0.034s0.232 0.109 0.448 0.384c0.175 0.223 0.327 0.573 0.231 0.962-0.094 0.386-0.328 0.576-0.63 0.728" fill="#808080"/>
  </g>
  <g transform="matrix(.35278 0 0 -.35278 126.74 103.87)">
   <path d="m0 0c0.033 0.025 0.132 0.097 0.249 0.239 0.208 0.266 0.22 0.524 0.164 0.747-0.055 0.225-0.182 0.451-0.49 0.583-0.174 0.075-0.281 0.082-0.321 0.089-0.074 0.011-0.187 0.062-0.25 0.217 0.038-0.367 0.101-0.735 0.19-1.104 0.091-0.366 0.207-0.718 0.341-1.062-0.015 0.159 0.059 0.245 0.117 0.291" fill="#c7c7c7"/>
  </g>
  <g transform="matrix(.35278 0 0 -.35278 127.78 104.6)">
   <path d="m0 0-0.021-2e-3 -0.018-7e-3 -0.021-4e-3 -0.018-4e-3 -0.017-6e-3 -0.019-8e-3 -0.017-9e-3 -0.016-0.013-0.015-9e-3 -0.016-0.011-0.014-0.013-0.013-0.01-0.013-0.013-0.012-0.013-0.013-0.015h-1e-3l-0.302-0.36-0.163-0.195-0.429-0.511-0.099-0.118-0.156-0.187-8e-3 -0.01-8e-3 -9e-3 -7e-3 -0.013-7e-3 -0.011-7e-3 -0.013-7e-3 -0.011-5e-3 -0.015-5e-3 -0.014-3e-3 -0.013-4e-3 -0.014-6e-3 -0.03-1e-3 -0.016v-0.031l1e-3 -0.018 3e-3 -0.02 6e-3 -0.021 5e-3 -0.019 7e-3 -0.022 0.013-0.021 0.014-0.022 0.016-0.024 0.024-0.021 0.159 0.193v1e-3l1e-3 2e-3 1e-3 1e-3 4e-3 3e-3 2e-3 4e-3 6e-3 2e-3 6e-3 7e-3 3e-3 5e-3 5e-3 6e-3 6e-3 7e-3 7e-3 8e-3 7e-3 7e-3 6e-3 0.01 0.01 9e-3 8e-3 0.01 0.018 0.024 0.012 9e-3 8e-3 0.013 0.013 0.013 0.01 0.013 0.015 0.014 0.01 0.014 0.013 0.015 0.019 0.022 0.017 0.021 0.018 0.021 0.017 0.022 0.02 0.022 0.017 0.022 0.017 0.018 0.018 0.024 0.018 0.019 0.018 0.025 0.017 0.018 0.017 0.02 0.019 0.023 0.018 0.021 0.018 0.022 0.018 0.021 0.016 0.021 0.018 0.022 0.019 0.018 0.018 0.022 0.016 0.022 0.018 0.022 0.018 0.021 0.02 0.024 9e-3 9e-3 9e-3 0.013 0.012 9e-3 0.011 0.014 9e-3 0.011 0.011 0.013 0.01 0.013 0.014 0.014 8e-3 0.012 0.014 0.014 0.013 0.012 0.01 0.015 0.012 0.015 0.013 0.013 0.011 0.013 0.013 0.017 0.011 0.013 0.013 0.014 0.014 0.014 0.011 0.015 0.012 0.013 0.015 0.014 0.011 0.016 0.013 0.013 0.514 0.61-0.019 0.015-0.019 0.017-0.019 9e-3 -0.021 8e-3 -0.021 6e-3 -0.023 3e-3 -0.019 6e-3h-0.021" fill="#808080"/>
  </g>
  <g transform="matrix(.35278 0 0 -.35278 127.71 105.08)">
   <path d="m0 0-0.019-0.02-0.015-0.021-0.021-0.022-0.016-0.022-0.018-0.018-0.018-0.022-0.017-0.021-0.02-0.023-0.016-0.019-0.018-0.022-0.018-0.021-0.019-0.02-0.016-0.02-0.018-0.024-0.019-0.02-0.016-0.022-0.02-0.021-0.016-0.023-0.02-0.019-0.016-0.023-0.018-0.019-0.019-0.021-0.017-0.022-0.018-0.023-0.011-0.013-0.014-0.016-0.012-0.015-0.01-0.011-0.01-0.015-0.012-0.014-9e-3 -0.012-0.01-0.01-8e-3 -0.011-9e-3 -0.011-8e-3 -0.01-8e-3 -8e-3 -6e-3 -9e-3 -7e-3 -7e-3 -3e-3 -8e-3 -6e-3 -8e-3 -4e-3 -4e-3 -8e-3 -5e-3 -2e-3 -3e-3 -5e-3 -4e-3v-4e-3l-2e-3 -1e-3 -2e-3 -2e-3v-1e-3l-0.161-0.192 0.024-0.018 0.027-0.013 0.023-9e-3 0.025-8e-3 0.02-7e-3 0.024-1e-3 0.018-3e-3 0.022 3e-3h0.016l0.015 4e-3 0.018 4e-3 0.013 4e-3 0.015 5e-3 0.015 6e-3 0.013 4e-3 0.014 7e-3 0.011 7e-3 0.012 7e-3 0.01 0.01 0.013 9e-3 0.011 9e-3 9e-3 8e-3 0.01 0.011 8e-3 0.01 0.154 0.184 0.103 0.12 0.591 0.706 0.302 0.359 0.012 0.016 0.011 0.014 9e-3 0.015 0.011 0.015 8e-3 0.014 0.01 0.019 8e-3 0.018 4e-3 0.016 8e-3 0.019 3e-3 0.02 5e-3 0.018 2e-3 0.02v0.057l-2e-3 0.021-5e-3 0.02-5e-3 0.021-6e-3 0.019-0.011 0.02-0.016 0.019-0.013 0.017-0.015 0.016-0.018 0.015-0.511-0.611-0.012-0.015-0.015-0.015-0.01-0.016-0.011-0.014-0.014-0.015-0.012-0.015-0.011-0.014-0.012-0.013-0.013-0.018-0.012-0.012-0.011-0.014-0.01-0.014-0.013-0.016-0.01-0.011-0.011-0.014-0.014-0.016-9e-3 -0.012-9e-3 -0.014-0.022-0.024-0.011-0.014-9e-3 -0.01-9e-3 -0.014" fill="#808080"/>
  </g>
  <g transform="matrix(.35278 0 0 -.35278 -180.98 262.01)">
   <g clip-path="url(#clipPath7859)">
    <g transform="translate(873.37 444.62)">
     <path d="m0 0 1.56 1.956 1.924-1.535-1.563-1.958" fill="#808080"/>
    </g>
   </g>
  </g>
  <g transform="matrix(.35278 0 0 -.35278 127.86 104.62)">
   <path d="m0 0 0.341-0.286c0.032-0.027 0.038-0.068 0.014-0.099l-1.502-1.799c-0.022-0.026-0.069-0.027-0.099-1e-3l-0.343 0.286c-0.031 0.026-0.036 0.071-0.015 0.096l1.503 1.801c0.022 0.028 0.067 0.028 0.101 2e-3" fill="#444"/>
  </g>
  <g transform="matrix(.35278 0 0 -.35278 -180.98 262.01)">
   <g clip-path="url(#clipPath7875)">
    <g transform="translate(872.75 444.84)">
     <path d="m0 0 1.922 2.302 2.266-1.892-1.922-2.301" fill="#444"/>
    </g>
   </g>
  </g>
  <g transform="matrix(.35278 0 0 -.35278 129.42 106.43)">
   <path d="m0 0v-74.322" fill="none" stroke="#fff" stroke-miterlimit="10" stroke-width="1.6"/>
  </g>
  <g transform="matrix(.35278 0 0 -.35278 128.53 106.7)">
   <path d="M 0,0 2.541,4.404 5.084,0"/>
   <path d="M 0,0 2.541,4.404 5.084,0 Z" fill="none" stroke="#fff" stroke-miterlimit="10"/>
  </g>
  <g transform="matrix(.35278 0 0 -.35278 129.42 106.43)">
   <path d="m0 0v-74.322" fill="none" stroke="#000" stroke-miterlimit="10" stroke-width=".6"/>
  </g>
  <g transform="matrix(.35278 0 0 -.35278 128.53 106.7)">
   <path d="M 0,0 2.541,4.404 5.084,0"/>
  </g>
  <text x="127.33001" y="136.07855" fill="#000000" font-family="SQFRoundCond1D_V1" font-size="4.5861px" stroke-width=".35278"><tspan x="127.33001" y="136.07855" font-family="'Open Sans Condensed'" stroke-width=".35278">(4)</tspan></text>
 </g>
</svg>
