<?xml version="1.0" encoding="UTF-8"?>
<svg width="300mm" height="275mm" version="1.1" viewBox="0 0 300 275" xml:space="preserve" xmlns="http://www.w3.org/2000/svg" xmlns:xlink="http://www.w3.org/1999/xlink"><defs><filter id="filter2" x="0" y="0" width="1" height="1" color-interpolation-filters="sRGB"><feFlood flood-color="rgb(255,255,255)" result="result1"/><feImage result="result2" xlink:href=""/><feBlend in2="result1" mode="multiply" result="result4"/><feMerge result="result3"><feMergeNode in="result1"/><feMergeNode in="SourceGraphic"/></feMerge></filter><filter id="filter4" x="0" y="0" width="1" height="1" color-interpolation-filters="sRGB"><feFlood flood-color="rgb(255,255,255)" result="result1"/><feImage result="result2" xlink:href=""/><feBlend in2="result1" mode="multiply" result="result4"/><feMerge result="result3"><feMergeNode in="result1"/><feMergeNode in="SourceGraphic"/></feMerge></filter><filter id="filter6" x="0" y="0" width="1" height="1" color-interpolation-filters="sRGB"><feFlood flood-color="rgb(255,255,255)" result="result1"/><feImage result="result2" xlink:href=""/><feBlend in2="result1" mode="multiply" result="result4"/><feMerge result="result3"><feMergeNode in="result1"/><feMergeNode in="SourceGraphic"/></feMerge></filter><filter id="filter8" x="0" y="0" width="1" height="1" color-interpolation-filters="sRGB"><feFlood flood-color="rgb(255,255,255)" result="result1"/><feImage result="result2" xlink:href=""/><feBlend in2="result1" mode="multiply" result="result4"/><feMerge result="result3"><feMergeNode in="result1"/><feMergeNode in="SourceGraphic"/></feMerge></filter><filter id="filter10" x="0" y="0" width="1" height="1" color-interpolation-filters="sRGB"><feFlood flood-color="rgb(255,255,255)" result="result1"/><feImage result="result2" xlink:href=""/><feBlend in2="result1" mode="multiply" result="result4"/><feMerge result="result3"><feMergeNode in="result1"/><feMergeNode in="SourceGraphic"/></feMerge></filter><filter id="filter12" x="0" y="0" width="1" height="1" color-interpolation-filters="sRGB"><feFlood flood-color="rgb(255,255,255)" result="result1"/><feImage result="result2" xlink:href=""/><feBlend in2="result1" mode="multiply" result="result4"/><feMerge result="result3"><feMergeNode in="result1"/><feMergeNode in="SourceGraphic"/></feMerge></filter><filter id="filter14" x="0" y="0" width="1" height="1" color-interpolation-filters="sRGB"><feFlood flood-color="rgb(255,255,255)" result="result1"/><feImage result="result2" xlink:href=""/><feBlend in2="result1" mode="multiply" result="result4"/><feMerge result="result3"><feMergeNode in="result1"/><feMergeNode in="SourceGraphic"/></feMerge></filter></defs><g transform="translate(44.431 -3.7446)"><path transform="matrix(.68512 0 0 .68512 -186.51 -25.615)" d="m230.26 208.59v-12.753h1.7288v11.341h6.4445v1.412zm10.201 0v-1.3848h3.2494v-9.8116l-2.8783 2.0546v-1.5387l3.0141-2.0727h1.5025v11.368h3.1046v1.3848z" filter="url(#filter12)" style="white-space:pre" aria-label="L1"/><path transform="matrix(.68512 0 0 .68512 -186.51 8.3299)" d="m230.26 208.59v-12.753h1.7288v11.341h6.4445v1.412zm9.7211 0v-1.1495q0.46162-1.059 1.1224-1.8646 0.66979-0.81461 1.403-1.4663 0.73315-0.66074 1.4482-1.2219 0.7241-0.56118 1.3034-1.1224 0.57929-0.56118 0.93228-1.1767 0.36206-0.61548 0.36206-1.3939 0-1.05-0.61549-1.6292t-1.7107-0.57928q-1.0409 0-1.7197 0.57023-0.6698 0.56118-0.78746 1.584l-1.6654-0.15387q0.18103-1.5297 1.2943-2.4348 1.1224-0.90513 2.8783-0.90513 1.9279 0 2.9598 0.91418 1.0409 0.90513 1.0409 2.5796 0 0.7422-0.34395 1.4754-0.33489 0.73315-1.0047 1.4663-0.66979 0.73316-2.5615 2.2719-1.0409 0.85082-1.6564 1.5387-0.61549 0.67884-0.88703 1.3124h6.6527v1.3848z" filter="url(#filter8)" style="white-space:pre" aria-label="L2"/><path transform="matrix(.68512 0 0 .68512 -186.51 42.278)" d="m230.26 208.59v-12.753h1.7288v11.341h6.4445v1.412zm18.284-3.521q0 1.765-1.1224 2.7335-1.1224 0.96848-3.2042 0.96848-1.937 0-3.0955-0.86892-1.1495-0.87797-1.3667-2.5887l1.6835-0.15387q0.32584 2.2628 2.7787 2.2628 1.231 0 1.9279-0.60643 0.706-0.60644 0.706-1.8012 0-1.0409-0.80557-1.6202-0.79651-0.58833-2.3081-0.58833h-0.92323v-1.412h0.88703q1.3396 0 2.0727-0.57928 0.7422-0.58834 0.7422-1.6202 0-1.0228-0.60643-1.6111-0.59739-0.59738-1.7831-0.59738-1.0771 0-1.7469 0.55213-0.66074 0.55212-0.76936 1.5568l-1.6383-0.12671q0.18103-1.5659 1.2943-2.4438 1.1224-0.87797 2.8783-0.87797 1.9189 0 2.9779 0.89608 1.068 0.88702 1.068 2.48 0 1.2219-0.6879 1.9913-0.67885 0.76031-1.9822 1.0318v0.0362q1.4301 0.15388 2.2266 0.95944t0.79651 2.0275z" filter="url(#filter10)" style="white-space:pre" aria-label="L3"/><ellipse cx="-8.073" cy="112.93" rx="4.5308" ry="7.4064" fill="#fff" stroke="#000" stroke-linecap="round" stroke-linejoin="round" stroke-width="1.1404"/><ellipse cx="-8.073" cy="146.87" rx="4.5308" ry="7.4064" fill="#fff" stroke="#000" stroke-linecap="round" stroke-linejoin="round" stroke-width="1.1404"/><ellipse cx="-8.073" cy="180.82" rx="4.5308" ry="7.4064" fill="#fff" stroke="#000" stroke-linecap="round" stroke-linejoin="round" stroke-width="1.1404"/><g transform="translate(224.52)"><ellipse cx="-8.073" cy="112.93" rx="4.5308" ry="7.4064" fill="#fff" stroke="#000" stroke-linecap="round" stroke-linejoin="round" stroke-width="1.1404"/><ellipse cx="-8.073" cy="146.87" rx="4.5308" ry="7.4064" fill="#fff" stroke="#000" stroke-linecap="round" stroke-linejoin="round" stroke-width="1.1404"/><ellipse cx="-8.073" cy="180.82" rx="4.5308" ry="7.4064" fill="#fff" stroke="#000" stroke-linecap="round" stroke-linejoin="round" stroke-width="1.1404"/><path transform="matrix(.68512 0 0 .68512 -154.9 -25.615)" d="m236.19 208.59-3.3128-5.295h-3.9735v5.295h-1.7288v-12.753h6.001q2.1542 0 3.3218 0.96848 1.1767 0.95944 1.1767 2.6792 0 1.421-0.83272 2.3895-0.82366 0.96849-2.2809 1.2219l3.6205 5.4941zm-0.25343-9.0875q0-1.1133-0.76031-1.6926-0.75126-0.58833-2.1723-0.58833h-4.1002v4.7067h4.1726q1.3667 0 2.1089-0.63359 0.75126-0.64264 0.75126-1.7922zm4.5166 9.0875v-1.3848h3.2494v-9.8116l-2.8783 2.0546v-1.5387l3.0141-2.0727h1.5025v11.368h3.1046v1.3848z" filter="url(#filter6)" style="white-space:pre" aria-label="R1"/><path transform="matrix(.68512 0 0 .68512 -154.9 8.3299)" d="m236.19 208.59-3.3128-5.295h-3.9735v5.295h-1.7288v-12.753h6.001q2.1542 0 3.3218 0.96848 1.1767 0.95944 1.1767 2.6792 0 1.421-0.83272 2.3895-0.82366 0.96849-2.2809 1.2219l3.6205 5.4941zm-0.25343-9.0875q0-1.1133-0.76031-1.6926-0.75126-0.58833-2.1723-0.58833h-4.1002v4.7067h4.1726q1.3667 0 2.1089-0.63359 0.75126-0.64264 0.75126-1.7922zm4.0369 9.0875v-1.1495q0.46162-1.059 1.1224-1.8646 0.66979-0.81461 1.403-1.4663 0.73315-0.66074 1.4482-1.2219 0.7241-0.56118 1.3034-1.1224 0.57929-0.56118 0.93228-1.1767 0.36206-0.61548 0.36206-1.3939 0-1.05-0.61549-1.6292t-1.7107-0.57928q-1.0409 0-1.7197 0.57023-0.6698 0.56118-0.78746 1.584l-1.6654-0.15387q0.18103-1.5297 1.2943-2.4348 1.1224-0.90513 2.8783-0.90513 1.9279 0 2.9598 0.91418 1.0409 0.90513 1.0409 2.5796 0 0.7422-0.34395 1.4754-0.33489 0.73315-1.0047 1.4663-0.66979 0.73316-2.5615 2.2719-1.0409 0.85082-1.6564 1.5387-0.61549 0.67884-0.88703 1.3124h6.6527v1.3848z" filter="url(#filter4)" style="white-space:pre" aria-label="R2"/><path transform="matrix(.68512 0 0 .68512 -154.9 42.278)" d="m236.19 208.59-3.3128-5.295h-3.9735v5.295h-1.7288v-12.753h6.001q2.1542 0 3.3218 0.96848 1.1767 0.95944 1.1767 2.6792 0 1.421-0.83272 2.3895-0.82366 0.96849-2.2809 1.2219l3.6205 5.4941zm-0.25343-9.0875q0-1.1133-0.76031-1.6926-0.75126-0.58833-2.1723-0.58833h-4.1002v4.7067h4.1726q1.3667 0 2.1089-0.63359 0.75126-0.64264 0.75126-1.7922zm12.599 5.5665q0 1.765-1.1224 2.7335-1.1224 0.96848-3.2042 0.96848-1.937 0-3.0955-0.86892-1.1495-0.87797-1.3667-2.5887l1.6835-0.15387q0.32584 2.2628 2.7787 2.2628 1.231 0 1.9279-0.60643 0.706-0.60644 0.706-1.8012 0-1.0409-0.80557-1.6202-0.79651-0.58833-2.3081-0.58833h-0.92323v-1.412h0.88703q1.3396 0 2.0727-0.57928 0.7422-0.58834 0.7422-1.6202 0-1.0228-0.60643-1.6111-0.59739-0.59738-1.7831-0.59738-1.0771 0-1.7469 0.55213-0.66074 0.55212-0.76936 1.5568l-1.6383-0.12671q0.18103-1.5659 1.2943-2.4438 1.1224-0.87797 2.8783-0.87797 1.9189 0 2.9779 0.89608 1.068 0.88702 1.068 2.48 0 1.2219-0.6879 1.9913-0.67885 0.76031-1.9822 1.0318v0.0362q1.4301 0.15388 2.2266 0.95944t0.79651 2.0275z" filter="url(#filter2)" style="white-space:pre" aria-label="R3"/></g><rect x="-9.8147" y="32.968" width="228.07" height="228.36" rx="15.865" ry="17.004" fill="#fff" stroke="#000" stroke-linecap="round" stroke-linejoin="round"/><rect x="-5.3826" y="36.832" width="219.2" height="220.63" rx="12.661" ry="13.841" fill="none" stroke="#000" stroke-linecap="round" stroke-linejoin="round" stroke-width=".96364"/><path transform="matrix(.68512 0 0 .68512 -53.716 -113.38)" d="m217.86 208.77q-1.5659 0-2.7335-0.57023t-1.8103-1.6564-0.64264-2.5887v-8.119h1.7288v7.9742q0 1.7469 0.88703 2.652 0.88702 0.90513 2.5615 0.90513 1.7197 0 2.6701-0.93229 0.95944-0.94133 0.95944-2.7425v-7.8565h1.7197v7.9561q0 1.5478-0.66074 2.6701-0.6517 1.1224-1.8555 1.7197-1.1948 0.58833-2.824 0.58833zm18.284-3.702q0 1.765-1.3848 2.7335-1.3758 0.96848-3.883 0.96848-4.6614 0-5.4036-3.2404l1.6745-0.3349q0.28964 1.1495 1.231 1.6926 0.94133 0.53402 2.5615 0.53402 1.6745 0 2.5796-0.57023 0.91418-0.57928 0.91418-1.6926 0-0.62454-0.28965-1.0138-0.28058-0.3892-0.79651-0.64264-0.51592-0.25343-1.231-0.42541-0.71505-0.17197-1.584-0.3711-1.5116-0.3349-2.299-0.66979-0.77841-0.3349-1.231-0.74221-0.45256-0.41636-0.69695-0.96848-0.23533-0.55213-0.23533-1.2672 0-1.6383 1.2491-2.5253 1.2581-0.88703 3.5934-0.88703 2.1723 0 3.3218 0.66979 1.1495 0.66075 1.6111 2.2628l-1.7016 0.29869q-0.28058-1.0137-1.068-1.4663-0.78746-0.46162-2.1814-0.46162-1.5297 0-2.3352 0.50687-0.80556 0.50688-0.80556 1.5116 0 0.58833 0.30774 0.97753 0.3168 0.38016 0.90513 0.6517 0.58833 0.26248 2.3443 0.65169 0.58833 0.13577 1.1676 0.28059 0.58833 0.13577 1.1224 0.33489 0.53402 0.19008 0.99564 0.45257 0.47066 0.26248 0.81461 0.64264 0.34395 0.38015 0.53403 0.89607 0.19913 0.51592 0.19913 1.2129zm12.237-0.0724q0 1.7016-1.24 2.652-1.24 0.94134-3.4485 0.94134h-5.1773v-12.753h4.6342q4.4894 0 4.4894 3.0955 0 1.1314-0.63359 1.9008t-1.7922 1.0318q1.5206 0.18103 2.3443 1.0228 0.82366 0.83271 0.82366 2.1089zm-2.48-5.8562q0-1.0318-0.706-1.4754-0.706-0.44351-2.0456-0.44351h-2.9055v4.0369h2.9055q1.3848 0 2.0637-0.51592 0.68789-0.52498 0.68789-1.6021zm0.73316 5.7204q0-2.2538-3.168-2.2538h-3.2222v4.598h3.358q1.584 0 2.3081-0.58833 0.72411-0.58833 0.72411-1.756z" filter="url(#filter14)" style="white-space:pre" aria-label="USB"/><g transform="translate(.13348 -.0088516)"><circle cx="36.114" cy="79.046" r="20.543" fill="none" stroke="#000" stroke-linecap="round" stroke-linejoin="round" stroke-width="1.0353"/><circle cx="36.114" cy="79.046" r="14.795" fill="none" stroke="#000" stroke-linecap="round" stroke-linejoin="round" stroke-width="1.3"/><circle cx="36.114" cy="79.046" r="13.249" fill="none" stroke="#000" stroke-linecap="round" stroke-linejoin="round" stroke-width=".65818"/><path transform="matrix(.68512 0 0 .68512 -114.19 -63.031)" d="m213.38 216.94v-2.0773h4.8741v-14.717l-4.3174 3.082v-2.3081l4.5211-3.1091h2.2538v17.053h4.6569v2.0773z" style="white-space:pre" aria-label="1"/></g><g transform="translate(45.43 -.0088516)"><circle cx="36.114" cy="79.046" r="20.543" fill="none" stroke="#000" stroke-linecap="round" stroke-linejoin="round" stroke-width="1.0353"/><circle cx="36.114" cy="79.046" r="14.795" fill="none" stroke="#000" stroke-linecap="round" stroke-linejoin="round" stroke-width="1.3"/><circle cx="36.114" cy="79.046" r="13.249" fill="none" stroke="#000" stroke-linecap="round" stroke-linejoin="round" stroke-width=".65818"/><path transform="matrix(.68512 0 0 .68512 -129.43 -62.933)" d="m235.29 216.94v-1.7243q0.69242-1.5885 1.6835-2.7968 1.0047-1.2219 2.1044-2.1995 1.0997-0.99111 2.1723-1.8329 1.0862-0.84177 1.9551-1.6835t1.3984-1.765q0.54308-0.92322 0.54308-2.0908 0-1.5749-0.92323-2.4438t-2.566-0.86892q-1.5613 0-2.5796 0.85534-1.0047 0.84177-1.1812 2.376l-2.4982-0.23081q0.27154-2.2945 1.9415-3.6522 1.6835-1.3577 4.3174-1.3577 2.8919 0 4.4396 1.3713 1.5614 1.3577 1.5614 3.8694 0 1.1133-0.51593 2.213-0.50234 1.0997-1.507 2.1994t-3.8423 3.4078q-1.5613 1.2762-2.4846 2.3081-0.92323 1.0183-1.3305 1.9686h9.979v2.0773z" style="white-space:pre" aria-label="2"/></g><g transform="translate(90.726 -.0088516)"><circle cx="36.114" cy="79.046" r="20.543" fill="none" stroke="#000" stroke-linecap="round" stroke-linejoin="round" stroke-width="1.0353"/><circle cx="36.114" cy="79.046" r="14.795" fill="none" stroke="#000" stroke-linecap="round" stroke-linejoin="round" stroke-width="1.3"/><circle cx="36.114" cy="79.046" r="13.249" fill="none" stroke="#000" stroke-linecap="round" stroke-linejoin="round" stroke-width=".65818"/><path transform="matrix(.68512 0 0 .68512 -129.37 -63.026)" d="m248.13 211.66q0 2.6475-1.6835 4.1002t-4.8062 1.4527q-2.9055 0-4.6433-1.3034-1.7243-1.317-2.0501-3.883l2.5253-0.23081q0.48877 3.3942 4.1681 3.3942 1.8465 0 2.8919-0.90965 1.059-0.90966 1.059-2.7018 0-1.5613-1.2084-2.4303-1.1948-0.8825-3.4621-0.8825h-1.3848v-2.118h1.3305q2.0094 0 3.1091-0.86892 1.1133-0.8825 1.1133-2.4303 0-1.5342-0.90965-2.4167-0.89608-0.89607-2.6746-0.89607-1.6156 0-2.6203 0.82819-0.99112 0.82819-1.154 2.3352l-2.4574-0.19008q0.27154-2.3488 1.9415-3.6658 1.6835-1.317 4.3174-1.317 2.8783 0 4.4668 1.3441 1.6021 1.3305 1.6021 3.7201 0 1.8329-1.0318 2.9869-1.0183 1.1405-2.9733 1.5478v0.0543q2.1452 0.23081 3.3399 1.4392 1.1948 1.2083 1.1948 3.0412z" style="white-space:pre" aria-label="3"/></g><g transform="translate(136.02 -.0088516)"><circle cx="36.114" cy="79.046" r="20.543" fill="none" stroke="#000" stroke-linecap="round" stroke-linejoin="round" stroke-width="1.0353"/><circle cx="36.114" cy="79.046" r="14.795" fill="none" stroke="#000" stroke-linecap="round" stroke-linejoin="round" stroke-width="1.3"/><circle cx="36.114" cy="79.046" r="13.249" fill="none" stroke="#000" stroke-linecap="round" stroke-linejoin="round" stroke-width=".65818"/><path transform="matrix(.68512 0 0 .68512 -129.37 -63.031)" d="m245.85 212.61v4.331h-2.3081v-4.331h-9.0151v-1.9008l8.7571-12.898h2.566v12.871h2.6882v1.9279zm-2.3081-12.043q-0.0271 0.0815-0.38015 0.71958-0.353 0.63811-0.5295 0.89607l-4.9013 7.2229-0.73315 1.0047-0.21723 0.27154h6.7613z" style="white-space:pre" aria-label="4"/></g><g transform="translate(.13348 45.287)"><circle cx="36.114" cy="79.046" r="20.543" fill="none" stroke="#000" stroke-linecap="round" stroke-linejoin="round" stroke-width="1.0353"/><circle cx="36.114" cy="79.046" r="14.795" fill="none" stroke="#000" stroke-linecap="round" stroke-linejoin="round" stroke-width="1.3"/><circle cx="36.114" cy="79.046" r="13.249" fill="none" stroke="#000" stroke-linecap="round" stroke-linejoin="round" stroke-width=".65818"/><path transform="matrix(.68512 0 0 .68512 -129.41 -63.124)" d="m248.19 210.71q0 3.0276-1.8057 4.7655-1.7922 1.7378-4.9827 1.7378-2.6746 0-4.3174-1.1676t-2.0773-3.3806l2.471-0.28511q0.77388 2.8376 3.978 2.8376 1.9686 0 3.082-1.1812 1.1133-1.1948 1.1133-3.272 0-1.8057-1.1269-2.919-1.1133-1.1133-3.0141-1.1133-0.99112 0-1.8465 0.31227-0.85535 0.31226-1.7107 1.059h-2.3895l0.63812-10.291h10.875v2.0773h-8.6485l-0.36658 6.0689q1.5885-1.2219 3.9509-1.2219 2.824 0 4.494 1.6564 1.6835 1.6564 1.6835 4.3175z" style="white-space:pre" aria-label="5"/></g><g transform="translate(45.43 45.287)"><circle cx="36.114" cy="79.046" r="20.543" fill="none" stroke="#000" stroke-linecap="round" stroke-linejoin="round" stroke-width="1.0353"/><circle cx="36.114" cy="79.046" r="14.795" fill="none" stroke="#000" stroke-linecap="round" stroke-linejoin="round" stroke-width="1.3"/><circle cx="36.114" cy="79.046" r="13.249" fill="none" stroke="#000" stroke-linecap="round" stroke-linejoin="round" stroke-width=".65818"/><path transform="matrix(.68512 0 0 .68512 -129.49 -63.026)" d="m248.13 210.68q0 3.0276-1.6428 4.7791-1.6428 1.7514-4.5347 1.7514-3.2313 0-4.942-2.4031t-1.7107-6.9921q0-4.9692 1.7786-7.6302 1.7786-2.6611 5.0642-2.6611 4.331 0 5.4579 3.8966l-2.3352 0.42088q-0.71958-2.3352-3.1498-2.3352-2.0908 0-3.2449 1.9551-1.1405 1.9415-1.1405 5.6344 0.66527-1.2355 1.8736-1.8736 1.2084-0.65169 2.7697-0.65169 2.6475 0 4.1953 1.6564 1.5614 1.6564 1.5614 4.4532zm-2.4846 0.10861q0-2.0773-1.0183-3.2042t-2.8376-1.1269q-1.7107 0-2.7697 1.0047-1.0454 0.99111-1.0454 2.7425 0 2.213 1.0862 3.625 1.0997 1.412 2.8104 1.412 1.765 0 2.7697-1.1812 1.0047-1.1948 1.0047-3.272z" style="white-space:pre" aria-label="6"/></g><g transform="translate(90.726 45.287)"><circle cx="36.114" cy="79.046" r="20.543" fill="none" stroke="#000" stroke-linecap="round" stroke-linejoin="round" stroke-width="1.0353"/><circle cx="36.114" cy="79.046" r="14.795" fill="none" stroke="#000" stroke-linecap="round" stroke-linejoin="round" stroke-width="1.3"/><circle cx="36.114" cy="79.046" r="13.249" fill="none" stroke="#000" stroke-linecap="round" stroke-linejoin="round" stroke-width=".65818"/><path transform="matrix(.68512 0 0 .68512 -129.44 -63.031)" d="m247.96 199.79q-2.9326 4.4804-4.141 7.0193-1.2083 2.5389-1.8193 5.0099-0.59739 2.471-0.59739 5.1185h-2.5525q0-3.6658 1.5478-7.7117 1.5614-4.0595 5.2-9.3409h-10.278v-2.0773h12.64z" style="white-space:pre" aria-label="7"/></g><g transform="translate(136.02 45.287)"><circle cx="36.114" cy="79.046" r="20.543" fill="none" stroke="#000" stroke-linecap="round" stroke-linejoin="round" stroke-width="1.0353"/><circle cx="36.114" cy="79.046" r="14.795" fill="none" stroke="#000" stroke-linecap="round" stroke-linejoin="round" stroke-width="1.3"/><circle cx="36.114" cy="79.046" r="13.249" fill="none" stroke="#000" stroke-linecap="round" stroke-linejoin="round" stroke-width=".65818"/><path transform="matrix(.68512 0 0 .68512 -129.43 -63.026)" d="m248.15 211.6q0 2.6475-1.6835 4.1274t-4.8334 1.4799q-3.0684 0-4.8062-1.4527-1.7243-1.4527-1.7243-4.1274 0-1.8736 1.0726-3.1498t2.7425-1.5478v-0.0543q-1.5613-0.36657-2.471-1.5885-0.89607-1.2219-0.89607-2.8647 0-2.1859 1.6292-3.5436 1.6428-1.3577 4.3989-1.3577 2.824 0 4.4532 1.3305 1.6428 1.3305 1.6428 3.5979 0 1.6428-0.90965 2.8647t-2.4846 1.5342v0.0543q1.8329 0.29869 2.8512 1.5613 1.0183 1.2491 1.0183 3.1363zm-3.0141-9.0151q0-3.2449-3.5572-3.2449-1.7243 0-2.6339 0.81461-0.89607 0.81462-0.89607 2.4303 0 1.6428 0.92323 2.5117 0.9368 0.85534 2.6339 0.85534 1.7243 0 2.6203-0.78746 0.90965-0.80104 0.90965-2.5796zm0.47519 8.7843q0-1.7786-1.059-2.6746-1.059-0.90966-2.9733-0.90966-1.86 0-2.9054 0.97754-1.0454 0.96396-1.0454 2.6611 0 3.9509 4.0323 3.9509 1.9958 0 2.9734-0.95038 0.97753-0.96396 0.97753-3.0548z" style="white-space:pre" aria-label="8"/></g><g transform="translate(.13348 90.584)"><circle cx="36.114" cy="79.046" r="20.543" fill="none" stroke="#000" stroke-linecap="round" stroke-linejoin="round" stroke-width="1.0353"/><circle cx="36.114" cy="79.046" r="14.795" fill="none" stroke="#000" stroke-linecap="round" stroke-linejoin="round" stroke-width="1.3"/><circle cx="36.114" cy="79.046" r="13.249" fill="none" stroke="#000" stroke-linecap="round" stroke-linejoin="round" stroke-width=".65818"/><path transform="matrix(.68512 0 0 .68512 -129.42 -63.026)" d="m248.04 206.99q0 4.9284-1.8057 7.5759-1.7922 2.6475-5.1185 2.6475-2.2402 0-3.5979-0.93681-1.3441-0.95038-1.9279-3.0548l2.3352-0.36658q0.73315 2.3895 3.2313 2.3895 2.1044 0 3.2585-1.9551 1.154-1.9551 1.2083-5.5801-0.54308 1.2219-1.86 1.9686-1.317 0.73316-2.8919 0.73316-2.5796 0-4.1274-1.765t-1.5478-4.684q0-3.0005 1.6835-4.7112 1.6835-1.7243 4.684-1.7243 3.1906 0 4.8334 2.3624t1.6428 7.1007zm-2.6611-2.3624q0-2.3081-1.059-3.7065-1.059-1.412-2.8376-1.412-1.765 0-2.7833 1.2084-1.0183 1.1948-1.0183 3.2449 0 2.0908 1.0183 3.3128 1.0183 1.2084 2.7561 1.2084 1.059 0 1.9686-0.47519 0.90965-0.48877 1.4256-1.3713 0.5295-0.8825 0.5295-2.0094z" style="white-space:pre" aria-label="9"/></g><g transform="translate(45.43 90.584)"><circle cx="36.114" cy="79.046" r="20.543" fill="none" stroke="#000" stroke-linecap="round" stroke-linejoin="round" stroke-width="1.0353"/><circle cx="36.114" cy="79.046" r="14.795" fill="none" stroke="#000" stroke-linecap="round" stroke-linejoin="round" stroke-width="1.3"/><circle cx="36.114" cy="79.046" r="13.249" fill="none" stroke="#000" stroke-linecap="round" stroke-linejoin="round" stroke-width=".65818"/><path transform="matrix(.68512 0 0 .68512 -124.48 -69.699)" d="m220.55 226.68v-2.0773h4.8741v-14.717l-4.3175 3.082v-2.3081l4.5211-3.1091h2.2538v17.053h4.6569v2.0773zm27.724-9.5717q0 4.7926-1.6971 7.318-1.6835 2.5253-4.9827 2.5253t-4.9556-2.5117q-1.6564-2.5117-1.6564-7.3315 0-4.9284 1.6021-7.3858 1.6156-2.4574 5.0913-2.4574 3.3806 0 4.9827 2.4846 1.6157 2.4846 1.6157 7.3587zm-2.4846 0q0-4.141-0.96396-6.001-0.95038-1.86-3.1498-1.86-2.2538 0-3.2449 1.8329-0.97754 1.8329-0.97754 6.0282 0 4.0731 0.99112 5.9603 1.0047 1.8872 3.177 1.8872 2.1587 0 3.1634-1.9279t1.0047-5.9195z" style="white-space:pre" aria-label="10"/></g><g transform="translate(90.726 90.584)"><circle cx="36.114" cy="79.046" r="20.543" fill="none" stroke="#000" stroke-linecap="round" stroke-linejoin="round" stroke-width="1.0353"/><circle cx="36.114" cy="79.046" r="14.795" fill="none" stroke="#000" stroke-linecap="round" stroke-linejoin="round" stroke-width="1.3"/><circle cx="36.114" cy="79.046" r="13.249" fill="none" stroke="#000" stroke-linecap="round" stroke-linejoin="round" stroke-width=".65818"/><path transform="matrix(.68512 0 0 .68512 -125.1 -69.704)" d="m222.61 226.68v-2.0773h4.8741v-14.717l-4.3175 3.082v-2.3081l4.5211-3.1091h2.2538v17.053h4.6569v2.0773zm13.4 0v-2.0773h4.8741v-14.717l-4.3175 3.082v-2.3081l4.5211-3.1091h2.2538v17.053h4.6569v2.0773z" style="white-space:pre" aria-label="11"/></g><g transform="translate(136.02 90.584)"><circle cx="36.114" cy="79.046" r="20.543" fill="none" stroke="#000" stroke-linecap="round" stroke-linejoin="round" stroke-width="1.0353"/><circle cx="36.114" cy="79.046" r="14.795" fill="none" stroke="#000" stroke-linecap="round" stroke-linejoin="round" stroke-width="1.3"/><circle cx="36.114" cy="79.046" r="13.249" fill="none" stroke="#000" stroke-linecap="round" stroke-linejoin="round" stroke-width=".65818"/><path transform="matrix(.68512 0 0 .68512 -124.38 -69.606)" d="m220.55 226.68v-2.0773h4.8741v-14.717l-4.3175 3.082v-2.3081l4.5211-3.1091h2.2538v17.053h4.6569v2.0773zm14.745 0v-1.7243q0.69242-1.5885 1.6835-2.7968 1.0047-1.2219 2.1044-2.1995 1.0997-0.99112 2.1723-1.8329 1.0862-0.84176 1.9551-1.6835t1.3984-1.765q0.54308-0.92323 0.54308-2.0908 0-1.5749-0.92323-2.4438-0.92323-0.86892-2.566-0.86892-1.5613 0-2.5796 0.85535-1.0047 0.84177-1.1812 2.376l-2.4982-0.23081q0.27154-2.2945 1.9415-3.6522 1.6835-1.3577 4.3174-1.3577 2.8919 0 4.4396 1.3713 1.5614 1.3577 1.5614 3.8694 0 1.1133-0.51593 2.213-0.50234 1.0997-1.507 2.1995t-3.8423 3.4078q-1.5613 1.2762-2.4846 2.3081-0.92323 1.0183-1.3305 1.9686h9.979v2.0773z" style="white-space:pre" aria-label="12"/></g><g transform="translate(.13348 135.88)"><circle cx="36.114" cy="79.046" r="20.543" fill="none" stroke="#000" stroke-linecap="round" stroke-linejoin="round" stroke-width="1.0353"/><circle cx="36.114" cy="79.046" r="14.795" fill="none" stroke="#000" stroke-linecap="round" stroke-linejoin="round" stroke-width="1.3"/><circle cx="36.114" cy="79.046" r="13.249" fill="none" stroke="#000" stroke-linecap="round" stroke-linejoin="round" stroke-width=".65818"/><path transform="matrix(.68512 0 0 .68512 -124.44 -69.699)" d="m220.55 226.68v-2.0773h4.8741v-14.717l-4.3175 3.082v-2.3081l4.5211-3.1091h2.2538v17.053h4.6569v2.0773zm27.588-5.2814q0 2.6475-1.6835 4.1002t-4.8062 1.4527q-2.9055 0-4.6433-1.3034-1.7243-1.317-2.0501-3.883l2.5253-0.23081q0.48877 3.3942 4.1681 3.3942 1.8465 0 2.8919-0.90965 1.059-0.90965 1.059-2.7018 0-1.5614-1.2084-2.4303-1.1948-0.8825-3.4621-0.8825h-1.3848v-2.118h1.3305q2.0094 0 3.1091-0.86893 1.1133-0.8825 1.1133-2.4303 0-1.5342-0.90965-2.4167-0.89608-0.89608-2.6746-0.89608-1.6156 0-2.6203 0.82819-0.99112 0.8282-1.154 2.3352l-2.4574-0.19007q0.27154-2.3488 1.9415-3.6658 1.6835-1.317 4.3174-1.317 2.8783 0 4.4668 1.3441 1.6021 1.3305 1.6021 3.7201 0 1.8329-1.0318 2.9869-1.0183 1.1405-2.9733 1.5478v0.0543q2.1452 0.23081 3.3399 1.4392 1.1948 1.2084 1.1948 3.0412z" style="white-space:pre" aria-label="13"/></g><g transform="translate(45.43 135.88)"><circle cx="36.114" cy="79.046" r="20.543" fill="none" stroke="#000" stroke-linecap="round" stroke-linejoin="round" stroke-width="1.0353"/><circle cx="36.114" cy="79.046" r="14.795" fill="none" stroke="#000" stroke-linecap="round" stroke-linejoin="round" stroke-width="1.3"/><circle cx="36.114" cy="79.046" r="13.249" fill="none" stroke="#000" stroke-linecap="round" stroke-linejoin="round" stroke-width=".65818"/><path transform="matrix(.68512 0 0 .68512 -124.58 -69.704)" d="m220.55 226.68v-2.0773h4.8741v-14.717l-4.3175 3.082v-2.3081l4.5211-3.1091h2.2538v17.053h4.6569v2.0773zm25.307-4.331v4.331h-2.3081v-4.331h-9.0151v-1.9008l8.7571-12.898h2.566v12.871h2.6882v1.9279zm-2.3081-12.043q-0.0271 0.0815-0.38015 0.71957-0.353 0.63812-0.5295 0.89608l-4.9013 7.2229-0.73315 1.0047-0.21723 0.27154h6.7613z" style="white-space:pre" aria-label="14"/></g><g transform="translate(90.726 135.88)"><circle cx="36.114" cy="79.046" r="20.543" fill="none" stroke="#000" stroke-linecap="round" stroke-linejoin="round" stroke-width="1.0353"/><circle cx="36.114" cy="79.046" r="14.795" fill="none" stroke="#000" stroke-linecap="round" stroke-linejoin="round" stroke-width="1.3"/><circle cx="36.114" cy="79.046" r="13.249" fill="none" stroke="#000" stroke-linecap="round" stroke-linejoin="round" stroke-width=".65818"/><path transform="matrix(.68512 0 0 .68512 -124.45 -69.797)" d="m220.55 226.68v-2.0773h4.8741v-14.717l-4.3175 3.082v-2.3081l4.5211-3.1091h2.2538v17.053h4.6569v2.0773zm27.643-6.2318q0 3.0276-1.8057 4.7655-1.7922 1.7378-4.9827 1.7378-2.6746 0-4.3174-1.1676t-2.0773-3.3806l2.471-0.28512q0.77388 2.8376 3.978 2.8376 1.9686 0 3.082-1.1812 1.1133-1.1948 1.1133-3.272 0-1.8057-1.1269-2.919-1.1133-1.1133-3.0141-1.1133-0.99112 0-1.8465 0.31227-0.85535 0.31227-1.7107 1.059h-2.3895l0.63812-10.291h10.875v2.0773h-8.6485l-0.36658 6.0689q1.5885-1.2219 3.9509-1.2219 2.824 0 4.494 1.6564 1.6835 1.6564 1.6835 4.3175z" style="white-space:pre" aria-label="15"/></g><g transform="translate(136.02 135.88)"><circle cx="36.114" cy="79.046" r="20.543" fill="none" stroke="#000" stroke-linecap="round" stroke-linejoin="round" stroke-width="1.0353"/><circle cx="36.114" cy="79.046" r="14.795" fill="none" stroke="#000" stroke-linecap="round" stroke-linejoin="round" stroke-width="1.3"/><circle cx="36.114" cy="79.046" r="13.249" fill="none" stroke="#000" stroke-linecap="round" stroke-linejoin="round" stroke-width=".65818"/><path transform="matrix(.68512 0 0 .68512 -124.44 -69.699)" d="m220.55 226.68v-2.0773h4.8741v-14.717l-4.3175 3.082v-2.3081l4.5211-3.1091h2.2538v17.053h4.6569v2.0773zm27.588-6.259q0 3.0276-1.6428 4.7791-1.6428 1.7514-4.5347 1.7514-3.2313 0-4.942-2.4031t-1.7107-6.9921q0-4.9691 1.7786-7.6302t5.0642-2.6611q4.331 0 5.4579 3.8966l-2.3352 0.42089q-0.71958-2.3352-3.1498-2.3352-2.0908 0-3.2449 1.9551-1.1405 1.9415-1.1405 5.6344 0.66527-1.2355 1.8736-1.8736 1.2084-0.6517 2.7697-0.6517 2.6475 0 4.1953 1.6564 1.5614 1.6564 1.5614 4.4532zm-2.4846 0.10862q0-2.0773-1.0183-3.2042t-2.8376-1.1269q-1.7107 0-2.7697 1.0047-1.0454 0.99111-1.0454 2.7425 0 2.213 1.0862 3.625 1.0997 1.412 2.8104 1.412 1.765 0 2.7697-1.1812 1.0047-1.1948 1.0047-3.272z" style="white-space:pre" aria-label="16"/></g></g></svg>
