<?xml version="1.0" encoding="UTF-8"?>
<svg width="300mm" height="275mm" version="1.1" viewBox="0 0 300 275" xml:space="preserve" xmlns="http://www.w3.org/2000/svg"><g transform="translate(44.431 -3.7446)"><path transform="matrix(.68512 0 0 .68512 -186.51 -25.615)" d="m230.26 208.59v-12.753h1.7288v11.341h6.4445v1.412zm10.201 0v-1.3848h3.2494v-9.8116l-2.8783 2.0546v-1.5387l3.0141-2.0727h1.5025v11.368h3.1046v1.3848z" style="white-space:pre" aria-label="L1"/><path transform="matrix(.68512 0 0 .68512 -186.51 8.3299)" d="m230.26 208.59v-12.753h1.7288v11.341h6.4445v1.412zm9.7211 0v-1.1495q0.46162-1.059 1.1224-1.8646 0.66979-0.81461 1.403-1.4663 0.73315-0.66074 1.4482-1.2219 0.7241-0.56118 1.3034-1.1224 0.57929-0.56118 0.93228-1.1767 0.36206-0.61548 0.36206-1.3939 0-1.05-0.61549-1.6292t-1.7107-0.57928q-1.0409 0-1.7197 0.57023-0.6698 0.56118-0.78746 1.584l-1.6654-0.15387q0.18103-1.5297 1.2943-2.4348 1.1224-0.90513 2.8783-0.90513 1.9279 0 2.9598 0.91418 1.0409 0.90513 1.0409 2.5796 0 0.7422-0.34395 1.4754-0.33489 0.73315-1.0047 1.4663-0.66979 0.73316-2.5615 2.2719-1.0409 0.85082-1.6564 1.5387-0.61549 0.67884-0.88703 1.3124h6.6527v1.3848z" style="white-space:pre" aria-label="L2"/><path transform="matrix(.68512 0 0 .68512 -186.51 42.278)" d="m230.26 208.59v-12.753h1.7288v11.341h6.4445v1.412zm18.284-3.521q0 1.765-1.1224 2.7335-1.1224 0.96848-3.2042 0.96848-1.937 0-3.0955-0.86892-1.1495-0.87797-1.3667-2.5887l1.6835-0.15387q0.32584 2.2628 2.7787 2.2628 1.231 0 1.9279-0.60643 0.706-0.60644 0.706-1.8012 0-1.0409-0.80557-1.6202-0.79651-0.58833-2.3081-0.58833h-0.92323v-1.412h0.88703q1.3396 0 2.0727-0.57928 0.7422-0.58834 0.7422-1.6202 0-1.0228-0.60643-1.6111-0.59739-0.59738-1.7831-0.59738-1.0771 0-1.7469 0.55213-0.66074 0.55212-0.76936 1.5568l-1.6383-0.12671q0.18103-1.5659 1.2943-2.4438 1.1224-0.87797 2.8783-0.87797 1.9189 0 2.9779 0.89608 1.068 0.88702 1.068 2.48 0 1.2219-0.6879 1.9913-0.67885 0.76031-1.9822 1.0318v0.0362q1.4301 0.15388 2.2266 0.95944t0.79651 2.0275z" style="white-space:pre" aria-label="L3"/><ellipse cx="-8.073" cy="112.93" rx="4.5308" ry="7.4064" fill="none" stroke="#000" stroke-linecap="round" stroke-linejoin="round" stroke-width="1.1404"/><ellipse cx="-8.073" cy="146.87" rx="4.5308" ry="7.4064" fill="none" stroke="#000" stroke-linecap="round" stroke-linejoin="round" stroke-width="1.1404"/><ellipse cx="-8.073" cy="180.82" rx="4.5308" ry="7.4064" fill="none" stroke="#000" stroke-linecap="round" stroke-linejoin="round" stroke-width="1.1404"/><g transform="translate(224.52)"><ellipse cx="-8.073" cy="112.93" rx="4.5308" ry="7.4064" fill="none" stroke="#000" stroke-linecap="round" stroke-linejoin="round" stroke-width="1.1404"/><ellipse cx="-8.073" cy="146.87" rx="4.5308" ry="7.4064" fill="none" stroke="#000" stroke-linecap="round" stroke-linejoin="round" stroke-width="1.1404"/><ellipse cx="-8.073" cy="180.82" rx="4.5308" ry="7.4064" fill="none" stroke="#000" stroke-linecap="round" stroke-linejoin="round" stroke-width="1.1404"/><path transform="matrix(.68512 0 0 .68512 -154.9 -25.615)" d="m236.19 208.59-3.3128-5.295h-3.9735v5.295h-1.7288v-12.753h6.001q2.1542 0 3.3218 0.96848 1.1767 0.95944 1.1767 2.6792 0 1.421-0.83272 2.3895-0.82366 0.96849-2.2809 1.2219l3.6205 5.4941zm-0.25343-9.0875q0-1.1133-0.76031-1.6926-0.75126-0.58833-2.1723-0.58833h-4.1002v4.7067h4.1726q1.3667 0 2.1089-0.63359 0.75126-0.64264 0.75126-1.7922zm4.5166 9.0875v-1.3848h3.2494v-9.8116l-2.8783 2.0546v-1.5387l3.0141-2.0727h1.5025v11.368h3.1046v1.3848z" style="white-space:pre" aria-label="R1"/><path transform="matrix(.68512 0 0 .68512 -154.9 8.3299)" d="m236.19 208.59-3.3128-5.295h-3.9735v5.295h-1.7288v-12.753h6.001q2.1542 0 3.3218 0.96848 1.1767 0.95944 1.1767 2.6792 0 1.421-0.83272 2.3895-0.82366 0.96849-2.2809 1.2219l3.6205 5.4941zm-0.25343-9.0875q0-1.1133-0.76031-1.6926-0.75126-0.58833-2.1723-0.58833h-4.1002v4.7067h4.1726q1.3667 0 2.1089-0.63359 0.75126-0.64264 0.75126-1.7922zm4.0369 9.0875v-1.1495q0.46162-1.059 1.1224-1.8646 0.66979-0.81461 1.403-1.4663 0.73315-0.66074 1.4482-1.2219 0.7241-0.56118 1.3034-1.1224 0.57929-0.56118 0.93228-1.1767 0.36206-0.61548 0.36206-1.3939 0-1.05-0.61549-1.6292t-1.7107-0.57928q-1.0409 0-1.7197 0.57023-0.6698 0.56118-0.78746 1.584l-1.6654-0.15387q0.18103-1.5297 1.2943-2.4348 1.1224-0.90513 2.8783-0.90513 1.9279 0 2.9598 0.91418 1.0409 0.90513 1.0409 2.5796 0 0.7422-0.34395 1.4754-0.33489 0.73315-1.0047 1.4663-0.66979 0.73316-2.5615 2.2719-1.0409 0.85082-1.6564 1.5387-0.61549 0.67884-0.88703 1.3124h6.6527v1.3848z" style="white-space:pre" aria-label="R2"/><path transform="matrix(.68512 0 0 .68512 -154.9 42.278)" d="m236.19 208.59-3.3128-5.295h-3.9735v5.295h-1.7288v-12.753h6.001q2.1542 0 3.3218 0.96848 1.1767 0.95944 1.1767 2.6792 0 1.421-0.83272 2.3895-0.82366 0.96849-2.2809 1.2219l3.6205 5.4941zm-0.25343-9.0875q0-1.1133-0.76031-1.6926-0.75126-0.58833-2.1723-0.58833h-4.1002v4.7067h4.1726q1.3667 0 2.1089-0.63359 0.75126-0.64264 0.75126-1.7922zm12.599 5.5665q0 1.765-1.1224 2.7335-1.1224 0.96848-3.2042 0.96848-1.937 0-3.0955-0.86892-1.1495-0.87797-1.3667-2.5887l1.6835-0.15387q0.32584 2.2628 2.7787 2.2628 1.231 0 1.9279-0.60643 0.706-0.60644 0.706-1.8012 0-1.0409-0.80557-1.6202-0.79651-0.58833-2.3081-0.58833h-0.92323v-1.412h0.88703q1.3396 0 2.0727-0.57928 0.7422-0.58834 0.7422-1.6202 0-1.0228-0.60643-1.6111-0.59739-0.59738-1.7831-0.59738-1.0771 0-1.7469 0.55213-0.66074 0.55212-0.76936 1.5568l-1.6383-0.12671q0.18103-1.5659 1.2943-2.4438 1.1224-0.87797 2.8783-0.87797 1.9189 0 2.9779 0.89608 1.068 0.88702 1.068 2.48 0 1.2219-0.6879 1.9913-0.67885 0.76031-1.9822 1.0318v0.0362q1.4301 0.15388 2.2266 0.95944t0.79651 2.0275z" style="white-space:pre" aria-label="R3"/></g><rect x="-9.8147" y="32.968" width="228.07" height="228.36" rx="15.865" ry="17.004" fill="#fff" stroke="#000" stroke-linecap="round" stroke-linejoin="round"/><rect x="-5.3826" y="36.832" width="219.2" height="220.63" rx="12.661" ry="13.841" fill="none" stroke="#000" stroke-linecap="round" stroke-linejoin="round" stroke-width=".96364"/><path transform="matrix(.68512 0 0 .68512 -53.716 -113.38)" d="m217.86 208.77q-1.5659 0-2.7335-0.57023t-1.8103-1.6564-0.64264-2.5887v-8.119h1.7288v7.9742q0 1.7469 0.88703 2.652 0.88702 0.90513 2.5615 0.90513 1.7197 0 2.6701-0.93229 0.95944-0.94133 0.95944-2.7425v-7.8565h1.7197v7.9561q0 1.5478-0.66074 2.6701-0.6517 1.1224-1.8555 1.7197-1.1948 0.58833-2.824 0.58833zm18.284-3.702q0 1.765-1.3848 2.7335-1.3758 0.96848-3.883 0.96848-4.6614 0-5.4036-3.2404l1.6745-0.3349q0.28964 1.1495 1.231 1.6926 0.94133 0.53402 2.5615 0.53402 1.6745 0 2.5796-0.57023 0.91418-0.57928 0.91418-1.6926 0-0.62454-0.28965-1.0138-0.28058-0.3892-0.79651-0.64264-0.51592-0.25343-1.231-0.42541-0.71505-0.17197-1.584-0.3711-1.5116-0.3349-2.299-0.66979-0.77841-0.3349-1.231-0.74221-0.45256-0.41636-0.69695-0.96848-0.23533-0.55213-0.23533-1.2672 0-1.6383 1.2491-2.5253 1.2581-0.88703 3.5934-0.88703 2.1723 0 3.3218 0.66979 1.1495 0.66075 1.6111 2.2628l-1.7016 0.29869q-0.28058-1.0137-1.068-1.4663-0.78746-0.46162-2.1814-0.46162-1.5297 0-2.3352 0.50687-0.80556 0.50688-0.80556 1.5116 0 0.58833 0.30774 0.97753 0.3168 0.38016 0.90513 0.6517 0.58833 0.26248 2.3443 0.65169 0.58833 0.13577 1.1676 0.28059 0.58833 0.13577 1.1224 0.33489 0.53402 0.19008 0.99564 0.45257 0.47066 0.26248 0.81461 0.64264 0.34395 0.38015 0.53403 0.89607 0.19913 0.51592 0.19913 1.2129zm12.237-0.0724q0 1.7016-1.24 2.652-1.24 0.94134-3.4485 0.94134h-5.1773v-12.753h4.6342q4.4894 0 4.4894 3.0955 0 1.1314-0.63359 1.9008t-1.7922 1.0318q1.5206 0.18103 2.3443 1.0228 0.82366 0.83271 0.82366 2.1089zm-2.48-5.8562q0-1.0318-0.706-1.4754-0.706-0.44351-2.0456-0.44351h-2.9055v4.0369h2.9055q1.3848 0 2.0637-0.51592 0.68789-0.52498 0.68789-1.6021zm0.73316 5.7204q0-2.2538-3.168-2.2538h-3.2222v4.598h3.358q1.584 0 2.3081-0.58833 0.72411-0.58833 0.72411-1.756z" style="white-space:pre" aria-label="USB"/><g transform="translate(-6.9821 -3.0192)"><circle cx="36.114" cy="79.046" r="20.543" fill="none" stroke="#000" stroke-linecap="round" stroke-linejoin="round" stroke-width="1.0353"/><circle transform="rotate(263.86)" cx="-97.677" cy="34.877" r="1.7198" fill="none" stroke="#000" stroke-linecap="round" stroke-linejoin="round" stroke-width=".7"/><circle transform="rotate(168.56)" cx="-31.57" cy="-96.222" r="1.7198" fill="none" stroke="#000" stroke-linecap="round" stroke-linejoin="round" stroke-width=".7"/><circle transform="rotate(73.259)" cx="91.649" cy="-27.003" r="1.7198" fill="none" stroke="#000" stroke-linecap="round" stroke-linejoin="round" stroke-width=".7"/><circle transform="rotate(-22.039)" cx="19.509" cy="85.459" r="1.7198" fill="none" stroke="#000" stroke-linecap="round" stroke-linejoin="round" stroke-width=".7"/><circle transform="rotate(242.66)" cx="-78.911" cy="9.053" r="1.7198" fill="none" stroke="#000" stroke-linecap="round" stroke-linejoin="round" stroke-width=".7"/><circle transform="rotate(147.36)" cx="3.8659" cy="-73.194" r="1.7198" fill="none" stroke="#000" stroke-linecap="round" stroke-linejoin="round" stroke-width=".7"/><circle transform="rotate(52.066)" cx="69.218" cy="18.288" r="1.7198" fill="none" stroke="#000" stroke-linecap="round" stroke-linejoin="round" stroke-width=".7"/><circle transform="rotate(-43.233)" cx="-32.961" cy="67.441" r="1.7198" fill="none" stroke="#000" stroke-linecap="round" stroke-linejoin="round" stroke-width=".7"/><circle transform="rotate(221.47)" cx="-67.794" cy="-46.554" r="1.7198" fill="none" stroke="#000" stroke-linecap="round" stroke-linejoin="round" stroke-width=".7"/><circle transform="rotate(126.17)" cx="57.893" cy="-69.691" r="1.7198" fill="none" stroke="#000" stroke-linecap="round" stroke-linejoin="round" stroke-width=".7"/><circle transform="rotate(30.873)" cx="71.421" cy="65.979" r="1.7198" fill="none" stroke="#000" stroke-linecap="round" stroke-linejoin="round" stroke-width=".7"/><path transform="rotate(91.738)" d="m96.611-39.143c0 2.9639-0.71709 5.5171-2.0889 5.2318-2.2649-0.47096 0.0027-2.93-0.0074-5.2483-0.0096-2.186-2.5142-4.8348-0.3252-5.6209 1.1317-0.40642 2.4215 2.6734 2.4215 5.6374z" fill="none" stroke="#000" stroke-linecap="round" stroke-linejoin="round" stroke-width=".7"/><circle cx="36.114" cy="79.046" r="7.6858" fill="none" stroke="#000" stroke-linecap="round" stroke-linejoin="round" stroke-width=".7"/><circle cx="36.114" cy="79.046" r="12.473" fill="none" stroke="#000" stroke-linecap="round" stroke-linejoin="round" stroke-width=".6576"/><path d="m33.832 82.686v-0.79065h1.8552v-5.6017l-1.6433 1.1731v-0.8785l1.7208-1.1834h0.85783v6.4905h1.7725v0.79065z" stroke-width=".26458" aria-label="1"/></g><g transform="translate(43.077 -3.0192)"><circle cx="36.114" cy="79.046" r="20.543" fill="none" stroke="#000" stroke-linecap="round" stroke-linejoin="round" stroke-width="1.0353"/><circle transform="rotate(263.86)" cx="-97.677" cy="34.877" r="1.7198" fill="none" stroke="#000" stroke-linecap="round" stroke-linejoin="round" stroke-width=".7"/><circle transform="rotate(168.56)" cx="-31.57" cy="-96.222" r="1.7198" fill="none" stroke="#000" stroke-linecap="round" stroke-linejoin="round" stroke-width=".7"/><circle transform="rotate(73.259)" cx="91.649" cy="-27.003" r="1.7198" fill="none" stroke="#000" stroke-linecap="round" stroke-linejoin="round" stroke-width=".7"/><circle transform="rotate(-22.039)" cx="19.509" cy="85.459" r="1.7198" fill="none" stroke="#000" stroke-linecap="round" stroke-linejoin="round" stroke-width=".7"/><circle transform="rotate(242.66)" cx="-78.911" cy="9.053" r="1.7198" fill="none" stroke="#000" stroke-linecap="round" stroke-linejoin="round" stroke-width=".7"/><circle transform="rotate(147.36)" cx="3.8659" cy="-73.194" r="1.7198" fill="none" stroke="#000" stroke-linecap="round" stroke-linejoin="round" stroke-width=".7"/><circle transform="rotate(52.066)" cx="69.218" cy="18.288" r="1.7198" fill="none" stroke="#000" stroke-linecap="round" stroke-linejoin="round" stroke-width=".7"/><circle transform="rotate(-43.233)" cx="-32.961" cy="67.441" r="1.7198" fill="none" stroke="#000" stroke-linecap="round" stroke-linejoin="round" stroke-width=".7"/><circle transform="rotate(221.47)" cx="-67.794" cy="-46.554" r="1.7198" fill="none" stroke="#000" stroke-linecap="round" stroke-linejoin="round" stroke-width=".7"/><circle transform="rotate(126.17)" cx="57.893" cy="-69.691" r="1.7198" fill="none" stroke="#000" stroke-linecap="round" stroke-linejoin="round" stroke-width=".7"/><circle transform="rotate(30.873)" cx="71.421" cy="65.979" r="1.7198" fill="none" stroke="#000" stroke-linecap="round" stroke-linejoin="round" stroke-width=".7"/><path transform="rotate(91.738)" d="m96.611-39.143c0 2.9639-0.71709 5.5171-2.0889 5.2318-2.2649-0.47096 0.0027-2.93-0.0074-5.2483-0.0096-2.186-2.5142-4.8348-0.3252-5.6209 1.1317-0.40642 2.4215 2.6734 2.4215 5.6374z" fill="none" stroke="#000" stroke-linecap="round" stroke-linejoin="round" stroke-width=".7"/><circle cx="36.114" cy="79.046" r="7.6858" fill="none" stroke="#000" stroke-linecap="round" stroke-linejoin="round" stroke-width=".7"/><circle cx="36.114" cy="79.046" r="12.473" fill="none" stroke="#000" stroke-linecap="round" stroke-linejoin="round" stroke-width=".6576"/><path d="m33.558 82.686v-0.65629q0.26355-0.60461 0.64079-1.0645 0.3824-0.46509 0.80098-0.83716 0.41858-0.37724 0.82682-0.69763 0.41341-0.32039 0.74414-0.64078t0.53226-0.67179q0.2067-0.3514 0.2067-0.79581 0-0.59944-0.3514-0.93017t-0.97668-0.33073q-0.59428 0-0.98185 0.32556-0.3824 0.32039-0.44958 0.90434l-0.95084-0.08785q0.10335-0.87333 0.73897-1.3901 0.64079-0.51676 1.6433-0.51676 1.1007 0 1.6898 0.52193 0.59428 0.51676 0.59428 1.4728 0 0.42374-0.19637 0.84232-0.1912 0.41858-0.57361 0.83716-0.3824 0.41858-1.4624 1.2971-0.59428 0.48576-0.94568 0.8785-0.3514 0.38757-0.50643 0.74931h3.7982v0.79065z" stroke-width=".26458" aria-label="2"/></g><g transform="translate(143.19 -3.0192)"><circle cx="36.114" cy="79.046" r="20.543" fill="none" stroke="#000" stroke-linecap="round" stroke-linejoin="round" stroke-width="1.0353"/><circle transform="rotate(263.86)" cx="-97.677" cy="34.877" r="1.7198" fill="none" stroke="#000" stroke-linecap="round" stroke-linejoin="round" stroke-width=".7"/><circle transform="rotate(168.56)" cx="-31.57" cy="-96.222" r="1.7198" fill="none" stroke="#000" stroke-linecap="round" stroke-linejoin="round" stroke-width=".7"/><circle transform="rotate(73.259)" cx="91.649" cy="-27.003" r="1.7198" fill="none" stroke="#000" stroke-linecap="round" stroke-linejoin="round" stroke-width=".7"/><circle transform="rotate(-22.039)" cx="19.509" cy="85.459" r="1.7198" fill="none" stroke="#000" stroke-linecap="round" stroke-linejoin="round" stroke-width=".7"/><circle transform="rotate(242.66)" cx="-78.911" cy="9.053" r="1.7198" fill="none" stroke="#000" stroke-linecap="round" stroke-linejoin="round" stroke-width=".7"/><circle transform="rotate(147.36)" cx="3.8659" cy="-73.194" r="1.7198" fill="none" stroke="#000" stroke-linecap="round" stroke-linejoin="round" stroke-width=".7"/><circle transform="rotate(52.066)" cx="69.218" cy="18.288" r="1.7198" fill="none" stroke="#000" stroke-linecap="round" stroke-linejoin="round" stroke-width=".7"/><circle transform="rotate(-43.233)" cx="-32.961" cy="67.441" r="1.7198" fill="none" stroke="#000" stroke-linecap="round" stroke-linejoin="round" stroke-width=".7"/><circle transform="rotate(221.47)" cx="-67.794" cy="-46.554" r="1.7198" fill="none" stroke="#000" stroke-linecap="round" stroke-linejoin="round" stroke-width=".7"/><circle transform="rotate(126.17)" cx="57.893" cy="-69.691" r="1.7198" fill="none" stroke="#000" stroke-linecap="round" stroke-linejoin="round" stroke-width=".7"/><circle transform="rotate(30.873)" cx="71.421" cy="65.979" r="1.7198" fill="none" stroke="#000" stroke-linecap="round" stroke-linejoin="round" stroke-width=".7"/><path transform="rotate(91.738)" d="m96.611-39.143c0 2.9639-0.71709 5.5171-2.0889 5.2318-2.2649-0.47096 0.0027-2.93-0.0074-5.2483-0.0096-2.186-2.5142-4.8348-0.3252-5.6209 1.1317-0.40642 2.4215 2.6734 2.4215 5.6374z" fill="none" stroke="#000" stroke-linecap="round" stroke-linejoin="round" stroke-width=".7"/><circle cx="36.114" cy="79.046" r="7.6858" fill="none" stroke="#000" stroke-linecap="round" stroke-linejoin="round" stroke-width=".7"/><circle cx="36.114" cy="79.046" r="12.473" fill="none" stroke="#000" stroke-linecap="round" stroke-linejoin="round" stroke-width=".6576"/><path d="m37.579 81.038v1.6485h-0.8785v-1.6485h-3.4313v-0.72347l3.3331-4.9092h0.97668v4.8989h1.0232v0.7338zm-0.8785-4.5837q-0.01033 0.03101-0.14469 0.27388-0.13436 0.24288-0.20154 0.34106l-1.8655 2.7492-0.27905 0.3824-0.08268 0.10335h2.5735z" stroke-width=".26458" aria-label="4"/></g><g transform="translate(43.077 44.394)"><circle cx="36.114" cy="79.046" r="20.543" fill="none" stroke="#000" stroke-linecap="round" stroke-linejoin="round" stroke-width="1.0353"/><circle transform="rotate(263.86)" cx="-97.677" cy="34.877" r="1.7198" fill="none" stroke="#000" stroke-linecap="round" stroke-linejoin="round" stroke-width=".7"/><circle transform="rotate(168.56)" cx="-31.57" cy="-96.222" r="1.7198" fill="none" stroke="#000" stroke-linecap="round" stroke-linejoin="round" stroke-width=".7"/><circle transform="rotate(73.259)" cx="91.649" cy="-27.003" r="1.7198" fill="none" stroke="#000" stroke-linecap="round" stroke-linejoin="round" stroke-width=".7"/><circle transform="rotate(-22.039)" cx="19.509" cy="85.459" r="1.7198" fill="none" stroke="#000" stroke-linecap="round" stroke-linejoin="round" stroke-width=".7"/><circle transform="rotate(242.66)" cx="-78.911" cy="9.053" r="1.7198" fill="none" stroke="#000" stroke-linecap="round" stroke-linejoin="round" stroke-width=".7"/><circle transform="rotate(147.36)" cx="3.8659" cy="-73.194" r="1.7198" fill="none" stroke="#000" stroke-linecap="round" stroke-linejoin="round" stroke-width=".7"/><circle transform="rotate(52.066)" cx="69.218" cy="18.288" r="1.7198" fill="none" stroke="#000" stroke-linecap="round" stroke-linejoin="round" stroke-width=".7"/><circle transform="rotate(-43.233)" cx="-32.961" cy="67.441" r="1.7198" fill="none" stroke="#000" stroke-linecap="round" stroke-linejoin="round" stroke-width=".7"/><circle transform="rotate(221.47)" cx="-67.794" cy="-46.554" r="1.7198" fill="none" stroke="#000" stroke-linecap="round" stroke-linejoin="round" stroke-width=".7"/><circle transform="rotate(126.17)" cx="57.893" cy="-69.691" r="1.7198" fill="none" stroke="#000" stroke-linecap="round" stroke-linejoin="round" stroke-width=".7"/><circle transform="rotate(30.873)" cx="71.421" cy="65.979" r="1.7198" fill="none" stroke="#000" stroke-linecap="round" stroke-linejoin="round" stroke-width=".7"/><path transform="rotate(91.738)" d="m96.611-39.143c0 2.9639-0.71709 5.5171-2.0889 5.2318-2.2649-0.47096 0.0027-2.93-0.0074-5.2483-0.0096-2.186-2.5142-4.8348-0.3252-5.6209 1.1317-0.40642 2.4215 2.6734 2.4215 5.6374z" fill="none" stroke="#000" stroke-linecap="round" stroke-linejoin="round" stroke-width=".7"/><circle cx="36.114" cy="79.046" r="7.6858" fill="none" stroke="#000" stroke-linecap="round" stroke-linejoin="round" stroke-width=".7"/><circle cx="36.114" cy="79.046" r="12.473" fill="none" stroke="#000" stroke-linecap="round" stroke-linejoin="round" stroke-width=".6576"/><path d="m38.447 80.304q0 1.1524-0.62528 1.819t-1.726 0.66662q-1.2299 0-1.881-0.91467t-0.65112-2.6613q0-1.8914 0.67696-2.9042t1.9275-1.0129q1.6485 0 2.0774 1.4831l-0.88883 0.1602q-0.27388-0.88883-1.1989-0.88883-0.79582 0-1.2351 0.74414-0.43408 0.73897-0.43408 2.1446 0.25321-0.47025 0.71313-0.71313 0.45992-0.24805 1.0542-0.24805 1.0077 0 1.5968 0.63045 0.59428 0.63045 0.59428 1.695zm-0.94568 0.04134q0-0.79065-0.38757-1.2196t-1.08-0.42891q-0.65112 0-1.0542 0.3824-0.39791 0.37724-0.39791 1.0439 0 0.84232 0.41341 1.3798 0.41858 0.53743 1.0697 0.53743 0.67179 0 1.0542-0.44958 0.3824-0.45475 0.3824-1.2454z" stroke-width=".26458" aria-label="6"/></g><g transform="translate(93.136 44.394)"><circle cx="36.114" cy="79.046" r="20.543" fill="none" stroke="#000" stroke-linecap="round" stroke-linejoin="round" stroke-width="1.0353"/><circle transform="rotate(263.86)" cx="-97.677" cy="34.877" r="1.7198" fill="none" stroke="#000" stroke-linecap="round" stroke-linejoin="round" stroke-width=".7"/><circle transform="rotate(168.56)" cx="-31.57" cy="-96.222" r="1.7198" fill="none" stroke="#000" stroke-linecap="round" stroke-linejoin="round" stroke-width=".7"/><circle transform="rotate(73.259)" cx="91.649" cy="-27.003" r="1.7198" fill="none" stroke="#000" stroke-linecap="round" stroke-linejoin="round" stroke-width=".7"/><circle transform="rotate(-22.039)" cx="19.509" cy="85.459" r="1.7198" fill="none" stroke="#000" stroke-linecap="round" stroke-linejoin="round" stroke-width=".7"/><circle transform="rotate(242.66)" cx="-78.911" cy="9.053" r="1.7198" fill="none" stroke="#000" stroke-linecap="round" stroke-linejoin="round" stroke-width=".7"/><circle transform="rotate(147.36)" cx="3.8659" cy="-73.194" r="1.7198" fill="none" stroke="#000" stroke-linecap="round" stroke-linejoin="round" stroke-width=".7"/><circle transform="rotate(52.066)" cx="69.218" cy="18.288" r="1.7198" fill="none" stroke="#000" stroke-linecap="round" stroke-linejoin="round" stroke-width=".7"/><circle transform="rotate(-43.233)" cx="-32.961" cy="67.441" r="1.7198" fill="none" stroke="#000" stroke-linecap="round" stroke-linejoin="round" stroke-width=".7"/><circle transform="rotate(221.47)" cx="-67.794" cy="-46.554" r="1.7198" fill="none" stroke="#000" stroke-linecap="round" stroke-linejoin="round" stroke-width=".7"/><circle transform="rotate(126.17)" cx="57.893" cy="-69.691" r="1.7198" fill="none" stroke="#000" stroke-linecap="round" stroke-linejoin="round" stroke-width=".7"/><circle transform="rotate(30.873)" cx="71.421" cy="65.979" r="1.7198" fill="none" stroke="#000" stroke-linecap="round" stroke-linejoin="round" stroke-width=".7"/><path transform="rotate(91.738)" d="m96.611-39.143c0 2.9639-0.71709 5.5171-2.0889 5.2318-2.2649-0.47096 0.0027-2.93-0.0074-5.2483-0.0096-2.186-2.5142-4.8348-0.3252-5.6209 1.1317-0.40642 2.4215 2.6734 2.4215 5.6374z" fill="none" stroke="#000" stroke-linecap="round" stroke-linejoin="round" stroke-width=".7"/><circle cx="36.114" cy="79.046" r="7.6858" fill="none" stroke="#000" stroke-linecap="round" stroke-linejoin="round" stroke-width=".7"/><circle cx="36.114" cy="79.046" r="12.473" fill="none" stroke="#000" stroke-linecap="round" stroke-linejoin="round" stroke-width=".6576"/><path d="m38.38 76.16q-1.1162 1.7053-1.5761 2.6717-0.45992 0.96635-0.69246 1.9069-0.22738 0.94051-0.22738 1.9482h-0.97151q0-1.3953 0.58911-2.9352 0.59428-1.5451 1.9792-3.5553h-3.9119v-0.79065h4.8111z" stroke-width=".26458" aria-label="7"/></g><g transform="translate(143.19 44.394)"><circle cx="36.114" cy="79.046" r="20.543" fill="none" stroke="#000" stroke-linecap="round" stroke-linejoin="round" stroke-width="1.0353"/><circle transform="rotate(263.86)" cx="-97.677" cy="34.877" r="1.7198" fill="none" stroke="#000" stroke-linecap="round" stroke-linejoin="round" stroke-width=".7"/><circle transform="rotate(168.56)" cx="-31.57" cy="-96.222" r="1.7198" fill="none" stroke="#000" stroke-linecap="round" stroke-linejoin="round" stroke-width=".7"/><circle transform="rotate(73.259)" cx="91.649" cy="-27.003" r="1.7198" fill="none" stroke="#000" stroke-linecap="round" stroke-linejoin="round" stroke-width=".7"/><circle transform="rotate(-22.039)" cx="19.509" cy="85.459" r="1.7198" fill="none" stroke="#000" stroke-linecap="round" stroke-linejoin="round" stroke-width=".7"/><circle transform="rotate(242.66)" cx="-78.911" cy="9.053" r="1.7198" fill="none" stroke="#000" stroke-linecap="round" stroke-linejoin="round" stroke-width=".7"/><circle transform="rotate(147.36)" cx="3.8659" cy="-73.194" r="1.7198" fill="none" stroke="#000" stroke-linecap="round" stroke-linejoin="round" stroke-width=".7"/><circle transform="rotate(52.066)" cx="69.218" cy="18.288" r="1.7198" fill="none" stroke="#000" stroke-linecap="round" stroke-linejoin="round" stroke-width=".7"/><circle transform="rotate(-43.233)" cx="-32.961" cy="67.441" r="1.7198" fill="none" stroke="#000" stroke-linecap="round" stroke-linejoin="round" stroke-width=".7"/><circle transform="rotate(221.47)" cx="-67.794" cy="-46.554" r="1.7198" fill="none" stroke="#000" stroke-linecap="round" stroke-linejoin="round" stroke-width=".7"/><circle transform="rotate(126.17)" cx="57.893" cy="-69.691" r="1.7198" fill="none" stroke="#000" stroke-linecap="round" stroke-linejoin="round" stroke-width=".7"/><circle transform="rotate(30.873)" cx="71.421" cy="65.979" r="1.7198" fill="none" stroke="#000" stroke-linecap="round" stroke-linejoin="round" stroke-width=".7"/><path transform="rotate(91.738)" d="m96.611-39.143c0 2.9639-0.71709 5.5171-2.0889 5.2318-2.2649-0.47096 0.0027-2.93-0.0074-5.2483-0.0096-2.186-2.5142-4.8348-0.3252-5.6209 1.1317-0.40642 2.4215 2.6734 2.4215 5.6374z" fill="none" stroke="#000" stroke-linecap="round" stroke-linejoin="round" stroke-width=".7"/><circle cx="36.114" cy="79.046" r="7.6858" fill="none" stroke="#000" stroke-linecap="round" stroke-linejoin="round" stroke-width=".7"/><circle cx="36.114" cy="79.046" r="12.473" fill="none" stroke="#000" stroke-linecap="round" stroke-linejoin="round" stroke-width=".6576"/><path d="m38.452 80.656q0 1.0077-0.64079 1.571-0.64079 0.56327-1.8397 0.56327-1.1679 0-1.8293-0.55294-0.65629-0.55294-0.65629-1.571 0-0.71313 0.40824-1.1989t1.0439-0.58911v-0.02067q-0.59428-0.13953-0.94051-0.60461-0.34106-0.46509-0.34106-1.0904 0-0.83199 0.62012-1.3488 0.62528-0.51676 1.6743-0.51676 1.0749 0 1.695 0.50643 0.62528 0.50643 0.62528 1.3694 0 0.62528-0.34623 1.0904-0.34623 0.46509-0.94568 0.58394v0.02067q0.69763 0.11369 1.0852 0.59428 0.38757 0.47542 0.38757 1.1937zm-1.1472-3.4313q0-1.2351-1.3539-1.2351-0.65629 0-1.0025 0.31006-0.34106 0.31006-0.34106 0.92501 0 0.62528 0.3514 0.95601 0.35657 0.32556 1.0025 0.32556 0.65629 0 0.99735-0.29972 0.34623-0.30489 0.34623-0.98185zm0.18087 3.3435q0-0.67696-0.40308-1.018-0.40308-0.34623-1.1317-0.34623-0.70796 0-1.1059 0.37207-0.39791 0.3669-0.39791 1.0129 0 1.5038 1.5348 1.5038 0.75964 0 1.1317-0.36173 0.37207-0.3669 0.37207-1.1627z" stroke-width=".26458" aria-label="8"/></g><g transform="translate(-6.9821 91.807)"><circle cx="36.114" cy="79.046" r="20.543" fill="none" stroke="#000" stroke-linecap="round" stroke-linejoin="round" stroke-width="1.0353"/><circle transform="rotate(263.86)" cx="-97.677" cy="34.877" r="1.7198" fill="none" stroke="#000" stroke-linecap="round" stroke-linejoin="round" stroke-width=".7"/><circle transform="rotate(168.56)" cx="-31.57" cy="-96.222" r="1.7198" fill="none" stroke="#000" stroke-linecap="round" stroke-linejoin="round" stroke-width=".7"/><circle transform="rotate(73.259)" cx="91.649" cy="-27.003" r="1.7198" fill="none" stroke="#000" stroke-linecap="round" stroke-linejoin="round" stroke-width=".7"/><circle transform="rotate(-22.039)" cx="19.509" cy="85.459" r="1.7198" fill="none" stroke="#000" stroke-linecap="round" stroke-linejoin="round" stroke-width=".7"/><circle transform="rotate(242.66)" cx="-78.911" cy="9.053" r="1.7198" fill="none" stroke="#000" stroke-linecap="round" stroke-linejoin="round" stroke-width=".7"/><circle transform="rotate(147.36)" cx="3.8659" cy="-73.194" r="1.7198" fill="none" stroke="#000" stroke-linecap="round" stroke-linejoin="round" stroke-width=".7"/><circle transform="rotate(52.066)" cx="69.218" cy="18.288" r="1.7198" fill="none" stroke="#000" stroke-linecap="round" stroke-linejoin="round" stroke-width=".7"/><circle transform="rotate(-43.233)" cx="-32.961" cy="67.441" r="1.7198" fill="none" stroke="#000" stroke-linecap="round" stroke-linejoin="round" stroke-width=".7"/><circle transform="rotate(221.47)" cx="-67.794" cy="-46.554" r="1.7198" fill="none" stroke="#000" stroke-linecap="round" stroke-linejoin="round" stroke-width=".7"/><circle transform="rotate(126.17)" cx="57.893" cy="-69.691" r="1.7198" fill="none" stroke="#000" stroke-linecap="round" stroke-linejoin="round" stroke-width=".7"/><circle transform="rotate(30.873)" cx="71.421" cy="65.979" r="1.7198" fill="none" stroke="#000" stroke-linecap="round" stroke-linejoin="round" stroke-width=".7"/><path transform="rotate(91.738)" d="m96.611-39.143c0 2.9639-0.71709 5.5171-2.0889 5.2318-2.2649-0.47096 0.0027-2.93-0.0074-5.2483-0.0096-2.186-2.5142-4.8348-0.3252-5.6209 1.1317-0.40642 2.4215 2.6734 2.4215 5.6374z" fill="none" stroke="#000" stroke-linecap="round" stroke-linejoin="round" stroke-width=".7"/><circle cx="36.114" cy="79.046" r="7.6858" fill="none" stroke="#000" stroke-linecap="round" stroke-linejoin="round" stroke-width=".7"/><circle cx="36.114" cy="79.046" r="12.473" fill="none" stroke="#000" stroke-linecap="round" stroke-linejoin="round" stroke-width=".6576"/><path d="m38.411 78.899q0 1.8758-0.6873 2.8835-0.68213 1.0077-1.9482 1.0077-0.85266 0-1.3694-0.35657-0.5116-0.36173-0.7338-1.1627l0.88883-0.13953q0.27905 0.9095 1.2299 0.9095 0.80098 0 1.2402-0.74414 0.43925-0.74414 0.45992-2.1239-0.2067 0.46509-0.70796 0.74931-0.50126 0.27905-1.1007 0.27905-0.98185 0-1.571-0.67179-0.58911-0.67179-0.58911-1.7828 0-1.142 0.64079-1.7932 0.64078-0.65629 1.7828-0.65629 1.2144 0 1.8397 0.89917t0.62528 2.7027zm-1.0129-0.89917q0-0.8785-0.40308-1.4108-0.40308-0.53743-1.08-0.53743-0.67179 0-1.0594 0.45992-0.38757 0.45475-0.38757 1.2351 0 0.79581 0.38757 1.2609 0.38757 0.45992 1.049 0.45992 0.40308 0 0.74931-0.18087 0.34623-0.18604 0.5426-0.52193 0.20154-0.3359 0.20154-0.76481z" stroke-width=".26458" aria-label="9"/></g><g transform="translate(93.136 91.807)"><circle cx="36.114" cy="79.046" r="20.543" fill="none" stroke="#000" stroke-linecap="round" stroke-linejoin="round" stroke-width="1.0353"/><circle transform="rotate(263.86)" cx="-97.677" cy="34.877" r="1.7198" fill="none" stroke="#000" stroke-linecap="round" stroke-linejoin="round" stroke-width=".7"/><circle transform="rotate(168.56)" cx="-31.57" cy="-96.222" r="1.7198" fill="none" stroke="#000" stroke-linecap="round" stroke-linejoin="round" stroke-width=".7"/><circle transform="rotate(73.259)" cx="91.649" cy="-27.003" r="1.7198" fill="none" stroke="#000" stroke-linecap="round" stroke-linejoin="round" stroke-width=".7"/><circle transform="rotate(-22.039)" cx="19.509" cy="85.459" r="1.7198" fill="none" stroke="#000" stroke-linecap="round" stroke-linejoin="round" stroke-width=".7"/><circle transform="rotate(242.66)" cx="-78.911" cy="9.053" r="1.7198" fill="none" stroke="#000" stroke-linecap="round" stroke-linejoin="round" stroke-width=".7"/><circle transform="rotate(147.36)" cx="3.8659" cy="-73.194" r="1.7198" fill="none" stroke="#000" stroke-linecap="round" stroke-linejoin="round" stroke-width=".7"/><circle transform="rotate(52.066)" cx="69.218" cy="18.288" r="1.7198" fill="none" stroke="#000" stroke-linecap="round" stroke-linejoin="round" stroke-width=".7"/><circle transform="rotate(-43.233)" cx="-32.961" cy="67.441" r="1.7198" fill="none" stroke="#000" stroke-linecap="round" stroke-linejoin="round" stroke-width=".7"/><circle transform="rotate(221.47)" cx="-67.794" cy="-46.554" r="1.7198" fill="none" stroke="#000" stroke-linecap="round" stroke-linejoin="round" stroke-width=".7"/><circle transform="rotate(126.17)" cx="57.893" cy="-69.691" r="1.7198" fill="none" stroke="#000" stroke-linecap="round" stroke-linejoin="round" stroke-width=".7"/><circle transform="rotate(30.873)" cx="71.421" cy="65.979" r="1.7198" fill="none" stroke="#000" stroke-linecap="round" stroke-linejoin="round" stroke-width=".7"/><path transform="rotate(91.738)" d="m96.611-39.143c0 2.9639-0.71709 5.5171-2.0889 5.2318-2.2649-0.47096 0.0027-2.93-0.0074-5.2483-0.0096-2.186-2.5142-4.8348-0.3252-5.6209 1.1317-0.40642 2.4215 2.6734 2.4215 5.6374z" fill="none" stroke="#000" stroke-linecap="round" stroke-linejoin="round" stroke-width=".7"/><circle cx="36.114" cy="79.046" r="7.6858" fill="none" stroke="#000" stroke-linecap="round" stroke-linejoin="round" stroke-width=".7"/><circle cx="36.114" cy="79.046" r="12.473" fill="none" stroke="#000" stroke-linecap="round" stroke-linejoin="round" stroke-width=".6576"/><path d="m31.282 82.686v-0.79065h1.8552v-5.6017l-1.6433 1.1731v-0.8785l1.7208-1.1834h0.85783v6.4905h1.7725v0.79065zm5.1004 0v-0.79065h1.8552v-5.6017l-1.6433 1.1731v-0.8785l1.7208-1.1834h0.85783v6.4905h1.7725v0.79065z" stroke-width=".26458" aria-label="11"/></g><g transform="translate(43.077 139.22)"><circle cx="36.114" cy="79.046" r="20.543" fill="none" stroke="#000" stroke-linecap="round" stroke-linejoin="round" stroke-width="1.0353"/><circle transform="rotate(263.86)" cx="-97.677" cy="34.877" r="1.7198" fill="none" stroke="#000" stroke-linecap="round" stroke-linejoin="round" stroke-width=".7"/><circle transform="rotate(168.56)" cx="-31.57" cy="-96.222" r="1.7198" fill="none" stroke="#000" stroke-linecap="round" stroke-linejoin="round" stroke-width=".7"/><circle transform="rotate(73.259)" cx="91.649" cy="-27.003" r="1.7198" fill="none" stroke="#000" stroke-linecap="round" stroke-linejoin="round" stroke-width=".7"/><circle transform="rotate(-22.039)" cx="19.509" cy="85.459" r="1.7198" fill="none" stroke="#000" stroke-linecap="round" stroke-linejoin="round" stroke-width=".7"/><circle transform="rotate(242.66)" cx="-78.911" cy="9.053" r="1.7198" fill="none" stroke="#000" stroke-linecap="round" stroke-linejoin="round" stroke-width=".7"/><circle transform="rotate(147.36)" cx="3.8659" cy="-73.194" r="1.7198" fill="none" stroke="#000" stroke-linecap="round" stroke-linejoin="round" stroke-width=".7"/><circle transform="rotate(52.066)" cx="69.218" cy="18.288" r="1.7198" fill="none" stroke="#000" stroke-linecap="round" stroke-linejoin="round" stroke-width=".7"/><circle transform="rotate(-43.233)" cx="-32.961" cy="67.441" r="1.7198" fill="none" stroke="#000" stroke-linecap="round" stroke-linejoin="round" stroke-width=".7"/><circle transform="rotate(221.47)" cx="-67.794" cy="-46.554" r="1.7198" fill="none" stroke="#000" stroke-linecap="round" stroke-linejoin="round" stroke-width=".7"/><circle transform="rotate(126.17)" cx="57.893" cy="-69.691" r="1.7198" fill="none" stroke="#000" stroke-linecap="round" stroke-linejoin="round" stroke-width=".7"/><circle transform="rotate(30.873)" cx="71.421" cy="65.979" r="1.7198" fill="none" stroke="#000" stroke-linecap="round" stroke-linejoin="round" stroke-width=".7"/><path transform="rotate(91.738)" d="m96.611-39.143c0 2.9639-0.71709 5.5171-2.0889 5.2318-2.2649-0.47096 0.0027-2.93-0.0074-5.2483-0.0096-2.186-2.5142-4.8348-0.3252-5.6209 1.1317-0.40642 2.4215 2.6734 2.4215 5.6374z" fill="none" stroke="#000" stroke-linecap="round" stroke-linejoin="round" stroke-width=".7"/><circle cx="36.114" cy="79.046" r="7.6858" fill="none" stroke="#000" stroke-linecap="round" stroke-linejoin="round" stroke-width=".7"/><circle cx="36.114" cy="79.046" r="12.473" fill="none" stroke="#000" stroke-linecap="round" stroke-linejoin="round" stroke-width=".6576"/><path d="m30.889 82.686v-0.79065h1.8552v-5.6017l-1.6433 1.1731v-0.8785l1.7208-1.1834h0.85783v6.4905h1.7725v0.79065zm9.6325-1.6485v1.6485h-0.8785v-1.6485h-3.4313v-0.72347l3.3331-4.9092h0.97668v4.8989h1.0232v0.7338zm-0.8785-4.5837q-0.01034 0.03101-0.14469 0.27388-0.13436 0.24288-0.20154 0.34106l-1.8655 2.7492-0.27905 0.3824-0.08268 0.10335h2.5735z" stroke-width=".26458" aria-label="14"/></g><g transform="translate(93.136 139.22)"><circle cx="36.114" cy="79.046" r="20.543" fill="none" stroke="#000" stroke-linecap="round" stroke-linejoin="round" stroke-width="1.0353"/><circle transform="rotate(263.86)" cx="-97.677" cy="34.877" r="1.7198" fill="none" stroke="#000" stroke-linecap="round" stroke-linejoin="round" stroke-width=".7"/><circle transform="rotate(168.56)" cx="-31.57" cy="-96.222" r="1.7198" fill="none" stroke="#000" stroke-linecap="round" stroke-linejoin="round" stroke-width=".7"/><circle transform="rotate(73.259)" cx="91.649" cy="-27.003" r="1.7198" fill="none" stroke="#000" stroke-linecap="round" stroke-linejoin="round" stroke-width=".7"/><circle transform="rotate(-22.039)" cx="19.509" cy="85.459" r="1.7198" fill="none" stroke="#000" stroke-linecap="round" stroke-linejoin="round" stroke-width=".7"/><circle transform="rotate(242.66)" cx="-78.911" cy="9.053" r="1.7198" fill="none" stroke="#000" stroke-linecap="round" stroke-linejoin="round" stroke-width=".7"/><circle transform="rotate(147.36)" cx="3.8659" cy="-73.194" r="1.7198" fill="none" stroke="#000" stroke-linecap="round" stroke-linejoin="round" stroke-width=".7"/><circle transform="rotate(52.066)" cx="69.218" cy="18.288" r="1.7198" fill="none" stroke="#000" stroke-linecap="round" stroke-linejoin="round" stroke-width=".7"/><circle transform="rotate(-43.233)" cx="-32.961" cy="67.441" r="1.7198" fill="none" stroke="#000" stroke-linecap="round" stroke-linejoin="round" stroke-width=".7"/><circle transform="rotate(221.47)" cx="-67.794" cy="-46.554" r="1.7198" fill="none" stroke="#000" stroke-linecap="round" stroke-linejoin="round" stroke-width=".7"/><circle transform="rotate(126.17)" cx="57.893" cy="-69.691" r="1.7198" fill="none" stroke="#000" stroke-linecap="round" stroke-linejoin="round" stroke-width=".7"/><circle transform="rotate(30.873)" cx="71.421" cy="65.979" r="1.7198" fill="none" stroke="#000" stroke-linecap="round" stroke-linejoin="round" stroke-width=".7"/><path transform="rotate(91.738)" d="m96.611-39.143c0 2.9639-0.71709 5.5171-2.0889 5.2318-2.2649-0.47096 0.0027-2.93-0.0074-5.2483-0.0096-2.186-2.5142-4.8348-0.3252-5.6209 1.1317-0.40642 2.4215 2.6734 2.4215 5.6374z" fill="none" stroke="#000" stroke-linecap="round" stroke-linejoin="round" stroke-width=".7"/><circle cx="36.114" cy="79.046" r="7.6858" fill="none" stroke="#000" stroke-linecap="round" stroke-linejoin="round" stroke-width=".7"/><circle cx="36.114" cy="79.046" r="12.473" fill="none" stroke="#000" stroke-linecap="round" stroke-linejoin="round" stroke-width=".6576"/><path d="m30.889 82.686v-0.79065h1.8552v-5.6017l-1.6433 1.1731v-0.8785l1.7208-1.1834h0.85783v6.4905h1.7725v0.79065zm10.521-2.3719q0 1.1524-0.68729 1.8138-0.68213 0.66146-1.8965 0.66146-1.018 0-1.6433-0.44442t-0.79065-1.2867l0.94051-0.10852q0.29456 1.08 1.5141 1.08 0.74931 0 1.1731-0.44958 0.42375-0.45475 0.42375-1.2454 0-0.68729-0.42891-1.111-0.42375-0.42374-1.1472-0.42374-0.37724 0-0.7028 0.11886t-0.65112 0.40308h-0.9095l0.24288-3.9171h4.1393v0.79065h-3.2918l-0.13953 2.3099q0.60461-0.46509 1.5038-0.46509 1.0749 0 1.7105 0.63045 0.64079 0.63045 0.64079 1.6433z" stroke-width=".26458" aria-label="15"/></g><g transform="translate(-6.9821 139.22)"><circle cx="36.114" cy="79.046" r="20.543" fill="none" stroke="#000" stroke-linecap="round" stroke-linejoin="round" stroke-width="1.0353"/><circle transform="rotate(263.86)" cx="-97.677" cy="34.877" r="1.7198" fill="none" stroke="#000" stroke-linecap="round" stroke-linejoin="round" stroke-width=".7"/><circle transform="rotate(168.56)" cx="-31.57" cy="-96.222" r="1.7198" fill="none" stroke="#000" stroke-linecap="round" stroke-linejoin="round" stroke-width=".7"/><circle transform="rotate(73.259)" cx="91.649" cy="-27.003" r="1.7198" fill="none" stroke="#000" stroke-linecap="round" stroke-linejoin="round" stroke-width=".7"/><circle transform="rotate(-22.039)" cx="19.509" cy="85.459" r="1.7198" fill="none" stroke="#000" stroke-linecap="round" stroke-linejoin="round" stroke-width=".7"/><circle transform="rotate(242.66)" cx="-78.911" cy="9.053" r="1.7198" fill="none" stroke="#000" stroke-linecap="round" stroke-linejoin="round" stroke-width=".7"/><circle transform="rotate(147.36)" cx="3.8659" cy="-73.194" r="1.7198" fill="none" stroke="#000" stroke-linecap="round" stroke-linejoin="round" stroke-width=".7"/><circle transform="rotate(52.066)" cx="69.218" cy="18.288" r="1.7198" fill="none" stroke="#000" stroke-linecap="round" stroke-linejoin="round" stroke-width=".7"/><circle transform="rotate(-43.233)" cx="-32.961" cy="67.441" r="1.7198" fill="none" stroke="#000" stroke-linecap="round" stroke-linejoin="round" stroke-width=".7"/><circle transform="rotate(221.47)" cx="-67.794" cy="-46.554" r="1.7198" fill="none" stroke="#000" stroke-linecap="round" stroke-linejoin="round" stroke-width=".7"/><circle transform="rotate(126.17)" cx="57.893" cy="-69.691" r="1.7198" fill="none" stroke="#000" stroke-linecap="round" stroke-linejoin="round" stroke-width=".7"/><circle transform="rotate(30.873)" cx="71.421" cy="65.979" r="1.7198" fill="none" stroke="#000" stroke-linecap="round" stroke-linejoin="round" stroke-width=".7"/><path transform="rotate(91.738)" d="m96.611-39.143c0 2.9639-0.71709 5.5171-2.0889 5.2318-2.2649-0.47096 0.0027-2.93-0.0074-5.2483-0.0096-2.186-2.5142-4.8348-0.3252-5.6209 1.1317-0.40642 2.4215 2.6734 2.4215 5.6374z" fill="none" stroke="#000" stroke-linecap="round" stroke-linejoin="round" stroke-width=".7"/><circle cx="36.114" cy="79.046" r="7.6858" fill="none" stroke="#000" stroke-linecap="round" stroke-linejoin="round" stroke-width=".7"/><circle cx="36.114" cy="79.046" r="12.473" fill="none" stroke="#000" stroke-linecap="round" stroke-linejoin="round" stroke-width=".6576"/><path d="m30.889 82.686v-0.79065h1.8552v-5.6017l-1.6433 1.1731v-0.8785l1.7208-1.1834h0.85783v6.4905h1.7725v0.79065zm10.501-2.0102q0 1.0077-0.64078 1.5606-0.64079 0.55294-1.8293 0.55294-1.1059 0-1.7673-0.49609-0.65629-0.50126-0.78031-1.4779l0.96118-0.08785q0.18604 1.2919 1.5865 1.2919 0.7028 0 1.1007-0.34623 0.40308-0.34623 0.40308-1.0284 0-0.59428-0.45992-0.92501-0.45475-0.3359-1.3177-0.3359h-0.5271v-0.80615h0.50643q0.76481 0 1.1834-0.33073 0.42374-0.3359 0.42374-0.925 0-0.58394-0.34623-0.91984-0.34106-0.34106-1.018-0.34106-0.61495 0-0.99735 0.31522-0.37724 0.31522-0.43925 0.88883l-0.93534-0.07235q0.10335-0.894 0.73897-1.3953 0.64078-0.50126 1.6433-0.50126 1.0955 0 1.7001 0.5116 0.60978 0.50643 0.60978 1.4159 0 0.69763-0.39274 1.1369-0.38757 0.43408-1.1317 0.58911v0.02067q0.81648 0.08785 1.2712 0.54777t0.45475 1.1575z" stroke-width=".26458" aria-label="13"/></g><g transform="translate(143.19 91.807)"><circle cx="36.114" cy="79.046" r="20.543" fill="none" stroke="#000" stroke-linecap="round" stroke-linejoin="round" stroke-width="1.0353"/><circle transform="rotate(263.86)" cx="-97.677" cy="34.877" r="1.7198" fill="none" stroke="#000" stroke-linecap="round" stroke-linejoin="round" stroke-width=".7"/><circle transform="rotate(168.56)" cx="-31.57" cy="-96.222" r="1.7198" fill="none" stroke="#000" stroke-linecap="round" stroke-linejoin="round" stroke-width=".7"/><circle transform="rotate(73.259)" cx="91.649" cy="-27.003" r="1.7198" fill="none" stroke="#000" stroke-linecap="round" stroke-linejoin="round" stroke-width=".7"/><circle transform="rotate(-22.039)" cx="19.509" cy="85.459" r="1.7198" fill="none" stroke="#000" stroke-linecap="round" stroke-linejoin="round" stroke-width=".7"/><circle transform="rotate(242.66)" cx="-78.911" cy="9.053" r="1.7198" fill="none" stroke="#000" stroke-linecap="round" stroke-linejoin="round" stroke-width=".7"/><circle transform="rotate(147.36)" cx="3.8659" cy="-73.194" r="1.7198" fill="none" stroke="#000" stroke-linecap="round" stroke-linejoin="round" stroke-width=".7"/><circle transform="rotate(52.066)" cx="69.218" cy="18.288" r="1.7198" fill="none" stroke="#000" stroke-linecap="round" stroke-linejoin="round" stroke-width=".7"/><circle transform="rotate(-43.233)" cx="-32.961" cy="67.441" r="1.7198" fill="none" stroke="#000" stroke-linecap="round" stroke-linejoin="round" stroke-width=".7"/><circle transform="rotate(221.47)" cx="-67.794" cy="-46.554" r="1.7198" fill="none" stroke="#000" stroke-linecap="round" stroke-linejoin="round" stroke-width=".7"/><circle transform="rotate(126.17)" cx="57.893" cy="-69.691" r="1.7198" fill="none" stroke="#000" stroke-linecap="round" stroke-linejoin="round" stroke-width=".7"/><circle transform="rotate(30.873)" cx="71.421" cy="65.979" r="1.7198" fill="none" stroke="#000" stroke-linecap="round" stroke-linejoin="round" stroke-width=".7"/><path transform="rotate(91.738)" d="m96.611-39.143c0 2.9639-0.71709 5.5171-2.0889 5.2318-2.2649-0.47096 0.0027-2.93-0.0074-5.2483-0.0096-2.186-2.5142-4.8348-0.3252-5.6209 1.1317-0.40642 2.4215 2.6734 2.4215 5.6374z" fill="none" stroke="#000" stroke-linecap="round" stroke-linejoin="round" stroke-width=".7"/><circle cx="36.114" cy="79.046" r="7.6858" fill="none" stroke="#000" stroke-linecap="round" stroke-linejoin="round" stroke-width=".7"/><circle cx="36.114" cy="79.046" r="12.473" fill="none" stroke="#000" stroke-linecap="round" stroke-linejoin="round" stroke-width=".6576"/><path d="m30.889 82.686v-0.79065h1.8552v-5.6017l-1.6433 1.1731v-0.8785l1.7208-1.1834h0.85783v6.4905h1.7725v0.79065zm5.612 0v-0.65629q0.26355-0.60461 0.64078-1.0645 0.3824-0.46509 0.80098-0.83716 0.41858-0.37724 0.82682-0.69763 0.41341-0.32039 0.74414-0.64078t0.53226-0.67179q0.20671-0.3514 0.20671-0.79581 0-0.59944-0.3514-0.93017t-0.97668-0.33073q-0.59428 0-0.98185 0.32556-0.3824 0.32039-0.44958 0.90434l-0.95084-0.08785q0.10335-0.87333 0.73897-1.3901 0.64079-0.51676 1.6433-0.51676 1.1007 0 1.6898 0.52193 0.59428 0.51676 0.59428 1.4728 0 0.42374-0.19637 0.84232-0.1912 0.41858-0.57361 0.83716-0.3824 0.41858-1.4624 1.2971-0.59428 0.48576-0.94568 0.8785-0.3514 0.38757-0.50643 0.74931h3.7982v0.79065z" stroke-width=".26458" aria-label="12"/></g><g transform="translate(43.077 91.807)"><circle cx="36.114" cy="79.046" r="20.543" fill="none" stroke="#000" stroke-linecap="round" stroke-linejoin="round" stroke-width="1.0353"/><circle transform="rotate(263.86)" cx="-97.677" cy="34.877" r="1.7198" fill="none" stroke="#000" stroke-linecap="round" stroke-linejoin="round" stroke-width=".7"/><circle transform="rotate(168.56)" cx="-31.57" cy="-96.222" r="1.7198" fill="none" stroke="#000" stroke-linecap="round" stroke-linejoin="round" stroke-width=".7"/><circle transform="rotate(73.259)" cx="91.649" cy="-27.003" r="1.7198" fill="none" stroke="#000" stroke-linecap="round" stroke-linejoin="round" stroke-width=".7"/><circle transform="rotate(-22.039)" cx="19.509" cy="85.459" r="1.7198" fill="none" stroke="#000" stroke-linecap="round" stroke-linejoin="round" stroke-width=".7"/><circle transform="rotate(242.66)" cx="-78.911" cy="9.053" r="1.7198" fill="none" stroke="#000" stroke-linecap="round" stroke-linejoin="round" stroke-width=".7"/><circle transform="rotate(147.36)" cx="3.8659" cy="-73.194" r="1.7198" fill="none" stroke="#000" stroke-linecap="round" stroke-linejoin="round" stroke-width=".7"/><circle transform="rotate(52.066)" cx="69.218" cy="18.288" r="1.7198" fill="none" stroke="#000" stroke-linecap="round" stroke-linejoin="round" stroke-width=".7"/><circle transform="rotate(-43.233)" cx="-32.961" cy="67.441" r="1.7198" fill="none" stroke="#000" stroke-linecap="round" stroke-linejoin="round" stroke-width=".7"/><circle transform="rotate(221.47)" cx="-67.794" cy="-46.554" r="1.7198" fill="none" stroke="#000" stroke-linecap="round" stroke-linejoin="round" stroke-width=".7"/><circle transform="rotate(126.17)" cx="57.893" cy="-69.691" r="1.7198" fill="none" stroke="#000" stroke-linecap="round" stroke-linejoin="round" stroke-width=".7"/><circle transform="rotate(30.873)" cx="71.421" cy="65.979" r="1.7198" fill="none" stroke="#000" stroke-linecap="round" stroke-linejoin="round" stroke-width=".7"/><path transform="rotate(91.738)" d="m96.611-39.143c0 2.9639-0.71709 5.5171-2.0889 5.2318-2.2649-0.47096 0.0027-2.93-0.0074-5.2483-0.0096-2.186-2.5142-4.8348-0.3252-5.6209 1.1317-0.40642 2.4215 2.6734 2.4215 5.6374z" fill="none" stroke="#000" stroke-linecap="round" stroke-linejoin="round" stroke-width=".7"/><circle cx="36.114" cy="79.046" r="7.6858" fill="none" stroke="#000" stroke-linecap="round" stroke-linejoin="round" stroke-width=".7"/><circle cx="36.114" cy="79.046" r="12.473" fill="none" stroke="#000" stroke-linecap="round" stroke-linejoin="round" stroke-width=".6576"/><path d="m30.889 82.686v-0.79065h1.8552v-5.6017l-1.6433 1.1731v-0.8785l1.7208-1.1834h0.85783v6.4905h1.7725v0.79065zm10.552-3.6432q0 1.8242-0.64595 2.7854-0.64078 0.96118-1.8965 0.96118-1.2557 0-1.8862-0.95601-0.63045-0.95601-0.63045-2.7905 0-1.8758 0.60978-2.8112 0.61495-0.93534 1.9379-0.93534 1.2867 0 1.8965 0.94568 0.61495 0.94568 0.61495 2.8009zm-0.94568 0q0-1.5761-0.3669-2.2841-0.36173-0.70796-1.1989-0.70796-0.85783 0-1.2351 0.69763-0.37207 0.69763-0.37207 2.2944 0 1.5503 0.37724 2.2686 0.3824 0.7183 1.2092 0.7183 0.82165 0 1.2041-0.7338 0.3824-0.7338 0.3824-2.2531z" stroke-width=".26458" aria-label="10"/></g><g transform="translate(-6.9821 44.394)"><circle cx="36.114" cy="79.046" r="20.543" fill="none" stroke="#000" stroke-linecap="round" stroke-linejoin="round" stroke-width="1.0353"/><circle transform="rotate(263.86)" cx="-97.677" cy="34.877" r="1.7198" fill="none" stroke="#000" stroke-linecap="round" stroke-linejoin="round" stroke-width=".7"/><circle transform="rotate(168.56)" cx="-31.57" cy="-96.222" r="1.7198" fill="none" stroke="#000" stroke-linecap="round" stroke-linejoin="round" stroke-width=".7"/><circle transform="rotate(73.259)" cx="91.649" cy="-27.003" r="1.7198" fill="none" stroke="#000" stroke-linecap="round" stroke-linejoin="round" stroke-width=".7"/><circle transform="rotate(-22.039)" cx="19.509" cy="85.459" r="1.7198" fill="none" stroke="#000" stroke-linecap="round" stroke-linejoin="round" stroke-width=".7"/><circle transform="rotate(242.66)" cx="-78.911" cy="9.053" r="1.7198" fill="none" stroke="#000" stroke-linecap="round" stroke-linejoin="round" stroke-width=".7"/><circle transform="rotate(147.36)" cx="3.8659" cy="-73.194" r="1.7198" fill="none" stroke="#000" stroke-linecap="round" stroke-linejoin="round" stroke-width=".7"/><circle transform="rotate(52.066)" cx="69.218" cy="18.288" r="1.7198" fill="none" stroke="#000" stroke-linecap="round" stroke-linejoin="round" stroke-width=".7"/><circle transform="rotate(-43.233)" cx="-32.961" cy="67.441" r="1.7198" fill="none" stroke="#000" stroke-linecap="round" stroke-linejoin="round" stroke-width=".7"/><circle transform="rotate(221.47)" cx="-67.794" cy="-46.554" r="1.7198" fill="none" stroke="#000" stroke-linecap="round" stroke-linejoin="round" stroke-width=".7"/><circle transform="rotate(126.17)" cx="57.893" cy="-69.691" r="1.7198" fill="none" stroke="#000" stroke-linecap="round" stroke-linejoin="round" stroke-width=".7"/><circle transform="rotate(30.873)" cx="71.421" cy="65.979" r="1.7198" fill="none" stroke="#000" stroke-linecap="round" stroke-linejoin="round" stroke-width=".7"/><path transform="rotate(91.738)" d="m96.611-39.143c0 2.9639-0.71709 5.5171-2.0889 5.2318-2.2649-0.47096 0.0027-2.93-0.0074-5.2483-0.0096-2.186-2.5142-4.8348-0.3252-5.6209 1.1317-0.40642 2.4215 2.6734 2.4215 5.6374z" fill="none" stroke="#000" stroke-linecap="round" stroke-linejoin="round" stroke-width=".7"/><circle cx="36.114" cy="79.046" r="7.6858" fill="none" stroke="#000" stroke-linecap="round" stroke-linejoin="round" stroke-width=".7"/><circle cx="36.114" cy="79.046" r="12.473" fill="none" stroke="#000" stroke-linecap="round" stroke-linejoin="round" stroke-width=".6576"/><path d="m38.468 80.314q0 1.1524-0.6873 1.8138-0.68213 0.66146-1.8965 0.66146-1.018 0-1.6433-0.44442t-0.79065-1.2867l0.94051-0.10852q0.29456 1.08 1.5141 1.08 0.74931 0 1.1731-0.44958 0.42374-0.45475 0.42374-1.2454 0-0.68729-0.42891-1.111-0.42374-0.42374-1.1472-0.42374-0.37724 0-0.7028 0.11886t-0.65112 0.40308h-0.9095l0.24288-3.9171h4.1393v0.79065h-3.2918l-0.13953 2.3099q0.60461-0.46509 1.5038-0.46509 1.0749 0 1.7105 0.63045 0.64079 0.63045 0.64079 1.6433z" stroke-width=".26458" aria-label="5"/></g><g transform="translate(93.136 -3.0192)"><circle cx="36.114" cy="79.046" r="20.543" fill="none" stroke="#000" stroke-linecap="round" stroke-linejoin="round" stroke-width="1.0353"/><circle transform="rotate(263.86)" cx="-97.677" cy="34.877" r="1.7198" fill="none" stroke="#000" stroke-linecap="round" stroke-linejoin="round" stroke-width=".7"/><circle transform="rotate(168.56)" cx="-31.57" cy="-96.222" r="1.7198" fill="none" stroke="#000" stroke-linecap="round" stroke-linejoin="round" stroke-width=".7"/><circle transform="rotate(73.259)" cx="91.649" cy="-27.003" r="1.7198" fill="none" stroke="#000" stroke-linecap="round" stroke-linejoin="round" stroke-width=".7"/><circle transform="rotate(-22.039)" cx="19.509" cy="85.459" r="1.7198" fill="none" stroke="#000" stroke-linecap="round" stroke-linejoin="round" stroke-width=".7"/><circle transform="rotate(242.66)" cx="-78.911" cy="9.053" r="1.7198" fill="none" stroke="#000" stroke-linecap="round" stroke-linejoin="round" stroke-width=".7"/><circle transform="rotate(147.36)" cx="3.8659" cy="-73.194" r="1.7198" fill="none" stroke="#000" stroke-linecap="round" stroke-linejoin="round" stroke-width=".7"/><circle transform="rotate(52.066)" cx="69.218" cy="18.288" r="1.7198" fill="none" stroke="#000" stroke-linecap="round" stroke-linejoin="round" stroke-width=".7"/><circle transform="rotate(-43.233)" cx="-32.961" cy="67.441" r="1.7198" fill="none" stroke="#000" stroke-linecap="round" stroke-linejoin="round" stroke-width=".7"/><circle transform="rotate(221.47)" cx="-67.794" cy="-46.554" r="1.7198" fill="none" stroke="#000" stroke-linecap="round" stroke-linejoin="round" stroke-width=".7"/><circle transform="rotate(126.17)" cx="57.893" cy="-69.691" r="1.7198" fill="none" stroke="#000" stroke-linecap="round" stroke-linejoin="round" stroke-width=".7"/><circle transform="rotate(30.873)" cx="71.421" cy="65.979" r="1.7198" fill="none" stroke="#000" stroke-linecap="round" stroke-linejoin="round" stroke-width=".7"/><path transform="rotate(91.738)" d="m96.611-39.143c0 2.9639-0.71709 5.5171-2.0889 5.2318-2.2649-0.47096 0.0027-2.93-0.0074-5.2483-0.0096-2.186-2.5142-4.8348-0.3252-5.6209 1.1317-0.40642 2.4215 2.6734 2.4215 5.6374z" fill="none" stroke="#000" stroke-linecap="round" stroke-linejoin="round" stroke-width=".7"/><circle cx="36.114" cy="79.046" r="7.6858" fill="none" stroke="#000" stroke-linecap="round" stroke-linejoin="round" stroke-width=".7"/><circle cx="36.114" cy="79.046" r="12.473" fill="none" stroke="#000" stroke-linecap="round" stroke-linejoin="round" stroke-width=".6576"/><path d="m38.447 80.676q0 1.0077-0.64079 1.5606-0.64078 0.55294-1.8293 0.55294-1.1059 0-1.7673-0.49609-0.65629-0.50126-0.78031-1.4779l0.96118-0.08785q0.18604 1.2919 1.5865 1.2919 0.7028 0 1.1007-0.34623 0.40308-0.34623 0.40308-1.0284 0-0.59428-0.45992-0.92501-0.45475-0.3359-1.3177-0.3359h-0.5271v-0.80615h0.50643q0.76481 0 1.1834-0.33073 0.42375-0.3359 0.42375-0.925 0-0.58394-0.34623-0.91984-0.34106-0.34106-1.018-0.34106-0.61495 0-0.99735 0.31522-0.37724 0.31522-0.43925 0.88883l-0.93534-0.07235q0.10335-0.894 0.73897-1.3953 0.64079-0.50126 1.6433-0.50126 1.0955 0 1.7001 0.5116 0.60978 0.50643 0.60978 1.4159 0 0.69763-0.39274 1.1369-0.38757 0.43408-1.1317 0.58911v0.02067q0.81648 0.08785 1.2712 0.54777t0.45475 1.1575z" stroke-width=".26458" aria-label="3"/></g><g transform="translate(143.19 139.22)"><circle cx="36.114" cy="79.046" r="20.543" fill="none" stroke="#000" stroke-linecap="round" stroke-linejoin="round" stroke-width="1.0353"/><circle transform="rotate(263.86)" cx="-97.677" cy="34.877" r="1.7198" fill="none" stroke="#000" stroke-linecap="round" stroke-linejoin="round" stroke-width=".7"/><circle transform="rotate(168.56)" cx="-31.57" cy="-96.222" r="1.7198" fill="none" stroke="#000" stroke-linecap="round" stroke-linejoin="round" stroke-width=".7"/><circle transform="rotate(73.259)" cx="91.649" cy="-27.003" r="1.7198" fill="none" stroke="#000" stroke-linecap="round" stroke-linejoin="round" stroke-width=".7"/><circle transform="rotate(-22.039)" cx="19.509" cy="85.459" r="1.7198" fill="none" stroke="#000" stroke-linecap="round" stroke-linejoin="round" stroke-width=".7"/><circle transform="rotate(242.66)" cx="-78.911" cy="9.053" r="1.7198" fill="none" stroke="#000" stroke-linecap="round" stroke-linejoin="round" stroke-width=".7"/><circle transform="rotate(147.36)" cx="3.8659" cy="-73.194" r="1.7198" fill="none" stroke="#000" stroke-linecap="round" stroke-linejoin="round" stroke-width=".7"/><circle transform="rotate(52.066)" cx="69.218" cy="18.288" r="1.7198" fill="none" stroke="#000" stroke-linecap="round" stroke-linejoin="round" stroke-width=".7"/><circle transform="rotate(-43.233)" cx="-32.961" cy="67.441" r="1.7198" fill="none" stroke="#000" stroke-linecap="round" stroke-linejoin="round" stroke-width=".7"/><circle transform="rotate(221.47)" cx="-67.794" cy="-46.554" r="1.7198" fill="none" stroke="#000" stroke-linecap="round" stroke-linejoin="round" stroke-width=".7"/><circle transform="rotate(126.17)" cx="57.893" cy="-69.691" r="1.7198" fill="none" stroke="#000" stroke-linecap="round" stroke-linejoin="round" stroke-width=".7"/><circle transform="rotate(30.873)" cx="71.421" cy="65.979" r="1.7198" fill="none" stroke="#000" stroke-linecap="round" stroke-linejoin="round" stroke-width=".7"/><path transform="rotate(91.738)" d="m96.611-39.143c0 2.9639-0.71709 5.5171-2.0889 5.2318-2.2649-0.47096 0.0027-2.93-0.0074-5.2483-0.0096-2.186-2.5142-4.8348-0.3252-5.6209 1.1317-0.40642 2.4215 2.6734 2.4215 5.6374z" fill="none" stroke="#000" stroke-linecap="round" stroke-linejoin="round" stroke-width=".7"/><circle cx="36.114" cy="79.046" r="7.6858" fill="none" stroke="#000" stroke-linecap="round" stroke-linejoin="round" stroke-width=".7"/><circle cx="36.114" cy="79.046" r="12.473" fill="none" stroke="#000" stroke-linecap="round" stroke-linejoin="round" stroke-width=".6576"/><path d="m30.863 82.689v-0.79065h1.8552v-5.6017l-1.6433 1.1731v-0.8785l1.7208-1.1834h0.85783v6.4905h1.7725v0.79065zm10.501-2.3823q0 1.1524-0.62528 1.819-0.62528 0.66662-1.726 0.66662-1.2299 0-1.881-0.91467-0.65112-0.91467-0.65112-2.6613 0-1.8914 0.67696-2.9042 0.67696-1.0129 1.9275-1.0129 1.6485 0 2.0774 1.4831l-0.88883 0.1602q-0.27388-0.88883-1.1989-0.88883-0.79582 0-1.2351 0.74414-0.43408 0.73897-0.43408 2.1446 0.25321-0.47025 0.71313-0.71313 0.45992-0.24805 1.0542-0.24805 1.0077 0 1.5968 0.63045 0.59428 0.63045 0.59428 1.695zm-0.94568 0.04134q0-0.79065-0.38757-1.2196t-1.08-0.42891q-0.65112 0-1.0542 0.3824-0.39791 0.37724-0.39791 1.0439 0 0.84232 0.41341 1.3798 0.41858 0.53743 1.0697 0.53743 0.67179 0 1.0542-0.44958 0.3824-0.45475 0.3824-1.2454z" stroke-width=".26458" aria-label="16"/></g></g></svg>
