<?xml version="1.0" encoding="UTF-8"?>
<svg width="300" height="170" version="1.1" viewBox="0 0 79.375 44.979" xmlns="http://www.w3.org/2000/svg"><defs><clipPath id="bh"><path transform="translate(-492 -76.867)" d="m323.15 26.668h257.72v189.34h-257.72z"/></clipPath><clipPath id="bg"><path transform="translate(-492 -67.083)" d="m323.15 26.668h257.72v189.34h-257.72z"/></clipPath><clipPath id="bf"><path transform="translate(-492 -58.2)" d="m323.15 26.668h257.72v189.34h-257.72z"/></clipPath><clipPath id="ba"><path transform="translate(-502.73 -76.867)" d="m323.15 26.668h257.72v189.34h-257.72z"/></clipPath><clipPath id="az"><path transform="translate(-502.73 -66.912)" d="m323.15 26.668h257.72v189.34h-257.72z"/></clipPath><clipPath id="ay"><path transform="translate(-502.73 -57.486)" d="m323.15 26.668h257.72v189.34h-257.72z"/></clipPath><clipPath id="ax"><path transform="translate(-511.78 -76.867)" d="m323.15 26.668h257.72v189.34h-257.72z"/></clipPath><clipPath id="aw"><path transform="translate(-511.78 -66.912)" d="m323.15 26.668h257.72v189.34h-257.72z"/></clipPath><clipPath id="av"><path transform="translate(-511.78 -57.486)" d="m323.15 26.668h257.72v189.34h-257.72z"/></clipPath><clipPath id="au"><path transform="translate(-520.82 -76.867)" d="m323.15 26.668h257.72v189.34h-257.72z"/></clipPath><clipPath id="at"><path transform="translate(-520.82 -66.912)" d="m323.15 26.668h257.72v189.34h-257.72z"/></clipPath><clipPath id="as"><path transform="translate(-520.82 -57.486)" d="m323.15 26.668h257.72v189.34h-257.72z"/></clipPath><clipPath id="ar"><path transform="translate(-529.86 -76.867)" d="m323.15 26.668h257.72v189.34h-257.72z"/></clipPath><clipPath id="aq"><path transform="translate(-529.86 -66.912)" d="m323.15 26.668h257.72v189.34h-257.72z"/></clipPath><clipPath id="ap"><path transform="translate(-529.86 -57.486)" d="m323.15 26.668h257.72v189.34h-257.72z"/></clipPath></defs><rect width="79.375" height="44.979" fill="#f9f9f9" stroke-linejoin="round" stroke-width=".52917"/><path transform="matrix(1.4111 0 0 -1.4111 40.174 25.451)" d="m0 0h-7.096c-0.122 0-0.222 0.101-0.222 0.223v7.096c0 0.122 0.1 0.223 0.222 0.223h7.096c0.123 0 0.223-0.101 0.223-0.223v-7.096c0-0.122-0.1-0.223-0.223-0.223z" clip-path="url(#az)" fill="#ccc" stroke="#ccc" stroke-miterlimit="10" stroke-width=".375"/><path transform="matrix(1.4111 0 0 -1.4111 40.174 38.752)" d="m0 0h-7.096c-0.122 0-0.222 0.101-0.222 0.223v7.096c0 0.122 0.1 0.223 0.222 0.223h7.096c0.123 0 0.223-0.101 0.223-0.223v-7.096c0-0.122-0.1-0.223-0.223-0.223z" clip-path="url(#az)" fill="#ccc" stroke="#ccc" stroke-miterlimit="10" stroke-width=".375"/><path transform="matrix(1.4111 0 0 -1.4111 65.044 38.752)" d="m0 0h-7.096c-0.122 0-0.222 0.101-0.222 0.223v7.096c0 0.122 0.1 0.223 0.222 0.223h7.096c0.123 0 0.223-0.101 0.223-0.223v-7.096c0-0.122-0.1-0.223-0.223-0.223z" clip-path="url(#az)" fill="#ccc" stroke="#ccc" stroke-miterlimit="10" stroke-width=".375"/><path transform="matrix(1.4111 0 0 -1.4111 65.044 25.451)" d="m0 0h-7.096c-0.122 0-0.222 0.101-0.222 0.223v7.096c0 0.122 0.1 0.223 0.222 0.223h7.096c0.123 0 0.223-0.101 0.223-0.223v-7.096c0-0.122-0.1-0.223-0.223-0.223z" clip-path="url(#az)" fill="#ccc" stroke="#ccc" stroke-miterlimit="10" stroke-width=".375"/><text x="11.543512" y="-15.872329" fill="#000000" font-family="'Arial Narrow'" font-size="2.5px" font-weight="bold" letter-spacing="0px" stroke-linecap="round" stroke-linejoin="round" stroke-width=".9" text-align="center" text-anchor="middle" word-spacing="0px" style="line-height:0" xml:space="preserve"><tspan x="11.543512" y="-15.872329" stroke-width=".9"/></text><text x="-72.868416" y="70.704018" fill="#000000" font-family="'Arial Narrow'" font-size="2.5px" font-weight="bold" letter-spacing="0px" stroke-linecap="round" stroke-linejoin="round" stroke-width=".9" text-align="center" text-anchor="middle" word-spacing="0px" style="line-height:0" xml:space="preserve"><tspan x="-72.868416" y="70.704018" stroke-width=".9"/></text><text x="86.93708" y="79.361649" fill="#000000" font-family="'Arial Narrow'" font-size="2.5px" font-weight="bold" letter-spacing="0px" stroke-linecap="round" stroke-linejoin="round" stroke-width=".9" text-align="center" text-anchor="middle" word-spacing="0px" style="line-height:0" xml:space="preserve"><tspan x="86.93708" y="79.361649" stroke-width=".9"/></text><text x="88.380013" y="80.804588" fill="#000000" font-family="'Arial Narrow'" font-size="2.5px" font-weight="bold" letter-spacing="0px" stroke-linecap="round" stroke-linejoin="round" stroke-width=".9" text-align="center" text-anchor="middle" word-spacing="0px" style="line-height:0" xml:space="preserve"><tspan x="88.380013" y="80.804588" stroke-width=".9"/></text><text x="86.827766" y="40.635418" fill="none" font-family="'Arial Narrow'" font-size="3.5278px" font-weight="bold" letter-spacing="0px" stroke="#000000" stroke-linecap="round" stroke-linejoin="round" stroke-width=".6223" text-align="center" text-anchor="middle" word-spacing="0px" style="line-height:0" xml:space="preserve"><tspan x="86.827766" y="40.635418" stroke-width=".6223"/></text><path d="m13.114 10.921v1.3229h7.9375" fill="none" stroke="#000" stroke-linecap="round" stroke-linejoin="round" stroke-width=".26458"/><path transform="matrix(1.4111 0 0 -1.4111 18.144 10.346)" d="m0 0h-7.096c-0.123 0-0.223 0.101-0.223 0.223v2.086c0 0.122 0.1 0.222 0.223 0.222h7.096c0.122 0 0.224-0.1 0.224-0.222v-2.086c0-0.122-0.102-0.223-0.224-0.223z" clip-path="url(#bh)" fill="#b3b3b3" stroke="#333" stroke-miterlimit="10" stroke-width=".375"/><path transform="matrix(1.4111 0 0 -1.4111 18.144 25.21)" d="m0 0h-7.096c-0.123 0-0.223 0.099-0.223 0.224v6.176c0 0.124 0.1 0.223 0.223 0.223h7.096c0.122 0 0.224-0.099 0.224-0.223v-6.176c0-0.125-0.102-0.224-0.224-0.224z" clip-path="url(#bg)" fill="#b3b3b3" stroke="#333" stroke-miterlimit="10" stroke-width=".375"/><path transform="matrix(1.4111 0 0 -1.4111 18.144 37.744)" d="m0 0h-7.096c-0.123 0-0.223 0.099-0.223 0.223v6.177c0 0.123 0.1 0.222 0.223 0.222h7.096c0.122 0 0.224-0.099 0.224-0.222v-6.177c0-0.124-0.102-0.223-0.224-0.223z" clip-path="url(#bf)" fill="#b3b3b3" stroke="#333" stroke-miterlimit="10" stroke-width=".375"/><path transform="matrix(1.4111 0 0 -1.4111 33.294 10.346)" d="m0 0h-7.096c-0.122 0-0.222 0.101-0.222 0.223v2.086c0 0.122 0.1 0.222 0.222 0.222h7.096c0.123 0 0.223-0.1 0.223-0.222v-2.086c0-0.122-0.1-0.223-0.223-0.223z" clip-path="url(#ba)" fill="#b3b3b3" stroke="#333" stroke-miterlimit="10" stroke-width=".375"/><path transform="matrix(1.4111 0 0 -1.4111 33.294 25.451)" d="m0 0h-7.096c-0.122 0-0.222 0.101-0.222 0.223v7.096c0 0.122 0.1 0.223 0.222 0.223h7.096c0.123 0 0.223-0.101 0.223-0.223v-7.096c0-0.122-0.1-0.223-0.223-0.223z" clip-path="url(#az)" fill="#e6e6e6" stroke="#333" stroke-miterlimit="10" stroke-width=".375"/><path transform="matrix(1.4111 0 0 -1.4111 33.294 38.752)" d="m0 0h-7.096c-0.122 0-0.222 0.1-0.222 0.223v7.096c0 0.121 0.1 0.223 0.222 0.223h7.096c0.123 0 0.223-0.102 0.223-0.223v-7.096c0-0.123-0.1-0.223-0.223-0.223z" clip-path="url(#ay)" fill="#e6e6e6" stroke="#333" stroke-miterlimit="10" stroke-width=".375"/><path transform="matrix(1.4111 0 0 -1.4111 46.055 10.346)" d="m0 0h-7.096c-0.122 0-0.223 0.101-0.223 0.223v2.086c0 0.122 0.101 0.222 0.223 0.222h7.096c0.122 0 0.223-0.1 0.223-0.222v-2.086c0-0.122-0.101-0.223-0.223-0.223z" clip-path="url(#ax)" fill="#b3b3b3" stroke="#333" stroke-miterlimit="10" stroke-width=".375"/><path transform="matrix(1.4111 0 0 -1.4111 46.055 25.451)" d="m0 0h-7.096c-0.122 0-0.223 0.101-0.223 0.223v7.096c0 0.122 0.101 0.223 0.223 0.223h7.096c0.122 0 0.223-0.101 0.223-0.223v-7.096c0-0.122-0.101-0.223-0.223-0.223z" clip-path="url(#aw)" fill="#e6e6e6" stroke="#333" stroke-miterlimit="10" stroke-width=".375"/><path transform="matrix(1.4111 0 0 -1.4111 45.955 38.752)" d="m0 0h-7.096c-0.122 0-0.223 0.1-0.223 0.223v7.096c0 0.121 0.101 0.223 0.223 0.223h7.096c0.122 0 0.223-0.102 0.223-0.223v-7.096c0-0.123-0.101-0.223-0.223-0.223z" clip-path="url(#av)" fill="#e6e6e6" stroke="#333" stroke-miterlimit="10" stroke-width=".375"/><path transform="matrix(1.4111 0 0 -1.4111 58.815 10.346)" d="m0 0h-7.096c-0.122 0-0.223 0.101-0.223 0.223v2.086c0 0.122 0.101 0.222 0.223 0.222h7.096c0.122 0 0.223-0.1 0.223-0.222v-2.086c0-0.122-0.101-0.223-0.223-0.223z" clip-path="url(#au)" fill="#b3b3b3" stroke="#333" stroke-miterlimit="10" stroke-width=".375"/><path transform="matrix(1.4111 0 0 -1.4111 58.815 25.451)" d="m0 0h-7.096c-0.122 0-0.223 0.101-0.223 0.223v7.096c0 0.122 0.101 0.223 0.223 0.223h7.096c0.122 0 0.223-0.101 0.223-0.223v-7.096c0-0.122-0.101-0.223-0.223-0.223z" clip-path="url(#at)" fill="#e6e6e6" stroke="#333" stroke-miterlimit="10" stroke-width=".375"/><path transform="matrix(1.4111 0 0 -1.4111 58.655 38.752)" d="m0 0h-7.096c-0.122 0-0.223 0.1-0.223 0.223v7.096c0 0.121 0.101 0.223 0.223 0.223h7.096c0.122 0 0.223-0.102 0.223-0.223v-7.096c0-0.123-0.101-0.223-0.223-0.223z" clip-path="url(#as)" fill="#e6e6e6" stroke="#333" stroke-miterlimit="10" stroke-width=".375"/><path transform="matrix(1.4111 0 0 -1.4111 71.576 10.346)" d="m0 0h-7.096c-0.123 0-0.223 0.101-0.223 0.223v2.086c0 0.122 0.1 0.222 0.223 0.222h7.096c0.121 0 0.223-0.1 0.223-0.222v-2.086c0-0.122-0.102-0.223-0.223-0.223z" clip-path="url(#ar)" fill="#b3b3b3" stroke="#333" stroke-miterlimit="10" stroke-width=".375"/><path transform="matrix(1.4111 0 0 -1.4111 71.576 25.451)" d="m0 0h-7.096c-0.123 0-0.223 0.101-0.223 0.223v7.096c0 0.122 0.1 0.223 0.223 0.223h7.096c0.121 0 0.223-0.101 0.223-0.223v-7.096c0-0.122-0.102-0.223-0.223-0.223z" clip-path="url(#aq)" fill="#e6e6e6" stroke="#333" stroke-miterlimit="10" stroke-width=".375"/><path transform="matrix(1.4111 0 0 -1.4111 71.576 38.752)" d="m0 0h-7.096c-0.123 0-0.223 0.1-0.223 0.223v7.096c0 0.121 0.1 0.223 0.223 0.223h7.096c0.121 0 0.223-0.102 0.223-0.223v-7.096c0-0.123-0.102-0.223-0.223-0.223z" clip-path="url(#ap)" fill="#e6e6e6" stroke="#333" stroke-miterlimit="10" stroke-width=".375"/><text x="13.121819" y="9.454134" fill="#4d4d4d" font-family="'Arial Narrow'" font-size="2.5px" font-weight="bold" letter-spacing="0px" stroke-linecap="round" stroke-linejoin="round" stroke-width=".9" text-align="center" text-anchor="middle" word-spacing="0px" style="line-height:0" xml:space="preserve"><tspan x="13.121819" y="9.454134" fill="#4d4d4d" stroke-width=".9">SHIFT</tspan></text><text x="28.264084" y="9.4547443" fill="#4d4d4d" font-family="'Arial Narrow'" font-size="2.5px" font-weight="bold" letter-spacing="0px" stroke-linecap="round" stroke-linejoin="round" stroke-width=".9" text-align="center" text-anchor="middle" word-spacing="0px" style="line-height:0" xml:space="preserve"><tspan x="28.264084" y="9.4547443" fill="#4d4d4d" stroke-width=".9">HOT CUE</tspan></text><text x="41.017017" y="9.4547443" fill="#4d4d4d" font-family="'Arial Narrow'" font-size="2.5px" font-weight="bold" letter-spacing="0px" stroke-linecap="round" stroke-linejoin="round" stroke-width=".9" text-align="center" text-anchor="middle" word-spacing="0px" style="line-height:0" xml:space="preserve"><tspan x="41.017017" y="9.4547443" fill="#4d4d4d" stroke-width=".9">LOOP</tspan></text><text x="53.776432" y="9.454134" fill="#4d4d4d" font-family="'Arial Narrow'" font-size="2.5px" font-weight="bold" letter-spacing="0px" stroke-linecap="round" stroke-linejoin="round" stroke-width=".9" text-align="center" text-anchor="middle" word-spacing="0px" style="line-height:0" xml:space="preserve"><tspan x="53.776432" y="9.454134" fill="#4d4d4d" stroke-width=".9">SLICER</tspan></text><text x="66.537407" y="9.454134" fill="#4d4d4d" font-family="'Arial Narrow'" font-size="2.5px" font-weight="bold" letter-spacing="0px" stroke-linecap="round" stroke-linejoin="round" stroke-width=".9" text-align="center" text-anchor="middle" word-spacing="0px" style="line-height:0" xml:space="preserve"><tspan x="66.537407" y="9.454134" fill="#4d4d4d" stroke-width=".9">SAMPLER</tspan></text><text x="13.139519" y="21.431688" fill="#4d4d4d" font-family="'Arial Narrow'" font-size="2.5px" font-weight="bold" letter-spacing="0px" stroke-linecap="round" stroke-linejoin="round" stroke-width=".9" text-align="center" text-anchor="middle" word-spacing="0px" style="line-height:0" xml:space="preserve"><tspan x="13.139519" y="21.431688" fill="#4d4d4d" stroke-width=".9">CUE</tspan></text><text x="31.566742" y="23.645388" fill="#000000" font-family="'Arial Narrow'" font-size="2.5px" font-weight="bold" letter-spacing="0px" stroke-linecap="round" stroke-linejoin="round" stroke-width=".9" text-align="center" text-anchor="middle" word-spacing="0px" style="line-height:0" xml:space="preserve"><tspan x="31.566742" y="23.645388" fill="#000000" stroke-width=".9">1</tspan></text><text x="44.097019" y="23.645388" fill="#000000" font-family="'Arial Narrow'" font-size="2.5px" font-weight="bold" letter-spacing="0px" stroke-linecap="round" stroke-linejoin="round" stroke-width=".9" text-align="center" text-anchor="middle" word-spacing="0px" style="line-height:0" xml:space="preserve"><tspan x="44.097019" y="23.645388" fill="#000000" stroke-width=".9">2</tspan></text><text x="56.841801" y="23.614878" fill="#000000" font-family="'Arial Narrow'" font-size="2.5px" font-weight="bold" letter-spacing="0px" stroke-linecap="round" stroke-linejoin="round" stroke-width=".9" text-align="center" text-anchor="middle" word-spacing="0px" style="line-height:0" xml:space="preserve"><tspan x="56.841801" y="23.614878" fill="#000000" stroke-width=".9">3</tspan></text><text x="69.562492" y="23.645388" fill="#000000" font-family="'Arial Narrow'" font-size="2.5px" font-weight="bold" letter-spacing="0px" stroke-linecap="round" stroke-linejoin="round" stroke-width=".9" text-align="center" text-anchor="middle" word-spacing="0px" style="line-height:0" xml:space="preserve"><tspan x="69.562492" y="23.645388" fill="#000000" stroke-width=".9">4</tspan></text><text x="31.295761" y="36.916077" fill="#000000" font-family="'Arial Narrow'" font-size="2.5px" font-weight="bold" letter-spacing="0px" stroke-linecap="round" stroke-linejoin="round" stroke-width=".9" text-align="center" text-anchor="middle" word-spacing="0px" style="line-height:0" xml:space="preserve"><tspan x="31.295761" y="36.916077" fill="#000000" stroke-width=".9">5</tspan></text><text x="44.066509" y="36.916077" fill="#000000" font-family="'Arial Narrow'" font-size="2.5px" font-weight="bold" letter-spacing="0px" stroke-linecap="round" stroke-linejoin="round" stroke-width=".9" text-align="center" text-anchor="middle" word-spacing="0px" style="line-height:0" xml:space="preserve"><tspan x="44.066509" y="36.916077" fill="#000000" stroke-width=".9">6</tspan></text><text x="56.845463" y="36.946602" fill="#000000" font-family="'Arial Narrow'" font-size="2.5px" font-weight="bold" letter-spacing="0px" stroke-linecap="round" stroke-linejoin="round" stroke-width=".9" text-align="center" text-anchor="middle" word-spacing="0px" style="line-height:0" xml:space="preserve"><tspan x="56.845463" y="36.946602" fill="#000000" stroke-width=".9">7</tspan></text><text x="69.605217" y="36.914856" fill="#000000" font-family="'Arial Narrow'" font-size="2.5px" font-weight="bold" letter-spacing="0px" stroke-linecap="round" stroke-linejoin="round" stroke-width=".9" text-align="center" text-anchor="middle" word-spacing="0px" style="line-height:0" xml:space="preserve"><tspan x="69.605217" y="36.914856" fill="#000000" stroke-width=".9">8</tspan></text><text x="28.287895" y="13.006097" fill="#4d4d4d" font-family="'Arial Narrow'" font-size="2.5px" font-weight="bold" letter-spacing="0px" stroke-linecap="round" stroke-linejoin="round" stroke-width=".9" text-align="center" text-anchor="middle" word-spacing="0px" style="line-height:0" xml:space="preserve"><tspan x="28.287895" y="13.006097" fill="#4d4d4d" stroke-width=".9">TRANSPORT</tspan></text><text x="41.004803" y="13.006097" fill="#4d4d4d" font-family="'Arial Narrow'" font-size="2.5px" font-weight="bold" letter-spacing="0px" stroke-linecap="round" stroke-linejoin="round" stroke-width=".9" text-align="center" text-anchor="middle" word-spacing="0px" style="line-height:0" xml:space="preserve"><tspan x="41.004803" y="13.006097" fill="#4d4d4d" stroke-width=".9">ROLL</tspan></text><text x="53.733097" y="12.975587" fill="#4d4d4d" font-family="'Arial Narrow'" font-size="2.5px" font-weight="bold" letter-spacing="0px" stroke-linecap="round" stroke-linejoin="round" stroke-width=".9" text-align="center" text-anchor="middle" word-spacing="0px" style="line-height:0" xml:space="preserve"><tspan x="53.733097" y="12.975587" fill="#4d4d4d" stroke-width=".9">FX</tspan></text><path transform="matrix(1.5518 0 0 -1.4019 72.075 13.855)" d="m0 0h-7.096c-0.123 0-0.223 0.101-0.223 0.223v2.086c0 0.122 0.1 0.222 0.223 0.222h7.096c0.121 0 0.223-0.1 0.223-0.222v-2.086c0-0.122-0.102-0.223-0.223-0.223z" clip-path="url(#ar)" fill="#ececec" stroke="#999" stroke-miterlimit="10" stroke-width=".375"/><text x="66.541679" y="12.975587" fill="#1a1a1a" font-family="'Arial Narrow'" font-size="2.5px" font-weight="bold" letter-spacing="0px" stroke-linecap="round" stroke-linejoin="round" stroke-width=".9" text-align="center" text-anchor="middle" word-spacing="0px" style="line-height:0" xml:space="preserve"><tspan x="66.541679" y="12.975587" fill="#1a1a1a" stroke-width=".9">BEATJUMP</tspan></text><text x="13.26997" y="33.967068" fill="#4d4d4d" font-family="'Arial Narrow'" font-size="2.5px" font-weight="bold" letter-spacing="0px" stroke-linecap="round" stroke-linejoin="round" stroke-width=".9" text-align="center" text-anchor="middle" word-spacing="0px" style="line-height:0" xml:space="preserve"><tspan x="13.26997" y="33.967068" fill="#4d4d4d" stroke-width=".9">/</tspan></text><rect x="13.799" y="32.411" width=".39687" height="1.3229" fill="#4d4d4d"/><rect x="14.461" y="32.411" width=".39687" height="1.3229" fill="#4d4d4d"/><path d="m12.741 33.072-1.3229-0.79375v1.5875z" fill="#4d4d4d"/><text x="28.220139" y="18.907063" fill="#000000" font-family="'Arial Narrow'" font-size="2.5px" font-weight="bold" letter-spacing="0px" stroke-linecap="round" stroke-linejoin="round" stroke-width=".9" text-align="center" text-anchor="middle" word-spacing="0px" style="line-height:0" xml:space="preserve"><tspan x="28.220139" y="18.907063" fill="#000000" stroke-width=".9">1 beat</tspan></text><text x="40.980392" y="18.907673" fill="#000000" font-family="'Arial Narrow'" font-size="2.5px" font-weight="bold" letter-spacing="0px" stroke-linecap="round" stroke-linejoin="round" stroke-width=".9" text-align="center" text-anchor="middle" word-spacing="0px" style="line-height:0" xml:space="preserve"><tspan x="40.980392" y="18.907673" fill="#000000" stroke-width=".9">1 beat</tspan></text><text x="53.739811" y="18.907673" fill="#000000" font-family="'Arial Narrow'" font-size="2.5px" font-weight="bold" letter-spacing="0px" stroke-linecap="round" stroke-linejoin="round" stroke-width=".9" text-align="center" text-anchor="middle" word-spacing="0px" style="line-height:0" xml:space="preserve"><tspan x="53.739811" y="18.907673" fill="#000000" stroke-width=".9">2 beats</tspan></text><text x="66.500771" y="18.896687" fill="#000000" font-family="'Arial Narrow'" font-size="2.5px" font-weight="bold" letter-spacing="0px" stroke-linecap="round" stroke-linejoin="round" stroke-width=".9" text-align="center" text-anchor="middle" word-spacing="0px" style="line-height:0" xml:space="preserve"><tspan x="66.500771" y="18.896687" fill="#000000" stroke-width=".9">2 beats</tspan></text><text x="28.275681" y="32.197918" fill="#000000" font-family="'Arial Narrow'" font-size="2.5px" font-weight="bold" letter-spacing="0px" stroke-linecap="round" stroke-linejoin="round" stroke-width=".9" text-align="center" text-anchor="middle" word-spacing="0px" style="line-height:0" xml:space="preserve"><tspan x="28.275681" y="32.197918" fill="#000000" stroke-width=".9">4 beats</tspan></text><text x="41.042648" y="32.197918" fill="#000000" font-family="'Arial Narrow'" font-size="2.5px" font-weight="bold" letter-spacing="0px" stroke-linecap="round" stroke-linejoin="round" stroke-width=".9" text-align="center" text-anchor="middle" word-spacing="0px" style="line-height:0" xml:space="preserve"><tspan x="41.042648" y="32.197918" fill="#000000" stroke-width=".9">4 beats</tspan></text><text x="53.778873" y="32.196697" fill="#000000" font-family="'Arial Narrow'" font-size="2.5px" font-weight="bold" letter-spacing="0px" stroke-linecap="round" stroke-linejoin="round" stroke-width=".9" text-align="center" text-anchor="middle" word-spacing="0px" style="line-height:0" xml:space="preserve"><tspan x="53.778873" y="32.196697" fill="#000000" stroke-width=".9">8 beats</tspan></text><text x="66.500771" y="32.197308" fill="#000000" font-family="'Arial Narrow'" font-size="2.5px" font-weight="bold" letter-spacing="0px" stroke-linecap="round" stroke-linejoin="round" stroke-width=".9" text-align="center" text-anchor="middle" word-spacing="0px" style="line-height:0" xml:space="preserve"><tspan x="66.500771" y="32.197308" fill="#000000" stroke-width=".9">8 beats</tspan></text><g transform="translate(10.895 638.33)" fill="none" stroke="#000" stroke-linejoin="round" stroke-width=".3175"><path d="m18.521-616.48v-1.3229h-2.6458v1.3229"/><path d="m15.081-617.27 0.79375 0.79375 0.79375-0.79375"/></g><g transform="matrix(-1 0 0 1 57.772 638.33)" fill="none" stroke="#000" stroke-linejoin="round" stroke-width=".3175"><path d="m18.521-616.48v-1.3229h-2.6458v1.3229"/><path d="m15.081-617.27 0.79375 0.79375 0.79375-0.79375"/></g><g transform="translate(36.824 638.33)" fill="none" stroke="#000" stroke-linejoin="round" stroke-width=".3175"><path d="m18.521-616.48v-1.3229h-2.6458v1.3229"/><path d="m15.081-617.27 0.79375 0.79375 0.79375-0.79375"/></g><g transform="matrix(-1 0 0 1 83.172 638.33)" fill="none" stroke="#000" stroke-linejoin="round" stroke-width=".3175"><path d="m18.521-616.48v-1.3229h-2.6458v1.3229"/><path d="m15.081-617.27 0.79375 0.79375 0.79375-0.79375"/></g><g transform="translate(11.464 651.63)" fill="none" stroke="#000" stroke-linejoin="round" stroke-width=".3175"><path d="m18.521-616.48v-1.3229h-2.6458v1.3229"/><path d="m15.081-617.27 0.79375 0.79375 0.79375-0.79375"/></g><g transform="matrix(-1 0 0 1 57.772 651.63)" fill="none" stroke="#000" stroke-linejoin="round" stroke-width=".3175"><path d="m18.521-616.48v-1.3229h-2.6458v1.3229"/><path d="m15.081-617.27 0.79375 0.79375 0.79375-0.79375"/></g><g transform="translate(36.824 651.63)" fill="none" stroke="#000" stroke-linejoin="round" stroke-width=".3175"><path d="m18.521-616.48v-1.3229h-2.6458v1.3229"/><path d="m15.081-617.27 0.79375 0.79375 0.79375-0.79375"/></g><g transform="matrix(-1 0 0 1 83.393 651.63)" fill="none" stroke="#000" stroke-linejoin="round" stroke-width=".3175"><path d="m18.521-616.48v-1.3229h-2.6458v1.3229"/><path d="m15.081-617.27 0.79375 0.79375 0.79375-0.79375"/></g></svg>
