<?xml version="1.0" encoding="UTF-8"?>
<svg width="360" height="80" version="1.1" viewBox="0 0 95.25 21.167" xmlns="http://www.w3.org/2000/svg"><defs><clipPath id="bh"><path transform="translate(-492 -76.867)" d="m323.15 26.668h257.72v189.34h-257.72z"/></clipPath></defs><rect width="95.25" height="21.167" fill="#fff"/><text x="11.543512" y="-15.872329" fill="#000000" font-family="'Arial Narrow'" font-size="2.5px" font-weight="bold" letter-spacing="0px" stroke-linecap="round" stroke-linejoin="round" stroke-width=".9" text-align="center" text-anchor="middle" word-spacing="0px" style="line-height:0" xml:space="preserve"><tspan x="11.543512" y="-15.872329" stroke-width=".9"/></text><text x="-72.868416" y="70.704018" fill="#000000" font-family="'Arial Narrow'" font-size="2.5px" font-weight="bold" letter-spacing="0px" stroke-linecap="round" stroke-linejoin="round" stroke-width=".9" text-align="center" text-anchor="middle" word-spacing="0px" style="line-height:0" xml:space="preserve"><tspan x="-72.868416" y="70.704018" stroke-width=".9"/></text><text x="86.93708" y="79.361649" fill="#000000" font-family="'Arial Narrow'" font-size="2.5px" font-weight="bold" letter-spacing="0px" stroke-linecap="round" stroke-linejoin="round" stroke-width=".9" text-align="center" text-anchor="middle" word-spacing="0px" style="line-height:0" xml:space="preserve"><tspan x="86.93708" y="79.361649" stroke-width=".9"/></text><text x="88.380013" y="80.804588" fill="#000000" font-family="'Arial Narrow'" font-size="2.5px" font-weight="bold" letter-spacing="0px" stroke-linecap="round" stroke-linejoin="round" stroke-width=".9" text-align="center" text-anchor="middle" word-spacing="0px" style="line-height:0" xml:space="preserve"><tspan x="88.380013" y="80.804588" stroke-width=".9"/></text><text x="86.827766" y="40.635418" fill="none" font-family="'Arial Narrow'" font-size="3.5278px" font-weight="bold" letter-spacing="0px" stroke="#000000" stroke-linecap="round" stroke-linejoin="round" stroke-width=".6223" text-align="center" text-anchor="middle" word-spacing="0px" style="line-height:0" xml:space="preserve"><tspan x="86.827766" y="40.635418" stroke-width=".6223"/></text><g transform="translate(1.9436 .17131)"><path transform="matrix(1.4111 0 0 -1.4111 50.952 14.579)" d="m2.25-0.75h-9.346c-0.123 0-0.223 0.101-0.223 0.223v2.836c0 0.122 0.1 0.222 0.223 0.222h9.346c0.122 0 0.224-0.1 0.224-0.222v-2.836c0-0.122-0.102-0.223-0.224-0.223z" clip-path="url(#bh)" fill="#e6e6e6" stroke="#999" stroke-miterlimit="10" stroke-width=".375"/><path transform="matrix(1.4111 0 0 -1.4111 66.827 14.579)" d="m2.25-0.75h-9.346c-0.123 0-0.223 0.101-0.223 0.223v2.836c0 0.122 0.1 0.222 0.223 0.222h9.346c0.122 0 0.224-0.1 0.224-0.222v-2.836c0-0.122-0.102-0.223-0.224-0.223z" clip-path="url(#bh)" fill="#e6e6e6" stroke="#999" stroke-miterlimit="10" stroke-width=".375"/><path transform="matrix(1.4111 0 0 -1.4111 82.702 14.579)" d="m2.25-0.75h-9.346c-0.123 0-0.223 0.101-0.223 0.223v2.836c0 0.122 0.1 0.222 0.223 0.222h9.346c0.122 0 0.224-0.1 0.224-0.222v-2.836c0-0.122-0.102-0.223-0.224-0.223z" clip-path="url(#bh)" fill="#e6e6e6" stroke="#999" stroke-miterlimit="10" stroke-width=".375"/><path transform="matrix(1.4111 0 0 -1.4111 35.077 14.579)" d="m2.25-0.75h-9.346c-0.123 0-0.223 0.101-0.223 0.223v2.836c0 0.122 0.1 0.222 0.223 0.222h9.346c0.122 0 0.224-0.1 0.224-0.222v-2.836c0-0.122-0.102-0.223-0.224-0.223z" clip-path="url(#bh)" fill="#e6e6e6" stroke="#999" stroke-miterlimit="10" stroke-width=".375"/><path transform="matrix(1.4111 0 0 -1.4111 15.498 8.7582)" d="m2.25-0.75h-9.346c-0.123 0-0.223 0.101-0.223 0.223v2.836c0 0.122 0.1 0.222 0.223 0.222h9.346c0.122 0 0.224-0.1 0.224-0.222v-2.836c0-0.122-0.102-0.223-0.224-0.223z" clip-path="url(#bh)" fill="#e6e6e6" stroke="#333" stroke-miterlimit="10" stroke-width=".375"/><text x="31.657906" y="14.216612" fill="#000000" font-family="'Arial Narrow'" font-size="2.5px" font-weight="bold" letter-spacing="0px" stroke-linecap="round" stroke-linejoin="round" stroke-width=".9" text-align="center" text-anchor="middle" word-spacing="0px" style="line-height:0" xml:space="preserve"><tspan x="31.657906" y="14.216612" fill="#000000" stroke-width=".9">TRANSPORT</tspan></text><path transform="matrix(1.4111 0 0 -1.4111 35.077 8.7582)" d="m2.25-0.75h-9.346c-0.123 0-0.223 0.101-0.223 0.223v2.836c0 0.122 0.1 0.222 0.223 0.222h9.346c0.122 0 0.224-0.1 0.224-0.222v-2.836c0-0.122-0.102-0.223-0.224-0.223z" clip-path="url(#bh)" fill="#e6e6e6" stroke="#333" stroke-miterlimit="10" stroke-width=".375"/><path transform="matrix(1.4111 0 0 -1.4111 50.952 8.7582)" d="m2.25-0.75h-9.346c-0.123 0-0.223 0.101-0.223 0.223v2.836c0 0.122 0.1 0.222 0.223 0.222h9.346c0.122 0 0.224-0.1 0.224-0.222v-2.836c0-0.122-0.102-0.223-0.224-0.223z" clip-path="url(#bh)" fill="#e6e6e6" stroke="#333" stroke-miterlimit="10" stroke-width=".375"/><path transform="matrix(1.4111 0 0 -1.4111 66.827 8.7582)" d="m2.25-0.75h-9.346c-0.123 0-0.223 0.101-0.223 0.223v2.836c0 0.122 0.1 0.222 0.223 0.222h9.346c0.122 0 0.224-0.1 0.224-0.222v-2.836c0-0.122-0.102-0.223-0.224-0.223z" clip-path="url(#bh)" fill="#e6e6e6" stroke="#333" stroke-miterlimit="10" stroke-width=".375"/><path transform="matrix(1.4111 0 0 -1.4111 82.702 8.7582)" d="m2.25-0.75h-9.346c-0.123 0-0.223 0.101-0.223 0.223v2.836c0 0.122 0.1 0.222 0.223 0.222h9.346c0.122 0 0.224-0.1 0.224-0.222v-2.836c0-0.122-0.102-0.223-0.224-0.223z" clip-path="url(#bh)" fill="#e6e6e6" stroke="#333" stroke-miterlimit="10" stroke-width=".375"/><path d="m12.079 10.941v2.3812h11.113" fill="none" stroke="#1a1a1a" stroke-linecap="round" stroke-linejoin="round" stroke-width=".26458"/><text x="12.063488" y="8.3957777" fill="#000000" font-family="'Arial Narrow'" font-size="2.5px" font-weight="bold" letter-spacing="0px" stroke-linecap="round" stroke-linejoin="round" stroke-width=".9" text-align="center" text-anchor="middle" word-spacing="0px" style="line-height:0" xml:space="preserve"><tspan x="12.063488" y="8.3957777" fill="#000000" stroke-width=".9">SHIFT</tspan></text><text x="31.634102" y="8.396389" fill="#000000" font-family="'Arial Narrow'" font-size="2.5px" font-weight="bold" letter-spacing="0px" stroke-linecap="round" stroke-linejoin="round" stroke-width=".9" text-align="center" text-anchor="middle" word-spacing="0px" style="line-height:0" xml:space="preserve"><tspan x="31.634102" y="8.396389" fill="#000000" stroke-width=".9">HOT CUE</tspan></text><text x="47.501778" y="8.3963881" fill="#000000" font-family="'Arial Narrow'" font-size="2.5px" font-weight="bold" letter-spacing="0px" stroke-linecap="round" stroke-linejoin="round" stroke-width=".9" text-align="center" text-anchor="middle" word-spacing="0px" style="line-height:0" xml:space="preserve"><tspan x="47.501778" y="8.3963881" fill="#000000" stroke-width=".9">LOOP</tspan></text><text x="63.37677" y="8.3957777" fill="#000000" font-family="'Arial Narrow'" font-size="2.5px" font-weight="bold" letter-spacing="0px" stroke-linecap="round" stroke-linejoin="round" stroke-width=".9" text-align="center" text-anchor="middle" word-spacing="0px" style="line-height:0" xml:space="preserve"><tspan x="63.37677" y="8.3957777" fill="#000000" stroke-width=".9">SLICER</tspan></text><text x="79.25177" y="8.3957777" fill="#000000" font-family="'Arial Narrow'" font-size="2.5px" font-weight="bold" letter-spacing="0px" stroke-linecap="round" stroke-linejoin="round" stroke-width=".9" text-align="center" text-anchor="middle" word-spacing="0px" style="line-height:0" xml:space="preserve"><tspan x="79.25177" y="8.3957777" fill="#000000" stroke-width=".9">SAMPLER</tspan></text><text x="47.489571" y="14.217222" fill="#000000" font-family="'Arial Narrow'" font-size="2.5px" font-weight="bold" letter-spacing="0px" stroke-linecap="round" stroke-linejoin="round" stroke-width=".9" text-align="center" text-anchor="middle" word-spacing="0px" style="line-height:0" xml:space="preserve"><tspan x="47.489571" y="14.217222" fill="#000000" stroke-width=".9">ROLL</tspan></text><text x="63.333435" y="14.217222" fill="#000000" font-family="'Arial Narrow'" font-size="2.5px" font-weight="bold" letter-spacing="0px" stroke-linecap="round" stroke-linejoin="round" stroke-width=".9" text-align="center" text-anchor="middle" word-spacing="0px" style="line-height:0" xml:space="preserve"><tspan x="63.333435" y="14.217222" fill="#000000" stroke-width=".9">FX</tspan></text><text x="79.256042" y="14.201963" fill="#000000" font-family="'Arial Narrow'" font-size="2.5px" font-weight="bold" letter-spacing="0px" stroke-linecap="round" stroke-linejoin="round" stroke-width=".9" text-align="center" text-anchor="middle" word-spacing="0px" style="line-height:0" xml:space="preserve"><tspan x="79.256042" y="14.201963" fill="#000000" stroke-width=".9">BEATJUMP</tspan></text></g></svg>
