<?xml version="1.0" encoding="UTF-8"?>
<svg width="300" height="170" version="1.1" viewBox="0 0 79.375 44.979" xmlns="http://www.w3.org/2000/svg"><defs><clipPath id="bh"><path transform="translate(-492 -76.867)" d="m323.15 26.668h257.72v189.34h-257.72z"/></clipPath><clipPath id="bg"><path transform="translate(-492 -67.083)" d="m323.15 26.668h257.72v189.34h-257.72z"/></clipPath><clipPath id="bf"><path transform="translate(-492 -58.2)" d="m323.15 26.668h257.72v189.34h-257.72z"/></clipPath><clipPath id="ba"><path transform="translate(-502.73 -76.867)" d="m323.15 26.668h257.72v189.34h-257.72z"/></clipPath><clipPath id="az"><path transform="translate(-502.73 -66.912)" d="m323.15 26.668h257.72v189.34h-257.72z"/></clipPath><clipPath id="ay"><path transform="translate(-502.73 -57.486)" d="m323.15 26.668h257.72v189.34h-257.72z"/></clipPath><clipPath id="ax"><path transform="translate(-511.78 -76.867)" d="m323.15 26.668h257.72v189.34h-257.72z"/></clipPath><clipPath id="aw"><path transform="translate(-511.78 -66.912)" d="m323.15 26.668h257.72v189.34h-257.72z"/></clipPath><clipPath id="av"><path transform="translate(-511.78 -57.486)" d="m323.15 26.668h257.72v189.34h-257.72z"/></clipPath><clipPath id="au"><path transform="translate(-520.82 -76.867)" d="m323.15 26.668h257.72v189.34h-257.72z"/></clipPath><clipPath id="at"><path transform="translate(-520.82 -66.912)" d="m323.15 26.668h257.72v189.34h-257.72z"/></clipPath><clipPath id="as"><path transform="translate(-520.82 -57.486)" d="m323.15 26.668h257.72v189.34h-257.72z"/></clipPath><clipPath id="ar"><path transform="translate(-529.86 -76.867)" d="m323.15 26.668h257.72v189.34h-257.72z"/></clipPath><clipPath id="aq"><path transform="translate(-529.86 -66.912)" d="m323.15 26.668h257.72v189.34h-257.72z"/></clipPath><clipPath id="ap"><path transform="translate(-529.86 -57.486)" d="m323.15 26.668h257.72v189.34h-257.72z"/></clipPath></defs><rect width="79.375" height="44.979" fill="#f9f9f9"/><path transform="matrix(1.7164 0 0 -1.3919 34.378 13.842)" d="m0 0h-7.096c-0.123 0-0.223 0.101-0.223 0.223v2.086c0 0.122 0.1 0.222 0.223 0.222h7.096c0.121 0 0.223-0.1 0.223-0.222v-2.086c0-0.122-0.102-0.223-0.223-0.223z" clip-path="url(#ar)" fill="#ececec" stroke="#999" stroke-miterlimit="10" stroke-width=".375"/><text x="11.543512" y="-15.872329" fill="#000000" font-family="'Arial Narrow'" font-size="2.5px" font-weight="bold" letter-spacing="0px" stroke-linecap="round" stroke-linejoin="round" stroke-width=".9" text-align="center" text-anchor="middle" word-spacing="0px" style="line-height:0" xml:space="preserve"><tspan x="11.543512" y="-15.872329" stroke-width=".9"/></text><text x="-72.868416" y="70.704018" fill="#000000" font-family="'Arial Narrow'" font-size="2.5px" font-weight="bold" letter-spacing="0px" stroke-linecap="round" stroke-linejoin="round" stroke-width=".9" text-align="center" text-anchor="middle" word-spacing="0px" style="line-height:0" xml:space="preserve"><tspan x="-72.868416" y="70.704018" stroke-width=".9"/></text><text x="86.93708" y="79.361649" fill="#000000" font-family="'Arial Narrow'" font-size="2.5px" font-weight="bold" letter-spacing="0px" stroke-linecap="round" stroke-linejoin="round" stroke-width=".9" text-align="center" text-anchor="middle" word-spacing="0px" style="line-height:0" xml:space="preserve"><tspan x="86.93708" y="79.361649" stroke-width=".9"/></text><text x="88.380013" y="80.804588" fill="#000000" font-family="'Arial Narrow'" font-size="2.5px" font-weight="bold" letter-spacing="0px" stroke-linecap="round" stroke-linejoin="round" stroke-width=".9" text-align="center" text-anchor="middle" word-spacing="0px" style="line-height:0" xml:space="preserve"><tspan x="88.380013" y="80.804588" stroke-width=".9"/></text><text x="86.827766" y="40.635418" fill="none" font-family="'Arial Narrow'" font-size="3.5278px" font-weight="bold" letter-spacing="0px" stroke="#000000" stroke-linecap="round" stroke-linejoin="round" stroke-width=".6223" text-align="center" text-anchor="middle" word-spacing="0px" style="line-height:0" xml:space="preserve"><tspan x="86.827766" y="40.635418" stroke-width=".6223"/></text><path d="m13.114 10.921v1.3229h7.9375" fill="none" stroke="#000" stroke-linecap="round" stroke-linejoin="round" stroke-width=".26458"/><path transform="matrix(1.4111 0 0 -1.4111 18.144 10.346)" d="m0 0h-7.096c-0.123 0-0.223 0.101-0.223 0.223v2.086c0 0.122 0.1 0.222 0.223 0.222h7.096c0.122 0 0.224-0.1 0.224-0.222v-2.086c0-0.122-0.102-0.223-0.224-0.223z" clip-path="url(#bh)" fill="#b3b3b3" stroke="#333" stroke-miterlimit="10" stroke-width=".375"/><path transform="matrix(1.4111 0 0 -1.4111 18.144 25.21)" d="m0 0h-7.096c-0.123 0-0.223 0.099-0.223 0.224v6.176c0 0.124 0.1 0.223 0.223 0.223h7.096c0.122 0 0.224-0.099 0.224-0.223v-6.176c0-0.125-0.102-0.224-0.224-0.224z" clip-path="url(#bg)" fill="#b3b3b3" stroke="#333" stroke-miterlimit="10" stroke-width=".375"/><path transform="matrix(1.4111 0 0 -1.4111 18.144 37.744)" d="m0 0h-7.096c-0.123 0-0.223 0.099-0.223 0.223v6.177c0 0.123 0.1 0.222 0.223 0.222h7.096c0.122 0 0.224-0.099 0.224-0.222v-6.177c0-0.124-0.102-0.223-0.224-0.223z" clip-path="url(#bf)" fill="#b3b3b3" stroke="#333" stroke-miterlimit="10" stroke-width=".375"/><path transform="matrix(1.4111 0 0 -1.4111 33.294 10.346)" d="m0 0h-7.096c-0.122 0-0.222 0.101-0.222 0.223v2.086c0 0.122 0.1 0.222 0.222 0.222h7.096c0.123 0 0.223-0.1 0.223-0.222v-2.086c0-0.122-0.1-0.223-0.223-0.223z" clip-path="url(#ba)" fill="#b3b3b3" stroke="#333" stroke-miterlimit="10" stroke-width=".375"/><path transform="matrix(1.4111 0 0 -1.4111 33.294 25.451)" d="m0 0h-7.096c-0.122 0-0.222 0.101-0.222 0.223v7.096c0 0.122 0.1 0.223 0.222 0.223h7.096c0.123 0 0.223-0.101 0.223-0.223v-7.096c0-0.122-0.1-0.223-0.223-0.223z" clip-path="url(#az)" fill="#e6e6e6" stroke="#333" stroke-miterlimit="10" stroke-width=".375"/><path transform="matrix(1.4111 0 0 -1.4111 46.055 10.346)" d="m0 0h-7.096c-0.122 0-0.223 0.101-0.223 0.223v2.086c0 0.122 0.101 0.222 0.223 0.222h7.096c0.122 0 0.223-0.1 0.223-0.222v-2.086c0-0.122-0.101-0.223-0.223-0.223z" clip-path="url(#ax)" fill="#b3b3b3" stroke="#333" stroke-miterlimit="10" stroke-width=".375"/><path transform="matrix(1.4111 0 0 -1.4111 46.055 25.451)" d="m0 0h-7.096c-0.122 0-0.223 0.101-0.223 0.223v7.096c0 0.122 0.101 0.223 0.223 0.223h7.096c0.122 0 0.223-0.101 0.223-0.223v-7.096c0-0.122-0.101-0.223-0.223-0.223z" clip-path="url(#aw)" fill="#e6e6e6" stroke="#333" stroke-miterlimit="10" stroke-width=".375"/><path transform="matrix(1.4111 0 0 -1.4111 45.955 38.752)" d="m0 0h-7.096c-0.122 0-0.223 0.1-0.223 0.223v7.096c0 0.121 0.101 0.223 0.223 0.223h7.096c0.122 0 0.223-0.102 0.223-0.223v-7.096c0-0.123-0.101-0.223-0.223-0.223z" clip-path="url(#av)" fill="#e6e6e6" stroke="#333" stroke-miterlimit="10" stroke-width=".375"/><path transform="matrix(1.4111 0 0 -1.4111 58.815 10.346)" d="m0 0h-7.096c-0.122 0-0.223 0.101-0.223 0.223v2.086c0 0.122 0.101 0.222 0.223 0.222h7.096c0.122 0 0.223-0.1 0.223-0.222v-2.086c0-0.122-0.101-0.223-0.223-0.223z" clip-path="url(#au)" fill="#b3b3b3" stroke="#333" stroke-miterlimit="10" stroke-width=".375"/><path transform="matrix(1.4111 0 0 -1.4111 58.815 25.451)" d="m0 0h-7.096c-0.122 0-0.223 0.101-0.223 0.223v7.096c0 0.122 0.101 0.223 0.223 0.223h7.096c0.122 0 0.223-0.101 0.223-0.223v-7.096c0-0.122-0.101-0.223-0.223-0.223z" clip-path="url(#at)" fill="#e6e6e6" stroke="#333" stroke-miterlimit="10" stroke-width=".375"/><path transform="matrix(1.4111 0 0 -1.4111 58.655 38.752)" d="m0 0h-7.096c-0.122 0-0.223 0.1-0.223 0.223v7.096c0 0.121 0.101 0.223 0.223 0.223h7.096c0.122 0 0.223-0.102 0.223-0.223v-7.096c0-0.123-0.101-0.223-0.223-0.223z" clip-path="url(#as)" fill="#e6e6e6" stroke="#333" stroke-miterlimit="10" stroke-width=".375"/><path transform="matrix(1.4111 0 0 -1.4111 71.576 10.346)" d="m0 0h-7.096c-0.123 0-0.223 0.101-0.223 0.223v2.086c0 0.122 0.1 0.222 0.223 0.222h7.096c0.121 0 0.223-0.1 0.223-0.222v-2.086c0-0.122-0.102-0.223-0.223-0.223z" clip-path="url(#ar)" fill="#b3b3b3" stroke="#333" stroke-miterlimit="10" stroke-width=".375"/><path transform="matrix(1.4111 0 0 -1.4111 71.576 25.451)" d="m0 0h-7.096c-0.123 0-0.223 0.101-0.223 0.223v7.096c0 0.122 0.1 0.223 0.223 0.223h7.096c0.121 0 0.223-0.101 0.223-0.223v-7.096c0-0.122-0.102-0.223-0.223-0.223z" clip-path="url(#aq)" fill="#e6e6e6" stroke="#333" stroke-miterlimit="10" stroke-width=".375"/><text x="13.121819" y="9.454134" fill="#4d4d4d" font-family="'Arial Narrow'" font-size="2.5px" font-weight="bold" letter-spacing="0px" stroke-linecap="round" stroke-linejoin="round" stroke-width=".9" text-align="center" text-anchor="middle" word-spacing="0px" style="line-height:0" xml:space="preserve"><tspan x="13.121819" y="9.454134" fill="#4d4d4d" stroke-width=".9">SHIFT</tspan></text><text x="28.264084" y="9.4547443" fill="#4d4d4d" font-family="'Arial Narrow'" font-size="2.5px" font-weight="bold" letter-spacing="0px" stroke-linecap="round" stroke-linejoin="round" stroke-width=".9" text-align="center" text-anchor="middle" word-spacing="0px" style="line-height:0" xml:space="preserve"><tspan x="28.264084" y="9.4547443" fill="#4d4d4d" stroke-width=".9">HOT CUE</tspan></text><text x="41.017017" y="9.4547443" fill="#4d4d4d" font-family="'Arial Narrow'" font-size="2.5px" font-weight="bold" letter-spacing="0px" stroke-linecap="round" stroke-linejoin="round" stroke-width=".9" text-align="center" text-anchor="middle" word-spacing="0px" style="line-height:0" xml:space="preserve"><tspan x="41.017017" y="9.4547443" fill="#4d4d4d" stroke-width=".9">LOOP</tspan></text><text x="53.776432" y="9.454134" fill="#4d4d4d" font-family="'Arial Narrow'" font-size="2.5px" font-weight="bold" letter-spacing="0px" stroke-linecap="round" stroke-linejoin="round" stroke-width=".9" text-align="center" text-anchor="middle" word-spacing="0px" style="line-height:0" xml:space="preserve"><tspan x="53.776432" y="9.454134" fill="#4d4d4d" stroke-width=".9">SLICER</tspan></text><text x="66.537407" y="9.454134" fill="#4d4d4d" font-family="'Arial Narrow'" font-size="2.5px" font-weight="bold" letter-spacing="0px" stroke-linecap="round" stroke-linejoin="round" stroke-width=".9" text-align="center" text-anchor="middle" word-spacing="0px" style="line-height:0" xml:space="preserve"><tspan x="66.537407" y="9.454134" fill="#4d4d4d" stroke-width=".9">SAMPLER</tspan></text><text x="13.139519" y="21.431688" fill="#4d4d4d" font-family="'Arial Narrow'" font-size="2.5px" font-weight="bold" letter-spacing="0px" stroke-linecap="round" stroke-linejoin="round" stroke-width=".9" text-align="center" text-anchor="middle" word-spacing="0px" style="line-height:0" xml:space="preserve"><tspan x="13.139519" y="21.431688" fill="#4d4d4d" stroke-width=".9">CUE</tspan></text><text x="31.566742" y="23.645388" fill="#000000" font-family="'Arial Narrow'" font-size="2.5px" font-weight="bold" letter-spacing="0px" stroke-linecap="round" stroke-linejoin="round" stroke-width=".9" text-align="center" text-anchor="middle" word-spacing="0px" style="line-height:0" xml:space="preserve"><tspan x="31.566742" y="23.645388" fill="#000000" stroke-width=".9">1</tspan></text><text x="44.097019" y="23.645388" fill="#000000" font-family="'Arial Narrow'" font-size="2.5px" font-weight="bold" letter-spacing="0px" stroke-linecap="round" stroke-linejoin="round" stroke-width=".9" text-align="center" text-anchor="middle" word-spacing="0px" style="line-height:0" xml:space="preserve"><tspan x="44.097019" y="23.645388" fill="#000000" stroke-width=".9">2</tspan></text><text x="56.841801" y="23.614878" fill="#000000" font-family="'Arial Narrow'" font-size="2.5px" font-weight="bold" letter-spacing="0px" stroke-linecap="round" stroke-linejoin="round" stroke-width=".9" text-align="center" text-anchor="middle" word-spacing="0px" style="line-height:0" xml:space="preserve"><tspan x="56.841801" y="23.614878" fill="#000000" stroke-width=".9">3</tspan></text><text x="69.562492" y="23.645388" fill="#000000" font-family="'Arial Narrow'" font-size="2.5px" font-weight="bold" letter-spacing="0px" stroke-linecap="round" stroke-linejoin="round" stroke-width=".9" text-align="center" text-anchor="middle" word-spacing="0px" style="line-height:0" xml:space="preserve"><tspan x="69.562492" y="23.645388" fill="#000000" stroke-width=".9">4</tspan></text><text x="44.066509" y="36.916077" fill="#000000" font-family="'Arial Narrow'" font-size="2.5px" font-weight="bold" letter-spacing="0px" stroke-linecap="round" stroke-linejoin="round" stroke-width=".9" text-align="center" text-anchor="middle" word-spacing="0px" style="line-height:0" xml:space="preserve"><tspan x="44.066509" y="36.916077" fill="#000000" stroke-width=".9">6</tspan></text><text x="56.845463" y="36.946602" fill="#000000" font-family="'Arial Narrow'" font-size="2.5px" font-weight="bold" letter-spacing="0px" stroke-linecap="round" stroke-linejoin="round" stroke-width=".9" text-align="center" text-anchor="middle" word-spacing="0px" style="line-height:0" xml:space="preserve"><tspan x="56.845463" y="36.946602" fill="#000000" stroke-width=".9">7</tspan></text><text x="28.287895" y="13.006097" fill="#4d4d4d" font-family="'Arial Narrow'" font-size="2.5px" font-weight="bold" letter-spacing="0px" stroke-linecap="round" stroke-linejoin="round" stroke-width=".9" text-align="center" text-anchor="middle" word-spacing="0px" style="line-height:0" xml:space="preserve"><tspan x="28.287895" y="13.006097" fill="#4d4d4d" stroke-width=".9">TRANSPORT</tspan></text><text x="41.004803" y="13.006097" fill="#4d4d4d" font-family="'Arial Narrow'" font-size="2.5px" font-weight="bold" letter-spacing="0px" stroke-linecap="round" stroke-linejoin="round" stroke-width=".9" text-align="center" text-anchor="middle" word-spacing="0px" style="line-height:0" xml:space="preserve"><tspan x="41.004803" y="13.006097" fill="#4d4d4d" stroke-width=".9">ROLL</tspan></text><text x="53.733097" y="12.975587" fill="#666666" font-family="'Arial Narrow'" font-size="2.5px" font-weight="bold" letter-spacing="0px" stroke-linecap="round" stroke-linejoin="round" stroke-width=".9" text-align="center" text-anchor="middle" word-spacing="0px" style="line-height:0" xml:space="preserve"><tspan x="53.733097" y="12.975587" fill="#666666" stroke-width=".9">FX</tspan></text><text x="66.541679" y="12.975587" fill="#666666" font-family="'Arial Narrow'" font-size="2.5px" font-weight="bold" letter-spacing="0px" stroke-linecap="round" stroke-linejoin="round" stroke-width=".9" text-align="center" text-anchor="middle" word-spacing="0px" style="line-height:0" xml:space="preserve"><tspan x="66.541679" y="12.975587" fill="#666666" stroke-width=".9">BEATJUMP</tspan></text><text x="13.26997" y="33.967068" fill="#4d4d4d" font-family="'Arial Narrow'" font-size="2.5px" font-weight="bold" letter-spacing="0px" stroke-linecap="round" stroke-linejoin="round" stroke-width=".9" text-align="center" text-anchor="middle" word-spacing="0px" style="line-height:0" xml:space="preserve"><tspan x="13.26997" y="33.967068" fill="#4d4d4d" stroke-width=".9">/</tspan></text><rect x="13.799" y="32.411" width=".39687" height="1.3229" fill="#4d4d4d"/><rect x="14.461" y="32.411" width=".39687" height="1.3229" fill="#4d4d4d"/><path d="m12.741 33.072-1.3229-0.79375v1.5875z" fill="#4d4d4d"/><text x="28.220139" y="17.643024" fill="#000000" font-family="'Arial Narrow'" font-size="2.5px" font-weight="bold" letter-spacing="0px" stroke-linecap="round" stroke-linejoin="round" stroke-width=".9" text-align="center" text-anchor="middle" word-spacing="0px" style="line-height:1.2" xml:space="preserve"><tspan x="28.220139" y="17.643024">1/2 tone</tspan></text><text x="66.500771" y="18.896687" fill="#000000" font-family="'Arial Narrow'" font-size="2.5px" font-weight="bold" letter-spacing="0px" stroke-linecap="round" stroke-linejoin="round" stroke-width=".9" text-align="center" text-anchor="middle" word-spacing="0px" style="line-height:0" xml:space="preserve"><tspan x="66.500771" y="18.896687" fill="#000000" stroke-width=".9"/></text><text x="40.946316" y="32.195843" fill="#000000" font-family="'Arial Narrow'" font-size="2.5px" font-weight="bold" letter-spacing="0px" stroke-linecap="round" stroke-linejoin="round" stroke-width=".9" text-align="center" text-anchor="middle" word-spacing="0px" style="line-height:0.9" xml:space="preserve"><tspan x="40.946316" y="32.195843"/></text><text x="41.073776" y="17.643024" fill="#000000" font-family="'Arial Narrow'" font-size="2.5px" font-weight="bold" letter-spacing="0px" stroke-linecap="round" stroke-linejoin="round" stroke-width=".9" text-align="center" text-anchor="middle" word-spacing="0px" style="line-height:1.2" xml:space="preserve"><tspan x="41.073776" y="17.643024">1 tone</tspan></text><text x="53.614574" y="32.195843" fill="#000000" font-family="'Arial Narrow'" font-size="2.5px" font-weight="bold" letter-spacing="0px" stroke-linecap="round" stroke-linejoin="round" stroke-width=".9" text-align="center" text-anchor="middle" word-spacing="0px" style="line-height:0.9" xml:space="preserve"/><text x="66.580116" y="30.944256" fill="#000000" font-family="'Arial Narrow'" font-size="2.5px" font-weight="bold" letter-spacing="0px" stroke-linecap="round" stroke-linejoin="round" stroke-width=".9" text-align="center" text-anchor="middle" word-spacing="0px" style="line-height:1.2" xml:space="preserve"/><path transform="matrix(1.4111 0 0 -1.4111 33.295 38.685)" d="m0 0h-7.096c-0.123 0-0.223 0.1-0.223 0.223v7.096c0 0.121 0.1 0.223 0.223 0.223h7.096c0.121 0 0.223-0.102 0.223-0.223v-7.096c0-0.123-0.102-0.223-0.223-0.223z" clip-path="url(#ap)" fill="#e6e6e6" stroke="#333" stroke-miterlimit="10" stroke-width=".375"/><text x="31.324583" y="36.848015" fill="#000000" font-family="'Arial Narrow'" font-size="2.5px" font-weight="bold" letter-spacing="0px" stroke-linecap="round" stroke-linejoin="round" stroke-width=".9" text-align="center" text-anchor="middle" word-spacing="0px" style="line-height:0" xml:space="preserve"><tspan x="31.324583" y="36.848015" fill="#000000" stroke-width=".9">5</tspan></text><text x="28.233564" y="32.392063" fill="#000000" font-family="'Arial Narrow'" font-size="2.5px" font-weight="bold" letter-spacing="0px" stroke-linecap="round" stroke-linejoin="round" stroke-width=".9" text-align="center" text-anchor="middle" word-spacing="0px" style="line-height:0.9" xml:space="preserve"><tspan x="28.233564" y="32.392063">reset</tspan></text><g transform="translate(12.7)"><g transform="translate(.052748)" stroke-linecap="round" stroke-linejoin="round"><text x="40.922863" y="41.720844" fill="#000000" font-family="'Arial Narrow'" font-size="2.5px" font-weight="bold" letter-spacing="0px" stroke-width=".9" text-align="center" text-anchor="middle" word-spacing="0px" style="line-height:0.9" xml:space="preserve">tempo slider range</text><path d="m24.227 39.635v1.3229h6.8792" fill="none" stroke="#000" stroke-width=".26458"/><path d="m57.564 39.635v1.3229h-6.8792" fill="none" stroke="#000" stroke-width=".26458"/></g></g><text x="53.767277" y="17.643024" fill="#000000" font-family="'Arial Narrow'" font-size="2.5px" font-weight="bold" letter-spacing="0px" stroke-linecap="round" stroke-linejoin="round" stroke-width=".9" text-align="center" text-anchor="middle" word-spacing="0px" style="line-height:1.2" xml:space="preserve"><tspan x="53.767277" y="17.643024">1/2 tone</tspan></text><text x="66.528236" y="17.643024" fill="#000000" font-family="'Arial Narrow'" font-size="2.5px" font-weight="bold" letter-spacing="0px" stroke-linecap="round" stroke-linejoin="round" stroke-width=".9" text-align="center" text-anchor="middle" word-spacing="0px" style="line-height:1.2" xml:space="preserve"><tspan x="66.528236" y="17.643024">1 tone</tspan></text><path d="m26.719 19.048 1.5697 1.5697 1.5697-1.5697" fill="none" stroke="#000" stroke-linecap="round" stroke-linejoin="round" stroke-width=".31394"/><path d="m39.479 19.048 1.5697 1.5697 1.5697-1.5697" fill="none" stroke="#000" stroke-linecap="round" stroke-linejoin="round" stroke-width=".31394"/><path d="m52.238 20.618 1.5697-1.5697 1.5697 1.5697" fill="none" stroke="#000" stroke-linecap="round" stroke-linejoin="round" stroke-width=".31394"/><path d="m64.999 20.618 1.5697-1.5697 1.5697 1.5697" fill="none" stroke="#000" stroke-linecap="round" stroke-linejoin="round" stroke-width=".31394"/><path d="m39.479 30.812 1.5697 1.5697 1.5697-1.5697" fill="none" stroke="#000" stroke-linecap="round" stroke-linejoin="round" stroke-width=".31394"/><path d="m52.238 32.381 1.5697-1.5697 1.5697 1.5697" fill="none" stroke="#000" stroke-linecap="round" stroke-linejoin="round" stroke-width=".31394"/><text x="66.528236" y="17.643024" fill="#000000" font-family="'Arial Narrow'" font-size="2.5px" font-weight="bold" letter-spacing="0px" stroke-linecap="round" stroke-linejoin="round" stroke-width=".9" text-align="center" text-anchor="middle" word-spacing="0px" style="line-height:1.2" xml:space="preserve"><tspan x="66.528236" y="17.643024">1 tone</tspan></text><text x="75.524063" y="21.013355" fill="#000000" font-family="'Arial Narrow'" font-size="2.5px" font-weight="bold" letter-spacing="0px" stroke-linecap="round" stroke-linejoin="round" stroke-width=".9" text-align="center" text-anchor="middle" word-spacing="0px" style="line-height:1.2" xml:space="preserve"><tspan x="75.524063" y="21.013355">pitch</tspan></text><path transform="matrix(1.4111 0 0 -1.4111 71.575 38.685)" d="m0 0h-7.096c-0.122 0-0.222 0.1-0.222 0.223v7.096c0 0.121 0.1 0.223 0.222 0.223h7.096c0.123 0 0.223-0.102 0.223-0.223v-7.096c0-0.123-0.1-0.223-0.223-0.223z" clip-path="url(#ay)" fill="#b3b3b3" stroke="#333" stroke-miterlimit="10" stroke-width=".375"/></svg>
