<?xml version="1.0" encoding="UTF-8"?>
<svg width="300" height="130" version="1.1" viewBox="0 0 79.375 34.396" xmlns="http://www.w3.org/2000/svg"><defs><clipPath id="bh"><path transform="translate(-492 -76.867)" d="m323.15 26.668h257.72v189.34h-257.72z"/></clipPath><clipPath id="az"><path transform="translate(-502.73 -66.912)" d="m323.15 26.668h257.72v189.34h-257.72z"/></clipPath><clipPath id="aw"><path transform="translate(-511.78 -66.912)" d="m323.15 26.668h257.72v189.34h-257.72z"/></clipPath><clipPath id="at"><path transform="translate(-520.82 -66.912)" d="m323.15 26.668h257.72v189.34h-257.72z"/></clipPath></defs><rect width="79.375" height="34.396" fill="#f9f9f9" stroke-linejoin="round" stroke-width=".52917"/><path transform="matrix(1.4111 0 0 -1.4111 40.174 25.451)" d="m0 0h-7.096c-0.122 0-0.222 0.101-0.222 0.223v7.096c0 0.122 0.1 0.223 0.222 0.223h7.096c0.123 0 0.223-0.101 0.223-0.223v-7.096c0-0.122-0.1-0.223-0.223-0.223z" clip-path="url(#az)" fill="#ccc" stroke="#ccc" stroke-miterlimit="10" stroke-width=".375"/><path transform="matrix(1.4111 0 0 -1.4111 52.344 25.451)" d="m0 0h-7.096c-0.122 0-0.222 0.101-0.222 0.223v7.096c0 0.122 0.1 0.223 0.222 0.223h7.096c0.123 0 0.223-0.101 0.223-0.223v-7.096c0-0.122-0.1-0.223-0.223-0.223z" clip-path="url(#az)" fill="#ccc" stroke="#ccc" stroke-miterlimit="10" stroke-width=".375"/><text x="11.543512" y="-15.872329" fill="#000000" font-family="'Arial Narrow'" font-size="2.5px" font-weight="bold" letter-spacing="0px" stroke-linecap="round" stroke-linejoin="round" stroke-width=".9" text-align="center" text-anchor="middle" word-spacing="0px" style="line-height:0" xml:space="preserve"><tspan x="11.543512" y="-15.872329" stroke-width=".9"/></text><text x="-72.868416" y="70.704018" fill="#000000" font-family="'Arial Narrow'" font-size="2.5px" font-weight="bold" letter-spacing="0px" stroke-linecap="round" stroke-linejoin="round" stroke-width=".9" text-align="center" text-anchor="middle" word-spacing="0px" style="line-height:0" xml:space="preserve"><tspan x="-72.868416" y="70.704018" stroke-width=".9"/></text><text x="86.93708" y="79.361649" fill="#000000" font-family="'Arial Narrow'" font-size="2.5px" font-weight="bold" letter-spacing="0px" stroke-linecap="round" stroke-linejoin="round" stroke-width=".9" text-align="center" text-anchor="middle" word-spacing="0px" style="line-height:0" xml:space="preserve"><tspan x="86.93708" y="79.361649" stroke-width=".9"/></text><text x="88.380013" y="80.804588" fill="#000000" font-family="'Arial Narrow'" font-size="2.5px" font-weight="bold" letter-spacing="0px" stroke-linecap="round" stroke-linejoin="round" stroke-width=".9" text-align="center" text-anchor="middle" word-spacing="0px" style="line-height:0" xml:space="preserve"><tspan x="88.380013" y="80.804588" stroke-width=".9"/></text><text x="86.827766" y="40.635418" fill="none" font-family="'Arial Narrow'" font-size="3.5278px" font-weight="bold" letter-spacing="0px" stroke="#000000" stroke-linecap="round" stroke-linejoin="round" stroke-width=".6223" text-align="center" text-anchor="middle" word-spacing="0px" style="line-height:0" xml:space="preserve"><tspan x="86.827766" y="40.635418" stroke-width=".6223"/></text><path d="m13.114 10.921v1.3229l7.9375 3.175" fill="none" stroke="#000" stroke-linecap="round" stroke-linejoin="round" stroke-width=".26458"/><path transform="matrix(1.4111 0 0 -1.4111 18.144 10.346)" d="m0 0h-7.096c-0.123 0-0.223 0.101-0.223 0.223v2.086c0 0.122 0.1 0.222 0.223 0.222h7.096c0.122 0 0.224-0.1 0.224-0.222v-2.086c0-0.122-0.102-0.223-0.224-0.223z" clip-path="url(#bh)" fill="#ececec" stroke="#333" stroke-miterlimit="10" stroke-width=".375"/><path transform="matrix(1.4111 0 0 -1.4111 33.294 25.451)" d="m0 0h-7.096c-0.122 0-0.222 0.101-0.222 0.223v7.096c0 0.122 0.1 0.223 0.222 0.223h7.096c0.123 0 0.223-0.101 0.223-0.223v-7.096c0-0.122-0.1-0.223-0.223-0.223z" clip-path="url(#az)" fill="#e6e6e6" stroke="#333" stroke-miterlimit="10" stroke-width=".375"/><path transform="matrix(1.4111 0 0 -1.4111 46.055 25.451)" d="m0 0h-7.096c-0.122 0-0.223 0.101-0.223 0.223v7.096c0 0.122 0.101 0.223 0.223 0.223h7.096c0.122 0 0.223-0.101 0.223-0.223v-7.096c0-0.122-0.101-0.223-0.223-0.223z" clip-path="url(#aw)" fill="#e6e6e6" stroke="#333" stroke-miterlimit="10" stroke-width=".375"/><path transform="matrix(1.4111 0 0 -1.4111 58.815 25.451)" d="m0 0h-7.096c-0.122 0-0.223 0.101-0.223 0.223v7.096c0 0.122 0.101 0.223 0.223 0.223h7.096c0.122 0 0.223-0.101 0.223-0.223v-7.096c0-0.122-0.101-0.223-0.223-0.223z" clip-path="url(#at)" fill="#e6e6e6" stroke="#333" stroke-miterlimit="10" stroke-width=".375"/><text x="13.121819" y="9.454134" fill="#1a1a1a" font-family="'Arial Narrow'" font-size="2.5px" font-weight="bold" letter-spacing="0px" stroke-linecap="round" stroke-linejoin="round" stroke-width=".9" text-align="center" text-anchor="middle" word-spacing="0px" style="line-height:0" xml:space="preserve"><tspan x="13.121819" y="9.454134" fill="#1a1a1a" stroke-width=".9">SHIFT</tspan></text><text x="31.566742" y="23.645388" fill="#000000" font-family="'Arial Narrow'" font-size="2.5px" font-weight="bold" letter-spacing="0px" stroke-linecap="round" stroke-linejoin="round" stroke-width=".9" text-align="center" text-anchor="middle" word-spacing="0px" style="line-height:0" xml:space="preserve"><tspan x="31.566742" y="23.645388" fill="#000000" stroke-width=".9">1</tspan></text><text x="44.097019" y="23.645388" fill="#000000" font-family="'Arial Narrow'" font-size="2.5px" font-weight="bold" letter-spacing="0px" stroke-linecap="round" stroke-linejoin="round" stroke-width=".9" text-align="center" text-anchor="middle" word-spacing="0px" style="line-height:0" xml:space="preserve"><tspan x="44.097019" y="23.645388" fill="#000000" stroke-width=".9">2</tspan></text><text x="56.841801" y="23.614878" fill="#000000" font-family="'Arial Narrow'" font-size="2.5px" font-weight="bold" letter-spacing="0px" stroke-linecap="round" stroke-linejoin="round" stroke-width=".9" text-align="center" text-anchor="middle" word-spacing="0px" style="line-height:0" xml:space="preserve"><tspan x="56.841801" y="23.614878" fill="#000000" stroke-width=".9">3</tspan></text><text x="28.220139" y="17.643024" fill="#000000" font-family="'Arial Narrow'" font-size="2.5px" font-weight="bold" letter-spacing="0px" stroke-linecap="round" stroke-linejoin="round" stroke-width=".9" text-align="center" text-anchor="middle" word-spacing="0px" style="line-height:1.2" xml:space="preserve"><tspan x="28.220139" y="17.643024">cycle </tspan><tspan x="28.220139" y="20.643024">effect 1</tspan></text><text x="66.500771" y="18.896687" fill="#000000" font-family="'Arial Narrow'" font-size="2.5px" font-weight="bold" letter-spacing="0px" stroke-linecap="round" stroke-linejoin="round" stroke-width=".9" text-align="center" text-anchor="middle" word-spacing="0px" style="line-height:0" xml:space="preserve"><tspan x="66.500771" y="18.896687" fill="#000000" stroke-width=".9"/></text><text x="41.073776" y="17.643024" fill="#000000" font-family="'Arial Narrow'" font-size="2.5px" font-weight="bold" letter-spacing="0px" stroke-linecap="round" stroke-linejoin="round" stroke-width=".9" text-align="center" text-anchor="middle" word-spacing="0px" style="line-height:1.2" xml:space="preserve"><tspan x="41.073776" y="17.643024">cycle<tspan x="41.073776" y="17.643024" fill="#000000" stroke-width=".9" style="line-height:1.2"/></tspan><tspan x="41.073776" y="20.643024">effect 2</tspan></text><text x="53.866558" y="17.642414" fill="#000000" font-family="'Arial Narrow'" font-size="2.5px" font-weight="bold" letter-spacing="0px" stroke-linecap="round" stroke-linejoin="round" stroke-width=".9" text-align="center" text-anchor="middle" word-spacing="0px" style="line-height:1.2" xml:space="preserve"><tspan x="53.866558" y="17.642414">cycle<tspan x="53.866558" y="17.642414" fill="#000000" stroke-width=".9" style="line-height:1.2"/></tspan><tspan x="53.866558" y="20.642414">effect 3</tspan></text></svg>
