<?xml version="1.0" encoding="UTF-8"?>
<svg width="29.186mm" height="35.067mm" version="1.1" viewBox="0 0 29.186 35.067" xml:space="preserve" xmlns="http://www.w3.org/2000/svg"><g transform="translate(-43.284 -84.991)"><rect x="43.62" y="85.327" width="28.513" height="34.394" rx=".34786" ry="1.1752" fill="#333" stroke="#000" stroke-linecap="round" stroke-linejoin="round" stroke-width=".67319"/><rect x="43.958" y="113.74" width="27.839" height=".46926" rx="0" fill="#898989"/><rect x="47.781" y="86.458" width="11.227" height="2.9009" rx="0" fill="#898989"/><rect x="58.423" y="86.458" width=".58527" height="2.9009" rx="0" fill="#fff"/><path d="m45.071 94.817h1.0891c1.2663 0 1.9683-0.80045 1.9683-2.1717 0-1.3647-0.70203-2.1323-1.9946-2.1323h-1.0629zm0.54457-0.44615v-3.4117h0.47896c0.98416 0 1.4697 0.60362 1.4697 1.6862 0 1.0891-0.48552 1.7256-1.4697 1.7256zm4.9077-2.3948c0.54456 0 0.90542 0.32149 0.95135 0.97759h-2.0339c0.09841-0.62986 0.55769-0.97759 1.0826-0.97759zm0.07873 2.9197c0.51176 0 0.91854-0.17059 1.2335-0.38054l-0.19683-0.3543c-0.28868 0.18371-0.59049 0.30181-0.97103 0.30181-0.66266 0-1.1744-0.36742-1.24-1.0891h2.5129c0.01312-0.08529 0.02624-0.20339 0.02624-0.32805 0-0.89886-0.538-1.4959-1.4565-1.4959-0.85293 0-1.6271 0.62986-1.6271 1.6665 0 1.0629 0.76108 1.6796 1.719 1.6796zm4.0416 0c0.47239 0 0.91198-0.18371 1.2663-0.49864l-0.24276-0.34774c-0.26244 0.22308-0.59049 0.40022-0.98416 0.40022-0.73484 0-1.2269-0.49208-1.2269-1.2204 0-0.73484 0.5052-1.2335 1.24-1.2335 0.33461 0 0.61018 0.13778 0.87262 0.36742l0.269-0.34773c-0.26244-0.25588-0.64298-0.46583-1.1613-0.46583-0.96447 0-1.778 0.61018-1.778 1.6796 0 1.0563 0.74796 1.6665 1.7452 1.6665zm2.362-0.07873h0.538v-0.86606l0.75452-0.7414 1.1744 1.6075h0.60362l-1.4434-1.9355 1.2728-1.2532h-0.61674l-1.719 1.6796h-0.02624v-3.1624h-0.538zm5.6896 0h2.8409v-0.44615h-1.0957v-3.7398h-0.40022c-0.269 0.14434-0.58393 0.24276-1.076 0.30837v0.34774h0.93823v3.0837h-1.2072z" fill="#fff" stroke-width=".3645" aria-label="Deck 1"/><path d="m46.934 101.12c0.55769 0 1.017-0.22307 1.286-0.49864v-1.8108h-1.3647v0.45271h0.8595v1.1219c-0.16402 0.15746-0.44615 0.25588-0.74796 0.25588-0.84637 0-1.3253-0.68235-1.3253-1.7649 0-1.0694 0.53144-1.7387 1.3384-1.7387 0.41334 0 0.66922 0.17059 0.87918 0.39366l0.30837-0.34773c-0.24276-0.25588-0.61674-0.52488-1.1875-0.52488-1.1154 0-1.9093 0.83981-1.9093 2.2308 0 1.4041 0.78076 2.2308 1.8633 2.2308zm3.3396 0c0.45271 0 0.90542-0.2362 1.2597-0.51176h0.01968l0.04593 0.43303h0.43959v-1.9552c0-0.79388-0.41991-1.3122-1.2925-1.3122-0.55769 0-1.0957 0.24932-1.4172 0.45927l0.20995 0.36742c0.29525-0.18371 0.70203-0.38054 1.1154-0.38054 0.61674 0 0.83325 0.36742 0.84637 0.80045-1.6468 0.13122-2.3095 0.47896-2.3095 1.1941 0 0.57081 0.48552 0.90542 1.0826 0.90542zm0.14434-0.43303c-0.36742 0-0.70203-0.1509-0.70203-0.51176 0-0.4199 0.41991-0.68891 1.7846-0.80044v0.83981c-0.36086 0.30181-0.72171 0.47239-1.0826 0.47239zm4.2516 0.3543h0.538v-3.1887h-2.0208v0.43959h1.4828zm0.20995-3.8579c0.24276 0 0.43303-0.16403 0.43303-0.41991 0-0.24932-0.19027-0.41991-0.43303-0.41991s-0.43303 0.17059-0.43303 0.41991c0 0.25588 0.19027 0.41991 0.43303 0.41991zm2.2636 3.8579h0.538v-2.2242c0.37398-0.3871 0.62986-0.57737 1.0104-0.57737 0.52488 0 0.73484 0.28869 0.73484 0.8923v1.9093h0.538v-1.9814c0-0.83981-0.34773-1.286-1.1023-1.286-0.49864 0-0.86606 0.269-1.2007 0.6233h-0.02624l-0.04593-0.54456h-0.44615z" fill="#7f7f7f" stroke-width=".3645" aria-label="Gain"/><path d="m45.071 117.52h0.72847c0.53276 0 0.89519-0.22833 0.89519-0.69585 0-0.32618-0.20296-0.51465-0.55088-0.56901v-0.0145c0.28269-0.0725 0.41679-0.28269 0.41679-0.51826 0-0.41679-0.32981-0.57988-0.81545-0.57988h-0.67411zm0.30081-1.3772v-0.74659h0.33705c0.36605 0 0.55451 0.0942 0.55451 0.35155 0 0.26457-0.16309 0.39504-0.56901 0.39504zm0 1.1235v-0.86981h0.38417c0.41679 0 0.64149 0.1196 0.64149 0.41316 0 0.32256-0.23558 0.45665-0.64149 0.45665zm2.6602 0.2537h0.29719v-1.7614h-1.1163v0.24282h0.81908zm0.11598-2.131c0.1341 0 0.2392-0.0906 0.2392-0.23195 0-0.13772-0.1051-0.23196-0.2392-0.23196s-0.2392 0.0942-0.2392 0.23196c0 0.14134 0.1051 0.23195 0.2392 0.23195zm2.3413 2.1745c0.22108 0 0.39142-0.0471 0.55088-0.1051l-0.06524-0.21746c-0.12685 0.0471-0.25732 0.0797-0.42404 0.0797-0.34068 0-0.44578-0.16672-0.44578-0.48203v-0.8372h0.86619v-0.24282h-0.86619v-0.56534h-0.24645l-0.03987 0.56538-0.50739 0.0181v0.2247h0.49652v0.83358c0 0.43491 0.16672 0.72847 0.68136 0.72847zm1.1598-0.0435h0.38417l0.19571-0.84082c0.02899-0.12323 0.05799-0.29719 0.08698-0.52189h0.0145c0.02899 0.2247 0.05799 0.39866 0.08698 0.52189l0.20296 0.84082h0.38417l0.37692-1.7614h-0.27544l-0.21021 1.022c-0.03262 0.16671-0.05074 0.31893-0.07973 0.48564h-0.0145c-0.02175-0.16671-0.06886-0.31893-0.10873-0.48564l-0.21021-0.91331h-0.29719l-0.21745 0.91331c-0.03987 0.16309-0.07973 0.31893-0.10148 0.48564h-0.0145c-0.02174-0.16671-0.04711-0.31893-0.07973-0.48564l-0.21021-1.022h-0.29719zm2.9066 0h0.29719v-1.7614h-1.1163v0.24282h0.81908zm0.11598-2.131c0.1341 0 0.2392-0.0906 0.2392-0.23195 0-0.13772-0.1051-0.23196-0.2392-0.23196s-0.2392 0.0942-0.2392 0.23196c0 0.14134 0.1051 0.23195 0.2392 0.23195zm1.9861 2.9429c0.598 0 0.97854-0.28631 0.97854-0.61612 0-0.29719-0.21746-0.41316-0.67048-0.41316h-0.39504c-0.23195 0-0.36605-0.0652-0.36605-0.20296 0-0.0834 0.05074-0.14859 0.13772-0.20296 0.09785 0.0435 0.20658 0.0652 0.29719 0.0652 0.38054 0 0.68136-0.22833 0.68136-0.60525 0-0.14135-0.06886-0.27182-0.14859-0.35518h0.45665v-0.24282h-0.72847c-0.07611-0.029-0.15947-0.0435-0.26094-0.0435-0.3733 0-0.69223 0.24645-0.69223 0.63062 0 0.2102 0.09785 0.36605 0.21745 0.45665v0.0145c-0.1341 0.0906-0.21021 0.21745-0.21021 0.3298 0 0.1486 0.08698 0.2392 0.18121 0.28994v0.0145c-0.18846 0.10873-0.28994 0.25007-0.28994 0.39142 0 0.31168 0.29719 0.48927 0.81183 0.48927zm-0.01812-1.5693c-0.22108 0-0.40592-0.16309-0.40592-0.41678 0-0.24645 0.18484-0.41317 0.40592-0.41317 0.2247 0 0.40592 0.16672 0.40592 0.41317 0 0.25369-0.18121 0.41678-0.40592 0.41678zm0.03987 1.3518c-0.37692 0-0.57625-0.11598-0.57625-0.30082 0-0.10147 0.05799-0.20295 0.2247-0.29356 0.07611 0.0217 0.16672 0.029 0.26819 0.029h0.3443c0.26819 0 0.40229 0.0471 0.40229 0.21383 0 0.18122-0.2537 0.35156-0.66324 0.35156z" fill="#fff" stroke-width=".20135" aria-label="Bitwig"/><g transform="translate(.19993 -.15995)"><rect x="68.565" y="109.26" width="2.2992" height="1.1996" fill="#5be748"/><rect x="68.565" y="107.86" width="2.2992" height="1.1996" fill="#5be748"/><rect x="68.565" y="106.47" width="2.2992" height="1.1996" fill="#5be748"/><rect x="68.565" y="105.07" width="2.2992" height="1.1996" fill="#5be748"/><rect x="68.565" y="103.67" width="2.2992" height="1.1996" fill="#5be748"/><rect x="68.565" y="102.27" width="2.2992" height="1.1996" fill="#5be748"/><rect x="68.565" y="100.87" width="2.2992" height="1.1996" fill="#5be748"/><rect x="68.565" y="99.476" width="2.2992" height="1.1996" fill="#5be748"/><rect x="68.565" y="98.078" width="2.2992" height="1.1996" fill="#f1f53a"/><rect x="68.565" y="96.68" width="2.2992" height="1.1996" fill="#f1f53a"/><rect x="68.565" y="95.282" width="2.2992" height="1.1996" fill="#f1f53a"/><rect x="68.565" y="93.884" width="2.2992" height="1.1996" fill="#f1f53a"/><rect x="68.565" y="92.486" width="2.2992" height="1.1996" fill="#f53a3a"/></g></g></svg>
