<?xml version="1.0" encoding="UTF-8"?>
<svg width="86.641mm" height="15.614mm" version="1.1" viewBox="0 0 86.641 15.614" xml:space="preserve" xmlns="http://www.w3.org/2000/svg"><g transform="translate(-72.983 -83.19)"><rect x="73.366" y="83.574" width="85.873" height="14.847" rx="1.0477" ry=".50729" fill="#333" stroke="#000" stroke-linecap="round" stroke-linejoin="round" stroke-width=".76757"/><path transform="matrix(.26458 0 0 .26458 73.127 83.19)" d="m17.504 47.901-1.24-1.24v-16.56h1.08l0.16 0.2 2.48 2.44v12.68zm0-18.8-0.16 0.2h-1.08v-16.56l1.24-1.24 2.48 2.48v12.68zm0.56-18.16 1.24-1.24h18.64l1.24 1.24-2.48 2.48h-16.16zm21.64 19.36 0.2-0.16h1.08v16.52l-1.24 1.24-2.48-2.48v-12.68zm0.04-18.8 1.24 1.24v16.56h-1.08l-0.2-0.16-2.44-2.44v-12.72zm-0.56 36.96-1.24 1.24h-18.64l-1.24-1.24 2.48-2.48h16.16zm10.96-0.56-1.24-1.24v-16.56h1.08l0.16 0.2 2.48 2.44v12.68zm0-18.8-0.16 0.2h-1.08v-16.56l1.24-1.24 2.48 2.48v12.68zm0.56-18.16 1.24-1.24h18.64l1.24 1.24-2.48 2.48h-16.16zm21.64 19.36 0.2-0.16h1.08v16.52l-1.24 1.24-2.48-2.48v-12.68zm0.04-18.8 1.24 1.24v16.56h-1.08l-0.2-0.16-2.44-2.44v-12.72zm-0.56 36.96-1.24 1.24h-18.64l-1.24-1.24 2.48-2.48h16.16zm8.04-2.2q0.2 0.48 0.2 0.96t-0.2 0.96-0.52 0.8-0.8 0.52-0.96 0.2-0.96-0.2-0.8-0.52-0.52-0.8-0.2-0.96 0.2-0.96 0.52-0.8 0.8-0.52 0.96-0.2 0.96 0.2 0.8 0.52 0.52 0.8zm2.92 1.64-1.24-1.24v-16.56h1.08l0.16 0.2 2.48 2.44v12.68zm0.56-36.96 1.24-1.24h18.64l1.24 1.24-2.48 2.48h-16.16zm21.08 18.8-1.88 1.84v-0.04h-17.28v0.04l-1.92-1.88 1.92-1.88v0.04h17.28zm0.6-18.24 1.24 1.24v16.56h-1.08l-0.2-0.16-2.44-2.44v-12.72zm-0.56 36.96-1.24 1.24h-18.64l-1.24-1.24 2.48-2.48h16.16zm10.96-19.36-0.16 0.2h-1.08v-16.56l1.24-1.24 2.48 2.48v12.68zm21.64 0.64-1.88 1.84v-0.04h-17.28v0.04l-1.92-1.88 1.92-1.88v0.04h17.28zm0.56 0.56 0.2-0.16h1.08v16.52l-1.24 1.24-2.48-2.48v-12.68zm0.04-18.8 1.24 1.24v16.56h-1.08l-0.2-0.16-2.44-2.44v-12.72zm40.04 18.24-1.88 1.84v-0.04h-17.28v0.04l-1.92-1.88 1.92-1.88v0.04h17.28zm11 18.16-1.24-1.24v-16.56h1.08l0.16 0.2 2.48 2.44v12.68zm0-18.8-0.16 0.2h-1.08v-16.56l1.24-1.24 2.48 2.48v12.68zm0.56-18.16 1.24-1.24h18.64l1.24 1.24-2.48 2.48h-16.16zm21.64 19.36 0.2-0.16h1.08v16.52l-1.24 1.24-2.48-2.48v-12.68zm0.04-18.8 1.24 1.24v16.56h-1.08l-0.2-0.16-2.44-2.44v-12.72zm-0.56 36.96-1.24 1.24h-18.64l-1.24-1.24 2.48-2.48h16.16zm10.96-19.36-0.16 0.2h-1.08v-16.56l1.24-1.24 2.48 2.48v12.68zm21.64 0.64-1.88 1.84v-0.04h-17.28v0.04l-1.92-1.88 1.92-1.88v0.04h17.28zm0.56 0.56 0.2-0.16h1.08v16.52l-1.24 1.24-2.48-2.48v-12.68zm0.04-18.8 1.24 1.24v16.56h-1.08l-0.2-0.16-2.44-2.44v-12.72zm7.48 34.76q0.2 0.48 0.2 0.96t-0.2 0.96-0.52 0.8-0.8 0.52-0.96 0.2-0.96-0.2-0.8-0.52-0.52-0.8-0.2-0.96 0.2-0.96 0.52-0.8 0.8-0.52 0.96-0.2 0.96 0.2 0.8 0.52 0.52 0.8zm2.92 1.64-1.24-1.24v-16.56h1.08l0.16 0.2 2.48 2.44v12.68zm0-18.8-0.16 0.2h-1.08v-16.56l1.24-1.24 2.48 2.48v12.68zm0.56-18.16 1.24-1.24h18.64l1.24 1.24-2.48 2.48h-16.16zm21.64 19.36 0.2-0.16h1.08v16.52l-1.24 1.24-2.48-2.48v-12.68zm0.04-18.8 1.24 1.24v16.56h-1.08l-0.2-0.16-2.44-2.44v-12.72zm-0.56 36.96-1.24 1.24h-18.64l-1.24-1.24 2.48-2.48h16.16zm10.96-19.36-0.16 0.2h-1.08v-16.56l1.24-1.24 2.48 2.48v12.68zm0.56-18.16 1.24-1.24h18.64l1.24 1.24-2.48 2.48h-16.16zm21.08 18.8-1.88 1.84v-0.04h-17.28v0.04l-1.92-1.88 1.92-1.88v0.04h17.28zm0.56 0.56 0.2-0.16h1.08v16.52l-1.24 1.24-2.48-2.48v-12.68zm0.04-18.8 1.24 1.24v16.56h-1.08l-0.2-0.16-2.44-2.44v-12.72zm-0.56 36.96-1.24 1.24h-18.64l-1.24-1.24 2.48-2.48h16.16z" fill="#ff0101" style="white-space:pre" aria-label="00.24 -04.09"/></g></svg>
