<?xml version="1.0" encoding="UTF-8"?>
<svg width="275mm" height="100mm" version="1.1" viewBox="0 0 275 100" xml:space="preserve" xmlns="http://www.w3.org/2000/svg"><g transform="translate(31.953 -93.51)"><rect x="-14.883" y="107.59" width="240.86" height="71.833" rx=".3449" ry="1.1768" fill="#fff" stroke="#000" stroke-linecap="round" stroke-linejoin="round" stroke-width=".67077"/><rect x="43.364" y="148.99" width="7.7722" height="7.6591" rx="1.4662" ry="1.3164" fill="#fff" stroke="#000" stroke-linecap="round" stroke-linejoin="round" stroke-width=".68839"/><path d="m44.799 154.94h1.7844v-0.42545h-0.6223v-2.559h-1.1176v0.3937h0.6223v2.1654h-0.66675zm2.286-1.035c0 0.59055 0.51435 1.1112 1.289 1.1112 0.76835 0 1.3272-0.51435 1.3272-1.1303 0-0.5461-0.45085-0.90805-0.90805-1.2319 0.40005-0.28575 0.74295-0.61595 0.74295-1.0986 0-0.5461-0.43815-0.9271-1.0668-0.9271-0.6223 0-1.1303 0.3683-1.1303 0.9652 0 0.4699 0.31115 0.80645 0.67945 1.0986-0.47625 0.3175-0.93345 0.66675-0.93345 1.2128zm2.0955 0.0127c0 0.41275-0.38735 0.66675-0.8001 0.66675s-0.81915-0.27305-0.81915-0.6985c0-0.38735 0.37465-0.6604 0.79375-0.9398 0.42545 0.3048 0.8255 0.5842 0.8255 0.97155zm-1.3208-2.3432c0-0.36195 0.3175-0.51435 0.5969-0.51435s0.60325 0.1524 0.60325 0.52705c0 0.3302-0.27305 0.57785-0.6096 0.81915-0.3302-0.24765-0.59055-0.50165-0.59055-0.83185z" stroke-width=".26458" aria-label="18"/><rect x="62.779" y="162.36" width="7.7722" height="7.6591" rx="1.4662" ry="1.3164" fill="#fff" stroke="#000" stroke-linecap="round" stroke-linejoin="round" stroke-width=".68839"/><path d="m64.395 167.72h2.2416v-0.42545h-1.5494c0.55245-0.46355 1.2827-1.1049 1.2827-1.7844 0-0.4826-0.41275-0.8509-0.97155-0.8509-0.5715 0-1.0414 0.40005-1.0414 0.40005l0.2159 0.32385s0.3556-0.2921 0.74295-0.2921c0.3175 0 0.5334 0.19685 0.5334 0.4826 0 0.7493-1.505 1.8224-1.505 1.8224zm2.8067 0h1.7844v-0.42545h-0.6223v-2.559h-1.1176v0.3937h0.6223v2.1654h-0.66675z" stroke-width=".26458" aria-label="21"/><rect x="82.193" y="148.99" width="7.7722" height="7.6591" rx="1.4662" ry="1.3164" fill="#fff" stroke="#000" stroke-linecap="round" stroke-linejoin="round" stroke-width=".68839"/><path d="m83.574 154.35h2.2416v-0.42545h-1.5494c0.55245-0.46355 1.2827-1.1049 1.2827-1.7844 0-0.4826-0.41275-0.8509-0.97155-0.8509-0.5715 0-1.0414 0.40005-1.0414 0.40005l0.2159 0.32385s0.3556-0.2921 0.74295-0.2921c0.3175 0 0.5334 0.19685 0.5334 0.4826 0 0.7493-1.505 1.8224-1.505 1.8224zm2.8194 0h2.2416v-0.42545h-1.5494c0.55245-0.46355 1.2827-1.1049 1.2827-1.7844 0-0.4826-0.41275-0.8509-0.97155-0.8509-0.5715 0-1.0414 0.40005-1.0414 0.40005l0.2159 0.32385s0.3556-0.2921 0.74295-0.2921c0.3175 0 0.5334 0.19685 0.5334 0.4826 0 0.7493-1.505 1.8224-1.505 1.8224z" stroke-width=".26458" aria-label="22"/><rect x="82.193" y="162.36" width="7.7722" height="7.6591" rx="1.4662" ry="1.3164" fill="#fff" stroke="#000" stroke-linecap="round" stroke-linejoin="round" stroke-width=".68839"/><path d="m83.742 167.12h2.2416v-0.42545h-1.5494c0.55245-0.46355 1.2827-1.1049 1.2827-1.7844 0-0.4826-0.41275-0.8509-0.97155-0.8509-0.5715 0-1.0414 0.40005-1.0414 0.40005l0.2159 0.32385s0.3556-0.2921 0.74295-0.2921c0.3175 0 0.5334 0.19685 0.5334 0.4826 0 0.7493-1.505 1.8224-1.505 1.8224zm2.6607 0.8128 0.04445 0.3937c0.05715 6e-3 0.1143 6e-3 0.17145 6e-3 1.0795 0 1.8478-0.5588 1.8478-1.3716 0-0.50165-0.31115-0.8763-0.8763-0.99695 0.36195-0.20955 0.76835-0.59055 0.76835-1.0668 0-0.4953-0.41275-0.8382-0.95885-0.8382-0.5842 0-1.0478 0.40005-1.0478 0.40005l0.2159 0.32385s0.36195-0.2921 0.76835-0.2921c0.29845 0 0.50165 0.1778 0.50165 0.4572 0 0.4445-0.5842 0.88265-1.0478 0.93345v0.4064h0.1778c0.47625 0 0.9779 0.1651 0.9779 0.7112 0 0.6096-0.6223 0.9398-1.3526 0.9398-0.0635 0-0.127 0-0.1905-6e-3z" stroke-width=".26458" aria-label="23"/><rect x="101.61" y="148.99" width="7.7722" height="7.6591" rx="1.4662" ry="1.3164" fill="#fff" stroke="#000" stroke-linecap="round" stroke-linejoin="round" stroke-width=".68839"/><path d="m102.73 153.73h2.2416v-0.42545h-1.5494c0.55245-0.46355 1.2827-1.1049 1.2827-1.7844 0-0.4826-0.41275-0.8509-0.97155-0.8509-0.5715 0-1.0414 0.40005-1.0414 0.40005l0.2159 0.32385s0.3556-0.2921 0.74295-0.2921c0.3175 0 0.5334 0.19685 0.5334 0.4826 0 0.7493-1.505 1.8224-1.505 1.8224zm2.6606-0.1651h1.8098v1.3906h0.4953v-1.3906h0.60325v-0.4064h-0.60325v-2.4892h-0.4191l-1.886 2.559zm0.53975-0.4064 1.27-1.7208v1.7208z" stroke-width=".26458" aria-label="24"/><rect x="101.61" y="162.36" width="7.7722" height="7.6591" rx="1.4662" ry="1.3164" fill="#fff" stroke="#000" stroke-linecap="round" stroke-linejoin="round" stroke-width=".68839"/><path d="m103.15 167.12h2.2416v-0.42545h-1.5494c0.55245-0.46355 1.2827-1.1049 1.2827-1.7844 0-0.4826-0.41275-0.8509-0.97155-0.8509-0.5715 0-1.0414 0.40005-1.0414 0.40005l0.2159 0.32385s0.3556-0.2921 0.74295-0.2921c0.3175 0 0.5334 0.19685 0.5334 0.4826 0 0.7493-1.505 1.8224-1.505 1.8224zm2.6797 0.8128 0.0444 0.3937c0.0635 6e-3 0.12065 6e-3 0.18415 6e-3 1.0541 0 1.8352-0.5207 1.8352-1.3843 0-0.8763-0.71755-1.2446-1.4732-1.397v-0.9906h1.3144v-0.42545h-1.797v1.7716c0.6477 0.0889 1.4351 0.2667 1.4351 1.0668 0 0.65405-0.64135 0.9652-1.3462 0.9652-0.0635 0-0.13335 0-0.19685-6e-3z" stroke-width=".26458" aria-label="25"/><rect x="121.02" y="148.99" width="7.7722" height="7.6591" rx="1.4662" ry="1.3164" fill="#fff" stroke="#000" stroke-linecap="round" stroke-linejoin="round" stroke-width=".68839"/><path d="m122.21 154.94h2.2416v-0.42545h-1.5494c0.55245-0.46355 1.2827-1.1049 1.2827-1.7844 0-0.4826-0.41275-0.8509-0.97155-0.8509-0.5715 0-1.0414 0.40005-1.0414 0.40005l0.2159 0.32385s0.3556-0.2921 0.74295-0.2921c0.3175 0 0.5334 0.19685 0.5334 0.4826 0 0.7493-1.505 1.8224-1.505 1.8224zm4.1529 0.0762c0.8509 0 1.3018-0.73025 1.3018-1.4542 0-0.71755-0.43815-1.3462-1.2573-1.3462-0.42545 0-0.69215 0.1651-0.8382 0.34925 0.1651-0.8001 0.6985-1.4668 1.7336-1.5304l-0.0381-0.4064c-1.5367 0.0635-2.267 1.2954-2.267 2.5527 0 0.97155 0.43815 1.8352 1.3652 1.8352zm-0.0191-2.3686c0.65405 0 0.8001 0.5842 0.8001 0.97155 0 0.5334-0.2794 0.9652-0.7493 0.9652-0.5715 0-0.8763-0.5969-0.8763-1.5748 0.1016-0.10795 0.3937-0.36195 0.8255-0.36195z" stroke-width=".26458" aria-label="26"/><rect x="121.02" y="162.36" width="7.7722" height="7.6591" rx="1.4662" ry="1.3164" fill="#fff" stroke="#000" stroke-linecap="round" stroke-linejoin="round" stroke-width=".68839"/><path d="m122.34 167.1h2.2416v-0.42545h-1.5494c0.55245-0.46355 1.2827-1.1049 1.2827-1.7844 0-0.4826-0.41275-0.8509-0.97155-0.8509-0.5715 0-1.0414 0.40005-1.0414 0.40005l0.2159 0.32385s0.3556-0.2921 0.74295-0.2921c0.3175 0 0.5334 0.19685 0.5334 0.4826 0 0.7493-1.505 1.8224-1.505 1.8224zm2.9083 1.1366 0.4826 0.1143c0.6096-1.1938 1.2256-2.4574 1.8034-3.8989v-0.33655h-2.5146v0.4699h1.9431c-0.5461 1.3526-1.0922 2.5146-1.7145 3.6512z" stroke-width=".26458" aria-label="27"/><rect x="140.44" y="148.99" width="7.7722" height="7.6591" rx="1.4662" ry="1.3164" fill="#fff" stroke="#000" stroke-linecap="round" stroke-linejoin="round" stroke-width=".68839"/><path d="m141.64 154.94h2.2416v-0.42545h-1.5494c0.55245-0.46355 1.2827-1.1049 1.2827-1.7844 0-0.4826-0.41275-0.8509-0.97155-0.8509-0.5715 0-1.0414 0.40005-1.0414 0.40005l0.2159 0.32385s0.3556-0.2921 0.74295-0.2921c0.3175 0 0.5334 0.19685 0.5334 0.4826 0 0.7493-1.505 1.8224-1.505 1.8224zm2.794-1.035c0 0.59055 0.51435 1.1112 1.289 1.1112 0.76835 0 1.3272-0.51435 1.3272-1.1303 0-0.5461-0.45085-0.90805-0.90805-1.2319 0.40005-0.28575 0.74295-0.61595 0.74295-1.0986 0-0.5461-0.43815-0.9271-1.0668-0.9271-0.6223 0-1.1303 0.3683-1.1303 0.9652 0 0.4699 0.31115 0.80645 0.67945 1.0986-0.47625 0.3175-0.93345 0.66675-0.93345 1.2128zm2.0955 0.0127c0 0.41275-0.38735 0.66675-0.8001 0.66675s-0.81915-0.27305-0.81915-0.6985c0-0.38735 0.37465-0.6604 0.79375-0.9398 0.42545 0.3048 0.8255 0.5842 0.8255 0.97155zm-1.3208-2.3432c0-0.36195 0.3175-0.51435 0.5969-0.51435s0.60325 0.1524 0.60325 0.52705c0 0.3302-0.27305 0.57785-0.6096 0.81915-0.3302-0.24765-0.59055-0.50165-0.59055-0.83185z" stroke-width=".26458" aria-label="28"/><rect x="140.44" y="162.36" width="7.7722" height="7.6591" rx="1.4662" ry="1.3164" fill="#fff" stroke="#000" stroke-linecap="round" stroke-linejoin="round" stroke-width=".68839"/><path d="m141.63 167.11h2.2416v-0.42545h-1.5494c0.55245-0.46355 1.2827-1.1049 1.2827-1.7844 0-0.4826-0.41275-0.8509-0.97155-0.8509-0.5715 0-1.0414 0.40005-1.0414 0.40005l0.2159 0.32385s0.3556-0.2921 0.74295-0.2921c0.3175 0 0.5334 0.19685 0.5334 0.4826 0 0.7493-1.505 1.8224-1.505 1.8224zm3.1306 0.8255 0.0381 0.4064c1.5367-0.0635 2.267-1.2382 2.267-2.4574 0-0.97155-0.43815-1.8352-1.3652-1.8352-0.83185 0-1.27 0.6985-1.27 1.4097 0 0.70485 0.42545 1.3589 1.2319 1.3589 0.4191 0 0.6858-0.1651 0.83185-0.3429-0.15875 0.73025-0.6858 1.4034-1.7336 1.4605zm0.9652-1.5494c-0.64135 0-0.7747-0.5969-0.7747-1.016 0-0.47625 0.2667-0.889 0.71755-0.889 0.59055 0 0.8763 0.6604 0.8763 1.5494-0.1143 0.1143-0.40005 0.3556-0.81915 0.3556z" stroke-width=".26458" aria-label="29"/><rect x="159.85" y="148.99" width="7.7722" height="7.6591" rx="1.4662" ry="1.3164" fill="#fff" stroke="#000" stroke-linecap="round" stroke-linejoin="round" stroke-width=".68839"/><path d="m161 154.55 0.0445 0.3937c0.0572 6e-3 0.1143 6e-3 0.17145 6e-3 1.0795 0 1.8478-0.5588 1.8478-1.3716 0-0.50165-0.31115-0.8763-0.8763-0.99695 0.36195-0.20955 0.76835-0.59055 0.76835-1.0668 0-0.4953-0.41275-0.8382-0.95885-0.8382-0.5842 0-1.0478 0.40005-1.0478 0.40005l0.2159 0.32385s0.36195-0.2921 0.76835-0.2921c0.29845 0 0.50165 0.1778 0.50165 0.4572 0 0.4445-0.5842 0.88265-1.0478 0.93345v0.4064h0.1778c0.47625 0 0.9779 0.1651 0.9779 0.7112 0 0.6096-0.6223 0.9398-1.3526 0.9398-0.0635 0-0.127 0-0.1905-6e-3zm2.667-2.2606c0 0.75565 0.4826 1.524 1.397 1.524 1.0224 0 1.4542-0.84455 1.4542-1.651 0-0.75565-0.4445-1.4859-1.397-1.4859-0.98425 0-1.4542 0.80645-1.4542 1.6129zm0.4953-0.0572c0-0.5588 0.32385-1.124 0.93345-1.124 0.635 0 0.9271 0.5588 0.9271 1.1112 0 0.5842-0.28575 1.162-0.93345 1.162-0.5969 0-0.9271-0.5715-0.9271-1.1494z" stroke-width=".26458" aria-label="30"/><rect x="159.85" y="162.36" width="7.7722" height="7.6591" rx="1.4662" ry="1.3164" fill="#fff" stroke="#000" stroke-linecap="round" stroke-linejoin="round" stroke-width=".68839"/><path d="m161.53 167.93 0.0444 0.3937c0.0572 6e-3 0.1143 6e-3 0.17145 6e-3 1.0795 0 1.8478-0.5588 1.8478-1.3716 0-0.50165-0.31115-0.8763-0.8763-0.99695 0.36195-0.20955 0.76835-0.59055 0.76835-1.0668 0-0.4953-0.41275-0.8382-0.95885-0.8382-0.5842 0-1.0478 0.40005-1.0478 0.40005l0.2159 0.32385s0.36195-0.2921 0.76835-0.2921c0.29845 0 0.50165 0.1778 0.50165 0.4572 0 0.4445-0.5842 0.88265-1.0478 0.93345v0.4064h0.1778c0.47625 0 0.9779 0.1651 0.9779 0.7112 0 0.6096-0.6223 0.9398-1.3526 0.9398-0.0635 0-0.127 0-0.1905-6e-3zm2.6734-0.8128h1.7844v-0.42545h-0.6223v-2.559h-1.1176v0.3937h0.6223v2.1654h-0.66675z" stroke-width=".26458" aria-label="31"/><rect x="179.26" y="148.99" width="7.7722" height="7.6591" rx="1.4662" ry="1.3164" fill="#fff" stroke="#000" stroke-linecap="round" stroke-linejoin="round" stroke-width=".68839"/><path d="m180.71 154.55 0.0445 0.3937c0.0571 6e-3 0.1143 6e-3 0.17145 6e-3 1.0795 0 1.8478-0.5588 1.8478-1.3716 0-0.50165-0.31115-0.8763-0.8763-0.99695 0.36195-0.20955 0.76835-0.59055 0.76835-1.0668 0-0.4953-0.41275-0.8382-0.95885-0.8382-0.5842 0-1.0478 0.40005-1.0478 0.40005l0.2159 0.32385s0.36195-0.2921 0.76835-0.2921c0.29845 0 0.50165 0.1778 0.50165 0.4572 0 0.4445-0.5842 0.88265-1.0478 0.93345v0.4064h0.1778c0.47625 0 0.9779 0.1651 0.9779 0.7112 0 0.6096-0.6223 0.9398-1.3526 0.9398-0.0635 0-0.127 0-0.1905-6e-3zm2.6861-0.8128h2.2416v-0.42545h-1.5494c0.55245-0.46355 1.2827-1.1049 1.2827-1.7844 0-0.4826-0.41275-0.8509-0.97155-0.8509-0.5715 0-1.0414 0.40005-1.0414 0.40005l0.2159 0.32385s0.3556-0.2921 0.74295-0.2921c0.3175 0 0.5334 0.19685 0.5334 0.4826 0 0.7493-1.505 1.8224-1.505 1.8224z" stroke-width=".26458" aria-label="32"/><rect x="179.26" y="162.36" width="7.7722" height="7.6591" rx="1.4662" ry="1.3164" fill="#fff" stroke="#000" stroke-linecap="round" stroke-linejoin="round" stroke-width=".68839"/><path d="m180.88 167.93 0.0444 0.3937c0.0572 6e-3 0.1143 6e-3 0.17145 6e-3 1.0795 0 1.8478-0.5588 1.8478-1.3716 0-0.50165-0.31115-0.8763-0.8763-0.99695 0.36195-0.20955 0.76835-0.59055 0.76835-1.0668 0-0.4953-0.41275-0.8382-0.95885-0.8382-0.5842 0-1.0478 0.40005-1.0478 0.40005l0.2159 0.32385s0.36195-0.2921 0.76835-0.2921c0.29845 0 0.50165 0.1778 0.50165 0.4572 0 0.4445-0.5842 0.88265-1.0478 0.93345v0.4064h0.1778c0.47625 0 0.9779 0.1651 0.9779 0.7112 0 0.6096-0.6223 0.9398-1.3526 0.9398-0.0635 0-0.127 0-0.1905-6e-3zm2.5273 0 0.0444 0.3937c0.0572 6e-3 0.1143 6e-3 0.17145 6e-3 1.0795 0 1.8478-0.5588 1.8478-1.3716 0-0.50165-0.31115-0.8763-0.8763-0.99695 0.36195-0.20955 0.76835-0.59055 0.76835-1.0668 0-0.4953-0.41275-0.8382-0.95885-0.8382-0.5842 0-1.0478 0.40005-1.0478 0.40005l0.2159 0.32385s0.36195-0.2921 0.76835-0.2921c0.29845 0 0.50165 0.1778 0.50165 0.4572 0 0.4445-0.5842 0.88265-1.0478 0.93345v0.4064h0.1778c0.47625 0 0.9779 0.1651 0.9779 0.7112 0 0.6096-0.6223 0.9398-1.3526 0.9398-0.0635 0-0.127 0-0.1905-6e-3z" stroke-width=".26458" aria-label="33"/><rect x="198.68" y="148.99" width="7.7722" height="7.6591" rx="1.4662" ry="1.3164" fill="#fff" stroke="#000" stroke-linecap="round" stroke-linejoin="round" stroke-width=".68839"/><path d="m199.87 154.55 0.0445 0.3937c0.0572 6e-3 0.1143 6e-3 0.17145 6e-3 1.0795 0 1.8478-0.5588 1.8478-1.3716 0-0.50165-0.31115-0.8763-0.8763-0.99695 0.36195-0.20955 0.76835-0.59055 0.76835-1.0668 0-0.4953-0.41275-0.8382-0.95885-0.8382-0.5842 0-1.0478 0.40005-1.0478 0.40005l0.2159 0.32385s0.36195-0.2921 0.76835-0.2921c0.29845 0 0.50165 0.1778 0.50165 0.4572 0 0.4445-0.5842 0.88265-1.0478 0.93345v0.4064h0.1778c0.47625 0 0.9779 0.1651 0.9779 0.7112 0 0.6096-0.6223 0.9398-1.3526 0.9398-0.0635 0-0.127 0-0.1905-6e-3zm2.5273-0.9779h1.8098v1.3906h0.4953v-1.3906h0.60325v-0.4064h-0.60325v-2.4892h-0.4191l-1.886 2.559zm0.53975-0.4064 1.27-1.7208v1.7208z" stroke-width=".26458" aria-label="34"/><rect x="198.68" y="162.36" width="7.7722" height="7.6591" rx="1.4662" ry="1.3164" fill="#fff" stroke="#000" stroke-linecap="round" stroke-linejoin="round" stroke-width=".68839"/><path d="m200.29 167.93 0.0444 0.3937c0.0572 6e-3 0.1143 6e-3 0.17145 6e-3 1.0795 0 1.8478-0.5588 1.8478-1.3716 0-0.50165-0.31115-0.8763-0.8763-0.99695 0.36195-0.20955 0.76835-0.59055 0.76835-1.0668 0-0.4953-0.41275-0.8382-0.95885-0.8382-0.5842 0-1.0478 0.40005-1.0478 0.40005l0.2159 0.32385s0.36195-0.2921 0.76835-0.2921c0.29845 0 0.50165 0.1778 0.50165 0.4572 0 0.4445-0.5842 0.88265-1.0478 0.93345v0.4064h0.1778c0.47625 0 0.9779 0.1651 0.9779 0.7112 0 0.6096-0.6223 0.9398-1.3526 0.9398-0.0635 0-0.127 0-0.1905-6e-3zm2.5464 0 0.0444 0.3937c0.0635 6e-3 0.12065 6e-3 0.18415 6e-3 1.0541 0 1.8352-0.5207 1.8352-1.3843 0-0.8763-0.71755-1.2446-1.4732-1.397v-0.9906h1.3144v-0.42545h-1.797v1.7716c0.6477 0.0889 1.4351 0.2667 1.4351 1.0668 0 0.65405-0.64135 0.9652-1.3462 0.9652-0.0635 0-0.13335 0-0.19685-6e-3z" stroke-width=".26458" aria-label="35"/><rect x="43.364" y="162.36" width="7.7722" height="7.6591" rx="1.4662" ry="1.3164" fill="#fff" stroke="#000" stroke-linecap="round" stroke-linejoin="round" stroke-width=".68839"/><path d="m44.831 167.11h1.7844v-0.42545h-0.6223v-2.559h-1.1176v0.3937h0.6223v2.1654h-0.66675zm2.5336 0.8255 0.0381 0.4064c1.5367-0.0635 2.267-1.2382 2.267-2.4574 0-0.97155-0.43815-1.8352-1.3652-1.8352-0.83185 0-1.27 0.6985-1.27 1.4097 0 0.70485 0.42545 1.3589 1.2319 1.3589 0.4191 0 0.6858-0.1651 0.83185-0.3429-0.15875 0.73025-0.6858 1.4034-1.7336 1.4605zm0.9652-1.5494c-0.64135 0-0.7747-0.5969-0.7747-1.016 0-0.47625 0.2667-0.889 0.71755-0.889 0.59055 0 0.8763 0.6604 0.8763 1.5494-0.1143 0.1143-0.40005 0.3556-0.81915 0.3556z" stroke-width=".26458" aria-label="19"/><rect x="62.779" y="148.99" width="7.7722" height="7.6591" rx="1.4662" ry="1.3164" fill="#fff" stroke="#000" stroke-linecap="round" stroke-linejoin="round" stroke-width=".68839"/><path d="m63.864 154.31h2.2416v-0.42545h-1.5494c0.55245-0.46355 1.2827-1.1049 1.2827-1.7844 0-0.4826-0.41275-0.8509-0.97155-0.8509-0.5715 0-1.0414 0.40005-1.0414 0.40005l0.2159 0.32385s0.3556-0.2921 0.74295-0.2921c0.3175 0 0.5334 0.19685 0.5334 0.4826 0 0.7493-1.505 1.8224-1.505 1.8224zm2.8004-1.4478c0 0.75565 0.4826 1.524 1.397 1.524 1.0224 0 1.4542-0.84455 1.4542-1.651 0-0.75565-0.4445-1.4859-1.397-1.4859-0.98425 0-1.4542 0.80645-1.4542 1.6129zm0.4953-0.0572c0-0.5588 0.32385-1.124 0.93345-1.124 0.635 0 0.9271 0.5588 0.9271 1.1112 0 0.5842-0.28575 1.162-0.93345 1.162-0.5969 0-0.9271-0.5715-0.9271-1.1494z" stroke-width=".26458" aria-label="20"/><rect x="1.1227" y="114.37" width="7.7722" height="7.6591" rx="1.4662" ry="1.3164" fill="#fff" stroke="#000" stroke-linecap="round" stroke-linejoin="round" stroke-width=".68839"/><path transform="translate(-5.2549 -1.677)" d="m9.0741 121.86h2.3791v-0.56727h-0.82973v-3.4121h-1.4901v0.52493h0.82973v2.8871h-0.889z" stroke-width=".26458" style="inline-size:37.7868;white-space:pre" aria-label="1"/><rect x="13.817" y="114.37" width="7.7722" height="7.6591" rx="1.4662" ry="1.3164" fill="#fff" stroke="#000" stroke-linecap="round" stroke-linejoin="round" stroke-width=".68839"/><path transform="translate(7.4983 -1.6262)" d="m8.7439 121.86h2.9887v-0.56727h-2.0659c0.7366-0.61806 1.7103-1.4732 1.7103-2.3791 0-0.64347-0.55033-1.1345-1.2954-1.1345-0.762 0-1.3885 0.5334-1.3885 0.5334l0.28787 0.4318s0.47413-0.38947 0.9906-0.38947c0.42333 0 0.7112 0.26247 0.7112 0.64347 0 0.99906-2.0066 2.4299-2.0066 2.4299z" stroke-width=".26458" style="inline-size:37.7868;white-space:pre" aria-label="2"/><rect x="26.511" y="114.37" width="7.7722" height="7.6591" rx="1.4662" ry="1.3164" fill="#fff" stroke="#000" stroke-linecap="round" stroke-linejoin="round" stroke-width=".68839"/><path transform="translate(20.328 -2.4348)" d="m8.727 122.95 0.059267 0.52494c0.0762 8e-3 0.1524 8e-3 0.2286 8e-3 1.4393 0 2.4638-0.74506 2.4638-1.8288 0-0.66886-0.41487-1.1684-1.1684-1.3293 0.4826-0.2794 1.0245-0.7874 1.0245-1.4224 0-0.6604-0.55033-1.1176-1.2785-1.1176-0.77893 0-1.397 0.5334-1.397 0.5334l0.28787 0.4318s0.4826-0.38947 1.0245-0.38947c0.39793 0 0.66887 0.23707 0.66887 0.6096 0 0.59267-0.77893 1.1769-1.397 1.2446v0.54187h0.23707c0.635 0 1.3039 0.22013 1.3039 0.94826 0 0.8128-0.82973 1.2531-1.8034 1.2531-0.084667 0-0.16933 0-0.254-8e-3z" stroke-width=".26458" style="inline-size:37.7868;white-space:pre" aria-label="3"/><rect x="1.1227" y="126.95" width="7.7722" height="7.6591" rx="1.4662" ry="1.3164" fill="#fff" stroke="#000" stroke-linecap="round" stroke-linejoin="round" stroke-width=".68839"/><path transform="translate(-5.1406 10.138)" d="m8.2105 121.64h2.413v1.8542h0.6604v-1.8542h0.80433v-0.54187h-0.80433v-3.3189h-0.5588l-2.5146 3.4121zm0.71967-0.54187 1.6933-2.2945v2.2945z" stroke-width=".26458" style="inline-size:37.7868;white-space:pre" aria-label="4"/><rect x="13.817" y="126.95" width="7.7722" height="7.6591" rx="1.4662" ry="1.3164" fill="#fff" stroke="#000" stroke-linecap="round" stroke-linejoin="round" stroke-width=".68839"/><path transform="translate(7.5788 10.095)" d="m8.7482 122.95 0.059267 0.52494c0.084667 8e-3 0.16087 8e-3 0.24553 8e-3 1.4055 0 2.4469-0.69426 2.4469-1.8457 0-1.1684-0.95673-1.6595-1.9643-1.8627v-1.3208h1.7526v-0.56726h-2.3961v2.3622c0.8636 0.11853 1.9135 0.3556 1.9135 1.4224 0 0.87206-0.85513 1.2869-1.7949 1.2869-0.084667 0-0.1778 0-0.26247-8e-3z" stroke-width=".26458" style="inline-size:37.7868;white-space:pre" aria-label="5"/><rect x="1.1227" y="139.53" width="7.7722" height="7.6591" rx="1.4662" ry="1.3164" fill="#fff" stroke="#000" stroke-linecap="round" stroke-linejoin="round" stroke-width=".68839"/><path transform="translate(-5.1829 22.651)" d="m8.8201 123.38 0.64347 0.1524c0.8128-1.5917 1.6341-3.2766 2.4045-5.1985v-0.44873h-3.3528v0.62653h2.5908c-0.72813 1.8034-1.4563 3.3528-2.286 4.8683z" stroke-width=".26458" style="inline-size:37.7868;white-space:pre" aria-label="7"/><rect x="13.817" y="139.53" width="7.7722" height="7.6591" rx="1.4662" ry="1.3164" fill="#fff" stroke="#000" stroke-linecap="round" stroke-linejoin="round" stroke-width=".68839"/><path transform="translate(7.528 24.319)" d="m8.4307 120.48c0 0.7874 0.6858 1.4817 1.7187 1.4817 1.0245 0 1.7695-0.6858 1.7695-1.5071 0-0.72813-0.60113-1.2107-1.2107-1.6425 0.5334-0.381 0.9906-0.82127 0.9906-1.4647 0-0.72814-0.5842-1.2361-1.4224-1.2361-0.82973 0-1.5071 0.49107-1.5071 1.2869 0 0.62653 0.41487 1.0753 0.90593 1.4647-0.635 0.42333-1.2446 0.889-1.2446 1.6171zm2.794 0.0169c0 0.55033-0.51647 0.889-1.0668 0.889s-1.0922-0.36407-1.0922-0.93134c0-0.51646 0.49953-0.88053 1.0583-1.2531 0.56727 0.4064 1.1007 0.77893 1.1007 1.2954zm-1.7611-3.1242c0-0.4826 0.42333-0.68581 0.79587-0.68581 0.37253 0 0.80433 0.20321 0.80433 0.70274 0 0.44027-0.36407 0.77047-0.8128 1.0922-0.44027-0.3302-0.7874-0.66887-0.7874-1.1091z" stroke-width=".26458" style="inline-size:37.7868;white-space:pre" aria-label="8"/><rect x="26.511" y="126.95" width="7.7722" height="7.6591" rx="1.4662" ry="1.3164" fill="#fff" stroke="#000" stroke-linecap="round" stroke-linejoin="round" stroke-width=".68839"/><path transform="translate(20.188 11.738)" d="m10.251 121.97c1.1345 0 1.7357-0.97367 1.7357-1.9389 0-0.95673-0.5842-1.7949-1.6764-1.7949-0.56727 0-0.92287 0.22013-1.1176 0.46567 0.22013-1.0668 0.93133-1.9558 2.3114-2.0405l-0.0508-0.54187c-2.0489 0.0847-3.0226 1.7272-3.0226 3.4036 0 1.2954 0.5842 2.4469 1.8203 2.4469zm-0.0254-3.1581c0.87207 0 1.0668 0.77894 1.0668 1.2954 0 0.7112-0.37253 1.2869-0.99907 1.2869-0.762 0-1.1684-0.79587-1.1684-2.0997 0.13547-0.14393 0.52493-0.4826 1.1007-0.4826z" stroke-width=".26458" style="inline-size:37.7868;white-space:pre" aria-label="6"/><g transform="translate(.19226)"><ellipse cx="56.589" cy="115.75" rx="2.5096" ry="2.4678" fill="#fff" stroke="#000" stroke-linecap="round" stroke-linejoin="round" stroke-width=".50665"/><path d="m56.013 116.77 0.02223 0.23707c0.89641-0.037 1.3224-0.72231 1.3224-1.4335 0-0.56674-0.25559-1.0705-0.7964-1.0705-0.48525 0-0.74083 0.40746-0.74083 0.82233 0 0.41116 0.24818 0.79269 0.71861 0.79269 0.24448 0 0.40005-0.0963 0.48525-0.20002-0.0926 0.42598-0.40005 0.81862-1.0112 0.85195zm0.56303-0.90381c-0.37412 0-0.45191-0.34819-0.45191-0.59267 0-0.27781 0.15558-0.51858 0.41857-0.51858 0.34449 0 0.51118 0.38523 0.51118 0.90381-0.06667 0.0667-0.23336 0.20744-0.47784 0.20744z" stroke-width=".26458" aria-label="9"/></g><g transform="translate(.2592)"><ellipse cx="75.979" cy="115.75" rx="2.5096" ry="2.4678" fill="#fff" stroke="#000" stroke-linecap="round" stroke-linejoin="round" stroke-width=".50665"/><path d="m74.479 116.62h1.0409v-0.24818h-0.36301v-1.4928h-0.65193v0.22966h0.36301v1.2631h-0.38894zm1.3372-0.84455c0 0.44079 0.28152 0.889 0.81492 0.889 0.59637 0 0.84826-0.49266 0.84826-0.96309 0-0.44079-0.25929-0.86677-0.81492-0.86677-0.57415 0-0.84826 0.47043-0.84826 0.94086zm0.28893-0.0333c0-0.32597 0.18891-0.65564 0.54451-0.65564 0.37042 0 0.54081 0.32597 0.54081 0.64823 0 0.34078-0.16669 0.67786-0.54451 0.67786-0.34819 0-0.54081-0.33337-0.54081-0.67045z" stroke-width=".26458" aria-label="10"/></g><g transform="translate(.32614)"><ellipse cx="95.369" cy="115.75" rx="2.5096" ry="2.4678" fill="#fff" stroke="#000" stroke-linecap="round" stroke-linejoin="round" stroke-width=".50665"/><path d="m94.178 116.62h1.0409v-0.24818h-0.36301v-1.4928h-0.65193v0.22966h0.36301v1.2631h-0.38894zm1.3409 0h1.0409v-0.24818h-0.36301v-1.4928h-0.65193v0.22966h0.36301v1.2631h-0.38894z" stroke-width=".26458" aria-label="11"/></g><g transform="translate(.39307)"><ellipse cx="114.76" cy="115.75" rx="2.5096" ry="2.4678" fill="#fff" stroke="#000" stroke-linecap="round" stroke-linejoin="round" stroke-width=".50665"/><path d="m113.43 116.65h1.0409v-0.24818h-0.36301v-1.4928h-0.65193v0.22966h0.36301v1.2631h-0.38894zm1.3483 0h1.3076v-0.24818h-0.90382c0.32227-0.2704 0.74824-0.64452 0.74824-1.0409 0-0.28152-0.24077-0.49636-0.56673-0.49636-0.33338 0-0.60749 0.23336-0.60749 0.23336l0.12594 0.18892s0.20744-0.17039 0.43339-0.17039c0.18521 0 0.31115 0.11482 0.31115 0.28151 0 0.43709-0.87789 1.0631-0.87789 1.0631z" stroke-width=".26458" aria-label="12"/></g><g transform="translate(.46001)"><ellipse cx="134.15" cy="115.75" rx="2.5096" ry="2.4678" fill="#fff" stroke="#000" stroke-linecap="round" stroke-linejoin="round" stroke-width=".50665"/><path d="m132.92 116.29h1.0409v-0.24818h-0.36301v-1.4928h-0.65194v0.22966h0.36301v1.2631h-0.38893zm1.2557 0.47413 0.0259 0.22966c0.0333 4e-3 0.0667 4e-3 0.10001 4e-3 0.62971 0 1.0779-0.32597 1.0779-0.8001 0-0.29263-0.1815-0.51118-0.51117-0.58156 0.21113-0.12224 0.4482-0.34449 0.4482-0.6223 0-0.28893-0.24077-0.48895-0.55933-0.48895-0.34078 0-0.61119 0.23336-0.61119 0.23336l0.12595 0.18891s0.21113-0.17039 0.4482-0.17039c0.1741 0 0.29263 0.10372 0.29263 0.2667 0 0.2593-0.34078 0.51488-0.61119 0.54452v0.23706h0.10372c0.27781 0 0.57044 0.0963 0.57044 0.41487 0 0.3556-0.36301 0.54822-0.78899 0.54822-0.037 0-0.0741 0-0.11112-4e-3z" stroke-width=".26458" aria-label="13"/></g><g transform="translate(.52695)"><ellipse cx="153.54" cy="115.75" rx="2.5096" ry="2.4678" fill="#fff" stroke="#000" stroke-linecap="round" stroke-linejoin="round" stroke-width=".50665"/><path d="m152.06 116.29h1.0409v-0.24818h-0.36301v-1.4928h-0.65193v0.22966h0.36301v1.2631h-0.38894zm1.2557-0.0963h1.0557v0.81121h0.28893v-0.81121h0.35189v-0.23707h-0.35189v-1.452h-0.24448l-1.1001 1.4928zm0.31486-0.23707 0.74083-1.0038v1.0038z" stroke-width=".26458" aria-label="14"/></g><g transform="translate(.59389)"><ellipse cx="172.93" cy="115.75" rx="2.5096" ry="2.4678" fill="#fff" stroke="#000" stroke-linecap="round" stroke-linejoin="round" stroke-width=".50665"/><path d="m171.69 116.27h1.0409v-0.24818h-0.36301v-1.4928h-0.65194v0.22966h0.36301v1.2631h-0.38894zm1.2668 0.47414 0.0259 0.22965c0.037 4e-3 0.0704 4e-3 0.10742 4e-3 0.61489 0 1.0705-0.30374 1.0705-0.80751 0-0.51118-0.41857-0.72602-0.85936-0.81492v-0.57785h0.76676v-0.24818h-1.0483v1.0335c0.37782 0.0519 0.83714 0.15557 0.83714 0.6223 0 0.38153-0.37412 0.56303-0.78528 0.56303-0.037 0-0.0778 0-0.11483-4e-3z" stroke-width=".26458" aria-label="15"/></g><g transform="translate(.66081)"><ellipse cx="192.32" cy="115.75" rx="2.5096" ry="2.4678" fill="#fff" stroke="#000" stroke-linecap="round" stroke-linejoin="round" stroke-width=".50665"/><path d="m190.88 116.99h1.0409v-0.24818h-0.36301v-1.4928h-0.65193v0.22966h0.36301v1.2631h-0.38894zm2.1262 0.0444c0.49636 0 0.75936-0.42598 0.75936-0.84826 0-0.41857-0.25559-0.78528-0.73343-0.78528-0.24818 0-0.40376 0.0963-0.48895 0.20373 0.0963-0.46673 0.40746-0.85567 1.0112-0.89271l-0.0222-0.23706c-0.89641 0.037-1.3224 0.75565-1.3224 1.4891 0 0.56674 0.25559 1.0705 0.7964 1.0705zm-0.0111-1.3817c0.38153 0 0.46672 0.34079 0.46672 0.56674 0 0.31115-0.16298 0.56303-0.43709 0.56303-0.33337 0-0.51117-0.34819-0.51117-0.91863 0.0593-0.063 0.22965-0.21114 0.48154-0.21114z" stroke-width=".26458" aria-label="16"/></g><g transform="translate(.72775)"><ellipse cx="211.71" cy="115.75" rx="2.5096" ry="2.4678" fill="#fff" stroke="#000" stroke-linecap="round" stroke-linejoin="round" stroke-width=".50665"/><path d="m210.37 116.26h1.0409v-0.24818h-0.36301v-1.4928h-0.65193v0.22966h0.36301v1.2631h-0.38894zm1.352 0.66305 0.28151 0.0667c0.3556-0.69638 0.71491-1.4335 1.052-2.2744v-0.19632h-1.4668v0.27411h1.1335c-0.31856 0.78899-0.63712 1.4668-1.0001 2.1299z" stroke-width=".26458" aria-label="17"/></g><circle cx="19.797" cy="163.96" r="6.4409" fill="#fff" stroke="#000" stroke-linecap="round" stroke-linejoin="round" stroke-width=".69661"/><rect x="55.763" y="134.89" width="2.0358" height="41.395" rx="1.4662" ry="1.3164" fill="#fff" stroke="#000" stroke-linecap="round" stroke-linejoin="round" stroke-width=".685"/><rect x="53.704" y="159.07" width="6.1542" height="15.688" rx=".34771" ry="1.2173" fill="#fff" stroke="#000" stroke-linecap="round" stroke-linejoin="round" stroke-width=".60269"/><path d="m54.805 168.69 0.03334 0.29527c0.04286 5e-3 0.08573 5e-3 0.12859 5e-3 0.80962 0 1.3859-0.4191 1.3859-1.0287 0-0.37623-0.23336-0.65722-0.65722-0.74771 0.27146-0.15716 0.57626-0.44291 0.57626-0.8001 0-0.37147-0.30956-0.62865-0.71914-0.62865-0.43815 0-0.78581 0.30004-0.78581 0.30004l0.16192 0.24289s0.27146-0.21908 0.57626-0.21908c0.22384 0 0.37624 0.13335 0.37624 0.3429 0 0.33338-0.43815 0.66199-0.78581 0.70009v0.3048h0.13335c0.35719 0 0.73342 0.12383 0.73342 0.5334 0 0.4572-0.46672 0.70485-1.0144 0.70485-0.04763 0-0.09525 0-0.14288-5e-3zm3.0147-0.55245c0.63818 0 0.97631-0.54769 0.97631-1.0906 0-0.53817-0.32861-1.0096-0.94298-1.0096-0.31909 0-0.51911 0.12382-0.62865 0.26193 0.12382-0.60007 0.52388-1.1001 1.3002-1.1478l-0.02858-0.3048c-1.1525 0.0476-1.7002 0.97155-1.7002 1.9145 0 0.72866 0.32861 1.3764 1.0239 1.3764zm-0.01429-1.7764c0.49054 0 0.60008 0.43815 0.60008 0.72866 0 0.40005-0.20955 0.7239-0.56198 0.7239-0.42862 0-0.65722-0.44768-0.65722-1.1811 0.0762-0.081 0.29528-0.27146 0.61912-0.27146z" stroke-width=".26458" aria-label="36"/><g transform="translate(19.457)"><rect x="55.763" y="134.89" width="2.0358" height="41.395" rx="1.4662" ry="1.3164" fill="#fff" stroke="#000" stroke-linecap="round" stroke-linejoin="round" stroke-width=".685"/><rect x="53.704" y="159.07" width="6.1542" height="15.688" rx=".34771" ry="1.2173" fill="#fff" stroke="#000" stroke-linecap="round" stroke-linejoin="round" stroke-width=".60269"/><path d="m54.902 168.2 0.03334 0.29527c0.04286 5e-3 0.08572 5e-3 0.12859 5e-3 0.80962 0 1.3859-0.4191 1.3859-1.0287 0-0.37624-0.23336-0.65723-0.65722-0.74772 0.27146-0.15716 0.57626-0.44291 0.57626-0.8001 0-0.37147-0.30956-0.62865-0.71914-0.62865-0.43815 0-0.78581 0.30004-0.78581 0.30004l0.16192 0.24289s0.27146-0.21908 0.57626-0.21908c0.22384 0 0.37624 0.13335 0.37624 0.3429 0 0.33338-0.43815 0.66199-0.78581 0.70009v0.3048h0.13335c0.35719 0 0.73342 0.12383 0.73342 0.5334 0 0.4572-0.46672 0.70485-1.0144 0.70485-0.04763 0-0.09525 0-0.14288-5e-3zm2.0812 0.24289 0.36195 0.0857c0.4572-0.89535 0.91916-1.8431 1.3526-2.9242v-0.25242h-1.886v0.35243h1.4573c-0.40958 1.0144-0.81915 1.886-1.2859 2.7384z" stroke-width=".26458" aria-label="37 "/></g><g transform="translate(38.914)"><rect x="55.763" y="134.89" width="2.0358" height="41.395" rx="1.4662" ry="1.3164" fill="#fff" stroke="#000" stroke-linecap="round" stroke-linejoin="round" stroke-width=".685"/><rect x="53.704" y="159.07" width="6.1542" height="15.688" rx=".34771" ry="1.2173" fill="#fff" stroke="#000" stroke-linecap="round" stroke-linejoin="round" stroke-width=".60269"/><path d="m54.821 168.69 0.03334 0.29527c0.04286 5e-3 0.08572 5e-3 0.12859 5e-3 0.80962 0 1.3859-0.4191 1.3859-1.0287 0-0.37623-0.23336-0.65722-0.65722-0.74771 0.27146-0.15716 0.57626-0.44291 0.57626-0.8001 0-0.37147-0.30956-0.62865-0.71914-0.62865-0.43815 0-0.78581 0.30004-0.78581 0.30004l0.16192 0.24289s0.27146-0.21908 0.57626-0.21908c0.22384 0 0.37624 0.13335 0.37624 0.3429 0 0.33338-0.43815 0.66199-0.78581 0.70009v0.3048h0.13335c0.35719 0 0.73342 0.12383 0.73342 0.5334 0 0.4572-0.46672 0.70485-1.0144 0.70485-0.04763 0-0.09525 0-0.14288-5e-3zm1.9955-1.3859c0 0.44291 0.38576 0.83344 0.96679 0.83344 0.57626 0 0.99536-0.38577 0.99536-0.84773 0-0.40957-0.33814-0.68103-0.68104-0.92392 0.30004-0.21431 0.55721-0.46196 0.55721-0.82391 0-0.40958-0.32861-0.69533-0.8001-0.69533-0.46672 0-0.84772 0.27623-0.84772 0.7239 0 0.35243 0.23336 0.60484 0.50959 0.82391-0.35719 0.23813-0.70009 0.50007-0.70009 0.90964zm1.5716 0.01c0 0.30956-0.29051 0.50006-0.60008 0.50006-0.30956 0-0.61436-0.20479-0.61436-0.52388 0-0.29051 0.28099-0.4953 0.59531-0.70485 0.31909 0.2286 0.61912 0.43815 0.61912 0.72867zm-0.9906-1.7574c0-0.27146 0.23812-0.38576 0.44767-0.38576s0.45244 0.1143 0.45244 0.39529c0 0.24765-0.20479 0.43339-0.4572 0.61436-0.24765-0.18574-0.44291-0.37624-0.44291-0.62389z" stroke-width=".26458" aria-label="38"/></g><g transform="translate(58.371)"><rect x="55.763" y="134.89" width="2.0358" height="41.395" rx="1.4662" ry="1.3164" fill="#fff" stroke="#000" stroke-linecap="round" stroke-linejoin="round" stroke-width=".685"/><rect x="53.704" y="159.07" width="6.1542" height="15.688" rx=".34771" ry="1.2173" fill="#fff" stroke="#000" stroke-linecap="round" stroke-linejoin="round" stroke-width=".60269"/><path d="m54.812 168.21 0.03334 0.29528c0.04286 5e-3 0.08573 5e-3 0.12859 5e-3 0.80962 0 1.3859-0.4191 1.3859-1.0287 0-0.37624-0.23336-0.65723-0.65722-0.74771 0.27146-0.15717 0.57626-0.44292 0.57626-0.8001 0-0.37148-0.30956-0.62865-0.71914-0.62865-0.43815 0-0.78581 0.30003-0.78581 0.30003l0.16192 0.24289s0.27146-0.21907 0.57626-0.21907c0.22384 0 0.37624 0.13335 0.37624 0.3429 0 0.33337-0.43815 0.66198-0.78581 0.70008v0.3048h0.13335c0.35719 0 0.73342 0.12383 0.73342 0.5334 0 0.4572-0.46672 0.70485-1.0144 0.70485-0.04763 0-0.09525 0-0.14288-5e-3zm2.2479 0.01 0.02857 0.3048c1.1525-0.0476 1.7002-0.92869 1.7002-1.8431 0-0.72866-0.32861-1.3764-1.0239-1.3764-0.62389 0-0.9525 0.52387-0.9525 1.0573 0 0.52864 0.31909 1.0192 0.92392 1.0192 0.31432 0 0.51435-0.12383 0.62389-0.25718-0.11906 0.54769-0.51435 1.0525-1.3002 1.0954zm0.7239-1.162c-0.48101 0-0.58102-0.44768-0.58102-0.762 0-0.35719 0.20002-0.66675 0.53816-0.66675 0.44291 0 0.65722 0.4953 0.65722 1.162-0.08572 0.0857-0.30004 0.2667-0.61436 0.2667z" stroke-width=".26458" aria-label="39"/></g><g transform="translate(77.828)"><rect x="55.763" y="134.89" width="2.0358" height="41.395" rx="1.4662" ry="1.3164" fill="#fff" stroke="#000" stroke-linecap="round" stroke-linejoin="round" stroke-width=".685"/><rect x="53.704" y="159.07" width="6.1542" height="15.688" rx=".34771" ry="1.2173" fill="#fff" stroke="#000" stroke-linecap="round" stroke-linejoin="round" stroke-width=".60269"/><path d="m54.421 167.48h1.3573v1.043h0.37148v-1.043h0.45244v-0.3048h-0.45244v-1.8669h-0.31432l-1.4145 1.9193zm0.40481-0.3048 0.9525-1.2906v1.2906zm2.1765-0.65723c0 0.56674 0.36195 1.143 1.0478 1.143 0.76676 0 1.0906-0.63341 1.0906-1.2382 0-0.56674-0.33338-1.1144-1.0477-1.1144-0.73819 0-1.0906 0.60483-1.0906 1.2097zm0.37148-0.0429c0-0.4191 0.24289-0.84296 0.70009-0.84296 0.47625 0 0.69532 0.4191 0.69532 0.83343 0 0.43815-0.21431 0.87154-0.70009 0.87154-0.44768 0-0.69532-0.42862-0.69532-0.86201z" stroke-width=".26458" aria-label="40"/></g><g transform="translate(97.285)"><rect x="55.763" y="134.89" width="2.0358" height="41.395" rx="1.4662" ry="1.3164" fill="#fff" stroke="#000" stroke-linecap="round" stroke-linejoin="round" stroke-width=".685"/><rect x="53.704" y="159.07" width="6.1542" height="15.688" rx=".34771" ry="1.2173" fill="#fff" stroke="#000" stroke-linecap="round" stroke-linejoin="round" stroke-width=".60269"/><path d="m54.819 167.48h1.3573v1.043h0.37148v-1.043h0.45244v-0.3048h-0.45244v-1.8669h-0.31432l-1.4145 1.9193zm0.40481-0.3048 0.9525-1.2906v1.2906zm2.1812 0.42862h1.3383v-0.31909h-0.46672v-1.9193h-0.8382v0.29527h0.46672v1.624h-0.50006z" stroke-width=".26458" aria-label="41"/></g><g transform="translate(116.74)"><rect x="55.763" y="134.89" width="2.0358" height="41.395" rx="1.4662" ry="1.3164" fill="#fff" stroke="#000" stroke-linecap="round" stroke-linejoin="round" stroke-width=".685"/><rect x="53.704" y="159.07" width="6.1542" height="15.688" rx=".34771" ry="1.2173" fill="#fff" stroke="#000" stroke-linecap="round" stroke-linejoin="round" stroke-width=".60269"/><path d="m54.643 167.48h1.3573v1.043h0.37148v-1.043h0.45244v-0.3048h-0.45244v-1.8669h-0.31432l-1.4145 1.9193zm0.40481-0.3048 0.9525-1.2906v1.2906zm2.1908 0.42862h1.6812v-0.31909h-1.162c0.41434-0.34766 0.96202-0.82867 0.96202-1.3383 0-0.36195-0.30956-0.63817-0.72866-0.63817-0.42862 0-0.78105 0.30003-0.78105 0.30003l0.16192 0.24289s0.2667-0.21907 0.55721-0.21907c0.23812 0 0.40005 0.14763 0.40005 0.36195 0 0.56197-1.1287 1.3668-1.1287 1.3668z" stroke-width=".26458" aria-label="42"/></g><g transform="translate(136.2)"><rect x="55.763" y="134.89" width="2.0358" height="41.395" rx="1.4662" ry="1.3164" fill="#fff" stroke="#000" stroke-linecap="round" stroke-linejoin="round" stroke-width=".685"/><rect x="53.704" y="159.07" width="6.1542" height="15.688" rx=".34771" ry="1.2173" fill="#fff" stroke="#000" stroke-linecap="round" stroke-linejoin="round" stroke-width=".60269"/><path d="m54.769 167.48h1.3573v1.043h0.37148v-1.043h0.45244v-0.3048h-0.45244v-1.8669h-0.31432l-1.4145 1.9193zm0.40481-0.3048 0.9525-1.2906v1.2906zm2.0717 1.0382 0.03334 0.29528c0.04286 5e-3 0.08573 5e-3 0.12859 5e-3 0.80962 0 1.3859-0.4191 1.3859-1.0287 0-0.37624-0.23336-0.65723-0.65722-0.74771 0.27146-0.15717 0.57626-0.44292 0.57626-0.8001 0-0.37148-0.30956-0.62865-0.71914-0.62865-0.43815 0-0.78581 0.30003-0.78581 0.30003l0.16192 0.24289s0.27146-0.21907 0.57626-0.21907c0.22384 0 0.37624 0.13335 0.37624 0.3429 0 0.33337-0.43815 0.66198-0.78581 0.70008v0.3048h0.13335c0.35719 0 0.73342 0.12383 0.73342 0.5334 0 0.4572-0.46672 0.70485-1.0144 0.70485-0.04762 0-0.09525 0-0.14288-5e-3z" stroke-width=".26458" aria-label="43"/></g><g transform="translate(155.66)"><rect x="55.763" y="134.89" width="2.0358" height="41.395" rx="1.4662" ry="1.3164" fill="#fff" stroke="#000" stroke-linecap="round" stroke-linejoin="round" stroke-width=".685"/><rect x="53.704" y="159.07" width="6.1542" height="15.688" rx=".34771" ry="1.2173" fill="#fff" stroke="#000" stroke-linecap="round" stroke-linejoin="round" stroke-width=".60269"/><path d="m54.452 167.48h1.3573v1.043h0.37148v-1.043h0.45244v-0.3048h-0.45244v-1.8669h-0.31432l-1.4145 1.9193zm0.40481-0.3048 0.9525-1.2906v1.2906zm2.0717 0.3048h1.3573v1.043h0.37148v-1.043h0.45244v-0.3048h-0.45244v-1.8669h-0.31432l-1.4145 1.9193zm0.40481-0.3048 0.9525-1.2906v1.2906z" stroke-width=".26458" aria-label="44"/></g><circle cx="27.97" cy="139.58" r="1.5395" fill="#fff" stroke="#000" stroke-linecap="round" stroke-linejoin="round" stroke-width=".685"/><circle cx="33.85" cy="139.58" r="1.5395" fill="#fff" stroke="#000" stroke-linecap="round" stroke-linejoin="round" stroke-width=".685"/><circle cx="27.97" cy="144.67" r="1.5395" fill="#fff" stroke="#000" stroke-linecap="round" stroke-linejoin="round" stroke-width=".685"/><circle cx="33.85" cy="144.67" r="1.5395" fill="#fff" stroke="#000" stroke-linecap="round" stroke-linejoin="round" stroke-width=".685"/></g></svg>
