<?xml version="1.0" encoding="UTF-8"?>
<svg width="350" height="225" version="1.1" viewBox="0 0 92.604 59.531" xml:space="preserve" xmlns="http://www.w3.org/2000/svg"><g transform="translate(-33.014 -34.845)"><g transform="matrix(.044578 0 0 .02687 -160.97 23.801)" clip-rule="evenodd" fill-rule="evenodd" stroke-linejoin="round" stroke-miterlimit="1.5"><g transform="translate(-287,-128)"><g transform="translate(2211 1552.8)"><g transform="matrix(-1,0,0,-1.0028,4554.8,1200.2)"><path d="m1955.6 260.58c0-6.248-5.08-11.32-11.35-11.32h-80.61c-6.26 0-11.35 5.072-11.35 11.32v697.61h103.31z" fill="none" stroke="#000" stroke-linecap="round" stroke-width="6.24px"/></g><g transform="matrix(-1,0,0,-1.0028,4658.1,1200.2)"><path d="m1955.6 260.58c0-6.248-5.08-11.32-11.35-11.32h-80.61c-6.26 0-11.35 5.072-11.35 11.32v697.61h103.31z" fill="none" stroke="#000" stroke-linecap="round" stroke-width="6.24px"/></g><g transform="matrix(-1,0,0,-1.0028,4761.4,1200.2)"><path d="m1955.6 260.58c0-6.248-5.08-11.32-11.35-11.32h-80.61c-6.26 0-11.35 5.072-11.35 11.32v697.61h103.31z" fill="none" stroke="#000" stroke-linecap="round" stroke-width="6.24px"/></g><g transform="matrix(-1,0,0,-1.0028,4864.7,1200.2)"><path d="m1955.6 260.58c0-6.248-5.08-11.32-11.35-11.32h-80.61c-6.26 0-11.35 5.072-11.35 11.32v697.61h103.31z" fill="none" stroke="#000" stroke-linecap="round" stroke-width="6.24px"/></g><g transform="matrix(-1,0,0,-1.0028,4968,1200.2)"><path d="m1955.6 260.58c0-6.248-5.08-11.32-11.35-11.32h-80.61c-6.26 0-11.35 5.072-11.35 11.32v697.61h103.31z" fill="none" stroke="#000" stroke-linecap="round" stroke-width="6.24px"/></g><g transform="matrix(-1,0,0,-1.0028,5071.4,1200.2)"><path d="m1955.6 260.58c0-6.248-5.08-11.32-11.35-11.32h-80.61c-6.26 0-11.35 5.072-11.35 11.32v697.61h103.31z" fill="none" stroke="#000" stroke-linecap="round" stroke-width="6.24px"/></g><g transform="matrix(-1,0,0,-1.0028,5174.7,1200.2)"><path d="m1955.6 260.58c0-6.248-5.08-11.32-11.35-11.32h-80.61c-6.26 0-11.35 5.072-11.35 11.32v697.61h103.31z" fill="none" stroke="#000" stroke-linecap="round" stroke-width="6.24px"/></g><g transform="matrix(-1,0,0,-1.0016,4657.2,959.83)"><rect x="1926.8" y="239.31" width="55.911" height="480.06" stroke="#000" stroke-linecap="round" stroke-width="6.25px"/></g><g transform="translate(103.31)"><g transform="matrix(-1,0,0,-1.0016,4657.2,959.83)"><rect x="1926.8" y="239.31" width="55.911" height="480.06" stroke="#000" stroke-linecap="round" stroke-width="6.25px"/></g></g><g transform="translate(309.94)"><g transform="matrix(-1,0,0,-1.0016,4657.2,959.83)"><rect x="1926.8" y="239.31" width="55.911" height="480.06" stroke="#000" stroke-linecap="round" stroke-width="6.25px"/></g></g><g transform="translate(413.25)"><g transform="matrix(-1,0,0,-1.0016,4657.2,959.83)"><rect x="1926.8" y="239.31" width="55.911" height="480.06" stroke="#000" stroke-linecap="round" stroke-width="6.25px"/></g></g><g transform="translate(516.56)"><g transform="matrix(-1,0,0,-1.0016,4657.2,959.83)"><rect x="1926.8" y="239.31" width="55.911" height="480.06" stroke="#000" stroke-linecap="round" stroke-width="6.25px"/></g></g><g transform="matrix(.89538 0 0 1 296.62 0)"><path d="m3379.3 239.31h-807.68" fill="none" stroke="#000" stroke-linecap="square" stroke-width="6.58px"/></g></g><g transform="translate(2934.2 1552.8)"><g transform="matrix(-1,0,0,-1.0028,4554.8,1200.2)"><path d="m1955.6 260.58c0-6.248-5.08-11.32-11.35-11.32h-80.61c-6.26 0-11.35 5.072-11.35 11.32v697.61h103.31z" fill="none" stroke="#000" stroke-linecap="round" stroke-width="6.24px"/></g><g transform="matrix(-1,0,0,-1.0028,4658.1,1200.2)"><path d="m1955.6 260.58c0-6.248-5.08-11.32-11.35-11.32h-80.61c-6.26 0-11.35 5.072-11.35 11.32v697.61h103.31z" fill="none" stroke="#000" stroke-linecap="round" stroke-width="6.24px"/></g><g transform="matrix(-1,0,0,-1.0028,4761.4,1200.2)"><path d="m1955.6 260.58c0-6.248-5.08-11.32-11.35-11.32h-80.61c-6.26 0-11.35 5.072-11.35 11.32v697.61h103.31z" fill="none" stroke="#000" stroke-linecap="round" stroke-width="6.24px"/></g><g transform="matrix(-1,0,0,-1.0028,4864.7,1200.2)"><path d="m1955.6 260.58c0-6.248-5.08-11.32-11.35-11.32h-80.61c-6.26 0-11.35 5.072-11.35 11.32v697.61h103.31z" fill="none" stroke="#000" stroke-linecap="round" stroke-width="6.24px"/></g><g transform="matrix(-1,0,0,-1.0028,4968,1200.2)"><path d="m1955.6 260.58c0-6.248-5.08-11.32-11.35-11.32h-80.61c-6.26 0-11.35 5.072-11.35 11.32v697.61h103.31z" fill="none" stroke="#000" stroke-linecap="round" stroke-width="6.24px"/></g><g transform="matrix(-1,0,0,-1.0028,5071.4,1200.2)"><path d="m1955.6 260.58c0-6.248-5.08-11.32-11.35-11.32h-80.61c-6.26 0-11.35 5.072-11.35 11.32v697.61h103.31z" fill="none" stroke="#000" stroke-linecap="round" stroke-width="6.24px"/></g><g transform="matrix(-1,0,0,-1.0028,5174.7,1200.2)"><path d="m1955.6 260.58c0-6.248-5.08-11.32-11.35-11.32h-80.61c-6.26 0-11.35 5.072-11.35 11.32v697.61h103.31z" fill="none" stroke="#000" stroke-linecap="round" stroke-width="6.24px"/></g><g transform="matrix(-1,0,0,-1.0016,4657.2,959.83)"><rect x="1926.8" y="239.31" width="55.911" height="480.06" stroke="#000" stroke-linecap="round" stroke-width="6.25px"/></g><g transform="translate(103.31)"><g transform="matrix(-1,0,0,-1.0016,4657.2,959.83)"><rect x="1926.8" y="239.31" width="55.911" height="480.06" stroke="#000" stroke-linecap="round" stroke-width="6.25px"/></g></g><g transform="translate(309.94)"><g transform="matrix(-1,0,0,-1.0016,4657.2,959.83)"><rect x="1926.8" y="239.31" width="55.911" height="480.06" stroke="#000" stroke-linecap="round" stroke-width="6.25px"/></g></g><g transform="translate(413.25)"><g transform="matrix(-1,0,0,-1.0016,4657.2,959.83)"><rect x="1926.8" y="239.31" width="55.911" height="480.06" stroke="#000" stroke-linecap="round" stroke-width="6.25px"/></g></g><g transform="translate(516.56)"><g transform="matrix(-1,0,0,-1.0016,4657.2,959.83)"><rect x="1926.8" y="239.31" width="55.911" height="480.06" stroke="#000" stroke-linecap="round" stroke-width="6.25px"/></g></g><g transform="matrix(.89538 0 0 1 296.62 0)"><path d="m3379.3 239.31h-807.68" fill="none" stroke="#000" stroke-linecap="square" stroke-width="6.58px"/></g></g><g transform="translate(3657.4 1552.8)"><g transform="matrix(-1,0,0,-1.0028,4554.8,1200.2)"><path d="m1955.6 260.58c0-6.248-5.08-11.32-11.35-11.32h-80.61c-6.26 0-11.35 5.072-11.35 11.32v697.61h103.31z" fill="none" stroke="#000" stroke-linecap="round" stroke-width="6.24px"/></g></g></g></g><rect x="40.206" y="49.167" width="3.4238" height="12.001" rx=".80789" ry=".45521" fill="none" stroke="#000" stroke-linecap="round" stroke-linejoin="round" stroke-width=".27503"/><rect x="45.197" y="49.167" width="3.4238" height="12.001" rx=".80789" ry=".45521" fill="none" stroke="#000" stroke-linecap="round" stroke-linejoin="round" stroke-width=".27503"/><rect x="40.299" y="62.335" width="3.2389" height="1.7394" rx=".80789" ry=".075337" fill="none" stroke="#000" stroke-linecap="round" stroke-linejoin="round" stroke-width=".3"/><path d="m41.329 63.65q-0.10027 0-0.1535-0.05694t-0.05323-0.16093v-0.45555q0-0.10398 0.05323-0.16093 0.05323-0.05694 0.1535-0.05694t0.1535 0.05694 0.05323 0.16093v0.45554q0 0.10398-0.05323 0.16093-0.05323 0.05694-0.1535 0.05694zm0-0.12379q0.07056 0 0.07056-0.08541v-0.47288q0-0.08542-0.07056-0.08542t-0.07056 0.08542v0.47288q0 0.08541 0.07056 0.08541zm0.49021 0.12379q-0.09779 0-0.14979-0.0557-0.05075-0.05571-0.05075-0.15721v-0.46545q0-0.10151 0.05075-0.15721 0.05199-0.05571 0.14979-0.05571 0.09779 0 0.14855 0.05571 0.05199 0.05571 0.05199 0.15721v0.0916h-0.12874v-0.10027q0-0.08046-0.06808-0.08046t-0.06808 0.08046v0.48402q0 0.07923 0.06808 0.07923t0.06808-0.07923v-0.13246h0.12874v0.12255q0 0.10151-0.05199 0.15721-0.05075 0.0557-0.14855 0.0557zm0.3887-0.75512h-0.14236v-0.12379h0.42089v0.12379h-0.14236v0.74274h-0.13617zm0.23396 0.24758h0.27234v0.12379h-0.27234z" stroke-width=".11408" aria-label="OCT-"/><rect x="45.29" y="62.335" width="3.2389" height="1.7394" rx=".80789" ry=".075337" fill="none" stroke="#000" stroke-linecap="round" stroke-linejoin="round" stroke-width=".3"/><path d="m46.196 63.65q-0.10027 0-0.1535-0.05694t-0.05323-0.16093v-0.45555q0-0.10398 0.05323-0.16093 0.05323-0.05694 0.1535-0.05694t0.1535 0.05694 0.05323 0.16093v0.45554q0 0.10398-0.05323 0.16093-0.05323 0.05694-0.1535 0.05694zm0-0.12379q0.07056 0 0.07056-0.08541v-0.47288q0-0.08542-0.07056-0.08542t-0.07056 0.08542v0.47288q0 0.08541 0.07056 0.08541zm0.49021 0.12379q-0.09779 0-0.14979-0.0557-0.05075-0.05571-0.05075-0.15721v-0.46545q0-0.10151 0.05075-0.15721 0.05199-0.05571 0.14979-0.05571 0.09779 0 0.14855 0.05571 0.05199 0.05571 0.05199 0.15721v0.0916h-0.12874v-0.10027q0-0.08046-0.06808-0.08046t-0.06808 0.08046v0.48402q0 0.07923 0.06808 0.07923t0.06808-0.07923v-0.13246h0.12874v0.12255q0 0.10151-0.05199 0.15721-0.05075 0.0557-0.14855 0.0557zm0.3887-0.75512h-0.14236v-0.12379h0.42089v0.12379h-0.14236v0.74274h-0.13617zm0.49268 0.35775h-0.16588v-0.09656h0.16588v-0.16712h0.09656v0.16712h0.16588v0.09656h-0.16588v0.16959h-0.09656z" stroke-width=".11408" aria-label="OCT+"/><rect x="53.793" y="54.197" width="3.4202" height="1.4209" rx=".85312" ry=".061541" fill="#4396f0" stroke="#000" stroke-linecap="round" stroke-linejoin="round" stroke-width=".27863"/><path d="m55.061 54.474h0.20549q0.10522 0 0.1535 0.04952 0.04828 0.04828 0.04828 0.14979v0.03466q0 0.06685-0.02228 0.10894-0.02104 0.04209-0.06561 0.06066v0.0025q0.10151 0.03466 0.10151 0.18073v0.07427q0 0.10027-0.05323 0.1535-0.05199 0.05199-0.1535 0.05199h-0.21416zm0.1894 0.3528q0.04085 0 0.06066-0.02104 0.02105-0.02104 0.02105-0.07056v-0.04828q0-0.04704-0.01733-0.06808-0.01609-0.02104-0.05199-0.02104h-0.06561v0.22901zm0.02476 0.38994q0.0359 0 0.05323-0.01857 0.01733-0.01981 0.01733-0.06685v-0.07551q0-0.05942-0.02105-0.0817-0.01981-0.02352-0.06685-0.02352h-0.06066v0.26615zm0.39241-0.61895h-0.14236v-0.12379h0.42089v0.12379h-0.14236v0.74274h-0.13617z" stroke-width=".11408" aria-label="BT"/><rect x="53.793" y="56.69" width="3.4202" height="1.4209" rx=".85312" ry=".061541" fill="none" stroke="#000" stroke-linecap="round" stroke-linejoin="round" stroke-width=".27863"/><path d="m54.731 56.967h0.19435l0.08665 0.62019h0.0025l0.08665-0.62019h0.19435v0.86653h-0.12874v-0.65609h-0.0025l-0.09903 0.65609h-0.11389l-0.09903-0.65609h-0.0025v0.65609h-0.11884zm0.85786 0.87891q-0.09779 0-0.14979-0.0557-0.05075-0.05571-0.05075-0.15721v-0.46545q0-0.10151 0.05075-0.15721 0.05199-0.05571 0.14979-0.05571 0.09779 0 0.14855 0.05571 0.05199 0.0557 0.05199 0.15721v0.09161h-0.12874v-0.10027q0-0.08046-0.06808-0.08046t-0.06808 0.08046v0.48402q0 0.07923 0.06808 0.07923t0.06808-0.07923v-0.13246h0.12874v0.12255q0 0.10151-0.05199 0.15721-0.05075 0.0557-0.14855 0.0557zm0.28224-0.87891h0.20054q0.10151 0 0.15226 0.05447t0.05075 0.15969v0.08542q0 0.10522-0.05075 0.15969t-0.15226 0.05447h-0.06437v0.3528h-0.13617zm0.20054 0.38994q0.03342 0 0.04952-0.01857 0.01733-0.01857 0.01733-0.06313v-0.10275q0-0.04456-0.01733-0.06313-0.01609-0.01857-0.04952-0.01857h-0.06437v0.26615z" stroke-width=".11408" aria-label="MCP"/><rect x="53.793" y="59.184" width="3.4202" height="1.4209" rx=".85312" ry=".061541" fill="none" stroke="#000" stroke-linecap="round" stroke-linejoin="round" stroke-width=".27863"/><path d="m54.927 59.461h0.18445l0.14112 0.86653h-0.13617l-0.02476-0.17207v0.0025h-0.15474l-0.02476 0.16959h-0.12626zm0.14855 0.57934-0.06066-0.42831h-0.0025l-0.05942 0.42831zm0.24263-0.57934h0.20178q0.10522 0 0.1535 0.04952 0.04828 0.04828 0.04828 0.14978v0.05323q0 0.13493-0.08913 0.17083v0.0025q0.04952 0.01485 0.06932 0.06066 0.02104 0.0458 0.02104 0.12255v0.15226q0 0.03714 0.0025 0.06066 0.0025 0.02228 0.01238 0.04456h-0.13864q-0.0074-0.02105-0.0099-0.03961-0.0025-0.01857-0.0025-0.06685v-0.15845q0-0.05942-0.01981-0.08294-0.01857-0.02352-0.06561-0.02352h-0.04704v0.37137h-0.13617zm0.18568 0.37137q0.04085 0 0.06066-0.02105 0.02105-0.02104 0.02105-0.07056v-0.06685q0-0.04704-0.01733-0.06808-0.01609-0.02104-0.05199-0.02104h-0.06189v0.24758zm0.31319-0.37137h0.20054q0.10151 0 0.15226 0.05447t0.05075 0.15969v0.08541q0 0.10522-0.05075 0.15969t-0.15226 0.05447h-0.06437v0.3528h-0.13617zm0.20054 0.38994q0.03342 0 0.04952-0.01857 0.01733-0.01857 0.01733-0.06313v-0.10275q0-0.04456-0.01733-0.06313-0.01609-0.01857-0.04952-0.01857h-0.06437v0.26615z" stroke-width=".11408" aria-label="ARP"/><rect x="53.793" y="61.677" width="3.4202" height="1.4209" rx=".85312" ry=".061541" fill="none" stroke="#000" stroke-linecap="round" stroke-linejoin="round" stroke-width=".27863"/><path d="m54.538 62.833q-0.09903 0-0.14979-0.05571-0.05075-0.05694-0.05075-0.16216v-0.04952h0.12874v0.05942q0 0.08418 0.07056 0.08418 0.03466 0 0.05199-0.01981 0.01857-0.02104 0.01857-0.06685 0-0.05447-0.02476-0.09532-0.02476-0.04209-0.09161-0.10027-0.08418-0.07427-0.1176-0.13369-0.03342-0.06066-0.03342-0.13617 0-0.10275 0.05199-0.15845 0.05199-0.05694 0.15102-0.05694 0.09779 0 0.14731 0.05694 0.05075 0.0557 0.05075 0.16093v0.0359h-0.12874v-0.04456q0-0.04456-0.01733-0.06437-0.01733-0.02104-0.05075-0.02104-0.06808 0-0.06808 0.08294 0 0.04704 0.02476 0.08789 0.026 0.04085 0.09284 0.09903 0.08541 0.07427 0.1176 0.13493t0.03219 0.14236q0 0.10646-0.05323 0.1634-0.05199 0.05694-0.15226 0.05694zm0.47535 0q-0.09779 0-0.14979-0.05571-0.05075-0.05571-0.05075-0.15721v-0.46545q0-0.10151 0.05075-0.15721 0.05199-0.05571 0.14979-0.05571 0.09779 0 0.14855 0.05571 0.05199 0.05571 0.05199 0.15721v0.09161h-0.12874v-0.10027q0-0.08046-0.06808-0.08046t-0.06808 0.08046v0.48402q0 0.07923 0.06808 0.07923t0.06808-0.07923v-0.13246h0.12874v0.12255q0 0.10151-0.05199 0.15721-0.05075 0.05571-0.14855 0.05571zm0.58429-0.87891h0.1176l-0.34166 0.86653h-0.1176zm0.37137 0.87891q-0.09779 0-0.14979-0.05571-0.05075-0.05571-0.05075-0.15721v-0.46545q0-0.10151 0.05075-0.15721 0.05199-0.05571 0.14979-0.05571 0.09779 0 0.14855 0.05571 0.05199 0.05571 0.05199 0.15721v0.09161h-0.12874v-0.10027q0-0.08046-0.06808-0.08046t-0.06808 0.08046v0.48402q0 0.07923 0.06808 0.07923t0.06808-0.07923v-0.13246h0.12874v0.12255q0 0.10151-0.05199 0.15721-0.05075 0.05571-0.14855 0.05571zm0.28224-0.87891h0.13617v0.3528h0.14607v-0.3528h0.13617v0.86653h-0.13617v-0.38994h-0.14607v0.38994h-0.13617z" stroke-width=".11408" aria-label="SC/CH"/><rect x="37.38" y="46.141" width="75.48" height="41.567" rx="2.1716" ry="2.162" fill="none" stroke="#000" stroke-linecap="round" stroke-linejoin="round" stroke-width=".30096"/><rect x="51.398" y="48.927" width="5.9943" height="3.704" rx=".49687" ry=".48643" fill="#282828" stroke="#000" stroke-linecap="round" stroke-linejoin="round" stroke-width=".3"/><path d="m51.829 51.899-0.07272-0.07272v-0.97116h0.06334l0.0094 0.01173 0.14544 0.14309v0.74362zm0-1.1025-0.0094 0.01173h-0.06334v-0.97116l0.07272-0.07272 0.14544 0.14544v0.74362zm0.03284-1.065 0.07272-0.07272h1.0931l0.07272 0.07272-0.14544 0.14544h-0.9477zm1.2362 1.1025-0.11025 0.10791v-0.0023h-1.0134v0.0023l-0.1126-0.11025 0.1126-0.11025v0.0023h1.0134zm0.03519-1.0697 0.07272 0.07272v0.97116h-0.06334l-0.01173-0.0094-0.14309-0.14309v-0.74596zm0.6099 2.1347-0.07272-0.07272v-0.97116h0.06334l0.0094 0.01173 0.14544 0.14309v0.74362zm1.2691-1.065-0.11025 0.10791v-0.0023h-1.0134v0.0023l-0.1126-0.11025 0.1126-0.11025v0.0023h1.0134zm1.947 0.03284 0.01173-0.0094h0.06334v0.96881l-0.07272 0.07272-0.14544-0.14544v-0.74362zm0.0023-1.1025 0.07272 0.07272v0.97116h-0.06334l-0.01173-0.0094-0.14309-0.14309v-0.74596z" fill="#fff" stroke-width=".21619" aria-label="Pr1"/><g fill="none" stroke="#000" stroke-linecap="round" stroke-linejoin="round" stroke-width=".3"><circle cx="61.743" cy="50.906" r="1.8379"/><circle cx="68.303" cy="50.906" r="1.8379"/><circle cx="74.864" cy="50.906" r="1.8379"/><circle cx="81.425" cy="50.906" r="1.8379"/><circle cx="87.986" cy="50.906" r="1.8379"/><circle cx="94.547" cy="50.906" r="1.8379"/><circle cx="101.11" cy="50.906" r="1.8379"/><circle cx="107.67" cy="50.906" r="1.8379"/></g><g transform="translate(-18.355 39.539)"><path d="m58.291 5.1191 0.39846-0.00953 0.0064-0.04445-0.15875-0.014288s0.0079-0.0381 0.0079-0.085725v-0.83185l0.01587-0.015875h0.15716c0.12382 0 0.17621 0.033338 0.16828 0.19685h0.05397l0.049209-0.26828s-0.04921 0.00953-0.1143 0.00953h-0.74295c-0.06509 0-0.10636-0.00953-0.10636-0.00953l-0.04921 0.26829h0.05398c0.06032-0.16351 0.10795-0.19685 0.21749-0.19685h0.15716v0.84772c0 0.05715-0.04286 0.09525-0.1143 0.10319zm0.63818-0.34766c0 0.18574 0.11112 0.36195 0.33655 0.36195 0.18891 0 0.27146-0.14922 0.27146-0.14922l-0.01746-0.033338s-0.0762 0.0762-0.20638 0.0762c-0.1778 0-0.25082-0.14129-0.25718-0.28575l0.01588-0.01905 0.39529-0.05715c0.03175-0.00476 0.07303-0.020638 0.07303-0.020638-0.0048-0.17462-0.1397-0.26352-0.27622-0.26352-0.19209 0-0.33496 0.17462-0.33496 0.39052zm0.31115-0.3302c0.1397 0 0.1524 0.18098 0.1524 0.18098l-0.33338 0.042863c0.01429-0.11906 0.07461-0.22384 0.18098-0.22384zm0.41751 0.67786 0.34131-0.00953 0.0063-0.039687-0.127-0.014288s0.0079-0.0381 0.0079-0.085725v-0.381c0.06826-0.068263 0.15716-0.11112 0.2286-0.11112 0.06032 0 0.09366 0.03175 0.09366 0.1524v0.33972c0 0.05715-0.01905 0.09525-0.09049 0.10319v0.046042l0.33338-0.00953 0.0064-0.039687-0.127-0.014288s0.0079-0.0381 0.0079-0.085725v-0.33496c0-0.092075 0.16192-0.15716 0.23336-0.15716 0.05874 0 0.09207 0.03175 0.09207 0.1524v0.33972c0 0.05715-0.01905 0.09525-0.09049 0.10319v0.046038l0.34131-0.00953 0.0063-0.039687-0.13494-0.014288s0.0079-0.0381 0.0079-0.085725v-0.37465c0-0.15875-0.06667-0.21431-0.16986-0.21431-0.12541 0-0.23019 0.087312-0.29051 0.18256 0-0.12541-0.06509-0.18256-0.16669-0.18256-0.12859 0-0.23019 0.092075-0.28734 0.17462 0.0048-0.14129 0.01905-0.19209 0.01905-0.19209l-0.0048-0.00476s-0.09842 0.042863-0.254 0.074613v0.042863h0.06826c0.04604 0 0.04763 0.039687 0.04763 0.10795v0.38576c0 0.05715-0.02699 0.09525-0.09842 0.10319zm1.3414 0.38418c0.1143-0.0381 0.36512-0.068262 0.36512-0.068262l0.0064-0.0381h-0.16669s0.0079-0.042863 0.0079-0.090488v-0.18256c0.03016 0.00476 0.0635 0.00953 0.10636 0.00953 0.2794 0 0.40799-0.20479 0.40799-0.4064 0-0.17462-0.09525-0.34608-0.28892-0.34608-0.12541 0-0.18574 0.06985-0.2286 0.12382 0.0063-0.1016 0.01588-0.14129 0.01588-0.14129l-0.0048-0.00476s-0.09366 0.042863-0.24924 0.074613v0.042863h0.0635c0.04604 0 0.04762 0.039687 0.04762 0.10795v0.7239c0 0.073025-0.01111 0.10954-0.08255 0.14922zm0.32702-0.43021c-0.05239 0-0.1143-0.011113-0.1143-0.085725v-0.44768c0.04921-0.0381 0.10636-0.066675 0.16828-0.066675 0.14129 0 0.20796 0.14764 0.20796 0.30004 0 0.18098-0.09684 0.30004-0.26194 0.30004zm0.5207-0.30004c0 0.2032 0.12382 0.36036 0.34766 0.36036 0.254 0 0.37624-0.20796 0.37624-0.40481 0-0.19526-0.11906-0.34766-0.35084-0.34766-0.26988 0-0.37306 0.20638-0.37306 0.39211zm0.14605-0.036512c0-0.1524 0.06191-0.30162 0.20796-0.30162 0.16034 0 0.22384 0.18098 0.22384 0.33814 0 0.16986-0.07303 0.30639-0.20796 0.30639-0.15875 0-0.22384-0.18415-0.22384-0.3429z" stroke-width=".26458" aria-label="Tempo"/><path d="m60.282 5.7899v3.4059" fill="none" stroke="#a2a2a2" stroke-dasharray="0.3, 0.600002" stroke-linecap="round" stroke-linejoin="round" stroke-width=".3" style="paint-order:normal"/></g><g transform="translate(13.211 .49072)"><path d="m58.722 44.22s0.15081-0.0048 0.23019-0.0048h0.12859c0.39688 0 0.66516-0.20955 0.66516-0.56832 0-0.37465-0.29686-0.49054-0.60484-0.49054h-0.43498v0.03969c0.12224 0.02381 0.13018 0.03969 0.13018 0.11589v0.75882c0 0.05715-0.04286 0.09049-0.1143 0.09842zm0.24606-0.06668s0.0079-0.04127 0.0079-0.0889v-0.83026l0.01588-0.01588h0.14288c0.29686 0 0.45402 0.18415 0.45402 0.46514 0 0.26352-0.13652 0.4699-0.508 0.4699zm0.91281-0.28099c0 0.18574 0.11112 0.36195 0.33655 0.36195 0.18891 0 0.27146-0.14922 0.27146-0.14922l-0.01746-0.03334s-0.0762 0.0762-0.20638 0.0762c-0.1778 0-0.25082-0.14129-0.25718-0.28575l0.01588-0.01905 0.39529-0.05715c0.03175-0.0048 0.07302-0.02064 0.07302-0.02064-0.0048-0.17462-0.1397-0.26352-0.27622-0.26352-0.19209 0-0.33496 0.17462-0.33496 0.39052zm0.31115-0.3302c0.1397 0 0.1524 0.18098 0.1524 0.18098l-0.33338 0.04286c0.01429-0.11906 0.07461-0.22384 0.18098-0.22384zm0.4191 0.3302c0 0.18256 0.1143 0.36195 0.33655 0.36195 0.18415 0 0.25718-0.13811 0.25718-0.13811l-0.01746-0.03334s-0.06509 0.06509-0.18415 0.06509c-0.18732 0-0.26194-0.14922-0.26194-0.30162 0-0.15399 0.07144-0.29051 0.19844-0.29051 0.11112 0 0.12065 0.12382 0.20161 0.12382 0.0381 0 0.06032-0.02699 0.06032-0.05715 0-0.08255-0.15399-0.12065-0.25082-0.12065-0.21908 0-0.33972 0.19844-0.33972 0.39052zm0.68421 0.34766 0.34131-0.0095 0.0063-0.03969-0.127-0.01429s0.0079-0.0381 0.0079-0.08572v-0.22701h0.01905l0.23654 0.2667c0.04445 0.05239 0.06509 0.10954 0.06509 0.10954l0.2286-0.0048 0.0064-0.04763-0.01746-0.0016c-0.05874-0.0048-0.07303-0.01746-0.14288-0.09366l-0.23495-0.254c-0.01111-0.01111-0.0254-0.03175-0.0254-0.03175v-0.01588l0.18415-0.15716c0.07461-0.0635 0.16669-0.08731 0.16669-0.08731l-0.0079-0.0254h-0.29051v0.03969c0.03492 0.0095 0.05239 0.02064 0.05239 0.03969 0 0.02858-0.03492 0.05398-0.06032 0.0762l-0.16034 0.13494h-0.01905v-0.56356c0-0.12224 0.01588-0.18098 0.01588-0.18098l-0.0048-0.0048s-0.07302 0.03175-0.25559 0.07144v0.04286h0.06667c0.04604 0 0.04763 0.03969 0.04763 0.10795v0.80645c0 0.05715-0.02699 0.09525-0.09842 0.10319zm1.2192 0s0.15081-0.0048 0.23019-0.0048h0.4953l0.05874-0.25876h-0.05398c-0.07937 0.16669-0.09842 0.19685-0.23495 0.19685h-0.24924s0.0079-0.04127 0.0079-0.0889v-0.33972l0.01588-0.01588h0.27464v0.11748h0.07461v-0.2794l-0.05874 0.0095-0.0127 0.09049h-0.29369v-0.41275l0.01588-0.01588h0.20796c0.127 0 0.17939 0.03334 0.17145 0.19685h0.05398l0.04921-0.26511s-0.04921 0.0063-0.1143 0.0063h-0.65405v0.03969c0.12224 0.02381 0.13018 0.03969 0.13018 0.11589v0.75882c0 0.05715-0.04286 0.09049-0.1143 0.09842zm1.3319 0.0016c0.10001 0.01905 0.12541 0 0.2159 0.10636 0.06191 0.07144 0.18415 0.24924 0.36671 0.24924 0.09049 0 0.17145-0.04604 0.17145-0.04604v-0.04127c-0.02222 0.0048-0.04445 0.0063-0.06032 0.0063-0.19368 0-0.29845-0.19844-0.40481-0.28575 0.25559-0.0762 0.41275-0.31274 0.41275-0.56198 0-0.28734-0.21114-0.51118-0.54292-0.51118-0.37148 0-0.57626 0.27622-0.57626 0.56198 0 0.25241 0.16034 0.47149 0.41751 0.52229zm-0.26035-0.56356c0-0.23336 0.14446-0.4572 0.39211-0.4572 0.26352 0 0.41275 0.24924 0.41275 0.48736 0 0.23178-0.14446 0.4826-0.3937 0.4826-0.26194 0-0.41116-0.27622-0.41116-0.51276z" stroke-width=".26458" aria-label="Deck EQ"/><path d="m61.653 44.891v3.4059" fill="none" stroke="#a2a2a2" stroke-dasharray="0.3, 0.600002" stroke-linecap="round" stroke-linejoin="round" stroke-width=".3" style="paint-order:normal"/></g><g transform="translate(-4.8266 38.083)"><path d="m60.282 7.5399v10.616" fill="none" stroke="#a2a2a2" stroke-dasharray="0.3, 0.600002" stroke-linecap="round" stroke-linejoin="round" stroke-width=".3" style="paint-order:normal"/><g stroke-width=".26458" aria-label="Layer Select"><path d="m58.553 4.9609s0.14288-0.00476 0.22225-0.00476h0.51118l0.06509-0.29051h-0.05398c-0.07937 0.17939-0.10478 0.2286-0.2413 0.2286h-0.26511s0.0079-0.039688 0.0079-0.087313v-0.71755c0-0.13176 0.05239-0.19209 0.05239-0.19209l-0.0079-0.00635s-0.03493 0.00635-0.1778 0.00635h-0.12382v0.039688c0.11748 0.023813 0.11748 0.039687 0.11748 0.11589v0.75882c0 0.05715-0.03492 0.090488-0.10636 0.098425zm0.8509-0.14605c0 0.085725 0.06032 0.16034 0.1651 0.16034 0.16351 0 0.24765-0.15081 0.24765-0.15081v0.0381c0 0.077788 0.04763 0.11271 0.10795 0.11271 0.09366 0 0.16828-0.084138 0.16828-0.084138l-0.02064-0.033338s-0.04445 0.03175-0.08731 0.03175c-0.03651 0-0.04286-0.023813-0.04286-0.074613v-0.36512c0-0.16669-0.03969-0.22701-0.18891-0.22701-0.1778 0-0.29369 0.0889-0.29369 0.0889l0.02699 0.11906h0.0508s0.06032-0.1524 0.16828-0.1524c0.05874 0 0.0889 0.042863 0.10001 0.1016 0.0079 0.04445 0.0079 0.13652 0.0063 0.16986l-0.05397 0.00794c-0.1651 0.0254-0.35401 0.10478-0.35401 0.25718zm0.2286 0.06985c-0.04763 0-0.0889-0.034925-0.0889-0.098425 0-0.1143 0.12859-0.16192 0.21908-0.17621l0.04921-0.00794v0.18732c-0.04127 0.034925-0.11748 0.09525-0.17939 0.09525zm0.56038 0.31591c-0.05715 0-0.07779 0.033338-0.07779 0.065087 0 0.034925 0.02381 0.066675 0.06985 0.066675 0.1524 0 0.24289-0.26194 0.28575-0.35719l0.27464-0.62389c0.02858-0.068263 0.05715-0.084137 0.05715-0.084137l-0.0079-0.0254h-0.22066v0.039688c0.05874 0.015875 0.1143 0.0508 0.08731 0.1143l-0.17939 0.40958c-0.0079-0.028575-0.02064-0.068262-0.03016-0.09525l-0.12862-0.32226c-0.01746-0.042863-0.01746-0.10795 0.0016-0.14605l-0.0063-0.00635s-0.06191 0.00635-0.16192 0.00635h-0.07461v0.039688s0.05556 0.0127 0.0889 0.092075l0.2032 0.48578c0.01746 0.04445 0.03016 0.080963 0.0381 0.10319l-0.0508 0.11906c-0.02857 0.065088-0.08414 0.11906-0.16828 0.11906zm0.67469-0.58738c0 0.18574 0.11112 0.36195 0.33655 0.36195 0.18891 0 0.27146-0.14922 0.27146-0.14922l-0.01746-0.033338s-0.0762 0.0762-0.20638 0.0762c-0.1778 0-0.25082-0.14129-0.25718-0.28575l0.01587-0.01905 0.39529-0.05715c0.03175-0.00476 0.07303-0.020637 0.07303-0.020637-0.0048-0.17462-0.1397-0.26352-0.27622-0.26352-0.19209 0-0.33496 0.17462-0.33496 0.39052zm0.31115-0.3302c0.1397 0 0.1524 0.18098 0.1524 0.18098l-0.33338 0.042863c0.01429-0.11906 0.07461-0.22384 0.18098-0.22384zm0.4191 0.67786 0.36512-0.00953 0.0063-0.039688-0.15081-0.014288s0.0079-0.0381 0.0079-0.085725v-0.37306c0.03493-0.039688 0.08731-0.092075 0.14129-0.092075 0.03651 0 0.04127 0.026987 0.07779 0.026987 0.04127 0 0.07461-0.030162 0.07461-0.077787 0-0.053975-0.04763-0.073025-0.08573-0.073025-0.08255 0-0.16669 0.09525-0.21431 0.18415 0.0048-0.14922 0.01905-0.20161 0.01905-0.20161l-0.0048-0.00476s-0.1016 0.042863-0.25718 0.074612v0.042863h0.07144c0.04604 0 0.04763 0.039688 0.04763 0.10795v0.38576c0 0.05715-0.02699 0.09525-0.09842 0.10319z"/><path d="m58.402 6.796c0 0.11589 0.16828 0.16351 0.30639 0.16351 0.1905 0 0.35401-0.0889 0.35401-0.2794 0-0.34131-0.49689-0.31432-0.49689-0.59214 0-0.11589 0.09049-0.1651 0.19685-0.1651 0.13335 0 0.19368 0.098425 0.1778 0.21749h0.05398l0.04921-0.24765c-0.03493-0.00476-0.14922-0.030162-0.26194-0.030162-0.23495 0-0.35401 0.11906-0.35401 0.27622 0 0.32226 0.49689 0.3175 0.49689 0.59372 0 0.12224-0.09843 0.16669-0.20161 0.16669-0.10795 0-0.23019-0.0508-0.23019-0.24448h-0.05398c-0.03016 0.09525-0.03651 0.11748-0.03651 0.14129zm0.79375-0.19844c0 0.18574 0.11112 0.36195 0.33655 0.36195 0.18891 0 0.27146-0.14922 0.27146-0.14922l-0.01746-0.033338s-0.0762 0.0762-0.20638 0.0762c-0.1778 0-0.25082-0.14129-0.25718-0.28575l0.01588-0.01905 0.39529-0.05715c0.03175-0.00476 0.07303-0.020637 0.07303-0.020637-0.0048-0.17462-0.1397-0.26352-0.27622-0.26352-0.19209 0-0.33496 0.17462-0.33496 0.39052zm0.31115-0.3302c0.1397 0 0.1524 0.18098 0.1524 0.18098l-0.33338 0.042863c0.01429-0.11906 0.07461-0.22384 0.18098-0.22384zm0.40322 0.67786 0.34925-0.00953 0.0064-0.039688-0.13494-0.014288s0.0079-0.0381 0.0079-0.085725v-0.84296c0-0.12224 0.01588-0.18098 0.01588-0.18098l-0.0048-0.00476s-0.07303 0.03175-0.25559 0.071438v0.042863h0.06668c0.04604 0 0.04762 0.039687 0.04762 0.10795v0.80645c0 0.05715-0.02699 0.09525-0.09842 0.10319zm0.43498-0.34766c0 0.18574 0.11112 0.36195 0.33655 0.36195 0.18891 0 0.27146-0.14922 0.27146-0.14922l-0.01746-0.033338s-0.0762 0.0762-0.20638 0.0762c-0.1778 0-0.25082-0.14129-0.25718-0.28575l0.01587-0.01905 0.39529-0.05715c0.03175-0.00476 0.07303-0.020637 0.07303-0.020637-0.0048-0.17462-0.1397-0.26352-0.27622-0.26352-0.19209 0-0.33496 0.17462-0.33496 0.39052zm0.31115-0.3302c0.1397 0 0.1524 0.18098 0.1524 0.18098l-0.33338 0.042863c0.01429-0.11906 0.07461-0.22384 0.18098-0.22384zm0.4191 0.3302c0 0.18256 0.1143 0.36195 0.33655 0.36195 0.18415 0 0.25718-0.13811 0.25718-0.13811l-0.01746-0.033338s-0.06509 0.065087-0.18415 0.065087c-0.18732 0-0.26194-0.14922-0.26194-0.30162 0-0.15399 0.07144-0.29051 0.19844-0.29051 0.11112 0 0.12065 0.12382 0.20161 0.12382 0.0381 0 0.06032-0.026988 0.06032-0.05715 0-0.08255-0.15399-0.12065-0.25082-0.12065-0.21908 0-0.33972 0.19844-0.33972 0.39052zm0.77788 0.15399c0 0.14446 0.0635 0.20796 0.17621 0.20796 0.13811 0 0.2286-0.098425 0.2286-0.098425l-0.02064-0.030162s-0.07144 0.033338-0.14288 0.033338c-0.08414 0-0.11112-0.0508-0.11112-0.14288v-0.40322l0.01588-0.015875h0.21908l0.01111-0.0762h-0.24765v-0.023813c0-0.11271 0.01429-0.15875 0.01429-0.15875l-0.0048-0.00476-0.07144-0.00159-0.05874 0.17304c-0.0381 0.034925-0.10795 0.049213-0.10795 0.049213v0.047625h0.10478s-0.0048 0.05715-0.0048 0.10319z"/></g></g><g transform="translate(-13.357 39.644)"><path d="m58.2 3.5221 0.05239 0.01905 0.36512-0.88106c0.05715-0.13811 0.10319-0.16986 0.10319-0.16986l-0.0063-0.022225h-0.24289v0.039687c0.08414 0.023813 0.10636 0.065088 0.0762 0.13811l-0.28575 0.69374c-0.0079-0.030162-0.02064-0.06985-0.03016-0.098425l-0.23342-0.62706c-0.01746-0.046037-0.0079-0.10795 0.0095-0.14605l-0.0064-0.00635s-0.0635 0.00635-0.16351 0.00635h-0.09684v0.039687s0.06667 0.01905 0.09366 0.087312zm0.49371-0.33655c0 0.2032 0.12382 0.36036 0.34766 0.36036 0.254 0 0.37624-0.20796 0.37624-0.40481 0-0.19526-0.11906-0.34766-0.35084-0.34766-0.26988 0-0.37306 0.20638-0.37306 0.39211zm0.14605-0.036513c0-0.1524 0.06191-0.30162 0.20796-0.30162 0.16034 0 0.22384 0.18098 0.22384 0.33814 0 0.16986-0.07302 0.30639-0.20796 0.30639-0.15875 0-0.22384-0.18415-0.22384-0.3429zm0.67786 0.38259 0.34925-0.00953 0.0063-0.039687-0.13494-0.014288s0.0079-0.0381 0.0079-0.085725v-0.84296c0-0.12224 0.01588-0.18098 0.01588-0.18098l-0.0048-0.00476s-0.07302 0.03175-0.25559 0.071438v0.042863h0.06667c0.04604 0 0.04763 0.039687 0.04763 0.10795v0.80645c0 0.05715-0.02699 0.09525-0.09842 0.10319zm0.51118-0.19844c0 0.1524 0.06826 0.21272 0.17939 0.21272 0.13335 0 0.23812-0.093663 0.29528-0.1778v0.08255c0 0.039687-0.01429 0.085725-0.01429 0.085725l0.0063 0.00476s0.08731-0.014288 0.26035-0.03175l0.0048-0.042863h-0.04445c-0.05239 0-0.0889 0-0.0889-0.090488v-0.4191c0-0.12224 0.01429-0.16669 0.01429-0.16669l-0.0064-0.00476s-0.08572 0.03175-0.23812 0.058737v0.04445h0.05239c0.04604 0 0.04762 0.039687 0.04762 0.10795v0.33972c-0.06826 0.06985-0.15716 0.11271-0.23019 0.11271-0.06509 0-0.10795-0.03175-0.10795-0.1524v-0.33972c0-0.12224 0.01429-0.16669 0.01429-0.16669l-0.0063-0.00476s-0.08731 0.03175-0.2413 0.058737v0.04445h0.05556c0.04604 0 0.04762 0.039687 0.04762 0.10795zm0.80962 0.19844 0.34131-0.00953 0.0063-0.039687-0.127-0.014288s0.0079-0.0381 0.0079-0.085725v-0.381c0.06826-0.068262 0.15716-0.11112 0.2286-0.11112 0.06032 0 0.09366 0.03175 0.09366 0.1524v0.33972c0 0.05715-0.01905 0.09525-0.09049 0.10319v0.046038l0.33338-0.00953 0.0063-0.039687-0.127-0.014288s0.0079-0.0381 0.0079-0.085725v-0.33495c0-0.092075 0.16192-0.15716 0.23336-0.15716 0.05874 0 0.09208 0.03175 0.09208 0.1524v0.33972c0 0.05715-0.01905 0.09525-0.09049 0.10319v0.046038l0.34131-0.00953 0.0063-0.039687-0.13494-0.014288s0.0079-0.0381 0.0079-0.085725v-0.37465c0-0.15875-0.06668-0.21431-0.16986-0.21431-0.12541 0-0.23019 0.087312-0.29051 0.18256 0-0.12541-0.06509-0.18256-0.16669-0.18256-0.12859 0-0.23019 0.092075-0.28734 0.17462 0.0048-0.14129 0.01905-0.19209 0.01905-0.19209l-0.0048-0.00476s-0.09843 0.042863-0.254 0.074613v0.042863h0.06826c0.04604 0 0.04762 0.039687 0.04762 0.10795v0.38576c0 0.05715-0.02699 0.09525-0.09842 0.10319zm1.3414-0.34766c0 0.18574 0.11112 0.36195 0.33655 0.36195 0.18891 0 0.27146-0.14922 0.27146-0.14922l-0.01746-0.033338s-0.0762 0.0762-0.20638 0.0762c-0.1778 0-0.25082-0.14129-0.25718-0.28575l0.01588-0.01905 0.39529-0.05715c0.03175-0.00476 0.07303-0.020637 0.07303-0.020637-0.0048-0.17462-0.1397-0.26352-0.27622-0.26352-0.19209 0-0.33496 0.17462-0.33496 0.39052zm0.31115-0.3302c0.1397 0 0.1524 0.18098 0.1524 0.18098l-0.33338 0.042863c0.01429-0.11906 0.07461-0.22384 0.18098-0.22384z" stroke-width=".26458" aria-label="Volume"/><path d="m60.282 4.3087v4.6324" fill="none" stroke="#a2a2a2" stroke-dasharray="0.3, 0.600002" stroke-linecap="round" stroke-linejoin="round" stroke-width=".3" style="paint-order:normal"/></g><g transform="translate(34.248 39.539)"><path d="m57.744 5.1144h0.32544l0.0064-0.049212-0.14605-0.01905 0.27146-0.38735 0.23178 0.34766c0.02699 0.041275 0.01588 0.055562-0.04921 0.0635v0.0508s0.18098-0.00635 0.25241-0.00635h0.07144l0.0063-0.04445-0.08096-0.0127-0.34131-0.50165 0.2667-0.381c0.06032-0.080963 0.11748-0.093662 0.11748-0.093662l-0.0079-0.0254h-0.26988v0.039688c0.07938 0.0127 0.09049 0.053975 0.06191 0.09525l-0.20796 0.30321-0.2159-0.32385c-0.03492-0.052388-0.01111-0.1143-0.01111-0.1143l-0.0063-0.00635s-0.05556 0.00635-0.15716 0.00635h-0.09842v0.039688s0.06668 0.011113 0.10636 0.06985l0.29051 0.43021-0.28575 0.40799c-0.02064 0.028575-0.06032 0.058737-0.13018 0.065087zm1.0112-0.34449h0.37465v-0.10478h-0.37465zm0.4953 0.34925 0.41434-0.00953 0.0064-0.04445-0.17462-0.014288s0.0079-0.0381 0.0079-0.085725v-0.33338l0.01588-0.015875h0.26351v0.11748h0.07461v-0.2794l-0.05874 0.00953-0.0127 0.090488h-0.28257v-0.42069l0.01588-0.015875h0.19209c0.127 0 0.17939 0.033338 0.17145 0.19685h0.05398l0.049202-0.26511s-0.04921 0.00635-0.1143 0.00635h-0.63818v0.039688c0.12224 0.023812 0.13018 0.039687 0.13018 0.11589v0.75406c0 0.05715-0.04286 0.09525-0.1143 0.10319zm0.75089-0.14605c0 0.085725 0.06033 0.16034 0.1651 0.16034 0.16351 0 0.24765-0.15081 0.24765-0.15081v0.0381c0 0.077788 0.04763 0.11271 0.10795 0.11271 0.09366 0 0.16828-0.084137 0.16828-0.084137l-0.02064-0.033338s-0.04445 0.03175-0.08731 0.03175c-0.03651 0-0.04286-0.023813-0.04286-0.074612v-0.36513c0-0.16669-0.03969-0.22701-0.18891-0.22701-0.1778 0-0.29369 0.0889-0.29369 0.0889l0.02699 0.11906h0.0508s0.06033-0.1524 0.16828-0.1524c0.05874 0 0.0889 0.042863 0.10001 0.1016 0.0079 0.04445 0.0079 0.13652 0.0064 0.16986l-0.05398 0.00794c-0.1651 0.0254-0.35401 0.10478-0.35401 0.25718zm0.2286 0.06985c-0.04762 0-0.0889-0.034925-0.0889-0.098425 0-0.1143 0.12859-0.16192 0.21908-0.17621l0.04921-0.00794v0.18733c-0.04127 0.034925-0.11748 0.09525-0.17939 0.09525zm0.51594-0.254c0 0.17304 0.10319 0.34449 0.29845 0.34449 0.11906 0 0.18415-0.065087 0.22701-0.12859v0.033338c0 0.039688-0.0063 0.084138-0.0063 0.084138l0.0048 0.00476s0.08096-0.0127 0.254-0.030163l0.0048-0.042863h-0.04445c-0.05239 0-0.0889 0-0.0889-0.090488v-0.83661c0-0.12224 0.01588-0.18098 0.01588-0.18098l-0.0048-0.00476s-0.07303 0.03175-0.25559 0.071437v0.042863h0.06668c0.04604 0 0.04762 0.039688 0.04762 0.10795v0.22701s-0.05556-0.00953-0.11271-0.00953c-0.27146 0-0.4064 0.20796-0.4064 0.40799zm0.35401 0.25241c-0.14288 0-0.2159-0.14764-0.2159-0.30004 0-0.18415 0.10478-0.30004 0.2667-0.30004 0.0508 0 0.1143 0.011113 0.1143 0.084137v0.44609c-0.0254 0.0254-0.08731 0.06985-0.1651 0.06985zm0.50324-0.26988c0 0.18574 0.11112 0.36195 0.33655 0.36195 0.18891 0 0.27146-0.14922 0.27146-0.14922l-0.01746-0.033338s-0.0762 0.0762-0.20638 0.0762c-0.1778 0-0.25082-0.14129-0.25718-0.28575l0.01588-0.01905 0.39529-0.05715c0.03175-0.00476 0.07303-0.020638 0.07303-0.020638-0.0048-0.17462-0.1397-0.26352-0.27622-0.26352-0.19209 0-0.33496 0.17462-0.33496 0.39052zm0.31115-0.3302c0.1397 0 0.1524 0.18098 0.1524 0.18098l-0.33338 0.042863c0.01429-0.11906 0.07461-0.22384 0.18098-0.22384zm0.4191 0.67786 0.36512-0.00953 0.0063-0.039687-0.15081-0.014288s0.0079-0.0381 0.0079-0.085725v-0.37306c0.03493-0.039687 0.08731-0.092075 0.14129-0.092075 0.03651 0 0.04127 0.026987 0.07779 0.026987 0.04127 0 0.07461-0.030163 0.07461-0.077788 0-0.053975-0.04763-0.073025-0.08573-0.073025-0.08255 0-0.16669 0.09525-0.21431 0.18415 0.0048-0.14922 0.01905-0.20161 0.01905-0.20161l-0.0048-0.00476s-0.1016 0.042863-0.25718 0.074613v0.042863h0.07144c0.04604 0 0.04763 0.039687 0.04763 0.10795v0.38576c0 0.05715-0.02699 0.09525-0.09843 0.10319z" stroke-width=".26458" aria-label="X-Fader"/><path d="m60.282 5.7899v3.4059" fill="none" stroke="#a2a2a2" stroke-dasharray="0.3, 0.600002" stroke-linecap="round" stroke-linejoin="round" stroke-width=".3" style="paint-order:normal"/></g><g transform="translate(40.856 39.539)"><g stroke-width=".26458" aria-label="Main Gain"><path d="m58.615 3.0025 0.31274-0.00953 0.0063-0.04445-0.14605-0.00953s0.0095-0.041275 0.01111-0.085725l0.02857-0.71438c0.0016-0.030162 0.0048-0.061913 0.0048-0.061913l0.36671 0.9017 0.04921 0.01905 0.381-0.92234 0.03493 0.78264c0.0016 0.053975-0.04445 0.085725-0.1143 0.093663v0.0508l0.37941-0.00953 0.0064-0.04445-0.1397-0.00953s0.0064-0.03175 0.0048-0.080963l-0.030233-0.71912c-0.0048-0.13494 0.0508-0.20002 0.0508-0.20002l-0.0079-0.00635s-0.03175 0.00635-0.17145 0.00635h-0.04127s-0.02222 0.0762-0.03493 0.10954l-0.30798 0.7493c-0.0079-0.028575-0.01905-0.0635-0.03016-0.090488l-0.24289-0.6223c-0.0254-0.0635-0.04604-0.14605-0.04604-0.14605l-0.0063-0.00635s-0.04763 0.00635-0.17462 0.00635h-0.127v0.039687c0.12224 0.023813 0.13176 0.039688 0.12859 0.11589l-0.03016 0.75882c-0.0032 0.058737-0.04286 0.090488-0.1143 0.098425zm1.4033-0.14605c0 0.085725 0.06032 0.16034 0.1651 0.16034 0.16351 0 0.24765-0.15081 0.24765-0.15081v0.0381c0 0.077787 0.04763 0.11271 0.10795 0.11271 0.09366 0 0.16828-0.084137 0.16828-0.084137l-0.02064-0.033338s-0.04445 0.03175-0.08731 0.03175c-0.03651 0-0.04286-0.023813-0.04286-0.074612v-0.36512c0-0.16669-0.03969-0.22701-0.18891-0.22701-0.1778 0-0.29369 0.0889-0.29369 0.0889l0.02699 0.11906h0.0508s0.06032-0.1524 0.16828-0.1524c0.05874 0 0.0889 0.042863 0.10001 0.1016 0.0079 0.04445 0.0079 0.13652 0.0063 0.16986l-0.05398 0.00794c-0.1651 0.0254-0.35401 0.10478-0.35401 0.25718zm0.2286 0.06985c-0.04762 0-0.0889-0.034925-0.0889-0.098425 0-0.1143 0.12859-0.16192 0.21908-0.17621l0.04921-0.00794v0.18732c-0.04127 0.034925-0.11748 0.09525-0.17939 0.09525zm0.51752 0.0762 0.34925-0.00953 0.0063-0.039687-0.13494-0.014288s0.0079-0.0381 0.0079-0.085725v-0.42545c0-0.12859 0.01746-0.18098 0.01746-0.18098l-0.0016-0.00476s-0.03334 0.020637-0.26511 0.074612v0.042863h0.07144c0.04604 0 0.04762 0.039687 0.04762 0.10795v0.38576c0 0.05715-0.02699 0.09525-0.09842 0.10319zm0.14922-0.90011c0.04604 0 0.08573-0.039688 0.08573-0.085725 0-0.046038-0.03969-0.085725-0.08573-0.085725s-0.08572 0.039687-0.08572 0.085725c0 0.046037 0.03969 0.085725 0.08572 0.085725zm0.29051 0.90011 0.34131-0.00953 0.0064-0.039687-0.127-0.015875s0.0079-0.036513 0.0079-0.084138v-0.381c0.06668-0.068263 0.16351-0.11112 0.23654-0.11112 0.0635 0 0.10954 0.03175 0.10954 0.1524v0.33972c0 0.05715-0.01905 0.09525-0.09049 0.10319v0.046037l0.34131-0.00953 0.0063-0.039687-0.13494-0.015875s0.0079-0.036513 0.0079-0.084138v-0.37465c0-0.15399-0.07144-0.21431-0.18098-0.21431-0.13335 0-0.24448 0.090488-0.30162 0.17621 0.0016-0.14129 0.01588-0.19368 0.01588-0.19368l-0.0048-0.00476s-0.09843 0.042863-0.254 0.074612v0.042863h0.07144c0.04604 0 0.04763 0.039687 0.04763 0.10795v0.38576c0 0.05715-0.02699 0.09525-0.09843 0.10319z"/><path d="m58.771 4.4741c0 0.34131 0.26194 0.52705 0.57944 0.52705 0.11589 0 0.25718-0.0254 0.36036-0.041275v-0.25876c0-0.12224 0.06191-0.15081 0.06191-0.15081l-0.0079-0.022225h-0.33814v0.039687c0.1397 0.020638 0.14605 0.039688 0.14605 0.11589v0.23019c-0.05715 0.0127-0.10795 0.01905-0.15875 0.01905-0.2921 0-0.48736-0.20796-0.48736-0.4953 0-0.25082 0.14446-0.47308 0.42228-0.47308 0.12541 0 0.26352 0.042863 0.26511 0.21749h0.05398l0.04763-0.24289c-0.05239-0.00476-0.22066-0.034925-0.3556-0.034925-0.4064 0-0.58896 0.28575-0.58896 0.56991zm1.0954 0.36671c0 0.085725 0.06032 0.16034 0.1651 0.16034 0.16351 0 0.24765-0.15081 0.24765-0.15081v0.0381c0 0.077788 0.04762 0.11271 0.10795 0.11271 0.09366 0 0.16828-0.084137 0.16828-0.084137l-0.02064-0.033338s-0.04445 0.03175-0.08731 0.03175c-0.03651 0-0.04286-0.023813-0.04286-0.074612v-0.36512c0-0.16669-0.03969-0.22701-0.18891-0.22701-0.1778 0-0.29369 0.0889-0.29369 0.0889l0.02699 0.11906h0.0508s0.06032-0.1524 0.16828-0.1524c0.05874 0 0.0889 0.042863 0.10001 0.1016 0.0079 0.04445 0.0079 0.13652 0.0063 0.16986l-0.05398 0.00794c-0.1651 0.0254-0.35401 0.10478-0.35401 0.25718zm0.2286 0.06985c-0.04763 0-0.0889-0.034925-0.0889-0.098425 0-0.1143 0.12859-0.16192 0.21908-0.17621l0.04921-0.00794v0.18732c-0.04127 0.034925-0.11748 0.09525-0.17939 0.09525zm0.51752 0.0762 0.34925-0.00953 0.0063-0.039687-0.13494-0.014288s0.0079-0.0381 0.0079-0.085725v-0.42545c0-0.12859 0.01746-0.18098 0.01746-0.18098l-0.0016-0.00476s-0.03334 0.020638-0.26511 0.074613v0.042863h0.07144c0.04604 0 0.04762 0.039687 0.04762 0.10795v0.38576c0 0.05715-0.02699 0.09525-0.09842 0.10319zm0.14922-0.90011c0.04604 0 0.08573-0.039688 0.08573-0.085725 0-0.046038-0.03969-0.085725-0.08573-0.085725s-0.08572 0.039687-0.08572 0.085725c0 0.046037 0.03969 0.085725 0.08572 0.085725zm0.29051 0.90011 0.34131-0.00953 0.0063-0.039687-0.127-0.015875s0.0079-0.036512 0.0079-0.084137v-0.381c0.06668-0.068263 0.16351-0.11112 0.23654-0.11112 0.0635 0 0.10954 0.03175 0.10954 0.1524v0.33972c0 0.05715-0.01905 0.09525-0.09049 0.10319v0.046037l0.34131-0.00953 0.0063-0.039687-0.13494-0.015875s0.0079-0.036512 0.0079-0.084137v-0.37465c0-0.15399-0.07144-0.21431-0.18098-0.21431-0.13335 0-0.24448 0.090488-0.30162 0.17621 0.0016-0.14129 0.01588-0.19368 0.01588-0.19368l-0.0048-0.00476s-0.09842 0.042863-0.254 0.074613v0.042863h0.07144c0.04604 0 0.04763 0.039687 0.04763 0.10795v0.38576c0 0.05715-0.02699 0.09525-0.09843 0.10319z"/></g><path d="m60.282 5.7899v3.4059" fill="none" stroke="#a2a2a2" stroke-dasharray="0.3, 0.600002" stroke-linecap="round" stroke-linejoin="round" stroke-width=".3" style="paint-order:normal"/></g><g transform="translate(47.337 39.539)"><g stroke-width=".26458" aria-label="Head Gain"><path d="m58.6 3.0025 0.38259-0.00953 0.0063-0.04445-0.14288-0.014288s0.0079-0.0381 0.0079-0.085725v-0.33972l0.01588-0.015875h0.59055v0.36036c0 0.053975-0.04445 0.090488-0.1143 0.098425v0.0508l0.38259-0.00953 0.0063-0.04445-0.14288-0.014288s0.0079-0.0381 0.0079-0.085725v-0.71755c0-0.13176 0.05239-0.1905 0.05239-0.1905l-0.0079-0.00635s-0.03493 0.00476-0.1778 0.00476h-0.12369v0.039687c0.11748 0.023813 0.11748 0.039688 0.11748 0.11589v0.31591l-0.01588 0.015875h-0.59055v-0.29528c0-0.13176 0.05239-0.19209 0.05239-0.19209l-0.0079-0.00635s-0.03493 0.00635-0.1778 0.00635h-0.12382v0.039687c0.11748 0.023813 0.11748 0.039688 0.11748 0.11589v0.75406c0 0.05715-0.04286 0.09525-0.1143 0.10319zm1.2256-0.34766c0 0.18574 0.11112 0.36195 0.33655 0.36195 0.18891 0 0.27146-0.14922 0.27146-0.14922l-0.01746-0.033338s-0.0762 0.0762-0.20638 0.0762c-0.1778 0-0.25082-0.14129-0.25718-0.28575l0.01588-0.01905 0.39529-0.05715c0.03175-0.00476 0.07302-0.020638 0.07302-0.020638-0.0048-0.17462-0.1397-0.26352-0.27622-0.26352-0.19209 0-0.33496 0.17462-0.33496 0.39052zm0.31115-0.3302c0.1397 0 0.1524 0.18098 0.1524 0.18098l-0.33338 0.042863c0.01429-0.11906 0.07461-0.22384 0.18098-0.22384zm0.40322 0.53181c0 0.085725 0.06032 0.16034 0.1651 0.16034 0.16351 0 0.24765-0.15081 0.24765-0.15081v0.0381c0 0.077787 0.04762 0.11271 0.10795 0.11271 0.09366 0 0.16828-0.084137 0.16828-0.084137l-0.02064-0.033338s-0.04445 0.03175-0.08731 0.03175c-0.03651 0-0.04286-0.023813-0.04286-0.074612v-0.36512c0-0.16669-0.03969-0.22701-0.18891-0.22701-0.1778 0-0.29369 0.0889-0.29369 0.0889l0.02699 0.11906h0.0508s0.06032-0.1524 0.16828-0.1524c0.05874 0 0.0889 0.042863 0.10001 0.1016 0.0079 0.04445 0.0079 0.13652 0.0063 0.16986l-0.05398 0.00794c-0.1651 0.0254-0.35401 0.10478-0.35401 0.25718zm0.2286 0.06985c-0.04762 0-0.0889-0.034925-0.0889-0.098425 0-0.1143 0.12859-0.16192 0.21908-0.17621l0.04921-0.00794v0.18732c-0.04127 0.034925-0.11748 0.09525-0.17939 0.09525zm0.51594-0.254c0 0.17304 0.10319 0.34449 0.29845 0.34449 0.11906 0 0.18415-0.065087 0.22701-0.12859v0.033337c0 0.039688-0.0063 0.084138-0.0063 0.084138l0.0048 0.00476s0.08096-0.0127 0.254-0.030162l0.0048-0.042863h-0.04445c-0.05239 0-0.0889 0-0.0889-0.090488v-0.83661c0-0.12224 0.01588-0.18098 0.01588-0.18098l-0.0048-0.00476s-0.07302 0.03175-0.25559 0.071438v0.042863h0.06668c0.04604 0 0.04762 0.039687 0.04762 0.10795v0.22701s-0.05556-0.00953-0.11271-0.00953c-0.27146 0-0.4064 0.20796-0.4064 0.40799zm0.35401 0.25241c-0.14288 0-0.2159-0.14764-0.2159-0.30004 0-0.18415 0.10478-0.30004 0.2667-0.30004 0.0508 0 0.1143 0.011112 0.1143 0.084137v0.44609c-0.0254 0.0254-0.08731 0.06985-0.1651 0.06985z"/><path d="m58.771 4.4741c0 0.34131 0.26194 0.52705 0.57944 0.52705 0.11589 0 0.25718-0.0254 0.36036-0.041275v-0.25876c0-0.12224 0.06191-0.15081 0.06191-0.15081l-0.0079-0.022225h-0.33814v0.039687c0.1397 0.020638 0.14605 0.039688 0.14605 0.11589v0.23019c-0.05715 0.0127-0.10795 0.01905-0.15875 0.01905-0.2921 0-0.48736-0.20796-0.48736-0.4953 0-0.25082 0.14446-0.47308 0.42228-0.47308 0.12541 0 0.26352 0.042863 0.26511 0.21749h0.05398l0.04763-0.24289c-0.05239-0.00476-0.22066-0.034925-0.3556-0.034925-0.4064 0-0.58896 0.28575-0.58896 0.56991zm1.0954 0.36671c0 0.085725 0.06032 0.16034 0.1651 0.16034 0.16351 0 0.24765-0.15081 0.24765-0.15081v0.0381c0 0.077788 0.04762 0.11271 0.10795 0.11271 0.09366 0 0.16828-0.084137 0.16828-0.084137l-0.02064-0.033338s-0.04445 0.03175-0.08731 0.03175c-0.03651 0-0.04286-0.023813-0.04286-0.074612v-0.36512c0-0.16669-0.03969-0.22701-0.18891-0.22701-0.1778 0-0.29369 0.0889-0.29369 0.0889l0.02699 0.11906h0.0508s0.06032-0.1524 0.16828-0.1524c0.05874 0 0.0889 0.042863 0.10001 0.1016 0.0079 0.04445 0.0079 0.13652 0.0063 0.16986l-0.05398 0.00794c-0.1651 0.0254-0.35401 0.10478-0.35401 0.25718zm0.2286 0.06985c-0.04763 0-0.0889-0.034925-0.0889-0.098425 0-0.1143 0.12859-0.16192 0.21908-0.17621l0.04921-0.00794v0.18732c-0.04127 0.034925-0.11748 0.09525-0.17939 0.09525zm0.51752 0.0762 0.34925-0.00953 0.0063-0.039687-0.13494-0.014288s0.0079-0.0381 0.0079-0.085725v-0.42545c0-0.12859 0.01746-0.18098 0.01746-0.18098l-0.0016-0.00476s-0.03334 0.020638-0.26511 0.074613v0.042863h0.07144c0.04604 0 0.04762 0.039687 0.04762 0.10795v0.38576c0 0.05715-0.02699 0.09525-0.09842 0.10319zm0.14922-0.90011c0.04604 0 0.08573-0.039688 0.08573-0.085725 0-0.046038-0.03969-0.085725-0.08573-0.085725s-0.08572 0.039687-0.08572 0.085725c0 0.046037 0.03969 0.085725 0.08572 0.085725zm0.29051 0.90011 0.34131-0.00953 0.0063-0.039687-0.127-0.015875s0.0079-0.036512 0.0079-0.084137v-0.381c0.06668-0.068263 0.16351-0.11112 0.23654-0.11112 0.0635 0 0.10954 0.03175 0.10954 0.1524v0.33972c0 0.05715-0.01905 0.09525-0.09049 0.10319v0.046037l0.34131-0.00953 0.0063-0.039687-0.13494-0.015875s0.0079-0.036512 0.0079-0.084137v-0.37465c0-0.15399-0.07144-0.21431-0.18098-0.21431-0.13335 0-0.24448 0.090488-0.30162 0.17621 0.0016-0.14129 0.01588-0.19368 0.01588-0.19368l-0.0048-0.00476s-0.09842 0.042863-0.254 0.074613v0.042863h0.07144c0.04604 0 0.04763 0.039687 0.04763 0.10795v0.38576c0 0.05715-0.02699 0.09525-0.09843 0.10319z"/></g><path d="m60.282 5.7899v3.4059" fill="none" stroke="#a2a2a2" stroke-dasharray="0.3, 0.600002" stroke-linecap="round" stroke-linejoin="round" stroke-width=".3" style="paint-order:normal"/></g><rect x="58.578" y="48.727" width="32.573" height="4.4674" rx=".85312" ry=".061541" fill="none" stroke="#a2a2a2" stroke-dasharray="0.3, 0.600001" stroke-linecap="round" stroke-linejoin="round" stroke-width=".3"/></g><g transform="translate(4.2161 6.5187)" display="none"><g transform="translate(-37.23 -40.835)" display="inline" stroke="#000" stroke-linecap="round" stroke-linejoin="round" stroke-width=".3"><rect x="59.141" y="53.622" width="5.2026" height="4.0716" rx=".49687" ry=".48643" fill="#5cf6f4"/><rect x="65.702" y="53.622" width="5.2026" height="4.0716" rx=".49687" ry=".48643" fill="#5cf6f4"/><rect x="72.263" y="53.622" width="5.2026" height="4.0716" rx=".49687" ry=".48643" fill="#5cf6f4"/><rect x="78.824" y="53.622" width="5.2026" height="4.0716" rx=".49687" ry=".48643" fill="#5cf6f4"/><rect x="85.385" y="53.622" width="5.2026" height="4.0716" rx=".49687" ry=".48643" fill="#5cf6f4"/><rect x="91.946" y="53.622" width="5.2026" height="4.0716" rx=".49687" ry=".48643" fill="#5cf6f4"/><rect x="98.507" y="53.622" width="5.2026" height="4.0716" rx=".49687" ry=".48643" fill="#5cf6f4"/><rect x="105.07" y="53.622" width="5.2026" height="4.0716" rx=".49687" ry=".48643" fill="#5cf6f4"/><rect x="105.07" y="58.523" width="5.2026" height="4.0716" rx=".49687" ry=".48643" fill="#f65cf3"/><rect x="98.507" y="58.523" width="5.2026" height="4.0716" rx=".49687" ry=".48643" fill="#f65cf3"/><rect x="91.946" y="58.523" width="5.2026" height="4.0716" rx=".49687" ry=".48643" fill="#f65cf3"/><rect x="85.385" y="58.523" width="5.2026" height="4.0716" rx=".49687" ry=".48643" fill="#f65cf3"/><rect x="78.824" y="58.523" width="5.2026" height="4.0716" rx=".49687" ry=".48643" fill="#f65cf3"/><rect x="72.263" y="58.523" width="5.2026" height="4.0716" rx=".49687" ry=".48643" fill="#f65cf3"/><rect x="65.702" y="58.523" width="5.2026" height="4.0716" rx=".49687" ry=".48643" fill="#f65cf3"/><rect x="59.141" y="58.523" width="5.2026" height="4.0716" rx=".49687" ry=".48643" fill="#f65cf3"/></g><g transform="translate(15.445 9.8417)"><path d="m62.782 7.6793c0 0.11589 0.16828 0.16351 0.30639 0.16351 0.1905 0 0.35401-0.0889 0.35401-0.2794 0-0.34131-0.49689-0.31432-0.49689-0.59214 0-0.11589 0.09049-0.1651 0.19685-0.1651 0.13335 0 0.19368 0.098425 0.1778 0.21749h0.05398l0.04921-0.24765c-0.03493-0.00476-0.14922-0.030163-0.26194-0.030163-0.23495 0-0.35401 0.11906-0.35401 0.27622 0 0.32226 0.49689 0.3175 0.49689 0.59372 0 0.12224-0.09842 0.16669-0.20161 0.16669-0.10795 0-0.23019-0.0508-0.23019-0.24448h-0.05398c-0.03016 0.09525-0.03651 0.11748-0.03651 0.14129zm0.77788 0.00317c0 0.085725 0.06033 0.16034 0.1651 0.16034 0.16351 0 0.24765-0.15081 0.24765-0.15081v0.0381c0 0.077788 0.04762 0.11271 0.10795 0.11271 0.09366 0 0.16828-0.084137 0.16828-0.084137l-0.02064-0.033338s-0.04445 0.03175-0.08731 0.03175c-0.03651 0-0.04286-0.023813-0.04286-0.074612v-0.36512c0-0.16669-0.03969-0.22701-0.18891-0.22701-0.1778 0-0.29369 0.0889-0.29369 0.0889l0.02699 0.11906h0.0508s0.06033-0.1524 0.16828-0.1524c0.05874 0 0.0889 0.042863 0.10001 0.1016 0.0079 0.04445 0.0079 0.13652 0.0064 0.16986l-0.05398 0.00794c-0.1651 0.0254-0.35401 0.10478-0.35401 0.25718zm0.2286 0.06985c-0.04762 0-0.0889-0.034925-0.0889-0.098425 0-0.1143 0.12859-0.16192 0.21908-0.17621l0.04921-0.00794v0.18732c-0.04127 0.034925-0.11748 0.09525-0.17939 0.09525zm0.51594 0.0762 0.34131-0.00953 0.0064-0.039687-0.127-0.014288s0.0079-0.0381 0.0079-0.085725v-0.381c0.06826-0.068263 0.15716-0.11112 0.2286-0.11112 0.06033 0 0.09366 0.03175 0.09366 0.1524v0.33972c0 0.05715-0.01905 0.09525-0.09049 0.10319v0.046037l0.33338-0.00953 0.0063-0.039687-0.127-0.014288s0.0079-0.0381 0.0079-0.085725v-0.33495c0-0.092075 0.16192-0.15716 0.23336-0.15716 0.05874 0 0.09208 0.03175 0.09208 0.1524v0.33972c0 0.05715-0.01905 0.09525-0.09049 0.10319v0.046037l0.34131-0.00953 0.0064-0.039687-0.13494-0.014288s0.0079-0.0381 0.0079-0.085725v-0.37465c0-0.15875-0.06667-0.21431-0.16986-0.21431-0.12541 0-0.23019 0.087312-0.29051 0.18256 0-0.12541-0.06509-0.18256-0.16669-0.18256-0.12859 0-0.23019 0.092075-0.28734 0.17462 0.0048-0.14129 0.01905-0.19209 0.01905-0.19209l-0.0048-0.00476s-0.09843 0.042863-0.254 0.074613v0.042863h0.06826c0.04604 0 0.04762 0.039687 0.04762 0.10795v0.38576c0 0.05715-0.02699 0.09525-0.09843 0.10319zm1.3414 0.38418c0.1143-0.0381 0.36512-0.068263 0.36512-0.068263l0.0063-0.0381h-0.16669s0.0079-0.042863 0.0079-0.090488v-0.18256c0.03016 0.00476 0.0635 0.00953 0.10636 0.00953 0.2794 0 0.40799-0.20479 0.40799-0.4064 0-0.17462-0.09525-0.34608-0.28892-0.34608-0.12541 0-0.18574 0.06985-0.2286 0.12382 0.0063-0.1016 0.01587-0.14129 0.01587-0.14129l-0.0048-0.00476s-0.09366 0.042863-0.24924 0.074613v0.042863h0.0635c0.04604 0 0.04763 0.039687 0.04763 0.10795v0.7239c0 0.073025-0.01111 0.10954-0.08255 0.14922zm0.32702-0.43021c-0.05239 0-0.1143-0.011113-0.1143-0.085725v-0.44768c0.04921-0.0381 0.10636-0.066675 0.16828-0.066675 0.14129 0 0.20796 0.14764 0.20796 0.30004 0 0.18098-0.09684 0.30004-0.26194 0.30004zm0.50006 0.046037 0.34925-0.00953 0.0064-0.039687-0.13494-0.014288s0.0079-0.0381 0.0079-0.085725v-0.84296c0-0.12224 0.01588-0.18098 0.01588-0.18098l-0.0048-0.00476s-0.07302 0.03175-0.25559 0.071438v0.042863h0.06668c0.04604 0 0.04762 0.039688 0.04762 0.10795v0.80645c0 0.05715-0.02699 0.09525-0.09843 0.10319zm0.43498-0.34766c0 0.18574 0.11112 0.36195 0.33655 0.36195 0.18891 0 0.27146-0.14922 0.27146-0.14922l-0.01746-0.033338s-0.0762 0.0762-0.20638 0.0762c-0.1778 0-0.25082-0.14129-0.25718-0.28575l0.01587-0.01905 0.39529-0.05715c0.03175-0.00476 0.07303-0.020638 0.07303-0.020638-0.0048-0.17462-0.1397-0.26352-0.27622-0.26352-0.19209 0-0.33496 0.17462-0.33496 0.39052zm0.31115-0.3302c0.1397 0 0.1524 0.18098 0.1524 0.18098l-0.33338 0.042863c0.01429-0.11906 0.07461-0.22384 0.18098-0.22384zm0.4191 0.67786 0.36512-0.00953 0.0063-0.039687-0.15081-0.014288s0.0079-0.0381 0.0079-0.085725v-0.37306c0.03493-0.039687 0.08731-0.092075 0.14129-0.092075 0.03651 0 0.04127 0.026987 0.07779 0.026987 0.04127 0 0.07461-0.030163 0.07461-0.077788 0-0.053975-0.04762-0.073025-0.08572-0.073025-0.08255 0-0.16669 0.09525-0.21431 0.18415 0.0048-0.14922 0.01905-0.20161 0.01905-0.20161l-0.0048-0.00476s-0.1016 0.042863-0.25718 0.074613v0.042863h0.07144c0.04604 0 0.04762 0.039687 0.04762 0.10795v0.38576c0 0.05715-0.02699 0.09525-0.09843 0.10319zm0.5969-0.093662c0 0.090488 0.1651 0.10795 0.23812 0.10795 0.15081 0 0.254-0.0762 0.254-0.20796 0-0.25082-0.36195-0.22066-0.36195-0.38894 0-0.049213 0.03334-0.1016 0.11906-0.1016 0.03334 0 0.14288 0.00794 0.14288 0.13811h0.04921l0.03175-0.16351s-0.10319-0.028575-0.19844-0.028575c-0.16828 0-0.25876 0.084137-0.25876 0.20161 0 0.23019 0.36354 0.21908 0.36354 0.38894 0 0.066675-0.05397 0.10795-0.13176 0.10795-0.0762 0-0.16986-0.039688-0.17939-0.17462h-0.04762s-0.02064 0.0889-0.02064 0.12065z" stroke-width=".26458" aria-label="Samplers"/><path d="m61.924 7.4316h-3.4059" fill="none" stroke="#a2a2a2" stroke-dasharray="0.3, 0.600002" stroke-linecap="round" stroke-linejoin="round" stroke-width=".3" style="paint-order:normal"/></g></g><g transform="translate(4.2161 6.5187)"><g transform="translate(-37.23 -40.835)" stroke="#000" stroke-linecap="round" stroke-linejoin="round" stroke-width=".3"><rect x="59.141" y="53.622" width="5.2026" height="4.0716" rx=".49687" ry=".48643" fill="#f63636"/><rect x="65.702" y="53.622" width="5.2026" height="4.0716" rx=".49687" ry=".48643" fill="#f63636"/><rect x="72.263" y="53.622" width="5.2026" height="4.0716" rx=".49687" ry=".48643" fill="none"/><rect x="78.824" y="53.622" width="5.2026" height="4.0716" rx=".49687" ry=".48643" fill="#f63636"/><rect x="85.385" y="53.622" width="5.2026" height="4.0716" rx=".49687" ry=".48643" fill="none"/><rect x="91.946" y="53.622" width="5.2026" height="4.0716" rx=".49687" ry=".48643" fill="none"/><rect x="98.507" y="53.622" width="5.2026" height="4.0716" rx=".49687" ry=".48643" fill="#f63636"/><rect x="105.07" y="53.622" width="5.2026" height="4.0716" rx=".49687" ry=".48643" fill="none"/><rect x="105.07" y="58.523" width="5.2026" height="4.0716" rx=".49687" ry=".48643" fill="#5cf6f4"/><rect x="98.507" y="58.523" width="5.2026" height="4.0716" rx=".49687" ry=".48643" fill="#f2f966"/><rect x="91.946" y="58.523" width="5.2026" height="4.0716" rx=".49687" ry=".48643" fill="#f2f966"/><rect x="85.385" y="58.523" width="5.2026" height="4.0716" rx=".49687" ry=".48643" fill="none"/><rect x="78.824" y="58.523" width="5.2026" height="4.0716" rx=".49687" ry=".48643" fill="none"/><rect x="72.263" y="58.523" width="5.2026" height="4.0716" rx=".49687" ry=".48643" fill="none"/><rect x="65.702" y="58.523" width="5.2026" height="4.0716" rx=".49687" ry=".48643" fill="none"/><rect x="59.141" y="58.523" width="5.2026" height="4.0716" rx=".49687" ry=".48643" fill="#60f65c"/></g><g transform="translate(15.445 7.5287)"><path d="m62.782 7.3062c0 0.3429 0.26988 0.53658 0.55245 0.53658 0.27622 0 0.39529-0.18415 0.39529-0.18415l-0.02222-0.033338s-0.12065 0.11271-0.31909 0.11271c-0.25876 0-0.45879-0.19209-0.45879-0.47784 0-0.25718 0.16192-0.45402 0.4064-0.45402 0.12859 0 0.26829 0.052388 0.26829 0.21749h0.05398l0.04762-0.2413c-0.08255-0.00794-0.22384-0.036513-0.3429-0.036513-0.34131 0-0.58102 0.23654-0.58102 0.56039zm1.1144 0.32385c0 0.1524 0.06826 0.21272 0.17939 0.21272 0.13335 0 0.23812-0.093662 0.29528-0.1778v0.08255c0 0.039688-0.01429 0.085725-0.01429 0.085725l0.0063 0.00476s0.08731-0.014288 0.26035-0.03175l0.0048-0.042863h-0.04445c-0.05239 0-0.0889 0-0.0889-0.090488v-0.4191c0-0.12224 0.01429-0.16669 0.01429-0.16669l-0.0063-0.00476s-0.08572 0.03175-0.23812 0.058738v0.04445h0.05239c0.04604 0 0.04762 0.039687 0.04762 0.10795v0.33972c-0.06826 0.06985-0.15716 0.11271-0.23019 0.11271-0.06509 0-0.10795-0.03175-0.10795-0.1524v-0.33972c0-0.12224 0.01429-0.16669 0.01429-0.16669l-0.0064-0.00476s-0.08731 0.03175-0.2413 0.058738v0.04445h0.05556c0.04604 0 0.04763 0.039687 0.04763 0.10795zm0.81121-0.14922c0 0.18574 0.11112 0.36195 0.33655 0.36195 0.18891 0 0.27146-0.14922 0.27146-0.14922l-0.01746-0.033338s-0.0762 0.0762-0.20638 0.0762c-0.1778 0-0.25082-0.14129-0.25718-0.28575l0.01588-0.01905 0.39529-0.05715c0.03175-0.00476 0.07303-0.020638 0.07303-0.020638-0.0048-0.17462-0.1397-0.26352-0.27622-0.26352-0.19209 0-0.33496 0.17462-0.33496 0.39052zm0.31115-0.3302c0.1397 0 0.1524 0.18098 0.1524 0.18098l-0.33338 0.042863c0.01429-0.11906 0.07461-0.22384 0.18098-0.22384zm0.42069 0.5842c0 0.090488 0.1651 0.10795 0.23812 0.10795 0.15081 0 0.254-0.0762 0.254-0.20796 0-0.25082-0.36195-0.22066-0.36195-0.38894 0-0.049213 0.03334-0.1016 0.11906-0.1016 0.03334 0 0.14288 0.00794 0.14288 0.13811h0.04921l0.03175-0.16351s-0.10319-0.028575-0.19844-0.028575c-0.16828 0-0.25876 0.084137-0.25876 0.20161 0 0.23019 0.36354 0.21908 0.36354 0.38894 0 0.066675-0.05397 0.10795-0.13176 0.10795-0.0762 0-0.16986-0.039688-0.17939-0.17462h-0.04762s-0.02064 0.0889-0.02064 0.12065z" stroke-width=".26458" aria-label="Cues"/><path d="m61.924 7.4316h-3.4059" fill="none" stroke="#a2a2a2" stroke-dasharray="0.328346, 0.656694" stroke-linecap="round" stroke-linejoin="round" stroke-width=".32835" style="paint-order:normal"/></g><path d="m23.188 23.846 0.39052-0.0095 0.0064-0.04445-0.15081-0.01429s0.0079-0.03492 0.0079-0.08096v-0.83661l0.01588-0.01587h0.02381c0.16828 0 0.3175 0.07302 0.3175 0.26352 0 0.12541-0.07144 0.23971-0.25559 0.24448v0.04445c0.17145 0.01746 0.41116-0.06668 0.41116-0.32226 0-0.23336-0.20638-0.2921-0.38894-0.2921h-0.3937v0.03969c0.12224 0.02381 0.13018 0.03969 0.13018 0.11589v0.75882c0 0.05397-0.04445 0.09049-0.1143 0.09842zm0.84296 0 0.34925-0.0095 0.0064-0.03969-0.13494-0.01429s0.0079-0.0381 0.0079-0.08573v-0.84296c0-0.12224 0.01588-0.18098 0.01588-0.18098l-0.0048-0.0048s-0.07302 0.03175-0.25559 0.07144v0.04286h0.06668c0.04604 0 0.04763 0.03969 0.04763 0.10795v0.80645c0 0.05715-0.02699 0.09525-0.09842 0.10319zm0.42386-0.14605c0 0.08573 0.06032 0.16034 0.1651 0.16034 0.16351 0 0.24765-0.15081 0.24765-0.15081v0.0381c0 0.07779 0.04763 0.11271 0.10795 0.11271 0.09366 0 0.16828-0.08414 0.16828-0.08414l-0.02064-0.03334s-0.04445 0.03175-0.08731 0.03175c-0.03651 0-0.04286-0.02381-0.04286-0.07461v-0.36512c0-0.16669-0.03969-0.22701-0.18891-0.22701-0.1778 0-0.29369 0.0889-0.29369 0.0889l0.02699 0.11906h0.0508s0.06032-0.1524 0.16828-0.1524c0.05874 0 0.0889 0.04286 0.10001 0.1016 0.0079 0.04445 0.0079 0.13652 0.0064 0.16986l-0.05398 0.0079c-0.1651 0.0254-0.35401 0.10478-0.35401 0.25718zm0.2286 0.06985c-0.04763 0-0.0889-0.03492-0.0889-0.09842 0-0.1143 0.12859-0.16192 0.21908-0.17621l0.04921-0.0079v0.18732c-0.04128 0.03493-0.11748 0.09525-0.17939 0.09525zm0.56039 0.31591c-0.05715 0-0.07779 0.03334-0.07779 0.06509 0 0.03493 0.02381 0.06668 0.06985 0.06668 0.1524 0 0.24289-0.26194 0.28575-0.35719l0.27464-0.62389c0.02858-0.06826 0.05715-0.08414 0.05715-0.08414l-0.0079-0.0254h-0.22066v0.03969c0.05874 0.01588 0.1143 0.0508 0.08731 0.1143l-0.17939 0.40958c-0.0079-0.02858-0.02064-0.06826-0.03016-0.09525l-0.12859-0.32226c-0.01746-0.04286-0.01746-0.10795 0.0016-0.14605l-0.0064-0.0064s-0.06191 0.0064-0.16192 0.0064h-0.07461v0.03969s0.05556 0.0127 0.0889 0.09208l0.2032 0.48578c0.01746 0.04445 0.03016 0.08096 0.0381 0.10319l-0.0508 0.11906c-0.02858 0.06509-0.08414 0.11906-0.16828 0.11906z" stroke-width=".26458" aria-label="Play"/><path d="m29.805 23.229c0 0.3429 0.26988 0.53658 0.55245 0.53658 0.27622 0 0.39529-0.18415 0.39529-0.18415l-0.02223-0.03334s-0.12065 0.11271-0.31909 0.11271c-0.25876 0-0.45879-0.19209-0.45879-0.47784 0-0.25718 0.16192-0.45402 0.4064-0.45402 0.12859 0 0.26829 0.05239 0.26829 0.21749h0.05397l0.04763-0.2413c-0.08255-0.0079-0.22384-0.03651-0.3429-0.03651-0.34131 0-0.58102 0.23654-0.58102 0.56039zm1.1144 0.32385c0 0.1524 0.06826 0.21272 0.17939 0.21272 0.13335 0 0.23812-0.09366 0.29528-0.1778v0.08255c0 0.03969-0.01429 0.08573-0.01429 0.08573l0.0064 0.0048s0.08731-0.01429 0.26035-0.03175l0.0048-0.04286h-0.04445c-0.05239 0-0.0889 0-0.0889-0.09049v-0.4191c0-0.12224 0.01429-0.16669 0.01429-0.16669l-0.0064-0.0048s-0.08573 0.03175-0.23812 0.05874v0.04445h0.05239c0.04604 0 0.04762 0.03969 0.04762 0.10795v0.33972c-0.06826 0.06985-0.15716 0.11271-0.23019 0.11271-0.06509 0-0.10795-0.03175-0.10795-0.1524v-0.33972c0-0.12224 0.01429-0.16669 0.01429-0.16669l-0.0064-0.0048s-0.08731 0.03175-0.2413 0.05874v0.04445h0.05556c0.04604 0 0.04763 0.03969 0.04763 0.10795zm0.81121-0.14922c0 0.18574 0.11112 0.36195 0.33655 0.36195 0.18891 0 0.27146-0.14922 0.27146-0.14922l-0.01746-0.03334s-0.0762 0.0762-0.20638 0.0762c-0.1778 0-0.25082-0.14129-0.25718-0.28575l0.01587-0.01905 0.39529-0.05715c0.03175-0.0048 0.07302-0.02064 0.07302-0.02064-0.0048-0.17462-0.1397-0.26352-0.27622-0.26352-0.19209 0-0.33496 0.17462-0.33496 0.39052zm0.31115-0.3302c0.1397 0 0.1524 0.18098 0.1524 0.18098l-0.33338 0.04286c0.01429-0.11906 0.07461-0.22384 0.18098-0.22384z" stroke-width=".26458" aria-label="Cue"/><path d="m35.341 23.846 0.38259-0.0095 0.0064-0.04445-0.14288-0.01429s0.0079-0.03492 0.0079-0.08096v-0.30956l0.01587-0.01587h0.11589l0.19685 0.29051c0.06509 0.09525 0.09842 0.17462 0.09842 0.17462l0.0063 0.0048h0.23019l0.0064-0.0508-0.01746-0.0016c-0.04128-0.0032-0.07303-0.0063-0.14129-0.10478l-0.2286-0.33496v-0.02064c0.0762-0.03969 0.20955-0.14129 0.20955-0.29051 0-0.13811-0.10795-0.25559-0.3937-0.25559h-0.3683v0.03969c0.12224 0.02381 0.13018 0.03969 0.13018 0.11589v0.75882c0 0.05397-0.04445 0.09049-0.1143 0.09842zm0.254-0.53658v-0.44926l0.01587-0.01587h0.05874c0.19526 0 0.26352 0.1143 0.26352 0.23495 0 0.15399-0.10954 0.23019-0.20479 0.23019zm0.70961 0.18891c0 0.18574 0.11112 0.36195 0.33655 0.36195 0.18891 0 0.27146-0.14922 0.27146-0.14922l-0.01746-0.03334s-0.0762 0.0762-0.20638 0.0762c-0.1778 0-0.25082-0.14129-0.25718-0.28575l0.01588-0.01905 0.39529-0.05715c0.03175-0.0048 0.07303-0.02064 0.07303-0.02064-0.0048-0.17462-0.1397-0.26352-0.27622-0.26352-0.19209 0-0.33496 0.17462-0.33496 0.39052zm0.31115-0.3302c0.1397 0 0.1524 0.18098 0.1524 0.18098l-0.33338 0.04286c0.01429-0.11906 0.07461-0.22384 0.18098-0.22384zm0.4191 0.3302c0 0.18256 0.1143 0.36195 0.33655 0.36195 0.18415 0 0.25718-0.13811 0.25718-0.13811l-0.01746-0.03334s-0.06509 0.06509-0.18415 0.06509c-0.18732 0-0.26194-0.14922-0.26194-0.30162 0-0.15399 0.07144-0.29051 0.19844-0.29051 0.11112 0 0.12065 0.12382 0.20161 0.12382 0.0381 0 0.06032-0.02699 0.06032-0.05715 0-0.08255-0.15399-0.12065-0.25082-0.12065-0.21908 0-0.33972 0.19844-0.33972 0.39052zm0.70009 0.0016c0 0.2032 0.12382 0.36036 0.34766 0.36036 0.254 0 0.37624-0.20796 0.37624-0.40481 0-0.19526-0.11906-0.34766-0.35084-0.34766-0.26988 0-0.37306 0.20638-0.37306 0.39211zm0.14605-0.03651c0-0.1524 0.06191-0.30162 0.20796-0.30162 0.16034 0 0.22384 0.18098 0.22384 0.33814 0 0.16986-0.07303 0.30639-0.20796 0.30639-0.15875 0-0.22384-0.18415-0.22384-0.3429zm0.6985 0.38259 0.36512-0.0095 0.0063-0.03969-0.15081-0.01429s0.0079-0.0381 0.0079-0.08573v-0.37306c0.03492-0.03969 0.08731-0.09208 0.14129-0.09208 0.03651 0 0.04127 0.02699 0.07779 0.02699 0.04127 0 0.07461-0.03016 0.07461-0.07779 0-0.05398-0.04762-0.07303-0.08572-0.07303-0.08255 0-0.16669 0.09525-0.21431 0.18415 0.0048-0.14922 0.01905-0.20161 0.01905-0.20161l-0.0048-0.0048s-0.1016 0.04286-0.25718 0.07461v0.04286h0.07144c0.04604 0 0.04763 0.03969 0.04763 0.10795v0.38576c0 0.05715-0.02699 0.09525-0.09842 0.10319zm0.58261-0.3302c0 0.17304 0.10319 0.34449 0.29845 0.34449 0.11906 0 0.18415-0.06509 0.22701-0.12859v0.03334c0 0.03969-0.0064 0.08414-0.0064 0.08414l0.0048 0.0048s0.08096-0.0127 0.254-0.03016l0.0048-0.04286h-0.04445c-0.05239 0-0.0889 0-0.0889-0.09049v-0.83661c0-0.12224 0.01588-0.18098 0.01588-0.18098l-0.0048-0.0048s-0.07303 0.03175-0.25559 0.07144v0.04286h0.06668c0.04604 0 0.04762 0.03969 0.04762 0.10795v0.22701s-0.05556-0.0095-0.11271-0.0095c-0.27146 0-0.4064 0.20796-0.4064 0.40799zm0.35401 0.25241c-0.14288 0-0.2159-0.14764-0.2159-0.30004 0-0.18415 0.10478-0.30004 0.2667-0.30004 0.0508 0 0.1143 0.01111 0.1143 0.08414v0.44609c-0.0254 0.0254-0.08731 0.06985-0.1651 0.06985z" stroke-width=".26458" aria-label="Record"/><path d="m68.183 23.846 0.38259-0.0095 0.0063-0.04445-0.14288-0.01429s0.0079-0.03492 0.0079-0.08096v-0.30956l0.01588-0.01587h0.11589l0.19685 0.29051c0.06509 0.09525 0.09842 0.17462 0.09842 0.17462l0.0064 0.0048h0.23019l0.0063-0.0508-0.01746-0.0016c-0.04127-0.0032-0.07303-0.0063-0.14129-0.10478l-0.2286-0.33496v-0.02064c0.0762-0.03969 0.20955-0.14129 0.20955-0.29051 0-0.13811-0.10795-0.25559-0.3937-0.25559h-0.3683v0.03969c0.12224 0.02381 0.13018 0.03969 0.13018 0.11589v0.75882c0 0.05397-0.04445 0.09049-0.1143 0.09842zm0.254-0.53658v-0.44926l0.01588-0.01587h0.05874c0.19526 0 0.26352 0.1143 0.26352 0.23495 0 0.15399-0.10954 0.23019-0.20479 0.23019zm0.70961 0.18891c0 0.18574 0.11112 0.36195 0.33655 0.36195 0.18891 0 0.27146-0.14922 0.27146-0.14922l-0.01746-0.03334s-0.0762 0.0762-0.20638 0.0762c-0.1778 0-0.25082-0.14129-0.25718-0.28575l0.01587-0.01905 0.39529-0.05715c0.03175-0.0048 0.07303-0.02064 0.07303-0.02064-0.0048-0.17462-0.1397-0.26352-0.27622-0.26352-0.19209 0-0.33496 0.17462-0.33496 0.39052zm0.31115-0.3302c0.1397 0 0.1524 0.18098 0.1524 0.18098l-0.33338 0.04286c0.01429-0.11906 0.07461-0.22384 0.18098-0.22384zm0.40322 0.67786 0.34925-0.0095 0.0063-0.03969-0.13494-0.01429s0.0079-0.0381 0.0079-0.08573v-0.84296c0-0.12224 0.01587-0.18098 0.01587-0.18098l-0.0048-0.0048s-0.07303 0.03175-0.25559 0.07144v0.04286h0.06668c0.04604 0 0.04762 0.03969 0.04762 0.10795v0.80645c0 0.05715-0.02699 0.09525-0.09842 0.10319zm0.43498-0.34608c0 0.2032 0.12382 0.36036 0.34766 0.36036 0.254 0 0.37624-0.20796 0.37624-0.40481 0-0.19526-0.11906-0.34766-0.35084-0.34766-0.26988 0-0.37306 0.20638-0.37306 0.39211zm0.14605-0.03651c0-0.1524 0.06191-0.30162 0.20796-0.30162 0.16034 0 0.22384 0.18098 0.22384 0.33814 0 0.16986-0.07303 0.30639-0.20796 0.30639-0.15875 0-0.22384-0.18415-0.22384-0.3429zm0.6985 0.03651c0 0.2032 0.12382 0.36036 0.34766 0.36036 0.254 0 0.37624-0.20796 0.37624-0.40481 0-0.19526-0.11906-0.34766-0.35084-0.34766-0.26988 0-0.37306 0.20638-0.37306 0.39211zm0.14605-0.03651c0-0.1524 0.06191-0.30162 0.20796-0.30162 0.16034 0 0.22384 0.18098 0.22384 0.33814 0 0.16986-0.07303 0.30639-0.20796 0.30639-0.15875 0-0.22384-0.18415-0.22384-0.3429zm0.6985 0.76676c0.1143-0.0381 0.36512-0.06826 0.36512-0.06826l0.0063-0.0381h-0.16669s0.0079-0.04286 0.0079-0.09049v-0.18256c0.03016 0.0048 0.0635 0.0095 0.10636 0.0095 0.2794 0 0.40799-0.20479 0.40799-0.4064 0-0.17462-0.09525-0.34608-0.28892-0.34608-0.12541 0-0.18574 0.06985-0.2286 0.12382 0.0063-0.1016 0.01587-0.14129 0.01587-0.14129l-0.0048-0.0048s-0.09366 0.04286-0.24924 0.07461v0.04286h0.0635c0.04604 0 0.04762 0.03969 0.04762 0.10795v0.7239c0 0.07303-0.01111 0.10954-0.08255 0.14922zm0.32702-0.43021c-0.05239 0-0.1143-0.01111-0.1143-0.08573v-0.44768c0.04921-0.0381 0.10636-0.06668 0.16828-0.06668 0.14129 0 0.20796 0.14764 0.20796 0.30004 0 0.18098-0.09684 0.30004-0.26194 0.30004z" stroke-width=".26458" aria-label="Reloop"/><g stroke-width=".26458" aria-label="Select Deck 1"><path d="m55.425 23.697c0 0.11589 0.16828 0.16351 0.30639 0.16351 0.1905 0 0.35401-0.0889 0.35401-0.2794 0-0.34131-0.49689-0.31432-0.49689-0.59214 0-0.11589 0.09049-0.1651 0.19685-0.1651 0.13335 0 0.19368 0.09842 0.1778 0.21749h0.05397l0.04921-0.24765c-0.03493-0.0048-0.14922-0.03016-0.26194-0.03016-0.23495 0-0.35401 0.11906-0.35401 0.27622 0 0.32226 0.49689 0.3175 0.49689 0.59372 0 0.12224-0.09842 0.16669-0.20161 0.16669-0.10795 0-0.23019-0.0508-0.23019-0.24448h-0.05398c-0.03016 0.09525-0.03651 0.11748-0.03651 0.14129zm0.79375-0.19844c0 0.18574 0.11112 0.36195 0.33655 0.36195 0.18891 0 0.27146-0.14922 0.27146-0.14922l-0.01746-0.03334s-0.0762 0.0762-0.20638 0.0762c-0.1778 0-0.25082-0.14129-0.25718-0.28575l0.01588-0.01905 0.39529-0.05715c0.03175-0.0048 0.07303-0.02064 0.07303-0.02064-0.0048-0.17462-0.1397-0.26352-0.27622-0.26352-0.19209 0-0.33496 0.17462-0.33496 0.39052zm0.31115-0.3302c0.1397 0 0.1524 0.18098 0.1524 0.18098l-0.33338 0.04286c0.01429-0.11906 0.07461-0.22384 0.18098-0.22384zm0.40322 0.67786 0.34925-0.0095 0.0064-0.03969-0.13494-0.01429s0.0079-0.0381 0.0079-0.08573v-0.84296c0-0.12224 0.01588-0.18098 0.01588-0.18098l-0.0048-0.0048s-0.07303 0.03175-0.25559 0.07144v0.04286h0.06668c0.04604 0 0.04762 0.03969 0.04762 0.10795v0.80645c0 0.05715-0.02699 0.09525-0.09842 0.10319zm0.43498-0.34766c0 0.18574 0.11112 0.36195 0.33655 0.36195 0.18891 0 0.27146-0.14922 0.27146-0.14922l-0.01746-0.03334s-0.0762 0.0762-0.20638 0.0762c-0.1778 0-0.25082-0.14129-0.25718-0.28575l0.01587-0.01905 0.39529-0.05715c0.03175-0.0048 0.07303-0.02064 0.07303-0.02064-0.0048-0.17462-0.1397-0.26352-0.27622-0.26352-0.19209 0-0.33496 0.17462-0.33496 0.39052zm0.31115-0.3302c0.1397 0 0.1524 0.18098 0.1524 0.18098l-0.33338 0.04286c0.01429-0.11906 0.07461-0.22384 0.18098-0.22384zm0.4191 0.3302c0 0.18256 0.1143 0.36195 0.33655 0.36195 0.18415 0 0.25718-0.13811 0.25718-0.13811l-0.01746-0.03334s-0.06509 0.06509-0.18415 0.06509c-0.18732 0-0.26194-0.14922-0.26194-0.30162 0-0.15399 0.07144-0.29051 0.19844-0.29051 0.11112 0 0.12065 0.12382 0.20161 0.12382 0.0381 0 0.06032-0.02699 0.06032-0.05715 0-0.08255-0.15399-0.12065-0.25082-0.12065-0.21908 0-0.33972 0.19844-0.33972 0.39052zm0.77788 0.15399c0 0.14446 0.0635 0.20796 0.17621 0.20796 0.13811 0 0.2286-0.09842 0.2286-0.09842l-0.02064-0.03016s-0.07144 0.03334-0.14288 0.03334c-0.08414 0-0.11112-0.0508-0.11112-0.14288v-0.40322l0.01588-0.01588h0.21908l0.01111-0.0762h-0.24765v-0.02381c0-0.11271 0.01429-0.15875 0.01429-0.15875l-0.0048-0.0048-0.07144-0.0016-0.05874 0.17304c-0.0381 0.03493-0.10795 0.04921-0.10795 0.04921v0.04763h0.10478s-0.0048 0.05715-0.0048 0.10319z"/><path d="m55.219 25.83s0.15081-0.0048 0.23019-0.0048h0.12859c0.39688 0 0.66516-0.20955 0.66516-0.56832 0-0.37465-0.29686-0.49054-0.60484-0.49054h-0.43498v0.03969c0.12224 0.02381 0.13018 0.03969 0.13018 0.11589v0.75882c0 0.05715-0.04286 0.09049-0.1143 0.09842zm0.24606-0.06668s0.0079-0.04127 0.0079-0.0889v-0.83026l0.01587-0.01587h0.14288c0.29686 0 0.45402 0.18415 0.45402 0.46514 0 0.26352-0.13652 0.4699-0.508 0.4699zm0.91281-0.28099c0 0.18574 0.11112 0.36195 0.33655 0.36195 0.18891 0 0.27146-0.14922 0.27146-0.14922l-0.01746-0.03334s-0.0762 0.0762-0.20638 0.0762c-0.1778 0-0.25082-0.14129-0.25718-0.28575l0.01588-0.01905 0.39529-0.05715c0.03175-0.0048 0.07303-0.02064 0.07303-0.02064-0.0048-0.17462-0.1397-0.26352-0.27622-0.26352-0.19209 0-0.33496 0.17462-0.33496 0.39052zm0.31115-0.3302c0.1397 0 0.1524 0.18098 0.1524 0.18098l-0.33338 0.04286c0.01429-0.11906 0.07461-0.22384 0.18098-0.22384zm0.4191 0.3302c0 0.18256 0.1143 0.36195 0.33655 0.36195 0.18415 0 0.25718-0.13811 0.25718-0.13811l-0.01746-0.03334s-0.06509 0.06509-0.18415 0.06509c-0.18732 0-0.26194-0.14922-0.26194-0.30162 0-0.15399 0.07144-0.29051 0.19844-0.29051 0.11112 0 0.12065 0.12382 0.20161 0.12382 0.0381 0 0.06032-0.02699 0.06032-0.05715 0-0.08255-0.15399-0.12065-0.25082-0.12065-0.21908 0-0.33972 0.19844-0.33972 0.39052zm0.68421 0.34766 0.34131-0.0095 0.0063-0.03969-0.127-0.01429s0.0079-0.0381 0.0079-0.08573v-0.22701h0.01905l0.23654 0.2667c0.04445 0.05239 0.06509 0.10954 0.06509 0.10954l0.2286-0.0048 0.0063-0.04763-0.01746-0.0016c-0.05874-0.0048-0.07303-0.01746-0.14288-0.09366l-0.23495-0.254c-0.01111-0.01111-0.0254-0.03175-0.0254-0.03175v-0.01588l0.18415-0.15716c0.07461-0.0635 0.16669-0.08731 0.16669-0.08731l-0.0079-0.0254h-0.29051v0.03969c0.03493 0.0095 0.05239 0.02064 0.05239 0.03969 0 0.02858-0.03492 0.05398-0.06032 0.0762l-0.16034 0.13494h-0.01905v-0.56356c0-0.12224 0.01588-0.18098 0.01588-0.18098l-0.0048-0.0048s-0.07302 0.03175-0.25559 0.07144v0.04286h0.06668c0.04604 0 0.04762 0.03969 0.04762 0.10795v0.80645c0 0.05715-0.02699 0.09525-0.09842 0.10319zm1.2256 0.0032 0.40958-0.0079 0.0063-0.04763-0.16351-0.01588s0.0079-0.03651 0.0079-0.08414v-0.53022l0.14129-0.01746 0.0064-0.0508h-0.41592v0.05397c0.11271 0 0.14129 0.02064 0.14129 0.09366v0.45085c0 0.07303-0.03175 0.1016-0.13335 0.1016z"/></g><g stroke-width=".26458" aria-label="Select Deck 2"><path d="m61.971 23.697c0 0.11589 0.16828 0.16351 0.30639 0.16351 0.1905 0 0.35401-0.0889 0.35401-0.2794 0-0.34131-0.49689-0.31432-0.49689-0.59214 0-0.11589 0.09049-0.1651 0.19685-0.1651 0.13335 0 0.19368 0.09842 0.1778 0.21749h0.05398l0.04921-0.24765c-0.03493-0.0048-0.14922-0.03016-0.26194-0.03016-0.23495 0-0.35401 0.11906-0.35401 0.27622 0 0.32226 0.49689 0.3175 0.49689 0.59372 0 0.12224-0.09843 0.16669-0.20161 0.16669-0.10795 0-0.23019-0.0508-0.23019-0.24448h-0.05398c-0.03016 0.09525-0.03651 0.11748-0.03651 0.14129zm0.79375-0.19844c0 0.18574 0.11112 0.36195 0.33655 0.36195 0.18891 0 0.27146-0.14922 0.27146-0.14922l-0.01746-0.03334s-0.0762 0.0762-0.20638 0.0762c-0.1778 0-0.25082-0.14129-0.25718-0.28575l0.01588-0.01905 0.39529-0.05715c0.03175-0.0048 0.07303-0.02064 0.07303-0.02064-0.0048-0.17462-0.1397-0.26352-0.27622-0.26352-0.19209 0-0.33496 0.17462-0.33496 0.39052zm0.31115-0.3302c0.1397 0 0.1524 0.18098 0.1524 0.18098l-0.33338 0.04286c0.01429-0.11906 0.07461-0.22384 0.18098-0.22384zm0.40322 0.67786 0.34925-0.0095 0.0063-0.03969-0.13494-0.01429s0.0079-0.0381 0.0079-0.08573v-0.84296c0-0.12224 0.01588-0.18098 0.01588-0.18098l-0.0048-0.0048s-0.07302 0.03175-0.25559 0.07144v0.04286h0.06667c0.04604 0 0.04763 0.03969 0.04763 0.10795v0.80645c0 0.05715-0.02699 0.09525-0.09842 0.10319zm0.43498-0.34766c0 0.18574 0.11112 0.36195 0.33655 0.36195 0.18891 0 0.27146-0.14922 0.27146-0.14922l-0.01746-0.03334s-0.0762 0.0762-0.20638 0.0762c-0.1778 0-0.25082-0.14129-0.25718-0.28575l0.01587-0.01905 0.39529-0.05715c0.03175-0.0048 0.07303-0.02064 0.07303-0.02064-0.0048-0.17462-0.1397-0.26352-0.27622-0.26352-0.19209 0-0.33496 0.17462-0.33496 0.39052zm0.31115-0.3302c0.1397 0 0.1524 0.18098 0.1524 0.18098l-0.33338 0.04286c0.01429-0.11906 0.07461-0.22384 0.18098-0.22384zm0.4191 0.3302c0 0.18256 0.1143 0.36195 0.33655 0.36195 0.18415 0 0.25718-0.13811 0.25718-0.13811l-0.01746-0.03334s-0.06509 0.06509-0.18415 0.06509c-0.18732 0-0.26194-0.14922-0.26194-0.30162 0-0.15399 0.07144-0.29051 0.19844-0.29051 0.11112 0 0.12065 0.12382 0.20161 0.12382 0.0381 0 0.06033-0.02699 0.06033-0.05715 0-0.08255-0.15399-0.12065-0.25082-0.12065-0.21908 0-0.33972 0.19844-0.33972 0.39052zm0.77788 0.15399c0 0.14446 0.0635 0.20796 0.17621 0.20796 0.13811 0 0.2286-0.09842 0.2286-0.09842l-0.02064-0.03016s-0.07144 0.03334-0.14288 0.03334c-0.08414 0-0.11112-0.0508-0.11112-0.14288v-0.40322l0.01587-0.01588h0.21908l0.01111-0.0762h-0.24765v-0.02381c0-0.11271 0.01429-0.15875 0.01429-0.15875l-0.0048-0.0048-0.07144-0.0016-0.05874 0.17304c-0.0381 0.03493-0.10795 0.04921-0.10795 0.04921v0.04763h0.10478s-0.0048 0.05715-0.0048 0.10319z"/><path d="m61.685 25.83s0.15081-0.0048 0.23019-0.0048h0.12859c0.39688 0 0.66516-0.20955 0.66516-0.56832 0-0.37465-0.29686-0.49054-0.60484-0.49054h-0.43498v0.03969c0.12224 0.02381 0.13018 0.03969 0.13018 0.11589v0.75882c0 0.05715-0.04286 0.09049-0.1143 0.09842zm0.24606-0.06668s0.0079-0.04127 0.0079-0.0889v-0.83026l0.01588-0.01587h0.14288c0.29686 0 0.45402 0.18415 0.45402 0.46514 0 0.26352-0.13652 0.4699-0.508 0.4699zm0.91281-0.28099c0 0.18574 0.11112 0.36195 0.33655 0.36195 0.18891 0 0.27146-0.14922 0.27146-0.14922l-0.01746-0.03334s-0.0762 0.0762-0.20638 0.0762c-0.1778 0-0.25082-0.14129-0.25718-0.28575l0.01588-0.01905 0.39529-0.05715c0.03175-0.0048 0.07303-0.02064 0.07303-0.02064-0.0048-0.17462-0.1397-0.26352-0.27622-0.26352-0.19209 0-0.33496 0.17462-0.33496 0.39052zm0.31115-0.3302c0.1397 0 0.1524 0.18098 0.1524 0.18098l-0.33338 0.04286c0.01429-0.11906 0.07461-0.22384 0.18098-0.22384zm0.4191 0.3302c0 0.18256 0.1143 0.36195 0.33655 0.36195 0.18415 0 0.25718-0.13811 0.25718-0.13811l-0.01746-0.03334s-0.06509 0.06509-0.18415 0.06509c-0.18732 0-0.26194-0.14922-0.26194-0.30162 0-0.15399 0.07144-0.29051 0.19844-0.29051 0.11112 0 0.12065 0.12382 0.20161 0.12382 0.0381 0 0.06033-0.02699 0.06033-0.05715 0-0.08255-0.15399-0.12065-0.25082-0.12065-0.21908 0-0.33972 0.19844-0.33972 0.39052zm0.68421 0.34766 0.34131-0.0095 0.0063-0.03969-0.127-0.01429s0.0079-0.0381 0.0079-0.08573v-0.22701h0.01905l0.23654 0.2667c0.04445 0.05239 0.06509 0.10954 0.06509 0.10954l0.2286-0.0048 0.0063-0.04763-0.01746-0.0016c-0.05874-0.0048-0.07303-0.01746-0.14288-0.09366l-0.23495-0.254c-0.01111-0.01111-0.0254-0.03175-0.0254-0.03175v-0.01588l0.18415-0.15716c0.07461-0.0635 0.16669-0.08731 0.16669-0.08731l-0.0079-0.0254h-0.29051v0.03969c0.03493 0.0095 0.05239 0.02064 0.05239 0.03969 0 0.02858-0.03493 0.05398-0.06032 0.0762l-0.16034 0.13494h-0.01905v-0.56356c0-0.12224 0.01588-0.18098 0.01588-0.18098l-0.0048-0.0048s-0.07303 0.03175-0.25559 0.07144v0.04286h0.06668c0.04604 0 0.04762 0.03969 0.04762 0.10795v0.80645c0 0.05715-0.02699 0.09525-0.09843 0.10319zm1.2271-0.0048h0.53499l0.04921-0.24765h-0.04604c-0.02381 0.06826-0.0508 0.13494-0.16034 0.13494h-0.23019c0.19209-0.16192 0.33338-0.32068 0.33338-0.45402 0-0.13494-0.11589-0.19844-0.22384-0.19844-0.17304 0-0.27146 0.13335-0.27146 0.13335l0.03016 0.03492c0.0508-0.0381 0.12065-0.06668 0.18256-0.06668 0.07302 0 0.13811 0.0381 0.13811 0.13811 0 0.18098-0.2286 0.3683-0.34925 0.47625z"/></g><g stroke-width=".26458" aria-label="Beatjump Back"><path d="m41.056 23.74s0.15081-0.0048 0.23019-0.0048h0.14288c0.28575 0 0.43021-0.13176 0.43021-0.30004 0-0.19368-0.19209-0.25082-0.2667-0.2667 0.09684-0.05397 0.18891-0.14129 0.18891-0.26035 0-0.12541-0.10319-0.23178-0.36989-0.23178h-0.37148v0.03969c0.12224 0.02381 0.13018 0.03969 0.13018 0.11589v0.75882c0 0.05715-0.04286 0.09049-0.1143 0.09843zm0.24606-0.06668s0.0079-0.03969 0.0079-0.08731v-0.34925l0.01588-0.01588h0.04286c0.0635 0 0.3302-0.0079 0.3302 0.23812 0 0.10795-0.05239 0.21431-0.29528 0.21431zm0.0079-0.51435v-0.40481l0.01588-0.01587h0.07461c0.16351 0 0.22542 0.10636 0.22542 0.20002 0 0.1016-0.07302 0.2159-0.1524 0.22066zm0.67786 0.23336c0 0.18574 0.11112 0.36195 0.33655 0.36195 0.18891 0 0.27146-0.14922 0.27146-0.14922l-0.01746-0.03334s-0.0762 0.0762-0.20638 0.0762c-0.1778 0-0.25082-0.14129-0.25718-0.28575l0.01588-0.01905 0.39529-0.05715c0.03175-0.0048 0.07303-0.02064 0.07303-0.02064-0.0048-0.17462-0.1397-0.26352-0.27622-0.26352-0.19209 0-0.33496 0.17462-0.33496 0.39052zm0.31115-0.3302c0.1397 0 0.1524 0.18098 0.1524 0.18098l-0.33338 0.04286c0.01429-0.11906 0.07461-0.22384 0.18098-0.22384zm0.40322 0.53181c0 0.08573 0.06032 0.16034 0.1651 0.16034 0.16351 0 0.24765-0.15081 0.24765-0.15081v0.0381c0 0.07779 0.04763 0.11271 0.10795 0.11271 0.09366 0 0.16828-0.08414 0.16828-0.08414l-0.02064-0.03334s-0.04445 0.03175-0.08731 0.03175c-0.03651 0-0.04286-0.02381-0.04286-0.07461v-0.36512c0-0.16669-0.03969-0.22701-0.18891-0.22701-0.1778 0-0.29369 0.0889-0.29369 0.0889l0.02699 0.11906h0.0508s0.06032-0.1524 0.16828-0.1524c0.05874 0 0.0889 0.04286 0.10001 0.1016 0.0079 0.04445 0.0079 0.13652 0.0063 0.16986l-0.05398 0.0079c-0.1651 0.0254-0.35401 0.10478-0.35401 0.25718zm0.2286 0.06985c-0.04763 0-0.0889-0.03493-0.0889-0.09842 0-0.1143 0.12859-0.16192 0.21908-0.17621l0.04921-0.0079v0.18732c-0.04127 0.03493-0.11748 0.09525-0.17939 0.09525zm0.59531-0.11748c0 0.14446 0.0635 0.20796 0.17621 0.20796 0.13811 0 0.2286-0.09842 0.2286-0.09842l-0.02064-0.03016s-0.07144 0.03334-0.14288 0.03334c-0.08414 0-0.11112-0.0508-0.11112-0.14288v-0.40322l0.01588-0.01588h0.21908l0.01111-0.0762h-0.24765v-0.02381c0-0.11271 0.01429-0.15875 0.01429-0.15875l-0.0048-0.0048-0.07144-0.0016-0.05874 0.17304c-0.0381 0.03492-0.10795 0.04921-0.10795 0.04921v0.04763h0.10478s-0.0048 0.05715-0.0048 0.10319zm0.5588 0.22701c0 0.16192-0.08255 0.28734-0.16828 0.30004l0.01905 0.0381c0.1778 0 0.2794-0.15558 0.2794-0.42069v-0.53181c0-0.12859 0.01746-0.17462 0.01746-0.17462l-0.0016-0.0048s-0.03492 0.02064-0.26511 0.07461v0.04286h0.07144c0.04604 0 0.04763 0.03969 0.04763 0.10795zm0.0508-0.93345c0.04604 0 0.08573-0.03969 0.08573-0.08573s-0.03969-0.08573-0.08573-0.08573-0.08572 0.03969-0.08572 0.08573 0.03969 0.08573 0.08572 0.08573zm0.33814 0.70168c0 0.1524 0.06826 0.21272 0.17939 0.21272 0.13335 0 0.23812-0.09366 0.29528-0.1778v0.08255c0 0.03969-0.01429 0.08573-0.01429 0.08573l0.0063 0.0048s0.08731-0.01429 0.26035-0.03175l0.0048-0.04286h-0.04445c-0.05239 0-0.0889 0-0.0889-0.09049v-0.4191c0-0.12224 0.01429-0.16669 0.01429-0.16669l-0.0064-0.0048s-0.08572 0.03175-0.23812 0.05874v0.04445h0.05239c0.04604 0 0.04762 0.03969 0.04762 0.10795v0.33972c-0.06826 0.06985-0.15716 0.11271-0.23019 0.11271-0.06509 0-0.10795-0.03175-0.10795-0.1524v-0.33972c0-0.12224 0.01429-0.16669 0.01429-0.16669l-0.0063-0.0048s-0.08731 0.03175-0.2413 0.05874v0.04445h0.05556c0.04604 0 0.04763 0.03969 0.04763 0.10795zm0.80963 0.19844 0.34131-0.0095 0.0063-0.03969-0.127-0.01429s0.0079-0.0381 0.0079-0.08573v-0.381c0.06826-0.06826 0.15716-0.11112 0.2286-0.11112 0.06033 0 0.09366 0.03175 0.09366 0.1524v0.33972c0 0.05715-0.01905 0.09525-0.09049 0.10319v0.04604l0.33338-0.0095 0.0063-0.03969-0.127-0.01429s0.0079-0.0381 0.0079-0.08573v-0.33496c0-0.09208 0.16192-0.15716 0.23336-0.15716 0.05874 0 0.09208 0.03175 0.09208 0.1524v0.33972c0 0.05715-0.01905 0.09525-0.09049 0.10319v0.04604l0.34131-0.0095 0.0064-0.03969-0.13494-0.01429s0.0079-0.0381 0.0079-0.08573v-0.37465c0-0.15875-0.06668-0.21431-0.16986-0.21431-0.12541 0-0.23019 0.08731-0.29051 0.18256 0-0.12541-0.06509-0.18256-0.16669-0.18256-0.12859 0-0.23019 0.09208-0.28734 0.17462 0.0048-0.14129 0.01905-0.19209 0.01905-0.19209l-0.0048-0.0048s-0.09843 0.04286-0.254 0.07461v0.04286h0.06826c0.04604 0 0.04763 0.03969 0.04763 0.10795v0.38576c0 0.05715-0.02699 0.09525-0.09843 0.10319zm1.3414 0.38418c0.1143-0.0381 0.36512-0.06826 0.36512-0.06826l0.0063-0.0381h-0.16669s0.0079-0.04286 0.0079-0.09049v-0.18256c0.03016 0.0048 0.0635 0.0095 0.10636 0.0095 0.2794 0 0.40799-0.20479 0.40799-0.4064 0-0.17462-0.09525-0.34608-0.28892-0.34608-0.12541 0-0.18574 0.06985-0.2286 0.12382 0.0063-0.1016 0.01587-0.14129 0.01587-0.14129l-0.0048-0.0048s-0.09366 0.04286-0.24924 0.07461v0.04286h0.0635c0.04604 0 0.04763 0.03969 0.04763 0.10795v0.7239c0 0.07302-0.01111 0.10954-0.08255 0.14922zm0.32702-0.43021c-0.05239 0-0.1143-0.01111-0.1143-0.08573v-0.44768c0.04921-0.0381 0.10636-0.06668 0.16828-0.06668 0.14129 0 0.20796 0.14764 0.20796 0.30004 0 0.18098-0.09684 0.30004-0.26194 0.30004z"/><path d="m42.672 25.724s0.15081-0.0048 0.23019-0.0048h0.14288c0.28575 0 0.43021-0.13176 0.43021-0.30004 0-0.19368-0.19209-0.25082-0.2667-0.2667 0.09684-0.05397 0.18891-0.14129 0.18891-0.26035 0-0.12541-0.10319-0.23178-0.36989-0.23178h-0.37148v0.03969c0.12224 0.02381 0.13018 0.03969 0.13018 0.11589v0.75882c0 0.05715-0.04286 0.09049-0.1143 0.09843zm0.24606-0.06668s0.0079-0.03969 0.0079-0.08731v-0.34925l0.01588-0.01588h0.04286c0.0635 0 0.3302-0.0079 0.3302 0.23812 0 0.10795-0.05239 0.21431-0.29528 0.21431zm0.0079-0.51435v-0.40481l0.01588-0.01587h0.07461c0.16351 0 0.22542 0.10636 0.22542 0.20002 0 0.1016-0.07303 0.2159-0.1524 0.22066zm0.66199 0.43498c0 0.08573 0.06033 0.16034 0.1651 0.16034 0.16351 0 0.24765-0.15081 0.24765-0.15081v0.0381c0 0.07779 0.04763 0.11271 0.10795 0.11271 0.09366 0 0.16828-0.08414 0.16828-0.08414l-0.02064-0.03334s-0.04445 0.03175-0.08731 0.03175c-0.03651 0-0.04286-0.02381-0.04286-0.07461v-0.36512c0-0.16669-0.03969-0.22701-0.18891-0.22701-0.1778 0-0.29369 0.0889-0.29369 0.0889l0.02699 0.11906h0.0508s0.06033-0.1524 0.16828-0.1524c0.05874 0 0.0889 0.04286 0.10001 0.1016 0.0079 0.04445 0.0079 0.13652 0.0064 0.16986l-0.05398 0.0079c-0.1651 0.0254-0.35401 0.10478-0.35401 0.25718zm0.2286 0.06985c-0.04762 0-0.0889-0.03493-0.0889-0.09842 0-0.1143 0.12859-0.16192 0.21908-0.17621l0.04921-0.0079v0.18732c-0.04128 0.03493-0.11748 0.09525-0.17939 0.09525zm0.51752-0.27146c0 0.18256 0.1143 0.36195 0.33655 0.36195 0.18415 0 0.25718-0.13811 0.25718-0.13811l-0.01746-0.03334s-0.06509 0.06509-0.18415 0.06509c-0.18732 0-0.26194-0.14922-0.26194-0.30162 0-0.15399 0.07144-0.29051 0.19844-0.29051 0.11112 0 0.12065 0.12382 0.20161 0.12382 0.0381 0 0.06032-0.02699 0.06032-0.05715 0-0.08255-0.15399-0.12065-0.25082-0.12065-0.21908 0-0.33972 0.19844-0.33972 0.39052zm0.68421 0.34766 0.34131-0.0095 0.0063-0.03969-0.127-0.01429s0.0079-0.0381 0.0079-0.08573v-0.22701h0.01905l0.23654 0.2667c0.04445 0.05239 0.06509 0.10954 0.06509 0.10954l0.2286-0.0048 0.0063-0.04763-0.01746-0.0016c-0.05874-0.0048-0.07303-0.01746-0.14288-0.09366l-0.23495-0.254c-0.01111-0.01111-0.0254-0.03175-0.0254-0.03175v-0.01587l0.18415-0.15716c0.07461-0.0635 0.16669-0.08731 0.16669-0.08731l-0.0079-0.0254h-0.29051v0.03969c0.03492 0.0095 0.05239 0.02064 0.05239 0.03969 0 0.02858-0.03493 0.05397-0.06032 0.0762l-0.16034 0.13494h-0.01905v-0.56356c0-0.12224 0.01588-0.18098 0.01588-0.18098l-0.0048-0.0048s-0.07303 0.03175-0.25559 0.07144v0.04286h0.06667c0.04604 0 0.04763 0.03969 0.04763 0.10795v0.80645c0 0.05715-0.02699 0.09525-0.09842 0.10319z"/></g><g stroke-width=".26458" aria-label="Beatjump Forward"><path d="m47.617 23.74s0.15081-0.0048 0.23019-0.0048h0.14288c0.28575 0 0.43021-0.13176 0.43021-0.30004 0-0.19368-0.19209-0.25082-0.2667-0.2667 0.09684-0.05397 0.18891-0.14129 0.18891-0.26035 0-0.12541-0.10319-0.23178-0.36989-0.23178h-0.37148v0.03969c0.12224 0.02381 0.13018 0.03969 0.13018 0.11589v0.75882c0 0.05715-0.04286 0.09049-0.1143 0.09843zm0.24606-0.06668s0.0079-0.03969 0.0079-0.08731v-0.34925l0.01588-0.01588h0.04286c0.0635 0 0.3302-0.0079 0.3302 0.23812 0 0.10795-0.05239 0.21431-0.29528 0.21431zm0.0079-0.51435v-0.40481l0.01588-0.01587h0.07461c0.16351 0 0.22542 0.10636 0.22542 0.20002 0 0.1016-0.07303 0.2159-0.1524 0.22066zm0.67786 0.23336c0 0.18574 0.11112 0.36195 0.33655 0.36195 0.18891 0 0.27146-0.14922 0.27146-0.14922l-0.01746-0.03334s-0.0762 0.0762-0.20638 0.0762c-0.1778 0-0.25082-0.14129-0.25718-0.28575l0.01588-0.01905 0.39529-0.05715c0.03175-0.0048 0.07302-0.02064 0.07302-0.02064-0.0048-0.17462-0.1397-0.26352-0.27622-0.26352-0.19209 0-0.33496 0.17462-0.33496 0.39052zm0.31115-0.3302c0.1397 0 0.1524 0.18098 0.1524 0.18098l-0.33338 0.04286c0.01429-0.11906 0.07461-0.22384 0.18098-0.22384zm0.40322 0.53181c0 0.08573 0.06032 0.16034 0.1651 0.16034 0.16351 0 0.24765-0.15081 0.24765-0.15081v0.0381c0 0.07779 0.04762 0.11271 0.10795 0.11271 0.09366 0 0.16828-0.08414 0.16828-0.08414l-0.02064-0.03334s-0.04445 0.03175-0.08731 0.03175c-0.03651 0-0.04286-0.02381-0.04286-0.07461v-0.36512c0-0.16669-0.03969-0.22701-0.18891-0.22701-0.1778 0-0.29369 0.0889-0.29369 0.0889l0.02699 0.11906h0.0508s0.06032-0.1524 0.16828-0.1524c0.05874 0 0.0889 0.04286 0.10001 0.1016 0.0079 0.04445 0.0079 0.13652 0.0063 0.16986l-0.05397 0.0079c-0.1651 0.0254-0.35401 0.10478-0.35401 0.25718zm0.2286 0.06985c-0.04762 0-0.0889-0.03493-0.0889-0.09842 0-0.1143 0.12859-0.16192 0.21908-0.17621l0.04921-0.0079v0.18732c-0.04127 0.03493-0.11748 0.09525-0.17939 0.09525zm0.59531-0.11748c0 0.14446 0.0635 0.20796 0.17621 0.20796 0.13811 0 0.2286-0.09842 0.2286-0.09842l-0.02064-0.03016s-0.07144 0.03334-0.14288 0.03334c-0.08414 0-0.11112-0.0508-0.11112-0.14288v-0.40322l0.01588-0.01588h0.21908l0.01111-0.0762h-0.24765v-0.02381c0-0.11271 0.01429-0.15875 0.01429-0.15875l-0.0048-0.0048-0.07144-0.0016-0.05874 0.17304c-0.0381 0.03492-0.10795 0.04921-0.10795 0.04921v0.04763h0.10478s-0.0048 0.05715-0.0048 0.10319zm0.5588 0.22701c0 0.16192-0.08255 0.28734-0.16828 0.30004l0.01905 0.0381c0.1778 0 0.2794-0.15558 0.2794-0.42069v-0.53181c0-0.12859 0.01746-0.17462 0.01746-0.17462l-0.0016-0.0048s-0.03493 0.02064-0.26511 0.07461v0.04286h0.07144c0.04604 0 0.04762 0.03969 0.04762 0.10795zm0.0508-0.93345c0.04604 0 0.08572-0.03969 0.08572-0.08573s-0.03969-0.08573-0.08572-0.08573c-0.04604 0-0.08573 0.03969-0.08573 0.08573s0.03969 0.08573 0.08573 0.08573zm0.33814 0.70168c0 0.1524 0.06826 0.21272 0.17939 0.21272 0.13335 0 0.23812-0.09366 0.29528-0.1778v0.08255c0 0.03969-0.01429 0.08573-0.01429 0.08573l0.0063 0.0048s0.08731-0.01429 0.26035-0.03175l0.0048-0.04286h-0.04445c-0.05239 0-0.0889 0-0.0889-0.09049v-0.4191c0-0.12224 0.01429-0.16669 0.01429-0.16669l-0.0064-0.0048s-0.08572 0.03175-0.23812 0.05874v0.04445h0.05239c0.04604 0 0.04763 0.03969 0.04763 0.10795v0.33972c-0.06826 0.06985-0.15716 0.11271-0.23019 0.11271-0.06509 0-0.10795-0.03175-0.10795-0.1524v-0.33972c0-0.12224 0.01429-0.16669 0.01429-0.16669l-0.0064-0.0048s-0.08731 0.03175-0.2413 0.05874v0.04445h0.05556c0.04604 0 0.04762 0.03969 0.04762 0.10795zm0.80962 0.19844 0.34131-0.0095 0.0063-0.03969-0.127-0.01429s0.0079-0.0381 0.0079-0.08573v-0.381c0.06826-0.06826 0.15716-0.11112 0.2286-0.11112 0.06032 0 0.09366 0.03175 0.09366 0.1524v0.33972c0 0.05715-0.01905 0.09525-0.09049 0.10319v0.04604l0.33338-0.0095 0.0064-0.03969-0.127-0.01429s0.0079-0.0381 0.0079-0.08573v-0.33496c0-0.09208 0.16192-0.15716 0.23336-0.15716 0.05874 0 0.09208 0.03175 0.09208 0.1524v0.33972c0 0.05715-0.01905 0.09525-0.09049 0.10319v0.04604l0.34131-0.0095 0.0063-0.03969-0.13494-0.01429s0.0079-0.0381 0.0079-0.08573v-0.37465c0-0.15875-0.06667-0.21431-0.16986-0.21431-0.12541 0-0.23019 0.08731-0.29051 0.18256 0-0.12541-0.06509-0.18256-0.16669-0.18256-0.12859 0-0.23019 0.09208-0.28734 0.17462 0.0048-0.14129 0.01905-0.19209 0.01905-0.19209l-0.0048-0.0048s-0.09842 0.04286-0.254 0.07461v0.04286h0.06826c0.04604 0 0.04763 0.03969 0.04763 0.10795v0.38576c0 0.05715-0.02699 0.09525-0.09842 0.10319zm1.3414 0.38418c0.1143-0.0381 0.36512-0.06826 0.36512-0.06826l0.0063-0.0381h-0.16669s0.0079-0.04286 0.0079-0.09049v-0.18256c0.03016 0.0048 0.0635 0.0095 0.10636 0.0095 0.2794 0 0.40799-0.20479 0.40799-0.4064 0-0.17462-0.09525-0.34608-0.28892-0.34608-0.12541 0-0.18574 0.06985-0.2286 0.12382 0.0063-0.1016 0.01588-0.14129 0.01588-0.14129l-0.0048-0.0048s-0.09366 0.04286-0.24924 0.07461v0.04286h0.0635c0.04604 0 0.04762 0.03969 0.04762 0.10795v0.7239c0 0.07302-0.01111 0.10954-0.08255 0.14922zm0.32702-0.43021c-0.05239 0-0.1143-0.01111-0.1143-0.08573v-0.44768c0.04921-0.0381 0.10636-0.06668 0.16828-0.06668 0.14129 0 0.20796 0.14764 0.20796 0.30004 0 0.18098-0.09684 0.30004-0.26194 0.30004z"/><path d="m48.038 25.724 0.41434-0.0095 0.0063-0.04445-0.17462-0.01429s0.0079-0.0381 0.0079-0.08573v-0.33338l0.01588-0.01588h0.26352v0.11748h0.07461v-0.2794l-0.05874 0.0095-0.0127 0.09049h-0.28258v-0.42069l0.01588-0.01587h0.19209c0.127 0 0.17939 0.03334 0.17145 0.19685h0.05397l0.04921-0.26511s-0.04921 0.0064-0.1143 0.0064h-0.63818v0.03969c0.12224 0.02381 0.13018 0.03969 0.13018 0.11589v0.75406c0 0.05715-0.04286 0.09525-0.1143 0.10319zm0.77946-0.34608c0 0.2032 0.12382 0.36036 0.34766 0.36036 0.254 0 0.37624-0.20796 0.37624-0.40481 0-0.19526-0.11906-0.34766-0.35084-0.34766-0.26988 0-0.37306 0.20638-0.37306 0.39211zm0.14605-0.03651c0-0.1524 0.06191-0.30162 0.20796-0.30162 0.16034 0 0.22384 0.18098 0.22384 0.33814 0 0.16986-0.07302 0.30639-0.20796 0.30639-0.15875 0-0.22384-0.18415-0.22384-0.3429zm0.6985 0.38259 0.36512-0.0095 0.0064-0.03969-0.15081-0.01429s0.0079-0.0381 0.0079-0.08573v-0.37306c0.03493-0.03969 0.08731-0.09208 0.14129-0.09208 0.03651 0 0.04127 0.02699 0.07779 0.02699 0.04127 0 0.07461-0.03016 0.07461-0.07779 0-0.05398-0.04763-0.07303-0.08573-0.07303-0.08255 0-0.16669 0.09525-0.21431 0.18415 0.0048-0.14922 0.01905-0.20161 0.01905-0.20161l-0.0048-0.0048s-0.1016 0.04286-0.25718 0.07461v0.04286h0.07144c0.04604 0 0.04762 0.03969 0.04762 0.10795v0.38576c0 0.05715-0.02699 0.09525-0.09842 0.10319zm0.87789-0.0048 0.05874 0.02064 0.20796-0.48736 0.18256 0.46672 0.05874 0.02064 0.2667-0.62548c0.03016-0.07144 0.05715-0.08414 0.05715-0.08414l-0.0079-0.0254h-0.21272v0.03969c0.06033 0.01429 0.10636 0.0508 0.07938 0.1143l-0.17304 0.41116c-0.0079-0.02858-0.01746-0.0635-0.02699-0.09049l-0.12224-0.32861c-0.02858-0.07779 0.0016-0.14605 0.0016-0.14605l-0.0063-0.0063s-0.05556 0.0063-0.15558 0.0063h-0.07302v0.03969s0.05715 0.01111 0.08731 0.09208l0.0032 0.01111c0.0064 0.0254-0.0016 0.05239-0.0095 0.07303l-0.14764 0.35084-0.0254-0.08573-0.12382-0.33496c-0.02857-0.07779 0.0016-0.14605 0.0016-0.14605l-0.0063-0.0063s-0.05556 0.0063-0.15558 0.0063h-0.07303v0.03969s0.05556 0.01111 0.08731 0.09208zm0.88582-0.14129c0 0.08573 0.06032 0.16034 0.1651 0.16034 0.16351 0 0.24765-0.15081 0.24765-0.15081v0.0381c0 0.07779 0.04763 0.11271 0.10795 0.11271 0.09366 0 0.16828-0.08414 0.16828-0.08414l-0.02064-0.03334s-0.04445 0.03175-0.08731 0.03175c-0.03651 0-0.04286-0.02381-0.04286-0.07461v-0.36512c0-0.16669-0.03969-0.22701-0.18891-0.22701-0.1778 0-0.29369 0.0889-0.29369 0.0889l0.02699 0.11906h0.0508s0.06032-0.1524 0.16828-0.1524c0.05874 0 0.0889 0.04286 0.10001 0.1016 0.0079 0.04445 0.0079 0.13652 0.0063 0.16986l-0.05398 0.0079c-0.1651 0.0254-0.35401 0.10478-0.35401 0.25718zm0.2286 0.06985c-0.04763 0-0.0889-0.03493-0.0889-0.09842 0-0.1143 0.12859-0.16192 0.21908-0.17621l0.04921-0.0079v0.18732c-0.04127 0.03493-0.11748 0.09525-0.17939 0.09525zm0.51752 0.0762 0.36512-0.0095 0.0063-0.03969-0.15081-0.01429s0.0079-0.0381 0.0079-0.08573v-0.37306c0.03493-0.03969 0.08731-0.09208 0.14129-0.09208 0.03651 0 0.04127 0.02699 0.07779 0.02699 0.04127 0 0.07461-0.03016 0.07461-0.07779 0-0.05398-0.04763-0.07303-0.08573-0.07303-0.08255 0-0.16669 0.09525-0.21431 0.18415 0.0048-0.14922 0.01905-0.20161 0.01905-0.20161l-0.0048-0.0048s-0.1016 0.04286-0.25718 0.07461v0.04286h0.07144c0.04604 0 0.04763 0.03969 0.04763 0.10795v0.38576c0 0.05715-0.02699 0.09525-0.09843 0.10319zm0.58261-0.3302c0 0.17304 0.10319 0.34449 0.29845 0.34449 0.11906 0 0.18415-0.06509 0.22701-0.12859v0.03334c0 0.03969-0.0064 0.08414-0.0064 0.08414l0.0048 0.0048s0.08096-0.0127 0.254-0.03016l0.0048-0.04286h-0.04445c-0.05239 0-0.0889 0-0.0889-0.09049v-0.83661c0-0.12224 0.01588-0.18098 0.01588-0.18098l-0.0048-0.0048s-0.07302 0.03175-0.25559 0.07144v0.04286h0.06668c0.04604 0 0.04762 0.03969 0.04762 0.10795v0.22701s-0.05556-0.0095-0.11271-0.0095c-0.27146 0-0.4064 0.20796-0.4064 0.40799zm0.35401 0.25241c-0.14288 0-0.2159-0.14764-0.2159-0.30004 0-0.18415 0.10478-0.30004 0.2667-0.30004 0.0508 0 0.1143 0.01111 0.1143 0.08414v0.44609c-0.0254 0.0254-0.08731 0.06985-0.1651 0.06985z"/></g></g></svg>
