<?xml version="1.0" encoding="UTF-8"?>
<svg width="84.361mm" height="50.167mm" version="1.1" viewBox="0 0 84.361 50.167" xml:space="preserve" xmlns="http://www.w3.org/2000/svg"><g transform="translate(-37.23 -37.691)"><g stroke-linejoin="round"><g transform="matrix(.044578 0 0 .02687 -160.97 23.801)" clip-rule="evenodd" fill-rule="evenodd" stroke-miterlimit="1.5"><g transform="translate(-287,-128)"><g transform="translate(2211 1552.8)"><g transform="matrix(-1,0,0,-1.0028,4554.8,1200.2)"><path d="m1955.6 260.58c0-6.248-5.08-11.32-11.35-11.32h-80.61c-6.26 0-11.35 5.072-11.35 11.32v697.61h103.31z" fill="none" stroke="#000" stroke-linecap="round" stroke-width="6.24px"/></g><g transform="matrix(-1,0,0,-1.0028,4658.1,1200.2)"><path d="m1955.6 260.58c0-6.248-5.08-11.32-11.35-11.32h-80.61c-6.26 0-11.35 5.072-11.35 11.32v697.61h103.31z" fill="none" stroke="#000" stroke-linecap="round" stroke-width="6.24px"/></g><g transform="matrix(-1,0,0,-1.0028,4761.4,1200.2)"><path d="m1955.6 260.58c0-6.248-5.08-11.32-11.35-11.32h-80.61c-6.26 0-11.35 5.072-11.35 11.32v697.61h103.31z" fill="none" stroke="#000" stroke-linecap="round" stroke-width="6.24px"/></g><g transform="matrix(-1,0,0,-1.0028,4864.7,1200.2)"><path d="m1955.6 260.58c0-6.248-5.08-11.32-11.35-11.32h-80.61c-6.26 0-11.35 5.072-11.35 11.32v697.61h103.31z" fill="none" stroke="#000" stroke-linecap="round" stroke-width="6.24px"/></g><g transform="matrix(-1,0,0,-1.0028,4968,1200.2)"><path d="m1955.6 260.58c0-6.248-5.08-11.32-11.35-11.32h-80.61c-6.26 0-11.35 5.072-11.35 11.32v697.61h103.31z" fill="none" stroke="#000" stroke-linecap="round" stroke-width="6.24px"/></g><g transform="matrix(-1,0,0,-1.0028,5071.4,1200.2)"><path d="m1955.6 260.58c0-6.248-5.08-11.32-11.35-11.32h-80.61c-6.26 0-11.35 5.072-11.35 11.32v697.61h103.31z" fill="none" stroke="#000" stroke-linecap="round" stroke-width="6.24px"/></g><g transform="matrix(-1,0,0,-1.0028,5174.7,1200.2)"><path d="m1955.6 260.58c0-6.248-5.08-11.32-11.35-11.32h-80.61c-6.26 0-11.35 5.072-11.35 11.32v697.61h103.31z" fill="none" stroke="#000" stroke-linecap="round" stroke-width="6.24px"/></g><g transform="matrix(-1,0,0,-1.0016,4657.2,959.83)"><rect x="1926.8" y="239.31" width="55.911" height="480.06" stroke="#000" stroke-linecap="round" stroke-width="6.25px"/></g><g transform="translate(103.31)"><g transform="matrix(-1,0,0,-1.0016,4657.2,959.83)"><rect x="1926.8" y="239.31" width="55.911" height="480.06" stroke="#000" stroke-linecap="round" stroke-width="6.25px"/></g></g><g transform="translate(309.94)"><g transform="matrix(-1,0,0,-1.0016,4657.2,959.83)"><rect x="1926.8" y="239.31" width="55.911" height="480.06" stroke="#000" stroke-linecap="round" stroke-width="6.25px"/></g></g><g transform="translate(413.25)"><g transform="matrix(-1,0,0,-1.0016,4657.2,959.83)"><rect x="1926.8" y="239.31" width="55.911" height="480.06" stroke="#000" stroke-linecap="round" stroke-width="6.25px"/></g></g><g transform="translate(516.56)"><g transform="matrix(-1,0,0,-1.0016,4657.2,959.83)"><rect x="1926.8" y="239.31" width="55.911" height="480.06" stroke="#000" stroke-linecap="round" stroke-width="6.25px"/></g></g><g transform="matrix(.89538 0 0 1 296.62 0)"><path d="m3379.3 239.31h-807.68" fill="none" stroke="#000" stroke-linecap="square" stroke-width="6.58px"/></g></g><g transform="translate(2934.2 1552.8)"><g transform="matrix(-1,0,0,-1.0028,4554.8,1200.2)"><path d="m1955.6 260.58c0-6.248-5.08-11.32-11.35-11.32h-80.61c-6.26 0-11.35 5.072-11.35 11.32v697.61h103.31z" fill="none" stroke="#000" stroke-linecap="round" stroke-width="6.24px"/></g><g transform="matrix(-1,0,0,-1.0028,4658.1,1200.2)"><path d="m1955.6 260.58c0-6.248-5.08-11.32-11.35-11.32h-80.61c-6.26 0-11.35 5.072-11.35 11.32v697.61h103.31z" fill="none" stroke="#000" stroke-linecap="round" stroke-width="6.24px"/></g><g transform="matrix(-1,0,0,-1.0028,4761.4,1200.2)"><path d="m1955.6 260.58c0-6.248-5.08-11.32-11.35-11.32h-80.61c-6.26 0-11.35 5.072-11.35 11.32v697.61h103.31z" fill="none" stroke="#000" stroke-linecap="round" stroke-width="6.24px"/></g><g transform="matrix(-1,0,0,-1.0028,4864.7,1200.2)"><path d="m1955.6 260.58c0-6.248-5.08-11.32-11.35-11.32h-80.61c-6.26 0-11.35 5.072-11.35 11.32v697.61h103.31z" fill="none" stroke="#000" stroke-linecap="round" stroke-width="6.24px"/></g><g transform="matrix(-1,0,0,-1.0028,4968,1200.2)"><path d="m1955.6 260.58c0-6.248-5.08-11.32-11.35-11.32h-80.61c-6.26 0-11.35 5.072-11.35 11.32v697.61h103.31z" fill="none" stroke="#000" stroke-linecap="round" stroke-width="6.24px"/></g><g transform="matrix(-1,0,0,-1.0028,5071.4,1200.2)"><path d="m1955.6 260.58c0-6.248-5.08-11.32-11.35-11.32h-80.61c-6.26 0-11.35 5.072-11.35 11.32v697.61h103.31z" fill="none" stroke="#000" stroke-linecap="round" stroke-width="6.24px"/></g><g transform="matrix(-1,0,0,-1.0028,5174.7,1200.2)"><path d="m1955.6 260.58c0-6.248-5.08-11.32-11.35-11.32h-80.61c-6.26 0-11.35 5.072-11.35 11.32v697.61h103.31z" fill="none" stroke="#000" stroke-linecap="round" stroke-width="6.24px"/></g><g transform="matrix(-1,0,0,-1.0016,4657.2,959.83)"><rect x="1926.8" y="239.31" width="55.911" height="480.06" stroke="#000" stroke-linecap="round" stroke-width="6.25px"/></g><g transform="translate(103.31)"><g transform="matrix(-1,0,0,-1.0016,4657.2,959.83)"><rect x="1926.8" y="239.31" width="55.911" height="480.06" stroke="#000" stroke-linecap="round" stroke-width="6.25px"/></g></g><g transform="translate(309.94)"><g transform="matrix(-1,0,0,-1.0016,4657.2,959.83)"><rect x="1926.8" y="239.31" width="55.911" height="480.06" stroke="#000" stroke-linecap="round" stroke-width="6.25px"/></g></g><g transform="translate(413.25)"><g transform="matrix(-1,0,0,-1.0016,4657.2,959.83)"><rect x="1926.8" y="239.31" width="55.911" height="480.06" stroke="#000" stroke-linecap="round" stroke-width="6.25px"/></g></g><g transform="translate(516.56)"><g transform="matrix(-1,0,0,-1.0016,4657.2,959.83)"><rect x="1926.8" y="239.31" width="55.911" height="480.06" stroke="#000" stroke-linecap="round" stroke-width="6.25px"/></g></g><g transform="matrix(.89538 0 0 1 296.62 0)"><path d="m3379.3 239.31h-807.68" fill="none" stroke="#000" stroke-linecap="square" stroke-width="6.58px"/></g></g><g transform="translate(3657.4 1552.8)"><g transform="matrix(-1,0,0,-1.0028,4554.8,1200.2)"><path d="m1955.6 260.58c0-6.248-5.08-11.32-11.35-11.32h-80.61c-6.26 0-11.35 5.072-11.35 11.32v697.61h103.31z" fill="none" stroke="#000" stroke-linecap="round" stroke-width="6.24px"/></g></g></g></g><rect x="40.206" y="49.167" width="3.4238" height="12.001" rx=".80789" ry=".45521" fill="none" stroke="#000" stroke-linecap="round" stroke-width=".27503"/><rect x="45.197" y="49.167" width="3.4238" height="12.001" rx=".80789" ry=".45521" fill="none" stroke="#000" stroke-linecap="round" stroke-width=".27503"/></g><rect x="40.299" y="62.335" width="3.2389" height="1.7394" rx=".80789" ry=".075337" fill="none" stroke="#000" stroke-linecap="round" stroke-linejoin="round" stroke-width=".3"/><text x="42.745041" y="63.637691" font-family="'Bebas Neue'" font-size="1.2379px" stroke-width=".11408" text-align="end" text-anchor="end" style="font-variant-caps:normal;font-variant-east-asian:normal;font-variant-ligatures:normal;font-variant-numeric:normal;line-height:1.25" xml:space="preserve"><tspan x="42.745041" y="63.637691">OCT-</tspan></text><rect x="45.29" y="62.335" width="3.2389" height="1.7394" rx=".80789" ry=".075337" fill="none" stroke="#000" stroke-linecap="round" stroke-linejoin="round" stroke-width=".3"/><text x="47.863075" y="63.637691" font-family="'Bebas Neue'" font-size="1.2379px" stroke-width=".11408" text-align="end" text-anchor="end" style="font-variant-caps:normal;font-variant-east-asian:normal;font-variant-ligatures:normal;font-variant-numeric:normal;line-height:1.25" xml:space="preserve"><tspan x="47.863075" y="63.637691">OCT+</tspan></text><rect x="53.793" y="54.197" width="3.4202" height="1.4209" rx=".85312" ry=".061541" fill="#4396f0" stroke="#000" stroke-linecap="round" stroke-linejoin="round" stroke-width=".27863"/><text x="55.960609" y="55.340714" font-family="'Bebas Neue'" font-size="1.2379px" stroke-width=".11408" text-align="end" text-anchor="end" style="font-variant-caps:normal;font-variant-east-asian:normal;font-variant-ligatures:normal;font-variant-numeric:normal;line-height:1.25" xml:space="preserve"><tspan x="55.960609" y="55.340714">BT</tspan></text><rect x="53.793" y="56.69" width="3.4202" height="1.4209" rx=".85312" ry=".061541" fill="none" stroke="#000" stroke-linecap="round" stroke-linejoin="round" stroke-width=".27863"/><text x="56.298557" y="57.834003" font-family="'Bebas Neue'" font-size="1.2379px" stroke-width=".11408" text-align="end" text-anchor="end" style="font-variant-caps:normal;font-variant-east-asian:normal;font-variant-ligatures:normal;font-variant-numeric:normal;line-height:1.25" xml:space="preserve"><tspan x="56.298557" y="57.834003" font-family="'Bebas Neue'" font-size="1.2379px" stroke-width=".11408" style="font-variant-caps:normal;font-variant-east-asian:normal;font-variant-ligatures:normal;font-variant-numeric:normal">MCP</tspan></text><rect x="53.793" y="59.184" width="3.4202" height="1.4209" rx=".85312" ry=".061541" fill="none" stroke="#000" stroke-linecap="round" stroke-linejoin="round" stroke-width=".27863"/><text x="56.244091" y="60.32729" font-family="'Bebas Neue'" font-size="1.2379px" stroke-width=".11408" text-align="end" text-anchor="end" style="font-variant-caps:normal;font-variant-east-asian:normal;font-variant-ligatures:normal;font-variant-numeric:normal;line-height:1.25" xml:space="preserve"><tspan x="56.244091" y="60.32729">ARP</tspan></text><rect x="53.793" y="61.677" width="3.4202" height="1.4209" rx=".85312" ry=".061541" fill="none" stroke="#000" stroke-linecap="round" stroke-linejoin="round" stroke-width=".27863"/><text x="56.720062" y="62.82058" font-family="'Bebas Neue'" font-size="1.2379px" stroke-width=".11408" text-align="end" text-anchor="end" style="font-variant-caps:normal;font-variant-east-asian:normal;font-variant-ligatures:normal;font-variant-numeric:normal;line-height:1.25" xml:space="preserve"><tspan x="56.720062" y="62.82058">SC/CH</tspan></text><rect x="37.38" y="46.141" width="75.48" height="41.567" rx="2.1716" ry="2.162" fill="none" stroke="#000" stroke-linecap="round" stroke-linejoin="round" stroke-width=".30096"/><rect x="51.398" y="48.927" width="5.9943" height="3.704" rx=".49687" ry=".48643" fill="#282828" stroke="#000" stroke-linecap="round" stroke-linejoin="round" stroke-width=".3"/><text x="54.395592" y="52.004902" fill="#ffffff" font-family="'DSEG7 Classic'" font-size="2.3458px" stroke-width=".21619" text-align="center" text-anchor="middle" style="font-variant-caps:normal;font-variant-east-asian:normal;font-variant-ligatures:normal;font-variant-numeric:normal;line-height:1.25" xml:space="preserve"><tspan x="54.395592" y="52.004902" stroke-width=".21619">Pr1</tspan></text><g fill="none" stroke="#000" stroke-linecap="round" stroke-linejoin="round" stroke-width=".3"><circle cx="61.743" cy="50.906" r="1.8379"/><circle cx="68.303" cy="50.906" r="1.8379"/><circle cx="74.864" cy="50.906" r="1.8379"/><circle cx="81.425" cy="50.906" r="1.8379"/><circle cx="87.986" cy="50.906" r="1.8379"/><circle cx="94.547" cy="50.906" r="1.8379"/><circle cx="101.11" cy="50.906" r="1.8379"/><circle cx="107.67" cy="50.906" r="1.8379"/></g><g transform="translate(-18.355 39.539)"><text x="60.298843" y="5.1143775" font-family="Calluna" font-size="1.5875px" stroke-width=".26458" text-align="center" text-anchor="middle" style="font-variant-caps:normal;font-variant-east-asian:normal;font-variant-ligatures:normal;font-variant-numeric:normal;line-height:1.25" xml:space="preserve"><tspan x="60.298843" y="5.1143775">Tempo</tspan></text><path d="m60.282 5.7899v3.4059" fill="none" stroke="#a2a2a2" stroke-dasharray="0.3,0.6000018" stroke-linecap="round" stroke-linejoin="round" stroke-width=".3" style="paint-order:normal"/></g><g transform="translate(13.211 .49072)"><text x="61.627762" y="44.215321" font-family="Calluna" font-size="1.5875px" stroke-width=".26458" text-align="center" text-anchor="middle" style="font-variant-caps:normal;font-variant-east-asian:normal;font-variant-ligatures:normal;font-variant-numeric:normal;line-height:1.25" xml:space="preserve"><tspan x="61.627762" y="44.215321">Deck EQ</tspan></text><path d="m61.653 44.891v3.4059" fill="none" stroke="#a2a2a2" stroke-dasharray="0.3, 0.600002" stroke-linecap="round" stroke-linejoin="round" stroke-width=".3" style="paint-order:normal"/></g><g transform="translate(-4.8266 38.083)"><path d="m60.282 7.5399v10.616" fill="none" stroke="#a2a2a2" stroke-dasharray="0.3, 0.600002" stroke-linecap="round" stroke-linejoin="round" stroke-width=".3" style="paint-order:normal"/><text x="60.298843" y="4.9561238" font-family="Calluna" font-size="1.5875px" stroke-width=".26458" text-align="center" text-anchor="middle" style="font-variant-caps:normal;font-variant-east-asian:normal;font-variant-ligatures:normal;font-variant-numeric:normal;line-height:1.25" xml:space="preserve"><tspan x="60.298843" y="4.9561238">Layer</tspan><tspan x="60.298843" y="6.9404988">Select</tspan></text></g><g transform="translate(-13.357 39.644)"><text x="60.298843" y="3.5268774" font-family="Calluna" font-size="1.5875px" stroke-width=".26458" text-align="center" text-anchor="middle" style="font-variant-caps:normal;font-variant-east-asian:normal;font-variant-ligatures:normal;font-variant-numeric:normal;line-height:1.25" xml:space="preserve"><tspan x="60.298843" y="3.5268774">Volume</tspan></text><path d="m60.282 4.3087v4.6324" fill="none" stroke="#a2a2a2" stroke-dasharray="0.3, 0.600002" stroke-linecap="round" stroke-linejoin="round" stroke-width=".3" style="paint-order:normal"/></g><g transform="translate(34.248 39.539)"><text x="60.298843" y="5.1143775" font-family="Calluna" font-size="1.5875px" stroke-width=".26458" text-align="center" text-anchor="middle" style="font-variant-caps:normal;font-variant-east-asian:normal;font-variant-ligatures:normal;font-variant-numeric:normal;line-height:1.25" xml:space="preserve"><tspan x="60.298843" y="5.1143775">X-Fader</tspan></text><path d="m60.282 5.7899v3.4059" fill="none" stroke="#a2a2a2" stroke-dasharray="0.3, 0.600002" stroke-linecap="round" stroke-linejoin="round" stroke-width=".3" style="paint-order:normal"/></g><g transform="translate(40.856 39.539)"><text x="60.298843" y="2.9977107" font-family="Calluna" font-size="1.5875px" stroke-width=".26458" text-align="center" text-anchor="middle" style="font-variant-caps:normal;font-variant-east-asian:normal;font-variant-ligatures:normal;font-variant-numeric:normal;line-height:1.25" xml:space="preserve"><tspan x="60.298843" y="2.9977107">Main</tspan><tspan x="60.298843" y="4.9820857">Gain</tspan></text><path d="m60.282 5.7899v3.4059" fill="none" stroke="#a2a2a2" stroke-dasharray="0.3,0.6000018" stroke-linecap="round" stroke-linejoin="round" stroke-width=".3" style="paint-order:normal"/></g><g transform="translate(47.337 39.539)"><text x="60.298843" y="2.9977107" font-family="Calluna" font-size="1.5875px" stroke-width=".26458" text-align="center" text-anchor="middle" style="font-variant-caps:normal;font-variant-east-asian:normal;font-variant-ligatures:normal;font-variant-numeric:normal;line-height:1.25" xml:space="preserve"><tspan x="60.298843" y="2.9977107">Head</tspan><tspan x="60.298843" y="4.9820857">Gain</tspan></text><path d="m60.282 5.7899v3.4059" fill="none" stroke="#a2a2a2" stroke-dasharray="0.3, 0.600002" stroke-linecap="round" stroke-linejoin="round" stroke-width=".3" style="paint-order:normal"/></g><rect x="58.578" y="48.727" width="32.573" height="4.4674" rx=".85312" ry=".061541" fill="none" stroke="#a2a2a2" stroke-dasharray="0.3, 0.600001" stroke-linecap="round" stroke-linejoin="round" stroke-width=".3"/></g><g transform="translate(1.848e-7 3.6727)" display="none"><g transform="translate(-37.23 -40.835)" display="inline" stroke="#000" stroke-linecap="round" stroke-linejoin="round" stroke-width=".3"><g fill="#5cf6f4"><rect x="59.141" y="53.622" width="5.2026" height="4.0716" rx=".49687" ry=".48643"/><rect x="65.702" y="53.622" width="5.2026" height="4.0716" rx=".49687" ry=".48643"/><rect x="72.263" y="53.622" width="5.2026" height="4.0716" rx=".49687" ry=".48643"/><rect x="78.824" y="53.622" width="5.2026" height="4.0716" rx=".49687" ry=".48643"/><rect x="85.385" y="53.622" width="5.2026" height="4.0716" rx=".49687" ry=".48643"/><rect x="91.946" y="53.622" width="5.2026" height="4.0716" rx=".49687" ry=".48643"/><rect x="98.507" y="53.622" width="5.2026" height="4.0716" rx=".49687" ry=".48643"/><rect x="105.07" y="53.622" width="5.2026" height="4.0716" rx=".49687" ry=".48643"/></g><g fill="#f65cf3"><rect x="105.07" y="58.523" width="5.2026" height="4.0716" rx=".49687" ry=".48643"/><rect x="98.507" y="58.523" width="5.2026" height="4.0716" rx=".49687" ry=".48643"/><rect x="91.946" y="58.523" width="5.2026" height="4.0716" rx=".49687" ry=".48643"/><rect x="85.385" y="58.523" width="5.2026" height="4.0716" rx=".49687" ry=".48643"/><rect x="78.824" y="58.523" width="5.2026" height="4.0716" rx=".49687" ry=".48643"/><rect x="72.263" y="58.523" width="5.2026" height="4.0716" rx=".49687" ry=".48643"/><rect x="65.702" y="58.523" width="5.2026" height="4.0716" rx=".49687" ry=".48643"/><rect x="59.141" y="58.523" width="5.2026" height="4.0716" rx=".49687" ry=".48643"/></g></g><g transform="translate(15.445 9.8417)"><text x="65.748802" y="7.8237615" font-family="Calluna" font-size="1.5875px" stroke-width=".26458" text-align="center" text-anchor="middle" style="font-variant-caps:normal;font-variant-east-asian:normal;font-variant-ligatures:normal;font-variant-numeric:normal;line-height:1.25" xml:space="preserve"><tspan x="65.748802" y="7.8237615">Samplers</tspan></text><path d="m61.924 7.4316h-3.4059" fill="none" stroke="#a2a2a2" stroke-dasharray="0.3, 0.600002" stroke-linecap="round" stroke-linejoin="round" stroke-width=".3" style="paint-order:normal"/></g><text transform="translate(-37.23 -41.364)" x="75.102837" y="39.667332" font-family="Calluna" font-size="2.9104px" stroke-width=".26458" text-align="center" text-anchor="middle" style="font-variant-caps:normal;font-variant-east-asian:normal;font-variant-ligatures:normal;font-variant-numeric:normal;line-height:1.25" xml:space="preserve"><tspan x="75.102837" y="39.667332" font-family="Calluna" font-size="2.9104px" stroke-width=".26458" style="font-variant-caps:normal;font-variant-east-asian:normal;font-variant-ligatures:normal;font-variant-numeric:normal">Layer One</tspan></text></g><g transform="translate(1.848e-7 3.6727)"><g transform="translate(-37.23 -40.835)" stroke="#000" stroke-linecap="round" stroke-linejoin="round" stroke-width=".3"><rect x="59.141" y="53.622" width="5.2026" height="4.0716" rx=".49687" ry=".48643" fill="#f63636"/><rect x="65.702" y="53.622" width="5.2026" height="4.0716" rx=".49687" ry=".48643" fill="#f63636"/><rect x="72.263" y="53.622" width="5.2026" height="4.0716" rx=".49687" ry=".48643" fill="none"/><rect x="78.824" y="53.622" width="5.2026" height="4.0716" rx=".49687" ry=".48643" fill="#f63636"/><rect x="85.385" y="53.622" width="5.2026" height="4.0716" rx=".49687" ry=".48643" fill="none"/><rect x="91.946" y="53.622" width="5.2026" height="4.0716" rx=".49687" ry=".48643" fill="none"/><rect x="98.507" y="53.622" width="5.2026" height="4.0716" rx=".49687" ry=".48643" fill="#f63636"/><rect x="105.07" y="53.622" width="5.2026" height="4.0716" rx=".49687" ry=".48643" fill="none"/><rect x="105.07" y="58.523" width="5.2026" height="4.0716" rx=".49687" ry=".48643" fill="#5cf6f4"/><rect x="98.507" y="58.523" width="5.2026" height="4.0716" rx=".49687" ry=".48643" fill="#f2f966"/><rect x="91.946" y="58.523" width="5.2026" height="4.0716" rx=".49687" ry=".48643" fill="#f2f966"/><g fill="none"><rect x="85.385" y="58.523" width="5.2026" height="4.0716" rx=".49687" ry=".48643"/><rect x="78.824" y="58.523" width="5.2026" height="4.0716" rx=".49687" ry=".48643"/><rect x="72.263" y="58.523" width="5.2026" height="4.0716" rx=".49687" ry=".48643"/><rect x="65.702" y="58.523" width="5.2026" height="4.0716" rx=".49687" ry=".48643"/></g><rect x="59.141" y="58.523" width="5.2026" height="4.0716" rx=".49687" ry=".48643" fill="#60f65c"/></g><text x="37.874672" y="-1.7052286" font-family="Calluna" font-size="2.9104px" stroke-width=".26458" text-align="center" text-anchor="middle" style="font-variant-caps:normal;font-variant-east-asian:normal;font-variant-ligatures:normal;font-variant-numeric:normal;line-height:1.25" xml:space="preserve"><tspan x="37.874672" y="-1.7052286">Layer Two</tspan></text><g transform="translate(15.445 7.5287)"><text x="64.35022" y="7.8237615" font-family="Calluna" font-size="1.5875px" stroke-width=".26458" text-align="center" text-anchor="middle" style="font-variant-caps:normal;font-variant-east-asian:normal;font-variant-ligatures:normal;font-variant-numeric:normal;line-height:1.25" xml:space="preserve"><tspan x="64.35022" y="7.8237615">Cues</tspan></text><path d="m61.924 7.4316h-3.4059" fill="none" stroke="#a2a2a2" stroke-dasharray="0.328346, 0.656694" stroke-linecap="round" stroke-linejoin="round" stroke-width=".32835" style="paint-order:normal"/></g><g font-family="Calluna" font-size="1.5875px" stroke-width=".26458" text-anchor="middle"><text x="24.482752" y="23.841303" text-align="center" style="font-variant-caps:normal;font-variant-east-asian:normal;font-variant-ligatures:normal;font-variant-numeric:normal;line-height:1.25" xml:space="preserve"><tspan x="24.482752" y="23.841303">Play</tspan></text><text x="31.06749" y="23.746054" text-align="center" style="font-variant-caps:normal;font-variant-east-asian:normal;font-variant-ligatures:normal;font-variant-numeric:normal;line-height:1.25" xml:space="preserve"><tspan x="31.06749" y="23.746054">Cue</tspan></text><text x="37.606979" y="23.841303" text-align="center" style="font-variant-caps:normal;font-variant-east-asian:normal;font-variant-ligatures:normal;font-variant-numeric:normal;line-height:1.25" xml:space="preserve"><tspan x="37.606979" y="23.841303">Record</tspan></text><text x="70.434616" y="23.841303" text-align="center" style="font-variant-caps:normal;font-variant-east-asian:normal;font-variant-ligatures:normal;font-variant-numeric:normal;line-height:1.25" xml:space="preserve"><tspan x="70.434616" y="23.841303">Reloop</tspan></text><text x="57.322292" y="23.841303" text-align="center" style="font-variant-caps:normal;font-variant-east-asian:normal;font-variant-ligatures:normal;font-variant-numeric:normal;line-height:1.25" xml:space="preserve"><tspan x="57.322292" y="23.841303">Select</tspan><tspan x="57.322292" y="25.825678">Deck 1</tspan></text><text x="63.868134" y="23.841303" text-align="center" style="font-variant-caps:normal;font-variant-east-asian:normal;font-variant-ligatures:normal;font-variant-numeric:normal;line-height:1.25" xml:space="preserve"><tspan x="63.868134" y="23.841303">Select</tspan><tspan x="63.868134" y="25.825678">Deck 2</tspan></text><text x="44.190918" y="23.734941" text-align="center" style="font-variant-caps:normal;font-variant-east-asian:normal;font-variant-ligatures:normal;font-variant-numeric:normal;line-height:1.25" xml:space="preserve"><tspan x="44.190918" y="23.734941">Beatjump</tspan><tspan x="44.190918" y="25.719316">Back</tspan></text><text x="50.751846" y="23.734941" text-align="center" style="font-variant-caps:normal;font-variant-east-asian:normal;font-variant-ligatures:normal;font-variant-numeric:normal;line-height:1.25" xml:space="preserve"><tspan x="50.751846" y="23.734941">Beatjump</tspan><tspan x="50.751846" y="25.719316">Forward</tspan></text></g></g></svg>
