<?xml version="1.0" encoding="UTF-8"?>
<svg fill="none" viewBox="0 0 5114 3231" xmlns="http://www.w3.org/2000/svg"><rect width="5114" height="3231" fill="#fff"/><rect x="4896.5" y="2432.5" width="37" height="745" fill="#D9D9D9" stroke="#000" stroke-width="5"/><line x1="4816.5" x2="5016.5" y1="2528" y2="2528" stroke="#000" stroke-width="10"/><rect x="4446.5" y="3032.5" width="245" height="145" fill="#D9D9D9" stroke="#000" stroke-width="5"/><rect x="4138.5" y="3032.5" width="245" height="145" fill="#D9D9D9" stroke="#000" stroke-width="5"/><rect x="3829.5" y="3032.5" width="245" height="145" fill="#D9D9D9" stroke="#000" stroke-width="5"/><rect x="3521.5" y="3032.5" width="245" height="145" fill="#D9D9D9" stroke="#000" stroke-width="5"/><rect x="4446.5" y="2807.5" width="245" height="145" fill="#D9D9D9" stroke="#000" stroke-width="5"/><rect x="4138.5" y="2807.5" width="245" height="145" fill="#D9D9D9" stroke="#000" stroke-width="5"/><rect x="3829.5" y="2807.5" width="245" height="145" fill="#D9D9D9" stroke="#000" stroke-width="5"/><rect x="3521.5" y="2807.5" width="245" height="145" fill="#D9D9D9" stroke="#000" stroke-width="5"/><circle cx="3299" cy="3055" r="122.5" fill="#D9D9D9"/><circle cx="3299" cy="3055" r="122.5" stroke="#000" stroke-width="5"/><circle cx="3299" cy="3055" r="122.5" stroke="#000" stroke-width="5"/><circle cx="3299" cy="3055" r="122.5" stroke="#000" stroke-width="5"/><rect x="4446.5" y="2632.5" width="245" height="95" fill="#D9D9D9" stroke="#000" stroke-width="5"/><rect x="4138.5" y="2632.5" width="245" height="95" fill="#D9D9D9" stroke="#000" stroke-width="5"/><rect x="3829.5" y="2632.5" width="245" height="95" fill="#D9D9D9" stroke="#000" stroke-width="5"/><rect x="3521.5" y="2632.5" width="245" height="95" fill="#D9D9D9" stroke="#000" stroke-width="5"/><circle cx="3299" cy="2680" r="122.5" fill="#D9D9D9"/><circle cx="3299" cy="2680" r="122.5" stroke="#000" stroke-width="5"/><circle cx="3299" cy="2680" r="122.5" stroke="#000" stroke-width="5"/><circle cx="3299" cy="2680" r="122.5" stroke="#000" stroke-width="5"/><circle cx="4568.5" cy="2429.5" r="85" fill="#D9D9D9" stroke="#000" stroke-dasharray="10 10" stroke-linecap="round" stroke-width="5"/><rect x="3984.5" y="2382.5" width="245" height="95" fill="#D9D9D9" stroke="#000" stroke-width="5"/><circle cx="3643.5" cy="2429.5" r="85" fill="#D9D9D9" stroke="#000" stroke-dasharray="10 10" stroke-linecap="round" stroke-width="5"/><rect x="4946.5" y="2244.5" width="115" height="85" fill="#D9D9D9" stroke="#000" stroke-width="5"/><rect x="4766.5" y="2244.5" width="115" height="85" fill="#D9D9D9" stroke="#000" stroke-width="5"/><rect x="3176.5" y="2244.5" width="245" height="95" fill="#D9D9D9" stroke="#000" stroke-width="5"/><circle transform="matrix(-1 0 0 1 4914 594)" cx="807.5" cy="807.5" r="805" fill="#D9D9D9" stroke="#000" stroke-width="5"/><circle cx="4989" cy="835" r="72.5" fill="#D9D9D9" stroke="#000" stroke-width="5"/><circle cx="4839" cy="685" r="72.5" fill="#D9D9D9" stroke="#000" stroke-width="5"/><circle cx="3224" cy="834" r="72.5" fill="#D9D9D9" stroke="#000" stroke-width="5"/><circle cx="3374" cy="684" r="72.5" fill="#D9D9D9" stroke="#000" stroke-width="5"/><circle cx="4836.5" cy="260.5" r="135" fill="#D9D9D9" stroke="#000" stroke-dasharray="10 10" stroke-linecap="round" stroke-width="5"/><rect x="4689.5" y="15.5" width="115" height="85" fill="#D9D9D9" stroke="#000" stroke-width="5"/><rect x="4869.5" y="15.5" width="115" height="85" fill="#D9D9D9" stroke="#000" stroke-width="5"/><rect x="4689.5" y="420.5" width="115" height="85" fill="#D9D9D9" stroke="#000" stroke-width="5"/><rect x="4869.5" y="420.5" width="115" height="85" fill="#D9D9D9" stroke="#000" stroke-width="5"/><circle cx="4198.5" cy="358.5" r="85" fill="#D9D9D9" stroke="#000" stroke-width="5"/><circle cx="3898.5" cy="358.5" r="85" fill="#D9D9D9" stroke="#000" stroke-width="5"/><circle cx="3598.5" cy="358.5" r="85" fill="#D9D9D9" stroke="#000" stroke-width="5"/><circle cx="3298.5" cy="358.5" r="85" fill="#D9D9D9" stroke="#000" stroke-width="5"/><path d="m4286 157.5c0 48.325-39.18 87.5-87.5 87.5s-87.5-39.175-87.5-87.5 39.18-87.5 87.5-87.5 87.5 39.175 87.5 87.5z" fill="#D9D9D9"/><path d="m4198.5 72.5v85m87.5 0c0 48.325-39.18 87.5-87.5 87.5s-87.5-39.175-87.5-87.5 39.18-87.5 87.5-87.5 87.5 39.175 87.5 87.5z" stroke="#000" stroke-width="5"/><path d="m3986 157.5c0 48.325-39.18 87.5-87.5 87.5s-87.5-39.175-87.5-87.5 39.18-87.5 87.5-87.5 87.5 39.175 87.5 87.5z" fill="#D9D9D9"/><path d="m3898.5 72.5v85m87.5 0c0 48.325-39.18 87.5-87.5 87.5s-87.5-39.175-87.5-87.5 39.18-87.5 87.5-87.5 87.5 39.175 87.5 87.5z" stroke="#000" stroke-width="5"/><path d="m3686 157.5c0 48.325-39.18 87.5-87.5 87.5s-87.5-39.175-87.5-87.5 39.18-87.5 87.5-87.5 87.5 39.175 87.5 87.5z" fill="#D9D9D9"/><path d="m3598.5 72.5v85m87.5 0c0 48.325-39.18 87.5-87.5 87.5s-87.5-39.175-87.5-87.5 39.18-87.5 87.5-87.5 87.5 39.175 87.5 87.5z" stroke="#000" stroke-width="5"/><path d="m3386 157.5c0 48.325-39.18 87.5-87.5 87.5s-87.5-39.175-87.5-87.5 39.18-87.5 87.5-87.5 87.5 39.175 87.5 87.5z" fill="#D9D9D9"/><path d="m3298.5 72.5v85m87.5 0c0 48.325-39.18 87.5-87.5 87.5s-87.5-39.175-87.5-87.5 39.18-87.5 87.5-87.5 87.5 39.175 87.5 87.5z" stroke="#000" stroke-width="5"/><line transform="matrix(0 -1 -1 0 2557 3230)" x2="150" y1="-5" y2="-5" stroke="#000" stroke-width="10"/><rect x="2259.5" y="3136.5" width="595" height="37" fill="#D9D9D9" stroke="#000" stroke-width="5"/><path d="m2544.7 3073.5c-2.35 0-4.44-0.41-6.27-1.21-1.82-0.81-3.27-1.92-4.35-3.36-1.07-1.44-1.65-3.12-1.74-5.02h4.47c0.1 1.17 0.5 2.18 1.21 3.04 0.71 0.84 1.64 1.49 2.79 1.95s2.42 0.69 3.82 0.69c1.56 0 2.94-0.27 4.15-0.82 1.21-0.54 2.16-1.3 2.84-2.27 0.69-0.97 1.03-2.09 1.03-3.37 0-1.34-0.33-2.52-0.99-3.54-0.66-1.03-1.64-1.83-2.91-2.41-1.28-0.58-2.84-0.87-4.69-0.87h-2.91v-3.91h2.91c1.44 0 2.71-0.26 3.8-0.78 1.1-0.52 1.96-1.25 2.57-2.2 0.63-0.95 0.94-2.06 0.94-3.34 0-1.23-0.27-2.3-0.81-3.21-0.55-0.91-1.32-1.62-2.31-2.13-0.98-0.51-2.14-0.77-3.48-0.77-1.26 0-2.44 0.24-3.55 0.7-1.1 0.45-2 1.1-2.7 1.97-0.7 0.85-1.08 1.88-1.14 3.09h-4.26c0.07-1.91 0.65-3.58 1.72-5.01 1.08-1.44 2.49-2.57 4.23-3.37 1.75-0.81 3.67-1.21 5.77-1.21 2.25 0 4.18 0.45 5.79 1.37 1.61 0.9 2.85 2.09 3.71 3.57 0.86 1.47 1.3 3.07 1.3 4.79 0 2.05-0.54 3.79-1.62 5.24-1.07 1.44-2.52 2.44-4.35 3v0.28c2.3 0.38 4.09 1.36 5.38 2.93 1.29 1.56 1.93 3.5 1.93 5.81 0 1.97-0.53 3.75-1.61 5.32-1.07 1.57-2.52 2.8-4.37 3.7s-3.95 1.35-6.3 1.35zm31.19 0c-2.43 0-4.59-0.43-6.46-1.3-1.86-0.87-3.31-2.08-4.35-3.6-1.04-1.54-1.56-3.29-1.54-5.26-0.02-1.54 0.29-2.96 0.9-4.26 0.62-1.31 1.46-2.41 2.52-3.29 1.08-0.88 2.28-1.45 3.61-1.68v-0.22c-1.74-0.44-3.13-1.42-4.16-2.92-1.03-1.52-1.54-3.24-1.52-5.17-0.02-1.85 0.45-3.5 1.4-4.96 0.95-1.45 2.25-2.6 3.91-3.44s3.56-1.26 5.69-1.26c2.11 0 3.99 0.42 5.65 1.26s2.96 1.99 3.91 3.44c0.96 1.46 1.44 3.11 1.45 4.96-0.01 1.93-0.54 3.65-1.58 5.17-1.03 1.5-2.39 2.48-4.1 2.92v0.22c1.32 0.23 2.5 0.8 3.55 1.68 1.06 0.88 1.9 1.98 2.52 3.29 0.63 1.3 0.95 2.72 0.96 4.26-0.01 1.97-0.54 3.72-1.6 5.26-1.04 1.52-2.49 2.73-4.35 3.6-1.84 0.87-3.98 1.3-6.41 1.3zm0-3.91c1.65 0 3.07-0.27 4.27-0.8 1.19-0.53 2.11-1.28 2.77-2.25 0.65-0.97 0.98-2.11 0.99-3.41-0.01-1.38-0.37-2.59-1.07-3.64-0.69-1.06-1.65-1.88-2.85-2.49-1.2-0.6-2.57-0.9-4.11-0.9-1.55 0-2.93 0.3-4.15 0.9-1.21 0.61-2.16 1.43-2.86 2.49-0.69 1.05-1.02 2.26-1.01 3.64-0.01 1.3 0.3 2.44 0.94 3.41 0.65 0.97 1.58 1.72 2.79 2.25s2.64 0.8 4.29 0.8zm0-17.26c1.31 0 2.46-0.26 3.47-0.78s1.81-1.25 2.39-2.18c0.58-0.94 0.88-2.03 0.89-3.29-0.01-1.23-0.3-2.3-0.87-3.21-0.57-0.92-1.35-1.63-2.36-2.13-1.01-0.51-2.18-0.77-3.52-0.77-1.36 0-2.55 0.26-3.56 0.77-1.02 0.5-1.81 1.21-2.37 2.13-0.55 0.91-0.82 1.98-0.81 3.21-0.01 1.26 0.26 2.35 0.83 3.29 0.58 0.93 1.38 1.66 2.4 2.18s2.19 0.78 3.51 0.78z" fill="#000"/><rect x="2837" y="2344.5" width="37" height="745" fill="#D9D9D9" stroke="#000" stroke-width="5"/><line x1="2757" x2="2957" y1="2440" y2="2440" stroke="#000" stroke-width="10"/><rect x="2724.5" y="1877.5" width="264" height="95" fill="#D9D9D9" stroke="#000" stroke-width="5"/><circle cx="2856.5" cy="1687.5" r="85" fill="#D9D9D9" stroke="#000" stroke-width="5"/><path d="m2944 1487.5c0 48.32-39.18 87.5-87.5 87.5s-87.5-39.18-87.5-87.5 39.18-87.5 87.5-87.5 87.5 39.18 87.5 87.5z" fill="#D9D9D9"/><path d="m2856.5 1402.5v85m87.5 0c0 48.32-39.18 87.5-87.5 87.5s-87.5-39.18-87.5-87.5 39.18-87.5 87.5-87.5 87.5 39.18 87.5 87.5z" stroke="#000" stroke-width="5"/><path d="m2944 1237.5c0 48.32-39.18 87.5-87.5 87.5s-87.5-39.18-87.5-87.5 39.18-87.5 87.5-87.5 87.5 39.18 87.5 87.5z" fill="#D9D9D9"/><path d="m2856.5 1152.5v85m87.5 0c0 48.32-39.18 87.5-87.5 87.5s-87.5-39.18-87.5-87.5 39.18-87.5 87.5-87.5 87.5 39.18 87.5 87.5z" stroke="#000" stroke-width="5"/><path d="m2944 987.5c0 48.32-39.18 87.5-87.5 87.5s-87.5-39.18-87.5-87.5c0-48.325 39.18-87.5 87.5-87.5s87.5 39.175 87.5 87.5z" fill="#D9D9D9"/><path d="m2856.5 902.5v85m87.5 0c0 48.32-39.18 87.5-87.5 87.5s-87.5-39.18-87.5-87.5c0-48.325 39.18-87.5 87.5-87.5s87.5 39.175 87.5 87.5z" stroke="#000" stroke-width="5"/><path d="m2944 737.5c0 48.325-39.18 87.5-87.5 87.5s-87.5-39.175-87.5-87.5 39.18-87.5 87.5-87.5 87.5 39.175 87.5 87.5z" fill="#D9D9D9"/><path d="m2856.5 652.5v85m87.5 0c0 48.325-39.18 87.5-87.5 87.5s-87.5-39.175-87.5-87.5 39.18-87.5 87.5-87.5 87.5 39.175 87.5 87.5z" stroke="#000" stroke-width="5"/><rect x="2884.5" y="313.5" width="95" height="70" fill="#D9D9D9" stroke="#000" stroke-width="5"/><rect x="2734.5" y="313.5" width="95" height="70" fill="#D9D9D9" stroke="#000" stroke-width="5"/><path d="m2944 158.5c0 48.325-39.18 87.5-87.5 87.5s-87.5-39.175-87.5-87.5 39.18-87.5 87.5-87.5 87.5 39.175 87.5 87.5z" fill="#D9D9D9"/><path d="m2856.5 73.5v85m87.5 0c0 48.325-39.18 87.5-87.5 87.5s-87.5-39.175-87.5-87.5 39.18-87.5 87.5-87.5 87.5 39.175 87.5 87.5z" stroke="#000" stroke-width="5"/><circle cx="2557" cy="1925" r="72.5" fill="#D9D9D9" stroke="#000" stroke-width="5"/><path d="m2544.8 1943.5c-2.34 0-4.43-0.41-6.27-1.21-1.82-0.81-3.27-1.92-4.35-3.36-1.06-1.44-1.64-3.12-1.74-5.02h4.48c0.09 1.17 0.49 2.18 1.2 3.04 0.72 0.84 1.64 1.49 2.79 1.95s2.42 0.69 3.82 0.69c1.56 0 2.95-0.27 4.15-0.82 1.21-0.54 2.16-1.3 2.85-2.27 0.68-0.97 1.03-2.09 1.03-3.37 0-1.34-0.34-2.52-1-3.54-0.66-1.03-1.63-1.83-2.91-2.41s-2.84-0.87-4.69-0.87h-2.91v-3.91h2.91c1.45 0 2.71-0.26 3.8-0.78 1.1-0.52 1.96-1.25 2.58-2.2s0.94-2.06 0.94-3.34c0-1.23-0.28-2.3-0.82-3.21s-1.31-1.62-2.31-2.13c-0.98-0.51-2.14-0.77-3.48-0.77-1.25 0-2.44 0.24-3.55 0.7-1.1 0.45-2 1.1-2.7 1.97-0.7 0.85-1.08 1.88-1.13 3.09h-4.27c0.08-1.91 0.65-3.58 1.73-5.01 1.07-1.44 2.48-2.57 4.22-3.37 1.75-0.81 3.68-1.21 5.77-1.21 2.25 0 4.18 0.45 5.79 1.37 1.61 0.9 2.85 2.09 3.71 3.57 0.87 1.47 1.3 3.07 1.3 4.79 0 2.05-0.54 3.79-1.62 5.24-1.06 1.44-2.51 2.44-4.35 3v0.28c2.3 0.38 4.09 1.36 5.38 2.93 1.29 1.56 1.94 3.5 1.94 5.81 0 1.97-0.54 3.75-1.62 5.32-1.06 1.57-2.52 2.8-4.37 3.7-1.84 0.9-3.94 1.35-6.3 1.35zm20.69-0.5 16.26-32.17v-0.29h-18.75v-3.9h23.3v4.12l-16.2 32.24h-4.61z" fill="#000"/><rect x="2429.5" y="1677.5" width="264" height="95" fill="#D9D9D9" stroke="#000" stroke-width="5"/><rect x="2602.5" y="1545.5" width="95" height="95" fill="#D9D9D9" stroke="#000" stroke-width="5"/><rect x="2429.5" y="1543.5" width="95" height="95" fill="#D9D9D9" stroke="#000" stroke-width="5"/><rect x="2602.5" y="1404.5" width="95" height="95" fill="#D9D9D9" stroke="#000" stroke-width="5"/><rect x="2429.5" y="1402.5" width="95" height="95" fill="#D9D9D9" stroke="#000" stroke-width="5"/><path d="m2543.5 1743.5c-2.34 0-4.43-0.41-6.27-1.21-1.82-0.81-3.27-1.92-4.35-3.36-1.06-1.44-1.64-3.12-1.74-5.02h4.48c0.09 1.17 0.5 2.18 1.21 3.04 0.71 0.84 1.64 1.49 2.78 1.95 1.15 0.46 2.42 0.69 3.82 0.69 1.56 0 2.95-0.27 4.16-0.82 1.2-0.54 2.15-1.3 2.84-2.27 0.68-0.97 1.03-2.09 1.03-3.37 0-1.34-0.33-2.52-1-3.54-0.66-1.03-1.63-1.83-2.91-2.41s-2.84-0.87-4.69-0.87h-2.91v-3.91h2.91c1.45 0 2.71-0.26 3.8-0.78 1.1-0.52 1.96-1.25 2.58-2.2 0.63-0.95 0.94-2.06 0.94-3.34 0-1.23-0.27-2.3-0.82-3.21-0.54-0.91-1.31-1.62-2.31-2.13-0.98-0.51-2.14-0.77-3.48-0.77-1.25 0-2.43 0.24-3.55 0.7-1.1 0.45-2 1.1-2.7 1.97-0.69 0.85-1.07 1.88-1.13 3.09h-4.26c0.07-1.91 0.64-3.58 1.72-5.01 1.08-1.44 2.48-2.57 4.22-3.37 1.76-0.81 3.68-1.21 5.77-1.21 2.25 0 4.18 0.45 5.79 1.37 1.61 0.9 2.85 2.09 3.71 3.57 0.87 1.47 1.3 3.07 1.3 4.79 0 2.05-0.54 3.79-1.62 5.24-1.06 1.44-2.51 2.44-4.35 3v0.28c2.3 0.38 4.09 1.36 5.38 2.93 1.29 1.56 1.94 3.5 1.94 5.81 0 1.97-0.54 3.75-1.62 5.32-1.06 1.57-2.52 2.8-4.36 3.7-1.85 0.9-3.95 1.35-6.31 1.35zm31.63 0c-1.5-0.03-2.99-0.31-4.48-0.86-1.49-0.54-2.85-1.46-4.08-2.75-1.23-1.3-2.22-3.06-2.97-5.27-0.74-2.23-1.12-5.02-1.12-8.38 0-3.22 0.31-6.07 0.91-8.56 0.6-2.5 1.48-4.6 2.63-6.3 1.14-1.72 2.53-3.02 4.15-3.91 1.64-0.89 3.48-1.33 5.52-1.33s3.85 0.41 5.44 1.22 2.9 1.93 3.9 3.38c1.01 1.44 1.66 3.11 1.96 4.99h-4.34c-0.4-1.64-1.18-2.99-2.34-4.07s-2.7-1.61-4.62-1.61c-2.81 0-5.03 1.22-6.65 3.67-1.61 2.45-2.43 5.89-2.44 10.32h0.29c0.66-1.01 1.45-1.87 2.36-2.58 0.92-0.72 1.94-1.28 3.05-1.67s2.29-0.58 3.54-0.58c2.08 0 3.98 0.52 5.71 1.56 1.73 1.03 3.12 2.46 4.16 4.28 1.04 1.81 1.56 3.89 1.56 6.23 0 2.25-0.5 4.31-1.51 6.18-1.01 1.86-2.42 3.34-4.24 4.44-1.81 1.09-3.94 1.62-6.39 1.6zm0-3.91c1.49 0 2.82-0.37 4.01-1.12 1.19-0.74 2.13-1.74 2.82-3 0.7-1.25 1.05-2.65 1.05-4.19 0-1.5-0.34-2.87-1.01-4.1-0.67-1.24-1.58-2.23-2.76-2.97-1.16-0.73-2.48-1.1-3.97-1.1-1.13 0-2.17 0.23-3.15 0.68-0.97 0.44-1.82 1.04-2.55 1.81-0.72 0.77-1.29 1.65-1.71 2.65-0.41 0.98-0.62 2.01-0.62 3.1 0 1.45 0.34 2.8 1.01 4.05 0.69 1.26 1.63 2.27 2.81 3.04 1.19 0.77 2.55 1.15 4.07 1.15z" fill="#000"/><path d="m2632.9 1609.5c-2.34 0-4.43-0.41-6.26-1.21-1.83-0.81-3.28-1.92-4.35-3.36s-1.65-3.12-1.74-5.02h4.47c0.09 1.17 0.5 2.18 1.21 3.04 0.71 0.84 1.64 1.49 2.78 1.95 1.15 0.46 2.43 0.69 3.82 0.69 1.56 0 2.95-0.27 4.16-0.82 1.2-0.54 2.15-1.3 2.84-2.27 0.68-0.97 1.03-2.09 1.03-3.37 0-1.34-0.33-2.52-1-3.54-0.66-1.03-1.63-1.83-2.91-2.41s-2.84-0.87-4.69-0.87h-2.91v-3.91h2.91c1.45 0 2.71-0.26 3.8-0.78 1.1-0.52 1.96-1.25 2.58-2.2 0.63-0.95 0.94-2.06 0.94-3.34 0-1.23-0.27-2.3-0.82-3.21-0.54-0.91-1.31-1.62-2.31-2.13-0.98-0.51-2.14-0.77-3.48-0.77-1.25 0-2.43 0.24-3.55 0.7-1.1 0.45-2 1.1-2.7 1.97-0.69 0.85-1.07 1.88-1.13 3.09h-4.26c0.07-1.91 0.64-3.58 1.72-5.01 1.08-1.44 2.48-2.57 4.22-3.37 1.76-0.81 3.68-1.21 5.78-1.21 2.24 0 4.17 0.45 5.78 1.37 1.61 0.9 2.85 2.09 3.71 3.57 0.87 1.47 1.3 3.07 1.3 4.79 0 2.05-0.54 3.79-1.62 5.24-1.06 1.44-2.51 2.44-4.35 3v0.28c2.3 0.38 4.09 1.36 5.38 2.93 1.3 1.56 1.94 3.5 1.94 5.81 0 1.97-0.54 3.75-1.62 5.32-1.06 1.57-2.52 2.8-4.36 3.7-1.85 0.9-3.95 1.35-6.31 1.35zm30.92 0c-2.09 0-3.96-0.42-5.63-1.25-1.67-0.82-3.01-1.96-4.02-3.4-1-1.45-1.55-3.09-1.65-4.94h4.26c0.17 1.64 0.92 3.01 2.24 4.08 1.34 1.07 2.94 1.6 4.8 1.6 1.49 0 2.81-0.35 3.97-1.05 1.17-0.7 2.09-1.65 2.76-2.87 0.67-1.23 1.01-2.63 1.01-4.18 0-1.58-0.35-3-1.05-4.24-0.69-1.25-1.63-2.24-2.84-2.96-1.21-0.73-2.59-1.09-4.14-1.11-1.11-0.01-2.25 0.16-3.43 0.52-1.17 0.34-2.13 0.79-2.89 1.33l-4.12-0.5 2.2-17.89h18.9v3.9h-15.2l-1.28 10.73h0.21c0.75-0.59 1.68-1.09 2.81-1.48 1.12-0.39 2.29-0.58 3.51-0.58 2.23 0 4.21 0.53 5.95 1.6 1.75 1.05 3.13 2.49 4.12 4.33 1.01 1.83 1.51 3.93 1.51 6.28 0 2.32-0.52 4.39-1.56 6.22-1.03 1.81-2.45 3.24-4.27 4.29-1.81 1.05-3.87 1.57-6.17 1.57z" fill="#000"/><path d="m2461.9 1609.5c-2.34 0-4.43-0.41-6.26-1.21-1.83-0.81-3.28-1.92-4.35-3.36s-1.65-3.12-1.74-5.02h4.47c0.09 1.17 0.5 2.18 1.21 3.04 0.71 0.84 1.64 1.49 2.78 1.95 1.15 0.46 2.43 0.69 3.82 0.69 1.56 0 2.95-0.27 4.16-0.82 1.2-0.54 2.15-1.3 2.84-2.27 0.68-0.97 1.03-2.09 1.03-3.37 0-1.34-0.33-2.52-1-3.54-0.66-1.03-1.63-1.83-2.91-2.41s-2.84-0.87-4.69-0.87h-2.91v-3.91h2.91c1.45 0 2.71-0.26 3.8-0.78 1.1-0.52 1.96-1.25 2.58-2.2 0.63-0.95 0.94-2.06 0.94-3.34 0-1.23-0.27-2.3-0.82-3.21-0.54-0.91-1.31-1.62-2.31-2.13-0.98-0.51-2.14-0.77-3.48-0.77-1.25 0-2.43 0.24-3.55 0.7-1.1 0.45-2 1.1-2.7 1.97-0.69 0.85-1.07 1.88-1.13 3.09h-4.26c0.07-1.91 0.64-3.58 1.72-5.01 1.08-1.44 2.48-2.57 4.22-3.37 1.76-0.81 3.68-1.21 5.78-1.21 2.24 0 4.17 0.45 5.78 1.37 1.61 0.9 2.85 2.09 3.71 3.57 0.87 1.47 1.3 3.07 1.3 4.79 0 2.05-0.54 3.79-1.62 5.24-1.06 1.44-2.51 2.44-4.35 3v0.28c2.3 0.38 4.09 1.36 5.38 2.93 1.3 1.56 1.94 3.5 1.94 5.81 0 1.97-0.54 3.75-1.62 5.32-1.06 1.57-2.52 2.8-4.36 3.7-1.85 0.9-3.95 1.35-6.31 1.35zm30.92 0c-2.09 0-3.96-0.42-5.63-1.25-1.67-0.82-3.01-1.96-4.02-3.4-1-1.45-1.55-3.09-1.65-4.94h4.26c0.17 1.64 0.92 3.01 2.24 4.08 1.34 1.07 2.94 1.6 4.8 1.6 1.49 0 2.81-0.35 3.97-1.05 1.17-0.7 2.09-1.65 2.76-2.87 0.67-1.23 1.01-2.63 1.01-4.18 0-1.58-0.35-3-1.05-4.24-0.69-1.25-1.63-2.24-2.84-2.96-1.21-0.73-2.59-1.09-4.14-1.11-1.11-0.01-2.25 0.16-3.43 0.52-1.17 0.34-2.13 0.79-2.89 1.33l-4.12-0.5 2.2-17.89h18.9v3.9h-15.2l-1.28 10.73h0.21c0.75-0.59 1.68-1.09 2.81-1.48 1.12-0.39 2.29-0.58 3.51-0.58 2.23 0 4.21 0.53 5.95 1.6 1.75 1.05 3.13 2.49 4.12 4.33 1.01 1.83 1.51 3.93 1.51 6.28 0 2.32-0.52 4.39-1.56 6.22-1.03 1.81-2.45 3.24-4.27 4.29-1.81 1.05-3.87 1.57-6.17 1.57z" fill="#000"/><path d="m2632.9 1468.5c-2.34 0-4.43-0.41-6.26-1.21-1.83-0.81-3.28-1.92-4.35-3.36s-1.65-3.12-1.74-5.02h4.47c0.09 1.17 0.5 2.18 1.21 3.04 0.71 0.84 1.64 1.49 2.78 1.95 1.15 0.46 2.43 0.69 3.82 0.69 1.56 0 2.95-0.27 4.16-0.82 1.2-0.54 2.15-1.3 2.84-2.27 0.68-0.97 1.03-2.09 1.03-3.37 0-1.34-0.33-2.52-1-3.54-0.66-1.03-1.63-1.83-2.91-2.41s-2.84-0.87-4.69-0.87h-2.91v-3.91h2.91c1.45 0 2.71-0.26 3.8-0.78 1.1-0.52 1.96-1.25 2.58-2.2 0.63-0.95 0.94-2.06 0.94-3.34 0-1.23-0.27-2.3-0.82-3.21-0.54-0.91-1.31-1.62-2.31-2.13-0.98-0.51-2.14-0.77-3.48-0.77-1.25 0-2.43 0.24-3.55 0.7-1.1 0.45-2 1.1-2.7 1.97-0.69 0.85-1.07 1.88-1.13 3.09h-4.26c0.07-1.91 0.64-3.58 1.72-5.01 1.08-1.44 2.48-2.57 4.22-3.37 1.76-0.81 3.68-1.21 5.78-1.21 2.24 0 4.17 0.45 5.78 1.37 1.61 0.9 2.85 2.09 3.71 3.57 0.87 1.47 1.3 3.07 1.3 4.79 0 2.05-0.54 3.79-1.62 5.24-1.06 1.44-2.51 2.44-4.35 3v0.28c2.3 0.38 4.09 1.36 5.38 2.93 1.3 1.56 1.94 3.5 1.94 5.81 0 1.97-0.54 3.75-1.62 5.32-1.06 1.57-2.52 2.8-4.36 3.7-1.85 0.9-3.95 1.35-6.31 1.35zm30.92 0c-2.09 0-3.96-0.42-5.63-1.25-1.67-0.82-3.01-1.96-4.02-3.4-1-1.45-1.55-3.09-1.65-4.94h4.26c0.17 1.64 0.92 3.01 2.24 4.08 1.34 1.07 2.94 1.6 4.8 1.6 1.49 0 2.81-0.35 3.97-1.05 1.17-0.7 2.09-1.65 2.76-2.87 0.67-1.23 1.01-2.63 1.01-4.18 0-1.58-0.35-3-1.05-4.24-0.69-1.25-1.63-2.24-2.84-2.96-1.21-0.73-2.59-1.09-4.14-1.11-1.11-0.01-2.25 0.16-3.43 0.52-1.17 0.34-2.13 0.79-2.89 1.33l-4.12-0.5 2.2-17.89h18.9v3.9h-15.2l-1.28 10.73h0.21c0.75-0.59 1.68-1.09 2.81-1.48 1.12-0.39 2.29-0.58 3.51-0.58 2.23 0 4.21 0.53 5.95 1.6 1.75 1.05 3.13 2.49 4.12 4.33 1.01 1.83 1.51 3.93 1.51 6.28 0 2.32-0.52 4.39-1.56 6.22-1.03 1.81-2.45 3.24-4.27 4.29-1.81 1.05-3.87 1.57-6.17 1.57z" fill="#000"/><path d="m2461.9 1468.5c-2.34 0-4.43-0.41-6.26-1.21-1.83-0.81-3.28-1.92-4.35-3.36s-1.65-3.12-1.74-5.02h4.47c0.09 1.17 0.5 2.18 1.21 3.04 0.71 0.84 1.64 1.49 2.78 1.95 1.15 0.46 2.43 0.69 3.82 0.69 1.56 0 2.95-0.27 4.16-0.82 1.2-0.54 2.15-1.3 2.84-2.27 0.68-0.97 1.03-2.09 1.03-3.37 0-1.34-0.33-2.52-1-3.54-0.66-1.03-1.63-1.83-2.91-2.41s-2.84-0.87-4.69-0.87h-2.91v-3.91h2.91c1.45 0 2.71-0.26 3.8-0.78 1.1-0.52 1.96-1.25 2.58-2.2 0.63-0.95 0.94-2.06 0.94-3.34 0-1.23-0.27-2.3-0.82-3.21-0.54-0.91-1.31-1.62-2.31-2.13-0.98-0.51-2.14-0.77-3.48-0.77-1.25 0-2.43 0.24-3.55 0.7-1.1 0.45-2 1.1-2.7 1.97-0.69 0.85-1.07 1.88-1.13 3.09h-4.26c0.07-1.91 0.64-3.58 1.72-5.01 1.08-1.44 2.48-2.57 4.22-3.37 1.76-0.81 3.68-1.21 5.78-1.21 2.24 0 4.17 0.45 5.78 1.37 1.61 0.9 2.85 2.09 3.71 3.57 0.87 1.47 1.3 3.07 1.3 4.79 0 2.05-0.54 3.79-1.62 5.24-1.06 1.44-2.51 2.44-4.35 3v0.28c2.3 0.38 4.09 1.36 5.38 2.93 1.3 1.56 1.94 3.5 1.94 5.81 0 1.97-0.54 3.75-1.62 5.32-1.06 1.57-2.52 2.8-4.36 3.7-1.85 0.9-3.95 1.35-6.31 1.35zm30.92 0c-2.09 0-3.96-0.42-5.63-1.25-1.67-0.82-3.01-1.96-4.02-3.4-1-1.45-1.55-3.09-1.65-4.94h4.26c0.17 1.64 0.92 3.01 2.24 4.08 1.34 1.07 2.94 1.6 4.8 1.6 1.49 0 2.81-0.35 3.97-1.05 1.17-0.7 2.09-1.65 2.76-2.87 0.67-1.23 1.01-2.63 1.01-4.18 0-1.58-0.35-3-1.05-4.24-0.69-1.25-1.63-2.24-2.84-2.96-1.21-0.73-2.59-1.09-4.14-1.11-1.11-0.01-2.25 0.16-3.43 0.52-1.17 0.34-2.13 0.79-2.89 1.33l-4.12-0.5 2.2-17.89h18.9v3.9h-15.2l-1.28 10.73h0.21c0.75-0.59 1.68-1.09 2.81-1.48 1.12-0.39 2.29-0.58 3.51-0.58 2.23 0 4.21 0.53 5.95 1.6 1.75 1.05 3.13 2.49 4.12 4.33 1.01 1.83 1.51 3.93 1.51 6.28 0 2.32-0.52 4.39-1.56 6.22-1.03 1.81-2.45 3.24-4.27 4.29-1.81 1.05-3.87 1.57-6.17 1.57z" fill="#000"/><path d="m2648 1237.5c0 48.32-39.18 87.5-87.5 87.5s-87.5-39.18-87.5-87.5 39.18-87.5 87.5-87.5 87.5 39.18 87.5 87.5z" fill="#D9D9D9"/><path d="m2560.5 1152.5v85m87.5 0c0 48.32-39.18 87.5-87.5 87.5s-87.5-39.18-87.5-87.5 39.18-87.5 87.5-87.5 87.5 39.18 87.5 87.5z" stroke="#000" stroke-width="5"/><path d="m2648 987.5c0 48.32-39.18 87.5-87.5 87.5s-87.5-39.18-87.5-87.5c0-48.325 39.18-87.5 87.5-87.5s87.5 39.175 87.5 87.5z" fill="#D9D9D9"/><path d="m2560.5 902.5v85m87.5 0c0 48.32-39.18 87.5-87.5 87.5s-87.5-39.18-87.5-87.5c0-48.325 39.18-87.5 87.5-87.5s87.5 39.175 87.5 87.5z" stroke="#000" stroke-width="5"/><path d="m2541.1 1308.5c-2.34 0-4.43-0.41-6.26-1.21-1.83-0.81-3.28-1.92-4.35-3.36s-1.65-3.12-1.74-5.02h4.47c0.09 1.17 0.5 2.18 1.21 3.04 0.71 0.84 1.64 1.49 2.78 1.95 1.15 0.46 2.43 0.69 3.82 0.69 1.56 0 2.95-0.27 4.16-0.82 1.2-0.54 2.15-1.3 2.84-2.27 0.68-0.97 1.03-2.09 1.03-3.37 0-1.34-0.33-2.52-1-3.54-0.66-1.03-1.63-1.83-2.91-2.41s-2.84-0.87-4.69-0.87h-2.91v-3.91h2.91c1.45 0 2.71-0.26 3.8-0.78 1.1-0.52 1.96-1.25 2.58-2.2 0.63-0.95 0.94-2.06 0.94-3.34 0-1.23-0.27-2.3-0.82-3.21-0.54-0.91-1.31-1.62-2.31-2.13-0.98-0.51-2.14-0.77-3.48-0.77-1.25 0-2.43 0.24-3.55 0.7-1.1 0.45-2 1.1-2.7 1.97-0.69 0.85-1.07 1.88-1.13 3.09h-4.26c0.07-1.91 0.64-3.58 1.72-5.01 1.08-1.44 2.48-2.57 4.22-3.37 1.76-0.81 3.68-1.21 5.78-1.21 2.24 0 4.17 0.45 5.78 1.37 1.61 0.9 2.85 2.09 3.71 3.57 0.87 1.47 1.3 3.07 1.3 4.79 0 2.05-0.54 3.79-1.62 5.24-1.06 1.44-2.51 2.44-4.35 3v0.28c2.3 0.38 4.09 1.36 5.38 2.93 1.29 1.56 1.94 3.5 1.94 5.81 0 1.97-0.54 3.75-1.62 5.32-1.06 1.57-2.52 2.8-4.36 3.7-1.85 0.9-3.95 1.35-6.31 1.35zm18.7-7.96v-3.62l15.98-25.28h2.63v5.61h-1.78l-12.07 19.1v0.29h21.52v3.9h-26.28zm17.12 7.46v-36.36h4.19v36.36h-4.19z" fill="#000"/><path d="m2542.2 1058.5c-2.35 0-4.44-0.41-6.27-1.21-1.83-0.81-3.28-1.92-4.35-3.36s-1.65-3.12-1.74-5.02h4.47c0.1 1.17 0.5 2.18 1.21 3.04 0.71 0.84 1.64 1.49 2.79 1.95 1.14 0.46 2.42 0.69 3.81 0.69 1.57 0 2.95-0.27 4.16-0.82 1.21-0.54 2.15-1.3 2.84-2.27s1.03-2.09 1.03-3.37c0-1.34-0.33-2.52-0.99-3.54-0.67-1.03-1.64-1.83-2.92-2.41-1.27-0.58-2.84-0.87-4.68-0.87h-2.92v-3.91h2.92c1.44 0 2.71-0.26 3.8-0.78 1.1-0.52 1.95-1.25 2.57-2.2 0.63-0.95 0.94-2.06 0.94-3.34 0-1.23-0.27-2.3-0.82-3.21-0.54-0.91-1.31-1.62-2.3-2.13s-2.15-0.77-3.48-0.77c-1.26 0-2.44 0.24-3.55 0.7-1.11 0.45-2.01 1.1-2.7 1.97-0.7 0.85-1.08 1.88-1.14 3.09h-4.26c0.07-1.91 0.64-3.58 1.72-5.01 1.08-1.44 2.49-2.57 4.23-3.37 1.75-0.81 3.67-1.21 5.77-1.21 2.25 0 4.18 0.45 5.79 1.37 1.61 0.9 2.84 2.09 3.71 3.57 0.86 1.47 1.29 3.07 1.29 4.79 0 2.05-0.54 3.79-1.61 5.24-1.07 1.44-2.52 2.44-4.35 3v0.28c2.29 0.38 4.09 1.36 5.38 2.93 1.29 1.56 1.93 3.5 1.93 5.81 0 1.97-0.54 3.75-1.61 5.32s-2.52 2.8-4.37 3.7-3.95 1.35-6.3 1.35zm31.83 0c-2.34 0-4.43-0.41-6.27-1.21-1.82-0.81-3.27-1.92-4.35-3.36-1.06-1.44-1.64-3.12-1.74-5.02h4.48c0.09 1.17 0.49 2.18 1.21 3.04 0.71 0.84 1.63 1.49 2.78 1.95s2.42 0.69 3.82 0.69c1.56 0 2.95-0.27 4.15-0.82 1.21-0.54 2.16-1.3 2.85-2.27 0.68-0.97 1.03-2.09 1.03-3.37 0-1.34-0.34-2.52-1-3.54-0.66-1.03-1.63-1.83-2.91-2.41s-2.84-0.87-4.69-0.87h-2.91v-3.91h2.91c1.45 0 2.71-0.26 3.8-0.78 1.1-0.52 1.96-1.25 2.58-2.2s0.94-2.06 0.94-3.34c0-1.23-0.27-2.3-0.82-3.21-0.54-0.91-1.31-1.62-2.31-2.13-0.98-0.51-2.14-0.77-3.48-0.77-1.25 0-2.44 0.24-3.55 0.7-1.1 0.45-2 1.1-2.7 1.97-0.7 0.85-1.08 1.88-1.13 3.09h-4.27c0.08-1.91 0.65-3.58 1.73-5.01 1.07-1.44 2.48-2.57 4.22-3.37 1.75-0.81 3.68-1.21 5.77-1.21 2.25 0 4.18 0.45 5.79 1.37 1.61 0.9 2.85 2.09 3.71 3.57 0.87 1.47 1.3 3.07 1.3 4.79 0 2.05-0.54 3.79-1.62 5.24-1.06 1.44-2.51 2.44-4.35 3v0.28c2.3 0.38 4.09 1.36 5.38 2.93 1.29 1.56 1.94 3.5 1.94 5.81 0 1.97-0.54 3.75-1.62 5.32-1.06 1.57-2.52 2.8-4.37 3.7-1.84 0.9-3.94 1.35-6.3 1.35z" fill="#000"/><circle cx="2640.5" cy="296.5" r="20" fill="#FF7B00" stroke="#000" stroke-width="5"/><circle cx="2640.5" cy="413.5" r="20" fill="#FF7B00" stroke="#000" stroke-width="5"/><circle cx="2640.5" cy="355" r="20" fill="#FF7B00" stroke="#000" stroke-width="5"/><circle cx="2640.5" cy="472" r="20" fill="#006AFF" stroke="#000" stroke-width="5"/><circle cx="2640.5" cy="589" r="20" fill="#006AFF" stroke="#000" stroke-width="5"/><circle cx="2640.5" cy="530.5" r="20" fill="#006AFF" stroke="#000" stroke-width="5"/><circle cx="2640.5" cy="647.5" r="20" fill="#006AFF" stroke="#000" stroke-width="5"/><circle cx="2640.5" cy="764.5" r="20" fill="#006AFF" stroke="#000" stroke-width="5"/><circle cx="2640.5" cy="706" r="20" fill="#006AFF" stroke="#000" stroke-width="5"/><circle cx="2475.5" cy="296.5" r="20" fill="#FF7B00" stroke="#000" stroke-width="5"/><circle cx="2475.5" cy="413.5" r="20" fill="#FF7B00" stroke="#000" stroke-width="5"/><circle cx="2475.5" cy="355" r="20" fill="#FF7B00" stroke="#000" stroke-width="5"/><circle cx="2475.5" cy="472" r="20" fill="#006AFF" stroke="#000" stroke-width="5"/><circle cx="2475.5" cy="589" r="20" fill="#006AFF" stroke="#000" stroke-width="5"/><circle cx="2475.5" cy="530.5" r="20" fill="#006AFF" stroke="#000" stroke-width="5"/><circle cx="2475.5" cy="647.5" r="20" fill="#006AFF" stroke="#000" stroke-width="5"/><circle cx="2475.5" cy="764.5" r="20" fill="#006AFF" stroke="#000" stroke-width="5"/><circle cx="2475.5" cy="706" r="20" fill="#006AFF" stroke="#000" stroke-width="5"/><circle cx="2557" cy="296.5" r="20" fill="#f00" stroke="#000" stroke-width="5"/><path d="m2543 536.5c-2.35 0-4.44-0.402-6.27-1.207-1.82-0.805-3.27-1.924-4.35-3.356-1.07-1.444-1.65-3.119-1.74-5.025h4.47c0.1 1.172 0.5 2.184 1.21 3.036 0.71 0.841 1.64 1.492 2.79 1.953 1.15 0.462 2.42 0.693 3.82 0.693 1.56 0 2.94-0.272 4.15-0.817 1.21-0.544 2.15-1.302 2.84-2.273 0.69-0.97 1.03-2.095 1.03-3.373 0-1.338-0.33-2.516-0.99-3.534-0.67-1.029-1.64-1.834-2.92-2.414-1.27-0.58-2.84-0.87-4.68-0.87h-2.91v-3.907h2.91c1.44 0 2.71-0.26 3.8-0.781 1.1-0.521 1.96-1.255 2.57-2.202 0.63-0.947 0.94-2.059 0.94-3.338 0-1.231-0.27-2.302-0.81-3.213-0.55-0.912-1.32-1.622-2.31-2.131-0.98-0.509-2.14-0.764-3.48-0.764-1.26 0-2.44 0.231-3.55 0.693-1.1 0.45-2 1.107-2.7 1.971-0.7 0.852-1.08 1.882-1.14 3.089h-4.26c0.07-1.906 0.64-3.575 1.72-5.007 1.08-1.444 2.49-2.568 4.23-3.373 1.75-0.805 3.67-1.208 5.77-1.208 2.25 0 4.18 0.456 5.79 1.367 1.61 0.9 2.84 2.09 3.71 3.569 0.86 1.48 1.29 3.078 1.29 4.794 0 2.048-0.53 3.794-1.61 5.238-1.07 1.444-2.52 2.445-4.35 3.001v0.284c2.29 0.379 4.09 1.355 5.38 2.93 1.29 1.562 1.93 3.498 1.93 5.806 0 1.977-0.54 3.752-1.61 5.327-1.07 1.562-2.52 2.793-4.37 3.693-1.85 0.899-3.95 1.349-6.3 1.349zm19.55-0.497v-3.196l12-13.139c1.41-1.539 2.57-2.877 3.48-4.013 0.91-1.148 1.58-2.225 2.02-3.232 0.45-1.018 0.68-2.083 0.68-3.196 0-1.278-0.31-2.385-0.93-3.32-0.6-0.935-1.43-1.657-2.48-2.166-1.06-0.509-2.24-0.764-3.55-0.764-1.4 0-2.62 0.29-3.66 0.87-1.03 0.569-1.83 1.368-2.4 2.397-0.55 1.03-0.83 2.238-0.83 3.623h-4.19c0-2.131 0.49-4.001 1.47-5.611s2.32-2.865 4.01-3.764c1.71-0.9 3.62-1.35 5.74-1.35 2.13 0 4.02 0.45 5.66 1.35 1.65 0.899 2.94 2.113 3.87 3.64 0.94 1.527 1.41 3.225 1.41 5.095 0 1.338-0.25 2.646-0.73 3.924-0.47 1.267-1.3 2.682-2.49 4.244-1.17 1.551-2.8 3.445-4.88 5.682l-8.17 8.736v0.284h16.91v3.906h-22.94z" fill="#000"/><path d="m2646 158.5c0 48.325-39.18 87.5-87.5 87.5s-87.5-39.175-87.5-87.5 39.18-87.5 87.5-87.5 87.5 39.175 87.5 87.5z" fill="#D9D9D9"/><path d="m2558.5 73.5v85m87.5 0c0 48.325-39.18 87.5-87.5 87.5s-87.5-39.175-87.5-87.5 39.18-87.5 87.5-87.5 87.5 39.175 87.5 87.5z" stroke="#000" stroke-width="5"/><path d="m2546.5 224.5c-2.34 0-4.43-0.402-6.27-1.207-1.82-0.805-3.27-1.924-4.35-3.356-1.06-1.444-1.64-3.119-1.74-5.025h4.48c0.09 1.172 0.5 2.184 1.21 3.036 0.71 0.841 1.64 1.492 2.78 1.953 1.15 0.462 2.42 0.693 3.82 0.693 1.56 0 2.95-0.272 4.16-0.817 1.2-0.544 2.15-1.302 2.84-2.273 0.68-0.97 1.03-2.095 1.03-3.373 0-1.338-0.33-2.516-1-3.534-0.66-1.029-1.63-1.834-2.91-2.414s-2.84-0.87-4.69-0.87h-2.91v-3.907h2.91c1.45 0 2.71-0.26 3.8-0.781 1.1-0.521 1.96-1.255 2.58-2.202s0.94-2.059 0.94-3.338c0-1.231-0.27-2.302-0.82-3.213-0.54-0.912-1.31-1.622-2.31-2.131-0.98-0.509-2.14-0.764-3.48-0.764-1.25 0-2.44 0.231-3.55 0.693-1.1 0.45-2 1.107-2.7 1.971-0.7 0.852-1.07 1.882-1.13 3.089h-4.26c0.07-1.906 0.64-3.575 1.72-5.007 1.07-1.444 2.48-2.568 4.22-3.373 1.76-0.805 3.68-1.208 5.77-1.208 2.25 0 4.18 0.456 5.79 1.367 1.61 0.9 2.85 2.09 3.71 3.569 0.87 1.48 1.3 3.078 1.3 4.794 0 2.048-0.54 3.794-1.62 5.238-1.06 1.444-2.51 2.445-4.35 3.001v0.284c2.3 0.379 4.09 1.355 5.38 2.93 1.29 1.562 1.94 3.498 1.94 5.806 0 1.977-0.54 3.752-1.62 5.327-1.06 1.562-2.52 2.793-4.36 3.693-1.85 0.899-3.95 1.349-6.31 1.349zm32.34-36.861v36.364h-4.41v-31.747h-0.21l-8.88 5.895v-4.475l9.09-6.037h4.41z" fill="#000"/><rect x="2238" y="2344.5" width="37" height="745" fill="#D9D9D9" stroke="#000" stroke-width="5"/><line x1="2158" x2="2358" y1="2440" y2="2440" stroke="#000" stroke-width="10"/><path d="m2321.5 2398.5c-2.35 0-4.43-0.41-6.27-1.21-1.82-0.81-3.27-1.92-4.35-3.36-1.07-1.44-1.65-3.12-1.74-5.02h4.47c0.1 1.17 0.5 2.18 1.21 3.04 0.71 0.84 1.64 1.49 2.79 1.95s2.42 0.69 3.82 0.69c1.56 0 2.94-0.27 4.15-0.82 1.21-0.54 2.16-1.3 2.84-2.27 0.69-0.97 1.03-2.09 1.03-3.37 0-1.34-0.33-2.52-0.99-3.54-0.66-1.03-1.64-1.83-2.91-2.41-1.28-0.58-2.84-0.87-4.69-0.87h-2.91v-3.91h2.91c1.44 0 2.71-0.26 3.8-0.78 1.1-0.52 1.96-1.25 2.57-2.2 0.63-0.95 0.94-2.06 0.94-3.34 0-1.23-0.27-2.3-0.81-3.21-0.55-0.91-1.32-1.62-2.31-2.13-0.98-0.51-2.14-0.77-3.48-0.77-1.26 0-2.44 0.24-3.55 0.7-1.1 0.45-2 1.1-2.7 1.97-0.7 0.85-1.08 1.88-1.14 3.09h-4.26c0.07-1.91 0.65-3.58 1.72-5.01 1.08-1.44 2.49-2.57 4.23-3.37 1.75-0.81 3.68-1.21 5.77-1.21 2.25 0 4.18 0.45 5.79 1.37 1.61 0.9 2.85 2.09 3.71 3.57 0.86 1.47 1.3 3.07 1.3 4.79 0 2.05-0.54 3.79-1.62 5.24-1.07 1.44-2.52 2.44-4.35 3v0.28c2.3 0.38 4.09 1.36 5.38 2.93 1.29 1.56 1.94 3.5 1.94 5.81 0 1.97-0.54 3.75-1.62 5.32-1.07 1.57-2.52 2.8-4.37 3.7s-3.95 1.35-6.3 1.35zm31.41 0c-2.68 0-4.96-0.73-6.84-2.19s-3.32-3.59-4.31-6.37c-1-2.79-1.49-6.17-1.49-10.12 0-3.93 0.49-7.29 1.49-10.07 1-2.79 2.45-4.92 4.33-6.39 1.89-1.48 4.17-2.22 6.82-2.22s4.92 0.74 6.8 2.22c1.89 1.47 3.34 3.6 4.33 6.39 1.01 2.78 1.51 6.14 1.51 10.07 0 3.95-0.5 7.33-1.49 10.12-1 2.78-2.43 4.91-4.32 6.37-1.88 1.46-4.16 2.19-6.83 2.19zm0-3.91c2.65 0 4.71-1.28 6.18-3.83 1.46-2.56 2.2-6.21 2.2-10.94 0-3.15-0.34-5.83-1.01-8.05-0.67-2.21-1.63-3.9-2.88-5.06-1.24-1.16-2.74-1.74-4.49-1.74-2.63 0-4.68 1.3-6.16 3.89-1.48 2.58-2.22 6.24-2.22 10.96 0 3.15 0.33 5.82 0.99 8.02 0.66 2.21 1.62 3.88 2.86 5.03 1.26 1.15 2.76 1.72 4.53 1.72z" fill="#000"/><rect x="2125.5" y="1877.5" width="264" height="95" fill="#D9D9D9" stroke="#000" stroke-width="5"/><path d="m2226 1943v-3.2l12-13.14c1.41-1.53 2.57-2.87 3.48-4.01 0.91-1.15 1.59-2.22 2.02-3.23 0.45-1.02 0.68-2.08 0.68-3.2 0-1.27-0.31-2.38-0.92-3.32-0.61-0.93-1.44-1.65-2.49-2.16s-2.24-0.77-3.55-0.77c-1.4 0-2.62 0.29-3.66 0.87-1.03 0.57-1.83 1.37-2.4 2.4-0.55 1.03-0.83 2.24-0.83 3.62h-4.19c0-2.13 0.49-4 1.47-5.61 0.99-1.61 2.32-2.86 4.02-3.76s3.61-1.35 5.73-1.35c2.13 0 4.02 0.45 5.66 1.35 1.65 0.9 2.94 2.11 3.88 3.64 0.93 1.53 1.4 3.22 1.4 5.09 0 1.34-0.24 2.65-0.73 3.93-0.47 1.27-1.3 2.68-2.49 4.24-1.17 1.55-2.8 3.45-4.88 5.68l-8.17 8.74v0.28h16.91v3.91h-22.94zm41.85-36.86c1.49 0.01 2.98 0.3 4.47 0.85 1.49 0.56 2.85 1.48 4.09 2.77 1.23 1.28 2.21 3.03 2.96 5.24s1.12 4.99 1.12 8.33c0 3.23-0.31 6.1-0.92 8.61-0.61 2.5-1.48 4.6-2.63 6.32-1.14 1.72-2.52 3.02-4.16 3.91-1.62 0.88-3.45 1.33-5.5 1.33-2.04 0-3.85-0.41-5.45-1.21-1.59-0.82-2.89-1.95-3.91-3.39-1-1.46-1.65-3.14-1.93-5.06h4.33c0.39 1.67 1.16 3.05 2.32 4.14 1.18 1.07 2.72 1.61 4.64 1.61 2.8 0 5.02-1.22 6.64-3.67 1.63-2.45 2.45-5.92 2.45-10.39h-0.28c-0.67 0.99-1.45 1.85-2.37 2.57-0.91 0.73-1.92 1.28-3.03 1.67s-2.3 0.59-3.55 0.59c-2.09 0-4-0.52-5.74-1.55-1.73-1.04-3.11-2.46-4.15-4.28-1.03-1.82-1.55-3.9-1.55-6.25 0-2.22 0.5-4.26 1.49-6.1 1.01-1.86 2.42-3.34 4.23-4.44 1.82-1.1 3.96-1.64 6.43-1.6zm0 3.91c-1.49 0-2.84 0.37-4.03 1.11s-2.13 1.73-2.83 2.99c-0.68 1.24-1.03 2.62-1.03 4.13 0 1.52 0.33 2.9 1 4.14 0.67 1.23 1.59 2.21 2.75 2.95 1.17 0.72 2.5 1.08 3.99 1.08 1.13 0 2.18-0.22 3.15-0.66 0.97-0.45 1.81-1.05 2.54-1.82 0.73-0.79 1.3-1.67 1.72-2.65 0.41-0.99 0.62-2.03 0.62-3.11 0-1.42-0.34-2.75-1.03-3.99-0.67-1.24-1.61-2.25-2.8-3.02s-2.54-1.15-4.05-1.15z" fill="#000"/><circle cx="2257.5" cy="1687.5" r="85" fill="#D9D9D9" stroke="#000" stroke-width="5"/><path d="m2230.2 1758v-3.2l12.01-13.14c1.4-1.53 2.56-2.87 3.48-4.01 0.91-1.15 1.58-2.22 2.02-3.23 0.45-1.02 0.67-2.08 0.67-3.2 0-1.27-0.3-2.38-0.92-3.32-0.6-0.93-1.43-1.65-2.49-2.16-1.05-0.51-2.23-0.77-3.55-0.77-1.39 0-2.61 0.29-3.65 0.87-1.03 0.57-1.83 1.37-2.4 2.4-0.56 1.03-0.84 2.24-0.84 3.62h-4.19c0-2.13 0.5-4 1.48-5.61s2.32-2.86 4.01-3.76c1.71-0.9 3.62-1.35 5.74-1.35 2.13 0 4.01 0.45 5.66 1.35s2.94 2.11 3.87 3.64c0.94 1.53 1.4 3.22 1.4 5.09 0 1.34-0.24 2.65-0.72 3.93-0.48 1.27-1.31 2.68-2.49 4.24-1.17 1.55-2.8 3.45-4.88 5.68l-8.17 8.74v0.28h16.9v3.91h-22.94zm41.92 0.5c-2.44 0-4.59-0.43-6.46-1.3-1.86-0.87-3.31-2.08-4.35-3.6-1.04-1.54-1.56-3.29-1.54-5.26-0.02-1.54 0.29-2.96 0.9-4.26 0.62-1.31 1.46-2.41 2.52-3.29 1.08-0.88 2.28-1.45 3.61-1.68v-0.22c-1.74-0.44-3.13-1.42-4.16-2.92-1.03-1.52-1.54-3.24-1.53-5.17-0.01-1.85 0.46-3.5 1.41-4.96 0.94-1.45 2.25-2.6 3.9-3.44 1.67-0.84 3.57-1.26 5.7-1.26 2.11 0 3.99 0.42 5.65 1.26s2.96 1.99 3.91 3.44c0.95 1.46 1.44 3.11 1.45 4.96-0.01 1.93-0.54 3.65-1.58 5.17-1.03 1.5-2.4 2.48-4.1 2.92v0.22c1.31 0.23 2.5 0.8 3.55 1.68s1.9 1.98 2.52 3.29c0.63 1.3 0.95 2.72 0.96 4.26-0.01 1.97-0.54 3.72-1.6 5.26-1.04 1.52-2.49 2.73-4.35 3.6-1.84 0.87-3.98 1.3-6.41 1.3zm0-3.91c1.65 0 3.07-0.27 4.26-0.8 1.2-0.53 2.12-1.28 2.77-2.25 0.66-0.97 0.99-2.11 1-3.41-0.01-1.38-0.37-2.59-1.07-3.64-0.69-1.06-1.65-1.88-2.86-2.49-1.19-0.6-2.56-0.9-4.1-0.9-1.55 0-2.93 0.3-4.15 0.9-1.21 0.61-2.16 1.43-2.86 2.49-0.69 1.05-1.02 2.26-1.01 3.64-0.01 1.3 0.3 2.44 0.94 3.41 0.65 0.97 1.58 1.72 2.79 2.25 1.2 0.53 2.64 0.8 4.29 0.8zm0-17.26c1.31 0 2.46-0.26 3.47-0.78s1.81-1.25 2.39-2.18c0.58-0.94 0.88-2.03 0.89-3.29-0.01-1.23-0.3-2.3-0.87-3.21-0.57-0.92-1.35-1.63-2.36-2.13-1.01-0.51-2.18-0.77-3.52-0.77-1.36 0-2.55 0.26-3.57 0.77-1.01 0.5-1.8 1.21-2.36 2.13-0.55 0.91-0.83 1.98-0.81 3.21-0.02 1.26 0.26 2.35 0.83 3.29 0.58 0.93 1.38 1.66 2.4 2.18s2.19 0.78 3.51 0.78z" fill="#000"/><path d="m2345 1487.5c0 48.32-39.18 87.5-87.5 87.5s-87.5-39.18-87.5-87.5 39.18-87.5 87.5-87.5 87.5 39.18 87.5 87.5z" fill="#D9D9D9"/><path d="m2257.5 1402.5v85m87.5 0c0 48.32-39.18 87.5-87.5 87.5s-87.5-39.18-87.5-87.5 39.18-87.5 87.5-87.5 87.5 39.18 87.5 87.5z" stroke="#000" stroke-width="5"/><path d="m2227.4 1559v-3.2l12-13.14c1.41-1.53 2.57-2.87 3.48-4.01 0.91-1.15 1.58-2.22 2.02-3.23 0.45-1.02 0.68-2.08 0.68-3.2 0-1.27-0.31-2.38-0.93-3.32-0.6-0.93-1.43-1.65-2.48-2.16-1.06-0.51-2.24-0.77-3.55-0.77-1.4 0-2.62 0.29-3.66 0.87-1.03 0.57-1.83 1.37-2.4 2.4-0.55 1.03-0.83 2.24-0.83 3.62h-4.19c0-2.13 0.49-4 1.47-5.61s2.32-2.86 4.01-3.76c1.71-0.9 3.62-1.35 5.74-1.35 2.13 0 4.02 0.45 5.66 1.35 1.65 0.9 2.94 2.11 3.87 3.64 0.94 1.53 1.41 3.22 1.41 5.09 0 1.34-0.25 2.65-0.73 3.93-0.48 1.27-1.3 2.68-2.49 4.24-1.17 1.55-2.8 3.45-4.88 5.68l-8.17 8.74v0.28h16.91v3.91h-22.94zm31.41 0 16.26-32.17v-0.29h-18.75v-3.9h23.29v4.12l-16.19 32.24h-4.61z" fill="#000"/><path d="m2345 1237.5c0 48.32-39.18 87.5-87.5 87.5s-87.5-39.18-87.5-87.5 39.18-87.5 87.5-87.5 87.5 39.18 87.5 87.5z" fill="#D9D9D9"/><path d="m2257.5 1152.5v85m87.5 0c0 48.32-39.18 87.5-87.5 87.5s-87.5-39.18-87.5-87.5 39.18-87.5 87.5-87.5 87.5 39.18 87.5 87.5z" stroke="#000" stroke-width="5"/><path d="m2345 987.5c0 48.32-39.18 87.5-87.5 87.5s-87.5-39.18-87.5-87.5c0-48.325 39.18-87.5 87.5-87.5s87.5 39.175 87.5 87.5z" fill="#D9D9D9"/><path d="m2257.5 902.5v85m87.5 0c0 48.32-39.18 87.5-87.5 87.5s-87.5-39.18-87.5-87.5c0-48.325 39.18-87.5 87.5-87.5s87.5 39.175 87.5 87.5z" stroke="#000" stroke-width="5"/><path d="m2345 737.5c0 48.325-39.18 87.5-87.5 87.5s-87.5-39.175-87.5-87.5 39.18-87.5 87.5-87.5 87.5 39.175 87.5 87.5z" fill="#D9D9D9"/><path d="m2257.5 652.5v85m87.5 0c0 48.325-39.18 87.5-87.5 87.5s-87.5-39.175-87.5-87.5 39.18-87.5 87.5-87.5 87.5 39.175 87.5 87.5z" stroke="#000" stroke-width="5"/><path d="m2231 808v-3.196l12-13.139c1.41-1.539 2.57-2.877 3.48-4.013 0.91-1.148 1.59-2.225 2.03-3.232 0.44-1.018 0.67-2.083 0.67-3.196 0-1.278-0.31-2.385-0.92-3.32s-1.44-1.657-2.49-2.166-2.24-0.764-3.55-0.764c-1.4 0-2.62 0.29-3.66 0.87-1.03 0.569-1.83 1.368-2.4 2.397-0.55 1.03-0.83 2.238-0.83 3.623h-4.19c0-2.131 0.49-4.001 1.47-5.611 0.99-1.61 2.32-2.865 4.02-3.764 1.7-0.9 3.61-1.35 5.73-1.35 2.13 0 4.02 0.45 5.67 1.35 1.64 0.899 2.93 2.113 3.87 3.64 0.93 1.527 1.4 3.225 1.4 5.095 0 1.338-0.24 2.646-0.73 3.924-0.47 1.267-1.3 2.682-2.48 4.244-1.18 1.551-2.8 3.445-4.89 5.682l-8.16 8.736v0.284h16.9v3.906h-22.94zm28.64-7.457v-3.623l15.98-25.284h2.63v5.611h-1.78l-12.07 19.105v0.284h21.52v3.907h-26.28zm17.11 7.457v-36.364h4.19v36.364h-4.19z" fill="#000"/><path d="m2230.4 1058v-3.2l12-13.14c1.41-1.53 2.57-2.87 3.48-4.01 0.91-1.15 1.59-2.22 2.02-3.23 0.45-1.02 0.68-2.08 0.68-3.2 0-1.27-0.31-2.38-0.92-3.32-0.61-0.93-1.44-1.65-2.49-2.16s-2.24-0.77-3.55-0.77c-1.4 0-2.62 0.29-3.66 0.87-1.03 0.57-1.83 1.37-2.4 2.4-0.55 1.03-0.83 2.24-0.83 3.62h-4.19c0-2.13 0.49-4 1.47-5.61 0.99-1.61 2.32-2.86 4.02-3.76s3.61-1.35 5.73-1.35c2.13 0 4.02 0.45 5.67 1.35 1.64 0.9 2.93 2.11 3.87 3.64 0.93 1.53 1.4 3.22 1.4 5.09 0 1.34-0.24 2.65-0.73 3.93-0.47 1.27-1.3 2.68-2.49 4.24-1.17 1.55-2.79 3.45-4.88 5.68l-8.17 8.74v0.28h16.91v3.91h-22.94zm41.63 0.5c-2.08 0-3.95-0.42-5.62-1.25-1.67-0.82-3.01-1.96-4.02-3.4-1-1.45-1.55-3.09-1.65-4.94h4.26c0.17 1.64 0.91 3.01 2.24 4.08 1.34 1.07 2.94 1.6 4.79 1.6 1.5 0 2.82-0.35 3.98-1.05 1.17-0.7 2.09-1.65 2.75-2.87 0.68-1.23 1.02-2.63 1.02-4.18 0-1.58-0.35-3-1.05-4.24-0.69-1.25-1.64-2.24-2.84-2.96-1.21-0.73-2.59-1.09-4.14-1.11-1.11-0.01-2.25 0.16-3.43 0.52-1.17 0.34-2.13 0.79-2.89 1.33l-4.12-0.5 2.2-17.89h18.89v3.9h-15.19l-1.28 10.73h0.21c0.75-0.59 1.68-1.09 2.81-1.48 1.12-0.39 2.29-0.58 3.51-0.58 2.23 0 4.21 0.53 5.95 1.6 1.75 1.05 3.12 2.49 4.12 4.33 1 1.83 1.51 3.93 1.51 6.28 0 2.32-0.52 4.39-1.57 6.22-1.02 1.81-2.45 3.24-4.26 4.29s-3.87 1.57-6.18 1.57z" fill="#000"/><path d="m2230 1308v-3.2l12-13.14c1.41-1.53 2.57-2.87 3.48-4.01 0.91-1.15 1.59-2.22 2.02-3.23 0.45-1.02 0.68-2.08 0.68-3.2 0-1.27-0.31-2.38-0.92-3.32-0.61-0.93-1.44-1.65-2.49-2.16s-2.24-0.77-3.55-0.77c-1.4 0-2.62 0.29-3.66 0.87-1.03 0.57-1.83 1.37-2.4 2.4-0.55 1.03-0.83 2.24-0.83 3.62h-4.19c0-2.13 0.49-4 1.47-5.61 0.99-1.61 2.32-2.86 4.02-3.76s3.61-1.35 5.73-1.35c2.13 0 4.02 0.45 5.66 1.35 1.65 0.9 2.94 2.11 3.88 3.64 0.93 1.53 1.4 3.22 1.4 5.09 0 1.34-0.24 2.65-0.73 3.93-0.47 1.27-1.3 2.68-2.49 4.24-1.17 1.55-2.8 3.45-4.88 5.68l-8.17 8.74v0.28h16.91v3.91h-22.94zm42.34 0.5c-1.49-0.03-2.98-0.31-4.47-0.86-1.49-0.54-2.85-1.46-4.08-2.75-1.24-1.3-2.22-3.06-2.97-5.27-0.74-2.23-1.12-5.02-1.12-8.38 0-3.22 0.3-6.07 0.91-8.56 0.6-2.5 1.48-4.6 2.63-6.3 1.14-1.72 2.53-3.02 4.15-3.91 1.63-0.89 3.47-1.33 5.52-1.33 2.04 0 3.85 0.41 5.44 1.22s2.9 1.93 3.9 3.38c1.01 1.44 1.66 3.11 1.95 4.99h-4.33c-0.4-1.64-1.18-2.99-2.34-4.07s-2.7-1.61-4.62-1.61c-2.81 0-5.03 1.22-6.66 3.67-1.61 2.45-2.42 5.89-2.43 10.32h0.29c0.66-1.01 1.45-1.87 2.36-2.58 0.92-0.72 1.94-1.28 3.05-1.67s2.29-0.58 3.53-0.58c2.09 0 3.99 0.52 5.72 1.56 1.73 1.03 3.11 2.46 4.16 4.28 1.04 1.81 1.56 3.89 1.56 6.23 0 2.25-0.5 4.31-1.51 6.18-1.01 1.86-2.42 3.34-4.24 4.44-1.81 1.09-3.95 1.62-6.4 1.6zm0-3.91c1.5 0 2.83-0.37 4.02-1.12 1.19-0.74 2.13-1.74 2.82-3 0.7-1.25 1.05-2.65 1.05-4.19 0-1.5-0.34-2.87-1.01-4.1-0.67-1.24-1.58-2.23-2.76-2.97-1.16-0.73-2.48-1.1-3.97-1.1-1.13 0-2.18 0.23-3.15 0.68-0.97 0.44-1.82 1.04-2.55 1.81s-1.29 1.65-1.71 2.65c-0.41 0.98-0.62 2.01-0.62 3.1 0 1.45 0.34 2.8 1.01 4.05 0.69 1.26 1.62 2.27 2.81 3.04s2.55 1.15 4.06 1.15z" fill="#000"/><rect x="2285.5" y="313.5" width="95" height="70" fill="#D9D9D9" stroke="#000" stroke-width="5"/><rect x="2135.5" y="313.5" width="95" height="70" fill="#D9D9D9" stroke="#000" stroke-width="5"/><path d="m2155.7 369v-3.196l12-13.139c1.41-1.539 2.57-2.877 3.48-4.013 0.91-1.148 1.59-2.225 2.03-3.232 0.45-1.018 0.67-2.083 0.67-3.196 0-1.278-0.31-2.385-0.92-3.32s-1.43-1.657-2.49-2.166c-1.05-0.509-2.23-0.764-3.55-0.764-1.4 0-2.61 0.29-3.66 0.87-1.03 0.569-1.83 1.368-2.39 2.397-0.56 1.03-0.84 2.238-0.84 3.623h-4.19c0-2.131 0.49-4.001 1.48-5.611 0.98-1.61 2.32-2.865 4.01-3.764 1.7-0.9 3.61-1.35 5.73-1.35 2.13 0 4.02 0.45 5.67 1.35 1.64 0.899 2.93 2.113 3.87 3.64 0.93 1.527 1.4 3.225 1.4 5.095 0 1.338-0.24 2.646-0.73 3.924-0.47 1.267-1.3 2.682-2.48 4.244-1.18 1.551-2.8 3.445-4.89 5.682l-8.16 8.736v0.284h16.9v3.906h-22.94zm42.56 0.497c-2.34 0-4.43-0.402-6.27-1.207-1.82-0.805-3.27-1.924-4.35-3.356-1.06-1.444-1.64-3.119-1.74-5.025h4.48c0.09 1.172 0.49 2.184 1.2 3.036 0.71 0.841 1.64 1.492 2.79 1.953 1.15 0.462 2.42 0.693 3.82 0.693 1.56 0 2.95-0.272 4.15-0.817 1.21-0.544 2.16-1.302 2.84-2.273 0.69-0.97 1.03-2.095 1.03-3.373 0-1.338-0.33-2.516-0.99-3.534-0.66-1.029-1.63-1.834-2.91-2.414s-2.84-0.87-4.69-0.87h-2.91v-3.907h2.91c1.44 0 2.71-0.26 3.8-0.781 1.1-0.521 1.96-1.255 2.57-2.202 0.63-0.947 0.95-2.059 0.95-3.338 0-1.231-0.28-2.302-0.82-3.213-0.55-0.912-1.31-1.622-2.31-2.131-0.98-0.509-2.14-0.764-3.48-0.764-1.25 0-2.44 0.231-3.55 0.693-1.1 0.45-2 1.107-2.7 1.971-0.7 0.852-1.08 1.882-1.14 3.089h-4.26c0.07-1.906 0.65-3.575 1.73-5.007 1.07-1.444 2.48-2.568 4.22-3.373 1.75-0.805 3.68-1.208 5.77-1.208 2.25 0 4.18 0.456 5.79 1.367 1.61 0.9 2.85 2.09 3.71 3.569 0.87 1.48 1.3 3.078 1.3 4.794 0 2.048-0.54 3.794-1.62 5.238-1.06 1.444-2.51 2.445-4.35 3.001v0.284c2.3 0.379 4.09 1.355 5.38 2.93 1.29 1.562 1.94 3.498 1.94 5.806 0 1.977-0.54 3.752-1.62 5.327-1.06 1.562-2.52 2.793-4.37 3.693-1.84 0.899-3.94 1.349-6.3 1.349z" fill="#000"/><path d="m2305.7 369v-3.196l12-13.139c1.41-1.539 2.57-2.877 3.48-4.013 0.91-1.148 1.59-2.225 2.03-3.232 0.45-1.018 0.67-2.083 0.67-3.196 0-1.278-0.31-2.385-0.92-3.32s-1.43-1.657-2.49-2.166c-1.05-0.509-2.23-0.764-3.55-0.764-1.4 0-2.61 0.29-3.66 0.87-1.03 0.569-1.83 1.368-2.39 2.397-0.56 1.03-0.84 2.238-0.84 3.623h-4.19c0-2.131 0.49-4.001 1.48-5.611 0.98-1.61 2.32-2.865 4.01-3.764 1.7-0.9 3.61-1.35 5.73-1.35 2.13 0 4.02 0.45 5.67 1.35 1.64 0.899 2.93 2.113 3.87 3.64 0.93 1.527 1.4 3.225 1.4 5.095 0 1.338-0.24 2.646-0.73 3.924-0.47 1.267-1.3 2.682-2.48 4.244-1.18 1.551-2.8 3.445-4.89 5.682l-8.16 8.736v0.284h16.9v3.906h-22.94zm42.56 0.497c-2.34 0-4.43-0.402-6.27-1.207-1.82-0.805-3.27-1.924-4.35-3.356-1.06-1.444-1.64-3.119-1.74-5.025h4.48c0.09 1.172 0.49 2.184 1.2 3.036 0.71 0.841 1.64 1.492 2.79 1.953 1.15 0.462 2.42 0.693 3.82 0.693 1.56 0 2.95-0.272 4.15-0.817 1.21-0.544 2.16-1.302 2.84-2.273 0.69-0.97 1.03-2.095 1.03-3.373 0-1.338-0.33-2.516-0.99-3.534-0.66-1.029-1.63-1.834-2.91-2.414s-2.84-0.87-4.69-0.87h-2.91v-3.907h2.91c1.44 0 2.71-0.26 3.8-0.781 1.1-0.521 1.96-1.255 2.57-2.202 0.63-0.947 0.95-2.059 0.95-3.338 0-1.231-0.28-2.302-0.82-3.213-0.55-0.912-1.31-1.622-2.31-2.131-0.98-0.509-2.14-0.764-3.48-0.764-1.25 0-2.44 0.231-3.55 0.693-1.1 0.45-2 1.107-2.7 1.971-0.7 0.852-1.08 1.882-1.14 3.089h-4.26c0.07-1.906 0.65-3.575 1.73-5.007 1.07-1.444 2.48-2.568 4.22-3.373 1.75-0.805 3.68-1.208 5.77-1.208 2.25 0 4.18 0.456 5.79 1.367 1.61 0.9 2.85 2.09 3.71 3.569 0.87 1.48 1.3 3.078 1.3 4.794 0 2.048-0.54 3.794-1.62 5.238-1.06 1.444-2.51 2.445-4.35 3.001v0.284c2.3 0.379 4.09 1.355 5.38 2.93 1.29 1.562 1.94 3.498 1.94 5.806 0 1.977-0.54 3.752-1.62 5.327-1.06 1.562-2.52 2.793-4.37 3.693-1.84 0.899-3.94 1.349-6.3 1.349z" fill="#000"/><path d="m2345 158.5c0 48.325-39.18 87.5-87.5 87.5s-87.5-39.175-87.5-87.5 39.18-87.5 87.5-87.5 87.5 39.175 87.5 87.5z" fill="#D9D9D9"/><path d="m2257.5 73.5v85m87.5 0c0 48.325-39.18 87.5-87.5 87.5s-87.5-39.175-87.5-87.5 39.18-87.5 87.5-87.5 87.5 39.175 87.5 87.5z" stroke="#000" stroke-width="5"/><path d="m2231.5 224v-3.196l12-13.139c1.41-1.539 2.57-2.877 3.48-4.013 0.92-1.148 1.59-2.225 2.03-3.232 0.45-1.018 0.67-2.083 0.67-3.196 0-1.278-0.31-2.385-0.92-3.32-0.6-0.935-1.43-1.657-2.49-2.166-1.05-0.509-2.23-0.764-3.55-0.764-1.39 0-2.61 0.29-3.66 0.87-1.03 0.569-1.82 1.368-2.39 2.397-0.56 1.03-0.84 2.238-0.84 3.623h-4.19c0-2.131 0.49-4.001 1.48-5.611 0.98-1.61 2.32-2.865 4.01-3.764 1.7-0.9 3.62-1.35 5.73-1.35 2.14 0 4.02 0.45 5.67 1.35 1.64 0.899 2.93 2.113 3.87 3.64 0.93 1.527 1.4 3.225 1.4 5.095 0 1.338-0.24 2.646-0.73 3.924-0.47 1.267-1.3 2.682-2.48 4.244-1.17 1.551-2.8 3.445-4.88 5.682l-8.17 8.736v0.284h16.9v3.906h-22.94zm30.27 0v-3.196l12.01-13.139c1.41-1.539 2.57-2.877 3.48-4.013 0.91-1.148 1.58-2.225 2.02-3.232 0.45-1.018 0.68-2.083 0.68-3.196 0-1.278-0.31-2.385-0.93-3.32-0.6-0.935-1.43-1.657-2.48-2.166-1.06-0.509-2.24-0.764-3.55-0.764-1.4 0-2.62 0.29-3.66 0.87-1.03 0.569-1.83 1.368-2.4 2.397-0.56 1.03-0.83 2.238-0.83 3.623h-4.19c0-2.131 0.49-4.001 1.47-5.611s2.32-2.865 4.01-3.764c1.71-0.9 3.62-1.35 5.74-1.35 2.13 0 4.02 0.45 5.66 1.35 1.65 0.899 2.94 2.113 3.87 3.64 0.94 1.527 1.41 3.225 1.41 5.095 0 1.338-0.25 2.646-0.73 3.924-0.48 1.267-1.3 2.682-2.49 4.244-1.17 1.551-2.8 3.445-4.88 5.682l-8.17 8.736v0.284h16.9v3.906h-22.94z" fill="#000"/><rect x="1797.5" y="2432.5" width="37" height="745" fill="#D9D9D9" stroke="#000" stroke-width="5"/><line x1="1717.5" x2="1917.5" y1="2528" y2="2528" stroke="#000" stroke-width="10"/><path d="m1864 2498v-3.2l12-13.14c1.41-1.53 2.57-2.87 3.48-4.01 0.91-1.15 1.59-2.22 2.02-3.23 0.45-1.02 0.68-2.08 0.68-3.2 0-1.27-0.31-2.38-0.93-3.32-0.6-0.93-1.43-1.65-2.48-2.16s-2.24-0.77-3.55-0.77c-1.4 0-2.62 0.29-3.66 0.87-1.03 0.57-1.83 1.37-2.4 2.4-0.55 1.03-0.83 2.24-0.83 3.62h-4.19c0-2.13 0.49-4 1.47-5.61s2.32-2.86 4.01-3.76c1.71-0.9 3.62-1.35 5.74-1.35 2.13 0 4.02 0.45 5.66 1.35 1.65 0.9 2.94 2.11 3.87 3.64 0.94 1.53 1.41 3.22 1.41 5.09 0 1.34-0.25 2.65-0.73 3.93-0.47 1.27-1.3 2.68-2.49 4.24-1.17 1.55-2.8 3.45-4.88 5.68l-8.17 8.74v0.28h16.91v3.91h-22.94zm43.05-36.36v36.36h-4.4v-31.75h-0.21l-8.88 5.9v-4.48l9.09-6.03h4.4z" fill="#000"/><rect x="1347.5" y="3032.5" width="245" height="145" fill="#D9D9D9" stroke="#000" stroke-width="5"/><rect x="1039.5" y="3032.5" width="245" height="145" fill="#D9D9D9" stroke="#000" stroke-width="5"/><rect x="730.5" y="3032.5" width="245" height="145" fill="#D9D9D9" stroke="#000" stroke-width="5"/><rect x="422.5" y="3032.5" width="245" height="145" fill="#D9D9D9" stroke="#000" stroke-width="5"/><rect x="1347.5" y="2807.5" width="245" height="145" fill="#D9D9D9" stroke="#000" stroke-width="5"/><rect x="1039.5" y="2807.5" width="245" height="145" fill="#D9D9D9" stroke="#000" stroke-width="5"/><rect x="730.5" y="2807.5" width="245" height="145" fill="#D9D9D9" stroke="#000" stroke-width="5"/><rect x="422.5" y="2807.5" width="245" height="145" fill="#D9D9D9" stroke="#000" stroke-width="5"/><path d="m518 3123v-3.2l12.003-13.14c1.409-1.53 2.569-2.87 3.48-4.01 0.912-1.15 1.587-2.22 2.025-3.23 0.449-1.02 0.674-2.08 0.674-3.2 0-1.27-0.307-2.38-0.923-3.32-0.604-0.93-1.432-1.65-2.486-2.16-1.053-0.51-2.237-0.77-3.551-0.77-1.397 0-2.616 0.29-3.658 0.87-1.029 0.57-1.828 1.37-2.397 2.4-0.556 1.03-0.834 2.24-0.834 3.62h-4.19c0-2.13 0.491-4 1.473-5.61 0.983-1.61 2.32-2.86 4.013-3.76 1.705-0.9 3.616-1.35 5.735-1.35 2.131 0 4.019 0.45 5.664 1.35 1.646 0.9 2.936 2.11 3.871 3.64s1.403 3.22 1.403 5.09c0 1.34-0.243 2.65-0.728 3.93-0.474 1.27-1.302 2.68-2.486 4.24-1.172 1.55-2.8 3.45-4.883 5.68l-8.168 8.74v0.28h16.904v3.91h-22.941zm42.135 0.5c-2.675 0-4.954-0.73-6.836-2.19s-3.321-3.59-4.315-6.37c-0.994-2.79-1.491-6.17-1.491-10.12 0-3.93 0.497-7.29 1.491-10.07 1.006-2.79 2.45-4.92 4.333-6.39 1.893-1.48 4.166-2.22 6.818-2.22 2.651 0 4.918 0.74 6.8 2.22 1.894 1.47 3.338 3.6 4.333 6.39 1.006 2.78 1.509 6.14 1.509 10.07 0 3.95-0.497 7.33-1.492 10.12-0.994 2.78-2.432 4.91-4.314 6.37s-4.161 2.19-6.836 2.19zm0-3.91c2.651 0 4.711-1.28 6.179-3.83 1.467-2.56 2.201-6.21 2.201-10.94 0-3.15-0.337-5.83-1.012-8.05-0.663-2.21-1.621-3.9-2.876-5.06-1.243-1.16-2.74-1.74-4.492-1.74-2.628 0-4.682 1.3-6.162 3.89-1.479 2.58-2.219 6.24-2.219 10.96 0 3.15 0.331 5.82 0.994 8.02 0.663 2.21 1.616 3.88 2.859 5.03 1.255 1.15 2.764 1.72 4.528 1.72z" fill="#000"/><path d="m826 3123v-3.2l12.003-13.14c1.409-1.53 2.569-2.87 3.48-4.01 0.912-1.15 1.587-2.22 2.025-3.23 0.449-1.02 0.674-2.08 0.674-3.2 0-1.27-0.307-2.38-0.923-3.32-0.604-0.93-1.432-1.65-2.486-2.16-1.053-0.51-2.237-0.77-3.551-0.77-1.397 0-2.616 0.29-3.658 0.87-1.029 0.57-1.828 1.37-2.397 2.4-0.556 1.03-0.834 2.24-0.834 3.62h-4.19c0-2.13 0.491-4 1.473-5.61 0.983-1.61 2.32-2.86 4.013-3.76 1.705-0.9 3.616-1.35 5.735-1.35 2.131 0 4.019 0.45 5.664 1.35 1.646 0.9 2.936 2.11 3.871 3.64s1.403 3.22 1.403 5.09c0 1.34-0.243 2.65-0.728 3.93-0.474 1.27-1.302 2.68-2.486 4.24-1.172 1.55-2.8 3.45-4.883 5.68l-8.168 8.74v0.28h16.904v3.91h-22.941zm42.135 0.5c-2.675 0-4.954-0.73-6.836-2.19s-3.321-3.59-4.315-6.37c-0.994-2.79-1.491-6.17-1.491-10.12 0-3.93 0.497-7.29 1.491-10.07 1.006-2.79 2.45-4.92 4.333-6.39 1.893-1.48 4.166-2.22 6.818-2.22 2.651 0 4.918 0.74 6.8 2.22 1.894 1.47 3.338 3.6 4.333 6.39 1.006 2.78 1.509 6.14 1.509 10.07 0 3.95-0.497 7.33-1.492 10.12-0.994 2.78-2.432 4.91-4.314 6.37s-4.161 2.19-6.836 2.19zm0-3.91c2.651 0 4.711-1.28 6.179-3.83 1.467-2.56 2.201-6.21 2.201-10.94 0-3.15-0.337-5.83-1.012-8.05-0.663-2.21-1.621-3.9-2.876-5.06-1.243-1.16-2.74-1.74-4.492-1.74-2.628 0-4.682 1.3-6.162 3.89-1.479 2.58-2.219 6.24-2.219 10.96 0 3.15 0.331 5.82 0.994 8.02 0.663 2.21 1.616 3.88 2.859 5.03 1.255 1.15 2.764 1.72 4.528 1.72z" fill="#000"/><path d="m1135 3123v-3.2l12.01-13.14c1.4-1.53 2.56-2.87 3.48-4.01 0.91-1.15 1.58-2.22 2.02-3.23 0.45-1.02 0.67-2.08 0.67-3.2 0-1.27-0.3-2.38-0.92-3.32-0.6-0.93-1.43-1.65-2.48-2.16-1.06-0.51-2.24-0.77-3.56-0.77-1.39 0-2.61 0.29-3.65 0.87-1.03 0.57-1.83 1.37-2.4 2.4-0.56 1.03-0.84 2.24-0.84 3.62h-4.19c0-2.13 0.5-4 1.48-5.61s2.32-2.86 4.01-3.76c1.71-0.9 3.62-1.35 5.74-1.35 2.13 0 4.01 0.45 5.66 1.35s2.94 2.11 3.87 3.64c0.94 1.53 1.4 3.22 1.4 5.09 0 1.34-0.24 2.65-0.72 3.93-0.48 1.27-1.31 2.68-2.49 4.24-1.17 1.55-2.8 3.45-4.88 5.68l-8.17 8.74v0.28h16.9v3.91h-22.94zm42.14 0.5c-2.68 0-4.96-0.73-6.84-2.19s-3.32-3.59-4.31-6.37c-1-2.79-1.5-6.17-1.5-10.12 0-3.93 0.5-7.29 1.5-10.07 1-2.79 2.45-4.92 4.33-6.39 1.89-1.48 4.17-2.22 6.82-2.22s4.92 0.74 6.8 2.22c1.89 1.47 3.34 3.6 4.33 6.39 1.01 2.78 1.51 6.14 1.51 10.07 0 3.95-0.5 7.33-1.49 10.12-1 2.78-2.44 4.91-4.32 6.37s-4.16 2.19-6.83 2.19zm0-3.91c2.65 0 4.71-1.28 6.18-3.83 1.46-2.56 2.2-6.21 2.2-10.94 0-3.15-0.34-5.83-1.01-8.05-0.67-2.21-1.63-3.9-2.88-5.06-1.24-1.16-2.74-1.74-4.49-1.74-2.63 0-4.68 1.3-6.16 3.89-1.48 2.58-2.22 6.24-2.22 10.96 0 3.15 0.33 5.82 0.99 8.02 0.66 2.21 1.62 3.88 2.86 5.03 1.25 1.15 2.76 1.72 4.53 1.72z" fill="#000"/><path d="m1443 3123v-3.2l12.01-13.14c1.4-1.53 2.56-2.87 3.48-4.01 0.91-1.15 1.58-2.22 2.02-3.23 0.45-1.02 0.67-2.08 0.67-3.2 0-1.27-0.3-2.38-0.92-3.32-0.6-0.93-1.43-1.65-2.48-2.16-1.06-0.51-2.24-0.77-3.56-0.77-1.39 0-2.61 0.29-3.65 0.87-1.03 0.57-1.83 1.37-2.4 2.4-0.56 1.03-0.84 2.24-0.84 3.62h-4.19c0-2.13 0.5-4 1.48-5.61s2.32-2.86 4.01-3.76c1.71-0.9 3.62-1.35 5.74-1.35 2.13 0 4.01 0.45 5.66 1.35s2.94 2.11 3.87 3.64c0.94 1.53 1.4 3.22 1.4 5.09 0 1.34-0.24 2.65-0.72 3.93-0.48 1.27-1.31 2.68-2.49 4.24-1.17 1.55-2.8 3.45-4.88 5.68l-8.17 8.74v0.28h16.9v3.91h-22.94zm42.14 0.5c-2.68 0-4.96-0.73-6.84-2.19s-3.32-3.59-4.31-6.37c-1-2.79-1.5-6.17-1.5-10.12 0-3.93 0.5-7.29 1.5-10.07 1-2.79 2.45-4.92 4.33-6.39 1.89-1.48 4.17-2.22 6.82-2.22s4.92 0.74 6.8 2.22c1.89 1.47 3.34 3.6 4.33 6.39 1.01 2.78 1.51 6.14 1.51 10.07 0 3.95-0.5 7.33-1.49 10.12-1 2.78-2.44 4.91-4.32 6.37s-4.16 2.19-6.83 2.19zm0-3.91c2.65 0 4.71-1.28 6.18-3.83 1.46-2.56 2.2-6.21 2.2-10.94 0-3.15-0.34-5.83-1.01-8.05-0.67-2.21-1.63-3.9-2.88-5.06-1.24-1.16-2.74-1.74-4.49-1.74-2.63 0-4.68 1.3-6.16 3.89-1.48 2.58-2.22 6.24-2.22 10.96 0 3.15 0.33 5.82 0.99 8.02 0.66 2.21 1.62 3.88 2.86 5.03 1.25 1.15 2.76 1.72 4.53 1.72z" fill="#000"/><path d="m534.33 2861.6v36.36h-4.404v-31.75h-0.213l-8.878 5.9v-4.48l9.091-6.03h4.404zm22.034-0.5c1.492 0.01 2.983 0.3 4.475 0.85 1.491 0.56 2.853 1.48 4.084 2.77 1.231 1.28 2.219 3.03 2.965 5.24s1.118 4.99 1.118 8.33c0 3.23-0.307 6.1-0.923 8.61-0.604 2.5-1.479 4.6-2.628 6.32-1.136 1.72-2.521 3.02-4.155 3.91-1.621 0.88-3.456 1.33-5.504 1.33-2.036 0-3.853-0.41-5.451-1.21-1.586-0.82-2.888-1.95-3.906-3.39-1.006-1.46-1.651-3.14-1.935-5.06h4.332c0.391 1.67 1.166 3.05 2.326 4.14 1.172 1.07 2.717 1.61 4.634 1.61 2.806 0 5.019-1.22 6.641-3.67 1.633-2.45 2.45-5.92 2.45-10.39h-0.284c-0.663 0.99-1.45 1.85-2.361 2.57-0.912 0.73-1.924 1.28-3.037 1.67-1.112 0.39-2.296 0.59-3.551 0.59-2.083 0-3.995-0.52-5.735-1.55-1.728-1.04-3.113-2.46-4.155-4.28-1.03-1.82-1.544-3.9-1.544-6.25 0-2.22 0.497-4.26 1.491-6.1 1.006-1.86 2.415-3.34 4.226-4.44 1.823-1.1 3.965-1.64 6.427-1.6zm0 3.91c-1.491 0-2.835 0.37-4.03 1.11-1.184 0.74-2.125 1.73-2.823 2.99-0.687 1.24-1.03 2.62-1.03 4.13 0 1.52 0.331 2.9 0.994 4.14 0.675 1.23 1.592 2.21 2.752 2.95 1.172 0.72 2.504 1.08 3.995 1.08 1.125 0 2.172-0.22 3.143-0.66 0.971-0.45 1.817-1.05 2.539-1.82 0.734-0.79 1.308-1.67 1.722-2.65 0.415-0.99 0.622-2.03 0.622-3.11 0-1.42-0.343-2.75-1.03-3.99-0.675-1.24-1.61-2.25-2.805-3.02-1.184-0.77-2.533-1.15-4.049-1.15z" fill="#000"/><path d="m842.33 2861.6v36.36h-4.404v-31.75h-0.213l-8.878 5.9v-4.48l9.091-6.03h4.404zm22.034-0.5c1.492 0.01 2.983 0.3 4.475 0.85 1.491 0.56 2.853 1.48 4.084 2.77 1.231 1.28 2.219 3.03 2.965 5.24s1.118 4.99 1.118 8.33c0 3.23-0.307 6.1-0.923 8.61-0.604 2.5-1.479 4.6-2.628 6.32-1.136 1.72-2.521 3.02-4.155 3.91-1.621 0.88-3.456 1.33-5.504 1.33-2.036 0-3.853-0.41-5.451-1.21-1.586-0.82-2.888-1.95-3.906-3.39-1.006-1.46-1.651-3.14-1.935-5.06h4.332c0.391 1.67 1.166 3.05 2.326 4.14 1.172 1.07 2.717 1.61 4.634 1.61 2.806 0 5.019-1.22 6.641-3.67 1.633-2.45 2.45-5.92 2.45-10.39h-0.284c-0.663 0.99-1.45 1.85-2.361 2.57-0.912 0.73-1.924 1.28-3.037 1.67-1.112 0.39-2.296 0.59-3.551 0.59-2.083 0-3.995-0.52-5.735-1.55-1.728-1.04-3.113-2.46-4.155-4.28-1.03-1.82-1.544-3.9-1.544-6.25 0-2.22 0.497-4.26 1.491-6.1 1.006-1.86 2.415-3.34 4.226-4.44 1.823-1.1 3.965-1.64 6.427-1.6zm0 3.91c-1.491 0-2.835 0.37-4.03 1.11-1.184 0.74-2.125 1.73-2.823 2.99-0.687 1.24-1.03 2.62-1.03 4.13 0 1.52 0.331 2.9 0.994 4.14 0.675 1.23 1.592 2.21 2.752 2.95 1.172 0.72 2.504 1.08 3.995 1.08 1.125 0 2.172-0.22 3.143-0.66 0.971-0.45 1.817-1.05 2.539-1.82 0.734-0.79 1.308-1.67 1.722-2.65 0.415-0.99 0.622-2.03 0.622-3.11 0-1.42-0.343-2.75-1.03-3.99-0.675-1.24-1.61-2.25-2.805-3.02-1.184-0.77-2.533-1.15-4.049-1.15z" fill="#000"/><path d="m1151.3 2861.6v36.36h-4.41v-31.75h-0.21l-8.88 5.9v-4.48l9.09-6.03h4.41zm22.03-0.5c1.49 0.01 2.98 0.3 4.48 0.85 1.49 0.56 2.85 1.48 4.08 2.77 1.23 1.28 2.22 3.03 2.96 5.24 0.75 2.21 1.12 4.99 1.12 8.33 0 3.23-0.3 6.1-0.92 8.61-0.6 2.5-1.48 4.6-2.63 6.32-1.13 1.72-2.52 3.02-4.15 3.91-1.62 0.88-3.46 1.33-5.51 1.33-2.03 0-3.85-0.41-5.45-1.21-1.58-0.82-2.89-1.95-3.9-3.39-1.01-1.46-1.66-3.14-1.94-5.06h4.33c0.39 1.67 1.17 3.05 2.33 4.14 1.17 1.07 2.72 1.61 4.63 1.61 2.81 0 5.02-1.22 6.64-3.67 1.64-2.45 2.45-5.92 2.45-10.39h-0.28c-0.66 0.99-1.45 1.85-2.36 2.57-0.91 0.73-1.92 1.28-3.04 1.67-1.11 0.39-2.29 0.59-3.55 0.59-2.08 0-3.99-0.52-5.73-1.55-1.73-1.04-3.12-2.46-4.16-4.28-1.03-1.82-1.54-3.9-1.54-6.25 0-2.22 0.49-4.26 1.49-6.1 1-1.86 2.41-3.34 4.22-4.44 1.83-1.1 3.97-1.64 6.43-1.6zm0 3.91c-1.49 0-2.83 0.37-4.03 1.11-1.18 0.74-2.12 1.73-2.82 2.99-0.69 1.24-1.03 2.62-1.03 4.13 0 1.52 0.33 2.9 0.99 4.14 0.68 1.23 1.59 2.21 2.75 2.95 1.18 0.72 2.51 1.08 4 1.08 1.12 0 2.17-0.22 3.14-0.66 0.97-0.45 1.82-1.05 2.54-1.82 0.74-0.79 1.31-1.67 1.72-2.65 0.42-0.99 0.62-2.03 0.62-3.11 0-1.42-0.34-2.75-1.02-3.99s-1.61-2.25-2.81-3.02c-1.18-0.77-2.53-1.15-4.05-1.15z" fill="#000"/><path d="m1459.3 2861.6v36.36h-4.41v-31.75h-0.21l-8.88 5.9v-4.48l9.09-6.03h4.41zm22.03-0.5c1.49 0.01 2.98 0.3 4.48 0.85 1.49 0.56 2.85 1.48 4.08 2.77 1.23 1.28 2.22 3.03 2.96 5.24 0.75 2.21 1.12 4.99 1.12 8.33 0 3.23-0.3 6.1-0.92 8.61-0.6 2.5-1.48 4.6-2.63 6.32-1.13 1.72-2.52 3.02-4.15 3.91-1.62 0.88-3.46 1.33-5.51 1.33-2.03 0-3.85-0.41-5.45-1.21-1.58-0.82-2.89-1.95-3.9-3.39-1.01-1.46-1.66-3.14-1.94-5.06h4.33c0.39 1.67 1.17 3.05 2.33 4.14 1.17 1.07 2.72 1.61 4.63 1.61 2.81 0 5.02-1.22 6.64-3.67 1.64-2.45 2.45-5.92 2.45-10.39h-0.28c-0.66 0.99-1.45 1.85-2.36 2.57-0.91 0.73-1.92 1.28-3.04 1.67-1.11 0.39-2.29 0.59-3.55 0.59-2.08 0-3.99-0.52-5.73-1.55-1.73-1.04-3.12-2.46-4.16-4.28-1.03-1.82-1.54-3.9-1.54-6.25 0-2.22 0.49-4.26 1.49-6.1 1-1.86 2.41-3.34 4.22-4.44 1.83-1.1 3.97-1.64 6.43-1.6zm0 3.91c-1.49 0-2.83 0.37-4.03 1.11-1.18 0.74-2.12 1.73-2.82 2.99-0.69 1.24-1.03 2.62-1.03 4.13 0 1.52 0.33 2.9 0.99 4.14 0.68 1.23 1.59 2.21 2.75 2.95 1.18 0.72 2.51 1.08 4 1.08 1.12 0 2.17-0.22 3.14-0.66 0.97-0.45 1.82-1.05 2.54-1.82 0.74-0.79 1.31-1.67 1.72-2.65 0.42-0.99 0.62-2.03 0.62-3.11 0-1.42-0.34-2.75-1.02-3.99s-1.61-2.25-2.81-3.02c-1.18-0.77-2.53-1.15-4.05-1.15z" fill="#000"/><circle cx="200" cy="3055" r="122.5" fill="#D9D9D9"/><circle cx="200" cy="3055" r="122.5" stroke="#000" stroke-width="5"/><circle cx="200" cy="3055" r="122.5" stroke="#000" stroke-width="5"/><circle cx="200" cy="3055" r="122.5" stroke="#000" stroke-width="5"/><path d="m155.09 3073v-36.36h12.287c2.853 0 5.185 0.51 6.996 1.54 1.823 1.02 3.172 2.4 4.048 4.14s1.314 3.68 1.314 5.82-0.438 4.09-1.314 5.84c-0.864 1.76-2.202 3.15-4.013 4.19-1.811 1.03-4.131 1.55-6.96 1.55h-8.807v-3.91h8.665c1.953 0 3.521-0.33 4.705-1.01 1.184-0.67 2.042-1.59 2.575-2.73 0.544-1.16 0.817-2.47 0.817-3.93 0-1.45-0.273-2.76-0.817-3.9-0.533-1.15-1.397-2.05-2.593-2.7-1.195-0.67-2.781-1-4.758-1h-7.742v32.46h-4.403zm35.36-36.36v36.36h-4.19v-36.36h4.19zm15.701 37c-1.728 0-3.297-0.33-4.705-0.98-1.409-0.66-2.528-1.61-3.356-2.86-0.829-1.25-1.243-2.77-1.243-4.54 0-1.56 0.308-2.83 0.923-3.8 0.616-0.98 1.438-1.75 2.468-2.31s2.166-0.97 3.409-1.24c1.255-0.29 2.516-0.51 3.782-0.68 1.658-0.21 3.001-0.37 4.031-0.48 1.042-0.11 1.799-0.31 2.273-0.58 0.485-0.27 0.728-0.75 0.728-1.42v-0.14c0-1.76-0.48-3.12-1.439-4.09-0.947-0.97-2.385-1.45-4.314-1.45-2.001 0-3.569 0.43-4.706 1.31-1.136 0.88-1.935 1.81-2.397 2.8l-3.977-1.42c0.71-1.65 1.657-2.94 2.841-3.87 1.196-0.93 2.498-1.58 3.906-1.95 1.421-0.38 2.818-0.57 4.191-0.57 0.876 0 1.882 0.11 3.018 0.32 1.148 0.2 2.255 0.62 3.32 1.26 1.078 0.64 1.971 1.61 2.682 2.9 0.71 1.29 1.065 3.02 1.065 5.18v17.97h-4.19v-3.69h-0.214c-0.284 0.59-0.757 1.22-1.42 1.9-0.663 0.67-1.545 1.25-2.646 1.72-1.1 0.47-2.444 0.71-4.03 0.71zm0.639-3.76c1.657 0 3.054-0.33 4.19-0.98 1.149-0.65 2.013-1.49 2.593-2.52 0.592-1.03 0.888-2.12 0.888-3.25v-3.84c-0.178 0.22-0.569 0.41-1.172 0.59-0.592 0.16-1.279 0.31-2.06 0.44-0.769 0.12-1.521 0.23-2.255 0.32-0.722 0.08-1.308 0.16-1.758 0.22-1.089 0.14-2.107 0.37-3.054 0.69-0.935 0.31-1.692 0.77-2.272 1.4-0.569 0.62-0.853 1.46-0.853 2.52 0 1.46 0.539 2.56 1.616 3.3 1.089 0.74 2.468 1.11 4.137 1.11zm21.231 13.35c-0.71 0-1.343-0.06-1.899-0.18-0.557-0.11-0.941-0.21-1.155-0.32l1.066-3.69c1.018 0.26 1.917 0.35 2.699 0.28 0.781-0.07 1.473-0.42 2.077-1.05 0.616-0.61 1.178-1.61 1.687-3l0.781-2.13-10.085-27.41h4.545l7.529 21.73h0.284l7.528-21.73h4.546l-11.577 31.25c-0.521 1.41-1.166 2.57-1.935 3.5-0.77 0.93-1.663 1.62-2.681 2.07-1.007 0.45-2.143 0.68-3.41 0.68z" fill="#000"/><rect x="1347.5" y="2632.5" width="245" height="95" fill="#D9D9D9" stroke="#000" stroke-width="5"/><rect x="1039.5" y="2632.5" width="245" height="95" fill="#D9D9D9" stroke="#000" stroke-width="5"/><rect x="730.5" y="2632.5" width="245" height="95" fill="#D9D9D9" stroke="#000" stroke-width="5"/><rect x="422.5" y="2632.5" width="245" height="95" fill="#D9D9D9" stroke="#000" stroke-width="5"/><path d="m1402.2 2698v-36.36h4.4v32.45h16.91v3.91h-21.31zm38.64 0.57c-2.46 0-4.63-0.59-6.48-1.76s-3.29-2.81-4.34-4.92c-1.03-2.1-1.54-4.57-1.54-7.38 0-2.85 0.51-5.33 1.54-7.44 1.05-2.12 2.49-3.77 4.34-4.94s4.02-1.76 6.48-1.76 4.61 0.59 6.46 1.76c1.86 1.17 3.3 2.82 4.33 4.94 1.04 2.11 1.57 4.59 1.57 7.44 0 2.81-0.53 5.28-1.57 7.38-1.03 2.11-2.47 3.75-4.33 4.92-1.85 1.17-4 1.76-6.46 1.76zm0-3.77c1.87 0 3.41-0.48 4.61-1.43 1.21-0.96 2.1-2.22 2.68-3.79 0.58-1.56 0.88-3.25 0.88-5.07 0-1.83-0.3-3.53-0.88-5.1s-1.47-2.85-2.68-3.82c-1.2-0.97-2.74-1.45-4.61-1.45s-3.41 0.48-4.62 1.45-2.1 2.25-2.68 3.82-0.87 3.27-0.87 5.1c0 1.82 0.29 3.51 0.87 5.07 0.58 1.57 1.47 2.83 2.68 3.79 1.21 0.95 2.75 1.43 4.62 1.43zm29.83 3.77c-2.46 0-4.62-0.59-6.48-1.76-1.85-1.17-3.29-2.81-4.33-4.92-1.03-2.1-1.55-4.57-1.55-7.38 0-2.85 0.52-5.33 1.55-7.44 1.04-2.12 2.48-3.77 4.33-4.94 1.86-1.17 4.02-1.76 6.48-1.76s4.62 0.59 6.46 1.76c1.86 1.17 3.31 2.82 4.34 4.94 1.04 2.11 1.56 4.59 1.56 7.44 0 2.81-0.52 5.28-1.56 7.38-1.03 2.11-2.48 3.75-4.34 4.92-1.84 1.17-4 1.76-6.46 1.76zm0-3.77c1.87 0 3.41-0.48 4.62-1.43 1.21-0.96 2.1-2.22 2.68-3.79 0.58-1.56 0.87-3.25 0.87-5.07 0-1.83-0.29-3.53-0.87-5.1s-1.47-2.85-2.68-3.82-2.75-1.45-4.62-1.45-3.41 0.48-4.62 1.45c-1.2 0.97-2.1 2.25-2.68 3.82s-0.87 3.27-0.87 5.1c0 1.82 0.29 3.51 0.87 5.07 0.58 1.57 1.48 2.83 2.68 3.79 1.21 0.95 2.75 1.43 4.62 1.43zm18.76 13.43v-37.5h4.04v4.33h0.5c0.31-0.47 0.74-1.08 1.28-1.81 0.56-0.75 1.35-1.41 2.38-1.99 1.04-0.59 2.45-0.89 4.22-0.89 2.3 0 4.33 0.58 6.08 1.72 1.75 1.15 3.12 2.78 4.1 4.89 0.98 2.1 1.47 4.59 1.47 7.45 0 2.89-0.49 5.4-1.47 7.52-0.98 2.1-2.34 3.74-4.09 4.9-1.74 1.14-3.74 1.72-6.01 1.72-1.76 0-3.16-0.29-4.21-0.87-1.06-0.59-1.87-1.26-2.43-2.01-0.57-0.76-1.01-1.38-1.32-1.88h-0.35v14.42h-4.19zm4.12-23.87c0 2.06 0.3 3.88 0.9 5.45s1.49 2.79 2.65 3.68c1.16 0.88 2.58 1.31 4.26 1.31 1.75 0 3.21-0.46 4.38-1.38 1.19-0.94 2.07-2.19 2.67-3.77s0.9-3.35 0.9-5.29c0-1.91-0.29-3.64-0.89-5.18-0.58-1.55-1.46-2.78-2.64-3.68-1.17-0.91-2.65-1.36-4.42-1.36-1.71 0-3.14 0.43-4.3 1.29-1.16 0.85-2.04 2.05-2.63 3.59-0.59 1.53-0.88 3.31-0.88 5.34zm45.66-7.52-3.76 1.06c-0.24-0.63-0.59-1.24-1.05-1.83-0.45-0.6-1.06-1.1-1.85-1.49-0.78-0.39-1.78-0.59-3-0.59-1.67 0-3.06 0.39-4.17 1.16-1.1 0.76-1.65 1.72-1.65 2.89 0 1.04 0.38 1.87 1.14 2.47 0.75 0.6 1.94 1.11 3.55 1.51l4.05 0.99c2.43 0.6 4.25 1.5 5.45 2.72 1.19 1.21 1.79 2.76 1.79 4.67 0 1.56-0.45 2.96-1.35 4.19-0.89 1.23-2.13 2.2-3.73 2.91s-3.45 1.07-5.57 1.07c-2.79 0-5.09-0.61-6.91-1.81-1.82-1.21-2.98-2.97-3.46-5.29l3.97-1c0.38 1.47 1.1 2.57 2.15 3.3 1.07 0.74 2.46 1.11 4.18 1.11 1.95 0 3.5-0.42 4.65-1.25 1.16-0.84 1.74-1.84 1.74-3.02 0-0.94-0.33-1.74-1-2.38-0.66-0.65-1.68-1.13-3.05-1.45l-4.55-1.07c-2.49-0.59-4.33-1.51-5.5-2.75-1.16-1.25-1.74-2.82-1.74-4.7 0-1.54 0.43-2.9 1.3-4.09 0.87-1.18 2.06-2.11 3.56-2.79 1.52-0.67 3.24-1.01 5.15-1.01 2.7 0 4.82 0.59 6.36 1.78 1.55 1.18 2.65 2.74 3.3 4.69z" fill="#000"/><path d="m1066.9 2698v-36.36h12.29c2.85 0 5.18 0.51 6.99 1.54 1.83 1.02 3.18 2.4 4.05 4.14 0.88 1.74 1.32 3.68 1.32 5.82s-0.44 4.09-1.32 5.84c-0.86 1.76-2.2 3.15-4.01 4.19-1.81 1.03-4.13 1.55-6.96 1.55h-8.81v-3.91h8.67c1.95 0 3.52-0.33 4.7-1.01 1.19-0.67 2.04-1.59 2.58-2.73 0.54-1.16 0.81-2.47 0.81-3.93 0-1.45-0.27-2.76-0.81-3.9-0.54-1.15-1.4-2.05-2.59-2.7-1.2-0.67-2.79-1-4.76-1h-7.74v32.46h-4.41zm39.2 0.64c-1.73 0-3.3-0.33-4.71-0.98-1.41-0.66-2.53-1.61-3.35-2.86-0.83-1.25-1.25-2.77-1.25-4.54 0-1.56 0.31-2.83 0.93-3.8 0.61-0.98 1.43-1.75 2.46-2.31s2.17-0.97 3.41-1.24c1.26-0.29 2.52-0.51 3.79-0.68 1.65-0.21 3-0.37 4.03-0.48 1.04-0.11 1.8-0.31 2.27-0.58 0.48-0.27 0.73-0.75 0.73-1.42v-0.14c0-1.76-0.48-3.12-1.44-4.09-0.95-0.97-2.39-1.45-4.32-1.45-2 0-3.56 0.43-4.7 1.31s-1.94 1.81-2.4 2.8l-3.98-1.42c0.71-1.65 1.66-2.94 2.85-3.87s2.49-1.58 3.9-1.95c1.42-0.38 2.82-0.57 4.19-0.57 0.88 0 1.88 0.11 3.02 0.32 1.15 0.2 2.26 0.62 3.32 1.26 1.08 0.64 1.97 1.61 2.68 2.9s1.07 3.02 1.07 5.18v17.97h-4.19v-3.69h-0.22c-0.28 0.59-0.75 1.22-1.42 1.9-0.66 0.67-1.54 1.25-2.64 1.72s-2.45 0.71-4.03 0.71zm0.64-3.76c1.65 0 3.05-0.33 4.19-0.98 1.15-0.65 2.01-1.49 2.59-2.52 0.59-1.03 0.89-2.12 0.89-3.25v-3.84c-0.18 0.22-0.57 0.41-1.17 0.59-0.6 0.16-1.28 0.31-2.06 0.44-0.77 0.12-1.53 0.23-2.26 0.32-0.72 0.08-1.31 0.16-1.76 0.22-1.09 0.14-2.1 0.37-3.05 0.69-0.94 0.31-1.69 0.77-2.27 1.4-0.57 0.62-0.86 1.46-0.86 2.52 0 1.46 0.54 2.56 1.62 3.3 1.09 0.74 2.47 1.11 4.14 1.11zm31.37-24.15v3.55h-14.14v-3.55h14.14zm-10.02-6.54h4.19v26c0 1.18 0.17 2.07 0.52 2.66 0.35 0.58 0.8 0.97 1.35 1.17 0.55 0.19 1.14 0.29 1.75 0.29 0.47 0 0.85-0.03 1.14-0.07 0.3-0.06 0.53-0.11 0.71-0.15l0.85 3.77c-0.28 0.1-0.68 0.21-1.19 0.32-0.51 0.12-1.15 0.18-1.93 0.18-1.19 0-2.35-0.26-3.48-0.77s-2.06-1.28-2.81-2.32c-0.73-1.05-1.1-2.36-1.1-3.95v-27.13zm28.18 6.54v3.55h-14.13v-3.55h14.13zm-10.01-6.54h4.19v26c0 1.18 0.17 2.07 0.51 2.66 0.36 0.58 0.81 0.97 1.35 1.17 0.56 0.19 1.14 0.29 1.76 0.29 0.46 0 0.84-0.03 1.14-0.07 0.29-0.06 0.53-0.11 0.71-0.15l0.85 3.77c-0.29 0.1-0.68 0.21-1.19 0.32-0.51 0.12-1.16 0.18-1.94 0.18-1.18 0-2.34-0.26-3.48-0.77-1.12-0.51-2.06-1.28-2.8-2.32-0.74-1.05-1.1-2.36-1.1-3.95v-27.13zm27.46 34.38c-2.63 0-4.9-0.58-6.8-1.74-1.9-1.17-3.36-2.81-4.39-4.9-1.02-2.11-1.53-4.56-1.53-7.35 0-2.8 0.51-5.26 1.53-7.39 1.03-2.14 2.46-3.81 4.3-5.01s4-1.81 6.46-1.81c1.42 0 2.82 0.24 4.21 0.71 1.38 0.48 2.64 1.25 3.78 2.31 1.14 1.05 2.04 2.45 2.72 4.19 0.67 1.74 1.01 3.88 1.01 6.43v1.77h-21.02v-3.62h16.76c0-1.54-0.31-2.91-0.93-4.12-0.6-1.2-1.46-2.16-2.59-2.86-1.11-0.69-2.43-1.04-3.94-1.04-1.67 0-3.11 0.41-4.33 1.24-1.21 0.82-2.14 1.88-2.79 3.2-0.65 1.31-0.98 2.72-0.98 4.22v2.42c0 2.06 0.36 3.8 1.07 5.23 0.72 1.42 1.72 2.51 3 3.25s2.76 1.1 4.46 1.1c1.1 0 2.09-0.15 2.98-0.46 0.9-0.32 1.67-0.79 2.32-1.42 0.66-0.64 1.16-1.43 1.51-2.38l4.05 1.14c-0.42 1.37-1.14 2.58-2.15 3.62-1 1.03-2.25 1.84-3.73 2.42-1.47 0.56-3.14 0.85-4.98 0.85zm17.66-0.57v-27.27h4.05v4.12h0.28c0.5-1.35 1.4-2.45 2.7-3.29 1.31-0.84 2.77-1.26 4.41-1.26 0.3 0 0.69 0.01 1.15 0.02s0.81 0.03 1.05 0.05v4.26c-0.14-0.03-0.47-0.09-0.98-0.16-0.5-0.08-1.02-0.12-1.58-0.12-1.32 0-2.51 0.28-3.55 0.83-1.03 0.55-1.85 1.31-2.45 2.28-0.59 0.96-0.89 2.05-0.89 3.28v17.26h-4.19zm22.8-16.41v16.41h-4.19v-27.27h4.04v4.26h0.36c0.64-1.39 1.61-2.5 2.91-3.34 1.3-0.85 2.98-1.28 5.04-1.28 1.85 0 3.47 0.38 4.85 1.14 1.39 0.74 2.46 1.88 3.23 3.41 0.77 1.51 1.16 3.43 1.16 5.75v17.33h-4.19v-17.05c0-2.14-0.56-3.81-1.67-5-1.12-1.21-2.64-1.81-4.58-1.81-1.34 0-2.54 0.29-3.59 0.87-1.04 0.58-1.86 1.42-2.47 2.54-0.6 1.11-0.9 2.46-0.9 4.04zm44.37-4.75-3.76 1.06c-0.24-0.63-0.59-1.24-1.05-1.83-0.45-0.6-1.07-1.1-1.85-1.49s-1.78-0.59-3-0.59c-1.67 0-3.06 0.39-4.17 1.16-1.1 0.76-1.65 1.72-1.65 2.89 0 1.04 0.38 1.87 1.14 2.47 0.75 0.6 1.94 1.11 3.55 1.51l4.04 0.99c2.44 0.6 4.26 1.5 5.46 2.72 1.19 1.21 1.79 2.76 1.79 4.67 0 1.56-0.45 2.96-1.35 4.19-0.89 1.23-2.13 2.2-3.73 2.91s-3.46 1.07-5.57 1.07c-2.79 0-5.09-0.61-6.91-1.81-1.82-1.21-2.98-2.97-3.46-5.29l3.97-1c0.38 1.47 1.1 2.57 2.15 3.3 1.07 0.74 2.46 1.11 4.17 1.11 1.96 0 3.51-0.42 4.66-1.25 1.16-0.84 1.74-1.84 1.74-3.02 0-0.94-0.33-1.74-1-2.38-0.66-0.65-1.68-1.13-3.05-1.45l-4.55-1.07c-2.49-0.59-4.33-1.51-5.5-2.75-1.16-1.25-1.74-2.82-1.74-4.7 0-1.54 0.43-2.9 1.29-4.09 0.88-1.18 2.07-2.11 3.57-2.79 1.52-0.67 3.24-1.01 5.15-1.01 2.7 0 4.82 0.59 6.36 1.78 1.55 1.18 2.65 2.74 3.3 4.69z" fill="#000"/><path d="m803.07 2670.7c-0.213-1.8-1.077-3.2-2.592-4.19-1.515-1-3.374-1.49-5.576-1.49-1.609 0-3.018 0.26-4.225 0.78-1.196 0.52-2.131 1.23-2.806 2.15-0.663 0.91-0.994 1.94-0.994 3.1 0 0.97 0.231 1.81 0.692 2.51 0.474 0.68 1.077 1.26 1.811 1.72 0.734 0.45 1.504 0.82 2.309 1.12 0.805 0.28 1.544 0.51 2.219 0.69l3.693 0.99c0.947 0.25 2.001 0.6 3.161 1.03 1.172 0.44 2.29 1.04 3.356 1.8 1.077 0.74 1.965 1.7 2.663 2.87 0.698 1.18 1.048 2.61 1.048 4.32 0 1.96-0.515 3.74-1.545 5.32-1.018 1.59-2.51 2.85-4.475 3.79-1.953 0.93-4.326 1.4-7.12 1.4-2.604 0-4.859-0.42-6.765-1.26-1.894-0.84-3.385-2.01-4.474-3.52-1.077-1.5-1.687-3.25-1.829-5.24h4.546c0.118 1.38 0.58 2.51 1.385 3.41 0.816 0.89 1.846 1.55 3.089 1.99 1.255 0.43 2.604 0.64 4.048 0.64 1.681 0 3.19-0.27 4.528-0.81 1.338-0.56 2.397-1.33 3.178-2.31 0.782-1 1.172-2.16 1.172-3.48 0-1.21-0.337-2.19-1.012-2.95s-1.562-1.37-2.663-1.85c-1.101-0.47-2.291-0.89-3.569-1.24l-4.475-1.28c-2.84-0.82-5.09-1.98-6.747-3.5-1.657-1.51-2.486-3.49-2.486-5.94 0-2.04 0.551-3.82 1.652-5.33 1.112-1.53 2.604-2.71 4.474-3.55 1.882-0.85 3.983-1.28 6.303-1.28 2.344 0 4.428 0.42 6.25 1.26 1.823 0.83 3.268 1.96 4.333 3.41 1.077 1.44 1.645 3.08 1.704 4.92h-4.261zm23.291 0v3.55h-14.133v-3.55h14.133zm-10.014-6.54h4.19v26c0 1.18 0.172 2.07 0.515 2.66 0.355 0.58 0.805 0.97 1.35 1.17 0.556 0.19 1.142 0.29 1.757 0.29 0.462 0 0.841-0.03 1.137-0.07 0.296-0.06 0.532-0.11 0.71-0.15l0.852 3.77c-0.284 0.1-0.68 0.21-1.189 0.32-0.509 0.12-1.155 0.18-1.936 0.18-1.184 0-2.344-0.26-3.48-0.77-1.124-0.51-2.06-1.28-2.805-2.32-0.734-1.05-1.101-2.36-1.101-3.95v-27.13zm27.459 34.38c-2.628 0-4.895-0.58-6.8-1.74-1.894-1.17-3.356-2.81-4.386-4.9-1.018-2.11-1.527-4.56-1.527-7.35 0-2.8 0.509-5.26 1.527-7.39 1.03-2.14 2.462-3.81 4.297-5.01 1.846-1.2 4.001-1.81 6.463-1.81 1.42 0 2.823 0.24 4.208 0.71 1.385 0.48 2.646 1.25 3.782 2.31 1.136 1.05 2.042 2.45 2.717 4.19 0.674 1.74 1.012 3.88 1.012 6.43v1.77h-21.023v-3.62h16.761c0-1.54-0.308-2.91-0.923-4.12-0.604-1.2-1.468-2.16-2.592-2.86-1.113-0.69-2.427-1.04-3.942-1.04-1.669 0-3.113 0.41-4.333 1.24-1.207 0.82-2.136 1.88-2.787 3.2-0.651 1.31-0.977 2.72-0.977 4.22v2.42c0 2.06 0.355 3.8 1.066 5.23 0.722 1.42 1.722 2.51 3 3.25 1.279 0.74 2.764 1.1 4.457 1.1 1.101 0 2.095-0.15 2.983-0.46 0.9-0.32 1.675-0.79 2.326-1.42 0.651-0.64 1.154-1.43 1.509-2.38l4.048 1.14c-0.426 1.37-1.142 2.58-2.148 3.62-1.006 1.03-2.249 1.84-3.729 2.42-1.479 0.56-3.142 0.85-4.989 0.85zm17.667-0.57v-27.27h4.048v4.26h0.355c0.568-1.46 1.486-2.59 2.752-3.39 1.267-0.82 2.788-1.23 4.564-1.23 1.799 0 3.296 0.41 4.492 1.23 1.207 0.8 2.148 1.93 2.823 3.39h0.284c0.698-1.41 1.746-2.53 3.143-3.36 1.397-0.84 3.072-1.26 5.025-1.26 2.438 0 4.433 0.77 5.983 2.29 1.551 1.52 2.326 3.88 2.326 7.09v18.25h-4.19v-18.25c0-2.02-0.55-3.45-1.651-4.32-1.101-0.86-2.397-1.29-3.889-1.29-1.917 0-3.403 0.58-4.456 1.74-1.054 1.14-1.581 2.6-1.581 4.36v17.76h-4.261v-18.68c0-1.55-0.503-2.8-1.509-3.75s-2.303-1.43-3.889-1.43c-1.089 0-2.107 0.29-3.054 0.87-0.935 0.58-1.692 1.38-2.272 2.41-0.569 1.02-0.853 2.2-0.853 3.53v17.05h-4.19zm62.775-21.16-3.764 1.06c-0.237-0.63-0.586-1.24-1.048-1.83-0.449-0.6-1.065-1.1-1.846-1.49-0.782-0.39-1.782-0.59-3.001-0.59-1.669 0-3.06 0.39-4.173 1.16-1.1 0.76-1.651 1.72-1.651 2.89 0 1.04 0.379 1.87 1.137 2.47 0.757 0.6 1.941 1.11 3.551 1.51l4.048 0.99c2.438 0.6 4.255 1.5 5.451 2.72 1.195 1.21 1.793 2.76 1.793 4.67 0 1.56-0.45 2.96-1.349 4.19-0.888 1.23-2.131 2.2-3.729 2.91s-3.456 1.07-5.575 1.07c-2.782 0-5.084-0.61-6.907-1.81-1.823-1.21-2.977-2.97-3.462-5.29l3.977-1c0.379 1.47 1.095 2.57 2.148 3.3 1.066 0.74 2.456 1.11 4.173 1.11 1.953 0 3.504-0.42 4.652-1.25 1.16-0.84 1.74-1.84 1.74-3.02 0-0.94-0.332-1.74-0.994-2.38-0.663-0.65-1.681-1.13-3.054-1.45l-4.546-1.07c-2.497-0.59-4.332-1.51-5.504-2.75-1.16-1.25-1.74-2.82-1.74-4.7 0-1.54 0.432-2.9 1.296-4.09 0.876-1.18 2.066-2.11 3.569-2.79 1.515-0.67 3.231-1.01 5.149-1.01 2.699 0 4.818 0.59 6.357 1.78 1.55 1.18 2.651 2.74 3.302 4.69z" fill="#000"/><path d="m450.94 2698v-36.36h4.404v16.19h19.389v-16.19h4.404v36.36h-4.404v-16.26h-19.389v16.26h-4.404zm47.524 0.57c-2.463 0-4.623-0.59-6.481-1.76-1.847-1.17-3.291-2.81-4.333-4.92-1.029-2.1-1.544-4.57-1.544-7.38 0-2.85 0.515-5.33 1.544-7.44 1.042-2.12 2.486-3.77 4.333-4.94 1.858-1.17 4.018-1.76 6.481-1.76 2.462 0 4.616 0.59 6.463 1.76 1.858 1.17 3.302 2.82 4.332 4.94 1.042 2.11 1.563 4.59 1.563 7.44 0 2.81-0.521 5.28-1.563 7.38-1.03 2.11-2.474 3.75-4.332 4.92-1.847 1.17-4.001 1.76-6.463 1.76zm0-3.77c1.87 0 3.409-0.48 4.616-1.43 1.207-0.96 2.101-2.22 2.681-3.79 0.58-1.56 0.87-3.25 0.87-5.07 0-1.83-0.29-3.53-0.87-5.1s-1.474-2.85-2.681-3.82-2.746-1.45-4.616-1.45c-1.871 0-3.41 0.48-4.617 1.45s-2.101 2.25-2.681 3.82-0.87 3.27-0.87 5.1c0 1.82 0.29 3.51 0.87 5.07 0.58 1.57 1.474 2.83 2.681 3.79 1.207 0.95 2.746 1.43 4.617 1.43zm30.615-24.07v3.55h-14.134v-3.55h14.134zm-10.014-6.54h4.19v26c0 1.18 0.172 2.07 0.515 2.66 0.355 0.58 0.805 0.97 1.349 1.17 0.557 0.19 1.143 0.29 1.758 0.29 0.462 0 0.841-0.03 1.136-0.07 0.296-0.06 0.533-0.11 0.711-0.15l0.852 3.77c-0.284 0.1-0.681 0.21-1.19 0.32-0.509 0.12-1.154 0.18-1.935 0.18-1.184 0-2.344-0.26-3.48-0.77-1.125-0.51-2.06-1.28-2.806-2.32-0.733-1.05-1.1-2.36-1.1-3.95v-27.13zm27.104 34.38c-2.557 0-4.759-0.61-6.605-1.81-1.847-1.21-3.268-2.87-4.262-4.99s-1.491-4.54-1.491-7.26c0-2.77 0.509-5.22 1.527-7.34 1.03-2.13 2.462-3.79 4.297-4.99 1.846-1.2 4.001-1.81 6.463-1.81 1.917 0 3.645 0.36 5.184 1.07s2.8 1.7 3.782 2.98c0.983 1.28 1.592 2.77 1.829 4.47h-4.19c-0.32-1.24-1.03-2.34-2.131-3.3-1.089-0.97-2.557-1.45-4.403-1.45-1.634 0-3.066 0.42-4.297 1.27-1.219 0.85-2.172 2.03-2.859 3.57-0.675 1.53-1.012 3.32-1.012 5.38 0 2.11 0.331 3.95 0.994 5.51 0.675 1.56 1.622 2.77 2.841 3.64 1.231 0.86 2.675 1.29 4.333 1.29 1.089 0 2.077-0.19 2.965-0.56 0.888-0.38 1.639-0.93 2.255-1.64 0.615-0.71 1.053-1.56 1.314-2.55h4.19c-0.237 1.61-0.823 3.06-1.758 4.35-0.923 1.27-2.148 2.29-3.675 3.05-1.515 0.75-3.279 1.12-5.291 1.12zm34.037-11.72v-16.12h4.191v27.27h-4.191v-4.62h-0.284c-0.639 1.39-1.633 2.57-2.983 3.54-1.349 0.96-3.054 1.44-5.113 1.44-1.705 0-3.22-0.38-4.546-1.12-1.326-0.76-2.367-1.9-3.125-3.41-0.757-1.53-1.136-3.45-1.136-5.77v-17.33h4.19v17.04c0 1.99 0.556 3.58 1.669 4.76 1.125 1.18 2.557 1.78 4.297 1.78 1.042 0 2.101-0.27 3.178-0.8 1.089-0.53 2.001-1.35 2.735-2.45 0.745-1.1 1.118-2.51 1.118-4.21zm23.3 11.72c-2.628 0-4.894-0.58-6.8-1.74-1.894-1.17-3.356-2.81-4.386-4.9-1.018-2.11-1.527-4.56-1.527-7.35 0-2.8 0.509-5.26 1.527-7.39 1.03-2.14 2.462-3.81 4.297-5.01 1.847-1.2 4.001-1.81 6.463-1.81 1.421 0 2.823 0.24 4.208 0.71 1.385 0.48 2.646 1.25 3.782 2.31 1.136 1.05 2.042 2.45 2.717 4.19 0.674 1.74 1.012 3.88 1.012 6.43v1.77h-21.023v-3.62h16.761c0-1.54-0.307-2.91-0.923-4.12-0.604-1.2-1.468-2.16-2.592-2.86-1.113-0.69-2.427-1.04-3.942-1.04-1.669 0-3.113 0.41-4.332 1.24-1.208 0.82-2.137 1.88-2.788 3.2-0.651 1.31-0.977 2.72-0.977 4.22v2.42c0 2.06 0.356 3.8 1.066 5.23 0.722 1.42 1.722 2.51 3.001 3.25 1.278 0.74 2.763 1.1 4.456 1.1 1.101 0 2.095-0.15 2.983-0.46 0.9-0.32 1.675-0.79 2.326-1.42 0.651-0.64 1.154-1.43 1.509-2.38l4.049 1.14c-0.426 1.37-1.143 2.58-2.149 3.62-1.006 1.03-2.249 1.84-3.728 2.42-1.48 0.56-3.143 0.85-4.99 0.85zm36.985-21.73-3.764 1.06c-0.237-0.63-0.586-1.24-1.048-1.83-0.449-0.6-1.065-1.1-1.846-1.49s-1.782-0.59-3.001-0.59c-1.669 0-3.06 0.39-4.172 1.16-1.101 0.76-1.652 1.72-1.652 2.89 0 1.04 0.379 1.87 1.137 2.47 0.757 0.6 1.941 1.11 3.551 1.51l4.048 0.99c2.439 0.6 4.256 1.5 5.451 2.72 1.196 1.21 1.793 2.76 1.793 4.67 0 1.56-0.449 2.96-1.349 4.19-0.888 1.23-2.131 2.2-3.729 2.91s-3.456 1.07-5.575 1.07c-2.782 0-5.084-0.61-6.907-1.81-1.823-1.21-2.977-2.97-3.462-5.29l3.977-1c0.379 1.47 1.095 2.57 2.148 3.3 1.066 0.74 2.457 1.11 4.173 1.11 1.953 0 3.504-0.42 4.652-1.25 1.16-0.84 1.74-1.84 1.74-3.02 0-0.94-0.331-1.74-0.994-2.38-0.663-0.65-1.681-1.13-3.054-1.45l-4.546-1.07c-2.497-0.59-4.332-1.51-5.504-2.75-1.16-1.25-1.74-2.82-1.74-4.7 0-1.54 0.432-2.9 1.296-4.09 0.876-1.18 2.066-2.11 3.569-2.79 1.515-0.67 3.232-1.01 5.149-1.01 2.699 0 4.818 0.59 6.357 1.78 1.55 1.18 2.651 2.74 3.302 4.69z" fill="#000"/><circle cx="200" cy="2680" r="122.5" fill="#D9D9D9"/><circle cx="200" cy="2680" r="122.5" stroke="#000" stroke-width="5"/><circle cx="200" cy="2680" r="122.5" stroke="#000" stroke-width="5"/><circle cx="200" cy="2680" r="122.5" stroke="#000" stroke-width="5"/><path d="m186.4 2673h-4.403c-0.261-1.27-0.716-2.38-1.367-3.34-0.64-0.96-1.421-1.76-2.344-2.41-0.912-0.67-1.924-1.16-3.036-1.49-1.113-0.34-2.273-0.5-3.481-0.5-2.201 0-4.196 0.55-5.983 1.67-1.776 1.11-3.19 2.75-4.244 4.92-1.041 2.16-1.562 4.82-1.562 7.97s0.521 5.8 1.562 7.97c1.054 2.17 2.468 3.81 4.244 4.92 1.787 1.11 3.782 1.67 5.983 1.67 1.208 0 2.368-0.17 3.481-0.5 1.112-0.33 2.124-0.82 3.036-1.47 0.923-0.67 1.704-1.48 2.344-2.44 0.651-0.97 1.106-2.08 1.367-3.33h4.403c-0.331 1.85-0.935 3.52-1.811 4.99-0.876 1.46-1.965 2.71-3.267 3.74-1.302 1.02-2.764 1.8-4.386 2.33-1.609 0.53-3.332 0.8-5.167 0.8-3.101 0-5.859-0.76-8.274-2.28-2.414-1.51-4.314-3.67-5.699-6.46s-2.078-6.11-2.078-9.94c0-3.84 0.693-7.15 2.078-9.94 1.385-2.8 3.285-4.95 5.699-6.47 2.415-1.51 5.173-2.27 8.274-2.27 1.835 0 3.558 0.27 5.167 0.8 1.622 0.53 3.084 1.31 4.386 2.34 1.302 1.02 2.391 2.26 3.267 3.73 0.876 1.46 1.48 3.12 1.811 4.99zm23.735 13.85v-16.12h4.19v27.27h-4.19v-4.62h-0.284c-0.639 1.39-1.634 2.57-2.983 3.54-1.349 0.96-3.054 1.44-5.114 1.44-1.704 0-3.219-0.38-4.545-1.12-1.326-0.76-2.368-1.9-3.125-3.41-0.758-1.53-1.136-3.45-1.136-5.77v-17.33h4.19v17.04c0 1.99 0.556 3.58 1.669 4.76 1.124 1.18 2.557 1.78 4.297 1.78 1.041 0 2.101-0.27 3.178-0.8 1.089-0.53 2.001-1.35 2.734-2.45 0.746-1.1 1.119-2.51 1.119-4.21zm23.3 11.72c-2.628 0-4.895-0.58-6.8-1.74-1.894-1.17-3.356-2.81-4.386-4.9-1.018-2.11-1.527-4.56-1.527-7.35 0-2.8 0.509-5.26 1.527-7.39 1.03-2.14 2.462-3.81 4.297-5.01 1.846-1.2 4.001-1.81 6.463-1.81 1.42 0 2.823 0.24 4.208 0.71 1.385 0.48 2.646 1.25 3.782 2.31 1.136 1.05 2.042 2.45 2.716 4.19 0.675 1.74 1.013 3.88 1.013 6.43v1.77h-21.023v-3.62h16.761c0-1.54-0.308-2.91-0.923-4.12-0.604-1.2-1.468-2.16-2.592-2.86-1.113-0.69-2.427-1.04-3.942-1.04-1.669 0-3.113 0.41-4.333 1.24-1.207 0.82-2.136 1.88-2.787 3.2-0.651 1.31-0.977 2.72-0.977 4.22v2.42c0 2.06 0.355 3.8 1.066 5.23 0.722 1.42 1.722 2.51 3 3.25 1.279 0.74 2.764 1.1 4.457 1.1 1.101 0 2.095-0.15 2.983-0.46 0.9-0.32 1.675-0.79 2.326-1.42 0.651-0.64 1.154-1.43 1.509-2.38l4.048 1.14c-0.426 1.37-1.142 2.58-2.148 3.62-1.006 1.03-2.249 1.84-3.729 2.42-1.479 0.56-3.142 0.85-4.989 0.85z" fill="#000"/><circle cx="1469.5" cy="2429.5" r="85" fill="#D9D9D9" stroke="#000" stroke-dasharray="10 10" stroke-linecap="round" stroke-width="5"/><rect x="885.5" y="2382.5" width="245" height="95" fill="#D9D9D9" stroke="#000" stroke-width="5"/><circle cx="544.5" cy="2429.5" r="85" fill="#D9D9D9" stroke="#000" stroke-dasharray="10 10" stroke-linecap="round" stroke-width="5"/><path d="m534.33 2411.6v36.36h-4.404v-31.75h-0.213l-8.878 5.9v-4.48l9.091-6.03h4.404zm22.532 36.86c-1.492-0.03-2.983-0.31-4.475-0.86-1.491-0.54-2.853-1.46-4.084-2.75-1.231-1.3-2.219-3.06-2.965-5.27-0.746-2.23-1.118-5.02-1.118-8.38 0-3.22 0.301-6.07 0.905-8.56 0.604-2.5 1.48-4.6 2.628-6.3 1.148-1.72 2.533-3.02 4.155-3.91 1.633-0.89 3.474-1.33 5.522-1.33 2.036 0 3.847 0.41 5.433 1.22 1.598 0.81 2.9 1.93 3.906 3.38 1.006 1.44 1.657 3.11 1.953 4.99h-4.332c-0.402-1.64-1.184-2.99-2.344-4.07s-2.699-1.61-4.616-1.61c-2.817 0-5.037 1.22-6.659 3.67-1.609 2.45-2.42 5.89-2.432 10.32h0.284c0.663-1.01 1.45-1.87 2.361-2.58 0.924-0.72 1.942-1.28 3.054-1.67 1.113-0.39 2.291-0.58 3.534-0.58 2.083 0 3.989 0.52 5.717 1.56 1.728 1.03 3.113 2.46 4.155 4.28 1.042 1.81 1.562 3.89 1.562 6.23 0 2.25-0.503 4.31-1.509 6.18-1.006 1.86-2.42 3.34-4.243 4.44-1.811 1.09-3.942 1.62-6.392 1.6zm0-3.91c1.491 0 2.829-0.37 4.012-1.12 1.196-0.74 2.137-1.74 2.824-3 0.698-1.25 1.047-2.65 1.047-4.19 0-1.5-0.337-2.87-1.012-4.1-0.663-1.24-1.58-2.23-2.752-2.97-1.16-0.73-2.486-1.1-3.977-1.1-1.125 0-2.172 0.23-3.143 0.68-0.971 0.44-1.823 1.04-2.557 1.81-0.722 0.77-1.29 1.65-1.704 2.65-0.415 0.98-0.622 2.01-0.622 3.1 0 1.45 0.337 2.8 1.012 4.05 0.687 1.26 1.622 2.27 2.806 3.04 1.195 0.77 2.55 1.15 4.066 1.15z" fill="#000"/><path d="m998.64 2411.6v36.36h-4.403v-31.75h-0.214l-8.877 5.9v-4.48l9.091-6.03h4.403zm11.595 36.36 16.26-32.17v-0.29h-18.75v-3.9h23.3v4.12l-16.19 32.24h-4.62z" fill="#000"/><path d="m1459.5 2411.6v36.36h-4.4v-31.75h-0.21l-8.88 5.9v-4.48l9.09-6.03h4.4zm22.11 36.86c-2.44 0-4.6-0.43-6.47-1.3-1.85-0.87-3.3-2.08-4.35-3.6-1.04-1.54-1.55-3.29-1.54-5.26-0.01-1.54 0.29-2.96 0.91-4.26 0.61-1.31 1.45-2.41 2.52-3.29s2.28-1.45 3.6-1.68v-0.22c-1.74-0.44-3.12-1.42-4.15-2.92-1.03-1.52-1.54-3.24-1.53-5.17-0.01-1.85 0.45-3.5 1.4-4.96 0.95-1.45 2.25-2.6 3.91-3.44 1.67-0.84 3.57-1.26 5.7-1.26 2.1 0 3.99 0.42 5.64 1.26 1.66 0.84 2.96 1.99 3.91 3.44 0.96 1.46 1.44 3.11 1.46 4.96-0.02 1.93-0.54 3.65-1.58 5.17-1.03 1.5-2.4 2.48-4.11 2.92v0.22c1.32 0.23 2.5 0.8 3.56 1.68 1.05 0.88 1.89 1.98 2.52 3.29 0.62 1.3 0.94 2.72 0.96 4.26-0.02 1.97-0.55 3.72-1.6 5.26-1.04 1.52-2.49 2.73-4.35 3.6-1.85 0.87-3.99 1.3-6.41 1.3zm0-3.91c1.64 0 3.06-0.27 4.26-0.8 1.19-0.53 2.12-1.28 2.77-2.25s0.98-2.11 0.99-3.41c-0.01-1.38-0.36-2.59-1.06-3.64-0.7-1.06-1.65-1.88-2.86-2.49-1.2-0.6-2.56-0.9-4.1-0.9-1.55 0-2.94 0.3-4.16 0.9-1.2 0.61-2.16 1.43-2.86 2.49-0.68 1.05-1.02 2.26-1.01 3.64-0.01 1.3 0.3 2.44 0.94 3.41 0.65 0.97 1.58 1.72 2.79 2.25s2.64 0.8 4.3 0.8zm0-17.26c1.3 0 2.45-0.26 3.46-0.78 1.02-0.52 1.82-1.25 2.4-2.18 0.58-0.94 0.87-2.03 0.88-3.29-0.01-1.23-0.3-2.3-0.87-3.21-0.56-0.92-1.35-1.63-2.36-2.13-1-0.51-2.17-0.77-3.51-0.77-1.36 0-2.55 0.26-3.57 0.77-1.02 0.5-1.81 1.21-2.36 2.13-0.56 0.91-0.83 1.98-0.82 3.21-0.01 1.26 0.27 2.35 0.84 3.29 0.58 0.93 1.37 1.66 2.39 2.18s2.19 0.78 3.52 0.78z" fill="#000"/><rect x="1847.5" y="2244.5" width="115" height="85" fill="#D9D9D9" stroke="#000" stroke-width="5"/><rect x="1667.5" y="2244.5" width="115" height="85" fill="#D9D9D9" stroke="#000" stroke-width="5"/><path d="m1894.7 2268.6v36.36h-4.41v-31.75h-0.21l-8.88 5.9v-4.48l9.09-6.03h4.41zm21.82 36.86c-2.08 0-3.96-0.42-5.63-1.25-1.67-0.82-3.01-1.96-4.01-3.4-1.01-1.45-1.56-3.09-1.65-4.94h4.26c0.16 1.64 0.91 3.01 2.23 4.08 1.34 1.07 2.94 1.6 4.8 1.6 1.49 0 2.82-0.35 3.98-1.05 1.17-0.7 2.09-1.65 2.75-2.87 0.67-1.23 1.01-2.63 1.01-4.18 0-1.58-0.35-3-1.05-4.24-0.68-1.25-1.63-2.24-2.84-2.96-1.21-0.73-2.58-1.09-4.14-1.11-1.11-0.01-2.25 0.16-3.42 0.52-1.17 0.34-2.14 0.79-2.9 1.33l-4.12-0.5 2.21-17.89h18.89v3.9h-15.2l-1.28 10.73h0.21c0.75-0.59 1.68-1.09 2.81-1.48 1.12-0.39 2.3-0.58 3.52-0.58 2.22 0 4.2 0.53 5.94 1.6 1.76 1.05 3.13 2.49 4.12 4.33 1.01 1.83 1.51 3.93 1.51 6.28 0 2.32-0.52 4.39-1.56 6.22-1.03 1.81-2.45 3.24-4.26 4.29s-3.87 1.57-6.18 1.57z" fill="#000"/><path d="m1713.9 2268.6v36.36h-4.41v-31.75h-0.21l-8.88 5.9v-4.48l9.09-6.03h4.41zm9.6 28.9v-3.62l15.98-25.28h2.63v5.61h-1.77l-12.08 19.1v0.29h21.52v3.9h-26.28zm17.12 7.46v-36.36h4.19v36.36h-4.19z" fill="#000"/><rect x="77.5" y="2244.5" width="245" height="95" fill="#D9D9D9" stroke="#000" stroke-width="5"/><path d="m169.55 2282.7c-0.213-1.8-1.077-3.2-2.592-4.19-1.515-1-3.373-1.49-5.575-1.49-1.61 0-3.019 0.26-4.226 0.78-1.196 0.52-2.131 1.23-2.805 2.15-0.663 0.91-0.995 1.94-0.995 3.1 0 0.97 0.231 1.81 0.693 2.51 0.473 0.68 1.077 1.26 1.811 1.72 0.734 0.45 1.503 0.82 2.308 1.12 0.805 0.28 1.545 0.51 2.22 0.69l3.693 0.99c0.947 0.25 2 0.6 3.16 1.03 1.172 0.44 2.291 1.04 3.356 1.8 1.077 0.74 1.965 1.7 2.663 2.87 0.699 1.18 1.048 2.61 1.048 4.32 0 1.96-0.515 3.74-1.545 5.32-1.018 1.59-2.509 2.85-4.474 3.79-1.953 0.93-4.327 1.4-7.12 1.4-2.604 0-4.859-0.42-6.765-1.26-1.894-0.84-3.386-2.01-4.475-3.52-1.077-1.5-1.686-3.25-1.828-5.24h4.545c0.118 1.38 0.58 2.51 1.385 3.41 0.817 0.89 1.847 1.55 3.089 1.99 1.255 0.43 2.605 0.64 4.049 0.64 1.681 0 3.19-0.27 4.527-0.81 1.338-0.56 2.397-1.33 3.179-2.31 0.781-1 1.172-2.16 1.172-3.48 0-1.21-0.338-2.19-1.012-2.95-0.675-0.76-1.563-1.37-2.664-1.85-1.101-0.47-2.29-0.89-3.569-1.24l-4.474-1.28c-2.841-0.82-5.09-1.98-6.747-3.5-1.658-1.51-2.486-3.49-2.486-5.94 0-2.04 0.55-3.82 1.651-5.33 1.113-1.53 2.604-2.71 4.475-3.55 1.882-0.85 3.983-1.28 6.303-1.28 2.344 0 4.427 0.42 6.25 1.26 1.823 0.83 3.267 1.96 4.332 3.41 1.077 1.44 1.646 3.08 1.705 4.92h-4.262zm15.621 10.86v16.41h-4.19v-36.36h4.19v13.35h0.355c0.639-1.41 1.598-2.53 2.877-3.36 1.29-0.84 3.006-1.26 5.149-1.26 1.858 0 3.486 0.38 4.883 1.12 1.396 0.73 2.479 1.87 3.249 3.39 0.781 1.52 1.172 3.45 1.172 5.79v17.33h-4.191v-17.05c0-2.16-0.562-3.84-1.686-5.02-1.113-1.2-2.658-1.79-4.635-1.79-1.373 0-2.604 0.29-3.693 0.87-1.077 0.58-1.929 1.42-2.557 2.54-0.615 1.11-0.923 2.46-0.923 4.04zm25.351 16.41v-27.27h4.19v27.27h-4.19zm2.13-31.82c-0.816 0-1.521-0.28-2.113-0.83-0.58-0.56-0.87-1.23-0.87-2.01s0.29-1.45 0.87-2.01c0.592-0.55 1.297-0.83 2.113-0.83 0.817 0 1.516 0.28 2.096 0.83 0.591 0.56 0.887 1.23 0.887 2.01s-0.296 1.45-0.887 2.01c-0.58 0.55-1.279 0.83-2.096 0.83zm21.88 4.55v3.55h-14.702v-3.55h14.702zm-10.298 27.27v-31.04c0-1.56 0.366-2.86 1.1-3.9s1.687-1.83 2.859-2.35 2.409-0.78 3.711-0.78c1.03 0 1.87 0.08 2.521 0.25s1.137 0.32 1.456 0.46l-1.207 3.62c-0.213-0.07-0.509-0.16-0.888-0.26-0.367-0.11-0.852-0.16-1.456-0.16-1.385 0-2.385 0.35-3.001 1.05-0.603 0.69-0.905 1.72-0.905 3.07v30.04h-4.19zm28.031-27.27v3.55h-14.133v-3.55h14.133zm-10.014-6.54h4.19v26c0 1.18 0.172 2.07 0.515 2.66 0.355 0.58 0.805 0.97 1.35 1.17 0.556 0.19 1.142 0.29 1.758 0.29 0.461 0 0.84-0.03 1.136-0.07 0.296-0.06 0.533-0.11 0.71-0.15l0.852 3.77c-0.284 0.1-0.68 0.21-1.189 0.32-0.509 0.12-1.154 0.18-1.936 0.18-1.183 0-2.343-0.26-3.48-0.77-1.124-0.51-2.059-1.28-2.805-2.32-0.734-1.05-1.101-2.36-1.101-3.95v-27.13z" fill="#000"/><circle transform="matrix(-1 0 0 1 1815 594)" cx="807.5" cy="807.5" r="805" fill="#D9D9D9" stroke="#000" stroke-width="5"/><path d="m997.29 1383.1v36.36h-4.403v-31.75h-0.213l-8.878 5.9v-4.48l9.091-6.03h4.403zm10.46 36.36v-3.2l12-13.14c1.41-1.53 2.57-2.87 3.48-4.01 0.91-1.15 1.59-2.22 2.03-3.23 0.45-1.02 0.67-2.08 0.67-3.2 0-1.27-0.31-2.38-0.92-3.32-0.61-0.93-1.44-1.65-2.49-2.16s-2.24-0.77-3.55-0.77c-1.4 0-2.62 0.29-3.66 0.87-1.03 0.57-1.83 1.37-2.39 2.4s-0.84 2.24-0.84 3.62h-4.19c0-2.13 0.49-4 1.47-5.61 0.99-1.61 2.32-2.86 4.02-3.76s3.61-1.35 5.73-1.35c2.13 0 4.02 0.45 5.67 1.35 1.64 0.9 2.93 2.11 3.87 3.64 0.93 1.53 1.4 3.22 1.4 5.09 0 1.34-0.24 2.65-0.73 3.93-0.47 1.27-1.3 2.68-2.48 4.24-1.18 1.55-2.8 3.45-4.89 5.68l-8.16 8.74v0.28h16.9v3.91h-22.94z" fill="#000"/><circle cx="1890" cy="835" r="72.5" fill="#D9D9D9" stroke="#000" stroke-width="5"/><circle cx="1740" cy="685" r="72.5" fill="#D9D9D9" stroke="#000" stroke-width="5"/><path d="m1883.3 816.64v36.364h-4.41v-31.747h-0.21l-8.88 5.895v-4.475l9.09-6.037h4.41zm23.24 0v36.364h-4.41v-31.747h-0.21l-8.88 5.895v-4.475l9.09-6.037h4.41z" fill="#000"/><path d="m1727.3 666.64v36.364h-4.4v-31.747h-0.21l-8.88 5.895v-4.475l9.09-6.037h4.4zm22.32 36.861c-2.67 0-4.95-0.728-6.83-2.184-1.89-1.468-3.33-3.592-4.32-6.374-0.99-2.794-1.49-6.167-1.49-10.121 0-3.93 0.5-7.286 1.49-10.067 1.01-2.794 2.45-4.925 4.33-6.392 1.9-1.48 4.17-2.22 6.82-2.22s4.92 0.74 6.8 2.22c1.9 1.467 3.34 3.598 4.33 6.392 1.01 2.781 1.51 6.137 1.51 10.067 0 3.954-0.49 7.327-1.49 10.121-0.99 2.782-2.43 4.906-4.31 6.374-1.89 1.456-4.16 2.184-6.84 2.184zm0-3.906c2.65 0 4.71-1.279 6.18-3.835 1.47-2.557 2.2-6.203 2.2-10.938 0-3.148-0.34-5.83-1.01-8.043-0.66-2.214-1.62-3.9-2.88-5.061-1.24-1.16-2.74-1.74-4.49-1.74-2.63 0-4.68 1.297-6.16 3.889-1.48 2.58-2.22 6.232-2.22 10.955 0 3.149 0.33 5.824 0.99 8.026 0.67 2.201 1.62 3.876 2.86 5.025 1.26 1.148 2.77 1.722 4.53 1.722z" fill="#000"/><circle cx="125" cy="834" r="72.5" fill="#D9D9D9" stroke="#000" stroke-width="5"/><circle cx="275" cy="684" r="72.5" fill="#D9D9D9" stroke="#000" stroke-width="5"/><path d="m124.74 816.14c1.492 0.012 2.983 0.296 4.475 0.852 1.491 0.557 2.853 1.48 4.084 2.77 1.231 1.279 2.219 3.025 2.965 5.238 0.746 2.214 1.118 4.99 1.118 8.328 0 3.231-0.307 6.102-0.923 8.611-0.604 2.498-1.48 4.605-2.628 6.321-1.136 1.717-2.521 3.019-4.155 3.906-1.621 0.888-3.456 1.332-5.504 1.332-2.036 0-3.853-0.402-5.451-1.207-1.586-0.817-2.888-1.947-3.906-3.392-1.006-1.456-1.651-3.142-1.935-5.06h4.332c0.391 1.669 1.166 3.048 2.326 4.137 1.172 1.077 2.717 1.616 4.634 1.616 2.806 0 5.019-1.225 6.641-3.676 1.633-2.45 2.45-5.912 2.45-10.387h-0.284c-0.663 0.995-1.45 1.853-2.362 2.575-0.911 0.722-1.923 1.278-3.036 1.669-1.112 0.391-2.296 0.586-3.551 0.586-2.083 0-3.995-0.515-5.735-1.545-1.728-1.041-3.113-2.468-4.155-4.279-1.03-1.823-1.545-3.906-1.545-6.25 0-2.225 0.498-4.261 1.492-6.108 1.006-1.858 2.415-3.338 4.226-4.439 1.823-1.101 3.965-1.633 6.427-1.598zm0 3.906c-1.491 0-2.835 0.373-4.03 1.119-1.184 0.734-2.125 1.728-2.823 2.983-0.687 1.243-1.03 2.622-1.03 4.137s0.331 2.894 0.994 4.137c0.675 1.231 1.592 2.214 2.752 2.948 1.172 0.722 2.504 1.083 3.995 1.083 1.125 0 2.172-0.219 3.143-0.657 0.971-0.45 1.817-1.06 2.539-1.829 0.734-0.781 1.308-1.663 1.722-2.646 0.415-0.994 0.622-2.03 0.622-3.107 0-1.42-0.343-2.752-1.03-3.995-0.675-1.243-1.61-2.249-2.805-3.018-1.184-0.77-2.534-1.155-4.049-1.155z" fill="#000"/><path d="m275.01 702.5c-2.439 0-4.593-0.432-6.463-1.296-1.859-0.876-3.309-2.077-4.351-3.604-1.041-1.539-1.556-3.291-1.544-5.256-0.012-1.539 0.29-2.959 0.905-4.261 0.616-1.314 1.456-2.409 2.522-3.285 1.077-0.888 2.278-1.45 3.604-1.687v-0.213c-1.74-0.45-3.125-1.426-4.155-2.93-1.03-1.515-1.539-3.237-1.527-5.167-0.012-1.846 0.456-3.498 1.403-4.954s2.249-2.604 3.906-3.444c1.669-0.841 3.569-1.261 5.7-1.261 2.107 0 3.989 0.42 5.646 1.261 1.657 0.84 2.959 1.988 3.906 3.444 0.959 1.456 1.444 3.108 1.456 4.954-0.012 1.93-0.538 3.652-1.58 5.167-1.03 1.504-2.397 2.48-4.102 2.93v0.213c1.314 0.237 2.498 0.799 3.551 1.687 1.054 0.876 1.894 1.971 2.522 3.285 0.627 1.302 0.947 2.722 0.959 4.261-0.012 1.965-0.545 3.717-1.598 5.256-1.042 1.527-2.492 2.728-4.351 3.604-1.846 0.864-3.983 1.296-6.409 1.296zm0-3.906c1.645 0 3.065-0.266 4.261-0.799s2.119-1.284 2.77-2.255 0.982-2.107 0.994-3.409c-0.012-1.373-0.367-2.587-1.065-3.64-0.699-1.054-1.651-1.882-2.859-2.486-1.195-0.604-2.563-0.905-4.101-0.905-1.551 0-2.936 0.301-4.155 0.905-1.208 0.604-2.16 1.432-2.859 2.486-0.686 1.053-1.024 2.267-1.012 3.64-0.012 1.302 0.302 2.438 0.941 3.409 0.651 0.971 1.58 1.722 2.788 2.255 1.207 0.533 2.639 0.799 4.297 0.799zm0-17.259c1.302 0 2.456-0.26 3.462-0.781 1.018-0.521 1.817-1.249 2.397-2.184s0.876-2.03 0.888-3.285c-0.012-1.231-0.302-2.302-0.87-3.213-0.568-0.924-1.356-1.634-2.362-2.131-1.006-0.509-2.178-0.764-3.515-0.764-1.362 0-2.551 0.255-3.569 0.764-1.018 0.497-1.805 1.207-2.362 2.131-0.556 0.911-0.828 1.982-0.817 3.213-0.011 1.255 0.267 2.35 0.835 3.285 0.58 0.935 1.379 1.663 2.397 2.184s2.19 0.781 3.516 0.781z" fill="#000"/><circle cx="1737.5" cy="260.5" r="135" fill="#D9D9D9" stroke="#000" stroke-dasharray="10 10" stroke-linecap="round" stroke-width="5"/><rect x="1590.5" y="15.5" width="115" height="85" fill="#D9D9D9" stroke="#000" stroke-width="5"/><rect x="1770.5" y="15.5" width="115" height="85" fill="#D9D9D9" stroke="#000" stroke-width="5"/><rect x="1590.5" y="420.5" width="115" height="85" fill="#D9D9D9" stroke="#000" stroke-width="5"/><rect x="1770.5" y="420.5" width="115" height="85" fill="#D9D9D9" stroke="#000" stroke-width="5"/><path d="m1818.6 481 16.26-32.173v-0.284h-18.75v-3.907h23.3v4.12l-16.2 32.244h-4.61z" fill="#000"/><path d="m1648.2 481.5c-1.49-0.024-2.99-0.308-4.48-0.852-1.49-0.545-2.85-1.462-4.08-2.752-1.23-1.302-2.22-3.06-2.97-5.274-0.74-2.225-1.11-5.019-1.11-8.38 0-3.22 0.3-6.073 0.9-8.559 0.6-2.497 1.48-4.598 2.63-6.303 1.15-1.716 2.53-3.018 4.15-3.906 1.64-0.888 3.48-1.332 5.53-1.332 2.03 0 3.84 0.409 5.43 1.225 1.6 0.805 2.9 1.93 3.91 3.374 1 1.444 1.65 3.107 1.95 4.989h-4.33c-0.41-1.633-1.19-2.989-2.35-4.066s-2.7-1.616-4.61-1.616c-2.82 0-5.04 1.226-6.66 3.676-1.61 2.45-2.42 5.889-2.44 10.316h0.29c0.66-1.006 1.45-1.864 2.36-2.575 0.92-0.722 1.94-1.278 3.05-1.669 1.12-0.39 2.29-0.586 3.54-0.586 2.08 0 3.99 0.521 5.72 1.563 1.72 1.03 3.11 2.456 4.15 4.279 1.04 1.811 1.56 3.889 1.56 6.232 0 2.249-0.5 4.309-1.51 6.179-1 1.859-2.42 3.338-4.24 4.439-1.81 1.089-3.94 1.622-6.39 1.598zm0-3.906c1.49 0 2.83-0.373 4.01-1.119 1.2-0.745 2.14-1.746 2.82-3 0.7-1.255 1.05-2.652 1.05-4.191 0-1.503-0.34-2.87-1.01-4.101-0.66-1.243-1.58-2.232-2.75-2.966-1.16-0.733-2.49-1.1-3.98-1.1-1.12 0-2.17 0.225-3.14 0.674-0.97 0.438-1.83 1.042-2.56 1.811-0.72 0.77-1.29 1.652-1.7 2.646-0.42 0.983-0.63 2.018-0.63 3.107 0 1.444 0.34 2.794 1.02 4.049 0.68 1.254 1.62 2.266 2.8 3.036 1.2 0.769 2.55 1.154 4.07 1.154z" fill="#000"/><path d="m1737.9 279.5c-2.09 0-3.96-0.414-5.63-1.243-1.67-0.828-3.01-1.965-4.01-3.409-1.01-1.444-1.56-3.089-1.65-4.936h4.26c0.16 1.645 0.91 3.007 2.23 4.084 1.34 1.065 2.94 1.598 4.8 1.598 1.49 0 2.82-0.349 3.98-1.048 1.17-0.698 2.08-1.657 2.75-2.876 0.67-1.231 1.01-2.622 1.01-4.173 0-1.586-0.35-3-1.05-4.243-0.68-1.255-1.63-2.243-2.84-2.965-1.21-0.723-2.59-1.09-4.14-1.101-1.11-0.012-2.25 0.159-3.42 0.515-1.17 0.343-2.14 0.787-2.9 1.331l-4.12-0.497 2.21-17.898h18.89v3.907h-15.2l-1.28 10.724h0.21c0.75-0.592 1.68-1.083 2.81-1.474 1.12-0.39 2.29-0.586 3.51-0.586 2.23 0 4.21 0.533 5.95 1.598 1.75 1.054 3.13 2.498 4.12 4.333 1.01 1.835 1.51 3.93 1.51 6.285 0 2.32-0.52 4.392-1.56 6.215-1.03 1.811-2.45 3.243-4.26 4.297-1.81 1.041-3.87 1.562-6.18 1.562z" fill="#000"/><path d="m1814.9 68.543v-3.6221l15.98-25.284h2.63v5.6108h-1.78l-12.07 19.105v0.2841h21.52v3.9062h-26.28zm17.12 7.4574v-36.364h4.19v36.364h-4.19z" fill="#000"/><path d="m1638.5 39.636 9.38 15.128h0.28l9.38-15.128h5.18l-11.43 18.182 11.43 18.182h-5.18l-9.38-14.844h-0.28l-9.38 14.844h-5.18l11.72-18.182-11.72-18.182h5.18z" fill="#000"/><circle cx="1099.5" cy="358.5" r="85" fill="#D9D9D9" stroke="#000" stroke-width="5"/><circle cx="799.5" cy="358.5" r="85" fill="#D9D9D9" stroke="#000" stroke-width="5"/><circle cx="499.5" cy="358.5" r="85" fill="#D9D9D9" stroke="#000" stroke-width="5"/><circle cx="199.5" cy="358.5" r="85" fill="#D9D9D9" stroke="#000" stroke-width="5"/><path d="m1099.6 377.5c-2.34 0-4.43-0.402-6.26-1.207s-3.28-1.924-4.35-3.356c-1.07-1.444-1.65-3.119-1.74-5.025h4.47c0.09 1.172 0.5 2.184 1.21 3.036 0.71 0.841 1.64 1.492 2.78 1.953 1.15 0.462 2.43 0.693 3.82 0.693 1.56 0 2.95-0.272 4.16-0.817 1.2-0.544 2.15-1.302 2.84-2.273 0.68-0.97 1.03-2.095 1.03-3.373 0-1.338-0.33-2.516-1-3.534-0.66-1.029-1.63-1.834-2.91-2.414s-2.84-0.87-4.69-0.87h-2.91v-3.907h2.91c1.45 0 2.71-0.26 3.8-0.781 1.1-0.521 1.96-1.255 2.58-2.202 0.63-0.947 0.94-2.059 0.94-3.338 0-1.231-0.27-2.302-0.82-3.213-0.54-0.912-1.31-1.622-2.31-2.131-0.98-0.509-2.14-0.764-3.48-0.764-1.25 0-2.43 0.231-3.55 0.693-1.1 0.45-2 1.107-2.7 1.971-0.69 0.852-1.07 1.882-1.13 3.089h-4.26c0.07-1.906 0.64-3.575 1.72-5.007 1.08-1.444 2.48-2.568 4.22-3.373 1.76-0.805 3.68-1.208 5.78-1.208 2.24 0 4.17 0.456 5.78 1.367 1.61 0.9 2.85 2.09 3.71 3.569 0.87 1.48 1.3 3.078 1.3 4.794 0 2.048-0.54 3.794-1.62 5.238-1.06 1.444-2.51 2.445-4.35 3.001v0.284c2.3 0.379 4.09 1.355 5.38 2.93 1.29 1.562 1.94 3.498 1.94 5.806 0 1.977-0.54 3.752-1.62 5.327-1.06 1.562-2.52 2.793-4.36 3.693-1.85 0.899-3.95 1.349-6.31 1.349z" fill="#000"/><path d="m799.63 377.5c-2.344 0-4.433-0.402-6.268-1.207-1.823-0.805-3.273-1.924-4.35-3.356-1.065-1.444-1.645-3.119-1.74-5.025h4.475c0.094 1.172 0.497 2.184 1.207 3.036 0.71 0.841 1.639 1.492 2.788 1.953 1.148 0.462 2.42 0.693 3.817 0.693 1.563 0 2.948-0.272 4.155-0.817 1.207-0.544 2.154-1.302 2.841-2.273 0.686-0.97 1.03-2.095 1.03-3.373 0-1.338-0.332-2.516-0.995-3.534-0.662-1.029-1.633-1.834-2.912-2.414-1.278-0.58-2.84-0.87-4.687-0.87h-2.912v-3.907h2.912c1.444 0 2.711-0.26 3.8-0.781 1.101-0.521 1.959-1.255 2.574-2.202 0.628-0.947 0.941-2.059 0.941-3.338 0-1.231-0.272-2.302-0.816-3.213-0.545-0.912-1.314-1.622-2.309-2.131-0.982-0.509-2.142-0.764-3.48-0.764-1.255 0-2.438 0.231-3.551 0.693-1.101 0.45-2 1.107-2.699 1.971-0.698 0.852-1.077 1.882-1.136 3.089h-4.262c0.071-1.906 0.646-3.575 1.723-5.007 1.077-1.444 2.486-2.568 4.226-3.373 1.752-0.805 3.675-1.208 5.77-1.208 2.249 0 4.179 0.456 5.789 1.367 1.609 0.9 2.846 2.09 3.711 3.569 0.864 1.48 1.296 3.078 1.296 4.794 0 2.048-0.539 3.794-1.616 5.238-1.065 1.444-2.515 2.445-4.35 3.001v0.284c2.296 0.379 4.089 1.355 5.38 2.93 1.29 1.562 1.935 3.498 1.935 5.806 0 1.977-0.538 3.752-1.616 5.327-1.065 1.562-2.521 2.793-4.368 3.693-1.846 0.899-3.947 1.349-6.303 1.349z" fill="#000"/><path d="m499.63 377.5c-2.344 0-4.433-0.402-6.268-1.207-1.823-0.805-3.273-1.924-4.35-3.356-1.065-1.444-1.645-3.119-1.74-5.025h4.475c0.094 1.172 0.497 2.184 1.207 3.036 0.71 0.841 1.639 1.492 2.788 1.953 1.148 0.462 2.42 0.693 3.817 0.693 1.563 0 2.948-0.272 4.155-0.817 1.207-0.544 2.154-1.302 2.841-2.273 0.686-0.97 1.03-2.095 1.03-3.373 0-1.338-0.332-2.516-0.995-3.534-0.662-1.029-1.633-1.834-2.912-2.414-1.278-0.58-2.84-0.87-4.687-0.87h-2.912v-3.907h2.912c1.444 0 2.711-0.26 3.8-0.781 1.101-0.521 1.959-1.255 2.574-2.202 0.628-0.947 0.941-2.059 0.941-3.338 0-1.231-0.272-2.302-0.816-3.213-0.545-0.912-1.314-1.622-2.309-2.131-0.982-0.509-2.142-0.764-3.48-0.764-1.255 0-2.438 0.231-3.551 0.693-1.101 0.45-2 1.107-2.699 1.971-0.698 0.852-1.077 1.882-1.136 3.089h-4.262c0.071-1.906 0.646-3.575 1.723-5.007 1.077-1.444 2.486-2.568 4.226-3.373 1.752-0.805 3.675-1.208 5.77-1.208 2.249 0 4.179 0.456 5.789 1.367 1.609 0.9 2.846 2.09 3.711 3.569 0.864 1.48 1.296 3.078 1.296 4.794 0 2.048-0.539 3.794-1.616 5.238-1.065 1.444-2.515 2.445-4.35 3.001v0.284c2.296 0.379 4.089 1.355 5.38 2.93 1.29 1.562 1.935 3.498 1.935 5.806 0 1.977-0.538 3.752-1.616 5.327-1.065 1.562-2.521 2.793-4.368 3.693-1.846 0.899-3.947 1.349-6.303 1.349z" fill="#000"/><path d="m189.99 340.64 9.375 15.128h0.284l9.375-15.128h5.185l-11.435 18.182 11.435 18.182h-5.185l-9.375-14.844h-0.284l-9.375 14.844h-5.185l11.719-18.182-11.719-18.182h5.185z" fill="#000"/><path d="m1187 157.5c0 48.325-39.18 87.5-87.5 87.5s-87.5-39.175-87.5-87.5 39.18-87.5 87.5-87.5 87.5 39.175 87.5 87.5z" fill="#D9D9D9"/><path d="m1099.5 72.5v85m87.5 0c0 48.325-39.18 87.5-87.5 87.5s-87.5-39.175-87.5-87.5 39.18-87.5 87.5-87.5 87.5 39.175 87.5 87.5z" stroke="#000" stroke-width="5"/><path d="m887 157.5c0 48.325-39.175 87.5-87.5 87.5s-87.5-39.175-87.5-87.5 39.175-87.5 87.5-87.5 87.5 39.175 87.5 87.5z" fill="#D9D9D9"/><path d="m799.5 72.5v85m87.5 0c0 48.325-39.175 87.5-87.5 87.5s-87.5-39.175-87.5-87.5 39.175-87.5 87.5-87.5 87.5 39.175 87.5 87.5z" stroke="#000" stroke-width="5"/><path d="m587 157.5c0 48.325-39.175 87.5-87.5 87.5s-87.5-39.175-87.5-87.5 39.175-87.5 87.5-87.5 87.5 39.175 87.5 87.5z" fill="#D9D9D9"/><path d="m499.5 72.5v85m87.5 0c0 48.325-39.175 87.5-87.5 87.5s-87.5-39.175-87.5-87.5 39.175-87.5 87.5-87.5 87.5 39.175 87.5 87.5z" stroke="#000" stroke-width="5"/><path d="m287 157.5c0 48.325-39.175 87.5-87.5 87.5s-87.5-39.175-87.5-87.5 39.175-87.5 87.5-87.5 87.5 39.175 87.5 87.5z" fill="#D9D9D9"/><path d="m199.5 72.5v85m87.5 0c0 48.325-39.175 87.5-87.5 87.5s-87.5-39.175-87.5-87.5 39.175-87.5 87.5-87.5 87.5 39.175 87.5 87.5z" stroke="#000" stroke-width="5"/><path d="m1088.1 224v-3.196l12-13.139c1.41-1.539 2.57-2.877 3.48-4.013 0.91-1.148 1.59-2.225 2.02-3.232 0.45-1.018 0.68-2.083 0.68-3.196 0-1.278-0.31-2.385-0.92-3.32s-1.44-1.657-2.49-2.166-2.24-0.764-3.55-0.764c-1.4 0-2.62 0.29-3.66 0.87-1.03 0.569-1.83 1.368-2.4 2.397-0.55 1.03-0.83 2.238-0.83 3.623h-4.19c0-2.131 0.49-4.001 1.47-5.611 0.99-1.61 2.32-2.865 4.02-3.764 1.7-0.9 3.61-1.35 5.73-1.35 2.13 0 4.02 0.45 5.67 1.35 1.64 0.899 2.93 2.113 3.87 3.64 0.93 1.527 1.4 3.225 1.4 5.095 0 1.338-0.24 2.646-0.73 3.924-0.47 1.267-1.3 2.682-2.49 4.244-1.17 1.551-2.79 3.445-4.88 5.682l-8.17 8.736v0.284h16.91v3.906h-22.94z" fill="#000"/><path d="m788.13 224v-3.196l12.003-13.139c1.409-1.539 2.569-2.877 3.48-4.013 0.912-1.148 1.587-2.225 2.025-3.232 0.449-1.018 0.674-2.083 0.674-3.196 0-1.278-0.307-2.385-0.923-3.32-0.604-0.935-1.432-1.657-2.486-2.166-1.053-0.509-2.237-0.764-3.551-0.764-1.397 0-2.616 0.29-3.658 0.87-1.029 0.569-1.828 1.368-2.397 2.397-0.556 1.03-0.834 2.238-0.834 3.623h-4.19c0-2.131 0.491-4.001 1.473-5.611 0.983-1.61 2.32-2.865 4.013-3.764 1.705-0.9 3.616-1.35 5.735-1.35 2.131 0 4.019 0.45 5.664 1.35 1.646 0.899 2.936 2.113 3.871 3.64s1.403 3.225 1.403 5.095c0 1.338-0.243 2.646-0.728 3.924-0.474 1.267-1.302 2.682-2.486 4.244-1.172 1.551-2.8 3.445-4.883 5.682l-8.168 8.736v0.284h16.904v3.906h-22.941z" fill="#000"/><path d="m488.13 224v-3.196l12.003-13.139c1.409-1.539 2.569-2.877 3.48-4.013 0.912-1.148 1.587-2.225 2.025-3.232 0.449-1.018 0.674-2.083 0.674-3.196 0-1.278-0.307-2.385-0.923-3.32-0.604-0.935-1.432-1.657-2.486-2.166-1.053-0.509-2.237-0.764-3.551-0.764-1.397 0-2.616 0.29-3.658 0.87-1.029 0.569-1.828 1.368-2.397 2.397-0.556 1.03-0.834 2.238-0.834 3.623h-4.19c0-2.131 0.491-4.001 1.473-5.611 0.983-1.61 2.32-2.865 4.013-3.764 1.705-0.9 3.616-1.35 5.735-1.35 2.131 0 4.019 0.45 5.664 1.35 1.646 0.899 2.936 2.113 3.871 3.64s1.403 3.225 1.403 5.095c0 1.338-0.243 2.646-0.728 3.924-0.474 1.267-1.302 2.682-2.486 4.244-1.172 1.551-2.8 3.445-4.883 5.682l-8.168 8.736v0.284h16.904v3.906h-22.941z" fill="#000"/><path d="m204.43 187.64v36.364h-4.403v-31.747h-0.213l-8.878 5.895v-4.475l9.091-6.037h4.403z" fill="#000"/></svg>
