<?xml version="1.0" encoding="UTF-8"?>
<svg version="1.1" viewBox="0 0 1295 823" xmlns="http://www.w3.org/2000/svg"><rect x="29.352" y="97.986" width="1240.1" height="699.5" fill="#fff" stroke="#000" stroke-width="2"/><ellipse cx="1044.8" cy="331.91" rx="160.39" ry="168.77" fill="none" stroke="#000" stroke-width="2"/><ellipse cx="258.34" cy="331.66" rx="160.39" ry="168.77" fill="none" stroke="#000" stroke-width="2"/><rect x="172.64" y="535.25" width="72.616" height="55.352" fill="#ff6d00" fill-opacity=".3883" stroke="#000" stroke-width="2"/><rect x="261.69" y="533.32" width="72.616" height="55.352" fill="#ff6d00" fill-opacity=".3883" stroke="#000" stroke-width="2"/><rect x="171.56" y="606.54" width="72.616" height="55.352" fill="#ff6d00" fill-opacity=".3883" stroke="#000" stroke-width="2"/><rect x="262.77" y="604.42" width="72.616" height="55.352" fill="#ff6d00" fill-opacity=".3883" stroke="#000" stroke-width="2"/><rect x="869.42" y="533.36" width="72.616" height="55.352" fill="#ff6d00" fill-opacity=".3883" stroke="#000" stroke-width="2"/><rect x="962.75" y="536.55" width="72.616" height="55.352" fill="#ff6d00" fill-opacity=".3883" stroke="#000" stroke-width="2"/><rect x="870.48" y="603.36" width="72.616" height="55.352" fill="#ff6d00" fill-opacity=".3883" stroke="#000" stroke-width="2"/><rect x="962.75" y="605.48" width="72.616" height="55.352" fill="#ff6d00" fill-opacity=".3883" stroke="#000" stroke-width="2"/><rect x="352.79" y="562.25" width="71.717" height="21.882" fill="#ff6d00" fill-opacity=".3883" stroke="#000" stroke-width="2"/><rect x="1053.3" y="562.83" width="71.717" height="21.882" fill="#ff6d00" fill-opacity=".3883" stroke="#000" stroke-width="2"/><rect x="548.7" y="721.47" width="198.53" height="16.012" fill="none" stroke="#000" stroke-width="2"/><rect x="632.74" y="696.85" width="31.597" height="63.203" fill="none" stroke="#000" stroke-width="2"/><ellipse cx="648.81" cy="191.84" rx="38.972" ry="40.635" fill="none" stroke="#000" stroke-width="2"/><ellipse cx="649.07" cy="390.29" rx="38.972" ry="40.635" fill="none" stroke="#000" stroke-width="2"/><ellipse cx="642.7" cy="478.32" rx="38.972" ry="40.635" fill="none" stroke="#000" stroke-width="2"/><ellipse cx="646.95" cy="580.13" rx="38.972" ry="40.635" fill="none" stroke="#000" stroke-width="2"/><ellipse cx="527.1" cy="194.08" rx="38.972" ry="40.635" fill="none" stroke="#000" stroke-width="2"/><ellipse cx="528.16" cy="285.29" rx="38.972" ry="40.635" fill="none" stroke="#000" stroke-width="2"/><ellipse cx="522.86" cy="380.74" rx="38.972" ry="40.635" fill="none" stroke="#000" stroke-width="2"/><ellipse cx="767.85" cy="182.42" rx="38.972" ry="40.635" fill="none" stroke="#000" stroke-width="2"/><ellipse cx="765.73" cy="281.05" rx="38.972" ry="40.635" fill="none" stroke="#000" stroke-width="2"/><ellipse cx="771.03" cy="374.38" rx="38.972" ry="40.635" fill="none" stroke="#000" stroke-width="2"/><ellipse cx="398.5" cy="478.74" rx="19.765" ry="17.435" fill="#ff6d00" fill-opacity=".3883" stroke="#000" stroke-width="2"/><ellipse cx="107.12" cy="476.19" rx="19.765" ry="17.435" fill="#ff6d00" fill-opacity=".3883" stroke="#000" stroke-width="2"/><ellipse cx="899.36" cy="480.44" rx="19.765" ry="17.435" fill="#ff6d00" fill-opacity=".3883" stroke="#000" stroke-width="2"/><ellipse cx="1190" cy="477.77" rx="19.765" ry="17.435" fill="#ff6d00" fill-opacity=".3883" stroke="#000" stroke-width="2"/><rect x="99.95" y="546.15" width="13.999" height="199.24" fill="none" stroke="#000" stroke-width="2"/><rect x="74.236" y="618.99" width="65.204" height="55.783" fill="none" stroke="#000" stroke-width="2"/><rect x="1184.7" y="545.04" width="13.493" height="198.21" fill="none" stroke="#000" stroke-width="2"/><rect x="1159.5" y="616.01" width="63.116" height="59.76" fill="none" stroke="#000" stroke-width="2"/><rect x="761.92" y="460.63" width="13.767" height="196.03" fill="none" stroke="#000" stroke-width="2"/><rect x="522.89" y="452.57" width="13.767" height="196.03" fill="none" stroke="#000" stroke-width="2"/><rect x="732.02" y="539.67" width="74.082" height="34.945" fill="none" stroke="#000" stroke-width="2"/><rect x="492.13" y="543.72" width="72.777" height="29.286" fill="none" stroke="#000" stroke-width="2"/><ellipse cx="621.65" cy="281.78" rx="10.262" ry="10.662" fill="none" stroke="#000" stroke-width="2"/><ellipse cx="675.29" cy="282.2" rx="10.181" ry="10.428" fill="none" stroke="#000" stroke-width="2"/><rect x="171.2" y="699.18" width="72.628" height="49.242" fill="#ff6d00" fill-opacity=".3883" stroke="#000" stroke-width="2"/><rect x="262.77" y="699.75" width="72.628" height="49.242" fill="#ff6d00" fill-opacity=".3883" stroke="#000" stroke-width="2"/><rect x="353.97" y="701.87" width="72.628" height="49.242" fill="#ff6d00" fill-opacity=".3883" stroke="#000" stroke-width="2"/><rect x="872.59" y="696.56" width="72.628" height="49.242" fill="#ff6d00" fill-opacity=".3883" stroke="#000" stroke-width="2"/><rect x="961.68" y="702.93" width="72.628" height="49.242" fill="#ff6d00" fill-opacity=".3883" stroke="#000" stroke-width="2"/><rect x="1051.8" y="703.99" width="72.628" height="49.242" fill="#ff6d00" fill-opacity=".3883" stroke="#000" stroke-width="2"/><text x="619.40015" y="162.42418" fill="#000000" font-family="sans-serif" font-size="40px" style="line-height:1.25" xml:space="preserve"><tspan x="619.40015" y="162.42418"/></text><rect x="388.31" y="612.82" width="32.641" height="12.449" fill="none" stroke="#f00" stroke-width="2"/><rect x="386.68" y="634.78" width="32.641" height="12.449" fill="none" stroke="#f00" stroke-width="2"/><rect x="384.68" y="659.78" width="32.641" height="12.449" fill="none" stroke="#f00" stroke-width="2"/><rect x="1095.3" y="612.11" width="32.641" height="12.449" fill="none" stroke="#f00" stroke-width="2"/><rect x="1096.7" y="634.78" width="32.641" height="12.449" fill="none" stroke="#f00" stroke-width="2"/><rect x="1094.7" y="656.78" width="32.641" height="12.449" fill="none" stroke="#f00" stroke-width="2"/><text x="1182.9336" y="176.39844" font-family="sans-serif" font-size="64px" style="line-height:1.25" xml:space="preserve"><tspan x="1182.9336" y="176.39844">2</tspan></text><text x="50.390625" y="164.07031" font-family="sans-serif" font-size="64px" style="line-height:1.25" xml:space="preserve"><tspan x="50.390625" y="164.07031">1</tspan></text><text x="183.78906" y="564.45312" font-family="sans-serif" font-size="24px" style="line-height:1.25" xml:space="preserve"><tspan x="183.78906" y="564.45312">1</tspan></text><text x="272.45312" y="560.59766" font-family="sans-serif" font-size="24px" style="line-height:1.25" xml:space="preserve"><tspan x="272.45312" y="560.59766">2</tspan></text><text x="177.75" y="636.60547" font-family="sans-serif" font-size="24px" style="line-height:1.25" xml:space="preserve"><tspan x="177.75" y="636.60547">3</tspan></text><text x="269.21094" y="634.4375" font-family="sans-serif" font-size="24px" style="line-height:1.25" xml:space="preserve"><tspan x="269.21094" y="634.4375">4</tspan></text><text x="880.53906" y="560.63281" font-family="sans-serif" font-size="24px" style="line-height:1.25" xml:space="preserve"><tspan x="880.53906" y="560.63281">1</tspan></text><text x="977.43359" y="562.07812" font-family="sans-serif" font-size="24px" style="line-height:1.25" xml:space="preserve"><tspan x="977.43359" y="562.07812">2</tspan></text><text x="882.53906" y="632.58984" font-family="sans-serif" font-size="24px" style="line-height:1.25" xml:space="preserve"><tspan x="882.53906" y="632.58984">3</tspan></text><text x="972.10156" y="633.73828" font-family="sans-serif" font-size="24px" style="line-height:1.25" xml:space="preserve"><tspan x="972.10156" y="633.73828">4</tspan></text><text x="176.13672" y="731.75781" font-family="sans-serif" font-size="24px" style="line-height:1.25" xml:space="preserve"><tspan x="176.13672" y="731.75781">SYNC</tspan></text><text x="273.34766" y="732.30469" font-family="sans-serif" font-size="24px" style="line-height:1.25" xml:space="preserve"><tspan x="273.34766" y="732.30469">CUE</tspan></text><text x="875.53516" y="730.37891" font-family="sans-serif" font-size="24px" style="line-height:1.25" xml:space="preserve"><tspan x="875.53516" y="730.37891">SYNC</tspan></text><text x="976.04688" y="733.07812" font-family="sans-serif" font-size="24px" style="line-height:1.25" xml:space="preserve"><tspan x="976.04688" y="733.07812">CUE</tspan></text><text x="367.81641" y="730.21875" font-family="sans-serif" font-size="24px" style="line-height:1.25" xml:space="preserve"><tspan x="367.81641" y="730.21875"/></text><text x="614.77734" y="232.97656" font-family="sans-serif" font-size="24px" style="line-height:1.25" xml:space="preserve"><tspan x="614.77734" y="232.97656"/></text><text x="612.67969" y="252.79688" font-family="sans-serif" font-size="24px" style="line-height:1.25" xml:space="preserve"><tspan x="612.67969" y="252.79688" font-family="sans-serif" font-size="16px" style="font-variant-caps:normal;font-variant-east-asian:normal;font-variant-ligatures:normal;font-variant-numeric:normal">BROWSE</tspan></text><text x="608.14062" y="308.03906" font-family="sans-serif" font-size="16px" style="line-height:1.25" xml:space="preserve"><tspan x="608.14062" y="308.03906"/></text><text x="611.33984" y="308.54297" font-family="sans-serif" font-size="16px" style="line-height:1.25" xml:space="preserve"><tspan x="611.33984" y="308.54297">load</tspan></text><text x="657.65625" y="307.77734" font-family="sans-serif" font-size="16px" style="line-height:1.25" xml:space="preserve"><tspan x="657.65625" y="307.77734">load</tspan></text><text x="615.05078" y="429.74219" font-family="sans-serif" font-size="16px" style="line-height:1.25" xml:space="preserve"><tspan x="615.05078" y="429.74219">master gain</tspan></text><text x="607.64844" y="524.00391" font-family="sans-serif" font-size="16px" style="line-height:1.25" xml:space="preserve"><tspan x="607.64844" y="524.00391">cue mix</tspan></text><text x="618.25391" y="632.74219" font-family="sans-serif" font-size="16px" style="line-height:1.25" xml:space="preserve"><tspan x="618.25391" y="632.74219">cue gain</tspan></text><text x="733.8125" y="224.20703" font-family="sans-serif" font-size="16px" style="line-height:1.25" xml:space="preserve"><tspan x="733.8125" y="224.20703">gain</tspan></text><text x="739.46875" y="322.53906" font-family="sans-serif" font-size="16px" style="line-height:1.25" xml:space="preserve"><tspan x="739.46875" y="322.53906">trebble</tspan></text><text x="742.05078" y="420.96094" font-family="sans-serif" font-size="16px" style="line-height:1.25" xml:space="preserve"><tspan x="742.05078" y="420.96094">bass</tspan></text><text x="497.88672" y="425.60156" font-family="sans-serif" font-size="16px" style="line-height:1.25" xml:space="preserve"><tspan x="497.88672" y="425.60156">bass</tspan></text><text x="502.82422" y="329.54688" font-family="sans-serif" font-size="16px" style="line-height:1.25" xml:space="preserve"><tspan x="502.82422" y="329.54688">trebble</tspan></text><text x="498.90625" y="234.39062" font-family="sans-serif" font-size="16px" style="line-height:1.25" xml:space="preserve"><tspan x="498.90625" y="234.39062">gain</tspan></text><text x="79.554688" y="480.19141" font-family="sans-serif" font-size="16px" style="line-height:1.25" xml:space="preserve"><tspan x="79.554688" y="480.19141">scratch</tspan></text><text x="1162.793" y="484.37891" font-family="sans-serif" font-size="16px" style="line-height:1.25" xml:space="preserve"><tspan x="1162.793" y="484.37891">scratch</tspan></text><text x="351.61328" y="552.14062" font-family="sans-serif" font-size="16px" style="line-height:1.25" xml:space="preserve"><tspan x="351.61328" y="552.14062">pad mode</tspan></text><text x="1048.7539" y="548.63281" font-family="sans-serif" font-size="16px" style="line-height:1.25" xml:space="preserve"><tspan x="1048.7539" y="548.63281">pad mode</tspan></text><text fill="#ff0000" font-family="sans-serif" font-size="64px" stroke="#060000" style="line-height:1.25;shape-inside:url(#rect86286);white-space:pre" xml:space="preserve"/><text x="640.37891" y="215.14844" fill="#ff0000" font-family="sans-serif" font-size="64px" stroke="#060000" style="line-height:1.25" xml:space="preserve"><tspan x="640.37891" y="215.14844">1</tspan></text><text x="634.62891" y="292.05078" fill="#ff0000" font-family="sans-serif" font-size="64px" stroke="#060000" style="line-height:1.25" xml:space="preserve"><tspan x="634.62891" y="292.05078">2</tspan></text><text x="634.51172" y="403.58203" fill="#ff0000" font-family="sans-serif" font-size="64px" stroke="#060000" style="line-height:1.25" xml:space="preserve"><tspan x="634.51172" y="403.58203">3</tspan></text><text x="632.75391" y="498.33984" fill="#ff0000" font-family="sans-serif" font-size="64px" stroke="#060000" style="line-height:1.25" xml:space="preserve"><tspan x="632.75391" y="498.33984">4</tspan></text><text x="629.67969" y="601.04688" fill="#ff0000" font-family="sans-serif" font-size="64px" stroke="#060000" style="line-height:1.25" xml:space="preserve"><tspan x="629.67969" y="601.04688">5</tspan></text><text x="508.75391" y="218.67578" fill="#ff0000" font-family="sans-serif" font-size="64px" stroke="#060000" style="line-height:1.25" xml:space="preserve"><tspan x="508.75391" y="218.67578">6</tspan></text><text x="755.21875" y="205.79297" fill="#ff0000" font-family="sans-serif" font-size="64px" stroke="#060000" style="line-height:1.25" xml:space="preserve"><tspan x="755.21875" y="205.79297">6</tspan></text><text x="507.37891" y="298.86719" fill="#ff0000" font-family="sans-serif" font-size="64px" stroke="#060000" style="line-height:1.25" xml:space="preserve"><tspan x="507.37891" y="298.86719">7</tspan></text><text x="737.6875" y="298.5625" fill="#ff0000" font-family="sans-serif" font-size="64px" stroke="#060000" style="line-height:1.25" xml:space="preserve"><tspan x="737.6875" y="298.5625">7</tspan></text><text x="503.41016" y="395.64844" fill="#ff0000" font-family="sans-serif" font-size="64px" stroke="#060000" style="line-height:1.25" xml:space="preserve"><tspan x="503.41016" y="395.64844">8</tspan></text><text x="753.46094" y="394.71484" fill="#ff0000" font-family="sans-serif" font-size="64px" stroke="#060000" style="line-height:1.25" xml:space="preserve"><tspan x="753.46094" y="394.71484">8</tspan></text><text x="510.76172" y="612.66016" fill="#ff0000" font-family="sans-serif" font-size="64px" stroke="#060000" style="line-height:1.25" xml:space="preserve"><tspan x="510.76172" y="612.66016">9</tspan></text><text x="749.55469" y="612.85547" fill="#ff0000" font-family="sans-serif" font-size="64px" stroke="#060000" style="line-height:1.25" xml:space="preserve"><tspan x="749.55469" y="612.85547">9</tspan></text><text x="632.73596" y="760.05786" fill="#ff0000" font-family="sans-serif" font-size="64px" stroke="#060000" style="line-height:1.25" xml:space="preserve"><tspan x="632.73596" y="760.05786">10</tspan></text><text x="835.74219" y="494.02734" fill="#ff0000" font-family="sans-serif" font-size="64px" stroke="#060000" style="line-height:1.25" xml:space="preserve"><tspan x="835.74219" y="494.02734">11</tspan></text><text x="393.50781" y="489.75" fill="#ff0000" font-family="sans-serif" font-size="64px" stroke="#060000" style="line-height:1.25" xml:space="preserve"><tspan x="393.50781" y="489.75">11</tspan></text><text x="151.30859" y="295.73828" fill="#ff0000" font-family="sans-serif" font-size="64px" stroke="#060000" style="line-height:1.25" xml:space="preserve"><tspan x="151.30859" y="295.73828">12</tspan></text><text x="1090.9609" y="297.74219" fill="#ff0000" font-family="sans-serif" font-size="64px" stroke="#060000" style="line-height:1.25" xml:space="preserve"><tspan x="1090.9609" y="297.74219">12</tspan></text><text x="1186.4219" y="521.16016" fill="#ff0000" font-family="sans-serif" font-size="64px" stroke="#060000" style="line-height:1.25" xml:space="preserve"><tspan x="1186.4219" y="521.16016">13</tspan></text><text x="54.65625" y="528.35547" fill="#ff0000" font-family="sans-serif" font-size="64px" stroke="#060000" style="line-height:1.25" xml:space="preserve"><tspan x="54.65625" y="528.35547">13</tspan></text><text x="67.835938" y="641.28516" fill="#ff0000" font-family="sans-serif" font-size="64px" stroke="#060000" style="line-height:1.25" xml:space="preserve"><tspan x="67.835938" y="641.28516">14</tspan></text><text x="1157.2812" y="642.81641" fill="#ff0000" font-family="sans-serif" font-size="64px" stroke="#060000" style="line-height:1.25" xml:space="preserve"><tspan x="1157.2812" y="642.81641">14</tspan></text><text x="173.02344" y="789.59766" fill="#ff0000" font-family="sans-serif" font-size="64px" stroke="#060000" style="line-height:1.25" xml:space="preserve"><tspan x="173.02344" y="789.59766">15</tspan></text><text x="266.57812" y="780.12109" fill="#ff0000" font-family="sans-serif" font-size="64px" stroke="#060000" style="line-height:1.25" xml:space="preserve"><tspan x="266.57812" y="780.12109">16</tspan></text><text x="352.22656" y="785.8125" fill="#ff0000" font-family="sans-serif" font-size="64px" stroke="#060000" style="line-height:1.25" xml:space="preserve"><tspan x="352.22656" y="785.8125">17</tspan></text><text x="872.46094" y="786.80078" fill="#ff0000" font-family="sans-serif" font-size="64px" stroke="#060000" style="line-height:1.25" xml:space="preserve"><tspan x="872.46094" y="786.80078">15</tspan></text><text x="966.16797" y="785.75781" fill="#ff0000" font-family="sans-serif" font-size="64px" stroke="#060000" style="line-height:1.25" xml:space="preserve"><tspan x="966.16797" y="785.75781">16</tspan></text><text x="1058.1992" y="785.67969" fill="#ff0000" font-family="sans-serif" font-size="64px" stroke="#060000" style="line-height:1.25" xml:space="preserve"><tspan x="1058.1992" y="785.67969">17</tspan></text><text x="920.92578" y="627.19922" fill="#ff0000" font-family="sans-serif" font-size="64px" stroke="#060000" style="line-height:1.25" xml:space="preserve"><tspan x="920.92578" y="627.19922">18</tspan></text><text x="209.03406" y="622.99414" fill="#ff0000" font-family="sans-serif" font-size="64px" stroke="#060000" style="line-height:1.25" xml:space="preserve"><tspan x="209.03406" y="622.99414">18</tspan></text><text x="1053.344" y="584.70801" fill="#ff0000" font-family="sans-serif" font-size="64px" stroke="#060000" style="line-height:1.25" xml:space="preserve"><tspan x="1053.344" y="584.70801">19</tspan></text><text x="1081.4297" y="671.11719" fill="#ff0000" font-family="sans-serif" font-size="64px" stroke="#060000" style="line-height:1.25" xml:space="preserve"><tspan x="1081.4297" y="671.11719">20</tspan></text><text x="382.35938" y="666.90625" fill="#ff0000" font-family="sans-serif" font-size="64px" stroke="#060000" style="line-height:1.25" xml:space="preserve"><tspan x="382.35938" y="666.90625">20</tspan></text></svg>
