<?xml version="1.0" encoding="UTF-8"?>
<svg version="1.1" viewBox="0 0 1295 823" xmlns="http://www.w3.org/2000/svg"><g stroke="#000"><rect x="29.352" y="97.986" width="1240.1" height="699.5" fill="#fff" stroke-width="2"/><circle cx="1058.9" cy="307.52" r="188.38" fill="none" stroke-width="2.3487"/><circle cx="240.2" cy="307.52" r="188.38" fill="none" stroke-width="2.3487"/></g><g fill="#ff6d00" fill-opacity=".3883" stroke="#000" stroke-width="2"><rect x="71.2" y="533.32" width="72.616" height="55.352"/><rect x="161.69" y="533.32" width="72.616" height="55.352"/><rect x="71.2" y="603.36" width="72.616" height="55.352"/><rect x="161.69" y="603.36" width="72.616" height="55.352"/><rect x="869.42" y="533.32" width="72.616" height="55.352"/><rect x="961.68" y="533.32" width="72.616" height="55.352"/><rect x="869.42" y="603.36" width="72.616" height="55.352"/><rect x="961.68" y="603.36" width="72.616" height="55.352"/><rect x="252.79" y="533.32" width="71.717" height="21.882"/><rect x="1051.8" y="533.32" width="71.717" height="21.882"/></g><g fill="none" stroke="#000"><rect x="548.7" y="741.47" width="198.53" height="16.012" stroke-width="2"/><rect x="632.74" y="716.85" width="31.597" height="63.203" stroke-width="2"/><g stroke-width="1.9597"><circle cx="649.07" cy="368.23" r="38.992"/><circle cx="649.07" cy="568.47" r="38.992"/><circle cx="528.16" cy="274.5" r="38.992"/><circle cx="528.16" cy="368.23" r="38.992"/><circle cx="765.73" cy="180.76" r="38.992"/></g><circle cx="765.73" cy="274.5" r="38.992" stroke-width="2"/><g stroke-width="1.9597"><circle cx="765.73" cy="368.23" r="38.992"/><circle cx="528.16" cy="461.97" r="38.992"/><circle cx="765.73" cy="461.97" r="38.992"/></g></g><g stroke="#000"><circle cx="614.5" cy="464.77" r="19.704" fill="#ff6d00" fill-opacity=".3883" stroke-width="2.1228"/><circle cx="689.36" cy="464.77" r="19.704" fill="#ff6d00" fill-opacity=".3883" stroke-width="2.1228"/><ellipse cx="621.65" cy="281.78" rx="10.262" ry="10.662" fill="none" stroke-width="2"/><ellipse cx="675.29" cy="282.2" rx="10.181" ry="10.428" fill="none" stroke-width="2"/></g><g fill="#ff6d00" fill-opacity=".3883" stroke="#000" stroke-width="2"><rect x="71.2" y="699.18" width="72.628" height="49.242"/><rect x="161.69" y="699.18" width="72.628" height="49.242"/><rect x="252.79" y="699.18" width="72.628" height="49.242"/><rect x="869.42" y="696.56" width="72.628" height="49.242"/><rect x="961.68" y="696.56" width="72.628" height="49.242"/><rect x="1051.8" y="696.56" width="72.628" height="49.242"/></g><text x="619.40015" y="162.42418" fill="#000000" font-family="sans-serif" font-size="40px" style="line-height:1.25" xml:space="preserve"><tspan x="619.40015" y="162.42418"/></text><g transform="translate(-92.814 -28)" fill="none" stroke="#f00" stroke-width="2"><rect x="384.68" y="612.82" width="32.641" height="12.449"/><rect x="384.68" y="633.17" width="32.641" height="12.449"/><rect x="384.68" y="653.51" width="32.641" height="12.449"/><rect x="384.68" y="673.86" width="32.641" height="12.449"/></g><g transform="translate(707.7 -28)" fill="none" stroke="#f00" stroke-width="2"><rect x="384.68" y="612.82" width="32.641" height="12.449"/><rect x="384.68" y="633.17" width="32.641" height="12.449"/><rect x="384.68" y="653.51" width="32.641" height="12.449"/><rect x="384.68" y="673.86" width="32.641" height="12.449"/></g><g font-family="sans-serif"><text x="1206.9336" y="164.91406" font-size="64px" style="line-height:1.25" xml:space="preserve"><tspan x="1206.9336" y="164.91406">2</tspan></text><text x="50.390625" y="164.07031" font-size="64px" style="line-height:1.25" xml:space="preserve"><tspan x="50.390625" y="164.07031">1</tspan></text><g font-size="24px"><text x="83.789062" y="564.45312" style="line-height:1.25" xml:space="preserve"><tspan x="83.789062" y="564.45312">1</tspan></text><text x="172.45312" y="560.59766" style="line-height:1.25" xml:space="preserve"><tspan x="172.45312" y="560.59766">2</tspan></text><text x="77.75" y="636.60547" style="line-height:1.25" xml:space="preserve"><tspan x="77.75" y="636.60547">3</tspan></text><text x="169.21094" y="634.4375" style="line-height:1.25" xml:space="preserve"><tspan x="169.21094" y="634.4375">4</tspan></text><text x="880.53906" y="560.63281" style="line-height:1.25" xml:space="preserve"><tspan x="880.53906" y="560.63281">1</tspan></text><text x="977.43359" y="562.07812" style="line-height:1.25" xml:space="preserve"><tspan x="977.43359" y="562.07812">2</tspan></text><text x="882.53906" y="632.58984" style="line-height:1.25" xml:space="preserve"><tspan x="882.53906" y="632.58984">3</tspan></text><text x="972.10156" y="633.73828" style="line-height:1.25" xml:space="preserve"><tspan x="972.10156" y="633.73828">4</tspan></text><text x="76.136719" y="731.75781" style="line-height:1.25" xml:space="preserve"><tspan x="76.136719" y="731.75781">SYNC</tspan></text><text x="173.34766" y="732.30469" style="line-height:1.25" xml:space="preserve"><tspan x="173.34766" y="732.30469">CUE</tspan></text><text x="875.53516" y="730.37891" style="line-height:1.25" xml:space="preserve"><tspan x="875.53516" y="730.37891">SYNC</tspan></text><text x="976.04688" y="733.07812" style="line-height:1.25" xml:space="preserve"><tspan x="976.04688" y="733.07812">CUE</tspan></text><text x="367.81641" y="730.21875" style="line-height:1.25" xml:space="preserve"><tspan x="367.81641" y="730.21875"/></text><text x="614.77734" y="232.97656" style="line-height:1.25" xml:space="preserve"><tspan x="614.77734" y="232.97656"/></text><text x="612.67969" y="240.79688" style="line-height:1.25" xml:space="preserve"><tspan x="612.67969" y="240.79688" font-family="sans-serif" font-size="16px" style="font-variant-caps:normal;font-variant-east-asian:normal;font-variant-ligatures:normal;font-variant-numeric:normal">BROWSE</tspan></text></g><g font-size="16px"><text x="608.14062" y="308.03906" style="line-height:1.25" xml:space="preserve"><tspan x="608.14062" y="308.03906"/></text><text x="611.33984" y="308.54297" style="line-height:1.25" xml:space="preserve"><tspan x="611.33984" y="308.54297">load</tspan></text><text x="657.65625" y="307.77734" style="line-height:1.25" xml:space="preserve"><tspan x="657.65625" y="307.77734">load</tspan></text><text x="607.05078" y="625.74219" style="line-height:1.25" xml:space="preserve"><tspan x="607.05078" y="625.74219">master gain</tspan></text><text x="618.25391" y="420.74219" style="line-height:1.25" xml:space="preserve"><tspan x="618.25391" y="420.74219">cue gain</tspan></text><text x="747.61719" y="232.39062" style="line-height:1.25" xml:space="preserve"><tspan x="747.61719" y="232.39062">gain</tspan></text><text x="741.46875" y="324.53906" style="line-height:1.25" xml:space="preserve"><tspan x="741.46875" y="324.53906">treble</tspan></text><text x="746" y="420.96094" style="line-height:1.25" xml:space="preserve"><tspan x="746" y="420.96094">bass</tspan></text><text x="507.39844" y="420.96094" style="line-height:1.25" xml:space="preserve"><tspan x="507.39844" y="420.96094">bass</tspan></text><text x="748" y="514.96094" style="line-height:1.25" xml:space="preserve"><tspan x="748" y="514.96094">filter</tspan></text><text x="509.39844" y="514.96094" style="line-height:1.25" xml:space="preserve"><tspan x="509.39844" y="514.96094">filter</tspan></text><text x="502.86719" y="324.53906" style="line-height:1.25" xml:space="preserve"><tspan x="502.86719" y="324.53906">treble</tspan></text><text x="509.01562" y="232.39062" style="line-height:1.25" xml:space="preserve"><tspan x="509.01562" y="232.39062">gain</tspan></text><text x="251.61328" y="572.14062" style="line-height:1.25" xml:space="preserve"><tspan x="251.61328" y="572.14062">pad mode</tspan></text><text x="1048.7539" y="572.14062" style="line-height:1.25" xml:space="preserve"><tspan x="1048.7539" y="572.14062">pad mode</tspan></text></g></g><g fill="#ff0000" font-family="sans-serif" font-size="64px" stroke="#060000"><text style="line-height:1.25;shape-inside:url(#rect86286);white-space:pre" xml:space="preserve"/><text x="630.10156" y="204.94922" style="line-height:1.25" xml:space="preserve"><tspan x="630.10156" y="204.94922">1</tspan></text><text x="631.52344" y="298.05078" style="line-height:1.25" xml:space="preserve"><tspan x="631.52344" y="298.05078">2</tspan></text><text x="630.51172" y="591.58203" style="line-height:1.25" xml:space="preserve"><tspan x="630.51172" y="591.58203">3</tspan></text><text x="630.89844" y="389.88779" style="line-height:1.25" xml:space="preserve"><tspan x="630.89844" y="389.88779">4</tspan></text><text x="507.55475" y="201.89508" style="line-height:1.25" xml:space="preserve"><tspan x="507.55475" y="201.89508">5</tspan></text><text x="745.39062" y="204.46985" style="line-height:1.25" xml:space="preserve"><tspan x="745.39062" y="204.46985">5</tspan></text><text x="744.84375" y="297.79297" style="line-height:1.25" xml:space="preserve"><tspan x="744.84375" y="297.79297">6</tspan></text><text x="507.336" y="391.20703" style="line-height:1.25" xml:space="preserve"><tspan x="507.336" y="391.20703">7</tspan></text><text x="745.17188" y="389.20703" style="line-height:1.25" xml:space="preserve"><tspan x="745.17188" y="389.20703">7</tspan></text><text x="507.24225" y="482.73154" style="line-height:1.25" xml:space="preserve"><tspan x="507.24225" y="482.73154">8</tspan></text><text x="745.07812" y="482.73154" style="line-height:1.25" xml:space="preserve"><tspan x="745.07812" y="482.73154">8</tspan></text></g><g transform="translate(0,70)"><rect x="761.92" y="460.63" width="13.767" height="196.03" fill="none" stroke="#000" stroke-width="2"/><rect x="732.02" y="539.67" width="74.082" height="34.945" fill="none" stroke="#000" stroke-width="2"/><text x="749.55469" y="612.85547" fill="#ff0000" font-family="sans-serif" font-size="64px" stroke="#060000" style="line-height:1.25" xml:space="preserve"><tspan x="749.55469" y="612.85547">9</tspan></text></g><g transform="translate(-238.34 70)"><rect x="761.92" y="460.63" width="13.767" height="196.03" fill="none" stroke="#000" stroke-width="2"/><rect x="732.02" y="539.67" width="74.082" height="34.945" fill="none" stroke="#000" stroke-width="2"/><text x="749.55469" y="612.85547" fill="#ff0000" font-family="sans-serif" font-size="64px" stroke="#060000" style="line-height:1.25" xml:space="preserve"><tspan x="749.55469" y="612.85547">9</tspan></text></g><g fill="#ff0000" font-family="sans-serif" font-size="64px" stroke="#060000"><text x="608.73596" y="774.05786" style="line-height:1.25" xml:space="preserve"><tspan x="608.73596" y="774.05786">10</tspan></text><text x="609.74219" y="481.88779" style="line-height:1.25" xml:space="preserve"><tspan x="609.74219" y="481.88779">11</tspan></text><text x="196.61134" y="329.37213" style="line-height:1.25" xml:space="preserve"><tspan x="196.61134" y="329.37213">12</tspan></text><text x="1016.5573" y="329.37213" style="line-height:1.25" xml:space="preserve"><tspan x="1016.5573" y="329.37213">12</tspan></text></g><rect x="1192.7" y="545.04" width="13.493" height="198.21" fill="none" stroke="#000" stroke-width="2"/><rect x="1167.5" y="616.01" width="63.116" height="59.76" fill="none" stroke="#000" stroke-width="2"/><text x="1165.2812" y="648.81641" fill="#ff0000" font-family="sans-serif" font-size="64px" stroke="#060000" style="line-height:1.25" xml:space="preserve"><tspan x="1165.2812" y="648.81641">13</tspan></text><g transform="translate(-793.71)"><rect x="1192.7" y="545.04" width="13.493" height="198.21" fill="none" stroke="#000" stroke-width="2"/><rect x="1167.5" y="616.01" width="63.116" height="59.76" fill="none" stroke="#000" stroke-width="2"/><text x="1165.2812" y="648.81641" fill="#ff0000" font-family="sans-serif" font-size="64px" stroke="#060000" style="line-height:1.25" xml:space="preserve"><tspan x="1165.2812" y="648.81641">13</tspan></text></g><g fill="#ff0000" font-family="sans-serif" font-size="64px" stroke="#060000"><text x="73.023438" y="789.59766" style="line-height:1.25" xml:space="preserve"><tspan x="73.023438" y="789.59766">14</tspan></text><text x="166.57812" y="789.59766" style="line-height:1.25" xml:space="preserve"><tspan x="166.57812" y="789.59766">15</tspan></text><text x="252.22656" y="790.50391" style="line-height:1.25" xml:space="preserve"><tspan x="252.22656" y="790.50391">16</tspan></text><text x="872.46094" y="789.59766" style="line-height:1.25" xml:space="preserve"><tspan x="872.46094" y="789.59766">14</tspan></text><text x="966.16797" y="789.59766" style="line-height:1.25" xml:space="preserve"><tspan x="966.16797" y="789.59766">15</tspan></text><text x="1058.1992" y="790.50391" style="line-height:1.25" xml:space="preserve"><tspan x="1058.1992" y="790.50391">16</tspan></text><text x="908.92578" y="619.19922" style="line-height:1.25" xml:space="preserve"><tspan x="908.92578" y="619.19922">17</tspan></text><text x="109.03406" y="622.99414" style="line-height:1.25" xml:space="preserve"><tspan x="109.03406" y="622.99414">17</tspan></text><text x="1045.344" y="558.70801" style="line-height:1.25" xml:space="preserve"><tspan x="1045.344" y="558.70801">18</tspan></text><text x="1071.4297" y="644.90625" style="line-height:1.25" xml:space="preserve"><tspan x="1071.4297" y="644.90625">19</tspan></text><text x="272.35938" y="644.90625" style="line-height:1.25" xml:space="preserve"><tspan x="272.35938" y="644.90625">19</tspan></text></g><circle cx="528.16" cy="180.76" r="38.992" fill="none" stroke="#000" stroke-width="1.9597"/><circle cx="649.07" cy="180.76" r="38.992" fill="none" stroke="#000" stroke-width="1.9597"/><text x="247.6506" y="558.03088" fill="#ff0000" font-family="sans-serif" font-size="64px" stroke="#060000" style="line-height:1.25" xml:space="preserve"><tspan x="247.6506" y="558.03088">18</tspan></text><text x="507.00787" y="299.79297" fill="#ff0000" font-family="sans-serif" font-size="64px" stroke="#060000" style="line-height:1.25" xml:space="preserve"><tspan x="507.00787" y="299.79297">6</tspan></text></svg>
