<?xml version="1.0" encoding="UTF-8"?>
<svg width="26.82mm" height="19.732mm" version="1.1" viewBox="0 0 26.82 19.732" xmlns="http://www.w3.org/2000/svg"><defs><clipPath id="clipPath15265"><path d="m107.35 253.62v-21.501h24.273v-19.047h28.063v19.047h23.495v21.501z"/></clipPath><clipPath id="clipPath16889"><path d="m107.26 213.08h76.026v55.933h-76.026z"/></clipPath></defs><g transform="translate(90.517 14.402)"><g transform="matrix(.35278 0 0 -.35278 -128.36 80.499)"><g clip-path="url(#clipPath15265)"><g transform="translate(340.68 36.848)"><path d="m0 0c0-0.449-0.361-0.812-0.808-0.812h-388.53c-0.448 0-0.81 0.363-0.81 0.812v214.49c0 0.448 0.362 0.81 0.81 0.81h388.53c0.447 0 0.808-0.362 0.808-0.81z" fill="#dcdcdc"/><path d="m0 0c0-0.449-0.361-0.812-0.808-0.812h-388.53c-0.448 0-0.81 0.363-0.81 0.812v214.49c0 0.448 0.362 0.81 0.81 0.81h388.53c0.447 0 0.808-0.362 0.808-0.81z" fill="none" stroke="#000" stroke-miterlimit="10" stroke-width=".75"/></g><g transform="translate(339.09 37.822)"><path d="m0 0h-386.92v212.61h386.92z" fill="none" stroke="#000" stroke-miterlimit="10" stroke-width=".25"/></g><g transform="translate(150.51 233.12)"><path d="m0 0v0.583h1.013v0.281h-1.013v0.532h1.095v0.305h-1.441v-2.007h1.461v0.306z"/></g><g transform="translate(149.47 233.9)"><path d="m0 0c-0.068 0.02-0.176 0.048-0.32 0.086-0.145 0.039-0.232 0.062-0.264 0.07-0.074 0.019-0.133 0.051-0.176 0.093s-0.065 0.098-0.065 0.169c5e-3 0.102 0.046 0.171 0.124 0.209 0.077 0.04 0.16 0.058 0.246 0.057 0.125 0 0.226-0.026 0.304-0.081 0.079-0.057 0.124-0.149 0.133-0.278h0.348c-5e-3 0.21-0.081 0.37-0.226 0.478-0.147 0.108-0.327 0.162-0.545 0.162-0.19 1e-3 -0.356-0.047-0.5-0.144-0.148-0.095-0.223-0.244-0.231-0.446-2e-3 -0.107 0.029-0.208 0.092-0.302 0.064-0.092 0.18-0.163 0.348-0.213 0.137-0.037 0.255-0.068 0.353-0.092s0.181-0.048 0.25-0.076c0.044-0.014 0.082-0.041 0.116-0.078 0.034-0.038 0.051-0.094 0.052-0.171 2e-3 -0.082-0.03-0.151-0.097-0.213-0.066-0.061-0.176-0.092-0.332-0.096-0.146-1e-3 -0.265 0.033-0.363 0.101-0.095 0.068-0.147 0.18-0.151 0.335h-0.345c9e-3 -0.248 0.092-0.431 0.248-0.547 0.156-0.115 0.353-0.172 0.589-0.17 0.21-2e-3 0.391 0.045 0.551 0.145 0.157 0.099 0.239 0.26 0.248 0.483 0 0.109-0.033 0.212-0.095 0.308-0.065 0.098-0.161 0.169-0.292 0.211"/></g><g transform="translate(147.39 233.28)"><path d="m0 0h-7e-3l-0.392 1.535h-0.361l-0.403-1.535h-6e-3l-0.362 1.535h-0.356l0.528-2.009h0.363l0.408 1.537h6e-3l0.4-1.537h0.357l0.554 2.009h-0.358z"/></g><g transform="translate(144.86 233.28)"><path d="m0 0c-0.096-0.153-0.252-0.233-0.467-0.242-0.215 9e-3 -0.373 0.089-0.469 0.242-0.097 0.152-0.144 0.33-0.143 0.534-1e-3 0.202 0.046 0.381 0.143 0.533 0.096 0.152 0.254 0.232 0.469 0.241 0.215-9e-3 0.371-0.089 0.467-0.241 0.098-0.152 0.146-0.331 0.146-0.533 0-0.204-0.048-0.382-0.146-0.534m-0.467 1.59c-0.304-9e-3 -0.541-0.112-0.706-0.311-0.167-0.199-0.251-0.447-0.254-0.745 3e-3 -0.299 0.087-0.548 0.254-0.746 0.165-0.2 0.402-0.303 0.706-0.311 0.305 8e-3 0.54 0.111 0.707 0.311 0.165 0.198 0.251 0.447 0.252 0.746-1e-3 0.298-0.087 0.546-0.252 0.745-0.167 0.199-0.402 0.302-0.707 0.311"/></g><g transform="translate(142.76 233.98)"><path d="m0 0c-0.059-0.055-0.143-0.083-0.253-0.083h-0.574v0.635h0.568c0.093 3e-3 0.173-0.017 0.243-0.059 0.067-0.041 0.102-0.125 0.104-0.252 0-0.106-0.029-0.188-0.088-0.241m0.409-0.647c-4e-3 0.154-0.04 0.263-0.105 0.324-0.064 0.061-0.128 0.094-0.192 0.099v6e-3c0.038 7e-3 0.099 0.046 0.185 0.118 0.082 0.071 0.127 0.204 0.138 0.392 0 0.172-0.054 0.306-0.165 0.399-0.111 0.094-0.275 0.141-0.493 0.142h-0.953v-2.009h0.349v0.827h0.514c0.16 1e-3 0.266-0.043 0.323-0.128 0.056-0.086 0.082-0.221 0.078-0.404 0-0.049 2e-3 -0.1 7e-3 -0.152 7e-3 -0.05 0.02-0.098 0.047-0.143h0.378c-0.039 0.044-0.067 0.112-0.085 0.207-0.017 0.095-0.026 0.202-0.026 0.322"/></g><g transform="translate(140.82 233.18)"><path d="m0 0c-0.057-0.056-0.14-0.083-0.246-0.084h-0.621v0.634h0.621c0.106-1e-3 0.189-0.028 0.246-0.082 0.06-0.053 0.088-0.13 0.088-0.23 0-0.104-0.028-0.183-0.088-0.238m-0.867 1.361h0.572c0.096 1e-3 0.168-0.019 0.219-0.063 0.05-0.042 0.076-0.113 0.076-0.214-4e-3 -0.091-0.032-0.16-0.086-0.208-0.054-0.047-0.125-0.073-0.209-0.073h-0.572zm0.93-0.648v6e-3c0.091 0.04 0.16 0.095 0.209 0.168 0.048 0.073 0.073 0.16 0.073 0.262-3e-3 0.166-0.057 0.289-0.162 0.372-0.105 0.082-0.248 0.122-0.429 0.122h-0.967v-2.009h0.914c0.257 3e-3 0.445 0.056 0.561 0.16 0.117 0.102 0.176 0.236 0.174 0.397-2e-3 0.14-0.033 0.255-0.096 0.345-0.065 0.091-0.156 0.151-0.277 0.177"/></g><g transform="translate(148.38 214.41)"><path d="m0 0-3e-3 5e-3 -0.52 0.758-0.218-0.216v-0.547h-0.296v1.628h0.296v-0.717l0.701 0.717h0.376l-0.653-0.652 0.693-0.976zm-2.339 0.394c0.076-0.119 0.199-0.183 0.365-0.188 0.123 2e-3 0.217 0.042 0.284 0.119 0.067 0.079 0.105 0.178 0.117 0.296l1e-3 0.01h0.298l-4e-3 -0.011c-0.014-0.199-0.084-0.361-0.207-0.478-0.123-0.119-0.287-0.18-0.485-0.183-0.245 7e-3 -0.44 0.091-0.574 0.252-0.135 0.161-0.205 0.363-0.205 0.604 0 0.239 0.07 0.442 0.205 0.602 0.134 0.162 0.329 0.246 0.574 0.252 0.19-2e-3 0.348-0.05 0.473-0.146 0.126-0.095 0.201-0.233 0.223-0.412v-0.01h-0.298l-2e-3 7e-3c-0.023 0.093-0.064 0.169-0.128 0.226-0.063 0.058-0.154 0.088-0.272 0.089-0.166-6e-3 -0.289-0.069-0.365-0.188-0.075-0.119-0.115-0.262-0.115-0.42 0-0.16 0.04-0.302 0.115-0.421m-0.772-0.394-0.15 0.424h-0.629l-0.15-0.424h-0.311l2e-3 0.014 0.621 1.613h0.313l4e-3 -5e-3 0.624-1.622zm-1.503 0.131c-0.095-0.083-0.248-0.128-0.454-0.131h-0.744v1.628h0.788c0.145 0 0.262-0.034 0.347-0.099 0.086-0.067 0.131-0.172 0.132-0.306 0-0.083-0.02-0.156-0.059-0.215-0.037-0.054-0.088-0.097-0.153-0.129 0.09-0.025 0.16-0.072 0.207-0.14 0.051-0.074 0.078-0.169 0.078-0.281 2e-3 -0.133-0.045-0.243-0.142-0.327m5.991 1.912h-8.278c-0.116 0-0.162-0.048-0.162-0.162v-2.105c0-0.115 0.046-0.163 0.162-0.163h8.278c0.114 0 0.162 0.048 0.162 0.163v2.105c0 0.114-0.048 0.162-0.162 0.162"/></g><g transform="translate(143.47 215.42)"><path d="m0 0c0.041 0.036 0.063 0.09 0.063 0.159 0 0.077-0.02 0.133-0.056 0.163-0.038 0.033-0.095 0.048-0.167 0.048h-0.447v-0.425h0.447c0.064 1e-3 0.119 0.019 0.16 0.055"/></g><g transform="translate(144.57 215.07)"><path d="m0 0h0.461l-0.229 0.662z"/></g><g transform="translate(143.35 215.14)"><path d="M 0,0 H -0.484 V -0.487 H 0 c 0.082,0.001 0.148,0.023 0.191,0.064 0.045,0.043 0.067,0.104 0.067,0.183 0,0.077 -0.022,0.136 -0.067,0.177 C 0.148,-0.022 0.082,0 0,0"/></g><g transform="translate(175.44 243.25)"><path d="m0 0c-0.094-0.133-0.271-0.204-0.537-0.208h-0.343v1.441h0.343c0.266-5e-3 0.443-0.073 0.537-0.208 0.091-0.133 0.132-0.305 0.126-0.512 6e-3 -0.209-0.035-0.38-0.126-0.513m0.268 1.224c-0.144 0.188-0.366 0.286-0.671 0.293h-0.829v-2.009h0.829c0.305 7e-3 0.527 0.104 0.671 0.294 0.142 0.188 0.211 0.425 0.21 0.711 1e-3 0.283-0.068 0.521-0.21 0.711"/></g><g transform="translate(172.74 243.56)"><path d="m0 0 0.304 0.863h9e-3l0.299-0.863zm0.124 1.21-0.77-2.009h0.363l0.188 0.531h0.801l0.189-0.531h0.376l-0.772 2.009z"/></g><g transform="translate(171.51 243.24)"><path d="m0 0c-0.096-0.151-0.251-0.229-0.461-0.238-0.213 9e-3 -0.366 0.087-0.465 0.238-0.095 0.149-0.143 0.324-0.141 0.525-2e-3 0.199 0.046 0.373 0.141 0.523 0.099 0.151 0.252 0.229 0.465 0.238 0.21-9e-3 0.365-0.087 0.461-0.238 0.099-0.15 0.146-0.324 0.144-0.523 2e-3 -0.201-0.045-0.376-0.144-0.525m-0.461 1.569c-0.302-7e-3 -0.533-0.111-0.701-0.309-0.171-0.199-0.253-0.444-0.255-0.735 2e-3 -0.296 0.084-0.542 0.255-0.739 0.168-0.197 0.399-0.299 0.701-0.307 0.3 8e-3 0.531 0.11 0.699 0.307s0.254 0.443 0.256 0.739c-2e-3 0.291-0.088 0.536-0.256 0.735-0.168 0.198-0.399 0.302-0.699 0.309"/></g><g transform="translate(168.93 244.77)"><path d="m0 0h-0.351v-2.009h1.372v0.297h-1.021z"/></g><g transform="translate(116.32 244.77)"><path d="m0 0h-0.351v-2.009h1.371v0.297h-1.02z"/></g><g transform="translate(118.89 243.24)"><path d="m0 0c-0.097-0.151-0.252-0.229-0.465-0.238-0.21 9e-3 -0.365 0.087-0.461 0.238-0.095 0.149-0.142 0.324-0.142 0.525 0 0.199 0.047 0.373 0.142 0.523 0.096 0.151 0.251 0.229 0.461 0.238 0.213-9e-3 0.368-0.087 0.465-0.238 0.096-0.15 0.145-0.324 0.143-0.523 2e-3 -0.201-0.047-0.376-0.143-0.525m-0.465 1.569c-0.297-7e-3 -0.531-0.111-0.699-0.309-0.168-0.199-0.252-0.444-0.254-0.735 2e-3 -0.296 0.086-0.542 0.254-0.739s0.402-0.299 0.699-0.307c0.303 8e-3 0.537 0.11 0.703 0.307 0.168 0.197 0.253 0.443 0.256 0.739-3e-3 0.291-0.088 0.536-0.256 0.735-0.166 0.198-0.4 0.302-0.703 0.309"/></g><g transform="translate(120.12 243.56)"><path d="m0 0 0.305 0.863h8e-3l0.299-0.863zm0.125 1.21-0.771-2.009h0.363l0.189 0.531h0.799l0.189-0.531h0.376l-0.772 2.009z"/></g><g transform="translate(122.82 243.25)"><path d="m0 0c-0.092-0.133-0.271-0.204-0.538-0.208h-0.343v1.441h0.343c0.267-5e-3 0.446-0.073 0.538-0.208 0.091-0.133 0.132-0.305 0.127-0.512 5e-3 -0.209-0.036-0.38-0.127-0.513m0.268 1.224c-0.141 0.188-0.366 0.286-0.672 0.293h-0.828v-2.009h0.828c0.306 7e-3 0.531 0.104 0.672 0.294 0.142 0.188 0.211 0.425 0.21 0.711 1e-3 0.283-0.068 0.521-0.21 0.711"/></g><g transform="translate(115.95 230.27)"><path d="m0 0h0.636v-1.711h0.35v1.711h0.637v0.297h-1.623z"/></g><g transform="translate(118.17 229.66)"><path d="m0 0v0.628h0.566c0.094 3e-3 0.173-0.016 0.241-0.056 0.067-0.042 0.103-0.125 0.105-0.252-2e-3 -0.213-0.115-0.32-0.34-0.32zm0.832-0.396c0.055-0.085 0.082-0.221 0.078-0.405 0-0.05 0-0.101 6e-3 -0.153 7e-3 -0.051 0.022-0.099 0.047-0.144h0.382c-0.04 0.043-0.067 0.113-0.083 0.207-0.018 0.097-0.028 0.204-0.028 0.325-5e-3 0.155-0.041 0.262-0.105 0.325-0.065 0.062-0.131 0.095-0.195 0.1v6e-3c0.043 6e-3 0.105 0.045 0.189 0.117 0.083 0.071 0.129 0.201 0.141 0.39-1e-3 0.17-0.057 0.303-0.167 0.397s-0.275 0.142-0.494 0.142h-0.955v-2.009h0.352v0.83h0.514c0.157 1e-3 0.262-0.041 0.318-0.128"/></g><path d="m119.81 228.56h0.352v2.009h-0.352z"/><g transform="translate(121.77 228.56)"><path d="m0 0 0.559 1.549h5e-3v-1.549h0.336v2.009h-0.49l-0.541-1.576h-4e-3l-0.556 1.576h-0.497v-2.009h0.336v1.549h4e-3l0.559-1.549z"/></g><g transform="translate(174.38 228.56)"><path d="m0 0 0.558 1.549h4e-3v-1.549h0.335v2.009h-0.489l-0.54-1.576h-7e-3l-0.555 1.576h-0.495v-2.009h0.336v1.549h4e-3l0.559-1.549z"/></g><path d="m172.42 228.56h0.351v2.009h-0.351z"/><g transform="translate(170.79 229.66)"><path d="m0 0v0.628h0.565c0.096 3e-3 0.174-0.016 0.243-0.056 0.067-0.042 0.102-0.125 0.104-0.252-1e-3 -0.213-0.113-0.32-0.34-0.32zm0.833-0.396c0.056-0.085 0.082-0.221 0.078-0.405-1e-3 -0.05 1e-3 -0.101 6e-3 -0.153 7e-3 -0.051 0.021-0.099 0.047-0.144h0.382c-0.038 0.043-0.066 0.113-0.084 0.207-0.02 0.097-0.027 0.204-0.027 0.325-5e-3 0.155-0.04 0.262-0.104 0.325-0.067 0.062-0.131 0.095-0.196 0.1v6e-3c0.041 6e-3 0.105 0.045 0.189 0.117 0.084 0.071 0.13 0.201 0.139 0.39 0 0.17-0.055 0.303-0.164 0.397-0.113 0.094-0.276 0.142-0.495 0.142h-0.955v-2.009h0.351v0.83h0.515c0.157 1e-3 0.263-0.041 0.318-0.128"/></g><g transform="translate(168.57 230.27)"><path d="m0 0h0.636v-1.711h0.351v1.711h0.638v0.297h-1.625z"/></g><g transform="translate(121.16 223.74)"><path d="m0 0c0.065-0.129 0.151-0.213 0.28-0.276" fill="none" stroke="#000" stroke-linecap="round" stroke-linejoin="round" stroke-width=".25"/></g><g transform="translate(115.73 220.11)"><path d="m0 0c0.49 0.368 0.722 0.771 0.798 1.376" fill="none" stroke="#000" stroke-linecap="round" stroke-linejoin="round" stroke-width=".25"/></g><g transform="translate(119.56 222.44)"><path d="m0 0h-0.487" fill="none" stroke="#000" stroke-linecap="round" stroke-linejoin="round" stroke-width=".25"/></g><g transform="translate(119.07 222.44)"><path d="m0 0h-0.201" fill="none" stroke="#000" stroke-linecap="round" stroke-linejoin="round" stroke-width=".25"/></g><g transform="translate(119.56 222.44)"><path d="m0 0h0.202" fill="none" stroke="#000" stroke-linecap="round" stroke-linejoin="round" stroke-width=".25"/></g><g transform="translate(118.87 218.96)"><path d="m0 0c0-0.243 0.201-0.444 0.445-0.444s0.446 0.201 0.446 0.444" fill="none" stroke="#000" stroke-linecap="round" stroke-linejoin="round" stroke-width=".25"/></g><g transform="translate(118.87 223.49)"><path d="m0 0v-1.046" fill="none" stroke="#000" stroke-linecap="round" stroke-linejoin="round" stroke-width=".25"/></g><g transform="translate(118.87 222.44)"><path d="m0 0v-3.485" fill="none" stroke="#000" stroke-linecap="round" stroke-linejoin="round" stroke-width=".25"/></g><g transform="translate(118.87 223.61)" fill="none" stroke="#000" stroke-linecap="round" stroke-linejoin="round" stroke-width=".25"><path d="m0 0v0.352"/><path d="m0 0v-0.043"/></g><g transform="translate(119.07 224.42)"><path d="m0 0c-0.076 0-0.123-0.026-0.164-0.086" fill="none" stroke="#000" stroke-linecap="round" stroke-linejoin="round" stroke-width=".25"/></g><g transform="translate(119.56 224.42)"><path d="m0 0h-0.487" fill="none" stroke="#000" stroke-linecap="round" stroke-linejoin="round" stroke-width=".25"/></g><g transform="translate(119.72 224.34)"><path d="m0 0c-0.041 0.063-0.089 0.086-0.165 0.086" fill="none" stroke="#000" stroke-linecap="round" stroke-linejoin="round" stroke-width=".25"/></g><g transform="translate(119.76 223.49)"><path d="m0 0v-1.046" fill="none" stroke="#000" stroke-linecap="round" stroke-linejoin="round" stroke-width=".25"/></g><g transform="translate(119.76 222.44)"><path d="m0 0v-3.485" fill="none" stroke="#000" stroke-linecap="round" stroke-linejoin="round" stroke-width=".25"/></g><g transform="translate(119.76 223.61)" fill="none" stroke="#000" stroke-linecap="round" stroke-linejoin="round" stroke-width=".25"><path d="m0 0v0.352"/><path d="m0 0v-0.043"/></g><g transform="translate(116.58 222.24)"><path d="m0 0c0.059-0.165 0.129-0.325 0.201-0.484" fill="none" stroke="#000" stroke-linecap="round" stroke-linejoin="round" stroke-width=".25"/></g><g transform="translate(115.31 220.43)"><path d="m0 0c0.138-0.111 0.277-0.216 0.421-0.316" fill="none" stroke="#000" stroke-linecap="round" stroke-linejoin="round" stroke-width=".25"/></g><g transform="translate(116.53 221.49)"><path d="m0 0c-0.162 0.073-0.321 0.143-0.483 0.203" fill="none" stroke="#000" stroke-linecap="round" stroke-linejoin="round" stroke-width=".25"/></g><g transform="translate(115.11 218.23)"><path d="m0 0c0.172-0.028 0.347-0.05 0.521-0.065" fill="none" stroke="#000" stroke-linecap="round" stroke-linejoin="round" stroke-width=".25"/></g><g transform="translate(115.63 219.76)"><path d="m0 0c-0.175-0.015-0.35-0.039-0.52-0.065" fill="none" stroke="#000" stroke-linecap="round" stroke-linejoin="round" stroke-width=".25"/></g><g transform="translate(116.04 216.23)"><path d="m0 0c0.162 0.061 0.321 0.129 0.483 0.2" fill="none" stroke="#000" stroke-linecap="round" stroke-linejoin="round" stroke-width=".25"/></g><g transform="translate(115.73 217.81)"><path d="m0 0c-0.144-0.101-0.283-0.208-0.421-0.317" fill="none" stroke="#000" stroke-linecap="round" stroke-linejoin="round" stroke-width=".25"/></g><g transform="translate(117.85 214.96)"><path d="m0 0c0.107 0.134 0.213 0.273 0.316 0.416" fill="none" stroke="#000" stroke-linecap="round" stroke-linejoin="round" stroke-width=".25"/></g><g transform="translate(116.79 216.17)"><path d="m0 0c-0.072-0.158-0.143-0.323-0.201-0.484" fill="none" stroke="#000" stroke-linecap="round" stroke-linejoin="round" stroke-width=".25"/></g><g transform="translate(120.05 214.76)"><path d="m0 0c0.025 0.172 0.047 0.344 0.063 0.521" fill="none" stroke="#000" stroke-linecap="round" stroke-linejoin="round" stroke-width=".25"/></g><g transform="translate(118.52 215.28)"><path d="m0 0c0.017-0.177 0.038-0.349 0.065-0.521" fill="none" stroke="#000" stroke-linecap="round" stroke-linejoin="round" stroke-width=".25"/></g><g transform="translate(122.05 215.68)"><path d="m0 0c-0.06 0.161-0.129 0.326-0.204 0.484" fill="none" stroke="#000" stroke-linecap="round" stroke-linejoin="round" stroke-width=".25"/></g><g transform="translate(120.47 215.37)"><path d="m0 0c0.099-0.143 0.203-0.282 0.316-0.416" fill="none" stroke="#000" stroke-linecap="round" stroke-linejoin="round" stroke-width=".25"/></g><g transform="translate(123.32 217.49)"><path d="m0 0c-0.137 0.109-0.276 0.216-0.418 0.317" fill="none" stroke="#000" stroke-linecap="round" stroke-linejoin="round" stroke-width=".25"/></g><g transform="translate(122.11 216.43)"><path d="m0 0c0.163-0.071 0.32-0.139 0.485-0.2" fill="none" stroke="#000" stroke-linecap="round" stroke-linejoin="round" stroke-width=".25"/></g><g transform="translate(123.52 219.69)"><path d="m0 0c-0.173 0.026-0.345 0.05-0.521 0.065" fill="none" stroke="#000" stroke-linecap="round" stroke-linejoin="round" stroke-width=".25"/></g><g transform="translate(123 218.16)"><path d="m0 0c0.176 0.016 0.348 0.037 0.521 0.065" fill="none" stroke="#000" stroke-linecap="round" stroke-linejoin="round" stroke-width=".25"/></g><g transform="translate(121.84 221.75)"><path d="m0 0c0.075 0.159 0.145 0.319 0.204 0.484" fill="none" stroke="#000" stroke-linecap="round" stroke-linejoin="round" stroke-width=".25"/></g><g transform="translate(120.35 222.73)"><path d="m0 0c0.365-0.612 0.793-0.892 1.499-0.978" fill="none" stroke="#000" stroke-linecap="round" stroke-linejoin="round" stroke-width=".25"/></g><g transform="translate(122.11 221.49)"><path d="m0 0c-0.082 0.092-0.166 0.18-0.261 0.262" fill="none" stroke="#000" stroke-linecap="round" stroke-linejoin="round" stroke-width=".25"/></g><g transform="translate(123 219.76)" fill="none" stroke="#000" stroke-linecap="round" stroke-linejoin="round" stroke-width=".25"><path d="m0 0c-0.024 0.121-0.059 0.237-0.094 0.357"/><path d="m0 0c-0.238-0.563-0.238-1.029 0-1.591"/></g><g transform="translate(122.9 217.81)" fill="none" stroke="#000" stroke-linecap="round" stroke-linejoin="round" stroke-width=".25"><path d="m0 0c0.035 0.116 0.069 0.237 0.094 0.356"/><path d="m0 0c-0.49-0.368-0.722-0.772-0.799-1.381"/></g><g transform="translate(121.84 216.17)" fill="none" stroke="#000" stroke-linecap="round" stroke-linejoin="round" stroke-width=".25"><path d="m0 0c0.095 0.083 0.181 0.169 0.261 0.259"/><path d="m0 0c-0.604-0.075-1.008-0.307-1.375-0.796"/></g><g transform="translate(120.11 215.28)" fill="none" stroke="#000" stroke-linecap="round" stroke-linejoin="round" stroke-width=".25"><path d="m0 0c0.121 0.026 0.24 0.056 0.358 0.094"/><path d="m0 0c-0.562 0.238-1.027 0.238-1.591 0"/></g><g transform="translate(118.17 215.37)" fill="none" stroke="#000" stroke-linecap="round" stroke-linejoin="round" stroke-width=".25"><path d="m0 0c0.113-0.038 0.235-0.068 0.354-0.094"/><path d="m0 0c-0.369 0.489-0.773 0.721-1.381 0.796"/></g><g transform="translate(116.53 216.43)" fill="none" stroke="#000" stroke-linecap="round" stroke-linejoin="round" stroke-width=".25"><path d="m0 0c0.08-0.089 0.168-0.176 0.258-0.259"/><path d="m0 0c-0.076 0.608-0.308 1.013-0.798 1.381"/></g><g transform="translate(115.63 218.16)"><path d="m0 0c0.025-0.119 0.057-0.24 0.095-0.356" fill="none" stroke="#000" stroke-linecap="round" stroke-linejoin="round" stroke-width=".25"/></g><g transform="translate(115.73 220.11)"><path d="m0 0c-0.038-0.12-0.069-0.237-0.095-0.357" fill="none" stroke="#000" stroke-linecap="round" stroke-linejoin="round" stroke-width=".25"/></g><g transform="translate(116.79 221.75)" fill="none" stroke="#000" stroke-linecap="round" stroke-linejoin="round" stroke-width=".25"><path d="m0 0c-0.09-0.082-0.178-0.17-0.258-0.262"/><path d="m0 0c0.715 0.087 1.325 0.542 1.616 1.195"/></g><g transform="translate(122.11 221.49)"><path d="m0 0c0.077-0.606 0.309-1.009 0.799-1.376" fill="none" stroke="#000" stroke-linecap="round" stroke-linejoin="round" stroke-width=".25"/></g><g transform="translate(122.59 221.69)"><path d="m0 0c-0.165-0.061-0.322-0.131-0.485-0.204" fill="none" stroke="#000" stroke-linecap="round" stroke-linejoin="round" stroke-width=".25"/></g><g transform="translate(122.9 220.11)"><path d="m0 0c0.142 0.101 0.281 0.205 0.418 0.316" fill="none" stroke="#000" stroke-linecap="round" stroke-linejoin="round" stroke-width=".25"/></g><g transform="translate(123.07 222.01)"><path d="m0 0-0.335-0.208-0.143-0.111" fill="none" stroke="#000" stroke-linecap="round" stroke-linejoin="round" stroke-width=".25"/></g><g transform="translate(123.83 220.68)"><path d="m0 0-0.344-0.186-0.171-0.066" fill="none" stroke="#000" stroke-linecap="round" stroke-linejoin="round" stroke-width=".25"/></g><g transform="translate(124.09 219.73)"><path d="m0 0-0.39-0.015-0.18-0.022" fill="none" stroke="#000" stroke-linecap="round" stroke-linejoin="round" stroke-width=".25"/></g><g transform="translate(124.09 218.19)"><path d="m0 0-0.39 0.016-0.18 0.024" fill="none" stroke="#000" stroke-linecap="round" stroke-linejoin="round" stroke-width=".25"/></g><g transform="translate(123.83 217.24)"><path d="m0 0-0.344 0.185-0.171 0.068" fill="none" stroke="#000" stroke-linecap="round" stroke-linejoin="round" stroke-width=".25"/></g><g transform="translate(123.07 215.91)"><path d="m0 0-0.335 0.208-0.143 0.111" fill="none" stroke="#000" stroke-linecap="round" stroke-linejoin="round" stroke-width=".25"/></g><g transform="translate(122.37 215.21)"><path d="m0 0-0.206 0.333-0.111 0.142" fill="none" stroke="#000" stroke-linecap="round" stroke-linejoin="round" stroke-width=".25"/></g><g transform="translate(121.04 214.44)"><path d="m0 0-0.187 0.346-0.065 0.168" fill="none" stroke="#000" stroke-linecap="round" stroke-linejoin="round" stroke-width=".25"/></g><g transform="translate(120.08 214.18)"><path d="m0 0-0.015 0.394-0.021 0.179" fill="none" stroke="#000" stroke-linecap="round" stroke-linejoin="round" stroke-width=".25"/></g><g transform="translate(118.55 214.18)"><path d="m0 0 0.012 0.394 0.025 0.179" fill="none" stroke="#000" stroke-linecap="round" stroke-linejoin="round" stroke-width=".25"/></g><g transform="translate(117.59 214.44)"><path d="m0 0 0.187 0.346 0.07 0.168" fill="none" stroke="#000" stroke-linecap="round" stroke-linejoin="round" stroke-width=".25"/></g><g transform="translate(116.26 215.21)"><path d="m0 0 0.207 0.333 0.112 0.142" fill="none" stroke="#000" stroke-linecap="round" stroke-linejoin="round" stroke-width=".25"/></g><g transform="translate(115.57 215.91)"><path d="m0 0 0.334 0.208 0.144 0.111" fill="none" stroke="#000" stroke-linecap="round" stroke-linejoin="round" stroke-width=".25"/></g><g transform="translate(114.8 217.24)"><path d="m0 0 0.346 0.185 0.164 0.068" fill="none" stroke="#000" stroke-linecap="round" stroke-linejoin="round" stroke-width=".25"/></g><g transform="translate(114.54 218.19)"><path d="m0 0 0.393 0.016 0.179 0.024" fill="none" stroke="#000" stroke-linecap="round" stroke-linejoin="round" stroke-width=".25"/></g><g transform="translate(114.54 219.73)"><path d="m0 0 0.393-0.015 0.179-0.022" fill="none" stroke="#000" stroke-linecap="round" stroke-linejoin="round" stroke-width=".25"/></g><g transform="translate(114.8 220.68)"><path d="m0 0 0.346-0.186 0.164-0.066" fill="none" stroke="#000" stroke-linecap="round" stroke-linejoin="round" stroke-width=".25"/></g><g transform="translate(115.57 222.01)"><path d="m0 0 0.334-0.208 0.144-0.111" fill="none" stroke="#000" stroke-linecap="round" stroke-linejoin="round" stroke-width=".25"/></g><g transform="translate(120.23 222.95)" fill="none" stroke="#000" stroke-linecap="round" stroke-linejoin="round" stroke-width=".25"><path d="m0 0c0.033-0.075 0.068-0.148 0.111-0.218"/><path d="m0 0 0.449 0.208"/><path d="m0 0c-0.025 0.028-0.049 0.044-0.086 0.047"/></g><g transform="translate(119.76 223.49)"><path d="m0 0c0 0.026-4e-3 0.049-4e-3 0.075" fill="none" stroke="#000" stroke-linecap="round" stroke-linejoin="round" stroke-width=".25"/></g><g transform="translate(120.15 222.99)"><path d="m0 0c-0.127 0.02-0.254 0.034-0.385 0.043" fill="none" stroke="#000" stroke-linecap="round" stroke-linejoin="round" stroke-width=".25"/></g><g transform="translate(118.87 223.04)"><path d="m0 0c-0.129-9e-3 -0.256-0.024-0.385-0.043" fill="none" stroke="#000" stroke-linecap="round" stroke-linejoin="round" stroke-width=".25"/></g><g transform="translate(118.87 223.56)"><path d="m0 0c0-0.026-3e-3 -0.049-3e-3 -0.074" fill="none" stroke="#000" stroke-linecap="round" stroke-linejoin="round" stroke-width=".25"/></g><g transform="translate(118.49 222.99)"><path d="m0 0c-0.036-3e-3 -0.066-0.016-0.085-0.045" fill="none" stroke="#000" stroke-linecap="round" stroke-linejoin="round" stroke-width=".25"/></g><g transform="translate(118.4 222.95)"><path d="m0 0-0.45 0.208" fill="none" stroke="#000" stroke-linecap="round" stroke-linejoin="round" stroke-width=".25"/></g><g transform="translate(118.87 223.57)"><path d="m0 0c0-3e-3 0-6e-3 3e-3 -7e-3" fill="none" stroke="#000" stroke-linecap="round" stroke-linejoin="round" stroke-width=".25"/></g><g transform="translate(118.87 223.97)"><path d="m0 0v-1e-3" fill="none" stroke="#000" stroke-linecap="round" stroke-linejoin="round" stroke-width=".25"/></g><g transform="translate(118.87 224.24)"><path d="m0 0v-0.271" fill="none" stroke="#000" stroke-linecap="round" stroke-linejoin="round" stroke-width=".25"/></g><g transform="translate(119.76 224.24)"><path d="m0 0 4e-3 -0.271" fill="none" stroke="#000" stroke-linecap="round" stroke-linejoin="round" stroke-width=".25"/></g><g transform="translate(119.76 223.97)"><path d="m0 0v-1e-3" fill="none" stroke="#000" stroke-linecap="round" stroke-linejoin="round" stroke-width=".25"/></g><g transform="translate(116.26 222.71)"><path d="m0 0 0.207-0.333 0.112-0.141" fill="none" stroke="#000" stroke-linecap="round" stroke-linejoin="round" stroke-width=".25"/></g><g transform="translate(117.95 223.15)"><path d="m0 0-0.02 0.182-0.077 0.182-0.131 0.174" fill="none" stroke="#000" stroke-linecap="round" stroke-linejoin="round" stroke-width=".25"/></g><g transform="translate(120.68 223.15)"><path d="m0 0 0.018 0.182 0.077 0.182 0.132 0.174" fill="none" stroke="#000" stroke-linecap="round" stroke-linejoin="round" stroke-width=".25"/></g><g transform="translate(122.37 222.71)"><path d="m0 0-0.206-0.333-0.111-0.141" fill="none" stroke="#000" stroke-linecap="round" stroke-linejoin="round" stroke-width=".25"/></g><g transform="translate(116.97 223.26)"><path d="m0 0-0.193-0.113-0.187-0.126-0.21-0.169-0.062-0.065-0.039-0.046-8e-3 -0.015-3e-3 -9e-3v-7e-3" fill="none" stroke="#000" stroke-linecap="round" stroke-linejoin="round" stroke-width=".25"/></g><g transform="translate(117.18 223.36)"><path d="m0 0c0.137 0.061 0.221 0.146 0.283 0.286" fill="none" stroke="#000" stroke-linecap="round" stroke-linejoin="round" stroke-width=".25"/></g><g transform="translate(117.47 223.74)"><path d="m0 0-0.012-0.092" fill="none" stroke="#000" stroke-linecap="round" stroke-linejoin="round" stroke-width=".25"/></g><g transform="translate(117.46 223.64)"><path d="m0 0 4e-3 8e-3" fill="none" stroke="#000" stroke-linecap="round" stroke-linejoin="round" stroke-width=".25"/></g><g transform="translate(119.76 224.24)"><path d="m0 0c-2e-3 0.037-0.011 0.065-0.033 0.097" fill="none" stroke="#000" stroke-linecap="round" stroke-linejoin="round" stroke-width=".25"/></g><g transform="translate(118.91 224.34)"><path d="m0 0c-0.021-0.032-0.031-0.061-0.037-0.098" fill="none" stroke="#000" stroke-linecap="round" stroke-linejoin="round" stroke-width=".25"/></g><g transform="translate(118.87 224.24)"><path d="m0 0c-0.353-0.03-0.695-0.096-1.033-0.201" fill="none" stroke="#000" stroke-linecap="round" stroke-linejoin="round" stroke-width=".25"/></g><g transform="translate(117.83 224.04)"><path d="m0 0c-0.171-0.053-0.276-0.141-0.358-0.301" fill="none" stroke="#000" stroke-linecap="round" stroke-linejoin="round" stroke-width=".25"/></g><g transform="translate(117.19 223.46)"><path d="m0 0c0.131 0.063 0.216 0.147 0.279 0.276" fill="none" stroke="#000" stroke-linecap="round" stroke-linejoin="round" stroke-width=".25"/></g><g transform="translate(120.8 224.04)"><path d="m0 0c-0.341 0.104-0.683 0.171-1.042 0.201" fill="none" stroke="#000" stroke-linecap="round" stroke-linejoin="round" stroke-width=".25"/></g><g transform="translate(117.18 223.36)"><path d="m0 0c-0.072-0.032-0.141-0.064-0.209-0.1" fill="none" stroke="#000" stroke-linecap="round" stroke-linejoin="round" stroke-width=".25"/></g><g transform="translate(117.46 223.65)"><path d="m0 0 0.216 0.043 0.033-2e-3h0.012v-1e-3" fill="none" stroke="#000" stroke-linecap="round" stroke-linejoin="round" stroke-width=".25"/></g><g transform="translate(121.17 223.64)"><path d="m0 0-0.013 0.092" fill="none" stroke="#000" stroke-linecap="round" stroke-linejoin="round" stroke-width=".25"/></g><g transform="translate(121.16 223.74)"><path d="m0 0c-0.083 0.16-0.19 0.249-0.359 0.301" fill="none" stroke="#000" stroke-linecap="round" stroke-linejoin="round" stroke-width=".25"/></g><g transform="translate(121.46 223.36)"><path d="m0 0 0.252-0.125 0.244-0.147 0.179-0.134 0.17-0.149 0.048-0.058 0.015-0.017 2e-3 -0.011-1e-3 -8e-3" fill="none" stroke="#000" stroke-linecap="round" stroke-linejoin="round" stroke-width=".25"/></g><g transform="translate(121.17 223.64)"><path d="m0 0-3e-3 8e-3" fill="none" stroke="#000" stroke-linecap="round" stroke-linejoin="round" stroke-width=".25"/></g><g transform="translate(121.11 223.67)" fill="none" stroke="#000" stroke-linecap="round" stroke-linejoin="round" stroke-width=".25"><path d="m0 0 0.063-0.018"/><path d="m0 0-0.166 0.025-0.024-2e-3 -8e-3 -1e-3"/></g><g transform="translate(118.55 214.18)"><path d="m0 0 1e-3 -5e-3 5e-3 -3e-3 6e-3 -4e-3 0.031-0.014 0.109-0.034 0.285-0.046 0.288-0.019 0.236 8e-3 0.23 0.022 0.233 0.046 0.076 0.025 0.025 0.013 8e-3 6e-3 3e-3 5e-3" fill="none" stroke="#000" stroke-linecap="round" stroke-linejoin="round" stroke-width=".25"/></g><g transform="translate(123.83 220.68)"><path d="m0 0 6e-3 6e-3v0.044l-0.028 0.115-0.101 0.268-0.129 0.256-0.122 0.202-0.137 0.191-0.157 0.176-0.054 0.053-0.032 0.017-2e-3 2e-3h-9e-3" fill="none" stroke="#000" stroke-linecap="round" stroke-linejoin="round" stroke-width=".25"/></g><g transform="translate(116.26 215.21)"><path d="m0 0v-8e-3l3e-3 -4e-3v-7e-3l0.02-0.026 0.08-0.083 0.222-0.184 0.24-0.158 0.206-0.113 0.216-0.096 0.219-0.076 0.076-0.016 0.035-3e-3 5e-3 3e-3 6e-3 5e-3" fill="none" stroke="#000" stroke-linecap="round" stroke-linejoin="round" stroke-width=".25"/></g><g transform="translate(123.07 215.91)"><path d="m0 0h0.011l5e-3 3e-3 0.029 0.019 0.084 0.081 0.184 0.22 0.156 0.242 0.111 0.206 0.1 0.212 0.074 0.222 0.017 0.079v0.037l-6e-3 8e-3" fill="none" stroke="#000" stroke-linecap="round" stroke-linejoin="round" stroke-width=".25"/></g><g transform="translate(114.8 217.24)"><path d="m0 0-4e-3 -4e-3v-8e-3l-3e-3 -6e-3 5e-3 -0.031 0.025-0.116 0.1-0.27 0.127-0.255 0.126-0.203 0.134-0.19 0.158-0.174 0.058-0.053 0.026-0.017 8e-3 -2e-3h8e-3" fill="none" stroke="#000" stroke-linecap="round" stroke-linejoin="round" stroke-width=".25"/></g><g transform="translate(114.54 219.73)"><path d="m0 0-5e-3 -3e-3 -5e-3 -4e-3 -6e-3 -8e-3 -0.011-0.027-0.034-0.112-0.046-0.284-0.02-0.285 8e-3 -0.236 0.024-0.235 0.046-0.23 0.024-0.074 0.013-0.028 0.012-0.012" fill="none" stroke="#000" stroke-linecap="round" stroke-linejoin="round" stroke-width=".25"/></g><g transform="translate(121.67 214.66)" fill="none" stroke="#000" stroke-linecap="round" stroke-linejoin="round" stroke-width=".25"><path d="m0 0 0.191 0.112 0.189 0.125 0.208 0.171 0.064 0.065 0.037 0.046 0.01 0.015 2e-3 7e-3 -1e-3 8e-3"/><path d="m0 0-0.183-0.09-0.183-0.072-0.128-0.041-0.066-0.014-0.044-8e-3h-0.013l-6e-3 3e-3 -5e-3 5e-3"/></g><g transform="translate(115.57 222.01)"><path d="m0 0h-0.012l-6e-3 -4e-3 -0.029-0.018-0.082-0.079-0.187-0.224-0.156-0.238-0.114-0.208-0.096-0.215-0.074-0.222-0.015-0.076-3e-3 -0.032 3e-3 -6e-3 3e-3 -8e-3" fill="none" stroke="#000" stroke-linecap="round" stroke-linejoin="round" stroke-width=".25"/></g><g transform="translate(124.09 218.19)"><path d="m0 0 6e-3 4e-3 5e-3 4e-3 3e-3 8e-3 0.01 0.027 0.036 0.114 0.049 0.282 0.019 0.287-8e-3 0.235-0.023 0.235-0.045 0.229-0.028 0.075-0.013 0.026-5e-3 5e-3 -6e-3 7e-3" fill="none" stroke="#000" stroke-linecap="round" stroke-linejoin="round" stroke-width=".25"/></g><g transform="translate(117.19 223.46)"><path d="m0 0c-2.107-0.994-3.241-3.317-2.732-5.591 0.507-2.273 2.525-3.888 4.857-3.888 2.33 0 4.348 1.615 4.858 3.888 0.511 2.274-0.626 4.597-2.731 5.591" fill="none" stroke="#000" stroke-linecap="round" stroke-linejoin="round" stroke-width=".25"/></g><g transform="translate(115.63 218.16)"><path d="m0 0c0.239 0.562 0.239 1.029 0 1.591" fill="none" stroke="#000" stroke-linecap="round" stroke-linejoin="round" stroke-width=".25"/></g><g transform="translate(125.38 218.96)"><path d="m0 0c0 3.355-2.716 6.072-6.068 6.072s-6.071-2.717-6.071-6.072c0-3.353 2.719-6.071 6.071-6.071s6.068 2.718 6.068 6.071z" fill="none" stroke="#000" stroke-linecap="round" stroke-linejoin="round" stroke-width=".25"/></g><g transform="translate(121.17 223.64)"><path d="m0 0c0.06-0.14 0.146-0.225 0.282-0.286" fill="none" stroke="#000" stroke-linecap="round" stroke-linejoin="round" stroke-width=".25"/></g><g transform="translate(123.46 212.23)"><path d="m0 0c-0.648 1.124-1.296 2.244-1.943 3.367-0.116-0.074-0.233-0.143-0.353-0.202 0.648-1.121 1.298-2.247 1.948-3.37 0.011-0.018 0.027-0.038 0.037-0.055 0.036-0.048 0.07-0.068 0.127-0.059 0.039 6e-3 0.075 0.018 0.111 0.04 0.022 0.014 0.04 0.03 0.059 0.045 0.049 0.029 0.065 0.067 0.056 0.124-7e-3 0.041-0.02 0.076-0.042 0.11"/></g><g transform="translate(117.12 215.61)"><path d="m0 0c-0.648-1.125-1.298-2.25-1.948-3.374-0.023-0.034-0.034-0.069-0.038-0.11-8e-3 -0.057 6e-3 -0.094 0.052-0.124 0.022-0.014 0.041-0.031 0.059-0.044 0.034-0.022 0.071-0.035 0.113-0.038 0.061-0.011 0.094 8e-3 0.124 0.057 0.015 0.017 0.027 0.036 0.041 0.055 0.652 1.127 1.299 2.252 1.949 3.377-0.122 0.06-0.241 0.127-0.352 0.201"/></g><g transform="translate(112.04 222.97)"><path d="m0 0c8e-3 -0.221 0.186-0.397 0.406-0.404 0.223 0 0.405 0.179 0.405 0.404-7e-3 0.22-0.184 0.396-0.405 0.405-0.226 0-0.406-0.181-0.406-0.405"/></g><g transform="translate(110.98 219)"><path d="M 0,0 C 0,-0.223 0.18,-0.405 0.402,-0.405 0.621,-0.396 0.8,-0.22 0.809,0 0.809,0.224 0.625,0.403 0.402,0.403 0.185,0.397 0.008,0.221 0,0"/></g><g transform="translate(112.45 214.64)"><path d="M 0,0 C 0.221,0.006 0.397,0.183 0.404,0.404 0.404,0.629 0.223,0.81 0,0.81 -0.221,0.802 -0.398,0.624 -0.406,0.404 -0.406,0.18 -0.227,0 0,0"/></g><g transform="translate(123.69 225.87)"><path d="m0 0c-7e-3 0.219-0.186 0.398-0.404 0.405-0.224 0-0.404-0.18-0.404-0.405 8e-3 -0.221 0.186-0.397 0.404-0.404 0.223 0 0.404 0.181 0.404 0.404"/></g><g transform="translate(119.85 226.91)"><path d="m0 0c-8e-3 0.221-0.187 0.398-0.406 0.406-0.224 0-0.404-0.182-0.404-0.406 8e-3 -0.219 0.185-0.396 0.404-0.403 0.221 0 0.406 0.181 0.406 0.403"/></g><g transform="translate(115.35 225.47)"><path d="m0 0c0.223 0 0.407 0.181 0.407 0.404-0.011 0.22-0.188 0.398-0.407 0.405-0.224 0-0.404-0.18-0.404-0.405 8e-3 -0.221 0.182-0.397 0.404-0.404"/></g><g transform="translate(126.85 219)"><path d="m0 0c0-0.223 0.18-0.405 0.402-0.405 0.224 0 0.407 0.182 0.407 0.405 0 0.225-0.183 0.403-0.407 0.405-0.222 0-0.402-0.18-0.402-0.405"/></g><g transform="translate(125.78 222.97)"><path d="M 0,0 C 0.007,-0.221 0.182,-0.397 0.403,-0.404 0.628,-0.404 0.808,-0.225 0.808,0 0.8,0.22 0.624,0.396 0.403,0.405 0.182,0.405 0,0.224 0,0"/></g><g transform="translate(126.19 214.64)"><path d="M 0,0 C 0.221,0.006 0.396,0.183 0.404,0.404 0.404,0.629 0.225,0.81 0,0.81 -0.222,0.802 -0.396,0.624 -0.403,0.404 -0.403,0.18 -0.222,0 0,0"/></g><g transform="translate(173.81 223.74)"><path d="m0 0c0.065-0.129 0.152-0.213 0.279-0.276" fill="none" stroke="#000" stroke-linecap="round" stroke-linejoin="round" stroke-width=".25"/></g><g transform="translate(168.38 220.11)"><path d="m0 0c0.489 0.368 0.721 0.771 0.797 1.376" fill="none" stroke="#000" stroke-linecap="round" stroke-linejoin="round" stroke-width=".25"/></g><g transform="translate(172.21 222.44)"><path d="m0 0h-0.488" fill="none" stroke="#000" stroke-linecap="round" stroke-linejoin="round" stroke-width=".25"/></g><g transform="translate(171.72 222.44)"><path d="m0 0h-0.2" fill="none" stroke="#000" stroke-linecap="round" stroke-linejoin="round" stroke-width=".25"/></g><g transform="translate(172.21 222.44)"><path d="m0 0h0.203" fill="none" stroke="#000" stroke-linecap="round" stroke-linejoin="round" stroke-width=".25"/></g><g transform="translate(171.52 218.96)"><path d="m0 0c0-0.243 0.2-0.444 0.444-0.444 0.245 0 0.448 0.201 0.448 0.444" fill="none" stroke="#000" stroke-linecap="round" stroke-linejoin="round" stroke-width=".25"/></g><g transform="translate(171.52 223.49)"><path d="m0 0v-1.046" fill="none" stroke="#000" stroke-linecap="round" stroke-linejoin="round" stroke-width=".25"/></g><g transform="translate(171.52 222.44)"><path d="m0 0v-3.485" fill="none" stroke="#000" stroke-linecap="round" stroke-linejoin="round" stroke-width=".25"/></g><g transform="translate(171.52 223.61)" fill="none" stroke="#000" stroke-linecap="round" stroke-linejoin="round" stroke-width=".25"><path d="m0 0v0.352"/><path d="m0 0v-0.043"/></g><g transform="translate(171.72 224.42)"><path d="m0 0c-0.077 0-0.124-0.026-0.166-0.086" fill="none" stroke="#000" stroke-linecap="round" stroke-linejoin="round" stroke-width=".25"/></g><g transform="translate(172.21 224.42)"><path d="m0 0h-0.488" fill="none" stroke="#000" stroke-linecap="round" stroke-linejoin="round" stroke-width=".25"/></g><g transform="translate(172.37 224.34)"><path d="m0 0c-0.04 0.063-0.088 0.086-0.163 0.086" fill="none" stroke="#000" stroke-linecap="round" stroke-linejoin="round" stroke-width=".25"/></g><g transform="translate(172.41 223.49)"><path d="m0 0v-1.046" fill="none" stroke="#000" stroke-linecap="round" stroke-linejoin="round" stroke-width=".25"/></g><g transform="translate(172.41 222.44)"><path d="m0 0v-3.485" fill="none" stroke="#000" stroke-linecap="round" stroke-linejoin="round" stroke-width=".25"/></g><g transform="translate(172.41 223.61)" fill="none" stroke="#000" stroke-linecap="round" stroke-linejoin="round" stroke-width=".25"><path d="m0 0v0.352"/><path d="m0 0v-0.043"/></g><g transform="translate(169.23 222.24)"><path d="m0 0c0.059-0.165 0.128-0.325 0.2-0.484" fill="none" stroke="#000" stroke-linecap="round" stroke-linejoin="round" stroke-width=".25"/></g><g transform="translate(167.96 220.43)"><path d="m0 0c0.139-0.111 0.277-0.216 0.422-0.316" fill="none" stroke="#000" stroke-linecap="round" stroke-linejoin="round" stroke-width=".25"/></g><g transform="translate(169.18 221.49)"><path d="m0 0c-0.163 0.073-0.321 0.143-0.483 0.203" fill="none" stroke="#000" stroke-linecap="round" stroke-linejoin="round" stroke-width=".25"/></g><g transform="translate(167.76 218.23)"><path d="m0 0c0.17-0.028 0.346-0.05 0.521-0.065" fill="none" stroke="#000" stroke-linecap="round" stroke-linejoin="round" stroke-width=".25"/></g><g transform="translate(168.29 219.76)"><path d="m0 0c-0.175-0.015-0.351-0.039-0.52-0.065" fill="none" stroke="#000" stroke-linecap="round" stroke-linejoin="round" stroke-width=".25"/></g><g transform="translate(168.69 216.23)"><path d="m0 0c0.162 0.061 0.32 0.129 0.483 0.2" fill="none" stroke="#000" stroke-linecap="round" stroke-linejoin="round" stroke-width=".25"/></g><g transform="translate(168.38 217.81)"><path d="m0 0c-0.145-0.101-0.283-0.208-0.422-0.317" fill="none" stroke="#000" stroke-linecap="round" stroke-linejoin="round" stroke-width=".25"/></g><g transform="translate(170.5 214.96)"><path d="m0 0c0.106 0.134 0.214 0.273 0.317 0.416" fill="none" stroke="#000" stroke-linecap="round" stroke-linejoin="round" stroke-width=".25"/></g><g transform="translate(169.43 216.17)"><path d="m0 0c-0.072-0.158-0.142-0.323-0.2-0.484" fill="none" stroke="#000" stroke-linecap="round" stroke-linejoin="round" stroke-width=".25"/></g><g transform="translate(172.7 214.76)"><path d="m0 0c0.026 0.172 0.049 0.344 0.064 0.521" fill="none" stroke="#000" stroke-linecap="round" stroke-linejoin="round" stroke-width=".25"/></g><g transform="translate(171.17 215.28)"><path d="m0 0c0.018-0.177 0.039-0.349 0.066-0.521" fill="none" stroke="#000" stroke-linecap="round" stroke-linejoin="round" stroke-width=".25"/></g><g transform="translate(174.7 215.68)"><path d="m0 0c-0.062 0.161-0.13 0.326-0.205 0.484" fill="none" stroke="#000" stroke-linecap="round" stroke-linejoin="round" stroke-width=".25"/></g><g transform="translate(173.12 215.37)"><path d="m0 0c0.099-0.143 0.203-0.282 0.317-0.416" fill="none" stroke="#000" stroke-linecap="round" stroke-linejoin="round" stroke-width=".25"/></g><g transform="translate(175.97 217.49)"><path d="m0 0c-0.137 0.109-0.276 0.216-0.418 0.317" fill="none" stroke="#000" stroke-linecap="round" stroke-linejoin="round" stroke-width=".25"/></g><g transform="translate(174.76 216.43)"><path d="m0 0c0.161-0.071 0.32-0.139 0.483-0.2" fill="none" stroke="#000" stroke-linecap="round" stroke-linejoin="round" stroke-width=".25"/></g><g transform="translate(176.17 219.69)"><path d="m0 0c-0.171 0.026-0.343 0.05-0.52 0.065" fill="none" stroke="#000" stroke-linecap="round" stroke-linejoin="round" stroke-width=".25"/></g><g transform="translate(175.65 218.16)"><path d="m0 0c0.177 0.016 0.349 0.037 0.52 0.065" fill="none" stroke="#000" stroke-linecap="round" stroke-linejoin="round" stroke-width=".25"/></g><g transform="translate(174.5 221.75)"><path d="m0 0c0.075 0.159 0.144 0.319 0.205 0.484" fill="none" stroke="#000" stroke-linecap="round" stroke-linejoin="round" stroke-width=".25"/></g><g transform="translate(173 222.73)"><path d="m0 0c0.365-0.612 0.793-0.892 1.499-0.978" fill="none" stroke="#000" stroke-linecap="round" stroke-linejoin="round" stroke-width=".25"/></g><g transform="translate(174.76 221.49)"><path d="m0 0c-0.083 0.092-0.168 0.18-0.262 0.262" fill="none" stroke="#000" stroke-linecap="round" stroke-linejoin="round" stroke-width=".25"/></g><g transform="translate(175.65 219.76)" fill="none" stroke="#000" stroke-linecap="round" stroke-linejoin="round" stroke-width=".25"><path d="m0 0c-0.024 0.121-0.059 0.237-0.094 0.357"/><path d="m0 0c-0.238-0.563-0.238-1.029 0-1.591"/></g><g transform="translate(175.55 217.81)" fill="none" stroke="#000" stroke-linecap="round" stroke-linejoin="round" stroke-width=".25"><path d="m0 0c0.035 0.116 0.069 0.237 0.094 0.356"/><path d="m0 0c-0.491-0.368-0.722-0.772-0.798-1.381"/></g><g transform="translate(174.5 216.17)" fill="none" stroke="#000" stroke-linecap="round" stroke-linejoin="round" stroke-width=".25"><path d="m0 0c0.094 0.083 0.181 0.169 0.262 0.259"/><path d="m0 0c-0.604-0.075-1.007-0.307-1.376-0.796"/></g><g transform="translate(172.76 215.28)" fill="none" stroke="#000" stroke-linecap="round" stroke-linejoin="round" stroke-width=".25"><path d="m0 0c0.12 0.026 0.237 0.056 0.356 0.094"/><path d="m0 0c-0.563 0.238-1.028 0.238-1.593 0"/></g><g transform="translate(170.82 215.37)" fill="none" stroke="#000" stroke-linecap="round" stroke-linejoin="round" stroke-width=".25"><path d="m0 0c0.112-0.038 0.233-0.068 0.353-0.094"/><path d="m0 0c-0.369 0.489-0.774 0.721-1.383 0.796"/></g><g transform="translate(169.18 216.43)" fill="none" stroke="#000" stroke-linecap="round" stroke-linejoin="round" stroke-width=".25"><path d="m0 0c0.081-0.089 0.169-0.176 0.257-0.259"/><path d="m0 0c-0.076 0.608-0.308 1.013-0.797 1.381"/></g><g transform="translate(168.29 218.16)"><path d="m0 0c0.027-0.119 0.056-0.24 0.096-0.356" fill="none" stroke="#000" stroke-linecap="round" stroke-linejoin="round" stroke-width=".25"/></g><g transform="translate(168.38 220.11)"><path d="m0 0c-0.04-0.12-0.068-0.237-0.096-0.357" fill="none" stroke="#000" stroke-linecap="round" stroke-linejoin="round" stroke-width=".25"/></g><g transform="translate(169.43 221.75)" fill="none" stroke="#000" stroke-linecap="round" stroke-linejoin="round" stroke-width=".25"><path d="m0 0c-0.088-0.082-0.176-0.17-0.257-0.262"/><path d="m0 0c0.715 0.087 1.325 0.542 1.616 1.195"/></g><g transform="translate(174.76 221.49)"><path d="m0 0c0.076-0.606 0.307-1.009 0.798-1.376" fill="none" stroke="#000" stroke-linecap="round" stroke-linejoin="round" stroke-width=".25"/></g><g transform="translate(175.24 221.69)"><path d="m0 0c-0.163-0.061-0.322-0.131-0.483-0.204" fill="none" stroke="#000" stroke-linecap="round" stroke-linejoin="round" stroke-width=".25"/></g><g transform="translate(175.55 220.11)"><path d="m0 0c0.142 0.101 0.281 0.205 0.418 0.316" fill="none" stroke="#000" stroke-linecap="round" stroke-linejoin="round" stroke-width=".25"/></g><g transform="translate(175.72 222.01)"><path d="m0 0-0.334-0.208-0.145-0.111" fill="none" stroke="#000" stroke-linecap="round" stroke-linejoin="round" stroke-width=".25"/></g><g transform="translate(176.48 220.68)"><path d="m0 0-0.345-0.186-0.171-0.066" fill="none" stroke="#000" stroke-linecap="round" stroke-linejoin="round" stroke-width=".25"/></g><g transform="translate(176.74 219.73)"><path d="m0 0-0.392-0.015-0.18-0.022" fill="none" stroke="#000" stroke-linecap="round" stroke-linejoin="round" stroke-width=".25"/></g><g transform="translate(176.74 218.19)"><path d="m0 0-0.392 0.016-0.18 0.024" fill="none" stroke="#000" stroke-linecap="round" stroke-linejoin="round" stroke-width=".25"/></g><g transform="translate(176.48 217.24)"><path d="m0 0-0.345 0.185-0.171 0.068" fill="none" stroke="#000" stroke-linecap="round" stroke-linejoin="round" stroke-width=".25"/></g><g transform="translate(175.72 215.91)"><path d="m0 0-0.334 0.208-0.145 0.111" fill="none" stroke="#000" stroke-linecap="round" stroke-linejoin="round" stroke-width=".25"/></g><g transform="translate(175.02 215.21)"><path d="m0 0-0.207 0.333-0.108 0.142" fill="none" stroke="#000" stroke-linecap="round" stroke-linejoin="round" stroke-width=".25"/></g><g transform="translate(173.69 214.44)"><path d="m0 0-0.188 0.346-0.064 0.168" fill="none" stroke="#000" stroke-linecap="round" stroke-linejoin="round" stroke-width=".25"/></g><g transform="translate(172.73 214.18)"><path d="m0 0-0.014 0.394-0.022 0.179" fill="none" stroke="#000" stroke-linecap="round" stroke-linejoin="round" stroke-width=".25"/></g><g transform="translate(171.2 214.18)"><path d="m0 0 0.014 0.394 0.024 0.179" fill="none" stroke="#000" stroke-linecap="round" stroke-linejoin="round" stroke-width=".25"/></g><g transform="translate(170.24 214.44)"><path d="m0 0 0.186 0.346 0.071 0.168" fill="none" stroke="#000" stroke-linecap="round" stroke-linejoin="round" stroke-width=".25"/></g><g transform="translate(168.91 215.21)"><path d="m0 0 0.209 0.333 0.111 0.142" fill="none" stroke="#000" stroke-linecap="round" stroke-linejoin="round" stroke-width=".25"/></g><g transform="translate(168.22 215.91)"><path d="m0 0 0.335 0.208 0.143 0.111" fill="none" stroke="#000" stroke-linecap="round" stroke-linejoin="round" stroke-width=".25"/></g><g transform="translate(167.45 217.24)"><path d="m0 0 0.345 0.185 0.163 0.068" fill="none" stroke="#000" stroke-linecap="round" stroke-linejoin="round" stroke-width=".25"/></g><g transform="translate(167.19 218.19)"><path d="m0 0 0.393 0.016 0.179 0.024" fill="none" stroke="#000" stroke-linecap="round" stroke-linejoin="round" stroke-width=".25"/></g><g transform="translate(167.19 219.73)"><path d="m0 0 0.393-0.015 0.179-0.022" fill="none" stroke="#000" stroke-linecap="round" stroke-linejoin="round" stroke-width=".25"/></g><g transform="translate(167.45 220.68)"><path d="m0 0 0.345-0.186 0.163-0.066" fill="none" stroke="#000" stroke-linecap="round" stroke-linejoin="round" stroke-width=".25"/></g><g transform="translate(168.22 222.01)"><path d="m0 0 0.335-0.208 0.143-0.111" fill="none" stroke="#000" stroke-linecap="round" stroke-linejoin="round" stroke-width=".25"/></g><g transform="translate(172.88 222.95)" fill="none" stroke="#000" stroke-linecap="round" stroke-linejoin="round" stroke-width=".25"><path d="m0 0c0.032-0.075 0.068-0.148 0.111-0.218"/><path d="m0 0 0.449 0.208"/><path d="m0 0c-0.023 0.028-0.047 0.044-0.087 0.047"/></g><g transform="translate(172.41 223.49)"><path d="m0 0c0 0.026-6e-3 0.049-6e-3 0.075" fill="none" stroke="#000" stroke-linecap="round" stroke-linejoin="round" stroke-width=".25"/></g><g transform="translate(172.8 222.99)"><path d="m0 0c-0.126 0.02-0.253 0.034-0.382 0.043" fill="none" stroke="#000" stroke-linecap="round" stroke-linejoin="round" stroke-width=".25"/></g><g transform="translate(171.52 223.04)"><path d="m0 0c-0.129-9e-3 -0.257-0.024-0.385-0.043" fill="none" stroke="#000" stroke-linecap="round" stroke-linejoin="round" stroke-width=".25"/></g><g transform="translate(171.52 223.56)"><path d="m0 0c0-0.026-2e-3 -0.049-2e-3 -0.074" fill="none" stroke="#000" stroke-linecap="round" stroke-linejoin="round" stroke-width=".25"/></g><g transform="translate(171.14 222.99)"><path d="m0 0c-0.037-3e-3 -0.066-0.016-0.087-0.045" fill="none" stroke="#000" stroke-linecap="round" stroke-linejoin="round" stroke-width=".25"/></g><g transform="translate(171.05 222.95)"><path d="m0 0-0.45 0.208" fill="none" stroke="#000" stroke-linecap="round" stroke-linejoin="round" stroke-width=".25"/></g><g transform="translate(171.52 223.57)"><path d="m0 0c0-3e-3 0-6e-3 2e-3 -7e-3" fill="none" stroke="#000" stroke-linecap="round" stroke-linejoin="round" stroke-width=".25"/></g><g transform="translate(171.52 223.97)"><path d="m0 0v-1e-3" fill="none" stroke="#000" stroke-linecap="round" stroke-linejoin="round" stroke-width=".25"/></g><g transform="translate(171.52 224.24)"><path d="m0 0v-0.271" fill="none" stroke="#000" stroke-linecap="round" stroke-linejoin="round" stroke-width=".25"/></g><g transform="translate(172.41 224.24)"><path d="m0 0 6e-3 -0.271" fill="none" stroke="#000" stroke-linecap="round" stroke-linejoin="round" stroke-width=".25"/></g><g transform="translate(172.41 223.97)"><path d="m0 0v-1e-3" fill="none" stroke="#000" stroke-linecap="round" stroke-linejoin="round" stroke-width=".25"/></g><g transform="translate(168.91 222.71)"><path d="m0 0 0.209-0.333 0.111-0.141" fill="none" stroke="#000" stroke-linecap="round" stroke-linejoin="round" stroke-width=".25"/></g><g transform="translate(170.6 223.15)"><path d="m0 0-0.02 0.182-0.077 0.182-0.131 0.174" fill="none" stroke="#000" stroke-linecap="round" stroke-linejoin="round" stroke-width=".25"/></g><g transform="translate(173.33 223.15)"><path d="m0 0 0.019 0.182 0.075 0.182 0.134 0.174" fill="none" stroke="#000" stroke-linecap="round" stroke-linejoin="round" stroke-width=".25"/></g><g transform="translate(175.02 222.71)"><path d="m0 0-0.207-0.333-0.108-0.141" fill="none" stroke="#000" stroke-linecap="round" stroke-linejoin="round" stroke-width=".25"/></g><g transform="translate(169.62 223.26)"><path d="m0 0-0.193-0.113-0.186-0.126-0.212-0.169-0.062-0.065-0.037-0.046-8e-3 -0.015-5e-3 -9e-3v-7e-3" fill="none" stroke="#000" stroke-linecap="round" stroke-linejoin="round" stroke-width=".25"/></g><g transform="translate(169.83 223.36)"><path d="m0 0c0.136 0.061 0.221 0.146 0.284 0.286" fill="none" stroke="#000" stroke-linecap="round" stroke-linejoin="round" stroke-width=".25"/></g><g transform="translate(170.12 223.74)"><path d="m0 0-0.012-0.092" fill="none" stroke="#000" stroke-linecap="round" stroke-linejoin="round" stroke-width=".25"/></g><g transform="translate(170.11 223.64)"><path d="m0 0 4e-3 8e-3" fill="none" stroke="#000" stroke-linecap="round" stroke-linejoin="round" stroke-width=".25"/></g><g transform="translate(172.41 224.24)"><path d="m0 0c-3e-3 0.037-0.012 0.065-0.034 0.097" fill="none" stroke="#000" stroke-linecap="round" stroke-linejoin="round" stroke-width=".25"/></g><g transform="translate(171.56 224.34)"><path d="m0 0c-0.02-0.032-0.03-0.061-0.034-0.098" fill="none" stroke="#000" stroke-linecap="round" stroke-linejoin="round" stroke-width=".25"/></g><g transform="translate(171.52 224.24)"><path d="m0 0c-0.354-0.03-0.697-0.096-1.034-0.201" fill="none" stroke="#000" stroke-linecap="round" stroke-linejoin="round" stroke-width=".25"/></g><g transform="translate(170.48 224.04)"><path d="m0 0c-0.171-0.053-0.274-0.141-0.357-0.301" fill="none" stroke="#000" stroke-linecap="round" stroke-linejoin="round" stroke-width=".25"/></g><g transform="translate(169.84 223.46)"><path d="m0 0c0.132 0.063 0.216 0.147 0.28 0.276" fill="none" stroke="#000" stroke-linecap="round" stroke-linejoin="round" stroke-width=".25"/></g><g transform="translate(173.45 224.04)"><path d="m0 0c-0.341 0.104-0.682 0.171-1.041 0.201" fill="none" stroke="#000" stroke-linecap="round" stroke-linejoin="round" stroke-width=".25"/></g><g transform="translate(169.83 223.36)"><path d="m0 0c-0.072-0.032-0.14-0.064-0.209-0.1" fill="none" stroke="#000" stroke-linecap="round" stroke-linejoin="round" stroke-width=".25"/></g><g transform="translate(170.11 223.65)"><path d="m0 0 0.215 0.043 0.031-2e-3h0.013v-1e-3" fill="none" stroke="#000" stroke-linecap="round" stroke-linejoin="round" stroke-width=".25"/></g><g transform="translate(173.82 223.64)"><path d="m0 0-0.014 0.092" fill="none" stroke="#000" stroke-linecap="round" stroke-linejoin="round" stroke-width=".25"/></g><g transform="translate(173.81 223.74)"><path d="m0 0c-0.083 0.16-0.19 0.249-0.36 0.301" fill="none" stroke="#000" stroke-linecap="round" stroke-linejoin="round" stroke-width=".25"/></g><g transform="translate(174.11 223.36)"><path d="m0 0 0.253-0.125 0.242-0.147 0.179-0.134 0.169-0.149 0.051-0.058 0.012-0.017 3e-3 -0.011-2e-3 -8e-3" fill="none" stroke="#000" stroke-linecap="round" stroke-linejoin="round" stroke-width=".25"/></g><g transform="translate(173.82 223.64)"><path d="m0 0-5e-3 8e-3" fill="none" stroke="#000" stroke-linecap="round" stroke-linejoin="round" stroke-width=".25"/></g><g transform="translate(173.76 223.67)" fill="none" stroke="#000" stroke-linecap="round" stroke-linejoin="round" stroke-width=".25"><path d="m0 0 0.061-0.018"/><path d="m0 0-0.167 0.025-0.024-2e-3 -7e-3 -1e-3"/></g><g transform="translate(171.2 214.18)"><path d="m0 0 2e-3 -5e-3 6e-3 -3e-3 6e-3 -4e-3 0.03-0.014 0.11-0.034 0.284-0.046 0.288-0.019 0.236 8e-3 0.23 0.022 0.232 0.046 0.076 0.025 0.026 0.013 8e-3 6e-3 2e-3 5e-3" fill="none" stroke="#000" stroke-linecap="round" stroke-linejoin="round" stroke-width=".25"/></g><g transform="translate(176.48 220.68)"><path d="m0 0 4e-3 6e-3v0.044l-0.026 0.115-0.101 0.268-0.13 0.256-0.121 0.202-0.137 0.191-0.157 0.176-0.054 0.053-0.032 0.017-2e-3 2e-3h-9e-3" fill="none" stroke="#000" stroke-linecap="round" stroke-linejoin="round" stroke-width=".25"/></g><g transform="translate(168.91 215.21)"><path d="m0 0v-8e-3l5e-3 -4e-3v-7e-3l0.018-0.026 0.08-0.083 0.223-0.184 0.24-0.158 0.206-0.113 0.215-0.096 0.221-0.076 0.074-0.016 0.036-3e-3 4e-3 3e-3 7e-3 5e-3" fill="none" stroke="#000" stroke-linecap="round" stroke-linejoin="round" stroke-width=".25"/></g><g transform="translate(175.72 215.91)"><path d="m0 0h0.011l4e-3 3e-3 0.03 0.019 0.084 0.081 0.184 0.22 0.155 0.242 0.114 0.206 0.097 0.212 0.077 0.222 0.013 0.079v0.037l-4e-3 8e-3" fill="none" stroke="#000" stroke-linecap="round" stroke-linejoin="round" stroke-width=".25"/></g><g transform="translate(167.45 217.24)"><path d="m0 0-8e-3 -4e-3v-8e-3l-2e-3 -6e-3 7e-3 -0.031 0.025-0.116 0.1-0.27 0.127-0.255 0.125-0.203 0.134-0.19 0.158-0.174 0.059-0.053 0.024-0.017 9e-3 -2e-3h8e-3" fill="none" stroke="#000" stroke-linecap="round" stroke-linejoin="round" stroke-width=".25"/></g><g transform="translate(167.19 219.73)"><path d="m0 0-6e-3 -3e-3 -4e-3 -4e-3 -5e-3 -8e-3 -0.013-0.027-0.033-0.112-0.046-0.284-0.019-0.285 7e-3 -0.236 0.024-0.235 0.045-0.23 0.024-0.074 0.014-0.028 3e-3 -4e-3 9e-3 -8e-3" fill="none" stroke="#000" stroke-linecap="round" stroke-linejoin="round" stroke-width=".25"/></g><g transform="translate(174.32 214.66)" fill="none" stroke="#000" stroke-linecap="round" stroke-linejoin="round" stroke-width=".25"><path d="m0 0 0.193 0.112 0.188 0.125 0.208 0.171 0.063 0.065 0.039 0.046 8e-3 0.015 3e-3 7e-3 -2e-3 8e-3"/><path d="m0 0-0.182-0.09-0.185-0.072-0.125-0.041-0.066-0.014-0.046-8e-3h-0.012l-5e-3 3e-3 -6e-3 5e-3"/></g><g transform="translate(168.22 222.01)"><path d="m0 0h-0.012l-6e-3 -4e-3 -0.028-0.018-0.083-0.079-0.185-0.224-0.157-0.238-0.115-0.208-0.096-0.215-0.074-0.222-0.017-0.076-2e-3 -0.032 2e-3 -6e-3 7e-3 -8e-3" fill="none" stroke="#000" stroke-linecap="round" stroke-linejoin="round" stroke-width=".25"/></g><g transform="translate(176.74 218.19)"><path d="m0 0 7e-3 4e-3 4e-3 4e-3 2e-3 8e-3 0.011 0.027 0.035 0.114 0.049 0.282 0.018 0.287-6e-3 0.235-0.023 0.235-0.046 0.229-0.027 0.075-0.013 0.026-4e-3 5e-3 -7e-3 7e-3" fill="none" stroke="#000" stroke-linecap="round" stroke-linejoin="round" stroke-width=".25"/></g><g transform="translate(169.84 223.46)"><path d="m0 0c-2.108-0.994-3.241-3.317-2.731-5.591 0.505-2.273 2.523-3.888 4.856-3.888 2.329 0 4.349 1.615 4.858 3.888 0.512 2.274-0.626 4.597-2.733 5.591" fill="none" stroke="#000" stroke-linecap="round" stroke-linejoin="round" stroke-width=".25"/></g><g transform="translate(168.29 218.16)"><path d="m0 0c0.241 0.562 0.241 1.029 0 1.591" fill="none" stroke="#000" stroke-linecap="round" stroke-linejoin="round" stroke-width=".25"/></g><g transform="translate(178.04 218.96)"><path d="m0 0c0 3.355-2.716 6.072-6.068 6.072s-6.072-2.717-6.072-6.072c0-3.353 2.72-6.071 6.072-6.071s6.068 2.718 6.068 6.071z" fill="none" stroke="#000" stroke-linecap="round" stroke-linejoin="round" stroke-width=".25"/></g><g transform="translate(173.83 223.64)"><path d="m0 0c0.06-0.14 0.144-0.225 0.283-0.286" fill="none" stroke="#000" stroke-linecap="round" stroke-linejoin="round" stroke-width=".25"/></g><g transform="translate(176.11 212.23)"><path d="m0 0c-0.649 1.124-1.297 2.244-1.944 3.367-0.114-0.074-0.232-0.143-0.353-0.202 0.649-1.121 1.299-2.247 1.948-3.37 0.011-0.018 0.027-0.038 0.037-0.055 0.036-0.048 0.069-0.068 0.128-0.059 0.038 6e-3 0.076 0.018 0.108 0.04 0.022 0.014 0.042 0.03 0.061 0.045 0.049 0.029 0.064 0.067 0.057 0.124-8e-3 0.041-0.021 0.076-0.042 0.11"/></g><g transform="translate(169.77 215.61)"><path d="m0 0c-0.647-1.125-1.296-2.25-1.947-3.374-0.023-0.034-0.035-0.069-0.038-0.11-8e-3 -0.057 6e-3 -0.094 0.053-0.124 0.022-0.014 0.041-0.031 0.058-0.044 0.034-0.022 0.072-0.035 0.112-0.038 0.063-0.011 0.096 8e-3 0.124 0.057 0.017 0.017 0.028 0.036 0.042 0.055 0.652 1.127 1.3 2.252 1.949 3.377-0.122 0.06-0.241 0.127-0.353 0.201"/></g><g transform="translate(164.69 222.97)"><path d="m0 0c7e-3 -0.221 0.184-0.397 0.405-0.404 0.225 0 0.406 0.179 0.406 0.404-8e-3 0.22-0.184 0.396-0.406 0.405-0.224 0-0.405-0.181-0.405-0.405"/></g><g transform="translate(163.63 219)"><path d="M 0,0 C 0,-0.223 0.18,-0.405 0.403,-0.405 0.621,-0.396 0.799,-0.22 0.81,0 0.81,0.224 0.626,0.403 0.403,0.403 0.184,0.397 0.009,0.221 0,0"/></g><g transform="translate(165.1 214.64)"><path d="m0 0c0.222 6e-3 0.397 0.183 0.405 0.404 0 0.225-0.18 0.406-0.405 0.406-0.222-8e-3 -0.398-0.186-0.405-0.406 0-0.224 0.18-0.404 0.405-0.404"/></g><g transform="translate(176.34 225.87)"><path d="m0 0c-6e-3 0.219-0.185 0.398-0.404 0.405-0.225 0-0.403-0.18-0.403-0.405 6e-3 -0.221 0.184-0.397 0.403-0.404 0.222 0 0.404 0.181 0.404 0.404"/></g><g transform="translate(172.5 226.91)"><path d="m0 0c-7e-3 0.221-0.186 0.398-0.406 0.406-0.223 0-0.403-0.182-0.403-0.406 8e-3 -0.219 0.184-0.396 0.403-0.403 0.223 0 0.406 0.181 0.406 0.403"/></g><g transform="translate(168 225.47)"><path d="m0 0c0.222 0 0.405 0.181 0.405 0.404-9e-3 0.22-0.187 0.398-0.405 0.405-0.225 0-0.404-0.18-0.404-0.405 7e-3 -0.221 0.181-0.397 0.404-0.404"/></g><g transform="translate(179.5 219)"><path d="m0 0c0-0.223 0.178-0.405 0.403-0.405 0.223 0 0.405 0.182 0.405 0.405 0 0.225-0.182 0.403-0.405 0.405-0.225 0-0.403-0.18-0.403-0.405"/></g><g transform="translate(178.43 222.97)"><path d="m0 0c9e-3 -0.221 0.184-0.397 0.404-0.404 0.226 0 0.405 0.179 0.405 0.404-8e-3 0.22-0.184 0.396-0.405 0.405-0.22 0-0.404-0.181-0.404-0.405"/></g><g transform="translate(178.84 214.64)"><path d="M 0,0 C 0.221,0.006 0.396,0.183 0.404,0.404 0.404,0.629 0.226,0.81 0,0.81 -0.221,0.802 -0.396,0.624 -0.404,0.404 -0.404,0.18 -0.221,0 0,0"/></g><g transform="translate(138.64 224.67)"><path d="m0 0c0 3.83 3.107 6.936 6.937 6.936 3.829 0 6.935-3.106 6.935-6.936 0-3.831-3.106-6.938-6.935-6.938-3.83 0-6.937 3.107-6.937 6.938z" fill="none" stroke="#000" stroke-linecap="round" stroke-linejoin="round" stroke-miterlimit="10" stroke-width=".25"/></g><g transform="translate(113.16 240.57)"><path d="M 0,0 V -4.031 C 0,-4.566 0.432,-5 0.965,-5 h 10.486 c 0.536,0 0.967,0.434 0.967,0.969 V 0 c 0,0.536 -0.431,0.969 -0.967,0.969 H 0.965 C 0.432,0.969 0,0.536 0,0" fill="#fff"/><path d="m0 0v-4.031c0-0.535 0.432-0.969 0.965-0.969h10.486c0.536 0 0.967 0.434 0.967 0.969v4.031c0 0.536-0.431 0.969-0.967 0.969h-10.486c-0.533 0-0.965-0.433-0.965-0.969z" fill="none" stroke="#000" stroke-miterlimit="10" stroke-width=".25"/></g><g transform="translate(124.49 240.62)"><path d="m0 0h-10.252c-0.072 0-0.13-0.06-0.13-0.134v-3e-3c0.021-1.288 0.021-2.571 0-3.855-3e-3 -0.075 0.054-0.137 0.128-0.141h10.254c0.072 0 0.133 0.062 0.132 0.134v7e-3c-0.02 1.284-0.02 2.567 0 3.854 4e-3 0.073-0.054 0.135-0.126 0.138z" fill="none" stroke="#000" stroke-miterlimit="10" stroke-width=".35"/></g><g transform="translate(165.69 240.57)"><path d="M 0,0 V -4.031 C 0,-4.566 0.434,-5 0.968,-5 h 10.483 c 0.536,0 0.968,0.434 0.968,0.969 V 0 c 0,0.536 -0.432,0.969 -0.968,0.969 H 0.968 C 0.434,0.969 0,0.536 0,0" fill="#fff"/><path d="m0 0v-4.031c0-0.535 0.434-0.969 0.968-0.969h10.483c0.536 0 0.968 0.434 0.968 0.969v4.031c0 0.536-0.432 0.969-0.968 0.969h-10.483c-0.534 0-0.968-0.433-0.968-0.969z" fill="none" stroke="#000" stroke-miterlimit="10" stroke-width=".25"/></g><g transform="translate(177.02 240.62)"><path d="m0 0h-10.249c-0.073 0-0.134-0.06-0.134-0.134v-3e-3c0.021-1.288 0.021-2.571 0-3.855-2e-3 -0.075 0.055-0.137 0.129-0.141h10.254c0.074 0 0.134 0.062 0.134 0.134v7e-3c-0.022 1.284-0.022 2.567 0 3.854 1e-3 0.073-0.054 0.135-0.128 0.138z" fill="none" stroke="#000" stroke-miterlimit="10" stroke-width=".35"/></g><g transform="translate(140.09 224.75)"><path d="m0 0c0 3.029 2.452 5.485 5.483 5.485 3.027 0 5.484-2.456 5.484-5.485s-2.457-5.484-5.484-5.484c-3.031 0-5.483 2.455-5.483 5.484" fill="#fff"/><path d="m0 0c0 3.029 2.452 5.485 5.483 5.485 3.027 0 5.484-2.456 5.484-5.485s-2.457-5.484-5.484-5.484c-3.031 0-5.483 2.455-5.483 5.484z" fill="none" stroke="#000" stroke-linecap="round" stroke-linejoin="round" stroke-miterlimit="10" stroke-width=".25"/></g><g transform="translate(140.62 224.75)"><path d="m0 0c0 2.739 2.221 4.961 4.961 4.961s4.961-2.222 4.961-4.961c0-2.74-2.221-4.96-4.961-4.96s-4.961 2.22-4.961 4.96z" fill="none" stroke="#000" stroke-linecap="round" stroke-linejoin="round" stroke-miterlimit="10" stroke-width=".25"/></g><g transform="translate(148.59 228.52)"><path d="m0 0-0.207-0.352-0.078-0.111" fill="none" stroke="#000" stroke-linecap="round" stroke-linejoin="round" stroke-miterlimit="10" stroke-width=".25"/></g><g transform="translate(147.33 229.24)"><path d="m0 0-0.203-0.356-0.056-0.123" fill="none" stroke="#000" stroke-linecap="round" stroke-linejoin="round" stroke-miterlimit="10" stroke-width=".25"/></g><g transform="translate(146.31 229.52)"><path d="m0 0-6e-3 -0.411-0.012-0.131" fill="none" stroke="#000" stroke-linecap="round" stroke-linejoin="round" stroke-miterlimit="10" stroke-width=".25"/></g><g transform="translate(144.85 229.52)"><path d="m0 0 4e-3 -0.411 0.012-0.131" fill="none" stroke="#000" stroke-linecap="round" stroke-linejoin="round" stroke-miterlimit="10" stroke-width=".25"/></g><g transform="translate(143.82 229.24)"><path d="m0 0 0.201-0.356 0.057-0.123" fill="none" stroke="#000" stroke-linecap="round" stroke-linejoin="round" stroke-miterlimit="10" stroke-width=".25"/></g><g transform="translate(142.56 228.52)"><path d="m0 0 0.209-0.352 0.075-0.111" fill="none" stroke="#000" stroke-linecap="round" stroke-linejoin="round" stroke-miterlimit="10" stroke-width=".25"/></g><g transform="translate(141.81 227.77)"><path d="m0 0 0.355-0.209 0.108-0.077" fill="none" stroke="#000" stroke-linecap="round" stroke-linejoin="round" stroke-miterlimit="10" stroke-width=".25"/></g><g transform="translate(141.08 226.5)"><path d="m0 0 0.356-0.202 0.125-0.055" fill="none" stroke="#000" stroke-linecap="round" stroke-linejoin="round" stroke-miterlimit="10" stroke-width=".25"/></g><g transform="translate(140.81 225.48)"><path d="m0 0 0.41-4e-3 0.135-0.011" fill="none" stroke="#000" stroke-linecap="round" stroke-linejoin="round" stroke-miterlimit="10" stroke-width=".25"/></g><g transform="translate(140.81 224.02)"><path d="m0 0 0.41 6e-3 0.135 0.011" fill="none" stroke="#000" stroke-linecap="round" stroke-linejoin="round" stroke-miterlimit="10" stroke-width=".25"/></g><g transform="translate(141.08 223)"><path d="m0 0 0.356 0.201 0.125 0.057" fill="none" stroke="#000" stroke-linecap="round" stroke-linejoin="round" stroke-miterlimit="10" stroke-width=".25"/></g><g transform="translate(149.34 227.77)"><path d="m0 0-0.353-0.209-0.109-0.077" fill="none" stroke="#000" stroke-linecap="round" stroke-linejoin="round" stroke-miterlimit="10" stroke-width=".25"/></g><g transform="translate(147.33 220.25)"><path d="m0 0-0.203 0.358-0.056 0.121" fill="none" stroke="#000" stroke-linecap="round" stroke-linejoin="round" stroke-miterlimit="10" stroke-width=".25"/></g><g transform="translate(148.59 220.98)"><path d="m0 0-0.207 0.353-0.078 0.11" fill="none" stroke="#000" stroke-linecap="round" stroke-linejoin="round" stroke-miterlimit="10" stroke-width=".25"/></g><g transform="translate(149.34 221.73)"><path d="m0 0-0.353 0.208-0.109 0.078" fill="none" stroke="#000" stroke-linecap="round" stroke-linejoin="round" stroke-miterlimit="10" stroke-width=".25"/></g><g transform="translate(150.07 223)"><path d="m0 0-0.358 0.201-0.119 0.057" fill="none" stroke="#000" stroke-linecap="round" stroke-linejoin="round" stroke-miterlimit="10" stroke-width=".25"/></g><g transform="translate(150.35 224.02)"><path d="m0 0-0.41 6e-3 -0.136 0.011" fill="none" stroke="#000" stroke-linecap="round" stroke-linejoin="round" stroke-miterlimit="10" stroke-width=".25"/></g><g transform="translate(150.35 225.48)"><path d="m0 0-0.41-4e-3 -0.136-0.011" fill="none" stroke="#000" stroke-linecap="round" stroke-linejoin="round" stroke-miterlimit="10" stroke-width=".25"/></g><g transform="translate(150.07 226.5)"><path d="m0 0-0.358-0.202-0.119-0.055" fill="none" stroke="#000" stroke-linecap="round" stroke-linejoin="round" stroke-miterlimit="10" stroke-width=".25"/></g><g transform="translate(141.81 221.73)"><path d="m0 0 0.355 0.208 0.108 0.078" fill="none" stroke="#000" stroke-linecap="round" stroke-linejoin="round" stroke-miterlimit="10" stroke-width=".25"/></g><g transform="translate(142.56 220.98)"><path d="m0 0 0.209 0.353 0.075 0.11" fill="none" stroke="#000" stroke-linecap="round" stroke-linejoin="round" stroke-miterlimit="10" stroke-width=".25"/></g><g transform="translate(143.82 220.25)"><path d="m0 0 0.201 0.358 0.057 0.121" fill="none" stroke="#000" stroke-linecap="round" stroke-linejoin="round" stroke-miterlimit="10" stroke-width=".25"/></g><g transform="translate(144.85 219.98)"><path d="m0 0 4e-3 0.411 0.012 0.132" fill="none" stroke="#000" stroke-linecap="round" stroke-linejoin="round" stroke-miterlimit="10" stroke-width=".25"/></g><g transform="translate(146.31 219.98)"><path d="m0 0-6e-3 0.411-0.012 0.132" fill="none" stroke="#000" stroke-linecap="round" stroke-linejoin="round" stroke-miterlimit="10" stroke-width=".25"/></g><g transform="translate(148.49 227.3)"><path d="m0 0c-0.114 0.129-0.233 0.25-0.363 0.363" fill="none" stroke="#000" stroke-linecap="round" stroke-linejoin="round" stroke-miterlimit="10" stroke-width=".25"/></g><g transform="translate(148.88 227.48)" fill="none" stroke="#000" stroke-linecap="round" stroke-linejoin="round" stroke-miterlimit="10" stroke-width=".25"><path d="m0 0c-0.134-0.058-0.262-0.117-0.392-0.18"/><path d="m0 0v2e-3"/></g><g transform="translate(148.31 228.05)"><path d="m0 0h3e-3" fill="none" stroke="#000" stroke-linecap="round" stroke-linejoin="round" stroke-miterlimit="10" stroke-width=".25"/></g><g transform="translate(148.13 227.66)"><path d="m0 0c0.062 0.131 0.122 0.259 0.178 0.392" fill="none" stroke="#000" stroke-linecap="round" stroke-linejoin="round" stroke-miterlimit="10" stroke-width=".25"/></g><g transform="translate(147.07 228.76)"><path d="m0 0-1e-3 1e-3" fill="none" stroke="#000" stroke-linecap="round" stroke-linejoin="round" stroke-miterlimit="10" stroke-width=".25"/></g><g transform="translate(146.83 228.41)"><path d="m0 0c-0.16 0.056-0.328 0.1-0.5 0.133" fill="none" stroke="#000" stroke-linecap="round" stroke-linejoin="round" stroke-miterlimit="10" stroke-width=".25"/></g><g transform="translate(147.07 228.76)"><path d="m0 0c-0.084-0.116-0.168-0.232-0.248-0.351" fill="none" stroke="#000" stroke-linecap="round" stroke-linejoin="round" stroke-miterlimit="10" stroke-width=".25"/></g><g transform="translate(146.29 228.97)"><path d="m0 0 4e-3 1e-3" fill="none" stroke="#000" stroke-linecap="round" stroke-linejoin="round" stroke-miterlimit="10" stroke-width=".25"/></g><g transform="translate(146.33 228.55)"><path d="m0 0c-7e-3 0.143-0.023 0.286-0.039 0.429" fill="none" stroke="#000" stroke-linecap="round" stroke-linejoin="round" stroke-miterlimit="10" stroke-width=".25"/></g><g transform="translate(144.87 228.97)"><path d="m0 0-3e-3 1e-3" fill="none" stroke="#000" stroke-linecap="round" stroke-linejoin="round" stroke-miterlimit="10" stroke-width=".25"/></g><g transform="translate(144.83 228.55)"><path d="m0 0c-0.17-0.033-0.336-0.078-0.5-0.133" fill="none" stroke="#000" stroke-linecap="round" stroke-linejoin="round" stroke-miterlimit="10" stroke-width=".25"/></g><g transform="translate(144.87 228.97)"><path d="m0 0c-0.016-0.143-0.028-0.286-0.038-0.429" fill="none" stroke="#000" stroke-linecap="round" stroke-linejoin="round" stroke-miterlimit="10" stroke-width=".25"/></g><g transform="translate(144.08 228.76)"><path d="m0 0v1e-3" fill="none" stroke="#000" stroke-linecap="round" stroke-linejoin="round" stroke-miterlimit="10" stroke-width=".25"/></g><g transform="translate(144.33 228.41)"><path d="m0 0c-0.08 0.119-0.164 0.235-0.248 0.351" fill="none" stroke="#000" stroke-linecap="round" stroke-linejoin="round" stroke-miterlimit="10" stroke-width=".25"/></g><g transform="translate(142.85 228.05)"><path d="m0 0h-4e-3" fill="none" stroke="#000" stroke-linecap="round" stroke-linejoin="round" stroke-miterlimit="10" stroke-width=".25"/></g><g transform="translate(143.03 227.66)"><path d="m0 0c-0.133-0.113-0.252-0.234-0.365-0.363" fill="none" stroke="#000" stroke-linecap="round" stroke-linejoin="round" stroke-miterlimit="10" stroke-width=".25"/></g><g transform="translate(142.85 228.05)"><path d="m0 0c0.055-0.132 0.117-0.26 0.181-0.392" fill="none" stroke="#000" stroke-linecap="round" stroke-linejoin="round" stroke-miterlimit="10" stroke-width=".25"/></g><g transform="translate(142.27 227.48)"><path d="m0 0v2e-3" fill="none" stroke="#000" stroke-linecap="round" stroke-linejoin="round" stroke-miterlimit="10" stroke-width=".25"/></g><g transform="translate(142.66 227.3)"><path d="m0 0c-0.129 0.063-0.261 0.122-0.392 0.18" fill="none" stroke="#000" stroke-linecap="round" stroke-linejoin="round" stroke-miterlimit="10" stroke-width=".25"/></g><g transform="translate(141.56 226.25)"><path d="m0 0h-1e-3" fill="none" stroke="#000" stroke-linecap="round" stroke-linejoin="round" stroke-miterlimit="10" stroke-width=".25"/></g><g transform="translate(141.91 226)"><path d="m0 0c-0.055-0.162-0.1-0.328-0.133-0.498" fill="none" stroke="#000" stroke-linecap="round" stroke-linejoin="round" stroke-miterlimit="10" stroke-width=".25"/></g><g transform="translate(141.56 226.25)"><path d="m0 0c0.113-0.084 0.233-0.168 0.351-0.249" fill="none" stroke="#000" stroke-linecap="round" stroke-linejoin="round" stroke-miterlimit="10" stroke-width=".25"/></g><g transform="translate(141.35 225.46)"><path d="m0 0v3e-3" fill="none" stroke="#000" stroke-linecap="round" stroke-linejoin="round" stroke-miterlimit="10" stroke-width=".25"/></g><g transform="translate(141.78 225.5)"><path d="m0 0c-0.144-0.01-0.287-0.024-0.429-0.04" fill="none" stroke="#000" stroke-linecap="round" stroke-linejoin="round" stroke-miterlimit="10" stroke-width=".25"/></g><g transform="translate(141.35 224.04)"><path d="m0 0v-3e-3" fill="none" stroke="#000" stroke-linecap="round" stroke-linejoin="round" stroke-miterlimit="10" stroke-width=".25"/></g><g transform="translate(141.78 224)"><path d="m0 0c0.033-0.169 0.078-0.335 0.133-0.497" fill="none" stroke="#000" stroke-linecap="round" stroke-linejoin="round" stroke-miterlimit="10" stroke-width=".25"/></g><g transform="translate(141.35 224.04)"><path d="m0 0c0.142-0.018 0.285-0.031 0.429-0.041" fill="none" stroke="#000" stroke-linecap="round" stroke-linejoin="round" stroke-miterlimit="10" stroke-width=".25"/></g><g transform="translate(141.56 223.25)"><path d="m0 0-1e-3 1e-3" fill="none" stroke="#000" stroke-linecap="round" stroke-linejoin="round" stroke-miterlimit="10" stroke-width=".25"/></g><g transform="translate(141.91 223.5)"><path d="m0 0c-0.12-0.082-0.237-0.165-0.351-0.25" fill="none" stroke="#000" stroke-linecap="round" stroke-linejoin="round" stroke-miterlimit="10" stroke-width=".25"/></g><g transform="translate(142.27 222.02)"><path d="m0 0v-2e-3" fill="none" stroke="#000" stroke-linecap="round" stroke-linejoin="round" stroke-miterlimit="10" stroke-width=".25"/></g><g transform="translate(149.59 226.25)"><path d="m0 0h3e-3" fill="none" stroke="#000" stroke-linecap="round" stroke-linejoin="round" stroke-miterlimit="10" stroke-width=".25"/></g><g transform="translate(146.33 220.95)"><path d="m0 0c0.172 0.034 0.34 0.078 0.5 0.134" fill="none" stroke="#000" stroke-linecap="round" stroke-linejoin="round" stroke-miterlimit="10" stroke-width=".25"/></g><g transform="translate(146.29 220.52)" fill="none" stroke="#000" stroke-linecap="round" stroke-linejoin="round" stroke-miterlimit="10" stroke-width=".25"><path d="m0 0c0.016 0.142 0.032 0.285 0.039 0.427"/><path d="m0 0 4e-3 -2e-3"/></g><g transform="translate(147.07 220.73)"><path d="m0 0-1e-3 -2e-3" fill="none" stroke="#000" stroke-linecap="round" stroke-linejoin="round" stroke-miterlimit="10" stroke-width=".25"/></g><g transform="translate(146.83 221.08)"><path d="m0 0c0.08-0.119 0.164-0.235 0.248-0.352" fill="none" stroke="#000" stroke-linecap="round" stroke-linejoin="round" stroke-miterlimit="10" stroke-width=".25"/></g><g transform="translate(148.31 221.45)"><path d="m0 0h3e-3" fill="none" stroke="#000" stroke-linecap="round" stroke-linejoin="round" stroke-miterlimit="10" stroke-width=".25"/></g><g transform="translate(148.13 221.83)"><path d="m0 0c0.13 0.115 0.249 0.236 0.363 0.365" fill="none" stroke="#000" stroke-linecap="round" stroke-linejoin="round" stroke-miterlimit="10" stroke-width=".25"/></g><g transform="translate(148.31 221.45)"><path d="m0 0c-0.056 0.131-0.116 0.261-0.182 0.388" fill="none" stroke="#000" stroke-linecap="round" stroke-linejoin="round" stroke-miterlimit="10" stroke-width=".25"/></g><g transform="translate(148.88 222.02)"><path d="m0 0v-2e-3" fill="none" stroke="#000" stroke-linecap="round" stroke-linejoin="round" stroke-miterlimit="10" stroke-width=".25"/></g><g transform="translate(148.49 222.2)"><path d="m0 0c0.13-0.061 0.259-0.123 0.392-0.178" fill="none" stroke="#000" stroke-linecap="round" stroke-linejoin="round" stroke-miterlimit="10" stroke-width=".25"/></g><g transform="translate(149.59 223.25)"><path d="m0 0 3e-3 1e-3" fill="none" stroke="#000" stroke-linecap="round" stroke-linejoin="round" stroke-miterlimit="10" stroke-width=".25"/></g><g transform="translate(149.24 223.5)"><path d="m0 0c0.052 0.162 0.097 0.328 0.131 0.497" fill="none" stroke="#000" stroke-linecap="round" stroke-linejoin="round" stroke-miterlimit="10" stroke-width=".25"/></g><g transform="translate(149.59 223.25)"><path d="m0 0c-0.114 0.084-0.23 0.168-0.35 0.25" fill="none" stroke="#000" stroke-linecap="round" stroke-linejoin="round" stroke-miterlimit="10" stroke-width=".25"/></g><g transform="translate(149.8 224.04)"><path d="m0 0v-3e-3" fill="none" stroke="#000" stroke-linecap="round" stroke-linejoin="round" stroke-miterlimit="10" stroke-width=".25"/></g><g transform="translate(149.37 224)"><path d="m0 0c0.145 0.01 0.288 0.023 0.428 0.041" fill="none" stroke="#000" stroke-linecap="round" stroke-linejoin="round" stroke-miterlimit="10" stroke-width=".25"/></g><g transform="translate(149.8 225.46)"><path d="m0 0v3e-3" fill="none" stroke="#000" stroke-linecap="round" stroke-linejoin="round" stroke-miterlimit="10" stroke-width=".25"/></g><g transform="translate(149.37 225.5)"><path d="m0 0c-0.034 0.169-0.079 0.335-0.131 0.498" fill="none" stroke="#000" stroke-linecap="round" stroke-linejoin="round" stroke-miterlimit="10" stroke-width=".25"/></g><g transform="translate(149.8 225.46)"><path d="m0 0c-0.14 0.016-0.283 0.03-0.428 0.04" fill="none" stroke="#000" stroke-linecap="round" stroke-linejoin="round" stroke-miterlimit="10" stroke-width=".25"/></g><g transform="translate(149.24 226)"><path d="m0 0c0.119 0.081 0.235 0.165 0.35 0.249" fill="none" stroke="#000" stroke-linecap="round" stroke-linejoin="round" stroke-miterlimit="10" stroke-width=".25"/></g><g transform="translate(142.66 222.2)"><path d="m0 0c0.113-0.128 0.232-0.25 0.365-0.365" fill="none" stroke="#000" stroke-linecap="round" stroke-linejoin="round" stroke-miterlimit="10" stroke-width=".25"/></g><g transform="translate(142.27 222.02)"><path d="m0 0c0.131 0.056 0.263 0.118 0.392 0.178" fill="none" stroke="#000" stroke-linecap="round" stroke-linejoin="round" stroke-miterlimit="10" stroke-width=".25"/></g><g transform="translate(142.85 221.45)"><path d="m0 0h-4e-3" fill="none" stroke="#000" stroke-linecap="round" stroke-linejoin="round" stroke-miterlimit="10" stroke-width=".25"/></g><g transform="translate(143.03 221.83)"><path d="m0 0c-0.063-0.127-0.126-0.257-0.181-0.388" fill="none" stroke="#000" stroke-linecap="round" stroke-linejoin="round" stroke-miterlimit="10" stroke-width=".25"/></g><g transform="translate(144.08 220.73)"><path d="m0 0v-2e-3" fill="none" stroke="#000" stroke-linecap="round" stroke-linejoin="round" stroke-miterlimit="10" stroke-width=".25"/></g><g transform="translate(144.33 221.08)"><path d="m0 0c0.164-0.056 0.33-0.1 0.5-0.134" fill="none" stroke="#000" stroke-linecap="round" stroke-linejoin="round" stroke-miterlimit="10" stroke-width=".25"/></g><g transform="translate(144.08 220.73)"><path d="m0 0c0.084 0.116 0.168 0.233 0.248 0.352" fill="none" stroke="#000" stroke-linecap="round" stroke-linejoin="round" stroke-miterlimit="10" stroke-width=".25"/></g><g transform="translate(144.87 220.52)"><path d="m0 0-3e-3 -2e-3" fill="none" stroke="#000" stroke-linecap="round" stroke-linejoin="round" stroke-miterlimit="10" stroke-width=".25"/></g><g transform="translate(144.83 220.95)"><path d="m0 0c0.01-0.142 0.022-0.285 0.038-0.427" fill="none" stroke="#000" stroke-linecap="round" stroke-linejoin="round" stroke-miterlimit="10" stroke-width=".25"/></g><g transform="translate(148.13 221.83)"><path d="m0 0c-0.507-0.093-0.964-0.358-1.302-0.75" fill="none" stroke="#000" stroke-linecap="round" stroke-linejoin="round" stroke-miterlimit="10" stroke-width=".25"/></g><g transform="translate(146.33 220.95)"><path d="m0 0c-0.482 0.172-1.014 0.172-1.498 0" fill="none" stroke="#000" stroke-linecap="round" stroke-linejoin="round" stroke-miterlimit="10" stroke-width=".25"/></g><g transform="translate(144.33 221.08)"><path d="m0 0c-0.333 0.391-0.791 0.656-1.298 0.75" fill="none" stroke="#000" stroke-linecap="round" stroke-linejoin="round" stroke-miterlimit="10" stroke-width=".25"/></g><g transform="translate(142.66 222.2)"><path d="m0 0c-0.097 0.507-0.36 0.968-0.752 1.302" fill="none" stroke="#000" stroke-linecap="round" stroke-linejoin="round" stroke-miterlimit="10" stroke-width=".25"/></g><g transform="translate(141.78 224)"><path d="m0 0c0.172 0.487 0.172 1.016 0 1.501" fill="none" stroke="#000" stroke-linecap="round" stroke-linejoin="round" stroke-miterlimit="10" stroke-width=".25"/></g><g transform="translate(141.91 226)"><path d="m0 0c0.391 0.335 0.655 0.795 0.752 1.301" fill="none" stroke="#000" stroke-linecap="round" stroke-linejoin="round" stroke-miterlimit="10" stroke-width=".25"/></g><g transform="translate(143.03 227.66)"><path d="m0 0c0.507 0.095 0.965 0.36 1.298 0.752" fill="none" stroke="#000" stroke-linecap="round" stroke-linejoin="round" stroke-miterlimit="10" stroke-width=".25"/></g><g transform="translate(144.83 228.55)"><path d="m0 0c0.484-0.171 1.016-0.171 1.498 0" fill="none" stroke="#000" stroke-linecap="round" stroke-linejoin="round" stroke-miterlimit="10" stroke-width=".25"/></g><g transform="translate(146.83 228.41)"><path d="m0 0c0.338-0.392 0.795-0.657 1.298-0.752" fill="none" stroke="#000" stroke-linecap="round" stroke-linejoin="round" stroke-miterlimit="10" stroke-width=".25"/></g><g transform="translate(148.49 227.3)"><path d="m0 0c0.097-0.506 0.358-0.966 0.752-1.3" fill="none" stroke="#000" stroke-linecap="round" stroke-linejoin="round" stroke-miterlimit="10" stroke-width=".25"/></g><g transform="translate(149.37 225.5)"><path d="m0 0c-0.169-0.486-0.169-1.015 0-1.501" fill="none" stroke="#000" stroke-linecap="round" stroke-linejoin="round" stroke-miterlimit="10" stroke-width=".25"/></g><g transform="translate(149.24 223.5)"><path d="m0 0c-0.394-0.334-0.655-0.795-0.752-1.302" fill="none" stroke="#000" stroke-linecap="round" stroke-linejoin="round" stroke-miterlimit="10" stroke-width=".25"/></g></g><g clip-path="url(#clipPath16889)"><g transform="translate(115.12 238.56)" fill="none" stroke-linecap="round"><path d="m0 0h-2.92c-0.551 0-1 0.45-1 1v21.612" stroke="#fff" stroke-width="1.5"/><path d="m0 0h-2.92c-0.551 0-1 0.45-1 1v21.612" stroke="#000" stroke-width=".5"/></g><g transform="translate(175.58 238.56)" fill="none" stroke-linecap="round"><path d="m0 0h2.92c0.551 0 1 0.45 1 1v21.612" stroke="#fff" stroke-width="1.5"/><path d="m0 0h2.92c0.551 0 1 0.45 1 1v21.612" stroke="#000" stroke-width=".5"/></g><g transform="translate(148 224.29)" fill="none" stroke-linecap="round"><path d="m0 0h7.25c0.551 0 1 0.45 1 1v35.883" stroke="#fff" stroke-width="1.5"/><path d="m0 0h7.25c0.551 0 1 0.45 1 1v35.883" stroke="#000" stroke-width=".5"/></g><path d="m107.26 261.23h7.776v7.777h-7.776zm3.314 5.915c0.136 0.068 0.255 0.187 0.366 0.349h0.485v-4.828h-0.545v3.961h-0.807v0.399c0.229 0.026 0.391 0.068 0.501 0.119"/><path d="m175.51 261.23h7.776v7.777h-7.776zm3.314 5.915c0.136 0.068 0.255 0.187 0.366 0.349h0.485v-4.828h-0.545v3.961h-0.807v0.399c0.229 0.026 0.391 0.068 0.501 0.119"/><path d="m152.26 261.2h7.776v7.777h-7.776zm4.062 6.238c0.332 0 0.612-0.128 0.834-0.382 0.22-0.247 0.33-0.544 0.33-0.876 0-0.408-0.135-0.756-0.399-1.054-0.433-0.459-0.74-0.773-0.918-0.952-0.433-0.442-0.688-0.782-0.773-1.011h2.133v-0.527h-2.771c0 0.519 0.264 1.055 0.79 1.598 0.383 0.365 0.672 0.629 0.867 0.807 0.4 0.383 0.596 0.74 0.596 1.071 0 0.221-0.068 0.425-0.196 0.605-0.128 0.177-0.306 0.263-0.519 0.263-0.347 0-0.611-0.145-0.781-0.434-0.086-0.221-0.17-0.441-0.256-0.655l-0.475 0.127c0.272 0.944 0.782 1.42 1.538 1.42"/></g></g></g></svg>
