<?xml version="1.0" encoding="UTF-8"?>
<svg width="58.216mm" height="27.441mm" version="1.1" viewBox="0 0 58.216 27.441" xmlns="http://www.w3.org/2000/svg"><defs><clipPath id="clipPath1035"><path d="m48.591 356.1h165.02v77.787h-165.02z"/></clipPath></defs><g transform="translate(-68.41 -83.041)"><g transform="matrix(.35278 0 0 -.35278 51.268 236.11)"><g clip-path="url(#clipPath1035)"><g transform="translate(83.623 400.63)"><path d="m0 0c0-0.977-0.798-1.775-1.775-1.775h-30.981c-0.976 0-1.775 0.798-1.775 1.775v30.98c0 0.977 0.799 1.776 1.775 1.776h30.981c0.977 0 1.775-0.799 1.775-1.776z" fill="#fff"/><path d="m0 0c0-0.977-0.798-1.775-1.775-1.775h-30.981c-0.976 0-1.775 0.798-1.775 1.775v30.98c0 0.977 0.799 1.776 1.775 1.776h30.981c0.977 0 1.775-0.799 1.775-1.776z" fill="none" stroke="#000"/></g><g transform="translate(126.79 400.63)"><path d="m0 0c0-0.977-0.799-1.775-1.776-1.775h-30.98c-0.977 0-1.776 0.798-1.776 1.775v30.98c0 0.977 0.799 1.776 1.776 1.776h30.98c0.977 0 1.776-0.799 1.776-1.776z" fill="#fff"/><path d="m0 0c0-0.977-0.799-1.775-1.776-1.775h-30.98c-0.977 0-1.776 0.798-1.776 1.775v30.98c0 0.977 0.799 1.776 1.776 1.776h30.98c0.977 0 1.776-0.799 1.776-1.776z" fill="none" stroke="#000"/></g><g transform="translate(169.95 400.63)"><path d="m0 0c0-0.977-0.797-1.775-1.774-1.775h-30.981c-0.977 0-1.775 0.798-1.775 1.775v30.98c0 0.977 0.798 1.776 1.775 1.776h30.981c0.977 0 1.774-0.799 1.774-1.776z" fill="#fff"/><path d="m0 0c0-0.977-0.797-1.775-1.774-1.775h-30.981c-0.977 0-1.775 0.798-1.775 1.775v30.98c0 0.977 0.798 1.776 1.775 1.776h30.981c0.977 0 1.774-0.799 1.774-1.776z" fill="none" stroke="#000"/></g><g transform="translate(213.11 400.63)"><path d="m0 0c0-0.977-0.799-1.775-1.777-1.775h-30.978c-0.976 0-1.776 0.798-1.776 1.775v30.98c0 0.977 0.8 1.776 1.776 1.776h30.978c0.978 0 1.777-0.799 1.777-1.776z" fill="#fff"/><path d="m0 0c0-0.977-0.799-1.775-1.777-1.775h-30.978c-0.976 0-1.776 0.798-1.776 1.775v30.98c0 0.977 0.8 1.776 1.776 1.776h30.978c0.978 0 1.777-0.799 1.777-1.776z" fill="none" stroke="#000"/></g><g transform="translate(83.623 358.37)"><path d="m0 0c0-0.977-0.798-1.775-1.775-1.775h-30.981c-0.976 0-1.775 0.798-1.775 1.775v30.98c0 0.977 0.799 1.776 1.775 1.776h30.981c0.977 0 1.775-0.799 1.775-1.776z" fill="#fff"/><path d="m0 0c0-0.977-0.798-1.775-1.775-1.775h-30.981c-0.976 0-1.775 0.798-1.775 1.775v30.98c0 0.977 0.799 1.776 1.775 1.776h30.981c0.977 0 1.775-0.799 1.775-1.776z" fill="none" stroke="#000"/></g><g transform="translate(126.79 358.37)"><path d="m0 0c0-0.977-0.799-1.775-1.776-1.775h-30.98c-0.977 0-1.776 0.798-1.776 1.775v30.98c0 0.977 0.799 1.776 1.776 1.776h30.98c0.977 0 1.776-0.799 1.776-1.776z" fill="#fff"/><path d="m0 0c0-0.977-0.799-1.775-1.776-1.775h-30.98c-0.977 0-1.776 0.798-1.776 1.775v30.98c0 0.977 0.799 1.776 1.776 1.776h30.98c0.977 0 1.776-0.799 1.776-1.776z" fill="none" stroke="#000"/></g><g transform="translate(169.95 358.37)"><path d="m0 0c0-0.977-0.797-1.775-1.774-1.775h-30.981c-0.977 0-1.775 0.798-1.775 1.775v30.98c0 0.977 0.798 1.776 1.775 1.776h30.981c0.977 0 1.774-0.799 1.774-1.776z" fill="#fff"/><path d="m0 0c0-0.977-0.797-1.775-1.774-1.775h-30.981c-0.977 0-1.775 0.798-1.775 1.775v30.98c0 0.977 0.798 1.776 1.775 1.776h30.981c0.977 0 1.774-0.799 1.774-1.776z" fill="none" stroke="#000"/></g><g transform="translate(213.11 358.37)"><path d="m0 0c0-0.977-0.799-1.775-1.777-1.775h-30.978c-0.976 0-1.776 0.798-1.776 1.775v30.98c0 0.977 0.8 1.776 1.776 1.776h30.978c0.978 0 1.777-0.799 1.777-1.776z" fill="#fff"/><path d="m0 0c0-0.977-0.799-1.775-1.777-1.775h-30.978c-0.976 0-1.776 0.798-1.776 1.775v30.98c0 0.977 0.8 1.776 1.776 1.776h30.978c0.978 0 1.777-0.799 1.777-1.776z" fill="none" stroke="#000"/></g></g></g><g font-family="'Frutiger LT Std 45 Light'" font-size="2.4694px" font-weight="bold" stroke-width=".35278"><text x="69.214973" y="90.290916"><tspan x="69.214973 71.012726 72.533905 73.509338 74.14151 75.252762 76.773941 78.161766 78.793945" y="90.290916">Hot cue 1</tspan><tspan x="69.694046 71.081871 72.054832 73.442657 74.828018 75.529343 77.052986 78.574165 79.670601" y="103.60369">Previous</tspan><tspan x="71.773315 72.746277 73.72171 75.109535 76.218315" y="106.77692">track</tspan><tspan x="99.628647 101.42393 102.94759 103.92301 104.55519 105.66644 107.18762 108.57545 109.20763 84.448975 86.244263 87.767906 88.74334 89.375519 90.486763 92.007942 93.395767 94.027946" y="90.290916">Hot cue 3Hot cue 2</tspan><tspan x="86.07634 87.461693 88.849525 90.23735 91.210312 92.321564 93.830391" y="103.60369">Search</tspan></text><text x="101.27577" y="103.60369"><tspan x="101.27577 102.6636 104.04896 105.43678 106.40974 107.521 109.02982" y="103.60369" stroke-width=".35278">Search</tspan></text><text x="114.88982" y="90.290916"><tspan x="114.88982 116.6851 118.20876 119.18418 119.81636 120.92761 122.44879 123.83662 124.4688" y="90.290916">Hot cue 4</tspan><tspan x="115.59608 117.11973 118.50509 120.30284 121.6882 123.62424" y="105.19154">CENSOR</tspan></text></g><path d="m76.82 138.6-23.917-5.0905 16.367-18.167z" fill="#fff" opacity=".994" stroke="#fff" stroke-width=".26458"/><path d="m62.268 111.11 26.898 16.806-28.003 14.891z" fill="#fff" opacity=".994" stroke="#fff" stroke-width=".26458"/><g transform="matrix(.30359 0 0 .30359 98.794 100.48)"><path d="m10.516 15.69v9.9719l8.6359-4.986z" fill="none" stroke="#000" stroke-width=".19944"/><path d="m19.243 15.734v9.9719l8.6359-4.986z" fill="none" stroke="#000" stroke-width=".19944"/><path d="m10.667 20.661c0-2.5841 0.034-4.6783 0.07554-4.6537 0.04153 0.02461 1.8661 1.076 4.0545 2.3366s3.9914 2.302 4.0068 2.3144c0.02637 0.02117-7.8633 4.5961-8.0493 4.6675-0.04867 0.01869-0.08745-2.0499-0.08745-4.6648z" opacity=".994" stroke="#fff" stroke-width=".10073"/><g stroke="#000"><g stroke-width=".10073"><path d="m19.431 20.7c0-2.5801 0.03876-4.6271 0.08736-4.6085 0.22664 0.0871 7.9656 4.573 7.9682 4.6188 0.0031 0.05654-7.8938 4.6317-7.9946 4.6317-0.03347 0-0.06094-2.0889-0.06094-4.6421z" opacity=".994"/><path d="m10.829 24.981c-0.03348-0.08733-0.06094-2.0815-0.06094-4.4316 0-3.0932 0.03124-4.2729 0.11311-4.2729 0.08122 0 7.4649 4.1947 7.7264 4.3894 0.01802 0.01343-0.27661 0.19605-0.65475 0.40582-0.50026 0.27752-6.4272 3.6903-6.9979 4.0294-0.03576 0.02129-0.09241-0.03282-0.12591-0.12013z" opacity=".994"/><path d="m10.834 25.072c-0.03619-0.03621-0.06575-2.03-0.06575-4.4308 0-3.231 0.03015-4.365 0.11624-4.365 0.06391 0 1.836 0.98513 3.9378 2.1892 4.2978 2.462 3.9811 2.1537 2.8581 2.7824-0.2825 0.15817-1.67 0.95447-3.0833 1.7696-3.656 2.1085-3.6904 2.1273-3.7631 2.0547z" opacity=".994"/></g><path d="m10.622 20.675c0-2.6395 0.0042-4.7966 0.0097-4.7937 0.11804 0.06716 3.6525 2.1072 6.7457 3.8936 0.78947 0.45592 1.4594 0.84251 1.4888 0.85908 0.02936 0.01657 0.05569 0.03387 0.05852 0.03859 0.0032 0.0042-0.62465 0.37194-1.3944 0.81622-2.0368 1.1757-5.7606 3.3257-6.3657 3.6754-0.28685 0.16578-0.52624 0.30331-0.53197 0.30561-0.0053 0.0025-0.01057-2.1554-0.01057-4.7948zm0.69251 4.2899c0.88754-0.50318 1.388-0.78989 3.28-1.879 2.6953-1.5515 3.0367-1.7464 3.3646-1.9214 0.29772-0.15883 0.37016-0.20288 0.4127-0.25094 0.01381-0.01563 0.06486-0.05395 0.11332-0.08511 0.04848-0.03115 0.12082-0.08227 0.16076-0.11356l0.07266-0.05692-0.17966-0.10628c-0.09879-0.05844-0.31281-0.18433-0.47554-0.27972-0.16274-0.09539-0.43755-0.25832-0.61068-0.36206-0.17313-0.10373-1.2667-0.73256-2.4301-1.3974-1.1634-0.66483-2.5935-1.4845-3.1779-1.8215-0.58443-0.337-1.065-0.61031-1.068-0.60734-0.01069 0.01069-0.02774 0.49463-0.04366 1.2417-0.02113 0.98927-0.02113 5.6071-4.5e-5 6.6104 0.01429 0.68074 0.03326 1.1937 0.0473 1.2811l0.0065 0.04091 0.05289-0.02692c0.02913-0.01478 0.24276-0.13451 0.47475-0.26604zm7.454-4.2706c0-0.0032-0.0051-0.0092-0.01261-0.01333-0.0066-0.0042-0.01264-0.0017-0.01264 0.0051 0 0.0072 0.0051 0.01335 0.01264 0.01335 0.0067 0 0.01261-0.0028 0.01261-0.0051z" opacity=".994" stroke-width=".012592"/><path d="m19.348 20.719v-4.8021l0.10134 0.05896c0.08665 0.0504 0.09665 0.05952 0.06898 0.06295-0.05563 0.0068-0.06751 0.04401-0.08149 0.25422-0.08371 1.2602-0.08121 8.8887 0.0029 9.0649 0.02244 0.04696 0.05835 0.04577 0.16015-0.0054 0.15145-0.07625 0.11166-0.0409-0.07535 0.06693l-0.17659 0.10185z" opacity=".994" stroke-width=".012592"/><g stroke-width=".0089034"><path d="m19.349 22.074-1e-4 -3.4523h0.01855c0.01834 0 0.01846 0.0018 0.01319 0.1803-0.0029 0.09917-0.0018 0.25242 0.0024 0.34056 0.0071 0.1502 0.0079 0.13888 0.0091-0.1803l0.0011-0.34056h4.6345l0.45394 0.26379c0.92269 0.53618 2.1094 1.2312 2.5774 1.5096 0.32364 0.19249 0.45102 0.274 0.46041 0.29461 0.02264 0.04969 3.3e-4 0.06578-0.54035 0.38964-1.6212 0.97109-6.4382 3.755-7.3033 4.2209-0.06731 0.03621-0.12241 0.06922-0.12242 0.0733-2e-5 0.0041 0.01402-9.46e-4 0.03112-0.01188 0.01715-0.01058 0.03116-0.0158 0.03116-0.01158 0 0.0087-0.03904 0.04405-0.04202 0.03794-9.46e-4 -0.0021-0.0091 0.0019-0.01777 0.0095-0.0087 0.0074-0.01988 0.01443-0.02483 0.01551-0.0048 9.47e-4 -0.01559 0.0077-0.02373 0.01462-0.0081 0.0068-0.01716 0.01034-0.02004 0.0074-0.0029-0.0029-0.0052-9.47e-4 -0.0052 0.0044 0 0.0051-0.01002 0.01193-0.02226 0.01501-0.01226 0.0029-0.02227 0.0097-0.02227 0.01484 0 5e-3 -0.0039 0.0068-0.0089 0.0036-0.0049-0.0029-0.0089-9.46e-4 -0.0089 0.0036 0 0.0051-0.0055 0.0095-0.01271 0.0095-0.0068 0-0.01901 0.0063-0.02671 0.01403-0.0077 0.0077-0.01403 0.01069-0.01412 0.0068-8e-5 -4e-3 -0.0039-9.47e-4 -0.0087 0.0061-0.0054 0.0086-0.0087-1.2068-0.0087-3.439zm0.11724 3.2984c-0.01069-7e-3 -0.01946-0.01868-0.01946-0.02573 0-0.0069-0.0036-0.01036-0.0087-0.0074-0.0054 0.0032-0.0046 0.01265 0.0021 0.02501 0.01386 0.02484 0.02556 0.03326 0.03663 0.0264 0.0049-0.0029-1.3e-5 -0.01121-0.0107-0.01832zm0.05624 0.016c0.0029-0.0049 9.46e-4 -9e-3 -0.0036-9e-3 -0.0051 0-0.0095 0.0039-0.0095 9e-3 0 0.0048 0.0015 0.0089 0.0036 0.0089 0.0019 0 0.0065-0.0039 0.0095-0.0089zm-0.084585-0.10418c0-0.02307-0.0029-0.03014-0.0094-0.02355-0.0082 0.0082-0.0031 0.05647 0.0059 0.05647 0.0018 0 0.0034-0.01482 0.0034-0.03293zm-0.0101-0.15625c-9.46e-4 -0.07418-0.0018-0.07795-0.0082-0.03785-0.0064 0.04047-0.0026 0.1202 0.0059 0.1202 0.0018 0 0.0029-0.03701 0.0022-0.08236zm-0.01597-0.6227c-0.01457-0.73623-0.02685-2.2826-0.02877-3.6176-0.0012-1.1374-0.0015-1.1471-0.0091-0.55647-0.0041 0.33054-0.0041 1.0898 3.3e-5 1.6872 0.0042 0.59742 0.0075 1.1583 0.0076 1.2465 1.98e-4 0.19814 0.01335 1.0344 0.02439 1.5492 0.0044 0.20982 0.0045 0.21266 0.0105 0.20681 0.0029-0.0029 9.46e-4 -0.23501-0.0047-0.51566z" opacity=".994"/><path d="m19.349 22.072c0-3.4356 7.9e-5 -3.4508 0.01767-3.4508 0.0171 0 0.01777 0.0074 0.0202 0.24262l0.0027 0.24262 0.0019-0.24262 2e-3 -0.24262h4.6378l0.56807 0.33057c2.1909 1.2749 2.8977 1.6951 2.9186 1.7352 0.0244 0.0468-9.46e-4 0.06752-0.31605 0.26006-1.0726 0.65499-6.1527 3.5973-7.3676 4.2672-0.12242 0.0675-0.22659 0.12677-0.23149 0.13172-0.0059 6e-3 -0.0052 0.0068 0.0021 0.0029 0.01669-0.0095 0.01339 0.0079-0.0044 0.02336-0.0086 0.0074-0.05564 0.03667-0.10462 0.06495-0.04897 0.0283-0.10206 0.05917-0.11797 0.0687l-0.02895 0.01729zm0.12271 3.3064c-0.0084-0.0048-0.01933-0.0158-0.02423-0.02423-0.0049-0.0084-9e-3 -0.01054-0.0092-0.0049-9.47e-4 0.01358 0.02463 0.03857 0.03823 0.0382 0.0056-1.97e-4 0.0036-0.0044-0.0049-0.0092zm-0.03643-0.10389c-0.0022-0.0087-0.0044-0.0036-0.0044 0.01095-1.96e-4 0.01468 0.0012 0.02178 0.0042 0.01577 0.0026-6e-3 0.0029-0.01805 2.98e-4 -0.0267zm-0.0087-0.14697c-2e-3 -0.01108-0.0037-0.0042-4e-3 0.01546-9.8e-5 0.01956 0.0012 0.02865 0.0036 0.02015 0.0021-0.0085 0.0023-0.02454 2.01e-4 -0.03561zm-0.0087-0.31618c-0.0019-0.01836-0.0034-0.0031-0.0034 0.03343 0 0.03674 0.0012 0.05175 0.0034 0.03342 0.0019-0.01836 0.0019-0.04841 0-0.06679zm-0.01506-0.92092c-0.0055-0.45696-0.01148-0.95305-0.01285-1.1024-1e-3 -0.14936-9.47e-4 0.08303 9.46e-4 0.5164 3e-3 0.79317 0.01149 1.428 0.01872 1.4208 0.0019-0.0019-9.46e-4 -0.3778-0.0065-0.83478zm-0.02032-2.9388c-9.46e-4 -0.27545-0.0025-0.05008-0.0025 0.50082 0 0.55091 9.46e-4 0.77628 0.0025 0.50082 9.47e-4 -0.27545 9.47e-4 -0.72619 0-1.0016z" opacity=".994"/><path d="m19.349 22.072c0-3.4007 1.97e-4 -3.4504 0.01716-3.4504 0.0095 0 0.01899 0.0068 0.02128 0.01558 0.0036 0.01485 0.0042 0.01485 0.0051 0 9.47e-4 -0.01481 0.11787-0.01558 2.3217-0.01558h2.3207l0.19676 0.11457c2.0626 1.201 2.9689 1.7344 3.2106 1.8895 0.14656 0.09405 0.15274 0.08773-0.42562 0.43469-1.5033 0.90179-6.1929 3.6142-7.2737 4.207-0.08288 0.04546-0.10907 0.06406-0.10907 0.07753 0 0.0097-0.0039 0.01522-0.0089 0.01223-0.0049-0.0029-9e-3 -0.0012-9e-3 0.0029 0 0.0069-0.1746 0.11442-0.24707 0.15192l-0.02004 0.01036zm0.04229 1.1193c-0.0012-0.06244-0.0029-0.01136-0.0029 0.11352 0 0.12487 9.46e-4 0.17596 0.0029 0.11352 0.0012-0.06244 0.0012-0.1646 0-0.22704z" opacity=".994"/></g></g></g><g transform="matrix(-.30359 0 0 .30359 95.367 100.95)"><path d="m10.516 15.69v9.9719l8.6359-4.986z" fill="none" stroke="#000" stroke-width=".19944"/><path d="m19.243 15.734v9.9719l8.6359-4.986z" fill="none" stroke="#000" stroke-width=".19944"/><path d="m10.667 20.661c0-2.5841 0.034-4.6783 0.07554-4.6537 0.04153 0.02461 1.8661 1.076 4.0545 2.3366s3.9914 2.302 4.0068 2.3144c0.02637 0.02117-7.8633 4.5961-8.0493 4.6675-0.04867 0.01869-0.08745-2.0499-0.08745-4.6648z" opacity=".994" stroke="#fff" stroke-width=".10073"/><g stroke="#000"><g stroke-width=".10073"><path d="m19.431 20.7c0-2.5801 0.03876-4.6271 0.08736-4.6085 0.22664 0.0871 7.9656 4.573 7.9682 4.6188 0.0031 0.05654-7.8938 4.6317-7.9946 4.6317-0.03347 0-0.06094-2.0889-0.06094-4.6421z" opacity=".994"/><path d="m10.829 24.981c-0.03348-0.08733-0.06094-2.0815-0.06094-4.4316 0-3.0932 0.03124-4.2729 0.11311-4.2729 0.08122 0 7.4649 4.1947 7.7264 4.3894 0.01802 0.01343-0.27661 0.19605-0.65475 0.40582-0.50026 0.27752-6.4272 3.6903-6.9979 4.0294-0.03576 0.02129-0.09241-0.03282-0.12591-0.12013z" opacity=".994"/><path d="m10.834 25.072c-0.03619-0.03621-0.06575-2.03-0.06575-4.4308 0-3.231 0.03015-4.365 0.11624-4.365 0.06391 0 1.836 0.98513 3.9378 2.1892 4.2978 2.462 3.9811 2.1537 2.8581 2.7824-0.2825 0.15817-1.67 0.95447-3.0833 1.7696-3.656 2.1085-3.6904 2.1273-3.7631 2.0547z" opacity=".994"/></g><path d="m10.622 20.675c0-2.6395 0.0042-4.7966 0.0097-4.7937 0.11804 0.06716 3.6525 2.1072 6.7457 3.8936 0.78947 0.45592 1.4594 0.84251 1.4888 0.85908 0.02936 0.01657 0.05569 0.03387 0.05852 0.03859 0.0032 0.0042-0.62465 0.37194-1.3944 0.81622-2.0368 1.1757-5.7606 3.3257-6.3657 3.6754-0.28685 0.16578-0.52624 0.30331-0.53197 0.30561-0.0053 0.0025-0.01057-2.1554-0.01057-4.7948zm0.69251 4.2899c0.88754-0.50318 1.388-0.78989 3.28-1.879 2.6953-1.5515 3.0367-1.7464 3.3646-1.9214 0.29772-0.15883 0.37016-0.20288 0.4127-0.25094 0.01381-0.01563 0.06486-0.05395 0.11332-0.08511 0.04848-0.03115 0.12082-0.08227 0.16076-0.11356l0.07266-0.05692-0.17966-0.10628c-0.09879-0.05844-0.31281-0.18433-0.47554-0.27972-0.16274-0.09539-0.43755-0.25832-0.61068-0.36206-0.17313-0.10373-1.2667-0.73256-2.4301-1.3974-1.1634-0.66483-2.5935-1.4845-3.1779-1.8215-0.58443-0.337-1.065-0.61031-1.068-0.60734-0.01069 0.01069-0.02774 0.49463-0.04366 1.2417-0.02113 0.98927-0.02113 5.6071-4.5e-5 6.6104 0.01429 0.68074 0.03326 1.1937 0.0473 1.2811l0.0065 0.04091 0.05289-0.02692c0.02913-0.01478 0.24276-0.13451 0.47475-0.26604zm7.454-4.2706c0-0.0032-0.0051-0.0092-0.01261-0.01333-0.0066-0.0042-0.01264-0.0017-0.01264 0.0051 0 0.0072 0.0051 0.01335 0.01264 0.01335 0.0067 0 0.01261-0.0028 0.01261-0.0051z" opacity=".994" stroke-width=".012592"/><path d="m19.348 20.719v-4.8021l0.10134 0.05896c0.08665 0.0504 0.09665 0.05952 0.06898 0.06295-0.05563 0.0068-0.06751 0.04401-0.08149 0.25422-0.08371 1.2602-0.08121 8.8887 0.0029 9.0649 0.02244 0.04696 0.05835 0.04577 0.16015-0.0054 0.15145-0.07625 0.11166-0.0409-0.07535 0.06693l-0.17659 0.10185z" opacity=".994" stroke-width=".012592"/><g stroke-width=".0089034"><path d="m19.349 22.074-1e-4 -3.4523h0.01855c0.01834 0 0.01846 0.0018 0.01319 0.1803-0.0029 0.09917-0.0018 0.25242 0.0024 0.34056 0.0071 0.1502 0.0079 0.13888 0.0091-0.1803l0.0011-0.34056h4.6345l0.45394 0.26379c0.92269 0.53618 2.1094 1.2312 2.5774 1.5096 0.32364 0.19249 0.45102 0.274 0.46041 0.29461 0.02264 0.04969 3.3e-4 0.06578-0.54035 0.38964-1.6212 0.97109-6.4382 3.755-7.3033 4.2209-0.06731 0.03621-0.12241 0.06922-0.12242 0.0733-2e-5 0.0041 0.01402-9.46e-4 0.03112-0.01188 0.01715-0.01058 0.03116-0.0158 0.03116-0.01158 0 0.0087-0.03904 0.04405-0.04202 0.03794-9.46e-4 -0.0021-0.0091 0.0019-0.01777 0.0095-0.0087 0.0074-0.01988 0.01443-0.02483 0.01551-0.0048 9.47e-4 -0.01559 0.0077-0.02373 0.01462-0.0081 0.0068-0.01716 0.01034-0.02004 0.0074-0.0029-0.0029-0.0052-9.47e-4 -0.0052 0.0044 0 0.0051-0.01002 0.01193-0.02226 0.01501-0.01226 0.0029-0.02227 0.0097-0.02227 0.01484 0 5e-3 -0.0039 0.0068-0.0089 0.0036-0.0049-0.0029-0.0089-9.46e-4 -0.0089 0.0036 0 0.0051-0.0055 0.0095-0.01271 0.0095-0.0068 0-0.01901 0.0063-0.02671 0.01403-0.0077 0.0077-0.01403 0.01069-0.01412 0.0068-8e-5 -4e-3 -0.0039-9.47e-4 -0.0087 0.0061-0.0054 0.0086-0.0087-1.2068-0.0087-3.439zm0.11724 3.2984c-0.01069-7e-3 -0.01946-0.01868-0.01946-0.02573 0-0.0069-0.0036-0.01036-0.0087-0.0074-0.0054 0.0032-0.0046 0.01265 0.0021 0.02501 0.01386 0.02484 0.02556 0.03326 0.03663 0.0264 0.0049-0.0029-1.3e-5 -0.01121-0.0107-0.01832zm0.05624 0.016c0.0029-0.0049 9.46e-4 -9e-3 -0.0036-9e-3 -0.0051 0-0.0095 0.0039-0.0095 9e-3 0 0.0048 0.0015 0.0089 0.0036 0.0089 0.0019 0 0.0065-0.0039 0.0095-0.0089zm-0.084585-0.10418c0-0.02307-0.0029-0.03014-0.0094-0.02355-0.0082 0.0082-0.0031 0.05647 0.0059 0.05647 0.0018 0 0.0034-0.01482 0.0034-0.03293zm-0.0101-0.15625c-9.46e-4 -0.07418-0.0018-0.07795-0.0082-0.03785-0.0064 0.04047-0.0026 0.1202 0.0059 0.1202 0.0018 0 0.0029-0.03701 0.0022-0.08236zm-0.01597-0.6227c-0.01457-0.73623-0.02685-2.2826-0.02877-3.6176-0.0012-1.1374-0.0015-1.1471-0.0091-0.55647-0.0041 0.33054-0.0041 1.0898 3.3e-5 1.6872 0.0042 0.59742 0.0075 1.1583 0.0076 1.2465 1.98e-4 0.19814 0.01335 1.0344 0.02439 1.5492 0.0044 0.20982 0.0045 0.21266 0.0105 0.20681 0.0029-0.0029 9.46e-4 -0.23501-0.0047-0.51566z" opacity=".994"/><path d="m19.349 22.072c0-3.4356 7.9e-5 -3.4508 0.01767-3.4508 0.0171 0 0.01777 0.0074 0.0202 0.24262l0.0027 0.24262 0.0019-0.24262 2e-3 -0.24262h4.6378l0.56807 0.33057c2.1909 1.2749 2.8977 1.6951 2.9186 1.7352 0.0244 0.0468-9.46e-4 0.06752-0.31605 0.26006-1.0726 0.65499-6.1527 3.5973-7.3676 4.2672-0.12242 0.0675-0.22659 0.12677-0.23149 0.13172-0.0059 6e-3 -0.0052 0.0068 0.0021 0.0029 0.01669-0.0095 0.01339 0.0079-0.0044 0.02336-0.0086 0.0074-0.05564 0.03667-0.10462 0.06495-0.04897 0.0283-0.10206 0.05917-0.11797 0.0687l-0.02895 0.01729zm0.12271 3.3064c-0.0084-0.0048-0.01933-0.0158-0.02423-0.02423-0.0049-0.0084-9e-3 -0.01054-0.0092-0.0049-9.47e-4 0.01358 0.02463 0.03857 0.03823 0.0382 0.0056-1.97e-4 0.0036-0.0044-0.0049-0.0092zm-0.03643-0.10389c-0.0022-0.0087-0.0044-0.0036-0.0044 0.01095-1.96e-4 0.01468 0.0012 0.02178 0.0042 0.01577 0.0026-6e-3 0.0029-0.01805 2.98e-4 -0.0267zm-0.0087-0.14697c-2e-3 -0.01108-0.0037-0.0042-4e-3 0.01546-9.8e-5 0.01956 0.0012 0.02865 0.0036 0.02015 0.0021-0.0085 0.0023-0.02454 2.01e-4 -0.03561zm-0.0087-0.31618c-0.0019-0.01836-0.0034-0.0031-0.0034 0.03343 0 0.03674 0.0012 0.05175 0.0034 0.03342 0.0019-0.01836 0.0019-0.04841 0-0.06679zm-0.01506-0.92092c-0.0055-0.45696-0.01148-0.95305-0.01285-1.1024-1e-3 -0.14936-9.47e-4 0.08303 9.46e-4 0.5164 3e-3 0.79317 0.01149 1.428 0.01872 1.4208 0.0019-0.0019-9.46e-4 -0.3778-0.0065-0.83478zm-0.02032-2.9388c-9.46e-4 -0.27545-0.0025-0.05008-0.0025 0.50082 0 0.55091 9.46e-4 0.77628 0.0025 0.50082 9.47e-4 -0.27545 9.47e-4 -0.72619 0-1.0016z" opacity=".994"/><path d="m19.349 22.072c0-3.4007 1.97e-4 -3.4504 0.01716-3.4504 0.0095 0 0.01899 0.0068 0.02128 0.01558 0.0036 0.01485 0.0042 0.01485 0.0051 0 9.47e-4 -0.01481 0.11787-0.01558 2.3217-0.01558h2.3207l0.19676 0.11457c2.0626 1.201 2.9689 1.7344 3.2106 1.8895 0.14656 0.09405 0.15274 0.08773-0.42562 0.43469-1.5033 0.90179-6.1929 3.6142-7.2737 4.207-0.08288 0.04546-0.10907 0.06406-0.10907 0.07753 0 0.0097-0.0039 0.01522-0.0089 0.01223-0.0049-0.0029-9e-3 -0.0012-9e-3 0.0029 0 0.0069-0.1746 0.11442-0.24707 0.15192l-0.02004 0.01036zm0.04229 1.1193c-0.0012-0.06244-0.0029-0.01136-0.0029 0.11352 0 0.12487 9.46e-4 0.17596 0.0029 0.11352 0.0012-0.06244 0.0012-0.1646 0-0.22704z" opacity=".994"/></g></g></g></g></svg>
