<?xml version="1.0" encoding="UTF-8"?>
<svg width="58.216mm" height="27.441mm" version="1.1" viewBox="0 0 58.216 27.441" xmlns="http://www.w3.org/2000/svg"><defs><clipPath id="clipPath933"><path d="m62.764 531.66h165.02v77.787h-165.02z"/></clipPath></defs><g transform="translate(-76.725 -134.45)"><g transform="matrix(.35278 0 0 -.35278 54.583 349.45)"><g clip-path="url(#clipPath933)"><g transform="translate(97.796 576.19)"><path d="m0 0c0-0.977-0.798-1.775-1.775-1.775h-30.981c-0.976 0-1.775 0.798-1.775 1.775v30.98c0 0.977 0.799 1.776 1.775 1.776h30.981c0.977 0 1.775-0.799 1.775-1.776z" fill="#fff"/><path d="m0 0c0-0.977-0.798-1.775-1.775-1.775h-30.981c-0.976 0-1.775 0.798-1.775 1.775v30.98c0 0.977 0.799 1.776 1.775 1.776h30.981c0.977 0 1.775-0.799 1.775-1.776z" fill="none" stroke="#000"/></g><g transform="translate(140.96 576.19)"><path d="m0 0c0-0.977-0.799-1.775-1.776-1.775h-30.98c-0.977 0-1.776 0.798-1.776 1.775v30.98c0 0.977 0.799 1.776 1.776 1.776h30.98c0.977 0 1.776-0.799 1.776-1.776z" fill="#fff"/><path d="m0 0c0-0.977-0.799-1.775-1.776-1.775h-30.98c-0.977 0-1.776 0.798-1.776 1.775v30.98c0 0.977 0.799 1.776 1.776 1.776h30.98c0.977 0 1.776-0.799 1.776-1.776z" fill="none" stroke="#000"/></g><g transform="translate(184.12 576.19)"><path d="m0 0c0-0.977-0.797-1.775-1.774-1.775h-30.981c-0.977 0-1.775 0.798-1.775 1.775v30.98c0 0.977 0.798 1.776 1.775 1.776h30.981c0.977 0 1.774-0.799 1.774-1.776z" fill="#fff"/><path d="m0 0c0-0.977-0.797-1.775-1.774-1.775h-30.981c-0.977 0-1.775 0.798-1.775 1.775v30.98c0 0.977 0.798 1.776 1.775 1.776h30.981c0.977 0 1.774-0.799 1.774-1.776z" fill="none" stroke="#000"/></g><g transform="translate(227.29 576.19)"><path d="m0 0c0-0.977-0.799-1.775-1.777-1.775h-30.978c-0.976 0-1.776 0.798-1.776 1.775v30.98c0 0.977 0.8 1.776 1.776 1.776h30.978c0.978 0 1.777-0.799 1.777-1.776z" fill="#fff"/><path d="m0 0c0-0.977-0.799-1.775-1.777-1.775h-30.978c-0.976 0-1.776 0.798-1.776 1.775v30.98c0 0.977 0.8 1.776 1.776 1.776h30.978c0.978 0 1.777-0.799 1.777-1.776z" fill="none" stroke="#000"/></g><g transform="translate(97.796 533.94)"><path d="m0 0c0-0.977-0.798-1.775-1.775-1.775h-30.981c-0.976 0-1.775 0.798-1.775 1.775v30.98c0 0.977 0.799 1.776 1.775 1.776h30.981c0.977 0 1.775-0.799 1.775-1.776z" fill="#fff"/><path d="m0 0c0-0.977-0.798-1.775-1.775-1.775h-30.981c-0.976 0-1.775 0.798-1.775 1.775v30.98c0 0.977 0.799 1.776 1.775 1.776h30.981c0.977 0 1.775-0.799 1.775-1.776z" fill="none" stroke="#000"/></g><g transform="translate(140.96 533.94)"><path d="m0 0c0-0.977-0.799-1.775-1.776-1.775h-30.98c-0.977 0-1.776 0.798-1.776 1.775v30.98c0 0.977 0.799 1.776 1.776 1.776h30.98c0.977 0 1.776-0.799 1.776-1.776z" fill="#fff"/><path d="m0 0c0-0.977-0.799-1.775-1.776-1.775h-30.98c-0.977 0-1.776 0.798-1.776 1.775v30.98c0 0.977 0.799 1.776 1.776 1.776h30.98c0.977 0 1.776-0.799 1.776-1.776z" fill="none" stroke="#000"/></g><g transform="translate(184.12 533.94)"><path d="m0 0c0-0.977-0.797-1.775-1.774-1.775h-30.981c-0.977 0-1.775 0.798-1.775 1.775v30.98c0 0.977 0.798 1.776 1.775 1.776h30.981c0.977 0 1.774-0.799 1.774-1.776z" fill="#fff"/><path d="m0 0c0-0.977-0.797-1.775-1.774-1.775h-30.981c-0.977 0-1.775 0.798-1.775 1.775v30.98c0 0.977 0.798 1.776 1.775 1.776h30.981c0.977 0 1.774-0.799 1.774-1.776z" fill="none" stroke="#000"/></g><g transform="translate(227.29 533.94)"><path d="m0 0c0-0.977-0.799-1.775-1.777-1.775h-30.978c-0.976 0-1.776 0.798-1.776 1.775v30.98c0 0.977 0.8 1.776 1.776 1.776h30.978c0.978 0 1.777-0.799 1.777-1.776z" fill="#fff"/><path d="m0 0c0-0.977-0.799-1.775-1.777-1.775h-30.978c-0.976 0-1.776 0.798-1.776 1.775v30.98c0 0.977 0.8 1.776 1.776 1.776h30.978c0.978 0 1.777-0.799 1.777-1.776z" fill="none" stroke="#000"/></g></g></g><text x="77.493652" y="141.69554" fill="#000000" font-family="'Frutiger LT Std 45 Light'" font-size="2.4694px" font-weight="bold" stroke-width=".35278"><tspan x="77.493652 78.881485 79.854446 81.242271 82.627632 83.259804 84.783455 86.168816 87.556641" y="141.69554">1/16 beat</tspan><tspan x="79.367966 80.755791 81.38797 82.911613 84.296974 85.684799" y="156.59616">1 beat</tspan><tspan x="108.60371 109.99155 110.9645 112.35233 112.9845 114.50816 115.89598 117.28134" y="141.69554">1/4 beat</tspan><tspan x="108.60371 109.99155 110.9645 112.35233 112.9845 114.50816 115.89598 117.28134" y="156.59616">1/3 beat</tspan><tspan x="93.424042 94.811867 95.784828 97.172653 97.804832 99.328484 100.71631 102.10167" y="141.69554">1/8 beat</tspan><tspan x="94.048813 95.436638 96.068817 97.592461 98.977821 100.36565 101.34108" y="156.59616">2 beats</tspan><tspan x="123.86241 125.25024 126.2232 127.61103 128.24321 129.76685 131.15468 132.54004" y="141.69554">1/2 beat</tspan><tspan x="124.25505 126.60102 127.98638 129.51003 131.0312 132.41904" y="156.59616">Manual</tspan></text></g></svg>
