<?xml version="1.0" encoding="UTF-8"?>
<svg width="26.82mm" height="19.732mm" version="1.1" viewBox="0 0 26.82 19.732" xmlns="http://www.w3.org/2000/svg"><defs><clipPath id="b"><path d="m107.35 253.62v-21.501h24.273v-19.047h28.063v19.047h23.495v21.501z"/></clipPath><clipPath id="a"><path d="m107.26 213.08h76.026v55.933h-76.026z"/></clipPath></defs><g transform="translate(90.517 14.402)"><g transform="matrix(.35278 0 0 -.35278 -128.36 80.499)"><g clip-path="url(#b)"><g transform="translate(340.68 36.848)"><path d="m0 0c0-.449-.361-.812-.808-.812h-388.53c-.448 0-.81.363-.81.812v214.49c0 .448.362.81.81.81h388.53c.447 0 .808-.362.808-.81z" fill="#dcdcdc"/><path d="m0 0c0-.449-.361-.812-.808-.812h-388.53c-.448 0-.81.363-.81.812v214.49c0 .448.362.81.81.81h388.53c.447 0 .808-.362.808-.81z" fill="none" stroke="#000" stroke-miterlimit="10" stroke-width=".75"/></g><g transform="translate(339.09 37.822)"><path d="m0 0h-386.92v212.61h386.92z" fill="none" stroke="#000" stroke-miterlimit="10" stroke-width=".25"/></g><g transform="translate(150.51 233.12)"><path d="m0 0v.583h1.013v.281h-1.013v.532h1.095v.305h-1.441v-2.007h1.461v.306z"/></g><g transform="translate(149.47 233.9)"><path d="m0 0c-.068.02-.176.048-.32.086-.145.039-.232.062-.264.07-.074.019-.133.051-.176.093s-.065.098-.065.169c.005.102.046.171.124.209.077.04.16.058.246.057.125 0 .226-.026.304-.081.079-.057.124-.149.133-.278h.348c-.005.21-.081.37-.226.478-.147.108-.327.162-.545.162-.19.001-.356-.047-.5-.144-.148-.095-.223-.244-.231-.446-.002-.107.029-.208.092-.302.064-.092.18-.163.348-.213.137-.037.255-.068.353-.092s.181-.048.25-.076c.044-.014.082-.041.116-.078.034-.038.051-.094.052-.171.002-.082-.03-.151-.097-.213-.066-.061-.176-.092-.332-.096-.146-.001-.265.033-.363.101-.095.068-.147.18-.151.335h-.345c.009-.248.092-.431.248-.547.156-.115.353-.172.589-.17.21-.002.391.045.551.145.157.099.239.26.248.483 0 .109-.033.212-.095.308-.065.098-.161.169-.292.211"/></g><g transform="translate(147.39 233.28)"><path d="m0 0h-.007l-.392 1.535h-.361l-.403-1.535h-.006l-.362 1.535h-.356l.528-2.009h.363l.408 1.537h.006l.4-1.537h.357l.554 2.009h-.358z"/></g><g transform="translate(144.86 233.28)"><path d="m0 0c-.096-.153-.252-.233-.467-.242-.215.009-.373.089-.469.242-.097.152-.144.33-.143.534-.001.202.046.381.143.533.096.152.254.232.469.241.215-.009.371-.089.467-.241.098-.152.146-.331.146-.533 0-.204-.048-.382-.146-.534m-.467 1.59c-.304-.009-.541-.112-.706-.311-.167-.199-.251-.447-.254-.745.003-.299.087-.548.254-.746.165-.2.402-.303.706-.311.305.008.54.111.707.311.165.198.251.447.252.746-.001.298-.087.546-.252.745-.167.199-.402.302-.707.311"/></g><g transform="translate(142.76 233.98)"><path d="m0 0c-.059-.055-.143-.083-.253-.083h-.574v.635h.568c.093.003.173-.017.243-.059.067-.041.102-.125.104-.252 0-.106-.029-.188-.088-.241m.409-.647c-.004.154-.04.263-.105.324-.064.061-.128.094-.192.099v.006c.038.007.099.046.185.118.082.071.127.204.138.392 0 .172-.054.306-.165.399-.111.094-.275.141-.493.142h-.953v-2.009h.349v.827h.514c.16.001.266-.043.323-.128.056-.086.082-.221.078-.404 0-.049.002-.1.007-.152.007-.05.02-.098.047-.143h.378c-.039.044-.067.112-.085.207-.017.095-.026.202-.026.322"/></g><g transform="translate(140.82 233.18)"><path d="m0 0c-.057-.056-.14-.083-.246-.084h-.621v.634h.621c.106-.001.189-.028.246-.082.06-.053.088-.13.088-.23 0-.104-.028-.183-.088-.238m-.867 1.361h.572c.096.001.168-.019.219-.063.05-.042.076-.113.076-.214-.004-.091-.032-.16-.086-.208-.054-.047-.125-.073-.209-.073h-.572zm.93-.648v.006c.091.04.16.095.209.168.048.073.073.16.073.262-.003.166-.057.289-.162.372-.105.082-.248.122-.429.122h-.967v-2.009h.914c.257.003.445.056.561.16.117.102.176.236.174.397-.002.14-.033.255-.096.345-.065.091-.156.151-.277.177"/></g><g transform="translate(148.38 214.41)"><path d="m0 0-.003.005-.52.758-.218-.216v-.547h-.296v1.628h.296v-.717l.701.717h.376l-.653-.652.693-.976zm-2.339.394c.076-.119.199-.183.365-.188.123.002.217.042.284.119.067.079.105.178.117.296l.001.01h.298l-.004-.011c-.014-.199-.084-.361-.207-.478-.123-.119-.287-.18-.485-.183-.245.007-.44.091-.574.252-.135.161-.205.363-.205.604 0 .239.07.442.205.602.134.162.329.246.574.252.19-.002.348-.05.473-.146.126-.095.201-.233.223-.412v-.01h-.298l-.002.007c-.023.093-.064.169-.128.226-.063.058-.154.088-.272.089-.166-.006-.289-.069-.365-.188-.075-.119-.115-.262-.115-.42 0-.16.04-.302.115-.421m-.772-.394-.15.424h-.629l-.15-.424h-.311l.002.014.621 1.613h.313l.004-.005.624-1.622zm-1.503.131c-.095-.083-.248-.128-.454-.131h-.744v1.628h.788c.145 0 .262-.034.347-.099.086-.067.131-.172.132-.306 0-.083-.02-.156-.059-.215-.037-.054-.088-.097-.153-.129.09-.025.16-.072.207-.14.051-.074.078-.169.078-.281.002-.133-.045-.243-.142-.327m5.991 1.912h-8.278c-.116 0-.162-.048-.162-.162v-2.105c0-.115.046-.163.162-.163h8.278c.114 0 .162.048.162.163v2.105c0 .114-.048.162-.162.162"/></g><g transform="translate(143.47 215.42)"><path d="m0 0c.041.036.063.09.063.159 0 .077-.02.133-.056.163-.038.033-.095.048-.167.048h-.447v-.425h.447c.064.001.119.019.16.055"/></g><g transform="translate(144.57 215.07)"><path d="m0 0h.461l-.229.662z"/></g><g transform="translate(143.35 215.14)"><path d="m0 0h-.484v-.487h.484c.082.001.148.023.191.064.045.043.067.104.067.183 0 .077-.022.136-.067.177-.043.041-.109.063-.191.063"/></g><g transform="translate(175.44 243.25)"><path d="m0 0c-.094-.133-.271-.204-.537-.208h-.343v1.441h.343c.266-.005.443-.073.537-.208.091-.133.132-.305.126-.512.006-.209-.035-.38-.126-.513m.268 1.224c-.144.188-.366.286-.671.293h-.829v-2.009h.829c.305.007.527.104.671.294.142.188.211.425.21.711.001.283-.068.521-.21.711"/></g><g transform="translate(172.74 243.56)"><path d="m0 0 .304.863h.009l.299-.863zm.124 1.21-.77-2.009h.363l.188.531h.801l.189-.531h.376l-.772 2.009z"/></g><g transform="translate(171.51 243.24)"><path d="m0 0c-.096-.151-.251-.229-.461-.238-.213.009-.366.087-.465.238-.095.149-.143.324-.141.525-.002.199.046.373.141.523.099.151.252.229.465.238.21-.009.365-.087.461-.238.099-.15.146-.324.144-.523.002-.201-.045-.376-.144-.525m-.461 1.569c-.302-.007-.533-.111-.701-.309-.171-.199-.253-.444-.255-.735.002-.296.084-.542.255-.739.168-.197.399-.299.701-.307.3.008.531.11.699.307s.254.443.256.739c-.002.291-.088.536-.256.735-.168.198-.399.302-.699.309"/></g><g transform="translate(168.93 244.77)"><path d="m0 0h-.351v-2.009h1.372v.297h-1.021z"/></g><g transform="translate(116.32 244.77)"><path d="m0 0h-.351v-2.009h1.371v.297h-1.02z"/></g><g transform="translate(118.89 243.24)"><path d="m0 0c-.097-.151-.252-.229-.465-.238-.21.009-.365.087-.461.238-.095.149-.142.324-.142.525 0 .199.047.373.142.523.096.151.251.229.461.238.213-.009.368-.087.465-.238.096-.15.145-.324.143-.523.002-.201-.047-.376-.143-.525m-.465 1.569c-.297-.007-.531-.111-.699-.309-.168-.199-.252-.444-.254-.735.002-.296.086-.542.254-.739s.402-.299.699-.307c.303.008.537.11.703.307.168.197.253.443.256.739-.003.291-.088.536-.256.735-.166.198-.4.302-.703.309"/></g><g transform="translate(120.12 243.56)"><path d="m0 0 .305.863h.008l.299-.863zm.125 1.21-.771-2.009h.363l.189.531h.799l.189-.531h.376l-.772 2.009z"/></g><g transform="translate(122.82 243.25)"><path d="m0 0c-.092-.133-.271-.204-.538-.208h-.343v1.441h.343c.267-.005.446-.073.538-.208.091-.133.132-.305.127-.512.005-.209-.036-.38-.127-.513m.268 1.224c-.141.188-.366.286-.672.293h-.828v-2.009h.828c.306.007.531.104.672.294.142.188.211.425.21.711.001.283-.068.521-.21.711"/></g><g transform="translate(115.95 230.27)"><path d="m0 0h.636v-1.711h.35v1.711h.637v.297h-1.623z"/></g><g transform="translate(118.17 229.66)"><path d="m0 0v.628h.566c.094.003.173-.016.241-.056.067-.042.103-.125.105-.252-.002-.213-.115-.32-.34-.32zm.832-.396c.055-.085.082-.221.078-.405 0-.05 0-.101.006-.153.007-.051.022-.099.047-.144h.382c-.04.043-.067.113-.083.207-.018.097-.028.204-.028.325-.005.155-.041.262-.105.325-.065.062-.131.095-.195.1v.006c.043.006.105.045.189.117.083.071.129.201.141.39-.001.17-.057.303-.167.397s-.275.142-.494.142h-.955v-2.009h.352v.83h.514c.157.001.262-.041.318-.128"/></g><path d="m119.81 228.56h.352v2.009h-.352z"/><g transform="translate(121.77 228.56)"><path d="m0 0 .559 1.549h.005v-1.549h.336v2.009h-.49l-.541-1.576h-.004l-.556 1.576h-.497v-2.009h.336v1.549h.004l.559-1.549z"/></g><g transform="translate(174.38 228.56)"><path d="m0 0 .558 1.549h.004v-1.549h.335v2.009h-.489l-.54-1.576h-.007l-.555 1.576h-.495v-2.009h.336v1.549h.004l.559-1.549z"/></g><path d="m172.42 228.56h.351v2.009h-.351z"/><g transform="translate(170.79 229.66)"><path d="m0 0v.628h.565c.096.003.174-.016.243-.056.067-.042.102-.125.104-.252-.001-.213-.113-.32-.34-.32zm.833-.396c.056-.085.082-.221.078-.405-.001-.05.001-.101.006-.153.007-.051.021-.099.047-.144h.382c-.038.043-.066.113-.084.207-.02.097-.027.204-.027.325-.005.155-.04.262-.104.325-.067.062-.131.095-.196.1v.006c.041.006.105.045.189.117.084.071.13.201.139.39 0 .17-.055.303-.164.397-.113.094-.276.142-.495.142h-.955v-2.009h.351v.83h.515c.157.001.263-.041.318-.128"/></g><g transform="translate(168.57 230.27)"><path d="m0 0h.636v-1.711h.351v1.711h.638v.297h-1.625z"/></g><g transform="translate(121.16 223.74)"><path d="m0 0c.065-.129.151-.213.28-.276" fill="none" stroke="#000" stroke-linecap="round" stroke-linejoin="round" stroke-width=".25"/></g><g transform="translate(115.73 220.11)"><path d="m0 0c.49.368.722.771.798 1.376" fill="none" stroke="#000" stroke-linecap="round" stroke-linejoin="round" stroke-width=".25"/></g><g transform="translate(119.56 222.44)"><path d="m0 0h-.487" fill="none" stroke="#000" stroke-linecap="round" stroke-linejoin="round" stroke-width=".25"/></g><g transform="translate(119.07 222.44)"><path d="m0 0h-.201" fill="none" stroke="#000" stroke-linecap="round" stroke-linejoin="round" stroke-width=".25"/></g><g transform="translate(119.56 222.44)"><path d="m0 0h.202" fill="none" stroke="#000" stroke-linecap="round" stroke-linejoin="round" stroke-width=".25"/></g><g transform="translate(118.87 218.96)"><path d="m0 0c0-.243.201-.444.445-.444s.446.201.446.444" fill="none" stroke="#000" stroke-linecap="round" stroke-linejoin="round" stroke-width=".25"/></g><g transform="translate(118.87 223.49)"><path d="m0 0v-1.046" fill="none" stroke="#000" stroke-linecap="round" stroke-linejoin="round" stroke-width=".25"/></g><g transform="translate(118.87 222.44)"><path d="m0 0v-3.485" fill="none" stroke="#000" stroke-linecap="round" stroke-linejoin="round" stroke-width=".25"/></g><g transform="translate(118.87 223.61)" fill="none" stroke="#000" stroke-linecap="round" stroke-linejoin="round" stroke-width=".25"><path d="m0 0v.352"/><path d="m0 0v-.043"/></g><g transform="translate(119.07 224.42)"><path d="m0 0c-.076 0-.123-.026-.164-.086" fill="none" stroke="#000" stroke-linecap="round" stroke-linejoin="round" stroke-width=".25"/></g><g transform="translate(119.56 224.42)"><path d="m0 0h-.487" fill="none" stroke="#000" stroke-linecap="round" stroke-linejoin="round" stroke-width=".25"/></g><g transform="translate(119.72 224.34)"><path d="m0 0c-.041.063-.089.086-.165.086" fill="none" stroke="#000" stroke-linecap="round" stroke-linejoin="round" stroke-width=".25"/></g><g transform="translate(119.76 223.49)"><path d="m0 0v-1.046" fill="none" stroke="#000" stroke-linecap="round" stroke-linejoin="round" stroke-width=".25"/></g><g transform="translate(119.76 222.44)"><path d="m0 0v-3.485" fill="none" stroke="#000" stroke-linecap="round" stroke-linejoin="round" stroke-width=".25"/></g><g transform="translate(119.76 223.61)" fill="none" stroke="#000" stroke-linecap="round" stroke-linejoin="round" stroke-width=".25"><path d="m0 0v.352"/><path d="m0 0v-.043"/></g><g transform="translate(116.58 222.24)"><path d="m0 0c.059-.165.129-.325.201-.484" fill="none" stroke="#000" stroke-linecap="round" stroke-linejoin="round" stroke-width=".25"/></g><g transform="translate(115.31 220.43)"><path d="m0 0c.138-.111.277-.216.421-.316" fill="none" stroke="#000" stroke-linecap="round" stroke-linejoin="round" stroke-width=".25"/></g><g transform="translate(116.53 221.49)"><path d="m0 0c-.162.073-.321.143-.483.203" fill="none" stroke="#000" stroke-linecap="round" stroke-linejoin="round" stroke-width=".25"/></g><g transform="translate(115.11 218.23)"><path d="m0 0c.172-.028.347-.05.521-.065" fill="none" stroke="#000" stroke-linecap="round" stroke-linejoin="round" stroke-width=".25"/></g><g transform="translate(115.63 219.76)"><path d="m0 0c-.175-.015-.35-.039-.52-.065" fill="none" stroke="#000" stroke-linecap="round" stroke-linejoin="round" stroke-width=".25"/></g><g transform="translate(116.04 216.23)"><path d="m0 0c.162.061.321.129.483.2" fill="none" stroke="#000" stroke-linecap="round" stroke-linejoin="round" stroke-width=".25"/></g><g transform="translate(115.73 217.81)"><path d="m0 0c-.144-.101-.283-.208-.421-.317" fill="none" stroke="#000" stroke-linecap="round" stroke-linejoin="round" stroke-width=".25"/></g><g transform="translate(117.85 214.96)"><path d="m0 0c.107.134.213.273.316.416" fill="none" stroke="#000" stroke-linecap="round" stroke-linejoin="round" stroke-width=".25"/></g><g transform="translate(116.79 216.17)"><path d="m0 0c-.072-.158-.143-.323-.201-.484" fill="none" stroke="#000" stroke-linecap="round" stroke-linejoin="round" stroke-width=".25"/></g><g transform="translate(120.05 214.76)"><path d="m0 0c.025.172.047.344.063.521" fill="none" stroke="#000" stroke-linecap="round" stroke-linejoin="round" stroke-width=".25"/></g><g transform="translate(118.52 215.28)"><path d="m0 0c.017-.177.038-.349.065-.521" fill="none" stroke="#000" stroke-linecap="round" stroke-linejoin="round" stroke-width=".25"/></g><g transform="translate(122.05 215.68)"><path d="m0 0c-.06.161-.129.326-.204.484" fill="none" stroke="#000" stroke-linecap="round" stroke-linejoin="round" stroke-width=".25"/></g><g transform="translate(120.47 215.37)"><path d="m0 0c.099-.143.203-.282.316-.416" fill="none" stroke="#000" stroke-linecap="round" stroke-linejoin="round" stroke-width=".25"/></g><g transform="translate(123.32 217.49)"><path d="m0 0c-.137.109-.276.216-.418.317" fill="none" stroke="#000" stroke-linecap="round" stroke-linejoin="round" stroke-width=".25"/></g><g transform="translate(122.11 216.43)"><path d="m0 0c.163-.071.32-.139.485-.2" fill="none" stroke="#000" stroke-linecap="round" stroke-linejoin="round" stroke-width=".25"/></g><g transform="translate(123.52 219.69)"><path d="m0 0c-.173.026-.345.05-.521.065" fill="none" stroke="#000" stroke-linecap="round" stroke-linejoin="round" stroke-width=".25"/></g><g transform="translate(123 218.16)"><path d="m0 0c.176.016.348.037.521.065" fill="none" stroke="#000" stroke-linecap="round" stroke-linejoin="round" stroke-width=".25"/></g><g transform="translate(121.84 221.75)"><path d="m0 0c.075.159.145.319.204.484" fill="none" stroke="#000" stroke-linecap="round" stroke-linejoin="round" stroke-width=".25"/></g><g transform="translate(120.35 222.73)"><path d="m0 0c.365-.612.793-.892 1.499-.978" fill="none" stroke="#000" stroke-linecap="round" stroke-linejoin="round" stroke-width=".25"/></g><g transform="translate(122.11 221.49)"><path d="m0 0c-.082.092-.166.18-.261.262" fill="none" stroke="#000" stroke-linecap="round" stroke-linejoin="round" stroke-width=".25"/></g><g transform="translate(123 219.76)" fill="none" stroke="#000" stroke-linecap="round" stroke-linejoin="round" stroke-width=".25"><path d="m0 0c-.024.121-.059.237-.094.357"/><path d="m0 0c-.238-.563-.238-1.029 0-1.591"/></g><g transform="translate(122.9 217.81)" fill="none" stroke="#000" stroke-linecap="round" stroke-linejoin="round" stroke-width=".25"><path d="m0 0c.035.116.069.237.094.356"/><path d="m0 0c-.49-.368-.722-.772-.799-1.381"/></g><g transform="translate(121.84 216.17)" fill="none" stroke="#000" stroke-linecap="round" stroke-linejoin="round" stroke-width=".25"><path d="m0 0c.095.083.181.169.261.259"/><path d="m0 0c-.604-.075-1.008-.307-1.375-.796"/></g><g transform="translate(120.11 215.28)" fill="none" stroke="#000" stroke-linecap="round" stroke-linejoin="round" stroke-width=".25"><path d="m0 0c.121.026.24.056.358.094"/><path d="m0 0c-.562.238-1.027.238-1.591 0"/></g><g transform="translate(118.17 215.37)" fill="none" stroke="#000" stroke-linecap="round" stroke-linejoin="round" stroke-width=".25"><path d="m0 0c.113-.038.235-.068.354-.094"/><path d="m0 0c-.369.489-.773.721-1.381.796"/></g><g transform="translate(116.53 216.43)" fill="none" stroke="#000" stroke-linecap="round" stroke-linejoin="round" stroke-width=".25"><path d="m0 0c.08-.089.168-.176.258-.259"/><path d="m0 0c-.076.608-.308 1.013-.798 1.381"/></g><g transform="translate(115.63 218.16)"><path d="m0 0c.025-.119.057-.24.095-.356" fill="none" stroke="#000" stroke-linecap="round" stroke-linejoin="round" stroke-width=".25"/></g><g transform="translate(115.73 220.11)"><path d="m0 0c-.038-.12-.069-.237-.095-.357" fill="none" stroke="#000" stroke-linecap="round" stroke-linejoin="round" stroke-width=".25"/></g><g transform="translate(116.79 221.75)" fill="none" stroke="#000" stroke-linecap="round" stroke-linejoin="round" stroke-width=".25"><path d="m0 0c-.09-.082-.178-.17-.258-.262"/><path d="m0 0c.715.087 1.325.542 1.616 1.195"/></g><g transform="translate(122.11 221.49)"><path d="m0 0c.077-.606.309-1.009.799-1.376" fill="none" stroke="#000" stroke-linecap="round" stroke-linejoin="round" stroke-width=".25"/></g><g transform="translate(122.59 221.69)"><path d="m0 0c-.165-.061-.322-.131-.485-.204" fill="none" stroke="#000" stroke-linecap="round" stroke-linejoin="round" stroke-width=".25"/></g><g transform="translate(122.9 220.11)"><path d="m0 0c.142.101.281.205.418.316" fill="none" stroke="#000" stroke-linecap="round" stroke-linejoin="round" stroke-width=".25"/></g><g transform="translate(123.07 222.01)"><path d="m0 0-.335-.208-.143-.111" fill="none" stroke="#000" stroke-linecap="round" stroke-linejoin="round" stroke-width=".25"/></g><g transform="translate(123.83 220.68)"><path d="m0 0-.344-.186-.171-.066" fill="none" stroke="#000" stroke-linecap="round" stroke-linejoin="round" stroke-width=".25"/></g><g transform="translate(124.09 219.73)"><path d="m0 0-.39-.015-.18-.022" fill="none" stroke="#000" stroke-linecap="round" stroke-linejoin="round" stroke-width=".25"/></g><g transform="translate(124.09 218.19)"><path d="m0 0-.39.016-.18.024" fill="none" stroke="#000" stroke-linecap="round" stroke-linejoin="round" stroke-width=".25"/></g><g transform="translate(123.83 217.24)"><path d="m0 0-.344.185-.171.068" fill="none" stroke="#000" stroke-linecap="round" stroke-linejoin="round" stroke-width=".25"/></g><g transform="translate(123.07 215.91)"><path d="m0 0-.335.208-.143.111" fill="none" stroke="#000" stroke-linecap="round" stroke-linejoin="round" stroke-width=".25"/></g><g transform="translate(122.37 215.21)"><path d="m0 0-.206.333-.111.142" fill="none" stroke="#000" stroke-linecap="round" stroke-linejoin="round" stroke-width=".25"/></g><g transform="translate(121.04 214.44)"><path d="m0 0-.187.346-.065.168" fill="none" stroke="#000" stroke-linecap="round" stroke-linejoin="round" stroke-width=".25"/></g><g transform="translate(120.08 214.18)"><path d="m0 0-.015.394-.021.179" fill="none" stroke="#000" stroke-linecap="round" stroke-linejoin="round" stroke-width=".25"/></g><g transform="translate(118.55 214.18)"><path d="m0 0 .012.394.025.179" fill="none" stroke="#000" stroke-linecap="round" stroke-linejoin="round" stroke-width=".25"/></g><g transform="translate(117.59 214.44)"><path d="m0 0 .187.346.07.168" fill="none" stroke="#000" stroke-linecap="round" stroke-linejoin="round" stroke-width=".25"/></g><g transform="translate(116.26 215.21)"><path d="m0 0 .207.333.112.142" fill="none" stroke="#000" stroke-linecap="round" stroke-linejoin="round" stroke-width=".25"/></g><g transform="translate(115.57 215.91)"><path d="m0 0 .334.208.144.111" fill="none" stroke="#000" stroke-linecap="round" stroke-linejoin="round" stroke-width=".25"/></g><g transform="translate(114.8 217.24)"><path d="m0 0 .346.185.164.068" fill="none" stroke="#000" stroke-linecap="round" stroke-linejoin="round" stroke-width=".25"/></g><g transform="translate(114.54 218.19)"><path d="m0 0 .393.016.179.024" fill="none" stroke="#000" stroke-linecap="round" stroke-linejoin="round" stroke-width=".25"/></g><g transform="translate(114.54 219.73)"><path d="m0 0 .393-.015.179-.022" fill="none" stroke="#000" stroke-linecap="round" stroke-linejoin="round" stroke-width=".25"/></g><g transform="translate(114.8 220.68)"><path d="m0 0 .346-.186.164-.066" fill="none" stroke="#000" stroke-linecap="round" stroke-linejoin="round" stroke-width=".25"/></g><g transform="translate(115.57 222.01)"><path d="m0 0 .334-.208.144-.111" fill="none" stroke="#000" stroke-linecap="round" stroke-linejoin="round" stroke-width=".25"/></g><g transform="translate(120.23 222.95)" fill="none" stroke="#000" stroke-linecap="round" stroke-linejoin="round" stroke-width=".25"><path d="m0 0c.033-.075.068-.148.111-.218"/><path d="m0 0 .449.208"/><path d="m0 0c-.025.028-.049.044-.086.047"/></g><g transform="translate(119.76 223.49)"><path d="m0 0c0 .026-.004.049-.004.075" fill="none" stroke="#000" stroke-linecap="round" stroke-linejoin="round" stroke-width=".25"/></g><g transform="translate(120.15 222.99)"><path d="m0 0c-.127.02-.254.034-.385.043" fill="none" stroke="#000" stroke-linecap="round" stroke-linejoin="round" stroke-width=".25"/></g><g transform="translate(118.87 223.04)"><path d="m0 0c-.129-.009-.256-.024-.385-.043" fill="none" stroke="#000" stroke-linecap="round" stroke-linejoin="round" stroke-width=".25"/></g><g transform="translate(118.87 223.56)"><path d="m0 0c0-.026-.003-.049-.003-.074" fill="none" stroke="#000" stroke-linecap="round" stroke-linejoin="round" stroke-width=".25"/></g><g transform="translate(118.49 222.99)"><path d="m0 0c-.036-.003-.066-.016-.085-.045" fill="none" stroke="#000" stroke-linecap="round" stroke-linejoin="round" stroke-width=".25"/></g><g transform="translate(118.4 222.95)"><path d="m0 0-.45.208" fill="none" stroke="#000" stroke-linecap="round" stroke-linejoin="round" stroke-width=".25"/></g><g transform="translate(118.87 223.57)"><path d="m0 0c0-.003 0-.006.003-.007" fill="none" stroke="#000" stroke-linecap="round" stroke-linejoin="round" stroke-width=".25"/></g><g transform="translate(118.87 223.97)"><path d="m0 0v-1e-3" fill="none" stroke="#000" stroke-linecap="round" stroke-linejoin="round" stroke-width=".25"/></g><g transform="translate(118.87 224.24)"><path d="m0 0v-.271" fill="none" stroke="#000" stroke-linecap="round" stroke-linejoin="round" stroke-width=".25"/></g><g transform="translate(119.76 224.24)"><path d="m0 0 .004-.271" fill="none" stroke="#000" stroke-linecap="round" stroke-linejoin="round" stroke-width=".25"/></g><g transform="translate(119.76 223.97)"><path d="m0 0v-1e-3" fill="none" stroke="#000" stroke-linecap="round" stroke-linejoin="round" stroke-width=".25"/></g><g transform="translate(116.26 222.71)"><path d="m0 0 .207-.333.112-.141" fill="none" stroke="#000" stroke-linecap="round" stroke-linejoin="round" stroke-width=".25"/></g><g transform="translate(117.95 223.15)"><path d="m0 0-.02.182-.077.182-.131.174" fill="none" stroke="#000" stroke-linecap="round" stroke-linejoin="round" stroke-width=".25"/></g><g transform="translate(120.68 223.15)"><path d="m0 0 .018.182.077.182.132.174" fill="none" stroke="#000" stroke-linecap="round" stroke-linejoin="round" stroke-width=".25"/></g><g transform="translate(122.37 222.71)"><path d="m0 0-.206-.333-.111-.141" fill="none" stroke="#000" stroke-linecap="round" stroke-linejoin="round" stroke-width=".25"/></g><g transform="translate(116.97 223.26)"><path d="m0 0-.193-.113-.187-.126-.21-.169-.062-.065-.039-.046-.008-.015-.003-.009v-.007" fill="none" stroke="#000" stroke-linecap="round" stroke-linejoin="round" stroke-width=".25"/></g><g transform="translate(117.18 223.36)"><path d="m0 0c.137.061.221.146.283.286" fill="none" stroke="#000" stroke-linecap="round" stroke-linejoin="round" stroke-width=".25"/></g><g transform="translate(117.47 223.74)"><path d="m0 0-.012-.092" fill="none" stroke="#000" stroke-linecap="round" stroke-linejoin="round" stroke-width=".25"/></g><g transform="translate(117.46 223.64)"><path d="m0 0 .004.008" fill="none" stroke="#000" stroke-linecap="round" stroke-linejoin="round" stroke-width=".25"/></g><g transform="translate(119.76 224.24)"><path d="m0 0c-.002.037-.011.065-.033.097" fill="none" stroke="#000" stroke-linecap="round" stroke-linejoin="round" stroke-width=".25"/></g><g transform="translate(118.91 224.34)"><path d="m0 0c-.021-.032-.031-.061-.037-.098" fill="none" stroke="#000" stroke-linecap="round" stroke-linejoin="round" stroke-width=".25"/></g><g transform="translate(118.87 224.24)"><path d="m0 0c-.353-.03-.695-.096-1.033-.201" fill="none" stroke="#000" stroke-linecap="round" stroke-linejoin="round" stroke-width=".25"/></g><g transform="translate(117.83 224.04)"><path d="m0 0c-.171-.053-.276-.141-.358-.301" fill="none" stroke="#000" stroke-linecap="round" stroke-linejoin="round" stroke-width=".25"/></g><g transform="translate(117.19 223.46)"><path d="m0 0c.131.063.216.147.279.276" fill="none" stroke="#000" stroke-linecap="round" stroke-linejoin="round" stroke-width=".25"/></g><g transform="translate(120.8 224.04)"><path d="m0 0c-.341.104-.683.171-1.042.201" fill="none" stroke="#000" stroke-linecap="round" stroke-linejoin="round" stroke-width=".25"/></g><g transform="translate(117.18 223.36)"><path d="m0 0c-.072-.032-.141-.064-.209-.1" fill="none" stroke="#000" stroke-linecap="round" stroke-linejoin="round" stroke-width=".25"/></g><g transform="translate(117.46 223.65)"><path d="m0 0 .216.043.033-.002h.012v-.001" fill="none" stroke="#000" stroke-linecap="round" stroke-linejoin="round" stroke-width=".25"/></g><g transform="translate(121.17 223.64)"><path d="m0 0-.013.092" fill="none" stroke="#000" stroke-linecap="round" stroke-linejoin="round" stroke-width=".25"/></g><g transform="translate(121.16 223.74)"><path d="m0 0c-.083.16-.19.249-.359.301" fill="none" stroke="#000" stroke-linecap="round" stroke-linejoin="round" stroke-width=".25"/></g><g transform="translate(121.46 223.36)"><path d="m0 0 .252-.125.244-.147.179-.134.17-.149.048-.058.015-.017.002-.011-.001-.008" fill="none" stroke="#000" stroke-linecap="round" stroke-linejoin="round" stroke-width=".25"/></g><g transform="translate(121.17 223.64)"><path d="m0 0-.003.008" fill="none" stroke="#000" stroke-linecap="round" stroke-linejoin="round" stroke-width=".25"/></g><g transform="translate(121.11 223.67)" fill="none" stroke="#000" stroke-linecap="round" stroke-linejoin="round" stroke-width=".25"><path d="m0 0 .063-.018"/><path d="m0 0-.166.025-.024-.002-.008-.001"/></g><g transform="translate(118.55 214.18)"><path d="m0 0 .001-.005.005-.003.006-.004.031-.014.109-.034.285-.046.288-.019.236.008.23.022.233.046.076.025.025.013.008.006.003.005" fill="none" stroke="#000" stroke-linecap="round" stroke-linejoin="round" stroke-width=".25"/></g><g transform="translate(123.83 220.68)"><path d="m0 0 .006.006v.044l-.028.115-.101.268-.129.256-.122.202-.137.191-.157.176-.054.053-.032.017-.002.002h-.009" fill="none" stroke="#000" stroke-linecap="round" stroke-linejoin="round" stroke-width=".25"/></g><g transform="translate(116.26 215.21)"><path d="m0 0v-.008l.003-.004v-.007l.02-.026.08-.083.222-.184.24-.158.206-.113.216-.096.219-.076.076-.016.035-.003.005.003.006.005" fill="none" stroke="#000" stroke-linecap="round" stroke-linejoin="round" stroke-width=".25"/></g><g transform="translate(123.07 215.91)"><path d="m0 0h.011l.005.003.029.019.084.081.184.22.156.242.111.206.1.212.074.222.017.079v.037l-.006.008" fill="none" stroke="#000" stroke-linecap="round" stroke-linejoin="round" stroke-width=".25"/></g><g transform="translate(114.8 217.24)"><path d="m0 0-.004-.004v-.008l-.003-.006.005-.031.025-.116.1-.27.127-.255.126-.203.134-.19.158-.174.058-.053.026-.017.008-.002h.008" fill="none" stroke="#000" stroke-linecap="round" stroke-linejoin="round" stroke-width=".25"/></g><g transform="translate(114.54 219.73)"><path d="m0 0-.005-.003-.005-.004-.006-.008-.011-.027-.034-.112-.046-.284-.02-.285.008-.236.024-.235.046-.23.024-.074.013-.028.012-.012" fill="none" stroke="#000" stroke-linecap="round" stroke-linejoin="round" stroke-width=".25"/></g><g transform="translate(121.67 214.66)" fill="none" stroke="#000" stroke-linecap="round" stroke-linejoin="round" stroke-width=".25"><path d="m0 0 .191.112.189.125.208.171.064.065.037.046.01.015.002.007-.001.008"/><path d="m0 0-.183-.09-.183-.072-.128-.041-.066-.014-.044-.008h-.013l-.006.003-.005.005"/></g><g transform="translate(115.57 222.01)"><path d="m0 0h-.012l-.006-.004-.029-.018-.082-.079-.187-.224-.156-.238-.114-.208-.096-.215-.074-.222-.015-.076-.003-.032.003-.006.003-.008" fill="none" stroke="#000" stroke-linecap="round" stroke-linejoin="round" stroke-width=".25"/></g><g transform="translate(124.09 218.19)"><path d="m0 0 .006.004.005.004.003.008.01.027.036.114.049.282.019.287-.008.235-.023.235-.045.229-.028.075-.013.026-.005.005-.006.007" fill="none" stroke="#000" stroke-linecap="round" stroke-linejoin="round" stroke-width=".25"/></g><g transform="translate(117.19 223.46)"><path d="m0 0c-2.107-.994-3.241-3.317-2.732-5.591.507-2.273 2.525-3.888 4.857-3.888 2.33 0 4.348 1.615 4.858 3.888.511 2.274-.626 4.597-2.731 5.591" fill="none" stroke="#000" stroke-linecap="round" stroke-linejoin="round" stroke-width=".25"/></g><g transform="translate(115.63 218.16)"><path d="m0 0c.239.562.239 1.029 0 1.591" fill="none" stroke="#000" stroke-linecap="round" stroke-linejoin="round" stroke-width=".25"/></g><g transform="translate(125.38 218.96)"><path d="m0 0c0 3.355-2.716 6.072-6.068 6.072s-6.071-2.717-6.071-6.072c0-3.353 2.719-6.071 6.071-6.071s6.068 2.718 6.068 6.071z" fill="none" stroke="#000" stroke-linecap="round" stroke-linejoin="round" stroke-width=".25"/></g><g transform="translate(121.17 223.64)"><path d="m0 0c.06-.14.146-.225.282-.286" fill="none" stroke="#000" stroke-linecap="round" stroke-linejoin="round" stroke-width=".25"/></g><g transform="translate(123.46 212.23)"><path d="m0 0c-.648 1.124-1.296 2.244-1.943 3.367-.116-.074-.233-.143-.353-.202.648-1.121 1.298-2.247 1.948-3.37.011-.018.027-.038.037-.055.036-.048.07-.068.127-.059.039.006.075.018.111.04.022.014.04.03.059.045.049.029.065.067.056.124-.007.041-.02.076-.042.11"/></g><g transform="translate(117.12 215.61)"><path d="m0 0c-.648-1.125-1.298-2.25-1.948-3.374-.023-.034-.034-.069-.038-.11-.008-.057.006-.094.052-.124.022-.014.041-.031.059-.044.034-.022.071-.035.113-.038.061-.011.094.008.124.057.015.017.027.036.041.055.652 1.127 1.299 2.252 1.949 3.377-.122.06-.241.127-.352.201"/></g><g transform="translate(112.04 222.97)"><path d="m0 0c.008-.221.186-.397.406-.404.223 0 .405.179.405.404-.007.22-.184.396-.405.405-.226 0-.406-.181-.406-.405"/></g><g transform="translate(110.98 219)"><path d="m0 0c0-.223.18-.405.402-.405.219.009.398.185.407.405 0 .224-.184.403-.407.403-.217-.006-.394-.182-.402-.403"/></g><g transform="translate(112.45 214.64)"><path d="m0 0c.221.006.397.183.404.404 0 .225-.181.406-.404.406-.221-.008-.398-.186-.406-.406 0-.224.179-.404.406-.404"/></g><g transform="translate(123.69 225.87)"><path d="m0 0c-.007.219-.186.398-.404.405-.224 0-.404-.18-.404-.405.008-.221.186-.397.404-.404.223 0 .404.181.404.404"/></g><g transform="translate(119.85 226.91)"><path d="m0 0c-.008.221-.187.398-.406.406-.224 0-.404-.182-.404-.406.008-.219.185-.396.404-.403.221 0 .406.181.406.403"/></g><g transform="translate(115.35 225.47)"><path d="m0 0c.223 0 .407.181.407.404-.011.22-.188.398-.407.405-.224 0-.404-.18-.404-.405.008-.221.182-.397.404-.404"/></g><g transform="translate(126.85 219)"><path d="m0 0c0-.223.18-.405.402-.405.224 0 .407.182.407.405 0 .225-.183.403-.407.405-.222 0-.402-.18-.402-.405"/></g><g transform="translate(125.78 222.97)"><path d="m0 0c.007-.221.182-.397.403-.404.225 0 .405.179.405.404-.008.22-.184.396-.405.405-.221 0-.403-.181-.403-.405"/></g><g transform="translate(126.19 214.64)"><path d="m0 0c.221.006.396.183.404.404 0 .225-.179.406-.404.406-.222-.008-.396-.186-.403-.406 0-.224.181-.404.403-.404"/></g><g transform="translate(173.81 223.74)"><path d="m0 0c.065-.129.152-.213.279-.276" fill="none" stroke="#000" stroke-linecap="round" stroke-linejoin="round" stroke-width=".25"/></g><g transform="translate(168.38 220.11)"><path d="m0 0c.489.368.721.771.797 1.376" fill="none" stroke="#000" stroke-linecap="round" stroke-linejoin="round" stroke-width=".25"/></g><g transform="translate(172.21 222.44)"><path d="m0 0h-.488" fill="none" stroke="#000" stroke-linecap="round" stroke-linejoin="round" stroke-width=".25"/></g><g transform="translate(171.72 222.44)"><path d="m0 0h-.2" fill="none" stroke="#000" stroke-linecap="round" stroke-linejoin="round" stroke-width=".25"/></g><g transform="translate(172.21 222.44)"><path d="m0 0h.203" fill="none" stroke="#000" stroke-linecap="round" stroke-linejoin="round" stroke-width=".25"/></g><g transform="translate(171.52 218.96)"><path d="m0 0c0-.243.2-.444.444-.444.245 0 .448.201.448.444" fill="none" stroke="#000" stroke-linecap="round" stroke-linejoin="round" stroke-width=".25"/></g><g transform="translate(171.52 223.49)"><path d="m0 0v-1.046" fill="none" stroke="#000" stroke-linecap="round" stroke-linejoin="round" stroke-width=".25"/></g><g transform="translate(171.52 222.44)"><path d="m0 0v-3.485" fill="none" stroke="#000" stroke-linecap="round" stroke-linejoin="round" stroke-width=".25"/></g><g transform="translate(171.52 223.61)" fill="none" stroke="#000" stroke-linecap="round" stroke-linejoin="round" stroke-width=".25"><path d="m0 0v.352"/><path d="m0 0v-.043"/></g><g transform="translate(171.72 224.42)"><path d="m0 0c-.077 0-.124-.026-.166-.086" fill="none" stroke="#000" stroke-linecap="round" stroke-linejoin="round" stroke-width=".25"/></g><g transform="translate(172.21 224.42)"><path d="m0 0h-.488" fill="none" stroke="#000" stroke-linecap="round" stroke-linejoin="round" stroke-width=".25"/></g><g transform="translate(172.37 224.34)"><path d="m0 0c-.04.063-.088.086-.163.086" fill="none" stroke="#000" stroke-linecap="round" stroke-linejoin="round" stroke-width=".25"/></g><g transform="translate(172.41 223.49)"><path d="m0 0v-1.046" fill="none" stroke="#000" stroke-linecap="round" stroke-linejoin="round" stroke-width=".25"/></g><g transform="translate(172.41 222.44)"><path d="m0 0v-3.485" fill="none" stroke="#000" stroke-linecap="round" stroke-linejoin="round" stroke-width=".25"/></g><g transform="translate(172.41 223.61)" fill="none" stroke="#000" stroke-linecap="round" stroke-linejoin="round" stroke-width=".25"><path d="m0 0v.352"/><path d="m0 0v-.043"/></g><g transform="translate(169.23 222.24)"><path d="m0 0c.059-.165.128-.325.2-.484" fill="none" stroke="#000" stroke-linecap="round" stroke-linejoin="round" stroke-width=".25"/></g><g transform="translate(167.96 220.43)"><path d="m0 0c.139-.111.277-.216.422-.316" fill="none" stroke="#000" stroke-linecap="round" stroke-linejoin="round" stroke-width=".25"/></g><g transform="translate(169.18 221.49)"><path d="m0 0c-.163.073-.321.143-.483.203" fill="none" stroke="#000" stroke-linecap="round" stroke-linejoin="round" stroke-width=".25"/></g><g transform="translate(167.76 218.23)"><path d="m0 0c.17-.028.346-.05.521-.065" fill="none" stroke="#000" stroke-linecap="round" stroke-linejoin="round" stroke-width=".25"/></g><g transform="translate(168.29 219.76)"><path d="m0 0c-.175-.015-.351-.039-.52-.065" fill="none" stroke="#000" stroke-linecap="round" stroke-linejoin="round" stroke-width=".25"/></g><g transform="translate(168.69 216.23)"><path d="m0 0c.162.061.32.129.483.2" fill="none" stroke="#000" stroke-linecap="round" stroke-linejoin="round" stroke-width=".25"/></g><g transform="translate(168.38 217.81)"><path d="m0 0c-.145-.101-.283-.208-.422-.317" fill="none" stroke="#000" stroke-linecap="round" stroke-linejoin="round" stroke-width=".25"/></g><g transform="translate(170.5 214.96)"><path d="m0 0c.106.134.214.273.317.416" fill="none" stroke="#000" stroke-linecap="round" stroke-linejoin="round" stroke-width=".25"/></g><g transform="translate(169.43 216.17)"><path d="m0 0c-.072-.158-.142-.323-.2-.484" fill="none" stroke="#000" stroke-linecap="round" stroke-linejoin="round" stroke-width=".25"/></g><g transform="translate(172.7 214.76)"><path d="m0 0c.026.172.049.344.064.521" fill="none" stroke="#000" stroke-linecap="round" stroke-linejoin="round" stroke-width=".25"/></g><g transform="translate(171.17 215.28)"><path d="m0 0c.018-.177.039-.349.066-.521" fill="none" stroke="#000" stroke-linecap="round" stroke-linejoin="round" stroke-width=".25"/></g><g transform="translate(174.7 215.68)"><path d="m0 0c-.062.161-.13.326-.205.484" fill="none" stroke="#000" stroke-linecap="round" stroke-linejoin="round" stroke-width=".25"/></g><g transform="translate(173.12 215.37)"><path d="m0 0c.099-.143.203-.282.317-.416" fill="none" stroke="#000" stroke-linecap="round" stroke-linejoin="round" stroke-width=".25"/></g><g transform="translate(175.97 217.49)"><path d="m0 0c-.137.109-.276.216-.418.317" fill="none" stroke="#000" stroke-linecap="round" stroke-linejoin="round" stroke-width=".25"/></g><g transform="translate(174.76 216.43)"><path d="m0 0c.161-.071.32-.139.483-.2" fill="none" stroke="#000" stroke-linecap="round" stroke-linejoin="round" stroke-width=".25"/></g><g transform="translate(176.17 219.69)"><path d="m0 0c-.171.026-.343.05-.52.065" fill="none" stroke="#000" stroke-linecap="round" stroke-linejoin="round" stroke-width=".25"/></g><g transform="translate(175.65 218.16)"><path d="m0 0c.177.016.349.037.52.065" fill="none" stroke="#000" stroke-linecap="round" stroke-linejoin="round" stroke-width=".25"/></g><g transform="translate(174.5 221.75)"><path d="m0 0c.075.159.144.319.205.484" fill="none" stroke="#000" stroke-linecap="round" stroke-linejoin="round" stroke-width=".25"/></g><g transform="translate(173 222.73)"><path d="m0 0c.365-.612.793-.892 1.499-.978" fill="none" stroke="#000" stroke-linecap="round" stroke-linejoin="round" stroke-width=".25"/></g><g transform="translate(174.76 221.49)"><path d="m0 0c-.083.092-.168.18-.262.262" fill="none" stroke="#000" stroke-linecap="round" stroke-linejoin="round" stroke-width=".25"/></g><g transform="translate(175.65 219.76)" fill="none" stroke="#000" stroke-linecap="round" stroke-linejoin="round" stroke-width=".25"><path d="m0 0c-.024.121-.059.237-.094.357"/><path d="m0 0c-.238-.563-.238-1.029 0-1.591"/></g><g transform="translate(175.55 217.81)" fill="none" stroke="#000" stroke-linecap="round" stroke-linejoin="round" stroke-width=".25"><path d="m0 0c.035.116.069.237.094.356"/><path d="m0 0c-.491-.368-.722-.772-.798-1.381"/></g><g transform="translate(174.5 216.17)" fill="none" stroke="#000" stroke-linecap="round" stroke-linejoin="round" stroke-width=".25"><path d="m0 0c.094.083.181.169.262.259"/><path d="m0 0c-.604-.075-1.007-.307-1.376-.796"/></g><g transform="translate(172.76 215.28)" fill="none" stroke="#000" stroke-linecap="round" stroke-linejoin="round" stroke-width=".25"><path d="m0 0c.12.026.237.056.356.094"/><path d="m0 0c-.563.238-1.028.238-1.593 0"/></g><g transform="translate(170.82 215.37)" fill="none" stroke="#000" stroke-linecap="round" stroke-linejoin="round" stroke-width=".25"><path d="m0 0c.112-.038.233-.068.353-.094"/><path d="m0 0c-.369.489-.774.721-1.383.796"/></g><g transform="translate(169.18 216.43)" fill="none" stroke="#000" stroke-linecap="round" stroke-linejoin="round" stroke-width=".25"><path d="m0 0c.081-.089.169-.176.257-.259"/><path d="m0 0c-.076.608-.308 1.013-.797 1.381"/></g><g transform="translate(168.29 218.16)"><path d="m0 0c.027-.119.056-.24.096-.356" fill="none" stroke="#000" stroke-linecap="round" stroke-linejoin="round" stroke-width=".25"/></g><g transform="translate(168.38 220.11)"><path d="m0 0c-.04-.12-.068-.237-.096-.357" fill="none" stroke="#000" stroke-linecap="round" stroke-linejoin="round" stroke-width=".25"/></g><g transform="translate(169.43 221.75)" fill="none" stroke="#000" stroke-linecap="round" stroke-linejoin="round" stroke-width=".25"><path d="m0 0c-.088-.082-.176-.17-.257-.262"/><path d="m0 0c.715.087 1.325.542 1.616 1.195"/></g><g transform="translate(174.76 221.49)"><path d="m0 0c.076-.606.307-1.009.798-1.376" fill="none" stroke="#000" stroke-linecap="round" stroke-linejoin="round" stroke-width=".25"/></g><g transform="translate(175.24 221.69)"><path d="m0 0c-.163-.061-.322-.131-.483-.204" fill="none" stroke="#000" stroke-linecap="round" stroke-linejoin="round" stroke-width=".25"/></g><g transform="translate(175.55 220.11)"><path d="m0 0c.142.101.281.205.418.316" fill="none" stroke="#000" stroke-linecap="round" stroke-linejoin="round" stroke-width=".25"/></g><g transform="translate(175.72 222.01)"><path d="m0 0-.334-.208-.145-.111" fill="none" stroke="#000" stroke-linecap="round" stroke-linejoin="round" stroke-width=".25"/></g><g transform="translate(176.48 220.68)"><path d="m0 0-.345-.186-.171-.066" fill="none" stroke="#000" stroke-linecap="round" stroke-linejoin="round" stroke-width=".25"/></g><g transform="translate(176.74 219.73)"><path d="m0 0-.392-.015-.18-.022" fill="none" stroke="#000" stroke-linecap="round" stroke-linejoin="round" stroke-width=".25"/></g><g transform="translate(176.74 218.19)"><path d="m0 0-.392.016-.18.024" fill="none" stroke="#000" stroke-linecap="round" stroke-linejoin="round" stroke-width=".25"/></g><g transform="translate(176.48 217.24)"><path d="m0 0-.345.185-.171.068" fill="none" stroke="#000" stroke-linecap="round" stroke-linejoin="round" stroke-width=".25"/></g><g transform="translate(175.72 215.91)"><path d="m0 0-.334.208-.145.111" fill="none" stroke="#000" stroke-linecap="round" stroke-linejoin="round" stroke-width=".25"/></g><g transform="translate(175.02 215.21)"><path d="m0 0-.207.333-.108.142" fill="none" stroke="#000" stroke-linecap="round" stroke-linejoin="round" stroke-width=".25"/></g><g transform="translate(173.69 214.44)"><path d="m0 0-.188.346-.064.168" fill="none" stroke="#000" stroke-linecap="round" stroke-linejoin="round" stroke-width=".25"/></g><g transform="translate(172.73 214.18)"><path d="m0 0-.014.394-.022.179" fill="none" stroke="#000" stroke-linecap="round" stroke-linejoin="round" stroke-width=".25"/></g><g transform="translate(171.2 214.18)"><path d="m0 0 .014.394.024.179" fill="none" stroke="#000" stroke-linecap="round" stroke-linejoin="round" stroke-width=".25"/></g><g transform="translate(170.24 214.44)"><path d="m0 0 .186.346.071.168" fill="none" stroke="#000" stroke-linecap="round" stroke-linejoin="round" stroke-width=".25"/></g><g transform="translate(168.91 215.21)"><path d="m0 0 .209.333.111.142" fill="none" stroke="#000" stroke-linecap="round" stroke-linejoin="round" stroke-width=".25"/></g><g transform="translate(168.22 215.91)"><path d="m0 0 .335.208.143.111" fill="none" stroke="#000" stroke-linecap="round" stroke-linejoin="round" stroke-width=".25"/></g><g transform="translate(167.45 217.24)"><path d="m0 0 .345.185.163.068" fill="none" stroke="#000" stroke-linecap="round" stroke-linejoin="round" stroke-width=".25"/></g><g transform="translate(167.19 218.19)"><path d="m0 0 .393.016.179.024" fill="none" stroke="#000" stroke-linecap="round" stroke-linejoin="round" stroke-width=".25"/></g><g transform="translate(167.19 219.73)"><path d="m0 0 .393-.015.179-.022" fill="none" stroke="#000" stroke-linecap="round" stroke-linejoin="round" stroke-width=".25"/></g><g transform="translate(167.45 220.68)"><path d="m0 0 .345-.186.163-.066" fill="none" stroke="#000" stroke-linecap="round" stroke-linejoin="round" stroke-width=".25"/></g><g transform="translate(168.22 222.01)"><path d="m0 0 .335-.208.143-.111" fill="none" stroke="#000" stroke-linecap="round" stroke-linejoin="round" stroke-width=".25"/></g><g transform="translate(172.88 222.95)" fill="none" stroke="#000" stroke-linecap="round" stroke-linejoin="round" stroke-width=".25"><path d="m0 0c.032-.075.068-.148.111-.218"/><path d="m0 0 .449.208"/><path d="m0 0c-.023.028-.047.044-.087.047"/></g><g transform="translate(172.41 223.49)"><path d="m0 0c0 .026-.006.049-.006.075" fill="none" stroke="#000" stroke-linecap="round" stroke-linejoin="round" stroke-width=".25"/></g><g transform="translate(172.8 222.99)"><path d="m0 0c-.126.02-.253.034-.382.043" fill="none" stroke="#000" stroke-linecap="round" stroke-linejoin="round" stroke-width=".25"/></g><g transform="translate(171.52 223.04)"><path d="m0 0c-.129-.009-.257-.024-.385-.043" fill="none" stroke="#000" stroke-linecap="round" stroke-linejoin="round" stroke-width=".25"/></g><g transform="translate(171.52 223.56)"><path d="m0 0c0-.026-.002-.049-.002-.074" fill="none" stroke="#000" stroke-linecap="round" stroke-linejoin="round" stroke-width=".25"/></g><g transform="translate(171.14 222.99)"><path d="m0 0c-.037-.003-.066-.016-.087-.045" fill="none" stroke="#000" stroke-linecap="round" stroke-linejoin="round" stroke-width=".25"/></g><g transform="translate(171.05 222.95)"><path d="m0 0-.45.208" fill="none" stroke="#000" stroke-linecap="round" stroke-linejoin="round" stroke-width=".25"/></g><g transform="translate(171.52 223.57)"><path d="m0 0c0-.003 0-.006.002-.007" fill="none" stroke="#000" stroke-linecap="round" stroke-linejoin="round" stroke-width=".25"/></g><g transform="translate(171.52 223.97)"><path d="m0 0v-1e-3" fill="none" stroke="#000" stroke-linecap="round" stroke-linejoin="round" stroke-width=".25"/></g><g transform="translate(171.52 224.24)"><path d="m0 0v-.271" fill="none" stroke="#000" stroke-linecap="round" stroke-linejoin="round" stroke-width=".25"/></g><g transform="translate(172.41 224.24)"><path d="m0 0 .006-.271" fill="none" stroke="#000" stroke-linecap="round" stroke-linejoin="round" stroke-width=".25"/></g><g transform="translate(172.41 223.97)"><path d="m0 0v-1e-3" fill="none" stroke="#000" stroke-linecap="round" stroke-linejoin="round" stroke-width=".25"/></g><g transform="translate(168.91 222.71)"><path d="m0 0 .209-.333.111-.141" fill="none" stroke="#000" stroke-linecap="round" stroke-linejoin="round" stroke-width=".25"/></g><g transform="translate(170.6 223.15)"><path d="m0 0-.02.182-.077.182-.131.174" fill="none" stroke="#000" stroke-linecap="round" stroke-linejoin="round" stroke-width=".25"/></g><g transform="translate(173.33 223.15)"><path d="m0 0 .019.182.075.182.134.174" fill="none" stroke="#000" stroke-linecap="round" stroke-linejoin="round" stroke-width=".25"/></g><g transform="translate(175.02 222.71)"><path d="m0 0-.207-.333-.108-.141" fill="none" stroke="#000" stroke-linecap="round" stroke-linejoin="round" stroke-width=".25"/></g><g transform="translate(169.62 223.26)"><path d="m0 0-.193-.113-.186-.126-.212-.169-.062-.065-.037-.046-.008-.015-.005-.009v-.007" fill="none" stroke="#000" stroke-linecap="round" stroke-linejoin="round" stroke-width=".25"/></g><g transform="translate(169.83 223.36)"><path d="m0 0c.136.061.221.146.284.286" fill="none" stroke="#000" stroke-linecap="round" stroke-linejoin="round" stroke-width=".25"/></g><g transform="translate(170.12 223.74)"><path d="m0 0-.012-.092" fill="none" stroke="#000" stroke-linecap="round" stroke-linejoin="round" stroke-width=".25"/></g><g transform="translate(170.11 223.64)"><path d="m0 0 .004.008" fill="none" stroke="#000" stroke-linecap="round" stroke-linejoin="round" stroke-width=".25"/></g><g transform="translate(172.41 224.24)"><path d="m0 0c-.003.037-.012.065-.034.097" fill="none" stroke="#000" stroke-linecap="round" stroke-linejoin="round" stroke-width=".25"/></g><g transform="translate(171.56 224.34)"><path d="m0 0c-.02-.032-.03-.061-.034-.098" fill="none" stroke="#000" stroke-linecap="round" stroke-linejoin="round" stroke-width=".25"/></g><g transform="translate(171.52 224.24)"><path d="m0 0c-.354-.03-.697-.096-1.034-.201" fill="none" stroke="#000" stroke-linecap="round" stroke-linejoin="round" stroke-width=".25"/></g><g transform="translate(170.48 224.04)"><path d="m0 0c-.171-.053-.274-.141-.357-.301" fill="none" stroke="#000" stroke-linecap="round" stroke-linejoin="round" stroke-width=".25"/></g><g transform="translate(169.84 223.46)"><path d="m0 0c.132.063.216.147.28.276" fill="none" stroke="#000" stroke-linecap="round" stroke-linejoin="round" stroke-width=".25"/></g><g transform="translate(173.45 224.04)"><path d="m0 0c-.341.104-.682.171-1.041.201" fill="none" stroke="#000" stroke-linecap="round" stroke-linejoin="round" stroke-width=".25"/></g><g transform="translate(169.83 223.36)"><path d="m0 0c-.072-.032-.14-.064-.209-.1" fill="none" stroke="#000" stroke-linecap="round" stroke-linejoin="round" stroke-width=".25"/></g><g transform="translate(170.11 223.65)"><path d="m0 0 .215.043.031-.002h.013v-.001" fill="none" stroke="#000" stroke-linecap="round" stroke-linejoin="round" stroke-width=".25"/></g><g transform="translate(173.82 223.64)"><path d="m0 0-.014.092" fill="none" stroke="#000" stroke-linecap="round" stroke-linejoin="round" stroke-width=".25"/></g><g transform="translate(173.81 223.74)"><path d="m0 0c-.083.16-.19.249-.36.301" fill="none" stroke="#000" stroke-linecap="round" stroke-linejoin="round" stroke-width=".25"/></g><g transform="translate(174.11 223.36)"><path d="m0 0 .253-.125.242-.147.179-.134.169-.149.051-.058.012-.017.003-.011-.002-.008" fill="none" stroke="#000" stroke-linecap="round" stroke-linejoin="round" stroke-width=".25"/></g><g transform="translate(173.82 223.64)"><path d="m0 0-.005.008" fill="none" stroke="#000" stroke-linecap="round" stroke-linejoin="round" stroke-width=".25"/></g><g transform="translate(173.76 223.67)" fill="none" stroke="#000" stroke-linecap="round" stroke-linejoin="round" stroke-width=".25"><path d="m0 0 .061-.018"/><path d="m0 0-.167.025-.024-.002-.007-.001"/></g><g transform="translate(171.2 214.18)"><path d="m0 0 .002-.005.006-.003.006-.004.03-.014.11-.034.284-.046.288-.019.236.008.23.022.232.046.076.025.026.013.008.006.002.005" fill="none" stroke="#000" stroke-linecap="round" stroke-linejoin="round" stroke-width=".25"/></g><g transform="translate(176.48 220.68)"><path d="m0 0 .004.006v.044l-.026.115-.101.268-.13.256-.121.202-.137.191-.157.176-.054.053-.032.017-.002.002h-.009" fill="none" stroke="#000" stroke-linecap="round" stroke-linejoin="round" stroke-width=".25"/></g><g transform="translate(168.91 215.21)"><path d="m0 0v-.008l.005-.004v-.007l.018-.026.08-.083.223-.184.24-.158.206-.113.215-.096.221-.076.074-.016.036-.003.004.003.007.005" fill="none" stroke="#000" stroke-linecap="round" stroke-linejoin="round" stroke-width=".25"/></g><g transform="translate(175.72 215.91)"><path d="m0 0h.011l.004.003.03.019.084.081.184.22.155.242.114.206.097.212.077.222.013.079v.037l-.004.008" fill="none" stroke="#000" stroke-linecap="round" stroke-linejoin="round" stroke-width=".25"/></g><g transform="translate(167.45 217.24)"><path d="m0 0-.008-.004v-.008l-.002-.006.007-.031.025-.116.1-.27.127-.255.125-.203.134-.19.158-.174.059-.053.024-.017.009-.002h.008" fill="none" stroke="#000" stroke-linecap="round" stroke-linejoin="round" stroke-width=".25"/></g><g transform="translate(167.19 219.73)"><path d="m0 0-.006-.003-.004-.004-.005-.008-.013-.027-.033-.112-.046-.284-.019-.285.007-.236.024-.235.045-.23.024-.074.014-.028.003-.004.009-.008" fill="none" stroke="#000" stroke-linecap="round" stroke-linejoin="round" stroke-width=".25"/></g><g transform="translate(174.32 214.66)" fill="none" stroke="#000" stroke-linecap="round" stroke-linejoin="round" stroke-width=".25"><path d="m0 0 .193.112.188.125.208.171.063.065.039.046.008.015.003.007-.002.008"/><path d="m0 0-.182-.09-.185-.072-.125-.041-.066-.014-.046-.008h-.012l-.005.003-.006.005"/></g><g transform="translate(168.22 222.01)"><path d="m0 0h-.012l-.006-.004-.028-.018-.083-.079-.185-.224-.157-.238-.115-.208-.096-.215-.074-.222-.017-.076-.002-.032.002-.006.007-.008" fill="none" stroke="#000" stroke-linecap="round" stroke-linejoin="round" stroke-width=".25"/></g><g transform="translate(176.74 218.19)"><path d="m0 0 .007.004.004.004.002.008.011.027.035.114.049.282.018.287-.006.235-.023.235-.046.229-.027.075-.013.026-.004.005-.007.007" fill="none" stroke="#000" stroke-linecap="round" stroke-linejoin="round" stroke-width=".25"/></g><g transform="translate(169.84 223.46)"><path d="m0 0c-2.108-.994-3.241-3.317-2.731-5.591.505-2.273 2.523-3.888 4.856-3.888 2.329 0 4.349 1.615 4.858 3.888.512 2.274-.626 4.597-2.733 5.591" fill="none" stroke="#000" stroke-linecap="round" stroke-linejoin="round" stroke-width=".25"/></g><g transform="translate(168.29 218.16)"><path d="m0 0c.241.562.241 1.029 0 1.591" fill="none" stroke="#000" stroke-linecap="round" stroke-linejoin="round" stroke-width=".25"/></g><g transform="translate(178.04 218.96)"><path d="m0 0c0 3.355-2.716 6.072-6.068 6.072s-6.072-2.717-6.072-6.072c0-3.353 2.72-6.071 6.072-6.071s6.068 2.718 6.068 6.071z" fill="none" stroke="#000" stroke-linecap="round" stroke-linejoin="round" stroke-width=".25"/></g><g transform="translate(173.83 223.64)"><path d="m0 0c.06-.14.144-.225.283-.286" fill="none" stroke="#000" stroke-linecap="round" stroke-linejoin="round" stroke-width=".25"/></g><g transform="translate(176.11 212.23)"><path d="m0 0c-.649 1.124-1.297 2.244-1.944 3.367-.114-.074-.232-.143-.353-.202.649-1.121 1.299-2.247 1.948-3.37.011-.018.027-.038.037-.055.036-.048.069-.068.128-.059.038.006.076.018.108.04.022.014.042.03.061.045.049.029.064.067.057.124-.008.041-.021.076-.042.11"/></g><g transform="translate(169.77 215.61)"><path d="m0 0c-.647-1.125-1.296-2.25-1.947-3.374-.023-.034-.035-.069-.038-.11-.008-.057.006-.094.053-.124.022-.014.041-.031.058-.044.034-.022.072-.035.112-.038.063-.011.096.008.124.057.017.017.028.036.042.055.652 1.127 1.3 2.252 1.949 3.377-.122.06-.241.127-.353.201"/></g><g transform="translate(164.69 222.97)"><path d="m0 0c.007-.221.184-.397.405-.404.225 0 .406.179.406.404-.008.22-.184.396-.406.405-.224 0-.405-.181-.405-.405"/></g><g transform="translate(163.63 219)"><path d="m0 0c0-.223.18-.405.403-.405.218.009.396.185.407.405 0 .224-.184.403-.407.403-.219-.006-.394-.182-.403-.403"/></g><g transform="translate(165.1 214.64)"><path d="m0 0c.222.006.397.183.405.404 0 .225-.18.406-.405.406-.222-.008-.398-.186-.405-.406 0-.224.18-.404.405-.404"/></g><g transform="translate(176.34 225.87)"><path d="m0 0c-.006.219-.185.398-.404.405-.225 0-.403-.18-.403-.405.006-.221.184-.397.403-.404.222 0 .404.181.404.404"/></g><g transform="translate(172.5 226.91)"><path d="m0 0c-.007.221-.186.398-.406.406-.223 0-.403-.182-.403-.406.008-.219.184-.396.403-.403.223 0 .406.181.406.403"/></g><g transform="translate(168 225.47)"><path d="m0 0c.222 0 .405.181.405.404-.009.22-.187.398-.405.405-.225 0-.404-.18-.404-.405.007-.221.181-.397.404-.404"/></g><g transform="translate(179.5 219)"><path d="m0 0c0-.223.178-.405.403-.405.223 0 .405.182.405.405 0 .225-.182.403-.405.405-.225 0-.403-.18-.403-.405"/></g><g transform="translate(178.43 222.97)"><path d="m0 0c.009-.221.184-.397.404-.404.226 0 .405.179.405.404-.008.22-.184.396-.405.405-.22 0-.404-.181-.404-.405"/></g><g transform="translate(178.84 214.64)"><path d="m0 0c.221.006.396.183.404.404 0 .225-.178.406-.404.406-.221-.008-.396-.186-.404-.406 0-.224.183-.404.404-.404"/></g><g transform="translate(138.64 224.67)"><path d="m0 0c0 3.83 3.107 6.936 6.937 6.936 3.829 0 6.935-3.106 6.935-6.936 0-3.831-3.106-6.938-6.935-6.938-3.83 0-6.937 3.107-6.937 6.938z" fill="none" stroke="#000" stroke-linecap="round" stroke-linejoin="round" stroke-miterlimit="10" stroke-width=".25"/></g><g transform="translate(113.16 240.57)"><path d="m0 0v-4.031c0-.535.432-.969.965-.969h10.486c.536 0 .967.434.967.969v4.031c0 .536-.431.969-.967.969h-10.486c-.533 0-.965-.433-.965-.969" fill="#fff"/><path d="m0 0v-4.031c0-.535.432-.969.965-.969h10.486c.536 0 .967.434.967.969v4.031c0 .536-.431.969-.967.969h-10.486c-.533 0-.965-.433-.965-.969z" fill="none" stroke="#000" stroke-miterlimit="10" stroke-width=".25"/></g><g transform="translate(124.49 240.62)"><path d="m0 0h-10.252c-.072 0-.13-.06-.13-.134v-.003c.021-1.288.021-2.571 0-3.855-.003-.075.054-.137.128-.141h10.254c.072 0 .133.062.132.134v.007c-.02 1.284-.02 2.567 0 3.854.004.073-.054.135-.126.138z" fill="none" stroke="#000" stroke-miterlimit="10" stroke-width=".35"/></g><g transform="translate(165.69 240.57)"><path d="m0 0v-4.031c0-.535.434-.969.968-.969h10.483c.536 0 .968.434.968.969v4.031c0 .536-.432.969-.968.969h-10.483c-.534 0-.968-.433-.968-.969" fill="#fff"/><path d="m0 0v-4.031c0-.535.434-.969.968-.969h10.483c.536 0 .968.434.968.969v4.031c0 .536-.432.969-.968.969h-10.483c-.534 0-.968-.433-.968-.969z" fill="none" stroke="#000" stroke-miterlimit="10" stroke-width=".25"/></g><g transform="translate(177.02 240.62)"><path d="m0 0h-10.249c-.073 0-.134-.06-.134-.134v-.003c.021-1.288.021-2.571 0-3.855-.002-.075.055-.137.129-.141h10.254c.074 0 .134.062.134.134v.007c-.022 1.284-.022 2.567 0 3.854.001.073-.054.135-.128.138z" fill="none" stroke="#000" stroke-miterlimit="10" stroke-width=".35"/></g><g transform="translate(140.09 224.75)"><path d="m0 0c0 3.029 2.452 5.485 5.483 5.485 3.027 0 5.484-2.456 5.484-5.485s-2.457-5.484-5.484-5.484c-3.031 0-5.483 2.455-5.483 5.484" fill="#fff"/><path d="m0 0c0 3.029 2.452 5.485 5.483 5.485 3.027 0 5.484-2.456 5.484-5.485s-2.457-5.484-5.484-5.484c-3.031 0-5.483 2.455-5.483 5.484z" fill="none" stroke="#000" stroke-linecap="round" stroke-linejoin="round" stroke-miterlimit="10" stroke-width=".25"/></g><g transform="translate(140.62 224.75)"><path d="m0 0c0 2.739 2.221 4.961 4.961 4.961s4.961-2.222 4.961-4.961c0-2.74-2.221-4.96-4.961-4.96s-4.961 2.22-4.961 4.96z" fill="none" stroke="#000" stroke-linecap="round" stroke-linejoin="round" stroke-miterlimit="10" stroke-width=".25"/></g><g transform="translate(148.59 228.52)"><path d="m0 0-.207-.352-.078-.111" fill="none" stroke="#000" stroke-linecap="round" stroke-linejoin="round" stroke-miterlimit="10" stroke-width=".25"/></g><g transform="translate(147.33 229.24)"><path d="m0 0-.203-.356-.056-.123" fill="none" stroke="#000" stroke-linecap="round" stroke-linejoin="round" stroke-miterlimit="10" stroke-width=".25"/></g><g transform="translate(146.31 229.52)"><path d="m0 0-.006-.411-.012-.131" fill="none" stroke="#000" stroke-linecap="round" stroke-linejoin="round" stroke-miterlimit="10" stroke-width=".25"/></g><g transform="translate(144.85 229.52)"><path d="m0 0 .004-.411.012-.131" fill="none" stroke="#000" stroke-linecap="round" stroke-linejoin="round" stroke-miterlimit="10" stroke-width=".25"/></g><g transform="translate(143.82 229.24)"><path d="m0 0 .201-.356.057-.123" fill="none" stroke="#000" stroke-linecap="round" stroke-linejoin="round" stroke-miterlimit="10" stroke-width=".25"/></g><g transform="translate(142.56 228.52)"><path d="m0 0 .209-.352.075-.111" fill="none" stroke="#000" stroke-linecap="round" stroke-linejoin="round" stroke-miterlimit="10" stroke-width=".25"/></g><g transform="translate(141.81 227.77)"><path d="m0 0 .355-.209.108-.077" fill="none" stroke="#000" stroke-linecap="round" stroke-linejoin="round" stroke-miterlimit="10" stroke-width=".25"/></g><g transform="translate(141.08 226.5)"><path d="m0 0 .356-.202.125-.055" fill="none" stroke="#000" stroke-linecap="round" stroke-linejoin="round" stroke-miterlimit="10" stroke-width=".25"/></g><g transform="translate(140.81 225.48)"><path d="m0 0 .41-.004.135-.011" fill="none" stroke="#000" stroke-linecap="round" stroke-linejoin="round" stroke-miterlimit="10" stroke-width=".25"/></g><g transform="translate(140.81 224.02)"><path d="m0 0 .41.006.135.011" fill="none" stroke="#000" stroke-linecap="round" stroke-linejoin="round" stroke-miterlimit="10" stroke-width=".25"/></g><g transform="translate(141.08 223)"><path d="m0 0 .356.201.125.057" fill="none" stroke="#000" stroke-linecap="round" stroke-linejoin="round" stroke-miterlimit="10" stroke-width=".25"/></g><g transform="translate(149.34 227.77)"><path d="m0 0-.353-.209-.109-.077" fill="none" stroke="#000" stroke-linecap="round" stroke-linejoin="round" stroke-miterlimit="10" stroke-width=".25"/></g><g transform="translate(147.33 220.25)"><path d="m0 0-.203.358-.056.121" fill="none" stroke="#000" stroke-linecap="round" stroke-linejoin="round" stroke-miterlimit="10" stroke-width=".25"/></g><g transform="translate(148.59 220.98)"><path d="m0 0-.207.353-.078.11" fill="none" stroke="#000" stroke-linecap="round" stroke-linejoin="round" stroke-miterlimit="10" stroke-width=".25"/></g><g transform="translate(149.34 221.73)"><path d="m0 0-.353.208-.109.078" fill="none" stroke="#000" stroke-linecap="round" stroke-linejoin="round" stroke-miterlimit="10" stroke-width=".25"/></g><g transform="translate(150.07 223)"><path d="m0 0-.358.201-.119.057" fill="none" stroke="#000" stroke-linecap="round" stroke-linejoin="round" stroke-miterlimit="10" stroke-width=".25"/></g><g transform="translate(150.35 224.02)"><path d="m0 0-.41.006-.136.011" fill="none" stroke="#000" stroke-linecap="round" stroke-linejoin="round" stroke-miterlimit="10" stroke-width=".25"/></g><g transform="translate(150.35 225.48)"><path d="m0 0-.41-.004-.136-.011" fill="none" stroke="#000" stroke-linecap="round" stroke-linejoin="round" stroke-miterlimit="10" stroke-width=".25"/></g><g transform="translate(150.07 226.5)"><path d="m0 0-.358-.202-.119-.055" fill="none" stroke="#000" stroke-linecap="round" stroke-linejoin="round" stroke-miterlimit="10" stroke-width=".25"/></g><g transform="translate(141.81 221.73)"><path d="m0 0 .355.208.108.078" fill="none" stroke="#000" stroke-linecap="round" stroke-linejoin="round" stroke-miterlimit="10" stroke-width=".25"/></g><g transform="translate(142.56 220.98)"><path d="m0 0 .209.353.075.11" fill="none" stroke="#000" stroke-linecap="round" stroke-linejoin="round" stroke-miterlimit="10" stroke-width=".25"/></g><g transform="translate(143.82 220.25)"><path d="m0 0 .201.358.057.121" fill="none" stroke="#000" stroke-linecap="round" stroke-linejoin="round" stroke-miterlimit="10" stroke-width=".25"/></g><g transform="translate(144.85 219.98)"><path d="m0 0 .004.411.012.132" fill="none" stroke="#000" stroke-linecap="round" stroke-linejoin="round" stroke-miterlimit="10" stroke-width=".25"/></g><g transform="translate(146.31 219.98)"><path d="m0 0-.006.411-.012.132" fill="none" stroke="#000" stroke-linecap="round" stroke-linejoin="round" stroke-miterlimit="10" stroke-width=".25"/></g><g transform="translate(148.49 227.3)"><path d="m0 0c-.114.129-.233.25-.363.363" fill="none" stroke="#000" stroke-linecap="round" stroke-linejoin="round" stroke-miterlimit="10" stroke-width=".25"/></g><g transform="translate(148.88 227.48)" fill="none" stroke="#000" stroke-linecap="round" stroke-linejoin="round" stroke-miterlimit="10" stroke-width=".25"><path d="m0 0c-.134-.058-.262-.117-.392-.18"/><path d="m0 0v2e-3"/></g><g transform="translate(148.31 228.05)"><path d="m0 0h3e-3" fill="none" stroke="#000" stroke-linecap="round" stroke-linejoin="round" stroke-miterlimit="10" stroke-width=".25"/></g><g transform="translate(148.13 227.66)"><path d="m0 0c.062.131.122.259.178.392" fill="none" stroke="#000" stroke-linecap="round" stroke-linejoin="round" stroke-miterlimit="10" stroke-width=".25"/></g><g transform="translate(147.07 228.76)"><path d="m0 0-.001.001" fill="none" stroke="#000" stroke-linecap="round" stroke-linejoin="round" stroke-miterlimit="10" stroke-width=".25"/></g><g transform="translate(146.83 228.41)"><path d="m0 0c-.16.056-.328.1-.5.133" fill="none" stroke="#000" stroke-linecap="round" stroke-linejoin="round" stroke-miterlimit="10" stroke-width=".25"/></g><g transform="translate(147.07 228.76)"><path d="m0 0c-.084-.116-.168-.232-.248-.351" fill="none" stroke="#000" stroke-linecap="round" stroke-linejoin="round" stroke-miterlimit="10" stroke-width=".25"/></g><g transform="translate(146.29 228.97)"><path d="m0 0 .004.001" fill="none" stroke="#000" stroke-linecap="round" stroke-linejoin="round" stroke-miterlimit="10" stroke-width=".25"/></g><g transform="translate(146.33 228.55)"><path d="m0 0c-.007.143-.023.286-.039.429" fill="none" stroke="#000" stroke-linecap="round" stroke-linejoin="round" stroke-miterlimit="10" stroke-width=".25"/></g><g transform="translate(144.87 228.97)"><path d="m0 0-.003.001" fill="none" stroke="#000" stroke-linecap="round" stroke-linejoin="round" stroke-miterlimit="10" stroke-width=".25"/></g><g transform="translate(144.83 228.55)"><path d="m0 0c-.17-.033-.336-.078-.5-.133" fill="none" stroke="#000" stroke-linecap="round" stroke-linejoin="round" stroke-miterlimit="10" stroke-width=".25"/></g><g transform="translate(144.87 228.97)"><path d="m0 0c-.016-.143-.028-.286-.038-.429" fill="none" stroke="#000" stroke-linecap="round" stroke-linejoin="round" stroke-miterlimit="10" stroke-width=".25"/></g><g transform="translate(144.08 228.76)"><path d="m0 0v1e-3" fill="none" stroke="#000" stroke-linecap="round" stroke-linejoin="round" stroke-miterlimit="10" stroke-width=".25"/></g><g transform="translate(144.33 228.41)"><path d="m0 0c-.08.119-.164.235-.248.351" fill="none" stroke="#000" stroke-linecap="round" stroke-linejoin="round" stroke-miterlimit="10" stroke-width=".25"/></g><g transform="translate(142.85 228.05)"><path d="m0 0h-4e-3" fill="none" stroke="#000" stroke-linecap="round" stroke-linejoin="round" stroke-miterlimit="10" stroke-width=".25"/></g><g transform="translate(143.03 227.66)"><path d="m0 0c-.133-.113-.252-.234-.365-.363" fill="none" stroke="#000" stroke-linecap="round" stroke-linejoin="round" stroke-miterlimit="10" stroke-width=".25"/></g><g transform="translate(142.85 228.05)"><path d="m0 0c.055-.132.117-.26.181-.392" fill="none" stroke="#000" stroke-linecap="round" stroke-linejoin="round" stroke-miterlimit="10" stroke-width=".25"/></g><g transform="translate(142.27 227.48)"><path d="m0 0v2e-3" fill="none" stroke="#000" stroke-linecap="round" stroke-linejoin="round" stroke-miterlimit="10" stroke-width=".25"/></g><g transform="translate(142.66 227.3)"><path d="m0 0c-.129.063-.261.122-.392.18" fill="none" stroke="#000" stroke-linecap="round" stroke-linejoin="round" stroke-miterlimit="10" stroke-width=".25"/></g><g transform="translate(141.56 226.25)"><path d="m0 0h-1e-3" fill="none" stroke="#000" stroke-linecap="round" stroke-linejoin="round" stroke-miterlimit="10" stroke-width=".25"/></g><g transform="translate(141.91 226)"><path d="m0 0c-.055-.162-.1-.328-.133-.498" fill="none" stroke="#000" stroke-linecap="round" stroke-linejoin="round" stroke-miterlimit="10" stroke-width=".25"/></g><g transform="translate(141.56 226.25)"><path d="m0 0c.113-.084.233-.168.351-.249" fill="none" stroke="#000" stroke-linecap="round" stroke-linejoin="round" stroke-miterlimit="10" stroke-width=".25"/></g><g transform="translate(141.35 225.46)"><path d="m0 0v3e-3" fill="none" stroke="#000" stroke-linecap="round" stroke-linejoin="round" stroke-miterlimit="10" stroke-width=".25"/></g><g transform="translate(141.78 225.5)"><path d="m0 0c-.144-.01-.287-.024-.429-.04" fill="none" stroke="#000" stroke-linecap="round" stroke-linejoin="round" stroke-miterlimit="10" stroke-width=".25"/></g><g transform="translate(141.35 224.04)"><path d="m0 0v-3e-3" fill="none" stroke="#000" stroke-linecap="round" stroke-linejoin="round" stroke-miterlimit="10" stroke-width=".25"/></g><g transform="translate(141.78 224)"><path d="m0 0c.033-.169.078-.335.133-.497" fill="none" stroke="#000" stroke-linecap="round" stroke-linejoin="round" stroke-miterlimit="10" stroke-width=".25"/></g><g transform="translate(141.35 224.04)"><path d="m0 0c.142-.018.285-.031.429-.041" fill="none" stroke="#000" stroke-linecap="round" stroke-linejoin="round" stroke-miterlimit="10" stroke-width=".25"/></g><g transform="translate(141.56 223.25)"><path d="m0 0-.001.001" fill="none" stroke="#000" stroke-linecap="round" stroke-linejoin="round" stroke-miterlimit="10" stroke-width=".25"/></g><g transform="translate(141.91 223.5)"><path d="m0 0c-.12-.082-.237-.165-.351-.25" fill="none" stroke="#000" stroke-linecap="round" stroke-linejoin="round" stroke-miterlimit="10" stroke-width=".25"/></g><g transform="translate(142.27 222.02)"><path d="m0 0v-2e-3" fill="none" stroke="#000" stroke-linecap="round" stroke-linejoin="round" stroke-miterlimit="10" stroke-width=".25"/></g><g transform="translate(149.59 226.25)"><path d="m0 0h3e-3" fill="none" stroke="#000" stroke-linecap="round" stroke-linejoin="round" stroke-miterlimit="10" stroke-width=".25"/></g><g transform="translate(146.33 220.95)"><path d="m0 0c.172.034.34.078.5.134" fill="none" stroke="#000" stroke-linecap="round" stroke-linejoin="round" stroke-miterlimit="10" stroke-width=".25"/></g><g transform="translate(146.29 220.52)" fill="none" stroke="#000" stroke-linecap="round" stroke-linejoin="round" stroke-miterlimit="10" stroke-width=".25"><path d="m0 0c.016.142.032.285.039.427"/><path d="m0 0 .004-.002"/></g><g transform="translate(147.07 220.73)"><path d="m0 0-.001-.002" fill="none" stroke="#000" stroke-linecap="round" stroke-linejoin="round" stroke-miterlimit="10" stroke-width=".25"/></g><g transform="translate(146.83 221.08)"><path d="m0 0c.08-.119.164-.235.248-.352" fill="none" stroke="#000" stroke-linecap="round" stroke-linejoin="round" stroke-miterlimit="10" stroke-width=".25"/></g><g transform="translate(148.31 221.45)"><path d="m0 0h3e-3" fill="none" stroke="#000" stroke-linecap="round" stroke-linejoin="round" stroke-miterlimit="10" stroke-width=".25"/></g><g transform="translate(148.13 221.83)"><path d="m0 0c.13.115.249.236.363.365" fill="none" stroke="#000" stroke-linecap="round" stroke-linejoin="round" stroke-miterlimit="10" stroke-width=".25"/></g><g transform="translate(148.31 221.45)"><path d="m0 0c-.056.131-.116.261-.182.388" fill="none" stroke="#000" stroke-linecap="round" stroke-linejoin="round" stroke-miterlimit="10" stroke-width=".25"/></g><g transform="translate(148.88 222.02)"><path d="m0 0v-2e-3" fill="none" stroke="#000" stroke-linecap="round" stroke-linejoin="round" stroke-miterlimit="10" stroke-width=".25"/></g><g transform="translate(148.49 222.2)"><path d="m0 0c.13-.061.259-.123.392-.178" fill="none" stroke="#000" stroke-linecap="round" stroke-linejoin="round" stroke-miterlimit="10" stroke-width=".25"/></g><g transform="translate(149.59 223.25)"><path d="m0 0 .003.001" fill="none" stroke="#000" stroke-linecap="round" stroke-linejoin="round" stroke-miterlimit="10" stroke-width=".25"/></g><g transform="translate(149.24 223.5)"><path d="m0 0c.052.162.097.328.131.497" fill="none" stroke="#000" stroke-linecap="round" stroke-linejoin="round" stroke-miterlimit="10" stroke-width=".25"/></g><g transform="translate(149.59 223.25)"><path d="m0 0c-.114.084-.23.168-.35.25" fill="none" stroke="#000" stroke-linecap="round" stroke-linejoin="round" stroke-miterlimit="10" stroke-width=".25"/></g><g transform="translate(149.8 224.04)"><path d="m0 0v-3e-3" fill="none" stroke="#000" stroke-linecap="round" stroke-linejoin="round" stroke-miterlimit="10" stroke-width=".25"/></g><g transform="translate(149.37 224)"><path d="m0 0c.145.01.288.023.428.041" fill="none" stroke="#000" stroke-linecap="round" stroke-linejoin="round" stroke-miterlimit="10" stroke-width=".25"/></g><g transform="translate(149.8 225.46)"><path d="m0 0v3e-3" fill="none" stroke="#000" stroke-linecap="round" stroke-linejoin="round" stroke-miterlimit="10" stroke-width=".25"/></g><g transform="translate(149.37 225.5)"><path d="m0 0c-.034.169-.079.335-.131.498" fill="none" stroke="#000" stroke-linecap="round" stroke-linejoin="round" stroke-miterlimit="10" stroke-width=".25"/></g><g transform="translate(149.8 225.46)"><path d="m0 0c-.14.016-.283.03-.428.04" fill="none" stroke="#000" stroke-linecap="round" stroke-linejoin="round" stroke-miterlimit="10" stroke-width=".25"/></g><g transform="translate(149.24 226)"><path d="m0 0c.119.081.235.165.35.249" fill="none" stroke="#000" stroke-linecap="round" stroke-linejoin="round" stroke-miterlimit="10" stroke-width=".25"/></g><g transform="translate(142.66 222.2)"><path d="m0 0c.113-.128.232-.25.365-.365" fill="none" stroke="#000" stroke-linecap="round" stroke-linejoin="round" stroke-miterlimit="10" stroke-width=".25"/></g><g transform="translate(142.27 222.02)"><path d="m0 0c.131.056.263.118.392.178" fill="none" stroke="#000" stroke-linecap="round" stroke-linejoin="round" stroke-miterlimit="10" stroke-width=".25"/></g><g transform="translate(142.85 221.45)"><path d="m0 0h-4e-3" fill="none" stroke="#000" stroke-linecap="round" stroke-linejoin="round" stroke-miterlimit="10" stroke-width=".25"/></g><g transform="translate(143.03 221.83)"><path d="m0 0c-.063-.127-.126-.257-.181-.388" fill="none" stroke="#000" stroke-linecap="round" stroke-linejoin="round" stroke-miterlimit="10" stroke-width=".25"/></g><g transform="translate(144.08 220.73)"><path d="m0 0v-2e-3" fill="none" stroke="#000" stroke-linecap="round" stroke-linejoin="round" stroke-miterlimit="10" stroke-width=".25"/></g><g transform="translate(144.33 221.08)"><path d="m0 0c.164-.056.33-.1.5-.134" fill="none" stroke="#000" stroke-linecap="round" stroke-linejoin="round" stroke-miterlimit="10" stroke-width=".25"/></g><g transform="translate(144.08 220.73)"><path d="m0 0c.084.116.168.233.248.352" fill="none" stroke="#000" stroke-linecap="round" stroke-linejoin="round" stroke-miterlimit="10" stroke-width=".25"/></g><g transform="translate(144.87 220.52)"><path d="m0 0-.003-.002" fill="none" stroke="#000" stroke-linecap="round" stroke-linejoin="round" stroke-miterlimit="10" stroke-width=".25"/></g><g transform="translate(144.83 220.95)"><path d="m0 0c.01-.142.022-.285.038-.427" fill="none" stroke="#000" stroke-linecap="round" stroke-linejoin="round" stroke-miterlimit="10" stroke-width=".25"/></g><g transform="translate(148.13 221.83)"><path d="m0 0c-.507-.093-.964-.358-1.302-.75" fill="none" stroke="#000" stroke-linecap="round" stroke-linejoin="round" stroke-miterlimit="10" stroke-width=".25"/></g><g transform="translate(146.33 220.95)"><path d="m0 0c-.482.172-1.014.172-1.498 0" fill="none" stroke="#000" stroke-linecap="round" stroke-linejoin="round" stroke-miterlimit="10" stroke-width=".25"/></g><g transform="translate(144.33 221.08)"><path d="m0 0c-.333.391-.791.656-1.298.75" fill="none" stroke="#000" stroke-linecap="round" stroke-linejoin="round" stroke-miterlimit="10" stroke-width=".25"/></g><g transform="translate(142.66 222.2)"><path d="m0 0c-.097.507-.36.968-.752 1.302" fill="none" stroke="#000" stroke-linecap="round" stroke-linejoin="round" stroke-miterlimit="10" stroke-width=".25"/></g><g transform="translate(141.78 224)"><path d="m0 0c.172.487.172 1.016 0 1.501" fill="none" stroke="#000" stroke-linecap="round" stroke-linejoin="round" stroke-miterlimit="10" stroke-width=".25"/></g><g transform="translate(141.91 226)"><path d="m0 0c.391.335.655.795.752 1.301" fill="none" stroke="#000" stroke-linecap="round" stroke-linejoin="round" stroke-miterlimit="10" stroke-width=".25"/></g><g transform="translate(143.03 227.66)"><path d="m0 0c.507.095.965.36 1.298.752" fill="none" stroke="#000" stroke-linecap="round" stroke-linejoin="round" stroke-miterlimit="10" stroke-width=".25"/></g><g transform="translate(144.83 228.55)"><path d="m0 0c.484-.171 1.016-.171 1.498 0" fill="none" stroke="#000" stroke-linecap="round" stroke-linejoin="round" stroke-miterlimit="10" stroke-width=".25"/></g><g transform="translate(146.83 228.41)"><path d="m0 0c.338-.392.795-.657 1.298-.752" fill="none" stroke="#000" stroke-linecap="round" stroke-linejoin="round" stroke-miterlimit="10" stroke-width=".25"/></g><g transform="translate(148.49 227.3)"><path d="m0 0c.097-.506.358-.966.752-1.3" fill="none" stroke="#000" stroke-linecap="round" stroke-linejoin="round" stroke-miterlimit="10" stroke-width=".25"/></g><g transform="translate(149.37 225.5)"><path d="m0 0c-.169-.486-.169-1.015 0-1.501" fill="none" stroke="#000" stroke-linecap="round" stroke-linejoin="round" stroke-miterlimit="10" stroke-width=".25"/></g><g transform="translate(149.24 223.5)"><path d="m0 0c-.394-.334-.655-.795-.752-1.302" fill="none" stroke="#000" stroke-linecap="round" stroke-linejoin="round" stroke-miterlimit="10" stroke-width=".25"/></g></g><g clip-path="url(#a)"><g transform="translate(115.12 238.56)" fill="none" stroke-linecap="round"><path d="m0 0h-2.92c-.551 0-1 .45-1 1v21.612" stroke="#fff" stroke-width="1.5"/><path d="m0 0h-2.92c-.551 0-1 .45-1 1v21.612" stroke="#000" stroke-width=".5"/></g><g transform="translate(175.58 238.56)" fill="none" stroke-linecap="round"><path d="m0 0h2.92c.551 0 1 .45 1 1v21.612" stroke="#fff" stroke-width="1.5"/><path d="m0 0h2.92c.551 0 1 .45 1 1v21.612" stroke="#000" stroke-width=".5"/></g><g transform="translate(148 224.29)" fill="none" stroke-linecap="round"><path d="m0 0h7.25c.551 0 1 .45 1 1v35.883" stroke="#fff" stroke-width="1.5"/><path d="m0 0h7.25c.551 0 1 .45 1 1v35.883" stroke="#000" stroke-width=".5"/></g><path d="m107.26 261.23h7.776v7.777h-7.776zm3.314 5.915c.136.068.255.187.366.349h.485v-4.828h-.545v3.961h-.807v.399c.229.026.391.068.501.119"/><path d="m175.51 261.23h7.776v7.777h-7.776zm3.314 5.915c.136.068.255.187.366.349h.485v-4.828h-.545v3.961h-.807v.399c.229.026.391.068.501.119"/><path d="m152.26 261.2h7.776v7.777h-7.776zm4.062 6.238c.332 0 .612-.128.834-.382.22-.247.33-.544.33-.876 0-.408-.135-.756-.399-1.054-.433-.459-.74-.773-.918-.952-.433-.442-.688-.782-.773-1.011h2.133v-.527h-2.771c0 .519.264 1.055.79 1.598.383.365.672.629.867.807.4.383.596.74.596 1.071 0 .221-.068.425-.196.605-.128.177-.306.263-.519.263-.347 0-.611-.145-.781-.434-.086-.221-.17-.441-.256-.655l-.475.127c.272.944.782 1.42 1.538 1.42"/></g></g></g><path transform="scale(.26458)" d="m4.852 5.7955v-2.6507h-0.53912c-0.5129 0-0.53912-0.010753-0.53912-0.22117 0-0.18303 0.063762-0.23834 0.36974-0.32073 0.20336-0.054758 0.46801-0.19783 0.58813-0.31795 0.13273-0.13273 0.32252-0.21839 0.48386-0.21839h0.26547v6.3795h-0.62897z" fill="#fff" fill-rule="evenodd" stroke-linecap="round" stroke-linejoin="round" stroke-width=".089853" style="paint-order:markers fill stroke"/><path transform="scale(.26458)" d="m63.393 8.1541c0.14682-0.70084 0.41901-1.0926 1.5979-2.2999 1.2954-1.3266 1.4715-1.6346 1.3197-2.3078-0.13301-0.58975-0.43513-0.84415-1.0071-0.848-0.54277-0.0036609-0.94869 0.32851-1.1769 0.96308-0.14212 0.39521-0.18496 0.44041-0.38179 0.40278-0.32173-0.061502-0.33989-0.14952-0.12926-0.62639 0.63688-1.4419 2.2356-1.7491 3.0229-0.58085 0.28659 0.42527 0.34233 0.91073 0.17188 1.497-0.12504 0.43013-0.275 0.63321-1.1137 1.5083-0.92904 0.96935-1.5419 1.7159-1.5419 1.8784 0 0.042004 0.62672 0.076371 1.3927 0.076371h1.3927v0.62897h-3.6084z" fill="#fff" fill-rule="evenodd" stroke-linecap="round" stroke-linejoin="round" stroke-width=".089853" style="paint-order:markers fill stroke"/><path transform="scale(.26458)" d="m95.873 5.7955v-2.6507h-0.53912c-0.5129 0-0.53912-0.010753-0.53912-0.22117 0-0.18021 0.06348-0.23826 0.3428-0.31347 0.18854-0.050768 0.43819-0.19384 0.55478-0.31795 0.14395-0.15323 0.30788-0.22564 0.5108-0.22564h0.29882v6.3795h-0.62897z" fill="#fff" fill-rule="evenodd" stroke-linecap="round" stroke-linejoin="round" stroke-width=".089853" style="paint-order:markers fill stroke"/></svg>
