<?xml version="1.0" encoding="UTF-8"?>
<svg width="58.216mm" height="27.441mm" version="1.1" viewBox="0 0 58.216 27.441" xmlns="http://www.w3.org/2000/svg"><defs><clipPath id="clipPath1555"><path d="m288.12 185.68h165.02v77.787h-165.02z"/></clipPath></defs><g transform="matrix(.35278 0 0 -.35278 -101.65 92.94)" clip-path="url(#clipPath1555)"><g transform="translate(323.15,230.21)"><path d="m0 0c0-0.977-0.798-1.775-1.775-1.775h-30.981c-0.976 0-1.775 0.798-1.775 1.775v30.98c0 0.977 0.799 1.776 1.775 1.776h30.981c0.977 0 1.775-0.799 1.775-1.776z" fill="#fff"/><path d="m0 0c0-0.977-0.798-1.775-1.775-1.775h-30.981c-0.976 0-1.775 0.798-1.775 1.775v30.98c0 0.977 0.799 1.776 1.775 1.776h30.981c0.977 0 1.775-0.799 1.775-1.776z" fill="none" stroke="#000"/></g><g transform="translate(366.31,230.21)"><path d="m0 0c0-0.977-0.799-1.775-1.776-1.775h-30.98c-0.977 0-1.776 0.798-1.776 1.775v30.98c0 0.977 0.799 1.776 1.776 1.776h30.98c0.977 0 1.776-0.799 1.776-1.776z" fill="#fff"/><path d="m0 0c0-0.977-0.799-1.775-1.776-1.775h-30.98c-0.977 0-1.776 0.798-1.776 1.775v30.98c0 0.977 0.799 1.776 1.776 1.776h30.98c0.977 0 1.776-0.799 1.776-1.776z" fill="none" stroke="#000"/></g><g transform="translate(409.48,230.21)"><path d="m0 0c0-0.977-0.797-1.775-1.774-1.775h-30.981c-0.977 0-1.775 0.798-1.775 1.775v30.98c0 0.977 0.798 1.776 1.775 1.776h30.981c0.977 0 1.774-0.799 1.774-1.776z" fill="#fff"/><path d="m0 0c0-0.977-0.797-1.775-1.774-1.775h-30.981c-0.977 0-1.775 0.798-1.775 1.775v30.98c0 0.977 0.798 1.776 1.775 1.776h30.981c0.977 0 1.774-0.799 1.774-1.776z" fill="none" stroke="#000"/></g><g transform="translate(452.64,230.21)"><path d="m0 0c0-0.977-0.799-1.775-1.777-1.775h-30.978c-0.976 0-1.776 0.798-1.776 1.775v30.98c0 0.977 0.8 1.776 1.776 1.776h30.978c0.978 0 1.777-0.799 1.777-1.776z" fill="#fff"/><path d="m0 0c0-0.977-0.799-1.775-1.777-1.775h-30.978c-0.976 0-1.776 0.798-1.776 1.775v30.98c0 0.977 0.8 1.776 1.776 1.776h30.978c0.978 0 1.777-0.799 1.777-1.776z" fill="none" stroke="#000"/></g><g transform="translate(323.15,187.96)"><path d="m0 0c0-0.977-0.798-1.775-1.775-1.775h-30.981c-0.976 0-1.775 0.798-1.775 1.775v30.98c0 0.977 0.799 1.776 1.775 1.776h30.981c0.977 0 1.775-0.799 1.775-1.776z" fill="#fff"/><path d="m0 0c0-0.977-0.798-1.775-1.775-1.775h-30.981c-0.976 0-1.775 0.798-1.775 1.775v30.98c0 0.977 0.799 1.776 1.775 1.776h30.981c0.977 0 1.775-0.799 1.775-1.776z" fill="none" stroke="#000"/></g><g transform="translate(366.31,187.96)"><path d="m0 0c0-0.977-0.799-1.775-1.776-1.775h-30.98c-0.977 0-1.776 0.798-1.776 1.775v30.98c0 0.977 0.799 1.776 1.776 1.776h30.98c0.977 0 1.776-0.799 1.776-1.776z" fill="#fff"/><path d="m0 0c0-0.977-0.799-1.775-1.776-1.775h-30.98c-0.977 0-1.776 0.798-1.776 1.775v30.98c0 0.977 0.799 1.776 1.776 1.776h30.98c0.977 0 1.776-0.799 1.776-1.776z" fill="none" stroke="#000"/></g><g transform="translate(409.48,187.96)"><path d="m0 0c0-0.977-0.797-1.775-1.774-1.775h-30.981c-0.977 0-1.775 0.798-1.775 1.775v30.98c0 0.977 0.798 1.776 1.775 1.776h30.981c0.977 0 1.774-0.799 1.774-1.776z" fill="#fff"/><path d="m0 0c0-0.977-0.797-1.775-1.774-1.775h-30.981c-0.977 0-1.775 0.798-1.775 1.775v30.98c0 0.977 0.798 1.776 1.775 1.776h30.981c0.977 0 1.774-0.799 1.774-1.776z" fill="none" stroke="#000"/></g><g transform="translate(452.64,187.96)"><path d="m0 0c0-0.977-0.799-1.775-1.777-1.775h-30.978c-0.976 0-1.776 0.798-1.776 1.775v30.98c0 0.977 0.8 1.776 1.776 1.776h30.978c0.978 0 1.777-0.799 1.777-1.776z" fill="#fff"/><path d="m0 0c0-0.977-0.799-1.775-1.777-1.775h-30.978c-0.976 0-1.776 0.798-1.776 1.775v30.98c0 0.977 0.8 1.776 1.776 1.776h30.978c0.978 0 1.777-0.799 1.777-1.776z" fill="none" stroke="#000"/></g></g><g font-family="'Frutiger LT Std 45 Light'" font-size="2.4694px" font-weight="bold" stroke-width=".35278"><text x="-2.4354503" y="6.1875181"><tspan x="5.3186088" stroke-width=".35278">1</tspan></text><text x="43.916252" y="6.1479001"><tspan x="51.670311" stroke-width=".35278">4</tspan></text><text x="43.740906" y="21.184048"><tspan x="51.494965" stroke-width=".35278">8</tspan></text><text x="28.047201" y="21.315559"><tspan x="35.801254" stroke-width=".35278">7</tspan></text><text x="13.098727" y="21.403234"><tspan x="20.852785" stroke-width=".35278">6</tspan></text><text x="-3.208699" y="21.534744"><tspan x="4.5453591" stroke-width=".35278">5</tspan></text><text x="28.441734" y="6.2794118"><tspan x="36.195793" stroke-width=".35278">3</tspan></text><text x="13.405587" y="6.2794113"><tspan x="21.159645" stroke-width=".35278">2</tspan></text></g></svg>
