<?xml version="1.0" encoding="UTF-8"?>
<svg width="38.379mm" height="17.851mm" version="1.1" viewBox="0 0 38.379 17.851" xmlns="http://www.w3.org/2000/svg"><defs><clipPath id="b"><path d="m330.41 555.5h108.79v50.6h-108.79z"/></clipPath><clipPath id="a"><path d="m330.41 555.5h108.79v50.6h-108.79z"/></clipPath></defs><g transform="translate(-33.999 -24.987)"><g transform="translate(-8.6251 -13.279)"><path d="m42.624 56.117h38.379v-12.053h-38.379z" fill="#dcdcdc"/><g transform="matrix(.35278 0 0 -.35278 -73.936 252.08)"><g clip-path="url(#b)"><g transform="translate(421.76 573.65)"><path d="m0 0h-.564c-.087 0-.142-.028-.191-.1-.025-.035-.034-.07-.04-.11-.409-.035-.805-.112-1.199-.233h-.003c-.199-.061-.32-.162-.418-.349-.075-.15-.173-.247-.325-.32-2.434-1.151-3.747-3.834-3.159-6.464.59-2.627 2.922-4.498 5.617-4.498s5.03 1.871 5.618 4.498c.591 2.63-.724 5.313-3.159 6.464l.017-.025c-.159.073-.259.17-.326.331l-.02.014c-.092.187-.216.288-.415.349-.395.121-.789.198-1.202.233-.005.04-.014.075-.041.109v.001c-.048.073-.103.1-.19.1" fill="#fff" stroke="#000" stroke-miterlimit="10" stroke-width=".5"/></g><g transform="translate(351.56 561.86)"><path d="m0 0h-.591v-1.575h-.345v1.575h-.587v.306h1.523zm-2.844-1.121c.087-.137.23-.21.423-.218.138.005.249.051.325.14.077.09.123.205.136.344l.002.008h.341l-.002-.011c-.015-.231-.096-.417-.239-.554-.142-.136-.331-.207-.559-.21-.285.006-.509.103-.666.291-.154.185-.235.421-.236.697.001.277.082.512.236.697.157.187.381.285.665.291.219-.002.403-.06.546-.169.147-.11.23-.271.255-.476l.001-.013h-.341l-.003.01c-.026.106-.077.195-.148.261-.076.066-.179.102-.313.102-.193-.006-.336-.08-.423-.215-.089-.139-.134-.303-.132-.488-.002-.184.043-.348.132-.487m-.629-.452h-1.374v1.879h1.358v-.306h-1.012v-.468h.934v-.284h-.934v-.516h1.028zm-1.575 0h-1.287v1.881h.342v-1.576h.945zm-1.548 0h-1.375v1.879h1.357v-.306h-1.011v-.468h.937v-.284h-.937v-.516h1.029zm-1.874.086c-.143-.089-.313-.135-.503-.135h-.02c-.216 0-.401.055-.542.159-.149.109-.226.281-.235.515v.011h.343v-.009c.003-.14.048-.242.134-.302.086-.061.193-.091.323-.091h.007c.138.003.241.033.298.087.058.053.087.116.087.186-.003.069-.017.12-.046.151-.03.033-.064.057-.101.069-.065.025-.143.048-.231.071-.089.022-.198.05-.328.084-.156.047-.267.115-.327.205-.061.086-.091.182-.088.285.007.188.08.331.218.421.133.089.291.134.466.134h.006c.202 0 .373-.051.509-.152.137-.1.21-.252.214-.451v-.013h-.342l-.002.012c-.01.115-.05.198-.118.247-.069.05-.159.072-.268.072h-.017c-.077 0-.148-.014-.214-.048-.069-.035-.105-.095-.108-.185 0-.061.021-.109.059-.147.036-.038.089-.065.154-.084.02-.003.067-.017.138-.034l.108-.029c.141-.037.234-.063.296-.081.123-.04.217-.107.276-.198.06-.091.091-.19.091-.291-.009-.211-.088-.366-.237-.459m10.197 2.274h-13.317c-.133 0-.187-.055-.187-.187v-2.434c0-.133.054-.187.187-.187h13.317c.132 0 .187.054.187.187v2.434c0 .132-.055.187-.187.187"/></g><g transform="translate(424.73 578.14)"><path d="m0 0h1.58v.354h-1.18v1.968h-.4z"/></g><g transform="translate(422.69 578.14)"><path d="m0 0h1.687v.354h-1.286v.673h1.17v.327h-1.17v.614h1.262v.354h-1.663z"/></g><g transform="translate(421.21 578.14)"><path d="m0 0h.453l.795 2.323h-.415l-.594-1.839h-.009l-.582 1.839h-.423z"/></g><g transform="translate(418.57 578.14)"><path d="m0 0h1.688v.354h-1.288v.673h1.17v.327h-1.17v.614h1.266v.354h-1.666z"/></g><g transform="translate(416.71 578.14)"><path d="m0 0h1.579v.354h-1.179v1.968h-.4z"/></g><g transform="translate(396.53 560.51)"><path d="m0 0v1.451l1.812-.724zm-1.113 1.357h-.591v-1.584h-.347v1.584h-.588v.297h1.526zm-1.68-1.584-.002.008-.173.485h-.721l-.175-.493h-.361l.006.017.715 1.864h.36l.003-.007.721-1.874zm-1.65 0h-1.376v1.881h1.358v-.297h-1.012v-.469h.937v-.285h-.937v-.531h1.03zm-1.827.152c-.111-.098-.287-.147-.527-.152h-.857v1.881h.908c.167 0 .304-.039.403-.115.1-.078.153-.197.155-.354 0-.098-.024-.182-.072-.251-.041-.062-.101-.113-.177-.15.104-.027.185-.082.241-.161.06-.084.091-.193.091-.323.001-.152-.055-.277-.165-.375m9.825 2.211h-13.317c-.133 0-.187-.055-.187-.188v-2.433c0-.133.054-.188.187-.188h13.317c.133 0 .187.055.187.188v2.433c0 .133-.054.188-.187.188"/></g><g transform="translate(392.94 561.05)"><path d="m0 0h.531l-.263.764z"/></g><g transform="translate(389.78 561.13)"><path d="m0 0h-.56v-.558h.56c.095.001.168.026.22.074.051.048.077.118.078.21-.001.087-.027.156-.078.202-.052.048-.125.072-.22.072"/></g><g transform="translate(389.92 561.45)"><path d="m0 0c.046.041.072.104.072.185 0 .089-.022.153-.063.19-.044.037-.106.055-.188.055h-.517v-.494h.509c.078 0 .139.021.187.064"/></g><g transform="translate(344.67 585.65)"><path d="m0 0v.564h-2.557v-3.714h.642v1.643h1.68v.523h-1.68v.984z"/></g><g transform="translate(346.71 584.91)"><path d="m0 0-.843 1.306h-.776l1.23-1.782-1.318-1.933h.744l.942 1.43.927-1.43h.79l-1.317 1.933 1.229 1.782h-.729z"/></g><g transform="translate(350.48 586.14)"><path d="m0 0h-.477c-.055-.229-.161-.362-.376-.463-.222-.102-.439-.146-.683-.136v-.469h.895v-2.577h.641z"/></g><g transform="translate(385.14 567.5)"><path d="m0 0h-6.833c-.1 0-.14-.041-.14-.142v-.092c0-.099.04-.141.14-.141h6.833c.099 0 .14.042.14.141v.092c0 .101-.041.142-.14.142"/></g><g transform="translate(361.74 567.5)"><path d="m0 0h-6.833c-.099 0-.14-.041-.14-.142v-.092c0-.099.041-.141.14-.141h6.833c.098 0 .14.042.14.141v.092c0 .101-.042.142-.14.142"/></g><g transform="translate(421.7 576.26)"><path d="m0 0v-.676c2.021-.123 3.929-.98 5.358-2.411.288.286.577.575.868.864-1.64 1.436-3.745 2.227-5.923 2.227-.101 0-.202-.003-.303-.004"/></g><g transform="translate(415.78 573.31)"><path d="m0 0c1.487 1.414 3.447 2.226 5.499 2.278v.666c-2.217-.073-4.323-.983-5.897-2.547.132-.132.265-.264.398-.397"/></g><g transform="translate(415.47 573.01)"><path d="m0 0c-.13.13-.26.261-.39.391-1.469-1.61-2.285-3.711-2.291-5.891h.404c.051 2.053.861 4.012 2.277 5.5"/></g><g transform="translate(431.1 567.51)"><path d="m0 0c-.089 2.376-1.115 4.618-2.856 6.238-.297-.294-.591-.591-.885-.884 1.329-1.474 2.087-3.371 2.136-5.354z"/></g><g transform="translate(429.5 567.08)"><path d="m0 0c-.075-2.829-1.588-5.425-4.01-6.888-.057-.036-.08-.077-.083-.145 0-.031.009-.059.023-.085l.698-1.207c.037-.061.08-.086.149-.087.03 0 .055.007.081.021 2.934 1.606 4.759 4.686 4.759 8.03-.003.121-.003.242-.006.361z"/></g><g transform="translate(417.12 560.24)"><path d="m0 0c-2.375 1.473-3.854 4.045-3.923 6.841h-.394c.137-2.907 1.706-5.557 4.19-7.073l-.006.003c-.152-.267-.305-.533-.461-.797-.023-.042-.031-.082-.031-.13 0-.182.074-.257.253-.257.106.002.17.038.225.129.626 1.085 1.251 2.167 1.876 3.253-.147.083-.296.17-.444.256z"/></g><g transform="translate(434.24 584.63)"><path d="m0 0h-81.461c-.101 0-.141-.041-.141-.142v-.091c0-.1.04-.142.141-.142h81.461c.415.002.75-.334.75-.748v-15.267c0-.412-.338-.748-.75-.748h-2.012c-.097 0-.14-.042-.14-.139v-.095c0-.099.043-.14.14-.14h2.012c.62 0 1.124.503 1.124 1.122v15.267c0 .621-.504 1.123-1.124 1.123"/></g><g transform="translate(411.73 567.5)"><path d="m0 0h-10.018c-.099 0-.14-.041-.14-.142v-.092c0-.099.041-.141.14-.141h10.018c.098 0 .138.042.138.141v.092c0 .101-.04.142-.138.142"/></g><g transform="translate(339.82 584.63)"><path d="m0 0h-3.489c-.622 0-1.126-.502-1.126-1.123v-15.267c0-.619.504-1.122 1.126-1.122h2.01c.1 0 .14.041.14.14v.095c0 .097-.04.139-.14.139h-2.01c-.415 0-.749.336-.749.748v15.267c0 .414.334.75.749.75h3.489c.1 0 .14.041.14.14v.093c0 .099-.04.14-.14.14"/></g><g transform="translate(369.14 561.28)"><path d="m0 0h-.561v-.558h.561c.097 0 .168.025.221.074.051.048.077.118.079.209-.002.087-.028.159-.079.203-.051.048-.124.072-.221.072"/></g><g transform="translate(374.79 562.02)"><path d="m0 0h-.591v-1.587h-.35v1.587h-.586v.299h1.527zm-1.683-1.587-.003.009-.171.484h-.727l-.173-.493h-.362l.006.018.717 1.868h.363l.002-.008.722-1.878zm-1.653 0h-1.381v1.886h1.361v-.299h-1.012v-.468h.938v-.287h-.938v-.533h1.032zm-1.832.153c-.109-.098-.287-.15-.527-.153h-.86v1.886h.91c.168 0 .304-.039.405-.115.101-.079.153-.2.154-.357 0-.098-.024-.181-.071-.251-.043-.061-.102-.113-.178-.148.106-.029.186-.083.242-.164.06-.084.091-.194.091-.323.001-.153-.054-.278-.166-.375m-2.688.076-1.816.725 1.816.727zm9.875 2.138h-13.345c-.134 0-.188-.054-.188-.187v-2.439c0-.133.054-.187.188-.187h13.345c.133 0 .188.054.188.187v2.439c0 .133-.055.187-.188.187"/></g><g transform="translate(369.28 561.6)"><path d="m0 0c.048.043.071.104.072.186-.001.089-.021.154-.065.191-.042.035-.105.055-.187.055h-.519v-.495h.512c.078 0 .14.021.187.063"/></g><g transform="translate(372.3 561.2)"><path d="m0 0h.533l-.266.765z"/></g><g transform="translate(339.44 569.71)"><path d="m0 0v-4.772c0-.597.483-1.079 1.075-1.079h12.235c.596 0 1.076.482 1.076 1.079v4.772c0 .595-.48 1.078-1.076 1.078h-12.235c-.592 0-1.075-.483-1.075-1.078" fill="#fff"/><path d="m0 0v-4.772c0-.597.483-1.079 1.075-1.079h12.235c.596 0 1.076.482 1.076 1.079v4.772c0 .595-.48 1.078-1.076 1.078h-12.235c-.592 0-1.075-.483-1.075-1.078z" fill="none" stroke="#000" stroke-miterlimit="10" stroke-width=".5"/></g><g transform="translate(353.23 564.93)"><path d="m0 0c0-.266-.216-.479-.48-.479h-12.234c-.264 0-.477.213-.477.479v4.772c0 .263.213.478.477.478l12.234.001c.264-.001.48-.213.48-.479z" fill="none" stroke="#000" stroke-miterlimit="10" stroke-width=".25"/></g><g transform="translate(362.84 569.71)"><path d="m0 0v-4.772c0-.597.484-1.079 1.077-1.079h12.234c.596 0 1.076.482 1.076 1.079v4.772c0 .595-.48 1.078-1.076 1.078h-12.234c-.593 0-1.077-.483-1.077-1.078" fill="#fff"/><path d="m0 0v-4.772c0-.597.484-1.079 1.077-1.079h12.234c.596 0 1.076.482 1.076 1.079v4.772c0 .595-.48 1.078-1.076 1.078h-12.234c-.593 0-1.077-.483-1.077-1.078z" fill="none" stroke="#000" stroke-miterlimit="10" stroke-width=".5"/></g><g transform="translate(376.63 564.93)"><path d="m0 0c0-.266-.213-.479-.479-.479h-12.233c-.263 0-.477.213-.477.479v4.772c0 .263.214.478.477.478l12.233.001c.266-.001.479-.213.479-.479z" fill="none" stroke="#000" stroke-miterlimit="10" stroke-width=".25"/></g><g transform="translate(386.37 569.71)"><path d="m0 0v-4.772c0-.597.484-1.079 1.078-1.079h12.235c.594 0 1.076.482 1.076 1.079v4.772c0 .595-.482 1.078-1.076 1.078h-12.235c-.594 0-1.078-.483-1.078-1.078" fill="#fff"/><path d="m0 0v-4.772c0-.597.484-1.079 1.078-1.079h12.235c.594 0 1.076.482 1.076 1.079v4.772c0 .595-.482 1.078-1.076 1.078h-12.235c-.594 0-1.078-.483-1.078-1.078z" fill="none" stroke="#000" stroke-miterlimit="10" stroke-width=".5"/></g><g transform="translate(400.16 564.93)"><path d="m0 0c0-.266-.215-.479-.479-.479h-12.234c-.264 0-.477.213-.477.479v4.772c0 .263.213.478.477.478l12.234.001c.264-.001.479-.213.479-.479z" fill="none" stroke="#000" stroke-miterlimit="10" stroke-width=".25"/></g><g transform="translate(423.64 572.86)"><path d="m0 0c.078-.15.179-.247.326-.32" fill="none" stroke="#000" stroke-linecap="round" stroke-linejoin="round" stroke-width=".25"/></g><g transform="translate(417.36 568.66)"><path d="m0 0c.564.427.833.891.919 1.593" fill="none" stroke="#000" stroke-linecap="round" stroke-linejoin="round" stroke-width=".25"/></g><g transform="translate(421.79 571.36)"><path d="m0 0h-.564" fill="none" stroke="#000" stroke-linecap="round" stroke-linejoin="round" stroke-width=".25"/></g><g transform="translate(421.23 571.36)"><path d="m0 0h-.23" fill="none" stroke="#000" stroke-linecap="round" stroke-linejoin="round" stroke-width=".25"/></g><g transform="translate(421.79 571.36)"><path d="m0 0h.234" fill="none" stroke="#000" stroke-linecap="round" stroke-linejoin="round" stroke-width=".25"/></g><g transform="translate(421 567.33)"><path d="m0 0c0-.282.23-.513.513-.513.282 0 .516.231.516.513" fill="none" stroke="#000" stroke-linecap="round" stroke-linejoin="round" stroke-width=".25"/></g><g transform="translate(421 572.57)"><path d="m0 0v-1.21" fill="none" stroke="#000" stroke-linecap="round" stroke-linejoin="round" stroke-width=".25"/></g><g transform="translate(421 571.36)"><path d="m0 0v-4.03" fill="none" stroke="#000" stroke-linecap="round" stroke-linejoin="round" stroke-width=".25"/></g><g transform="translate(421 572.71)" fill="none" stroke="#000" stroke-linecap="round" stroke-linejoin="round" stroke-width=".25"><path d="m0 0v.406"/><path d="m0 0v-.051"/></g><g transform="translate(421.23 573.65)"><path d="m0 0c-.087 0-.142-.028-.19-.1" fill="none" stroke="#000" stroke-linecap="round" stroke-linejoin="round" stroke-width=".25"/></g><g transform="translate(421.79 573.65)"><path d="m0 0h-.564" fill="none" stroke="#000" stroke-linecap="round" stroke-linejoin="round" stroke-width=".25"/></g><g transform="translate(421.98 573.55)"><path d="m0 0c-.049.072-.104.1-.19.1" fill="none" stroke="#000" stroke-linecap="round" stroke-linejoin="round" stroke-width=".25"/></g><g transform="translate(422.02 572.57)"><path d="m0 0v-1.21" fill="none" stroke="#000" stroke-linecap="round" stroke-linejoin="round" stroke-width=".25"/></g><g transform="translate(422.02 571.36)"><path d="m0 0v-4.03" fill="none" stroke="#000" stroke-linecap="round" stroke-linejoin="round" stroke-width=".25"/></g><g transform="translate(422.02 572.71)" fill="none" stroke="#000" stroke-linecap="round" stroke-linejoin="round" stroke-width=".25"><path d="m0 0v.406"/><path d="m0 0v-.051"/></g><g transform="translate(418.35 571.12)"><path d="m0 0c.069-.192.15-.378.233-.563" fill="none" stroke="#000" stroke-linecap="round" stroke-linejoin="round" stroke-width=".25"/></g><g transform="translate(416.88 569.03)"><path d="m0 0c.158-.13.32-.251.487-.366" fill="none" stroke="#000" stroke-linecap="round" stroke-linejoin="round" stroke-width=".25"/></g><g transform="translate(418.28 570.26)"><path d="m0 0c-.184.083-.371.165-.559.234" fill="none" stroke="#000" stroke-linecap="round" stroke-linejoin="round" stroke-width=".25"/></g><g transform="translate(416.65 566.49)"><path d="m0 0c.199-.033.4-.058.603-.076" fill="none" stroke="#000" stroke-linecap="round" stroke-linejoin="round" stroke-width=".25"/></g><g transform="translate(417.25 568.25)"><path d="m0 0c-.202-.018-.403-.046-.6-.076" fill="none" stroke="#000" stroke-linecap="round" stroke-linejoin="round" stroke-width=".25"/></g><g transform="translate(417.72 564.17)"><path d="m0 0c.188.071.375.149.559.233" fill="none" stroke="#000" stroke-linecap="round" stroke-linejoin="round" stroke-width=".25"/></g><g transform="translate(417.36 566)"><path d="m0 0c-.167-.115-.329-.239-.487-.363" fill="none" stroke="#000" stroke-linecap="round" stroke-linejoin="round" stroke-width=".25"/></g><g transform="translate(419.81 562.7)"><path d="m0 0c.124.155.245.315.366.481" fill="none" stroke="#000" stroke-linecap="round" stroke-linejoin="round" stroke-width=".25"/></g><g transform="translate(418.58 564.1)"><path d="m0 0c-.083-.185-.164-.374-.233-.56" fill="none" stroke="#000" stroke-linecap="round" stroke-linejoin="round" stroke-width=".25"/></g><g transform="translate(422.35 562.47)"><path d="m0 0c.032.199.058.397.078.603" fill="none" stroke="#000" stroke-linecap="round" stroke-linejoin="round" stroke-width=".25"/></g><g transform="translate(420.59 563.08)"><path d="m0 0c.017-.205.043-.403.074-.603" fill="none" stroke="#000" stroke-linecap="round" stroke-linejoin="round" stroke-width=".25"/></g><g transform="translate(424.67 563.54)"><path d="m0 0c-.072.186-.149.375-.236.56" fill="none" stroke="#000" stroke-linecap="round" stroke-linejoin="round" stroke-width=".25"/></g><g transform="translate(422.84 563.18)"><path d="m0 0c.115-.166.233-.326.366-.481" fill="none" stroke="#000" stroke-linecap="round" stroke-linejoin="round" stroke-width=".25"/></g><g transform="translate(426.14 565.63)"><path d="m0 0c-.158.124-.316.248-.483.363" fill="none" stroke="#000" stroke-linecap="round" stroke-linejoin="round" stroke-width=".25"/></g><g transform="translate(424.74 564.4)"><path d="m0 0c.185-.084.369-.162.56-.233" fill="none" stroke="#000" stroke-linecap="round" stroke-linejoin="round" stroke-width=".25"/></g><g transform="translate(426.37 568.18)"><path d="m0 0c-.199.03-.401.059-.6.076" fill="none" stroke="#000" stroke-linecap="round" stroke-linejoin="round" stroke-width=".25"/></g><g transform="translate(425.77 566.41)"><path d="m0 0c.198.019.4.043.6.076" fill="none" stroke="#000" stroke-linecap="round" stroke-linejoin="round" stroke-width=".25"/></g><g transform="translate(424.43 570.56)"><path d="m0 0c.087.185.164.37.236.563" fill="none" stroke="#000" stroke-linecap="round" stroke-linejoin="round" stroke-width=".25"/></g><g transform="translate(422.7 571.69)"><path d="m0 0c.421-.708.914-1.03 1.732-1.132" fill="none" stroke="#000" stroke-linecap="round" stroke-linejoin="round" stroke-width=".25"/></g><g transform="translate(424.74 570.26)"><path d="m0 0c-.098.104-.196.207-.303.301" fill="none" stroke="#000" stroke-linecap="round" stroke-linejoin="round" stroke-width=".25"/></g><g fill="none" stroke="#000" stroke-linecap="round" stroke-linejoin="round" stroke-width=".25"><g transform="translate(425.77 568.25)"><path d="m0 0c-.032.139-.069.275-.112.412"/><path d="m0 0c-.28-.651-.28-1.19 0-1.842"/></g><g transform="translate(425.66 566)"><path d="m0 0c.043.136.08.273.112.412"/><path d="m0 0c-.565-.424-.833-.893-.92-1.594"/></g><g transform="translate(424.43 564.1)"><path d="m0 0c.106.095.208.194.303.3"/><path d="m0 0c-.7-.088-1.167-.356-1.591-.921"/></g><g transform="translate(422.43 563.08)"><path d="m0 0c.138.028.273.063.412.108"/><path d="m0 0c-.651.273-1.19.273-1.842 0"/></g><g transform="translate(420.18 563.18)"><path d="m0 0c.132-.045.271-.08.409-.108"/><path d="m0 0c-.427.564-.896.833-1.598.921"/></g><g transform="translate(418.28 564.4)"><path d="m0 0c.093-.105.196-.205.3-.3"/><path d="m0 0c-.086.701-.354 1.17-.919 1.594"/></g></g><g transform="translate(417.25 566.41)"><path d="m0 0c.031-.139.063-.276.112-.412" fill="none" stroke="#000" stroke-linecap="round" stroke-linejoin="round" stroke-width=".25"/></g><g transform="translate(417.36 568.66)"><path d="m0 0c-.049-.137-.081-.273-.112-.412" fill="none" stroke="#000" stroke-linecap="round" stroke-linejoin="round" stroke-width=".25"/></g><g transform="translate(418.58 570.56)" fill="none" stroke="#000" stroke-linecap="round" stroke-linejoin="round" stroke-width=".25"><path d="m0 0c-.104-.094-.207-.196-.3-.301"/><path d="m0 0c.825.104 1.531.627 1.868 1.384"/></g><g transform="translate(424.74 570.26)"><path d="m0 0c.087-.702.354-1.166.92-1.593" fill="none" stroke="#000" stroke-linecap="round" stroke-linejoin="round" stroke-width=".25"/></g><g transform="translate(425.3 570.49)"><path d="m0 0c-.19-.069-.375-.151-.56-.234" fill="none" stroke="#000" stroke-linecap="round" stroke-linejoin="round" stroke-width=".25"/></g><g transform="translate(425.66 568.66)"><path d="m0 0c.167.115.325.236.483.366" fill="none" stroke="#000" stroke-linecap="round" stroke-linejoin="round" stroke-width=".25"/></g><g transform="translate(425.85 570.86)"><path d="m0 0-.386-.241-.164-.127" fill="none" stroke="#000" stroke-linecap="round" stroke-linejoin="round" stroke-width=".25"/></g><g transform="translate(426.73 569.32)"><path d="m0 0-.397-.214-.197-.078" fill="none" stroke="#000" stroke-linecap="round" stroke-linejoin="round" stroke-width=".25"/></g><g transform="translate(427.03 568.22)"><path d="m0 0-.452-.018-.207-.025" fill="none" stroke="#000" stroke-linecap="round" stroke-linejoin="round" stroke-width=".25"/></g><g transform="translate(427.03 566.44)"><path d="m0 0-.452.018-.207.027" fill="none" stroke="#000" stroke-linecap="round" stroke-linejoin="round" stroke-width=".25"/></g><g transform="translate(426.73 565.34)"><path d="m0 0-.397.212-.197.082" fill="none" stroke="#000" stroke-linecap="round" stroke-linejoin="round" stroke-width=".25"/></g><g transform="translate(425.85 563.8)"><path d="m0 0-.386.241-.164.127" fill="none" stroke="#000" stroke-linecap="round" stroke-linejoin="round" stroke-width=".25"/></g><g transform="translate(425.04 562.99)"><path d="m0 0-.239.387-.127.161" fill="none" stroke="#000" stroke-linecap="round" stroke-linejoin="round" stroke-width=".25"/></g><g transform="translate(423.5 562.11)"><path d="m0 0-.214.4-.074.196" fill="none" stroke="#000" stroke-linecap="round" stroke-linejoin="round" stroke-width=".25"/></g><g transform="translate(422.4 561.81)"><path d="m0 0-.017.456-.026.207" fill="none" stroke="#000" stroke-linecap="round" stroke-linejoin="round" stroke-width=".25"/></g><g transform="translate(420.62 561.81)"><path d="m0 0 .018.456.025.207" fill="none" stroke="#000" stroke-linecap="round" stroke-linejoin="round" stroke-width=".25"/></g><g transform="translate(419.51 562.11)"><path d="m0 0 .216.4.084.196" fill="none" stroke="#000" stroke-linecap="round" stroke-linejoin="round" stroke-width=".25"/></g><g transform="translate(417.98 562.99)"><path d="m0 0 .241.387.127.161" fill="none" stroke="#000" stroke-linecap="round" stroke-linejoin="round" stroke-width=".25"/></g><g transform="translate(417.17 563.8)"><path d="m0 0 .387.241.164.127" fill="none" stroke="#000" stroke-linecap="round" stroke-linejoin="round" stroke-width=".25"/></g><g transform="translate(416.29 565.34)"><path d="m0 0 .4.212.191.082" fill="none" stroke="#000" stroke-linecap="round" stroke-linejoin="round" stroke-width=".25"/></g><g transform="translate(415.99 566.44)"><path d="m0 0 .449.018.211.027" fill="none" stroke="#000" stroke-linecap="round" stroke-linejoin="round" stroke-width=".25"/></g><g transform="translate(415.99 568.22)"><path d="m0 0 .449-.018.211-.025" fill="none" stroke="#000" stroke-linecap="round" stroke-linejoin="round" stroke-width=".25"/></g><g transform="translate(416.29 569.32)"><path d="m0 0 .4-.214.191-.078" fill="none" stroke="#000" stroke-linecap="round" stroke-linejoin="round" stroke-width=".25"/></g><g transform="translate(417.17 570.86)"><path d="m0 0 .387-.241.164-.127" fill="none" stroke="#000" stroke-linecap="round" stroke-linejoin="round" stroke-width=".25"/></g><g transform="translate(422.57 571.94)" fill="none" stroke="#000" stroke-linecap="round" stroke-linejoin="round" stroke-width=".25"><path d="m0 0c.038-.087.081-.17.127-.252"/><path d="m0 0 .52.239"/><path d="m0 0c-.028.033-.058.049-.101.055"/></g><g transform="translate(422.02 572.57)"><path d="m0 0c0 .029-.003.057-.003.087" fill="none" stroke="#000" stroke-linecap="round" stroke-linejoin="round" stroke-width=".25"/></g><g transform="translate(422.47 572)"><path d="m0 0c-.144.023-.294.037-.443.049" fill="none" stroke="#000" stroke-linecap="round" stroke-linejoin="round" stroke-width=".25"/></g><g transform="translate(421 572.04)"><path d="m0 0c-.15-.012-.297-.028-.447-.049" fill="none" stroke="#000" stroke-linecap="round" stroke-linejoin="round" stroke-width=".25"/></g><g transform="translate(421 572.66)"><path d="m0 0v-.085" fill="none" stroke="#000" stroke-linecap="round" stroke-linejoin="round" stroke-width=".25"/></g><g transform="translate(420.55 572)"><path d="m0 0c-.043-.006-.074-.021-.098-.052" fill="none" stroke="#000" stroke-linecap="round" stroke-linejoin="round" stroke-width=".25"/></g><g transform="translate(420.45 571.94)"><path d="m0 0-.519.239" fill="none" stroke="#000" stroke-linecap="round" stroke-linejoin="round" stroke-width=".25"/></g><g transform="translate(421 572.66)"><path d="m0 0v-7e-3" fill="none" stroke="#000" stroke-linecap="round" stroke-linejoin="round" stroke-width=".25"/></g><g transform="translate(421 573.12)"><path d="m0 0v-2e-3" fill="none" stroke="#000" stroke-linecap="round" stroke-linejoin="round" stroke-width=".25"/></g><g transform="translate(421 573.44)"><path d="m0 0v-.315" fill="none" stroke="#000" stroke-linecap="round" stroke-linejoin="round" stroke-width=".25"/></g><g transform="translate(422.02 573.44)"><path d="m0 0 .003-.315" fill="none" stroke="#000" stroke-linecap="round" stroke-linejoin="round" stroke-width=".25"/></g><g transform="translate(422.02 573.12)"><path d="m0 0v-2e-3" fill="none" stroke="#000" stroke-linecap="round" stroke-linejoin="round" stroke-width=".25"/></g><g transform="translate(417.98 571.67)"><path d="m0 0 .241-.387.127-.161" fill="none" stroke="#000" stroke-linecap="round" stroke-linejoin="round" stroke-width=".25"/></g><g transform="translate(419.93 572.18)"><path d="m0 0-.023.213-.089.209-.157.2" fill="none" stroke="#000" stroke-linecap="round" stroke-linejoin="round" stroke-width=".25"/></g><g transform="translate(423.09 572.18)"><path d="m0 0 .02.213.089.209.156.2" fill="none" stroke="#000" stroke-linecap="round" stroke-linejoin="round" stroke-width=".25"/></g><g transform="translate(425.04 571.67)"><path d="m0 0-.239-.387-.127-.161" fill="none" stroke="#000" stroke-linecap="round" stroke-linejoin="round" stroke-width=".25"/></g><g transform="translate(418.79 572.3)"><path d="m0 0-.222-.13-.214-.146-.245-.196-.074-.074-.044-.054-.009-.017-.002-.01v-.007" fill="none" stroke="#000" stroke-linecap="round" stroke-linejoin="round" stroke-width=".25"/></g><g transform="translate(419.04 572.42)"><path d="m0 0c.155.072.251.17.325.331" fill="none" stroke="#000" stroke-linecap="round" stroke-linejoin="round" stroke-width=".25"/></g><g transform="translate(419.38 572.86)"><path d="m0 0-.015-.107" fill="none" stroke="#000" stroke-linecap="round" stroke-linejoin="round" stroke-width=".25"/></g><g transform="translate(419.36 572.75)"><path d="m0 0 .006.009" fill="none" stroke="#000" stroke-linecap="round" stroke-linejoin="round" stroke-width=".25"/></g><g transform="translate(422.02 573.44)"><path d="m0 0c-.006.04-.015.075-.041.109" fill="none" stroke="#000" stroke-linecap="round" stroke-linejoin="round" stroke-width=".25"/></g><g transform="translate(421.04 573.55)"><path d="m0 0c-.025-.035-.034-.07-.04-.11" fill="none" stroke="#000" stroke-linecap="round" stroke-linejoin="round" stroke-width=".25"/></g><g transform="translate(421 573.44)"><path d="m0 0c-.409-.035-.805-.112-1.199-.233" fill="none" stroke="#000" stroke-linecap="round" stroke-linejoin="round" stroke-width=".25"/></g><g transform="translate(419.79 573.2)"><path d="m0 0c-.199-.061-.32-.162-.418-.349" fill="none" stroke="#000" stroke-linecap="round" stroke-linejoin="round" stroke-width=".25"/></g><g transform="translate(419.05 572.54)"><path d="m0 0c.152.073.25.17.325.32" fill="none" stroke="#000" stroke-linecap="round" stroke-linejoin="round" stroke-width=".25"/></g><g transform="translate(423.22 573.2)"><path d="m0 0c-.395.121-.789.198-1.201.233" fill="none" stroke="#000" stroke-linecap="round" stroke-linejoin="round" stroke-width=".25"/></g><g transform="translate(419.04 572.42)"><path d="m0 0c-.084-.036-.164-.073-.245-.115" fill="none" stroke="#000" stroke-linecap="round" stroke-linejoin="round" stroke-width=".25"/></g><g transform="translate(419.37 572.76)"><path d="m0 0 .248.052.037-.003h.012v-.003" fill="none" stroke="#000" stroke-linecap="round" stroke-linejoin="round" stroke-width=".25"/></g><g transform="translate(423.66 572.75)"><path d="m0 0-.018.107" fill="none" stroke="#000" stroke-linecap="round" stroke-linejoin="round" stroke-width=".25"/></g><g transform="translate(423.64 572.86)"><path d="m0 0c-.092.187-.216.288-.415.349" fill="none" stroke="#000" stroke-linecap="round" stroke-linejoin="round" stroke-width=".25"/></g><g transform="translate(423.98 572.42)"><path d="m0 0 .294-.145.279-.169.207-.153.197-.176.054-.066.021-.02.003-.012-.003-.008" fill="none" stroke="#000" stroke-linecap="round" stroke-linejoin="round" stroke-width=".25"/></g><g transform="translate(423.66 572.75)"><path d="m0 0-.006.009" fill="none" stroke="#000" stroke-linecap="round" stroke-linejoin="round" stroke-width=".25"/></g><g transform="translate(423.58 572.78)" fill="none" stroke="#000" stroke-linecap="round" stroke-linejoin="round" stroke-width=".25"><path d="m0 0 .072-.021"/><path d="m0 0-.192.031-.027-.003-.006-.003"/></g><g transform="translate(420.62 561.81)"><path d="m0 0 .003-.006.003-.004.012-.005.034-.015.127-.039.329-.055.331-.02.271.008.268.027.268.051.086.03.033.013.007.009.003.006" fill="none" stroke="#000" stroke-linecap="round" stroke-linejoin="round" stroke-width=".25"/></g><g transform="translate(426.73 569.32)"><path d="m0 0 .006.006v.052l-.031.131-.116.312-.15.295-.141.235-.159.219-.179.205-.065.061-.035.019-.006.002h-.009" fill="none" stroke="#000" stroke-linecap="round" stroke-linejoin="round" stroke-width=".25"/></g><g transform="translate(417.98 562.99)"><path d="m0 0v-.01l.002-.004v-.008l.023-.031.093-.095.259-.212.274-.185.24-.129.25-.112.254-.087.086-.018.04-.003.012.006" fill="none" stroke="#000" stroke-linecap="round" stroke-linejoin="round" stroke-width=".25"/></g><g transform="translate(425.85 563.8)"><path d="m0 0h.015l.006.005.031.022.095.091.213.257.182.278.13.238.112.247.09.256.017.092v.043l-.006.009" fill="none" stroke="#000" stroke-linecap="round" stroke-linejoin="round" stroke-width=".25"/></g><g transform="translate(416.29 565.34)"><path d="m0 0-.006-.008v-.007l-.003-.008.006-.035.029-.133.116-.314.149-.294.145-.234.155-.221.179-.202.069-.061.028-.019.009-.002h.012" fill="none" stroke="#000" stroke-linecap="round" stroke-linejoin="round" stroke-width=".25"/></g><g transform="translate(415.99 568.22)"><path d="m0 0-.009-.004-.003-.005-.009-.009-.013-.03-.041-.13-.052-.328-.02-.331.005-.272.03-.273.051-.265.029-.085.017-.034.003-.004.012-.007" fill="none" stroke="#000" stroke-linecap="round" stroke-linejoin="round" stroke-width=".25"/></g><g transform="translate(424.23 562.36)" fill="none" stroke="#000" stroke-linecap="round" stroke-linejoin="round" stroke-width=".25"><path d="m0 0 .222.128.216.145.242.199.075.076.04.052.015.017.003.007-.003.01"/><path d="m0 0-.214-.104-.21-.084-.147-.048-.078-.018-.052-.006h-.014l-.006.003-.008.003"/></g><g transform="translate(417.17 570.86)"><path d="m0 0h-.012l-.011-.005-.032-.021-.094-.091-.214-.26-.185-.274-.13-.242-.112-.248-.083-.255-.021-.09-.002-.035.002-.007.006-.009" fill="none" stroke="#000" stroke-linecap="round" stroke-linejoin="round" stroke-width=".25"/></g><g transform="translate(427.03 566.44)"><path d="m0 0 .009.003.003.006.006.009.011.032.037.131.061.327.02.331-.005.271-.029.273-.052.263-.032.088-.017.031-.003.006-.009.006" fill="none" stroke="#000" stroke-linecap="round" stroke-linejoin="round" stroke-width=".25"/></g><g transform="translate(419.05 572.54)"><path d="m0 0c-2.434-1.15-3.747-3.834-3.159-6.464.591-2.627 2.923-4.498 5.617-4.498 2.695 0 5.03 1.871 5.618 4.498.591 2.63-.723 5.314-3.159 6.464" fill="none" stroke="#000" stroke-linecap="round" stroke-linejoin="round" stroke-width=".25"/></g><g transform="translate(417.25 566.41)"><path d="m0 0c.276.651.276 1.19 0 1.842" fill="none" stroke="#000" stroke-linecap="round" stroke-linejoin="round" stroke-width=".25"/></g><g transform="translate(428.53 567.33)"><path d="m0 0c0 3.88-3.142 7.021-7.019 7.021-3.874 0-7.018-3.141-7.018-7.021 0-3.876 3.144-7.021 7.018-7.021 3.877 0 7.019 3.145 7.019 7.021z" fill="none" stroke="#000" stroke-linecap="round" stroke-linejoin="round" stroke-width=".25"/></g><g transform="translate(423.66 572.75)"><path d="m0 0c.066-.161.167-.259.326-.331" fill="none" stroke="#000" stroke-linecap="round" stroke-linejoin="round" stroke-width=".25"/></g><g transform="translate(370.95 566.32)"><path d="m0 0v-.389h-1.868c.003.219.058.415.164.587.107.171.251.319.437.443.19.124.372.253.543.385.175.136.268.306.285.515.005.105-.023.212-.088.315-.062.106-.186.163-.375.17-.173-.005-.296-.071-.363-.198-.068-.127-.106-.29-.107-.487h-.445c0 .309.08.561.242.755.16.196.393.294.7.301.329-.013.56-.109.69-.288.132-.18.195-.363.191-.552-.007-.216-.068-.397-.188-.542-.119-.149-.26-.275-.422-.383-.164-.107-.317-.208-.455-.306-.139-.097-.23-.205-.274-.326z"/></g><g transform="translate(394.1 566.13)"><path d="m0 0c-.185-.146-.412-.222-.682-.225-.315.004-.553.092-.712.264-.161.17-.242.4-.248.689h.445c-.006-.17.036-.308.122-.415.088-.107.221-.163.393-.167.153.002.277.043.375.126.097.085.147.206.149.364-.008.206-.082.339-.227.397-.141.058-.303.081-.488.067 0 .111.001.221.001.335.156-.009.294.019.415.083.121.063.186.175.192.337-.003.119-.042.21-.121.283-.078.069-.178.103-.304.106-.156-.006-.27-.063-.346-.175-.075-.11-.111-.239-.109-.387h-.443c.015.274.098.496.255.666.155.173.373.26.65.266.223 0 .419-.061.592-.182.17-.124.261-.306.272-.549 0-.139-.034-.259-.096-.362-.064-.101-.161-.177-.294-.225v-.009c.157-.033.278-.111.364-.23.086-.121.132-.27.132-.446-.008-.26-.103-.464-.287-.611"/></g><g transform="translate(347.01 565.96)"><path d="m0 0h-.481v1.934h-.672v.35c.195-.003.364.03.513.102.15.071.244.186.283.346h.357z"/></g></g></g><g fill="none" stroke-linecap="round"><g transform="matrix(.35278 0 0 -.35278 46.255 40.977)"><path d="m0 0v-29.082" stroke="#fff" stroke-width="1.5"/><path d="m0 0v-29.082" stroke="#000" stroke-width=".5"/></g><g transform="matrix(.35278 0 0 -.35278 56.588 40.977)"><path d="m0 0v-29.082" stroke="#fff" stroke-width="1.5"/><path d="m0 0v-29.082" stroke="#000" stroke-width=".5"/></g><g transform="matrix(.35278 0 0 -.35278 64.908 40.977)"><path d="m0 0v-29.082" stroke="#fff" stroke-width="1.5"/><path d="m0 0v-29.082" stroke="#000" stroke-width=".5"/></g></g><g transform="matrix(.35278 0 0 -.35278 -73.936 252.08)"><g clip-path="url(#a)"><g transform="translate(413.32 598.41)" fill="none" stroke-linecap="round"><path d="m0 0v-25.098c0-.55.383-1.233.854-1.517l4.771-2.884" stroke="#fff" stroke-width="1.5"/><path d="m0 0v-25.098c0-.55.383-1.233.854-1.517l4.771-2.884" stroke="#000" stroke-width=".5"/></g><path d="m336.88 598.31h7.776v7.776h-7.776zm3.315 5.915c.135.069.255.188.365.35h.485v-4.828h-.545v3.961h-.806v.398c.228.026.39.069.501.119"/><path d="m366.25 598.27h7.776v7.776h-7.776zm4.062 6.239c.332 0 .612-.128.834-.382.22-.247.33-.545.33-.876 0-.407-.135-.757-.399-1.054-.433-.459-.74-.773-.918-.952-.433-.442-.688-.782-.773-1.011h2.133v-.527h-2.771c0 .518.264 1.054.79 1.598.383.365.672.628.868.807.399.382.595.739.595 1.071 0 .221-.068.424-.196.604-.128.178-.306.263-.519.263-.347 0-.611-.144-.781-.433-.086-.222-.17-.442-.256-.655l-.475.128c.272.943.782 1.419 1.538 1.419"/><path d="m389.7 598.32h7.777v7.778h-7.777zm3.17 5.993c.246.163.492.248.755.248.35 0 .647-.111.877-.324.229-.22.34-.502.34-.849 0-.477-.187-.817-.562-1.037.451-.297.672-.714.672-1.241 0-.367-.12-.681-.366-.962-.246-.271-.552-.408-.918-.408-.365 0-.687.111-.951.323-.162.128-.324.324-.502.587l.434.23c.254-.451.578-.672.961-.672.246 0 .459.093.629.271.17.18.254.393.254.639 0 .315-.077.553-.229.705-.144.137-.383.221-.705.264-.094.009-.248.017-.459.017v.451c.211 0 .365.008.475.025.527.085.791.349.791.799 0 .204-.069.374-.204.518-.136.145-.306.213-.511.213-.211 0-.406-.077-.569-.238-.068-.06-.17-.195-.314-.399l-.416.229c.102.238.271.442.518.611"/><path d="m409.4 598.19h7.777v7.777h-7.777zm3.961 6.239h.628v-3.068h.409v-.468h-.409v-1.265h-.519v1.265h-1.768v.452zm.109-.722h-.008l-1.25-2.346h1.258z"/></g></g></g></g><path transform="scale(.26458)" d="m13.488 5.7272v-2.6228h-0.53526c-0.44856 0-0.53526-0.031936-0.53526-0.19716 0-0.13587 0.12769-0.23541 0.41078-0.32023 0.22593-0.06769 0.49835-0.21983 0.60537-0.3381 0.10703-0.11826 0.30756-0.21503 0.44563-0.21503h0.25104v6.316h-0.64231z" fill="#fff" fill-rule="evenodd" stroke-linecap="round" stroke-linejoin="round" stroke-width=".10705" style="paint-order:markers fill stroke"/><path transform="scale(.26458)" d="m51.172 8.2697c0.0029-0.52596 0.57971-1.3923 1.5489-2.3265 1.129-1.0882 1.4467-1.5471 1.4467-2.0893 0-0.48181-0.3446-1.0457-0.69242-1.1329-0.70883-0.17791-1.2974 0.19216-1.5571 0.97906-0.12383 0.37521-0.25252 0.44061-0.52621 0.26743-0.13172-0.08335-0.126-0.15879 0.03993-0.52676 0.40523-0.89865 1.2216-1.4068 2.0195-1.2571 0.99525 0.18671 1.5287 1.3367 1.0981 2.3673-0.08478 0.2029-0.63913 0.87886-1.2319 1.5021-0.59276 0.62328-1.1509 1.2747-1.2403 1.4475l-0.16252 0.31429h2.8959v0.64231h-1.8199c-1.6622 0-1.8198-0.016227-1.8188-0.18734z" fill="#fff" fill-rule="evenodd" stroke-linecap="round" stroke-linejoin="round" stroke-width=".10705" style="paint-order:markers fill stroke"/><path transform="scale(.26458)" d="m83.84 8.328c-0.31231-0.068-0.59952-0.23747-0.88317-0.52112-0.47638-0.47638-0.51072-0.59134-0.20559-0.68819 0.15735-0.049941 0.28823 0.019139 0.48955 0.25839 0.39423 0.46852 1.0083 0.61492 1.5233 0.36318 0.74546-0.36438 0.98352-1.4678 0.44206-2.049-0.22126-0.2375-0.82706-0.44418-1.3047-0.44515-0.24249-4.918e-4 -0.29439-0.047779-0.29439-0.26823 0-0.23496 0.04616-0.26763 0.37812-0.26763 0.49343 0 1.0734-0.24698 1.219-0.51916 0.18458-0.34489 0.13592-0.92494-0.10307-1.2288-0.4271-0.54298-1.2997-0.45105-1.7774 0.18725-0.1771 0.23665-0.2253 0.25047-0.44789 0.12845l-0.24944-0.13673 0.28896-0.34341c1.0267-1.2202 2.9396-0.70704 2.9387 0.78832-3e-4 0.48732-0.2247 0.98354-0.54682 1.2092-0.21753 0.15236-0.21665 0.15672 0.09783 0.48927 0.45753 0.48381 0.55711 0.73104 0.55711 1.3832 0 1.1777-0.94446 1.9166-2.1221 1.6602z" fill="#fff" fill-rule="evenodd" stroke-linecap="round" stroke-linejoin="round" stroke-width=".10705" style="paint-order:markers fill stroke"/><path transform="scale(.26458)" d="m110.8 7.7077v-0.85641h-2.3687l0.0335-0.29439c0.0185-0.16192 0.51528-1.1975 1.1041-2.3013l1.0705-2.0069 0.80288-7.005e-4v4.0679h0.26763c0.2141 0 0.26763 0.053526 0.26763 0.26763 0 0.2141-0.0535 0.26763-0.26763 0.26763-0.26317 0-0.26763 0.014274-0.26763 0.85641v0.85641h-0.64231zm0-2.9974c0-0.88317-0.0205-1.6058-0.0456-1.6058-0.0523 0-1.6672 3.0477-1.6672 3.1465 0 0.035791 0.38539 0.065074 0.85641 0.065074h0.85641z" fill="#fff" fill-rule="evenodd" stroke-linecap="round" stroke-linejoin="round" stroke-width=".10705" style="paint-order:markers fill stroke"/></svg>
