<?xml version="1.0" encoding="UTF-8"?>
<svg width="58.584mm" height="27.57mm" version="1.1" viewBox="0 0 58.584 27.57" xmlns="http://www.w3.org/2000/svg"><g transform="translate(-60.263 -82.038)"><g transform="translate(13.693 14.77)"><g transform="matrix(.35278 0 0 -.35278 74.278 94.036)"><path d="m0 0c0-0.977-0.798-1.775-1.775-1.775h-30.981c-0.976 0-1.775 0.798-1.775 1.775v30.98c0 0.977 0.799 1.776 1.775 1.776h30.981c0.977 0 1.775-0.799 1.775-1.776z" fill="none" stroke="#000"/></g><text transform="scale(.89794 1.1137)" x="75.821671" y="78.365898" fill="#000000" font-family="sans-serif" font-size="2.2426px" stroke-width=".16819" text-align="center" text-anchor="middle" style="line-height:1.25" xml:space="preserve"><tspan x="75.821671" y="78.365898" text-align="center">HOT CUE</tspan><tspan x="75.821671" y="81.169098" text-align="center">6</tspan></text></g><g transform="translate(-1.6565 -.26603)"><g transform="matrix(.35278 0 0 -.35278 74.278 94.036)"><path d="m0 0c0-0.977-0.798-1.775-1.775-1.775h-30.981c-0.976 0-1.775 0.798-1.775 1.775v30.98c0 0.977 0.799 1.776 1.775 1.776h30.981c0.977 0 1.775-0.799 1.775-1.776z" fill="none" stroke="#000"/></g><text transform="scale(.89794 1.1137)" x="75.821671" y="78.365898" fill="#000000" font-family="sans-serif" font-size="2.2426px" stroke-width=".16819" text-align="center" text-anchor="middle" style="line-height:1.25" xml:space="preserve"><tspan x="75.821671" y="78.365898" text-align="center">HOT CUE</tspan><tspan x="75.821671" y="81.169098" text-align="center">1</tspan></text></g><g transform="translate(44.393 14.77)"><g transform="matrix(.35278 0 0 -.35278 74.278 94.036)"><path d="m0 0c0-0.977-0.798-1.775-1.775-1.775h-30.981c-0.976 0-1.775 0.798-1.775 1.775v30.98c0 0.977 0.799 1.776 1.775 1.776h30.981c0.977 0 1.775-0.799 1.775-1.776z" fill="none" stroke="#000"/></g><text transform="scale(.89794 1.1137)" x="75.821671" y="78.365898" fill="#000000" font-family="sans-serif" font-size="2.2426px" stroke-width=".16819" text-align="center" text-anchor="middle" style="line-height:1.25" xml:space="preserve"><tspan x="75.821671" y="78.365898" text-align="center">HOT CUE</tspan><tspan x="75.821671" y="81.169098" text-align="center">8</tspan></text></g><g transform="translate(29.043 14.77)"><g transform="matrix(.35278 0 0 -.35278 74.278 94.036)"><path d="m0 0c0-0.977-0.798-1.775-1.775-1.775h-30.981c-0.976 0-1.775 0.798-1.775 1.775v30.98c0 0.977 0.799 1.776 1.775 1.776h30.981c0.977 0 1.775-0.799 1.775-1.776z" fill="none" stroke="#000"/></g><text transform="scale(.89794 1.1137)" x="75.821671" y="78.365898" fill="#000000" font-family="sans-serif" font-size="2.2426px" stroke-width=".16819" text-align="center" text-anchor="middle" style="line-height:1.25" xml:space="preserve"><tspan x="75.821671" y="78.365898" text-align="center">HOT CUE</tspan><tspan x="75.821671" y="81.169098" text-align="center">7</tspan></text></g><g transform="translate(-1.6565 14.77)"><g transform="matrix(.35278 0 0 -.35278 74.278 94.036)"><path d="m0 0c0-0.977-0.798-1.775-1.775-1.775h-30.981c-0.976 0-1.775 0.798-1.775 1.775v30.98c0 0.977 0.799 1.776 1.775 1.776h30.981c0.977 0 1.775-0.799 1.775-1.776z" fill="none" stroke="#000"/></g><text transform="scale(.89794 1.1137)" x="75.821671" y="78.365898" fill="#000000" font-family="sans-serif" font-size="2.2426px" stroke-width=".16819" text-align="center" text-anchor="middle" style="line-height:1.25" xml:space="preserve"><tspan x="75.821671" y="78.365898" text-align="center">HOT CUE</tspan><tspan x="75.821671" y="81.169098" text-align="center">5</tspan></text></g><g transform="translate(44.393 -.26603)"><g transform="matrix(.35278 0 0 -.35278 74.278 94.036)"><path d="m0 0c0-0.977-0.798-1.775-1.775-1.775h-30.981c-0.976 0-1.775 0.798-1.775 1.775v30.98c0 0.977 0.799 1.776 1.775 1.776h30.981c0.977 0 1.775-0.799 1.775-1.776z" fill="none" stroke="#000"/></g><text transform="scale(.89794 1.1137)" x="75.821671" y="78.365898" fill="#000000" font-family="sans-serif" font-size="2.2426px" stroke-width=".16819" text-align="center" text-anchor="middle" style="line-height:1.25" xml:space="preserve"><tspan x="75.821671" y="78.365898" text-align="center">HOT CUE</tspan><tspan x="75.821671" y="81.169098" text-align="center">4</tspan></text></g><g transform="translate(29.043 -.26603)"><g transform="matrix(.35278 0 0 -.35278 74.278 94.036)"><path d="m0 0c0-0.977-0.798-1.775-1.775-1.775h-30.981c-0.976 0-1.775 0.798-1.775 1.775v30.98c0 0.977 0.799 1.776 1.775 1.776h30.981c0.977 0 1.775-0.799 1.775-1.776z" fill="none" stroke="#000"/></g><text transform="scale(.89794 1.1137)" x="75.821671" y="78.365898" fill="#000000" font-family="sans-serif" font-size="2.2426px" stroke-width=".16819" text-align="center" text-anchor="middle" style="line-height:1.25" xml:space="preserve"><tspan x="75.821671" y="78.365898" text-align="center">HOT CUE</tspan><tspan x="75.821671" y="81.169098" text-align="center">3</tspan></text></g><g transform="matrix(.35278 0 0 -.35278 87.971 93.77)"><path d="m0 0c0-0.977-0.798-1.775-1.775-1.775h-30.981c-0.976 0-1.775 0.798-1.775 1.775v30.98c0 0.977 0.799 1.776 1.775 1.776h30.981c0.977 0 1.775-0.799 1.775-1.776z" fill="none" stroke="#000"/></g><text transform="scale(.89794 1.1137)" x="91.071373" y="78.127022" fill="#000000" font-family="sans-serif" font-size="2.2426px" stroke-width=".16819" text-align="center" text-anchor="middle" style="line-height:1.25" xml:space="preserve"><tspan x="91.071373" y="78.127022" text-align="center">HOT CUE</tspan><tspan x="91.071373" y="80.930222" text-align="center">2</tspan></text></g></svg>
