<?xml version="1.0" encoding="UTF-8"?>
<svg width="17.474mm" height="47.418mm" version="1.1" viewBox="0 0 17.474 47.418" xmlns="http://www.w3.org/2000/svg"><defs><clipPath id="clipPath125098"><rect transform="scale(1,-1)" x="-18.487" y="-93.185" width="37.649" height="134.41" fill="none" stroke="#000" stroke-width=".75"/></clipPath><clipPath id="clipPath125102"><rect transform="scale(1,-1)" x="-18.487" y="-93.185" width="37.649" height="134.41" fill="none" stroke="#000" stroke-width=".75"/></clipPath><clipPath id="clipPath125106"><rect transform="scale(1,-1)" x="-23.362" y="-90.648" width="37.649" height="134.41" fill="none" stroke="#000" stroke-width=".75"/></clipPath><clipPath id="clipPath125110"><rect transform="scale(1,-1)" x="-19.866" y="-97.985" width="37.649" height="134.41" fill="none" stroke="#000" stroke-width=".75"/></clipPath><clipPath id="clipPath125114"><rect transform="scale(1,-1)" x="-19.866" y="-97.985" width="37.649" height="134.41" fill="none" stroke="#000" stroke-width=".75"/></clipPath><clipPath id="clipPath125118"><rect transform="scale(1,-1)" x="-17.335" y="-97.746" width="37.649" height="134.41" fill="none" stroke="#000" stroke-width=".75"/></clipPath><clipPath id="clipPath125122"><rect transform="scale(1,-1)" x="-17.335" y="-97.746" width="37.649" height="134.41" fill="none" stroke="#000" stroke-width=".75"/></clipPath><clipPath id="clipPath125126"><rect transform="scale(1,-1)" x="-15.262" y="-96.273" width="37.649" height="134.41" fill="none" stroke="#000" stroke-width=".75"/></clipPath><clipPath id="clipPath125130"><rect transform="scale(1,-1)" x="-15.262" y="-96.273" width="37.649" height="134.41" fill="none" stroke="#000" stroke-width=".75"/></clipPath><clipPath id="clipPath125134"><rect transform="scale(1,-1)" x="-14.204" y="-93.962" width="37.649" height="134.41" fill="none" stroke="#000" stroke-width=".75"/></clipPath><clipPath id="clipPath125138"><rect transform="scale(1,-1)" x="-14.204" y="-93.962" width="37.649" height="134.41" fill="none" stroke="#000" stroke-width=".75"/></clipPath><clipPath id="clipPath125142"><rect transform="scale(1,-1)" x="-14.44" y="-91.431" width="37.649" height="134.41" fill="none" stroke="#000" stroke-width=".75"/></clipPath><clipPath id="clipPath125146"><rect transform="scale(1,-1)" x="-14.44" y="-91.431" width="37.649" height="134.41" fill="none" stroke="#000" stroke-width=".75"/></clipPath><clipPath id="clipPath125150"><rect transform="scale(1,-1)" x="-15.915" y="-89.357" width="37.649" height="134.41" fill="none" stroke="#000" stroke-width=".75"/></clipPath><clipPath id="clipPath125154"><rect transform="scale(1,-1)" x="-15.915" y="-89.357" width="37.649" height="134.41" fill="none" stroke="#000" stroke-width=".75"/></clipPath><clipPath id="clipPath125158"><rect transform="scale(1,-1)" x="-20.756" y="-88.537" width="37.649" height="134.41" fill="none" stroke="#000" stroke-width=".75"/></clipPath><clipPath id="clipPath125162"><rect transform="scale(1,-1)" x="-20.756" y="-88.537" width="37.649" height="134.41" fill="none" stroke="#000" stroke-width=".75"/></clipPath><clipPath id="clipPath125166"><rect transform="scale(1,-1)" x="-22.829" y="-90.01" width="37.649" height="134.41" fill="none" stroke="#000" stroke-width=".75"/></clipPath><clipPath id="clipPath125170"><rect transform="scale(1,-1)" x="-22.829" y="-90.01" width="37.649" height="134.41" fill="none" stroke="#000" stroke-width=".75"/></clipPath><clipPath id="clipPath125174"><rect transform="scale(1,-1)" x="-23.887" y="-92.321" width="37.649" height="134.41" fill="none" stroke="#000" stroke-width=".75"/></clipPath><clipPath id="clipPath125178"><rect transform="scale(1,-1)" x="-23.887" y="-92.321" width="37.649" height="134.41" fill="none" stroke="#000" stroke-width=".75"/></clipPath><clipPath id="clipPath125182"><rect transform="scale(1,-1)" x="-23.649" y="-94.852" width="37.649" height="134.41" fill="none" stroke="#000" stroke-width=".75"/></clipPath><clipPath id="clipPath125186"><rect transform="scale(1,-1)" x="-23.649" y="-94.852" width="37.649" height="134.41" fill="none" stroke="#000" stroke-width=".75"/></clipPath><clipPath id="clipPath125190"><rect transform="scale(1,-1)" x="-22.178" y="-96.925" width="37.649" height="134.41" fill="none" stroke="#000" stroke-width=".75"/></clipPath><clipPath id="clipPath125194"><rect transform="scale(1,-1)" x="-22.178" y="-96.925" width="37.649" height="134.41" fill="none" stroke="#000" stroke-width=".75"/></clipPath><clipPath id="clipPath125198"><rect transform="scale(1,-1)" x="-15.856" y="-94.983" width="37.649" height="134.41" fill="none" stroke="#000" stroke-width=".75"/></clipPath><clipPath id="clipPath125202"><rect transform="scale(1,-1)" x="-13.641" y="-96.261" width="37.649" height="134.41" fill="none" stroke="#000" stroke-width=".75"/></clipPath><clipPath id="clipPath125206"><rect transform="scale(1,-1)" x="-13.641" y="-96.261" width="37.649" height="134.41" fill="none" stroke="#000" stroke-width=".75"/></clipPath><clipPath id="clipPath125210"><rect transform="scale(1,-1)" x="-18.942" y="-51.554" width="37.649" height="134.41" fill="none" stroke="#000" stroke-width=".75"/></clipPath><clipPath id="clipPath125214"><rect transform="scale(1,-1)" x="-15.381" y="-51.275" width="37.649" height="134.41" fill="none" stroke="#000" stroke-width=".75"/></clipPath><clipPath id="clipPath125218"><rect transform="scale(1,-1)" x="-24.264" y="-66.569" width="37.649" height="134.41" fill="none" stroke="#000" stroke-width=".75"/></clipPath><clipPath id="clipPath125222"><rect transform="scale(1,-1)" x="-13.499" y="-66.569" width="37.649" height="134.41" fill="none" stroke="#000" stroke-width=".75"/></clipPath><clipPath id="clipPath125226"><rect transform="scale(1,-1)" x="-20.428" y="-127.18" width="37.649" height="134.41" fill="none" stroke="#000" stroke-width=".75"/></clipPath><clipPath id="clipPath125230"><rect transform="scale(1,-1)" x="-25.733" y="-126.43" width="37.649" height="134.41" fill="none" stroke="#000" stroke-width=".75"/></clipPath><clipPath id="clipPath125234"><rect transform="scale(1,-1)" x="-15.493" y="-126.43" width="37.649" height="134.41" fill="none" stroke="#000" stroke-width=".75"/></clipPath><clipPath id="clipPath125238"><rect transform="scale(1,-1)" x="-12.897" y="-127.18" width="37.649" height="134.41" fill="none" stroke="#000" stroke-width=".75"/></clipPath><clipPath id="clipPath125242"><rect transform="scale(1,-1)" x="-14.045" y="-127.34" width="37.649" height="134.41" fill="none" stroke="#000" stroke-width=".75"/></clipPath><clipPath id="clipPath125246"><rect transform="scale(1,-1)" x="-16.813" y="-127.34" width="37.649" height="134.41" fill="none" stroke="#000" stroke-width=".75"/></clipPath><clipPath id="clipPath125250"><rect transform="scale(1,-1)" x="-18.313" y="-127.42" width="37.649" height="134.41" fill="none" stroke="#000" stroke-width=".75"/></clipPath><clipPath id="clipPath125254"><rect transform="scale(1,-1)" x="-21.286" y="-127.34" width="37.649" height="134.41" fill="none" stroke="#000" stroke-width=".75"/></clipPath><clipPath id="clipPath125258"><rect transform="scale(1,-1)" x="-23.086" y="-128.07" width="37.649" height="134.41" fill="none" stroke="#000" stroke-width=".75"/></clipPath><clipPath id="clipPath125262"><rect transform="scale(1,-1)" x="-26.706" y="-128.24" width="37.649" height="134.41" fill="none" stroke="#000" stroke-width=".75"/></clipPath><clipPath id="clipPath125266"><rect transform="scale(1,-1)" x="-24.59" y="-72.884" width="37.649" height="134.41" fill="none" stroke="#000" stroke-width=".75"/></clipPath><clipPath id="clipPath125270"><rect transform="scale(1,-1)" x="-26.495" y="-72.672" width="37.649" height="134.41" fill="none" stroke="#000" stroke-width=".75"/></clipPath><clipPath id="clipPath125274"><rect transform="scale(1,-1)" x="-24.274" y="-71.894" width="37.649" height="134.41" fill="none" stroke="#000" stroke-width=".75"/></clipPath><clipPath id="clipPath125278"><rect transform="scale(1,-1)" x="-15.21" y="-73.276" width="37.649" height="134.41" fill="none" stroke="#000" stroke-width=".75"/></clipPath><clipPath id="clipPath125282"><rect transform="scale(1,-1)" x="-12.53" y="-72.786" width="37.649" height="134.41" fill="none" stroke="#000" stroke-width=".75"/></clipPath><clipPath id="clipPath125286"><rect transform="scale(1,-1)" x="-10.292" y="-72.818" width="37.649" height="134.41" fill="none" stroke="#000" stroke-width=".75"/></clipPath><clipPath id="clipPath125290"><rect transform="scale(1,-1)" x="-12.991" y="-72.077" width="37.649" height="134.41" fill="none" stroke="#000" stroke-width=".75"/></clipPath><clipPath id="clipPath125294"><rect transform="scale(1,-1)" x="-9.3142" y="-73.702" width="37.649" height="134.41" fill="none" stroke="#000" stroke-width=".75"/></clipPath><clipPath id="clipPath125298"><rect transform="scale(1,-1)" x="-28.575" y="-73.702" width="37.649" height="134.41" fill="none" stroke="#000" stroke-width=".75"/></clipPath><clipPath id="clipPath125302"><rect transform="scale(1,-1)" x="-23.585" y="-19.944" width="37.649" height="134.41" fill="none" stroke="#000" stroke-width=".75"/></clipPath><clipPath id="clipPath125306"><rect transform="scale(1,-1)" x="-26.526" y="-18.715" width="37.649" height="134.41" fill="none" stroke="#000" stroke-width=".75"/></clipPath><clipPath id="clipPath125310"><rect transform="scale(1,-1)" x="-21.503" y="-18.469" width="37.649" height="134.41" fill="none" stroke="#000" stroke-width=".75"/></clipPath><clipPath id="clipPath125314"><rect transform="scale(1,-1)" x="-19.778" y="-61.956" width="37.649" height="134.41" fill="none" stroke="#000" stroke-width=".75"/></clipPath><clipPath id="clipPath125318"><rect transform="scale(1,-1)" x="-20.919" y="-60.707" width="37.649" height="134.41" fill="none" stroke="#000" stroke-width=".75"/></clipPath><clipPath id="clipPath125322"><rect transform="scale(1,-1)" x="-16.573" y="-62.402" width="37.649" height="134.41" fill="none" stroke="#000" stroke-width=".75"/></clipPath><clipPath id="clipPath125326"><rect transform="scale(1,-1)" x="-17.727" y="-61.855" width="37.649" height="134.41" fill="none" stroke="#000" stroke-width=".75"/></clipPath><clipPath id="clipPath125330"><rect transform="scale(1,-1)" x="-15.946" y="-83.644" width="37.649" height="134.41" fill="none" stroke="#000" stroke-width=".75"/></clipPath><clipPath id="clipPath125334"><rect transform="scale(1,-1)" x="-13.522" y="-83.952" width="37.649" height="134.41" fill="none" stroke="#000" stroke-width=".75"/></clipPath><clipPath id="clipPath125338"><rect transform="scale(1,-1)" x="-19.926" y="-83.658" width="37.649" height="134.41" fill="none" stroke="#000" stroke-width=".75"/></clipPath><clipPath id="clipPath125342"><rect transform="scale(1,-1)" x="-23.167" y="-83.645" width="37.649" height="134.41" fill="none" stroke="#000" stroke-width=".75"/></clipPath><clipPath id="clipPath125346"><rect transform="scale(1,-1)" x="-25.864" y="-83.952" width="37.649" height="134.41" fill="none" stroke="#000" stroke-width=".75"/></clipPath><clipPath id="clipPath125350"><rect transform="scale(1,-1)" x="-27.489" y="-83.011" width="37.649" height="134.41" fill="none" stroke="#000" stroke-width=".75"/></clipPath><clipPath id="clipPath125354"><rect transform="scale(1,-1)" x="-10.506" y="-83.644" width="37.649" height="134.41" fill="none" stroke="#000" stroke-width=".75"/></clipPath><clipPath id="clipPath125358"><rect transform="scale(1,-1)" x="-17.674" y="-83.644" width="37.649" height="134.41" fill="none" stroke="#000" stroke-width=".75"/></clipPath><clipPath id="clipPath125362"><rect transform="scale(1,-1)" x="-12.272" y="-83.644" width="37.649" height="134.41" fill="none" stroke="#000" stroke-width=".75"/></clipPath><clipPath id="clipPath125366"><rect transform="scale(1,-1)" x="-23.84" y="-82.17" width="37.649" height="134.41" fill="none" stroke="#000" stroke-width=".75"/></clipPath><clipPath id="clipPath125370"><rect transform="scale(1,-1)" x="-26.522" y="-91.456" width="37.649" height="134.41" fill="none" stroke="#000" stroke-width=".75"/></clipPath><clipPath id="clipPath125374"><rect transform="scale(1,-1)" x="-17.973" y="-83.994" width="37.649" height="134.41" fill="none" stroke="#000" stroke-width=".75"/></clipPath><clipPath id="clipPath125378"><rect transform="scale(1,-1)" x="-11.366" y="-91.46" width="37.649" height="134.41" fill="none" stroke="#000" stroke-width=".75"/></clipPath><clipPath id="clipPath125382"><rect transform="scale(1,-1)" x="-29.118" y="-100.77" width="37.649" height="134.41" fill="none" stroke="#000" stroke-width=".75"/></clipPath><clipPath id="clipPath125386"><rect x="115.93" y="90.807" width="13.282" height="47.418" fill="none" stroke="#000" stroke-width=".26458"/></clipPath><clipPath id="clipPath125390"><rect transform="scale(1,-1)" x="-9.8992" y="-101.27" width="37.649" height="134.41" fill="none" stroke="#000" stroke-width=".75"/></clipPath><clipPath id="clipPath125394"><rect transform="scale(1,-1)" x="-12.809" y="-101.2" width="37.649" height="134.41" fill="none" stroke="#000" stroke-width=".75"/></clipPath><clipPath id="clipPath125398"><rect transform="scale(1,-1)" x="-27.042" y="-100.97" width="37.649" height="134.41" fill="none" stroke="#000" stroke-width=".75"/></clipPath><clipPath id="clipPath125402"><rect transform="scale(1,-1)" x="-25.46" y="-101.27" width="37.649" height="134.41" fill="none" stroke="#000" stroke-width=".75"/></clipPath><clipPath id="clipPath125406"><rect transform="scale(1,-1)" x="-16.87" y="-108.13" width="37.649" height="134.41" fill="none" stroke="#000" stroke-width=".75"/></clipPath><clipPath id="clipPath125410"><rect transform="scale(1,-1)" x="-20.69" y="-108.19" width="37.649" height="134.41" fill="none" stroke="#000" stroke-width=".75"/></clipPath><clipPath id="clipPath125414"><rect transform="scale(1,-1)" x="-17.682" y="-108.73" width="37.649" height="134.41" fill="none" stroke="#000" stroke-width=".75"/></clipPath><clipPath id="clipPath125418"><rect transform="scale(1,-1)" x="-14.696" y="-108.19" width="37.649" height="134.41" fill="none" stroke="#000" stroke-width=".75"/></clipPath><clipPath id="clipPath125422"><rect transform="scale(1,-1)" x="-21.545" y="-108.68" width="37.649" height="134.41" fill="none" stroke="#000" stroke-width=".75"/></clipPath><clipPath id="clipPath125426"><rect transform="scale(1,-1)" x="-24.69" y="-106.92" width="37.649" height="134.41" fill="none" stroke="#000" stroke-width=".75"/></clipPath><clipPath id="clipPath125430"><rect transform="scale(1,-1)" x="-23.475" y="-41.205" width="37.649" height="134.41" fill="none" stroke="#000" stroke-width=".75"/></clipPath><clipPath id="clipPath125434"><rect transform="scale(1,-1)" x="-14.02" y="-41.1" width="37.649" height="134.41" fill="none" stroke="#000" stroke-width=".75"/></clipPath><clipPath id="clipPath125438"><rect transform="scale(1,-1)" x="-18.336" y="-40.423" width="37.649" height="134.41" fill="none" stroke="#000" stroke-width=".75"/></clipPath><clipPath id="clipPath125442"><rect transform="scale(1,-1)" x="-24.692" y="-40.423" width="37.649" height="134.41" fill="none" stroke="#000" stroke-width=".75"/></clipPath><clipPath id="clipPath125446"><rect transform="scale(1,-1)" x="-21.155" y="-41.1" width="37.649" height="134.41" fill="none" stroke="#000" stroke-width=".75"/></clipPath><clipPath id="clipPath125450"><rect transform="scale(1,-1)" x="-14.942" y="-40.76" width="37.649" height="134.41" fill="none" stroke="#000" stroke-width=".75"/></clipPath><clipPath id="clipPath125454"><rect transform="scale(1,-1)" x="-17.45" y="-40.664" width="37.649" height="134.41" fill="none" stroke="#000" stroke-width=".75"/></clipPath><clipPath id="clipPath125458"><rect transform="scale(1,-1)" x="-20.661" y="-41.841" width="37.649" height="134.41" fill="none" stroke="#000" stroke-width=".75"/></clipPath><clipPath id="clipPath125462"><rect transform="scale(1,-1)" x="-16.452" y="-21.09" width="37.649" height="134.41" fill="none" stroke="#000" stroke-width=".75"/></clipPath><clipPath id="clipPath125466"><rect transform="scale(1,-1)" x="-18.961" y="-21.09" width="37.649" height="134.41" fill="none" stroke="#000" stroke-width=".75"/></clipPath><clipPath id="clipPath125470"><rect transform="scale(1,-1)" x="-21.469" y="-21.09" width="37.649" height="134.41" fill="none" stroke="#000" stroke-width=".75"/></clipPath><clipPath id="clipPath125474"><rect transform="scale(1,-1)" x="-15.676" y="-20.165" width="37.649" height="134.41" fill="none" stroke="#000" stroke-width=".75"/></clipPath><clipPath id="clipPath125478"><rect transform="scale(1,-1)" x="-18.633" y="-18.877" width="37.649" height="134.41" fill="none" stroke="#000" stroke-width=".75"/></clipPath><clipPath id="clipPath125482"><rect transform="scale(1,-1)" x="-25.256" y="-5.3587" width="37.649" height="134.41" fill="none" stroke="#000" stroke-width=".75"/></clipPath><clipPath id="clipPath125486"><rect transform="scale(1,-1)" x="-17.104" y="-5.6597" width="37.649" height="134.41" fill="none" stroke="#000" stroke-width=".75"/></clipPath><clipPath id="clipPath125490"><rect transform="scale(1,-1)" x="-18.674" y="-4.5277" width="37.649" height="134.41" fill="none" stroke="#000" stroke-width=".75"/></clipPath><clipPath id="clipPath125494"><rect transform="scale(1,-1)" x="-14.645" y="-5.5377" width="37.649" height="134.41" fill="none" stroke="#000" stroke-width=".75"/></clipPath><clipPath id="clipPath125498"><rect transform="scale(1,-1)" x="-13.258" y="-6.1947" width="37.649" height="134.41" fill="none" stroke="#000" stroke-width=".75"/></clipPath><clipPath id="clipPath125502"><rect transform="scale(1,-1)" x="-21.87" y="-6.6487" width="37.649" height="134.41" fill="none" stroke="#000" stroke-width=".75"/></clipPath><clipPath id="clipPath125506"><rect transform="scale(1,-1)" x="-18.944" y="-47.16" width="37.649" height="134.41" fill="none" stroke="#000" stroke-width=".75"/></clipPath><clipPath id="clipPath125510"><rect transform="scale(1,-1)" x="-13.838" y="-48.281" width="37.649" height="134.41" fill="none" stroke="#000" stroke-width=".75"/></clipPath><clipPath id="clipPath125514"><rect x="115.93" y="90.807" width="13.282" height="47.418" fill="none" stroke="#000" stroke-width=".26458"/></clipPath><clipPath id="clipPath125518"><rect transform="scale(1,-1)" x="-28.223" y="-70.385" width="37.649" height="134.41" fill="none" stroke="#000" stroke-width=".75"/></clipPath><clipPath id="clipPath125522"><rect transform="scale(1,-1)" x="-28.223" y="-69.789" width="37.649" height="134.41" fill="none" stroke="#000" stroke-width=".75"/></clipPath><clipPath id="clipPath125526"><rect transform="scale(1,-1)" x="-9.5372" y="-70.385" width="37.649" height="134.41" fill="none" stroke="#000" stroke-width=".75"/></clipPath><clipPath id="clipPath125530"><rect transform="scale(1,-1)" x="-9.5372" y="-69.789" width="37.649" height="134.41" fill="none" stroke="#000" stroke-width=".75"/></clipPath><clipPath id="clipPath125534"><rect transform="scale(1,-1)" x="-20.354" y="-27.806" width="37.649" height="134.41" fill="none" stroke="#000" stroke-width=".75"/></clipPath><clipPath id="clipPath125538"><rect transform="scale(1,-1)" x="-12.774" y="-29.054" width="37.649" height="134.41" fill="none" stroke="#000" stroke-width=".75"/></clipPath><clipPath id="clipPath125542"><rect transform="scale(1,-1)" x="-164.43" y="-155.72" width="37.649" height="134.41" fill="none" stroke="#000" stroke-width=".75"/></clipPath><clipPath id="clipPath125546"><rect transform="scale(1,-1)" x="-25.901" y="-117.32" width="37.649" height="134.41" fill="none" stroke="#000" stroke-width=".75"/></clipPath><clipPath id="clipPath125550"><rect transform="scale(1,-1)" x="-24.36" y="-117.32" width="37.649" height="134.41" fill="none" stroke="#000" stroke-width=".75"/></clipPath><clipPath id="clipPath125554"><rect transform="scale(1,-1)" x="62.363" y="-46.6" width="37.649" height="134.41" fill="none" stroke="#000" stroke-width=".75"/></clipPath><clipPath id="clipPath125558"><rect transform="scale(1,-1)" x="-13.731" y="-49.482" width="37.649" height="134.41" fill="none" stroke="#000" stroke-width=".75"/></clipPath><clipPath id="clipPath125562"><rect transform="scale(1,-1)" x="-13.852" y="-48.722" width="37.649" height="134.41" fill="none" stroke="#000" stroke-width=".75"/></clipPath><clipPath id="clipPath125566"><rect transform="scale(1,-1)" x="-164.43" y="67.188" width="37.649" height="134.41" fill="none" stroke="#000" stroke-width=".75"/></clipPath><clipPath id="clipPath125570"><rect transform="scale(1,-1)" x="-164.43" y="67.141" width="37.649" height="134.41" fill="none" stroke="#000" stroke-width=".75"/></clipPath></defs><g transform="translate(-115.93 -90.807)"><g transform="matrix(.35278 0 0 -.35278 173.93 67.121)" clip-path="url(#clipPath125570)"><path d="m0 0h-165.72v0.704l-0.229 0.333h-0.219l-0.091-0.217h-0.09l-0.094 0.217h-0.215l-0.094-0.217h-0.089l-0.092 0.217h-0.217l-0.094-0.217h-0.09l-0.091 0.217h-0.217l-0.233-0.333v-0.704h-72.168v3.261l-0.244 0.482h-6.46l-0.244-0.482v-3.261h-4.72v3.261l-0.245 0.482h-6.46l-0.243-0.482v-3.261h-20.845v2.396l-0.245 0.482h-8.255l-0.244-0.482v-2.396h-5.438v3.542l-0.244 0.482h-4.354l-0.244-0.482v-3.542h-87.822c-4.47 0-8.091-3.623-8.091-8.091v-206.68c0-4.468 3.621-8.091 8.091-8.091h386.35c4.469 0 8.09 3.623 8.09 8.091v206.68c0 4.468-3.621 8.091-8.09 8.091z" fill="none" stroke="#231f20" stroke-linecap="round" stroke-linejoin="round" stroke-miterlimit="10"/></g><g transform="matrix(.35278 0 0 -.35278 173.93 67.104)" clip-path="url(#clipPath125566)"><path d="m0 0h-165.72v0.703l-0.229 0.334h-0.219l-0.091-0.217h-0.09l-0.094 0.217h-0.215l-0.094-0.217h-0.09l-0.091 0.217h-0.217l-0.094-0.217h-0.09l-0.091 0.217h-0.217l-0.233-0.334v-0.703h-72.168v3.153l-0.244 0.59h-6.46l-0.244-0.59v-3.153h-4.72v3.13l-0.245 0.613h-6.46l-0.243-0.613v-3.13h-20.845v2.268l-0.245 0.61h-8.255l-0.244-0.61v-2.268h-5.438v3.55l-0.244 0.501h-4.354l-0.244-0.501v-3.55h-87.822c-4.47 0-8.092-3.623-8.092-8.091v-206.68c0-4.47 3.622-8.091 8.092-8.091h386.35c4.469 0 8.09 3.621 8.09 8.091v206.68c0 4.468-3.621 8.091-8.09 8.091" fill="#fff"/></g><g transform="matrix(.35278 0 0 -.35278 120.81 107.99)" clip-path="url(#clipPath125562)"><path d="m0 0c-0.367 0-0.664 0.297-0.664 0.664v3.317c0 0.367 0.297 0.663 0.664 0.663h10.014c0.367 0 0.664-0.296 0.664-0.663v-3.317c0-0.367-0.297-0.664-0.664-0.664z" fill="none" stroke="#231f20" stroke-linecap="round" stroke-linejoin="round" stroke-miterlimit="10" stroke-width=".5"/></g><g transform="matrix(.35278 0 0 -.35278 120.77 108.26)" clip-path="url(#clipPath125558)"><path d="m0 0c-0.721 0-1.307 0.601-1.307 1.346v3.474c0 0.743 0.586 1.346 1.307 1.346h10.256c0.721 0 1.307-0.603 1.307-1.346v-3.474c0-0.745-0.586-1.346-1.307-1.346z" fill="none" stroke="#231f20" stroke-linecap="round" stroke-linejoin="round" stroke-miterlimit="10" stroke-width=".35"/></g><g transform="matrix(.35278 0 0 -.35278 93.926 107.25)" clip-path="url(#clipPath125554)"><path d="m0 0h-6.2562v0.43604h6.2562z" fill="none" stroke="#231f20" stroke-linecap="round" stroke-linejoin="round" stroke-miterlimit="10" stroke-width=".25"/><g transform="translate(1.203,-80.649)"><path d="m0.436 0h-0.43602v168.24h0.43602z" fill="none" stroke="#231f20" stroke-linecap="round" stroke-linejoin="round" stroke-miterlimit="10" stroke-width=".25"/><path d="m0 0z" fill="none" stroke="#231f20" stroke-linecap="round" stroke-linejoin="round" stroke-miterlimit="10" stroke-width=".25"/><g transform="translate(64.368)"><path d="m0.435 0h-0.43503v168.24h0.43503z" fill="none" stroke="#231f20" stroke-linecap="round" stroke-linejoin="round" stroke-miterlimit="10" stroke-width=".25"/><path d="m0 0z" fill="none" stroke="#231f20" stroke-linecap="round" stroke-linejoin="round" stroke-miterlimit="10" stroke-width=".25"/><g transform="translate(-58.157,80.649)"><path d="m0 0h-4.6282v0.43604h4.6282z" fill="none" stroke="#231f20" stroke-linecap="round" stroke-linejoin="round" stroke-miterlimit="10" stroke-width=".25"/><g transform="translate(33.568)"><path d="m0 0h-14.68v0.43604h14.68z" fill="none" stroke="#231f20" stroke-linecap="round" stroke-linejoin="round" stroke-miterlimit="10" stroke-width=".25"/><g transform="translate(40.109,66.624)"><path d="m0.436 0h-0.436v7.2603h0.436z" fill="none" stroke="#231f20" stroke-linecap="round" stroke-linejoin="round" stroke-miterlimit="10" stroke-width=".25"/><path d="m0 0z" fill="none" stroke="#231f20" stroke-linecap="round" stroke-linejoin="round" stroke-miterlimit="10" stroke-width=".25"/><g transform="translate(-111.46 -174.62)"><path d="m0 0h-0.63004v220.51h0.63004z" fill="none" stroke="#231f20" stroke-linecap="round" stroke-linejoin="round" stroke-miterlimit="10" stroke-width=".25"/><g transform="translate(128.46)"><path d="m0 0h-0.62906v220.51h0.62906z" fill="none" stroke="#231f20" stroke-linecap="round" stroke-linejoin="round" stroke-miterlimit="10" stroke-width=".25"/></g></g></g></g></g></g></g></g><g transform="matrix(.35278 0 0 -.35278 124.52 132.2)" clip-path="url(#clipPath125550)"><path d="m0 0c0-2.984-2.42-5.404-5.404-5.404-2.985 0-5.405 2.42-5.405 5.404 0 2.985 2.42 5.404 5.405 5.404 2.984 0 5.404-2.419 5.404-5.404z" fill="none" stroke="#231f20" stroke-linecap="round" stroke-linejoin="round" stroke-miterlimit="10" stroke-width=".5"/></g><g transform="matrix(.35278 0 0 -.35278 125.06 132.2)" clip-path="url(#clipPath125546)"><path d="m0 0c0-3.835-3.109-6.944-6.945-6.944s-6.947 3.109-6.947 6.944c0 3.836 3.111 6.945 6.947 6.945s6.945-3.109 6.945-6.945z" fill="none" stroke="#231f20" stroke-linecap="round" stroke-linejoin="round" stroke-miterlimit="10" stroke-width=".35"/></g><g transform="matrix(.35278 0 0 -.35278 173.93 145.74)" clip-path="url(#clipPath125542)"><path d="m0 0c4.469 0 8.09 3.623 8.09 8.091v206.68c0 4.468-3.621 8.091-8.09 8.091h-386.35c-4.47 0-8.091-3.623-8.091-8.091v-206.68c0-4.468 3.621-8.091 8.091-8.091z" fill="none" stroke="#231f20" stroke-linecap="round" stroke-linejoin="round" stroke-miterlimit="10" stroke-width=".5"/><g transform="translate(-148.9 127.25)"><path d="m0 0c-0.363 0-0.654 0.292-0.654 0.655v3.799c0 0.362 0.291 0.654 0.654 0.654h6.705c0.361 0 0.654-0.292 0.654-0.654v-3.799c0-0.363-0.293-0.655-0.654-0.655z" fill="none" stroke="#231f20" stroke-linecap="round" stroke-linejoin="round" stroke-miterlimit="10" stroke-width=".5"/></g></g><g transform="matrix(.35278 0 0 -.35278 120.43 101.06)" clip-path="url(#clipPath125538)"><path d="m0 0c-0.701 0-1.27 0.568-1.27 1.268v3.799c0 0.701 0.569 1.269 1.27 1.269h12.457c0.699 0 1.267-0.568 1.267-1.269v-3.799c0-0.7-0.568-1.268-1.267-1.268z" fill="none" stroke="#231f20" stroke-linecap="round" stroke-linejoin="round" stroke-miterlimit="10" stroke-width=".35"/></g><g transform="matrix(.35278 0 0 -.35278 123.11 100.62)" clip-path="url(#clipPath125534)"><path d="m0 0h-2.9941v3.7881h2.9941z" fill="none" stroke="#231f20" stroke-linecap="round" stroke-linejoin="round" stroke-miterlimit="10" stroke-width=".25"/><g transform="translate(-1.068 .457)"><path d="m0 0h-0.85806v2.8731h0.85806z" fill="none" stroke="#231f20" stroke-linecap="round" stroke-linejoin="round" stroke-miterlimit="10" stroke-width=".25"/><g transform="translate(-1.926,3.331)"><path d="m0 0-2.055 0.373" fill="none" stroke="#231f20" stroke-linecap="round" stroke-linejoin="round" stroke-miterlimit="10" stroke-width=".25"/><g transform="translate(0,-3.773)"><path d="m0 0-2.08-0.4" fill="none" stroke="#231f20" stroke-linecap="round" stroke-linejoin="round" stroke-miterlimit="10" stroke-width=".25"/><g transform="translate(2.955,3.773)"><path d="m0 0 2.047 0.373" fill="none" stroke="#231f20" stroke-linecap="round" stroke-linejoin="round" stroke-miterlimit="10" stroke-width=".25"/><g transform="translate(0,-3.773)"><path d="m0 0 2.072-0.4" fill="none" stroke="#231f20" stroke-linecap="round" stroke-linejoin="round" stroke-miterlimit="10" stroke-width=".25"/></g></g></g></g></g></g><g transform="matrix(.35278 0 0 -.35278 119.29 115.43)" clip-path="url(#clipPath125530)"><path d="m0 0c-0.352 0-0.637 0.285-0.637 0.637v3.698c0 0.353 0.285 0.638 0.637 0.638h6.533c0.351 0 0.637-0.285 0.637-0.638v-3.698c0-0.352-0.286-0.637-0.637-0.637z" fill="none" stroke="#231f20" stroke-linecap="round" stroke-linejoin="round" stroke-miterlimit="10" stroke-width=".5"/></g><g transform="matrix(.35278 0 0 -.35278 119.29 115.64)" clip-path="url(#clipPath125526)"><path d="m0 0c-0.682 0-1.235 0.552-1.235 1.233v3.698c0 0.682 0.553 1.234 1.235 1.234h6.533c0.682 0 1.234-0.552 1.234-1.234v-3.698c0-0.681-0.552-1.233-1.234-1.233z" fill="none" stroke="#231f20" stroke-linecap="round" stroke-linejoin="round" stroke-miterlimit="10" stroke-width=".35"/></g><g transform="matrix(.35278 0 0 -.35278 125.88 115.43)" clip-path="url(#clipPath125522)"><path d="m0 0c0.352 0 0.637 0.285 0.637 0.637v3.698c0 0.353-0.285 0.638-0.637 0.638h-6.533c-0.352 0-0.637-0.285-0.637-0.638v-3.698c0-0.352 0.285-0.637 0.637-0.637z" fill="none" stroke="#231f20" stroke-linecap="round" stroke-linejoin="round" stroke-miterlimit="10" stroke-width=".5"/></g><g transform="matrix(.35278 0 0 -.35278 125.88 115.64)" clip-path="url(#clipPath125518)"><path d="m0 0c0.682 0 1.233 0.552 1.233 1.233v3.698c0 0.682-0.551 1.234-1.233 1.234h-6.533c-0.682 0-1.234-0.552-1.234-1.234v-3.698c0-0.681 0.552-1.233 1.234-1.233z" fill="none" stroke="#231f20" stroke-linecap="round" stroke-linejoin="round" stroke-miterlimit="10" stroke-width=".35"/><g transform="translate(-12.07,6.165)"><path d="m0 0h6.068" fill="none" stroke="#231f20" stroke-linecap="round" stroke-linejoin="round" stroke-miterlimit="10" stroke-width=".35"/><g transform="translate(0,-6.165)"><path d="m0 0h6.068" fill="none" stroke="#231f20" stroke-linecap="round" stroke-linejoin="round" stroke-miterlimit="10" stroke-width=".35"/></g></g></g><path d="m120.81 107.84h3.5422v-1.3117h-3.5422z" clip-path="url(#clipPath125514)" fill="#fff"/><g transform="matrix(.35278 0 0 -.35278 120.81 107.84)" clip-path="url(#clipPath125510)" fill="none" stroke="#231f20" stroke-linecap="round" stroke-linejoin="round" stroke-miterlimit="10" stroke-width=".25"><path d="m10.041 0h-10.041v3.7181h10.041z"/><path d="m0 0"/></g><g transform="matrix(.35278 0 0 -.35278 122.61 107.44)" clip-path="url(#clipPath125506)"><path d="M 0,0 1.367,1.564 H -1.367 L 0,0" fill="#231f20"/></g><g transform="matrix(.35278 0 0 -.35278 123.64 93.152)" clip-path="url(#clipPath125502)"><path d="m0 0h0.435v1.111h1.123v0.352h-1.123v0.658h1.281v0.369h-1.716v-2.49" fill="#231f20"/></g><g transform="matrix(.35278 0 0 -.35278 120.6 92.992)" clip-path="url(#clipPath125498)"><path d="m0 0c-0.072-0.067-0.173-0.103-0.306-0.103h-0.764v0.778h0.764c0.133 0 0.234-0.033 0.306-0.099 0.073-0.065 0.11-0.16 0.11-0.285s-0.037-0.223-0.11-0.291zm-1.07 1.684h0.701c0.117 2e-3 0.205-0.024 0.268-0.078 0.06-0.052 0.094-0.142 0.094-0.267-2e-3 -0.113-0.038-0.2-0.104-0.259-0.066-0.06-0.152-0.09-0.258-0.091h-0.701v0.695zm1.143-0.805v7e-3c0.113 0.049 0.201 0.118 0.261 0.209 0.063 0.089 0.092 0.198 0.094 0.325-4e-3 0.207-0.07 0.362-0.203 0.464-0.131 0.101-0.309 0.152-0.531 0.152h-1.201v-2.49h1.134c0.319 5e-3 0.551 0.07 0.696 0.198 0.146 0.128 0.218 0.292 0.216 0.492 0 0.17-0.039 0.311-0.119 0.423-0.078 0.112-0.195 0.185-0.347 0.22" fill="#231f20"/></g><g transform="matrix(.35278 0 0 -.35278 121.09 92.76)" clip-path="url(#clipPath125494)"><path d="m0 0h1.254v0.352h-1.254v0.658h1.354v0.369h-1.789v-2.49h1.814v0.368h-1.379v0.743" fill="#231f20"/></g><g transform="matrix(.35278 0 0 -.35278 122.51 92.404)" clip-path="url(#clipPath125490)"><path d="m0 0h0.787v-2.121h0.436v2.121h0.789v0.369h-2.012v-0.369" fill="#231f20"/></g><g transform="matrix(.35278 0 0 -.35278 121.96 92.803)" clip-path="url(#clipPath125486)"><path d="m0 0 0.377 1.071h0.01l0.373-1.071zm0.154 1.501-0.955-2.49h0.451l0.233 0.658h0.992l0.232-0.658h0.467l-0.957 2.49h-0.463" fill="#231f20"/></g><g transform="matrix(.35278 0 0 -.35278 124.84 92.697)" clip-path="url(#clipPath125482)"><path d="m0 0 0.821 1.2h-0.487l-0.587-0.88-0.565 0.88h-0.519l0.822-1.2-0.881-1.29h0.498l0.629 0.952 0.621-0.952h0.529l-0.881 1.29" fill="#231f20"/></g><g transform="matrix(.35278 0 0 -.35278 122.5 97.466)" clip-path="url(#clipPath125478)"><path d="m0 0h-0.33c0 0.451 0.246 0.785 0.7 0.785 0.496 0 0.652-0.364 0.652-0.624 0-0.323-0.219-0.524-0.453-0.686-0.235-0.162-0.481-0.287-0.539-0.467h0.99v-0.296h-1.389c4e-3 0.333 0.176 0.586 0.449 0.769 0.264 0.191 0.606 0.351 0.612 0.668 4e-3 0.145-0.059 0.359-0.342 0.359-0.262 0-0.34-0.222-0.35-0.508" fill="#231f20"/></g><g transform="matrix(.35278 0 0 -.35278 121.46 97.92)" clip-path="url(#clipPath125474)"><path d="m0 0h-0.363v1.434h-0.5v0.262c0.279-3e-3 0.543 0.092 0.594 0.337h0.269v-2.033" fill="#231f20"/></g><g transform="matrix(.35278 0 0 -.35278 123.5 98.247)" clip-path="url(#clipPath125470)"><path d="m0 0c-0.277 0-0.502-0.225-0.502-0.501 0-0.278 0.225-0.503 0.502-0.503 0.278 0 0.502 0.225 0.502 0.503 0 0.276-0.224 0.501-0.502 0.501" fill="#231f20"/></g><g transform="matrix(.35278 0 0 -.35278 122.61 98.247)" clip-path="url(#clipPath125466)"><path d="m0 0c-0.277 0-0.503-0.225-0.503-0.501 0-0.278 0.226-0.503 0.503-0.503 0.276 0 0.5 0.225 0.5 0.503 0 0.276-0.224 0.501-0.5 0.501" fill="#231f20"/></g><g transform="matrix(.35278 0 0 -.35278 121.73 98.247)" clip-path="url(#clipPath125462)"><path d="m0 0c-0.278 0-0.502-0.225-0.502-0.501 0-0.278 0.224-0.503 0.502-0.503 0.277 0 0.502 0.225 0.502 0.503 0 0.276-0.225 0.501-0.502 0.501" fill="#231f20"/></g><g transform="matrix(.35278 0 0 -.35278 123.21 105.57)" clip-path="url(#clipPath125458)"><path d="m0 0h-1.141v1.67h0.291v-1.419h0.85v-0.251" fill="#231f20"/></g><g transform="matrix(.35278 0 0 -.35278 122.08 105.15)" clip-path="url(#clipPath125454)"><path d="m0 0c-0.014 0.215-0.16 0.294-0.362 0.294-0.134 0-0.306-0.049-0.306-0.217 0-0.117 0.08-0.182 0.199-0.215l0.482-0.129c0.221-0.066 0.327-0.253 0.327-0.426 0-0.375-0.334-0.525-0.666-0.525-0.381 0-0.69 0.183-0.698 0.597h0.293c0-0.258 0.19-0.357 0.424-0.357 0.258 0 0.354 0.126 0.354 0.252 0 0.129-0.071 0.18-0.139 0.206-0.117 0.045-0.27 0.075-0.498 0.138-0.285 0.078-0.369 0.251-0.369 0.424 0 0.334 0.308 0.49 0.609 0.49 0.35 0 0.643-0.184 0.643-0.532h-0.293" fill="#231f20"/></g><g transform="matrix(.35278 0 0 -.35278 121.2 105.19)" clip-path="url(#clipPath125450)"><path d="m0 0 0.396 0.589h0.327l-0.551-0.804 0.592-0.866h-0.358l-0.416 0.638-0.424-0.638h-0.334l0.592 0.866-0.553 0.804h0.35l0.379-0.589" fill="#231f20"/></g><g transform="matrix(.35278 0 0 -.35278 123.39 105.31)" clip-path="url(#clipPath125446)"><path d="m0 0v-0.49h0.928v-0.251h-1.219v1.67h1.203v-0.252h-0.912v-0.438h0.844v-0.239h-0.844" fill="#231f20"/></g><g transform="matrix(.35278 0 0 -.35278 124.64 105.07)" clip-path="url(#clipPath125442)"><path d="m0 0v-1.418h-0.293v1.418h-0.529v0.252h1.353v-0.252h-0.531" fill="#231f20"/></g><g transform="matrix(.35278 0 0 -.35278 122.39 105.07)" clip-path="url(#clipPath125438)"><path d="m0 0v-0.438h0.844v-0.239h-0.844v-0.49h0.928v-0.251h-1.219v1.67h1.204v-0.252h-0.913" fill="#231f20"/></g><g transform="matrix(.35278 0 0 -.35278 120.87 105.31)" clip-path="url(#clipPath125434)"><path d="m0 0h-0.758v-0.741h-0.291v1.67h1.155v-0.252h-0.864v-0.438h0.758v-0.239" fill="#231f20"/></g><g transform="matrix(.35278 0 0 -.35278 124.21 105.34)" clip-path="url(#clipPath125430)"><path d="m0 0h0.285c-0.023-0.4-0.306-0.677-0.711-0.677-0.5 0-0.8 0.399-0.8 0.876s0.3 0.874 0.8 0.874c0.377-1e-3 0.674-0.209 0.709-0.57h-0.293c-0.048 0.193-0.171 0.332-0.416 0.332-0.357 0-0.507-0.315-0.507-0.636s0.15-0.636 0.507-0.636c0.26 0 0.403 0.194 0.426 0.437" fill="#231f20"/></g><g transform="matrix(.35278 0 0 -.35278 124.64 128.53)" clip-path="url(#clipPath125426)"><path d="m0 0v0.315h-1.426v-2.074h0.358v0.918h0.939v0.291h-0.939v0.55h1.068" fill="#231f20"/></g><g transform="matrix(.35278 0 0 -.35278 123.53 129.15)" clip-path="url(#clipPath125422)"><path d="m0 0h0.358v0.918h0.939v0.291h-0.939v0.55h1.07v0.316h-1.428v-2.075" fill="#231f20"/></g><g transform="matrix(.35278 0 0 -.35278 121.11 128.97)" clip-path="url(#clipPath125418)"><path d="m0 0c-0.102-0.158-0.262-0.241-0.485-0.249-0.22 8e-3 -0.382 0.091-0.484 0.249-0.099 0.157-0.15 0.341-0.148 0.551-2e-3 0.21 0.049 0.393 0.148 0.55 0.102 0.158 0.264 0.242 0.484 0.249 0.223-7e-3 0.383-0.091 0.485-0.249 0.101-0.157 0.15-0.34 0.148-0.55 2e-3 -0.21-0.047-0.394-0.148-0.551zm-0.485 1.641c-0.314-7e-3 -0.556-0.115-0.728-0.32-0.174-0.206-0.26-0.463-0.262-0.77 2e-3 -0.309 0.088-0.565 0.262-0.771 0.172-0.206 0.414-0.312 0.728-0.32 0.315 8e-3 0.559 0.114 0.731 0.32s0.258 0.462 0.262 0.771c-4e-3 0.307-0.09 0.564-0.262 0.77-0.172 0.205-0.416 0.313-0.731 0.32" fill="#231f20"/></g><g transform="matrix(.35278 0 0 -.35278 122.16 129.16)" clip-path="url(#clipPath125414)"><path d="M 0,0 H 0.317 L 1.145,2.181 H 0.83 L 0,0" fill="#231f20"/></g><g transform="matrix(.35278 0 0 -.35278 123.22 128.97)" clip-path="url(#clipPath125410)"><path d="m0 0c-0.1-0.158-0.262-0.241-0.482-0.249-0.223 8e-3 -0.383 0.091-0.485 0.249-0.101 0.157-0.15 0.341-0.148 0.551-2e-3 0.21 0.047 0.393 0.148 0.55 0.102 0.158 0.262 0.242 0.485 0.249 0.22-7e-3 0.382-0.091 0.482-0.249 0.102-0.157 0.152-0.34 0.15-0.55 2e-3 -0.21-0.048-0.394-0.15-0.551zm-0.482 1.641c-0.315-7e-3 -0.559-0.115-0.731-0.32-0.172-0.206-0.26-0.463-0.26-0.77 0-0.309 0.088-0.565 0.26-0.771s0.416-0.312 0.731-0.32c0.314 8e-3 0.556 0.114 0.728 0.32s0.26 0.462 0.262 0.771c-2e-3 0.307-0.09 0.564-0.262 0.77-0.172 0.205-0.414 0.313-0.728 0.32" fill="#231f20"/></g><g transform="matrix(.35278 0 0 -.35278 121.88 128.95)" clip-path="url(#clipPath125406)"><path d="m0 0h-8e-3l-0.955 1.529h-0.383v-2.075h0.344v1.526h0.01l0.953-1.526h0.382v2.075h-0.343v-1.529" fill="#231f20"/></g><g transform="matrix(.35278 0 0 -.35278 124.91 126.53)" clip-path="url(#clipPath125402)"><path d="m0 0h-4e-3l-0.459 1.3h-0.409v-1.661h0.276v1.281h4e-3l0.461-1.281h0.24l0.463 1.281h4e-3v-1.281h0.275v1.661h-0.402l-0.449-1.3" fill="#231f20"/></g><g transform="matrix(.35278 0 0 -.35278 125.47 126.43)" clip-path="url(#clipPath125398)"><path d="m0 0 0.25 0.712h5e-3l0.248-0.712zm0.099 1-0.638-1.661h0.302l0.156 0.44h0.661l0.156-0.44h0.312l-0.64 1.661h-0.309" fill="#231f20"/></g><g transform="matrix(.35278 0 0 -.35278 120.44 126.51)" clip-path="url(#clipPath125394)"><path d="m0 0h-4e-3l-0.765 1.224h-0.307v-1.661h0.275v1.221h8e-3l0.762-1.221h0.307v1.661h-0.276v-1.224" fill="#231f20"/></g><g transform="matrix(.35278 0 0 -.35278 119.42 126.53)" clip-path="url(#clipPath125390)"><path d="m0 0h-4e-3l-0.459 1.299h-0.408v-1.659h0.275v1.28h4e-3l0.463-1.28h0.24l0.461 1.28h4e-3v-1.28h0.278v1.659h-0.405l-0.449-1.299" fill="#231f20"/></g><path d="m119.84 126.66h0.10124v-0.586h-0.10124z" clip-path="url(#clipPath125386)" fill="#231f20"/><g transform="matrix(.35278 0 0 -.35278 126.2 126.36)" clip-path="url(#clipPath125382)"><path d="m0 0 0.549 0.797h-0.327l-0.392-0.584-0.377 0.584h-0.346l0.551-0.797-0.592-0.864h0.334l0.42 0.64 0.414-0.64h0.356l-0.59 0.864" fill="#231f20"/></g><g transform="matrix(.35278 0 0 -.35278 119.94 123.07)" clip-path="url(#clipPath125378)"><path d="m0 0c-0.795-3.452 0.842-7.006 3.982-8.643 0.084 0.145 0.168 0.291 0.252 0.435-2.943 1.524-4.486 4.846-3.748 8.078 0.736 3.233 3.565 5.558 6.879 5.655v0.502c-3.541-0.097-6.568-2.575-7.365-6.027" fill="#231f20"/></g><g transform="matrix(.35278 0 0 -.35278 122.27 120.44)" clip-path="url(#clipPath125374)"><path d="M 0,0 H 0.317 L 1.151,2.159 H 0.834 L 0,0" fill="#231f20"/></g><g transform="matrix(.35278 0 0 -.35278 125.28 123.07)" clip-path="url(#clipPath125370)"><path d="m0 0c-0.799 3.453-3.83 5.93-7.373 6.024v-0.503c3.191-0.09 5.951-2.249 6.805-5.326 0.853-3.077-0.399-6.35-3.086-8.072-0.192-0.116-0.381-0.232-0.573-0.347 0.083-0.142 0.163-0.282 0.245-0.423 3.14 1.638 4.779 5.195 3.982 8.647" fill="#231f20"/></g><g transform="matrix(.35278 0 0 -.35278 124.34 119.79)" clip-path="url(#clipPath125366)"><path d="m0 0h0.534c0.097 3e-3 0.179-0.02 0.248-0.07 0.068-0.051 0.101-0.145 0.105-0.281-4e-3 -0.133-0.045-0.225-0.119-0.277l-0.24-0.075h-0.528v0.703zm0-0.996h0.547c0.287 0.01 0.479 0.084 0.573 0.222 0.093 0.137 0.138 0.276 0.13 0.419 8e-3 0.143-0.037 0.285-0.13 0.424-0.094 0.138-0.286 0.214-0.573 0.224h-0.908v-2.075h0.361v0.786" fill="#231f20"/></g><g transform="matrix(.35278 0 0 -.35278 120.26 120.31)" clip-path="url(#clipPath125362)"><path d="m0 0h-1.15v0.619h1.045v0.292h-1.045v0.549h1.129v0.307h-1.491v-2.075h1.512v0.308" fill="#231f20"/></g><g transform="matrix(.35278 0 0 -.35278 122.16 120.31)" clip-path="url(#clipPath125358)"><path d="m0 0h-1.052v1.767h-0.362v-2.075h1.414v0.308" fill="#231f20"/></g><g transform="matrix(.35278 0 0 -.35278 119.63 120.31)" clip-path="url(#clipPath125354)"><path d="m0 0h-1.052v1.767h-0.364v-2.075h1.416v0.308" fill="#231f20"/></g><g transform="matrix(.35278 0 0 -.35278 125.62 120.09)" clip-path="url(#clipPath125350)"><path d="m0 0h0.941v-0.941h0.364v2.075h-0.364v-0.828h-0.941v0.828h-0.363v-2.075h0.363v0.941" fill="#231f20"/></g><g transform="matrix(.35278 0 0 -.35278 125.05 120.42)" clip-path="url(#clipPath125346)"><path d="m0 0h0.363v1.768h0.658v0.307h-1.677v-0.307h0.656v-1.768" fill="#231f20"/></g><g transform="matrix(.35278 0 0 -.35278 124.1 120.31)" clip-path="url(#clipPath125342)"><path d="m0 0h-1.149v0.62h1.043v0.293h-1.043v0.548h1.127v0.307h-1.49v-2.075h1.512v0.307" fill="#231f20"/></g><g transform="matrix(.35278 0 0 -.35278 122.96 120.32)" clip-path="url(#clipPath125338)"><path d="m0 0v1.488h0.356c0.275-5e-3 0.459-0.076 0.554-0.215 0.094-0.138 0.137-0.314 0.131-0.53 6e-3 -0.214-0.037-0.391-0.131-0.529-0.095-0.138-0.279-0.209-0.554-0.214h-0.356zm1.188 0.01c0.146 0.194 0.217 0.439 0.215 0.733 2e-3 0.295-0.069 0.54-0.215 0.736-0.149 0.193-0.379 0.294-0.694 0.302h-0.857v-2.075h0.857c0.315 8e-3 0.545 0.109 0.694 0.304" fill="#231f20"/></g><g transform="matrix(.35278 0 0 -.35278 120.7 120.42)" clip-path="url(#clipPath125334)"><path d="m0 0 0.707 2.075h-0.369l-0.531-1.641h-4e-3l-0.52 1.641h-0.379l0.692-2.075h0.404" fill="#231f20"/></g><g transform="matrix(.35278 0 0 -.35278 121.55 120.31)" clip-path="url(#clipPath125330)"><path d="m0 0h-1.149v0.619h1.045v0.292h-1.045v0.549h1.129v0.307h-1.49v-2.075h1.51v0.308" fill="#231f20"/></g><g transform="matrix(.35278 0 0 -.35278 122.18 112.63)" clip-path="url(#clipPath125326)"><path d="m0 0h1.045v0.293h-1.045v0.55h1.129v0.305h-1.492v-2.074h1.512v0.307h-1.149v0.619" fill="#231f20"/></g><g transform="matrix(.35278 0 0 -.35278 121.77 112.82)" clip-path="url(#clipPath125322)"><path d="m0 0c-0.061-0.057-0.145-0.086-0.256-0.086h-0.639v0.648h0.639c0.111 0 0.195-0.028 0.256-0.083 0.06-0.053 0.09-0.133 0.09-0.237 0-0.105-0.03-0.185-0.09-0.242zm-0.895 1.403h0.586c0.098 1e-3 0.172-0.02 0.223-0.065 0.053-0.044 0.078-0.118 0.078-0.223-2e-3 -0.095-0.031-0.166-0.086-0.216l-0.215-0.075h-0.586v0.579zm0.953-0.672v5e-3c0.096 0.041 0.168 0.1 0.219 0.175s0.078 0.166 0.078 0.272c-4e-3 0.172-0.058 0.301-0.168 0.385-0.109 0.086-0.257 0.127-0.445 0.127h-0.998v-2.075h0.943c0.266 5e-3 0.459 0.06 0.58 0.167 0.121 0.106 0.182 0.242 0.18 0.409 0 0.143-0.033 0.26-0.098 0.352-0.066 0.094-0.162 0.154-0.291 0.183" fill="#231f20"/></g><g transform="matrix(.35278 0 0 -.35278 123.31 112.22)" clip-path="url(#clipPath125318)"><path d="m0 0v-0.305h0.654v-1.769h0.363v1.769h0.658v0.305h-1.675" fill="#231f20"/></g><g transform="matrix(.35278 0 0 -.35278 122.9 112.66)" clip-path="url(#clipPath125314)"><path d="m0 0 0.312 0.892h8e-3l0.313-0.892zm0.127 1.249-0.795-2.075h0.375l0.193 0.55h0.828l0.194-0.55h0.388l-0.796 2.075h-0.387" fill="#231f20"/></g><g transform="matrix(.35278 0 0 -.35278 123.51 97.322)" clip-path="url(#clipPath125310)"><path d="m0 0v-0.262h0.5v-1.434h0.363v2.033h-0.27c-0.047-0.248-0.318-0.337-0.593-0.337" fill="#231f20"/></g><g transform="matrix(.35278 0 0 -.35278 125.28 97.409)" clip-path="url(#clipPath125306)"><path d="m0 0c0 0.26-0.156 0.624-0.654 0.624-0.453 0-0.7-0.334-0.7-0.785h0.331c9e-3 0.287 0.087 0.508 0.349 0.508 0.287 0 0.342-0.215 0.342-0.36-8e-3 -0.317-0.348-0.473-0.611-0.667-0.278-0.187-0.446-0.433-0.448-0.77h1.387v0.296h-0.988c0.109 0.363 0.992 0.502 0.992 1.154" fill="#231f20"/></g><g transform="matrix(.35278 0 0 -.35278 124.25 97.842)" clip-path="url(#clipPath125302)"><path d="m0 0c-0.194 0-0.334 0.124-0.334 0.348 0 0.247 0.197 0.314 0.32 0.389l0.406-0.506c-0.06-0.084-0.15-0.231-0.392-0.231zm0.119 1.655c0.129 0 0.213-0.101 0.213-0.238 0-0.166-0.12-0.253-0.245-0.337-0.078 0.102-0.189 0.209-0.189 0.346 0 0.138 0.096 0.229 0.221 0.229zm0.81-0.885h-0.291c-0.013-0.138-0.041-0.213-0.062-0.28l-0.323 0.39c0.2 0.107 0.375 0.278 0.375 0.525 0 0.333-0.25 0.496-0.517 0.496-0.283 0-0.508-0.194-0.508-0.494 0-0.182 0.102-0.312 0.209-0.452-0.242-0.125-0.477-0.308-0.477-0.601 0-0.386 0.27-0.616 0.653-0.616 0.244 0 0.428 0.084 0.582 0.273l0.187-0.232h0.407l-0.397 0.482c0.092 0.148 0.141 0.325 0.162 0.509" fill="#231f20"/></g><g transform="matrix(.35278 0 0 -.35278 126.01 116.81)" clip-path="url(#clipPath125298)"><path d="m0 0-0.141-0.141h-6.855l-0.139 0.141v1.973l0.139 0.14h6.855l0.141-0.14v-1.973zm-0.141 2.335h-6.855c-0.2 0-0.362-0.163-0.362-0.362v-1.973c0-0.199 0.162-0.362 0.362-0.362h6.855c0.199 0 0.361 0.163 0.361 0.362v1.973c0 0.199-0.162 0.362-0.361 0.362" fill="#231f20"/></g><g transform="matrix(.35278 0 0 -.35278 119.21 116.81)" clip-path="url(#clipPath125294)"><path d="m0 0v1.973l0.141 0.14h6.853l0.141-0.14v-1.973l-0.141-0.141h-6.853zm7.355 0v1.973c0 0.199-0.162 0.362-0.361 0.362h-6.853c-0.2 0-0.364-0.163-0.364-0.362v-1.973c0-0.199 0.164-0.362 0.364-0.362h6.853c0.199 0 0.361 0.163 0.361 0.362" fill="#231f20"/></g><g transform="matrix(.35278 0 0 -.35278 120.51 116.23)" clip-path="url(#clipPath125290)"><path d="m0 0h0.519v-1.394h0.287v1.394h0.522v0.248h-1.328v-0.248" fill="#231f20"/></g><g transform="matrix(.35278 0 0 -.35278 119.56 116.5)" clip-path="url(#clipPath125286)"><path d="m0 0 0.248 0.707h5e-3l0.247-0.707zm0.101 0.989-0.631-1.642h0.297l0.154 0.434h0.655l0.154-0.434h0.309l-0.633 1.642h-0.305" fill="#231f20"/></g><g transform="matrix(.35278 0 0 -.35278 120.35 116.48)" clip-path="url(#clipPath125282)"><path d="m0 0c0-0.221-0.016-0.476-0.389-0.476-0.371 0-0.387 0.255-0.387 0.476v0.957h-0.285v-1.052c0-0.42 0.268-0.629 0.672-0.629 0.406 0 0.676 0.209 0.676 0.629v1.052h-0.287v-0.957" fill="#231f20"/></g><g transform="matrix(.35278 0 0 -.35278 121.29 116.66)" clip-path="url(#clipPath125278)"><path d="m0 0c-0.352 0-0.499 0.31-0.499 0.626 0 0.314 0.147 0.625 0.499 0.625 0.351 0 0.5-0.311 0.5-0.625 0-0.316-0.149-0.626-0.5-0.626zm0 1.485c-0.493 0-0.788-0.39-0.788-0.859 0-0.47 0.295-0.86 0.788-0.86 0.492 0 0.787 0.39 0.787 0.86 0 0.469-0.295 0.859-0.787 0.859" fill="#231f20"/></g><g transform="matrix(.35278 0 0 -.35278 124.49 116.17)" clip-path="url(#clipPath125274)"><path d="m0 0h-1.33v-0.248h0.519v-1.394h0.288v1.394h0.523v0.248" fill="#231f20"/></g><g transform="matrix(.35278 0 0 -.35278 125.27 116.44)" clip-path="url(#clipPath125270)"><path d="m0 0h-0.422v0.542h0.426c0.152 0 0.283-0.054 0.283-0.271 0-0.206-0.158-0.271-0.287-0.271zm0.015 0.777h-0.724v-1.642h0.287v0.63h0.437c0.469-2e-3 0.559 0.302 0.559 0.504 0 0.205-0.09 0.508-0.559 0.508" fill="#231f20"/></g><g transform="matrix(.35278 0 0 -.35278 124.6 116.52)" clip-path="url(#clipPath125266)"><path d="m0 0 0.248 0.707h6e-3l0.246-0.707zm0.102 0.989-0.631-1.642h0.297l0.154 0.435h0.655l0.154-0.435h0.308l-0.63 1.642h-0.307" fill="#231f20"/></g><g transform="matrix(.35278 0 0 -.35278 125.35 136.05)" clip-path="url(#clipPath125262)"><path d="m0 0-0.143-0.14h-15.218l-0.138 0.14v1.974l0.138 0.14h15.218l0.143-0.14v-1.974zm-0.143 2.335h-15.218c-0.199 0-0.361-0.162-0.361-0.361v-1.974c0-0.199 0.162-0.361 0.361-0.361h15.218c0.201 0 0.361 0.162 0.361 0.361v1.974c0 0.199-0.16 0.361-0.361 0.361" fill="#231f20"/></g><g transform="matrix(.35278 0 0 -.35278 124.07 135.99)" clip-path="url(#clipPath125258)"><path d="m0 0h0.288v0.728h0.742v0.235h-0.742v0.43h0.845v0.249h-1.133v-1.642" fill="#231f20"/></g><g transform="matrix(.35278 0 0 -.35278 123.44 135.73)" clip-path="url(#clipPath125254)"><path d="m0 0h0.828v0.235h-0.828v0.43h0.894v0.249h-1.181v-1.642h1.199v0.248h-0.912v0.48" fill="#231f20"/></g><g transform="matrix(.35278 0 0 -.35278 122.39 135.76)" clip-path="url(#clipPath125250)"><path d="m0 0 0.248 0.705h8e-3l0.246-0.705zm0.102 0.989-0.631-1.642h0.297l0.154 0.434h0.656l0.153-0.434h0.308l-0.633 1.642h-0.304" fill="#231f20"/></g><g transform="matrix(.35278 0 0 -.35278 121.86 135.73)" clip-path="url(#clipPath125246)"><path d="m0 0h0.828v0.235h-0.828v0.43h0.895v0.249h-1.182v-1.642h1.197v0.248h-0.91v0.48" fill="#231f20"/></g><g transform="matrix(.35278 0 0 -.35278 120.88 135.73)" clip-path="url(#clipPath125242)"><path d="m0 0h0.829v0.235h-0.829v0.43h0.895v0.249h-1.182v-1.642h1.198v0.248h-0.911v0.48" fill="#231f20"/></g><g transform="matrix(.35278 0 0 -.35278 120.48 135.67)" clip-path="url(#clipPath125238)"><path d="m0 0h-0.471v0.514h0.467c0.151 0 0.285-0.041 0.285-0.251 0-0.172-0.097-0.263-0.281-0.263zm0.297-0.114v5e-3c0.053 0.018 0.271 0.099 0.271 0.414 0 0.278-0.183 0.444-0.543 0.444h-0.783v-1.642h0.287v0.676h0.424c0.264 0 0.326-0.134 0.326-0.436l0.043-0.24h0.309c-0.063 0.066-0.09 0.24-0.09 0.432 0 0.259-0.144 0.333-0.244 0.347" fill="#231f20"/></g><g transform="matrix(.35278 0 0 -.35278 121.39 135.41)" clip-path="url(#clipPath125234)"><path d="m0 0h-0.287v-1.642h1.123v0.248h-0.836v1.394" fill="#231f20"/></g><g transform="matrix(.35278 0 0 -.35278 125 135.41)" clip-path="url(#clipPath125230)"><path d="m0 0h-0.322l-0.387-0.581-0.373 0.581h-0.344l0.543-0.791-0.582-0.851h0.33l0.416 0.628 0.408-0.628h0.35l-0.58 0.851 0.541 0.791" fill="#231f20"/></g><g transform="matrix(.35278 0 0 -.35278 123.13 135.67)" clip-path="url(#clipPath125226)"><path d="m0 0-0.472 0.127c-0.118 0.033-0.198 0.097-0.198 0.212 0 0.165 0.168 0.214 0.303 0.214 0.197 0 0.34-0.079 0.354-0.29h0.287c0 0.343-0.287 0.525-0.629 0.525-0.297 0-0.602-0.155-0.602-0.483 0-0.171 0.082-0.342 0.364-0.417 0.226-0.061 0.375-0.093 0.49-0.136 0.066-0.025 0.136-0.075 0.136-0.202 0-0.124-0.095-0.249-0.347-0.249-0.231 0-0.418 0.1-0.418 0.352h-0.287c8e-3 -0.406 0.31-0.586 0.685-0.586 0.326 0 0.655 0.147 0.655 0.516 0 0.169-0.104 0.354-0.321 0.417" fill="#231f20"/></g><g transform="matrix(.35278 0 0 -.35278 120.69 114.29)" clip-path="url(#clipPath125222)"><path d="M 0,0 V -1.507 L -1.883,-0.754 0,0" fill="#231f20"/></g><g transform="matrix(.35278 0 0 -.35278 124.49 114.29)" clip-path="url(#clipPath125218)"><path d="M 0,0 V -1.507 L 1.881,-0.754 0,0" fill="#231f20"/></g><g transform="matrix(.35278 0 0 -.35278 121.35 108.9)" clip-path="url(#clipPath125214)"><path d="m0 0 0.139 0.141h6.846l0.14-0.141v-1.97l-0.14-0.14h-6.846l-0.139 0.14v1.97zm0.139-2.331h6.846c0.199 0 0.361 0.162 0.361 0.361v1.97c0 0.199-0.162 0.361-0.361 0.361h-6.846c-0.197 0-0.361-0.162-0.361-0.361v-1.97c0-0.199 0.164-0.361 0.361-0.361" fill="#231f20"/></g><g transform="matrix(.35278 0 0 -.35278 122.61 108.99)" clip-path="url(#clipPath125210)"><path d="M 0,0 -1.16,-1.328 H 1.16 L 0,0" fill="#231f20"/></g><g transform="matrix(.35278 0 0 -.35278 120.74 124.77)" clip-path="url(#clipPath125206)"><path d="m0 0c-1.722 2.984-0.699 6.8 2.283 8.524 2.987 1.724 6.803 0.7 8.526-2.284 1.722-2.986 0.701-6.801-2.285-8.525-2.983-1.722-6.801-0.7-8.524 2.285" fill="#fff"/></g><g transform="matrix(.35278 0 0 -.35278 120.74 124.77)" clip-path="url(#clipPath125202)"><path d="m0 0c-1.722 2.984-0.699 6.8 2.283 8.524 2.987 1.724 6.803 0.7 8.526-2.284 1.722-2.986 0.701-6.801-2.285-8.525-2.983-1.722-6.801-0.7-8.524 2.285z" fill="none" stroke="#231f20" stroke-linecap="round" stroke-linejoin="round" stroke-miterlimit="10" stroke-width=".35"/></g><g transform="matrix(.35278 0 0 -.35278 121.52 124.31)" clip-path="url(#clipPath125198)"><path d="m0 0c-1.018 1.763-0.414 4.015 1.348 5.031 1.761 1.018 4.015 0.414 5.031-1.348 1.018-1.761 0.414-4.014-1.348-5.031-1.761-1.017-4.015-0.414-5.031 1.348z" fill="none" stroke="#231f20" stroke-linecap="round" stroke-linejoin="round" stroke-miterlimit="10" stroke-width=".25"/></g><g transform="matrix(.35278 0 0 -.35278 123.75 125)" clip-path="url(#clipPath125194)"><path d="m0 0c-0.263 0.025-0.533-2e-3 -0.781-0.143-0.246-0.139-0.41-0.356-0.523-0.594l-0.606 1.048c0.113 0.238 0.276 0.457 0.52 0.6 0.246 0.141 0.515 0.172 0.779 0.149l0.611-1.06" fill="#fff"/></g><g transform="matrix(.35278 0 0 -.35278 123.75 125)" clip-path="url(#clipPath125190)"><path d="m0 0c-0.263 0.025-0.533-2e-3 -0.781-0.143-0.246-0.139-0.41-0.356-0.523-0.594l-0.606 1.048c0.113 0.238 0.276 0.457 0.52 0.6 0.246 0.141 0.515 0.172 0.779 0.149z" fill="none" stroke="#231f20" stroke-linecap="round" stroke-linejoin="round" stroke-miterlimit="10" stroke-width=".25"/></g><g transform="matrix(.35278 0 0 -.35278 124.27 124.27)" clip-path="url(#clipPath125186)"><path d="m0 0c-0.24-0.11-0.459-0.27-0.604-0.514-0.144-0.244-0.177-0.514-0.158-0.776l-1.045 0.605c-0.023 0.263 8e-3 0.532 0.149 0.778 0.142 0.247 0.361 0.408 0.599 0.52l1.059-0.613" fill="#fff"/></g><g transform="matrix(.35278 0 0 -.35278 124.27 124.27)" clip-path="url(#clipPath125182)"><path d="m0 0c-0.24-0.11-0.459-0.27-0.604-0.514-0.144-0.244-0.177-0.514-0.158-0.776l-1.045 0.605c-0.023 0.263 8e-3 0.532 0.149 0.778 0.142 0.247 0.361 0.408 0.599 0.52z" fill="none" stroke="#231f20" stroke-linecap="round" stroke-linejoin="round" stroke-miterlimit="10" stroke-width=".25"/></g><g transform="matrix(.35278 0 0 -.35278 124.35 123.38)" clip-path="url(#clipPath125178)"><path d="m0 0c-0.152-0.215-0.261-0.462-0.265-0.747-2e-3 -0.283 0.103-0.533 0.252-0.751l-1.209 1e-3c-0.151 0.216-0.26 0.465-0.26 0.75 0 0.283 0.109 0.531 0.26 0.749l1.222-2e-3" fill="#fff"/></g><g transform="matrix(.35278 0 0 -.35278 124.35 123.38)" clip-path="url(#clipPath125174)"><path d="m0 0c-0.152-0.215-0.261-0.462-0.265-0.747-2e-3 -0.283 0.103-0.533 0.252-0.751l-1.209 1e-3c-0.151 0.216-0.26 0.465-0.26 0.75 0 0.283 0.109 0.531 0.26 0.749z" fill="none" stroke="#231f20" stroke-linecap="round" stroke-linejoin="round" stroke-miterlimit="10" stroke-width=".25"/></g><g transform="matrix(.35278 0 0 -.35278 123.98 122.56)" clip-path="url(#clipPath125170)"><path d="m0 0c-0.024-0.262 4e-3 -0.532 0.142-0.779 0.141-0.248 0.358-0.411 0.594-0.525l-1.047-0.604c-0.238 0.113-0.457 0.273-0.599 0.52-0.143 0.246-0.172 0.514-0.151 0.778l1.061 0.61" fill="#fff"/></g><g transform="matrix(.35278 0 0 -.35278 123.98 122.56)" clip-path="url(#clipPath125166)"><path d="m0 0c-0.024-0.262 4e-3 -0.532 0.142-0.779 0.141-0.248 0.358-0.411 0.594-0.525l-1.047-0.604c-0.238 0.113-0.457 0.273-0.599 0.52-0.143 0.246-0.172 0.514-0.151 0.778z" fill="none" stroke="#231f20" stroke-linecap="round" stroke-linejoin="round" stroke-miterlimit="10" stroke-width=".25"/></g><g transform="matrix(.35278 0 0 -.35278 123.25 122.04)" clip-path="url(#clipPath125162)"><path d="m0 0c0.11-0.24 0.27-0.46 0.514-0.604s0.514-0.178 0.777-0.158l-0.605-1.046c-0.264-0.023-0.533 8e-3 -0.779 0.15s-0.407 0.359-0.52 0.599l0.613 1.059" fill="#fff"/></g><g transform="matrix(.35278 0 0 -.35278 123.25 122.04)" clip-path="url(#clipPath125158)"><path d="m0 0c0.11-0.24 0.27-0.46 0.514-0.604s0.514-0.178 0.777-0.158l-0.605-1.046c-0.264-0.023-0.533 8e-3 -0.779 0.15s-0.407 0.359-0.52 0.599z" fill="none" stroke="#231f20" stroke-linecap="round" stroke-linejoin="round" stroke-miterlimit="10" stroke-width=".25"/></g><g transform="matrix(.35278 0 0 -.35278 121.54 122.33)" clip-path="url(#clipPath125154)"><path d="m0 0c0.261-0.026 0.531 2e-3 0.779 0.142 0.246 0.139 0.41 0.357 0.525 0.594l0.604-1.048c-0.113-0.239-0.274-0.457-0.52-0.599s-0.515-0.172-0.779-0.15l-0.609 1.061" fill="#fff"/></g><g transform="matrix(.35278 0 0 -.35278 121.54 122.33)" clip-path="url(#clipPath125150)"><path d="m0 0c0.261-0.026 0.531 2e-3 0.779 0.142 0.246 0.139 0.41 0.357 0.525 0.594l0.604-1.048c-0.113-0.239-0.274-0.457-0.52-0.599s-0.515-0.172-0.779-0.15z" fill="none" stroke="#231f20" stroke-linecap="round" stroke-linejoin="round" stroke-miterlimit="10" stroke-width=".25"/></g><g transform="matrix(.35278 0 0 -.35278 121.02 123.06)" clip-path="url(#clipPath125146)"><path d="m0 0c0.24 0.111 0.461 0.269 0.605 0.514 0.145 0.245 0.178 0.514 0.159 0.778l1.047-0.607c0.021-0.263-0.01-0.532-0.151-0.778-0.142-0.246-0.361-0.407-0.599-0.519l-1.061 0.612" fill="#fff"/></g><g transform="matrix(.35278 0 0 -.35278 121.02 123.06)" clip-path="url(#clipPath125142)"><path d="m0 0c0.24 0.111 0.461 0.269 0.605 0.514 0.145 0.245 0.178 0.514 0.159 0.778l1.047-0.607c0.021-0.263-0.01-0.532-0.151-0.778-0.142-0.246-0.361-0.407-0.599-0.519z" fill="none" stroke="#231f20" stroke-linecap="round" stroke-linejoin="round" stroke-miterlimit="10" stroke-width=".25"/></g><g transform="matrix(.35278 0 0 -.35278 120.94 123.95)" clip-path="url(#clipPath125138)"><path d="m0 0c0.152 0.215 0.261 0.463 0.265 0.746 2e-3 0.286-0.103 0.535-0.252 0.752l1.209-1e-3c0.151-0.215 0.26-0.465 0.26-0.749s-0.109-0.532-0.26-0.75l-1.222 2e-3" fill="#fff"/></g><g transform="matrix(.35278 0 0 -.35278 120.94 123.95)" clip-path="url(#clipPath125134)"><path d="m0 0c0.152 0.215 0.261 0.463 0.265 0.746 2e-3 0.286-0.103 0.535-0.252 0.752l1.209-1e-3c0.151-0.215 0.26-0.465 0.26-0.749s-0.109-0.532-0.26-0.75z" fill="none" stroke="#231f20" stroke-linecap="round" stroke-linejoin="round" stroke-miterlimit="10" stroke-width=".25"/></g><g transform="matrix(.35278 0 0 -.35278 121.31 124.77)" clip-path="url(#clipPath125130)"><path d="m0 0c0.026 0.263-4e-3 0.532-0.142 0.78-0.141 0.247-0.358 0.41-0.594 0.525l1.047 0.603c0.238-0.111 0.457-0.273 0.599-0.519 0.143-0.246 0.172-0.515 0.149-0.779l-1.059-0.61" fill="#fff"/></g><g transform="matrix(.35278 0 0 -.35278 121.31 124.77)" clip-path="url(#clipPath125126)"><path d="m0 0c0.026 0.263-4e-3 0.532-0.142 0.78-0.141 0.247-0.358 0.41-0.594 0.525l1.047 0.603c0.238-0.111 0.457-0.273 0.599-0.519 0.143-0.246 0.172-0.515 0.149-0.779z" fill="none" stroke="#231f20" stroke-linecap="round" stroke-linejoin="round" stroke-miterlimit="10" stroke-width=".25"/></g><g transform="matrix(.35278 0 0 -.35278 122.04 125.29)" clip-path="url(#clipPath125122)"><path d="m0 0c-0.11 0.24-0.268 0.46-0.514 0.605-0.244 0.143-0.514 0.177-0.777 0.158l0.605 1.046c0.264 0.022 0.533-8e-3 0.779-0.151 0.246-0.141 0.408-0.36 0.52-0.599l-0.613-1.059" fill="#fff"/></g><g transform="matrix(.35278 0 0 -.35278 122.04 125.29)" clip-path="url(#clipPath125118)"><path d="m0 0c-0.11 0.24-0.268 0.46-0.514 0.605-0.244 0.143-0.514 0.177-0.777 0.158l0.605 1.046c0.264 0.022 0.533-8e-3 0.779-0.151 0.246-0.141 0.408-0.36 0.52-0.599z" fill="none" stroke="#231f20" stroke-linecap="round" stroke-linejoin="round" stroke-miterlimit="10" stroke-width=".25"/></g><g transform="matrix(.35278 0 0 -.35278 122.93 125.37)" clip-path="url(#clipPath125114)"><path d="m0 0c-0.215 0.153-0.463 0.264-0.746 0.266-0.285 3e-3 -0.535-0.103-0.752-0.251l2e-3 1.209c0.215 0.151 0.465 0.259 0.748 0.259s0.533-0.108 0.75-0.259l-2e-3 -1.224" fill="#fff"/></g><g transform="matrix(.35278 0 0 -.35278 122.93 125.37)" clip-path="url(#clipPath125110)"><path d="m0 0c-0.215 0.153-0.463 0.264-0.746 0.266-0.285 3e-3 -0.535-0.103-0.752-0.251l2e-3 1.209c0.215 0.151 0.465 0.259 0.748 0.259s0.533-0.108 0.75-0.259z" fill="none" stroke="#231f20" stroke-linecap="round" stroke-linejoin="round" stroke-miterlimit="10" stroke-width=".25"/></g><g transform="matrix(.35278 0 0 -.35278 124.17 122.79)" clip-path="url(#clipPath125106)"><path d="m0 0c-0.553 0.958-1.379 1.658-2.32 2.069-0.129 0.206-0.485 0.683-1.065 0.752h-0.537l-0.143 0.295h-0.669l-0.143-0.295h-0.537c-0.742-0.088-1.121-0.85-1.121-0.85h0.013c-0.095-0.047-0.193-0.093-0.287-0.147-2.384-1.377-3.201-4.426-1.824-6.81 1.375-2.383 4.426-3.201 6.809-1.825 2.384 1.377 3.201 4.426 1.824 6.811z" fill="none" stroke="#231f20" stroke-linecap="round" stroke-linejoin="round" stroke-miterlimit="10" stroke-width=".5"/></g><g transform="matrix(.35278 0 0 -.35278 122.45 123.68)" clip-path="url(#clipPath125102)"><path d="m0 0c0-0.263 0.213-0.477 0.476-0.477 0.264 0 0.479 0.214 0.479 0.477v5.508c0 0.161-0.215 0.291-0.479 0.291-0.263 0-0.476-0.13-0.476-0.291v-5.508" fill="#fff"/></g><g transform="matrix(.35278 0 0 -.35278 122.45 123.68)" clip-path="url(#clipPath125098)"><path d="m0 0c0-0.263 0.213-0.477 0.476-0.477 0.264 0 0.479 0.214 0.479 0.477v5.508c0 0.161-0.215 0.291-0.479 0.291-0.263 0-0.476-0.13-0.476-0.291z" fill="none" stroke="#231f20" stroke-linecap="round" stroke-linejoin="round" stroke-miterlimit="10" stroke-width=".25"/></g></g><path d="m14.898 9.2388h-5.9475" fill="none" stroke="#fff" stroke-linecap="round" stroke-linejoin="round" stroke-width=".4"/><path d="m15.071 16.457h-7.2178" fill="none" stroke="#fff" stroke-linecap="round" stroke-linejoin="round" stroke-width=".4"/><path d="m15.186 20.325h-10.682v3.0026" fill="none" stroke="#fff" stroke-linecap="round" stroke-linejoin="round" stroke-width=".4"/><path d="m15.071 23.732h-5.3123" fill="none" stroke="#fff" stroke-linecap="round" stroke-linejoin="round" stroke-width=".4"/><g transform="matrix(.29537 0 0 .29537 15.645 8.3372)"><rect x="-2.9663" y="-2.4122" width="9.1597" height="9.1597" stroke-width="0"/><text x="-0.88412476" y="5.9459152" fill="#ffffff" font-family="sans-serif" font-size="10.583px" letter-spacing="0px" stroke-width=".26458" word-spacing="0px" style="font-variant-caps:normal;font-variant-east-asian:normal;font-variant-ligatures:normal;font-variant-numeric:normal;line-height:1.25" xml:space="preserve"><tspan x="-0.88412476" y="5.9459152" fill="#ffffff" font-family="sans-serif" font-size="10.583px" stroke-width=".26458" style="font-variant-caps:normal;font-variant-east-asian:normal;font-variant-ligatures:normal;font-variant-numeric:normal">1</tspan></text></g><path d="m15.128 32.74h-7.7375" fill="none" stroke="#fff" stroke-linecap="round" stroke-linejoin="round" stroke-width=".4"/><g transform="matrix(.29537 0 0 .29537 15.645 15.724)"><rect x="-2.9663" y="-2.4122" width="9.1597" height="9.1597" stroke-width="0"/><text x="-0.88412476" y="5.9459152" fill="#ffffff" font-family="sans-serif" font-size="10.583px" letter-spacing="0px" stroke-width=".26458" word-spacing="0px" style="font-variant-caps:normal;font-variant-east-asian:normal;font-variant-ligatures:normal;font-variant-numeric:normal;line-height:1.25" xml:space="preserve"><tspan x="-0.88412476" y="5.9459152" fill="#ffffff" font-family="sans-serif" font-size="10.583px" stroke-width=".26458" style="font-variant-caps:normal;font-variant-east-asian:normal;font-variant-ligatures:normal;font-variant-numeric:normal">2</tspan></text></g><path d="m15.128 41.459h-7.2178" fill="none" stroke="#fff" stroke-linecap="round" stroke-linejoin="round" stroke-width=".4"/><g transform="matrix(.29537 0 0 .29537 15.645 19.644)"><rect x="-2.9663" y="-2.4122" width="9.1597" height="9.1597" stroke-width="0"/><text x="-0.88412476" y="5.9459152" fill="#ffffff" font-family="sans-serif" font-size="10.583px" letter-spacing="0px" stroke-width=".26458" word-spacing="0px" style="font-variant-caps:normal;font-variant-east-asian:normal;font-variant-ligatures:normal;font-variant-numeric:normal;line-height:1.25" xml:space="preserve"><tspan x="-0.88412476" y="5.9459152" fill="#ffffff" font-family="sans-serif" font-size="10.583px" stroke-width=".26458" style="font-variant-caps:normal;font-variant-east-asian:normal;font-variant-ligatures:normal;font-variant-numeric:normal">3</tspan></text></g><path d="m14.898 9.2388h-5.9475" fill="none" stroke="#000" stroke-linecap="round" stroke-linejoin="round" stroke-width=".2"/><g transform="matrix(.29537 0 0 .29537 15.645 23.111)"><rect x="-2.9663" y="-2.4122" width="9.1597" height="9.1597" stroke-width="0"/><text x="-0.88412476" y="5.9459152" fill="#ffffff" font-family="sans-serif" font-size="10.583px" letter-spacing="0px" stroke-width=".26458" word-spacing="0px" style="font-variant-caps:normal;font-variant-east-asian:normal;font-variant-ligatures:normal;font-variant-numeric:normal;line-height:1.25" xml:space="preserve"><tspan x="-0.88412476" y="5.9459152" fill="#ffffff" font-family="sans-serif" font-size="10.583px" stroke-width=".26458" style="font-variant-caps:normal;font-variant-east-asian:normal;font-variant-ligatures:normal;font-variant-numeric:normal">4</tspan></text></g><path d="m15.071 16.457h-7.2178" fill="none" stroke="#000" stroke-linecap="round" stroke-linejoin="round" stroke-width=".2"/><g transform="matrix(.29537 0 0 .29537 15.645 32.081)"><rect x="-2.9663" y="-2.4122" width="9.1597" height="9.1597" stroke-width="0"/><text x="-0.88412476" y="5.9459152" fill="#ffffff" font-family="sans-serif" font-size="10.583px" letter-spacing="0px" stroke-width=".26458" word-spacing="0px" style="font-variant-caps:normal;font-variant-east-asian:normal;font-variant-ligatures:normal;font-variant-numeric:normal;line-height:1.25" xml:space="preserve"><tspan x="-0.88412476" y="5.9459152" fill="#ffffff" font-family="sans-serif" font-size="10.583px" stroke-width=".26458" style="font-variant-caps:normal;font-variant-east-asian:normal;font-variant-ligatures:normal;font-variant-numeric:normal">5</tspan></text></g><path d="m15.186 20.325h-10.682v3.0026" fill="none" stroke="#000" stroke-linecap="round" stroke-linejoin="round" stroke-width=".2"/><g transform="matrix(.29537 0 0 .29537 15.645 40.824)"><rect x="-2.9663" y="-2.4122" width="9.1597" height="9.1597" stroke-width="0"/><text x="-0.88412476" y="5.9459152" fill="#ffffff" font-family="sans-serif" font-size="10.583px" letter-spacing="0px" stroke-width=".26458" word-spacing="0px" style="font-variant-caps:normal;font-variant-east-asian:normal;font-variant-ligatures:normal;font-variant-numeric:normal;line-height:1.25" xml:space="preserve"><tspan x="-0.88412476" y="5.9459152" fill="#ffffff" font-family="sans-serif" font-size="10.583px" stroke-width=".26458" style="font-variant-caps:normal;font-variant-east-asian:normal;font-variant-ligatures:normal;font-variant-numeric:normal">6</tspan></text></g><path d="m15.071 23.732h-5.3123" fill="none" stroke="#000" stroke-linecap="round" stroke-linejoin="round" stroke-width=".2"/><path d="m15.128 32.74h-7.7375" fill="none" stroke="#000" stroke-linecap="round" stroke-linejoin="round" stroke-width=".2"/><path d="m15.128 41.459h-7.2178" fill="none" stroke="#000" stroke-linecap="round" stroke-linejoin="round" stroke-width=".2"/></svg>
