<?xml version="1.0" encoding="UTF-8"?>
<svg width="55.642mm" height="20.602mm" version="1.1" viewBox="0 0 55.642 20.602" xmlns="http://www.w3.org/2000/svg"><defs><clipPath id="b"><path d="m79.807 623.92h130.86v52.06h-130.86z"/></clipPath><clipPath id="a"><path d="m66.414 623.92h157.72v58.4h-157.72z"/></clipPath></defs><g transform="translate(-59.87 -56.979)"><g transform="matrix(.35278 0 0 -.35278 36.44 297.69)"><g clip-path="url(#b)"><g transform="translate(246.66 663.85)"><path d="m0 0c0.904 0 1.639-0.732 1.639-1.636v-1.093h1.09v1.093c0 0.904 0.732 1.636 1.636 1.636h221.44c0.904 0 1.638-0.732 1.638-1.636v-359.52c0-1.734-1.406-3.138-3.138-3.138h-218.44c-1.732 0-3.138 1.406-3.138 3.138v0.955h-1.09v-0.955c0-1.734-1.407-3.138-3.139-3.138h-199.75c-1.732 0-3.139 1.404-3.139 3.138v0.955h-1.091v-0.955c0-1.732-1.405-3.138-3.137-3.138h-218.44c-1.734 0-3.138 1.404-3.138 3.138v359.52c0 0.904 0.732 1.636 1.638 1.636h221.44c0.906 0 1.637-0.732 1.637-1.636v-1.093h1.091v1.093c0 0.904 0.733 1.636 1.639 1.636z" fill="#dcdcdc"/><path d="m0 0c0.904 0 1.639-0.732 1.639-1.636v-1.093h1.09v1.093c0 0.904 0.732 1.636 1.636 1.636h221.44c0.904 0 1.638-0.732 1.638-1.636v-359.52c0-1.734-1.406-3.138-3.138-3.138h-218.44c-1.732 0-3.138 1.406-3.138 3.138v0.955h-1.09v-0.955c0-1.734-1.407-3.138-3.139-3.138h-199.75c-1.732 0-3.139 1.404-3.139 3.138v0.955h-1.091v-0.955c0-1.732-1.405-3.138-3.137-3.138h-218.44c-1.734 0-3.138 1.404-3.138 3.138v359.52c0 0.904 0.732 1.636 1.638 1.636h221.44c0.906 0 1.637-0.732 1.637-1.636v-1.093h1.091v1.093c0 0.904 0.733 1.636 1.639 1.636z" fill="none" stroke="#000" stroke-linecap="round" stroke-linejoin="round" stroke-width=".5"/></g><g transform="translate(246.66 663.17)"><path d="m0 0c0.528 0 0.956-0.428 0.956-0.954v-359.84c0-1.357-1.101-2.455-2.456-2.455h-199.75c-1.357 0-2.456 1.098-2.456 2.455v359.84c0 0.526 0.428 0.954 0.956 0.954z" fill="none" stroke="#000" stroke-linecap="round" stroke-linejoin="round" stroke-width=".25"/></g><g transform="translate(110.95 636.61)"><path d="m0 0c0-0.335-0.272-0.608-0.608-0.608h-18.743c-0.335 0-0.608 0.273-0.608 0.608v7.858c0 0.336 0.273 0.609 0.608 0.609h18.743c0.336 0 0.608-0.273 0.608-0.609z" fill="#fff"/><path d="m0 0c0-0.335-0.272-0.608-0.608-0.608h-18.743c-0.335 0-0.608 0.273-0.608 0.608v7.858c0 0.336 0.273 0.609 0.608 0.609h18.743c0.336 0 0.608-0.273 0.608-0.609z" fill="none" stroke="#000" stroke-linecap="round" stroke-linejoin="round" stroke-width=".5"/></g><g transform="translate(109.9 637.26)"><path d="m0 0c0-0.159-0.133-0.293-0.296-0.293h-17.328c-0.159 0-0.294 0.134-0.294 0.293v6.459c0 0.158 0.135 0.294 0.294 0.294h17.328c0.163 0 0.296-0.136 0.296-0.294z" fill="none" stroke="#000" stroke-linecap="round" stroke-linejoin="round" stroke-width=".25"/></g><g transform="translate(199.64 636.61)"><path d="m0 0c0-0.335-0.273-0.608-0.608-0.608h-18.743c-0.335 0-0.608 0.273-0.608 0.608v7.858c0 0.336 0.273 0.609 0.608 0.609h18.743c0.335 0 0.608-0.273 0.608-0.609z" fill="#fff"/><path d="m0 0c0-0.335-0.273-0.608-0.608-0.608h-18.743c-0.335 0-0.608 0.273-0.608 0.608v7.858c0 0.336 0.273 0.609 0.608 0.609h18.743c0.335 0 0.608-0.273 0.608-0.609z" fill="none" stroke="#000" stroke-linecap="round" stroke-linejoin="round" stroke-width=".5"/></g><g transform="translate(198.59 637.26)"><path d="m0 0c0-0.159-0.132-0.293-0.293-0.293h-17.328c-0.161 0-0.294 0.134-0.294 0.293v6.459c0 0.158 0.133 0.294 0.294 0.294h17.328c0.161 0 0.293-0.136 0.293-0.294z" fill="none" stroke="#000" stroke-linecap="round" stroke-linejoin="round" stroke-width=".25"/></g><g transform="translate(93.325 632.7)"><path d="m0 0c-0.227 0-0.411-0.183-0.411-0.407v-6.608c0-0.224 0.184-0.407 0.411-0.407h15.229c0.225 0 0.412 0.183 0.412 0.407v6.608c0 0.224-0.187 0.407-0.412 0.407z"/></g><g transform="translate(115.1 644.66)"><path d="m0 0h15.417c0.146 0 0.206-0.059 0.206-0.204 0-0.146-0.06-0.207-0.206-0.207h-15.417c-0.145 0-0.205 0.061-0.205 0.207 0 0.145 0.06 0.204 0.205 0.204"/></g><g transform="translate(138.4 630.83)"><path d="m0 0c-0.227 0-0.411-0.185-0.411-0.411v-3.218c0-0.227 0.184-0.412 0.411-0.412h13.762c0.223 0 0.406 0.185 0.406 0.412v3.218c0 0.226-0.183 0.411-0.406 0.411z"/></g><g transform="translate(182.75 632.7)"><path d="m0 0c-0.227 0-0.409-0.183-0.409-0.407v-3.222c0-0.225 0.182-0.407 0.409-0.407h13.759c0.224 0 0.411 0.182 0.411 0.407v3.222c0 0.224-0.187 0.407-0.411 0.407z"/></g><g transform="translate(175.54 644.66)"><path d="m0 0h-15.415c-0.147 0-0.208-0.059-0.208-0.204 0-0.146 0.061-0.207 0.208-0.207h15.415c0.146 0 0.207 0.061 0.207 0.207 0 0.145-0.061 0.204-0.207 0.204"/></g><g transform="translate(96.67 651.69)"><path d="m0 0h-0.594v-3.386h2.312v0.501h-1.718z"/></g><g transform="translate(101.01 649.12)"><path d="m0 0c-0.164-0.252-0.424-0.386-0.78-0.401-0.358 0.015-0.617 0.149-0.779 0.401-0.162 0.251-0.244 0.547-0.241 0.885-3e-3 0.334 0.079 0.632 0.241 0.884 0.162 0.253 0.421 0.385 0.779 0.398 0.356-0.013 0.616-0.145 0.78-0.398 0.163-0.252 0.243-0.55 0.241-0.884 2e-3 -0.338-0.078-0.634-0.241-0.885m-0.78 2.643c-0.504-0.013-0.899-0.185-1.18-0.52-0.285-0.331-0.428-0.747-0.432-1.238 4e-3 -0.497 0.147-0.912 0.432-1.246 0.281-0.331 0.676-0.503 1.18-0.516 0.505 0.013 0.901 0.185 1.182 0.516 0.282 0.334 0.424 0.749 0.43 1.246-6e-3 0.491-0.148 0.907-0.43 1.238-0.281 0.335-0.677 0.507-1.182 0.52"/></g><g transform="translate(103.08 649.65)"><path d="m0 0 0.512 1.456h0.014l0.506-1.456zm0.21 2.039-1.297-3.386h0.608l0.32 0.896h1.348l0.317-0.896h0.634l-1.301 3.386z"/></g><g transform="translate(107.63 649.13)"><path d="m0 0c-0.155-0.227-0.457-0.342-0.906-0.351h-0.579v2.43h0.579c0.449-7e-3 0.751-0.122 0.906-0.349 0.153-0.226 0.223-0.516 0.214-0.864 9e-3 -0.352-0.061-0.639-0.214-0.866m0.451 2.064c-0.241 0.315-0.614 0.48-1.131 0.493h-1.396v-3.386h1.396c0.517 0.013 0.89 0.179 1.131 0.496 0.239 0.318 0.357 0.717 0.355 1.199 2e-3 0.481-0.116 0.881-0.355 1.198"/></g><path d="m93.19 649.45h1.091v1.093h-1.091z"/><path d="m83.751 654.63h1.049v1.046h-1.049z"/><path d="m81.833 654.63h1.049v1.046h-1.049z"/><g transform="translate(115.09 654.97)"><path d="m0 0h1.628v0.451h-1.628v0.854h1.758v0.49h-2.314v-3.224h2.345v0.491h-1.789z"/></g><path d="m96.561 653.54h0.619v0.598h-0.619z"/><g transform="translate(89.811 654.39)"><path d="m0 0h-9e-3l-1.487 2.378h-0.596v-3.228h0.537v2.375h0.013l1.483-2.375h0.596v3.228h-0.537z"/></g><g transform="translate(110.73 654.12)"><path d="m0 0c-0.093-0.088-0.225-0.134-0.4-0.134h-0.993v1.02h0.993c0.175 0 0.307-0.045 0.4-0.133 0.093-0.086 0.141-0.21 0.141-0.369 0-0.168-0.048-0.296-0.141-0.384m-1.393 2.188h0.916c0.156 2e-3 0.271-0.033 0.353-0.101 0.08-0.066 0.122-0.184 0.122-0.343-5e-3 -0.147-0.049-0.259-0.137-0.336-0.086-0.075-0.199-0.114-0.338-0.114h-0.916zm1.496-1.04v8e-3c0.142 0.065 0.253 0.156 0.334 0.271 0.075 0.117 0.115 0.256 0.117 0.419-2e-3 0.269-0.09 0.468-0.26 0.6-0.168 0.13-0.397 0.195-0.689 0.195h-1.556v-3.228h1.471c0.413 4e-3 0.712 0.092 0.9 0.256 0.188 0.165 0.28 0.379 0.278 0.64 0 0.224-0.05 0.407-0.152 0.556-0.102 0.142-0.25 0.239-0.443 0.283"/></g><g transform="translate(107.58 654.88)"><path d="m0 0c0.013-0.229-0.023-0.438-0.109-0.627-0.084-0.193-0.305-0.296-0.66-0.309-0.356 0.013-0.578 0.116-0.662 0.309-0.086 0.189-0.12 0.398-0.107 0.627v1.884h-0.556v-2.069c4e-3 -0.413 0.126-0.725 0.361-0.931 0.235-0.205 0.558-0.308 0.964-0.308s0.727 0.103 0.963 0.308c0.236 0.206 0.355 0.518 0.36 0.931v2.069h-0.554z"/></g><g transform="translate(104.2 654.29)"><path d="m0 0c-0.155-0.245-0.407-0.373-0.753-0.388-0.345 0.015-0.597 0.143-0.754 0.388-0.155 0.246-0.232 0.531-0.23 0.856-2e-3 0.328 0.075 0.613 0.23 0.858 0.157 0.244 0.409 0.373 0.754 0.386 0.346-0.013 0.598-0.142 0.753-0.386 0.157-0.245 0.234-0.53 0.232-0.858 2e-3 -0.325-0.075-0.61-0.232-0.856m-0.753 2.553c-0.489-0.012-0.867-0.178-1.136-0.497-0.265-0.323-0.402-0.72-0.406-1.2 4e-3 -0.478 0.141-0.877 0.406-1.198 0.269-0.319 0.647-0.484 1.136-0.497 0.488 0.013 0.866 0.178 1.135 0.497 0.268 0.321 0.402 0.72 0.407 1.198-5e-3 0.48-0.139 0.877-0.407 1.2-0.269 0.319-0.647 0.485-1.135 0.497"/></g><g transform="translate(100.83 654.33)"><path d="m0 0c-0.149-0.218-0.438-0.332-0.873-0.337h-0.558v2.322h0.558c0.435-6e-3 0.724-0.122 0.873-0.336 0.148-0.218 0.218-0.493 0.207-0.827 0.011-0.331-0.059-0.606-0.207-0.822m-0.654 2.438h-1.333v-3.229h1.333c0.494 0.011 0.855 0.168 1.084 0.47 0.226 0.304 0.338 0.684 0.336 1.143 2e-3 0.46-0.11 0.842-0.336 1.146-0.229 0.302-0.59 0.459-1.084 0.47"/></g><g transform="translate(112.5 656.77)"><path d="m0 0h-0.556v-3.226h2.199v0.491h-1.643z"/></g><g transform="translate(93.614 656.27)"><path d="m0 0h1.024v-2.735h0.554v2.735h1.026v0.491h-2.604z"/></g><path d="m86.499 653.54h0.558v3.228h-0.558z"/><g transform="translate(92.811 655.3)"><path d="m0 0c-0.107 0.032-0.279 0.078-0.515 0.141-0.23 0.061-0.373 0.098-0.423 0.111-0.118 0.031-0.212 0.081-0.282 0.149-0.068 0.067-0.104 0.159-0.106 0.272 0.011 0.162 0.073 0.273 0.199 0.336s0.258 0.093 0.398 0.088c0.2 5e-3 0.362-0.04 0.487-0.13 0.126-0.09 0.197-0.237 0.215-0.446h0.559c-0.011 0.341-0.132 0.597-0.365 0.769-0.232 0.174-0.524 0.26-0.874 0.26-0.305 2e-3 -0.575-0.073-0.808-0.228s-0.354-0.395-0.367-0.718c-5e-3 -0.174 0.046-0.335 0.149-0.484 0.102-0.149 0.29-0.265 0.558-0.345 0.22-0.058 0.411-0.107 0.567-0.149 0.157-0.037 0.291-0.079 0.404-0.119 0.067-0.023 0.13-0.065 0.184-0.126 0.055-0.061 0.083-0.153 0.084-0.277 2e-3 -0.127-0.049-0.241-0.155-0.339-0.106-0.099-0.285-0.149-0.532-0.156-0.235-2e-3 -0.431 0.053-0.586 0.164-0.155 0.109-0.234 0.287-0.241 0.537h-0.558c0.017-0.401 0.151-0.694 0.401-0.879 0.252-0.185 0.564-0.277 0.946-0.273 0.34-4e-3 0.634 0.073 0.883 0.233 0.254 0.159 0.388 0.418 0.401 0.776 0 0.176-0.051 0.34-0.155 0.498-0.102 0.152-0.259 0.266-0.468 0.335"/></g><g transform="translate(119.64 654.96)"><path d="m0 0c-0.103 0.153-0.258 0.266-0.468 0.335-0.108 0.032-0.281 0.078-0.513 0.141-0.234 0.061-0.376 0.097-0.426 0.111-0.117 0.032-0.21 0.082-0.281 0.149-0.068 0.067-0.103 0.16-0.108 0.273 0.011 0.161 0.078 0.273 0.202 0.336 0.123 0.062 0.258 0.092 0.397 0.088 0.201 4e-3 0.362-0.04 0.486-0.13 0.126-0.091 0.199-0.24 0.218-0.447h0.556c-0.01 0.34-0.127 0.598-0.363 0.769-0.235 0.175-0.524 0.261-0.873 0.261-0.307 2e-3 -0.576-0.073-0.809-0.229-0.233-0.155-0.357-0.394-0.37-0.718-3e-3 -0.173 0.046-0.335 0.15-0.484s0.289-0.264 0.559-0.344c0.221-0.059 0.41-0.107 0.567-0.149 0.155-0.038 0.29-0.08 0.403-0.12 0.069-0.023 0.13-0.065 0.185-0.125 0.051-0.061 0.082-0.154 0.084-0.277 4e-3 -0.128-0.049-0.241-0.156-0.34-0.109-0.099-0.285-0.149-0.533-0.155-0.232-3e-3 -0.428 0.052-0.583 0.161-0.155 0.111-0.237 0.29-0.243 0.54h-0.557c0.018-0.401 0.15-0.695 0.4-0.88 0.249-0.184 0.568-0.277 0.945-0.272 0.338-5e-3 0.634 0.073 0.886 0.233 0.252 0.159 0.386 0.417 0.398 0.775 0 0.177-0.049 0.34-0.153 0.498"/></g><g transform="translate(185.36 651.69)"><path d="m0 0h-0.592v-3.386h2.312v0.501h-1.72z"/></g><g transform="translate(189.7 649.12)"><path d="m0 0c-0.164-0.252-0.424-0.386-0.781-0.401-0.357 0.015-0.616 0.149-0.781 0.401-0.161 0.251-0.243 0.547-0.239 0.885-4e-3 0.334 0.078 0.632 0.239 0.884 0.165 0.253 0.424 0.385 0.781 0.398 0.357-0.013 0.617-0.145 0.781-0.398 0.161-0.252 0.243-0.55 0.238-0.884 5e-3 -0.338-0.077-0.634-0.238-0.885m-0.781 2.643c-0.505-0.013-0.898-0.185-1.181-0.52-0.283-0.331-0.426-0.747-0.43-1.238 4e-3 -0.497 0.147-0.912 0.43-1.246 0.283-0.331 0.676-0.503 1.181-0.516 0.504 0.013 0.9 0.185 1.183 0.516 0.282 0.334 0.424 0.749 0.428 1.246-4e-3 0.491-0.146 0.907-0.428 1.238-0.283 0.335-0.679 0.507-1.183 0.52"/></g><g transform="translate(191.77 649.65)"><path d="m0 0 0.512 1.456h0.012l0.508-1.456zm0.207 2.039-1.296-3.386h0.61l0.32 0.896h1.347l0.316-0.896h0.636l-1.303 3.386z"/></g><g transform="translate(196.32 649.13)"><path d="m0 0c-0.153-0.227-0.455-0.342-0.904-0.351h-0.579v2.43h0.579c0.449-7e-3 0.751-0.122 0.904-0.349 0.153-0.226 0.225-0.516 0.214-0.864 0.011-0.352-0.061-0.639-0.214-0.866m0.451 2.064c-0.239 0.315-0.615 0.48-1.131 0.493h-1.395v-3.386h1.395c0.516 0.013 0.892 0.179 1.131 0.496 0.239 0.318 0.357 0.717 0.355 1.199 2e-3 0.481-0.116 0.881-0.355 1.198"/></g><path d="m181.88 649.45h1.091v1.093h-1.091z"/><path d="m172.44 654.63h1.046v1.046h-1.046z"/><path d="m170.52 654.63h1.047v1.046h-1.047z"/><g transform="translate(203.78 654.97)"><path d="m0 0h1.628v0.451h-1.628v0.854h1.758v0.49h-2.314v-3.224h2.347v0.491h-1.791z"/></g><path d="m185.25 653.54h0.619v0.598h-0.619z"/><g transform="translate(178.49 654.39)"><path d="m0 0h-8e-3l-1.485 2.378h-0.596v-3.228h0.535v2.375h0.013l1.482-2.375h0.596v3.228h-0.537z"/></g><g transform="translate(199.41 654.12)"><path d="m0 0c-0.093-0.088-0.225-0.134-0.398-0.134h-0.996v1.02h0.996c0.173 0 0.305-0.045 0.398-0.133 0.092-0.086 0.143-0.21 0.143-0.369 0-0.168-0.051-0.296-0.143-0.384m-1.394 2.188h0.919c0.156 2e-3 0.269-0.033 0.351-0.101 0.082-0.066 0.122-0.184 0.122-0.343-3e-3 -0.147-0.049-0.259-0.137-0.336-0.086-0.075-0.197-0.114-0.336-0.114h-0.919zm1.497-1.04v8e-3c0.144 0.065 0.253 0.156 0.333 0.271 0.076 0.117 0.118 0.256 0.118 0.419-2e-3 0.269-0.088 0.468-0.261 0.6-0.167 0.13-0.397 0.195-0.688 0.195h-1.556v-3.228h1.472c0.412 4e-3 0.713 0.092 0.898 0.256 0.189 0.165 0.281 0.379 0.281 0.64-2e-3 0.224-0.053 0.407-0.155 0.556-0.101 0.142-0.249 0.239-0.442 0.283"/></g><g transform="translate(196.27 654.88)"><path d="m0 0c0.015-0.229-0.022-0.438-0.106-0.627-0.086-0.193-0.307-0.296-0.662-0.309-0.356 0.013-0.577 0.116-0.661 0.309-0.088 0.189-0.121 0.398-0.108 0.627v1.884h-0.554v-2.069c4e-3 -0.413 0.125-0.725 0.361-0.931 0.235-0.205 0.557-0.308 0.962-0.308 0.406 0 0.728 0.103 0.963 0.308 0.236 0.206 0.357 0.518 0.362 0.931v2.069h-0.557z"/></g><g transform="translate(192.89 654.29)"><path d="m0 0c-0.157-0.245-0.409-0.373-0.756-0.388-0.344 0.015-0.596 0.143-0.751 0.388-0.157 0.246-0.234 0.531-0.23 0.856-4e-3 0.328 0.073 0.613 0.23 0.858 0.155 0.244 0.407 0.373 0.751 0.386 0.347-0.013 0.599-0.142 0.756-0.386 0.155-0.245 0.234-0.53 0.23-0.858 4e-3 -0.325-0.075-0.61-0.23-0.856m-0.756 2.553c-0.486-0.012-0.864-0.178-1.133-0.497-0.268-0.323-0.402-0.72-0.406-1.2 4e-3 -0.478 0.138-0.877 0.406-1.198 0.269-0.319 0.647-0.484 1.133-0.497 0.491 0.013 0.869 0.178 1.138 0.497 0.268 0.321 0.402 0.72 0.406 1.198-4e-3 0.48-0.138 0.877-0.406 1.2-0.269 0.319-0.647 0.485-1.138 0.497"/></g><g transform="translate(189.51 654.33)"><path d="m0 0c-0.146-0.218-0.436-0.332-0.872-0.337h-0.559v2.322h0.559c0.436-6e-3 0.726-0.122 0.872-0.336 0.151-0.218 0.219-0.493 0.21-0.827 9e-3 -0.331-0.059-0.606-0.21-0.822m-0.654 2.438h-1.332v-3.229h1.332c0.495 0.011 0.856 0.168 1.085 0.47 0.226 0.304 0.338 0.684 0.335 1.143 3e-3 0.46-0.109 0.842-0.335 1.146-0.229 0.302-0.59 0.459-1.085 0.47"/></g><g transform="translate(201.19 656.77)"><path d="m0 0h-0.556v-3.226h2.199v0.491h-1.643z"/></g><g transform="translate(182.3 656.27)"><path d="m0 0h1.021v-2.735h0.556v2.735h1.025v0.491h-2.602z"/></g><path d="m175.18 653.54h0.559v3.228h-0.559z"/><g transform="translate(181.49 655.3)"><path d="m0 0c-0.106 0.032-0.278 0.078-0.512 0.141-0.232 0.061-0.373 0.098-0.426 0.111-0.117 0.031-0.211 0.081-0.279 0.149-0.071 0.067-0.104 0.159-0.108 0.272 0.01 0.162 0.075 0.273 0.201 0.336 0.124 0.063 0.256 0.093 0.398 0.088 0.198 5e-3 0.361-0.04 0.487-0.13s0.197-0.237 0.214-0.446h0.558c-9e-3 0.341-0.13 0.597-0.365 0.769-0.231 0.174-0.524 0.26-0.873 0.26-0.306 2e-3 -0.574-0.073-0.81-0.228-0.23-0.155-0.352-0.395-0.364-0.718-5e-3 -0.174 0.044-0.335 0.147-0.484 0.104-0.149 0.289-0.265 0.557-0.345 0.223-0.058 0.411-0.107 0.567-0.149 0.16-0.037 0.294-0.079 0.405-0.119 0.069-0.023 0.132-0.065 0.184-0.126 0.055-0.061 0.082-0.153 0.084-0.277 2e-3 -0.127-0.048-0.241-0.155-0.339-0.107-0.099-0.283-0.149-0.533-0.156-0.232-2e-3 -0.43 0.053-0.585 0.164-0.155 0.109-0.235 0.287-0.239 0.537h-0.558c0.017-0.401 0.149-0.694 0.399-0.879 0.252-0.185 0.566-0.277 0.948-0.273 0.338-4e-3 0.631 0.073 0.881 0.233 0.256 0.159 0.387 0.418 0.4 0.776 0 0.176-0.05 0.34-0.153 0.498-0.103 0.152-0.26 0.266-0.47 0.335"/></g><g transform="translate(208.33 654.96)"><path d="m0 0c-0.101 0.153-0.258 0.266-0.468 0.335-0.109 0.032-0.279 0.078-0.513 0.141-0.234 0.061-0.374 0.097-0.424 0.111-0.118 0.032-0.212 0.082-0.282 0.149-0.067 0.067-0.105 0.16-0.109 0.273 0.011 0.161 0.078 0.273 0.201 0.336 0.126 0.062 0.261 0.092 0.4 0.088 0.199 4e-3 0.36-0.04 0.486-0.13 0.126-0.091 0.197-0.24 0.216-0.447h0.556c-8e-3 0.34-0.128 0.598-0.363 0.769-0.233 0.175-0.524 0.261-0.873 0.261-0.308 2e-3 -0.577-0.073-0.807-0.229-0.235-0.155-0.357-0.394-0.37-0.718-4e-3 -0.173 0.044-0.335 0.147-0.484 0.105-0.149 0.29-0.264 0.56-0.344 0.221-0.059 0.41-0.107 0.569-0.149 0.155-0.038 0.29-0.08 0.403-0.12 0.067-0.023 0.13-0.065 0.185-0.125 0.049-0.061 0.079-0.154 0.084-0.277 2e-3 -0.128-0.051-0.241-0.159-0.34-0.106-0.099-0.283-0.149-0.53-0.155-0.235-3e-3 -0.428 0.052-0.583 0.161-0.157 0.111-0.239 0.29-0.243 0.54h-0.559c0.017-0.401 0.152-0.695 0.399-0.88 0.252-0.184 0.568-0.277 0.948-0.272 0.336-5e-3 0.632 0.073 0.886 0.233 0.252 0.159 0.384 0.417 0.396 0.775 0 0.177-0.05 0.34-0.153 0.498"/></g><g transform="translate(94.454 630.81)"><path d="m0 0h0.652c0.251 0 0.388 0.147 0.388 0.428 0 0.34-0.188 0.407-0.394 0.407h-0.646zm-0.401 1.219h1.089c0.495 0 0.75-0.271 0.75-0.726 0-0.512-0.301-0.644-0.377-0.676v-5e-3c0.138-0.024 0.339-0.141 0.339-0.567 0-0.313 0.038-0.598 0.124-0.705h-0.425c-0.063 0.115-0.063 0.262-0.063 0.392 0 0.491-0.084 0.71-0.451 0.71h-0.585v-1.102h-0.401z" fill="#fff"/></g><g transform="translate(96.299 632.03)"><path d="m0 0h1.636v-0.405h-1.238v-0.7h1.148v-0.384h-1.148v-0.787h1.263v-0.403h-1.661z" fill="#fff"/></g><g transform="translate(98.309 632.03)"><path d="m0 0h0.398v-2.276h1.157v-0.403h-1.555z" fill="#fff"/></g><g transform="translate(100.61 630.41)"><path d="m0 0h0.694l-0.34 1.154h-8e-3zm0.143 1.615h0.421l0.877-2.678h-0.427l-0.215 0.709h-0.906l-0.214-0.709h-0.411z" fill="#fff"/></g><g transform="translate(101.76 632.03)"><path d="m0 0h1.844v-0.405h-0.726v-2.274h-0.398v2.274h-0.72z" fill="#fff"/></g><g transform="translate(103.86 632.03)"><path d="m0 0h1.639v-0.405h-1.241v-0.7h1.146v-0.384h-1.146v-0.787h1.263v-0.403h-1.661z" fill="#fff"/></g><g transform="translate(106.27 629.73)"><path d="m0 0h0.393c0.625 0 0.758 0.419 0.758 0.958 0 0.536-0.133 0.957-0.758 0.957h-0.393zm-0.396 2.297h0.944c0.7 0 1.003-0.6 1.003-1.339 0-0.74-0.303-1.34-1.003-1.34h-0.944z" fill="#fff"/></g><g transform="translate(94.593 628.66)"><path d="m0 0h1.843v-0.405h-0.725v-2.274h-0.396v2.274h-0.722z" fill="#fff"/></g><g transform="translate(97.1 627.44)"><path d="m0 0h0.653c0.251 0 0.39 0.147 0.39 0.428 0 0.344-0.189 0.409-0.397 0.409h-0.646zm-0.398 1.221h1.086c0.5 0 0.751-0.271 0.751-0.726 0-0.512-0.301-0.642-0.373-0.675v-9e-3c0.136-0.02 0.335-0.14 0.335-0.564 0-0.312 0.038-0.598 0.126-0.705h-0.427c-0.059 0.116-0.059 0.262-0.059 0.393 0 0.492-0.088 0.711-0.453 0.711h-0.588v-1.104h-0.398z" fill="#fff"/></g><g transform="translate(99.416 627.04)"><path d="m0 0h0.694l-0.341 1.154h-9e-3zm0.139 1.616h0.425l0.875-2.679h-0.425l-0.215 0.709h-0.908l-0.214-0.709h-0.411z" fill="#fff"/></g><g transform="translate(102.61 627.81)"><path d="m0 0c-0.069 0.307-0.237 0.533-0.568 0.533-0.488 0-0.693-0.508-0.693-1.022 0-0.513 0.205-1.021 0.693-1.021 0.354 0 0.548 0.314 0.581 0.702h0.387c-0.031-0.641-0.415-1.086-0.968-1.086-0.683 0-1.092 0.64-1.092 1.405 0 0.766 0.409 1.404 1.092 1.404 0.515-2e-3 0.918-0.338 0.966-0.915z" fill="#fff"/></g><g transform="translate(103.38 628.66)"><path d="m0 0h0.398v-1.221l1.013 1.221h0.493l-0.91-1.07 0.971-1.609h-0.497l-0.744 1.278-0.326-0.378v-0.9h-0.398z" fill="#fff"/></g><g transform="translate(105.82 626.87)"><path d="m0 0c0-0.413 0.261-0.577 0.577-0.577 0.351 0 0.481 0.204 0.481 0.407 0 0.206-0.095 0.29-0.187 0.33-0.157 0.073-0.367 0.121-0.68 0.22-0.388 0.126-0.502 0.403-0.502 0.68 0 0.539 0.42 0.788 0.832 0.788 0.474 0 0.873-0.293 0.873-0.855h-0.399c-0.019 0.345-0.219 0.474-0.491 0.474-0.185 0-0.418-0.08-0.418-0.349 0-0.188 0.107-0.293 0.271-0.346 0.036-0.012 0.539-0.166 0.657-0.208 0.299-0.102 0.442-0.404 0.442-0.681 0-0.602-0.453-0.841-0.904-0.841-0.518 0-0.942 0.293-0.95 0.958z" fill="#fff"/></g><g transform="translate(140.66 627.86)"><path d="m0 0h0.826c0.287 0 0.453 0.153 0.453 0.422 0 0.264-0.166 0.413-0.453 0.413h-0.826zm0 1.175h0.766c0.224 0 0.392 0.13 0.392 0.369 0 0.273-0.138 0.37-0.392 0.37h-0.766zm-0.47 1.12h1.3c0.481 0 0.798-0.216 0.798-0.663 0-0.27-0.139-0.465-0.382-0.57v-9e-3c0.327-0.071 0.503-0.325 0.503-0.69 0-0.422-0.293-0.747-0.987-0.747h-1.232z" fill="#fff"/></g><g transform="translate(143.39 628.54)"><path d="m0 0h0.818l-0.4 1.152h-0.011zm0.166 1.613h0.499l1.03-2.681h-0.502l-0.251 0.709h-1.07l-0.25-0.709h-0.486z" fill="#fff"/></g><g transform="translate(147.15 629.3)"><path d="m0 0c-0.078 0.309-0.277 0.533-0.668 0.533-0.574 0-0.813-0.506-0.813-1.019 0-0.516 0.239-1.022 0.813-1.022 0.416 0 0.647 0.312 0.685 0.7h0.457c-0.038-0.639-0.492-1.082-1.142-1.082-0.803 0-1.283 0.636-1.283 1.404 0 0.763 0.48 1.403 1.283 1.403 0.605-4e-3 1.083-0.34 1.138-0.917z" fill="#fff"/></g><g transform="translate(148.05 630.15)"><path d="m0 0h0.468v-1.221l1.194 1.221h0.578l-1.069-1.07 1.145-1.611h-0.587l-0.877 1.28-0.384-0.378v-0.902h-0.468z" fill="#fff"/></g><g transform="translate(185.01 632.03)"><path d="m0 0h0.487l0.671-2.121h9e-3l0.686 2.121h0.478l-0.919-2.679h-0.518z" fill="#fff"/></g><path d="m187.6 632.03h0.47v-2.679h-0.47z" fill="#fff"/><g transform="translate(188.65 632.03)"><path d="m0 0h1.928v-0.405h-1.458v-0.7h1.351v-0.384h-1.351v-0.787h1.483v-0.403h-1.953z" fill="#fff"/></g><g transform="translate(190.75 632.03)"><path d="m0 0h0.476l0.484-2.049h7e-3l0.541 2.049h0.482l0.525-2.049h6e-3l0.5 2.049h0.475l-0.74-2.679h-0.474l-0.537 2.05h-9e-3l-0.547-2.05h-0.485z" fill="#fff"/></g><g transform="translate(210.68 639.05)"><path d="m0 0c0 0.147-0.061 0.206-0.205 0.206-0.145 0-0.204-0.059-0.204-0.206 0-0.143 0.059-0.201 0.204-0.201 0.144 0 0.205 0.058 0.205 0.201"/></g><g transform="translate(209.18 639.05)"><path d="m0 0c0 0.147-0.059 0.206-0.205 0.206-0.143 0-0.204-0.059-0.204-0.206 0-0.143 0.061-0.201 0.204-0.201 0.146 0 0.205 0.058 0.205 0.201"/></g><g transform="translate(207.68 639.05)"><path d="m0 0c0 0.147-0.061 0.206-0.205 0.206-0.145 0-0.204-0.059-0.204-0.206 0-0.143 0.059-0.201 0.204-0.201 0.144 0 0.205 0.058 0.205 0.201"/></g><g transform="translate(206.18 639.05)"><path d="m0 0c0 0.147-0.059 0.206-0.203 0.206-0.145 0-0.206-0.059-0.206-0.206 0-0.143 0.061-0.201 0.206-0.201 0.144 0 0.203 0.058 0.203 0.201"/></g><g transform="translate(204.68 639.05)"><path d="m0 0c0 0.147-0.063 0.206-0.206 0.206-0.147 0-0.206-0.059-0.206-0.206 0-0.143 0.059-0.201 0.206-0.201 0.143 0 0.206 0.058 0.206 0.201"/></g><g transform="translate(203.18 639.05)"><path d="m0 0c0 0.147-0.059 0.206-0.203 0.206-0.145 0-0.203-0.059-0.203-0.206 0-0.143 0.058-0.201 0.203-0.201 0.144 0 0.203 0.058 0.203 0.201"/></g><g transform="translate(209.93 639.8)"><path d="m0 0c0 0.143-0.061 0.203-0.203 0.203-0.147 0-0.206-0.06-0.206-0.203 0-0.147 0.059-0.206 0.206-0.206 0.142 0 0.203 0.059 0.203 0.206"/></g><g transform="translate(208.43 639.8)"><path d="m0 0c0 0.143-0.059 0.203-0.205 0.203-0.145 0-0.206-0.06-0.206-0.203 0-0.147 0.061-0.206 0.206-0.206 0.146 0 0.205 0.059 0.205 0.206"/></g><g transform="translate(206.93 639.8)"><path d="m0 0c0 0.143-0.059 0.203-0.201 0.203-0.145 0-0.203-0.06-0.203-0.203 0-0.147 0.058-0.206 0.203-0.206 0.142 0 0.201 0.059 0.201 0.206"/></g><g transform="translate(205.43 639.8)"><path d="m0 0c0 0.143-0.059 0.203-0.203 0.203-0.147 0-0.208-0.06-0.208-0.203 0-0.147 0.061-0.206 0.208-0.206 0.144 0 0.203 0.059 0.203 0.206"/></g><g transform="translate(203.93 639.8)"><path d="m0 0c0 0.143-0.061 0.203-0.205 0.203-0.143 0-0.204-0.06-0.204-0.203 0-0.147 0.061-0.206 0.204-0.206 0.144 0 0.205 0.059 0.205 0.206"/></g><g transform="translate(210.68 640.55)"><path d="m0 0c0 0.145-0.061 0.203-0.205 0.203-0.145 0-0.204-0.058-0.204-0.203s0.059-0.206 0.204-0.206c0.144 0 0.205 0.061 0.205 0.206"/></g><g transform="translate(209.18 640.55)"><path d="m0 0c0 0.145-0.059 0.203-0.205 0.203-0.143 0-0.204-0.058-0.204-0.203s0.061-0.206 0.204-0.206c0.146 0 0.205 0.061 0.205 0.206"/></g><g transform="translate(207.68 640.55)"><path d="m0 0c0 0.145-0.061 0.203-0.205 0.203-0.145 0-0.204-0.058-0.204-0.203s0.059-0.206 0.204-0.206c0.144 0 0.205 0.061 0.205 0.206"/></g><g transform="translate(206.18 640.55)"><path d="m0 0c0 0.145-0.059 0.203-0.203 0.203-0.145 0-0.206-0.058-0.206-0.203s0.061-0.206 0.206-0.206c0.144 0 0.203 0.061 0.203 0.206"/></g><g transform="translate(204.68 640.55)"><path d="m0 0c0 0.145-0.063 0.203-0.206 0.203-0.147 0-0.206-0.058-0.206-0.203s0.059-0.206 0.206-0.206c0.143 0 0.206 0.061 0.206 0.206"/></g><g transform="translate(203.18 640.55)"><path d="m0 0c0 0.145-0.059 0.203-0.203 0.203-0.145 0-0.203-0.058-0.203-0.203s0.058-0.206 0.203-0.206c0.144 0 0.203 0.061 0.203 0.206"/></g><g transform="translate(209.93 641.3)"><path d="m0 0c0 0.147-0.061 0.206-0.203 0.206-0.147 0-0.206-0.059-0.206-0.206 0-0.143 0.059-0.203 0.206-0.203 0.142 0 0.203 0.06 0.203 0.203"/></g><g transform="translate(208.43 641.3)"><path d="m0 0c0 0.147-0.059 0.206-0.205 0.206-0.145 0-0.206-0.059-0.206-0.206 0-0.143 0.061-0.203 0.206-0.203 0.146 0 0.205 0.06 0.205 0.203"/></g><g transform="translate(206.93 641.3)"><path d="m0 0c0 0.147-0.059 0.206-0.201 0.206-0.145 0-0.203-0.059-0.203-0.206 0-0.143 0.058-0.203 0.203-0.203 0.142 0 0.201 0.06 0.201 0.203"/></g><g transform="translate(205.43 641.3)"><path d="m0 0c0 0.147-0.059 0.206-0.203 0.206-0.147 0-0.208-0.059-0.208-0.206 0-0.143 0.061-0.203 0.208-0.203 0.144 0 0.203 0.06 0.203 0.203"/></g><g transform="translate(203.93 641.3)"><path d="m0 0c0 0.147-0.061 0.206-0.205 0.206-0.143 0-0.204-0.059-0.204-0.206 0-0.143 0.061-0.203 0.204-0.203 0.144 0 0.205 0.06 0.205 0.203"/></g><g transform="translate(210.68 642.05)"><path d="m0 0c0 0.143-0.061 0.203-0.205 0.203-0.145 0-0.204-0.06-0.204-0.203 0-0.147 0.059-0.206 0.204-0.206 0.144 0 0.205 0.059 0.205 0.206"/></g><g transform="translate(209.18 642.05)"><path d="m0 0c0 0.143-0.059 0.203-0.205 0.203-0.143 0-0.204-0.06-0.204-0.203 0-0.147 0.061-0.206 0.204-0.206 0.146 0 0.205 0.059 0.205 0.206"/></g><g transform="translate(207.68 642.05)"><path d="m0 0c0 0.143-0.061 0.203-0.205 0.203-0.145 0-0.204-0.06-0.204-0.203 0-0.147 0.059-0.206 0.204-0.206 0.144 0 0.205 0.059 0.205 0.206"/></g><g transform="translate(206.18 642.05)"><path d="m0 0c0 0.143-0.059 0.203-0.203 0.203-0.145 0-0.206-0.06-0.206-0.203 0-0.147 0.061-0.206 0.206-0.206 0.144 0 0.203 0.059 0.203 0.206"/></g><g transform="translate(204.68 642.05)"><path d="m0 0c0 0.143-0.063 0.203-0.206 0.203-0.147 0-0.206-0.06-0.206-0.203 0-0.147 0.059-0.206 0.206-0.206 0.143 0 0.206 0.059 0.206 0.206"/></g><g transform="translate(203.18 642.05)"><path d="m0 0c0 0.143-0.059 0.203-0.203 0.203-0.145 0-0.203-0.06-0.203-0.203 0-0.147 0.058-0.206 0.203-0.206 0.144 0 0.203 0.059 0.203 0.206"/></g><g transform="translate(209.93 642.8)"><path d="m0 0c0 0.147-0.061 0.206-0.203 0.206-0.147 0-0.206-0.059-0.206-0.206 0-0.145 0.059-0.206 0.206-0.206 0.142 0 0.203 0.061 0.203 0.206"/></g><g transform="translate(208.43 642.8)"><path d="m0 0c0 0.147-0.059 0.206-0.205 0.206-0.145 0-0.206-0.059-0.206-0.206 0-0.145 0.061-0.206 0.206-0.206 0.146 0 0.205 0.061 0.205 0.206"/></g><g transform="translate(206.93 642.8)"><path d="m0 0c0 0.147-0.059 0.206-0.201 0.206-0.145 0-0.203-0.059-0.203-0.206 0-0.145 0.058-0.206 0.203-0.206 0.142 0 0.201 0.061 0.201 0.206"/></g><g transform="translate(205.43 642.8)"><path d="m0 0c0 0.147-0.059 0.206-0.203 0.206-0.147 0-0.208-0.059-0.208-0.206 0-0.145 0.061-0.206 0.208-0.206 0.144 0 0.203 0.061 0.203 0.206"/></g><g transform="translate(203.93 642.8)"><path d="m0 0c0 0.147-0.061 0.206-0.205 0.206-0.143 0-0.204-0.059-0.204-0.206 0-0.145 0.061-0.206 0.204-0.206 0.144 0 0.205 0.061 0.205 0.206"/></g><g transform="translate(210.68 643.55)"><path d="m0 0c0 0.145-0.061 0.204-0.205 0.204-0.145 0-0.204-0.059-0.204-0.204s0.059-0.206 0.204-0.206c0.144 0 0.205 0.061 0.205 0.206"/></g><g transform="translate(209.18 643.55)"><path d="m0 0c0 0.145-0.059 0.204-0.205 0.204-0.143 0-0.204-0.059-0.204-0.204s0.061-0.206 0.204-0.206c0.146 0 0.205 0.061 0.205 0.206"/></g><g transform="translate(207.68 643.55)"><path d="m0 0c0 0.145-0.061 0.204-0.205 0.204-0.145 0-0.204-0.059-0.204-0.204s0.059-0.206 0.204-0.206c0.144 0 0.205 0.061 0.205 0.206"/></g><g transform="translate(206.18 643.55)"><path d="m0 0c0 0.145-0.059 0.204-0.203 0.204-0.145 0-0.206-0.059-0.206-0.204s0.061-0.206 0.206-0.206c0.144 0 0.203 0.061 0.203 0.206"/></g><g transform="translate(204.68 643.55)"><path d="m0 0c0 0.145-0.063 0.204-0.206 0.204-0.147 0-0.206-0.059-0.206-0.204s0.059-0.206 0.206-0.206c0.143 0 0.206 0.061 0.206 0.206"/></g><g transform="translate(203.18 643.55)"><path d="m0 0c0 0.145-0.059 0.204-0.203 0.204-0.145 0-0.203-0.059-0.203-0.204s0.058-0.206 0.203-0.206c0.144 0 0.203 0.061 0.203 0.206"/></g><g transform="translate(210.68 637.55)"><path d="m0 0c0 0.145-0.061 0.206-0.205 0.206-0.145 0-0.204-0.061-0.204-0.206s0.059-0.204 0.204-0.204c0.144 0 0.205 0.059 0.205 0.204"/></g><g transform="translate(209.18 637.55)"><path d="m0 0c0 0.145-0.059 0.206-0.205 0.206-0.143 0-0.204-0.061-0.204-0.206s0.061-0.204 0.204-0.204c0.146 0 0.205 0.059 0.205 0.204"/></g><g transform="translate(207.68 637.55)"><path d="m0 0c0 0.145-0.061 0.206-0.205 0.206-0.145 0-0.204-0.061-0.204-0.206s0.059-0.204 0.204-0.204c0.144 0 0.205 0.059 0.205 0.204"/></g><g transform="translate(206.18 637.55)"><path d="m0 0c0 0.145-0.059 0.206-0.203 0.206-0.145 0-0.206-0.061-0.206-0.206s0.061-0.204 0.206-0.204c0.144 0 0.203 0.059 0.203 0.204"/></g><g transform="translate(204.68 637.55)"><path d="m0 0c0 0.145-0.063 0.206-0.206 0.206-0.147 0-0.206-0.061-0.206-0.206s0.059-0.204 0.206-0.204c0.143 0 0.206 0.059 0.206 0.204"/></g><g transform="translate(203.18 637.55)"><path d="m0 0c0 0.145-0.059 0.206-0.203 0.206-0.145 0-0.203-0.061-0.203-0.206s0.058-0.204 0.203-0.204c0.144 0 0.203 0.059 0.203 0.204"/></g><g transform="translate(209.93 638.3)"><path d="m0 0c0 0.145-0.061 0.206-0.203 0.206-0.147 0-0.206-0.061-0.206-0.206s0.059-0.206 0.206-0.206c0.142 0 0.203 0.061 0.203 0.206"/></g><g transform="translate(208.43 638.3)"><path d="m0 0c0 0.145-0.059 0.206-0.205 0.206-0.145 0-0.206-0.061-0.206-0.206s0.061-0.206 0.206-0.206c0.146 0 0.205 0.061 0.205 0.206"/></g><g transform="translate(206.93 638.3)"><path d="m0 0c0 0.145-0.059 0.206-0.201 0.206-0.145 0-0.203-0.061-0.203-0.206s0.058-0.206 0.203-0.206c0.142 0 0.201 0.061 0.201 0.206"/></g><g transform="translate(205.43 638.3)"><path d="m0 0c0 0.145-0.059 0.206-0.203 0.206-0.147 0-0.208-0.061-0.208-0.206s0.061-0.206 0.208-0.206c0.144 0 0.203 0.061 0.203 0.206"/></g><g transform="translate(203.93 638.3)"><path d="m0 0c0 0.145-0.061 0.206-0.205 0.206-0.143 0-0.204-0.061-0.204-0.206s0.061-0.206 0.204-0.206c0.144 0 0.205 0.061 0.205 0.206"/></g><g transform="translate(210.68 639.05)"><path d="m0 0c0 0.147-0.061 0.206-0.205 0.206-0.145 0-0.204-0.059-0.204-0.206 0-0.143 0.059-0.201 0.204-0.201 0.144 0 0.205 0.058 0.205 0.201"/></g><g transform="translate(209.18 639.05)"><path d="m0 0c0 0.147-0.059 0.206-0.205 0.206-0.143 0-0.204-0.059-0.204-0.206 0-0.143 0.061-0.201 0.204-0.201 0.146 0 0.205 0.058 0.205 0.201"/></g><g transform="translate(207.68 639.05)"><path d="m0 0c0 0.147-0.061 0.206-0.205 0.206-0.145 0-0.204-0.059-0.204-0.206 0-0.143 0.059-0.201 0.204-0.201 0.144 0 0.205 0.058 0.205 0.201"/></g><g transform="translate(206.18 639.05)"><path d="m0 0c0 0.147-0.059 0.206-0.203 0.206-0.145 0-0.206-0.059-0.206-0.206 0-0.143 0.061-0.201 0.206-0.201 0.144 0 0.203 0.058 0.203 0.201"/></g><g transform="translate(204.68 639.05)"><path d="m0 0c0 0.147-0.063 0.206-0.206 0.206-0.147 0-0.206-0.059-0.206-0.206 0-0.143 0.059-0.201 0.206-0.201 0.143 0 0.206 0.058 0.206 0.201"/></g><g transform="translate(203.18 639.05)"><path d="m0 0c0 0.147-0.059 0.206-0.203 0.206-0.145 0-0.203-0.059-0.203-0.206 0-0.143 0.058-0.201 0.203-0.201 0.144 0 0.203 0.058 0.203 0.201"/></g><g transform="translate(133.56 645.18)"><path d="m0 0c0 6.472 5.248 11.718 11.718 11.718s11.718-5.246 11.718-11.718-5.248-11.72-11.718-11.72-11.718 5.248-11.718 11.72" fill="#fff"/><path d="m0 0c0 6.472 5.248 11.718 11.718 11.718s11.718-5.246 11.718-11.718-5.248-11.72-11.718-11.72-11.718 5.248-11.718 11.72z" fill="none" stroke="#000" stroke-linecap="round" stroke-linejoin="round" stroke-miterlimit="10" stroke-width=".5"/></g><g transform="translate(136.02 645.32)"><path d="m0 0c0 5.119 4.146 9.266 9.264 9.266 5.114 0 9.263-4.147 9.263-9.266s-4.149-9.266-9.263-9.266c-5.118 0-9.264 4.147-9.264 9.266z" fill="none" stroke="#000" stroke-linecap="round" stroke-linejoin="round" stroke-miterlimit="10" stroke-width=".25"/></g><g transform="translate(136.9 645.32)"><path d="m0 0c0 4.628 3.755 8.381 8.383 8.381 4.632 0 8.383-3.753 8.383-8.381 0-4.63-3.751-8.38-8.383-8.38-4.628 0-8.383 3.75-8.383 8.38z" fill="none" stroke="#000" stroke-linecap="round" stroke-linejoin="round" stroke-miterlimit="10" stroke-width=".25"/></g><g transform="translate(150.38 651.68)"><path d="m0 0-0.353-0.598-0.129-0.184" fill="none" stroke="#000" stroke-linecap="round" stroke-linejoin="round" stroke-miterlimit="10" stroke-width=".25"/></g><g transform="translate(148.24 652.91)"><path d="m0 0-0.34-0.602-0.097-0.208" fill="none" stroke="#000" stroke-linecap="round" stroke-linejoin="round" stroke-miterlimit="10" stroke-width=".25"/></g><g transform="translate(146.52 653.38)"><path d="m0 0-8e-3 -0.694-0.021-0.223" fill="none" stroke="#000" stroke-linecap="round" stroke-linejoin="round" stroke-miterlimit="10" stroke-width=".25"/></g><g transform="translate(144.05 653.38)"><path d="m0 0 8e-3 -0.694 0.017-0.223" fill="none" stroke="#000" stroke-linecap="round" stroke-linejoin="round" stroke-miterlimit="10" stroke-width=".25"/></g><g transform="translate(142.32 652.91)"><path d="m0 0 0.344-0.602 0.092-0.208" fill="none" stroke="#000" stroke-linecap="round" stroke-linejoin="round" stroke-miterlimit="10" stroke-width=".25"/></g><g transform="translate(140.19 651.68)"><path d="m0 0 0.353-0.598 0.129-0.184" fill="none" stroke="#000" stroke-linecap="round" stroke-linejoin="round" stroke-miterlimit="10" stroke-width=".25"/></g><g transform="translate(138.92 650.41)"><path d="m0 0 0.596-0.352 0.184-0.13" fill="none" stroke="#000" stroke-linecap="round" stroke-linejoin="round" stroke-miterlimit="10" stroke-width=".25"/></g><g transform="translate(137.68 648.28)"><path d="m0 0 0.604-0.34 0.207-0.095" fill="none" stroke="#000" stroke-linecap="round" stroke-linejoin="round" stroke-miterlimit="10" stroke-width=".25"/></g><g transform="translate(137.22 646.55)"><path d="m0 0 0.692-9e-3 0.227-0.018" fill="none" stroke="#000" stroke-linecap="round" stroke-linejoin="round" stroke-miterlimit="10" stroke-width=".25"/></g><g transform="translate(137.22 644.08)"><path d="m0 0 0.692 8e-3 0.227 0.019" fill="none" stroke="#000" stroke-linecap="round" stroke-linejoin="round" stroke-miterlimit="10" stroke-width=".25"/></g><g transform="translate(137.68 642.35)"><path d="m0 0 0.604 0.34 0.207 0.094" fill="none" stroke="#000" stroke-linecap="round" stroke-linejoin="round" stroke-miterlimit="10" stroke-width=".25"/></g><g transform="translate(151.65 650.41)"><path d="m0 0-0.596-0.352-0.184-0.13" fill="none" stroke="#000" stroke-linecap="round" stroke-linejoin="round" stroke-miterlimit="10" stroke-width=".25"/></g><g transform="translate(148.24 637.72)"><path d="m0 0-0.34 0.604-0.097 0.208" fill="none" stroke="#000" stroke-linecap="round" stroke-linejoin="round" stroke-miterlimit="10" stroke-width=".25"/></g><g transform="translate(150.38 638.95)"><path d="m0 0-0.353 0.598-0.129 0.185" fill="none" stroke="#000" stroke-linecap="round" stroke-linejoin="round" stroke-miterlimit="10" stroke-width=".25"/></g><g transform="translate(151.65 640.22)"><path d="m0 0-0.596 0.353-0.184 0.13" fill="none" stroke="#000" stroke-linecap="round" stroke-linejoin="round" stroke-miterlimit="10" stroke-width=".25"/></g><g transform="translate(152.88 642.35)"><path d="m0 0-0.604 0.34-0.202 0.094" fill="none" stroke="#000" stroke-linecap="round" stroke-linejoin="round" stroke-miterlimit="10" stroke-width=".25"/></g><g transform="translate(153.34 644.08)"><path d="m0 0-0.696 8e-3 -0.223 0.019" fill="none" stroke="#000" stroke-linecap="round" stroke-linejoin="round" stroke-miterlimit="10" stroke-width=".25"/></g><g transform="translate(153.34 646.55)"><path d="m0 0-0.696-9e-3 -0.223-0.018" fill="none" stroke="#000" stroke-linecap="round" stroke-linejoin="round" stroke-miterlimit="10" stroke-width=".25"/></g><g transform="translate(152.88 648.28)"><path d="m0 0-0.604-0.34-0.202-0.095" fill="none" stroke="#000" stroke-linecap="round" stroke-linejoin="round" stroke-miterlimit="10" stroke-width=".25"/></g><g transform="translate(138.92 640.22)"><path d="m0 0 0.596 0.353 0.184 0.13" fill="none" stroke="#000" stroke-linecap="round" stroke-linejoin="round" stroke-miterlimit="10" stroke-width=".25"/></g><g transform="translate(140.19 638.95)"><path d="m0 0 0.353 0.598 0.129 0.185" fill="none" stroke="#000" stroke-linecap="round" stroke-linejoin="round" stroke-miterlimit="10" stroke-width=".25"/></g><g transform="translate(142.32 637.72)"><path d="m0 0 0.344 0.604 0.092 0.208" fill="none" stroke="#000" stroke-linecap="round" stroke-linejoin="round" stroke-miterlimit="10" stroke-width=".25"/></g><g transform="translate(144.05 637.26)"><path d="m0 0 8e-3 0.694 0.017 0.223" fill="none" stroke="#000" stroke-linecap="round" stroke-linejoin="round" stroke-miterlimit="10" stroke-width=".25"/></g><g transform="translate(146.52 637.26)"><path d="m0 0-8e-3 0.694-0.021 0.223" fill="none" stroke="#000" stroke-linecap="round" stroke-linejoin="round" stroke-miterlimit="10" stroke-width=".25"/></g><g transform="translate(150.2 649.62)"><path d="m0 0c-0.193 0.218-0.395 0.423-0.617 0.614" fill="none" stroke="#000" stroke-linecap="round" stroke-linejoin="round" stroke-miterlimit="10" stroke-width=".25"/></g><g transform="translate(150.87 649.93)" fill="none" stroke="#000" stroke-linecap="round" stroke-linejoin="round" stroke-miterlimit="10" stroke-width=".25"><path d="m0 0c-0.227-0.096-0.444-0.197-0.662-0.302"/><path d="m0 0v6e-3"/></g><g transform="translate(149.89 650.9)"><path d="m0 0h4e-3" fill="none" stroke="#000" stroke-linecap="round" stroke-linejoin="round" stroke-miterlimit="10" stroke-width=".25"/></g><g transform="translate(149.59 650.24)"><path d="m0 0c0.109 0.221 0.21 0.438 0.307 0.661" fill="none" stroke="#000" stroke-linecap="round" stroke-linejoin="round" stroke-miterlimit="10" stroke-width=".25"/></g><g transform="translate(147.81 652.1)"><path d="m0 0-5e-3 2e-3" fill="none" stroke="#000" stroke-linecap="round" stroke-linejoin="round" stroke-miterlimit="10" stroke-width=".25"/></g><g transform="translate(147.39 651.51)"><path d="m0 0c-0.272 0.094-0.558 0.17-0.844 0.227" fill="none" stroke="#000" stroke-linecap="round" stroke-linejoin="round" stroke-miterlimit="10" stroke-width=".25"/></g><g transform="translate(147.81 652.1)"><path d="m0 0c-0.147-0.195-0.285-0.393-0.42-0.594" fill="none" stroke="#000" stroke-linecap="round" stroke-linejoin="round" stroke-miterlimit="10" stroke-width=".25"/></g><g transform="translate(146.48 652.46)"><path d="m0 0 4e-3 4e-3" fill="none" stroke="#000" stroke-linecap="round" stroke-linejoin="round" stroke-miterlimit="10" stroke-width=".25"/></g><g transform="translate(146.55 651.73)"><path d="m0 0c-0.017 0.241-0.041 0.482-0.066 0.722" fill="none" stroke="#000" stroke-linecap="round" stroke-linejoin="round" stroke-miterlimit="10" stroke-width=".25"/></g><g transform="translate(144.08 652.46)"><path d="m0 0v4e-3" fill="none" stroke="#000" stroke-linecap="round" stroke-linejoin="round" stroke-miterlimit="10" stroke-width=".25"/></g><g transform="translate(144.02 651.73)"><path d="m0 0c-0.286-0.057-0.566-0.132-0.844-0.227" fill="none" stroke="#000" stroke-linecap="round" stroke-linejoin="round" stroke-miterlimit="10" stroke-width=".25"/></g><g transform="translate(144.08 652.46)"><path d="m0 0c-0.025-0.239-0.046-0.48-0.063-0.722" fill="none" stroke="#000" stroke-linecap="round" stroke-linejoin="round" stroke-miterlimit="10" stroke-width=".25"/></g><g transform="translate(142.75 652.1)"><path d="m0 0v2e-3" fill="none" stroke="#000" stroke-linecap="round" stroke-linejoin="round" stroke-miterlimit="10" stroke-width=".25"/></g><g transform="translate(143.17 651.51)"><path d="m0 0c-0.139 0.201-0.277 0.398-0.42 0.594" fill="none" stroke="#000" stroke-linecap="round" stroke-linejoin="round" stroke-miterlimit="10" stroke-width=".25"/></g><g transform="translate(140.67 650.9)"><path d="m0 0h-4e-3" fill="none" stroke="#000" stroke-linecap="round" stroke-linejoin="round" stroke-miterlimit="10" stroke-width=".25"/></g><g transform="translate(140.98 650.24)"><path d="m0 0c-0.223-0.191-0.428-0.396-0.617-0.614" fill="none" stroke="#000" stroke-linecap="round" stroke-linejoin="round" stroke-miterlimit="10" stroke-width=".25"/></g><g transform="translate(140.67 650.9)"><path d="m0 0c0.097-0.223 0.197-0.44 0.307-0.661" fill="none" stroke="#000" stroke-linecap="round" stroke-linejoin="round" stroke-miterlimit="10" stroke-width=".25"/></g><g transform="translate(139.7 649.93)"><path d="m0 0v6e-3" fill="none" stroke="#000" stroke-linecap="round" stroke-linejoin="round" stroke-miterlimit="10" stroke-width=".25"/></g><g transform="translate(140.36 649.62)"><path d="m0 0c-0.218 0.104-0.44 0.206-0.662 0.302" fill="none" stroke="#000" stroke-linecap="round" stroke-linejoin="round" stroke-miterlimit="10" stroke-width=".25"/></g><g transform="translate(138.5 647.85)"><path d="m0 0-4e-3 -2e-3" fill="none" stroke="#000" stroke-linecap="round" stroke-linejoin="round" stroke-miterlimit="10" stroke-width=".25"/></g><g transform="translate(139.09 647.42)"><path d="m0 0c-0.093-0.272-0.168-0.554-0.227-0.839" fill="none" stroke="#000" stroke-linecap="round" stroke-linejoin="round" stroke-miterlimit="10" stroke-width=".25"/></g><g transform="translate(138.5 647.85)"><path d="m0 0c0.193-0.145 0.395-0.286 0.592-0.422" fill="none" stroke="#000" stroke-linecap="round" stroke-linejoin="round" stroke-miterlimit="10" stroke-width=".25"/></g><g transform="translate(138.14 646.52)"><path d="m0 0v6e-3" fill="none" stroke="#000" stroke-linecap="round" stroke-linejoin="round" stroke-miterlimit="10" stroke-width=".25"/></g><g transform="translate(138.86 646.59)"><path d="m0 0c-0.239-0.017-0.482-0.042-0.722-0.069" fill="none" stroke="#000" stroke-linecap="round" stroke-linejoin="round" stroke-miterlimit="10" stroke-width=".25"/></g><g transform="translate(138.14 644.12)"><path d="m0 0v-6e-3" fill="none" stroke="#000" stroke-linecap="round" stroke-linejoin="round" stroke-miterlimit="10" stroke-width=".25"/></g><g transform="translate(138.86 644.05)"><path d="m0 0c0.059-0.285 0.134-0.566 0.227-0.839" fill="none" stroke="#000" stroke-linecap="round" stroke-linejoin="round" stroke-miterlimit="10" stroke-width=".25"/></g><g transform="translate(138.14 644.12)"><path d="m0 0c0.239-0.029 0.482-0.053 0.722-0.069" fill="none" stroke="#000" stroke-linecap="round" stroke-linejoin="round" stroke-miterlimit="10" stroke-width=".25"/></g><g transform="translate(138.5 642.79)"><path d="m0 0-4e-3 2e-3" fill="none" stroke="#000" stroke-linecap="round" stroke-linejoin="round" stroke-miterlimit="10" stroke-width=".25"/></g><g transform="translate(139.09 643.21)"><path d="m0 0c-0.202-0.139-0.398-0.279-0.592-0.422" fill="none" stroke="#000" stroke-linecap="round" stroke-linejoin="round" stroke-miterlimit="10" stroke-width=".25"/></g><g transform="translate(139.7 640.71)"><path d="m0 0v-6e-3" fill="none" stroke="#000" stroke-linecap="round" stroke-linejoin="round" stroke-miterlimit="10" stroke-width=".25"/></g><g transform="translate(152.07 647.85)"><path d="m0 0 4e-3 -2e-3" fill="none" stroke="#000" stroke-linecap="round" stroke-linejoin="round" stroke-miterlimit="10" stroke-width=".25"/></g><g transform="translate(146.55 638.9)"><path d="m0 0c0.286 0.057 0.571 0.132 0.844 0.225" fill="none" stroke="#000" stroke-linecap="round" stroke-linejoin="round" stroke-miterlimit="10" stroke-width=".25"/></g><g transform="translate(146.48 638.18)" fill="none" stroke="#000" stroke-linecap="round" stroke-linejoin="round" stroke-miterlimit="10" stroke-width=".25"><path d="m0 0c0.025 0.239 0.05 0.482 0.066 0.722"/><path d="m0 0 4e-3 -4e-3"/></g><g transform="translate(147.81 638.53)"><path d="m0 0-5e-3 -2e-3" fill="none" stroke="#000" stroke-linecap="round" stroke-linejoin="round" stroke-miterlimit="10" stroke-width=".25"/></g><g transform="translate(147.39 639.12)"><path d="m0 0c0.135-0.199 0.272-0.396 0.42-0.592" fill="none" stroke="#000" stroke-linecap="round" stroke-linejoin="round" stroke-miterlimit="10" stroke-width=".25"/></g><g transform="translate(149.89 639.73)"><path d="m0 0h4e-3" fill="none" stroke="#000" stroke-linecap="round" stroke-linejoin="round" stroke-miterlimit="10" stroke-width=".25"/></g><g transform="translate(149.59 640.39)"><path d="m0 0c0.223 0.193 0.424 0.398 0.617 0.617" fill="none" stroke="#000" stroke-linecap="round" stroke-linejoin="round" stroke-miterlimit="10" stroke-width=".25"/></g><g transform="translate(149.89 639.73)"><path d="m0 0c-0.097 0.222-0.197 0.44-0.307 0.659" fill="none" stroke="#000" stroke-linecap="round" stroke-linejoin="round" stroke-miterlimit="10" stroke-width=".25"/></g><g transform="translate(150.87 640.71)"><path d="m0 0v-6e-3" fill="none" stroke="#000" stroke-linecap="round" stroke-linejoin="round" stroke-miterlimit="10" stroke-width=".25"/></g><g transform="translate(150.2 641.01)"><path d="m0 0c0.218-0.105 0.44-0.208 0.662-0.302" fill="none" stroke="#000" stroke-linecap="round" stroke-linejoin="round" stroke-miterlimit="10" stroke-width=".25"/></g><g transform="translate(152.07 642.79)"><path d="m0 0 4e-3 2e-3" fill="none" stroke="#000" stroke-linecap="round" stroke-linejoin="round" stroke-miterlimit="10" stroke-width=".25"/></g><g transform="translate(151.48 643.21)"><path d="m0 0c0.089 0.272 0.164 0.554 0.223 0.839" fill="none" stroke="#000" stroke-linecap="round" stroke-linejoin="round" stroke-miterlimit="10" stroke-width=".25"/></g><g transform="translate(152.07 642.79)"><path d="m0 0c-0.193 0.143-0.39 0.283-0.592 0.422" fill="none" stroke="#000" stroke-linecap="round" stroke-linejoin="round" stroke-miterlimit="10" stroke-width=".25"/></g><g transform="translate(152.42 644.12)"><path d="m0 0 4e-3 -6e-3" fill="none" stroke="#000" stroke-linecap="round" stroke-linejoin="round" stroke-miterlimit="10" stroke-width=".25"/></g><g transform="translate(151.7 644.05)"><path d="m0 0c0.243 0.017 0.486 0.04 0.722 0.069" fill="none" stroke="#000" stroke-linecap="round" stroke-linejoin="round" stroke-miterlimit="10" stroke-width=".25"/></g><g transform="translate(152.42 646.52)"><path d="m0 0 4e-3 6e-3" fill="none" stroke="#000" stroke-linecap="round" stroke-linejoin="round" stroke-miterlimit="10" stroke-width=".25"/></g><g transform="translate(151.7 646.59)"><path d="m0 0c-0.059 0.285-0.134 0.566-0.223 0.839" fill="none" stroke="#000" stroke-linecap="round" stroke-linejoin="round" stroke-miterlimit="10" stroke-width=".25"/></g><g transform="translate(152.42 646.52)"><path d="m0 0c-0.235 0.027-0.479 0.052-0.722 0.069" fill="none" stroke="#000" stroke-linecap="round" stroke-linejoin="round" stroke-miterlimit="10" stroke-width=".25"/></g><g transform="translate(151.48 647.42)"><path d="m0 0c0.202 0.136 0.398 0.277 0.592 0.422" fill="none" stroke="#000" stroke-linecap="round" stroke-linejoin="round" stroke-miterlimit="10" stroke-width=".25"/></g><g transform="translate(140.36 641.01)"><path d="m0 0c0.189-0.218 0.395-0.424 0.617-0.617" fill="none" stroke="#000" stroke-linecap="round" stroke-linejoin="round" stroke-miterlimit="10" stroke-width=".25"/></g><g transform="translate(139.7 640.71)"><path d="m0 0c0.222 0.095 0.444 0.197 0.662 0.302" fill="none" stroke="#000" stroke-linecap="round" stroke-linejoin="round" stroke-miterlimit="10" stroke-width=".25"/></g><g transform="translate(140.67 639.73)"><path d="m0 0h-4e-3" fill="none" stroke="#000" stroke-linecap="round" stroke-linejoin="round" stroke-miterlimit="10" stroke-width=".25"/></g><g transform="translate(140.98 640.39)"><path d="m0 0c-0.109-0.218-0.21-0.437-0.307-0.659" fill="none" stroke="#000" stroke-linecap="round" stroke-linejoin="round" stroke-miterlimit="10" stroke-width=".25"/></g><g transform="translate(142.75 638.53)"><path d="m0 0v-2e-3" fill="none" stroke="#000" stroke-linecap="round" stroke-linejoin="round" stroke-miterlimit="10" stroke-width=".25"/></g><g transform="translate(143.17 639.12)"><path d="m0 0c0.277-0.092 0.558-0.168 0.844-0.225" fill="none" stroke="#000" stroke-linecap="round" stroke-linejoin="round" stroke-miterlimit="10" stroke-width=".25"/></g><g transform="translate(142.75 638.53)"><path d="m0 0c0.143 0.195 0.281 0.393 0.42 0.594" fill="none" stroke="#000" stroke-linecap="round" stroke-linejoin="round" stroke-miterlimit="10" stroke-width=".25"/></g><g transform="translate(144.08 638.18)"><path d="m0 0v-4e-3" fill="none" stroke="#000" stroke-linecap="round" stroke-linejoin="round" stroke-miterlimit="10" stroke-width=".25"/></g><g transform="translate(144.02 638.9)"><path d="m0 0c0.017-0.239 0.037-0.482 0.063-0.722" fill="none" stroke="#000" stroke-linecap="round" stroke-linejoin="round" stroke-miterlimit="10" stroke-width=".25"/></g><g transform="translate(149.59 640.39)"><path d="m0 0c-0.852-0.16-1.628-0.606-2.194-1.269" fill="none" stroke="#000" stroke-linecap="round" stroke-linejoin="round" stroke-miterlimit="10" stroke-width=".25"/></g><g transform="translate(146.55 638.9)"><path d="m0 0c-0.817 0.29-1.716 0.29-2.533 0" fill="none" stroke="#000" stroke-linecap="round" stroke-linejoin="round" stroke-miterlimit="10" stroke-width=".25"/></g><g transform="translate(143.17 639.12)"><path d="m0 0c-0.566 0.663-1.339 1.109-2.194 1.269" fill="none" stroke="#000" stroke-linecap="round" stroke-linejoin="round" stroke-miterlimit="10" stroke-width=".25"/></g><g transform="translate(140.36 641.01)"><path d="m0 0c-0.159 0.856-0.608 1.632-1.271 2.199" fill="none" stroke="#000" stroke-linecap="round" stroke-linejoin="round" stroke-miterlimit="10" stroke-width=".25"/></g><g transform="translate(138.86 644.05)"><path d="m0 0c0.293 0.822 0.293 1.716 0 2.539" fill="none" stroke="#000" stroke-linecap="round" stroke-linejoin="round" stroke-miterlimit="10" stroke-width=".25"/></g><g transform="translate(139.09 647.42)"><path d="m0 0c0.658 0.566 1.111 1.343 1.271 2.199" fill="none" stroke="#000" stroke-linecap="round" stroke-linejoin="round" stroke-miterlimit="10" stroke-width=".25"/></g><g transform="translate(140.98 650.24)"><path d="m0 0c0.855 0.162 1.628 0.608 2.194 1.27" fill="none" stroke="#000" stroke-linecap="round" stroke-linejoin="round" stroke-miterlimit="10" stroke-width=".25"/></g><g transform="translate(144.02 651.73)"><path d="m0 0c0.817-0.29 1.716-0.29 2.533 0" fill="none" stroke="#000" stroke-linecap="round" stroke-linejoin="round" stroke-miterlimit="10" stroke-width=".25"/></g><g transform="translate(147.39 651.51)"><path d="m0 0c0.566-0.661 1.343-1.108 2.194-1.27" fill="none" stroke="#000" stroke-linecap="round" stroke-linejoin="round" stroke-miterlimit="10" stroke-width=".25"/></g><g transform="translate(150.2 649.62)"><path d="m0 0c0.163-0.856 0.608-1.632 1.271-2.194" fill="none" stroke="#000" stroke-linecap="round" stroke-linejoin="round" stroke-miterlimit="10" stroke-width=".25"/></g><g transform="translate(151.7 646.59)"><path d="m0 0c-0.285-0.823-0.285-1.716 0-2.539" fill="none" stroke="#000" stroke-linecap="round" stroke-linejoin="round" stroke-miterlimit="10" stroke-width=".25"/></g><g transform="translate(151.48 643.21)"><path d="m0 0c-0.662-0.566-1.107-1.343-1.271-2.199" fill="none" stroke="#000" stroke-linecap="round" stroke-linejoin="round" stroke-miterlimit="10" stroke-width=".25"/></g></g></g><g transform="matrix(.35278 0 0 -.35278 112.77 71.724)" fill="none" stroke-linecap="round"><path d="m0 0h-19.605" stroke="#fff" stroke-width="1.5"/><path d="m0 0h-19.605" stroke="#000" stroke-width=".5"/></g><g transform="matrix(.35278 0 0 -.35278 69.436 71.724)" fill="none" stroke-linecap="round"><path d="m0 0h-19.342" stroke="#fff" stroke-width="1.5"/><path d="m0 0h-19.342" stroke="#000" stroke-width=".5"/></g><g transform="matrix(.35278 0 0 -.35278 87.693 59.66)" fill="none" stroke-linecap="round"><path d="m0 0v-24.068" stroke="#fff" stroke-width="1.5"/><path d="m0 0v-24.068" stroke="#000" stroke-width=".5"/></g><g transform="matrix(.35278 0 0 -.35278 36.44 297.69)"><g clip-path="url(#a)"><path d="m216.36 636.72h7.776v7.777h-7.776zm3.315 5.916c0.135 0.068 0.255 0.187 0.365 0.349h0.485v-4.828h-0.545v3.96h-0.806v0.4c0.228 0.025 0.39 0.068 0.501 0.119"/><path d="m66.414 636.72h7.776v7.777h-7.776zm3.314 5.916c0.136 0.068 0.255 0.187 0.366 0.349h0.485v-4.828h-0.545v3.96h-0.807v0.4c0.229 0.025 0.391 0.068 0.501 0.119"/><path d="m141.43 674.55h7.776v7.777h-7.776zm4.061 6.238c0.332 0 0.612-0.128 0.834-0.383 0.221-0.246 0.33-0.543 0.33-0.875 0-0.408-0.135-0.756-0.398-1.054-0.434-0.459-0.741-0.773-0.918-0.952-0.434-0.442-0.689-0.782-0.774-1.011h2.133v-0.527h-2.77c0 0.519 0.263 1.054 0.79 1.598 0.382 0.365 0.672 0.629 0.867 0.807 0.399 0.383 0.596 0.74 0.596 1.071 0 0.221-0.069 0.425-0.197 0.604-0.128 0.178-0.305 0.263-0.518 0.263-0.348 0-0.612-0.144-0.782-0.433-0.085-0.221-0.169-0.442-0.255-0.655l-0.476 0.127c0.272 0.944 0.782 1.42 1.538 1.42"/></g></g></g></svg>
