<?xml version="1.0" encoding="UTF-8"?>
<svg width="58.216mm" height="27.441mm" version="1.1" viewBox="0 0 58.216 27.441" xmlns="http://www.w3.org/2000/svg" xmlns:cc="http://creativecommons.org/ns#" xmlns:dc="http://purl.org/dc/elements/1.1/" xmlns:rdf="http://www.w3.org/1999/02/22-rdf-syntax-ns#">
 <metadata>
  <rdf:RDF>
   <cc:Work rdf:about="">
    <dc:format>image/svg+xml</dc:format>
    <dc:type rdf:resource="http://purl.org/dc/dcmitype/StillImage"/>
    <dc:title/>
   </cc:Work>
  </rdf:RDF>
 </metadata>
 <g transform="translate(-83.473 -98.172)">
  <path d="m95.831 109.9c0 0.34466-0.28152 0.62618-0.62618 0.62618h-10.929c-0.34431 0-0.62618-0.28152-0.62618-0.62618v-10.929c0-0.34466 0.28187-0.62653 0.62618-0.62653h10.929c0.34466 0 0.62618 0.28187 0.62618 0.62653z" fill="#fff"/>
  <path d="m95.831 109.9c0 0.34466-0.28152 0.62618-0.62618 0.62618h-10.929c-0.34431 0-0.62618-0.28152-0.62618-0.62618v-10.929c0-0.34466 0.28187-0.62653 0.62618-0.62653h10.929c0.34466 0 0.62618 0.28187 0.62618 0.62653z" fill="none" stroke="#000" stroke-width=".35278"/>
  <path d="m111.06 109.9c0 0.34466-0.28187 0.62618-0.62653 0.62618h-10.929c-0.34466 0-0.62653-0.28152-0.62653-0.62618v-10.929c0-0.34466 0.28187-0.62653 0.62653-0.62653h10.929c0.34466 0 0.62653 0.28187 0.62653 0.62653z" fill="#fff"/>
  <path d="m111.06 109.9c0 0.34466-0.28187 0.62618-0.62653 0.62618h-10.929c-0.34466 0-0.62653-0.28152-0.62653-0.62618v-10.929c0-0.34466 0.28187-0.62653 0.62653-0.62653h10.929c0.34466 0 0.62653 0.28187 0.62653 0.62653z" fill="none" stroke="#000" stroke-width=".35278"/>
  <path d="m126.29 109.9c0 0.34466-0.28116 0.62618-0.62618 0.62618h-10.929c-0.34466 0-0.62618-0.28152-0.62618-0.62618v-10.929c0-0.34466 0.28152-0.62653 0.62618-0.62653h10.929c0.34502 0 0.62618 0.28187 0.62618 0.62653z" fill="#fff"/>
  <path d="m126.29 109.9c0 0.34466-0.28116 0.62618-0.62618 0.62618h-10.929c-0.34466 0-0.62618-0.28152-0.62618-0.62618v-10.929c0-0.34466 0.28152-0.62653 0.62618-0.62653h10.929c0.34502 0 0.62618 0.28187 0.62618 0.62653z" fill="none" stroke="#000" stroke-width=".35278"/>
  <path d="m141.51 109.9c0 0.34466-0.28187 0.62618-0.62689 0.62618h-10.928c-0.34431 0-0.62653-0.28152-0.62653-0.62618v-10.929c0-0.34466 0.28222-0.62653 0.62653-0.62653h10.928c0.34502 0 0.62689 0.28187 0.62689 0.62653z" fill="#fff"/>
  <path d="m141.51 109.9c0 0.34466-0.28187 0.62618-0.62689 0.62618h-10.928c-0.34431 0-0.62653-0.28152-0.62653-0.62618v-10.929c0-0.34466 0.28222-0.62653 0.62653-0.62653h10.928c0.34502 0 0.62689 0.28187 0.62689 0.62653z" fill="none" stroke="#000" stroke-width=".35278"/>
  <path d="m95.831 124.81c0 0.34466-0.28152 0.62618-0.62618 0.62618h-10.929c-0.34431 0-0.62618-0.28152-0.62618-0.62618v-10.929c0-0.34466 0.28187-0.62653 0.62618-0.62653h10.929c0.34466 0 0.62618 0.28187 0.62618 0.62653z" fill="#fff"/>
  <path d="m95.831 124.81c0 0.34466-0.28152 0.62618-0.62618 0.62618h-10.929c-0.34431 0-0.62618-0.28152-0.62618-0.62618v-10.929c0-0.34466 0.28187-0.62653 0.62618-0.62653h10.929c0.34466 0 0.62618 0.28187 0.62618 0.62653z" fill="none" stroke="#000" stroke-width=".35278"/>
  <path d="m111.06 124.81c0 0.34466-0.28187 0.62618-0.62653 0.62618h-10.929c-0.34466 0-0.62653-0.28152-0.62653-0.62618v-10.929c0-0.34466 0.28187-0.62653 0.62653-0.62653h10.929c0.34466 0 0.62653 0.28187 0.62653 0.62653z" fill="#fff"/>
  <path d="m111.06 124.81c0 0.34466-0.28187 0.62618-0.62653 0.62618h-10.929c-0.34466 0-0.62653-0.28152-0.62653-0.62618v-10.929c0-0.34466 0.28187-0.62653 0.62653-0.62653h10.929c0.34466 0 0.62653 0.28187 0.62653 0.62653z" fill="none" stroke="#000" stroke-width=".35278"/>
  <path d="m126.29 124.81c0 0.34466-0.28116 0.62618-0.62618 0.62618h-10.929c-0.34466 0-0.62618-0.28152-0.62618-0.62618v-10.929c0-0.34466 0.28152-0.62653 0.62618-0.62653h10.929c0.34502 0 0.62618 0.28187 0.62618 0.62653z" fill="#fff"/>
  <path d="m126.29 124.81c0 0.34466-0.28116 0.62618-0.62618 0.62618h-10.929c-0.34466 0-0.62618-0.28152-0.62618-0.62618v-10.929c0-0.34466 0.28152-0.62653 0.62618-0.62653h10.929c0.34502 0 0.62618 0.28187 0.62618 0.62653z" fill="none" stroke="#000" stroke-width=".35278"/>
  <path d="m141.51 124.81c0 0.34466-0.28187 0.62618-0.62689 0.62618h-10.928c-0.34431 0-0.62653-0.28152-0.62653-0.62618v-10.929c0-0.34466 0.28222-0.62653 0.62653-0.62653h10.928c0.34502 0 0.62689 0.28187 0.62689 0.62653z" fill="#fff"/>
  <path d="m141.51 124.81c0 0.34466-0.28187 0.62618-0.62689 0.62618h-10.928c-0.34431 0-0.62653-0.28152-0.62653-0.62618v-10.929c0-0.34466 0.28222-0.62653 0.62653-0.62653h10.928c0.34502 0 0.62689 0.28187 0.62689 0.62653z" fill="none" stroke="#000" stroke-width=".35278"/>
  <g>
   <ellipse cx="89.541" cy="104.47" rx="2.9966" ry="2.8686" stroke-opacity="0"/>
   <text x="88.219566" y="105.98724" fill="#ffffff" font-family="sans-serif" font-size="4.2333px" stroke-width=".26458" style="line-height:1.25" xml:space="preserve"><tspan x="88.219566" y="105.98724" fill="#ffffff" font-size="4.2333px" stroke-width=".26458">1</tspan></text>
  </g>
  <g>
   <ellipse cx="104.74" cy="104.31" rx="2.9966" ry="2.8686" stroke-opacity="0"/>
   <text x="103.41504" y="105.82426" fill="#ffffff" font-family="sans-serif" font-size="4.2333px" stroke-width=".26458" style="line-height:1.25" xml:space="preserve"><tspan x="103.41504" y="105.82426" fill="#ffffff" font-size="4.2333px" stroke-width=".26458">2</tspan></text>
   <ellipse cx="119.84" cy="104.35" rx="2.9966" ry="2.8686" stroke-opacity="0"/>
   <text x="118.51472" y="105.86341" fill="#ffffff" font-family="sans-serif" font-size="4.2333px" stroke-width=".26458" style="line-height:1.25" xml:space="preserve"><tspan x="118.51472" y="105.86341" fill="#ffffff" font-size="4.2333px" stroke-width=".26458">3</tspan></text>
   <ellipse cx="135.03" cy="104.34" rx="2.9966" ry="2.8686" stroke-opacity="0"/>
   <text x="133.70889" y="105.85323" fill="#ffffff" font-family="sans-serif" font-size="4.2333px" stroke-width=".26458" style="line-height:1.25" xml:space="preserve"><tspan x="133.70889" y="105.85323" fill="#ffffff" font-size="4.2333px" stroke-width=".26458">4</tspan></text>
   <ellipse cx="89.447" cy="119.47" rx="2.9966" ry="2.8686" stroke-opacity="0"/>
   <text x="88.12561" y="120.98711" fill="#ffffff" font-family="sans-serif" font-size="4.2333px" stroke-width=".26458" style="line-height:1.25" xml:space="preserve"><tspan x="88.12561" y="120.98711" fill="#ffffff" font-size="4.2333px" stroke-width=".26458">5</tspan></text>
   <ellipse cx="104.66" cy="119.52" rx="2.9966" ry="2.8686" stroke-opacity="0"/>
   <text x="103.3417" y="121.03461" fill="#ffffff" font-family="sans-serif" font-size="4.2333px" stroke-width=".26458" style="line-height:1.25" xml:space="preserve"><tspan x="103.3417" y="121.03461" fill="#ffffff" font-size="4.2333px" stroke-width=".26458">6</tspan></text>
   <ellipse cx="120.1" cy="119.27" rx="2.9966" ry="2.8686" stroke-opacity="0"/>
   <text x="118.78043" y="120.783" fill="#ffffff" font-family="sans-serif" font-size="4.2333px" stroke-width=".26458" style="line-height:1.25" xml:space="preserve"><tspan x="118.78043" y="120.783" fill="#ffffff" font-size="4.2333px" stroke-width=".26458">7</tspan></text>
   <ellipse cx="135.2" cy="119.31" rx="2.9966" ry="2.8686" stroke-opacity="0"/>
   <text x="133.87802" y="120.82006" fill="#ffffff" font-family="sans-serif" font-size="4.2333px" stroke-width=".26458" style="line-height:1.25" xml:space="preserve"><tspan x="133.87802" y="120.82006" fill="#ffffff" font-size="4.2333px" stroke-width=".26458">8</tspan></text>
  </g>
  <text x="135.03793" y="106.00826" fill="#000000" font-family="sans-serif" font-size="10.583px" stroke-width=".26458" style="line-height:1.25" xml:space="preserve"><tspan x="135.03793" y="106.00826" stroke-width=".26458"/></text>
 </g>
</svg>
