<?xml version="1.0" encoding="UTF-8"?>
<svg width="58.216mm" height="27.441mm" version="1.1" viewBox="0 0 58.216 27.441" xmlns="http://www.w3.org/2000/svg"><defs><clipPath id="clipPath1199"><path d="m48.591 110.13h165.02v77.787h-165.02z"/></clipPath></defs><g transform="translate(-71.391 -8.6521)"><g transform="matrix(.35278 0 0 -.35278 54.249 74.944)"><g clip-path="url(#clipPath1199)"><g transform="translate(83.623 154.66)"><path d="m0 0c0-0.977-0.798-1.775-1.775-1.775h-30.981c-0.976 0-1.775 0.798-1.775 1.775v30.98c0 0.977 0.799 1.776 1.775 1.776h30.981c0.977 0 1.775-0.799 1.775-1.776z" fill="#fff"/><path d="m0 0c0-0.977-0.798-1.775-1.775-1.775h-30.981c-0.976 0-1.775 0.798-1.775 1.775v30.98c0 0.977 0.799 1.776 1.775 1.776h30.981c0.977 0 1.775-0.799 1.775-1.776z" fill="none" stroke="#000"/></g><g transform="translate(126.79 154.66)"><path d="m0 0c0-0.977-0.799-1.775-1.776-1.775h-30.98c-0.977 0-1.776 0.798-1.776 1.775v30.98c0 0.977 0.799 1.776 1.776 1.776h30.98c0.977 0 1.776-0.799 1.776-1.776z" fill="#fff"/><path d="m0 0c0-0.977-0.799-1.775-1.776-1.775h-30.98c-0.977 0-1.776 0.798-1.776 1.775v30.98c0 0.977 0.799 1.776 1.776 1.776h30.98c0.977 0 1.776-0.799 1.776-1.776z" fill="none" stroke="#000"/></g><g transform="translate(169.95 154.66)"><path d="m0 0c0-0.977-0.797-1.775-1.774-1.775h-30.981c-0.977 0-1.775 0.798-1.775 1.775v30.98c0 0.977 0.798 1.776 1.775 1.776h30.981c0.977 0 1.774-0.799 1.774-1.776z" fill="#fff"/><path d="m0 0c0-0.977-0.797-1.775-1.774-1.775h-30.981c-0.977 0-1.775 0.798-1.775 1.775v30.98c0 0.977 0.798 1.776 1.775 1.776h30.981c0.977 0 1.774-0.799 1.774-1.776z" fill="none" stroke="#000"/></g><g transform="translate(213.11 154.66)"><path d="m0 0c0-0.977-0.799-1.775-1.777-1.775h-30.978c-0.976 0-1.776 0.798-1.776 1.775v30.98c0 0.977 0.8 1.776 1.776 1.776h30.978c0.978 0 1.777-0.799 1.777-1.776z" fill="#fff"/><path d="m0 0c0-0.977-0.799-1.775-1.777-1.775h-30.978c-0.976 0-1.776 0.798-1.776 1.775v30.98c0 0.977 0.8 1.776 1.776 1.776h30.978c0.978 0 1.777-0.799 1.777-1.776z" fill="none" stroke="#000"/></g><g transform="translate(83.623 112.4)"><path d="m0 0c0-0.977-0.798-1.775-1.775-1.775h-30.981c-0.976 0-1.775 0.798-1.775 1.775v30.98c0 0.977 0.799 1.776 1.775 1.776h30.981c0.977 0 1.775-0.799 1.775-1.776z" fill="#fff"/><path d="m0 0c0-0.977-0.798-1.775-1.775-1.775h-30.981c-0.976 0-1.775 0.798-1.775 1.775v30.98c0 0.977 0.799 1.776 1.775 1.776h30.981c0.977 0 1.775-0.799 1.775-1.776z" fill="none" stroke="#000"/></g><g transform="translate(126.79 112.4)"><path d="m0 0c0-0.977-0.799-1.775-1.776-1.775h-30.98c-0.977 0-1.776 0.798-1.776 1.775v30.98c0 0.977 0.799 1.776 1.776 1.776h30.98c0.977 0 1.776-0.799 1.776-1.776z" fill="#fff"/><path d="m0 0c0-0.977-0.799-1.775-1.776-1.775h-30.98c-0.977 0-1.776 0.798-1.776 1.775v30.98c0 0.977 0.799 1.776 1.776 1.776h30.98c0.977 0 1.776-0.799 1.776-1.776z" fill="none" stroke="#000"/></g><g transform="translate(169.95 112.4)"><path d="m0 0c0-0.977-0.797-1.775-1.774-1.775h-30.981c-0.977 0-1.775 0.798-1.775 1.775v30.98c0 0.977 0.798 1.776 1.775 1.776h30.981c0.977 0 1.774-0.799 1.774-1.776z" fill="#fff"/><path d="m0 0c0-0.977-0.797-1.775-1.774-1.775h-30.981c-0.977 0-1.775 0.798-1.775 1.775v30.98c0 0.977 0.798 1.776 1.775 1.776h30.981c0.977 0 1.774-0.799 1.774-1.776z" fill="none" stroke="#000"/></g><g transform="translate(213.11 112.4)"><path d="m0 0c0-0.977-0.799-1.775-1.777-1.775h-30.978c-0.976 0-1.776 0.798-1.776 1.775v30.98c0 0.977 0.8 1.776 1.776 1.776h30.978c0.978 0 1.777-0.799 1.777-1.776z" fill="#fff"/><path d="m0 0c0-0.977-0.799-1.775-1.777-1.775h-30.978c-0.976 0-1.776 0.798-1.776 1.775v30.98c0 0.977 0.8 1.776 1.776 1.776h30.978c0.978 0 1.777-0.799 1.777-1.776z" fill="none" stroke="#000"/></g></g></g><text x="74.67881" y="29.21541" fill="#000000" font-family="'Frutiger LT Std 45 Light'" font-size="2.4694px" font-weight="bold" stroke-width=".35278"><tspan x="74.67881 75.928352 76.627205 77.328529 78.301483 79.689316 80.649925" y="29.21541">Filter</tspan><tspan x="74.026878 74.99984 76.387665 77.911316 79.296677 79.928848" y="32.388645">fade 2</tspan><tspan x="74.67881 75.928352 76.627205 77.328529 78.301483 79.689316 80.649925" y="14.314783">Filter</tspan><tspan x="74.026878 74.99984 76.387665 77.911316 79.296677 79.928848" y="17.488018">fade 1</tspan><tspan x="89.952324 91.201866 91.900719 92.602036 93.574997 94.96283 95.923439" y="29.21541">Filter</tspan><tspan x="89.300392 90.273354 91.661179 93.18483 94.570183 95.202362" y="32.388645">fade 4</tspan><tspan x="89.952324 91.201866 91.900719 92.602036 93.574997 94.96283 95.923439" y="14.314783">Filter</tspan><tspan x="89.300392 90.273354 91.661179 93.18483 94.570183 95.202362" y="17.488018">fade 3</tspan><tspan x="105.23572 106.48526 108.00643 109.53008 111.03891" y="29.21541">Loop</tspan><tspan x="104.49982 105.47525 106.86061 108.38425 109.76962 110.40179" y="32.388645">fade 2</tspan><tspan x="105.23572 106.48526 108.00643 109.53008 111.03891" y="14.314783">Loop</tspan><tspan x="104.49982 105.47525 106.86061 108.38425 109.76962 110.40179" y="17.488018">fade 1</tspan><tspan x="120.64999 122.17364 123.55899 124.67024 126.04326" y="29.21541">Back</tspan><tspan x="119.91656 121.02534 122.549 123.25031 124.77149 125.40367" y="32.388645">spin 2</tspan><tspan x="120.64999 122.17364 123.55899 124.67024 126.04326" y="14.314783">Back</tspan><tspan x="119.91656 121.02534 122.549 123.25031 124.77149 125.40367" y="17.488018">spin 1</tspan></text></g></svg>
