<?xml version="1.0" encoding="UTF-8"?>
<svg width="38.379mm" height="17.851mm" version="1.1" viewBox="0 0 38.379 17.851" xmlns="http://www.w3.org/2000/svg"><defs><clipPath id="clipPath8059"><path d="m330.41 555.5h108.79v50.6h-108.79z"/></clipPath><clipPath id="clipPath8751"><path d="m330.41 555.5h108.79v50.6h-108.79z"/></clipPath></defs><g transform="translate(-33.999 -24.987)"><g transform="translate(-8.6251 -13.279)"><path d="m42.624 56.117h38.379v-12.053h-38.379z" fill="#dcdcdc"/><g transform="matrix(.35278 0 0 -.35278 -73.936 252.08)"><g clip-path="url(#clipPath8059)"><g transform="translate(421.76 573.65)"><path d="m0 0h-0.564c-0.087 0-0.142-0.028-0.191-0.1-0.025-0.035-0.034-0.07-0.04-0.11-0.409-0.035-0.805-0.112-1.199-0.233h-3e-3c-0.199-0.061-0.32-0.162-0.418-0.349-0.075-0.15-0.173-0.247-0.325-0.32-2.434-1.151-3.747-3.834-3.159-6.464 0.59-2.627 2.922-4.498 5.617-4.498s5.03 1.871 5.618 4.498c0.591 2.63-0.724 5.313-3.159 6.464l0.017-0.025c-0.159 0.073-0.259 0.17-0.326 0.331l-0.02 0.014c-0.092 0.187-0.216 0.288-0.415 0.349-0.395 0.121-0.789 0.198-1.202 0.233-5e-3 0.04-0.014 0.075-0.041 0.109v1e-3c-0.048 0.073-0.103 0.1-0.19 0.1" fill="#fff" stroke="#000" stroke-miterlimit="10" stroke-width=".5"/></g><g transform="translate(351.56 561.86)"><path d="m0 0h-0.591v-1.575h-0.345v1.575h-0.587v0.306h1.523zm-2.844-1.121c0.087-0.137 0.23-0.21 0.423-0.218 0.138 5e-3 0.249 0.051 0.325 0.14 0.077 0.09 0.123 0.205 0.136 0.344l2e-3 8e-3h0.341l-2e-3 -0.011c-0.015-0.231-0.096-0.417-0.239-0.554-0.142-0.136-0.331-0.207-0.559-0.21-0.285 6e-3 -0.509 0.103-0.666 0.291-0.154 0.185-0.235 0.421-0.236 0.697 1e-3 0.277 0.082 0.512 0.236 0.697 0.157 0.187 0.381 0.285 0.665 0.291 0.219-2e-3 0.403-0.06 0.546-0.169 0.147-0.11 0.23-0.271 0.255-0.476l1e-3 -0.013h-0.341l-3e-3 0.01c-0.026 0.106-0.077 0.195-0.148 0.261-0.076 0.066-0.179 0.102-0.313 0.102-0.193-6e-3 -0.336-0.08-0.423-0.215-0.089-0.139-0.134-0.303-0.132-0.488-2e-3 -0.184 0.043-0.348 0.132-0.487m-0.629-0.452h-1.374v1.879h1.358v-0.306h-1.012v-0.468h0.934v-0.284h-0.934v-0.516h1.028zm-1.575 0h-1.287v1.881h0.342v-1.576h0.945zm-1.548 0h-1.375v1.879h1.357v-0.306h-1.011v-0.468h0.937v-0.284h-0.937v-0.516h1.029zm-1.874 0.086c-0.143-0.089-0.313-0.135-0.503-0.135h-0.02c-0.216 0-0.401 0.055-0.542 0.159-0.149 0.109-0.226 0.281-0.235 0.515v0.011h0.343v-9e-3c3e-3 -0.14 0.048-0.242 0.134-0.302 0.086-0.061 0.193-0.091 0.323-0.091h7e-3c0.138 3e-3 0.241 0.033 0.298 0.087 0.058 0.053 0.087 0.116 0.087 0.186-3e-3 0.069-0.017 0.12-0.046 0.151-0.03 0.033-0.064 0.057-0.101 0.069-0.065 0.025-0.143 0.048-0.231 0.071-0.089 0.022-0.198 0.05-0.328 0.084-0.156 0.047-0.267 0.115-0.327 0.205-0.061 0.086-0.091 0.182-0.088 0.285 7e-3 0.188 0.08 0.331 0.218 0.421 0.133 0.089 0.291 0.134 0.466 0.134h6e-3c0.202 0 0.373-0.051 0.509-0.152 0.137-0.1 0.21-0.252 0.214-0.451v-0.013h-0.342l-2e-3 0.012c-0.01 0.115-0.05 0.198-0.118 0.247-0.069 0.05-0.159 0.072-0.268 0.072h-0.017c-0.077 0-0.148-0.014-0.214-0.048-0.069-0.035-0.105-0.095-0.108-0.185 0-0.061 0.021-0.109 0.059-0.147 0.036-0.038 0.089-0.065 0.154-0.084 0.02-3e-3 0.067-0.017 0.138-0.034l0.108-0.029c0.141-0.037 0.234-0.063 0.296-0.081 0.123-0.04 0.217-0.107 0.276-0.198 0.06-0.091 0.091-0.19 0.091-0.291-9e-3 -0.211-0.088-0.366-0.237-0.459m10.197 2.274h-13.317c-0.133 0-0.187-0.055-0.187-0.187v-2.434c0-0.133 0.054-0.187 0.187-0.187h13.317c0.132 0 0.187 0.054 0.187 0.187v2.434c0 0.132-0.055 0.187-0.187 0.187"/></g><g transform="translate(424.73 578.14)"><path d="m0 0h1.58v0.354h-1.18v1.968h-0.4z"/></g><g transform="translate(422.69 578.14)"><path d="m0 0h1.687v0.354h-1.286v0.673h1.17v0.327h-1.17v0.614h1.262v0.354h-1.663z"/></g><g transform="translate(421.21 578.14)"><path d="m0 0h0.453l0.795 2.323h-0.415l-0.594-1.839h-9e-3l-0.582 1.839h-0.423z"/></g><g transform="translate(418.57 578.14)"><path d="m0 0h1.688v0.354h-1.288v0.673h1.17v0.327h-1.17v0.614h1.266v0.354h-1.666z"/></g><g transform="translate(416.71 578.14)"><path d="m0 0h1.579v0.354h-1.179v1.968h-0.4z"/></g><g transform="translate(396.53 560.51)"><path d="m0 0v1.451l1.812-0.724zm-1.113 1.357h-0.591v-1.584h-0.347v1.584h-0.588v0.297h1.526zm-1.68-1.584-2e-3 8e-3 -0.173 0.485h-0.721l-0.175-0.493h-0.361l6e-3 0.017 0.715 1.864h0.36l3e-3 -7e-3 0.721-1.874zm-1.65 0h-1.376v1.881h1.358v-0.297h-1.012v-0.469h0.937v-0.285h-0.937v-0.531h1.03zm-1.827 0.152c-0.111-0.098-0.287-0.147-0.527-0.152h-0.857v1.881h0.908c0.167 0 0.304-0.039 0.403-0.115 0.1-0.078 0.153-0.197 0.155-0.354 0-0.098-0.024-0.182-0.072-0.251-0.041-0.062-0.101-0.113-0.177-0.15 0.104-0.027 0.185-0.082 0.241-0.161 0.06-0.084 0.091-0.193 0.091-0.323 1e-3 -0.152-0.055-0.277-0.165-0.375m9.825 2.211h-13.317c-0.133 0-0.187-0.055-0.187-0.188v-2.433c0-0.133 0.054-0.188 0.187-0.188h13.317c0.133 0 0.187 0.055 0.187 0.188v2.433c0 0.133-0.054 0.188-0.187 0.188"/></g><g transform="translate(392.94 561.05)"><path d="m0 0h0.531l-0.263 0.764z"/></g><g transform="translate(389.78 561.13)"><path d="m0 0h-0.56v-0.558h0.56c0.095 1e-3 0.168 0.026 0.22 0.074 0.051 0.048 0.077 0.118 0.078 0.21-1e-3 0.087-0.027 0.156-0.078 0.202-0.052 0.048-0.125 0.072-0.22 0.072"/></g><g transform="translate(389.92 561.45)"><path d="m0 0c0.046 0.041 0.072 0.104 0.072 0.185 0 0.089-0.022 0.153-0.063 0.19-0.044 0.037-0.106 0.055-0.188 0.055h-0.517v-0.494h0.509c0.078 0 0.139 0.021 0.187 0.064"/></g><g transform="translate(344.67 585.65)"><path d="m0 0v0.564h-2.557v-3.714h0.642v1.643h1.68v0.523h-1.68v0.984z"/></g><g transform="translate(346.71 584.91)"><path d="m0 0-0.843 1.306h-0.776l1.23-1.782-1.318-1.933h0.744l0.942 1.43 0.927-1.43h0.79l-1.317 1.933 1.229 1.782h-0.729z"/></g><g transform="translate(350.48 586.14)"><path d="m0 0h-0.477c-0.055-0.229-0.161-0.362-0.376-0.463-0.222-0.102-0.439-0.146-0.683-0.136v-0.469h0.895v-2.577h0.641z"/></g><g transform="translate(385.14 567.5)"><path d="m0 0h-6.833c-0.1 0-0.14-0.041-0.14-0.142v-0.092c0-0.099 0.04-0.141 0.14-0.141h6.833c0.099 0 0.14 0.042 0.14 0.141v0.092c0 0.101-0.041 0.142-0.14 0.142"/></g><g transform="translate(361.74 567.5)"><path d="m0 0h-6.833c-0.099 0-0.14-0.041-0.14-0.142v-0.092c0-0.099 0.041-0.141 0.14-0.141h6.833c0.098 0 0.14 0.042 0.14 0.141v0.092c0 0.101-0.042 0.142-0.14 0.142"/></g><g transform="translate(421.7 576.26)"><path d="m0 0v-0.676c2.021-0.123 3.929-0.98 5.358-2.411 0.288 0.286 0.577 0.575 0.868 0.864-1.64 1.436-3.745 2.227-5.923 2.227-0.101 0-0.202-3e-3 -0.303-4e-3"/></g><g transform="translate(415.78 573.31)"><path d="m0 0c1.487 1.414 3.447 2.226 5.499 2.278v0.666c-2.217-0.073-4.323-0.983-5.897-2.547 0.132-0.132 0.265-0.264 0.398-0.397"/></g><g transform="translate(415.47 573.01)"><path d="m0 0c-0.13 0.13-0.26 0.261-0.39 0.391-1.469-1.61-2.285-3.711-2.291-5.891h0.404c0.051 2.053 0.861 4.012 2.277 5.5"/></g><g transform="translate(431.1 567.51)"><path d="m0 0c-0.089 2.376-1.115 4.618-2.856 6.238-0.297-0.294-0.591-0.591-0.885-0.884 1.329-1.474 2.087-3.371 2.136-5.354z"/></g><g transform="translate(429.5 567.08)"><path d="m0 0c-0.075-2.829-1.588-5.425-4.01-6.888-0.057-0.036-0.08-0.077-0.083-0.145 0-0.031 9e-3 -0.059 0.023-0.085l0.698-1.207c0.037-0.061 0.08-0.086 0.149-0.087 0.03 0 0.055 7e-3 0.081 0.021 2.934 1.606 4.759 4.686 4.759 8.03-3e-3 0.121-3e-3 0.242-6e-3 0.361z"/></g><g transform="translate(417.12 560.24)"><path d="m0 0c-2.375 1.473-3.854 4.045-3.923 6.841h-0.394c0.137-2.907 1.706-5.557 4.19-7.073l-6e-3 3e-3c-0.152-0.267-0.305-0.533-0.461-0.797-0.023-0.042-0.031-0.082-0.031-0.13 0-0.182 0.074-0.257 0.253-0.257 0.106 2e-3 0.17 0.038 0.225 0.129 0.626 1.085 1.251 2.167 1.876 3.253-0.147 0.083-0.296 0.17-0.444 0.256z"/></g><g transform="translate(434.24 584.63)"><path d="m0 0h-81.461c-0.101 0-0.141-0.041-0.141-0.142v-0.091c0-0.1 0.04-0.142 0.141-0.142h81.461c0.415 2e-3 0.75-0.334 0.75-0.748v-15.267c0-0.412-0.338-0.748-0.75-0.748h-2.012c-0.097 0-0.14-0.042-0.14-0.139v-0.095c0-0.099 0.043-0.14 0.14-0.14h2.012c0.62 0 1.124 0.503 1.124 1.122v15.267c0 0.621-0.504 1.123-1.124 1.123"/></g><g transform="translate(411.73 567.5)"><path d="m0 0h-10.018c-0.099 0-0.14-0.041-0.14-0.142v-0.092c0-0.099 0.041-0.141 0.14-0.141h10.018c0.098 0 0.138 0.042 0.138 0.141v0.092c0 0.101-0.04 0.142-0.138 0.142"/></g><g transform="translate(339.82 584.63)"><path d="m0 0h-3.489c-0.622 0-1.126-0.502-1.126-1.123v-15.267c0-0.619 0.504-1.122 1.126-1.122h2.01c0.1 0 0.14 0.041 0.14 0.14v0.095c0 0.097-0.04 0.139-0.14 0.139h-2.01c-0.415 0-0.749 0.336-0.749 0.748v15.267c0 0.414 0.334 0.75 0.749 0.75h3.489c0.1 0 0.14 0.041 0.14 0.14v0.093c0 0.099-0.04 0.14-0.14 0.14"/></g><g transform="translate(369.14 561.28)"><path d="M 0,0 H -0.561 V -0.558 H 0 c 0.097,0 0.168,0.025 0.221,0.074 0.051,0.048 0.077,0.118 0.079,0.209 C 0.298,-0.188 0.272,-0.116 0.221,-0.072 0.17,-0.024 0.097,0 0,0"/></g><g transform="translate(374.79 562.02)"><path d="m0 0h-0.591v-1.587h-0.35v1.587h-0.586v0.299h1.527zm-1.683-1.587-3e-3 9e-3 -0.171 0.484h-0.727l-0.173-0.493h-0.362l6e-3 0.018 0.717 1.868h0.363l2e-3 -8e-3 0.722-1.878zm-1.653 0h-1.381v1.886h1.361v-0.299h-1.012v-0.468h0.938v-0.287h-0.938v-0.533h1.032zm-1.832 0.153c-0.109-0.098-0.287-0.15-0.527-0.153h-0.86v1.886h0.91c0.168 0 0.304-0.039 0.405-0.115 0.101-0.079 0.153-0.2 0.154-0.357 0-0.098-0.024-0.181-0.071-0.251-0.043-0.061-0.102-0.113-0.178-0.148 0.106-0.029 0.186-0.083 0.242-0.164 0.06-0.084 0.091-0.194 0.091-0.323 1e-3 -0.153-0.054-0.278-0.166-0.375m-2.688 0.076-1.816 0.725 1.816 0.727zm9.875 2.138h-13.345c-0.134 0-0.188-0.054-0.188-0.187v-2.439c0-0.133 0.054-0.187 0.188-0.187h13.345c0.133 0 0.188 0.054 0.188 0.187v2.439c0 0.133-0.055 0.187-0.188 0.187"/></g><g transform="translate(369.28 561.6)"><path d="m0 0c0.048 0.043 0.071 0.104 0.072 0.186-1e-3 0.089-0.021 0.154-0.065 0.191-0.042 0.035-0.105 0.055-0.187 0.055h-0.519v-0.495h0.512c0.078 0 0.14 0.021 0.187 0.063"/></g><g transform="translate(372.3 561.2)"><path d="m0 0h0.533l-0.266 0.765z"/></g><g transform="translate(339.44 569.71)"><path d="m0 0v-4.772c0-0.597 0.483-1.079 1.075-1.079h12.235c0.596 0 1.076 0.482 1.076 1.079v4.772c0 0.595-0.48 1.078-1.076 1.078h-12.235c-0.592 0-1.075-0.483-1.075-1.078" fill="#fff"/><path d="m0 0v-4.772c0-0.597 0.483-1.079 1.075-1.079h12.235c0.596 0 1.076 0.482 1.076 1.079v4.772c0 0.595-0.48 1.078-1.076 1.078h-12.235c-0.592 0-1.075-0.483-1.075-1.078z" fill="none" stroke="#000" stroke-miterlimit="10" stroke-width=".5"/></g><g transform="translate(353.23 564.93)"><path d="m0 0c0-0.266-0.216-0.479-0.48-0.479h-12.234c-0.264 0-0.477 0.213-0.477 0.479v4.772c0 0.263 0.213 0.478 0.477 0.478l12.234 1e-3c0.264-1e-3 0.48-0.213 0.48-0.479z" fill="none" stroke="#000" stroke-miterlimit="10" stroke-width=".25"/></g><g transform="translate(362.84 569.71)"><path d="m0 0v-4.772c0-0.597 0.484-1.079 1.077-1.079h12.234c0.596 0 1.076 0.482 1.076 1.079v4.772c0 0.595-0.48 1.078-1.076 1.078h-12.234c-0.593 0-1.077-0.483-1.077-1.078" fill="#fff"/><path d="m0 0v-4.772c0-0.597 0.484-1.079 1.077-1.079h12.234c0.596 0 1.076 0.482 1.076 1.079v4.772c0 0.595-0.48 1.078-1.076 1.078h-12.234c-0.593 0-1.077-0.483-1.077-1.078z" fill="none" stroke="#000" stroke-miterlimit="10" stroke-width=".5"/></g><g transform="translate(376.63 564.93)"><path d="m0 0c0-0.266-0.213-0.479-0.479-0.479h-12.233c-0.263 0-0.477 0.213-0.477 0.479v4.772c0 0.263 0.214 0.478 0.477 0.478l12.233 1e-3c0.266-1e-3 0.479-0.213 0.479-0.479z" fill="none" stroke="#000" stroke-miterlimit="10" stroke-width=".25"/></g><g transform="translate(386.37 569.71)"><path d="m0 0v-4.772c0-0.597 0.484-1.079 1.078-1.079h12.235c0.594 0 1.076 0.482 1.076 1.079v4.772c0 0.595-0.482 1.078-1.076 1.078h-12.235c-0.594 0-1.078-0.483-1.078-1.078" fill="#fff"/><path d="m0 0v-4.772c0-0.597 0.484-1.079 1.078-1.079h12.235c0.594 0 1.076 0.482 1.076 1.079v4.772c0 0.595-0.482 1.078-1.076 1.078h-12.235c-0.594 0-1.078-0.483-1.078-1.078z" fill="none" stroke="#000" stroke-miterlimit="10" stroke-width=".5"/></g><g transform="translate(400.16 564.93)"><path d="m0 0c0-0.266-0.215-0.479-0.479-0.479h-12.234c-0.264 0-0.477 0.213-0.477 0.479v4.772c0 0.263 0.213 0.478 0.477 0.478l12.234 1e-3c0.264-1e-3 0.479-0.213 0.479-0.479z" fill="none" stroke="#000" stroke-miterlimit="10" stroke-width=".25"/></g><g transform="translate(423.64 572.86)"><path d="m0 0c0.078-0.15 0.179-0.247 0.326-0.32" fill="none" stroke="#000" stroke-linecap="round" stroke-linejoin="round" stroke-width=".25"/></g><g transform="translate(417.36 568.66)"><path d="m0 0c0.564 0.427 0.833 0.891 0.919 1.593" fill="none" stroke="#000" stroke-linecap="round" stroke-linejoin="round" stroke-width=".25"/></g><g transform="translate(421.79 571.36)"><path d="m0 0h-0.564" fill="none" stroke="#000" stroke-linecap="round" stroke-linejoin="round" stroke-width=".25"/></g><g transform="translate(421.23 571.36)"><path d="m0 0h-0.23" fill="none" stroke="#000" stroke-linecap="round" stroke-linejoin="round" stroke-width=".25"/></g><g transform="translate(421.79 571.36)"><path d="m0 0h0.234" fill="none" stroke="#000" stroke-linecap="round" stroke-linejoin="round" stroke-width=".25"/></g><g transform="translate(421 567.33)"><path d="m0 0c0-0.282 0.23-0.513 0.513-0.513 0.282 0 0.516 0.231 0.516 0.513" fill="none" stroke="#000" stroke-linecap="round" stroke-linejoin="round" stroke-width=".25"/></g><g transform="translate(421 572.57)"><path d="m0 0v-1.21" fill="none" stroke="#000" stroke-linecap="round" stroke-linejoin="round" stroke-width=".25"/></g><g transform="translate(421 571.36)"><path d="m0 0v-4.03" fill="none" stroke="#000" stroke-linecap="round" stroke-linejoin="round" stroke-width=".25"/></g><g transform="translate(421 572.71)" fill="none" stroke="#000" stroke-linecap="round" stroke-linejoin="round" stroke-width=".25"><path d="m0 0v0.406"/><path d="m0 0v-0.051"/></g><g transform="translate(421.23 573.65)"><path d="m0 0c-0.087 0-0.142-0.028-0.19-0.1" fill="none" stroke="#000" stroke-linecap="round" stroke-linejoin="round" stroke-width=".25"/></g><g transform="translate(421.79 573.65)"><path d="m0 0h-0.564" fill="none" stroke="#000" stroke-linecap="round" stroke-linejoin="round" stroke-width=".25"/></g><g transform="translate(421.98 573.55)"><path d="m0 0c-0.049 0.072-0.104 0.1-0.19 0.1" fill="none" stroke="#000" stroke-linecap="round" stroke-linejoin="round" stroke-width=".25"/></g><g transform="translate(422.02 572.57)"><path d="m0 0v-1.21" fill="none" stroke="#000" stroke-linecap="round" stroke-linejoin="round" stroke-width=".25"/></g><g transform="translate(422.02 571.36)"><path d="m0 0v-4.03" fill="none" stroke="#000" stroke-linecap="round" stroke-linejoin="round" stroke-width=".25"/></g><g transform="translate(422.02 572.71)" fill="none" stroke="#000" stroke-linecap="round" stroke-linejoin="round" stroke-width=".25"><path d="m0 0v0.406"/><path d="m0 0v-0.051"/></g><g transform="translate(418.35 571.12)"><path d="m0 0c0.069-0.192 0.15-0.378 0.233-0.563" fill="none" stroke="#000" stroke-linecap="round" stroke-linejoin="round" stroke-width=".25"/></g><g transform="translate(416.88 569.03)"><path d="m0 0c0.158-0.13 0.32-0.251 0.487-0.366" fill="none" stroke="#000" stroke-linecap="round" stroke-linejoin="round" stroke-width=".25"/></g><g transform="translate(418.28 570.26)"><path d="m0 0c-0.184 0.083-0.371 0.165-0.559 0.234" fill="none" stroke="#000" stroke-linecap="round" stroke-linejoin="round" stroke-width=".25"/></g><g transform="translate(416.65 566.49)"><path d="m0 0c0.199-0.033 0.4-0.058 0.603-0.076" fill="none" stroke="#000" stroke-linecap="round" stroke-linejoin="round" stroke-width=".25"/></g><g transform="translate(417.25 568.25)"><path d="m0 0c-0.202-0.018-0.403-0.046-0.6-0.076" fill="none" stroke="#000" stroke-linecap="round" stroke-linejoin="round" stroke-width=".25"/></g><g transform="translate(417.72 564.17)"><path d="m0 0c0.188 0.071 0.375 0.149 0.559 0.233" fill="none" stroke="#000" stroke-linecap="round" stroke-linejoin="round" stroke-width=".25"/></g><g transform="translate(417.36 566)"><path d="m0 0c-0.167-0.115-0.329-0.239-0.487-0.363" fill="none" stroke="#000" stroke-linecap="round" stroke-linejoin="round" stroke-width=".25"/></g><g transform="translate(419.81 562.7)"><path d="m0 0c0.124 0.155 0.245 0.315 0.366 0.481" fill="none" stroke="#000" stroke-linecap="round" stroke-linejoin="round" stroke-width=".25"/></g><g transform="translate(418.58 564.1)"><path d="m0 0c-0.083-0.185-0.164-0.374-0.233-0.56" fill="none" stroke="#000" stroke-linecap="round" stroke-linejoin="round" stroke-width=".25"/></g><g transform="translate(422.35 562.47)"><path d="m0 0c0.032 0.199 0.058 0.397 0.078 0.603" fill="none" stroke="#000" stroke-linecap="round" stroke-linejoin="round" stroke-width=".25"/></g><g transform="translate(420.59 563.08)"><path d="m0 0c0.017-0.205 0.043-0.403 0.074-0.603" fill="none" stroke="#000" stroke-linecap="round" stroke-linejoin="round" stroke-width=".25"/></g><g transform="translate(424.67 563.54)"><path d="m0 0c-0.072 0.186-0.149 0.375-0.236 0.56" fill="none" stroke="#000" stroke-linecap="round" stroke-linejoin="round" stroke-width=".25"/></g><g transform="translate(422.84 563.18)"><path d="m0 0c0.115-0.166 0.233-0.326 0.366-0.481" fill="none" stroke="#000" stroke-linecap="round" stroke-linejoin="round" stroke-width=".25"/></g><g transform="translate(426.14 565.63)"><path d="m0 0c-0.158 0.124-0.316 0.248-0.483 0.363" fill="none" stroke="#000" stroke-linecap="round" stroke-linejoin="round" stroke-width=".25"/></g><g transform="translate(424.74 564.4)"><path d="m0 0c0.185-0.084 0.369-0.162 0.56-0.233" fill="none" stroke="#000" stroke-linecap="round" stroke-linejoin="round" stroke-width=".25"/></g><g transform="translate(426.37 568.18)"><path d="m0 0c-0.199 0.03-0.401 0.059-0.6 0.076" fill="none" stroke="#000" stroke-linecap="round" stroke-linejoin="round" stroke-width=".25"/></g><g transform="translate(425.77 566.41)"><path d="m0 0c0.198 0.019 0.4 0.043 0.6 0.076" fill="none" stroke="#000" stroke-linecap="round" stroke-linejoin="round" stroke-width=".25"/></g><g transform="translate(424.43 570.56)"><path d="m0 0c0.087 0.185 0.164 0.37 0.236 0.563" fill="none" stroke="#000" stroke-linecap="round" stroke-linejoin="round" stroke-width=".25"/></g><g transform="translate(422.7 571.69)"><path d="m0 0c0.421-0.708 0.914-1.03 1.732-1.132" fill="none" stroke="#000" stroke-linecap="round" stroke-linejoin="round" stroke-width=".25"/></g><g transform="translate(424.74 570.26)"><path d="m0 0c-0.098 0.104-0.196 0.207-0.303 0.301" fill="none" stroke="#000" stroke-linecap="round" stroke-linejoin="round" stroke-width=".25"/></g><g fill="none" stroke="#000" stroke-linecap="round" stroke-linejoin="round" stroke-width=".25"><g transform="translate(425.77 568.25)"><path d="m0 0c-0.032 0.139-0.069 0.275-0.112 0.412"/><path d="m0 0c-0.28-0.651-0.28-1.19 0-1.842"/></g><g transform="translate(425.66 566)"><path d="m0 0c0.043 0.136 0.08 0.273 0.112 0.412"/><path d="m0 0c-0.565-0.424-0.833-0.893-0.92-1.594"/></g><g transform="translate(424.43 564.1)"><path d="m0 0c0.106 0.095 0.208 0.194 0.303 0.3"/><path d="m0 0c-0.7-0.088-1.167-0.356-1.591-0.921"/></g><g transform="translate(422.43 563.08)"><path d="m0 0c0.138 0.028 0.273 0.063 0.412 0.108"/><path d="m0 0c-0.651 0.273-1.19 0.273-1.842 0"/></g><g transform="translate(420.18 563.18)"><path d="m0 0c0.132-0.045 0.271-0.08 0.409-0.108"/><path d="m0 0c-0.427 0.564-0.896 0.833-1.598 0.921"/></g><g transform="translate(418.28 564.4)"><path d="m0 0c0.093-0.105 0.196-0.205 0.3-0.3"/><path d="m0 0c-0.086 0.701-0.354 1.17-0.919 1.594"/></g></g><g transform="translate(417.25 566.41)"><path d="m0 0c0.031-0.139 0.063-0.276 0.112-0.412" fill="none" stroke="#000" stroke-linecap="round" stroke-linejoin="round" stroke-width=".25"/></g><g transform="translate(417.36 568.66)"><path d="m0 0c-0.049-0.137-0.081-0.273-0.112-0.412" fill="none" stroke="#000" stroke-linecap="round" stroke-linejoin="round" stroke-width=".25"/></g><g transform="translate(418.58 570.56)" fill="none" stroke="#000" stroke-linecap="round" stroke-linejoin="round" stroke-width=".25"><path d="m0 0c-0.104-0.094-0.207-0.196-0.3-0.301"/><path d="m0 0c0.825 0.104 1.531 0.627 1.868 1.384"/></g><g transform="translate(424.74 570.26)"><path d="m0 0c0.087-0.702 0.354-1.166 0.92-1.593" fill="none" stroke="#000" stroke-linecap="round" stroke-linejoin="round" stroke-width=".25"/></g><g transform="translate(425.3 570.49)"><path d="m0 0c-0.19-0.069-0.375-0.151-0.56-0.234" fill="none" stroke="#000" stroke-linecap="round" stroke-linejoin="round" stroke-width=".25"/></g><g transform="translate(425.66 568.66)"><path d="m0 0c0.167 0.115 0.325 0.236 0.483 0.366" fill="none" stroke="#000" stroke-linecap="round" stroke-linejoin="round" stroke-width=".25"/></g><g transform="translate(425.85 570.86)"><path d="m0 0-0.386-0.241-0.164-0.127" fill="none" stroke="#000" stroke-linecap="round" stroke-linejoin="round" stroke-width=".25"/></g><g transform="translate(426.73 569.32)"><path d="m0 0-0.397-0.214-0.197-0.078" fill="none" stroke="#000" stroke-linecap="round" stroke-linejoin="round" stroke-width=".25"/></g><g transform="translate(427.03 568.22)"><path d="m0 0-0.452-0.018-0.207-0.025" fill="none" stroke="#000" stroke-linecap="round" stroke-linejoin="round" stroke-width=".25"/></g><g transform="translate(427.03 566.44)"><path d="m0 0-0.452 0.018-0.207 0.027" fill="none" stroke="#000" stroke-linecap="round" stroke-linejoin="round" stroke-width=".25"/></g><g transform="translate(426.73 565.34)"><path d="m0 0-0.397 0.212-0.197 0.082" fill="none" stroke="#000" stroke-linecap="round" stroke-linejoin="round" stroke-width=".25"/></g><g transform="translate(425.85 563.8)"><path d="m0 0-0.386 0.241-0.164 0.127" fill="none" stroke="#000" stroke-linecap="round" stroke-linejoin="round" stroke-width=".25"/></g><g transform="translate(425.04 562.99)"><path d="m0 0-0.239 0.387-0.127 0.161" fill="none" stroke="#000" stroke-linecap="round" stroke-linejoin="round" stroke-width=".25"/></g><g transform="translate(423.5 562.11)"><path d="m0 0-0.214 0.4-0.074 0.196" fill="none" stroke="#000" stroke-linecap="round" stroke-linejoin="round" stroke-width=".25"/></g><g transform="translate(422.4 561.81)"><path d="m0 0-0.017 0.456-0.026 0.207" fill="none" stroke="#000" stroke-linecap="round" stroke-linejoin="round" stroke-width=".25"/></g><g transform="translate(420.62 561.81)"><path d="m0 0 0.018 0.456 0.025 0.207" fill="none" stroke="#000" stroke-linecap="round" stroke-linejoin="round" stroke-width=".25"/></g><g transform="translate(419.51 562.11)"><path d="M 0,0 0.216,0.4 0.3,0.596" fill="none" stroke="#000" stroke-linecap="round" stroke-linejoin="round" stroke-width=".25"/></g><g transform="translate(417.98 562.99)"><path d="m0 0 0.241 0.387 0.127 0.161" fill="none" stroke="#000" stroke-linecap="round" stroke-linejoin="round" stroke-width=".25"/></g><g transform="translate(417.17 563.8)"><path d="m0 0 0.387 0.241 0.164 0.127" fill="none" stroke="#000" stroke-linecap="round" stroke-linejoin="round" stroke-width=".25"/></g><g transform="translate(416.29 565.34)"><path d="m0 0 0.4 0.212 0.191 0.082" fill="none" stroke="#000" stroke-linecap="round" stroke-linejoin="round" stroke-width=".25"/></g><g transform="translate(415.99 566.44)"><path d="m0 0 0.449 0.018 0.211 0.027" fill="none" stroke="#000" stroke-linecap="round" stroke-linejoin="round" stroke-width=".25"/></g><g transform="translate(415.99 568.22)"><path d="m0 0 0.449-0.018 0.211-0.025" fill="none" stroke="#000" stroke-linecap="round" stroke-linejoin="round" stroke-width=".25"/></g><g transform="translate(416.29 569.32)"><path d="m0 0 0.4-0.214 0.191-0.078" fill="none" stroke="#000" stroke-linecap="round" stroke-linejoin="round" stroke-width=".25"/></g><g transform="translate(417.17 570.86)"><path d="m0 0 0.387-0.241 0.164-0.127" fill="none" stroke="#000" stroke-linecap="round" stroke-linejoin="round" stroke-width=".25"/></g><g transform="translate(422.57 571.94)" fill="none" stroke="#000" stroke-linecap="round" stroke-linejoin="round" stroke-width=".25"><path d="m0 0c0.038-0.087 0.081-0.17 0.127-0.252"/><path d="m0 0 0.52 0.239"/><path d="m0 0c-0.028 0.033-0.058 0.049-0.101 0.055"/></g><g transform="translate(422.02 572.57)"><path d="m0 0c0 0.029-3e-3 0.057-3e-3 0.087" fill="none" stroke="#000" stroke-linecap="round" stroke-linejoin="round" stroke-width=".25"/></g><g transform="translate(422.47 572)"><path d="m0 0c-0.144 0.023-0.294 0.037-0.443 0.049" fill="none" stroke="#000" stroke-linecap="round" stroke-linejoin="round" stroke-width=".25"/></g><g transform="translate(421 572.04)"><path d="m0 0c-0.15-0.012-0.297-0.028-0.447-0.049" fill="none" stroke="#000" stroke-linecap="round" stroke-linejoin="round" stroke-width=".25"/></g><g transform="translate(421 572.66)"><path d="m0 0v-0.085" fill="none" stroke="#000" stroke-linecap="round" stroke-linejoin="round" stroke-width=".25"/></g><g transform="translate(420.55 572)"><path d="m0 0c-0.043-6e-3 -0.074-0.021-0.098-0.052" fill="none" stroke="#000" stroke-linecap="round" stroke-linejoin="round" stroke-width=".25"/></g><g transform="translate(420.45 571.94)"><path d="m0 0-0.519 0.239" fill="none" stroke="#000" stroke-linecap="round" stroke-linejoin="round" stroke-width=".25"/></g><g transform="translate(421 572.66)"><path d="m0 0v-7e-3" fill="none" stroke="#000" stroke-linecap="round" stroke-linejoin="round" stroke-width=".25"/></g><g transform="translate(421 573.12)"><path d="m0 0v-2e-3" fill="none" stroke="#000" stroke-linecap="round" stroke-linejoin="round" stroke-width=".25"/></g><g transform="translate(421 573.44)"><path d="m0 0v-0.315" fill="none" stroke="#000" stroke-linecap="round" stroke-linejoin="round" stroke-width=".25"/></g><g transform="translate(422.02 573.44)"><path d="m0 0 3e-3 -0.315" fill="none" stroke="#000" stroke-linecap="round" stroke-linejoin="round" stroke-width=".25"/></g><g transform="translate(422.02 573.12)"><path d="m0 0v-2e-3" fill="none" stroke="#000" stroke-linecap="round" stroke-linejoin="round" stroke-width=".25"/></g><g transform="translate(417.98 571.67)"><path d="m0 0 0.241-0.387 0.127-0.161" fill="none" stroke="#000" stroke-linecap="round" stroke-linejoin="round" stroke-width=".25"/></g><g transform="translate(419.93 572.18)"><path d="m0 0-0.023 0.213-0.089 0.209-0.157 0.2" fill="none" stroke="#000" stroke-linecap="round" stroke-linejoin="round" stroke-width=".25"/></g><g transform="translate(423.09 572.18)"><path d="m0 0 0.02 0.213 0.089 0.209 0.156 0.2" fill="none" stroke="#000" stroke-linecap="round" stroke-linejoin="round" stroke-width=".25"/></g><g transform="translate(425.04 571.67)"><path d="m0 0-0.239-0.387-0.127-0.161" fill="none" stroke="#000" stroke-linecap="round" stroke-linejoin="round" stroke-width=".25"/></g><g transform="translate(418.79 572.3)"><path d="m0 0-0.222-0.13-0.214-0.146-0.245-0.196-0.074-0.074-0.044-0.054-9e-3 -0.017-2e-3 -0.01v-7e-3" fill="none" stroke="#000" stroke-linecap="round" stroke-linejoin="round" stroke-width=".25"/></g><g transform="translate(419.04 572.42)"><path d="m0 0c0.155 0.072 0.251 0.17 0.325 0.331" fill="none" stroke="#000" stroke-linecap="round" stroke-linejoin="round" stroke-width=".25"/></g><g transform="translate(419.38 572.86)"><path d="m0 0-0.015-0.107" fill="none" stroke="#000" stroke-linecap="round" stroke-linejoin="round" stroke-width=".25"/></g><g transform="translate(419.36 572.75)"><path d="m0 0 6e-3 9e-3" fill="none" stroke="#000" stroke-linecap="round" stroke-linejoin="round" stroke-width=".25"/></g><g transform="translate(422.02 573.44)"><path d="m0 0c-6e-3 0.04-0.015 0.075-0.041 0.109" fill="none" stroke="#000" stroke-linecap="round" stroke-linejoin="round" stroke-width=".25"/></g><g transform="translate(421.04 573.55)"><path d="m0 0c-0.025-0.035-0.034-0.07-0.04-0.11" fill="none" stroke="#000" stroke-linecap="round" stroke-linejoin="round" stroke-width=".25"/></g><g transform="translate(421 573.44)"><path d="m0 0c-0.409-0.035-0.805-0.112-1.199-0.233" fill="none" stroke="#000" stroke-linecap="round" stroke-linejoin="round" stroke-width=".25"/></g><g transform="translate(419.79 573.2)"><path d="m0 0c-0.199-0.061-0.32-0.162-0.418-0.349" fill="none" stroke="#000" stroke-linecap="round" stroke-linejoin="round" stroke-width=".25"/></g><g transform="translate(419.05 572.54)"><path d="m0 0c0.152 0.073 0.25 0.17 0.325 0.32" fill="none" stroke="#000" stroke-linecap="round" stroke-linejoin="round" stroke-width=".25"/></g><g transform="translate(423.22 573.2)"><path d="m0 0c-0.395 0.121-0.789 0.198-1.201 0.233" fill="none" stroke="#000" stroke-linecap="round" stroke-linejoin="round" stroke-width=".25"/></g><g transform="translate(419.04 572.42)"><path d="m0 0c-0.084-0.036-0.164-0.073-0.245-0.115" fill="none" stroke="#000" stroke-linecap="round" stroke-linejoin="round" stroke-width=".25"/></g><g transform="translate(419.37 572.76)"><path d="m0 0 0.248 0.052 0.037-3e-3h0.012v-3e-3" fill="none" stroke="#000" stroke-linecap="round" stroke-linejoin="round" stroke-width=".25"/></g><g transform="translate(423.66 572.75)"><path d="m0 0-0.018 0.107" fill="none" stroke="#000" stroke-linecap="round" stroke-linejoin="round" stroke-width=".25"/></g><g transform="translate(423.64 572.86)"><path d="m0 0c-0.092 0.187-0.216 0.288-0.415 0.349" fill="none" stroke="#000" stroke-linecap="round" stroke-linejoin="round" stroke-width=".25"/></g><g transform="translate(423.98 572.42)"><path d="m0 0 0.294-0.145 0.279-0.169 0.207-0.153 0.197-0.176 0.054-0.066 0.021-0.02 3e-3 -0.012-3e-3 -8e-3" fill="none" stroke="#000" stroke-linecap="round" stroke-linejoin="round" stroke-width=".25"/></g><g transform="translate(423.66 572.75)"><path d="m0 0-6e-3 9e-3" fill="none" stroke="#000" stroke-linecap="round" stroke-linejoin="round" stroke-width=".25"/></g><g transform="translate(423.58 572.78)" fill="none" stroke="#000" stroke-linecap="round" stroke-linejoin="round" stroke-width=".25"><path d="m0 0 0.072-0.021"/><path d="m0 0-0.192 0.031-0.027-3e-3 -6e-3 -3e-3"/></g><g transform="translate(420.62 561.81)"><path d="m0 0 3e-3 -6e-3 3e-3 -4e-3 0.012-5e-3 0.034-0.015 0.127-0.039 0.329-0.055 0.331-0.02 0.271 8e-3 0.268 0.027 0.268 0.051 0.086 0.03 0.033 0.013 7e-3 9e-3 3e-3 6e-3" fill="none" stroke="#000" stroke-linecap="round" stroke-linejoin="round" stroke-width=".25"/></g><g transform="translate(426.73 569.32)"><path d="m0 0 6e-3 6e-3v0.052l-0.031 0.131-0.116 0.312-0.15 0.295-0.141 0.235-0.159 0.219-0.179 0.205-0.065 0.061-0.035 0.019-6e-3 2e-3h-9e-3" fill="none" stroke="#000" stroke-linecap="round" stroke-linejoin="round" stroke-width=".25"/></g><g transform="translate(417.98 562.99)"><path d="m0 0v-0.01l2e-3 -4e-3v-8e-3l0.023-0.031 0.093-0.095 0.259-0.212 0.274-0.185 0.24-0.129 0.25-0.112 0.254-0.087 0.086-0.018 0.04-3e-3 0.012 6e-3" fill="none" stroke="#000" stroke-linecap="round" stroke-linejoin="round" stroke-width=".25"/></g><g transform="translate(425.85 563.8)"><path d="m0 0h0.015l6e-3 5e-3 0.031 0.022 0.095 0.091 0.213 0.257 0.182 0.278 0.13 0.238 0.112 0.247 0.09 0.256 0.017 0.092v0.043l-6e-3 9e-3" fill="none" stroke="#000" stroke-linecap="round" stroke-linejoin="round" stroke-width=".25"/></g><g transform="translate(416.29 565.34)"><path d="m0 0-6e-3 -8e-3v-7e-3l-3e-3 -8e-3 6e-3 -0.035 0.029-0.133 0.116-0.314 0.149-0.294 0.145-0.234 0.155-0.221 0.179-0.202 0.069-0.061 0.028-0.019 9e-3 -2e-3h0.012" fill="none" stroke="#000" stroke-linecap="round" stroke-linejoin="round" stroke-width=".25"/></g><g transform="translate(415.99 568.22)"><path d="m0 0-9e-3 -4e-3 -3e-3 -5e-3 -9e-3 -9e-3 -0.013-0.03-0.041-0.13-0.052-0.328-0.02-0.331 5e-3 -0.272 0.03-0.273 0.051-0.265 0.029-0.085 0.017-0.034 3e-3 -4e-3 0.012-7e-3" fill="none" stroke="#000" stroke-linecap="round" stroke-linejoin="round" stroke-width=".25"/></g><g transform="translate(424.23 562.36)" fill="none" stroke="#000" stroke-linecap="round" stroke-linejoin="round" stroke-width=".25"><path d="m0 0 0.222 0.128 0.216 0.145 0.242 0.199 0.075 0.076 0.04 0.052 0.015 0.017 3e-3 7e-3 -3e-3 0.01"/><path d="m0 0-0.214-0.104-0.21-0.084-0.147-0.048-0.078-0.018-0.052-6e-3h-0.014l-6e-3 3e-3 -8e-3 3e-3"/></g><g transform="translate(417.17 570.86)"><path d="m0 0h-0.012l-0.011-5e-3 -0.032-0.021-0.094-0.091-0.214-0.26-0.185-0.274-0.13-0.242-0.112-0.248-0.083-0.255-0.021-0.09-2e-3 -0.035 2e-3 -7e-3 6e-3 -9e-3" fill="none" stroke="#000" stroke-linecap="round" stroke-linejoin="round" stroke-width=".25"/></g><g transform="translate(427.03 566.44)"><path d="m0 0 9e-3 3e-3 3e-3 6e-3 6e-3 9e-3 0.011 0.032 0.037 0.131 0.061 0.327 0.02 0.331-5e-3 0.271-0.029 0.273-0.052 0.263-0.032 0.088-0.017 0.031-3e-3 6e-3 -9e-3 6e-3" fill="none" stroke="#000" stroke-linecap="round" stroke-linejoin="round" stroke-width=".25"/></g><g transform="translate(419.05 572.54)"><path d="m0 0c-2.434-1.15-3.747-3.834-3.159-6.464 0.591-2.627 2.923-4.498 5.617-4.498 2.695 0 5.03 1.871 5.618 4.498 0.591 2.63-0.723 5.314-3.159 6.464" fill="none" stroke="#000" stroke-linecap="round" stroke-linejoin="round" stroke-width=".25"/></g><g transform="translate(417.25 566.41)"><path d="m0 0c0.276 0.651 0.276 1.19 0 1.842" fill="none" stroke="#000" stroke-linecap="round" stroke-linejoin="round" stroke-width=".25"/></g><g transform="translate(428.53 567.33)"><path d="m0 0c0 3.88-3.142 7.021-7.019 7.021-3.874 0-7.018-3.141-7.018-7.021 0-3.876 3.144-7.021 7.018-7.021 3.877 0 7.019 3.145 7.019 7.021z" fill="none" stroke="#000" stroke-linecap="round" stroke-linejoin="round" stroke-width=".25"/></g><g transform="translate(423.66 572.75)"><path d="m0 0c0.066-0.161 0.167-0.259 0.326-0.331" fill="none" stroke="#000" stroke-linecap="round" stroke-linejoin="round" stroke-width=".25"/></g><g transform="translate(370.95 566.32)"><path d="m0 0v-0.389h-1.868c3e-3 0.219 0.058 0.415 0.164 0.587 0.107 0.171 0.251 0.319 0.437 0.443 0.19 0.124 0.372 0.253 0.543 0.385 0.175 0.136 0.268 0.306 0.285 0.515 5e-3 0.105-0.023 0.212-0.088 0.315-0.062 0.106-0.186 0.163-0.375 0.17-0.173-5e-3 -0.296-0.071-0.363-0.198-0.068-0.127-0.106-0.29-0.107-0.487h-0.445c0 0.309 0.08 0.561 0.242 0.755 0.16 0.196 0.393 0.294 0.7 0.301 0.329-0.013 0.56-0.109 0.69-0.288 0.132-0.18 0.195-0.363 0.191-0.552-7e-3 -0.216-0.068-0.397-0.188-0.542-0.119-0.149-0.26-0.275-0.422-0.383-0.164-0.107-0.317-0.208-0.455-0.306-0.139-0.097-0.23-0.205-0.274-0.326z"/></g><g transform="translate(394.1 566.13)"><path d="m0 0c-0.185-0.146-0.412-0.222-0.682-0.225-0.315 4e-3 -0.553 0.092-0.712 0.264-0.161 0.17-0.242 0.4-0.248 0.689h0.445c-6e-3 -0.17 0.036-0.308 0.122-0.415 0.088-0.107 0.221-0.163 0.393-0.167 0.153 2e-3 0.277 0.043 0.375 0.126 0.097 0.085 0.147 0.206 0.149 0.364-8e-3 0.206-0.082 0.339-0.227 0.397-0.141 0.058-0.303 0.081-0.488 0.067 0 0.111 1e-3 0.221 1e-3 0.335 0.156-9e-3 0.294 0.019 0.415 0.083 0.121 0.063 0.186 0.175 0.192 0.337-3e-3 0.119-0.042 0.21-0.121 0.283-0.078 0.069-0.178 0.103-0.304 0.106-0.156-6e-3 -0.27-0.063-0.346-0.175-0.075-0.11-0.111-0.239-0.109-0.387h-0.443c0.015 0.274 0.098 0.496 0.255 0.666 0.155 0.173 0.373 0.26 0.65 0.266 0.223 0 0.419-0.061 0.592-0.182 0.17-0.124 0.261-0.306 0.272-0.549 0-0.139-0.034-0.259-0.096-0.362-0.064-0.101-0.161-0.177-0.294-0.225v-9e-3c0.157-0.033 0.278-0.111 0.364-0.23 0.086-0.121 0.132-0.27 0.132-0.446-8e-3 -0.26-0.103-0.464-0.287-0.611"/></g><g transform="translate(347.01 565.96)"><path d="m0 0h-0.481v1.934h-0.672v0.35c0.195-3e-3 0.364 0.03 0.513 0.102 0.15 0.071 0.244 0.186 0.283 0.346h0.357z"/></g></g></g><g fill="none" stroke-linecap="round"><g transform="matrix(.35278 0 0 -.35278 46.255 40.977)"><path d="m0 0v-29.082" stroke="#fff" stroke-width="1.5"/><path d="m0 0v-29.082" stroke="#000" stroke-width=".5"/></g><g transform="matrix(.35278 0 0 -.35278 56.588 40.977)"><path d="m0 0v-29.082" stroke="#fff" stroke-width="1.5"/><path d="m0 0v-29.082" stroke="#000" stroke-width=".5"/></g><g transform="matrix(.35278 0 0 -.35278 64.908 40.977)"><path d="m0 0v-29.082" stroke="#fff" stroke-width="1.5"/><path d="m0 0v-29.082" stroke="#000" stroke-width=".5"/></g></g><g transform="matrix(.35278 0 0 -.35278 -73.936 252.08)"><g clip-path="url(#clipPath8751)"><g transform="translate(413.32 598.41)" fill="none" stroke-linecap="round"><path d="m0 0v-25.098c0-0.55 0.383-1.233 0.854-1.517l4.771-2.884" stroke="#fff" stroke-width="1.5"/><path d="m0 0v-25.098c0-0.55 0.383-1.233 0.854-1.517l4.771-2.884" stroke="#000" stroke-width=".5"/></g><path d="m336.88 598.31h7.776v7.776h-7.776zm3.315 5.915c0.135 0.069 0.255 0.188 0.365 0.35h0.485v-4.828h-0.545v3.961h-0.806v0.398c0.228 0.026 0.39 0.069 0.501 0.119"/><path d="m366.25 598.27h7.776v7.776h-7.776zm4.062 6.239c0.332 0 0.612-0.128 0.834-0.382 0.22-0.247 0.33-0.545 0.33-0.876 0-0.407-0.135-0.757-0.399-1.054-0.433-0.459-0.74-0.773-0.918-0.952-0.433-0.442-0.688-0.782-0.773-1.011h2.133v-0.527h-2.771c0 0.518 0.264 1.054 0.79 1.598 0.383 0.365 0.672 0.628 0.868 0.807 0.399 0.382 0.595 0.739 0.595 1.071 0 0.221-0.068 0.424-0.196 0.604-0.128 0.178-0.306 0.263-0.519 0.263-0.347 0-0.611-0.144-0.781-0.433-0.086-0.222-0.17-0.442-0.256-0.655l-0.475 0.128c0.272 0.943 0.782 1.419 1.538 1.419"/><path d="m389.7 598.32h7.777v7.778h-7.777zm3.17 5.993c0.246 0.163 0.492 0.248 0.755 0.248 0.35 0 0.647-0.111 0.877-0.324 0.229-0.22 0.34-0.502 0.34-0.849 0-0.477-0.187-0.817-0.562-1.037 0.451-0.297 0.672-0.714 0.672-1.241 0-0.367-0.12-0.681-0.366-0.962-0.246-0.271-0.552-0.408-0.918-0.408-0.365 0-0.687 0.111-0.951 0.323-0.162 0.128-0.324 0.324-0.502 0.587l0.434 0.23c0.254-0.451 0.578-0.672 0.961-0.672 0.246 0 0.459 0.093 0.629 0.271 0.17 0.18 0.254 0.393 0.254 0.639 0 0.315-0.077 0.553-0.229 0.705-0.144 0.137-0.383 0.221-0.705 0.264-0.094 9e-3 -0.248 0.017-0.459 0.017v0.451c0.211 0 0.365 8e-3 0.475 0.025 0.527 0.085 0.791 0.349 0.791 0.799 0 0.204-0.069 0.374-0.204 0.518-0.136 0.145-0.306 0.213-0.511 0.213-0.211 0-0.406-0.077-0.569-0.238-0.068-0.06-0.17-0.195-0.314-0.399l-0.416 0.229c0.102 0.238 0.271 0.442 0.518 0.611"/><path d="m409.4 598.19h7.777v7.777h-7.777zm3.961 6.239h0.628v-3.068h0.409v-0.468h-0.409v-1.265h-0.519v1.265h-1.768v0.452zm0.109-0.722h-8e-3l-1.25-2.346h1.258z"/></g></g></g></g></svg>
