<?xml version="1.0" encoding="UTF-8"?>
<svg width="39.442mm" height="15mm" version="1.1" viewBox="0 0 39.442 15" xmlns="http://www.w3.org/2000/svg"><defs><clipPath id="clipPath85716"><rect transform="scale(1,-1)" x="-44.102" y="-15.633" width="87.012" height="38.863" fill="none" stroke="#000" stroke-width=".75"/></clipPath><clipPath id="clipPath85720"><rect transform="scale(1,-1)" x="-44.102" y="-15.633" width="87.012" height="38.863" fill="none" stroke="#000" stroke-width=".75"/></clipPath><clipPath id="clipPath85724"><rect transform="scale(1,-1)" x="-44.204" y="-25.499" width="87.012" height="38.863" fill="none" stroke="#000" stroke-width=".75"/></clipPath><clipPath id="clipPath85728"><rect transform="scale(1,-1)" x="-44.204" y="-25.499" width="87.012" height="38.863" fill="none" stroke="#000" stroke-width=".75"/></clipPath><clipPath id="clipPath85732"><rect transform="scale(1,-1)" x="-41.625" y="-25.257" width="87.012" height="38.863" fill="none" stroke="#000" stroke-width=".75"/></clipPath><clipPath id="clipPath85736"><rect transform="scale(1,-1)" x="-41.625" y="-25.257" width="87.012" height="38.863" fill="none" stroke="#000" stroke-width=".75"/></clipPath><clipPath id="clipPath85740"><rect transform="scale(1,-1)" x="-39.514" y="-23.756" width="87.012" height="38.863" fill="none" stroke="#000" stroke-width=".75"/></clipPath><clipPath id="clipPath85744"><rect transform="scale(1,-1)" x="-39.514" y="-23.756" width="87.012" height="38.863" fill="none" stroke="#000" stroke-width=".75"/></clipPath><clipPath id="clipPath85748"><rect transform="scale(1,-1)" x="-38.435" y="-21.401" width="87.012" height="38.863" fill="none" stroke="#000" stroke-width=".75"/></clipPath><clipPath id="clipPath85752"><rect transform="scale(1,-1)" x="-38.435" y="-21.401" width="87.012" height="38.863" fill="none" stroke="#000" stroke-width=".75"/></clipPath><clipPath id="clipPath85756"><rect transform="scale(1,-1)" x="-38.678" y="-18.823" width="87.012" height="38.863" fill="none" stroke="#000" stroke-width=".75"/></clipPath><clipPath id="clipPath85760"><rect transform="scale(1,-1)" x="-38.678" y="-18.823" width="87.012" height="38.863" fill="none" stroke="#000" stroke-width=".75"/></clipPath><clipPath id="clipPath85764"><rect transform="scale(1,-1)" x="-40.177" y="-16.712" width="87.012" height="38.863" fill="none" stroke="#000" stroke-width=".75"/></clipPath><clipPath id="clipPath85768"><rect transform="scale(1,-1)" x="-40.177" y="-16.712" width="87.012" height="38.863" fill="none" stroke="#000" stroke-width=".75"/></clipPath><clipPath id="clipPath85772"><rect transform="scale(1,-1)" x="-45.111" y="-15.876" width="87.012" height="38.863" fill="none" stroke="#000" stroke-width=".75"/></clipPath><clipPath id="clipPath85776"><rect transform="scale(1,-1)" x="-45.111" y="-15.876" width="87.012" height="38.863" fill="none" stroke="#000" stroke-width=".75"/></clipPath><clipPath id="clipPath85780"><rect transform="scale(1,-1)" x="-47.223" y="-17.376" width="87.012" height="38.863" fill="none" stroke="#000" stroke-width=".75"/></clipPath><clipPath id="clipPath85784"><rect transform="scale(1,-1)" x="-47.223" y="-17.376" width="87.012" height="38.863" fill="none" stroke="#000" stroke-width=".75"/></clipPath><clipPath id="clipPath85788"><rect transform="scale(1,-1)" x="-48.301" y="-19.731" width="87.012" height="38.863" fill="none" stroke="#000" stroke-width=".75"/></clipPath><clipPath id="clipPath85792"><rect transform="scale(1,-1)" x="-48.301" y="-19.731" width="87.012" height="38.863" fill="none" stroke="#000" stroke-width=".75"/></clipPath><clipPath id="clipPath85796"><rect transform="scale(1,-1)" x="-48.059" y="-22.309" width="87.012" height="38.863" fill="none" stroke="#000" stroke-width=".75"/></clipPath><clipPath id="clipPath85800"><rect transform="scale(1,-1)" x="-48.059" y="-22.309" width="87.012" height="38.863" fill="none" stroke="#000" stroke-width=".75"/></clipPath><clipPath id="clipPath85804"><rect transform="scale(1,-1)" x="-46.559" y="-24.42" width="87.012" height="38.863" fill="none" stroke="#000" stroke-width=".75"/></clipPath><clipPath id="clipPath85808"><rect transform="scale(1,-1)" x="-46.559" y="-24.42" width="87.012" height="38.863" fill="none" stroke="#000" stroke-width=".75"/></clipPath><clipPath id="clipPath85812"><rect transform="scale(1,-1)" x="-40.119" y="-22.442" width="87.012" height="38.863" fill="none" stroke="#000" stroke-width=".75"/></clipPath><clipPath id="clipPath85816"><rect transform="scale(1,-1)" x="-38.88" y="-23.157" width="87.012" height="38.863" fill="none" stroke="#000" stroke-width=".75"/></clipPath><clipPath id="clipPath85820"><rect transform="scale(1,-1)" x="-37.139" y="-24.163" width="87.012" height="38.863" fill="none" stroke="#000" stroke-width=".75"/></clipPath><clipPath id="clipPath85824"><rect transform="scale(1,-1)" x="-37.139" y="-24.163" width="87.012" height="38.863" fill="none" stroke="#000" stroke-width=".75"/></clipPath><clipPath id="clipPath85828"><rect transform="scale(1,-1)" x="-46.488" y="-29.815" width="87.012" height="38.863" fill="none" stroke="#000" stroke-width=".75"/></clipPath><clipPath id="clipPath85832"><rect transform="scale(1,-1)" x="-41.098" y="-31.222" width="87.012" height="38.863" fill="none" stroke="#000" stroke-width=".75"/></clipPath><clipPath id="clipPath85836"><rect transform="scale(1,-1)" x="-44.155" y="-31.261" width="87.012" height="38.863" fill="none" stroke="#000" stroke-width=".75"/></clipPath><clipPath id="clipPath85840"><rect transform="scale(1,-1)" x="-42.26" y="-30.804" width="87.012" height="38.863" fill="none" stroke="#000" stroke-width=".75"/></clipPath><clipPath id="clipPath85844"><rect transform="scale(1,-1)" x="-47.775" y="-31.622" width="87.012" height="38.863" fill="none" stroke="#000" stroke-width=".75"/></clipPath><clipPath id="clipPath85848"><rect transform="scale(1,-1)" x="-16.768" y="-28.139" width="87.012" height="38.863" fill="none" stroke="#000" stroke-width=".75"/></clipPath><clipPath id="clipPath85852"><rect transform="scale(1,-1)" x="-20.559" y="-30.614" width="87.012" height="38.863" fill="none" stroke="#000" stroke-width=".75"/></clipPath><clipPath id="clipPath85856"><rect x="90.476" y="63.826" width="30.696" height="13.71" fill="none" stroke="#000" stroke-width=".26458"/></clipPath><clipPath id="clipPath85860"><rect transform="scale(1,-1)" x="-70.286" y="-29.41" width="87.012" height="38.863" fill="none" stroke="#000" stroke-width=".75"/></clipPath><clipPath id="clipPath85864"><rect transform="scale(1,-1)" x="-72.831" y="-29.753" width="87.012" height="38.863" fill="none" stroke="#000" stroke-width=".75"/></clipPath><clipPath id="clipPath85868"><rect transform="scale(1,-1)" x="-68.483" y="-29.797" width="87.012" height="38.863" fill="none" stroke="#000" stroke-width=".75"/></clipPath><clipPath id="clipPath85872"><rect transform="scale(1,-1)" x="-74.722" y="-30.306" width="87.012" height="38.863" fill="none" stroke="#000" stroke-width=".75"/></clipPath><clipPath id="clipPath85876"><rect transform="scale(1,-1)" x="-71.099" y="-18.07" width="87.012" height="38.863" fill="none" stroke="#000" stroke-width=".75"/></clipPath><clipPath id="clipPath85880"><rect transform="scale(1,-1)" x="-69.829" y="-18.401" width="87.012" height="38.863" fill="none" stroke="#000" stroke-width=".75"/></clipPath><clipPath id="clipPath85884"><rect transform="scale(1,-1)" x="-73.886" y="-18.388" width="87.012" height="38.863" fill="none" stroke="#000" stroke-width=".75"/></clipPath><clipPath id="clipPath85888"><rect transform="scale(1,-1)" x="-67.167" y="-16.821" width="87.012" height="38.863" fill="none" stroke="#000" stroke-width=".75"/></clipPath><clipPath id="clipPath85892"><rect transform="scale(1,-1)" x="-16.751" y="-18.07" width="87.012" height="38.863" fill="none" stroke="#000" stroke-width=".75"/></clipPath><clipPath id="clipPath85896"><rect transform="scale(1,-1)" x="-15.481" y="-18.401" width="87.012" height="38.863" fill="none" stroke="#000" stroke-width=".75"/></clipPath><clipPath id="clipPath85900"><rect transform="scale(1,-1)" x="-19.537" y="-18.388" width="87.012" height="38.863" fill="none" stroke="#000" stroke-width=".75"/></clipPath><clipPath id="clipPath85904"><rect transform="scale(1,-1)" x="-12.82" y="-16.821" width="87.012" height="38.863" fill="none" stroke="#000" stroke-width=".75"/></clipPath><clipPath id="clipPath85908"><rect transform="scale(1,-1)" x="-236.57" y="-232.2" width="87.012" height="38.863" fill="none" stroke="#000" stroke-width=".75"/></clipPath><clipPath id="clipPath85912"><rect transform="scale(1,-1)" x="-65.358" y="-26.335" width="87.012" height="38.863" fill="none" stroke="#000" stroke-width=".75"/></clipPath><clipPath id="clipPath85916"><rect transform="scale(1,-1)" x="-65.444" y="-25.794" width="87.012" height="38.863" fill="none" stroke="#000" stroke-width=".75"/></clipPath><clipPath id="clipPath85920"><rect transform="scale(1,-1)" x="-10.971" y="-26.335" width="87.012" height="38.863" fill="none" stroke="#000" stroke-width=".75"/></clipPath><clipPath id="clipPath85924"><rect transform="scale(1,-1)" x="-11.056" y="-25.794" width="87.012" height="38.863" fill="none" stroke="#000" stroke-width=".75"/></clipPath><clipPath id="clipPath85928"><rect transform="scale(1,-1)" x="-236.57" y="-9.2919" width="87.012" height="38.863" fill="none" stroke="#000" stroke-width=".75"/></clipPath><clipPath id="clipPath85932"><rect transform="scale(1,-1)" x="-236.57" y="-9.3389" width="87.012" height="38.863" fill="none" stroke="#000" stroke-width=".75"/></clipPath></defs><g transform="matrix(.35278 0 0 -.35278 87.918 4.5846)" clip-path="url(#clipPath85932)"><path d="m0 0h-165.72v0.704l-0.229 0.333h-0.219l-0.091-0.217h-0.09l-0.094 0.217h-0.215l-0.094-0.217h-0.089l-0.092 0.217h-0.217l-0.094-0.217h-0.09l-0.091 0.217h-0.217l-0.233-0.333v-0.704h-72.168v3.261l-0.244 0.482h-6.46l-0.244-0.482v-3.261h-4.72v3.261l-0.245 0.482h-6.46l-0.243-0.482v-3.261h-20.845v2.396l-0.245 0.482h-8.255l-0.244-0.482v-2.396h-5.438v3.542l-0.244 0.482h-4.354l-0.244-0.482v-3.542h-87.822c-4.47 0-8.091-3.623-8.091-8.091v-206.68c0-4.468 3.621-8.091 8.091-8.091h386.35c4.469 0 8.09 3.623 8.09 8.091v206.68c0 4.468-3.621 8.091-8.09 8.091z" fill="none" stroke="#231f20" stroke-linecap="round" stroke-linejoin="round" stroke-miterlimit="10"/></g><g transform="matrix(.35278 0 0 -.35278 87.918 4.568)" clip-path="url(#clipPath85928)"><path d="m0 0h-165.72v0.703l-0.229 0.334h-0.219l-0.091-0.217h-0.09l-0.094 0.217h-0.215l-0.094-0.217h-0.09l-0.091 0.217h-0.217l-0.094-0.217h-0.09l-0.091 0.217h-0.217l-0.233-0.334v-0.703h-72.168v3.153l-0.244 0.59h-6.46l-0.244-0.59v-3.153h-4.72v3.13l-0.245 0.613h-6.46l-0.243-0.613v-3.13h-20.845v2.268l-0.245 0.61h-8.255l-0.244-0.61v-2.268h-5.438v3.55l-0.244 0.501h-4.354l-0.244-0.501v-3.55h-87.822c-4.47 0-8.092-3.623-8.092-8.091v-206.68c0-4.47 3.622-8.091 8.092-8.091h386.35c4.469 0 8.09 3.621 8.09 8.091v206.68c0 4.468-3.621 8.091-8.09 8.091" fill="#fff"/></g><g transform="matrix(.35278 0 0 -.35278 8.3622 10.39)" clip-path="url(#clipPath85924)"><path d="m0 0c-0.261 0-0.472 0.211-0.472 0.472v3.658c0 0.26 0.211 0.471 0.472 0.471h10.349c0.259 0 0.47-0.211 0.47-0.471v-3.658c0-0.261-0.211-0.472-0.47-0.472z" fill="none" stroke="#231f20" stroke-linecap="round" stroke-linejoin="round" stroke-miterlimit="10" stroke-width=".5"/></g><g transform="matrix(.35278 0 0 -.35278 8.3322 10.58)" clip-path="url(#clipPath85920)"><path d="m0 0c-0.514 0-0.929 0.429-0.929 0.957v3.769c0 0.529 0.415 0.957 0.929 0.957h10.519c0.512 0 0.928-0.428 0.928-0.957v-3.769c0-0.528-0.416-0.957-0.928-0.957z" fill="none" stroke="#231f20" stroke-linecap="round" stroke-linejoin="round" stroke-miterlimit="10" stroke-width=".35"/></g><g transform="matrix(.35278 0 0 -.35278 27.549 10.39)" clip-path="url(#clipPath85916)"><path d="m0 0c-0.259 0-0.47 0.211-0.47 0.472v3.658c0 0.26 0.211 0.471 0.47 0.471h10.348c0.262 0 0.473-0.211 0.473-0.471v-3.658c0-0.261-0.211-0.472-0.473-0.472z" fill="none" stroke="#231f20" stroke-linecap="round" stroke-linejoin="round" stroke-miterlimit="10" stroke-width=".5"/></g><g transform="matrix(.35278 0 0 -.35278 27.519 10.58)" clip-path="url(#clipPath85912)"><path d="m0 0c-0.511 0-0.927 0.429-0.927 0.957v3.769c0 0.529 0.416 0.957 0.927 0.957h10.52c0.514 0 0.93-0.428 0.93-0.957v-3.769c0-0.528-0.416-0.957-0.93-0.957z" fill="none" stroke="#231f20" stroke-linecap="round" stroke-linejoin="round" stroke-miterlimit="10" stroke-width=".35"/></g><g transform="matrix(.35278 0 0 -.35278 87.918 83.205)" clip-path="url(#clipPath85908)"><path d="m0 0c4.469 0 8.09 3.623 8.09 8.091v206.68c0 4.468-3.621 8.091-8.09 8.091h-386.35c-4.47 0-8.091-3.623-8.091-8.091v-206.68c0-4.468 3.621-8.091 8.091-8.091z" fill="none" stroke="#231f20" stroke-linecap="round" stroke-linejoin="round" stroke-miterlimit="10" stroke-width=".5"/><g transform="translate(-148.9 127.25)"><path d="m0 0c-0.363 0-0.654 0.292-0.654 0.655v3.799c0 0.362 0.291 0.654 0.654 0.654h6.705c0.361 0 0.654-0.292 0.654-0.654v-3.799c0-0.363-0.293-0.655-0.654-0.655z" fill="none" stroke="#231f20" stroke-linecap="round" stroke-linejoin="round" stroke-miterlimit="10" stroke-width=".5"/></g></g><g transform="matrix(.35278 0 0 -.35278 8.9845 7.2241)" clip-path="url(#clipPath85904)"><path d="m0 0h-0.363v-2.075h1.415v0.307h-1.052v1.768" fill="#231f20"/></g><g transform="matrix(.35278 0 0 -.35278 11.354 7.7769)" clip-path="url(#clipPath85900)"><path d="m0 0c-0.093-0.138-0.279-0.21-0.554-0.215h-0.355v1.49h0.355c0.275-5e-3 0.461-0.077 0.554-0.215 0.095-0.139 0.138-0.315 0.131-0.531 7e-3 -0.214-0.036-0.39-0.131-0.529zm0.278 1.265c-0.148 0.194-0.378 0.295-0.694 0.302h-0.855v-2.075h0.855c0.316 7e-3 0.546 0.109 0.694 0.303 0.145 0.195 0.219 0.441 0.216 0.734 3e-3 0.295-0.071 0.541-0.216 0.736" fill="#231f20"/></g><g transform="matrix(.35278 0 0 -.35278 9.9232 7.7815)" clip-path="url(#clipPath85896)"><path d="m0 0c-0.1-0.154-0.259-0.235-0.479-0.245-0.218 0.01-0.378 0.091-0.477 0.245-0.1 0.157-0.15 0.336-0.149 0.542-1e-3 0.207 0.049 0.387 0.149 0.543 0.099 0.155 0.259 0.237 0.477 0.245 0.22-8e-3 0.379-0.09 0.479-0.245 0.098-0.156 0.149-0.336 0.147-0.543 2e-3 -0.206-0.049-0.385-0.147-0.542zm-0.479 1.622c-0.309-8e-3 -0.55-0.114-0.723-0.319s-0.262-0.458-0.264-0.761c2e-3 -0.303 0.091-0.558 0.264-0.761 0.173-0.204 0.414-0.31 0.723-0.317 0.31 7e-3 0.552 0.113 0.725 0.317 0.173 0.203 0.261 0.458 0.264 0.761-3e-3 0.303-0.091 0.556-0.264 0.761s-0.415 0.311-0.725 0.319" fill="#231f20"/></g><g transform="matrix(.35278 0 0 -.35278 10.371 7.6647)" clip-path="url(#clipPath85892)"><path d="m0 0 0.313 0.891h0.01l0.31-0.891zm0.128 1.249-0.795-2.075h0.373l0.196 0.549h0.826l0.195-0.549h0.388l-0.798 2.075h-0.385" fill="#231f20"/></g><g transform="matrix(.35278 0 0 -.35278 28.157 7.2241)" clip-path="url(#clipPath85888)"><path d="m0 0h-0.361v-2.075h1.414v0.307h-1.053v1.768" fill="#231f20"/></g><g transform="matrix(.35278 0 0 -.35278 30.527 7.7769)" clip-path="url(#clipPath85884)"><path d="m0 0c-0.094-0.138-0.28-0.21-0.555-0.215h-0.355v1.49h0.355c0.275-5e-3 0.461-0.077 0.555-0.215 0.093-0.139 0.136-0.315 0.131-0.531 5e-3 -0.214-0.038-0.39-0.131-0.529zm0.277 1.265c-0.146 0.194-0.379 0.295-0.693 0.302h-0.856v-2.075h0.856c0.314 7e-3 0.547 0.109 0.693 0.303 0.145 0.195 0.219 0.441 0.217 0.734 2e-3 0.295-0.072 0.541-0.217 0.736" fill="#231f20"/></g><g transform="matrix(.35278 0 0 -.35278 29.096 7.7815)" clip-path="url(#clipPath85880)"><path d="m0 0c-0.1-0.154-0.26-0.235-0.478-0.245-0.219 0.01-0.379 0.091-0.479 0.245-0.1 0.157-0.148 0.336-0.146 0.542-2e-3 0.207 0.046 0.387 0.146 0.543 0.1 0.155 0.26 0.237 0.479 0.245 0.218-8e-3 0.378-0.09 0.478-0.245 0.1-0.156 0.148-0.336 0.147-0.543 1e-3 -0.206-0.047-0.385-0.147-0.542zm-0.478 1.622c-0.311-8e-3 -0.551-0.114-0.725-0.319-0.172-0.205-0.262-0.458-0.264-0.761 2e-3 -0.303 0.092-0.558 0.264-0.761 0.174-0.204 0.414-0.31 0.725-0.317 0.31 7e-3 0.55 0.113 0.724 0.317 0.174 0.203 0.26 0.458 0.264 0.761-4e-3 0.303-0.09 0.556-0.264 0.761s-0.414 0.311-0.724 0.319" fill="#231f20"/></g><g transform="matrix(.35278 0 0 -.35278 29.544 7.6647)" clip-path="url(#clipPath85876)"><path d="m0 0 0.312 0.891h0.01l0.31-0.891zm0.128 1.249-0.794-2.075h0.373l0.195 0.549h0.826l0.195-0.549h0.389l-0.799 2.075h-0.385" fill="#231f20"/></g><g transform="matrix(.35278 0 0 -.35278 30.822 11.981)" clip-path="url(#clipPath85872)"><path d="m0 0-0.141-0.139h-7.965l-0.14 0.139v1.974l0.14 0.14h7.965l0.141-0.14v-1.974zm-0.141 2.335h-7.965c-0.199 0-0.361-0.162-0.361-0.361v-1.974c0-0.198 0.162-0.361 0.361-0.361h7.965c0.199 0 0.361 0.163 0.361 0.361v1.974c0 0.199-0.162 0.361-0.361 0.361" fill="#231f20"/></g><g transform="matrix(.35278 0 0 -.35278 28.621 11.802)" clip-path="url(#clipPath85868)"><path d="m0 0h-4e-3l-0.412 1.3h-0.3l0.548-1.643h0.319l0.562 1.643h-0.293l-0.42-1.3" fill="#231f20"/></g><g transform="matrix(.35278 0 0 -.35278 30.155 11.786)" clip-path="url(#clipPath85864)"><path d="m0 0h-4e-3l-0.322 1.256h-0.295l-0.33-1.256h-6e-3l-0.297 1.256h-0.291l0.432-1.643h0.297l0.336 1.256h3e-3l0.331-1.256h0.291l0.455 1.643h-0.293l-0.307-1.256" fill="#231f20"/></g><g transform="matrix(.35278 0 0 -.35278 29.257 11.665)" clip-path="url(#clipPath85860)"><path d="m0 0h0.828v0.234h-0.828v0.43h0.895v0.249h-1.182v-1.643h1.197v0.248h-0.91v0.482" fill="#231f20"/></g><path transform="translate(-86.014 -62.536)" d="m114.94 74.459h0.10196v-0.57965h-0.10196z" clip-path="url(#clipPath85856)" fill="#231f20"/><g transform="matrix(.35278 0 0 -.35278 11.715 12.09)" clip-path="url(#clipPath85852)"><path d="m0 0c0-0.186-0.149-0.335-0.335-0.335h-7.743c-0.184 0-0.334 0.149-0.334 0.335v2.592c0 0.184 0.15 0.334 0.334 0.334h7.743c0.186 0 0.335-0.15 0.335-0.334v-2.592zm-0.335 3.177h-7.743c-0.322 0-0.585-0.262-0.585-0.585v-2.592c0-0.324 0.263-0.586 0.585-0.586h7.743c0.324 0 0.586 0.262 0.586 0.586v2.592c0 0.323-0.262 0.585-0.586 0.585" fill="#231f20"/></g><g transform="matrix(.35278 0 0 -.35278 10.377 11.217)" clip-path="url(#clipPath85848)"><path d="m0 0c-0.215-0.172-0.27-0.477-0.125-0.713-0.253-0.252-0.505-0.505-0.757-0.757-0.235 0.145-0.541 0.091-0.712-0.126-0.171-0.215-0.153-0.525 0.042-0.72 0.196-0.196 0.506-0.213 0.722-0.042s0.269 0.476 0.126 0.712c0.252 0.252 0.505 0.504 0.757 0.757 0.234-0.146 0.54-0.091 0.712 0.125 0.171 0.216 0.152 0.526-0.042 0.721-0.196 0.196-0.506 0.213-0.723 0.043" fill="#231f20"/></g><g transform="matrix(.35278 0 0 -.35278 21.316 12.446)" clip-path="url(#clipPath85844)"><path d="m0 0-0.14-0.141h-8.433l-0.141 0.141v1.973l0.141 0.14h8.433l0.14-0.14v-1.973zm-0.14 2.335h-8.433c-0.2 0-0.362-0.162-0.362-0.362v-1.973c0-0.199 0.162-0.362 0.362-0.362h8.433c0.199 0 0.361 0.163 0.361 0.362v1.973c0 0.2-0.162 0.362-0.361 0.362" fill="#231f20"/></g><g transform="matrix(.35278 0 0 -.35278 19.37 12.157)" clip-path="url(#clipPath85840)"><path d="m0 0 0.248 0.707h7e-3l0.246-0.707zm0.101 0.989-0.63-1.642h0.297l0.153 0.434h0.656l0.154-0.434h0.308l-0.632 1.642h-0.306" fill="#231f20"/></g><g transform="matrix(.35278 0 0 -.35278 20.039 12.318)" clip-path="url(#clipPath85836)"><path d="m0 0c-0.353 0-0.5 0.311-0.5 0.625 0 0.316 0.147 0.626 0.5 0.626 0.239 0 0.361-0.138 0.409-0.326h0.287c-0.035 0.353-0.325 0.559-0.696 0.56-0.492 0-0.787-0.39-0.787-0.86 0-0.469 0.295-0.859 0.787-0.859 0.397 0 0.675 0.271 0.698 0.664h-0.28c-0.023-0.239-0.163-0.43-0.418-0.43" fill="#231f20"/></g><g transform="matrix(.35278 0 0 -.35278 18.96 12.304)" clip-path="url(#clipPath85832)"><path d="m0 0h-0.508v0.513h0.508c0.175 0 0.277-0.092 0.277-0.253 0-0.166-0.102-0.26-0.277-0.26zm-0.508 1.173h0.469c0.157 0 0.242-0.06 0.242-0.226 0-0.147-0.104-0.227-0.242-0.227h-0.469zm0.764-0.527v6e-3c0.148 0.063 0.235 0.183 0.235 0.348 0 0.274-0.194 0.407-0.489 0.407h-0.797v-1.642h0.754c0.425 0 0.605 0.2 0.605 0.458 0 0.223-0.109 0.38-0.308 0.423" fill="#231f20"/></g><g transform="matrix(.35278 0 0 -.35278 20.862 11.808)" clip-path="url(#clipPath85828)"><path d="m0 0h-0.353l-0.733-0.747v0.747h-0.287v-1.642h0.287v0.553l0.235 0.231 0.539-0.784h0.359l-0.701 0.987 0.654 0.655" fill="#231f20"/></g><g transform="matrix(.35278 0 0 -.35278 17.564 9.8142)" clip-path="url(#clipPath85824)"><path d="m0 0c-1.987 3.44-0.809 7.84 2.632 9.825 3.44 1.987 7.838 0.809 9.828-2.633 1.986-3.44 0.806-7.84-2.634-9.825-3.441-1.986-7.841-0.808-9.826 2.633" fill="#fff"/></g><g transform="matrix(.35278 0 0 -.35278 17.564 9.8142)" clip-path="url(#clipPath85820)"><path d="m0 0c-1.987 3.44-0.809 7.84 2.632 9.825 3.44 1.987 7.838 0.809 9.828-2.633 1.986-3.44 0.806-7.84-2.634-9.825-3.441-1.986-7.841-0.808-9.826 2.633z" fill="none" stroke="#231f20" stroke-linecap="round" stroke-linejoin="round" stroke-miterlimit="10" stroke-width=".35"/><g transform="translate(.686 .396)"><path d="m0 0c-1.768 3.061-0.719 6.976 2.341 8.743 3.063 1.768 6.977 0.719 8.744-2.343 1.769-3.061 0.72-6.975-2.342-8.743s-6.977-0.719-8.743 2.343z" fill="none" stroke="#231f20" stroke-linecap="round" stroke-linejoin="round" stroke-miterlimit="10" stroke-width=".35"/><g transform="translate(.545 .315)"><path d="m0 0c-1.593 2.759-0.649 6.289 2.112 7.884 2.761 1.592 6.289 0.647 7.883-2.114 1.594-2.76 0.649-6.289-2.111-7.883-2.761-1.593-6.291-0.647-7.884 2.113z" fill="none" stroke="#231f20" stroke-linecap="round" stroke-linejoin="round" stroke-miterlimit="10" stroke-width=".35"/></g></g></g><g transform="matrix(.35278 0 0 -.35278 18.178 9.4593)" clip-path="url(#clipPath85816)"><path d="M 0,0 C -1.431,2.478 -0.582,5.647 1.897,7.079 4.375,8.51 7.546,7.661 8.975,5.182 10.407,2.704 9.557,-0.465 7.079,-1.897 4.6,-3.328 1.43,-2.479 0,0 Z" fill="none" stroke="#231f20" stroke-linecap="round" stroke-linejoin="round" stroke-miterlimit="10" stroke-width=".5"/></g><g transform="matrix(.35278 0 0 -.35278 18.615 9.2071)" clip-path="url(#clipPath85812)"><path d="m0 0c-1.037 1.794-0.421 4.089 1.374 5.125 1.794 1.036 4.087 0.421 5.124-1.374 1.035-1.793 0.422-4.088-1.373-5.125-1.794-1.035-4.089-0.42-5.125 1.374z" fill="none" stroke="#231f20" stroke-linecap="round" stroke-linejoin="round" stroke-miterlimit="10" stroke-width=".25"/></g><g transform="matrix(.35278 0 0 -.35278 20.887 9.9049)" clip-path="url(#clipPath85808)"><path d="m0 0c-0.268 0.025-0.543-3e-3 -0.795-0.145-0.252-0.143-0.418-0.363-0.536-0.606l-0.615 1.067c0.115 0.244 0.28 0.467 0.53 0.611 0.25 0.145 0.525 0.176 0.792 0.153l0.624-1.08" fill="#fff"/></g><g transform="matrix(.35278 0 0 -.35278 20.887 9.9049)" clip-path="url(#clipPath85804)"><path d="m0 0c-0.268 0.025-0.543-3e-3 -0.795-0.145-0.252-0.143-0.418-0.363-0.536-0.606l-0.615 1.067c0.115 0.244 0.28 0.467 0.53 0.611 0.25 0.145 0.525 0.176 0.792 0.153z" fill="none" stroke="#231f20" stroke-linecap="round" stroke-linejoin="round" stroke-miterlimit="10" stroke-width=".25"/></g><g transform="matrix(.35278 0 0 -.35278 21.416 9.1602)" clip-path="url(#clipPath85800)"><path d="m0 0c-0.247-0.111-0.469-0.273-0.618-0.522-0.146-0.25-0.179-0.525-0.16-0.792l-1.064 0.617c-0.026 0.268 6e-3 0.542 0.152 0.793 0.145 0.25 0.367 0.415 0.609 0.528l1.081-0.624" fill="#fff"/></g><g transform="matrix(.35278 0 0 -.35278 21.416 9.1602)" clip-path="url(#clipPath85796)"><path d="m0 0c-0.247-0.111-0.469-0.273-0.618-0.522-0.146-0.25-0.179-0.525-0.16-0.792l-1.064 0.617c-0.026 0.268 6e-3 0.542 0.152 0.793 0.145 0.25 0.367 0.415 0.609 0.528z" fill="none" stroke="#231f20" stroke-linecap="round" stroke-linejoin="round" stroke-miterlimit="10" stroke-width=".25"/></g><g transform="matrix(.35278 0 0 -.35278 21.501 8.2507)" clip-path="url(#clipPath85792)"><path d="m0 0c-0.157-0.218-0.27-0.47-0.272-0.76-2e-3 -0.289 0.106-0.543 0.256-0.766l-1.23 1e-3c-0.155 0.221-0.264 0.475-0.264 0.765 0 0.289 0.109 0.542 0.264 0.762l1.246-2e-3" fill="#fff"/></g><g transform="matrix(.35278 0 0 -.35278 21.501 8.2507)" clip-path="url(#clipPath85788)"><path d="m0 0c-0.157-0.218-0.27-0.47-0.272-0.76-2e-3 -0.289 0.106-0.543 0.256-0.766l-1.23 1e-3c-0.155 0.221-0.264 0.475-0.264 0.765 0 0.289 0.109 0.542 0.264 0.762z" fill="none" stroke="#231f20" stroke-linecap="round" stroke-linejoin="round" stroke-miterlimit="10" stroke-width=".25"/></g><g transform="matrix(.35278 0 0 -.35278 21.121 7.4199)" clip-path="url(#clipPath85784)"><path d="m0 0c-0.026-0.268 2e-3 -0.542 0.144-0.794 0.143-0.252 0.363-0.419 0.606-0.535l-1.067-0.614c-0.244 0.113-0.467 0.277-0.611 0.529-0.145 0.25-0.176 0.524-0.154 0.792l1.082 0.622" fill="#fff"/></g><g transform="matrix(.35278 0 0 -.35278 21.121 7.4199)" clip-path="url(#clipPath85780)"><path d="m0 0c-0.026-0.268 2e-3 -0.542 0.144-0.794 0.143-0.252 0.363-0.419 0.606-0.535l-1.067-0.614c-0.244 0.113-0.467 0.277-0.611 0.529-0.145 0.25-0.176 0.524-0.154 0.792z" fill="none" stroke="#231f20" stroke-linecap="round" stroke-linejoin="round" stroke-miterlimit="10" stroke-width=".25"/></g><g transform="matrix(.35278 0 0 -.35278 20.376 6.8907)" clip-path="url(#clipPath85776)"><path d="m0 0c0.112-0.245 0.274-0.469 0.522-0.615 0.25-0.147 0.523-0.182 0.793-0.161l-0.617-1.067c-0.27-0.022-0.543 9e-3 -0.795 0.153-0.248 0.145-0.413 0.368-0.528 0.612l0.625 1.078" fill="#fff"/></g><g transform="matrix(.35278 0 0 -.35278 20.376 6.8907)" clip-path="url(#clipPath85772)"><path d="m0 0c0.112-0.245 0.274-0.469 0.522-0.615 0.25-0.147 0.523-0.182 0.793-0.161l-0.617-1.067c-0.27-0.022-0.543 9e-3 -0.795 0.153-0.248 0.145-0.413 0.368-0.528 0.612z" fill="none" stroke="#231f20" stroke-linecap="round" stroke-linejoin="round" stroke-miterlimit="10" stroke-width=".25"/></g><g transform="matrix(.35278 0 0 -.35278 18.635 7.1857)" clip-path="url(#clipPath85768)"><path d="m0 0c0.269-0.025 0.543 3e-3 0.795 0.145 0.252 0.143 0.418 0.363 0.535 0.606l0.615-1.068c-0.115-0.243-0.279-0.465-0.53-0.61-0.25-0.144-0.524-0.176-0.793-0.153l-0.622 1.08" fill="#fff"/></g><g transform="matrix(.35278 0 0 -.35278 18.635 7.1857)" clip-path="url(#clipPath85764)"><path d="m0 0c0.269-0.025 0.543 3e-3 0.795 0.145 0.252 0.143 0.418 0.363 0.535 0.606l0.615-1.068c-0.115-0.243-0.279-0.465-0.53-0.61-0.25-0.144-0.524-0.176-0.793-0.153z" fill="none" stroke="#231f20" stroke-linecap="round" stroke-linejoin="round" stroke-miterlimit="10" stroke-width=".25"/></g><g transform="matrix(.35278 0 0 -.35278 18.107 7.9304)" clip-path="url(#clipPath85760)"><path d="m0 0c0.245 0.111 0.469 0.273 0.615 0.523 0.147 0.249 0.181 0.523 0.161 0.791l1.066-0.617c0.022-0.268-8e-3 -0.542-0.153-0.793-0.145-0.25-0.367-0.415-0.61-0.528l-1.079 0.624" fill="#fff"/></g><g transform="matrix(.35278 0 0 -.35278 18.107 7.9304)" clip-path="url(#clipPath85756)"><path d="m0 0c0.245 0.111 0.469 0.273 0.615 0.523 0.147 0.249 0.181 0.523 0.161 0.791l1.066-0.617c0.022-0.268-8e-3 -0.542-0.153-0.793-0.145-0.25-0.367-0.415-0.61-0.528z" fill="none" stroke="#231f20" stroke-linecap="round" stroke-linejoin="round" stroke-miterlimit="10" stroke-width=".25"/></g><g transform="matrix(.35278 0 0 -.35278 18.021 8.8398)" clip-path="url(#clipPath85752)"><path d="m0 0c0.156 0.218 0.269 0.47 0.271 0.76 3e-3 0.289-0.105 0.543-0.257 0.766l1.233-1e-3c0.153-0.222 0.264-0.475 0.264-0.764 0-0.29-0.111-0.543-0.264-0.763l-1.247 2e-3" fill="#fff"/></g><g transform="matrix(.35278 0 0 -.35278 18.021 8.8398)" clip-path="url(#clipPath85748)"><path d="m0 0c0.156 0.218 0.269 0.47 0.271 0.76 3e-3 0.289-0.105 0.543-0.257 0.766l1.233-1e-3c0.153-0.222 0.264-0.475 0.264-0.764 0-0.29-0.111-0.543-0.264-0.763z" fill="none" stroke="#231f20" stroke-linecap="round" stroke-linejoin="round" stroke-miterlimit="10" stroke-width=".25"/></g><g transform="matrix(.35278 0 0 -.35278 18.402 9.6706)" clip-path="url(#clipPath85744)"><path d="m0 0c0.025 0.268-4e-3 0.542-0.145 0.794-0.143 0.253-0.364 0.419-0.606 0.535l1.067 0.615c0.245-0.114 0.466-0.279 0.611-0.53 0.144-0.25 0.176-0.524 0.153-0.792l-1.08-0.622" fill="#fff"/></g><g transform="matrix(.35278 0 0 -.35278 18.402 9.6706)" clip-path="url(#clipPath85740)"><path d="m0 0c0.025 0.268-4e-3 0.542-0.145 0.794-0.143 0.253-0.364 0.419-0.606 0.535l1.067 0.615c0.245-0.114 0.466-0.279 0.611-0.53 0.144-0.25 0.176-0.524 0.153-0.792z" fill="none" stroke="#231f20" stroke-linecap="round" stroke-linejoin="round" stroke-miterlimit="10" stroke-width=".25"/></g><g transform="matrix(.35278 0 0 -.35278 19.146 10.2)" clip-path="url(#clipPath85736)"><path d="m0 0c-0.112 0.244-0.274 0.469-0.523 0.615-0.249 0.148-0.523 0.181-0.792 0.161l0.617 1.067c0.269 0.021 0.543-0.01 0.794-0.154 0.25-0.145 0.414-0.367 0.528-0.61l-0.624-1.079" fill="#fff"/></g><g transform="matrix(.35278 0 0 -.35278 19.146 10.2)" clip-path="url(#clipPath85732)"><path d="m0 0c-0.112 0.244-0.274 0.469-0.523 0.615-0.249 0.148-0.523 0.181-0.792 0.161l0.617 1.067c0.269 0.021 0.543-0.01 0.794-0.154 0.25-0.145 0.414-0.367 0.528-0.61z" fill="none" stroke="#231f20" stroke-linecap="round" stroke-linejoin="round" stroke-miterlimit="10" stroke-width=".25"/></g><g transform="matrix(.35278 0 0 -.35278 20.056 10.286)" clip-path="url(#clipPath85728)"><path d="m0 0c-0.219 0.155-0.472 0.267-0.761 0.27s-0.544-0.105-0.766-0.256l1e-3 1.231c0.221 0.154 0.474 0.265 0.764 0.265 0.289 0 0.543-0.111 0.763-0.265l-1e-3 -1.245" fill="#fff"/></g><g transform="matrix(.35278 0 0 -.35278 20.056 10.286)" clip-path="url(#clipPath85724)"><path d="m0 0c-0.219 0.155-0.472 0.267-0.761 0.27s-0.544-0.105-0.766-0.256l1e-3 1.231c0.221 0.154 0.474 0.265 0.764 0.265 0.289 0 0.543-0.111 0.763-0.265z" fill="none" stroke="#231f20" stroke-linecap="round" stroke-linejoin="round" stroke-miterlimit="10" stroke-width=".25"/></g><g transform="matrix(.35278 0 0 -.35278 20.02 6.805)" clip-path="url(#clipPath85720)"><path d="m0 0c-0.219-0.156-0.472-0.268-0.761-0.271s-0.544 0.105-0.765 0.256l1e-3 -1.231c0.22-0.154 0.473-0.264 0.762-0.264s0.543 0.11 0.764 0.264l-1e-3 1.246" fill="#fff"/></g><g transform="matrix(.35278 0 0 -.35278 20.02 6.805)" clip-path="url(#clipPath85716)"><path d="m0 0c-0.219-0.156-0.472-0.268-0.761-0.271s-0.544 0.105-0.765 0.256l1e-3 -1.231c0.22-0.154 0.473-0.264 0.762-0.264s0.543 0.11 0.764 0.264z" fill="none" stroke="#231f20" stroke-linecap="round" stroke-linejoin="round" stroke-miterlimit="10" stroke-width=".25"/></g><rect x="4.5882" y="4.6724" width="30.56" height="10.271" fill="none" stroke="#000" stroke-width=".065"/><g fill="none" stroke-linecap="round" stroke-linejoin="round"><path d="m2.8033 9.5834h6.063" stroke="#fff" stroke-width=".4"/><path d="m2.8033 9.5834h6.063" stroke="#000" stroke-width=".2"/></g><g transform="matrix(.29537 0 0 .29537 1.0717 8.9594)"><rect x="-2.9663" y="-2.4122" width="9.1597" height="9.1597" stroke-width="0"/><text x="-0.88412476" y="5.9459152" fill="#ffffff" font-family="sans-serif" font-size="10.583px" letter-spacing="0px" stroke-width=".26458" word-spacing="0px" style="font-variant-caps:normal;font-variant-east-asian:normal;font-variant-ligatures:normal;font-variant-numeric:normal;line-height:1.25" xml:space="preserve"><tspan x="-0.88412476" y="5.9459152" fill="#ffffff" font-family="sans-serif" font-size="10.583px" stroke-width=".26458" style="font-variant-caps:normal;font-variant-east-asian:normal;font-variant-ligatures:normal;font-variant-numeric:normal">1</tspan></text></g><g transform="translate(27.891)" fill="none" stroke-linecap="round" stroke-linejoin="round"><path d="m2.8033 9.5834h6.063" stroke="#fff" stroke-width=".4"/><path d="m2.8033 9.5834h6.063" stroke="#000" stroke-width=".2"/></g><g transform="matrix(.29537 0 0 .29537 37.482 8.9594)"><rect x="-2.9663" y="-2.4122" width="9.1597" height="9.1597" stroke-width="0"/><text x="-0.88412476" y="5.9459152" fill="#ffffff" font-family="sans-serif" font-size="10.583px" letter-spacing="0px" stroke-width=".26458" word-spacing="0px" style="font-variant-caps:normal;font-variant-east-asian:normal;font-variant-ligatures:normal;font-variant-numeric:normal;line-height:1.25" xml:space="preserve"><tspan x="-0.88412476" y="5.9459152" fill="#ffffff" font-family="sans-serif" font-size="10.583px" stroke-width=".26458" style="font-variant-caps:normal;font-variant-east-asian:normal;font-variant-ligatures:normal;font-variant-numeric:normal">1</tspan></text></g><g transform="rotate(-90 10.479 .30607)" fill="none" stroke-linecap="round" stroke-linejoin="round"><path d="m2.8033 9.5834h6.063" stroke="#fff" stroke-width=".4"/><path d="m2.8033 9.5834h6.063" stroke="#000" stroke-width=".2"/></g><g transform="matrix(.29537 0 0 .29537 19.228 .90807)"><rect x="-2.9663" y="-2.4122" width="9.1597" height="9.1597" stroke-width="0"/><text x="-0.88412476" y="5.9459152" fill="#ffffff" font-family="sans-serif" font-size="10.583px" letter-spacing="0px" stroke-width=".26458" word-spacing="0px" style="font-variant-caps:normal;font-variant-east-asian:normal;font-variant-ligatures:normal;font-variant-numeric:normal;line-height:1.25" xml:space="preserve"><tspan x="-0.88412476" y="5.9459152" fill="#ffffff" font-family="sans-serif" font-size="10.583px" stroke-width=".26458" style="font-variant-caps:normal;font-variant-east-asian:normal;font-variant-ligatures:normal;font-variant-numeric:normal">2</tspan></text></g></svg>
