<?xml version="1.0" encoding="UTF-8"?>
<svg width="58.216mm" height="27.441mm" version="1.1" viewBox="0 0 58.216 27.441" xmlns="http://www.w3.org/2000/svg"><defs><clipPath id="clipPath1357"><path d="m288.12 472.23h165.02v77.787h-165.02z"/></clipPath></defs><g transform="translate(-222.62 9.9409)"><g transform="matrix(.35278 0 0 -.35278 120.98 184.09)"><g clip-path="url(#clipPath1357)"><g transform="translate(323.15 516.76)"><path d="m0 0c0-0.977-0.798-1.775-1.775-1.775h-30.981c-0.976 0-1.775 0.798-1.775 1.775v30.98c0 0.977 0.799 1.776 1.775 1.776h30.981c0.977 0 1.775-0.799 1.775-1.776z" fill="#fff"/><path d="m0 0c0-0.977-0.798-1.775-1.775-1.775h-30.981c-0.976 0-1.775 0.798-1.775 1.775v30.98c0 0.977 0.799 1.776 1.775 1.776h30.981c0.977 0 1.775-0.799 1.775-1.776z" fill="none" stroke="#000"/></g><g transform="translate(366.31 516.76)"><path d="m0 0c0-0.977-0.799-1.775-1.776-1.775h-30.98c-0.977 0-1.776 0.798-1.776 1.775v30.98c0 0.977 0.799 1.776 1.776 1.776h30.98c0.977 0 1.776-0.799 1.776-1.776z" fill="#fff"/><path d="m0 0c0-0.977-0.799-1.775-1.776-1.775h-30.98c-0.977 0-1.776 0.798-1.776 1.775v30.98c0 0.977 0.799 1.776 1.776 1.776h30.98c0.977 0 1.776-0.799 1.776-1.776z" fill="none" stroke="#000"/></g><g transform="translate(409.48 516.76)"><path d="m0 0c0-0.977-0.797-1.775-1.774-1.775h-30.981c-0.977 0-1.775 0.798-1.775 1.775v30.98c0 0.977 0.798 1.776 1.775 1.776h30.981c0.977 0 1.774-0.799 1.774-1.776z" fill="#fff"/><path d="m0 0c0-0.977-0.797-1.775-1.774-1.775h-30.981c-0.977 0-1.775 0.798-1.775 1.775v30.98c0 0.977 0.798 1.776 1.775 1.776h30.981c0.977 0 1.774-0.799 1.774-1.776z" fill="none" stroke="#000"/></g><g transform="translate(452.64 516.76)"><path d="m0 0c0-0.977-0.799-1.775-1.777-1.775h-30.978c-0.976 0-1.776 0.798-1.776 1.775v30.98c0 0.977 0.8 1.776 1.776 1.776h30.978c0.978 0 1.777-0.799 1.777-1.776z" fill="#fff"/><path d="m0 0c0-0.977-0.799-1.775-1.777-1.775h-30.978c-0.976 0-1.776 0.798-1.776 1.775v30.98c0 0.977 0.8 1.776 1.776 1.776h30.978c0.978 0 1.777-0.799 1.777-1.776z" fill="none" stroke="#000"/></g><g transform="translate(323.15 474.51)"><path d="m0 0c0-0.977-0.798-1.775-1.775-1.775h-30.981c-0.976 0-1.775 0.798-1.775 1.775v30.98c0 0.977 0.799 1.776 1.775 1.776h30.981c0.977 0 1.775-0.799 1.775-1.776z" fill="#fff"/><path d="m0 0c0-0.977-0.798-1.775-1.775-1.775h-30.981c-0.976 0-1.775 0.798-1.775 1.775v30.98c0 0.977 0.799 1.776 1.775 1.776h30.981c0.977 0 1.775-0.799 1.775-1.776z" fill="none" stroke="#000"/></g><g transform="translate(366.31 474.51)"><path d="m0 0c0-0.977-0.799-1.775-1.776-1.775h-30.98c-0.977 0-1.776 0.798-1.776 1.775v30.98c0 0.977 0.799 1.776 1.776 1.776h30.98c0.977 0 1.776-0.799 1.776-1.776z" fill="#fff"/><path d="m0 0c0-0.977-0.799-1.775-1.776-1.775h-30.98c-0.977 0-1.776 0.798-1.776 1.775v30.98c0 0.977 0.799 1.776 1.776 1.776h30.98c0.977 0 1.776-0.799 1.776-1.776z" fill="none" stroke="#000"/></g><g transform="translate(409.48 474.51)"><path d="m0 0c0-0.977-0.797-1.775-1.774-1.775h-30.981c-0.977 0-1.775 0.798-1.775 1.775v30.98c0 0.977 0.798 1.776 1.775 1.776h30.981c0.977 0 1.774-0.799 1.774-1.776z" fill="#fff"/><path d="m0 0c0-0.977-0.797-1.775-1.774-1.775h-30.981c-0.977 0-1.775 0.798-1.775 1.775v30.98c0 0.977 0.798 1.776 1.775 1.776h30.981c0.977 0 1.774-0.799 1.774-1.776z" fill="none" stroke="#000"/></g><g transform="translate(452.64 474.51)"><path d="m0 0c0-0.977-0.799-1.775-1.777-1.775h-30.978c-0.976 0-1.776 0.798-1.776 1.775v30.98c0 0.977 0.8 1.776 1.776 1.776h30.978c0.978 0 1.777-0.799 1.777-1.776z" fill="#fff"/><path d="m0 0c0-0.977-0.799-1.775-1.777-1.775h-30.978c-0.976 0-1.776 0.798-1.776 1.775v30.98c0 0.977 0.8 1.776 1.776 1.776h30.978c0.978 0 1.777-0.799 1.777-1.776z" fill="none" stroke="#000"/></g></g></g><text x="223.66901" y="-2.6911712" fill="#000000" font-family="'Frutiger LT Std 45 Light'" font-size="2.4694px" font-weight="bold" stroke-width=".35278"><tspan x="223.66901 225.05684 226.16562 227.14105 228.52641 229.50183 230.61061 232.13426 232.76645" y="-2.6911712">Scratch 1</tspan><tspan x="223.66901 225.05684 226.16562 227.14105 228.52641 229.50183 230.61061 232.13426 232.76645" y="12.209455">Scratch 5</tspan><tspan x="254.08516 255.47298 256.58176 257.55719 258.94257 259.91797 261.02676 262.55042 263.18259" y="-2.6911712">Scratch 3</tspan><tspan x="254.08516 255.47298 256.58176 257.55719 258.94257 259.91797 261.02676 262.55042 263.18259" y="12.209455">Scratch 7</tspan><tspan x="238.90549 240.2933 241.40208 242.37752 243.76288 244.73831 245.84709 247.37074 248.00291" y="-2.6911712">Scratch 2</tspan><tspan x="238.90549 240.2933 241.40208 242.37752 243.76288 244.73831 245.84709 247.37074 248.00291" y="12.209455">Scratch 6</tspan><tspan x="269.34631 270.73169 271.84293 272.81836 274.20374 275.17914 276.28793 277.81158 278.44376" y="-2.6911712">Scratch 4</tspan><tspan x="269.34631 270.73169 271.84293 272.81836 274.20374 275.17914 276.28793 277.81158 278.44376" y="12.209455">Scratch 8</tspan></text></g></svg>
