<?xml version="1.0" encoding="UTF-8"?>
<svg width="58.584mm" height="27.57mm" version="1.1" viewBox="0 0 58.584 27.57" xmlns="http://www.w3.org/2000/svg"><g fill="#fff" stroke="#000" stroke-width=".35278"><path d="m27.708 26.768c0 .34467-.28152.62618-.62618.62618h-10.929c-.34431 0-.62618-.28152-.62618-.62618v-10.929c0-.34467.28187-.62654.62618-.62654h10.929c.34467 0 .62618.28187.62618.62654z"/><path d="m58.408 26.768c0 .34467-.28152.62618-.62618.62618h-10.929c-.34431 0-.62618-.28152-.62618-.62618v-10.929c0-.34467.28187-.62654.62618-.62654h10.929c.34467 0 .62618.28187.62618.62654z"/><path d="m43.058 26.768c0 .34467-.28152.62618-.62618.62618h-10.929c-.34431 0-.62618-.28152-.62618-.62618v-10.929c0-.34467.28187-.62654.62618-.62654h10.929c.34467 0 .62618.28187.62618.62654z"/><path d="m12.358 26.768c0 .34467-.28152.62618-.62618.62618h-10.929c-.34431 0-.62618-.28152-.62618-.62618v-10.929c0-.34467.28187-.62654.62618-.62654h10.929c.34467 0 .62618.28187.62618.62654z"/><path d="m58.408 11.732c0 .34467-.28152.62618-.62618.62618h-10.929c-.34431 0-.62618-.28152-.62618-.62618v-10.929c0-.34467.28187-.62654.62618-.62654h10.929c.34467 0 .62618.28187.62618.62654z"/><path d="m43.058 11.732c0 .34467-.28152.62618-.62618.62618h-10.929c-.34431 0-.62618-.28152-.62618-.62618v-10.929c0-.34467.28187-.62654.62618-.62654h10.929c.34467 0 .62618.28187.62618.62654z"/><path d="m12.358 11.732c0 .34467-.28152.62618-.62618.62618h-10.929c-.34431 0-.62618-.28152-.62618-.62618v-10.929c0-.34467.28187-.62654.62618-.62654h10.929c.34467 0 .62618.28187.62618.62654z"/><path d="m27.708 11.732c0 .34467-.28152.62618-.62618.62618h-10.929c-.34431 0-.62618-.28152-.62618-.62618v-10.929c0-.34467.28187-.62654.62618-.62654h10.929c.34467 0 .62618.28187.62618.62654z"/></g><g font-family="sans-serif" font-size="2.2426px" stroke="#000" stroke-linecap="square" stroke-width=".168" text-anchor="middle"><text transform="scale(.89792 1.1137)" x="23.958948" y="17.965755" text-align="center" style="line-height:1.25" xml:space="preserve"><tspan x="23.958948" y="17.965755" text-align="center">HOT CUE</tspan><tspan x="23.958948" y="20.769001" text-align="center">6</tspan></text><text transform="scale(.89792 1.1137)" x="58.148926" y="17.965755" text-align="center" style="line-height:1.25" xml:space="preserve"><tspan x="58.148926" y="17.965755" text-align="center">HOT CUE</tspan><tspan x="58.148926" y="20.769001" text-align="center">8</tspan></text><text transform="scale(.89792 1.1137)" x="41.053936" y="17.965755" text-align="center" style="line-height:1.25" xml:space="preserve"><tspan x="41.053936" y="17.965755" text-align="center">HOT CUE</tspan><tspan x="41.053936" y="20.769001" text-align="center">7</tspan></text><text transform="scale(.89792 1.1137)" x="6.8645153" y="17.965755" text-align="center" style="line-height:1.25" xml:space="preserve"><tspan x="6.8645153" y="17.965755" text-align="center">HOT CUE</tspan><tspan x="6.8645153" y="20.769001" text-align="center">5</tspan></text><text transform="scale(.89792 1.1137)" x="58.148926" y="4.4645448" text-align="center" style="line-height:1.25" xml:space="preserve"><tspan x="58.148926" y="4.4645448" text-align="center">HOT CUE</tspan><tspan x="58.148926" y="7.2677903" text-align="center">4</tspan></text><text transform="scale(.89792 1.1137)" x="41.053936" y="4.4645448" text-align="center" style="line-height:1.25" xml:space="preserve"><tspan x="41.053936" y="4.4645448" text-align="center">HOT CUE</tspan><tspan x="41.053936" y="7.2677903" text-align="center">3</tspan></text><text transform="scale(.89792 1.1137)" x="23.959299" y="4.4645352" text-align="center" style="line-height:1.25" xml:space="preserve"><tspan x="23.959299" y="4.4645352" text-align="center">HOT CUE</tspan><tspan x="23.959299" y="7.2677855" text-align="center">2</tspan></text><text transform="scale(.89792 1.1137)" x="6.8645153" y="4.4645448" text-align="center" style="line-height:1.25" xml:space="preserve"><tspan x="6.8645153" y="4.4645448" text-align="center">HOT CUE</tspan><tspan x="6.8645153" y="7.2677903" text-align="center">1</tspan></text></g></svg>
