<?xml version="1.0" encoding="UTF-8"?>
<svg version="1.1" viewBox="0 0 206.07 262.99" xml:space="preserve" xmlns="http://www.w3.org/2000/svg"><defs><clipPath id="b"><path d="m0 728.5h515.88v-728.52h-515.88z" clip-rule="evenodd"/></clipPath><clipPath id="a"><path d="m0 729h516v-729h-516z"/></clipPath></defs><g transform="matrix(1.3333 0 0 -1.3333 -69.611 771.62)"><g clip-path="url(#b)"><g clip-path="url(#a)"><path d="m193.3 428.98h7.349v0.209h-7.349z" fill="#373535"/><path d="m193.3 431.08h7.349v0.209h-7.349z" fill="#373535"/><path d="m193.3 433.18h7.349v0.21h-7.349z" fill="#373535"/><path d="m193.3 435.28h7.349v0.209h-7.349z" fill="#373535"/><path d="m183.86 428.98h7.348v0.209h-7.348z" fill="#373535"/><path d="m183.86 431.08h7.348v0.209h-7.348z" fill="#373535"/><path d="m183.86 433.18h7.348v0.21h-7.348z" fill="#373535"/><path d="m183.86 435.28h7.348v0.209h-7.348z" fill="#373535"/><path d="m183.86 418.48h7.348v0.21h-7.348z" fill="#373535"/><path d="m183.86 420.58h7.348v0.21h-7.348z" fill="#373535"/><path d="m183.86 422.68h7.348v0.21h-7.348z" fill="#373535"/><path d="m183.86 424.78h7.348v0.21h-7.348z" fill="#373535"/><path d="m193.3 418.48h7.349v0.21h-7.349z" fill="#373535"/><path d="m193.3 420.58h7.349v0.21h-7.349z" fill="#373535"/><path d="m193.3 422.68h7.349v0.21h-7.349z" fill="#373535"/><path d="m193.3 424.78h7.349v0.21h-7.349z" fill="#373535"/><path d="m182.82 426.78h8.312v0.406h-8.312z" fill="#373535"/><path d="m193.3 426.78h8.312v0.406h-8.312z" fill="#373535"/><path d="m182.8 458.27h8.399v0.42h-8.399z" fill="#373535"/><path d="m182.8 447.77h8.399v0.419h-8.399z" fill="#373535"/><path d="m183.86 445.77h7.348v0.21h-7.348z" fill="#373535"/><path d="m183.86 443.67h7.348v0.211h-7.348z" fill="#373535"/><path d="m183.86 454.17h7.348v0.209h-7.348z" fill="#373535"/><path d="m183.86 441.58h7.348v0.21h-7.348z" fill="#373535"/><path d="m183.86 452.07h7.348v0.209h-7.348z" fill="#373535"/><path d="m183.86 439.47h7.348v0.211h-7.348z" fill="#373535"/><path d="m183.86 449.97h7.348v0.21h-7.348z" fill="#373535"/><path d="m183.86 456.27h7.348v0.209h-7.348z" fill="#373535"/><path d="m193.3 447.77h8.398v0.419h-8.398z" fill="#373535"/><path d="m193.3 458.27h8.398v0.42h-8.398z" fill="#373535"/><path d="m193.3 445.77h7.349v0.21h-7.349z" fill="#373535"/><path d="m193.3 443.67h7.349v0.211h-7.349z" fill="#373535"/><path d="m193.3 441.58h7.349v0.21h-7.349z" fill="#373535"/><path d="m193.3 454.17h7.349v0.209h-7.349z" fill="#373535"/><path d="m193.3 452.07h7.349v0.209h-7.349z" fill="#373535"/><path d="m193.3 439.48h7.349v0.21h-7.349z" fill="#373535"/><path d="m193.3 456.27h7.349v0.209h-7.349z" fill="#373535"/><path d="m193.3 449.97h7.349v0.21h-7.349z" fill="#373535"/><path d="m193.3 437.27h8.398v0.42h-8.398z" fill="#373535"/><path d="m182.8 437.27h8.399v0.42h-8.399z" fill="#373535"/><path d="m182.8 416.27h8.399v0.421h-8.399z" fill="#373535"/><path d="m193.3 416.28h8.398v0.42h-8.398z" fill="#373535"/><path d="m193.3 403.78h7.349v0.211h-7.349z" fill="#373535"/><path d="m193.3 397.48h7.349v0.209h-7.349z" fill="#373535"/><path d="m193.3 414.28h7.349v0.21h-7.349z" fill="#373535"/><path d="m193.3 401.68h7.349v0.21h-7.349z" fill="#373535"/><path d="m193.3 399.58h7.349v0.209h-7.349z" fill="#373535"/><path d="m193.3 412.18h7.349v0.21h-7.349z" fill="#373535"/><path d="m193.3 410.08h7.349v0.211h-7.349z" fill="#373535"/><path d="m193.3 407.98h7.349v0.21h-7.349z" fill="#373535"/><path d="m193.3 395.28h8.398v0.419h-8.398z" fill="#373535"/><path d="m193.3 405.78h8.398v0.421h-8.398z" fill="#373535"/><path d="m183.86 397.48h7.348v0.209h-7.348z" fill="#373535"/><path d="m183.86 403.78h7.348v0.211h-7.348z" fill="#373535"/><path d="m183.86 414.28h7.348v0.21h-7.348z" fill="#373535"/><path d="m183.86 401.68h7.348v0.21h-7.348z" fill="#373535"/><path d="m183.86 412.18h7.348v0.21h-7.348z" fill="#373535"/><path d="m183.86 399.58h7.348v0.209h-7.348z" fill="#373535"/><path d="m183.86 410.08h7.348v0.211h-7.348z" fill="#373535"/><path d="m183.86 407.98h7.348v0.209h-7.348z" fill="#373535"/><path d="m182.8 405.78h8.399v0.421h-8.399z" fill="#373535"/><path d="m182.8 395.28h8.399v0.419h-8.399z" fill="#373535"/><g transform="translate(112.12 412.14)"><path d="m0 0c0-0.47-0.381-0.851-0.851-0.851h-17.023c-0.47 0-0.851 0.381-0.851 0.851v16.974c0 0.469 0.381 0.85 0.851 0.85h17.023c0.47 0 0.851-0.381 0.851-0.85z" fill="none" stroke="#373535" stroke-linecap="round" stroke-linejoin="round" stroke-width=".25"/></g><g transform="translate(111.35 413.51)"><path d="m0 0c0-0.782-0.635-1.417-1.417-1.417h-14.364c-0.783 0-1.417 0.635-1.417 1.417v14.173c0 0.783 0.634 1.418 1.417 1.418h14.364c0.782 0 1.417-0.635 1.417-1.418z" fill="none" stroke="#373535" stroke-linecap="round" stroke-linejoin="round" stroke-width=".5"/></g><g transform="translate(110.48 413.71)"><path d="m0 0c0-0.461-0.373-0.835-0.833-0.835h-13.801c-0.46 0-0.834 0.374-0.834 0.835v13.839c0 0.461 0.374 0.833 0.834 0.833h13.801c0.46 0 0.833-0.372 0.833-0.833z" fill="none" stroke="#373535" stroke-linecap="round" stroke-linejoin="round" stroke-width=".25"/></g><g transform="translate(132.98 412.14)"><path d="m0 0c0-0.47-0.381-0.851-0.851-0.851h-17.024c-0.47 0-0.851 0.381-0.851 0.851v16.974c0 0.469 0.381 0.85 0.851 0.85h17.024c0.47 0 0.851-0.381 0.851-0.85z" fill="none" stroke="#373535" stroke-linecap="round" stroke-linejoin="round" stroke-width=".25"/></g><g transform="translate(132.21 413.51)"><path d="m0 0c0-0.782-0.635-1.417-1.417-1.417h-14.364c-0.783 0-1.417 0.635-1.417 1.417v14.173c0 0.783 0.634 1.418 1.417 1.418h14.364c0.782 0 1.417-0.635 1.417-1.418z" fill="none" stroke="#373535" stroke-linecap="round" stroke-linejoin="round" stroke-width=".5"/></g><g transform="translate(131.34 413.71)"><path d="m0 0c0-0.461-0.373-0.835-0.833-0.835h-13.801c-0.46 0-0.834 0.374-0.834 0.835v13.839c0 0.461 0.374 0.833 0.834 0.833h13.801c0.46 0 0.833-0.372 0.833-0.833z" fill="none" stroke="#373535" stroke-linecap="round" stroke-linejoin="round" stroke-width=".25"/></g><g transform="translate(153.83 412.14)"><path d="m0 0c0-0.47-0.381-0.851-0.851-0.851h-17.023c-0.47 0-0.851 0.381-0.851 0.851v16.974c0 0.469 0.381 0.85 0.851 0.85h17.023c0.47 0 0.851-0.381 0.851-0.85z" fill="none" stroke="#373535" stroke-linecap="round" stroke-linejoin="round" stroke-width=".25"/></g><g transform="translate(153.07 413.51)"><path d="m0 0c0-0.782-0.636-1.417-1.418-1.417h-14.363c-0.783 0-1.416 0.635-1.416 1.417v14.173c0 0.783 0.633 1.418 1.416 1.418h14.363c0.782 0 1.418-0.635 1.418-1.418z" fill="none" stroke="#373535" stroke-linecap="round" stroke-linejoin="round" stroke-width=".5"/></g><g transform="translate(152.19 413.71)"><path d="m0 0c0-0.461-0.373-0.835-0.833-0.835h-13.8c-0.46 0-0.834 0.374-0.834 0.835v13.839c0 0.461 0.374 0.833 0.834 0.833h13.8c0.46 0 0.833-0.372 0.833-0.833z" fill="none" stroke="#373535" stroke-linecap="round" stroke-linejoin="round" stroke-width=".25"/></g><g transform="translate(174.69 412.14)"><path d="m0 0c0-0.47-0.381-0.851-0.851-0.851h-17.024c-0.47 0-0.851 0.381-0.851 0.851v16.974c0 0.469 0.381 0.85 0.851 0.85h17.024c0.47 0 0.851-0.381 0.851-0.85z" fill="none" stroke="#373535" stroke-linecap="round" stroke-linejoin="round" stroke-width=".25"/></g><g transform="translate(173.93 413.51)"><path d="m0 0c0-0.782-0.635-1.417-1.417-1.417h-14.364c-0.783 0-1.417 0.635-1.417 1.417v14.173c0 0.783 0.634 1.418 1.417 1.418h14.364c0.782 0 1.417-0.635 1.417-1.418z" fill="none" stroke="#373535" stroke-linecap="round" stroke-linejoin="round" stroke-width=".5"/></g><g transform="translate(173.06 413.71)"><path d="m0 0c0-0.461-0.373-0.835-0.833-0.835h-13.801c-0.46 0-0.834 0.374-0.834 0.835v13.839c0 0.461 0.374 0.833 0.834 0.833h13.801c0.46 0 0.833-0.372 0.833-0.833z" fill="none" stroke="#373535" stroke-linecap="round" stroke-linejoin="round" stroke-width=".25"/></g><g transform="translate(112.12 385.86)"><path d="m0 0c0-0.47-0.381-0.85-0.851-0.85h-17.023c-0.47 0-0.851 0.38-0.851 0.85v16.974c0 0.469 0.381 0.85 0.851 0.85h17.023c0.47 0 0.851-0.381 0.851-0.85z" fill="none" stroke="#373535" stroke-linecap="round" stroke-linejoin="round" stroke-width=".25"/></g><g transform="translate(111.35 387.22)"><path d="m0 0c0-0.782-0.635-1.417-1.417-1.417h-14.364c-0.783 0-1.417 0.635-1.417 1.417v14.174c0 0.782 0.634 1.417 1.417 1.417h14.364c0.782 0 1.417-0.635 1.417-1.417z" fill="none" stroke="#373535" stroke-linecap="round" stroke-linejoin="round" stroke-width=".5"/></g><g transform="translate(110.48 387.43)"><path d="m0 0c0-0.461-0.373-0.835-0.833-0.835h-13.801c-0.46 0-0.834 0.374-0.834 0.835v13.839c0 0.461 0.374 0.833 0.834 0.833h13.801c0.46 0 0.833-0.372 0.833-0.833z" fill="none" stroke="#373535" stroke-linecap="round" stroke-linejoin="round" stroke-width=".25"/></g><g transform="translate(132.98 385.86)"><path d="m0 0c0-0.47-0.381-0.85-0.851-0.85h-17.024c-0.47 0-0.851 0.38-0.851 0.85v16.974c0 0.469 0.381 0.85 0.851 0.85h17.024c0.47 0 0.851-0.381 0.851-0.85z" fill="none" stroke="#373535" stroke-linecap="round" stroke-linejoin="round" stroke-width=".25"/></g><g transform="translate(132.21 387.22)"><path d="m0 0c0-0.782-0.635-1.417-1.417-1.417h-14.364c-0.783 0-1.417 0.635-1.417 1.417v14.174c0 0.782 0.634 1.417 1.417 1.417h14.364c0.782 0 1.417-0.635 1.417-1.417z" fill="none" stroke="#373535" stroke-linecap="round" stroke-linejoin="round" stroke-width=".5"/></g><g transform="translate(131.34 387.43)"><path d="m0 0c0-0.461-0.373-0.835-0.833-0.835h-13.801c-0.46 0-0.834 0.374-0.834 0.835v13.839c0 0.461 0.374 0.833 0.834 0.833h13.801c0.46 0 0.833-0.372 0.833-0.833z" fill="none" stroke="#373535" stroke-linecap="round" stroke-linejoin="round" stroke-width=".25"/></g><g transform="translate(153.83 385.86)"><path d="m0 0c0-0.47-0.381-0.85-0.851-0.85h-17.023c-0.47 0-0.851 0.38-0.851 0.85v16.974c0 0.469 0.381 0.85 0.851 0.85h17.023c0.47 0 0.851-0.381 0.851-0.85z" fill="none" stroke="#373535" stroke-linecap="round" stroke-linejoin="round" stroke-width=".25"/></g><g transform="translate(153.07 387.22)"><path d="m0 0c0-0.782-0.636-1.417-1.418-1.417h-14.363c-0.783 0-1.416 0.635-1.416 1.417v14.174c0 0.782 0.633 1.417 1.416 1.417h14.363c0.782 0 1.418-0.635 1.418-1.417z" fill="none" stroke="#373535" stroke-linecap="round" stroke-linejoin="round" stroke-width=".5"/></g><g transform="translate(152.19 387.43)"><path d="m0 0c0-0.461-0.373-0.835-0.833-0.835h-13.8c-0.46 0-0.834 0.374-0.834 0.835v13.839c0 0.461 0.374 0.833 0.834 0.833h13.8c0.46 0 0.833-0.372 0.833-0.833z" fill="none" stroke="#373535" stroke-linecap="round" stroke-linejoin="round" stroke-width=".25"/></g><g transform="translate(174.69 385.86)"><path d="m0 0c0-0.47-0.381-0.85-0.851-0.85h-17.024c-0.47 0-0.851 0.38-0.851 0.85v16.974c0 0.469 0.381 0.85 0.851 0.85h17.024c0.47 0 0.851-0.381 0.851-0.85z" fill="none" stroke="#373535" stroke-linecap="round" stroke-linejoin="round" stroke-width=".25"/></g><g transform="translate(173.93 387.22)"><path d="m0 0c0-0.782-0.635-1.417-1.417-1.417h-14.364c-0.783 0-1.417 0.635-1.417 1.417v14.174c0 0.782 0.634 1.417 1.417 1.417h14.364c0.782 0 1.417-0.635 1.417-1.417z" fill="none" stroke="#373535" stroke-linecap="round" stroke-linejoin="round" stroke-width=".5"/></g><g transform="translate(173.06 387.43)"><path d="m0 0c0-0.461-0.373-0.835-0.833-0.835h-13.801c-0.46 0-0.834 0.374-0.834 0.835v13.839c0 0.461 0.374 0.833 0.834 0.833h13.801c0.46 0 0.833-0.372 0.833-0.833z" fill="none" stroke="#373535" stroke-linecap="round" stroke-linejoin="round" stroke-width=".25"/></g><g transform="translate(202.95 386.37)"><path d="m0 0c0-1.565-1.27-2.834-2.834-2.834h-15.966c-1.565 0-2.835 1.269-2.835 2.834v81.274c0 1.565 1.27 2.834 2.835 2.834h15.966c1.564 0 2.834-1.269 2.834-2.834z" fill="none" stroke="#373535" stroke-linecap="round" stroke-linejoin="round" stroke-width=".25"/></g><g transform="translate(190.37 392.36)"><path d="m0 0c0-0.313 0.254-0.567 0.567-0.567h2.481c0.313 0 0.567 0.254 0.567 0.567v69.235c0 0.314-0.254 0.568-0.567 0.568h-2.481c-0.313 0-0.567-0.254-0.567-0.568" fill="#fff"/><path d="m0 0c0-0.313 0.254-0.567 0.567-0.567h2.481c0.313 0 0.567 0.254 0.567 0.567v69.235c0 0.314-0.254 0.568-0.567 0.568h-2.481c-0.313 0-0.567-0.254-0.567-0.568z" fill="none" stroke="#373535" stroke-linecap="round" stroke-linejoin="round" stroke-width=".5"/></g><g transform="translate(189.21 519.37)"><path d="m0 0c0 30.536-24.755 55.291-55.291 55.291-30.537 0-55.292-24.755-55.292-55.291 0-30.537 24.755-55.292 55.292-55.292 30.536 0 55.291 24.755 55.291 55.292z" fill="none" stroke="#373535" stroke-linecap="round" stroke-linejoin="round" stroke-width=".5"/></g><g transform="translate(183.32 519.37)"><path d="m0 0c0 27.284-22.117 49.401-49.401 49.401-27.285 0-49.402-22.117-49.402-49.401s22.117-49.402 49.402-49.402c27.284 0 49.401 22.118 49.401 49.402z" fill="none" stroke="#373535" stroke-linecap="round" stroke-linejoin="round" stroke-width=".25"/></g><g transform="translate(155.59 519.37)"><path d="m0 0c0 11.964-9.706 21.67-21.671 21.67s-21.672-9.706-21.672-21.67c0-11.966 9.707-21.672 21.672-21.672s21.671 9.706 21.671 21.672z" fill="none" stroke="#373535" stroke-linecap="round" stroke-linejoin="round" stroke-width=".5"/></g><g transform="translate(181.37 519.37)"><path d="m0 0c0 26.209-21.245 47.454-47.454 47.454s-47.455-21.245-47.455-47.454 21.246-47.455 47.455-47.455 47.454 21.246 47.454 47.455z" fill="none" stroke="#373535" stroke-linecap="round" stroke-linejoin="round" stroke-width=".3"/></g><g transform="translate(133.92 475.14)"><path d="m0 0c-24.429 0-44.231 19.803-44.231 44.231 0 24.429 19.802 44.229 44.231 44.229s44.23-19.8 44.23-44.229c0-24.428-19.801-44.231-44.23-44.231m0 90.741c-25.688 0-46.511-20.822-46.511-46.51 0-25.687 20.823-46.511 46.511-46.511s46.51 20.824 46.51 46.511c0 25.688-20.822 46.51-46.51 46.51" fill="#373535"/></g><g transform="translate(190.32 519.37)"><path d="m0 0c0 31.15-25.252 56.402-56.402 56.402-31.152 0-56.404-25.252-56.404-56.402 0-31.151 25.252-56.403 56.404-56.403 31.15 0 56.402 25.252 56.402 56.403z" fill="none" stroke="#373535" stroke-linecap="round" stroke-linejoin="round" stroke-width=".35"/></g><g transform="translate(193.14 519.37)"><path d="m0 0c0 32.708-26.515 59.223-59.223 59.223-32.71 0-59.223-26.515-59.223-59.223 0-32.709 26.513-59.223 59.223-59.223 32.708 0 59.223 26.514 59.223 59.223z" fill="none" stroke="#373535" stroke-linecap="round" stroke-linejoin="round" stroke-width=".25"/></g><g transform="translate(131.14 572.09)"><path d="m0 0c0.148-1.352-2.565-2.906-6.064-3.476-3.496-0.566-6.457 0.07-6.603 1.421-0.153 1.353 2.563 2.91 6.063 3.475 3.496 0.567 6.453-0.069 6.604-1.42z" fill="none" stroke="#373535" stroke-linecap="round" stroke-linejoin="round" stroke-width=".25"/></g><g transform="translate(136.77 572.09)"><path d="m0 0c-0.148-1.352 2.564-2.906 6.064-3.476 3.496-0.566 6.457 0.07 6.604 1.421 0.153 1.353-2.564 2.91-6.064 3.475-3.497 0.567-6.453-0.069-6.604-1.42z" fill="none" stroke="#373535" stroke-linecap="round" stroke-linejoin="round" stroke-width=".25"/></g><g transform="translate(113.19 567.99)"><path d="m0 0c0.582-1.242-1.419-3.66-4.477-5.403-3.053-1.738-6.007-2.145-6.589-0.903-0.589 1.242 1.415 3.662 4.474 5.403 3.053 1.74 6.006 2.143 6.592 0.903z" fill="none" stroke="#373535" stroke-linecap="round" stroke-linejoin="round" stroke-width=".25"/></g><g transform="translate(97.931 557.96)"><path d="m0 0c0.911-1.015-0.255-3.987-2.611-6.646-2.354-2.652-5.005-3.984-5.916-2.968-0.916 1.011 0.251 3.988 2.609 6.643 2.353 2.655 5.003 3.985 5.918 2.971z" fill="none" stroke="#373535" stroke-linecap="round" stroke-linejoin="round" stroke-width=".25"/></g><g transform="translate(86.894,543.21)"><path d="m0 0c1.193-0.702 1.109-3.912-0.192-7.179-1.302-3.259-3.329-5.34-4.522-4.636-1.199 0.698-1.113 3.912 0.192 7.175 1.299 3.262 3.326 5.339 4.522 4.64z" fill="none" stroke="#373535" stroke-linecap="round" stroke-linejoin="round" stroke-width=".25"/></g><g transform="translate(81.433,525.78)"><path d="m0 0c1.35-0.112 2.426-3.081 2.4-6.64-0.028-3.554-1.146-6.348-2.5-6.238-1.352 0.107-2.427 3.082-2.399 6.64 0.024 3.553 1.146 6.346 2.499 6.238z" fill="none" stroke="#373535" stroke-linecap="round" stroke-linejoin="round" stroke-width=".25"/></g><g transform="translate(154.69 567.99)"><path d="m0 0c-0.583-1.242 1.419-3.66 4.477-5.403 3.053-1.738 6.006-2.145 6.588-0.903 0.589 1.242-1.415 3.662-4.473 5.403-3.053 1.74-6.006 2.143-6.592 0.903z" fill="none" stroke="#373535" stroke-linecap="round" stroke-linejoin="round" stroke-width=".25"/></g><g transform="translate(169.94 557.96)"><path d="m0 0c-0.912-1.015 0.254-3.987 2.61-6.646 2.355-2.652 5.004-3.984 5.915-2.968 0.917 1.011-0.251 3.988-2.607 6.643-2.354 2.655-5.004 3.985-5.918 2.971z" fill="none" stroke="#373535" stroke-linecap="round" stroke-linejoin="round" stroke-width=".25"/></g><g transform="translate(180.98 543.21)"><path d="m0 0c-1.193-0.702-1.109-3.912 0.192-7.179 1.302-3.259 3.329-5.34 4.522-4.636 1.199 0.698 1.113 3.912-0.192 7.175-1.299 3.262-3.326 5.339-4.522 4.64z" fill="none" stroke="#373535" stroke-linecap="round" stroke-linejoin="round" stroke-width=".25"/></g><g transform="translate(186.44 525.78)"><path d="m0 0c-1.35-0.112-2.426-3.081-2.4-6.64 0.028-3.554 1.146-6.348 2.5-6.238 1.352 0.107 2.426 3.082 2.398 6.64-0.024 3.553-1.145 6.346-2.498 6.238z" fill="none" stroke="#373535" stroke-linecap="round" stroke-linejoin="round" stroke-width=".25"/></g><g transform="translate(82.538 507.47)"><path d="m0 0c1.348 0.246 3.354-2.271 4.48-5.627 1.122-3.354 0.935-6.278-0.416-6.525-1.351-0.251-3.357 2.27-4.479 5.626-1.125 3.355-0.937 6.275 0.415 6.526z" fill="none" stroke="#373535" stroke-linecap="round" stroke-linejoin="round" stroke-width=".25"/></g><g transform="translate(89.705 490.58)"><path d="m0 0c1.179 0.71 3.934-0.928 6.151-3.663 2.213-2.735 3.051-5.533 1.87-6.245-1.182-0.716-3.937 0.926-6.152 3.661-2.217 2.734-3.051 5.531-1.869 6.247z" fill="none" stroke="#373535" stroke-linecap="round" stroke-linejoin="round" stroke-width=".25"/></g><g transform="translate(102.29 477.25)"><path d="m0 0c1.018 0.951 4.236 0.22 7.189-1.639 2.95-1.861 4.514-4.146 3.494-5.098-1.018-0.961-4.238-0.225-7.189 1.633-2.95 1.861-4.514 4.144-3.494 5.104z" fill="none" stroke="#373535" stroke-linecap="round" stroke-linejoin="round" stroke-width=".25"/></g><g transform="translate(118.69 469.07)"><path d="m0 0c0.663 1.234 3.951 1.614 7.347 0.844 3.389-0.774 5.605-2.407 4.936-3.644-0.659-1.244-3.949-1.619-7.343-0.848-3.392 0.773-5.602 2.405-4.94 3.648z" fill="none" stroke="#373535" stroke-linecap="round" stroke-linejoin="round" stroke-width=".25"/></g><g transform="translate(116.02 566.76)"><path d="m0 0c-0.051-0.248-0.427-0.518-0.836-0.597-0.407-0.082-0.695 0.053-0.64 0.304 0.051 0.246 0.428 0.518 0.835 0.599 0.408 0.078 0.697-0.055 0.641-0.306z" fill="none" stroke="#373535" stroke-linecap="round" stroke-linejoin="round" stroke-width=".25"/></g><g transform="translate(116.53 569.24)"><path d="m0 0c-0.049-0.22-0.418-0.463-0.819-0.544-0.398-0.083-0.68 0.025-0.626 0.245 0.05 0.217 0.422 0.462 0.82 0.545 0.399 0.079 0.683-0.027 0.625-0.246z" fill="none" stroke="#373535" stroke-linecap="round" stroke-linejoin="round" stroke-width=".25"/></g><g transform="translate(117.39 571.26)"><path d="m0 0c-0.059-0.147-0.45-0.353-0.869-0.458-0.415-0.105-0.704-0.074-0.64 0.072 0.061 0.146 0.454 0.353 0.87 0.458 0.417 0.105 0.707 0.074 0.639-0.072z" fill="none" stroke="#373535" stroke-linecap="round" stroke-linejoin="round" stroke-width=".25"/></g><g transform="translate(133.3 570.04)"><path d="m0 0c-0.132-0.216-0.578-0.341-0.989-0.274-0.41 0.061-0.635 0.287-0.497 0.503 0.132 0.214 0.579 0.34 0.989 0.277 0.409-0.066 0.636-0.289 0.497-0.506z" fill="none" stroke="#373535" stroke-linecap="round" stroke-linejoin="round" stroke-width=".25"/></g><g transform="translate(134.64 572.2)"><path d="m0 0c-0.121-0.19-0.552-0.292-0.956-0.23-0.401 0.057-0.631 0.255-0.505 0.443 0.122 0.187 0.555 0.29 0.958 0.231 0.402-0.062 0.631-0.258 0.503-0.444z" fill="none" stroke="#373535" stroke-linecap="round" stroke-linejoin="round" stroke-width=".25"/></g><g transform="translate(136.13 573.8)"><path d="m0 0c-0.106-0.119-0.544-0.178-0.975-0.134-0.424 0.044-0.686 0.172-0.576 0.287 0.108 0.117 0.547 0.176 0.975 0.132 0.427-0.044 0.689-0.172 0.576-0.285z" fill="none" stroke="#373535" stroke-linecap="round" stroke-linejoin="round" stroke-width=".25"/></g><g transform="translate(100.92 557.8)"><path d="m0 0c0.037-0.251-0.222-0.634-0.58-0.849-0.353-0.217-0.669-0.191-0.704 0.063-0.037 0.249 0.221 0.635 0.576 0.851 0.355 0.214 0.673 0.189 0.708-0.065z" fill="none" stroke="#373535" stroke-linecap="round" stroke-linejoin="round" stroke-width=".25"/></g><g transform="translate(100.51 560.3)"><path d="m0 0c0.031-0.224-0.23-0.578-0.581-0.794-0.344-0.214-0.646-0.211-0.671 0.014-0.028 0.221 0.235 0.578 0.581 0.795 0.348 0.212 0.65 0.211 0.671-0.015z" fill="none" stroke="#373535" stroke-linecap="round" stroke-linejoin="round" stroke-width=".25"/></g><g transform="translate(100.59 562.5)"><path d="m0 0c-4e-3 -0.157-0.3-0.486-0.656-0.729-0.354-0.241-0.635-0.313-0.626-0.155 8e-3 0.159 0.304 0.488 0.659 0.732 0.354 0.242 0.638 0.313 0.623 0.152z" fill="none" stroke="#373535" stroke-linecap="round" stroke-linejoin="round" stroke-width=".25"/></g><g transform="translate(166.01 558.57)"><path d="m0 0c-0.243-0.073-0.659 0.126-0.926 0.448-0.267 0.316-0.289 0.632-0.044 0.705 0.241 0.074 0.661-0.125 0.929-0.442 0.265-0.319 0.287-0.637 0.041-0.711z" fill="none" stroke="#373535" stroke-linecap="round" stroke-linejoin="round" stroke-width=".25"/></g><g transform="translate(168.42 559.35)"><path d="m0 0c-0.215-0.064-0.605 0.142-0.87 0.457-0.264 0.307-0.306 0.606-0.087 0.665 0.215 0.062 0.607-0.147 0.873-0.456 0.262-0.312 0.305-0.612 0.084-0.666z" fill="none" stroke="#373535" stroke-linecap="round" stroke-linejoin="round" stroke-width=".25"/></g><g transform="translate(170.61 559.6)"><path d="m0 0c-0.156-0.019-0.525 0.226-0.82 0.542-0.29 0.312-0.403 0.58-0.245 0.596 0.157 0.015 0.528-0.229 0.822-0.543 0.291-0.315 0.404-0.585 0.243-0.595z" fill="none" stroke="#373535" stroke-linecap="round" stroke-linejoin="round" stroke-width=".25"/></g><g transform="translate(150.67 567.17)"><path d="m0 0c-0.199-0.158-0.66-0.126-1.025 0.077-0.365 0.196-0.5 0.485-0.298 0.642 0.196 0.156 0.66 0.125 1.025-0.073 0.363-0.201 0.5-0.489 0.298-0.646z" fill="none" stroke="#373535" stroke-linecap="round" stroke-linejoin="round" stroke-width=".25"/></g><g transform="translate(152.63 568.77)"><path d="m0 0c-0.178-0.14-0.615-0.089-0.979 0.106-0.356 0.19-0.504 0.454-0.323 0.588 0.178 0.135 0.619 0.085 0.979-0.106 0.358-0.195 0.509-0.458 0.323-0.588z" fill="none" stroke="#373535" stroke-linecap="round" stroke-linejoin="round" stroke-width=".25"/></g><g transform="translate(154.57 569.8)"><path d="m0 0c-0.138-0.076-0.57 0.016-0.959 0.202-0.386 0.187-0.589 0.394-0.447 0.466 0.141 0.072 0.575-0.02 0.963-0.205 0.387-0.187 0.59-0.396 0.443-0.463z" fill="none" stroke="#373535" stroke-linecap="round" stroke-linejoin="round" stroke-width=".25"/></g><g transform="translate(89.769 544.18)"><path d="m0 0c0.11-0.229-0.023-0.671-0.305-0.981-0.272-0.313-0.582-0.38-0.689-0.149-0.111 0.229 0.024 0.673 0.299 0.984 0.277 0.309 0.589 0.377 0.695 0.146z" fill="none" stroke="#373535" stroke-linecap="round" stroke-linejoin="round" stroke-width=".25"/></g><g transform="translate(88.532 546.39)"><path d="m0 0c0.098-0.203-0.041-0.622-0.307-0.935-0.26-0.31-0.547-0.401-0.643-0.195-0.095 0.202 0.046 0.622 0.308 0.937 0.265 0.307 0.552 0.401 0.642 0.193z" fill="none" stroke="#373535" stroke-linecap="round" stroke-linejoin="round" stroke-width=".25"/></g><g transform="translate(87.886 548.49)"><path d="m0 0c0.047-0.15-0.126-0.557-0.381-0.904-0.255-0.342-0.497-0.502-0.541-0.351-0.045 0.154 0.127 0.563 0.383 0.907s0.499 0.505 0.539 0.348z" fill="none" stroke="#373535" stroke-linecap="round" stroke-linejoin="round" stroke-width=".25"/></g><g transform="translate(177.49 545.17)"><path d="m0 0c-0.254 0.019-0.571 0.353-0.702 0.751-0.137 0.391-0.042 0.693 0.212 0.673 0.253-0.018 0.571-0.355 0.707-0.747 0.132-0.394 0.037-0.699-0.217-0.677z" fill="none" stroke="#373535" stroke-linecap="round" stroke-linejoin="round" stroke-width=".25"/></g><g transform="translate(180.03 545.15)"><path d="m0 0c-0.227 0.014-0.521 0.342-0.662 0.728-0.14 0.382-0.076 0.674 0.149 0.656 0.223-0.019 0.519-0.347 0.662-0.732 0.136-0.383 0.076-0.678-0.149-0.652z" fill="none" stroke="#373535" stroke-linecap="round" stroke-linejoin="round" stroke-width=".25"/></g><g transform="translate(182.17 544.67)"><path d="m0 0c-0.152 0.034-0.422 0.385-0.598 0.778-0.171 0.391-0.19 0.682-0.037 0.645 0.156-0.038 0.427-0.389 0.601-0.781 0.173-0.394 0.191-0.686 0.034-0.642z" fill="none" stroke="#373535" stroke-linecap="round" stroke-linejoin="round" stroke-width=".25"/></g><g transform="translate(83.95 527.6)"><path d="m0 0c0.187-0.174 0.224-0.634 0.075-1.026-0.138-0.391-0.402-0.567-0.587-0.39-0.186 0.172-0.223 0.635-0.081 1.023 0.145 0.391 0.409 0.569 0.593 0.393z" fill="none" stroke="#373535" stroke-linecap="round" stroke-linejoin="round" stroke-width=".25"/></g><g transform="translate(82.033 529.24)"><path d="m0 0c0.167-0.153 0.19-0.595 0.057-0.982-0.129-0.384-0.364-0.575-0.528-0.418-0.162 0.154-0.184 0.596-0.055 0.985 0.133 0.383 0.367 0.575 0.526 0.415z" fill="none" stroke="#373535" stroke-linecap="round" stroke-linejoin="round" stroke-width=".25"/></g><g transform="translate(80.665 531.01)"><path d="m0 0c0.099-0.123 0.087-0.565-0.022-0.982-0.114-0.412-0.281-0.65-0.376-0.524-0.098 0.127-0.088 0.569 0.024 0.985 0.112 0.414 0.279 0.653 0.374 0.521z" fill="none" stroke="#373535" stroke-linecap="round" stroke-linejoin="round" stroke-width=".25"/></g><g transform="translate(183.67 528.71)"><path d="m0 0c-0.235 0.101-0.429 0.519-0.424 0.938-5e-3 0.415 0.183 0.67 0.416 0.567 0.236-0.097 0.428-0.517 0.43-0.933-2e-3 -0.415-0.189-0.674-0.422-0.572z" fill="none" stroke="#373535" stroke-linecap="round" stroke-linejoin="round" stroke-width=".25"/></g><g transform="translate(186.04 527.83)"><path d="m0 0c-0.209 0.087-0.384 0.493-0.392 0.903-0.011 0.405 0.144 0.663 0.352 0.574 0.205-0.089 0.378-0.498 0.391-0.906 7e-3 -0.405-0.145-0.668-0.351-0.571z" fill="none" stroke="#373535" stroke-linecap="round" stroke-linejoin="round" stroke-width=".25"/></g><g transform="translate(187.93 526.65)"><path d="m0 0c-0.134 0.081-0.276 0.501-0.317 0.93-0.037 0.424 0.04 0.706 0.172 0.621 0.136-0.085 0.28-0.505 0.317-0.933 0.038-0.428-0.036-0.71-0.172-0.618z" fill="none" stroke="#373535" stroke-linecap="round" stroke-linejoin="round" stroke-width=".25"/></g><g transform="translate(84.145 509.99)"><path d="m0 0c0.232-0.104 0.416-0.526 0.402-0.945-6e-3 -0.415-0.199-0.666-0.43-0.559-0.232 0.103-0.416 0.527-0.408 0.943 0.012 0.415 0.205 0.669 0.436 0.561z" fill="none" stroke="#373535" stroke-linecap="round" stroke-linejoin="round" stroke-width=".25"/></g><g transform="translate(81.753 510.94)"><path d="m0 0c0.208-0.091 0.375-0.499 0.376-0.909 4e-3 -0.404-0.156-0.662-0.362-0.568-0.203 0.093-0.369 0.503-0.375 0.914 1e-3 0.404 0.159 0.662 0.361 0.563z" fill="none" stroke="#373535" stroke-linecap="round" stroke-linejoin="round" stroke-width=".25"/></g><g transform="translate(79.937 512.07)"><path d="m0 0c0.134-0.085 0.265-0.508 0.296-0.938 0.025-0.424-0.056-0.704-0.188-0.616-0.132 0.09-0.266 0.511-0.294 0.94-0.027 0.427 0.054 0.708 0.186 0.614z" fill="none" stroke="#373535" stroke-linecap="round" stroke-linejoin="round" stroke-width=".25"/></g><g transform="translate(90.357 493.54)"><path d="m0 0c0.254-0.016 0.573-0.349 0.705-0.746 0.139-0.392 0.045-0.694-0.21-0.674-0.252 0.016-0.573 0.351-0.709 0.743-0.133 0.394-0.041 0.698 0.214 0.677z" fill="none" stroke="#373535" stroke-linecap="round" stroke-linejoin="round" stroke-width=".25"/></g><g transform="translate(87.799 493.56)"><path d="m0 0c0.227-0.013 0.525-0.339 0.669-0.724 0.143-0.377 0.082-0.674-0.144-0.657-0.222 0.017-0.52 0.344-0.668 0.726-0.139 0.381-0.081 0.677 0.143 0.655z" fill="none" stroke="#373535" stroke-linecap="round" stroke-linejoin="round" stroke-width=".25"/></g><g transform="translate(85.671 494.02)"><path d="m0 0c0.155-0.033 0.425-0.384 0.604-0.776 0.17-0.391 0.192-0.681 0.038-0.643-0.157 0.037-0.428 0.386-0.603 0.778-0.174 0.393-0.195 0.684-0.039 0.641z" fill="none" stroke="#373535" stroke-linecap="round" stroke-linejoin="round" stroke-width=".25"/></g><g transform="translate(101.82 480.16)"><path d="m0 0c0.241 0.078 0.66-0.115 0.928-0.438 0.272-0.313 0.295-0.629 0.051-0.703-0.241-0.078-0.663 0.118-0.932 0.434-0.268 0.317-0.293 0.635-0.047 0.707z" fill="none" stroke="#373535" stroke-linecap="round" stroke-linejoin="round" stroke-width=".25"/></g><g transform="translate(99.364 479.37)"><path d="m0 0c0.216 0.067 0.61-0.134 0.879-0.444 0.267-0.305 0.313-0.604 0.095-0.667-0.214-0.062-0.608 0.14-0.879 0.447-0.264 0.309-0.313 0.606-0.095 0.664z" fill="none" stroke="#373535" stroke-linecap="round" stroke-linejoin="round" stroke-width=".25"/></g><g transform="translate(97.279 479.05)"><path d="m0 0c0.157 0.019 0.526-0.226 0.823-0.539 0.288-0.314 0.403-0.581 0.244-0.595-0.159-0.015-0.529 0.226-0.822 0.54-0.292 0.315-0.407 0.583-0.245 0.594z" fill="none" stroke="#373535" stroke-linecap="round" stroke-linejoin="round" stroke-width=".25"/></g><g transform="translate(117.11 471.53)"><path d="m0 0c0.198 0.156 0.668 0.126 1.046-0.075 0.377-0.191 0.519-0.473 0.315-0.625-0.197-0.156-0.67-0.125-1.047 0.069-0.375 0.196-0.52 0.479-0.314 0.631z" fill="none" stroke="#373535" stroke-linecap="round" stroke-linejoin="round" stroke-width=".25"/></g><g transform="translate(115.12 469.96)"><path d="m0 0c0.179 0.137 0.63 0.091 1.002-0.099 0.369-0.185 0.528-0.442 0.345-0.577-0.179-0.131-0.628-0.084-1.003 0.101-0.367 0.19-0.528 0.445-0.344 0.575z" fill="none" stroke="#373535" stroke-linecap="round" stroke-linejoin="round" stroke-width=".25"/></g><g transform="translate(113.23 468.93)"><path d="m0 0c0.138 0.077 0.571-5e-3 0.967-0.179 0.387-0.177 0.596-0.38 0.455-0.454-0.141-0.076-0.575 3e-3 -0.967 0.18-0.391 0.177-0.601 0.38-0.455 0.453z" fill="none" stroke="#373535" stroke-linecap="round" stroke-linejoin="round" stroke-width=".25"/></g><g transform="translate(136.79 466.76)"><path d="m0 0c0.18 1.389 3.116 2.917 6.562 3.406 3.444 0.488 6.096-0.25 5.913-1.643-0.172-1.397-3.114-2.921-6.559-3.41-3.445-0.488-6.092 0.25-5.916 1.647z" fill="none" stroke="#373535" stroke-linecap="round" stroke-linejoin="round" stroke-width=".25"/></g><g transform="translate(154.57 470.98)"><path d="m0 0c-0.248 1.389 2.064 3.809 5.166 5.403 3.103 1.593 5.821 1.754 6.067 0.362 0.258-1.393-2.058-3.812-5.161-5.406-3.102-1.592-5.819-1.754-6.072-0.359z" fill="none" stroke="#373535" stroke-linecap="round" stroke-linejoin="round" stroke-width=".25"/></g><g transform="translate(169.89 480.95)"><path d="M 0,0 C -0.706,1.221 0.645,4.284 3.017,6.839 5.393,9.394 7.894,10.471 8.6,9.245 9.316,8.023 7.961,4.961 5.587,2.405 3.213,-0.148 0.713,-1.226 0,0 Z" fill="none" stroke="#373535" stroke-linecap="round" stroke-linejoin="round" stroke-width=".25"/></g><g transform="translate(180.87 495.46)"><path d="m0 0c-1.054 0.93-0.8 4.325 0.563 7.586 1.369 3.26 3.335 5.146 4.391 4.212 1.063-0.926 0.805-4.326-0.561-7.587-1.367-3.257-3.331-5.143-4.393-4.211z" fill="none" stroke="#373535" stroke-linecap="round" stroke-linejoin="round" stroke-width=".25"/></g><g transform="translate(134.5 468.68)"><path d="m0 0c0.136 0.213 0.59 0.339 1.013 0.272 0.419-0.055 0.646-0.276 0.504-0.487-0.136-0.212-0.592-0.337-1.012-0.278-0.418 0.063-0.649 0.282-0.505 0.493z" fill="none" stroke="#373535" stroke-linecap="round" stroke-linejoin="round" stroke-width=".25"/></g><g transform="translate(133.14 466.49)"><path d="m0 0c0.117 0.191 0.555 0.31 0.971 0.264 0.411-0.042 0.652-0.226 0.527-0.417-0.12-0.187-0.557-0.301-0.974-0.262-0.41 0.047-0.65 0.228-0.524 0.415z" fill="none" stroke="#373535" stroke-linecap="round" stroke-linejoin="round" stroke-width=".25"/></g><g transform="translate(131.68 464.91)"><path d="m0 0c0.104 0.118 0.542 0.184 0.973 0.148 0.423-0.04 0.688-0.163 0.579-0.279-0.108-0.119-0.545-0.185-0.973-0.148-0.428 0.04-0.692 0.163-0.579 0.279z" fill="none" stroke="#373535" stroke-linecap="round" stroke-linejoin="round" stroke-width=".25"/></g><g transform="translate(151.8 471.98)"><path d="m0 0c0.063 0.245 0.454 0.507 0.877 0.575 0.415 0.078 0.7-0.06 0.631-0.304-0.063-0.245-0.457-0.505-0.874-0.582-0.417-0.07-0.704 0.066-0.634 0.311z" fill="none" stroke="#373535" stroke-linecap="round" stroke-linejoin="round" stroke-width=".25"/></g><g transform="translate(151.28 469.44)"><path d="m0 0c0.052 0.218 0.43 0.467 0.84 0.554 0.403 0.089 0.689-0.011 0.631-0.232-0.056-0.215-0.435-0.46-0.843-0.552-0.404-0.084-0.69 0.013-0.628 0.23z" fill="none" stroke="#373535" stroke-linecap="round" stroke-linejoin="round" stroke-width=".25"/></g><g transform="translate(150.46 467.48)"><path d="M 0,0 C 0.063,0.146 0.458,0.344 0.877,0.445 1.292,0.54 1.582,0.506 1.515,0.361 1.449,0.214 1.055,0.015 0.638,-0.084 0.219,-0.18 -0.071,-0.146 0,0 Z" fill="none" stroke="#373535" stroke-linecap="round" stroke-linejoin="round" stroke-width=".25"/></g><g transform="translate(166.91 480.95)"><path d="m0 0c-0.029 0.251 0.242 0.636 0.611 0.852 0.36 0.222 0.676 0.195 0.699-0.058 0.029-0.25-0.246-0.636-0.608-0.857-0.363-0.214-0.68-0.191-0.702 0.063z" fill="none" stroke="#373535" stroke-linecap="round" stroke-linejoin="round" stroke-width=".25"/></g><g transform="translate(167.34 478.4)"><path d="M 0,0 C -0.029,0.223 0.233,0.591 0.585,0.819 0.93,1.047 1.232,1.057 1.257,0.829 1.282,0.609 1.016,0.244 0.669,0.011 0.322,-0.212 0.021,-0.224 0,0 Z" fill="none" stroke="#373535" stroke-linecap="round" stroke-linejoin="round" stroke-width=".25"/></g><g transform="translate(167.28 476.28)"><path d="m0 0c6e-3 0.159 0.304 0.485 0.659 0.731 0.353 0.238 0.636 0.31 0.625 0.151-8e-3 -0.16-0.304-0.488-0.659-0.732-0.356-0.239-0.64-0.311-0.625-0.15z" fill="none" stroke="#373535" stroke-linecap="round" stroke-linejoin="round" stroke-width=".25"/></g><g transform="translate(178.09 494.53)"><path d="m0 0c-0.142 0.203-0.051 0.631 0.213 0.948 0.252 0.32 0.573 0.409 0.71 0.201 0.142-0.202 0.049-0.631-0.207-0.951-0.258-0.313-0.577-0.408-0.716-0.198z" fill="none" stroke="#373535" stroke-linecap="round" stroke-linejoin="round" stroke-width=".25"/></g><g transform="translate(179.35 492.25)"><path d="m0 0c-0.13 0.164-0.039 0.584 0.201 0.938 0.235 0.35 0.528 0.505 0.653 0.336 0.125-0.163 0.03-0.583-0.204-0.937-0.239-0.348-0.528-0.505-0.65-0.337z" fill="none" stroke="#373535" stroke-linecap="round" stroke-linejoin="round" stroke-width=".25"/></g><g transform="translate(179.97 490.25)"><path d="M 0,0 C -0.065,0.139 0.078,0.523 0.314,0.861 0.551,1.191 0.797,1.355 0.857,1.215 0.923,1.076 0.781,0.688 0.544,0.353 0.303,0.021 0.059,-0.145 0,0 Z" fill="none" stroke="#373535" stroke-linecap="round" stroke-linejoin="round" stroke-width=".25"/></g><g transform="translate(183.93 511.16)"><path d="M 0,0 C -0.206,0.138 -0.28,0.568 -0.151,0.961 -0.035,1.35 0.23,1.553 0.434,1.409 0.641,1.274 0.712,0.84 0.592,0.449 0.469,0.063 0.206,-0.144 0,0 Z" fill="none" stroke="#373535" stroke-linecap="round" stroke-linejoin="round" stroke-width=".25"/></g><g transform="translate(185.88 509.44)"><path d="m0 0c-0.182 0.104-0.252 0.527-0.16 0.946 0.09 0.41 0.304 0.663 0.483 0.552 0.176-0.105 0.243-0.53 0.156-0.944-0.093-0.412-0.304-0.665-0.479-0.554z" fill="none" stroke="#373535" stroke-linecap="round" stroke-linejoin="round" stroke-width=".25"/></g><g transform="translate(187.2 507.77)"><path d="M 0,0 C -0.112,0.105 -0.12,0.517 -0.025,0.918 0.072,1.312 0.24,1.555 0.349,1.446 0.461,1.341 0.472,0.929 0.376,0.529 0.273,0.131 0.107,-0.111 0,0 Z" fill="none" stroke="#373535" stroke-linecap="round" stroke-linejoin="round" stroke-width=".25"/></g><g transform="translate(133.29 519.37)"><path d="m0 0c0 0.349 0.282 0.632 0.632 0.632 0.347 0 0.631-0.283 0.631-0.632 0-0.348-0.284-0.631-0.632-0.631-0.349 0-0.631 0.283-0.631 0.631m3.886 0c0 1.798-1.456 3.256-3.254 3.256-1.799 0-3.256-1.458-3.256-3.256s1.457-3.255 3.255-3.255c1.799 0 3.255 1.457 3.255 3.255" fill="#373535"/></g><g transform="translate(128.04 528.27)"><path d="m0 0-3.055-3.057 4.173-1.119" fill="#373535"/></g><g transform="translate(139.85 513.41)"><path d="m0 0c3.277 3.275 3.277 8.588 0 11.864-2.883 2.884-7.342 3.23-10.604 1.038l1.105-1.104c2.643 1.61 6.137 1.272 8.421-1.013 2.681-2.68 2.681-7.026 0-9.706-2.681-2.683-7.026-2.683-9.707 0-2.286 2.284-2.624 5.778-1.014 8.42-0.368 0.368-0.735 0.735-1.102 1.104-2.193-3.26-1.847-7.721 1.037-10.603 3.276-3.276 8.589-3.276 11.864 0" fill="#373535"/></g><g transform="translate(121.63 528.55)"><path d="m0 0c-1.114 0.833-2.229 1.666-3.342 2.498-0.105-0.142-0.21-0.285-0.312-0.43 1.136-0.801 2.272-1.603 3.408-2.406 0.081 0.114 0.162 0.227 0.246 0.338" fill="#373535"/></g><g transform="translate(123.57 530.69)"><path d="m0 0c-0.938 1.026-1.876 2.053-2.813 3.08-0.131-0.12-0.26-0.241-0.388-0.364 0.966-1 1.931-2.001 2.897-3.002 0.1 0.097 0.201 0.192 0.304 0.286" fill="#373535"/></g><g transform="translate(124.3,531.32)"><path d="m0 0-2.615 3.251c-0.137-0.111-0.274-0.224-0.409-0.339 0.901-1.058 1.802-2.118 2.703-3.178 0.105 0.09 0.213 0.179 0.321 0.266" fill="#373535"/></g><g transform="translate(126.71 532.91)"><path d="m0 0-1.959 3.682c-0.156-0.082-0.312-0.168-0.466-0.256 0.687-1.208 1.373-2.417 2.059-3.627 0.121 0.069 0.243 0.137 0.366 0.201" fill="#373535"/></g><g transform="translate(125.87 532.43)"><path d="m0 0c-0.729 1.184-1.458 2.368-2.187 3.551-0.15-0.093-0.3-0.187-0.449-0.284 0.762-1.163 1.523-2.328 2.283-3.492 0.118 0.078 0.235 0.152 0.353 0.225" fill="#373535"/></g><g transform="translate(125.07 531.9)"><path d="m0 0c-0.803 1.136-1.604 2.272-2.406 3.408-0.145-0.102-0.288-0.206-0.43-0.312 0.832-1.114 1.665-2.228 2.497-3.342 0.112 0.084 0.225 0.166 0.339 0.246" fill="#373535"/></g><g transform="translate(127.57 533.34)"><path d="m0 0c-0.574 1.266-1.149 2.531-1.724 3.797-0.161-0.073-0.321-0.149-0.48-0.227 0.609-1.25 1.217-2.499 1.826-3.749 0.125 0.062 0.252 0.12 0.378 0.179" fill="#373535"/></g><g transform="translate(128.46 533.71)"><path d="m0 0-1.482 3.898c-0.165-0.062-0.331-0.127-0.495-0.195 0.53-1.286 1.06-2.571 1.589-3.856 0.129 0.052 0.258 0.104 0.388 0.153" fill="#373535"/></g><g transform="translate(133.16 534.69)"><path d="m0 0-0.205 4.166c-0.177-9e-3 -0.354-0.02-0.53-0.033l0.318-4.159c0.139 0.01 0.278 0.019 0.417 0.026" fill="#373535"/></g><g transform="translate(132.2 534.62)"><path d="m0 0c-0.155 1.381-0.311 2.763-0.466 4.145-0.177-0.02-0.352-0.042-0.527-0.068 0.192-1.377 0.386-2.754 0.579-4.13 0.138 0.02 0.275 0.037 0.414 0.053" fill="#373535"/></g><g transform="translate(129.38 534.02)"><path d="m0 0c-0.412 1.327-0.823 2.654-1.235 3.983-0.169-0.052-0.338-0.107-0.505-0.165 0.447-1.315 0.895-2.63 1.343-3.948 0.131 0.044 0.263 0.089 0.397 0.13" fill="#373535"/></g><g transform="translate(130.3 534.28)"><path d="m0 0c-0.327 1.351-0.654 2.702-0.982 4.054-0.172-0.042-0.344-0.086-0.515-0.132 0.364-1.342 0.728-2.685 1.093-4.026 0.134 0.037 0.269 0.072 0.404 0.104" fill="#373535"/></g><g transform="translate(131.25 534.48)"><path d="m0 0-0.726 4.106c-0.174-0.031-0.347-0.063-0.521-0.099 0.279-1.362 0.558-2.724 0.837-4.085 0.137 0.027 0.273 0.054 0.41 0.078" fill="#373535"/></g><g transform="translate(134.13 534.71)"><path d="m0 0c0.019 1.389 0.038 2.779 0.057 4.17-0.177 2e-3 -0.354 2e-3 -0.532 0 0.019-1.391 0.038-2.781 0.057-4.17 0.14 2e-3 0.278 2e-3 0.418 0" fill="#373535"/></g><g transform="translate(143.11 531.66)"><path d="m0 0c0.832 1.114 1.665 2.229 2.497 3.342-0.142 0.106-0.285 0.21-0.43 0.312-0.801-1.135-1.603-2.272-2.405-3.408 0.113-0.08 0.227-0.162 0.338-0.246" fill="#373535"/></g><g transform="translate(145.24 529.72)"><path d="M 0,0 C 1.026,0.938 2.053,1.876 3.079,2.814 2.96,2.944 2.839,3.073 2.716,3.201 1.715,2.236 0.715,1.27 -0.285,0.305 -0.189,0.204 -0.094,0.103 0,0" fill="#373535"/></g><g transform="translate(145.87 528.98)"><path d="M 0,0 C 1.083,0.871 2.167,1.743 3.25,2.614 3.139,2.753 3.026,2.89 2.911,3.024 1.852,2.123 0.793,1.222 -0.267,0.321 -0.177,0.216 -0.088,0.108 0,0" fill="#373535"/></g><g transform="translate(147.46 526.57)"><path d="m0 0c1.228 0.653 2.455 1.307 3.682 1.96-0.083 0.156-0.168 0.311-0.255 0.466l-3.628-2.06c0.068-0.12 0.136-0.243 0.201-0.366" fill="#373535"/></g><g transform="translate(146.98 527.41)"><path d="m0 0 3.552 2.187c-0.093 0.151-0.188 0.299-0.284 0.449-1.164-0.762-2.329-1.523-3.492-2.283 0.077-0.117 0.151-0.235 0.224-0.353" fill="#373535"/></g><g transform="translate(146.45 528.22)"><path d="M 0,0 C 1.136,0.803 2.272,1.604 3.408,2.406 3.306,2.551 3.202,2.694 3.096,2.837 1.982,2.004 0.868,1.171 -0.245,0.339 -0.162,0.227 -0.08,0.114 0,0" fill="#373535"/></g><g transform="translate(147.89,525.71)"><path d="m0 0c1.266 0.574 2.532 1.149 3.798 1.725-0.074 0.161-0.15 0.321-0.227 0.48-1.249-0.609-2.499-1.218-3.749-1.827 0.061-0.125 0.12-0.251 0.178-0.378" fill="#373535"/></g><g transform="translate(148.26 524.82)"><path d="M 0,0 3.897,1.483 C 3.835,1.649 3.77,1.813 3.702,1.978 2.417,1.448 1.131,0.919 -0.154,0.389 -0.102,0.26 -0.051,0.131 0,0" fill="#373535"/></g><g transform="translate(141.96 506.3)"><path d="m0 0c0.729-1.184 1.458-2.367 2.188-3.552 0.15 0.093 0.299 0.188 0.448 0.284-0.761 1.164-1.523 2.329-2.283 3.493-0.117-0.077-0.235-0.152-0.353-0.225" fill="#373535"/></g><g transform="translate(142.77 506.83)"><path d="m0 0c0.802-1.136 1.604-2.271 2.405-3.408 0.146 0.102 0.288 0.206 0.431 0.312-0.833 1.115-1.665 2.228-2.498 3.342-0.111-0.084-0.225-0.166-0.338-0.246" fill="#373535"/></g><g transform="translate(140.26 505.4)"><path d="m0 0c0.575-1.267 1.149-2.531 1.725-3.798 0.161 0.073 0.321 0.148 0.48 0.227-0.608 1.25-1.218 2.5-1.827 3.75-0.125-0.063-0.252-0.12-0.378-0.179" fill="#373535"/></g><g transform="translate(139.37 505.02)"><path d="m 0,0 1.482,-3.899 c 0.166,0.063 0.331,0.128 0.495,0.195 C 1.447,-2.418 0.918,-1.133 0.388,0.153 0.26,0.101 0.13,0.049 0,0" fill="#373535"/></g><g transform="translate(134.67 504.04)"><path d="m0 0c0.068-1.39 0.137-2.778 0.205-4.167 0.177 9e-3 0.354 0.021 0.53 0.033-0.106 1.387-0.212 2.774-0.318 4.16-0.139-0.01-0.277-0.019-0.417-0.026" fill="#373535"/></g><g transform="translate(135.64 504.12)"><path d="m0 0 0.467-4.146c0.176 0.02 0.351 0.042 0.526 0.068-0.192 1.377-0.386 2.754-0.579 4.131-0.138-0.02-0.275-0.037-0.414-0.053" fill="#373535"/></g><g transform="translate(138.46 504.71)"><path d="m0 0c0.41-1.328 0.822-2.656 1.233-3.984 0.17 0.052 0.338 0.106 0.506 0.164-0.448 1.316-0.895 2.632-1.343 3.949-0.13-0.044-0.263-0.088-0.396-0.129" fill="#373535"/></g><g transform="translate(137.53 504.46)"><path d="m0 0c0.327-1.352 0.655-2.703 0.982-4.055 0.172 0.042 0.343 0.086 0.514 0.132-0.363 1.342-0.726 2.685-1.092 4.027-0.133-0.037-0.268-0.072-0.404-0.104" fill="#373535"/></g><g transform="translate(136.59 504.26)"><path d="m0 0c0.242-1.368 0.483-2.738 0.726-4.107 0.174 0.03 0.348 0.064 0.522 0.099-0.279 1.362-0.559 2.725-0.838 4.086-0.137-0.027-0.273-0.054-0.41-0.078" fill="#373535"/></g><g transform="translate(133.71 504.02)"><path d="m0 0c-0.019-1.39-0.037-2.78-0.057-4.171 0.178-2e-3 0.355-2e-3 0.532 0-0.019 1.391-0.038 2.781-0.057 4.171-0.139-2e-3 -0.278-2e-3 -0.418 0" fill="#373535"/></g><g transform="translate(136.63 538.69)"><path d="m0 0c-0.175 0.025-0.351 0.048-0.526 0.067l-0.467-4.144c0.139-0.016 0.276-0.033 0.415-0.053 0.192 1.376 0.386 2.754 0.578 4.13" fill="#373535"/></g><g transform="translate(135.41 538.82)"><path d="m0 0c-0.177 0.014-0.353 0.024-0.53 0.033l-0.205-4.166c0.139-7e-3 0.278-0.015 0.417-0.026 0.106 1.386 0.213 2.772 0.318 4.159" fill="#373535"/></g><g transform="translate(137 534.4)"><path d="m0 0c0.279 1.361 0.559 2.723 0.838 4.085-0.174 0.035-0.348 0.069-0.523 0.1-0.242-1.37-0.483-2.738-0.725-4.107 0.137-0.024 0.273-0.051 0.41-0.078" fill="#373535"/></g><g transform="translate(137.94 534.18)"><path d="m0 0c0.364 1.341 0.729 2.684 1.092 4.025-0.171 0.046-0.342 0.09-0.514 0.132-0.327-1.351-0.655-2.703-0.982-4.053 0.135-0.033 0.27-0.068 0.404-0.104" fill="#373535"/></g><g transform="translate(140.64,533.16)"><path d="m0 0c0.609 1.25 1.219 2.499 1.827 3.749-0.159 0.078-0.319 0.153-0.48 0.227-0.576-1.267-1.15-2.532-1.725-3.797 0.127-0.058 0.253-0.117 0.378-0.179" fill="#373535"/></g><g transform="translate(139.76 533.56)"><path d="m0 0c0.53 1.286 1.06 2.57 1.589 3.856-0.164 0.068-0.328 0.132-0.494 0.196l-1.483-3.898c0.13-0.05 0.26-0.101 0.388-0.154" fill="#373535"/></g><g transform="translate(138.86 533.9)"><path d="m0 0 1.344 3.948c-0.168 0.058-0.336 0.113-0.505 0.164-0.412-1.328-0.824-2.655-1.235-3.983 0.133-0.041 0.264-0.085 0.396-0.129" fill="#373535"/></g><g transform="translate(141.49 532.71)"><path d="M 0,0 C 0.688,1.21 1.373,2.419 2.06,3.627 1.905,3.715 1.75,3.8 1.594,3.884 0.94,2.656 0.287,1.429 -0.365,0.201 -0.242,0.137 -0.121,0.069 0,0" fill="#373535"/></g><g transform="translate(142.32 532.21)"><path d="M 0,0 C 0.76,1.164 1.521,2.328 2.282,3.491 2.134,3.589 1.984,3.683 1.834,3.775 1.105,2.593 0.375,1.409 -0.354,0.224 -0.233,0.151 -0.117,0.077 0,0" fill="#373535"/></g><g transform="translate(149.24 520.12)"><path d="M 0,0 4.166,0.205 C 4.157,0.382 4.146,0.559 4.133,0.735 2.746,0.629 1.361,0.523 -0.025,0.417 -0.016,0.278 -0.007,0.14 0,0" fill="#373535"/></g><g transform="translate(149.17 521.08)"><path d="M 0,0 4.145,0.467 C 4.125,0.643 4.103,0.818 4.078,0.993 2.701,0.801 1.324,0.607 -0.053,0.414 -0.033,0.276 -0.016,0.139 0,0" fill="#373535"/></g><g transform="translate(148.57 523.91)"><path d="M 0,0 C 1.328,0.412 2.655,0.824 3.984,1.235 3.932,1.405 3.876,1.573 3.819,1.741 2.504,1.293 1.188,0.846 -0.129,0.398 -0.085,0.266 -0.041,0.133 0,0" fill="#373535"/></g><g transform="translate(148.83 522.98)"><path d="M 0,0 C 1.353,0.326 2.702,0.652 4.054,0.98 4.012,1.152 3.968,1.324 3.922,1.496 2.579,1.131 1.238,0.767 -0.104,0.402 -0.067,0.269 -0.032,0.134 0,0" fill="#373535"/></g><g transform="translate(149.03 522.04)"><path d="M 0,0 C 1.37,0.241 2.738,0.483 4.108,0.726 4.077,0.9 4.044,1.074 4.009,1.248 2.646,0.969 1.285,0.689 -0.078,0.41 -0.05,0.273 -0.023,0.137 0,0" fill="#373535"/></g><g transform="translate(149.26 519.16)"><path d="m0 0c1.391-0.019 2.779-0.038 4.17-0.057 3e-3 0.178 3e-3 0.355 0 0.532-1.391-0.019-2.779-0.038-4.17-0.057 2e-3 -0.14 2e-3 -0.278 0-0.418" fill="#373535"/></g><g transform="translate(144.27 508.04)"><path d="m0 0c0.938-1.026 1.876-2.053 2.814-3.08 0.131 0.12 0.26 0.241 0.387 0.364-0.965 1-1.93 2.001-2.896 3.002-0.101-0.097-0.202-0.192-0.305-0.286" fill="#373535"/></g><g transform="translate(143.54 507.41)"><path d="m0 0c0.871-1.084 1.743-2.168 2.615-3.251 0.138 0.111 0.275 0.224 0.409 0.339-0.901 1.058-1.801 2.118-2.703 3.178-0.105-0.09-0.213-0.179-0.321-0.266" fill="#373535"/></g><g transform="translate(141.13 505.82)"><path d="m0 0c0.654-1.228 1.307-2.455 1.96-3.683 0.156 0.083 0.311 0.168 0.466 0.256-0.687 1.209-1.372 2.418-2.06 3.628-0.121-0.069-0.243-0.136-0.366-0.201" fill="#373535"/></g><g transform="translate(144.57 530.41)"><path d="M 0,0 C 0.966,1.001 1.931,2.002 2.896,3.002 2.77,3.125 2.641,3.246 2.51,3.366 1.571,2.339 0.634,1.313 -0.305,0.286 -0.202,0.192 -0.101,0.097 0,0" fill="#373535"/></g><g transform="translate(143.86 531.06)"><path d="M 0,0 C 0.9,1.06 1.801,2.119 2.702,3.178 2.567,3.293 2.431,3.405 2.293,3.517 1.421,2.433 0.549,1.35 -0.322,0.267 -0.214,0.179 -0.106,0.09 0,0" fill="#373535"/></g><g transform="translate(146.21 510.18)"><path d="m0 0c1.113-0.833 2.228-1.666 3.341-2.498 0.106 0.142 0.21 0.285 0.312 0.43-1.135 0.801-2.272 1.604-3.408 2.406-0.08-0.115-0.162-0.227-0.245-0.338" fill="#373535"/></g><g transform="translate(145.61 509.43)"><path d="m0 0c1.06-0.9 2.118-1.802 3.177-2.703 0.116 0.135 0.228 0.271 0.34 0.41l-3.25 2.614c-0.089-0.107-0.177-0.215-0.267-0.321" fill="#373535"/></g><g transform="translate(144.96 508.71)"><path d="m0 0c1-0.966 2-1.932 3.001-2.897 0.123 0.126 0.244 0.256 0.363 0.387-1.026 0.938-2.052 1.876-3.079 2.814-0.094-0.103-0.189-0.204-0.285-0.304" fill="#373535"/></g><g transform="translate(146.76 510.97)"><path d="m0 0c1.163-0.76 2.327-1.521 3.491-2.282 0.097 0.148 0.192 0.299 0.285 0.449-1.184 0.729-2.369 1.457-3.552 2.186-0.074-0.119-0.148-0.237-0.224-0.353" fill="#373535"/></g><g transform="translate(147.26 511.79)"><path d="m0 0c1.21-0.687 2.419-1.373 3.629-2.059 0.088 0.155 0.173 0.31 0.255 0.466-1.227 0.653-2.454 1.306-3.683 1.959-0.064-0.123-0.132-0.245-0.201-0.366" fill="#373535"/></g><g transform="translate(148.44 514.43)"><path d="m0 0c1.316-0.446 2.633-0.895 3.948-1.342 0.058 0.168 0.113 0.336 0.164 0.505-1.328 0.412-2.655 0.823-3.983 1.235-0.041-0.132-0.084-0.265-0.129-0.398" fill="#373535"/></g><g transform="translate(148.11 513.52)"><path d="m0 0c1.286-0.529 2.571-1.06 3.855-1.589 0.069 0.164 0.134 0.329 0.196 0.494l-3.898 1.484c-0.05-0.131-0.101-0.26-0.153-0.389" fill="#373535"/></g><g transform="translate(147.71 512.65)"><path d="m0 0c1.25-0.61 2.5-1.219 3.749-1.828 0.078 0.159 0.153 0.319 0.227 0.48-1.265 0.576-2.531 1.151-3.797 1.725-0.058-0.127-0.117-0.252-0.179-0.377" fill="#373535"/></g><g transform="translate(148.73 515.35)"><path d="m0 0c1.342-0.364 2.683-0.729 4.025-1.093 0.047 0.171 0.09 0.343 0.132 0.515-1.351 0.328-2.702 0.654-4.053 0.982-0.033-0.135-0.068-0.27-0.104-0.404" fill="#373535"/></g><g transform="translate(148.95 516.29)"><path d="m0 0 4.086-0.837c0.036 0.174 0.069 0.347 0.1 0.522l-4.108 0.725c-0.023-0.137-0.05-0.273-0.078-0.41" fill="#373535"/></g><g transform="translate(149.22 518.2)"><path d="m0 0c1.387-0.106 2.771-0.213 4.158-0.318 0.014 0.176 0.025 0.353 0.033 0.53l-4.166 0.205c-6e-3 -0.14-0.014-0.278-0.025-0.417" fill="#373535"/></g><g transform="translate(149.11 517.24)"><path d="m 0,0 c 1.377,-0.193 2.754,-0.386 4.131,-0.579 0.024,0.175 0.046,0.35 0.066,0.527 C 2.815,0.104 1.435,0.259 0.053,0.414 0.037,0.275 0.02,0.138 0,0" fill="#373535"/></g><g transform="translate(118.58 519.58)"><path d="m0 0c-1.39 0.019-2.78 0.038-4.171 0.057-3e-3 -0.177-3e-3 -0.355 0-0.532 1.391 0.019 2.781 0.038 4.171 0.057-2e-3 0.14-2e-3 0.278 0 0.418" fill="#373535"/></g><g transform="translate(118.81 516.7)"><path d="m0 0c-1.369-0.241-2.738-0.484-4.107-0.726 0.031-0.174 0.063-0.347 0.099-0.521 1.362 0.278 2.725 0.558 4.086 0.837-0.027 0.137-0.054 0.273-0.078 0.41" fill="#373535"/></g><g transform="translate(119.01 515.75)"><path d="m0 0c-1.352-0.327-2.703-0.655-4.055-0.982 0.042-0.172 0.086-0.344 0.132-0.515 1.343 0.364 2.685 0.728 4.027 1.093-0.037 0.133-0.071 0.268-0.104 0.404" fill="#373535"/></g><g transform="translate(119.26 514.82)"><path d="m0 0c-1.328-0.412-2.656-0.824-3.984-1.235 0.052-0.169 0.107-0.338 0.164-0.506 1.316 0.448 2.632 0.896 3.949 1.343-0.045 0.132-0.088 0.265-0.129 0.398" fill="#373535"/></g><g transform="translate(118.67 517.65)"><path d="m0 0c-1.383-0.155-2.765-0.311-4.146-0.466 0.02-0.177 0.042-0.352 0.067-0.527 1.377 0.192 2.754 0.386 4.131 0.579-0.02 0.138-0.037 0.275-0.052 0.414" fill="#373535"/></g><g transform="translate(118.59 518.61)"><path d="m0 0c-1.389-0.068-2.778-0.137-4.167-0.205 9e-3 -0.177 0.021-0.354 0.033-0.53 1.387 0.106 2.774 0.212 4.16 0.318-0.01 0.139-0.019 0.278-0.026 0.417" fill="#373535"/></g><g transform="translate(119.58 513.91)"><path d="m0 0c-1.3-0.494-2.6-0.989-3.899-1.483 0.063-0.165 0.128-0.33 0.195-0.495 1.286 0.53 2.572 1.06 3.857 1.589-0.052 0.129-0.104 0.258-0.153 0.389" fill="#373535"/></g><g transform="translate(119.95 513.02)"><path d="m0 0c-1.267-0.574-2.532-1.149-3.799-1.725 0.073-0.161 0.149-0.321 0.226-0.48 1.251 0.609 2.501 1.218 3.751 1.827-0.062 0.125-0.121 0.252-0.178 0.378" fill="#373535"/></g><g transform="translate(121.38 510.52)"><path d="m0 0c-1.136-0.804-2.271-1.605-3.408-2.407 0.102-0.145 0.206-0.287 0.312-0.43 1.114 0.832 2.228 1.665 3.342 2.497-0.084 0.112-0.165 0.224-0.246 0.34" fill="#373535"/></g><g transform="translate(120.85 511.32)"><path d="m0 0c-1.184-0.729-2.368-1.457-3.552-2.186 0.093-0.15 0.188-0.299 0.284-0.449 1.164 0.762 2.329 1.523 3.493 2.282-0.077 0.117-0.152 0.235-0.225 0.353" fill="#373535"/></g><g transform="translate(120.37 512.16)"><path d="m0 0-3.683-1.959c0.083-0.156 0.168-0.312 0.256-0.465 1.209 0.685 2.418 1.371 3.628 2.058-0.069 0.121-0.136 0.243-0.201 0.366" fill="#373535"/></g><g transform="translate(121.96 509.75)"><path d="m0 0c-1.083-0.871-2.166-1.743-3.25-2.614 0.111-0.139 0.225-0.276 0.339-0.41 1.059 0.901 2.119 1.802 3.178 2.703-0.09 0.105-0.179 0.214-0.267 0.321" fill="#373535"/></g><g transform="translate(122.59 509.02)"><path d="m0 0c-1.026-0.938-2.053-1.876-3.08-2.813 0.12-0.131 0.241-0.261 0.364-0.388 1.001 0.966 2.002 1.93 3.002 2.897-0.097 0.1-0.192 0.201-0.286 0.304" fill="#373535"/></g><g transform="translate(124.73 507.08)"><path d="m0 0c-0.832-1.114-1.665-2.228-2.497-3.342 0.142-0.106 0.285-0.21 0.43-0.312 0.801 1.136 1.604 2.272 2.406 3.408-0.114 0.081-0.227 0.162-0.339 0.246" fill="#373535"/></g><g transform="translate(123.98 507.68)"><path d="m0 0c-0.9-1.059-1.802-2.118-2.703-3.178 0.136-0.115 0.271-0.227 0.41-0.339 0.871 1.083 1.743 2.167 2.614 3.251-0.108 0.087-0.215 0.176-0.321 0.266" fill="#373535"/></g><g transform="translate(123.26 508.33)"><path d="m0 0c-0.966-1.001-1.932-2.002-2.897-3.002 0.127-0.123 0.256-0.244 0.387-0.364 0.938 1.027 1.876 2.053 2.814 3.08-0.103 0.094-0.204 0.189-0.304 0.286" fill="#373535"/></g><g transform="translate(125.52 506.53)"><path d="m0 0-2.282-3.492c0.147-0.097 0.297-0.192 0.448-0.284 0.73 1.183 1.458 2.368 2.188 3.552-0.12 0.073-0.237 0.147-0.354 0.224" fill="#373535"/></g><g transform="translate(126.34 506.02)"><path d="m0 0c-0.686-1.21-1.372-2.419-2.059-3.628 0.155-0.088 0.31-0.173 0.466-0.256l1.959 3.683c-0.123 0.065-0.245 0.132-0.366 0.201" fill="#373535"/></g><g transform="translate(128.98 504.84)"><path d="m0 0c-0.447-1.316-0.896-2.633-1.343-3.949 0.167-0.058 0.336-0.112 0.505-0.164 0.412 1.328 0.823 2.656 1.235 3.984-0.132 0.041-0.265 0.085-0.397 0.129" fill="#373535"/></g><g transform="translate(128.08 505.18)"><path d="m0 0c-0.529-1.286-1.06-2.571-1.589-3.857 0.164-0.068 0.329-0.132 0.494-0.196 0.494 1.3 0.989 2.6 1.484 3.9-0.131 0.049-0.26 0.1-0.389 0.153" fill="#373535"/></g><g transform="translate(127.2 505.58)"><path d="m0 0c-0.608-1.25-1.217-2.5-1.826-3.75 0.159-0.078 0.319-0.153 0.48-0.227 0.575 1.267 1.15 2.533 1.725 3.798-0.128 0.058-0.253 0.117-0.379 0.179" fill="#373535"/></g><g transform="translate(129.9 504.56)"><path d="m0 0c-0.365-1.343-0.73-2.685-1.093-4.026 0.17-0.046 0.343-0.09 0.514-0.132 0.329 1.35 0.655 2.703 0.982 4.054-0.134 0.033-0.269 0.068-0.403 0.104" fill="#373535"/></g><g transform="translate(130.84 504.34)"><path d="m0 0c-0.279-1.361-0.558-2.724-0.837-4.086 0.174-0.035 0.347-0.069 0.522-0.1l0.726 4.108c-0.138 0.024-0.274 0.051-0.411 0.078" fill="#373535"/></g><g transform="translate(132.43 499.91)"><path d="M 0,0 C 0.177,-0.014 0.354,-0.024 0.53,-0.033 0.599,1.356 0.667,2.745 0.735,4.134 0.597,4.141 0.457,4.149 0.318,4.159 0.212,2.773 0.106,1.387 0,0" fill="#373535"/></g><g transform="translate(131.21 500.04)"><path d="m0 0c0.176-0.025 0.351-0.048 0.527-0.067l0.466 4.145c-0.138 0.017-0.276 0.033-0.414 0.053l-0.579-4.131" fill="#373535"/></g><g transform="translate(118.72 521.5)"><path d="m0 0c-1.377 0.193-2.754 0.386-4.131 0.579-0.025-0.175-0.047-0.35-0.066-0.526l4.144-0.467c0.017 0.139 0.033 0.276 0.053 0.414" fill="#373535"/></g><g transform="translate(118.62 520.54)"><path d="m0 0c-1.387 0.106-2.773 0.212-4.159 0.318-0.014-0.176-0.026-0.353-0.034-0.53 1.388-0.068 2.778-0.137 4.167-0.205 6e-3 0.14 0.015 0.278 0.026 0.417" fill="#373535"/></g><g transform="translate(118.89 522.45)"><path d="m0 0-4.087 0.838c-0.035-0.174-0.069-0.348-0.1-0.523 1.37-0.242 2.739-0.484 4.109-0.725 0.023 0.137 0.05 0.273 0.078 0.41" fill="#373535"/></g><g transform="translate(119.11 523.38)"><path d="m0 0c-1.342 0.364-2.684 0.729-4.026 1.093-0.046-0.171-0.09-0.343-0.132-0.515 1.351-0.327 2.703-0.653 4.054-0.981 0.033 0.134 0.068 0.269 0.104 0.403" fill="#373535"/></g><g transform="translate(120.13 526.09)"><path d="m0 0-3.75 1.827c-0.078-0.159-0.153-0.319-0.227-0.48 1.267-0.576 2.533-1.151 3.799-1.725 0.057 0.127 0.116 0.253 0.178 0.378" fill="#373535"/></g><g transform="translate(119.73 525.21)"><path d="m0 0c-1.285 0.53-2.571 1.06-3.857 1.589-0.068-0.164-0.132-0.328-0.196-0.494 1.3-0.494 2.6-0.989 3.9-1.484 0.049 0.131 0.1 0.26 0.153 0.389" fill="#373535"/></g><g transform="translate(119.39 524.31)"><path d="m0 0-3.949 1.342c-0.057-0.168-0.112-0.335-0.164-0.505 1.328-0.412 2.656-0.823 3.984-1.235 0.041 0.133 0.085 0.265 0.129 0.398" fill="#373535"/></g><g transform="translate(120.58 526.94)"><path d="m0 0c-1.21 0.687-2.419 1.373-3.628 2.06-0.088-0.155-0.173-0.309-0.256-0.466l3.683-1.96c0.065 0.123 0.132 0.245 0.201 0.366" fill="#373535"/></g><g transform="translate(121.08 527.76)"><path d="m0 0c-1.164 0.762-2.328 1.521-3.492 2.283-0.097-0.148-0.192-0.298-0.284-0.449 1.183-0.73 2.368-1.458 3.552-2.188 0.073 0.12 0.148 0.237 0.224 0.354" fill="#373535"/></g><g transform="translate(122.88 530.02)"><path d="m0 0c-1.001 0.965-2.002 1.931-3.002 2.896-0.123-0.126-0.244-0.256-0.363-0.387 1.026-0.938 2.052-1.876 3.079-2.814 0.094 0.103 0.189 0.204 0.286 0.305" fill="#373535"/></g><g transform="translate(122.23 529.31)"><path d="m0 0c-1.059 0.9-2.118 1.802-3.178 2.703-0.114-0.135-0.227-0.271-0.339-0.41 1.084-0.871 2.167-1.743 3.251-2.614 0.087 0.108 0.176 0.215 0.266 0.321" fill="#373535"/></g><g transform="translate(87.697 450.02)"><path d="m0 0c0-1.252-1.016-2.268-2.268-2.268h-13.703c-1.252 0-2.267 1.016-2.267 2.268v5.295c0 1.252 1.015 2.268 2.267 2.268h13.703c1.252 0 2.268-1.016 2.268-2.268z" fill="none" stroke="#373535" stroke-linecap="round" stroke-linejoin="round" stroke-width=".25"/></g><g transform="translate(86.025 450.05)"><path d="m0 0c0-0.513-0.417-0.93-0.929-0.93h-13.15c-0.512 0-0.929 0.417-0.929 0.93v5.165c0 0.513 0.417 0.93 0.929 0.93h13.15c0.512 0 0.929-0.417 0.929-0.93z" fill="none" stroke="#373535" stroke-linecap="round" stroke-linejoin="round" stroke-width=".5"/></g><g transform="translate(85.323 450.22)"><path d="m0 0c0-0.134-0.109-0.244-0.243-0.244h-13.007c-0.134 0-0.243 0.11-0.243 0.244v4.818c0 0.134 0.109 0.245 0.243 0.245h13.007c0.134 0 0.243-0.111 0.243-0.245z" fill="none" stroke="#373535" stroke-linecap="round" stroke-linejoin="round" stroke-width=".25"/></g><g transform="translate(172.66 452.6)"><path d="m0 0c0 4.175-3.385 7.559-7.559 7.559-4.173 0-7.559-3.384-7.559-7.559s3.386-7.558 7.559-7.558c4.174 0 7.559 3.383 7.559 7.558z" fill="none" stroke="#373535" stroke-linecap="round" stroke-linejoin="round" stroke-width=".25"/></g><g transform="translate(171.15 452.6)"><path d="m0 0c0 3.34-2.708 6.047-6.047 6.047s-6.047-2.707-6.047-6.047 2.708-6.046 6.047-6.046 6.047 2.706 6.047 6.046z" fill="none" stroke="#373535" stroke-linecap="round" stroke-linejoin="round" stroke-width=".5"/></g><g transform="translate(169.94 452.6)"><path d="m0 0c0 2.672-2.167 4.838-4.838 4.838s-4.837-2.166-4.837-4.838 2.166-4.837 4.837-4.837 4.838 2.165 4.838 4.837z" fill="none" stroke="#373535" stroke-linecap="round" stroke-linejoin="round" stroke-width=".25"/></g><g transform="translate(78.592 410.45)"><path d="m0 0c-6.686 0-12.125 5.44-12.125 12.125 0 6.688 5.439 12.127 12.125 12.127 6.687 0 12.125-5.439 12.125-12.127 0-6.685-5.438-12.125-12.125-12.125m0 24.987c-7.09 0-12.861-5.769-12.861-12.862 0-7.091 5.771-12.859 12.861-12.859 7.092 0 12.861 5.768 12.861 12.859 0 7.093-5.769 12.862-12.861 12.862" fill="#373535"/></g><g transform="translate(90.088 422.57)"><path d="m0 0c0 6.349-5.146 11.496-11.495 11.496s-11.496-5.147-11.496-11.496 5.147-11.495 11.496-11.495 11.495 5.146 11.495 11.495z" fill="none" stroke="#373535" stroke-linecap="round" stroke-linejoin="round" stroke-width=".25"/></g><g transform="translate(88.138 422.57)"><path d="m0 0c0 5.271-4.273 9.546-9.546 9.546-5.271 0-9.546-4.275-9.546-9.546s4.275-9.545 9.546-9.545c5.273 0 9.546 4.274 9.546 9.545z" fill="none" stroke="#373535" stroke-linecap="round" stroke-linejoin="round" stroke-width=".5"/></g><g transform="translate(87.225 422.57)"><path d="m0 0c0 4.769-3.863 8.633-8.633 8.633-4.768 0-8.633-3.864-8.633-8.633s3.865-8.632 8.633-8.632c4.77 0 8.633 3.863 8.633 8.632z" fill="none" stroke="#373535" stroke-linecap="round" stroke-linejoin="round" stroke-width=".25"/></g><g transform="translate(78.592 382.21)"><path d="m0 0c-6.686 0-12.125 5.439-12.125 12.125 0 6.687 5.439 12.126 12.125 12.126 6.687 0 12.125-5.439 12.125-12.126 0-6.686-5.438-12.125-12.125-12.125m0 24.986c-7.09 0-12.861-5.769-12.861-12.861s5.771-12.86 12.861-12.86c7.092 0 12.861 5.768 12.861 12.86s-5.769 12.861-12.861 12.861" fill="#373535"/></g><g transform="translate(90.088 394.33)"><path d="m0 0c0 6.348-5.146 11.495-11.495 11.495s-11.496-5.147-11.496-11.495c0-6.35 5.147-11.495 11.496-11.495s11.495 5.145 11.495 11.495z" fill="none" stroke="#373535" stroke-linecap="round" stroke-linejoin="round" stroke-width=".25"/></g><g transform="translate(88.138 394.33)"><path d="m0 0c0 5.271-4.273 9.545-9.546 9.545-5.271 0-9.546-4.274-9.546-9.545 0-5.272 4.275-9.545 9.546-9.545 5.273 0 9.546 4.273 9.546 9.545z" fill="none" stroke="#373535" stroke-linecap="round" stroke-linejoin="round" stroke-width=".5"/></g><g transform="translate(87.225 394.33)"><path d="m0 0c0 4.768-3.863 8.632-8.633 8.632-4.768 0-8.633-3.864-8.633-8.632 0-4.77 3.865-8.633 8.633-8.633 4.77 0 8.633 3.863 8.633 8.633z" fill="none" stroke="#373535" stroke-linecap="round" stroke-linejoin="round" stroke-width=".25"/></g><g transform="translate(177.75 564.76)"><path d="m0 0 0.405 0.891-0.873-0.444" fill="#373535"/></g><g transform="translate(180.03 563.46)"><path d="m0 0c0.094 0.091 0.132 0.18 0.116 0.271-0.012 0.073-0.058 0.148-0.144 0.237l-0.45 0.462-0.49-0.478 0.454-0.467c0.087-0.089 0.175-0.137 0.26-0.142 0.082-4e-3 0.171 0.035 0.254 0.117" fill="#373535"/></g><g transform="translate(184.6 556.97)"><path d="m0 0-0.796-0.596-0.256 0.342 0.795 0.597-0.536 0.718 0.343 0.256 0.536-0.717 0.796 0.595 0.257-0.342-0.796-0.596 0.536-0.717-0.342-0.257zm-2.696 1.835 0.816 0.682-0.655 0.785-0.817-0.683-0.298 0.358 0.02 0.016 1.831 1.529 0.299-0.357-0.721-0.601 0.656-0.785 0.72 0.602 0.298-0.357-0.019-0.017-1.832-1.529zm-1.869 2.083c-0.231 0.255-0.331 0.559-0.292 0.879 0.036 0.301 0.197 0.594 0.453 0.824 0.254 0.23 0.561 0.36 0.864 0.366 9e-3 1e-3 0.017 1e-3 0.025 1e-3 0.315 0 0.599-0.131 0.823-0.379 0.383-0.424 0.412-0.942 0.073-1.319l-0.02-0.021-0.31 0.343 0.011 0.017c0.171 0.256 0.157 0.499-0.043 0.719-0.342 0.379-0.812 0.198-1.111-0.072-0.176-0.159-0.296-0.345-0.339-0.527-0.049-0.211 2e-3 -0.402 0.155-0.57 0.214-0.238 0.523-0.249 0.827-0.03l0.018 0.014 0.305-0.337-0.021-0.017c-0.208-0.164-0.44-0.246-0.666-0.246-0.273 0-0.54 0.119-0.752 0.355m-0.8 1.031-3e-3 -0.06-0.042 0.044c-0.104 0.105-0.206 0.212-0.309 0.316l-0.01 0.011 3e-3 0.014c0.032 0.123 0.127 0.217 0.211 0.299 0.33 0.321 0.358 0.492 0.121 0.736-0.135 0.138-0.27 0.278-0.406 0.417l-0.696-0.678-0.325 0.333 1.728 1.682 0.805-0.826c0.182-0.186 0.281-0.373 0.294-0.552 0.013-0.177-0.057-0.341-0.208-0.489-0.259-0.251-0.505-0.228-0.659-0.17 0.073-0.146 0.062-0.355-0.157-0.568-0.211-0.207-0.341-0.397-0.347-0.509m-1.914 1.88 0.271 0.606-0.654 0.625-0.592-0.299-0.349 0.333 0.036 0.016 2.3 1.09 0.343-0.329-6e-3 -0.017-0.987-2.37zm-1.394 1.326-1.306 1.163 1.604 1.803 0.02-0.017 1.289-1.148-0.273-0.306-0.96 0.855-0.376-0.422 0.888-0.792-0.259-0.291-0.888 0.791-0.424-0.477 0.977-0.871-0.271-0.305zm-2.293 1.922c-0.48 0.4-0.562 0.892-0.222 1.317l0.017 0.02 0.359-0.299-0.016-0.019c-0.278-0.333 0-0.625 0.132-0.737 0.122-0.1 0.242-0.154 0.349-0.154h3e-3c0.088 1e-3 0.168 0.038 0.224 0.106 0.114 0.137 0.074 0.248 0.034 0.319-0.059 0.101-0.136 0.209-0.235 0.347-0.054 0.073-0.114 0.157-0.18 0.252-0.27 0.376-0.158 0.658-0.018 0.828 0.318 0.38 0.817 0.258 1.146-0.016 0.196-0.163 0.329-0.366 0.376-0.57 0.051-0.226-4e-3 -0.443-0.159-0.628l-0.017-0.02-0.356 0.297 0.014 0.021c0.154 0.215 0.115 0.415-0.12 0.61-0.074 0.062-0.326 0.246-0.493 0.045-0.09-0.107-0.083-0.226 0.023-0.383 3e-3 -6e-3 0.021-0.03 0.046-0.066 0.099-0.138 0.305-0.426 0.361-0.51v-1e-3c0.165-0.256 0.152-0.565-0.034-0.788-0.157-0.188-0.344-0.261-0.534-0.261-0.251 0-0.505 0.128-0.7 0.29m-1.159 2.262-1.752 1.309 0.271 0.364 1.752-1.311zm14.968-17.144-0.716-0.439c-0.47 0.765-0.956 1.519-1.458 2.264-2e-3 2e-3 -5e-3 4e-3 -6e-3 8e-3 0.376 0.602 0.752 1.203 1.128 1.806 0.458 0.732 0.421 1.67-0.095 2.363-3.891 5.254-8.322 9.684-13.576 13.577-0.693 0.514-1.632 0.552-2.364 0.095-0.602-0.377-1.203-0.753-1.805-1.129l-9e-3 6e-3c-0.743 0.501-1.498 0.988-2.262 1.458 0.146 0.238 0.293 0.477 0.438 0.716-1.242 0.229-2.486 0.46-3.727 0.691 10.651-5.723 19.421-14.493 25.144-25.144-0.23 1.242-0.462 2.485-0.692 3.728" fill="#373535"/></g><g transform="translate(172.72 571.75)"><path d="m0 0 2e-3 -2e-3h2e-3" fill="#373535"/></g><path d="m146.4 452.35h8.514v0.524h-8.514z" fill="#373535"/><g transform="translate(142.68 451.64)"><path d="m0 0c-0.548 0-0.777 0.484-0.777 0.976 0 0.491 0.229 0.974 0.777 0.974 0.374 0 0.563-0.212 0.639-0.509h0.448c-0.058 0.552-0.506 0.875-1.087 0.875-0.764 0-1.226-0.613-1.226-1.34 0-0.736 0.462-1.342 1.226-1.342 0.621 0 1.051 0.424 1.091 1.036h-0.439c-0.039-0.372-0.251-0.67-0.652-0.67" fill="#373535"/></g><g transform="translate(140.64 452.01)"><path d="m0 0h-8e-3l-1.168 1.886h-0.473v-2.56h0.426v1.882h0.011l1.165-1.882h0.474v2.56h-0.427" fill="#373535"/></g><g transform="translate(137.59 452.75)"><path d="m0 0-0.678 1.146h-0.519l0.961-1.555v-1.004h0.448v1.004l0.956 1.555h-0.5" fill="#373535"/></g><g transform="translate(135.79 452.73)"><path d="m0 0c-0.132 0.039-0.699 0.187-0.738 0.197-0.183 0.054-0.305 0.148-0.305 0.33 0 0.258 0.262 0.333 0.47 0.333 0.311 0 0.527-0.122 0.552-0.451h0.448c0 0.534-0.451 0.818-0.982 0.818-0.464 0-0.936-0.238-0.936-0.753 0-0.266 0.126-0.536 0.566-0.65 0.356-0.096 0.581-0.143 0.764-0.212 0.104-0.039 0.212-0.118 0.212-0.314 0-0.191-0.148-0.388-0.541-0.388-0.36 0-0.65 0.157-0.65 0.549h-0.448c0.011-0.635 0.484-0.915 1.068-0.915 0.506 0 1.019 0.229 1.019 0.804 0 0.272-0.165 0.548-0.499 0.652" fill="#373535"/></g><g transform="translate(130.99 453.51)"><path d="m0 0h0.811v-2.173h0.448v2.173h0.813v0.387h-2.072" fill="#373535"/></g><g transform="translate(129.37 452.35)"><path d="m0 0 0.388 1.102h0.01l0.384-1.102zm0.158 1.542-0.982-2.56h0.463l0.24 0.678h1.021l0.241-0.678h0.48l-0.986 2.56" fill="#373535"/></g><g transform="translate(127.03 452.47)"><path d="m0 0h1.291v0.365h-1.291v0.671h1.396v0.387h-1.843v-2.56h1.867v0.387h-1.42" fill="#373535"/></g><g transform="translate(125.3 451.7)"><path d="m0 0h-0.792v0.8h0.792c0.272 0 0.431-0.14 0.431-0.395 0-0.258-0.159-0.405-0.431-0.405m-0.792 1.829h0.731c0.244 0 0.376-0.094 0.376-0.351 0-0.23-0.161-0.355-0.376-0.355h-0.731zm1.19-0.821v7e-3c0.233 0.1 0.366 0.287 0.366 0.545 0 0.426-0.301 0.634-0.76 0.634h-1.244v-2.559h1.176c0.663 0 0.943 0.311 0.943 0.713 0 0.348-0.166 0.591-0.481 0.66" fill="#373535"/></g><g transform="translate(115.97 436.24)"><path d="m0 0h-0.672v0.867h0.68c0.242 0 0.452-0.089 0.452-0.433 0-0.331-0.254-0.434-0.46-0.434m0.025 1.241h-1.156v-2.622h0.459v1.006h0.697c0.75 0 0.893 0.478 0.893 0.805s-0.143 0.811-0.893 0.811" fill="#373535"/></g><g transform="translate(117.74 436.02)"><path d="m0 0h1.322v0.374h-1.322v0.688h1.429v0.396h-1.888v-2.622h1.914v0.395h-1.455" fill="#373535"/></g><g transform="translate(120.81 436.29)"><path d="m0 0h-0.753v0.819h0.746c0.238 0 0.455-0.062 0.455-0.4 0-0.279-0.154-0.419-0.448-0.419m0.474-0.184v7e-3c0.089 0.03 0.433 0.158 0.433 0.661 0 0.445-0.29 0.709-0.866 0.709h-1.253v-2.622h0.459v1.079h0.677c0.422 0 0.52-0.213 0.52-0.693 0-0.129 0-0.271 0.071-0.386h0.492c-0.1 0.107-0.144 0.382-0.144 0.691 0 0.411-0.231 0.536-0.389 0.554" fill="#373535"/></g><g transform="translate(122.19 434.86)"><path d="m0 0h0.459v1.164h1.187v0.374h-1.187v0.688h1.353v0.396h-1.812" fill="#373535"/></g><g transform="translate(125.48 435.17)"><path d="m0 0c-0.563 0-0.798 0.496-0.798 0.999 0 0.504 0.235 0.999 0.798 0.999 0.562 0 0.796-0.495 0.796-0.999 0-0.503-0.234-0.999-0.796-0.999m0 2.373c-0.783 0-1.257-0.628-1.257-1.374 0-0.753 0.474-1.373 1.257-1.373 0.781 0 1.255 0.62 1.255 1.373 0 0.746-0.474 1.374-1.255 1.374" fill="#373535"/></g><g transform="translate(128.37 436.29)"><path d="m0 0h-0.754v0.819h0.746c0.239 0 0.456-0.062 0.456-0.4 0-0.279-0.155-0.419-0.448-0.419m0.474-0.184v7e-3c0.088 0.03 0.433 0.158 0.433 0.661 0 0.445-0.29 0.709-0.867 0.709h-1.253v-2.622h0.459v1.079h0.677c0.422 0 0.521-0.213 0.521-0.693 0-0.129 0-0.271 0.07-0.386h0.492c-0.099 0.107-0.143 0.382-0.143 0.691 0 0.411-0.231 0.536-0.389 0.554" fill="#373535"/></g><g transform="translate(131.11 435.43)"><path d="m0 0h-8e-3l-0.723 2.053h-0.647v-2.622h0.438v2.023h6e-3l0.728-2.023h0.379l0.726 2.023h8e-3v-2.023h0.438v2.622h-0.64" fill="#373535"/></g><g transform="translate(133.55 435.9)"><path d="m0 0 0.396 1.127h0.011l0.394-1.127zm0.162 1.579-1.007-2.622h0.474l0.246 0.693h1.047l0.246-0.693h0.492l-1.01 2.622" fill="#373535"/></g><g transform="translate(137.13 435.55)"><path d="m0 0h-8e-3l-1.197 1.932h-0.485v-2.622h0.437v1.927h0.011l1.194-1.927h0.485v2.622h-0.437" fill="#373535"/></g><g transform="translate(139.23 435.17)"><path d="m0 0c-0.563 0-0.797 0.496-0.797 0.999 0 0.504 0.234 0.999 0.797 0.999 0.382 0 0.577-0.216 0.654-0.521h0.459c-0.058 0.566-0.517 0.896-1.113 0.896-0.781 0-1.256-0.628-1.256-1.374 0-0.753 0.475-1.373 1.256-1.373 0.636 0 1.076 0.433 1.116 1.061h-0.447c-0.041-0.382-0.258-0.687-0.669-0.687" fill="#373535"/></g><g transform="translate(141.22 436.02)"><path d="m0 0h1.322v0.374h-1.322v0.688h1.429v0.396h-1.889v-2.622h1.914v0.395h-1.454" fill="#373535"/></g><g transform="translate(145.23 436.24)"><path d="m0 0h-0.673v0.867h0.681c0.242 0 0.451-0.089 0.451-0.433 0-0.331-0.253-0.434-0.459-0.434m0.025 1.241h-1.157v-2.622h0.459v1.006h0.698c0.75 0 0.893 0.478 0.893 0.805s-0.143 0.811-0.893 0.811" fill="#373535"/></g><g transform="translate(147.09 435.9)"><path d="m0 0 0.397 1.127h0.011l0.393-1.127zm0.162 1.579-1.007-2.622h0.474l0.247 0.693h1.047l0.246-0.693h0.492l-1.011 2.622" fill="#373535"/></g><g transform="translate(149.91 435.23)"><path d="m0 0h-0.452v1.874h0.452c0.72 0 0.874-0.408 0.874-0.937s-0.154-0.937-0.874-0.937m0.176 2.248h-1.087v-2.622h1.087c0.808 0 1.156 0.587 1.156 1.311s-0.348 1.311-1.156 1.311" fill="#373535"/></g><g transform="translate(153.12 436.29)"><path d="m0 0c-0.136 0.04-0.716 0.19-0.756 0.202-0.187 0.055-0.312 0.151-0.312 0.338 0 0.265 0.268 0.341 0.481 0.341 0.319 0 0.539-0.124 0.566-0.462h0.459c0 0.547-0.463 0.837-1.006 0.837-0.475 0-0.959-0.242-0.959-0.772 0-0.271 0.128-0.547 0.58-0.665 0.364-0.098 0.595-0.146 0.782-0.215 0.106-0.042 0.217-0.123 0.217-0.325 0-0.193-0.151-0.396-0.555-0.396-0.367 0-0.665 0.162-0.665 0.562h-0.459c0.012-0.649 0.496-0.936 1.095-0.936 0.518 0 1.044 0.235 1.044 0.822 0 0.279-0.169 0.563-0.512 0.669" fill="#373535"/></g><g transform="translate(113.16 435.8)"><path d="m0 0v0.734h-19.549c-0.26 0-0.367-0.107-0.367-0.367s0.107-0.367 0.367-0.367h19.549v0.104" fill="#373535"/></g><g transform="translate(155.1 435.9)" fill="#373535"><path d="m0 0v-0.104h19.131c0.266 0 0.374 0.111 0.367 0.375-5e-3 0.254-0.111 0.359-0.367 0.359h-19.131v-0.734"/><path d="m0 0v-0.104h19.131c0.266 0 0.374 0.111 0.367 0.375-5e-3 0.254-0.111 0.359-0.367 0.359h-19.131v-0.734"/></g><path d="m77.483 416.54h0.375v1.576h-0.375z" fill="#373535"/><g transform="translate(79.814 416.54)"><path d="m0 0v1.576l-1.956-0.788" fill="#373535"/></g><path d="m95.915 413.76h13.648v13.647h-13.648zm20.859 0h13.648v13.647h-13.648zm20.861 0h13.647v13.647h-13.647zm20.858 0h13.648v13.647h-13.648zm-62.578-26.287h13.648v13.647h-13.648zm20.859 0h13.648v13.647h-13.648zm20.861 0h13.647v13.647h-13.647zm20.858 0h13.648v13.647h-13.648z" fill="none" stroke="#373535" stroke-miterlimit="10" stroke-width=".5"/><g transform="translate(178.29 449.76)"><path d="m0 0c0.223 0 0.314 0.092 0.314 0.314 0 0.223-0.091 0.315-0.314 0.315s-0.315-0.092-0.315-0.315c0-0.222 0.092-0.314 0.315-0.314" fill="#373535"/></g><g transform="translate(178.29 451.86)"><path d="m0 0c0.223 0 0.314 0.093 0.314 0.315 0 0.223-0.091 0.315-0.314 0.315s-0.315-0.092-0.315-0.315c0-0.222 0.092-0.315 0.315-0.315" fill="#373535"/></g><g transform="translate(178.29 453.96)"><path d="m0 0c0.223 0 0.314 0.092 0.314 0.314 0 0.223-0.091 0.315-0.314 0.315s-0.315-0.092-0.315-0.315c0-0.222 0.092-0.314 0.315-0.314" fill="#373535"/></g><g transform="translate(178.29 447.66)"><path d="m0 0c0.223 0 0.314 0.094 0.314 0.316s-0.091 0.314-0.314 0.314-0.315-0.092-0.315-0.314 0.092-0.316 0.315-0.316" fill="#373535"/></g><g transform="translate(178.29 439.27)"><path d="m0 0c0.223 0 0.314 0.092 0.314 0.314 0 0.223-0.091 0.315-0.314 0.315s-0.315-0.092-0.315-0.315c0-0.222 0.092-0.314 0.315-0.314" fill="#373535"/></g><g transform="translate(178.29 441.36)"><path d="m0 0c0.223 0 0.314 0.092 0.314 0.314 0 0.223-0.091 0.315-0.314 0.315s-0.315-0.092-0.315-0.315c0-0.222 0.092-0.314 0.315-0.314" fill="#373535"/></g><g transform="translate(178.29 443.46)"><path d="m0 0c0.223 0 0.314 0.092 0.314 0.314 0 0.223-0.091 0.315-0.314 0.315s-0.315-0.092-0.315-0.315c0-0.222 0.092-0.314 0.315-0.314" fill="#373535"/></g><g transform="translate(178.29 445.56)"><path d="m0 0c0.223 0 0.314 0.092 0.314 0.314 0 0.223-0.091 0.315-0.314 0.315s-0.315-0.092-0.315-0.315c0-0.222 0.092-0.314 0.315-0.314" fill="#373535"/></g><g transform="translate(178.29 437.17)"><path d="m0 0c0.223 0 0.314 0.092 0.314 0.314 0 0.223-0.091 0.315-0.314 0.315s-0.315-0.092-0.315-0.315c0-0.222 0.092-0.314 0.315-0.314" fill="#373535"/></g><g transform="translate(178.29 430.87)"><path d="m0 0c0.223 0 0.314 0.092 0.314 0.314 0 0.223-0.091 0.315-0.314 0.315s-0.315-0.092-0.315-0.315c0-0.222 0.092-0.314 0.315-0.314" fill="#373535"/></g><g transform="translate(201.14 418.44)"><path d="m0 0c0-0.782-0.635-1.417-1.417-1.417h-15.002c-0.782 0-1.417 0.635-1.417 1.417v17.083c0 0.782 0.635 1.417 1.417 1.417h15.002c0.782 0 1.417-0.635 1.417-1.417" fill="#fff"/><path d="m0 0c0-0.782-0.635-1.417-1.417-1.417h-15.002c-0.782 0-1.417 0.635-1.417 1.417v17.083c0 0.782 0.635 1.417 1.417 1.417h15.002c0.782 0 1.417-0.635 1.417-1.417z" fill="none" stroke="#373535" stroke-linecap="round" stroke-linejoin="round" stroke-width=".5"/></g><g transform="translate(178.29 432.97)"><path d="m0 0c0.223 0 0.314 0.092 0.314 0.314 0 0.223-0.091 0.315-0.314 0.315s-0.315-0.092-0.315-0.315c0-0.222 0.092-0.314 0.315-0.314" fill="#373535"/></g><g transform="translate(178.29 435.07)"><path d="m0 0c0.223 0 0.314 0.092 0.314 0.314s-0.091 0.314-0.314 0.314-0.315-0.092-0.315-0.314 0.092-0.314 0.315-0.314" fill="#373535"/></g><g transform="translate(178.29 418.9)"><path d="m0 0c-0.223 0-0.315-0.092-0.315-0.314 0-0.223 0.092-0.315 0.315-0.315s0.314 0.092 0.314 0.315c0 0.222-0.091 0.314-0.314 0.314" fill="#373535"/></g><g transform="translate(178.29 421)"><path d="m0 0c-0.223 0-0.315-0.092-0.315-0.314 0-0.223 0.092-0.315 0.315-0.315s0.314 0.092 0.314 0.315c0 0.222-0.091 0.314-0.314 0.314" fill="#373535"/></g><g transform="translate(178.29 423.1)"><path d="m0 0c-0.223 0-0.315-0.092-0.315-0.314s0.092-0.314 0.315-0.314 0.314 0.092 0.314 0.314-0.091 0.314-0.314 0.314" fill="#373535"/></g><g transform="translate(178.29 416.8)"><path d="m0 0c-0.223 0-0.315-0.092-0.315-0.314 0-0.223 0.092-0.315 0.315-0.315s0.314 0.092 0.314 0.315c0 0.222-0.091 0.314-0.314 0.314" fill="#373535"/></g><g transform="translate(178.29 406.3)"><path d="m0 0c-0.223 0-0.315-0.092-0.315-0.314 0-0.223 0.092-0.315 0.315-0.315s0.314 0.092 0.314 0.315c0 0.222-0.091 0.314-0.314 0.314" fill="#373535"/></g><path d="m176.98 458.22h2.616v0.525h-2.616z" fill="#373535"/><g transform="translate(178.55 396.8)"><path d="m0 0h-0.522v-1.052h-1.047v-0.522h1.047v-1.05h0.522v1.05h1.047v0.522h-1.047" fill="#373535"/></g><g transform="translate(177.91 427.67)"><path d="m0 0c0.069 0.187 0.193 0.283 0.373 0.291 0.179-8e-3 0.304-0.104 0.372-0.291s0.1-0.416 0.097-0.689c3e-3 -0.274-0.029-0.503-0.097-0.69-0.068-0.186-0.193-0.283-0.372-0.291-0.18 8e-3 -0.304 0.105-0.373 0.291-0.067 0.187-0.1 0.416-0.097 0.69-3e-3 0.273 0.03 0.502 0.097 0.689m-0.346 0.191c-0.12-0.279-0.175-0.572-0.167-0.88-8e-3 -0.309 0.047-0.603 0.167-0.881 0.12-0.279 0.36-0.427 0.719-0.446 0.358 0.019 0.598 0.167 0.718 0.446 0.121 0.278 0.176 0.572 0.167 0.881 9e-3 0.308-0.046 0.601-0.167 0.88-0.12 0.279-0.36 0.427-0.718 0.447-0.359-0.02-0.599-0.168-0.719-0.447" fill="#373535"/></g><g transform="translate(178.29 400)"><path d="m0 0c-0.223 0-0.315-0.092-0.315-0.314 0-0.223 0.092-0.316 0.315-0.316s0.314 0.093 0.314 0.316c0 0.222-0.091 0.314-0.314 0.314" fill="#373535"/></g><g transform="translate(178.29 402.1)"><path d="m0 0c-0.223 0-0.315-0.092-0.315-0.314 0-0.223 0.092-0.315 0.315-0.315s0.314 0.092 0.314 0.315c0 0.222-0.091 0.314-0.314 0.314" fill="#373535"/></g><g transform="translate(178.29 404.2)"><path d="m0 0c-0.223 0-0.315-0.092-0.315-0.314 0-0.223 0.092-0.315 0.315-0.315s0.314 0.092 0.314 0.315c0 0.222-0.091 0.314-0.314 0.314" fill="#373535"/></g><g transform="translate(178.29 414.7)"><path d="m0 0c-0.223 0-0.315-0.092-0.315-0.315 0-0.222 0.092-0.315 0.315-0.315s0.314 0.093 0.314 0.315c0 0.223-0.091 0.315-0.314 0.315" fill="#373535"/></g><g transform="translate(178.29 412.6)"><path d="m0 0c-0.223 0-0.315-0.092-0.315-0.315 0-0.222 0.092-0.315 0.315-0.315s0.314 0.093 0.314 0.315c0 0.223-0.091 0.315-0.314 0.315" fill="#373535"/></g><g transform="translate(178.29 410.5)"><path d="m0 0c-0.223 0-0.315-0.092-0.315-0.314s0.092-0.314 0.315-0.314 0.314 0.092 0.314 0.314-0.091 0.314-0.314 0.314" fill="#373535"/></g><g transform="translate(178.29 408.4)"><path d="m0 0c-0.223 0-0.315-0.092-0.315-0.315 0-0.222 0.092-0.315 0.315-0.315s0.314 0.093 0.314 0.315c0 0.223-0.091 0.315-0.314 0.315" fill="#373535"/></g><g transform="translate(183.4 419.16)"><path d="m0 0s0.084 3.864 0.423 4.485l0.423 0.141v6.393l-0.423 0.14c-0.339 0.621-0.423 4.488-0.423 4.488" fill="none" stroke="#373535" stroke-linecap="round" stroke-linejoin="round" stroke-width=".25"/></g><g transform="translate(199.72 430.74)"><path d="m0 0c0.563 0.169 0.564 0.564 0.564 0.564l0.283 4.007s-0.168 1.128-1.157 1.128h-14.382c-0.989 0-1.157-1.128-1.157-1.128l0.283-4.007s1e-3 -0.395 0.564-0.564" fill="none" stroke="#373535" stroke-linecap="round" stroke-linejoin="round" stroke-width=".25"/></g><g transform="translate(200.2 430.18)"><path d="m0 0s-0.058 0.632-0.854 0.632h-14.254c-0.797 0-0.855-0.632-0.855-0.632" fill="none" stroke="#373535" stroke-linecap="round" stroke-linejoin="round" stroke-width=".25"/></g><g transform="translate(199.72 423.22)"><path d="m0 0c0.563-0.169 0.564-0.563 0.564-0.563l0.283-4.007s-0.168-1.129-1.157-1.129h-14.382c-0.989 0-1.157 1.129-1.157 1.129l0.283 4.007s1e-3 0.394 0.564 0.563" fill="none" stroke="#373535" stroke-linecap="round" stroke-linejoin="round" stroke-width=".25"/></g><g transform="translate(201.05 419.16)"><path d="m0 0s-0.084 3.864-0.423 4.485l-0.423 0.141v6.393l0.423 0.14c0.339 0.621 0.423 4.488 0.423 4.488" fill="none" stroke="#373535" stroke-linecap="round" stroke-linejoin="round" stroke-width=".25"/></g><g transform="translate(200.2 423.79)"><path d="m0 0s-0.058-0.632-0.854-0.632h-14.254c-0.797 0-0.855 0.632-0.855 0.632" fill="none" stroke="#373535" stroke-linecap="round" stroke-linejoin="round" stroke-width=".25"/></g><g transform="translate(191.83 387.37)"><path d="m0 0h-9e-3l-0.72 2.039h-0.641v-2.604h0.432v2.008h7e-3l0.725-2.008h0.377l0.725 2.008h7e-3v-2.008h0.433v2.604h-0.635" fill="#373535"/></g><g transform="translate(185.78 389.01)"><path d="m0 0h0.825v-2.209h0.448v2.209h0.83v0.396h-2.103" fill="#373535"/></g><g transform="translate(188.64 387.96)"><path d="m0 0h1.313v0.365h-1.313v0.69h1.419v0.395h-1.868v-2.602h1.893v0.396h-1.444" fill="#373535"/></g><g transform="translate(197.85 387.41)"><path d="m0 0c-0.127-0.198-0.329-0.302-0.608-0.313-0.279 0.011-0.481 0.115-0.608 0.313s-0.189 0.429-0.187 0.691c-2e-3 0.264 0.06 0.495 0.187 0.693s0.329 0.302 0.608 0.312c0.279-0.01 0.481-0.114 0.608-0.312s0.189-0.429 0.188-0.693c1e-3 -0.262-0.061-0.493-0.188-0.691m-0.608 2.062c-0.395-0.01-0.701-0.144-0.916-0.403-0.216-0.259-0.326-0.581-0.329-0.968 3e-3 -0.385 0.113-0.708 0.329-0.966 0.215-0.258 0.521-0.393 0.916-0.403 0.395 0.01 0.7 0.145 0.917 0.403 0.215 0.258 0.325 0.581 0.328 0.966-3e-3 0.387-0.113 0.709-0.328 0.968-0.217 0.259-0.522 0.393-0.917 0.403" fill="#373535"/></g><g transform="translate(195.14 388.26)"><path d="m0 0c-0.094-0.064-0.195-0.096-0.304-0.093h-0.667v0.872h0.674c0.125 3e-3 0.229-0.026 0.315-0.089 0.085-0.061 0.129-0.176 0.134-0.346-6e-3 -0.165-0.057-0.279-0.152-0.344m-0.278 1.145h-1.142v-2.607h0.449v1.004h0.693c0.36 0.011 0.598 0.103 0.716 0.275 0.119 0.172 0.172 0.346 0.163 0.522 9e-3 0.178-0.044 0.353-0.163 0.526-0.118 0.173-0.356 0.266-0.716 0.28" fill="#373535"/></g><g transform="translate(77.356 424)"><path d="m0 0h0.502v-1.668c-0.013-0.203 0.018-0.39 0.092-0.56 0.074-0.169 0.266-0.26 0.577-0.271 0.31 0.011 0.504 0.102 0.578 0.271 0.074 0.17 0.105 0.357 0.093 0.56v1.668h0.5v-1.832c-4e-3 -0.366-0.112-0.64-0.322-0.82-0.209-0.181-0.493-0.271-0.849-0.271s-0.639 0.09-0.849 0.271c-0.209 0.18-0.316 0.454-0.322 0.82" fill="#373535"/></g><g transform="translate(74.719 421.52)"><path d="m0 0c-0.239 0.279-0.361 0.629-0.365 1.047 4e-3 0.418 0.126 0.77 0.365 1.055 0.239 0.284 0.574 0.431 1.005 0.443 0.33-3e-3 0.605-0.088 0.826-0.256 0.22-0.169 0.349-0.409 0.388-0.721h-0.501c-0.041 0.17-0.118 0.307-0.233 0.411-0.114 0.105-0.274 0.158-0.48 0.161-0.305-0.011-0.526-0.124-0.664-0.34-0.139-0.217-0.207-0.467-0.205-0.753-2e-3 -0.284 0.066-0.532 0.205-0.744 0.138-0.213 0.359-0.324 0.664-0.334 0.224 5e-3 0.395 0.076 0.516 0.214 0.12 0.138 0.191 0.312 0.212 0.522h0.49c-0.028-0.343-0.149-0.617-0.367-0.823-0.216-0.207-0.501-0.313-0.851-0.319-0.431 0.011-0.766 0.157-1.005 0.437" fill="#373535"/></g><g transform="translate(82.37 421.14)"><path d="m0 0h-2.088v2.863h2.061v-0.424h-1.559v-0.756h1.441v-0.406h-1.441v-0.854h1.586" fill="#373535"/></g><g transform="translate(81.013 416.35)"><path d="m0 0c5e-3 -0.06-6e-3 -0.109-0.037-0.161-0.021-0.03-0.044-0.049-0.078-0.062-0.042-0.014-0.083-0.02-0.127-0.019h-4.358c-0.06-6e-3 -0.11 7e-3 -0.162 0.038-0.03 0.021-0.049 0.046-0.061 0.08-0.014 0.041-0.02 0.081-0.019 0.124v1.944c-4e-3 0.06 7e-3 0.11 0.038 0.161 0.02 0.031 0.044 0.049 0.078 0.063 0.041 0.014 0.082 0.02 0.126 0.019h4.358c0.059 4e-3 0.109-6e-3 0.161-0.038 0.03-0.019 0.049-0.044 0.061-0.078 0.015-0.042 0.021-0.083 0.02-0.127z" fill="none" stroke="#373535" stroke-miterlimit="10" stroke-width=".25"/></g><path d="m83.349 392.89h-1.136v2.893h1.136zm-1.756 0h-1.137v2.893h1.137zm-3.349 0.068h-0.405l1.291 2.755h0.406zm-4.408-0.068v2.892l3.608-1.446" fill="#373535"/><g transform="translate(83.194 453.42)"><path d="m0 0h-0.729v-2.021h-0.434v2.021h-0.733v0.379h1.896zm-2.191 0.019h-1.242v-0.609h1.052v-0.36h-1.052v-1.071h-0.443v2.4h1.685zm-2.031-2.04h-0.452v2.399h0.452zm-0.794 0h-0.442v1.071h-1.062v-1.071h-0.452v2.4h0.452v-0.969h1.062v0.969h0.442zm-2.21 0.674-8e-3 -0.091-0.01-0.05-0.024-0.077-0.019-0.047-0.046-0.09-0.042-0.062-0.029-0.033-0.066-0.066-0.048-0.038-0.043-0.029-0.055-0.033-0.053-0.023-0.131-0.043-0.178-0.029-0.202-0.013-0.23 9e-3 -0.184 0.033-0.135 0.047-0.105 0.056-0.091 0.071-0.084 0.08-0.071 0.104-0.043 0.08-0.038 0.094-0.024 0.104-0.014 0.104-5e-3 0.131h0.416v-0.078l9e-3 -0.086 0.031-0.098 0.032-0.066 0.052-0.075 0.067-0.053 0.076-0.039 0.108-0.036 0.112-0.018 0.127-9e-3 0.123 4e-3 0.113 0.019 0.104 0.032 0.053 0.026 0.035 0.023 0.021 0.016 0.031 0.032 0.022 0.026 0.029 0.057 0.014 0.039 8e-3 0.047v0.052l-5e-3 0.05-0.013 0.037-0.035 0.067-0.016 0.02-0.036 0.029-0.036 0.028-0.051 0.025-0.074 0.032-0.192 0.064-0.317 0.078-0.25 0.07-0.117 0.041-0.095 0.032-0.088 0.053-0.038 0.029-0.051 0.052-0.028 0.056-0.029 0.081-0.014 0.086-5e-3 0.099 8e-3 0.099 0.02 0.108 0.019 0.053 0.028 0.062 0.043 0.071 0.042 0.058 0.034 0.037 0.028 0.028 0.037 0.033 0.072 0.052 0.085 0.048 0.086 0.033 0.139 0.033 0.117 0.019 0.155 0.01 0.139-5e-3 0.149-0.014 0.145-0.028 0.123-0.052 0.11-0.07 0.094-0.091 0.072-0.104 0.053-0.129 0.02-0.109 0.014-0.111v-0.123h-0.383l-5e-3 0.12-0.01 0.081-0.031 0.094-0.047 0.081-0.072 0.057-0.074 0.035-0.088 0.017-0.091 9e-3h-0.164l-0.054-4e-3 -0.058-0.01-0.086-0.022-0.067-0.028-0.034-0.021-0.049-0.04-0.043-0.057-0.021-0.044-0.014-0.035-8e-3 -0.039-5e-3 -0.035v-0.034l5e-3 -0.035 0.013-0.038 0.026-0.041 0.053-0.058 0.044-0.035 0.03-0.017 0.048-0.017 0.133-0.041 0.613-0.157 0.103-0.038 0.095-0.052 0.09-0.065 0.038-0.033 0.029-0.03 0.037-0.047 0.019-0.028 0.039-0.072 0.024-0.066 0.014-0.058 4e-3 -0.062" fill="#373535"/></g><path d="m84.42 450.8h-11.653v3.581h11.653z" fill="none" stroke="#373535" stroke-linecap="round" stroke-linejoin="round" stroke-miterlimit="10" stroke-width=".25"/><g transform="translate(165.1 451.02)"><path d="m0 0c-0.87 0-1.574 0.705-1.574 1.575 0 0.869 0.704 1.575 1.574 1.575s1.574-0.706 1.574-1.575c0-0.87-0.704-1.575-1.574-1.575" fill="#373535"/></g><g transform="translate(185.79 476.02)"><path d="m0 0h0.528v1.044h1.039v0.528h-1.039v1.045h-0.528v-1.045h-1.038v-0.528h1.038" fill="#373535"/></g><g transform="translate(87.411 478.39)"><path d="m0 0c-2.662 2.999-4.982 6.181-7.024 9.632 0.121 0.072 0.241 0.142 0.362 0.214 2.782-4.704 6.044-8.865 9.948-12.69l-4.15 2.077c0.288 0.256 0.576 0.512 0.864 0.767" fill="#373535"/></g><g transform="translate(180.43 478.39)"><path d="m0 0c2.662 2.999 4.982 6.181 7.023 9.632-0.12 0.072-0.241 0.142-0.361 0.214-2.783-4.704-6.044-8.865-9.95-12.69 1.384 0.693 2.767 1.386 4.151 2.077-0.288 0.256-0.576 0.512-0.863 0.767" fill="#373535"/></g><path d="m80.268 477.05h2.865v0.571h-2.865z" fill="#373535"/><g transform="translate(167.66 441.61)"><path d="m0 0h0.453l-0.223 0.956" fill="#373535"/></g><g transform="translate(166.36 442.62)"><path d="m0 0h-0.267v-0.642h0.25c0.201 0 0.315 0.118 0.315 0.322 0 0.218-0.095 0.32-0.298 0.32" fill="#373535"/></g><g transform="translate(164.09 442.66)"><path d="m0 0c-0.176 0-0.339-0.097-0.339-0.799 0-0.718 0.163-0.816 0.339-0.816 0.175 0 0.338 0.098 0.338 0.816 0 0.702-0.163 0.799-0.338 0.799" fill="#373535"/></g><g transform="translate(162.56 442.62)"><path d="m0 0h-0.196v-0.685h0.219c0.119 0 0.316 0.044 0.316 0.341 0 0.239-0.105 0.344-0.339 0.344" fill="#373535"/></g><g transform="translate(173.14 440.82)"><path d="m0 0h-1.161v2.083h1.139v-0.303h-0.785v-0.544h0.738v-0.302h-0.738v-0.631h0.807zm-1.417 0h-0.274v0.208c-0.095-0.178-0.222-0.248-0.442-0.248-0.443 0-0.624 0.313-0.624 1.082 0 0.748 0.215 1.082 0.696 1.082 0.585 0 0.616-0.506 0.616-0.606v-0.051h-0.338v0.061c0 0.097-0.028 0.322-0.276 0.322-0.217 0-0.343-0.131-0.343-0.799 0-0.684 0.117-0.817 0.318-0.817 2e-3 -1e-3 4e-3 -1e-3 6e-3 -1e-3 0.086 0 0.15 0.024 0.199 0.072 0.085 0.084 0.123 0.248 0.125 0.531h-0.347v0.273h0.684zm-1.604 0h-0.423l-3e-3 9e-3 -0.576 1.52v-1.529h-0.338v2.083h0.422l3e-3 -8e-3 0.578-1.482v1.49h0.337zm-1.824 0-0.128 0.504h-0.581l-0.133-0.504h-0.744l-5e-3 5e-3c-0.029 0.036-0.046 0.092-0.056 0.188-8e-3 0.08-0.01 0.159-0.011 0.242-1e-3 0.045-2e-3 0.094-4e-3 0.148-7e-3 0.23-0.081 0.311-0.287 0.311h-0.255v-0.894h-0.354v2.083h0.739c0.199 0 0.534-0.07 0.534-0.543 0-0.261-0.113-0.449-0.3-0.505 0.186-0.037 0.27-0.168 0.28-0.425l2e-3 -0.059c2e-3 -0.118 4e-3 -0.252 0.01-0.359 5e-3 -0.097 0.052-0.14 0.089-0.166l0.585 2.057h0.441l2e-3 -0.01 0.545-2.073zm-4.207-0.04c-0.478 0-0.692 0.333-0.692 1.082 0 0.748 0.214 1.082 0.692 1.082 0.479 0 0.693-0.334 0.693-1.082 0-0.749-0.214-1.082-0.693-1.082m-1.454 0.89h-0.274v-0.85h-0.356v2.083h0.664c0.145 0 0.256-0.043 0.349-0.107 3e-3 -2e-3 5e-3 -3e-3 7e-3 -5e-3 0.14-0.102 0.225-0.266 0.225-0.5 0-0.389-0.229-0.621-0.615-0.621m-0.943-0.85h-0.337v1.639l-0.398-1.639h-0.296l-4e-3 0.01-0.395 1.629v-1.639h-0.337v2.083h0.536l2e-3 -0.01 0.355-1.482 0.349 1.492h0.525zm-1.991 0h-1.162v2.083h1.139v-0.303h-0.784v-0.544h0.737v-0.302h-0.737v-0.631h0.807zm-1.323 1.78h-0.48v-1.78h-0.355v1.78h-0.49v0.303h1.325zm15.239 0.869h-17.04c-0.148 0-0.209-0.061-0.209-0.21v-2.73c0-0.148 0.061-0.21 0.209-0.21h17.04c0.148 0 0.211 0.062 0.211 0.21v2.73c0 0.149-0.063 0.21-0.211 0.21" fill="#373535"/></g></g></g><g transform="translate(-9.7736 67.525)"><path transform="scale(1,-1)" d="m77.493-385.23a7.7557 7.7557 0 0 1-7.7557 7.7556 7.7557 7.7557 0 0 1-7.7557-7.7556 7.7557 7.7557 0 0 1 7.7557-7.7556 7.7557 7.7557 0 0 1 7.7557 7.7556z"/><g transform="scale(1,-1)" aria-label="2"><path d="m73.13-379.61h-6.8839v-1.0243l2.7578-2.7722q1.2607-1.275 1.6619-1.8195t0.60171-1.0602q0.20057-0.51575 0.20057-1.1103 0-0.8381-0.50859-1.3252-0.50859-0.49426-1.4112-0.49426-0.65185 0-1.2392 0.2149-0.58022 0.21489-1.2965 0.78079l-0.63036-0.80945q1.447-1.2034 3.1518-1.2034 1.4756 0 2.3137 0.7593 0.8381 0.75214 0.8381 2.0272 0 0.99569-0.55873 1.9699-0.55873 0.9742-2.0917 2.4642l-2.2922 2.2421v0.0573h5.3868z" fill="#fff"/></g></g><g transform="translate(64.043 22.811)"><path transform="scale(1,-1)" d="m77.493-385.23a7.7557 7.7557 0 0 1-7.7557 7.7556 7.7557 7.7557 0 0 1-7.7557-7.7556 7.7557 7.7557 0 0 1 7.7557-7.7556 7.7557 7.7557 0 0 1 7.7557 7.7556z"/><g transform="scale(1,-1)" aria-label="3"><path d="m72.736-387.62q0 1.0028-0.5659 1.6404-0.55873 0.63753-1.5902 0.85243v0.0573q1.2607 0.15759 1.8696 0.80228t0.60888 1.6905q0 1.4971-1.0387 2.3066-1.0387 0.80228-2.9513 0.80228-0.83094 0-1.5258-0.12894-0.68767-0.12177-1.3395-0.43696v-1.1318q0.68051 0.33667 1.447 0.51576 0.77363 0.17191 1.4613 0.17191 2.7149 0 2.7149-2.1275 0-1.9054-2.9942-1.9054h-1.0315v-1.0243h1.0458q1.2249 0 1.9412-0.53724 0.71632-0.54441 0.71632-1.5043 0-0.76647-0.53008-1.2034-0.52292-0.43696-1.4255-0.43696-0.68767 0-1.2965 0.18624-0.60888 0.18625-1.3897 0.68767l-0.60171-0.80228q0.64469-0.50859 1.4828-0.79512 0.84526-0.29369 1.7765-0.29369 1.5258 0 2.371 0.702 0.84526 0.69483 0.84526 1.9126z" fill="#fff"/></g></g><g transform="translate(-9.7736 37.525)"><path transform="scale(1,-1)" d="m77.493-385.23a7.7557 7.7557 0 0 1-7.7557 7.7556 7.7557 7.7557 0 0 1-7.7557-7.7556 7.7557 7.7557 0 0 1 7.7557-7.7556 7.7557 7.7557 0 0 1 7.7557 7.7556z"/><g transform="scale(1,-1)" aria-label="4"><path d="m73.625-382.02h-1.5544v2.4068h-1.139v-2.4068h-5.0931v-1.0387l4.9713-7.0844h1.2607v7.0415h1.5544zm-2.6934-1.0816v-3.4813q0-1.0243 0.07163-2.3137h-0.05731q-0.34384 0.68767-0.64469 1.139l-3.2736 4.6561z" fill="#fff"/></g></g><g transform="translate(-9.7736 9.0253)"><path transform="scale(1,-1)" d="m77.493-385.23a7.7557 7.7557 0 0 1-7.7557 7.7556 7.7557 7.7557 0 0 1-7.7557-7.7556 7.7557 7.7557 0 0 1 7.7557-7.7556 7.7557 7.7557 0 0 1 7.7557 7.7556z"/><g transform="scale(1,-1)" aria-label="5"><path d="m69.52-386.01q1.6547 0 2.6003 0.82377 0.95271 0.81661 0.95271 2.2421 0 1.626-1.0387 2.5501-1.0315 0.92406-2.851 0.92406-1.7693 0-2.7005-0.5659v-1.1461q0.50143 0.32234 1.2464 0.50859 0.74498 0.17908 1.4685 0.17908 1.2607 0 1.9556-0.59455 0.702-0.59455 0.702-1.7192 0-2.192-2.6862-2.192-0.68051 0-1.8195 0.20774l-0.61604-0.39398 0.39398-4.8996h5.2077v1.096h-4.1905l-0.26504 3.1447q0.82377-0.16475 1.6404-0.16475z" fill="#fff"/></g></g><g transform="translate(101.56 83.682)"><path transform="scale(1,-1)" d="m77.493-385.23a7.7557 7.7557 0 0 1-7.7557 7.7556 7.7557 7.7557 0 0 1-7.7557-7.7556 7.7557 7.7557 0 0 1 7.7557-7.7556 7.7557 7.7557 0 0 1 7.7557 7.7556z"/><g transform="scale(1,-1)" aria-label="6"><path d="m66.368-384.09q0-3.0874 1.1963-4.6131 1.2034-1.5329 3.553-1.5329 0.80944 0 1.2751 0.1361v1.0243q-0.55157-0.17908-1.2607-0.17908-1.6834 0-2.5716 1.053-0.88824 1.0458-0.9742 3.2951h0.08596q0.78796-1.2321 2.4928-1.2321 1.4112 0 2.2206 0.85242 0.81661 0.85243 0.81661 2.3137 0 1.6332-0.8954 2.5716-0.88824 0.93122-2.4068 0.93122-1.6261 0-2.5788-1.2178-0.95271-1.2249-0.95271-3.4025zm3.5171 3.6103q1.0172 0 1.5759-0.63752 0.5659-0.6447 0.5659-1.8553 0-1.0387-0.52292-1.6332t-1.5616-0.59455q-0.64469 0-1.1819 0.26504-0.53724 0.26504-0.85959 0.73065-0.31518 0.46561-0.31518 0.96704 0 0.73781 0.28653 1.3753 0.28653 0.63753 0.80944 1.01 0.53008 0.37249 1.2034 0.37249z" fill="#fff"/></g><g transform="translate(27.702 4.7692)"><path transform="scale(1,-1)" d="m77.493-385.23a7.7557 7.7557 0 0 1-7.7557 7.7556 7.7557 7.7557 0 0 1-7.7557-7.7556 7.7557 7.7557 0 0 1 7.7557-7.7556 7.7557 7.7557 0 0 1 7.7557 7.7556z"/><g transform="scale(1,-1)" aria-label="7"><path d="m67.572-379.61 4.3409-9.3767h-5.7091v-1.096h6.9698v0.95271l-4.2836 9.5199z" fill="#fff"/></g></g></g><g transform="translate(64.186 166.52)"><path transform="scale(1,-1)" d="m77.493-385.23a7.7557 7.7557 0 0 1-7.7557 7.7556 7.7557 7.7557 0 0 1-7.7557-7.7556 7.7557 7.7557 0 0 1 7.7557-7.7556 7.7557 7.7557 0 0 1 7.7557 7.7556z"/><g transform="scale(1,-1)" aria-label="1"><path d="m70.652-379.61h-1.1604v-7.4641q0-0.93122 0.05731-1.7622-0.15043 0.15043-0.33667 0.31518-0.18624 0.16476-1.7048 1.3968l-0.63036-0.81661 2.7722-2.1418h1.0029z" fill="#fff"/></g></g></g></svg>
