<?xml version="1.0" encoding="UTF-8"?>
<svg version="1.1" viewBox="0 0 1220.5 832.01" xmlns="http://www.w3.org/2000/svg" xmlns:xlink="http://www.w3.org/1999/xlink"><rect x="217.92" y="804.63" width="46.782" height="25.982" stroke="#000" stroke-width="2.0583" style="paint-order:fill markers stroke"/><use transform="matrix(.9625 0 0 .9625 5.2508 13.077)" width="100%" height="100%" xlink:href="#rect222"/><g transform="matrix(.44431 0 0 .44431 107.79 170.09)"><g stroke="#000" stroke-width="4"><path d="m104.77 737.51v24.107h23.257z" fill-opacity="0"/><path d="m135.24 756.25v-24.107h-23.257z"/></g><text x="138.825" y="761.85205" fill="#000000" font-family="sans-serif" font-size="42.667px" letter-spacing="-2px" stroke="#000000" style="line-height:1.25" xml:space="preserve"><tspan x="138.825" y="761.85205" fill="#000000" font-family="sans-serif" font-size="42.667px" font-weight="bold" stroke="#000000">HOT CUE</tspan></text></g><path id="rect222" x="37.607635" y="19.107977" width="278.00858" height="278.00858" d="m16 209.69h248.01a15 15 0 0 1 15 15v248.01a15 15 0 0 1-15 15h-248.01a15 15 0 0 1-15-15v-248.01a15 15 0 0 1 15-15z" fill-opacity="0" stroke="#000" stroke-width="2" style="paint-order:fill markers stroke"/><rect x="145.49" y="487.78" width="119.21" height="28.118" fill-opacity="0" stroke="#000" stroke-width="2" style="paint-order:fill markers stroke"/><g transform="matrix(.44431 0 0 .44431 394.63 170.09)"><g stroke="#000" stroke-width="4"><path d="m104.77 737.51v24.107h23.257z" fill-opacity="0"/><path d="m135.24 756.25v-24.107h-23.257z"/></g><text x="138.825" y="761.85205" fill="#000000" font-family="sans-serif" font-size="42.667px" letter-spacing="-2px" stroke="#000000" style="line-height:1.25" xml:space="preserve"><tspan x="138.825" y="761.85205" fill="#000000" font-family="sans-serif" font-size="42.667px" font-weight="bold" stroke="#000000">AUTO LOOP</tspan></text></g><g transform="translate(276.3 190.58)"><path x="37.607635" y="19.107977" width="278.00858" height="278.00858" d="m52.608 19.108h248.01a15 15 45 0 1 15 15v248.01a15 15 135 0 1-15 15h-248.01a15 15 45 0 1-15-15v-248.01a15 15 135 0 1 15-15z" fill-opacity="0" stroke="#000" stroke-width="2" style="paint-order:fill markers stroke"/><g transform="matrix(1.207,0,0,1,-62.368,0)"><rect x="182.1" y="297.2" width="119.21" height="28.118" fill-opacity="0" stroke="#000" stroke-width="2" style="paint-order:fill markers stroke"/></g></g><g id="g31579" transform="translate(-36.608 190.58)"><use transform="matrix(.9625 0 0 .9625 41.859 -177.5)" width="100%" height="100%" xlink:href="#rect222"/></g><g transform="matrix(.44431 0 0 .44431 1044.3 170.09)"><g stroke="#000" stroke-width="4"><path d="m104.77 737.51v24.107h23.257z" fill-opacity="0"/><path d="m135.24 756.25v-24.107h-23.257z"/></g><text x="138.825" y="761.85205" fill="#000000" font-family="sans-serif" font-size="42.667px" letter-spacing="-2px" stroke="#000000" style="line-height:1.25" xml:space="preserve"><tspan x="138.825" y="761.85205" fill="#000000" font-family="sans-serif" font-size="42.667px" font-weight="bold" stroke="#000000">SAMPLER</tspan></text></g><g transform="translate(902.71 190.58)" fill-opacity="0" stroke="#000" stroke-width="2"><path x="37.607635" y="19.107977" width="278.00858" height="278.00858" d="m52.608 19.108h248.01a15 15 45 0 1 15 15v248.01a15 15 135 0 1-15 15h-248.01a15 15 45 0 1-15-15v-248.01a15 15 135 0 1 15-15z" style="paint-order:fill markers stroke"/><rect x="182.1" y="297.2" width="119.21" height="28.118" style="paint-order:fill markers stroke"/></g><g transform="matrix(.44431 0 0 .44431 671.23 170.09)"><g stroke="#000" stroke-width="4"><path d="m104.77 737.51v24.107h23.257z" fill-opacity="0"/><path d="m135.24 756.25v-24.107h-23.257z"/></g><text x="138.825" y="761.85205" fill="#000000" font-family="sans-serif" font-size="42.667px" letter-spacing="-2px" stroke="#000000" style="line-height:1.25" xml:space="preserve"><tspan x="138.825" y="761.85205" fill="#000000" font-family="sans-serif" font-size="42.667px" font-weight="bold" stroke="#000000">MANUAL  LOOP</tspan></text></g><g transform="translate(588.73 190.58)"><path x="37.607635" y="19.107977" width="278.00858" height="278.00858" d="m52.608 19.108h248.01a15 15 45 0 1 15 15v248.01a15 15 135 0 1-15 15h-248.01a15 15 45 0 1-15-15v-248.01a15 15 135 0 1 15-15z" fill-opacity="0" stroke="#000" stroke-width="2" style="paint-order:fill markers stroke"/><g transform="matrix(1.207,0,0,1,-62.368,0)"><rect x="153.08" y="297.2" width="148.23" height="28.118" fill-opacity="0" stroke="#000" stroke-width="2.2302" style="paint-order:fill markers stroke"/></g></g><g transform="translate(-36.608 505.3)"><use transform="matrix(.9625 0 0 .9625 41.859 -177.5)" width="100%" height="100%" xlink:href="#rect222"/></g><g transform="matrix(.44431 0 0 .44431 34.884 484.81)"><g stroke="#000" stroke-width="4"><path d="m104.77 737.51v24.107h23.257z" fill-opacity="0"/><path d="m135.24 756.25v-24.107h-23.257z"/></g><text x="138.825" y="761.85205" fill="#000000" font-family="sans-serif" font-size="42.667px" letter-spacing="-2px" stroke="#000000" style="line-height:1.25" xml:space="preserve"><tspan x="138.825" y="761.85205" fill="#000000" font-family="sans-serif" font-size="42.667px" font-weight="bold" stroke="#000000">PITCH PLAY</tspan></text><text x="462.26144" y="761.85205" fill="#ffffff" font-family="sans-serif" font-size="42.667px" letter-spacing="-2px" stroke="#ffffff" stroke-width=".99929" style="line-height:1.25" xml:space="preserve"><tspan x="461.26144" y="761.85205" fill="#ffffff" font-family="sans-serif" font-size="42.667px" font-weight="bold" stroke="#ffffff" stroke-width=".99929" text-align="center" text-anchor="middle">PnT</tspan></text></g><g transform="translate(-36.608 505.3)"><path x="37.607635" y="19.107977" width="278.00858" height="278.00858" d="m52.608 19.108h248.01a15 15 45 0 1 15 15v248.01a15 15 135 0 1-15 15h-248.01a15 15 45 0 1-15-15v-248.01a15 15 135 0 1 15-15z" fill-opacity="0" stroke="#000" stroke-width="2" style="paint-order:fill markers stroke"/><rect x="112.19" y="297.2" width="189.12" height="28.118" fill-opacity="0" stroke="#000" stroke-width="2.5191" style="paint-order:fill markers stroke"/><use transform="matrix(.9625 0 0 .9625 41.859 -177.5)" width="100%" height="100%" xlink:href="#rect222"/></g><text x="282.75293" y="816.83862" fill="#000000" font-family="sans-serif" font-size="40px" style="line-height:1.25" xml:space="preserve"><tspan x="282.75293" y="816.83862"/></text><rect x="532.04" y="804.63" width="46.782" height="25.982" stroke="#000" stroke-width="2.0583" style="paint-order:fill markers stroke"/><g transform="translate(277.51 505.3)"><use transform="matrix(.9625 0 0 .9625 41.859 -177.5)" width="100%" height="100%" xlink:href="#rect222"/></g><g transform="matrix(.44431 0 0 .44431 306.65 484.81)" stroke="#000" stroke-width="4"><path d="m104.77 737.51v24.107h23.257z" fill-opacity="0"/><path d="m135.24 756.25v-24.107h-23.257z"/></g><text x="368.33289" y="823.30652" fill="#000000" font-family="sans-serif" font-size="18.957px" letter-spacing="-.88863px" stroke="#000000" stroke-width=".44432" style="line-height:1.25" xml:space="preserve"><tspan x="368.33289" y="823.30652" fill="#000000" font-family="sans-serif" font-size="18.957px" font-weight="bold" stroke="#000000" stroke-width=".44432">SCRATCH BANK</tspan></text><text x="555.09662" y="823.30652" fill="#ffffff" font-family="sans-serif" font-size="18.957px" letter-spacing="-.88863px" stroke="#ffffff" stroke-width=".444" style="line-height:1.25" xml:space="preserve"><tspan x="554.65228" y="823.30652" fill="#ffffff" font-family="sans-serif" font-size="18.957px" font-weight="bold" stroke="#ffffff" stroke-width=".444" text-align="center" text-anchor="middle">PRO</tspan></text><g transform="translate(277.51 505.3)"><path x="37.607635" y="19.107977" width="278.00858" height="278.00858" d="m52.608 19.108h248.01a15 15 45 0 1 15 15v248.01a15 15 135 0 1-15 15h-248.01a15 15 45 0 1-15-15v-248.01a15 15 135 0 1 15-15z" fill-opacity="0" stroke="#000" stroke-width="2" style="paint-order:fill markers stroke"/><rect x="68.27" y="297.2" width="233.04" height="28.118" fill-opacity="0" stroke="#000" stroke-width="2.7964" style="paint-order:fill markers stroke"/><use transform="matrix(.9625 0 0 .9625 41.859 -177.5)" width="100%" height="100%" xlink:href="#rect222"/></g><rect x="845.59" y="804.63" width="46.782" height="25.982" stroke="#000" stroke-width="2.0583" style="paint-order:fill markers stroke"/><g transform="translate(591.06 505.3)"><use transform="matrix(.9625 0 0 .9625 41.859 -177.5)" width="100%" height="100%" xlink:href="#rect222"/></g><g transform="matrix(.44431 0 0 .44431 669.31 484.81)" stroke="#000" stroke-width="4"><path d="m104.77 737.51v24.107h23.257z" fill-opacity="0"/><path d="m135.24 756.25v-24.107h-23.257z"/></g><text x="730.99274" y="823.30652" fill="#000000" font-family="sans-serif" font-size="18.957px" letter-spacing="-.88863px" stroke="#000000" stroke-width=".44432" style="line-height:1.25" xml:space="preserve"><tspan x="730.99274" y="823.30652" fill="#000000" font-family="sans-serif" font-size="18.957px" font-weight="bold" stroke="#000000" stroke-width=".44432">LOOP ROLL</tspan></text><text x="868.65265" y="823.30652" fill="#ffffff" font-family="sans-serif" font-size="18.957px" letter-spacing="-.88863px" stroke="#ffffff" stroke-width=".444" style="line-height:1.25" xml:space="preserve"><tspan x="868.20831" y="823.30652" fill="#ffffff" font-family="sans-serif" font-size="18.957px" font-weight="bold" stroke="#ffffff" stroke-width=".444" text-align="center" text-anchor="middle">PRO</tspan></text><g transform="translate(591.06 505.3)"><path x="37.607635" y="19.107977" width="278.00858" height="278.00858" d="m52.608 19.108h248.01a15 15 45 0 1 15 15v248.01a15 15 135 0 1-15 15h-248.01a15 15 45 0 1-15-15v-248.01a15 15 135 0 1 15-15z" fill-opacity="0" stroke="#000" stroke-width="2" style="paint-order:fill markers stroke"/><rect x="118.25" y="297.2" width="183.06" height="28.118" fill-opacity="0" stroke="#000" stroke-width="2.4784" style="paint-order:fill markers stroke"/><use transform="matrix(.9625 0 0 .9625 41.859 -177.5)" width="100%" height="100%" xlink:href="#rect222"/></g><rect x="1158.1" y="804.63" width="46.782" height="25.982" stroke="#000" stroke-width="2.0583" style="paint-order:fill markers stroke"/><g transform="translate(903.6 505.3)"><use transform="matrix(.9625 0 0 .9625 41.859 -177.5)" width="100%" height="100%" xlink:href="#rect222"/></g><g transform="matrix(.44431 0 0 .44431 981.89 484.81)" stroke="#000" stroke-width="4"><path d="m104.77 737.51v24.107h23.257z" fill-opacity="0"/><path d="m135.24 756.25v-24.107h-23.257z"/></g><text x="1043.5265" y="823.30652" fill="#000000" font-family="sans-serif" font-size="18.957px" letter-spacing="-.88863px" stroke="#000000" stroke-width=".44432" style="line-height:1.25" xml:space="preserve"><tspan x="1043.5265" y="823.30652" fill="#000000" font-family="sans-serif" font-size="18.957px" font-weight="bold" stroke="#000000" stroke-width=".44432">BEAT GRID</tspan></text><text x="1181.1864" y="823.30652" fill="#ffffff" font-family="sans-serif" font-size="18.957px" letter-spacing="-.88863px" stroke="#ffffff" stroke-width=".444" style="line-height:1.25" xml:space="preserve"><tspan x="1180.7421" y="823.30652" fill="#ffffff" font-family="sans-serif" font-size="18.957px" font-weight="bold" stroke="#ffffff" stroke-width=".444" text-align="center" text-anchor="middle">PRO</tspan></text><g transform="translate(903.6 505.3)"><path x="37.607635" y="19.107977" width="278.00858" height="278.00858" d="m52.608 19.108h248.01a15 15 45 0 1 15 15v248.01a15 15 135 0 1-15 15h-248.01a15 15 45 0 1-15-15v-248.01a15 15 135 0 1 15-15z" fill-opacity="0" stroke="#000" stroke-width="2" style="paint-order:fill markers stroke"/><rect x="118.25" y="297.2" width="183.06" height="28.118" fill-opacity="0" stroke="#000" stroke-width="2.4784" style="paint-order:fill markers stroke"/><use transform="matrix(.9625 0 0 .9625 41.859 -177.5)" width="100%" height="100%" xlink:href="#rect222"/></g><use id="use116870" transform="translate(313.1)" width="100%" height="100%" xlink:href="#g31579"/><use id="use116872" transform="translate(312.42)" width="100%" height="100%" xlink:href="#use116870"/><use transform="translate(314.03)" width="100%" height="100%" xlink:href="#use116872"/><g transform="translate(0 208.69)"><rect x="942.49" y="-50.448" width="276.99" height="26.329" stroke="#000" stroke-width="2" style="paint-order:fill markers stroke"/><rect x="1172.7" y="-50.278" width="46.782" height="25.982" fill="#fbfbfb" stroke="#000" stroke-width="2.0583" style="paint-order:fill markers stroke"/><text x="1022.616" y="-31.596264" fill="#ffffff" font-family="sans-serif" font-size="18.957px" letter-spacing="-.88863px" stroke="#000000" stroke-width=".44432" style="line-height:1.25" xml:space="preserve"><tspan x="1022.616" y="-31.596264" fill="#ffffff" font-family="sans-serif" font-size="18.957px" font-weight="bold" stroke="#000000" stroke-width=".44432">PARAMETER 2</tspan></text><text x="1195.7325" y="-30.382336" fill="#000000" font-family="sans-serif" font-size="18.957px" letter-spacing="-.88863px" stroke="#ffffff" stroke-width=".444" style="line-height:1.25" xml:space="preserve"><tspan x="1195.2882" y="-30.382336" fill="#000000" font-family="sans-serif" font-size="18.957px" font-weight="bold" stroke="#ffffff" stroke-width=".444" text-align="center" text-anchor="middle">PRO</tspan></text><g id="g32"><path x="37.607635" y="19.107977" width="278.00858" height="278.00858" d="m951.73-169.02h100.29a6.0656 5.1263 0 0 1 6.0655 5.1263v84.757a6.0656 5.1263 0 0 1-6.0655 5.1263h-100.29a6.0656 5.1263 0 0 1-6.0656-5.1263v-84.757a6.0656 5.1263 0 0 1 6.0656-5.1263z" fill-opacity="0" stroke="#000" stroke-width="2" style="paint-order:fill markers stroke"/><path d="m958.18-163.39a5.3462 4.5183 0 0 0-5.3457 4.5176v74.705a5.3462 4.5183 0 0 0 5.3457 4.5195h88.395a5.3462 4.5183 0 0 0 5.3477-4.5195v-74.705a5.3462 4.5183 0 0 0-5.3477-4.5176zm76.356 13.09a4.2097 2.9429 0 0 1 4.6504 2.9258v52.746a4.2097 2.9429 0 0 1-6.3145 2.5488l-65.346-26.373a4.2097 2.9429 0 0 1 0-5.0977l65.346-26.373a4.2097 2.9429 0 0 1 1.6641-0.37695z" style="paint-order:fill markers stroke"/><path x="37.607635" y="19.107977" width="278.00858" height="278.00858" d="m955.22-165.71h93.302a5.6431 4.7681 0 0 1 5.6431 4.7681v78.835a5.6431 4.7681 0 0 1-5.6431 4.7681h-93.302a5.6431 4.7681 0 0 1-5.6431-4.7681v-78.835a5.6431 4.7681 0 0 1 5.6431-4.7681z" fill-opacity="0" stroke="#000" stroke-width="2" style="paint-order:fill markers stroke"/></g><path transform="matrix(0 -.10553 .10553 0 1036.8 62.713)" d="m1030.9-184.05h-145.94l72.972-126.39z" fill="#fff" stroke-width="0" style="paint-order:fill markers stroke"/><path transform="matrix(0 -.10553 -.10553 0 1125.7 62.713)" d="m1030.9-184.05h-145.94l72.972-126.39z" fill="#fff" stroke-width="0" style="paint-order:fill markers stroke"/><text x="991.52277" y="-186.53661" fill="#000000" font-family="sans-serif" font-size="29.008px" letter-spacing="-.88863px" stroke-width=".44432" style="line-height:1.25" xml:space="preserve"><tspan x="991.52277" y="-186.53661" fill="#000000" font-family="sans-serif" font-size="29.008px" font-weight="bold" stroke-width=".44432">PARAMETER 1</tspan></text><path transform="matrix(0 -.16148 .16148 0 1013.3 -42.227)" d="m1030.9-184.05h-145.94l72.972-126.39z" style="paint-order:fill markers stroke"/><path transform="matrix(0 -.16148 -.16148 0 1149.3 -42.227)" d="m1030.9-184.05h-145.94l72.972-126.39z" style="paint-order:fill markers stroke"/><use transform="matrix(-1 0 0 1 2161.4 0)" xlink:href="#g32"/></g><g stroke-width="7.3814"><path d="m89.091 396.34h102.69v-89.684h-102.69z" fill="#d9d9d9" stroke="#171714" stroke-miterlimit="10"/><text transform="translate(-2.7241 18.382)" x="119.35163" y="181.60451" fill="#000000" font-family="Monospace" font-size="62px" style="line-height:1;paint-order:fill markers stroke;shape-inside:url(#path7204);white-space:pre-wrap" xml:space="preserve"><tspan x="121.83554" y="355.31461"><tspan text-align="center" text-anchor="middle">1</tspan></tspan></text></g><g transform="translate(321.39)" stroke-width="7.3814"><path d="m89.091 396.34h102.69v-89.684h-102.69z" fill="#d9d9d9" stroke="#171714" stroke-miterlimit="10"/><text transform="translate(-2.7241 18.382)" x="119.35163" y="181.60451" fill="#000000" font-family="Monospace" font-size="62px" style="line-height:1;paint-order:fill markers stroke;shape-inside:url(#path38);white-space:pre-wrap" xml:space="preserve"><tspan x="121.83554" y="355.31461"><tspan text-align="center" text-anchor="middle">2</tspan></tspan></text></g><g transform="translate(628.24)" stroke-width="7.3814"><path d="m89.091 396.34h102.69v-89.684h-102.69z" fill="#d9d9d9" stroke="#171714" stroke-miterlimit="10"/><text transform="translate(-2.7241 18.382)" x="119.35163" y="181.60451" fill="#000000" font-family="Monospace" font-size="62px" style="line-height:1;paint-order:fill markers stroke;shape-inside:url(#path39);white-space:pre-wrap" xml:space="preserve"><tspan x="121.83554" y="355.31461"><tspan text-align="center" text-anchor="middle">3</tspan></tspan></text></g><g transform="translate(947.45)" stroke-width="7.3814"><path d="m89.091 396.34h102.69v-89.684h-102.69z" fill="#d9d9d9" stroke="#171714" stroke-miterlimit="10"/><text transform="translate(-2.7241 18.382)" x="119.35163" y="181.60451" fill="#000000" font-family="Monospace" font-size="62px" style="line-height:1;paint-order:fill markers stroke;shape-inside:url(#path40);white-space:pre-wrap" xml:space="preserve"><tspan x="121.83554" y="355.31461"><tspan text-align="center" text-anchor="middle">4</tspan></tspan></text></g><g transform="translate(0 318.48)" stroke-width="7.3814"><path d="m89.091 396.34h102.69v-89.684h-102.69z" fill="#d9d9d9" stroke="#171714" stroke-miterlimit="10"/><text transform="translate(-2.7241 18.382)" x="119.35163" y="181.60451" fill="#000000" font-family="Monospace" font-size="62px" style="line-height:1;paint-order:fill markers stroke;shape-inside:url(#path41);white-space:pre-wrap" xml:space="preserve"><tspan x="121.83554" y="355.31461"><tspan text-align="center" text-anchor="middle">5</tspan></tspan></text></g><g transform="translate(321.39 318.48)" stroke-width="7.3814"><path d="m89.091 396.34h102.69v-89.684h-102.69z" fill="#d9d9d9" stroke="#171714" stroke-miterlimit="10"/><text transform="translate(-2.7241 18.382)" x="119.35163" y="181.60451" fill="#000000" font-family="Monospace" font-size="62px" style="line-height:1;paint-order:fill markers stroke;shape-inside:url(#path42);white-space:pre-wrap" xml:space="preserve"><tspan x="121.83554" y="355.31461"><tspan text-align="center" text-anchor="middle">6</tspan></tspan></text></g><g transform="translate(628.24 318.48)" stroke-width="7.3814"><path d="m89.091 396.34h102.69v-89.684h-102.69z" fill="#d9d9d9" stroke="#171714" stroke-miterlimit="10"/><text transform="translate(-2.7241 18.382)" x="119.35163" y="181.60451" fill="#000000" font-family="Monospace" font-size="62px" style="line-height:1;paint-order:fill markers stroke;shape-inside:url(#path43);white-space:pre-wrap" xml:space="preserve"><tspan x="121.83554" y="355.31461"><tspan text-align="center" text-anchor="middle">7</tspan></tspan></text></g><g transform="translate(947.45 318.48)" stroke-width="7.3814"><path d="m89.091 396.34h102.69v-89.684h-102.69z" fill="#d9d9d9" stroke="#171714" stroke-miterlimit="10"/><text transform="translate(-2.7241 18.382)" x="119.35163" y="181.60451" fill="#000000" font-family="Monospace" font-size="62px" style="line-height:1;paint-order:fill markers stroke;shape-inside:url(#path44);white-space:pre-wrap" xml:space="preserve"><tspan x="121.83554" y="355.31461"><tspan text-align="center" text-anchor="middle">8</tspan></tspan></text></g><g transform="translate(710.46 -259.13)" stroke-width="7.3814"><path d="m89.091 396.34h102.69v-89.684h-102.69z" fill="#d9d9d9" stroke="#171714" stroke-miterlimit="10"/><text transform="translate(-2.7241 18.382)" x="119.35163" y="181.60451" fill="#000000" font-family="Monospace" font-size="62px" style="line-height:1;paint-order:fill markers stroke;shape-inside:url(#path45);white-space:pre-wrap" xml:space="preserve"><tspan x="121.83554" y="355.31461"><tspan text-align="center" text-anchor="middle">9</tspan></tspan></text></g></svg>
