<?xml version="1.0" encoding="UTF-8"?>
<svg version="1.1" viewBox="0 0 1220.2 836.6" xmlns="http://www.w3.org/2000/svg" xmlns:xlink="http://www.w3.org/1999/xlink"><rect x="217.92" y="595.94" width="46.782" height="25.982" stroke="#000" stroke-width="2.0583" style="paint-order:fill markers stroke"/><use transform="matrix(.9625 0 0 .9625 5.2508 5.2508)" width="100%" height="100%" xlink:href="#rect222"/><g transform="translate(-36.608 498.23)" fill-opacity="0" stroke="#000"><path x="37.607635" y="164.25131" width="278.00858" height="132.8652" d="m42.608 164.25h268.01a5 5 45 0 1 5 5v122.87a5 5 135 0 1-5 5h-268.01a5 5 45 0 1-5-5v-122.87a5 5 135 0 1 5-5z" stroke-width="2" style="paint-order:fill markers stroke"/><path d="m44.602 168.65c-1.537 0.27882-2.5351 1.8165-2.3717 3.3052 0.0064 39.315-0.01283 78.631 0.0096 117.95-0.02403 1.6607 1.5644 3.0273 3.2287 2.8878h262.48c1.6848 0.0572 3.1456-1.4367 3.0422-3.0857-5e-3 -39.472 0.0102-78.945-8e-3 -118.42-0.0691-1.6331-1.7047-2.9026-3.3349-2.6994h-262.38c-0.22159 0.0213-0.44317 0.0427-0.66476 0.064z" stroke-width="1.9446" style="paint-order:fill markers stroke"/></g><rect x="10.658" y="672.36" width="258.53" height="111.02" stroke="#000" stroke-width="2" style="paint-order:fill markers stroke"/><g transform="translate(-47.956 -19.002)"><g stroke="#fff" stroke-width="4"><path d="m104.77 737.51v24.107h23.257z" fill="none"/><path d="m135.24 756.25v-24.107h-23.257z" fill="#fff"/></g><text x="138.825" y="761.85205" fill="#000000" font-family="sans-serif" font-size="42.667px" letter-spacing="-2px" style="line-height:1.25" xml:space="preserve"><tspan x="138.825" y="761.85205" fill="#ffffff" font-family="sans-serif" font-size="42.667px" font-weight="bold">MODE</tspan></text></g><g transform="matrix(.44431 0 0 .44431 107.79 -38.6)"><g stroke="#000" stroke-width="4"><path d="m104.77 737.51v24.107h23.257z" fill-opacity="0"/><path d="m135.24 756.25v-24.107h-23.257z"/></g><text x="138.825" y="761.85205" fill="#000000" font-family="sans-serif" font-size="42.667px" letter-spacing="-2px" stroke="#000000" style="line-height:1.25" xml:space="preserve"><tspan x="138.825" y="761.85205" fill="#000000" font-family="sans-serif" font-size="42.667px" font-weight="bold" stroke="#000000">HOT CUE</tspan></text></g><path id="rect222" x="37.607635" y="19.107977" width="278.00858" height="278.00858" d="m16 1h248.01a15 15 0 0 1 15 15v248.01a15 15 0 0 1-15 15h-248.01a15 15 0 0 1-15-15v-248.01a15 15 0 0 1 15-15z" fill-opacity="0" stroke="#000" stroke-width="2" style="paint-order:fill markers stroke"/><rect x="145.49" y="279.09" width="119.21" height="28.118" fill-opacity="0" stroke="#000" stroke-width="2" style="paint-order:fill markers stroke"/><g transform="matrix(.44431 0 0 .44431 394.63 -38.6)"><g stroke="#000" stroke-width="4"><path d="m104.77 737.51v24.107h23.257z" fill-opacity="0"/><path d="m135.24 756.25v-24.107h-23.257z"/></g><text x="138.825" y="761.85205" fill="#000000" font-family="sans-serif" font-size="42.667px" letter-spacing="-2px" stroke="#000000" style="line-height:1.25" xml:space="preserve"><tspan x="138.825" y="761.85205" fill="#000000" font-family="sans-serif" font-size="42.667px" font-weight="bold" stroke="#000000">AUTO LOOP</tspan></text></g><g transform="translate(276.3 -18.108)"><path x="37.607635" y="19.107977" width="278.00858" height="278.00858" d="m52.608 19.108h248.01a15 15 45 0 1 15 15v248.01a15 15 135 0 1-15 15h-248.01a15 15 45 0 1-15-15v-248.01a15 15 135 0 1 15-15z" fill-opacity="0" stroke="#000" stroke-width="2" style="paint-order:fill markers stroke"/><g transform="matrix(1.207,0,0,1,-62.368,0)"><rect x="182.1" y="297.2" width="119.21" height="28.118" fill-opacity="0" stroke="#000" stroke-width="2" style="paint-order:fill markers stroke"/></g></g><g id="g31579" transform="translate(-36.608,-18.108)"><use transform="matrix(.9625 0 0 .9625 41.859 23.359)" width="100%" height="100%" xlink:href="#rect222"/></g><g transform="matrix(.44431 0 0 .44431 1044.3 -38.6)"><g stroke="#000" stroke-width="4"><path d="m104.77 737.51v24.107h23.257z" fill-opacity="0"/><path d="m135.24 756.25v-24.107h-23.257z"/></g><text x="138.825" y="761.85205" fill="#000000" font-family="sans-serif" font-size="42.667px" letter-spacing="-2px" stroke="#000000" style="line-height:1.25" xml:space="preserve"><tspan x="138.825" y="761.85205" fill="#000000" font-family="sans-serif" font-size="42.667px" font-weight="bold" stroke="#000000">SAMPLER</tspan></text></g><g transform="translate(902.71 -18.108)" fill-opacity="0" stroke="#000" stroke-width="2"><path x="37.607635" y="19.107977" width="278.00858" height="278.00858" d="m52.608 19.108h248.01a15 15 45 0 1 15 15v248.01a15 15 135 0 1-15 15h-248.01a15 15 45 0 1-15-15v-248.01a15 15 135 0 1 15-15z" style="paint-order:fill markers stroke"/><rect x="182.1" y="297.2" width="119.21" height="28.118" style="paint-order:fill markers stroke"/></g><g transform="matrix(.44431 0 0 .44431 671.23 -38.6)"><g stroke="#000" stroke-width="4"><path d="m104.77 737.51v24.107h23.257z" fill-opacity="0"/><path d="m135.24 756.25v-24.107h-23.257z"/></g><text x="138.825" y="761.85205" fill="#000000" font-family="sans-serif" font-size="42.667px" letter-spacing="-2px" stroke="#000000" style="line-height:1.25" xml:space="preserve"><tspan x="138.825" y="761.85205" fill="#000000" font-family="sans-serif" font-size="42.667px" font-weight="bold" stroke="#000000">MANUAL  LOOP</tspan></text></g><g transform="translate(588.73 -18.108)"><path x="37.607635" y="19.107977" width="278.00858" height="278.00858" d="m52.608 19.108h248.01a15 15 45 0 1 15 15v248.01a15 15 135 0 1-15 15h-248.01a15 15 45 0 1-15-15v-248.01a15 15 135 0 1 15-15z" fill-opacity="0" stroke="#000" stroke-width="2" style="paint-order:fill markers stroke"/><g transform="matrix(1.207,0,0,1,-62.368,0)"><rect x="153.08" y="297.2" width="148.23" height="28.118" fill-opacity="0" stroke="#000" stroke-width="2.2302" style="paint-order:fill markers stroke"/></g></g><g transform="translate(-36.608 296.61)"><use transform="matrix(.9625 0 0 .9625 41.859 23.359)" width="100%" height="100%" xlink:href="#rect222"/></g><g transform="matrix(.44431 0 0 .44431 34.884 276.12)"><g stroke="#000" stroke-width="4"><path d="m104.77 737.51v24.107h23.257z" fill-opacity="0"/><path d="m135.24 756.25v-24.107h-23.257z"/></g><text x="138.825" y="761.85205" fill="#000000" font-family="sans-serif" font-size="42.667px" letter-spacing="-2px" stroke="#000000" style="line-height:1.25" xml:space="preserve"><tspan x="138.825" y="761.85205" fill="#000000" font-family="sans-serif" font-size="42.667px" font-weight="bold" stroke="#000000">PITCH PLAY</tspan></text><text x="462.26144" y="761.85205" fill="#ffffff" font-family="sans-serif" font-size="42.667px" letter-spacing="-2px" stroke="#ffffff" stroke-width=".99929" style="line-height:1.25" xml:space="preserve"><tspan x="461.26144" y="761.85205" fill="#ffffff" font-family="sans-serif" font-size="42.667px" font-weight="bold" stroke="#ffffff" stroke-width=".99929" text-align="center" text-anchor="middle">PnT</tspan></text></g><g transform="translate(-36.608 296.61)"><path x="37.607635" y="19.107977" width="278.00858" height="278.00858" d="m52.608 19.108h248.01a15 15 45 0 1 15 15v248.01a15 15 135 0 1-15 15h-248.01a15 15 45 0 1-15-15v-248.01a15 15 135 0 1 15-15z" fill-opacity="0" stroke="#000" stroke-width="2" style="paint-order:fill markers stroke"/><rect x="112.19" y="297.2" width="189.12" height="28.118" fill-opacity="0" stroke="#000" stroke-width="2.5191" style="paint-order:fill markers stroke"/><use transform="matrix(.9625 0 0 .9625 41.859 23.359)" width="100%" height="100%" xlink:href="#rect222"/></g><text x="282.75293" y="608.15314" fill="#000000" font-family="sans-serif" font-size="40px" style="line-height:1.25" xml:space="preserve"><tspan x="282.75293" y="608.15314"/></text><rect x="532.04" y="595.94" width="46.782" height="25.982" stroke="#000" stroke-width="2.0583" style="paint-order:fill markers stroke"/><g transform="translate(277.51 296.61)"><use transform="matrix(.9625 0 0 .9625 41.859 23.359)" width="100%" height="100%" xlink:href="#rect222"/></g><g transform="matrix(.44431 0 0 .44431 306.65 276.12)" stroke="#000" stroke-width="4"><path d="m104.77 737.51v24.107h23.257z" fill-opacity="0"/><path d="m135.24 756.25v-24.107h-23.257z"/></g><text x="368.33289" y="614.62103" fill="#000000" font-family="sans-serif" font-size="18.957px" letter-spacing="-.88863px" stroke="#000000" stroke-width=".44432" style="line-height:1.25" xml:space="preserve"><tspan x="368.33289" y="614.62103" fill="#000000" font-family="sans-serif" font-size="18.957px" font-weight="bold" stroke="#000000" stroke-width=".44432">SCRATCH BANK</tspan></text><text x="555.09662" y="614.62103" fill="#ffffff" font-family="sans-serif" font-size="18.957px" letter-spacing="-.88863px" stroke="#ffffff" stroke-width=".444" style="line-height:1.25" xml:space="preserve"><tspan x="554.65228" y="614.62103" fill="#ffffff" font-family="sans-serif" font-size="18.957px" font-weight="bold" stroke="#ffffff" stroke-width=".444" text-align="center" text-anchor="middle">PRO</tspan></text><g transform="translate(277.51 296.61)"><path x="37.607635" y="19.107977" width="278.00858" height="278.00858" d="m52.608 19.108h248.01a15 15 45 0 1 15 15v248.01a15 15 135 0 1-15 15h-248.01a15 15 45 0 1-15-15v-248.01a15 15 135 0 1 15-15z" fill-opacity="0" stroke="#000" stroke-width="2" style="paint-order:fill markers stroke"/><rect x="68.27" y="297.2" width="233.04" height="28.118" fill-opacity="0" stroke="#000" stroke-width="2.7964" style="paint-order:fill markers stroke"/><use transform="matrix(.9625 0 0 .9625 41.859 23.359)" width="100%" height="100%" xlink:href="#rect222"/></g><rect x="845.59" y="595.94" width="46.782" height="25.982" stroke="#000" stroke-width="2.0583" style="paint-order:fill markers stroke"/><g transform="translate(591.06 296.61)"><use transform="matrix(.9625 0 0 .9625 41.859 23.359)" width="100%" height="100%" xlink:href="#rect222"/></g><g transform="matrix(.44431 0 0 .44431 669.31 276.12)" stroke="#000" stroke-width="4"><path d="m104.77 737.51v24.107h23.257z" fill-opacity="0"/><path d="m135.24 756.25v-24.107h-23.257z"/></g><text x="730.99274" y="614.62103" fill="#000000" font-family="sans-serif" font-size="18.957px" letter-spacing="-.88863px" stroke="#000000" stroke-width=".44432" style="line-height:1.25" xml:space="preserve"><tspan x="730.99274" y="614.62103" fill="#000000" font-family="sans-serif" font-size="18.957px" font-weight="bold" stroke="#000000" stroke-width=".44432">LOOP ROLL</tspan></text><text x="868.65265" y="614.62103" fill="#ffffff" font-family="sans-serif" font-size="18.957px" letter-spacing="-.88863px" stroke="#ffffff" stroke-width=".444" style="line-height:1.25" xml:space="preserve"><tspan x="868.20831" y="614.62103" fill="#ffffff" font-family="sans-serif" font-size="18.957px" font-weight="bold" stroke="#ffffff" stroke-width=".444" text-align="center" text-anchor="middle">PRO</tspan></text><g transform="translate(591.06 296.61)"><path x="37.607635" y="19.107977" width="278.00858" height="278.00858" d="m52.608 19.108h248.01a15 15 45 0 1 15 15v248.01a15 15 135 0 1-15 15h-248.01a15 15 45 0 1-15-15v-248.01a15 15 135 0 1 15-15z" fill-opacity="0" stroke="#000" stroke-width="2" style="paint-order:fill markers stroke"/><rect x="118.25" y="297.2" width="183.06" height="28.118" fill-opacity="0" stroke="#000" stroke-width="2.4784" style="paint-order:fill markers stroke"/><use transform="matrix(.9625 0 0 .9625 41.859 23.359)" width="100%" height="100%" xlink:href="#rect222"/></g><rect x="1158.1" y="595.94" width="46.782" height="25.982" stroke="#000" stroke-width="2.0583" style="paint-order:fill markers stroke"/><g transform="translate(903.6 296.61)"><use transform="matrix(.9625 0 0 .9625 41.859 23.359)" width="100%" height="100%" xlink:href="#rect222"/></g><g transform="matrix(.44431 0 0 .44431 981.89 276.12)" stroke="#000" stroke-width="4"><path d="m104.77 737.51v24.107h23.257z" fill-opacity="0"/><path d="m135.24 756.25v-24.107h-23.257z"/></g><text x="1043.5265" y="614.62103" fill="#000000" font-family="sans-serif" font-size="18.957px" letter-spacing="-.88863px" stroke="#000000" stroke-width=".44432" style="line-height:1.25" xml:space="preserve"><tspan x="1043.5265" y="614.62103" fill="#000000" font-family="sans-serif" font-size="18.957px" font-weight="bold" stroke="#000000" stroke-width=".44432">BEAT GRID</tspan></text><text x="1181.1864" y="614.62103" fill="#ffffff" font-family="sans-serif" font-size="18.957px" letter-spacing="-.88863px" stroke="#ffffff" stroke-width=".444" style="line-height:1.25" xml:space="preserve"><tspan x="1180.7421" y="614.62103" fill="#ffffff" font-family="sans-serif" font-size="18.957px" font-weight="bold" stroke="#ffffff" stroke-width=".444" text-align="center" text-anchor="middle">PRO</tspan></text><g transform="translate(903.6 296.61)"><path x="37.607635" y="19.107977" width="278.00858" height="278.00858" d="m52.608 19.108h248.01a15 15 45 0 1 15 15v248.01a15 15 135 0 1-15 15h-248.01a15 15 45 0 1-15-15v-248.01a15 15 135 0 1 15-15z" fill-opacity="0" stroke="#000" stroke-width="2" style="paint-order:fill markers stroke"/><rect x="118.25" y="297.2" width="183.06" height="28.118" fill-opacity="0" stroke="#000" stroke-width="2.4784" style="paint-order:fill markers stroke"/><use transform="matrix(.9625 0 0 .9625 41.859 23.359)" width="100%" height="100%" xlink:href="#rect222"/></g><rect x="3.855" y="809.27" width="276.99" height="26.329" stroke="#000" stroke-width="2" style="paint-order:fill markers stroke"/><rect x="234.09" y="809.44" width="46.782" height="25.982" fill="#fbfbfb" stroke="#000" stroke-width="2.0583" style="paint-order:fill markers stroke"/><text x="83.977028" y="828.12158" fill="#ffffff" font-family="sans-serif" font-size="18.957px" letter-spacing="-.88863px" stroke="#000000" stroke-width=".44432" style="line-height:1.25" xml:space="preserve"><tspan x="83.977028" y="828.12158" fill="#ffffff" font-family="sans-serif" font-size="18.957px" font-weight="bold" stroke="#000000" stroke-width=".44432">USER MODE</tspan></text><text x="257.09369" y="829.33551" fill="#000000" font-family="sans-serif" font-size="18.957px" letter-spacing="-.88863px" stroke="#ffffff" stroke-width=".444" style="line-height:1.25" xml:space="preserve"><tspan x="256.64938" y="829.33551" fill="#000000" font-family="sans-serif" font-size="18.957px" font-weight="bold" stroke="#ffffff" stroke-width=".444" text-align="center" text-anchor="middle">PRO</tspan></text><use id="use116870" transform="translate(313.1)" width="100%" height="100%" xlink:href="#g31579"/><use id="use116872" transform="translate(312.42)" width="100%" height="100%" xlink:href="#use116870"/><use transform="translate(314.03)" width="100%" height="100%" xlink:href="#use116872"/></svg>
