<?xml version="1.0" encoding="UTF-8"?>
<!DOCTYPE svg PUBLIC "-//W3C//DTD SVG 1.1//EN" "http://www.w3.org/Graphics/SVG/1.1/DTD/svg11.dtd">
<svg xmlns="http://www.w3.org/2000/svg" version="1.1" width="586px" height="189px" style="shape-rendering:geometricPrecision; text-rendering:geometricPrecision; image-rendering:optimizeQuality; fill-rule:evenodd; clip-rule:evenodd" xmlns:xlink="http://www.w3.org/1999/xlink">
<g><path style="opacity:1" fill="#3a3332" d="M -0.5,1.5 C 194.833,1.5 390.167,1.5 585.5,1.5C 585.5,2.16667 585.5,2.83333 585.5,3.5C 390.167,3.5 194.833,3.5 -0.5,3.5C -0.5,2.83333 -0.5,2.16667 -0.5,1.5 Z"/></g>
<g><path style="opacity:1" fill="#1f1713" d="M -0.5,3.5 C 194.833,3.5 390.167,3.5 585.5,3.5C 585.5,4.83333 585.5,6.16667 585.5,7.5C 390.167,7.5 194.833,7.5 -0.5,7.5C -0.5,6.16667 -0.5,4.83333 -0.5,3.5 Z"/></g>
<g><path style="opacity:1" fill="#fdfdfd" d="M -0.5,7.5 C 194.833,7.5 390.167,7.5 585.5,7.5C 585.5,67.8333 585.5,128.167 585.5,188.5C 582.833,188.5 580.167,188.5 577.5,188.5C 576.833,-22.1667 576.167,-22.1667 575.5,188.5C 556.167,188.5 536.833,188.5 517.5,188.5C 517.806,185.615 517.473,182.948 516.5,180.5C 515.721,177.455 514.387,174.789 512.5,172.5C 507.825,163.337 500.492,157.17 490.5,154C 475.518,150.916 463.018,155.083 453,166.5C 452.209,167.745 451.709,169.078 451.5,170.5C 449.907,171.348 448.74,172.681 448,174.5C 446.026,178.951 445.193,183.618 445.5,188.5C 426.167,188.5 406.833,188.5 387.5,188.5C 386.833,-22.1667 386.167,-22.1667 385.5,188.5C 382.833,188.5 380.167,188.5 377.5,188.5C 377.5,187.5 377.5,186.5 377.5,185.5C 320.5,185.5 263.5,185.5 206.5,185.5C 206.5,186.5 206.5,187.5 206.5,188.5C 203.833,188.5 201.167,188.5 198.5,188.5C 197.833,-22.1667 197.167,-22.1667 196.5,188.5C 177.167,188.5 157.833,188.5 138.5,188.5C 138.802,185.941 138.468,183.607 137.5,181.5C 137.88,179.302 137.213,177.635 135.5,176.5C 134.375,171.181 131.709,166.681 127.5,163C 115.556,153.119 102.222,150.785 87.5,156C 81.0689,159.513 76.0689,164.346 72.5,170.5C 69.8352,172.835 68.5018,175.835 68.5,179.5C 67.8826,179.611 67.3826,179.944 67,180.5C 66.5026,183.146 66.3359,185.813 66.5,188.5C 47.1667,188.5 27.8333,188.5 8.5,188.5C 7.83333,-22.1667 7.16667,-22.1667 6.5,188.5C 4.16667,188.5 1.83333,188.5 -0.5,188.5C -0.5,128.167 -0.5,67.8333 -0.5,7.5 Z"/></g>
<g><path style="opacity:1" fill="#5e5758" d="M 8.5,188.5 C 7.83333,188.5 7.16667,188.5 6.5,188.5C 7.16667,-22.1667 7.83333,-22.1667 8.5,188.5 Z"/></g>
<g><path style="opacity:1" fill="#615b5b" d="M 198.5,188.5 C 197.833,188.5 197.167,188.5 196.5,188.5C 197.167,-22.1667 197.833,-22.1667 198.5,188.5 Z"/></g>
<g><path style="opacity:1" fill="#706a6b" d="M 387.5,188.5 C 386.833,188.5 386.167,188.5 385.5,188.5C 386.167,-22.1667 386.833,-22.1667 387.5,188.5 Z"/></g>
<g><path style="opacity:1" fill="#655f60" d="M 577.5,188.5 C 576.833,188.5 576.167,188.5 575.5,188.5C 576.167,-22.1667 576.833,-22.1667 577.5,188.5 Z"/></g>
<g><path style="opacity:1" fill="#2f2725" d="M 112.5,49.5 C 119.997,48.8038 121.997,51.6372 118.5,58C 116.527,58.4955 114.527,58.6621 112.5,58.5C 112.5,55.5 112.5,52.5 112.5,49.5 Z"/></g>
<g><path style="opacity:1" fill="#847f81" d="M 86.5,49.5 C 85.5233,52.2869 85.19,55.2869 85.5,58.5C 84.1944,55.3132 84.1944,51.9798 85.5,48.5C 86.1067,48.6236 86.44,48.9569 86.5,49.5 Z"/></g>
<g><path style="opacity:1" fill="#130c0a" d="M 86.5,49.5 C 86.5,52.1667 86.5,54.8333 86.5,57.5C 87.8333,57.5 89.1667,57.5 90.5,57.5C 89.0813,58.4511 87.4147,58.7845 85.5,58.5C 85.19,55.2869 85.5233,52.2869 86.5,49.5 Z"/></g>
<g><path style="opacity:1" fill="#7b7779" d="M 465.5,49.5 C 464.523,52.2869 464.19,55.2869 464.5,58.5C 463.194,55.3132 463.194,51.9798 464.5,48.5C 465.107,48.6236 465.44,48.9569 465.5,49.5 Z"/></g>
<g><path style="opacity:1" fill="#140d0b" d="M 465.5,49.5 C 465.5,52.1667 465.5,54.8333 465.5,57.5C 466.833,57.5 468.167,57.5 469.5,57.5C 468.081,58.4511 466.415,58.7845 464.5,58.5C 464.19,55.2869 464.523,52.2869 465.5,49.5 Z"/></g>
<g><path style="opacity:1" fill="#eeeeee" d="M 114.5,50.5 C 117.997,50.995 118.997,52.8283 117.5,56C 116.552,56.4828 115.552,56.6495 114.5,56.5C 114.5,54.5 114.5,52.5 114.5,50.5 Z"/></g>
<g><path style="opacity:1" fill="#302826" d="M 104.5,49.5 C 105.675,49.281 106.675,49.6143 107.5,50.5C 108.305,52.9154 109.305,55.2487 110.5,57.5C 110.167,57.8333 109.833,58.1667 109.5,58.5C 107.167,55.8333 104.833,55.8333 102.5,58.5C 102.167,58.1667 101.833,57.8333 101.5,57.5C 102.513,54.8122 103.513,52.1456 104.5,49.5 Z"/></g>
<g><path style="opacity:1" fill="#dcdadc" d="M 105.5,51.5 C 106.776,52.3864 106.776,53.3864 105.5,54.5C 104.913,53.7666 104.913,52.7666 105.5,51.5 Z"/></g>
<g><path style="opacity:1" fill="#2f2826" d="M 483.5,49.5 C 484.675,49.281 485.675,49.6143 486.5,50.5C 487.305,52.9154 488.305,55.2487 489.5,57.5C 489.167,57.8333 488.833,58.1667 488.5,58.5C 486.167,55.8333 483.833,55.8333 481.5,58.5C 481.167,58.1667 480.833,57.8333 480.5,57.5C 481.513,54.8122 482.513,52.1456 483.5,49.5 Z"/></g>
<g><path style="opacity:1" fill="#7d7879" d="M 484.5,51.5 C 486.104,52.287 486.771,53.6203 486.5,55.5C 485.325,55.719 484.325,55.3857 483.5,54.5C 484.127,53.5832 484.461,52.5832 484.5,51.5 Z"/></g>
<g><path style="opacity:1" fill="#9f9b9d" d="M 86.5,49.5 C 87.4682,51.6074 87.8016,53.9407 87.5,56.5C 88.791,56.2627 89.791,56.596 90.5,57.5C 89.1667,57.5 87.8333,57.5 86.5,57.5C 86.5,54.8333 86.5,52.1667 86.5,49.5 Z"/></g>
<g><path style="opacity:1" fill="#2a211f" d="M 94.5,48.5 C 100.572,49.7117 101.905,52.8784 98.5,58C 93,59.1667 90.8333,57 92,51.5C 93.045,50.6266 93.8783,49.6266 94.5,48.5 Z"/></g>
<g><path style="opacity:1" fill="#e8e7e8" d="M 94.5,50.5 C 98.4735,51.0755 99.4735,53.2421 97.5,57C 96.2161,57.6838 95.0495,57.5171 94,56.5C 93.3224,54.4024 93.4891,52.4024 94.5,50.5 Z"/></g>
<g><path style="opacity:1" fill="#9e9a9c" d="M 465.5,49.5 C 466.468,51.6074 466.802,53.9407 466.5,56.5C 467.791,56.2627 468.791,56.596 469.5,57.5C 468.167,57.5 466.833,57.5 465.5,57.5C 465.5,54.8333 465.5,52.1667 465.5,49.5 Z"/></g>
<g><path style="opacity:1" fill="#2e2523" d="M 473.5,48.5 C 479.572,49.7117 480.905,52.8784 477.5,58C 471.664,59.4938 469.498,57.3271 471,51.5C 472.045,50.6266 472.878,49.6266 473.5,48.5 Z"/></g>
<g><path style="opacity:1" fill="#e9e9e9" d="M 473.5,50.5 C 477.473,51.0755 478.473,53.2421 476.5,57C 475.216,57.6838 474.049,57.5171 473,56.5C 472.322,54.4024 472.489,52.4024 473.5,50.5 Z"/></g>
<g><path style="opacity:1" fill="#342c2a" d="M 496.5,50.5 C 497.496,50.4142 498.329,50.7476 499,51.5C 499.996,57.3339 497.496,59.6673 491.5,58.5C 491.5,55.5 491.5,52.5 491.5,49.5C 493.415,49.2155 495.081,49.5489 496.5,50.5 Z"/></g>
<g><path style="opacity:1" fill="#ebebeb" d="M 496.5,50.5 C 498.511,54.1649 497.511,56.1649 493.5,56.5C 493.5,54.5 493.5,52.5 493.5,50.5C 494.5,50.5 495.5,50.5 496.5,50.5 Z"/></g>
<g><path style="opacity:1" fill="#231915" d="M 49.5,63.5 C 84.8349,63.3333 120.168,63.5 155.5,64C 156.667,65.1667 157.833,66.3333 159,67.5C 159.667,84.1667 159.667,100.833 159,117.5C 157.786,119.049 156.286,120.215 154.5,121C 119.5,121.667 84.5,121.667 49.5,121C 48.3333,119.833 47.1667,118.667 46,117.5C 45.3333,100.833 45.3333,84.1667 46,67.5C 46.6897,65.6498 47.8564,64.3164 49.5,63.5 Z"/></g>
<g><path style="opacity:1" fill="#231a16" d="M 428.5,63.5 C 463.835,63.3333 499.168,63.5 534.5,64C 535.667,65.1667 536.833,66.3333 538,67.5C 538.667,84.1667 538.667,100.833 538,117.5C 536.786,119.049 535.286,120.215 533.5,121C 498.5,121.667 463.5,121.667 428.5,121C 427,120.167 425.833,119 425,117.5C 424.333,100.833 424.333,84.1667 425,67.5C 425.69,65.6498 426.856,64.3164 428.5,63.5 Z"/></g>
<g><path style="opacity:1" fill="#6c6668" d="M 154.5,71.5 C 153.711,71.2172 153.044,70.7172 152.5,70C 118.928,69.171 85.4285,69.3377 52,70.5C 51.1819,80.4107 51.3485,90.2441 52.5,100C 85.4983,100.5 118.498,100.667 151.5,100.5C 118.671,101.498 85.6709,101.832 52.5,101.5C 51.2502,101.423 50.4169,100.756 50,99.5C 49.3333,89.8333 49.3333,80.1667 50,70.5C 50.5,70 51,69.5 51.5,69C 85.5,68.3333 119.5,68.3333 153.5,69C 154.252,69.6708 154.586,70.5041 154.5,71.5 Z"/></g>
<g><path style="opacity:1" fill="#6c6769" d="M 533.5,71.5 C 532.711,71.2172 532.044,70.7172 531.5,70C 498.167,69.3333 464.833,69.3333 431.5,70C 430.514,80.0842 430.181,90.2509 430.5,100.5C 463.833,100.5 497.167,100.5 530.5,100.5C 497.671,101.498 464.671,101.832 431.5,101.5C 430.25,101.423 429.417,100.756 429,99.5C 428.333,89.8333 428.333,80.1667 429,70.5C 429.5,70 430,69.5 430.5,69C 464.5,68.3333 498.5,68.3333 532.5,69C 533.252,69.6708 533.586,70.5041 533.5,71.5 Z"/></g>
<g><path style="opacity:1" fill="#c6c4c6" d="M 154.5,71.5 C 154.5,80.8333 154.5,90.1667 154.5,99.5C 153.391,99.5569 152.391,99.8902 151.5,100.5C 118.498,100.667 85.4983,100.5 52.5,100C 51.3485,90.2441 51.1819,80.4107 52,70.5C 85.4285,69.3377 118.928,69.171 152.5,70C 153.044,70.7172 153.711,71.2172 154.5,71.5 Z"/></g>
<g><path style="opacity:1" fill="#4e4748" d="M 53.5,71.5 C 54.1667,71.5 54.5,71.8333 54.5,72.5C 54.5,81.1667 54.5,89.8333 54.5,98.5C 86.671,98.8316 118.671,98.4982 150.5,97.5C 151.167,89.5 151.833,81.5 152.5,73.5C 152.817,82.0851 152.483,90.5851 151.5,99C 118.833,99.6667 86.1667,99.6667 53.5,99C 52.1717,89.7351 52.1717,80.5685 53.5,71.5 Z"/></g>
<g><path style="opacity:1" fill="#ebebeb" d="M 54.5,72.5 C 86.5,72.5 118.5,72.5 150.5,72.5C 150.5,80.8333 150.5,89.1667 150.5,97.5C 118.671,98.4982 86.671,98.8316 54.5,98.5C 54.5,89.8333 54.5,81.1667 54.5,72.5 Z"/></g>
<g><path style="opacity:1" fill="#77787c" d="M 56.5,75.5 C 86.8333,75.5 117.167,75.5 147.5,75.5C 147.5,82.1667 147.5,88.8333 147.5,95.5C 117.167,95.5 86.8333,95.5 56.5,95.5C 56.5,88.8333 56.5,82.1667 56.5,75.5 Z"/></g>
<g><path style="opacity:1" fill="#a8a9ac" d="M 56.5,75.5 C 86.9955,74.5019 117.662,74.1685 148.5,74.5C 148.825,81.6866 148.491,88.6866 147.5,95.5C 147.5,88.8333 147.5,82.1667 147.5,75.5C 117.167,75.5 86.8333,75.5 56.5,75.5 Z"/></g>
<g><path style="opacity:1" fill="#6d686a" d="M 53.5,71.5 C 85.9974,70.3359 118.664,70.1692 151.5,71C 152.252,71.6708 152.586,72.5041 152.5,73.5C 151.833,81.5 151.167,89.5 150.5,97.5C 150.5,89.1667 150.5,80.8333 150.5,72.5C 118.5,72.5 86.5,72.5 54.5,72.5C 54.5,71.8333 54.1667,71.5 53.5,71.5 Z"/></g>
<g><path style="opacity:1" fill="#c6c4c6" d="M 533.5,71.5 C 533.5,80.8333 533.5,90.1667 533.5,99.5C 532.391,99.5569 531.391,99.8902 530.5,100.5C 497.167,100.5 463.833,100.5 430.5,100.5C 430.181,90.2509 430.514,80.0842 431.5,70C 464.833,69.3333 498.167,69.3333 531.5,70C 532.044,70.7172 532.711,71.2172 533.5,71.5 Z"/></g>
<g><path style="opacity:1" fill="#4f4949" d="M 432.5,71.5 C 433.167,71.5 433.5,71.8333 433.5,72.5C 433.5,81.1667 433.5,89.8333 433.5,98.5C 465.671,98.8316 497.671,98.4982 529.5,97.5C 530.167,89.5 530.833,81.5 531.5,73.5C 531.817,82.0851 531.483,90.5851 530.5,99C 497.502,99.5 464.502,99.6666 431.5,99.5C 431.173,89.985 431.506,80.6517 432.5,71.5 Z"/></g>
<g><path style="opacity:1" fill="#ebebeb" d="M 433.5,72.5 C 465.5,72.5 497.5,72.5 529.5,72.5C 529.5,80.8333 529.5,89.1667 529.5,97.5C 497.671,98.4982 465.671,98.8316 433.5,98.5C 433.5,89.8333 433.5,81.1667 433.5,72.5 Z"/></g>
<g><path style="opacity:1" fill="#77787c" d="M 435.5,75.5 C 465.833,75.5 496.167,75.5 526.5,75.5C 526.5,82.1667 526.5,88.8333 526.5,95.5C 496.167,95.5 465.833,95.5 435.5,95.5C 435.5,88.8333 435.5,82.1667 435.5,75.5 Z"/></g>
<g><path style="opacity:1" fill="#a9aaad" d="M 435.5,75.5 C 465.995,74.5019 496.662,74.1685 527.5,74.5C 527.825,81.6866 527.491,88.6866 526.5,95.5C 526.5,88.8333 526.5,82.1667 526.5,75.5C 496.167,75.5 465.833,75.5 435.5,75.5 Z"/></g>
<g><path style="opacity:1" fill="#6b6668" d="M 432.5,71.5 C 465.002,70.17 497.669,70.17 530.5,71.5C 530.863,72.1835 531.196,72.8501 531.5,73.5C 530.833,81.5 530.167,89.5 529.5,97.5C 529.5,89.1667 529.5,80.8333 529.5,72.5C 497.5,72.5 465.5,72.5 433.5,72.5C 433.5,71.8333 433.167,71.5 432.5,71.5 Z"/></g>
<g><path style="opacity:1" fill="#463e3f" d="M 154.5,99.5 C 154.047,100.458 153.381,101.292 152.5,102C 118.997,102.831 85.6641,102.664 52.5,101.5C 85.6709,101.832 118.671,101.498 151.5,100.5C 152.391,99.8902 153.391,99.5569 154.5,99.5 Z"/></g>
<g><path style="opacity:1" fill="#463e3f" d="M 533.5,99.5 C 533.423,100.75 532.756,101.583 531.5,102C 497.997,102.831 464.664,102.664 431.5,101.5C 464.671,101.832 497.671,101.498 530.5,100.5C 531.391,99.8902 532.391,99.5569 533.5,99.5 Z"/></g>
<g><path style="opacity:1" fill="#d8d7d7" d="M 103.5,108.5 C 103.5,109.5 103.5,110.5 103.5,111.5C 102.713,113.104 101.38,113.771 99.5,113.5C 99.7148,115.179 99.0481,116.179 97.5,116.5C 97.5,113.5 97.5,110.5 97.5,107.5C 99.68,106.206 101.68,106.539 103.5,108.5 Z"/></g>
<g><path style="opacity:1" fill="#efeeee" d="M 108.5,107.5 C 110.26,113.961 111.593,113.961 112.5,107.5C 113.5,107.5 114.5,107.5 115.5,107.5C 115.5,110.5 115.5,113.5 115.5,116.5C 115.167,116.5 114.833,116.5 114.5,116.5C 114.663,114.143 114.497,111.81 114,109.5C 112.812,110.563 112.312,111.897 112.5,113.5C 112.585,114.995 111.919,115.995 110.5,116.5C 108.889,115.68 108.222,114.346 108.5,112.5C 108.539,111.244 108.039,110.244 107,109.5C 106.503,111.81 106.337,114.143 106.5,116.5C 106.167,116.5 105.833,116.5 105.5,116.5C 105.5,113.5 105.5,110.5 105.5,107.5C 106.5,107.5 107.5,107.5 108.5,107.5 Z"/></g>
<g><path style="opacity:1" fill="#d5d3d4" d="M 473.5,106.5 C 480.238,107.061 481.905,110.228 478.5,116C 472.507,117.668 470.007,115.502 471,109.5C 471.698,108.309 472.531,107.309 473.5,106.5 Z"/></g>
<g><path style="opacity:1" fill="#dcdbdc" d="M 485.5,113.5 C 485.539,112.244 485.039,111.244 484,110.5C 483.505,112.473 483.338,114.473 483.5,116.5C 481.598,113.663 480.931,110.329 481.5,106.5C 484.47,107.308 486.303,109.308 487,112.5C 487.192,110.423 487.692,108.423 488.5,106.5C 489.487,109.768 489.82,113.102 489.5,116.5C 488.5,116.5 487.5,116.5 486.5,116.5C 486.737,115.209 486.404,114.209 485.5,113.5 Z"/></g>
<g><path style="opacity:1" fill="#a4a0a3" d="M 93.5,107.5 C 92.1667,107.5 90.8333,107.5 89.5,107.5C 89.5,110.5 89.5,113.5 89.5,116.5C 88.5206,113.375 88.1872,110.042 88.5,106.5C 90.4147,106.216 92.0813,106.549 93.5,107.5 Z"/></g>
<g><path style="opacity:1" fill="#8e8a8c" d="M 112.5,107.5 C 113.568,106.566 114.901,106.232 116.5,106.5C 116.813,110.042 116.479,113.375 115.5,116.5C 115.5,113.5 115.5,110.5 115.5,107.5C 114.5,107.5 113.5,107.5 112.5,107.5 Z"/></g>
<g><path style="opacity:1" fill="#e5e4e4" d="M 495.5,114.5 C 496.209,115.404 497.209,115.737 498.5,115.5C 498.64,113.876 497.973,112.71 496.5,112C 497.448,111.517 498.448,111.351 499.5,111.5C 499.5,113.167 499.5,114.833 499.5,116.5C 492.512,117.352 490.178,114.519 492.5,108C 494.769,106.442 497.102,106.276 499.5,107.5C 495.619,107.872 493.785,109.872 494,113.5C 494.383,114.056 494.883,114.389 495.5,114.5 Z"/></g>
<g><path style="opacity:1" fill="#4b4545" d="M 99.5,109.5 C 101.337,109.639 101.67,110.306 100.5,111.5C 99.7025,111.043 99.3691,110.376 99.5,109.5 Z"/></g>
<g><path style="opacity:1" fill="#7d7779" d="M 108.5,107.5 C 107.5,107.5 106.5,107.5 105.5,107.5C 105.5,110.5 105.5,113.5 105.5,116.5C 104.833,114.833 104.167,113.167 103.5,111.5C 103.5,110.5 103.5,109.5 103.5,108.5C 104.976,106.568 106.643,106.235 108.5,107.5 Z"/></g>
<g><path style="opacity:1" fill="#29211e" d="M 473.5,108.5 C 477.068,108.759 478.401,110.759 477.5,114.5C 472.74,114.799 471.406,112.799 473.5,108.5 Z"/></g>
<g><path style="opacity:1" fill="#7f7a7c" d="M 499.5,111.5 C 498.448,111.351 497.448,111.517 496.5,112C 497.973,112.71 498.64,113.876 498.5,115.5C 497.209,115.737 496.209,115.404 495.5,114.5C 496.239,114.631 496.906,114.464 497.5,114C 496.027,113.29 495.36,112.124 495.5,110.5C 497.099,110.232 498.432,110.566 499.5,111.5 Z"/></g>
<g><path style="opacity:1" fill="#938f91" d="M 108.5,112.5 C 107.833,113.833 107.167,115.167 106.5,116.5C 106.337,114.143 106.503,111.81 107,109.5C 108.039,110.244 108.539,111.244 108.5,112.5 Z"/></g>
<g><path style="opacity:1" fill="#d6d4d5" d="M 93.5,107.5 C 95.3079,108.918 95.9746,110.918 95.5,113.5C 95.5,113.833 95.5,114.167 95.5,114.5C 94.0101,116.28 92.0101,116.946 89.5,116.5C 89.5,113.5 89.5,110.5 89.5,107.5C 90.8333,107.5 92.1667,107.5 93.5,107.5 Z"/></g>
<g><path style="opacity:1" fill="#706b6c" d="M 485.5,113.5 C 484.833,114.5 484.167,115.5 483.5,116.5C 483.338,114.473 483.505,112.473 484,110.5C 485.039,111.244 485.539,112.244 485.5,113.5 Z"/></g>
<g><path style="opacity:1" fill="#716c6d" d="M 90.5,112.5 C 93.9571,112.667 94.2904,113.667 91.5,115.5C 90.6143,114.675 90.281,113.675 90.5,112.5 Z"/></g>
<g><path style="opacity:1" fill="#6a6465" d="M 97.5,107.5 C 97.5,110.5 97.5,113.5 97.5,116.5C 96.8333,115.833 96.1667,115.167 95.5,114.5C 95.5,114.167 95.5,113.833 95.5,113.5C 96.1667,111.5 96.8333,109.5 97.5,107.5 Z"/></g>
<g><path style="opacity:1" fill="#948f92" d="M 114.5,116.5 C 113.833,115.5 113.167,114.5 112.5,113.5C 112.312,111.897 112.812,110.563 114,109.5C 114.497,111.81 114.663,114.143 114.5,116.5 Z"/></g>
<g><path style="opacity:1" fill="#d9d8d9" d="M 464.5,106.5 C 469.11,106.596 469.444,107.596 465.5,109.5C 466.347,110.845 467.513,111.845 469,112.5C 469.684,113.784 469.517,114.951 468.5,116C 466.833,116.667 465.167,116.667 463.5,116C 464.624,115.751 465.624,115.251 466.5,114.5C 464.903,113.209 463.57,111.709 462.5,110C 462.978,108.697 463.645,107.531 464.5,106.5 Z"/></g>
<g><path style="opacity:1" fill="#27211f" d="M 285.5,61.5 C 310.298,60.6402 326.465,71.9735 334,95.5C 336.39,120.894 325.557,137.728 301.5,146C 277.417,149.235 260.584,139.735 251,117.5C 245.625,97.458 251.125,81.2913 267.5,69C 273.133,65.4062 279.133,62.9062 285.5,61.5 Z"/></g>
<g><path style="opacity:1" fill="#ecebec" d="M 285.5,63.5 C 306.09,62.5381 320.923,71.2047 330,89.5C 336.056,116.219 326.223,134.386 300.5,144C 274.778,146.605 258.611,135.438 252,110.5C 250.599,85.7518 261.766,70.0852 285.5,63.5 Z"/></g>
<g><path style="opacity:1" fill="#514b4b" d="M 271.5,75.5 C 274.475,72.3389 278.142,70.1723 282.5,69C 304.584,65.9491 319.417,74.7825 327,95.5C 329.73,118.214 320.23,133.047 298.5,140C 270.705,140.873 256.538,127.373 256,99.5C 257.448,88.9243 262.615,80.9243 271.5,75.5 Z"/></g>
<g><path style="opacity:1" fill="#f2f2f2" d="M 271.5,75.5 C 289.135,65.7237 304.969,68.057 319,82.5C 330.434,101.395 327.934,118.228 311.5,133C 294.987,141.751 279.821,139.918 266,127.5C 253.188,108.56 255.022,91.2267 271.5,75.5 Z"/></g>
<g><path style="opacity:1" fill="#bcbabc" d="M 320.5,107.5 C 320.261,109.467 320.594,111.301 321.5,113C 320.934,113.995 320.267,114.828 319.5,115.5C 318.244,115.539 317.244,115.039 316.5,114C 317.649,112.396 317.649,110.73 316.5,109C 317.158,106.5 318.491,106 320.5,107.5 Z"/></g>
<g><path style="opacity:1" fill="#6d6869" d="M 284.5,75.5 C 285.779,76.968 287.446,77.6347 289.5,77.5C 290.568,78.4345 291.901,78.7678 293.5,78.5C 295.809,78.0124 297.809,77.0124 299.5,75.5C 299.5,76.1667 299.5,76.8333 299.5,77.5C 299.5,78.5 299.5,79.5 299.5,80.5C 300.5,80.5 301.5,80.5 302.5,80.5C 304.216,80.6287 305.883,80.962 307.5,81.5C 307.358,85.2231 308.691,86.0564 311.5,84C 310.244,83.5831 309.577,82.7498 309.5,81.5C 311.728,81.7769 313.395,82.7769 314.5,84.5C 315.943,87.1615 317.61,89.8282 319.5,92.5C 321.639,94.1391 321.973,96.1391 320.5,98.5C 321.4,100.239 322.067,102.072 322.5,104C 322.613,105.699 321.947,106.866 320.5,107.5C 318.491,106 317.158,106.5 316.5,109C 317.649,110.73 317.649,112.396 316.5,114C 317.244,115.039 318.244,115.539 319.5,115.5C 317.613,118.526 315.946,121.692 314.5,125C 311.791,125.541 309.791,127.041 308.5,129.5C 307.476,128.147 306.143,127.48 304.5,127.5C 304.36,129.124 305.027,130.29 306.5,131C 304.527,131.495 302.527,131.662 300.5,131.5C 300.074,133.285 298.908,134.285 297,134.5C 293.667,133.167 290.333,133.167 287,134.5C 284.908,133.742 283.075,132.575 281.5,131C 285.18,131.258 285.346,130.092 282,127.5C 281.085,128.328 280.419,129.328 280,130.5C 279.517,129.552 279.351,128.552 279.5,127.5C 278.07,127.421 276.736,127.754 275.5,128.5C 273.869,126.703 271.869,125.536 269.5,125C 271.497,123.847 271.83,122.347 270.5,120.5C 268.262,123.433 267.262,123.099 267.5,119.5C 268.5,119.5 269.5,119.5 270.5,119.5C 270.317,117.012 269.317,115.012 267.5,113.5C 266.262,112.588 264.928,112.421 263.5,113C 264.925,114.362 265.758,115.862 266,117.5C 262.651,115.619 261.817,112.952 263.5,109.5C 262.6,107.761 261.933,105.928 261.5,104C 262.322,101.528 262.989,99.0284 263.5,96.5C 265.359,96.5391 266.692,95.7058 267.5,94C 265.915,93.9152 264.582,93.7486 263.5,93.5C 266.059,91.0478 267.559,88.0478 268,84.5C 269.444,82.8446 271.278,82.178 273.5,82.5C 274.067,80.9705 274.733,79.4705 275.5,78C 278.617,77.8422 281.617,77.0089 284.5,75.5 Z"/></g>
<g><path style="opacity:1" fill="#f2f2f2" d="M 295.5,130.5 C 298.957,130.667 299.29,131.667 296.5,133.5C 295.614,132.675 295.281,131.675 295.5,130.5 Z"/></g>
<g><path style="opacity:1" fill="#f2f1f1" d="M 289.5,129.5 C 290.978,129.238 292.311,129.571 293.5,130.5C 292.833,130.833 292.167,131.167 291.5,131.5C 290.287,131.253 289.62,130.586 289.5,129.5 Z"/></g>
<g><path style="opacity:1" fill="#f3f3f3" d="M 285.5,130.5 C 286.5,130.5 287.5,130.5 288.5,130.5C 288.5,131.5 288.5,132.5 288.5,133.5C 287.5,133.5 286.5,133.5 285.5,133.5C 285.5,132.5 285.5,131.5 285.5,130.5 Z"/></g>
<g><path style="opacity:1" fill="#e7e7e7" d="M 300.5,131.5 C 299.133,129.907 299.466,128.574 301.5,127.5C 302.308,127.808 302.975,128.308 303.5,129C 302.429,129.852 301.429,130.685 300.5,131.5 Z"/></g>
<g><path style="opacity:1" fill="#d5d4d5" d="M 311.5,91.5 C 312.712,92.2299 313.712,93.2299 314.5,94.5C 315.016,98.0498 316.016,101.383 317.5,104.5C 316.223,110.485 314.223,116.152 311.5,121.5C 307.651,121.019 305.651,122.686 305.5,126.5C 301.816,125.971 298.65,126.971 296,129.5C 293.152,128.217 290.318,128.217 287.5,129.5C 285.08,126.923 282.08,125.923 278.5,126.5C 278.567,125.041 278.234,123.708 277.5,122.5C 278.833,122.833 280.167,123.167 281.5,123.5C 288.485,126.087 295.485,126.087 302.5,123.5C 304.027,123.573 305.027,122.906 305.5,121.5C 306.5,119.833 307.833,118.5 309.5,117.5C 313.017,113.793 314.684,109.293 314.5,104C 314.418,99.5919 313.418,95.4253 311.5,91.5 Z"/></g>
<g><path style="opacity:1" fill="#e9e9e9" d="M 311.5,123.5 C 310.535,126.085 309.201,126.585 307.5,125C 308.158,122.5 309.491,122 311.5,123.5 Z"/></g>
<g><path style="opacity:1" fill="#eae9e9" d="M 275.5,122.5 C 276.719,126.986 275.719,127.486 272.5,124C 273.244,122.961 274.244,122.461 275.5,122.5 Z"/></g>
<g><path style="opacity:1" fill="#787476" d="M 305.5,121.5 C 305.027,122.906 304.027,123.573 302.5,123.5C 302.973,122.094 303.973,121.427 305.5,121.5 Z"/></g>
<g><path style="opacity:1" fill="#ebeaea" d="M 311.5,123.5 C 311.5,122.833 311.5,122.167 311.5,121.5C 312.985,120.065 314.318,120.232 315.5,122C 314.437,123.188 313.103,123.688 311.5,123.5 Z"/></g>
<g><path style="opacity:1" fill="#ecebec" d="M 271.5,115.5 C 273.471,117.808 275.471,120.142 277.5,122.5C 276.833,122.5 276.167,122.5 275.5,122.5C 274.791,121.596 273.791,121.263 272.5,121.5C 272.483,119.435 272.15,117.435 271.5,115.5 Z"/></g>
<g><path style="opacity:1" fill="#f2f2f2" d="M 314.5,115.5 C 316.807,116.405 316.807,117.738 314.5,119.5C 313.374,118.192 313.374,116.858 314.5,115.5 Z"/></g>
<g><path style="opacity:1" fill="#888487" d="M 281.5,123.5 C 280.167,123.167 278.833,122.833 277.5,122.5C 275.471,120.142 273.471,117.808 271.5,115.5C 269.887,110.993 269.221,106.327 269.5,101.5C 269.98,96.874 271.813,92.874 275,89.5C 267.604,102.593 269.77,113.927 281.5,123.5 Z"/></g>
<g><path style="opacity:1" fill="#928f92" d="M 307.5,88.5 C 308.833,89.5 310.167,90.5 311.5,91.5C 313.418,95.4253 314.418,99.5919 314.5,104C 314.684,109.293 313.017,113.793 309.5,117.5C 313.919,110.075 314.419,102.409 311,94.5C 309.579,92.5952 308.412,90.5952 307.5,88.5 Z"/></g>
<g><path style="opacity:1" fill="#dbdadb" d="M 268.5,99.5 C 268.328,100.492 268.662,101.158 269.5,101.5C 269.221,106.327 269.887,110.993 271.5,115.5C 270.395,114.4 269.062,113.733 267.5,113.5C 268.218,111.863 268.384,110.197 268,108.5C 267.29,109.973 266.124,110.64 264.5,110.5C 264.238,109.022 264.571,107.689 265.5,106.5C 266.396,107.506 267.062,107.506 267.5,106.5C 266.167,105.167 266.167,103.833 267.5,102.5C 266.675,101.614 265.675,101.281 264.5,101.5C 264.5,100.167 264.5,98.8333 264.5,97.5C 266.199,97.5271 267.533,98.1938 268.5,99.5 Z"/></g>
<g><path style="opacity:1" fill="#ebebeb" d="M 262.5,102.5 C 263.5,102.5 264.5,102.5 265.5,102.5C 265.5,103.5 265.5,104.5 265.5,105.5C 264.5,105.5 263.5,105.5 262.5,105.5C 262.5,104.5 262.5,103.5 262.5,102.5 Z"/></g>
<g><path style="opacity:1" fill="#f4f3f3" d="M 318.5,102.5 C 319.5,102.5 320.5,102.5 321.5,102.5C 321.5,103.5 321.5,104.5 321.5,105.5C 320.5,105.5 319.5,105.5 318.5,105.5C 318.5,104.5 318.5,103.5 318.5,102.5 Z"/></g>
<g><path style="opacity:1" fill="#f3f3f3" d="M 316.5,97.5 C 317.5,97.5 318.5,97.5 319.5,97.5C 318.941,102.639 317.941,102.639 316.5,97.5 Z"/></g>
<g><path style="opacity:1" fill="#e0dfe0" d="M 319.5,92.5 C 319.762,93.9778 319.429,95.3112 318.5,96.5C 315.806,94.5365 316.139,93.2032 319.5,92.5 Z"/></g>
<g><path style="opacity:1" fill="#f4f4f4" d="M 313.5,88.5 C 315.832,89.1617 316.499,90.495 315.5,92.5C 313.889,91.6798 313.222,90.3464 313.5,88.5 Z"/></g>
<g><path style="opacity:1" fill="#f0efef" d="M 268.5,88.5 C 271.218,90.0878 271.052,91.4212 268,92.5C 267.5,92.3333 267,92.1667 266.5,92C 267.305,90.8873 267.972,89.7206 268.5,88.5 Z"/></g>
<g><path style="opacity:1" fill="#e8e7e8" d="M 269.5,84.5 C 273.075,85.2068 273.242,86.2068 270,87.5C 268.317,86.8235 268.15,85.8235 269.5,84.5 Z"/></g>
<g><path style="opacity:1" fill="#efefef" d="M 314.5,84.5 C 315.227,87.476 314.227,87.976 311.5,86C 312.244,84.9614 313.244,84.4614 314.5,84.5 Z"/></g>
<g><path style="opacity:1" fill="#fcfcfc" d="M 311.5,91.5 C 310.167,90.5 308.833,89.5 307.5,88.5C 308.412,90.5952 309.579,92.5952 311,94.5C 314.419,102.409 313.919,110.075 309.5,117.5C 307.833,118.5 306.5,119.833 305.5,121.5C 303.973,121.427 302.973,122.094 302.5,123.5C 295.485,126.087 288.485,126.087 281.5,123.5C 269.77,113.927 267.604,102.593 275,89.5C 271.813,92.874 269.98,96.874 269.5,101.5C 268.662,101.158 268.328,100.492 268.5,99.5C 268.67,98.1779 268.337,97.0113 267.5,96C 270.596,93.9713 272.262,91.138 272.5,87.5C 275.988,86.8566 278.488,84.8566 280,81.5C 280.414,81.9574 280.914,82.2907 281.5,82.5C 283.828,81.7827 285.995,80.7827 288,79.5C 290.667,80.8333 293.333,80.8333 296,79.5C 298.005,80.7827 300.172,81.7827 302.5,82.5C 303.086,82.2907 303.586,81.9574 304,81.5C 305.512,84.8566 308.012,86.8566 311.5,87.5C 311.5,88.8333 311.5,90.1667 311.5,91.5 Z"/></g>
<g><path style="opacity:1" fill="#8e8a8d" d="M 307.5,88.5 C 304.996,86.8557 302.329,85.3557 299.5,84C 294.5,83.3333 289.5,83.3333 284.5,84C 282.141,85.3575 279.807,86.3575 277.5,87C 284.37,81.4318 292.037,80.0985 300.5,83C 303.595,83.9354 305.929,85.7687 307.5,88.5 Z"/></g>
<g><path style="opacity:1" fill="#f0f0f0" d="M 307.5,81.5 C 308.167,81.5 308.833,81.5 309.5,81.5C 309.577,82.7498 310.244,83.5831 311.5,84C 308.691,86.0564 307.358,85.2231 307.5,81.5 Z"/></g>
<g><path style="opacity:1" fill="#f5f5f5" d="M 273.5,82.5 C 275.355,82.272 276.188,82.9387 276,84.5C 273.366,85.6922 272.532,85.0256 273.5,82.5 Z"/></g>
<g><path style="opacity:1" fill="#e8e7e8" d="M 276.5,78.5 C 279.957,78.6672 280.29,79.6672 277.5,81.5C 276.614,80.675 276.281,79.675 276.5,78.5 Z"/></g>
<g><path style="opacity:1" fill="#9a9799" d="M 299.5,75.5 C 300.807,76.1534 302.14,76.8201 303.5,77.5C 304.451,76.6744 305.451,76.5078 306.5,77C 308.439,77.9078 309.439,79.4078 309.5,81.5C 308.833,81.5 308.167,81.5 307.5,81.5C 305.883,80.962 304.216,80.6287 302.5,80.5C 303.195,78.5627 302.195,77.5627 299.5,77.5C 299.5,76.8333 299.5,76.1667 299.5,75.5 Z"/></g>
<g><path style="opacity:1" fill="#f5f5f5" d="M 299.5,77.5 C 302.195,77.5627 303.195,78.5627 302.5,80.5C 301.5,80.5 300.5,80.5 299.5,80.5C 299.5,79.5 299.5,78.5 299.5,77.5 Z"/></g>
<g><path style="opacity:1" fill="#f5f4f5" d="M 282.5,77.5 C 284.048,77.8212 284.715,78.8212 284.5,80.5C 280.75,80.4962 280.083,79.4962 282.5,77.5 Z"/></g>
<g><path style="opacity:1" fill="#f9f8f9" d="M 293.5,78.5 C 291.901,78.7678 290.568,78.4345 289.5,77.5C 289.917,76.8761 290.584,76.5427 291.5,76.5C 292.713,76.7472 293.38,77.4138 293.5,78.5 Z"/></g>
<g><path style="opacity:1" fill="#a4a1a3" d="M 299.5,75.5 C 297.809,77.0124 295.809,78.0124 293.5,78.5C 293.38,77.4138 292.713,76.7472 291.5,76.5C 290.584,76.5427 289.917,76.8761 289.5,77.5C 287.446,77.6347 285.779,76.968 284.5,75.5C 284.962,74.1201 285.962,73.4534 287.5,73.5C 290.343,74.7705 293.177,74.7705 296,73.5C 297.459,73.8082 298.626,74.4749 299.5,75.5 Z"/></g>
<g><path style="opacity:1" fill="#7d7a7c" d="M 16.5,144.5 C 73.8372,144.167 131.171,144.5 188.5,145.5C 159.833,145.833 131.167,146.167 102.5,146.5C 73.4921,146.5 44.8255,145.833 16.5,144.5 Z"/></g>
<g><path style="opacity:1" fill="#7d7a7c" d="M 395.5,144.5 C 452.837,144.167 510.171,144.5 567.5,145.5C 538.833,145.833 510.167,146.167 481.5,146.5C 452.492,146.5 423.825,145.833 395.5,144.5 Z"/></g>
<g><path style="opacity:1" fill="#f1f1f1" d="M 135.5,176.5 C 135.674,178.861 136.007,181.194 136.5,183.5C 136.5,185.167 136.5,186.833 136.5,188.5C 134.167,188.5 131.833,188.5 129.5,188.5C 130.263,187.732 131.263,187.232 132.5,187C 131.718,184.26 131.218,181.426 131,178.5C 130.333,177.167 129.333,176.167 128,175.5C 127.744,170.077 124.911,167.077 119.5,166.5C 119.715,164.821 119.048,163.821 117.5,163.5C 116.054,162.387 114.387,162.22 112.5,163C 113.985,164.756 113.652,165.923 111.5,166.5C 110.722,165.844 110.056,165.011 109.5,164C 110.187,162.838 110.353,161.672 110,160.5C 108.018,158.214 105.518,156.881 102.5,156.5C 99.1082,158.019 95.7749,159.852 92.5,162C 90.5,162.333 88.5,162.667 86.5,163C 85.6634,164.011 85.33,165.178 85.5,166.5C 83.6284,167.511 81.6284,168.345 79.5,169C 79.3193,171.894 77.986,174.394 75.5,176.5C 74.7784,176.918 74.2784,177.584 74,178.5C 73.5026,181.146 73.3359,183.813 73.5,186.5C 73.0618,186.435 72.7284,186.601 72.5,187C 73.7375,187.232 74.7375,187.732 75.5,188.5C 73.1667,188.5 70.8333,188.5 68.5,188.5C 68.5,185.5 68.5,182.5 68.5,179.5C 70.0697,176.686 71.4031,173.686 72.5,170.5C 91.6479,149.502 111.148,149.169 131,169.5C 132.524,171.898 134.024,174.231 135.5,176.5 Z"/></g>
<g><path style="opacity:1" fill="#eeeeee" d="M 512.5,172.5 C 513.91,176.397 514.91,180.397 515.5,184.5C 515.5,185.833 515.5,187.167 515.5,188.5C 514.167,188.5 512.833,188.5 511.5,188.5C 511.131,186.559 510.464,184.725 509.5,183C 510.554,181.612 510.72,180.112 510,178.5C 507.265,175.901 505.432,173.235 504.5,170.5C 504.38,169.414 503.713,168.747 502.5,168.5C 501.287,168.747 500.62,169.414 500.5,170.5C 496.062,170.117 495.395,168.284 498.5,165C 498.167,164.5 497.833,164 497.5,163.5C 495.253,162.626 492.92,162.292 490.5,162.5C 489.599,160.273 487.933,159.273 485.5,159.5C 485.5,158.5 485.5,157.5 485.5,156.5C 482.813,156.336 480.146,156.503 477.5,157C 476.833,158.333 475.833,159.333 474.5,160C 477.19,160.335 477.857,161.501 476.5,163.5C 474.878,164.122 473.545,165.122 472.5,166.5C 470.348,165.923 470.015,164.756 471.5,163C 469.5,162.333 467.5,162.333 465.5,163C 463.584,166.585 460.751,169.085 457,170.5C 456.383,171.449 456.549,172.282 457.5,173C 455.924,174.73 454.59,176.563 453.5,178.5C 452.566,179.568 452.232,180.901 452.5,182.5C 454.099,182.232 455.432,182.566 456.5,183.5C 456.5,183.833 456.5,184.167 456.5,184.5C 455.542,187.125 454.376,187.125 453,184.5C 452.626,185.416 452.126,186.25 451.5,187C 452.737,187.232 453.737,187.732 454.5,188.5C 451.833,188.5 449.167,188.5 446.5,188.5C 446.953,182.143 448.62,176.143 451.5,170.5C 465.398,153.555 482.065,150.388 501.5,161C 505.398,164.729 509.065,168.562 512.5,172.5 Z"/></g>
<g><path style="opacity:1" fill="#393333" d="M 512.5,172.5 C 509.065,168.562 505.398,164.729 501.5,161C 482.065,150.388 465.398,153.555 451.5,170.5C 451.709,169.078 452.209,167.745 453,166.5C 463.018,155.083 475.518,150.916 490.5,154C 500.492,157.17 507.825,163.337 512.5,172.5 Z"/></g>
<g><path style="opacity:1" fill="#f1f0f0" d="M 100.5,161.5 C 101.833,161.5 103.167,161.5 104.5,161.5C 104.5,170.5 104.5,179.5 104.5,188.5C 103.167,188.5 101.833,188.5 100.5,188.5C 100.5,179.5 100.5,170.5 100.5,161.5 Z"/></g>
<g><path style="opacity:1" fill="#3d3837" d="M 135.5,176.5 C 134.024,174.231 132.524,171.898 131,169.5C 111.148,149.169 91.6479,149.502 72.5,170.5C 76.0689,164.346 81.0689,159.513 87.5,156C 102.222,150.785 115.556,153.119 127.5,163C 131.709,166.681 134.375,171.181 135.5,176.5 Z"/></g>
<g><path style="opacity:1" fill="#f3f3f3" d="M 479.5,161.5 C 480.833,161.5 482.167,161.5 483.5,161.5C 483.5,170.5 483.5,179.5 483.5,188.5C 482.167,188.5 480.833,188.5 479.5,188.5C 479.5,179.5 479.5,170.5 479.5,161.5 Z"/></g>
<g><path style="opacity:1" fill="#6c6769" d="M 490.5,162.5 C 492.92,162.292 495.253,162.626 497.5,163.5C 497.833,164 498.167,164.5 498.5,165C 495.395,168.284 496.062,170.117 500.5,170.5C 502.192,174.265 503.525,174.265 504.5,170.5C 505.432,173.235 507.265,175.901 510,178.5C 510.72,180.112 510.554,181.612 509.5,183C 510.464,184.725 511.131,186.559 511.5,188.5C 509.833,188.5 508.167,188.5 506.5,188.5C 504.406,186.449 504.073,184.116 505.5,181.5C 505.145,180.478 504.478,179.811 503.5,179.5C 503.5,179.167 503.5,178.833 503.5,178.5C 501.933,177.319 501.099,175.653 501,173.5C 499.989,172.663 498.822,172.33 497.5,172.5C 496.524,171.185 495.524,169.852 494.5,168.5C 491.157,167.901 488.157,166.568 485.5,164.5C 484.261,166.007 484.595,167.174 486.5,168C 484.562,174.548 483.895,181.382 484.5,188.5C 484.167,188.5 483.833,188.5 483.5,188.5C 483.5,179.5 483.5,170.5 483.5,161.5C 482.167,161.5 480.833,161.5 479.5,161.5C 478.778,162.551 477.778,163.218 476.5,163.5C 477.857,161.501 477.19,160.335 474.5,160C 475.833,159.333 476.833,158.333 477.5,157C 480.146,156.503 482.813,156.336 485.5,156.5C 485.5,157.5 485.5,158.5 485.5,159.5C 487.933,159.273 489.599,160.273 490.5,162.5 Z"/></g>
<g><path style="opacity:1" fill="#deddde" d="M 485.5,160.5 C 487.048,160.821 487.715,161.821 487.5,163.5C 484.752,163.598 484.086,162.598 485.5,160.5 Z"/></g>
<g><path style="opacity:1" fill="#f6f6f6" d="M 478.5,157.5 C 480.5,157.5 482.5,157.5 484.5,157.5C 484.5,158.5 484.5,159.5 484.5,160.5C 482.5,160.5 480.5,160.5 478.5,160.5C 478.5,159.5 478.5,158.5 478.5,157.5 Z"/></g>
<g><path style="opacity:1" fill="#f0f0f0" d="M 490.5,162.5 C 493.04,164.666 492.373,165.666 488.5,165.5C 488.285,163.821 488.952,162.821 490.5,162.5 Z"/></g>
<g><path style="opacity:1" fill="#f5f5f5" d="M 494.5,163.5 C 497.595,164.119 497.929,165.119 495.5,166.5C 493.481,165.867 493.147,164.867 494.5,163.5 Z"/></g>
<g><path style="opacity:1" fill="#757072" d="M 111.5,166.5 C 109.516,166.617 107.85,165.95 106.5,164.5C 105.614,165.325 105.281,166.325 105.5,167.5C 107.401,167.246 108.067,167.58 107.5,168.5C 105.541,174.75 104.874,181.416 105.5,188.5C 105.167,188.5 104.833,188.5 104.5,188.5C 104.5,179.5 104.5,170.5 104.5,161.5C 103.167,161.5 101.833,161.5 100.5,161.5C 99.2209,162.968 97.5542,163.635 95.5,163.5C 93.8472,162.471 92.5139,162.971 91.5,165C 91.8361,166.03 92.5028,166.53 93.5,166.5C 91.2889,167.111 89.6223,168.444 88.5,170.5C 86.8583,172.081 84.8583,172.747 82.5,172.5C 82.5,174.167 82.5,175.833 82.5,177.5C 80.1073,178.353 78.774,180.019 78.5,182.5C 78.5654,182.938 78.3988,183.272 78,183.5C 76.9326,182.809 75.7659,182.309 74.5,182C 75.448,181.517 76.448,181.351 77.5,181.5C 77.6085,179.486 76.9418,177.82 75.5,176.5C 77.986,174.394 79.3193,171.894 79.5,169C 81.6284,168.345 83.6284,167.511 85.5,166.5C 85.33,165.178 85.6634,164.011 86.5,163C 88.5,162.667 90.5,162.333 92.5,162C 95.7749,159.852 99.1082,158.019 102.5,156.5C 105.518,156.881 108.018,158.214 110,160.5C 110.353,161.672 110.187,162.838 109.5,164C 110.056,165.011 110.722,165.844 111.5,166.5 Z"/></g>
<g><path style="opacity:1" fill="#e5e5e5" d="M 95.5,163.5 C 95.2178,164.778 94.5511,165.778 93.5,166.5C 92.5028,166.53 91.8361,166.03 91.5,165C 92.5139,162.971 93.8472,162.471 95.5,163.5 Z"/></g>
<g><path style="opacity:1" fill="#e9e8e9" d="M 86.5,166.5 C 86.963,163.431 88.2963,162.931 90.5,165C 89.4366,166.188 88.1033,166.688 86.5,166.5 Z"/></g>
<g><path style="opacity:1" fill="#e5e4e5" d="M 106.5,160.5 C 108.465,160.948 108.798,161.948 107.5,163.5C 105.481,162.867 105.147,161.867 106.5,160.5 Z"/></g>
<g><path style="opacity:1" fill="#f6f6f7" d="M 99.5,157.5 C 101.5,157.5 103.5,157.5 105.5,157.5C 105.5,158.5 105.5,159.5 105.5,160.5C 103.5,160.5 101.5,160.5 99.5,160.5C 99.5,159.5 99.5,158.5 99.5,157.5 Z"/></g>
<g><path style="opacity:1" fill="#6d6869" d="M 472.5,166.5 C 471.081,167.451 469.415,167.784 467.5,167.5C 467.349,171.314 465.349,172.981 461.5,172.5C 461.657,173.873 461.49,175.207 461,176.5C 458.976,178.561 457.476,180.894 456.5,183.5C 455.432,182.566 454.099,182.232 452.5,182.5C 452.232,180.901 452.566,179.568 453.5,178.5C 454.59,176.563 455.924,174.73 457.5,173C 456.549,172.282 456.383,171.449 457,170.5C 460.751,169.085 463.584,166.585 465.5,163C 467.5,162.333 469.5,162.333 471.5,163C 470.015,164.756 470.348,165.923 472.5,166.5 Z"/></g>
<g><path style="opacity:1" fill="#ecebec" d="M 465.5,166.5 C 465.963,163.431 467.296,162.931 469.5,165C 468.437,166.188 467.103,166.688 465.5,166.5 Z"/></g>
<g><path style="opacity:1" fill="#eeedee" d="M 85.5,166.5 C 85.8333,166.5 86.1667,166.5 86.5,166.5C 87.8886,169.778 86.8886,170.778 83.5,169.5C 84.1925,168.482 84.8592,167.482 85.5,166.5 Z"/></g>
<g><path style="opacity:1" fill="#645e5e" d="M 234.5,153.5 C 272.833,153.5 311.167,153.5 349.5,153.5C 349.5,158.5 349.5,163.5 349.5,168.5C 311.167,168.5 272.833,168.5 234.5,168.5C 234.5,163.5 234.5,158.5 234.5,153.5 Z"/></g>
<g><path style="opacity:1" fill="#1b120e" d="M 235.5,154.5 C 273.167,154.5 310.833,154.5 348.5,154.5C 348.5,158.833 348.5,163.167 348.5,167.5C 310.833,167.5 273.167,167.5 235.5,167.5C 235.5,163.167 235.5,158.833 235.5,154.5 Z"/></g>
<g><path style="opacity:1" fill="#e3e2e3" d="M 285.5,156.5 C 286.833,156.5 288.167,156.5 289.5,156.5C 289.396,159.09 290.063,161.423 291.5,163.5C 291.167,164.167 290.833,164.833 290.5,165.5C 288.326,162.919 286.16,162.919 284,165.5C 283.749,162.406 284.249,159.406 285.5,156.5 Z"/></g>
<g><path style="opacity:1" fill="#615a5b" d="M 286.5,160.5 C 288.337,160.639 288.67,161.306 287.5,162.5C 286.702,162.043 286.369,161.376 286.5,160.5 Z"/></g>
<g><path style="opacity:1" fill="#d3d2d3" d="M 295.5,156.5 C 296.873,156.343 298.207,156.51 299.5,157C 298.263,157.232 297.263,157.732 296.5,158.5C 294.47,162.531 295.803,164.864 300.5,165.5C 294.696,166.865 292.196,164.532 293,158.5C 293.708,157.619 294.542,156.953 295.5,156.5 Z"/></g>
<g><path style="opacity:1" fill="#bfbdbe" d="M 309.5,155.5 C 308.741,157.436 307.741,159.269 306.5,161C 307.741,162.731 308.741,164.564 309.5,166.5C 307.629,166.141 306.129,165.141 305,163.5C 304.517,164.448 304.351,165.448 304.5,166.5C 303.5,166.5 302.5,166.5 301.5,166.5C 301.177,162.774 301.511,159.107 302.5,155.5C 303.799,156.09 304.632,157.09 305,158.5C 305.908,156.561 307.408,155.561 309.5,155.5 Z"/></g>
<g><path style="opacity:1" fill="#7b7577" d="M 280.5,156.5 C 278.833,156.5 277.167,156.5 275.5,156.5C 275.5,159.5 275.5,162.5 275.5,165.5C 277.167,165.5 278.833,165.5 280.5,165.5C 278.735,166.461 276.735,166.795 274.5,166.5C 274.5,162.833 274.5,159.167 274.5,155.5C 276.735,155.205 278.735,155.539 280.5,156.5 Z"/></g>
<g><path style="opacity:1" fill="#dad9d9" d="M 280.5,156.5 C 281.833,159.5 281.833,162.5 280.5,165.5C 278.833,165.5 277.167,165.5 275.5,165.5C 275.5,162.5 275.5,159.5 275.5,156.5C 277.167,156.5 278.833,156.5 280.5,156.5 Z"/></g>
<g><path style="opacity:1" fill="#4a4445" d="M 277.5,162.5 C 279.337,162.639 279.67,163.306 278.5,164.5C 277.702,164.043 277.369,163.376 277.5,162.5 Z"/></g>
<g><path style="opacity:1" fill="#221813" d="M 309.5,155.5 C 322.167,155.5 334.833,155.5 347.5,155.5C 347.5,159.167 347.5,162.833 347.5,166.5C 335.082,167.134 322.916,166.467 311,164.5C 310.722,165.416 310.222,166.082 309.5,166.5C 308.741,164.564 307.741,162.731 306.5,161C 307.741,159.269 308.741,157.436 309.5,155.5 Z"/></g>
<g><path style="opacity:1" fill="#847f81" d="M 295.5,156.5 C 296.919,155.549 298.585,155.216 300.5,155.5C 300.5,156.5 300.5,157.5 300.5,158.5C 299.167,158.5 297.833,158.5 296.5,158.5C 297.263,157.732 298.263,157.232 299.5,157C 298.207,156.51 296.873,156.343 295.5,156.5 Z"/></g>
<g><path style="opacity:1" fill="#211812" d="M 236.5,155.5 C 248.833,155.5 261.167,155.5 273.5,155.5C 273.5,159.167 273.5,162.833 273.5,166.5C 261.167,166.5 248.833,166.5 236.5,166.5C 236.5,162.833 236.5,159.167 236.5,155.5 Z"/></g>
<g><path style="opacity:1" fill="#f3f2f2" d="M 465.5,166.5 C 465.5,167.833 465.5,169.167 465.5,170.5C 461.835,169.707 461.835,168.374 465.5,166.5 Z"/></g>
<g><path style="opacity:1" fill="#453e3f" d="M 100.5,161.5 C 100.5,170.5 100.5,179.5 100.5,188.5C 100.167,188.5 99.8333,188.5 99.5,188.5C 99.5,181.833 99.5,175.167 99.5,168.5C 95.5,168.167 95.5,167.833 99.5,167.5C 99.5,166.5 99.5,165.5 99.5,164.5C 97.5,165.167 95.5,165.833 93.5,166.5C 94.5511,165.778 95.2178,164.778 95.5,163.5C 97.5542,163.635 99.2209,162.968 100.5,161.5 Z"/></g>
<g><path style="opacity:1" fill="#fdfdfd" d="M 107.5,168.5 C 107.842,169.338 108.508,169.672 109.5,169.5C 111.98,170.242 114.313,171.242 116.5,172.5C 118.177,174.54 119.844,176.54 121.5,178.5C 122.787,181.698 123.453,185.031 123.5,188.5C 117.5,188.5 111.5,188.5 105.5,188.5C 104.874,181.416 105.541,174.75 107.5,168.5 Z"/></g>
<g><path style="opacity:1" fill="#423a3a" d="M 479.5,161.5 C 479.5,170.5 479.5,179.5 479.5,188.5C 479.167,188.5 478.833,188.5 478.5,188.5C 478.5,181.833 478.5,175.167 478.5,168.5C 474.5,168.167 474.5,167.833 478.5,167.5C 478.5,166.5 478.5,165.5 478.5,164.5C 476.5,165.167 474.5,165.833 472.5,166.5C 473.545,165.122 474.878,164.122 476.5,163.5C 477.778,163.218 478.778,162.551 479.5,161.5 Z"/></g>
<g><path style="opacity:1" fill="#fcfcfc" d="M 497.5,172.5 C 496.833,172.5 496.167,172.5 495.5,172.5C 497.087,175.268 498.92,177.935 501,180.5C 501.822,183.117 502.322,185.784 502.5,188.5C 496.5,188.5 490.5,188.5 484.5,188.5C 483.895,181.382 484.562,174.548 486.5,168C 484.595,167.174 484.261,166.007 485.5,164.5C 488.157,166.568 491.157,167.901 494.5,168.5C 495.524,169.852 496.524,171.185 497.5,172.5 Z"/></g>
<g><path style="opacity:1" fill="#fbfafa" d="M 99.5,188.5 C 93.5,188.5 87.5,188.5 81.5,188.5C 81.7064,179.255 86.0398,172.755 94.5,169C 92.4944,169.15 90.4944,169.65 88.5,170.5C 89.6223,168.444 91.2889,167.111 93.5,166.5C 95.5,165.833 97.5,165.167 99.5,164.5C 99.5,165.5 99.5,166.5 99.5,167.5C 95.5,167.833 95.5,168.167 99.5,168.5C 99.5,175.167 99.5,181.833 99.5,188.5 Z"/></g>
<g><path style="opacity:1" fill="#d4d2d3" d="M 478.5,188.5 C 478.167,188.5 477.833,188.5 477.5,188.5C 477.5,182.167 477.5,175.833 477.5,169.5C 466.609,171.062 460.942,177.395 460.5,188.5C 459.167,188.5 457.833,188.5 456.5,188.5C 457.686,187.039 457.686,185.705 456.5,184.5C 456.5,184.167 456.5,183.833 456.5,183.5C 457.476,180.894 458.976,178.561 461,176.5C 461.49,175.207 461.657,173.873 461.5,172.5C 465.349,172.981 467.349,171.314 467.5,167.5C 469.415,167.784 471.081,167.451 472.5,166.5C 474.5,165.833 476.5,165.167 478.5,164.5C 478.5,165.5 478.5,166.5 478.5,167.5C 474.5,167.833 474.5,168.167 478.5,168.5C 478.5,175.167 478.5,181.833 478.5,188.5 Z"/></g>
<g><path style="opacity:1" fill="#fdfdfd" d="M 477.5,188.5 C 471.833,188.5 466.167,188.5 460.5,188.5C 460.942,177.395 466.609,171.062 477.5,169.5C 477.5,175.833 477.5,182.167 477.5,188.5 Z"/></g>
<g><path style="opacity:1" fill="#746f71" d="M 492.5,170.5 C 491.078,170.291 489.745,169.791 488.5,169C 490.352,168.227 491.686,168.727 492.5,170.5 Z"/></g>
<g><path style="opacity:1" fill="#716d6f" d="M 504.5,170.5 C 503.298,169.595 501.964,169.595 500.5,170.5C 500.62,169.414 501.287,168.747 502.5,168.5C 503.713,168.747 504.38,169.414 504.5,170.5 Z"/></g>
<g><path style="opacity:1" fill="#eeeeee" d="M 82.5,172.5 C 79.524,173.227 79.024,172.227 81,169.5C 82.0386,170.244 82.5386,171.244 82.5,172.5 Z"/></g>
<g><path style="opacity:1" fill="#837f81" d="M 109.5,169.5 C 112.457,168.465 114.791,169.465 116.5,172.5C 114.313,171.242 111.98,170.242 109.5,169.5 Z"/></g>
<g><path style="opacity:1" fill="#edeced" d="M 461.5,172.5 C 458.524,173.227 458.024,172.227 460,169.5C 461.039,170.244 461.539,171.244 461.5,172.5 Z"/></g>
<g><path style="opacity:1" fill="#797578" d="M 492.5,170.5 C 494.027,170.427 495.027,171.094 495.5,172.5C 493.973,172.573 492.973,171.906 492.5,170.5 Z"/></g>
<g><path style="opacity:1" fill="#e9e8e8" d="M 504.5,170.5 C 503.525,174.265 502.192,174.265 500.5,170.5C 501.964,169.595 503.298,169.595 504.5,170.5 Z"/></g>
<g><path style="opacity:1" fill="#b8b6b7" d="M 81.5,188.5 C 80.1667,188.5 78.8333,188.5 77.5,188.5C 78.4124,187.262 78.5791,185.928 78,184.5C 76.951,186.107 75.451,186.773 73.5,186.5C 73.3359,183.813 73.5026,181.146 74,178.5C 74.2784,177.584 74.7784,176.918 75.5,176.5C 76.9418,177.82 77.6085,179.486 77.5,181.5C 76.448,181.351 75.448,181.517 74.5,182C 75.7659,182.309 76.9326,182.809 78,183.5C 78.3988,183.272 78.5654,182.938 78.5,182.5C 79.29,183.609 79.79,184.942 80,186.5C 80.3949,183.348 81.2282,180.348 82.5,177.5C 82.5,175.833 82.5,174.167 82.5,172.5C 84.8583,172.747 86.8583,172.081 88.5,170.5C 90.4944,169.65 92.4944,169.15 94.5,169C 86.0398,172.755 81.7064,179.255 81.5,188.5 Z"/></g>
<g><path style="opacity:1" fill="#282321" d="M 72.5,170.5 C 71.4031,173.686 70.0697,176.686 68.5,179.5C 68.5018,175.835 69.8352,172.835 72.5,170.5 Z"/></g>
<g><path style="opacity:1" fill="#f7f6f6" d="M 78.5,174.5 C 80.9701,175.36 81.1368,176.694 79,178.5C 77.4894,177.436 77.3228,176.103 78.5,174.5 Z"/></g>
<g><path style="opacity:1" fill="#f1f1f1" d="M 457.5,174.5 C 459.97,175.36 460.137,176.694 458,178.5C 456.232,177.318 456.065,175.985 457.5,174.5 Z"/></g>
<g><path style="opacity:1" fill="#ecebeb" d="M 503.5,178.5 C 502.401,174.179 503.401,173.679 506.5,177C 505.756,178.039 504.756,178.539 503.5,178.5 Z"/></g>
<g><path style="opacity:1" fill="#6b6667" d="M 117.5,163.5 C 119.048,163.821 119.715,164.821 119.5,166.5C 124.911,167.077 127.744,170.077 128,175.5C 129.333,176.167 130.333,177.167 131,178.5C 131.218,181.426 131.718,184.26 132.5,187C 131.263,187.232 130.263,187.732 129.5,188.5C 128.833,188.5 128.167,188.5 127.5,188.5C 126.059,186.228 125.726,183.895 126.5,181.5C 125.048,180.06 124.048,178.394 123.5,176.5C 122.751,175.469 122.085,174.302 121.5,173C 118.24,170.529 114.907,168.362 111.5,166.5C 113.652,165.923 113.985,164.756 112.5,163C 114.387,162.22 116.054,162.387 117.5,163.5 Z"/></g>
<g><path style="opacity:1" fill="#efefef" d="M 123.5,176.5 C 124.759,173.982 126.093,174.148 127.5,177C 126.154,178.587 124.821,178.42 123.5,176.5 Z"/></g>
<g><path style="opacity:1" fill="#f0f0f0" d="M 123.5,169.5 C 125.852,170.543 126.019,171.876 124,173.5C 122.232,172.318 122.065,170.985 123.5,169.5 Z"/></g>
<g><path style="opacity:1" fill="#edeced" d="M 119.5,166.5 C 120.141,167.482 120.807,168.482 121.5,169.5C 119.796,170.823 118.463,170.49 117.5,168.5C 117.855,167.478 118.522,166.811 119.5,166.5 Z"/></g>
<g><path style="opacity:1" fill="#efeeef" d="M 117.5,163.5 C 118.227,166.476 117.227,166.976 114.5,165C 115.244,163.961 116.244,163.461 117.5,163.5 Z"/></g>
<g><path style="opacity:1" fill="#352e2d" d="M 451.5,170.5 C 448.62,176.143 446.953,182.143 446.5,188.5C 446.167,188.5 445.833,188.5 445.5,188.5C 445.193,183.618 446.026,178.951 448,174.5C 448.74,172.681 449.907,171.348 451.5,170.5 Z"/></g>
<g><path style="opacity:1" fill="#b2afb0" d="M 495.5,172.5 C 496.167,172.5 496.833,172.5 497.5,172.5C 498.822,172.33 499.989,172.663 501,173.5C 501.099,175.653 501.933,177.319 503.5,178.5C 503.5,178.833 503.5,179.167 503.5,179.5C 503.094,182.281 503.094,185.281 503.5,188.5C 503.167,188.5 502.833,188.5 502.5,188.5C 502.322,185.784 501.822,183.117 501,180.5C 498.92,177.935 497.087,175.268 495.5,172.5 Z"/></g>
<g><path style="opacity:1" fill="#f1f1f1" d="M 127.5,178.5 C 131.31,179.754 131.31,180.754 127.5,181.5C 127.5,180.5 127.5,179.5 127.5,178.5 Z"/></g>
<g><path style="opacity:1" fill="#f0efef" d="M 453.5,178.5 C 456.957,178.667 457.29,179.667 454.5,181.5C 453.614,180.675 453.281,179.675 453.5,178.5 Z"/></g>
<g><path style="opacity:1" fill="#f0f0f0" d="M 506.5,178.5 C 510.31,179.754 510.31,180.754 506.5,181.5C 506.5,180.5 506.5,179.5 506.5,178.5 Z"/></g>
<g><path style="opacity:1" fill="#292321" d="M 512.5,172.5 C 514.387,174.789 515.721,177.455 516.5,180.5C 516.768,182.099 516.434,183.432 515.5,184.5C 514.91,180.397 513.91,176.397 512.5,172.5 Z"/></g>
<g><path style="opacity:1" fill="#393332" d="M 135.5,176.5 C 137.213,177.635 137.88,179.302 137.5,181.5C 137.672,182.492 137.338,183.158 136.5,183.5C 136.007,181.194 135.674,178.861 135.5,176.5 Z"/></g>
<g><path style="opacity:1" fill="#ecebeb" d="M 503.5,179.5 C 504.478,179.811 505.145,180.478 505.5,181.5C 504.073,184.116 504.406,186.449 506.5,188.5C 505.5,188.5 504.5,188.5 503.5,188.5C 503.094,185.281 503.094,182.281 503.5,179.5 Z"/></g>
<g><path style="opacity:1" fill="#efeeef" d="M 82.5,177.5 C 81.2282,180.348 80.3949,183.348 80,186.5C 79.79,184.942 79.29,183.609 78.5,182.5C 78.774,180.019 80.1073,178.353 82.5,177.5 Z"/></g>
<g><path style="opacity:1" fill="#807c7e" d="M 121.5,178.5 C 123.729,181.354 125.062,184.687 125.5,188.5C 124.833,188.5 124.167,188.5 123.5,188.5C 123.453,185.031 122.787,181.698 121.5,178.5 Z"/></g>
<g><path style="opacity:1" fill="#dcdbdc" d="M 111.5,166.5 C 114.907,168.362 118.24,170.529 121.5,173C 122.085,174.302 122.751,175.469 123.5,176.5C 124.048,178.394 125.048,180.06 126.5,181.5C 125.726,183.895 126.059,186.228 127.5,188.5C 126.833,188.5 126.167,188.5 125.5,188.5C 125.062,184.687 123.729,181.354 121.5,178.5C 119.844,176.54 118.177,174.54 116.5,172.5C 114.791,169.465 112.457,168.465 109.5,169.5C 108.508,169.672 107.842,169.338 107.5,168.5C 108.067,167.58 107.401,167.246 105.5,167.5C 105.281,166.325 105.614,165.325 106.5,164.5C 107.85,165.95 109.516,166.617 111.5,166.5 Z"/></g>
<g><path style="opacity:1" fill="#f4f4f4" d="M 127.5,182.5 C 129.026,183.105 130.026,184.271 130.5,186C 129.552,186.483 128.552,186.649 127.5,186.5C 127.5,185.167 127.5,183.833 127.5,182.5 Z"/></g>
<g><path style="opacity:1" fill="#f6f6f6" d="M 506.5,182.5 C 507.586,182.62 508.253,183.287 508.5,184.5C 508.167,185.167 507.833,185.833 507.5,186.5C 506.571,185.311 506.238,183.978 506.5,182.5 Z"/></g>
<g><path style="opacity:1" fill="#575152" d="M 68.5,179.5 C 68.5,182.5 68.5,185.5 68.5,188.5C 67.8333,188.5 67.1667,188.5 66.5,188.5C 66.3359,185.813 66.5026,183.146 67,180.5C 67.3826,179.944 67.8826,179.611 68.5,179.5 Z"/></g>
<g><path style="opacity:1" fill="#4d4747" d="M 77.5,188.5 C 76.8333,188.5 76.1667,188.5 75.5,188.5C 74.7375,187.732 73.7375,187.232 72.5,187C 72.7284,186.601 73.0618,186.435 73.5,186.5C 75.451,186.773 76.951,186.107 78,184.5C 78.5791,185.928 78.4124,187.262 77.5,188.5 Z"/></g>
<g><path style="opacity:1" fill="#453e3e" d="M 456.5,184.5 C 457.686,185.705 457.686,187.039 456.5,188.5C 455.833,188.5 455.167,188.5 454.5,188.5C 453.737,187.732 452.737,187.232 451.5,187C 452.126,186.25 452.626,185.416 453,184.5C 454.376,187.125 455.542,187.125 456.5,184.5 Z"/></g>
<g><path style="opacity:1" fill="#6f6a6b" d="M 516.5,180.5 C 517.473,182.948 517.806,185.615 517.5,188.5C 516.833,188.5 516.167,188.5 515.5,188.5C 515.5,187.167 515.5,185.833 515.5,184.5C 516.434,183.432 516.768,182.099 516.5,180.5 Z"/></g>
<g><path style="opacity:1" fill="#6b6566" d="M 137.5,181.5 C 138.468,183.607 138.802,185.941 138.5,188.5C 137.833,188.5 137.167,188.5 136.5,188.5C 136.5,186.833 136.5,185.167 136.5,183.5C 137.338,183.158 137.672,182.492 137.5,181.5 Z"/></g>
<g><path style="opacity:1" fill="#8f898a" d="M 377.5,188.5 C 320.5,188.5 263.5,188.5 206.5,188.5C 206.5,187.5 206.5,186.5 206.5,185.5C 263.5,185.5 320.5,185.5 377.5,185.5C 377.5,186.5 377.5,187.5 377.5,188.5 Z"/></g>
</svg>
