<?xml version="1.0" encoding="utf-8"?>
<!-- Generator: Adobe Illustrator 23.1.0, SVG Export Plug-In . SVG Version: 6.00 Build 0)  -->
<svg version="1.1" xmlns="http://www.w3.org/2000/svg" xmlns:xlink="http://www.w3.org/1999/xlink" x="0px" y="0px"
	 viewBox="0 0 281.68 725.05" style="enable-background:new 0 0 281.68 725.05;" xml:space="preserve">
<style type="text/css">
	.st0{fill:#EDEDED;}
	.st1{fill:none;stroke:#1E1E1C;stroke-miterlimit:10;}
	.st2{fill:#020203;}
	.st3{fill:#6D6C6C;}
	.st4{fill:#F5F5F5;}
	.st5{opacity:0.3;}
	.st6{fill:none;stroke:#FFFFFF;stroke-miterlimit:10;}
	.st7{fill:#282727;}
	.st8{fill:#FFFFFF;}
	.st9{fill:none;stroke:#000000;stroke-miterlimit:10;}
	.st10{fill:none;stroke:#000000;stroke-width:1.5;stroke-miterlimit:10;}
	.st11{fill:#FFFFFF;stroke:#000000;stroke-miterlimit:10;}
</style>
<g id="Ebene_2">
	<rect x="10.81" y="12.87" class="st0" width="258.24" height="66.39"/>
	<rect x="91.21" y="44.29" class="st0" width="99.05" height="89.65"/>
</g>
<g id="Ebene_1">
	<g>
		<circle class="st1" cx="51.29" cy="106.14" r="16.32"/>
		<g>
			<polygon class="st1" points="65.52,106.14 64.92,107.16 65.36,108.26 64.61,109.18 64.89,110.34 64.01,111.14 64.11,112.32 
				63.13,112.98 63.05,114.16 61.97,114.66 61.72,115.82 60.58,116.16 60.16,117.27 58.99,117.43 58.4,118.47 57.22,118.46 
				56.49,119.39 55.32,119.2 54.46,120.02 53.33,119.66 52.35,120.33 51.29,119.81 50.22,120.33 49.25,119.66 48.12,120.02 
				47.26,119.2 46.08,119.39 45.35,118.46 44.17,118.47 43.59,117.43 42.41,117.27 41.99,116.16 40.85,115.82 40.6,114.66 
				39.52,114.16 39.45,112.97 38.46,112.32 38.56,111.13 37.68,110.34 37.96,109.18 37.21,108.26 37.66,107.16 37.05,106.14 
				37.66,105.12 37.21,104.02 37.96,103.1 37.68,101.94 38.56,101.14 38.46,99.96 39.45,99.3 39.53,98.12 40.6,97.62 40.85,96.46 
				41.99,96.12 42.41,95.01 43.59,94.84 44.17,93.81 45.36,93.82 46.09,92.89 47.26,93.08 48.12,92.26 49.25,92.62 50.22,91.94 
				51.29,92.47 52.35,91.94 53.33,92.62 54.46,92.26 55.32,93.08 56.49,92.89 57.22,93.82 58.41,93.81 58.99,94.85 60.16,95.01 
				60.58,96.12 61.72,96.46 61.97,97.62 63.05,98.12 63.13,99.31 64.12,99.96 64.01,101.14 64.89,101.94 64.61,103.1 65.36,104.02 
				64.92,105.12 			"/>
		</g>
		<line class="st1" x1="51.29" y1="92.19" x2="51.29" y2="104.2"/>
		<g>
			<path class="st2" d="M45.44,129.68h-1.44v-0.52h3.5v0.52h-1.44v4.2h-0.62V129.68z"/>
			<path class="st2" d="M48.03,129.23c0.31-0.06,0.75-0.1,1.17-0.1c0.65,0,1.07,0.12,1.37,0.38c0.24,0.21,0.37,0.53,0.37,0.9
				c0,0.62-0.39,1.04-0.89,1.21v0.02c0.36,0.13,0.58,0.46,0.69,0.95c0.15,0.66,0.27,1.11,0.36,1.3h-0.63
				c-0.08-0.13-0.18-0.54-0.32-1.13c-0.14-0.65-0.39-0.9-0.95-0.92h-0.57v2.04h-0.61V129.23z M48.64,131.38h0.62
				c0.65,0,1.06-0.36,1.06-0.9c0-0.61-0.44-0.88-1.08-0.88c-0.29,0-0.5,0.03-0.6,0.06V131.38z"/>
			<path class="st2" d="M52.4,129.16v4.72h-0.61v-4.72H52.4z"/>
			<path class="st2" d="M57.44,131.81c-0.04-0.66-0.08-1.45-0.07-2.04h-0.02c-0.16,0.55-0.36,1.14-0.59,1.79l-0.83,2.29h-0.46
				l-0.76-2.25c-0.22-0.67-0.41-1.27-0.55-1.83h-0.01c-0.01,0.59-0.05,1.38-0.09,2.09l-0.13,2.02h-0.58l0.33-4.72h0.78l0.81,2.28
				c0.2,0.58,0.36,1.1,0.48,1.59h0.02c0.12-0.48,0.29-0.99,0.5-1.59l0.84-2.28h0.78l0.29,4.72h-0.59L57.44,131.81z"/>
		</g>
		<g>
			<path class="st2" d="M67.66,124.64v1.41h1.36v0.36h-1.36v1.42h-0.38v-1.42h-1.35v-0.36h1.35v-1.41H67.66z"/>
			<path class="st2" d="M69.84,127.46c0.11,0.01,0.25,0,0.42-0.02c0.31-0.04,0.59-0.17,0.82-0.38c0.26-0.23,0.44-0.58,0.52-1.04
				h-0.02c-0.22,0.26-0.53,0.42-0.92,0.42c-0.7,0-1.15-0.53-1.15-1.19c0-0.74,0.53-1.39,1.33-1.39s1.29,0.65,1.29,1.64
				c0,0.86-0.29,1.46-0.67,1.83c-0.3,0.29-0.71,0.47-1.13,0.52c-0.19,0.03-0.36,0.04-0.49,0.03V127.46z M70.03,125.22
				c0,0.49,0.29,0.83,0.75,0.83c0.35,0,0.63-0.17,0.77-0.41c0.03-0.05,0.05-0.11,0.05-0.19c0-0.67-0.25-1.18-0.8-1.18
				C70.35,124.27,70.03,124.67,70.03,125.22z"/>
		</g>
		<g>
			<path class="st2" d="M31.13,125.73v0.52h-1.97v-0.52H31.13z"/>
			<path class="st2" d="M34.28,126.37c-0.41,0.41-0.83,0.86-1.48,0.86c-0.67,0-1.15-0.5-1.15-1.18c0-0.63,0.51-1.18,1.21-1.18
				c0.59,0,1.03,0.47,1.42,0.86c0.41-0.41,0.83-0.86,1.48-0.86c0.68,0,1.15,0.5,1.15,1.18c0,0.63-0.51,1.18-1.22,1.18
				C35.1,127.22,34.66,126.75,34.28,126.37z M33.96,126.04c-0.31-0.29-0.64-0.7-1.1-0.7c-0.4,0-0.7,0.33-0.7,0.7
				c0,0.41,0.29,0.7,0.68,0.7C33.29,126.74,33.66,126.35,33.96,126.04z M36.41,126.04c0-0.41-0.29-0.7-0.68-0.7
				c-0.46,0-0.82,0.39-1.13,0.7c0.31,0.29,0.64,0.7,1.1,0.7C36.1,126.74,36.41,126.41,36.41,126.04z"/>
		</g>
		<circle class="st2" cx="39.88" cy="126.32" r="0.81"/>
		<circle class="st2" cx="62.87" cy="126.32" r="0.81"/>
	</g>
	<g>
		<circle class="st1" cx="229.52" cy="106.14" r="16.32"/>
		<g>
			<polygon class="st1" points="243.75,106.14 243.15,107.16 243.59,108.26 242.84,109.18 243.12,110.34 242.24,111.14 
				242.34,112.32 241.35,112.98 241.28,114.16 240.2,114.66 239.95,115.82 238.81,116.16 238.39,117.27 237.21,117.43 
				236.63,118.47 235.45,118.46 234.72,119.39 233.55,119.2 232.68,120.02 231.55,119.66 230.58,120.33 229.52,119.81 
				228.45,120.33 227.48,119.66 226.35,120.02 225.48,119.2 224.31,119.39 223.58,118.46 222.4,118.47 221.81,117.43 220.64,117.27 
				220.22,116.16 219.08,115.82 218.83,114.66 217.75,114.16 217.68,112.97 216.69,112.32 216.79,111.13 215.91,110.34 
				216.19,109.18 215.44,108.26 215.89,107.16 215.28,106.14 215.89,105.12 215.44,104.02 216.19,103.1 215.91,101.94 
				216.79,101.14 216.69,99.96 217.68,99.3 217.75,98.12 218.83,97.62 219.08,96.46 220.22,96.12 220.64,95.01 221.82,94.84 
				222.4,93.81 223.59,93.82 224.31,92.89 225.49,93.08 226.35,92.26 227.48,92.62 228.45,91.94 229.52,92.47 230.58,91.94 
				231.56,92.62 232.69,92.26 233.55,93.08 234.72,92.89 235.45,93.82 236.64,93.81 237.22,94.85 238.39,95.01 238.81,96.12 
				239.95,96.46 240.2,97.62 241.28,98.12 241.35,99.31 242.34,99.96 242.24,101.14 243.12,101.94 242.84,103.1 243.59,104.02 
				243.15,105.12 			"/>
		</g>
		<line class="st1" x1="229.52" y1="92.19" x2="229.52" y2="104.2"/>
		<g>
			<path class="st2" d="M223.67,129.68h-1.44v-0.52h3.5v0.52h-1.44v4.2h-0.62V129.68z"/>
			<path class="st2" d="M226.25,129.23c0.31-0.06,0.75-0.1,1.17-0.1c0.65,0,1.07,0.12,1.37,0.38c0.24,0.21,0.37,0.53,0.37,0.9
				c0,0.62-0.39,1.04-0.89,1.21v0.02c0.36,0.13,0.58,0.46,0.69,0.95c0.15,0.66,0.27,1.11,0.36,1.3h-0.63
				c-0.08-0.13-0.18-0.54-0.32-1.13c-0.14-0.65-0.39-0.9-0.95-0.92h-0.57v2.04h-0.61V129.23z M226.86,131.38h0.62
				c0.65,0,1.06-0.36,1.06-0.9c0-0.61-0.44-0.88-1.08-0.88c-0.29,0-0.5,0.03-0.6,0.06V131.38z"/>
			<path class="st2" d="M230.63,129.16v4.72h-0.61v-4.72H230.63z"/>
			<path class="st2" d="M235.67,131.81c-0.04-0.66-0.08-1.45-0.07-2.04h-0.02c-0.16,0.55-0.36,1.14-0.59,1.79l-0.83,2.29h-0.46
				l-0.76-2.25c-0.22-0.67-0.41-1.27-0.55-1.83h-0.01c-0.01,0.59-0.05,1.38-0.09,2.09l-0.13,2.02h-0.58l0.33-4.72h0.78l0.81,2.28
				c0.2,0.58,0.36,1.1,0.48,1.59h0.02c0.12-0.48,0.29-0.99,0.5-1.59l0.84-2.28h0.78l0.29,4.72h-0.59L235.67,131.81z"/>
		</g>
		<g>
			<path class="st2" d="M245.89,124.64v1.41h1.36v0.36h-1.36v1.42h-0.38v-1.42h-1.35v-0.36h1.35v-1.41H245.89z"/>
			<path class="st2" d="M248.07,127.46c0.11,0.01,0.25,0,0.42-0.02c0.31-0.04,0.59-0.17,0.82-0.38c0.26-0.23,0.44-0.58,0.52-1.04
				h-0.02c-0.22,0.26-0.53,0.42-0.92,0.42c-0.7,0-1.15-0.53-1.15-1.19c0-0.74,0.53-1.39,1.33-1.39s1.29,0.65,1.29,1.64
				c0,0.86-0.29,1.46-0.67,1.83c-0.3,0.29-0.71,0.47-1.13,0.52c-0.19,0.03-0.36,0.04-0.49,0.03V127.46z M248.26,125.22
				c0,0.49,0.29,0.83,0.75,0.83c0.35,0,0.63-0.17,0.77-0.41c0.03-0.05,0.05-0.11,0.05-0.19c0-0.67-0.25-1.18-0.8-1.18
				C248.58,124.27,248.26,124.67,248.26,125.22z"/>
		</g>
		<g>
			<path class="st2" d="M209.36,125.73v0.52h-1.97v-0.52H209.36z"/>
			<path class="st2" d="M212.51,126.37c-0.41,0.41-0.83,0.86-1.48,0.86c-0.67,0-1.15-0.5-1.15-1.18c0-0.63,0.51-1.18,1.21-1.18
				c0.59,0,1.03,0.47,1.42,0.86c0.41-0.41,0.83-0.86,1.48-0.86c0.68,0,1.15,0.5,1.15,1.18c0,0.63-0.51,1.18-1.22,1.18
				C213.33,127.22,212.89,126.75,212.51,126.37z M212.19,126.04c-0.31-0.29-0.64-0.7-1.1-0.7c-0.4,0-0.7,0.33-0.7,0.7
				c0,0.41,0.29,0.7,0.68,0.7C211.52,126.74,211.88,126.35,212.19,126.04z M214.63,126.04c0-0.41-0.29-0.7-0.68-0.7
				c-0.46,0-0.82,0.39-1.13,0.7c0.31,0.29,0.64,0.7,1.1,0.7C214.33,126.74,214.63,126.41,214.63,126.04z"/>
		</g>
		<circle class="st2" cx="218.11" cy="126.32" r="0.81"/>
		<circle class="st2" cx="241.09" cy="126.32" r="0.81"/>
	</g>
	<rect x="95.97" y="494.96" class="st3" width="89.26" height="97.77"/>
	<rect x="193.47" y="340.96" class="st4" width="72" height="68.4"/>
	<rect x="14.81" y="340.96" class="st4" width="72" height="68.4"/>
	<rect x="95.97" y="341.15" class="st4" width="88.53" height="112.95"/>
	<g>
		<g>
			<g>
				<circle class="st1" cx="51.29" cy="171.93" r="16.32"/>
				<g>
					<polygon class="st1" points="65.52,171.93 64.92,172.95 65.36,174.06 64.61,174.98 64.89,176.13 64.01,176.93 64.11,178.11 
						63.12,178.77 63.05,179.95 61.97,180.46 61.72,181.62 60.58,181.95 60.16,183.06 58.99,183.23 58.4,184.26 57.22,184.25 
						56.49,185.19 55.32,185 54.46,185.81 53.33,185.45 52.35,186.13 51.29,185.6 50.22,186.13 49.25,185.45 48.12,185.81 
						47.26,185 46.08,185.19 45.35,184.25 44.17,184.26 43.59,183.23 42.41,183.06 41.99,181.95 40.85,181.61 40.6,180.45 
						39.52,179.95 39.45,178.77 38.46,178.11 38.56,176.93 37.68,176.13 37.96,174.97 37.21,174.05 37.66,172.95 37.05,171.93 
						37.66,170.91 37.21,169.81 37.96,168.89 37.68,167.73 38.56,166.94 38.46,165.75 39.45,165.1 39.53,163.91 40.6,163.41 
						40.85,162.25 41.99,161.91 42.41,160.8 43.59,160.64 44.17,159.6 45.36,159.62 46.09,158.68 47.26,158.87 48.12,158.05 
						49.25,158.42 50.22,157.74 51.29,158.26 52.35,157.74 53.33,158.42 54.46,158.05 55.32,158.87 56.49,158.68 57.22,159.62 
						58.41,159.6 58.99,160.64 60.16,160.8 60.58,161.91 61.72,162.25 61.97,163.41 63.05,163.91 63.13,165.1 64.12,165.76 
						64.01,166.94 64.89,167.74 64.61,168.89 65.36,169.81 64.92,170.91 					"/>
				</g>
				<line class="st1" x1="51.29" y1="157.98" x2="51.29" y2="169.99"/>
				<g>
					<path class="st2" d="M49.31,197.96v1.98h2.28v-1.98h0.62v4.72h-0.62v-2.21h-2.28v2.21H48.7v-4.72H49.31z"/>
					<path class="st2" d="M53.87,197.96v4.72h-0.61v-4.72H53.87z"/>
				</g>
				<g>
					<path class="st2" d="M63.35,192.91v1.41h1.36v0.36h-1.36v1.42h-0.38v-1.42h-1.35v-0.36h1.35v-1.41H63.35z"/>
					<path class="st2" d="M67.44,192.57c-0.11-0.01-0.25,0-0.4,0.02c-0.83,0.14-1.26,0.74-1.36,1.39h0.02
						c0.19-0.25,0.51-0.45,0.94-0.45c0.69,0,1.18,0.5,1.18,1.26c0,0.71-0.49,1.37-1.3,1.37c-0.83,0-1.38-0.65-1.38-1.66
						c0-0.77,0.28-1.37,0.66-1.76c0.32-0.32,0.76-0.52,1.25-0.58c0.16-0.02,0.29-0.03,0.38-0.03V192.57z M67.29,194.82
						c0-0.56-0.32-0.89-0.8-0.89c-0.32,0-0.61,0.2-0.76,0.48c-0.04,0.06-0.06,0.14-0.06,0.23c0.01,0.64,0.31,1.12,0.86,1.12
						C66.99,195.76,67.29,195.38,67.29,194.82z"/>
				</g>
				<g>
					<path class="st2" d="M35.41,194.2v0.52h-1.97v-0.52H35.41z"/>
					<path class="st2" d="M38.56,194.84c-0.41,0.41-0.83,0.86-1.48,0.86c-0.67,0-1.15-0.5-1.15-1.18c0-0.63,0.51-1.18,1.21-1.18
						c0.59,0,1.03,0.47,1.42,0.86c0.41-0.41,0.83-0.86,1.48-0.86c0.68,0,1.15,0.5,1.15,1.18c0,0.63-0.51,1.18-1.22,1.18
						C39.39,195.7,38.95,195.23,38.56,194.84z M38.24,194.51c-0.31-0.29-0.64-0.7-1.1-0.7c-0.4,0-0.7,0.33-0.7,0.7
						c0,0.41,0.29,0.7,0.68,0.7C37.57,195.22,37.94,194.83,38.24,194.51z M40.69,194.51c0-0.41-0.29-0.7-0.68-0.7
						c-0.46,0-0.82,0.39-1.13,0.7c0.31,0.29,0.64,0.7,1.1,0.7C40.39,195.22,40.69,194.89,40.69,194.51z"/>
				</g>
			</g>
			<path class="st1" d="M49.95,152.77c-9.98,0.69-17.87,9-17.87,19.16c0,7.01,3.76,13.15,9.38,16.5"/>
			<path class="st1" d="M52.63,152.77c9.98,0.69,17.87,9,17.87,19.16c0,7.01-3.76,13.15-9.38,16.5"/>
			<line class="st1" x1="51.29" y1="191.14" x2="51.29" y2="191.14"/>
			<line class="st1" x1="51.29" y1="191.14" x2="51.29" y2="191.14"/>
		</g>
		<g>
			<g>
				<circle class="st1" cx="51.29" cy="238.69" r="16.32"/>
				<g>
					<polygon class="st1" points="65.52,238.69 64.92,239.71 65.36,240.81 64.61,241.73 64.89,242.89 64.01,243.68 64.11,244.87 
						63.12,245.52 63.05,246.71 61.97,247.21 61.72,248.37 60.58,248.71 60.16,249.82 58.99,249.98 58.4,251.02 57.22,251.01 
						56.49,251.94 55.32,251.75 54.46,252.57 53.33,252.2 52.35,252.88 51.29,252.36 50.22,252.88 49.25,252.2 48.12,252.57 
						47.26,251.75 46.08,251.94 45.35,251 44.17,251.02 43.59,249.98 42.41,249.82 41.99,248.71 40.85,248.37 40.6,247.21 
						39.52,246.71 39.45,245.52 38.46,244.86 38.56,243.68 37.68,242.89 37.96,241.73 37.21,240.81 37.66,239.71 37.05,238.69 
						37.66,237.67 37.21,236.56 37.96,235.64 37.68,234.49 38.56,233.69 38.46,232.51 39.45,231.85 39.53,230.67 40.6,230.17 
						40.85,229.01 41.99,228.67 42.41,227.56 43.59,227.39 44.17,226.36 45.36,226.37 46.09,225.43 47.26,225.62 48.12,224.81 
						49.25,225.17 50.22,224.49 51.29,225.02 52.35,224.49 53.33,225.17 54.46,224.81 55.32,225.63 56.49,225.44 57.22,226.37 
						58.41,226.36 58.99,227.4 60.16,227.56 60.58,228.67 61.72,229.01 61.97,230.17 63.05,230.67 63.13,231.85 64.12,232.51 
						64.01,233.69 64.89,234.49 64.61,235.65 65.36,236.57 64.92,237.67 					"/>
				</g>
				<line class="st1" x1="51.29" y1="224.74" x2="51.29" y2="236.75"/>
				<g>
					<path class="st2" d="M49.82,267.36c-0.04-0.66-0.08-1.45-0.07-2.04h-0.02c-0.16,0.55-0.36,1.14-0.59,1.79l-0.83,2.29h-0.46
						l-0.76-2.25c-0.22-0.67-0.41-1.27-0.55-1.83h-0.01c-0.01,0.59-0.05,1.38-0.09,2.09l-0.13,2.02h-0.58l0.33-4.72h0.78l0.81,2.28
						c0.2,0.58,0.36,1.1,0.48,1.59h0.02c0.12-0.48,0.29-0.99,0.5-1.59l0.84-2.28h0.78l0.29,4.72h-0.59L49.82,267.36z"/>
					<path class="st2" d="M52.08,264.71v4.72h-0.61v-4.72H52.08z"/>
					<path class="st2" d="M53.14,264.77c0.37-0.06,0.81-0.1,1.3-0.1c0.88,0,1.5,0.2,1.91,0.59c0.42,0.39,0.67,0.93,0.67,1.7
						c0,0.77-0.24,1.4-0.68,1.83c-0.44,0.44-1.17,0.68-2.09,0.68c-0.43,0-0.8-0.02-1.11-0.06V264.77z M53.75,268.95
						c0.15,0.03,0.38,0.04,0.62,0.04c1.3,0,2.01-0.73,2.01-2c0.01-1.11-0.62-1.82-1.91-1.82c-0.32,0-0.55,0.03-0.71,0.06V268.95z"/>
				</g>
				<g>
					<path class="st2" d="M63.35,259.66v1.41h1.36v0.36h-1.36v1.42h-0.38v-1.42h-1.35v-0.36h1.35v-1.41H63.35z"/>
					<path class="st2" d="M67.44,259.33c-0.11-0.01-0.25,0-0.4,0.02c-0.83,0.14-1.26,0.74-1.36,1.39h0.02
						c0.19-0.25,0.51-0.45,0.94-0.45c0.69,0,1.18,0.5,1.18,1.26c0,0.71-0.49,1.37-1.3,1.37c-0.83,0-1.38-0.65-1.38-1.66
						c0-0.77,0.28-1.37,0.66-1.76c0.32-0.32,0.76-0.52,1.25-0.58c0.16-0.02,0.29-0.03,0.38-0.03V259.33z M67.29,261.58
						c0-0.56-0.32-0.89-0.8-0.89c-0.32,0-0.61,0.2-0.76,0.48c-0.04,0.06-0.06,0.14-0.06,0.23c0.01,0.64,0.31,1.12,0.86,1.12
						C66.99,262.51,67.29,262.14,67.29,261.58z"/>
				</g>
				<g>
					<path class="st2" d="M35.41,260.96v0.52h-1.97v-0.52H35.41z"/>
					<path class="st2" d="M38.56,261.6c-0.41,0.41-0.83,0.86-1.48,0.86c-0.67,0-1.15-0.5-1.15-1.18c0-0.63,0.51-1.18,1.21-1.18
						c0.59,0,1.03,0.47,1.42,0.86c0.41-0.41,0.83-0.86,1.48-0.86c0.68,0,1.15,0.5,1.15,1.18c0,0.63-0.51,1.18-1.22,1.18
						C39.39,262.45,38.95,261.98,38.56,261.6z M38.24,261.27c-0.31-0.29-0.64-0.7-1.1-0.7c-0.4,0-0.7,0.33-0.7,0.7
						c0,0.41,0.29,0.7,0.68,0.7C37.57,261.97,37.94,261.58,38.24,261.27z M40.69,261.27c0-0.41-0.29-0.7-0.68-0.7
						c-0.46,0-0.82,0.39-1.13,0.7c0.31,0.29,0.64,0.7,1.1,0.7C40.39,261.97,40.69,261.65,40.69,261.27z"/>
				</g>
			</g>
			<path class="st1" d="M49.95,219.53c-9.98,0.69-17.87,9-17.87,19.16c0,7.01,3.76,13.15,9.38,16.5"/>
			<path class="st1" d="M52.63,219.53c9.98,0.69,17.87,9,17.87,19.16c0,7.01-3.76,13.15-9.38,16.5"/>
			<line class="st1" x1="51.29" y1="257.9" x2="51.29" y2="257.9"/>
			<line class="st1" x1="51.29" y1="257.9" x2="51.29" y2="257.9"/>
		</g>
		<g>
			<g>
				<circle class="st1" cx="51.29" cy="305.44" r="16.32"/>
				<g>
					<polygon class="st1" points="65.52,305.44 64.92,306.47 65.36,307.57 64.61,308.49 64.89,309.64 64.01,310.44 64.11,311.62 
						63.12,312.28 63.05,313.46 61.97,313.97 61.72,315.13 60.58,315.46 60.16,316.57 58.99,316.74 58.4,317.77 57.22,317.76 
						56.49,318.7 55.32,318.51 54.46,319.32 53.33,318.96 52.35,319.64 51.29,319.11 50.22,319.64 49.25,318.96 48.12,319.32 
						47.26,318.51 46.08,318.7 45.35,317.76 44.17,317.77 43.59,316.74 42.41,316.57 41.99,315.46 40.85,315.12 40.6,313.96 
						39.52,313.46 39.45,312.28 38.46,311.62 38.56,310.44 37.68,309.64 37.96,308.49 37.21,307.57 37.66,306.47 37.05,305.44 
						37.66,304.42 37.21,303.32 37.96,302.4 37.68,301.25 38.56,300.45 38.46,299.26 39.45,298.61 39.53,297.42 40.6,296.92 
						40.85,295.76 41.99,295.42 42.41,294.31 43.59,294.15 44.17,293.11 45.36,293.13 46.09,292.19 47.26,292.38 48.12,291.56 
						49.25,291.93 50.22,291.25 51.29,291.78 52.35,291.25 53.33,291.93 54.46,291.56 55.32,292.38 56.49,292.19 57.22,293.13 
						58.41,293.12 58.99,294.15 60.16,294.32 60.58,295.43 61.72,295.76 61.97,296.92 63.05,297.43 63.13,298.61 64.12,299.27 
						64.01,300.45 64.89,301.25 64.61,302.4 65.36,303.32 64.92,304.42 					"/>
				</g>
				<line class="st1" x1="51.29" y1="291.49" x2="51.29" y2="303.5"/>
				<g>
					<path class="st2" d="M44.93,331.47h0.61v4.21h2.02v0.51h-2.63V331.47z"/>
					<path class="st2" d="M52,333.78c0,1.63-0.99,2.49-2.19,2.49c-1.25,0-2.12-0.97-2.12-2.4c0-1.5,0.93-2.48,2.19-2.48
						C51.16,331.39,52,332.38,52,333.78z M48.33,333.86c0,1.01,0.55,1.91,1.51,1.91c0.97,0,1.51-0.89,1.51-1.96
						c0-0.94-0.49-1.92-1.51-1.92C48.84,331.89,48.33,332.82,48.33,333.86z"/>
					<path class="st2" d="M53.56,336.19l-1.2-4.72H53l0.56,2.39c0.14,0.59,0.27,1.18,0.35,1.63h0.01c0.08-0.47,0.22-1.03,0.39-1.64
						l0.63-2.38h0.64l0.57,2.4c0.13,0.56,0.26,1.12,0.33,1.62h0.01c0.1-0.52,0.23-1.04,0.38-1.63l0.62-2.38h0.62l-1.34,4.72h-0.64
						l-0.6-2.46c-0.15-0.6-0.25-1.06-0.31-1.54h-0.01c-0.08,0.47-0.19,0.93-0.36,1.54l-0.67,2.46H53.56z"/>
				</g>
				<g>
					<path class="st2" d="M63.35,326.42v1.41h1.36v0.36h-1.36v1.42h-0.38v-1.42h-1.35v-0.36h1.35v-1.41H63.35z"/>
					<path class="st2" d="M67.44,326.09c-0.11-0.01-0.25,0-0.4,0.02c-0.83,0.14-1.26,0.74-1.36,1.39h0.02
						c0.19-0.25,0.51-0.45,0.94-0.45c0.69,0,1.18,0.5,1.18,1.26c0,0.71-0.49,1.37-1.3,1.37c-0.83,0-1.38-0.65-1.38-1.66
						c0-0.77,0.28-1.37,0.66-1.76c0.32-0.32,0.76-0.52,1.25-0.58c0.16-0.02,0.29-0.03,0.38-0.03V326.09z M67.29,328.33
						c0-0.56-0.32-0.89-0.8-0.89c-0.32,0-0.61,0.2-0.76,0.48c-0.04,0.06-0.06,0.14-0.06,0.23c0.01,0.64,0.31,1.12,0.86,1.12
						C66.99,329.27,67.29,328.89,67.29,328.33z"/>
				</g>
				<g>
					<path class="st2" d="M35.41,327.71v0.52h-1.97v-0.52H35.41z"/>
					<path class="st2" d="M38.56,328.35c-0.41,0.41-0.83,0.86-1.48,0.86c-0.67,0-1.15-0.5-1.15-1.18c0-0.63,0.51-1.18,1.21-1.18
						c0.59,0,1.03,0.47,1.42,0.86c0.41-0.41,0.83-0.86,1.48-0.86c0.68,0,1.15,0.5,1.15,1.18c0,0.63-0.51,1.18-1.22,1.18
						C39.39,329.21,38.95,328.74,38.56,328.35z M38.24,328.03c-0.31-0.29-0.64-0.7-1.1-0.7c-0.4,0-0.7,0.33-0.7,0.7
						c0,0.41,0.29,0.7,0.68,0.7C37.57,328.73,37.94,328.34,38.24,328.03z M40.69,328.03c0-0.41-0.29-0.7-0.68-0.7
						c-0.46,0-0.82,0.39-1.13,0.7c0.31,0.29,0.64,0.7,1.1,0.7C40.39,328.73,40.69,328.4,40.69,328.03z"/>
				</g>
			</g>
			<path class="st1" d="M49.95,286.28c-9.98,0.69-17.87,9-17.87,19.16c0,7.01,3.76,13.15,9.38,16.5"/>
			<path class="st1" d="M52.63,286.28c9.98,0.69,17.87,9,17.87,19.16c0,7.01-3.76,13.15-9.38,16.5"/>
			<line class="st1" x1="51.29" y1="324.65" x2="51.29" y2="324.65"/>
			<line class="st1" x1="51.29" y1="324.65" x2="51.29" y2="324.65"/>
		</g>
		<g>
			<g>
				<circle class="st1" cx="51.29" cy="372.2" r="16.32"/>
				<g>
					<polygon class="st1" points="65.52,372.2 64.92,373.22 65.36,374.32 64.61,375.24 64.89,376.4 64.01,377.2 64.11,378.38 
						63.12,379.04 63.05,380.22 61.97,380.72 61.72,381.88 60.58,382.22 60.16,383.33 58.99,383.49 58.4,384.53 57.22,384.52 
						56.49,385.45 55.32,385.26 54.46,386.08 53.33,385.72 52.35,386.39 51.29,385.87 50.22,386.39 49.25,385.72 48.12,386.08 
						47.26,385.26 46.08,385.45 45.35,384.52 44.17,384.53 43.59,383.49 42.41,383.33 41.99,382.22 40.85,381.88 40.6,380.72 
						39.52,380.22 39.45,379.03 38.46,378.38 38.56,377.19 37.68,376.4 37.96,375.24 37.21,374.32 37.66,373.22 37.05,372.2 
						37.66,371.18 37.21,370.08 37.96,369.16 37.68,368 38.56,367.2 38.46,366.02 39.45,365.36 39.53,364.18 40.6,363.68 
						40.85,362.52 41.99,362.18 42.41,361.07 43.59,360.91 44.17,359.87 45.36,359.88 46.09,358.95 47.26,359.14 48.12,358.32 
						49.25,358.68 50.22,358 51.29,358.53 52.35,358 53.33,358.68 54.46,358.32 55.32,359.14 56.49,358.95 57.22,359.88 
						58.41,359.87 58.99,360.91 60.16,361.07 60.58,362.18 61.72,362.52 61.97,363.68 63.05,364.18 63.13,365.37 64.12,366.02 
						64.01,367.21 64.89,368 64.61,369.16 65.36,370.08 64.92,371.18 					"/>
				</g>
				<line class="st1" x1="51.29" y1="358.25" x2="51.29" y2="370.26"/>
				<g>
					<path class="st2" d="M42.59,398.22h2.54v0.51H43.2v1.57h1.79v0.5H43.2v2.14h-0.61V398.22z"/>
					<path class="st2" d="M46.61,398.22v4.72H46v-4.72H46.61z"/>
					<path class="st2" d="M47.67,398.22h0.61v4.21h2.02v0.51h-2.63V398.22z"/>
					<path class="st2" d="M51.26,398.74h-1.44v-0.52h3.5v0.52h-1.44v4.2h-0.62V398.74z"/>
					<path class="st2" d="M56.28,400.73h-1.83v1.7h2.04v0.51h-2.65v-4.72h2.55v0.51h-1.94v1.49h1.83V400.73z"/>
					<path class="st2" d="M57.28,398.29c0.31-0.06,0.75-0.1,1.17-0.1c0.65,0,1.07,0.12,1.37,0.38c0.24,0.21,0.37,0.53,0.37,0.9
						c0,0.62-0.39,1.04-0.89,1.21v0.02c0.36,0.13,0.58,0.46,0.69,0.95c0.15,0.66,0.27,1.11,0.36,1.3h-0.63
						c-0.08-0.13-0.18-0.54-0.32-1.13c-0.14-0.65-0.39-0.9-0.95-0.92h-0.57v2.04h-0.61V398.29z M57.89,400.44h0.62
						c0.65,0,1.06-0.36,1.06-0.9c0-0.61-0.44-0.88-1.08-0.88c-0.29,0-0.5,0.03-0.6,0.06V400.44z"/>
				</g>
				<g>
					<path class="st2" d="M62,392.32v1.69h1.96v-1.69h0.53v4.04h-0.53v-1.89H62v1.89h-0.52v-4.04H62z"/>
					<path class="st2" d="M65.91,392.32v4.04h-0.52v-4.04H65.91z"/>
				</g>
				<g>
					<path class="st2" d="M29.89,392.85h0.52v3.6h1.73v0.44h-2.25V392.85z"/>
					<path class="st2" d="M35.94,394.83c0,1.39-0.85,2.13-1.88,2.13c-1.07,0-1.82-0.83-1.82-2.05c0-1.28,0.8-2.12,1.88-2.12
						C35.23,392.79,35.94,393.63,35.94,394.83z M32.8,394.9c0,0.86,0.47,1.64,1.29,1.64c0.83,0,1.3-0.76,1.3-1.68
						c0-0.8-0.42-1.64-1.29-1.64C33.23,393.21,32.8,394.01,32.8,394.9z"/>
					<path class="st2" d="M37.28,396.89l-1.03-4.04h0.55l0.48,2.04c0.12,0.5,0.23,1.01,0.3,1.4h0.01c0.07-0.4,0.19-0.88,0.33-1.4
						l0.54-2.04h0.55l0.49,2.05c0.11,0.48,0.22,0.96,0.28,1.38h0.01c0.08-0.44,0.2-0.89,0.32-1.4l0.53-2.04h0.53l-1.15,4.04H39.5
						l-0.51-2.1c-0.13-0.52-0.21-0.91-0.26-1.32h-0.01c-0.07,0.4-0.16,0.8-0.31,1.32l-0.58,2.1H37.28z"/>
				</g>
			</g>
			<path class="st1" d="M49.95,353.04c-9.98,0.69-17.87,9-17.87,19.16c0,7.01,3.76,13.15,9.38,16.5"/>
			<path class="st1" d="M52.63,353.04c9.98,0.69,17.87,9,17.87,19.16c0,7.01-3.76,13.15-9.38,16.5"/>
			<line class="st1" x1="51.29" y1="391.41" x2="51.29" y2="391.41"/>
			<line class="st1" x1="51.29" y1="391.41" x2="51.29" y2="391.41"/>
		</g>
	</g>
	<g>
		<g>
			<g>
				<circle class="st1" cx="229.52" cy="171.93" r="16.32"/>
				<g>
					<polygon class="st1" points="243.75,171.93 243.15,172.95 243.59,174.06 242.84,174.98 243.12,176.13 242.24,176.93 
						242.34,178.11 241.35,178.77 241.28,179.95 240.2,180.46 239.95,181.62 238.81,181.95 238.39,183.06 237.21,183.23 
						236.63,184.26 235.45,184.25 234.72,185.19 233.55,185 232.68,185.81 231.55,185.45 230.58,186.13 229.52,185.6 228.45,186.13 
						227.48,185.45 226.35,185.81 225.48,185 224.31,185.19 223.58,184.25 222.4,184.26 221.81,183.23 220.64,183.06 220.22,181.95 
						219.08,181.61 218.83,180.45 217.75,179.95 217.68,178.77 216.69,178.11 216.79,176.93 215.91,176.13 216.19,174.97 
						215.44,174.05 215.89,172.95 215.28,171.93 215.89,170.91 215.44,169.81 216.19,168.89 215.91,167.73 216.79,166.94 
						216.69,165.75 217.68,165.1 217.75,163.91 218.83,163.41 219.08,162.25 220.22,161.91 220.64,160.8 221.82,160.64 222.4,159.6 
						223.59,159.62 224.31,158.68 225.49,158.87 226.35,158.05 227.48,158.42 228.45,157.74 229.52,158.26 230.58,157.74 
						231.55,158.42 232.69,158.05 233.55,158.87 234.72,158.68 235.45,159.62 236.64,159.6 237.22,160.64 238.39,160.8 
						238.81,161.91 239.95,162.25 240.2,163.41 241.28,163.91 241.35,165.1 242.34,165.76 242.24,166.94 243.12,167.74 
						242.84,168.89 243.59,169.81 243.15,170.91 					"/>
				</g>
				<line class="st1" x1="229.52" y1="157.98" x2="229.52" y2="169.99"/>
				<g>
					<path class="st2" d="M227.54,197.96v1.98h2.28v-1.98h0.62v4.72h-0.62v-2.21h-2.28v2.21h-0.61v-4.72H227.54z"/>
					<path class="st2" d="M232.1,197.96v4.72h-0.61v-4.72H232.1z"/>
				</g>
				<g>
					<path class="st2" d="M241.58,192.91v1.41h1.36v0.36h-1.36v1.42h-0.38v-1.42h-1.35v-0.36h1.35v-1.41H241.58z"/>
					<path class="st2" d="M245.67,192.57c-0.11-0.01-0.25,0-0.4,0.02c-0.83,0.14-1.26,0.74-1.36,1.39h0.02
						c0.19-0.25,0.51-0.45,0.94-0.45c0.69,0,1.18,0.5,1.18,1.26c0,0.71-0.49,1.37-1.3,1.37c-0.83,0-1.38-0.65-1.38-1.66
						c0-0.77,0.28-1.37,0.66-1.76c0.32-0.32,0.76-0.52,1.25-0.58c0.16-0.02,0.29-0.03,0.38-0.03V192.57z M245.52,194.82
						c0-0.56-0.32-0.89-0.8-0.89c-0.32,0-0.61,0.2-0.76,0.48c-0.04,0.06-0.06,0.14-0.06,0.23c0.01,0.64,0.31,1.12,0.86,1.12
						C245.21,195.76,245.52,195.38,245.52,194.82z"/>
				</g>
				<g>
					<path class="st2" d="M213.64,194.2v0.52h-1.97v-0.52H213.64z"/>
					<path class="st2" d="M216.79,194.84c-0.41,0.41-0.83,0.86-1.48,0.86c-0.67,0-1.15-0.5-1.15-1.18c0-0.63,0.51-1.18,1.21-1.18
						c0.59,0,1.03,0.47,1.42,0.86c0.41-0.41,0.83-0.86,1.48-0.86c0.68,0,1.15,0.5,1.15,1.18c0,0.63-0.51,1.18-1.22,1.18
						C217.62,195.7,217.18,195.23,216.79,194.84z M216.47,194.51c-0.31-0.29-0.64-0.7-1.1-0.7c-0.4,0-0.7,0.33-0.7,0.7
						c0,0.41,0.29,0.7,0.68,0.7C215.8,195.22,216.17,194.83,216.47,194.51z M218.92,194.51c0-0.41-0.29-0.7-0.68-0.7
						c-0.46,0-0.82,0.39-1.13,0.7c0.31,0.29,0.64,0.7,1.1,0.7C218.61,195.22,218.92,194.89,218.92,194.51z"/>
				</g>
			</g>
			<path class="st1" d="M228.18,152.77c-9.98,0.69-17.87,9-17.87,19.16c0,7.01,3.76,13.15,9.38,16.5"/>
			<path class="st1" d="M230.85,152.77c9.98,0.69,17.87,9,17.87,19.16c0,7.01-3.76,13.15-9.38,16.5"/>
			<line class="st1" x1="229.52" y1="191.14" x2="229.52" y2="191.14"/>
			<line class="st1" x1="229.52" y1="191.14" x2="229.52" y2="191.14"/>
		</g>
		<g>
			<g>
				<circle class="st1" cx="229.52" cy="238.69" r="16.32"/>
				<g>
					<polygon class="st1" points="243.75,238.69 243.15,239.71 243.59,240.81 242.84,241.73 243.12,242.89 242.24,243.68 
						242.34,244.87 241.35,245.52 241.28,246.71 240.2,247.21 239.95,248.37 238.81,248.71 238.39,249.82 237.21,249.98 
						236.63,251.02 235.45,251.01 234.72,251.94 233.55,251.75 232.68,252.57 231.55,252.2 230.58,252.88 229.52,252.36 
						228.45,252.88 227.48,252.2 226.35,252.57 225.48,251.75 224.31,251.94 223.58,251 222.4,251.02 221.81,249.98 220.64,249.82 
						220.22,248.71 219.08,248.37 218.83,247.21 217.75,246.71 217.68,245.52 216.69,244.86 216.79,243.68 215.91,242.89 
						216.19,241.73 215.44,240.81 215.89,239.71 215.28,238.69 215.89,237.67 215.44,236.56 216.19,235.64 215.91,234.49 
						216.79,233.69 216.69,232.51 217.68,231.85 217.75,230.67 218.83,230.17 219.08,229.01 220.22,228.67 220.64,227.56 
						221.82,227.39 222.4,226.36 223.59,226.37 224.31,225.43 225.49,225.62 226.35,224.81 227.48,225.17 228.45,224.49 
						229.52,225.02 230.58,224.49 231.55,225.17 232.69,224.81 233.55,225.63 234.72,225.44 235.45,226.37 236.64,226.36 
						237.22,227.4 238.39,227.56 238.81,228.67 239.95,229.01 240.2,230.17 241.28,230.67 241.35,231.85 242.34,232.51 
						242.24,233.69 243.12,234.49 242.84,235.65 243.59,236.57 243.15,237.67 					"/>
				</g>
				<line class="st1" x1="229.52" y1="224.74" x2="229.52" y2="236.75"/>
				<g>
					<path class="st2" d="M228.04,267.36c-0.04-0.66-0.08-1.45-0.07-2.04h-0.02c-0.16,0.55-0.36,1.14-0.59,1.79l-0.83,2.29h-0.46
						l-0.76-2.25c-0.22-0.67-0.41-1.27-0.55-1.83h-0.01c-0.01,0.59-0.05,1.38-0.09,2.09l-0.13,2.02h-0.58l0.33-4.72h0.78l0.81,2.28
						c0.2,0.58,0.36,1.1,0.48,1.59h0.02c0.12-0.48,0.29-0.99,0.5-1.59l0.84-2.28h0.78l0.29,4.72h-0.59L228.04,267.36z"/>
					<path class="st2" d="M230.3,264.71v4.72h-0.61v-4.72H230.3z"/>
					<path class="st2" d="M231.37,264.77c0.37-0.06,0.81-0.1,1.3-0.1c0.88,0,1.5,0.2,1.91,0.59c0.42,0.39,0.67,0.93,0.67,1.7
						c0,0.77-0.24,1.4-0.68,1.83c-0.44,0.44-1.17,0.68-2.09,0.68c-0.43,0-0.8-0.02-1.11-0.06V264.77z M231.98,268.95
						c0.15,0.03,0.38,0.04,0.62,0.04c1.3,0,2.01-0.73,2.01-2c0.01-1.11-0.62-1.82-1.91-1.82c-0.32,0-0.55,0.03-0.71,0.06V268.95z"/>
				</g>
				<g>
					<path class="st2" d="M241.58,259.66v1.41h1.36v0.36h-1.36v1.42h-0.38v-1.42h-1.35v-0.36h1.35v-1.41H241.58z"/>
					<path class="st2" d="M245.67,259.33c-0.11-0.01-0.25,0-0.4,0.02c-0.83,0.14-1.26,0.74-1.36,1.39h0.02
						c0.19-0.25,0.51-0.45,0.94-0.45c0.69,0,1.18,0.5,1.18,1.26c0,0.71-0.49,1.37-1.3,1.37c-0.83,0-1.38-0.65-1.38-1.66
						c0-0.77,0.28-1.37,0.66-1.76c0.32-0.32,0.76-0.52,1.25-0.58c0.16-0.02,0.29-0.03,0.38-0.03V259.33z M245.52,261.58
						c0-0.56-0.32-0.89-0.8-0.89c-0.32,0-0.61,0.2-0.76,0.48c-0.04,0.06-0.06,0.14-0.06,0.23c0.01,0.64,0.31,1.12,0.86,1.12
						C245.21,262.51,245.52,262.14,245.52,261.58z"/>
				</g>
				<g>
					<path class="st2" d="M213.64,260.96v0.52h-1.97v-0.52H213.64z"/>
					<path class="st2" d="M216.79,261.6c-0.41,0.41-0.83,0.86-1.48,0.86c-0.67,0-1.15-0.5-1.15-1.18c0-0.63,0.51-1.18,1.21-1.18
						c0.59,0,1.03,0.47,1.42,0.86c0.41-0.41,0.83-0.86,1.48-0.86c0.68,0,1.15,0.5,1.15,1.18c0,0.63-0.51,1.18-1.22,1.18
						C217.62,262.45,217.18,261.98,216.79,261.6z M216.47,261.27c-0.31-0.29-0.64-0.7-1.1-0.7c-0.4,0-0.7,0.33-0.7,0.7
						c0,0.41,0.29,0.7,0.68,0.7C215.8,261.97,216.17,261.58,216.47,261.27z M218.92,261.27c0-0.41-0.29-0.7-0.68-0.7
						c-0.46,0-0.82,0.39-1.13,0.7c0.31,0.29,0.64,0.7,1.1,0.7C218.61,261.97,218.92,261.65,218.92,261.27z"/>
				</g>
			</g>
			<path class="st1" d="M228.18,219.53c-9.98,0.69-17.87,9-17.87,19.16c0,7.01,3.76,13.15,9.38,16.5"/>
			<path class="st1" d="M230.85,219.53c9.98,0.69,17.87,9,17.87,19.16c0,7.01-3.76,13.15-9.38,16.5"/>
			<line class="st1" x1="229.52" y1="257.9" x2="229.52" y2="257.9"/>
			<line class="st1" x1="229.52" y1="257.9" x2="229.52" y2="257.9"/>
		</g>
		<g>
			<g>
				<circle class="st1" cx="229.52" cy="305.44" r="16.32"/>
				<g>
					<polygon class="st1" points="243.75,305.44 243.15,306.47 243.59,307.57 242.84,308.49 243.12,309.64 242.24,310.44 
						242.34,311.62 241.35,312.28 241.28,313.46 240.2,313.97 239.95,315.13 238.81,315.46 238.39,316.57 237.21,316.74 
						236.63,317.77 235.45,317.76 234.72,318.7 233.55,318.51 232.68,319.32 231.55,318.96 230.58,319.64 229.52,319.11 
						228.45,319.64 227.48,318.96 226.35,319.32 225.48,318.51 224.31,318.7 223.58,317.76 222.4,317.77 221.81,316.74 
						220.64,316.57 220.22,315.46 219.08,315.12 218.83,313.96 217.75,313.46 217.68,312.28 216.69,311.62 216.79,310.44 
						215.91,309.64 216.19,308.49 215.44,307.57 215.89,306.47 215.28,305.44 215.89,304.42 215.44,303.32 216.19,302.4 
						215.91,301.25 216.79,300.45 216.69,299.26 217.68,298.61 217.75,297.42 218.83,296.92 219.08,295.76 220.22,295.42 
						220.64,294.31 221.82,294.15 222.4,293.11 223.59,293.13 224.31,292.19 225.49,292.38 226.35,291.56 227.48,291.93 
						228.45,291.25 229.52,291.78 230.58,291.25 231.55,291.93 232.69,291.56 233.55,292.38 234.72,292.19 235.45,293.13 
						236.64,293.12 237.22,294.15 238.39,294.32 238.81,295.43 239.95,295.76 240.2,296.92 241.28,297.43 241.35,298.61 
						242.34,299.27 242.24,300.45 243.12,301.25 242.84,302.4 243.59,303.32 243.15,304.42 					"/>
				</g>
				<line class="st1" x1="229.52" y1="291.49" x2="229.52" y2="303.5"/>
				<g>
					<path class="st2" d="M223.16,331.47h0.61v4.21h2.02v0.51h-2.63V331.47z"/>
					<path class="st2" d="M230.23,333.78c0,1.63-0.99,2.49-2.19,2.49c-1.25,0-2.12-0.97-2.12-2.4c0-1.5,0.93-2.48,2.19-2.48
						C229.39,331.39,230.23,332.38,230.23,333.78z M226.56,333.86c0,1.01,0.55,1.91,1.51,1.91c0.97,0,1.51-0.89,1.51-1.96
						c0-0.94-0.49-1.92-1.51-1.92C227.07,331.89,226.56,332.82,226.56,333.86z"/>
					<path class="st2" d="M231.78,336.19l-1.2-4.72h0.64l0.56,2.39c0.14,0.59,0.27,1.18,0.35,1.63h0.01
						c0.08-0.47,0.22-1.03,0.39-1.64l0.63-2.38h0.64l0.57,2.4c0.13,0.56,0.26,1.12,0.33,1.62h0.01c0.1-0.52,0.23-1.04,0.38-1.63
						l0.62-2.38h0.62l-1.34,4.72h-0.64l-0.6-2.46c-0.15-0.6-0.25-1.06-0.31-1.54h-0.01c-0.08,0.47-0.19,0.93-0.36,1.54l-0.67,2.46
						H231.78z"/>
				</g>
				<g>
					<path class="st2" d="M241.58,326.42v1.41h1.36v0.36h-1.36v1.42h-0.38v-1.42h-1.35v-0.36h1.35v-1.41H241.58z"/>
					<path class="st2" d="M245.67,326.09c-0.11-0.01-0.25,0-0.4,0.02c-0.83,0.14-1.26,0.74-1.36,1.39h0.02
						c0.19-0.25,0.51-0.45,0.94-0.45c0.69,0,1.18,0.5,1.18,1.26c0,0.71-0.49,1.37-1.3,1.37c-0.83,0-1.38-0.65-1.38-1.66
						c0-0.77,0.28-1.37,0.66-1.76c0.32-0.32,0.76-0.52,1.25-0.58c0.16-0.02,0.29-0.03,0.38-0.03V326.09z M245.52,328.33
						c0-0.56-0.32-0.89-0.8-0.89c-0.32,0-0.61,0.2-0.76,0.48c-0.04,0.06-0.06,0.14-0.06,0.23c0.01,0.64,0.31,1.12,0.86,1.12
						C245.21,329.27,245.52,328.89,245.52,328.33z"/>
				</g>
				<g>
					<path class="st2" d="M213.64,327.71v0.52h-1.97v-0.52H213.64z"/>
					<path class="st2" d="M216.79,328.35c-0.41,0.41-0.83,0.86-1.48,0.86c-0.67,0-1.15-0.5-1.15-1.18c0-0.63,0.51-1.18,1.21-1.18
						c0.59,0,1.03,0.47,1.42,0.86c0.41-0.41,0.83-0.86,1.48-0.86c0.68,0,1.15,0.5,1.15,1.18c0,0.63-0.51,1.18-1.22,1.18
						C217.62,329.21,217.18,328.74,216.79,328.35z M216.47,328.03c-0.31-0.29-0.64-0.7-1.1-0.7c-0.4,0-0.7,0.33-0.7,0.7
						c0,0.41,0.29,0.7,0.68,0.7C215.8,328.73,216.17,328.34,216.47,328.03z M218.92,328.03c0-0.41-0.29-0.7-0.68-0.7
						c-0.46,0-0.82,0.39-1.13,0.7c0.31,0.29,0.64,0.7,1.1,0.7C218.61,328.73,218.92,328.4,218.92,328.03z"/>
				</g>
			</g>
			<path class="st1" d="M228.18,286.28c-9.98,0.69-17.87,9-17.87,19.16c0,7.01,3.76,13.15,9.38,16.5"/>
			<path class="st1" d="M230.85,286.28c9.98,0.69,17.87,9,17.87,19.16c0,7.01-3.76,13.15-9.38,16.5"/>
			<line class="st1" x1="229.52" y1="324.65" x2="229.52" y2="324.65"/>
			<line class="st1" x1="229.52" y1="324.65" x2="229.52" y2="324.65"/>
		</g>
		<g>
			<g>
				<circle class="st1" cx="229.52" cy="372.2" r="16.32"/>
				<g>
					<polygon class="st1" points="243.75,372.2 243.15,373.22 243.59,374.32 242.84,375.24 243.12,376.4 242.24,377.2 
						242.34,378.38 241.35,379.04 241.28,380.22 240.2,380.72 239.95,381.88 238.81,382.22 238.39,383.33 237.21,383.49 
						236.63,384.53 235.45,384.52 234.72,385.45 233.55,385.26 232.68,386.08 231.55,385.72 230.58,386.39 229.52,385.87 
						228.45,386.39 227.48,385.72 226.35,386.08 225.48,385.26 224.31,385.45 223.58,384.52 222.4,384.53 221.81,383.49 
						220.64,383.33 220.22,382.22 219.08,381.88 218.83,380.72 217.75,380.22 217.68,379.03 216.69,378.38 216.79,377.19 
						215.91,376.4 216.19,375.24 215.44,374.32 215.89,373.22 215.28,372.2 215.89,371.18 215.44,370.08 216.19,369.16 215.91,368 
						216.79,367.2 216.69,366.02 217.68,365.36 217.75,364.18 218.83,363.68 219.08,362.52 220.22,362.18 220.64,361.07 
						221.82,360.91 222.4,359.87 223.59,359.88 224.31,358.95 225.49,359.14 226.35,358.32 227.48,358.68 228.45,358 229.52,358.53 
						230.58,358 231.55,358.68 232.69,358.32 233.55,359.14 234.72,358.95 235.45,359.88 236.64,359.87 237.22,360.91 
						238.39,361.07 238.81,362.18 239.95,362.52 240.2,363.68 241.28,364.18 241.35,365.37 242.34,366.02 242.24,367.21 243.12,368 
						242.84,369.16 243.59,370.08 243.15,371.18 					"/>
				</g>
				<line class="st1" x1="229.52" y1="358.25" x2="229.52" y2="370.26"/>
				<g>
					<path class="st2" d="M220.82,398.22h2.54v0.51h-1.93v1.57h1.79v0.5h-1.79v2.14h-0.61V398.22z"/>
					<path class="st2" d="M224.84,398.22v4.72h-0.61v-4.72H224.84z"/>
					<path class="st2" d="M225.9,398.22h0.61v4.21h2.02v0.51h-2.63V398.22z"/>
					<path class="st2" d="M229.48,398.74h-1.44v-0.52h3.5v0.52h-1.44v4.2h-0.62V398.74z"/>
					<path class="st2" d="M234.51,400.73h-1.83v1.7h2.04v0.51h-2.65v-4.72h2.55v0.51h-1.94v1.49h1.83V400.73z"/>
					<path class="st2" d="M235.51,398.29c0.31-0.06,0.75-0.1,1.17-0.1c0.65,0,1.07,0.12,1.37,0.38c0.24,0.21,0.37,0.53,0.37,0.9
						c0,0.62-0.39,1.04-0.89,1.21v0.02c0.36,0.13,0.58,0.46,0.69,0.95c0.15,0.66,0.27,1.11,0.36,1.3h-0.63
						c-0.08-0.13-0.18-0.54-0.32-1.13c-0.14-0.65-0.39-0.9-0.95-0.92h-0.57v2.04h-0.61V398.29z M236.12,400.44h0.62
						c0.65,0,1.06-0.36,1.06-0.9c0-0.61-0.44-0.88-1.08-0.88c-0.29,0-0.5,0.03-0.6,0.06V400.44z"/>
				</g>
				<g>
					<path class="st2" d="M240.23,392.32v1.69h1.96v-1.69h0.53v4.04h-0.53v-1.89h-1.96v1.89h-0.52v-4.04H240.23z"/>
					<path class="st2" d="M244.14,392.32v4.04h-0.52v-4.04H244.14z"/>
				</g>
				<g>
					<path class="st2" d="M208.12,392.85h0.52v3.6h1.73v0.44h-2.25V392.85z"/>
					<path class="st2" d="M214.17,394.83c0,1.39-0.85,2.13-1.88,2.13c-1.07,0-1.82-0.83-1.82-2.05c0-1.28,0.8-2.12,1.88-2.12
						C213.45,392.79,214.17,393.63,214.17,394.83z M211.03,394.9c0,0.86,0.47,1.64,1.29,1.64c0.83,0,1.3-0.76,1.3-1.68
						c0-0.8-0.42-1.64-1.29-1.64C211.46,393.21,211.03,394.01,211.03,394.9z"/>
					<path class="st2" d="M215.51,396.89l-1.03-4.04h0.55l0.48,2.04c0.12,0.5,0.23,1.01,0.3,1.4h0.01c0.07-0.4,0.19-0.88,0.33-1.4
						l0.54-2.04h0.55l0.49,2.05c0.11,0.48,0.22,0.96,0.28,1.38h0.01c0.08-0.44,0.2-0.89,0.32-1.4l0.53-2.04h0.53l-1.15,4.04h-0.55
						l-0.51-2.1c-0.13-0.52-0.21-0.91-0.26-1.32h-0.01c-0.07,0.4-0.16,0.8-0.31,1.32l-0.58,2.1H215.51z"/>
				</g>
			</g>
			<path class="st1" d="M228.18,353.04c-9.98,0.69-17.87,9-17.87,19.16c0,7.01,3.76,13.15,9.38,16.5"/>
			<path class="st1" d="M230.85,353.04c9.98,0.69,17.87,9,17.87,19.16c0,7.01-3.76,13.15-9.38,16.5"/>
			<line class="st1" x1="229.52" y1="391.41" x2="229.52" y2="391.41"/>
			<line class="st1" x1="229.52" y1="391.41" x2="229.52" y2="391.41"/>
		</g>
	</g>
	<g>
		<g>
			<g>
				<circle class="st1" cx="140.34" cy="171.93" r="16.32"/>
				<g>
					<polygon class="st1" points="154.57,171.93 153.97,172.95 154.42,174.06 153.67,174.98 153.94,176.13 153.06,176.93 
						153.17,178.11 152.18,178.77 152.1,179.95 151.02,180.46 150.77,181.62 149.63,181.95 149.21,183.06 148.04,183.23 
						147.46,184.26 146.27,184.25 145.54,185.19 144.37,185 143.51,185.81 142.38,185.45 141.4,186.13 140.34,185.6 139.27,186.13 
						138.3,185.45 137.17,185.81 136.31,185 135.14,185.19 134.41,184.25 133.22,184.26 132.64,183.23 131.46,183.06 131.04,181.95 
						129.9,181.61 129.65,180.45 128.58,179.95 128.5,178.77 127.51,178.11 127.61,176.93 126.73,176.13 127.01,174.97 
						126.26,174.05 126.71,172.95 126.11,171.93 126.71,170.91 126.26,169.81 127.01,168.89 126.73,167.73 127.61,166.94 
						127.51,165.75 128.5,165.1 128.58,163.91 129.65,163.41 129.91,162.25 131.04,161.91 131.47,160.8 132.64,160.64 133.22,159.6 
						134.41,159.62 135.14,158.68 136.31,158.87 137.17,158.05 138.3,158.42 139.28,157.74 140.34,158.26 141.4,157.74 
						142.38,158.42 143.51,158.05 144.37,158.87 145.54,158.68 146.27,159.62 147.46,159.6 148.04,160.64 149.22,160.8 
						149.64,161.91 150.77,162.25 151.03,163.41 152.1,163.91 152.18,165.1 153.17,165.76 153.07,166.94 153.94,167.74 
						153.67,168.89 154.42,169.81 153.97,170.91 					"/>
				</g>
				<line class="st1" x1="140.34" y1="157.98" x2="140.34" y2="169.99"/>
				<g>
					<path class="st2" d="M123.39,200.6c-0.04-0.66-0.08-1.45-0.07-2.04h-0.02c-0.16,0.55-0.36,1.14-0.59,1.79l-0.83,2.29h-0.46
						l-0.76-2.25c-0.22-0.67-0.41-1.27-0.55-1.83h-0.01c-0.01,0.59-0.05,1.38-0.09,2.09l-0.13,2.02h-0.58l0.33-4.72h0.78l0.81,2.28
						c0.2,0.58,0.36,1.1,0.48,1.59h0.02c0.12-0.48,0.29-0.99,0.5-1.59l0.84-2.28h0.78l0.29,4.72h-0.59L123.39,200.6z"/>
					<path class="st2" d="M125.73,201.19l-0.49,1.48h-0.63l1.6-4.72h0.74l1.61,4.72h-0.65l-0.5-1.48H125.73z M127.28,200.72
						l-0.46-1.36c-0.1-0.31-0.17-0.59-0.25-0.86h-0.01c-0.07,0.28-0.15,0.57-0.24,0.85l-0.46,1.37H127.28z"/>
					<path class="st2" d="M129.16,201.93c0.27,0.17,0.67,0.31,1.09,0.31c0.62,0,0.99-0.33,0.99-0.81c0-0.44-0.25-0.69-0.89-0.94
						c-0.77-0.27-1.25-0.67-1.25-1.34c0-0.74,0.61-1.28,1.53-1.28c0.48,0,0.83,0.11,1.04,0.23l-0.17,0.5
						c-0.15-0.08-0.47-0.22-0.9-0.22c-0.64,0-0.89,0.39-0.89,0.71c0,0.44,0.29,0.66,0.94,0.91c0.8,0.31,1.2,0.69,1.2,1.39
						c0,0.73-0.54,1.36-1.65,1.36c-0.46,0-0.95-0.13-1.21-0.3L129.16,201.93z"/>
					<path class="st2" d="M133.6,198.47h-1.44v-0.52h3.5v0.52h-1.44v4.2h-0.62V198.47z"/>
					<path class="st2" d="M138.62,200.46h-1.83v1.7h2.04v0.51h-2.65v-4.72h2.55v0.51h-1.94v1.49h1.83V200.46z"/>
					<path class="st2" d="M139.62,198.02c0.31-0.06,0.75-0.1,1.17-0.1c0.65,0,1.07,0.12,1.37,0.38c0.24,0.21,0.37,0.53,0.37,0.9
						c0,0.62-0.39,1.04-0.89,1.21v0.02c0.36,0.13,0.58,0.46,0.69,0.95c0.15,0.66,0.27,1.11,0.36,1.3h-0.63
						c-0.08-0.13-0.18-0.54-0.32-1.13c-0.14-0.65-0.39-0.9-0.95-0.92h-0.57v2.04h-0.61V198.02z M140.23,200.17h0.62
						c0.65,0,1.06-0.36,1.06-0.9c0-0.61-0.44-0.88-1.08-0.88c-0.29,0-0.5,0.03-0.6,0.06V200.17z"/>
					<path class="st2" d="M144.87,197.96h0.61v4.21h2.02v0.51h-2.63V197.96z"/>
					<path class="st2" d="M150.62,200.46h-1.83v1.7h2.04v0.51h-2.65v-4.72h2.55v0.51h-1.94v1.49h1.83V200.46z"/>
					<path class="st2" d="M152.72,202.68l-1.54-4.72h0.66l0.74,2.33c0.2,0.64,0.38,1.21,0.5,1.77h0.01
						c0.13-0.55,0.33-1.14,0.54-1.76l0.8-2.33h0.65l-1.69,4.72H152.72z"/>
					<path class="st2" d="M158.03,200.46h-1.83v1.7h2.04v0.51h-2.65v-4.72h2.55v0.51h-1.94v1.49h1.83V200.46z"/>
					<path class="st2" d="M159.03,197.96h0.61v4.21h2.02v0.51h-2.63V197.96z"/>
				</g>
				<g>
					<path class="st2" d="M153.07,194.11c0,1.33-0.49,2.06-1.36,2.06c-0.76,0-1.28-0.71-1.29-2c0-1.31,0.56-2.03,1.36-2.03
						C152.6,192.14,153.07,192.87,153.07,194.11z M150.95,194.17c0,1.01,0.31,1.59,0.79,1.59c0.54,0,0.8-0.63,0.8-1.63
						c0-0.96-0.25-1.59-0.79-1.59C151.29,192.54,150.95,193.11,150.95,194.17z"/>
				</g>
				<g>
					<path class="st2" d="M124.46,194.2v0.52h-1.97v-0.52H124.46z"/>
					<path class="st2" d="M127.61,194.84c-0.41,0.41-0.83,0.86-1.48,0.86c-0.67,0-1.15-0.5-1.15-1.18c0-0.63,0.51-1.18,1.21-1.18
						c0.59,0,1.03,0.47,1.42,0.86c0.41-0.41,0.83-0.86,1.48-0.86c0.68,0,1.15,0.5,1.15,1.18c0,0.63-0.51,1.18-1.22,1.18
						C128.44,195.7,128,195.23,127.61,194.84z M127.3,194.51c-0.31-0.29-0.64-0.7-1.1-0.7c-0.4,0-0.7,0.33-0.7,0.7
						c0,0.41,0.29,0.7,0.68,0.7C126.62,195.22,126.99,194.83,127.3,194.51z M129.74,194.51c0-0.41-0.29-0.7-0.68-0.7
						c-0.46,0-0.82,0.39-1.13,0.7c0.31,0.29,0.64,0.7,1.1,0.7C129.44,195.22,129.74,194.89,129.74,194.51z"/>
				</g>
			</g>
			<path class="st1" d="M150.17,188.44c5.62-3.35,9.38-9.49,9.38-16.5c0-10.16-7.89-18.47-17.87-19.16
				c-0.4-0.04-0.85-0.06-1.33-0.07c-0.49,0-0.94,0.03-1.35,0.07c-1.4,0.1-7.68,0.69-12.68,6.03c-3.22,3.43-5.19,8.05-5.19,13.13
				c0,1.99,0.3,3.91,0.86,5.71c1.94,6.24,6.69,9.62,8.51,10.79"/>
			<line class="st1" x1="140.34" y1="191.14" x2="140.34" y2="191.14"/>
			<line class="st1" x1="140.34" y1="191.14" x2="140.34" y2="191.14"/>
		</g>
		<g>
			<g>
				<circle class="st1" cx="140.34" cy="238.97" r="16.32"/>
				<g>
					<polygon class="st1" points="154.57,238.97 153.97,239.99 154.42,241.09 153.67,242.02 153.94,243.17 153.06,243.97 
						153.17,245.15 152.18,245.81 152.1,246.99 151.02,247.49 150.77,248.65 149.63,248.99 149.21,250.1 148.04,250.27 
						147.46,251.3 146.27,251.29 145.54,252.23 144.37,252.04 143.51,252.85 142.38,252.49 141.4,253.17 140.34,252.64 
						139.27,253.17 138.3,252.49 137.17,252.85 136.31,252.03 135.14,252.22 134.41,251.29 133.22,251.3 132.64,250.26 
						131.46,250.1 131.04,248.99 129.9,248.65 129.65,247.49 128.58,246.99 128.5,245.81 127.51,245.15 127.61,243.97 
						126.73,243.17 127.01,242.01 126.26,241.09 126.71,239.99 126.11,238.97 126.71,237.95 126.26,236.85 127.01,235.93 
						126.73,234.77 127.61,233.98 127.51,232.79 128.5,232.14 128.58,230.95 129.65,230.45 129.91,229.29 131.04,228.95 
						131.47,227.84 132.64,227.68 133.22,226.64 134.41,226.65 135.14,225.72 136.31,225.91 137.17,225.09 138.3,225.46 
						139.28,224.78 140.34,225.3 141.4,224.78 142.38,225.46 143.51,225.09 144.37,225.91 145.54,225.72 146.27,226.66 
						147.46,226.64 148.04,227.68 149.22,227.84 149.64,228.95 150.77,229.29 151.03,230.45 152.1,230.95 152.18,232.14 
						153.17,232.79 153.07,233.98 153.94,234.77 153.67,235.93 154.42,236.85 153.97,237.95 					"/>
				</g>
				<line class="st1" x1="140.34" y1="225.02" x2="140.34" y2="237.03"/>
				<g>
					<path class="st2" d="M120.74,265.06c0.27-0.06,0.69-0.1,1.11-0.1c0.61,0,1,0.1,1.3,0.34c0.25,0.18,0.39,0.46,0.39,0.83
						c0,0.46-0.3,0.85-0.8,1.04v0.01c0.45,0.11,0.97,0.48,0.97,1.18c0,0.41-0.16,0.71-0.4,0.95c-0.33,0.3-0.86,0.44-1.63,0.44
						c-0.42,0-0.74-0.03-0.95-0.06V265.06z M121.35,266.99h0.55c0.64,0,1.02-0.34,1.02-0.79c0-0.55-0.42-0.77-1.04-0.77
						c-0.28,0-0.44,0.02-0.54,0.04V266.99z M121.35,269.25c0.12,0.02,0.29,0.03,0.51,0.03c0.63,0,1.21-0.23,1.21-0.92
						c0-0.64-0.55-0.91-1.22-0.91h-0.5V269.25z"/>
					<path class="st2" d="M128.57,267.31c0,1.63-0.99,2.49-2.19,2.49c-1.25,0-2.12-0.97-2.12-2.4c0-1.5,0.93-2.48,2.19-2.48
						C127.74,264.92,128.57,265.91,128.57,267.31z M124.91,267.38c0,1.01,0.55,1.91,1.51,1.91c0.97,0,1.51-0.89,1.51-1.96
						c0-0.94-0.49-1.92-1.51-1.92C125.41,265.42,124.91,266.35,124.91,267.38z"/>
					<path class="st2" d="M133.4,267.31c0,1.63-0.99,2.49-2.19,2.49c-1.25,0-2.12-0.97-2.12-2.4c0-1.5,0.93-2.48,2.19-2.48
						C132.56,264.92,133.4,265.91,133.4,267.31z M129.73,267.38c0,1.01,0.55,1.91,1.51,1.91c0.97,0,1.51-0.89,1.51-1.96
						c0-0.94-0.49-1.92-1.51-1.92C130.24,265.42,129.73,266.35,129.73,267.38z"/>
					<path class="st2" d="M134.9,265.51h-1.44v-0.52h3.5v0.52h-1.44v4.2h-0.62V265.51z"/>
					<path class="st2" d="M138.1,264.99v1.98h2.28v-1.98H141v4.72h-0.62v-2.21h-2.28v2.21h-0.61v-4.72H138.1z"/>
					<path class="st2" d="M143.54,264.99h0.61v4.21h2.02v0.51h-2.63V264.99z"/>
					<path class="st2" d="M149.28,267.5h-1.83v1.7h2.04v0.51h-2.65v-4.72h2.55v0.51h-1.94V267h1.83V267.5z"/>
					<path class="st2" d="M151.38,269.72l-1.54-4.72h0.66l0.74,2.32c0.2,0.64,0.38,1.21,0.5,1.77h0.01
						c0.13-0.55,0.33-1.14,0.54-1.76l0.8-2.33h0.65l-1.69,4.72H151.38z"/>
					<path class="st2" d="M156.7,267.5h-1.83v1.7h2.04v0.51h-2.65v-4.72h2.55v0.51h-1.94V267h1.83V267.5z"/>
					<path class="st2" d="M157.7,264.99h0.61v4.21h2.02v0.51h-2.63V264.99z"/>
				</g>
				<g>
					<path class="st2" d="M153.07,261.15c0,1.33-0.49,2.06-1.36,2.06c-0.76,0-1.28-0.71-1.29-2c0-1.31,0.56-2.03,1.36-2.03
						C152.6,259.17,153.07,259.91,153.07,261.15z M150.95,261.21c0,1.01,0.31,1.59,0.79,1.59c0.54,0,0.8-0.63,0.8-1.63
						c0-0.96-0.25-1.59-0.79-1.59C151.29,259.58,150.95,260.15,150.95,261.21z"/>
				</g>
				<g>
					<path class="st2" d="M124.46,261.24v0.52h-1.97v-0.52H124.46z"/>
					<path class="st2" d="M127.61,261.88c-0.41,0.41-0.83,0.86-1.48,0.86c-0.67,0-1.15-0.5-1.15-1.18c0-0.63,0.51-1.18,1.21-1.18
						c0.59,0,1.03,0.47,1.42,0.86c0.41-0.41,0.83-0.86,1.48-0.86c0.68,0,1.15,0.5,1.15,1.18c0,0.63-0.51,1.18-1.22,1.18
						C128.44,262.74,128,262.27,127.61,261.88z M127.3,261.55c-0.31-0.29-0.64-0.7-1.1-0.7c-0.4,0-0.7,0.33-0.7,0.7
						c0,0.41,0.29,0.7,0.68,0.7C126.62,262.26,126.99,261.87,127.3,261.55z M129.74,261.55c0-0.41-0.29-0.7-0.68-0.7
						c-0.46,0-0.82,0.39-1.13,0.7c0.31,0.29,0.64,0.7,1.1,0.7C129.44,262.26,129.74,261.93,129.74,261.55z"/>
				</g>
			</g>
			<path class="st1" d="M150.17,255.48c5.62-3.35,9.38-9.49,9.38-16.5c0-10.16-7.89-18.47-17.87-19.16
				c-0.4-0.04-0.85-0.06-1.33-0.07c-0.49,0-0.94,0.03-1.35,0.07c-1.4,0.1-7.68,0.69-12.68,6.03c-3.22,3.43-5.19,8.05-5.19,13.13
				c0,1.99,0.3,3.91,0.86,5.71c1.94,6.24,6.69,9.62,8.51,10.79"/>
			<line class="st1" x1="140.34" y1="258.18" x2="140.34" y2="258.18"/>
			<line class="st1" x1="140.34" y1="258.18" x2="140.34" y2="258.18"/>
		</g>
		<g>
			<g>
				<circle class="st1" cx="140.34" cy="372.74" r="16.32"/>
				<g>
					<polygon class="st1" points="154.57,372.74 153.97,373.76 154.42,374.87 153.67,375.79 153.94,376.94 153.06,377.74 
						153.17,378.92 152.18,379.58 152.1,380.76 151.02,381.26 150.77,382.42 149.63,382.76 149.21,383.87 148.04,384.04 
						147.46,385.07 146.27,385.06 145.54,386 144.37,385.81 143.51,386.62 142.38,386.26 141.4,386.94 140.34,386.41 139.27,386.94 
						138.3,386.26 137.17,386.62 136.31,385.8 135.14,385.99 134.41,385.06 133.22,385.07 132.64,384.03 131.46,383.87 
						131.04,382.76 129.9,382.42 129.65,381.26 128.58,380.76 128.5,379.58 127.51,378.92 127.61,377.74 126.73,376.94 
						127.01,375.78 126.26,374.86 126.71,373.76 126.11,372.74 126.71,371.72 126.26,370.62 127.01,369.7 126.73,368.54 
						127.61,367.75 127.51,366.56 128.5,365.91 128.58,364.72 129.65,364.22 129.91,363.06 131.04,362.72 131.47,361.61 
						132.64,361.45 133.22,360.41 134.41,360.42 135.14,359.49 136.31,359.68 137.17,358.86 138.3,359.23 139.28,358.55 
						140.34,359.07 141.4,358.55 142.38,359.23 143.51,358.86 144.37,359.68 145.54,359.49 146.27,360.43 147.46,360.41 
						148.04,361.45 149.22,361.61 149.64,362.72 150.77,363.06 151.03,364.22 152.1,364.72 152.18,365.91 153.17,366.57 
						153.07,367.75 153.94,368.54 153.67,369.7 154.42,370.62 153.97,371.72 					"/>
				</g>
				<line class="st1" x1="140.34" y1="358.79" x2="140.34" y2="370.8"/>
				<g>
					<path class="st2" d="M113.69,399.28h-1.44v-0.52h3.5v0.52h-1.44v4.2h-0.62V399.28z"/>
					<path class="st2" d="M116.27,398.83c0.31-0.06,0.75-0.1,1.17-0.1c0.65,0,1.07,0.12,1.37,0.38c0.24,0.21,0.37,0.53,0.37,0.9
						c0,0.62-0.39,1.04-0.89,1.21v0.02c0.36,0.13,0.58,0.46,0.69,0.95c0.15,0.66,0.27,1.11,0.36,1.3h-0.63
						c-0.08-0.13-0.18-0.54-0.32-1.13c-0.14-0.65-0.39-0.9-0.95-0.92h-0.57v2.04h-0.61V398.83z M116.88,400.98h0.62
						c0.65,0,1.06-0.36,1.06-0.9c0-0.61-0.44-0.88-1.08-0.88c-0.29,0-0.5,0.03-0.6,0.06V400.98z"/>
					<path class="st2" d="M119.49,403.77l1.95-5.08h0.48l-1.96,5.08H119.49z"/>
					<path class="st2" d="M122.35,402.74c0.27,0.17,0.67,0.31,1.09,0.31c0.62,0,0.99-0.33,0.99-0.81c0-0.44-0.25-0.69-0.89-0.94
						c-0.77-0.27-1.25-0.67-1.25-1.34c0-0.74,0.61-1.28,1.53-1.28c0.48,0,0.83,0.11,1.04,0.23l-0.17,0.5
						c-0.15-0.08-0.47-0.22-0.9-0.22c-0.64,0-0.89,0.38-0.89,0.71c0,0.44,0.29,0.66,0.94,0.91c0.8,0.31,1.2,0.69,1.2,1.39
						c0,0.73-0.54,1.36-1.65,1.36c-0.46,0-0.95-0.13-1.21-0.3L122.35,402.74z"/>
					<path class="st2" d="M126.65,402l-0.49,1.48h-0.63l1.6-4.72h0.74l1.61,4.72h-0.65l-0.5-1.48H126.65z M128.2,401.52l-0.46-1.36
						c-0.1-0.31-0.17-0.59-0.25-0.86h-0.01c-0.07,0.28-0.15,0.57-0.24,0.85l-0.46,1.37H128.2z"/>
					<path class="st2" d="M134.12,401.41c-0.04-0.66-0.08-1.45-0.07-2.04h-0.02c-0.16,0.55-0.36,1.14-0.59,1.79l-0.83,2.29h-0.46
						l-0.76-2.25c-0.22-0.67-0.41-1.27-0.55-1.83h-0.01c-0.01,0.59-0.05,1.38-0.09,2.09l-0.13,2.02h-0.58l0.33-4.72h0.78l0.81,2.28
						c0.2,0.58,0.36,1.1,0.48,1.59h0.02c0.12-0.48,0.29-0.99,0.5-1.59l0.84-2.28h0.78l0.29,4.72h-0.59L134.12,401.41z"/>
					<path class="st2" d="M135.77,398.82c0.29-0.05,0.68-0.09,1.17-0.09c0.6,0,1.04,0.14,1.32,0.39c0.26,0.22,0.41,0.57,0.41,0.99
						c0,0.43-0.13,0.76-0.36,1.01c-0.32,0.34-0.85,0.52-1.44,0.52c-0.18,0-0.35-0.01-0.49-0.04v1.89h-0.61V398.82z M136.38,401.1
						c0.13,0.04,0.3,0.05,0.5,0.05c0.74,0,1.18-0.36,1.18-1.01c0-0.62-0.44-0.92-1.11-0.92c-0.27,0-0.47,0.02-0.57,0.05V401.1z"/>
					<path class="st2" d="M139.49,398.76h0.61v4.21h2.02v0.51h-2.63V398.76z"/>
					<path class="st2" d="M145.24,401.27h-1.83v1.7h2.04v0.51h-2.65v-4.72h2.55v0.51h-1.94v1.49h1.83V401.27z"/>
					<path class="st2" d="M146.24,398.83c0.31-0.06,0.75-0.1,1.17-0.1c0.65,0,1.07,0.12,1.37,0.38c0.24,0.21,0.37,0.53,0.37,0.9
						c0,0.62-0.39,1.04-0.89,1.21v0.02c0.36,0.13,0.58,0.46,0.69,0.95c0.15,0.66,0.27,1.11,0.36,1.3h-0.63
						c-0.08-0.13-0.18-0.54-0.32-1.13c-0.14-0.65-0.39-0.9-0.95-0.92h-0.57v2.04h-0.61V398.83z M146.85,400.98h0.62
						c0.65,0,1.06-0.36,1.06-0.9c0-0.61-0.44-0.88-1.08-0.88c-0.29,0-0.5,0.03-0.6,0.06V400.98z"/>
					<path class="st2" d="M151.49,398.76h0.61v4.21h2.02v0.51h-2.63V398.76z"/>
					<path class="st2" d="M157.24,401.27h-1.83v1.7h2.04v0.51h-2.65v-4.72h2.55v0.51h-1.94v1.49h1.83V401.27z"/>
					<path class="st2" d="M159.34,403.49l-1.54-4.72h0.66l0.74,2.33c0.2,0.64,0.38,1.21,0.5,1.77h0.01
						c0.13-0.55,0.33-1.14,0.54-1.76l0.8-2.33h0.65l-1.69,4.72H159.34z"/>
					<path class="st2" d="M164.65,401.27h-1.83v1.7h2.04v0.51h-2.65v-4.72h2.55v0.51h-1.94v1.49h1.83V401.27z"/>
					<path class="st2" d="M165.65,398.76h0.61v4.21h2.02v0.51h-2.63V398.76z"/>
				</g>
				<g>
					<path class="st2" d="M153.07,394.92c0,1.33-0.49,2.06-1.36,2.06c-0.76,0-1.28-0.71-1.29-2c0-1.31,0.56-2.03,1.36-2.03
						C152.6,392.94,153.07,393.68,153.07,394.92z M150.95,394.98c0,1.01,0.31,1.59,0.79,1.59c0.54,0,0.8-0.63,0.8-1.63
						c0-0.96-0.25-1.59-0.79-1.59C151.29,393.35,150.95,393.92,150.95,394.98z"/>
				</g>
				<g>
					<path class="st2" d="M124.46,395.01v0.52h-1.97v-0.52H124.46z"/>
					<path class="st2" d="M127.61,395.65c-0.41,0.41-0.83,0.86-1.48,0.86c-0.67,0-1.15-0.5-1.15-1.18c0-0.63,0.51-1.18,1.21-1.18
						c0.59,0,1.03,0.47,1.42,0.86c0.41-0.41,0.83-0.86,1.48-0.86c0.68,0,1.15,0.5,1.15,1.18c0,0.63-0.51,1.18-1.22,1.18
						C128.44,396.51,128,396.04,127.61,395.65z M127.3,395.32c-0.31-0.29-0.64-0.7-1.1-0.7c-0.4,0-0.7,0.33-0.7,0.7
						c0,0.41,0.29,0.7,0.68,0.7C126.62,396.03,126.99,395.64,127.3,395.32z M129.74,395.32c0-0.41-0.29-0.7-0.68-0.7
						c-0.46,0-0.82,0.39-1.13,0.7c0.31,0.29,0.64,0.7,1.1,0.7C129.44,396.03,129.74,395.7,129.74,395.32z"/>
				</g>
			</g>
			<path class="st1" d="M150.17,389.25c5.62-3.35,9.38-9.49,9.38-16.5c0-10.16-7.89-18.47-17.87-19.16
				c-0.4-0.04-0.85-0.06-1.33-0.07c-0.49,0-0.94,0.03-1.35,0.07c-1.4,0.1-7.68,0.69-12.68,6.03c-3.22,3.43-5.19,8.05-5.19,13.13
				c0,1.99,0.3,3.91,0.86,5.71c1.94,6.24,6.69,9.62,8.51,10.79"/>
			<line class="st1" x1="140.34" y1="391.95" x2="140.34" y2="391.95"/>
			<line class="st1" x1="140.34" y1="391.95" x2="140.34" y2="391.95"/>
		</g>
		<g>
			<g>
				<circle class="st1" cx="140.34" cy="305.44" r="16.32"/>
				<g>
					<polygon class="st1" points="154.57,305.44 153.97,306.47 154.42,307.57 153.67,308.49 153.94,309.64 153.06,310.44 
						153.17,311.62 152.18,312.28 152.1,313.46 151.02,313.97 150.77,315.13 149.63,315.46 149.21,316.57 148.04,316.74 
						147.46,317.77 146.27,317.76 145.54,318.7 144.37,318.51 143.51,319.32 142.38,318.96 141.4,319.64 140.34,319.11 
						139.27,319.64 138.3,318.96 137.17,319.32 136.31,318.51 135.14,318.7 134.41,317.76 133.22,317.77 132.64,316.74 
						131.46,316.57 131.04,315.46 129.9,315.12 129.65,313.96 128.58,313.46 128.5,312.28 127.51,311.62 127.61,310.44 
						126.73,309.64 127.01,308.49 126.26,307.57 126.71,306.47 126.11,305.44 126.71,304.42 126.26,303.32 127.01,302.4 
						126.73,301.25 127.61,300.45 127.51,299.26 128.5,298.61 128.58,297.42 129.65,296.92 129.91,295.76 131.04,295.42 
						131.47,294.31 132.64,294.15 133.22,293.11 134.41,293.13 135.14,292.19 136.31,292.38 137.17,291.56 138.3,291.93 
						139.28,291.25 140.34,291.78 141.4,291.25 142.38,291.93 143.51,291.56 144.37,292.38 145.54,292.19 146.27,293.13 
						147.46,293.12 148.04,294.15 149.22,294.32 149.64,295.43 150.77,295.76 151.03,296.92 152.1,297.43 152.18,298.61 
						153.17,299.27 153.07,300.45 153.94,301.25 153.67,302.4 154.42,303.32 153.97,304.42 					"/>
				</g>
				<line class="st1" x1="140.34" y1="291.49" x2="140.34" y2="303.5"/>
			</g>
			<path class="st1" d="M139,286.28c-9.98,0.69-17.87,9-17.87,19.16c0,7.01,3.76,13.15,9.38,16.5"/>
			<path class="st1" d="M141.68,286.28c9.98,0.69,17.87,9,17.87,19.16c0,7.01-3.76,13.15-9.38,16.5"/>
		</g>
		<g class="st5">
			<g>
				<circle class="st1" cx="140.34" cy="54.47" r="16.32"/>
				<g>
					<polygon class="st1" points="154.57,54.47 153.97,55.5 154.42,56.6 153.67,57.52 153.94,58.67 153.06,59.47 153.17,60.65 
						152.18,61.31 152.1,62.5 151.02,63 150.77,64.16 149.63,64.49 149.21,65.6 148.04,65.77 147.46,66.8 146.27,66.79 
						145.54,67.73 144.37,67.54 143.51,68.35 142.38,67.99 141.4,68.67 140.34,68.14 139.27,68.67 138.3,67.99 137.17,68.35 
						136.31,67.54 135.14,67.73 134.41,66.79 133.22,66.8 132.64,65.77 131.46,65.6 131.04,64.49 129.9,64.16 129.65,62.99 
						128.58,62.49 128.5,61.31 127.51,60.65 127.61,59.47 126.73,58.67 127.01,57.52 126.26,56.6 126.71,55.5 126.11,54.47 
						126.71,53.45 126.26,52.35 127.01,51.43 126.73,50.28 127.61,49.48 127.51,48.3 128.5,47.64 128.58,46.45 129.65,45.95 
						129.91,44.79 131.04,44.45 131.47,43.34 132.64,43.18 133.22,42.14 134.41,42.16 135.14,41.22 136.31,41.41 137.17,40.59 
						138.3,40.96 139.28,40.28 140.34,40.81 141.4,40.28 142.38,40.96 143.51,40.59 144.37,41.41 145.54,41.22 146.27,42.16 
						147.46,42.15 148.04,43.18 149.22,43.35 149.64,44.46 150.77,44.79 151.03,45.95 152.1,46.46 152.18,47.64 153.17,48.3 
						153.07,49.48 153.94,50.28 153.67,51.43 154.42,52.35 153.97,53.45 					"/>
				</g>
				<line class="st1" x1="140.34" y1="40.52" x2="140.34" y2="52.53"/>
			</g>
			<line class="st1" x1="140.34" y1="73.68" x2="140.34" y2="73.68"/>
			<line class="st1" x1="140.34" y1="73.68" x2="140.34" y2="73.68"/>
			<circle class="st1" cx="140.34" cy="54.47" r="19.21"/>
		</g>
	</g>
	<g>
		<path class="st3" d="M73.71,438.93H28.87c-1.25,0-2.26-1.01-2.26-2.26v-11.89c0-1.25,1.01-2.26,2.26-2.26h44.84
			c1.25,0,2.26,1.01,2.26,2.26v11.89C75.97,437.91,74.96,438.93,73.71,438.93z"/>
		<rect x="29.28" y="425.24" class="st6" width="44" height="11.05"/>
		<g>
			<path class="st7" d="M49.09,420.19c-0.22,0.11-0.67,0.22-1.25,0.22c-1.33,0-2.33-0.84-2.33-2.39c0-1.48,1-2.48,2.47-2.48
				c0.59,0,0.96,0.13,1.12,0.21l-0.15,0.5c-0.23-0.11-0.56-0.2-0.95-0.2c-1.11,0-1.84,0.71-1.84,1.95c0,1.16,0.67,1.9,1.81,1.9
				c0.37,0,0.75-0.08,0.99-0.2L49.09,420.19z"/>
			<path class="st7" d="M50.46,415.63v2.79c0,1.06,0.47,1.51,1.1,1.51c0.7,0,1.15-0.46,1.15-1.51v-2.79h0.62v2.75
				c0,1.45-0.76,2.05-1.79,2.05c-0.97,0-1.69-0.55-1.69-2.02v-2.78H50.46z"/>
			<path class="st7" d="M56.82,418.14h-1.83v1.7h2.04v0.51h-2.65v-4.72h2.55v0.51h-1.94v1.49h1.83V418.14z"/>
		</g>
	</g>
	<rect x="24.5" y="445.59" class="st7" width="53.58" height="9.05"/>
	<g>
		<path class="st8" d="M47.22,448.41h-1.44v-0.52h3.5v0.52h-1.44v4.2h-0.62V448.41z"/>
		<path class="st8" d="M50.04,451.13l-0.49,1.49h-0.63l1.6-4.72h0.74l1.61,4.72h-0.65l-0.5-1.49H50.04z M51.59,450.65l-0.46-1.36
			c-0.1-0.31-0.17-0.59-0.25-0.86h-0.01c-0.07,0.28-0.15,0.57-0.24,0.85l-0.46,1.37H51.59z"/>
		<path class="st8" d="M53.56,447.95c0.29-0.05,0.68-0.09,1.17-0.09c0.6,0,1.04,0.14,1.32,0.39c0.26,0.22,0.41,0.57,0.41,0.99
			c0,0.43-0.13,0.76-0.36,1.01c-0.32,0.34-0.85,0.52-1.44,0.52c-0.18,0-0.35-0.01-0.49-0.04v1.89h-0.61V447.95z M54.17,450.22
			c0.13,0.04,0.3,0.05,0.5,0.05c0.74,0,1.18-0.36,1.18-1.01c0-0.62-0.44-0.92-1.11-0.92c-0.27,0-0.47,0.02-0.57,0.05V450.22z"/>
	</g>
	<g>
		<path class="st3" d="M162.76,438.92h-44.84c-1.25,0-2.26-1.01-2.26-2.26v-11.89c0-1.25,1.01-2.26,2.26-2.26h44.84
			c1.25,0,2.26,1.01,2.26,2.26v11.89C165.02,437.91,164.01,438.92,162.76,438.92z"/>
		<rect x="118.33" y="425.24" class="st6" width="44" height="11.05"/>
		<g>
			<path class="st7" d="M138.14,420.19c-0.22,0.11-0.67,0.22-1.25,0.22c-1.33,0-2.33-0.84-2.33-2.39c0-1.48,1-2.48,2.47-2.48
				c0.59,0,0.96,0.13,1.12,0.21l-0.15,0.5c-0.23-0.11-0.56-0.2-0.95-0.2c-1.11,0-1.84,0.71-1.84,1.95c0,1.16,0.67,1.9,1.81,1.9
				c0.37,0,0.75-0.08,0.99-0.2L138.14,420.19z"/>
			<path class="st7" d="M139.51,415.63v2.79c0,1.06,0.47,1.51,1.1,1.51c0.7,0,1.15-0.46,1.15-1.51v-2.79h0.62v2.75
				c0,1.45-0.76,2.04-1.79,2.04c-0.97,0-1.69-0.55-1.69-2.02v-2.78H139.51z"/>
			<path class="st7" d="M145.88,418.14h-1.83v1.7h2.04v0.51h-2.65v-4.72h2.55v0.51h-1.94v1.49h1.83V418.14z"/>
		</g>
	</g>
	<line class="st9" x1="91.18" y1="18.78" x2="91.34" y2="489.46"/>
	<line class="st9" x1="190.18" y1="18.78" x2="190.34" y2="489.46"/>
	<rect x="47.44" y="481.99" class="st9" width="8.32" height="123.26"/>
	<g>
		<line class="st10" x1="27.76" y1="493.78" x2="44.6" y2="493.78"/>
		<line class="st10" x1="58.13" y1="493.78" x2="74.97" y2="493.78"/>
		<line class="st9" x1="27.76" y1="503.84" x2="44.6" y2="503.84"/>
		<line class="st9" x1="58.13" y1="503.84" x2="74.97" y2="503.84"/>
		<line class="st9" x1="27.76" y1="513.9" x2="44.6" y2="513.9"/>
		<line class="st9" x1="58.13" y1="513.9" x2="74.97" y2="513.9"/>
		<line class="st9" x1="27.76" y1="523.97" x2="44.6" y2="523.97"/>
		<line class="st9" x1="58.13" y1="523.97" x2="74.97" y2="523.97"/>
	</g>
	<g>
		<line class="st9" x1="27.76" y1="563.78" x2="44.6" y2="563.78"/>
		<line class="st9" x1="58.13" y1="563.78" x2="74.97" y2="563.78"/>
		<line class="st9" x1="27.76" y1="573.84" x2="44.6" y2="573.84"/>
		<line class="st9" x1="58.13" y1="573.84" x2="74.97" y2="573.84"/>
		<line class="st9" x1="27.76" y1="583.9" x2="44.6" y2="583.9"/>
		<line class="st9" x1="58.13" y1="583.9" x2="74.97" y2="583.9"/>
		<line class="st10" x1="27.76" y1="593.97" x2="44.6" y2="593.97"/>
		<line class="st10" x1="58.13" y1="593.97" x2="74.97" y2="593.97"/>
	</g>
	<g>
		<path class="st7" d="M51.34,468.71h-0.03l-1.47,0.79l-0.22-0.87l1.85-0.99h0.97v8.45h-1.1V468.71z"/>
	</g>
	<rect x="27.76" y="534.12" class="st11" width="47.21" height="19.87"/>
	<rect x="27.76" y="541.46" class="st11" width="47.21" height="5.19"/>
	<g>
		<path class="st3" d="M252.36,438.93h-44.84c-1.25,0-2.26-1.01-2.26-2.26v-11.89c0-1.25,1.01-2.26,2.26-2.26h44.84
			c1.25,0,2.26,1.01,2.26,2.26v11.89C254.62,437.91,253.61,438.93,252.36,438.93z"/>
		<rect x="207.93" y="425.24" class="st6" width="44" height="11.05"/>
		<g>
			<path class="st7" d="M227.74,420.19c-0.22,0.11-0.67,0.22-1.25,0.22c-1.33,0-2.33-0.84-2.33-2.39c0-1.48,1-2.48,2.47-2.48
				c0.59,0,0.96,0.13,1.12,0.21l-0.15,0.5c-0.23-0.11-0.56-0.2-0.95-0.2c-1.11,0-1.84,0.71-1.84,1.95c0,1.16,0.67,1.9,1.81,1.9
				c0.37,0,0.75-0.08,0.99-0.2L227.74,420.19z"/>
			<path class="st7" d="M229.11,415.63v2.79c0,1.06,0.47,1.51,1.1,1.51c0.7,0,1.15-0.46,1.15-1.51v-2.79h0.62v2.75
				c0,1.45-0.76,2.05-1.79,2.05c-0.97,0-1.69-0.55-1.69-2.02v-2.78H229.11z"/>
			<path class="st7" d="M235.48,418.14h-1.83v1.7h2.04v0.51h-2.65v-4.72h2.55v0.51h-1.94v1.49h1.83V418.14z"/>
		</g>
	</g>
	<rect x="203.15" y="445.59" class="st7" width="53.58" height="9.05"/>
	<g>
		<path class="st8" d="M225.87,448.41h-1.44v-0.52h3.5v0.52h-1.44v4.2h-0.62V448.41z"/>
		<path class="st8" d="M228.7,451.13l-0.49,1.49h-0.63l1.6-4.72h0.74l1.61,4.72h-0.65l-0.5-1.49H228.7z M230.24,450.65l-0.46-1.36
			c-0.1-0.31-0.17-0.59-0.25-0.86h-0.01c-0.07,0.28-0.15,0.57-0.24,0.85l-0.46,1.37H230.24z"/>
		<path class="st8" d="M232.22,447.95c0.29-0.05,0.68-0.09,1.17-0.09c0.6,0,1.04,0.14,1.32,0.39c0.26,0.22,0.41,0.57,0.41,0.99
			c0,0.43-0.13,0.76-0.36,1.01c-0.32,0.34-0.85,0.52-1.44,0.52c-0.18,0-0.35-0.01-0.49-0.04v1.89h-0.61V447.95z M232.83,450.22
			c0.13,0.04,0.3,0.05,0.5,0.05c0.74,0,1.18-0.36,1.18-1.01c0-0.62-0.44-0.92-1.11-0.92c-0.27,0-0.47,0.02-0.57,0.05V450.22z"/>
	</g>
	<rect x="226.1" y="481.99" class="st9" width="8.32" height="123.26"/>
	<g>
		<line class="st10" x1="206.41" y1="493.78" x2="223.25" y2="493.78"/>
		<line class="st10" x1="236.78" y1="493.78" x2="253.62" y2="493.78"/>
		<line class="st9" x1="206.41" y1="503.84" x2="223.25" y2="503.84"/>
		<line class="st9" x1="236.78" y1="503.84" x2="253.62" y2="503.84"/>
		<line class="st9" x1="206.41" y1="513.9" x2="223.25" y2="513.9"/>
		<line class="st9" x1="236.78" y1="513.9" x2="253.62" y2="513.9"/>
		<line class="st9" x1="206.41" y1="523.97" x2="223.25" y2="523.97"/>
		<line class="st9" x1="236.78" y1="523.97" x2="253.62" y2="523.97"/>
	</g>
	<g>
		<line class="st9" x1="206.41" y1="563.78" x2="223.25" y2="563.78"/>
		<line class="st9" x1="236.78" y1="563.78" x2="253.62" y2="563.78"/>
		<line class="st9" x1="206.41" y1="573.84" x2="223.25" y2="573.84"/>
		<line class="st9" x1="236.78" y1="573.84" x2="253.62" y2="573.84"/>
		<line class="st9" x1="206.41" y1="583.9" x2="223.25" y2="583.9"/>
		<line class="st9" x1="236.78" y1="583.9" x2="253.62" y2="583.9"/>
		<line class="st10" x1="206.41" y1="593.97" x2="223.25" y2="593.97"/>
		<line class="st10" x1="236.78" y1="593.97" x2="253.62" y2="593.97"/>
	</g>
	<g>
		<path class="st7" d="M229.99,468.71h-0.03l-1.47,0.79l-0.22-0.87l1.85-0.99h0.97v8.45h-1.1V468.71z"/>
	</g>
	<rect x="206.41" y="534.12" class="st11" width="47.21" height="19.87"/>
	<rect x="206.41" y="541.46" class="st11" width="47.21" height="5.19"/>
	
		<rect x="136.88" y="613.16" transform="matrix(1.545026e-03 1 -1 1.545026e-03 809.8969 526.9987)" class="st9" width="8.32" height="111.83"/>
	<g>
		<line class="st10" x1="190.85" y1="645.15" x2="190.87" y2="662"/>
		<line class="st10" x1="190.89" y1="675.52" x2="190.92" y2="692.37"/>
		<line class="st9" x1="180.78" y1="645.17" x2="180.81" y2="662.01"/>
		<line class="st9" x1="180.83" y1="675.54" x2="180.86" y2="692.38"/>
		<line class="st9" x1="170.72" y1="645.19" x2="170.75" y2="662.03"/>
		<line class="st9" x1="170.77" y1="675.55" x2="170.79" y2="692.4"/>
		<line class="st9" x1="160.66" y1="645.2" x2="160.68" y2="662.04"/>
		<line class="st9" x1="160.7" y1="675.57" x2="160.73" y2="692.41"/>
	</g>
	<g>
		<line class="st9" x1="120.85" y1="645.26" x2="120.87" y2="662.11"/>
		<line class="st9" x1="120.89" y1="675.63" x2="120.92" y2="692.47"/>
		<line class="st9" x1="110.78" y1="645.28" x2="110.81" y2="662.12"/>
		<line class="st9" x1="110.83" y1="675.65" x2="110.86" y2="692.49"/>
		<line class="st9" x1="100.72" y1="645.29" x2="100.75" y2="662.14"/>
		<line class="st9" x1="100.77" y1="675.66" x2="100.79" y2="692.5"/>
		<line class="st10" x1="90.66" y1="645.31" x2="90.68" y2="662.15"/>
		<line class="st10" x1="90.7" y1="675.68" x2="90.73" y2="692.52"/>
	</g>
	
		<rect x="116.94" y="658.97" transform="matrix(1.545028e-03 1 -1 1.545028e-03 809.2914 527.2628)" class="st11" width="47.34" height="19.87"/>
	
		<rect x="116.94" y="666.31" transform="matrix(1.545028e-03 1 -1 1.545028e-03 809.2914 527.2628)" class="st11" width="47.34" height="5.19"/>
	<g>
		<path class="st7" d="M49.7,670.47l-0.91,2.76h-1.17l2.98-8.76h1.37l2.99,8.76h-1.21l-0.94-2.76H49.7z M52.58,669.59l-0.86-2.52
			c-0.19-0.57-0.33-1.09-0.46-1.6h-0.03c-0.13,0.52-0.27,1.05-0.44,1.59l-0.86,2.54H52.58z"/>
	</g>
	<g>
		<path class="st7" d="M226.98,664.58c0.49-0.1,1.27-0.18,2.07-0.18c1.13,0,1.86,0.19,2.41,0.64c0.46,0.34,0.73,0.86,0.73,1.55
			c0,0.84-0.56,1.59-1.48,1.92v0.03c0.83,0.21,1.81,0.9,1.81,2.2c0,0.75-0.3,1.33-0.74,1.75c-0.61,0.56-1.6,0.82-3.03,0.82
			c-0.78,0-1.38-0.05-1.75-0.1V664.58z M228.11,668.17h1.03c1.2,0,1.9-0.62,1.9-1.47c0-1.03-0.78-1.43-1.92-1.43
			c-0.52,0-0.82,0.04-1,0.08V668.17z M228.11,672.37c0.22,0.04,0.55,0.05,0.95,0.05c1.17,0,2.25-0.43,2.25-1.7
			c0-1.2-1.03-1.69-2.26-1.69h-0.94V672.37z"/>
	</g>
	<g>
		<g>
			<rect x="115.42" y="506.59" class="st8" width="3.24" height="3.24"/>
			<rect x="115.42" y="511.7" class="st8" width="3.24" height="3.24"/>
		</g>
		<g>
			<rect x="115.42" y="519.92" class="st8" width="3.24" height="3.24"/>
			<rect x="115.42" y="525.02" class="st8" width="3.24" height="3.24"/>
		</g>
		<g>
			<rect x="115.42" y="533.24" class="st8" width="3.24" height="3.24"/>
			<rect x="115.42" y="538.34" class="st8" width="3.24" height="3.24"/>
		</g>
		<g>
			<rect x="115.42" y="546.56" class="st8" width="3.24" height="3.24"/>
			<rect x="115.42" y="551.67" class="st8" width="3.24" height="3.24"/>
		</g>
		<g>
			<rect x="115.42" y="559.89" class="st8" width="3.24" height="3.24"/>
			<rect x="115.42" y="564.99" class="st8" width="3.24" height="3.24"/>
		</g>
		<g>
			<rect x="115.42" y="573.21" class="st8" width="3.24" height="3.24"/>
			<rect x="115.42" y="578.31" class="st8" width="3.24" height="3.24"/>
		</g>
	</g>
	<g>
		<g>
			<rect x="131.01" y="506.59" class="st8" width="3.24" height="3.24"/>
			<rect x="131.01" y="511.7" class="st8" width="3.24" height="3.24"/>
		</g>
		<g>
			<rect x="131.01" y="519.92" class="st8" width="3.24" height="3.24"/>
			<rect x="131.01" y="525.02" class="st8" width="3.24" height="3.24"/>
		</g>
		<g>
			<rect x="131.01" y="533.24" class="st8" width="3.24" height="3.24"/>
			<rect x="131.01" y="538.34" class="st8" width="3.24" height="3.24"/>
		</g>
		<g>
			<rect x="131.01" y="546.56" class="st8" width="3.24" height="3.24"/>
			<rect x="131.01" y="551.67" class="st8" width="3.24" height="3.24"/>
		</g>
		<g>
			<rect x="131.01" y="559.89" class="st8" width="3.24" height="3.24"/>
			<rect x="131.01" y="564.99" class="st8" width="3.24" height="3.24"/>
		</g>
		<g>
			<rect x="131.01" y="573.21" class="st8" width="3.24" height="3.24"/>
			<rect x="131.01" y="578.31" class="st8" width="3.24" height="3.24"/>
		</g>
	</g>
	<g>
		<g>
			<rect x="146.6" y="506.59" class="st8" width="3.24" height="3.24"/>
			<rect x="146.6" y="511.7" class="st8" width="3.24" height="3.24"/>
		</g>
		<g>
			<rect x="146.6" y="519.92" class="st8" width="3.24" height="3.24"/>
			<rect x="146.6" y="525.02" class="st8" width="3.24" height="3.24"/>
		</g>
		<g>
			<rect x="146.6" y="533.24" class="st8" width="3.24" height="3.24"/>
			<rect x="146.6" y="538.34" class="st8" width="3.24" height="3.24"/>
		</g>
		<g>
			<rect x="146.6" y="546.56" class="st8" width="3.24" height="3.24"/>
			<rect x="146.6" y="551.67" class="st8" width="3.24" height="3.24"/>
		</g>
		<g>
			<rect x="146.6" y="559.89" class="st8" width="3.24" height="3.24"/>
			<rect x="146.6" y="564.99" class="st8" width="3.24" height="3.24"/>
		</g>
		<g>
			<rect x="146.6" y="573.21" class="st8" width="3.24" height="3.24"/>
			<rect x="146.6" y="578.31" class="st8" width="3.24" height="3.24"/>
		</g>
	</g>
	<g>
		<g>
			<rect x="162.19" y="506.59" class="st8" width="3.24" height="3.24"/>
			<rect x="162.19" y="511.7" class="st8" width="3.24" height="3.24"/>
		</g>
		<g>
			<rect x="162.19" y="519.92" class="st8" width="3.24" height="3.24"/>
			<rect x="162.19" y="525.02" class="st8" width="3.24" height="3.24"/>
		</g>
		<g>
			<rect x="162.19" y="533.24" class="st8" width="3.24" height="3.24"/>
			<rect x="162.19" y="538.34" class="st8" width="3.24" height="3.24"/>
		</g>
		<g>
			<rect x="162.19" y="546.56" class="st8" width="3.24" height="3.24"/>
			<rect x="162.19" y="551.67" class="st8" width="3.24" height="3.24"/>
		</g>
		<g>
			<rect x="162.19" y="559.89" class="st8" width="3.24" height="3.24"/>
			<rect x="162.19" y="564.99" class="st8" width="3.24" height="3.24"/>
		</g>
		<g>
			<rect x="162.19" y="573.21" class="st8" width="3.24" height="3.24"/>
			<rect x="162.19" y="578.31" class="st8" width="3.24" height="3.24"/>
		</g>
	</g>
	<g>
		<path class="st2" d="M134.63,487.99c-0.03-0.56-0.07-1.24-0.06-1.75h-0.02c-0.14,0.47-0.31,0.98-0.51,1.54l-0.71,1.96h-0.4
			l-0.65-1.92c-0.19-0.57-0.35-1.09-0.47-1.57h-0.01c-0.01,0.5-0.04,1.18-0.08,1.79l-0.11,1.73h-0.5l0.28-4.04h0.67l0.69,1.96
			c0.17,0.5,0.31,0.94,0.41,1.36h0.02c0.1-0.41,0.25-0.85,0.43-1.36l0.72-1.96h0.67l0.25,4.04h-0.51L134.63,487.99z"/>
		<path class="st2" d="M136.64,488.49l-0.42,1.27h-0.54l1.37-4.04h0.63l1.38,4.04h-0.56l-0.43-1.27H136.64z M137.96,488.08
			l-0.4-1.16c-0.09-0.26-0.15-0.5-0.21-0.74h-0.01c-0.06,0.24-0.13,0.49-0.2,0.73l-0.4,1.17H137.96z"/>
		<path class="st2" d="M139.58,489.13c0.23,0.14,0.58,0.26,0.94,0.26c0.53,0,0.85-0.28,0.85-0.69c0-0.38-0.22-0.59-0.76-0.8
			c-0.66-0.23-1.07-0.58-1.07-1.15c0-0.63,0.52-1.1,1.31-1.1c0.41,0,0.71,0.1,0.89,0.2l-0.14,0.43c-0.13-0.07-0.4-0.19-0.77-0.19
			c-0.55,0-0.76,0.33-0.76,0.61c0,0.38,0.25,0.56,0.8,0.78c0.68,0.26,1.03,0.59,1.03,1.19c0,0.62-0.46,1.16-1.42,1.16
			c-0.39,0-0.82-0.11-1.03-0.26L139.58,489.13z"/>
		<path class="st2" d="M143.38,486.17h-1.23v-0.44h2.99v0.44h-1.24v3.6h-0.53V486.17z"/>
		<path class="st2" d="M147.69,487.87h-1.57v1.46h1.75v0.44h-2.27v-4.04h2.18v0.44h-1.66v1.28h1.57V487.87z"/>
		<path class="st2" d="M148.55,485.78c0.26-0.05,0.64-0.08,1-0.08c0.56,0,0.92,0.1,1.17,0.33c0.2,0.18,0.32,0.46,0.32,0.77
			c0,0.53-0.34,0.89-0.76,1.03v0.02c0.31,0.11,0.5,0.4,0.59,0.82c0.13,0.56,0.23,0.95,0.31,1.11h-0.54
			c-0.07-0.11-0.16-0.46-0.27-0.96c-0.12-0.56-0.33-0.77-0.81-0.79h-0.49v1.75h-0.52V485.78z M149.07,487.62h0.53
			c0.56,0,0.91-0.31,0.91-0.77c0-0.52-0.38-0.75-0.93-0.76c-0.25,0-0.43,0.02-0.52,0.05V487.62z"/>
	</g>
	<g>
		<path class="st2" d="M116.91,486.36h-0.01l-0.68,0.37l-0.1-0.4l0.85-0.46h0.45v3.9h-0.51V486.36z"/>
	</g>
	<g>
		<path class="st2" d="M162.54,489.76v-0.32l0.41-0.4c1-0.95,1.45-1.45,1.45-2.04c0-0.4-0.19-0.76-0.77-0.76
			c-0.35,0-0.65,0.18-0.83,0.33l-0.17-0.37c0.27-0.23,0.65-0.4,1.1-0.4c0.84,0,1.19,0.58,1.19,1.13c0,0.72-0.52,1.3-1.34,2.09
			l-0.31,0.29v0.01h1.75v0.44H162.54z"/>
	</g>
	<g class="st5">
		<path class="st7" d="M75.29,62.3h-48c-1.51,0-2.74-1.23-2.74-2.74V38.3c0-1.51,1.23-2.74,2.74-2.74h48c1.51,0,2.74,1.23,2.74,2.74
			v21.26C78.02,61.08,76.8,62.3,75.29,62.3z"/>
		<path class="st3" d="M73.71,53.99H28.87c-1.25,0-2.26-1.01-2.26-2.26V39.83c0-1.25,1.01-2.26,2.26-2.26h44.84
			c1.25,0,2.26,1.01,2.26,2.26v11.89C75.97,52.97,74.96,53.99,73.71,53.99z"/>
		<rect x="29.28" y="40.3" class="st6" width="44" height="11.05"/>
		<g>
			<path class="st8" d="M45.28,56.02c0.27-0.06,0.69-0.1,1.11-0.1c0.61,0,1,0.1,1.3,0.34c0.25,0.18,0.39,0.46,0.39,0.83
				c0,0.46-0.3,0.85-0.8,1.04v0.01c0.45,0.11,0.97,0.48,0.97,1.18c0,0.41-0.16,0.71-0.4,0.95c-0.33,0.3-0.86,0.44-1.63,0.44
				c-0.42,0-0.74-0.03-0.95-0.06V56.02z M45.89,57.95h0.55c0.64,0,1.02-0.34,1.02-0.79c0-0.55-0.42-0.77-1.04-0.77
				c-0.28,0-0.44,0.02-0.54,0.04V57.95z M45.89,60.21c0.12,0.02,0.29,0.03,0.51,0.03c0.63,0,1.21-0.23,1.21-0.92
				c0-0.64-0.55-0.91-1.22-0.91h-0.5V60.21z"/>
			<path class="st8" d="M49.07,56.01c0.29-0.05,0.68-0.09,1.17-0.09c0.6,0,1.04,0.14,1.32,0.39c0.26,0.22,0.41,0.57,0.41,0.99
				c0,0.43-0.13,0.76-0.36,1.01c-0.32,0.34-0.85,0.52-1.44,0.52c-0.18,0-0.35-0.01-0.49-0.04v1.89h-0.61V56.01z M49.68,58.28
				c0.13,0.04,0.3,0.05,0.5,0.05c0.74,0,1.18-0.36,1.18-1.01c0-0.62-0.44-0.92-1.11-0.92c-0.27,0-0.47,0.02-0.57,0.05V58.28z"/>
			<path class="st8" d="M56.69,58.6c-0.04-0.66-0.08-1.45-0.07-2.04H56.6c-0.16,0.55-0.36,1.14-0.59,1.79l-0.83,2.29h-0.46
				l-0.76-2.25c-0.22-0.67-0.41-1.27-0.55-1.83h-0.01c-0.01,0.59-0.05,1.38-0.09,2.09l-0.13,2.02h-0.58l0.33-4.72h0.78l0.81,2.28
				c0.2,0.58,0.36,1.1,0.48,1.59h0.02c0.12-0.48,0.29-0.99,0.5-1.59l0.84-2.28h0.78l0.29,4.72h-0.59L56.69,58.6z"/>
		</g>
		<g>
			<path class="st7" d="M43.46,28.69h0.61v4.21h2.02v0.51h-2.63V28.69z"/>
			<path class="st7" d="M50.52,31c0,1.62-0.99,2.49-2.19,2.49c-1.25,0-2.12-0.97-2.12-2.4c0-1.5,0.93-2.48,2.19-2.48
				C49.69,28.61,50.52,29.6,50.52,31z M46.86,31.08c0,1.01,0.55,1.91,1.51,1.91c0.97,0,1.51-0.89,1.51-1.96
				c0-0.94-0.49-1.92-1.51-1.92C47.36,29.11,46.86,30.04,46.86,31.08z"/>
			<path class="st7" d="M51.98,31.93l-0.49,1.48h-0.63l1.6-4.72h0.74l1.61,4.72h-0.65l-0.5-1.48H51.98z M53.52,31.45l-0.46-1.36
				c-0.1-0.31-0.17-0.59-0.25-0.86H52.8c-0.07,0.28-0.15,0.57-0.24,0.85l-0.46,1.37H53.52z"/>
			<path class="st7" d="M55.5,28.75c0.37-0.06,0.81-0.1,1.3-0.1c0.88,0,1.5,0.2,1.91,0.59c0.42,0.39,0.67,0.93,0.67,1.7
				c0,0.77-0.24,1.4-0.68,1.83c-0.44,0.44-1.17,0.68-2.09,0.68c-0.43,0-0.8-0.02-1.11-0.06V28.75z M56.11,32.93
				c0.15,0.03,0.38,0.04,0.62,0.04c1.3,0,2.01-0.73,2.01-2c0.01-1.11-0.62-1.82-1.91-1.82c-0.32,0-0.55,0.03-0.71,0.06V32.93z"/>
		</g>
		<path class="st7" d="M253.52,62.3h-48c-1.51,0-2.74-1.23-2.74-2.74V38.3c0-1.51,1.23-2.74,2.74-2.74h48
			c1.51,0,2.74,1.23,2.74,2.74v21.26C256.25,61.08,255.03,62.3,253.52,62.3z"/>
		<path class="st3" d="M251.94,53.99h-44.84c-1.25,0-2.26-1.01-2.26-2.26V39.83c0-1.25,1.01-2.26,2.26-2.26h44.84
			c1.25,0,2.26,1.01,2.26,2.26v11.89C254.2,52.97,253.19,53.99,251.94,53.99z"/>
		<rect x="207.5" y="40.3" class="st6" width="44" height="11.05"/>
		<g>
			<path class="st8" d="M224.51,55.95h0.61v2.28h0.02c0.13-0.18,0.25-0.35,0.37-0.5l1.44-1.77h0.76l-1.71,2l1.84,2.72h-0.72
				l-1.55-2.32l-0.45,0.52v1.8h-0.61V55.95z"/>
			<path class="st8" d="M230.75,58.46h-1.84v1.7h2.04v0.51h-2.65v-4.72h2.55v0.51h-1.94v1.49h1.84V58.46z"/>
			<path class="st8" d="M232.82,60.67v-2l-1.49-2.72h0.69l0.67,1.3c0.18,0.36,0.32,0.64,0.47,0.97h0.01
				c0.13-0.31,0.29-0.62,0.48-0.97l0.68-1.3h0.69l-1.58,2.71v2.01H232.82z"/>
		</g>
		<g>
			<path class="st7" d="M221.68,28.69h0.61v4.21h2.02v0.51h-2.63V28.69z"/>
			<path class="st7" d="M228.75,31c0,1.62-0.99,2.49-2.19,2.49c-1.25,0-2.12-0.97-2.12-2.4c0-1.5,0.93-2.48,2.19-2.48
				C227.92,28.61,228.75,29.6,228.75,31z M225.09,31.08c0,1.01,0.55,1.91,1.51,1.91c0.97,0,1.51-0.89,1.51-1.96
				c0-0.94-0.49-1.92-1.51-1.92C225.59,29.11,225.09,30.04,225.09,31.08z"/>
			<path class="st7" d="M230.2,31.93l-0.49,1.48h-0.63l1.6-4.72h0.74l1.61,4.72h-0.65l-0.5-1.48H230.2z M231.75,31.45l-0.46-1.36
				c-0.1-0.31-0.17-0.59-0.25-0.86h-0.01c-0.07,0.28-0.15,0.57-0.24,0.85l-0.46,1.37H231.75z"/>
			<path class="st7" d="M233.72,28.75c0.37-0.06,0.81-0.1,1.3-0.1c0.88,0,1.5,0.2,1.91,0.59c0.42,0.39,0.67,0.93,0.67,1.7
				c0,0.77-0.24,1.4-0.68,1.83c-0.44,0.44-1.17,0.68-2.09,0.68c-0.43,0-0.8-0.02-1.11-0.06V28.75z M234.33,32.93
				c0.15,0.03,0.38,0.04,0.62,0.04c1.3,0,2.01-0.73,2.01-2c0.01-1.11-0.62-1.82-1.91-1.82c-0.32,0-0.55,0.03-0.71,0.06V32.93z"/>
		</g>
		<g>
			<path class="st7" d="M132.64,122.4h-28.61c-1.51,0-2.74-1.23-2.74-2.74V98.4c0-1.51,1.23-2.74,2.74-2.74h28.61
				c1.51,0,2.74,1.23,2.74,2.74v21.26C135.38,121.18,134.15,122.4,132.64,122.4z"/>
			<g>
				<path class="st8" d="M109.88,120.03c0.27,0.17,0.67,0.31,1.09,0.31c0.62,0,0.99-0.33,0.99-0.81c0-0.44-0.25-0.69-0.89-0.94
					c-0.77-0.27-1.25-0.67-1.25-1.34c0-0.74,0.61-1.28,1.53-1.28c0.48,0,0.83,0.11,1.04,0.23l-0.17,0.5
					c-0.15-0.08-0.47-0.22-0.9-0.22c-0.64,0-0.89,0.39-0.89,0.71c0,0.44,0.29,0.66,0.94,0.91c0.8,0.31,1.2,0.69,1.2,1.39
					c0,0.73-0.54,1.36-1.65,1.36c-0.46,0-0.95-0.13-1.21-0.3L109.88,120.03z"/>
				<path class="st8" d="M117.45,118.36c0,1.62-0.99,2.49-2.19,2.49c-1.25,0-2.12-0.97-2.12-2.4c0-1.5,0.93-2.48,2.19-2.48
					C116.61,115.97,117.45,116.96,117.45,118.36z M113.78,118.44c0,1.01,0.55,1.91,1.51,1.91c0.97,0,1.51-0.89,1.51-1.96
					c0-0.94-0.49-1.92-1.51-1.92C114.29,116.47,113.78,117.4,113.78,118.44z"/>
				<path class="st8" d="M118.24,120.77v-4.72h0.67l1.51,2.39c0.35,0.55,0.62,1.05,0.85,1.53l0.01-0.01
					c-0.06-0.63-0.07-1.2-0.07-1.94v-1.98h0.57v4.72h-0.62l-1.5-2.4c-0.33-0.52-0.64-1.06-0.88-1.58l-0.02,0.01
					c0.04,0.6,0.05,1.16,0.05,1.95v2.02H118.24z"/>
				<path class="st8" d="M126.44,120.56c-0.27,0.1-0.81,0.26-1.45,0.26c-0.71,0-1.3-0.18-1.77-0.62c-0.41-0.39-0.66-1.02-0.66-1.76
					c0.01-1.41,0.97-2.44,2.56-2.44c0.55,0,0.97,0.12,1.18,0.22l-0.15,0.5c-0.25-0.11-0.57-0.2-1.04-0.2c-1.15,0-1.9,0.71-1.9,1.9
					c0,1.2,0.72,1.91,1.82,1.91c0.4,0,0.67-0.06,0.81-0.13v-1.41h-0.96v-0.49h1.55V120.56z"/>
			</g>
			<path class="st3" d="M131.11,114.14h-25.55c-1.25,0-2.26-1.01-2.26-2.26V99.98c0-1.25,1.01-2.26,2.26-2.26h25.55
				c1.25,0,2.26,1.01,2.26,2.26v11.89C133.37,113.13,132.36,114.14,131.11,114.14z"/>
			<rect x="105.97" y="100.46" class="st6" width="24.33" height="11.05"/>
			<g>
				<path class="st7" d="M110.75,88.85c0.27-0.06,0.69-0.1,1.11-0.1c0.61,0,1,0.1,1.3,0.34c0.25,0.18,0.39,0.46,0.39,0.83
					c0,0.46-0.3,0.85-0.8,1.04v0.01c0.45,0.11,0.97,0.48,0.97,1.18c0,0.41-0.16,0.71-0.4,0.95c-0.33,0.3-0.86,0.44-1.63,0.44
					c-0.42,0-0.74-0.03-0.95-0.06V88.85z M111.36,90.78h0.55c0.64,0,1.02-0.34,1.02-0.79c0-0.55-0.42-0.77-1.04-0.77
					c-0.28,0-0.44,0.02-0.54,0.04V90.78z M111.36,93.05c0.12,0.02,0.29,0.03,0.51,0.03c0.63,0,1.21-0.23,1.21-0.92
					c0-0.64-0.55-0.91-1.22-0.91h-0.5V93.05z"/>
				<path class="st7" d="M115.31,92.02l-0.49,1.48h-0.63l1.6-4.72h0.74l1.61,4.72h-0.65l-0.5-1.48H115.31z M116.86,91.55l-0.46-1.36
					c-0.1-0.31-0.17-0.59-0.25-0.86h-0.01c-0.07,0.28-0.15,0.57-0.24,0.85l-0.46,1.37H116.86z"/>
				<path class="st7" d="M122.02,93.35c-0.22,0.11-0.67,0.22-1.25,0.22c-1.33,0-2.33-0.84-2.33-2.39c0-1.48,1-2.48,2.47-2.48
					c0.59,0,0.96,0.13,1.12,0.21l-0.15,0.5c-0.23-0.11-0.56-0.2-0.95-0.2c-1.11,0-1.84,0.71-1.84,1.95c0,1.16,0.67,1.9,1.81,1.9
					c0.37,0,0.75-0.08,0.99-0.2L122.02,93.35z"/>
				<path class="st7" d="M122.78,88.79h0.61v2.28h0.02c0.13-0.18,0.25-0.35,0.37-0.5l1.44-1.77h0.76l-1.71,2l1.84,2.72h-0.72
					l-1.55-2.32l-0.45,0.52v1.8h-0.61V88.79z"/>
			</g>
		</g>
		<g>
			<path class="st7" d="M177.08,122.35h-28.61c-1.51,0-2.74-1.23-2.74-2.74V98.35c0-1.51,1.23-2.74,2.74-2.74h28.61
				c1.51,0,2.74,1.23,2.74,2.74v21.26C179.82,121.12,178.59,122.35,177.08,122.35z"/>
			<g>
				<path class="st8" d="M153.77,119.23l-0.49,1.48h-0.63l1.6-4.72h0.74l1.61,4.72h-0.65l-0.5-1.48H153.77z M155.32,118.76
					l-0.46-1.36c-0.1-0.31-0.17-0.59-0.25-0.86h-0.01c-0.07,0.28-0.15,0.57-0.24,0.85l-0.46,1.37H155.32z"/>
				<path class="st8" d="M157.29,116.06c0.31-0.06,0.75-0.1,1.17-0.1c0.65,0,1.07,0.12,1.37,0.38c0.24,0.21,0.37,0.53,0.37,0.9
					c0,0.62-0.39,1.04-0.89,1.21v0.02c0.36,0.13,0.58,0.46,0.69,0.95c0.15,0.66,0.27,1.11,0.36,1.3h-0.63
					c-0.08-0.13-0.18-0.54-0.32-1.13c-0.14-0.65-0.39-0.9-0.95-0.92h-0.57v2.04h-0.61V116.06z M157.9,118.21h0.62
					c0.65,0,1.06-0.36,1.06-0.9c0-0.61-0.44-0.88-1.08-0.88c-0.29,0-0.5,0.03-0.6,0.06V118.21z"/>
				<path class="st8" d="M162.02,116.52h-1.44V116h3.5v0.52h-1.44v4.2h-0.62V116.52z"/>
				<path class="st8" d="M165.21,116v4.72h-0.61V116H165.21z"/>
				<path class="st8" d="M166.19,119.98c0.27,0.17,0.67,0.31,1.09,0.31c0.62,0,0.99-0.33,0.99-0.81c0-0.44-0.25-0.69-0.89-0.94
					c-0.77-0.27-1.25-0.67-1.25-1.34c0-0.74,0.61-1.28,1.53-1.28c0.48,0,0.83,0.11,1.04,0.23l-0.17,0.5
					c-0.15-0.08-0.47-0.22-0.9-0.22c-0.64,0-0.89,0.39-0.89,0.71c0,0.44,0.29,0.66,0.94,0.91c0.8,0.31,1.2,0.69,1.2,1.39
					c0,0.73-0.54,1.36-1.65,1.36c-0.46,0-0.95-0.13-1.21-0.3L166.19,119.98z"/>
				<path class="st8" d="M170.62,116.52h-1.44V116h3.5v0.52h-1.44v4.2h-0.62V116.52z"/>
			</g>
			<path class="st3" d="M175.55,114.09H150c-1.25,0-2.26-1.01-2.26-2.26V99.93c0-1.25,1.01-2.26,2.26-2.26h25.55
				c1.25,0,2.26,1.01,2.26,2.26v11.89C177.81,113.07,176.8,114.09,175.55,114.09z"/>
			<rect x="150.41" y="100.4" class="st6" width="24.33" height="11.05"/>
			<g>
				<path class="st7" d="M157.06,86.23l-0.49,1.48h-0.63l1.6-4.72h0.74l1.61,4.72h-0.65l-0.5-1.48H157.06z M158.61,85.76l-0.46-1.36
					c-0.1-0.31-0.17-0.59-0.25-0.86h-0.01c-0.07,0.28-0.15,0.57-0.24,0.85l-0.46,1.37H158.61z"/>
				<path class="st7" d="M160.58,83.06c0.37-0.06,0.81-0.1,1.3-0.1c0.88,0,1.5,0.2,1.91,0.59c0.42,0.39,0.67,0.93,0.67,1.7
					c0,0.77-0.24,1.4-0.68,1.83c-0.44,0.44-1.17,0.68-2.09,0.68c-0.43,0-0.8-0.02-1.11-0.06V83.06z M161.19,87.24
					c0.15,0.03,0.38,0.04,0.62,0.04c1.3,0,2.01-0.73,2.01-2c0.01-1.11-0.62-1.82-1.91-1.82c-0.32,0-0.55,0.03-0.71,0.06V87.24z"/>
				<path class="st7" d="M165.25,83.06c0.37-0.06,0.81-0.1,1.3-0.1c0.88,0,1.5,0.2,1.91,0.59c0.42,0.39,0.67,0.93,0.67,1.7
					c0,0.77-0.24,1.4-0.68,1.83c-0.44,0.44-1.17,0.68-2.09,0.68c-0.43,0-0.8-0.02-1.11-0.06V83.06z M165.86,87.24
					c0.15,0.03,0.38,0.04,0.62,0.04c1.3,0,2.01-0.73,2.01-2c0.01-1.11-0.62-1.82-1.91-1.82c-0.32,0-0.55,0.03-0.71,0.06V87.24z"/>
				<path class="st7" d="M150.32,89.06c0.29-0.05,0.68-0.09,1.17-0.09c0.6,0,1.04,0.14,1.32,0.39c0.26,0.22,0.41,0.57,0.41,0.99
					c0,0.43-0.13,0.76-0.36,1.01c-0.32,0.34-0.85,0.52-1.44,0.52c-0.18,0-0.35-0.01-0.49-0.04v1.89h-0.61V89.06z M150.93,91.33
					c0.13,0.04,0.3,0.05,0.5,0.05c0.74,0,1.18-0.36,1.18-1.01c0-0.62-0.44-0.92-1.11-0.92c-0.27,0-0.47,0.02-0.57,0.05V91.33z"/>
				<path class="st7" d="M154.05,89.06c0.31-0.06,0.75-0.1,1.17-0.1c0.65,0,1.07,0.12,1.37,0.38c0.24,0.21,0.37,0.53,0.37,0.9
					c0,0.62-0.39,1.04-0.89,1.21v0.02c0.36,0.13,0.58,0.46,0.69,0.95c0.15,0.66,0.27,1.11,0.36,1.3h-0.63
					c-0.08-0.13-0.18-0.54-0.32-1.13c-0.14-0.65-0.39-0.9-0.95-0.92h-0.57v2.04h-0.61V89.06z M154.65,91.21h0.62
					c0.65,0,1.06-0.36,1.06-0.9c0-0.61-0.44-0.88-1.08-0.88c-0.29,0-0.5,0.03-0.6,0.06V91.21z"/>
				<path class="st7" d="M160.26,91.51h-1.83v1.7h2.04v0.51h-2.65V89h2.55v0.51h-1.94V91h1.83V91.51z"/>
				<path class="st7" d="M161.26,89.06c0.29-0.05,0.68-0.09,1.17-0.09c0.6,0,1.04,0.14,1.32,0.39c0.26,0.22,0.41,0.57,0.41,0.99
					c0,0.43-0.13,0.76-0.36,1.01c-0.32,0.34-0.85,0.52-1.44,0.52c-0.18,0-0.35-0.01-0.49-0.04v1.89h-0.61V89.06z M161.86,91.33
					c0.13,0.04,0.3,0.05,0.5,0.05c0.74,0,1.18-0.36,1.18-1.01c0-0.62-0.44-0.92-1.11-0.92c-0.27,0-0.47,0.02-0.57,0.05V91.33z"/>
				<path class="st7" d="M165.16,92.23l-0.49,1.48h-0.63l1.6-4.72h0.74l1.61,4.72h-0.65l-0.5-1.48H165.16z M166.7,91.76l-0.46-1.36
					c-0.1-0.31-0.17-0.59-0.25-0.86h-0.01c-0.07,0.28-0.15,0.57-0.24,0.85l-0.46,1.37H166.7z"/>
				<path class="st7" d="M168.68,89.06c0.31-0.06,0.75-0.1,1.17-0.1c0.65,0,1.07,0.12,1.37,0.38c0.24,0.21,0.37,0.53,0.37,0.9
					c0,0.62-0.39,1.04-0.89,1.21v0.02c0.36,0.13,0.58,0.46,0.69,0.95c0.15,0.66,0.27,1.11,0.36,1.3h-0.63
					c-0.08-0.13-0.18-0.54-0.32-1.13c-0.14-0.65-0.39-0.9-0.95-0.92h-0.57v2.04h-0.61V89.06z M169.28,91.21h0.62
					c0.65,0,1.06-0.36,1.06-0.9c0-0.61-0.44-0.88-1.08-0.88c-0.29,0-0.5,0.03-0.6,0.06V91.21z"/>
				<path class="st7" d="M174.89,91.51h-1.83v1.7h2.04v0.51h-2.65V89h2.55v0.51h-1.94V91h1.83V91.51z"/>
			</g>
		</g>
	</g>
	<rect x="10.81" y="13.25" class="st9" width="258.32" height="703.58"/>
	<line class="st9" x1="95.76" y1="133.94" x2="184.81" y2="133.94"/>
	<g>
		<circle cx="14.32" cy="105.88" r="9.16"/>
		<g>
			<path class="st8" d="M13.55,102.24h-0.03l-1.69,0.92l-0.25-1l2.13-1.14h1.13v9.75h-1.27V102.24z"/>
		</g>
		<circle cx="15.26" cy="239.94" r="9.16"/>
		<g>
			<path class="st8" d="M11.62,244.82v-0.81l1.04-1c2.49-2.37,3.61-3.63,3.63-5.1c0-0.99-0.48-1.9-1.94-1.9
				c-0.88,0-1.62,0.45-2.07,0.82l-0.42-0.93c0.67-0.57,1.63-0.99,2.76-0.99c2.1,0,2.98,1.44,2.98,2.83c0,1.8-1.3,3.25-3.36,5.24
				l-0.78,0.72v0.03h4.38v1.09H11.62z"/>
		</g>
		<circle cx="16.26" cy="372.2" r="9.16"/>
		<g>
			<path class="st8" d="M12.94,375.57c0.38,0.24,1.25,0.61,2.16,0.61c1.69,0,2.22-1.08,2.21-1.89c-0.02-1.37-1.25-1.95-2.52-1.95
				h-0.73v-0.99h0.73c0.96,0,2.17-0.5,2.17-1.65c0-0.78-0.5-1.47-1.71-1.47c-0.78,0-1.53,0.34-1.95,0.64l-0.35-0.96
				c0.51-0.38,1.5-0.75,2.55-0.75c1.92,0,2.79,1.14,2.79,2.33c0,1-0.6,1.86-1.8,2.29v0.03c1.2,0.24,2.17,1.14,2.17,2.5
				c0,1.56-1.21,2.92-3.55,2.92c-1.1,0-2.06-0.34-2.54-0.66L12.94,375.57z"/>
		</g>
		<circle cx="15.8" cy="430.71" r="9.16"/>
		<g>
			<path class="st8" d="M16.25,435.6v-2.66h-4.53v-0.87l4.35-6.23h1.43v6.06h1.36v1.03h-1.36v2.66H16.25z M16.25,431.91v-3.25
				c0-0.51,0.02-1.02,0.04-1.53h-0.04c-0.3,0.57-0.54,0.99-0.81,1.44l-2.38,3.32v0.03H16.25z"/>
		</g>
		<circle cx="16.26" cy="543.62" r="9.16"/>
		<g>
			<path class="st8" d="M18.45,539.87h-3.72l-0.38,2.5c0.23-0.03,0.44-0.06,0.79-0.06c0.75,0,1.5,0.17,2.1,0.52
				c0.76,0.44,1.4,1.28,1.4,2.5c0,1.91-1.52,3.33-3.63,3.33c-1.06,0-1.97-0.3-2.43-0.6l0.33-1.01c0.4,0.24,1.2,0.54,2.08,0.54
				c1.25,0,2.31-0.81,2.31-2.11c-0.02-1.26-0.85-2.16-2.81-2.16c-0.55,0-0.99,0.06-1.35,0.11l0.63-4.68h4.66V539.87z"/>
		</g>
	</g>
	<g>
		<circle cx="264.32" cy="105.88" r="9.16"/>
		<g>
			<path class="st8" d="M263.55,102.24h-0.03l-1.69,0.92l-0.25-1l2.13-1.14h1.13v9.75h-1.28V102.24z"/>
		</g>
		<circle cx="265.26" cy="239.94" r="9.16"/>
		<g>
			<path class="st8" d="M261.62,244.82v-0.81l1.04-1c2.49-2.37,3.62-3.63,3.63-5.1c0-0.99-0.48-1.9-1.93-1.9
				c-0.88,0-1.62,0.45-2.07,0.82l-0.42-0.93c0.67-0.57,1.63-0.99,2.76-0.99c2.1,0,2.99,1.44,2.99,2.83c0,1.8-1.3,3.25-3.36,5.24
				l-0.78,0.72v0.03h4.38v1.09H261.62z"/>
		</g>
		<circle cx="266.26" cy="372.2" r="9.16"/>
		<g>
			<path class="st8" d="M262.94,375.57c0.38,0.24,1.25,0.61,2.16,0.61c1.7,0,2.22-1.08,2.21-1.89c-0.01-1.37-1.25-1.95-2.52-1.95
				h-0.74v-0.99h0.74c0.96,0,2.17-0.5,2.17-1.65c0-0.78-0.5-1.47-1.71-1.47c-0.78,0-1.53,0.34-1.95,0.64l-0.34-0.96
				c0.51-0.38,1.5-0.75,2.55-0.75c1.92,0,2.79,1.14,2.79,2.33c0,1-0.6,1.86-1.8,2.29v0.03c1.2,0.24,2.17,1.14,2.17,2.5
				c0,1.56-1.21,2.92-3.55,2.92c-1.1,0-2.06-0.34-2.54-0.66L262.94,375.57z"/>
		</g>
		<circle cx="265.8" cy="430.71" r="9.16"/>
		<g>
			<path class="st8" d="M266.25,435.6v-2.66h-4.53v-0.87l4.35-6.23h1.42v6.06h1.37v1.03h-1.37v2.66H266.25z M266.25,431.91v-3.25
				c0-0.51,0.02-1.02,0.04-1.53h-0.04c-0.3,0.57-0.54,0.99-0.81,1.44l-2.38,3.32v0.03H266.25z"/>
		</g>
		<circle cx="266.26" cy="543.62" r="9.16"/>
		<g>
			<path class="st8" d="M268.45,539.87h-3.72l-0.38,2.5c0.23-0.03,0.44-0.06,0.79-0.06c0.75,0,1.5,0.17,2.1,0.52
				c0.76,0.44,1.39,1.28,1.39,2.5c0,1.91-1.51,3.33-3.63,3.33c-1.06,0-1.96-0.3-2.43-0.6l0.33-1.01c0.4,0.24,1.2,0.54,2.08,0.54
				c1.25,0,2.31-0.81,2.31-2.11c-0.01-1.26-0.85-2.16-2.8-2.16c-0.55,0-0.99,0.06-1.35,0.11l0.63-4.68h4.66V539.87z"/>
		</g>
	</g>
	<g>
		<circle cx="108.63" cy="171.93" r="9.16"/>
		<g>
			<path class="st8" d="M111.32,167.07v0.87l-4.25,8.88h-1.36l4.23-8.63v-0.03h-4.77v-1.1H111.32z"/>
		</g>
	</g>
	<g>
		<circle cx="108.5" cy="239.94" r="9.16"/>
		<g>
			<path class="st8" d="M104.75,242.35c0-1.23,0.73-2.1,1.93-2.61l-0.01-0.04c-1.08-0.51-1.54-1.35-1.54-2.19
				c0-1.54,1.3-2.6,3.01-2.6c1.89,0,2.83,1.19,2.83,2.4c0,0.83-0.41,1.71-1.6,2.28v0.04c1.21,0.48,1.96,1.33,1.96,2.52
				c0,1.7-1.46,2.83-3.31,2.83C105.98,244.99,104.75,243.77,104.75,242.35z M110,242.29c0-1.18-0.82-1.75-2.15-2.13
				c-1.14,0.33-1.75,1.08-1.75,2.01c-0.04,0.99,0.71,1.86,1.95,1.86C109.23,244.03,110,243.29,110,242.29z M106.37,237.41
				c0,0.98,0.73,1.5,1.86,1.8c0.84-0.29,1.48-0.89,1.48-1.77c0-0.78-0.46-1.59-1.65-1.59C106.97,235.85,106.37,236.57,106.37,237.41
				z"/>
		</g>
	</g>
	<g>
		<circle cx="108.96" cy="306.66" r="9.16"/>
		<g>
			<path class="st8" d="M106.09,310.61c0.29,0.03,0.61,0,1.06-0.04c0.77-0.11,1.48-0.42,2.04-0.95c0.65-0.58,1.11-1.44,1.29-2.59
				h-0.05c-0.54,0.66-1.32,1.05-2.29,1.05c-1.75,0-2.88-1.32-2.88-2.99c0-1.84,1.33-3.46,3.33-3.46s3.23,1.62,3.23,4.11
				c0,2.14-0.72,3.64-1.68,4.58c-0.75,0.73-1.78,1.18-2.83,1.3c-0.48,0.08-0.9,0.09-1.21,0.08V310.61z M106.57,305
				c0,1.21,0.73,2.07,1.88,2.07c0.88,0,1.57-0.44,1.92-1.02c0.07-0.12,0.12-0.27,0.12-0.48c0-1.67-0.62-2.94-2-2.94
				C107.37,302.63,106.57,303.62,106.57,305z"/>
		</g>
	</g>
	<g>
		<circle cx="109.3" cy="372.92" r="9.16"/>
		<g>
			<path class="st8" d="M104.68,369.29h-0.03l-1.69,0.92l-0.25-1l2.13-1.14h1.13v9.75h-1.27V369.29z"/>
			<path class="st8" d="M115.99,372.83c0,3.31-1.23,5.14-3.39,5.14c-1.9,0-3.19-1.79-3.22-5.01c0-3.27,1.41-5.07,3.39-5.07
				C114.82,367.9,115.99,369.73,115.99,372.83z M110.7,372.98c0,2.54,0.78,3.98,1.98,3.98c1.35,0,2-1.58,2-4.07
				c0-2.4-0.62-3.97-1.98-3.97C111.54,368.92,110.7,370.33,110.7,372.98z"/>
		</g>
	</g>
	<g>
		<circle cx="141.38" cy="452.61" r="9.16"/>
		<g>
			<path class="st8" d="M136.77,448.98h-0.03l-1.69,0.92l-0.25-1l2.13-1.14h1.13v9.75h-1.27V448.98z"/>
			<path class="st8" d="M144.46,448.98h-0.03l-1.69,0.92l-0.25-1l2.13-1.14h1.13v9.75h-1.27V448.98z"/>
		</g>
	</g>
	<g>
		<circle cx="140.31" cy="598.43" r="9.16"/>
		<g>
			<path class="st8" d="M135.69,594.79h-0.03l-1.69,0.92l-0.25-1l2.13-1.14h1.13v9.75h-1.28V594.79z"/>
			<path class="st8" d="M140.52,603.31v-0.81l1.04-1c2.49-2.37,3.61-3.63,3.63-5.1c0-0.99-0.48-1.9-1.94-1.9
				c-0.88,0-1.62,0.45-2.07,0.82l-0.42-0.93c0.67-0.57,1.63-0.99,2.76-0.99c2.1,0,2.98,1.44,2.98,2.83c0,1.8-1.3,3.25-3.36,5.24
				l-0.78,0.72v0.03h4.38v1.09H140.52z"/>
		</g>
	</g>
	<g>
		<circle cx="141.01" cy="706.78" r="9.16"/>
		<g>
			<path class="st8" d="M142.94,702.85c-0.27-0.02-0.61,0-0.99,0.06c-2.07,0.34-3.17,1.86-3.39,3.46h0.04
				c0.47-0.62,1.27-1.13,2.35-1.13c1.73,0,2.94,1.25,2.94,3.15c0,1.78-1.21,3.43-3.24,3.43c-2.08,0-3.45-1.62-3.45-4.16
				c0-1.92,0.69-3.43,1.65-4.39c0.81-0.79,1.89-1.29,3.12-1.44c0.39-0.06,0.72-0.08,0.96-0.08V702.85z M142.57,708.47
				c0-1.39-0.79-2.23-2.01-2.23c-0.79,0-1.53,0.5-1.89,1.2c-0.09,0.15-0.15,0.34-0.15,0.58c0.03,1.6,0.77,2.79,2.15,2.79
				C141.8,710.81,142.57,709.87,142.57,708.47z"/>
		</g>
	</g>
	<g>
		<path d="M133.87,334.04c-0.03-0.66-0.08-1.45-0.07-2.04h-0.02c-0.16,0.55-0.36,1.14-0.6,1.79l-0.83,2.29h-0.46l-0.76-2.25
			c-0.22-0.67-0.41-1.27-0.55-1.83h-0.01c-0.01,0.59-0.05,1.38-0.09,2.09l-0.13,2.02h-0.58l0.33-4.72h0.78l0.81,2.28
			c0.2,0.58,0.36,1.1,0.48,1.59h0.02c0.12-0.48,0.29-0.99,0.5-1.59l0.84-2.28h0.78l0.29,4.72h-0.6L133.87,334.04z"/>
		<path d="M136.12,331.39v4.72h-0.61v-4.72H136.12z"/>
		<path d="M139.77,336.11l-0.6-1.04c-0.25-0.4-0.4-0.66-0.55-0.93h-0.01c-0.13,0.27-0.27,0.53-0.51,0.94l-0.57,1.04h-0.7l1.44-2.39
			l-1.39-2.33h0.71l0.62,1.11c0.17,0.31,0.31,0.55,0.43,0.8h0.02c0.13-0.28,0.25-0.5,0.43-0.8l0.64-1.11h0.7l-1.44,2.3l1.47,2.42
			H139.77z"/>
		<path d="M141.79,331.39v4.72h-0.61v-4.72H141.79z"/>
		<path d="M142.86,336.11v-4.72h0.67l1.51,2.39c0.35,0.55,0.62,1.05,0.85,1.53l0.01-0.01c-0.06-0.63-0.07-1.2-0.07-1.94v-1.98h0.57
			v4.72h-0.62l-1.5-2.4c-0.33-0.52-0.64-1.06-0.88-1.58l-0.02,0.01c0.04,0.6,0.05,1.16,0.05,1.95v2.02H142.86z"/>
		<path d="M151.06,335.9c-0.27,0.1-0.81,0.26-1.45,0.26c-0.71,0-1.3-0.18-1.76-0.62c-0.41-0.39-0.66-1.02-0.66-1.76
			c0.01-1.41,0.97-2.44,2.56-2.44c0.55,0,0.97,0.12,1.18,0.22l-0.15,0.5c-0.25-0.11-0.57-0.2-1.04-0.2c-1.15,0-1.9,0.71-1.9,1.9
			c0,1.2,0.72,1.91,1.82,1.91c0.4,0,0.67-0.06,0.81-0.13v-1.41h-0.96v-0.49h1.55V335.9z"/>
	</g>
	<g>
		<path d="M151.48,328c-0.03-0.56-0.07-1.24-0.06-1.75h-0.02c-0.14,0.47-0.31,0.98-0.51,1.54l-0.71,1.96h-0.4l-0.65-1.92
			c-0.19-0.57-0.35-1.09-0.47-1.57h-0.01c-0.01,0.5-0.04,1.18-0.08,1.79l-0.11,1.73h-0.5l0.28-4.04h0.67l0.69,1.96
			c0.17,0.5,0.31,0.94,0.41,1.36h0.02c0.1-0.41,0.25-0.85,0.43-1.36l0.72-1.96h0.67l0.25,4.04h-0.51L151.48,328z"/>
		<path d="M153.49,328.5l-0.42,1.27h-0.54l1.37-4.04h0.63l1.38,4.04h-0.56l-0.43-1.27H153.49z M154.82,328.09l-0.4-1.16
			c-0.09-0.26-0.15-0.5-0.21-0.74h-0.01c-0.06,0.24-0.13,0.49-0.2,0.73l-0.4,1.17H154.82z"/>
		<path d="M156.44,329.14c0.23,0.14,0.58,0.26,0.94,0.26c0.53,0,0.85-0.28,0.85-0.69c0-0.38-0.22-0.59-0.76-0.8
			c-0.66-0.23-1.07-0.58-1.07-1.15c0-0.63,0.52-1.1,1.31-1.1c0.41,0,0.71,0.1,0.89,0.2l-0.14,0.43c-0.13-0.07-0.4-0.19-0.77-0.19
			c-0.55,0-0.76,0.33-0.76,0.61c0,0.38,0.25,0.56,0.8,0.78c0.68,0.26,1.03,0.59,1.03,1.19c0,0.62-0.46,1.16-1.42,1.16
			c-0.39,0-0.82-0.11-1.03-0.26L156.44,329.14z"/>
		<path d="M160.24,326.18h-1.23v-0.44H162v0.44h-1.24v3.6h-0.53V326.18z"/>
		<path d="M164.54,327.88h-1.57v1.46h1.75v0.44h-2.27v-4.04h2.18v0.44h-1.66v1.28h1.57V327.88z"/>
		<path d="M165.4,325.79c0.26-0.05,0.64-0.08,1-0.08c0.56,0,0.92,0.1,1.17,0.33c0.2,0.18,0.32,0.46,0.32,0.77
			c0,0.53-0.34,0.89-0.76,1.03v0.02c0.31,0.11,0.5,0.4,0.59,0.82c0.13,0.56,0.23,0.95,0.31,1.11h-0.54
			c-0.07-0.11-0.16-0.46-0.27-0.97c-0.12-0.56-0.34-0.77-0.81-0.79h-0.49v1.75h-0.52V325.79z M165.92,327.63h0.53
			c0.56,0,0.91-0.31,0.91-0.77c0-0.52-0.38-0.75-0.93-0.76c-0.25,0-0.43,0.02-0.52,0.05V327.63z"/>
	</g>
	<g>
		<path d="M125.13,329.91c-0.19,0.1-0.58,0.19-1.07,0.19c-1.14,0-2-0.72-2-2.04c0-1.27,0.86-2.12,2.11-2.12
			c0.5,0,0.82,0.11,0.96,0.18l-0.13,0.43c-0.2-0.1-0.48-0.17-0.82-0.17c-0.95,0-1.58,0.61-1.58,1.67c0,0.99,0.57,1.63,1.55,1.63
			c0.32,0,0.64-0.07,0.85-0.17L125.13,329.91z"/>
		<path d="M126.3,326v2.39c0,0.91,0.4,1.29,0.94,1.29c0.6,0,0.98-0.4,0.98-1.29V326h0.53v2.36c0,1.24-0.65,1.75-1.53,1.75
			c-0.83,0-1.45-0.47-1.45-1.73V326H126.3z"/>
		<path d="M131.76,328.14h-1.57v1.46h1.75v0.44h-2.27V326h2.18v0.44h-1.66v1.28h1.57V328.14z"/>
	</g>
</g>
</svg>
