<?xml version="1.0" encoding="utf-8"?>
<!-- Generator: Adobe Illustrator 23.1.0, SVG Export Plug-In . SVG Version: 6.00 Build 0)  -->
<svg version="1.1" id="Ebene_1" xmlns="http://www.w3.org/2000/svg" xmlns:xlink="http://www.w3.org/1999/xlink" x="0px" y="0px"
	 viewBox="0 0 325.26 151.89" style="enable-background:new 0 0 325.26 151.89;" xml:space="preserve">
<style type="text/css">
	.st0{fill:none;stroke:#1E1E1C;stroke-miterlimit:10;}
	.st1{fill:#020203;}
	.st2{fill:#282727;}
	.st3{fill:#6D6C6C;}
	.st4{fill:none;stroke:#FFFFFF;stroke-miterlimit:10;}
	.st5{fill:#FFFFFF;}
	.st6{fill:none;stroke:#282727;stroke-miterlimit:10;}
</style>
<g>
	<g>
		<circle class="st0" cx="107.21" cy="51.41" r="16.32"/>
		<g>
			<polygon class="st0" points="121.45,51.41 120.84,52.43 121.29,53.54 120.54,54.46 120.82,55.61 119.94,56.41 120.04,57.59 
				119.05,58.25 118.97,59.43 117.9,59.94 117.65,61.1 116.51,61.43 116.09,62.54 114.91,62.71 114.33,63.74 113.14,63.73 
				112.41,64.67 111.24,64.48 110.38,65.29 109.25,64.93 108.28,65.61 107.21,65.08 106.15,65.61 105.17,64.93 104.04,65.29 
				103.18,64.48 102.01,64.67 101.28,63.73 100.09,63.74 99.51,62.71 98.34,62.54 97.92,61.43 96.78,61.09 96.53,59.93 95.45,59.43 
				95.37,58.25 94.39,57.59 94.49,56.41 93.61,55.61 93.89,54.45 93.14,53.53 93.58,52.43 92.98,51.41 93.58,50.39 93.14,49.29 
				93.89,48.37 93.61,47.21 94.49,46.42 94.39,45.23 95.38,44.58 95.45,43.39 96.53,42.89 96.78,41.73 97.92,41.39 98.34,40.28 
				99.51,40.12 100.1,39.08 101.28,39.1 102.01,38.16 103.18,38.35 104.04,37.53 105.17,37.9 106.15,37.22 107.21,37.74 
				108.28,37.22 109.25,37.9 110.38,37.53 111.24,38.35 112.42,38.16 113.15,39.1 114.33,39.08 114.91,40.12 116.09,40.28 
				116.51,41.39 117.65,41.73 117.9,42.89 118.98,43.39 119.05,44.58 120.04,45.24 119.94,46.42 120.82,47.22 120.54,48.37 
				121.29,49.29 120.84,50.39 			"/>
		</g>
		<line class="st0" x1="107.21" y1="37.46" x2="107.21" y2="49.47"/>
	</g>
	<line class="st0" x1="107.21" y1="70.62" x2="107.21" y2="70.62"/>
	<line class="st0" x1="107.21" y1="70.62" x2="107.21" y2="70.62"/>
	<circle class="st0" cx="107.21" cy="51.41" r="19.21"/>
	<g>
		<path class="st1" d="M107.07,25.42h-0.01l-0.79,0.43l-0.12-0.47l0.99-0.53h0.53v4.55h-0.59V25.42z"/>
	</g>
</g>
<g>
	<g>
		<circle class="st0" cx="169.58" cy="51.41" r="16.32"/>
		<g>
			<polygon class="st0" points="183.81,51.41 183.2,52.43 183.65,53.54 182.9,54.46 183.18,55.61 182.3,56.41 182.4,57.59 
				181.41,58.25 181.34,59.43 180.26,59.94 180.01,61.1 178.87,61.43 178.45,62.54 177.27,62.71 176.69,63.74 175.51,63.73 
				174.78,64.67 173.61,64.48 172.74,65.29 171.61,64.93 170.64,65.61 169.58,65.08 168.51,65.61 167.54,64.93 166.41,65.29 
				165.54,64.48 164.37,64.67 163.64,63.73 162.46,63.74 161.87,62.71 160.7,62.54 160.28,61.43 159.14,61.09 158.89,59.93 
				157.81,59.43 157.74,58.25 156.75,57.59 156.85,56.41 155.97,55.61 156.25,54.45 155.5,53.53 155.95,52.43 155.34,51.41 
				155.95,50.39 155.5,49.29 156.25,48.37 155.97,47.21 156.85,46.42 156.75,45.23 157.74,44.58 157.81,43.39 158.89,42.89 
				159.14,41.73 160.28,41.39 160.7,40.28 161.88,40.12 162.46,39.08 163.64,39.1 164.37,38.16 165.54,38.35 166.41,37.53 
				167.54,37.9 168.51,37.22 169.58,37.74 170.64,37.22 171.61,37.9 172.74,37.53 173.61,38.35 174.78,38.16 175.51,39.1 
				176.7,39.08 177.28,40.12 178.45,40.28 178.87,41.39 180.01,41.73 180.26,42.89 181.34,43.39 181.41,44.58 182.4,45.24 
				182.3,46.42 183.18,47.22 182.9,48.37 183.65,49.29 183.2,50.39 			"/>
		</g>
		<line class="st0" x1="169.58" y1="37.46" x2="169.58" y2="49.47"/>
	</g>
	<line class="st0" x1="169.58" y1="70.62" x2="169.58" y2="70.62"/>
	<line class="st0" x1="169.58" y1="70.62" x2="169.58" y2="70.62"/>
	<circle class="st0" cx="169.58" cy="51.41" r="19.21"/>
	<g>
		<path class="st1" d="M168.09,29.4v-0.38l0.48-0.47c1.16-1.11,1.69-1.69,1.69-2.38c0-0.46-0.22-0.89-0.9-0.89
			c-0.41,0-0.76,0.21-0.97,0.39l-0.2-0.43c0.32-0.27,0.76-0.46,1.29-0.46c0.98,0,1.39,0.67,1.39,1.32c0,0.84-0.61,1.52-1.57,2.44
			l-0.36,0.34v0.01H171v0.51H168.09z"/>
	</g>
</g>
<g>
	<g>
		<circle class="st0" cx="231.94" cy="51.41" r="16.32"/>
		<g>
			<polygon class="st0" points="246.17,51.41 245.57,52.43 246.01,53.54 245.26,54.46 245.54,55.61 244.66,56.41 244.76,57.59 
				243.77,58.25 243.7,59.43 242.62,59.94 242.37,61.1 241.23,61.43 240.81,62.54 239.64,62.71 239.05,63.74 237.87,63.73 
				237.14,64.67 235.97,64.48 235.11,65.29 233.98,64.93 233,65.61 231.94,65.08 230.87,65.61 229.9,64.93 228.77,65.29 
				227.91,64.48 226.73,64.67 226,63.73 224.82,63.74 224.24,62.71 223.06,62.54 222.64,61.43 221.5,61.09 221.25,59.93 
				220.17,59.43 220.1,58.25 219.11,57.59 219.21,56.41 218.33,55.61 218.61,54.45 217.86,53.53 218.31,52.43 217.7,51.41 
				218.31,50.39 217.86,49.29 218.61,48.37 218.33,47.21 219.21,46.42 219.11,45.23 220.1,44.58 220.18,43.39 221.25,42.89 
				221.5,41.73 222.64,41.39 223.06,40.28 224.24,40.12 224.82,39.08 226.01,39.1 226.74,38.16 227.91,38.35 228.77,37.53 
				229.9,37.9 230.87,37.22 231.94,37.74 233,37.22 233.98,37.9 235.11,37.53 235.97,38.35 237.14,38.16 237.87,39.1 239.06,39.08 
				239.64,40.12 240.81,40.28 241.23,41.39 242.37,41.73 242.62,42.89 243.7,43.39 243.78,44.58 244.77,45.24 244.66,46.42 
				245.54,47.22 245.26,48.37 246.01,49.29 245.57,50.39 			"/>
		</g>
		<line class="st0" x1="231.94" y1="37.46" x2="231.94" y2="49.47"/>
	</g>
	<line class="st0" x1="231.94" y1="70.62" x2="231.94" y2="70.62"/>
	<line class="st0" x1="231.94" y1="70.62" x2="231.94" y2="70.62"/>
	<circle class="st0" cx="231.94" cy="51.41" r="19.21"/>
	<g>
		<path class="st1" d="M230.6,28.7c0.18,0.11,0.58,0.29,1.01,0.29c0.79,0,1.04-0.5,1.03-0.88c-0.01-0.64-0.58-0.91-1.18-0.91h-0.34
			v-0.46h0.34c0.45,0,1.02-0.23,1.02-0.77c0-0.36-0.23-0.69-0.8-0.69c-0.36,0-0.71,0.16-0.91,0.3l-0.16-0.45
			c0.24-0.18,0.7-0.35,1.19-0.35c0.9,0,1.3,0.53,1.3,1.09c0,0.47-0.28,0.87-0.84,1.07v0.01c0.56,0.11,1.02,0.53,1.02,1.17
			c0,0.73-0.57,1.37-1.66,1.37c-0.51,0-0.96-0.16-1.18-0.31L230.6,28.7z"/>
	</g>
</g>
<g>
	<g>
		<circle class="st0" cx="294.3" cy="51.41" r="16.32"/>
		<g>
			<polygon class="st0" points="308.53,51.41 307.93,52.43 308.38,53.54 307.63,54.46 307.9,55.61 307.02,56.41 307.13,57.59 
				306.14,58.25 306.06,59.43 304.98,59.94 304.73,61.1 303.59,61.43 303.17,62.54 302,62.71 301.42,63.74 300.23,63.73 
				299.5,64.67 298.33,64.48 297.47,65.29 296.34,64.93 295.36,65.61 294.3,65.08 293.23,65.61 292.26,64.93 291.13,65.29 
				290.27,64.48 289.1,64.67 288.37,63.73 287.18,63.74 286.6,62.71 285.42,62.54 285,61.43 283.86,61.09 283.61,59.93 
				282.54,59.43 282.46,58.25 281.47,57.59 281.57,56.41 280.69,55.61 280.97,54.45 280.22,53.53 280.67,52.43 280.07,51.41 
				280.67,50.39 280.22,49.29 280.97,48.37 280.69,47.21 281.57,46.42 281.47,45.23 282.46,44.58 282.54,43.39 283.61,42.89 
				283.87,41.73 285,41.39 285.43,40.28 286.6,40.12 287.18,39.08 288.37,39.1 289.1,38.16 290.27,38.35 291.13,37.53 292.26,37.9 
				293.24,37.22 294.3,37.74 295.36,37.22 296.34,37.9 297.47,37.53 298.33,38.35 299.5,38.16 300.23,39.1 301.42,39.08 302,40.12 
				303.18,40.28 303.6,41.39 304.74,41.73 304.99,42.89 306.06,43.39 306.14,44.58 307.13,45.24 307.03,46.42 307.9,47.22 
				307.63,48.37 308.38,49.29 307.93,50.39 			"/>
		</g>
	</g>
	<line class="st0" x1="294.3" y1="70.62" x2="294.3" y2="70.62"/>
	<line class="st0" x1="294.3" y1="70.62" x2="294.3" y2="70.62"/>
	<circle class="st0" cx="294.3" cy="51.41" r="19.21"/>
	<g>
		<path class="st1" d="M285.9,24.74c0.27-0.06,0.69-0.1,1.11-0.1c0.61,0,1,0.1,1.3,0.34c0.25,0.18,0.39,0.46,0.39,0.83
			c0,0.46-0.3,0.85-0.8,1.04v0.01c0.45,0.11,0.97,0.48,0.97,1.18c0,0.41-0.16,0.71-0.4,0.95c-0.33,0.3-0.86,0.44-1.63,0.44
			c-0.42,0-0.74-0.03-0.95-0.06V24.74z M286.51,26.68h0.55c0.64,0,1.02-0.34,1.02-0.79c0-0.55-0.42-0.77-1.04-0.77
			c-0.28,0-0.44,0.02-0.54,0.04V26.68z M286.51,28.94c0.12,0.02,0.29,0.03,0.51,0.03c0.63,0,1.21-0.23,1.21-0.92
			c0-0.64-0.55-0.91-1.22-0.91h-0.5V28.94z"/>
		<path class="st1" d="M292.13,27.19h-1.83v1.7h2.04v0.51h-2.65v-4.72h2.55v0.51h-1.94v1.49h1.83V27.19z"/>
		<path class="st1" d="M293.9,27.92l-0.49,1.48h-0.63l1.6-4.72h0.74l1.61,4.72h-0.65l-0.5-1.48H293.9z M295.45,27.44l-0.46-1.36
			c-0.1-0.31-0.17-0.59-0.25-0.86h-0.01c-0.07,0.28-0.15,0.57-0.24,0.85l-0.46,1.37H295.45z"/>
		<path class="st1" d="M297.78,25.2h-1.44v-0.52h3.5v0.52h-1.44v4.2h-0.62V25.2z"/>
		<path class="st1" d="M300.23,28.66c0.27,0.17,0.67,0.31,1.09,0.31c0.62,0,0.99-0.33,0.99-0.81c0-0.44-0.25-0.69-0.89-0.94
			c-0.77-0.27-1.25-0.67-1.25-1.34c0-0.74,0.61-1.28,1.53-1.28c0.48,0,0.83,0.11,1.04,0.23l-0.17,0.5c-0.15-0.08-0.47-0.22-0.9-0.22
			c-0.64,0-0.89,0.39-0.89,0.71c0,0.44,0.29,0.66,0.94,0.91c0.8,0.31,1.2,0.69,1.2,1.39c0,0.73-0.54,1.36-1.65,1.36
			c-0.46,0-0.95-0.13-1.21-0.3L300.23,28.66z"/>
	</g>
</g>
<g>
	<path class="st2" d="M131.21,119.03h-48c-1.51,0-2.74-1.23-2.74-2.74V95.03c0-1.51,1.23-2.74,2.74-2.74h48
		c1.51,0,2.74,1.23,2.74,2.74v21.26C133.95,117.81,132.72,119.03,131.21,119.03z"/>
	<path class="st3" d="M129.63,110.72H84.79c-1.25,0-2.26-1.01-2.26-2.26V96.56c0-1.25,1.01-2.26,2.26-2.26h44.84
		c1.25,0,2.26,1.01,2.26,2.26v11.89C131.9,109.7,130.88,110.72,129.63,110.72z"/>
	<rect x="85.2" y="97.03" class="st4" width="44" height="11.05"/>
	<g>
		<path class="st5" d="M92.6,112.68h2.54v0.51h-1.93v1.57h1.79v0.5h-1.79v2.14H92.6V112.68z"/>
		<path class="st5" d="M98.59,117.4l-0.6-1.04c-0.25-0.4-0.4-0.66-0.55-0.93h-0.01c-0.13,0.27-0.27,0.53-0.51,0.94l-0.57,1.04h-0.7
			l1.44-2.39l-1.39-2.33h0.71l0.62,1.11c0.18,0.31,0.31,0.55,0.43,0.8h0.02c0.13-0.28,0.25-0.5,0.43-0.8l0.64-1.11h0.7l-1.44,2.3
			l1.47,2.42H98.59z"/>
		<path class="st5" d="M101.4,116.66c0.27,0.17,0.67,0.31,1.09,0.31c0.62,0,0.99-0.33,0.99-0.81c0-0.44-0.25-0.69-0.89-0.94
			c-0.77-0.27-1.25-0.67-1.25-1.34c0-0.74,0.61-1.28,1.53-1.28c0.48,0,0.83,0.11,1.04,0.23l-0.17,0.5c-0.15-0.08-0.47-0.22-0.9-0.22
			c-0.64,0-0.89,0.39-0.89,0.71c0,0.44,0.29,0.66,0.94,0.91c0.8,0.31,1.2,0.69,1.2,1.39c0,0.73-0.54,1.36-1.65,1.36
			c-0.46,0-0.95-0.13-1.21-0.3L101.4,116.66z"/>
		<path class="st5" d="M107.38,115.19h-1.83v1.7h2.04v0.51h-2.65v-4.72h2.55v0.51h-1.94v1.49h1.83V115.19z"/>
		<path class="st5" d="M108.38,112.68h0.61v4.21h2.02v0.51h-2.63V112.68z"/>
		<path class="st5" d="M114.13,115.19h-1.83v1.7h2.04v0.51h-2.65v-4.72h2.55v0.51h-1.94v1.49h1.83V115.19z"/>
		<path class="st5" d="M118.43,117.25c-0.22,0.11-0.67,0.22-1.25,0.22c-1.33,0-2.33-0.84-2.33-2.39c0-1.48,1-2.48,2.47-2.48
			c0.59,0,0.96,0.13,1.12,0.21l-0.15,0.5c-0.23-0.11-0.56-0.2-0.95-0.2c-1.11,0-1.84,0.71-1.84,1.95c0,1.16,0.67,1.9,1.81,1.9
			c0.37,0,0.75-0.08,0.99-0.2L118.43,117.25z"/>
		<path class="st5" d="M120.28,113.2h-1.44v-0.52h3.5v0.52h-1.44v4.2h-0.62V113.2z"/>
	</g>
	<g>
		<path class="st2" d="M107.05,87.73c0,1.62-0.99,2.49-2.19,2.49c-1.25,0-2.12-0.97-2.12-2.4c0-1.5,0.93-2.48,2.19-2.48
			C106.22,85.34,107.05,86.33,107.05,87.73z M103.39,87.81c0,1.01,0.55,1.91,1.51,1.91c0.97,0,1.51-0.89,1.51-1.96
			c0-0.94-0.49-1.92-1.51-1.92C103.89,85.84,103.39,86.77,103.39,87.81z"/>
		<path class="st2" d="M107.84,90.14v-4.72h0.67l1.51,2.39c0.35,0.55,0.62,1.05,0.85,1.53l0.01-0.01c-0.06-0.63-0.07-1.2-0.07-1.94
			v-1.98h0.57v4.72h-0.62l-1.5-2.4c-0.33-0.52-0.64-1.06-0.88-1.58l-0.02,0.01c0.04,0.6,0.05,1.16,0.05,1.95v2.02H107.84z"/>
	</g>
</g>
<g>
	<path class="st2" d="M193.58,119.03h-48c-1.51,0-2.74-1.23-2.74-2.74V95.03c0-1.51,1.23-2.74,2.74-2.74h48
		c1.51,0,2.74,1.23,2.74,2.74v21.26C196.31,117.81,195.09,119.03,193.58,119.03z"/>
	<path class="st3" d="M192,110.72h-44.84c-1.25,0-2.26-1.01-2.26-2.26V96.56c0-1.25,1.01-2.26,2.26-2.26H192
		c1.25,0,2.26,1.01,2.26,2.26v11.89C194.26,109.7,193.25,110.72,192,110.72z"/>
	<rect x="147.56" y="97.03" class="st4" width="44" height="11.05"/>
	<g>
		<path class="st5" d="M154.96,112.68h2.54v0.51h-1.93v1.57h1.79v0.5h-1.79v2.14h-0.61V112.68z"/>
		<path class="st5" d="M160.95,117.4l-0.6-1.04c-0.25-0.4-0.4-0.66-0.55-0.93h-0.01c-0.13,0.27-0.27,0.53-0.51,0.94l-0.57,1.04h-0.7
			l1.44-2.39l-1.39-2.33h0.71l0.62,1.11c0.18,0.31,0.31,0.55,0.43,0.8h0.02c0.13-0.28,0.25-0.5,0.43-0.8l0.64-1.11h0.7l-1.44,2.3
			l1.47,2.42H160.95z"/>
		<path class="st5" d="M163.77,116.66c0.27,0.17,0.67,0.31,1.09,0.31c0.62,0,0.99-0.33,0.99-0.81c0-0.44-0.25-0.69-0.89-0.94
			c-0.77-0.27-1.25-0.67-1.25-1.34c0-0.74,0.61-1.28,1.53-1.28c0.48,0,0.83,0.11,1.04,0.23l-0.17,0.5c-0.15-0.08-0.47-0.22-0.9-0.22
			c-0.64,0-0.89,0.39-0.89,0.71c0,0.44,0.29,0.66,0.94,0.91c0.8,0.31,1.2,0.69,1.2,1.39c0,0.73-0.54,1.36-1.65,1.36
			c-0.46,0-0.95-0.13-1.21-0.3L163.77,116.66z"/>
		<path class="st5" d="M169.75,115.19h-1.83v1.7h2.04v0.51h-2.65v-4.72h2.55v0.51h-1.94v1.49h1.83V115.19z"/>
		<path class="st5" d="M170.75,112.68h0.61v4.21h2.02v0.51h-2.63V112.68z"/>
		<path class="st5" d="M176.49,115.19h-1.83v1.7h2.04v0.51h-2.65v-4.72h2.55v0.51h-1.94v1.49h1.83V115.19z"/>
		<path class="st5" d="M180.79,117.25c-0.22,0.11-0.67,0.22-1.25,0.22c-1.33,0-2.33-0.84-2.33-2.39c0-1.48,1-2.48,2.47-2.48
			c0.59,0,0.96,0.13,1.12,0.21l-0.15,0.5c-0.23-0.11-0.56-0.2-0.95-0.2c-1.11,0-1.84,0.71-1.84,1.95c0,1.16,0.67,1.9,1.81,1.9
			c0.37,0,0.75-0.08,0.99-0.2L180.79,117.25z"/>
		<path class="st5" d="M182.65,113.2h-1.44v-0.52h3.5v0.52h-1.44v4.2h-0.62V113.2z"/>
	</g>
	<g>
		<path class="st2" d="M169.41,87.73c0,1.62-0.99,2.49-2.19,2.49c-1.25,0-2.12-0.97-2.12-2.4c0-1.5,0.93-2.48,2.19-2.48
			C168.58,85.34,169.41,86.33,169.41,87.73z M165.75,87.81c0,1.01,0.55,1.91,1.51,1.91c0.97,0,1.51-0.89,1.51-1.96
			c0-0.94-0.49-1.92-1.51-1.92C166.26,85.84,165.75,86.77,165.75,87.81z"/>
		<path class="st2" d="M170.2,90.14v-4.72h0.67l1.51,2.39c0.35,0.55,0.62,1.05,0.85,1.53l0.01-0.01c-0.06-0.63-0.07-1.2-0.07-1.94
			v-1.98h0.57v4.72h-0.62l-1.5-2.4c-0.33-0.52-0.64-1.06-0.88-1.58l-0.02,0.01c0.04,0.6,0.05,1.16,0.05,1.95v2.02H170.2z"/>
	</g>
</g>
<g>
	<path class="st2" d="M255.94,119.03h-48c-1.51,0-2.74-1.23-2.74-2.74V95.03c0-1.51,1.23-2.74,2.74-2.74h48
		c1.51,0,2.74,1.23,2.74,2.74v21.26C258.67,117.81,257.45,119.03,255.94,119.03z"/>
	<path class="st3" d="M254.36,110.72h-44.84c-1.25,0-2.26-1.01-2.26-2.26V96.56c0-1.25,1.01-2.26,2.26-2.26h44.84
		c1.25,0,2.26,1.01,2.26,2.26v11.89C256.62,109.7,255.61,110.72,254.36,110.72z"/>
	<rect x="209.93" y="97.03" class="st4" width="44" height="11.05"/>
	<g>
		<path class="st5" d="M217.32,112.68h2.54v0.51h-1.93v1.57h1.79v0.5h-1.79v2.14h-0.61V112.68z"/>
		<path class="st5" d="M223.32,117.4l-0.6-1.04c-0.25-0.4-0.4-0.66-0.55-0.93h-0.01c-0.13,0.27-0.27,0.53-0.51,0.94l-0.57,1.04h-0.7
			l1.44-2.39l-1.39-2.33h0.71l0.62,1.11c0.18,0.31,0.31,0.55,0.43,0.8h0.02c0.13-0.28,0.25-0.5,0.43-0.8l0.64-1.11h0.7l-1.44,2.3
			l1.47,2.42H223.32z"/>
		<path class="st5" d="M226.13,116.66c0.27,0.17,0.67,0.31,1.09,0.31c0.62,0,0.99-0.33,0.99-0.81c0-0.44-0.25-0.69-0.89-0.94
			c-0.77-0.27-1.25-0.67-1.25-1.34c0-0.74,0.61-1.28,1.53-1.28c0.48,0,0.83,0.11,1.04,0.23l-0.17,0.5c-0.15-0.08-0.47-0.22-0.9-0.22
			c-0.64,0-0.89,0.39-0.89,0.71c0,0.44,0.29,0.66,0.94,0.91c0.8,0.31,1.2,0.69,1.2,1.39c0,0.73-0.54,1.36-1.65,1.36
			c-0.46,0-0.95-0.13-1.21-0.3L226.13,116.66z"/>
		<path class="st5" d="M232.11,115.19h-1.83v1.7h2.04v0.51h-2.65v-4.72h2.55v0.51h-1.94v1.49h1.83V115.19z"/>
		<path class="st5" d="M233.11,112.68h0.61v4.21h2.02v0.51h-2.63V112.68z"/>
		<path class="st5" d="M238.86,115.19h-1.83v1.7h2.04v0.51h-2.65v-4.72h2.55v0.51h-1.94v1.49h1.83V115.19z"/>
		<path class="st5" d="M243.15,117.25c-0.22,0.11-0.67,0.22-1.25,0.22c-1.33,0-2.33-0.84-2.33-2.39c0-1.48,1-2.48,2.47-2.48
			c0.59,0,0.96,0.13,1.12,0.21l-0.15,0.5c-0.23-0.11-0.56-0.2-0.95-0.2c-1.11,0-1.84,0.71-1.84,1.95c0,1.16,0.67,1.9,1.81,1.9
			c0.37,0,0.75-0.08,0.99-0.2L243.15,117.25z"/>
		<path class="st5" d="M245.01,113.2h-1.44v-0.52h3.5v0.52h-1.44v4.2h-0.62V113.2z"/>
	</g>
	<g>
		<path class="st2" d="M231.78,87.73c0,1.62-0.99,2.49-2.19,2.49c-1.25,0-2.12-0.97-2.12-2.4c0-1.5,0.93-2.48,2.19-2.48
			C230.94,85.34,231.78,86.33,231.78,87.73z M228.11,87.81c0,1.01,0.55,1.91,1.51,1.91c0.97,0,1.51-0.89,1.51-1.96
			c0-0.94-0.49-1.92-1.51-1.92C228.62,85.84,228.11,86.77,228.11,87.81z"/>
		<path class="st2" d="M232.57,90.14v-4.72h0.67l1.51,2.39c0.35,0.55,0.62,1.05,0.85,1.53l0.01-0.01c-0.06-0.63-0.07-1.2-0.07-1.94
			v-1.98h0.57v4.72h-0.62l-1.5-2.4c-0.33-0.52-0.64-1.06-0.88-1.58l-0.02,0.01c0.04,0.6,0.05,1.16,0.05,1.95v2.02H232.57z"/>
	</g>
</g>
<g>
	<path class="st2" d="M318.3,119.03h-48c-1.51,0-2.74-1.23-2.74-2.74V95.03c0-1.51,1.23-2.74,2.74-2.74h48
		c1.51,0,2.74,1.23,2.74,2.74v21.26C321.04,117.81,319.81,119.03,318.3,119.03z"/>
	<path class="st3" d="M316.72,110.72h-44.84c-1.25,0-2.26-1.01-2.26-2.26V96.56c0-1.25,1.01-2.26,2.26-2.26h44.84
		c1.25,0,2.26,1.01,2.26,2.26v11.89C318.98,109.7,317.97,110.72,316.72,110.72z"/>
	<rect x="272.29" y="97.03" class="st4" width="44" height="11.05"/>
	<g>
		<path class="st5" d="M281.1,112.68h2.54v0.51h-1.93v1.57h1.79v0.5h-1.79v2.14h-0.61V112.68z"/>
		<path class="st5" d="M287.09,117.4l-0.6-1.04c-0.25-0.4-0.4-0.66-0.55-0.93h-0.01c-0.13,0.27-0.27,0.53-0.51,0.94l-0.57,1.04h-0.7
			l1.44-2.39l-1.39-2.33h0.71l0.62,1.11c0.18,0.31,0.31,0.55,0.43,0.8h0.02c0.13-0.28,0.25-0.5,0.43-0.8l0.64-1.11h0.7l-1.44,2.3
			l1.47,2.42H287.09z"/>
		<path class="st5" d="M293.96,115.33c-0.04-0.66-0.08-1.45-0.07-2.04h-0.02c-0.16,0.55-0.36,1.14-0.59,1.79l-0.83,2.29h-0.46
			l-0.76-2.25c-0.22-0.67-0.41-1.27-0.55-1.83h-0.01c-0.01,0.59-0.05,1.38-0.09,2.09l-0.13,2.02h-0.58l0.33-4.72h0.78l0.81,2.28
			c0.2,0.58,0.36,1.1,0.48,1.59h0.02c0.12-0.48,0.29-0.99,0.5-1.59l0.84-2.28h0.78l0.29,4.72h-0.59L293.96,115.33z"/>
		<path class="st5" d="M299.65,114.99c0,1.62-0.99,2.49-2.19,2.49c-1.25,0-2.12-0.97-2.12-2.4c0-1.5,0.93-2.48,2.19-2.48
			C298.81,112.6,299.65,113.59,299.65,114.99z M295.98,115.07c0,1.01,0.55,1.91,1.51,1.91c0.97,0,1.51-0.89,1.51-1.96
			c0-0.94-0.49-1.92-1.51-1.92C296.49,113.1,295.98,114.03,295.98,115.07z"/>
		<path class="st5" d="M300.44,112.74c0.37-0.06,0.81-0.1,1.3-0.1c0.88,0,1.5,0.2,1.91,0.59c0.42,0.39,0.67,0.93,0.67,1.7
			c0,0.77-0.24,1.4-0.68,1.83c-0.44,0.44-1.17,0.68-2.09,0.68c-0.43,0-0.8-0.02-1.11-0.06V112.74z M301.05,116.92
			c0.15,0.03,0.38,0.04,0.62,0.04c1.3,0,2.01-0.73,2.01-2c0.01-1.11-0.62-1.82-1.91-1.82c-0.32,0-0.55,0.03-0.71,0.06V116.92z"/>
		<path class="st5" d="M307.54,115.19h-1.83v1.7h2.04v0.51h-2.65v-4.72h2.55v0.51h-1.94v1.49h1.83V115.19z"/>
	</g>
	<g>
		<path class="st2" d="M290.23,85.94h-1.44v-0.52h3.5v0.52h-1.44v4.2h-0.62V85.94z"/>
		<path class="st2" d="M293.06,88.65l-0.49,1.48h-0.63l1.6-4.72h0.74l1.61,4.72h-0.65l-0.5-1.48H293.06z M294.6,88.18l-0.46-1.36
			c-0.1-0.31-0.17-0.59-0.25-0.86h-0.01c-0.07,0.28-0.15,0.57-0.24,0.85l-0.46,1.37H294.6z"/>
		<path class="st2" d="M296.58,85.47c0.29-0.05,0.68-0.09,1.17-0.09c0.6,0,1.04,0.14,1.32,0.39c0.26,0.22,0.41,0.57,0.41,0.99
			c0,0.43-0.13,0.76-0.36,1.01c-0.32,0.34-0.85,0.52-1.44,0.52c-0.18,0-0.35-0.01-0.49-0.04v1.89h-0.61V85.47z M297.19,87.75
			c0.13,0.04,0.3,0.05,0.5,0.05c0.74,0,1.18-0.36,1.18-1.01c0-0.62-0.44-0.92-1.11-0.92c-0.27,0-0.47,0.02-0.57,0.05V87.75z"/>
	</g>
</g>
<line class="st6" x1="80.48" y1="17.98" x2="321.04" y2="18.08"/>
<g>
	<path class="st1" d="M192.6,6.77h3.63V7.5h-2.76v2.24h2.55v0.72h-2.55v3.05h-0.87V6.77z"/>
	<path class="st1" d="M201.16,13.51l-0.86-1.49c-0.35-0.57-0.57-0.94-0.78-1.33h-0.02c-0.19,0.39-0.38,0.75-0.73,1.34l-0.81,1.48h-1
		l2.06-3.41l-1.98-3.33h1.01l0.89,1.58c0.25,0.44,0.44,0.78,0.62,1.14h0.03c0.19-0.4,0.36-0.71,0.61-1.14l0.92-1.58h1l-2.05,3.28
		l2.1,3.46H201.16z"/>
	<path class="st1" d="M206.9,7.83h-0.02l-1.13,0.61l-0.17-0.67L207,7.01h0.75v6.5h-0.85V7.83z"/>
</g>
<g>
	<path class="st2" d="M43.84,39.14H15.23c-1.51,0-2.74-1.23-2.74-2.74V15.14c0-1.51,1.23-2.74,2.74-2.74h28.61
		c1.51,0,2.74,1.23,2.74,2.74V36.4C46.58,37.91,45.35,39.14,43.84,39.14z"/>
	<g>
		<path class="st5" d="M27.99,36.8c0.18,0.11,0.58,0.29,1.01,0.29c0.79,0,1.04-0.5,1.03-0.88c-0.01-0.64-0.58-0.91-1.18-0.91h-0.34
			v-0.46h0.34c0.45,0,1.02-0.23,1.02-0.77c0-0.36-0.23-0.69-0.8-0.69c-0.36,0-0.71,0.16-0.91,0.3L28,33.23
			c0.24-0.18,0.7-0.35,1.19-0.35c0.9,0,1.3,0.53,1.3,1.09c0,0.47-0.28,0.87-0.84,1.07v0.01c0.56,0.11,1.02,0.53,1.02,1.17
			c0,0.73-0.57,1.37-1.66,1.37c-0.51,0-0.96-0.16-1.18-0.31L27.99,36.8z"/>
	</g>
	<path class="st3" d="M42.31,30.87H16.76c-1.25,0-2.26-1.01-2.26-2.26V16.72c0-1.25,1.01-2.26,2.26-2.26h25.55
		c1.25,0,2.26,1.01,2.26,2.26v11.89C44.57,29.86,43.56,30.87,42.31,30.87z"/>
	<rect x="17.16" y="17.19" class="st4" width="24.33" height="11.05"/>
	<g>
		<path class="st2" d="M29.19,6.26h-0.01l-0.79,0.43l-0.12-0.47l0.99-0.53h0.53v4.55h-0.59V6.26z"/>
	</g>
</g>
<g>
	<path class="st2" d="M43.84,79.14H15.23c-1.51,0-2.74-1.23-2.74-2.74V55.14c0-1.51,1.23-2.74,2.74-2.74h28.61
		c1.51,0,2.74,1.23,2.74,2.74V76.4C46.58,77.91,45.35,79.14,43.84,79.14z"/>
	<g>
		<path class="st5" d="M29.75,77.51v-1.24h-2.11v-0.41l2.03-2.91h0.67v2.83h0.64v0.48h-0.64v1.24H29.75z M29.75,75.78v-1.52
			c0-0.24,0.01-0.48,0.02-0.71h-0.02c-0.14,0.27-0.25,0.46-0.38,0.67l-1.11,1.55v0.01H29.75z"/>
	</g>
	<path class="st3" d="M42.31,70.87H16.76c-1.25,0-2.26-1.01-2.26-2.26V56.72c0-1.25,1.01-2.26,2.26-2.26h25.55
		c1.25,0,2.26,1.01,2.26,2.26v11.89C44.57,69.86,43.56,70.87,42.31,70.87z"/>
	<rect x="17.16" y="57.19" class="st4" width="24.33" height="11.05"/>
	<g>
		<path class="st2" d="M27.85,50.24v-0.38l0.48-0.47c1.16-1.11,1.69-1.69,1.69-2.38c0-0.46-0.22-0.89-0.9-0.89
			c-0.41,0-0.76,0.21-0.97,0.39l-0.2-0.43c0.32-0.27,0.76-0.46,1.29-0.46c0.98,0,1.39,0.67,1.39,1.32c0,0.84-0.61,1.52-1.57,2.44
			l-0.36,0.34v0.01h2.04v0.51H27.85z"/>
	</g>
</g>
<g>
	<path class="st3" d="M41.98,110.77H16.43c-1.25,0-2.26-1.01-2.26-2.26V96.61c0-1.25,1.01-2.26,2.26-2.26h25.55
		c1.25,0,2.26,1.01,2.26,2.26v11.89C44.24,109.76,43.23,110.77,41.98,110.77z"/>
	<rect x="16.83" y="97.09" class="st4" width="24.33" height="11.05"/>
	<g>
		<path class="st2" d="M11.59,87.44h-1.44v-0.52h3.5v0.52H12.2v4.2h-0.62V87.44z"/>
		<path class="st2" d="M14.17,86.98c0.31-0.06,0.75-0.1,1.17-0.1c0.65,0,1.07,0.12,1.37,0.38c0.24,0.21,0.37,0.53,0.37,0.9
			c0,0.62-0.39,1.04-0.89,1.21v0.02c0.36,0.13,0.58,0.46,0.69,0.95c0.15,0.66,0.27,1.11,0.36,1.3h-0.63
			c-0.08-0.13-0.18-0.54-0.32-1.13c-0.14-0.65-0.39-0.9-0.95-0.92h-0.57v2.04h-0.61V86.98z M14.78,89.13h0.62
			c0.65,0,1.06-0.36,1.06-0.9c0-0.61-0.44-0.88-1.08-0.88c-0.29,0-0.5,0.03-0.6,0.06V89.13z"/>
		<path class="st2" d="M17.4,91.92l1.95-5.08h0.48l-1.96,5.08H17.4z"/>
		<path class="st2" d="M20.25,90.9c0.27,0.17,0.67,0.31,1.09,0.31c0.62,0,0.99-0.33,0.99-0.81c0-0.44-0.25-0.69-0.89-0.94
			c-0.77-0.27-1.25-0.67-1.25-1.34c0-0.74,0.61-1.28,1.53-1.28c0.48,0,0.83,0.11,1.04,0.23l-0.17,0.5c-0.15-0.08-0.47-0.22-0.9-0.22
			c-0.64,0-0.89,0.39-0.89,0.71c0,0.44,0.29,0.66,0.94,0.91c0.8,0.31,1.2,0.69,1.2,1.39c0,0.73-0.54,1.36-1.65,1.36
			c-0.46,0-0.95-0.13-1.21-0.3L20.25,90.9z"/>
		<path class="st2" d="M24.55,90.15l-0.49,1.48h-0.63l1.6-4.72h0.74l1.61,4.72h-0.65l-0.5-1.48H24.55z M26.1,89.68l-0.46-1.36
			c-0.1-0.31-0.17-0.59-0.25-0.86h-0.01c-0.07,0.28-0.15,0.57-0.24,0.85l-0.46,1.37H26.1z"/>
		<path class="st2" d="M32.02,89.57c-0.04-0.66-0.08-1.45-0.07-2.04h-0.02c-0.16,0.55-0.36,1.14-0.59,1.79l-0.83,2.29h-0.46
			l-0.76-2.25c-0.22-0.67-0.41-1.27-0.55-1.83h-0.01c-0.01,0.59-0.05,1.38-0.09,2.09l-0.13,2.02h-0.58l0.33-4.72h0.78l0.81,2.28
			c0.2,0.58,0.36,1.1,0.48,1.59h0.02c0.12-0.48,0.29-0.99,0.5-1.59l0.84-2.28h0.78l0.29,4.72h-0.59L32.02,89.57z"/>
		<path class="st2" d="M33.67,86.97c0.29-0.05,0.68-0.09,1.17-0.09c0.6,0,1.04,0.14,1.32,0.39c0.26,0.22,0.41,0.57,0.41,0.99
			c0,0.43-0.13,0.76-0.36,1.01c-0.32,0.34-0.85,0.52-1.44,0.52c-0.18,0-0.35-0.01-0.49-0.04v1.89h-0.61V86.97z M34.28,89.25
			c0.13,0.04,0.3,0.05,0.5,0.05c0.74,0,1.18-0.36,1.18-1.01c0-0.62-0.44-0.92-1.11-0.92c-0.27,0-0.47,0.02-0.57,0.05V89.25z"/>
		<path class="st2" d="M37.4,86.92H38v4.21h2.02v0.51H37.4V86.92z"/>
		<path class="st2" d="M43.14,89.43h-1.83v1.7h2.04v0.51H40.7v-4.72h2.55v0.51h-1.94v1.49h1.83V89.43z"/>
		<path class="st2" d="M44.14,86.98c0.31-0.06,0.75-0.1,1.17-0.1c0.65,0,1.07,0.12,1.37,0.38c0.24,0.21,0.37,0.53,0.37,0.9
			c0,0.62-0.39,1.04-0.89,1.21v0.02c0.36,0.13,0.58,0.46,0.69,0.95c0.15,0.66,0.27,1.11,0.36,1.3h-0.63
			c-0.08-0.13-0.18-0.54-0.32-1.13c-0.14-0.65-0.39-0.9-0.95-0.92h-0.57v2.04h-0.61V86.98z M44.75,89.13h0.62
			c0.65,0,1.06-0.36,1.06-0.9c0-0.61-0.44-0.88-1.08-0.88c-0.29,0-0.5,0.03-0.6,0.06V89.13z"/>
	</g>
	<g>
		<path class="st2" d="M17.11,127.66c-0.22,0.11-0.67,0.22-1.25,0.22c-1.33,0-2.33-0.84-2.33-2.39c0-1.48,1-2.48,2.47-2.48
			c0.59,0,0.96,0.13,1.12,0.21l-0.15,0.5c-0.23-0.11-0.56-0.2-0.95-0.2c-1.11,0-1.84,0.71-1.84,1.95c0,1.16,0.67,1.9,1.81,1.9
			c0.37,0,0.75-0.08,0.99-0.2L17.11,127.66z"/>
		<path class="st2" d="M18.48,123.09v1.98h2.28v-1.98h0.62v4.72h-0.62v-2.21h-2.28v2.21h-0.61v-4.72H18.48z"/>
		<path class="st2" d="M24.68,126.33l-0.49,1.48h-0.63l1.6-4.72h0.74l1.61,4.72h-0.65l-0.5-1.48H24.68z M26.23,125.85l-0.46-1.36
			c-0.1-0.31-0.17-0.59-0.25-0.86h-0.01c-0.07,0.28-0.15,0.57-0.24,0.85l-0.46,1.37H26.23z"/>
		<path class="st2" d="M28.12,127.07c0.27,0.17,0.67,0.31,1.09,0.31c0.62,0,0.99-0.33,0.99-0.81c0-0.44-0.25-0.69-0.89-0.94
			c-0.77-0.27-1.25-0.67-1.25-1.34c0-0.74,0.61-1.28,1.53-1.28c0.48,0,0.83,0.11,1.04,0.23l-0.17,0.5c-0.15-0.08-0.47-0.22-0.9-0.22
			c-0.64,0-0.89,0.39-0.89,0.71c0,0.44,0.29,0.66,0.94,0.91c0.8,0.31,1.2,0.69,1.2,1.39c0,0.73-0.54,1.36-1.65,1.36
			c-0.46,0-0.95-0.13-1.21-0.3L28.12,127.07z"/>
		<path class="st2" d="M31.57,127.07c0.27,0.17,0.67,0.31,1.09,0.31c0.62,0,0.99-0.33,0.99-0.81c0-0.44-0.25-0.69-0.89-0.94
			c-0.77-0.27-1.25-0.67-1.25-1.34c0-0.74,0.61-1.28,1.53-1.28c0.48,0,0.83,0.11,1.04,0.23l-0.17,0.5c-0.15-0.08-0.47-0.22-0.9-0.22
			c-0.64,0-0.89,0.39-0.89,0.71c0,0.44,0.29,0.66,0.94,0.91c0.8,0.31,1.2,0.69,1.2,1.39c0,0.73-0.54,1.36-1.65,1.36
			c-0.46,0-0.95-0.13-1.21-0.3L31.57,127.07z"/>
		<path class="st2" d="M35.72,123.09v4.72h-0.61v-4.72H35.72z"/>
		<path class="st2" d="M40.37,127.6c-0.27,0.1-0.81,0.26-1.45,0.26c-0.71,0-1.3-0.18-1.77-0.62c-0.41-0.39-0.66-1.02-0.66-1.76
			c0.01-1.41,0.97-2.44,2.56-2.44c0.55,0,0.97,0.12,1.18,0.22l-0.15,0.5c-0.25-0.11-0.57-0.2-1.04-0.2c-1.15,0-1.9,0.71-1.9,1.9
			c0,1.2,0.72,1.91,1.82,1.91c0.4,0,0.67-0.06,0.81-0.13v-1.41h-0.96v-0.49h1.55V127.6z"/>
		<path class="st2" d="M41.3,127.81v-4.72h0.67l1.51,2.39c0.35,0.55,0.62,1.05,0.85,1.53l0.01-0.01c-0.06-0.63-0.07-1.2-0.07-1.94
			v-1.98h0.57v4.72h-0.62l-1.5-2.4c-0.33-0.52-0.64-1.06-0.88-1.58l-0.02,0.01c0.04,0.6,0.05,1.16,0.05,1.95v2.02H41.3z"/>
	</g>
	<path class="st6" d="M52.45,119.87H6.17c-1.57,0-2.83-1.27-2.83-2.83V5.55c0-1.57,1.27-2.83,2.83-2.83h46.28
		c1.57,0,2.83,1.27,2.83,2.83v111.49C55.28,118.61,54.01,119.87,52.45,119.87z"/>
</g>
<circle cx="28.05" cy="141.29" r="9.16"/>
<g>
	<path class="st5" d="M27.95,137.65h-0.03l-1.69,0.92l-0.25-1l2.13-1.14h1.13v9.75h-1.27V137.65z"/>
</g>
<circle cx="169.2" cy="11.87" r="9.16"/>
<g>
	<path class="st5" d="M166.24,16.76v-0.81l1.04-1c2.49-2.37,3.61-3.63,3.63-5.1c0-0.99-0.48-1.9-1.94-1.9
		c-0.88,0-1.62,0.45-2.07,0.82l-0.42-0.93c0.67-0.57,1.63-0.99,2.76-0.99c2.1,0,2.98,1.44,2.98,2.83c0,1.8-1.3,3.25-3.36,5.24
		l-0.78,0.72v0.03h4.38v1.09H166.24z"/>
</g>
<circle cx="292.71" cy="12.6" r="9.16"/>
<g>
	<path class="st5" d="M290.06,15.97c0.38,0.24,1.25,0.61,2.16,0.61c1.7,0,2.22-1.08,2.21-1.89c-0.01-1.37-1.25-1.95-2.52-1.95h-0.74
		v-0.99h0.74c0.96,0,2.17-0.5,2.17-1.65c0-0.78-0.5-1.47-1.71-1.47c-0.78,0-1.53,0.34-1.95,0.64l-0.34-0.96
		c0.51-0.38,1.5-0.75,2.55-0.75c1.92,0,2.79,1.14,2.79,2.33c0,1-0.6,1.86-1.8,2.29v0.03c1.2,0.24,2.17,1.14,2.17,2.5
		c0,1.56-1.21,2.92-3.55,2.92c-1.1,0-2.06-0.34-2.54-0.66L290.06,15.97z"/>
</g>
<circle cx="169.2" cy="131.87" r="9.16"/>
<g>
	<path class="st5" d="M170.32,136.76v-2.66h-4.53v-0.87l4.35-6.23h1.43v6.06h1.36v1.03h-1.36v2.66H170.32z M170.32,133.07v-3.25
		c0-0.51,0.02-1.02,0.04-1.53h-0.04c-0.3,0.57-0.54,0.99-0.81,1.44l-2.38,3.32v0.03H170.32z"/>
</g>
<circle cx="292.71" cy="132.6" r="9.16"/>
<g>
	<path class="st5" d="M295.56,128.84h-3.72l-0.38,2.5c0.23-0.03,0.44-0.06,0.79-0.06c0.75,0,1.5,0.17,2.1,0.52
		c0.76,0.44,1.39,1.28,1.39,2.5c0,1.91-1.51,3.33-3.63,3.33c-1.06,0-1.96-0.3-2.43-0.6l0.33-1.01c0.4,0.24,1.2,0.54,2.08,0.54
		c1.25,0,2.31-0.81,2.31-2.11c-0.01-1.26-0.85-2.16-2.8-2.16c-0.55,0-0.99,0.06-1.35,0.11l0.63-4.68h4.66V128.84z"/>
</g>
</svg>
