<?xml version="1.0" encoding="UTF-8"?>
<svg enable-background="new 0 0 336.1 168.67" version="1.1" viewBox="0 0 336.1 168.67" xml:space="preserve" xmlns="http://www.w3.org/2000/svg">
<style type="text/css">
	.st0{fill:#282727;}
	.st1{fill:#6D6C6C;}
	.st2{fill:none;stroke:#FFFFFF;stroke-miterlimit:10;}
	.st3{fill:#FFFFFF;}
	.st4{fill:none;stroke:#282727;stroke-width:2;stroke-linejoin:round;stroke-miterlimit:10;}
	.st5{fill:none;stroke:#282727;stroke-miterlimit:10;}
</style>


		<path class="st0" d="m54.57 37.82h-48c-1.51 0-2.74-1.23-2.74-2.74v-21.26c0-1.51 1.23-2.74 2.74-2.74h48c1.51 0 2.74 1.23 2.74 2.74v21.26c-0.01 1.52-1.23 2.74-2.74 2.74z"/>
		<path class="st1" d="m52.99 29.51h-44.84c-1.25 0-2.26-1.01-2.26-2.26v-11.9c0-1.25 1.01-2.26 2.26-2.26h44.84c1.25 0 2.26 1.01 2.26 2.26v11.89c0 1.25-1.01 2.27-2.26 2.27z"/>
		<rect class="st2" x="8.55" y="15.82" width="44" height="11.05"/>

			<path class="st3" d="m19.43 36.04c-0.22 0.11-0.67 0.22-1.25 0.22-1.33 0-2.33-0.84-2.33-2.39 0-1.48 1-2.48 2.47-2.48 0.59 0 0.96 0.13 1.12 0.21l-0.15 0.5c-0.23-0.11-0.56-0.2-0.95-0.2-1.11 0-1.84 0.71-1.84 1.95 0 1.16 0.67 1.9 1.81 1.9 0.37 0 0.75-0.08 0.99-0.2l0.13 0.49z"/>
			<path class="st3" d="m20.8 31.47v2.79c0 1.06 0.47 1.51 1.1 1.51 0.7 0 1.15-0.46 1.15-1.51v-2.79h0.62v2.75c0 1.45-0.76 2.05-1.79 2.05-0.97 0-1.69-0.55-1.69-2.02v-2.78h0.61z"/>
			<path class="st3" d="m27.16 33.98h-1.83v1.7h2.04v0.51h-2.65v-4.72h2.55v0.51h-1.94v1.49h1.83v0.51z"/>
			<path class="st3" d="m29.64 31.47h0.61v4.21h2.02v0.51h-2.63v-4.72z"/>
			<path class="st3" d="m36.71 33.78c0 1.62-0.99 2.49-2.19 2.49-1.25 0-2.12-0.97-2.12-2.4 0-1.5 0.93-2.48 2.19-2.48 1.29 0.01 2.12 0.99 2.12 2.39zm-3.66 0.08c0 1.01 0.55 1.91 1.51 1.91 0.97 0 1.51-0.89 1.51-1.96 0-0.94-0.49-1.92-1.51-1.92-1.01 0-1.51 0.93-1.51 1.97z"/>
			<path class="st3" d="m41.53 33.78c0 1.62-0.99 2.49-2.19 2.49-1.25 0-2.12-0.97-2.12-2.4 0-1.5 0.93-2.48 2.19-2.48 1.29 0.01 2.12 0.99 2.12 2.39zm-3.66 0.08c0 1.01 0.55 1.91 1.51 1.91 0.97 0 1.51-0.89 1.51-1.96 0-0.94-0.49-1.92-1.51-1.92-1.01 0-1.51 0.93-1.51 1.97z"/>
			<path class="st3" d="m42.32 31.53c0.29-0.05 0.68-0.09 1.17-0.09 0.6 0 1.04 0.14 1.32 0.39 0.26 0.22 0.41 0.57 0.41 0.99 0 0.43-0.13 0.76-0.36 1.01-0.32 0.34-0.85 0.52-1.44 0.52-0.18 0-0.35-0.01-0.49-0.04v1.89h-0.61v-4.67zm0.61 2.27c0.13 0.04 0.3 0.05 0.5 0.05 0.74 0 1.18-0.36 1.18-1.01 0-0.62-0.44-0.92-1.11-0.92-0.27 0-0.47 0.02-0.57 0.05v1.83z"/>


			<path class="st0" d="M18.59,4.21v1.98h2.28V4.21h0.62v4.72h-0.62V6.72h-2.28v2.21h-0.61V4.21H18.59z"/>
			<path class="st0" d="m26.58 6.52c0 1.62-0.99 2.49-2.19 2.49-1.25 0-2.12-0.97-2.12-2.4 0-1.5 0.93-2.48 2.19-2.48 1.29 0 2.12 0.99 2.12 2.39zm-3.66 0.08c0 1.01 0.55 1.91 1.51 1.91 0.97 0 1.51-0.89 1.51-1.96 0-0.94-0.49-1.92-1.51-1.92-1.01 0-1.51 0.93-1.51 1.97z"/>
			<path class="st0" d="M28.09,4.73h-1.44V4.21h3.5v0.52h-1.44v4.2h-0.62V4.73z"/>
			<path class="st0" d="m35.46 8.78c-0.23 0.11-0.68 0.22-1.25 0.22-1.33 0-2.33-0.84-2.33-2.39 0-1.48 1-2.48 2.47-2.48 0.59 0 0.96 0.13 1.12 0.21l-0.15 0.5c-0.23-0.11-0.56-0.2-0.95-0.2-1.11 0-1.84 0.71-1.84 1.95 0 1.16 0.67 1.9 1.81 1.9 0.37 0 0.75-0.08 0.99-0.2l0.13 0.49z"/>
			<path class="st0" d="m36.83 4.21v2.79c0 1.06 0.47 1.51 1.1 1.51 0.7 0 1.15-0.46 1.15-1.51v-2.79h0.62v2.75c0 1.45-0.76 2.04-1.79 2.04-0.97 0-1.69-0.55-1.69-2.02v-2.77h0.61z"/>
			<path class="st0" d="M43.19,6.72h-1.83v1.7h2.04v0.51h-2.65V4.21h2.55v0.51h-1.94v1.49h1.83V6.72z"/>


	<path class="st4" d="m52.42 106.11h-43.7c-1.57 0-2.83-1.27-2.83-2.83v-43.7c0-1.57 1.27-2.83 2.83-2.83h43.7c1.57 0 2.83 1.27 2.83 2.83v43.7c0 1.56-1.27 2.83-2.83 2.83z"/>
	<path class="st4" d="m52.42 164.22h-43.7c-1.57 0-2.83-1.27-2.83-2.83v-43.7c0-1.57 1.27-2.83 2.83-2.83h43.7c1.57 0 2.83 1.27 2.83 2.83v43.7c0 1.56-1.27 2.83-2.83 2.83z"/>



		<path class="st0" d="m112.39 37.82h-48c-1.51 0-2.74-1.23-2.74-2.74v-21.26c0-1.51 1.23-2.74 2.74-2.74h48c1.51 0 2.74 1.23 2.74 2.74v21.26c0 1.52-1.23 2.74-2.74 2.74z"/>
		<path class="st1" d="m110.81 29.51h-44.84c-1.25 0-2.26-1.01-2.26-2.26v-11.9c0-1.25 1.01-2.26 2.26-2.26h44.84c1.25 0 2.26 1.01 2.26 2.26v11.89c0.01 1.25-1.01 2.27-2.26 2.27z"/>
		<rect class="st2" x="66.38" y="15.82" width="44" height="11.05"/>

			<path class="st3" d="m78.98 35.45c0.27 0.17 0.67 0.31 1.09 0.31 0.62 0 0.99-0.33 0.99-0.81 0-0.44-0.25-0.69-0.89-0.94-0.77-0.27-1.25-0.67-1.25-1.34 0-0.74 0.61-1.28 1.53-1.28 0.48 0 0.83 0.11 1.04 0.23l-0.17 0.5c-0.15-0.08-0.47-0.22-0.9-0.22-0.64 0-0.89 0.39-0.89 0.71 0 0.44 0.29 0.66 0.94 0.91 0.8 0.31 1.2 0.69 1.2 1.39 0 0.73-0.54 1.36-1.65 1.36-0.46 0-0.95-0.13-1.21-0.3l0.17-0.52z"/>
			<path class="st3" d="m82.52 31.47h0.61v4.21h2.02v0.51h-2.63v-4.72z"/>
			<path class="st3" d="m86.43 31.47v4.72h-0.61v-4.72h0.61z"/>
			<path class="st3" d="m90.79 36.04c-0.22 0.11-0.67 0.22-1.25 0.22-1.33 0-2.33-0.84-2.33-2.39 0-1.48 1-2.48 2.47-2.48 0.59 0 0.96 0.13 1.12 0.21l-0.15 0.5c-0.23-0.11-0.56-0.2-0.95-0.2-1.11 0-1.84 0.71-1.84 1.95 0 1.16 0.66 1.9 1.81 1.9 0.37 0 0.75-0.08 0.99-0.2l0.13 0.49z"/>
			<path class="st3" d="M94,33.98h-1.83v1.7h2.04v0.51h-2.65v-4.72h2.55v0.51h-1.94v1.49H94V33.98z"/>
			<path class="st3" d="m95 31.53c0.31-0.06 0.75-0.1 1.17-0.1 0.65 0 1.07 0.12 1.37 0.38 0.24 0.21 0.37 0.53 0.37 0.9 0 0.62-0.39 1.04-0.89 1.21v0.02c0.36 0.13 0.58 0.46 0.69 0.95 0.15 0.66 0.27 1.11 0.36 1.3h-0.63c-0.08-0.13-0.18-0.54-0.32-1.13-0.14-0.65-0.39-0.9-0.95-0.92h-0.57v2.04h-0.6v-4.65zm0.6 2.16h0.62c0.65 0 1.06-0.36 1.06-0.9 0-0.61-0.44-0.87-1.08-0.88-0.29 0-0.5 0.03-0.6 0.06v1.72z"/>


			<path class="st0" d="m81.3 4.27c0.31-0.06 0.75-0.1 1.17-0.1 0.65 0 1.07 0.12 1.37 0.38 0.24 0.21 0.37 0.53 0.37 0.9 0 0.62-0.39 1.04-0.89 1.21v0.02c0.36 0.13 0.58 0.46 0.69 0.95 0.15 0.66 0.27 1.11 0.36 1.3h-0.63c-0.08-0.13-0.18-0.54-0.32-1.13-0.14-0.65-0.39-0.9-0.95-0.92h-0.57v2.04h-0.6v-4.65zm0.61 2.15h0.62c0.65 0 1.06-0.36 1.06-0.9 0-0.61-0.44-0.88-1.08-0.88-0.29 0-0.5 0.03-0.6 0.06v1.72z"/>
			<path class="st0" d="m89.13 6.52c0 1.62-0.99 2.49-2.19 2.49-1.25 0-2.12-0.97-2.12-2.4 0-1.5 0.93-2.48 2.19-2.48 1.28 0 2.12 0.99 2.12 2.39zm-3.67 0.08c0 1.01 0.55 1.91 1.51 1.91 0.97 0 1.51-0.89 1.51-1.96 0-0.94-0.49-1.92-1.51-1.92-1 0-1.51 0.93-1.51 1.97z"/>
			<path class="st0" d="M89.91,4.21h0.61v4.21h2.02v0.51h-2.63V4.21z"/>
			<path class="st0" d="M93.22,4.21h0.61v4.21h2.02v0.51h-2.63V4.21z"/>


	<path class="st4" d="m110.24 106.11h-43.7c-1.57 0-2.83-1.27-2.83-2.83v-43.7c0-1.57 1.27-2.83 2.83-2.83h43.7c1.57 0 2.83 1.27 2.83 2.83v43.7c0.01 1.56-1.26 2.83-2.83 2.83z"/>
	<path class="st4" d="m110.24 164.22h-43.7c-1.57 0-2.83-1.27-2.83-2.83v-43.7c0-1.57 1.27-2.83 2.83-2.83h43.7c1.57 0 2.83 1.27 2.83 2.83v43.7c0.01 1.56-1.26 2.83-2.83 2.83z"/>



		<path class="st0" d="m170.22 37.82h-48c-1.51 0-2.74-1.23-2.74-2.74v-21.26c0-1.51 1.23-2.74 2.74-2.74h48c1.51 0 2.74 1.23 2.74 2.74v21.26c0 1.52-1.23 2.74-2.74 2.74z"/>
		<path class="st1" d="m168.64 29.51h-44.84c-1.25 0-2.26-1.01-2.26-2.26v-11.9c0-1.25 1.01-2.26 2.26-2.26h44.84c1.25 0 2.26 1.01 2.26 2.26v11.89c0 1.25-1.01 2.27-2.26 2.27z"/>
		<rect class="st2" x="124.21" y="15.82" width="44" height="11.05"/>

			<path class="st3" d="m133.78 31.53c0.29-0.05 0.68-0.09 1.17-0.09 0.6 0 1.04 0.14 1.32 0.39 0.26 0.22 0.41 0.57 0.41 0.99 0 0.43-0.13 0.76-0.36 1.01-0.32 0.34-0.85 0.52-1.44 0.52-0.18 0-0.35-0.01-0.49-0.04v1.89h-0.61v-4.67zm0.61 2.27c0.13 0.04 0.3 0.05 0.5 0.05 0.74 0 1.18-0.36 1.18-1.01 0-0.62-0.44-0.92-1.11-0.92-0.27 0-0.47 0.02-0.57 0.05v1.83z"/>
			<path class="st3" d="m137.68 34.71-0.49 1.49h-0.63l1.6-4.72h0.74l1.61 4.72h-0.65l-0.5-1.49h-1.68zm1.55-0.48-0.46-1.36c-0.1-0.31-0.17-0.59-0.25-0.86h-0.01c-0.07 0.28-0.15 0.57-0.24 0.85l-0.46 1.37h1.42z"/>
			<path class="st3" d="m141.56 31.99h-1.44v-0.52h3.5v0.52h-1.44v4.2h-0.62v-4.2z"/>
			<path class="st3" d="m145.3 31.99h-1.44v-0.52h3.5v0.52h-1.44v4.2h-0.62v-4.2z"/>
			<path class="st3" d="m150.33 33.98h-1.83v1.7h2.04v0.51h-2.65v-4.72h2.55v0.51h-1.94v1.49h1.83v0.51z"/>
			<path class="st3" d="m151.33 31.53c0.31-0.06 0.75-0.1 1.17-0.1 0.65 0 1.07 0.12 1.37 0.38 0.24 0.21 0.37 0.53 0.37 0.9 0 0.62-0.39 1.04-0.89 1.21v0.02c0.36 0.13 0.58 0.46 0.69 0.95 0.15 0.66 0.27 1.11 0.36 1.3h-0.63c-0.08-0.13-0.18-0.54-0.32-1.13-0.14-0.65-0.39-0.9-0.95-0.92h-0.57v2.04h-0.61v-4.65zm0.61 2.16h0.62c0.65 0 1.06-0.36 1.06-0.9 0-0.61-0.44-0.87-1.08-0.88-0.29 0-0.5 0.03-0.6 0.06v1.72z"/>
			<path class="st3" d="m155.09 36.19v-4.72h0.67l1.51 2.39c0.35 0.55 0.62 1.05 0.85 1.53l0.01-0.01c-0.06-0.63-0.07-1.21-0.07-1.94v-1.97h0.57v4.72h-0.62l-1.5-2.4c-0.33-0.53-0.64-1.06-0.88-1.58l-0.02 0.01c0.04 0.6 0.05 1.16 0.05 1.95v2.02h-0.57z"/>


			<path class="st0" d="M144.01,4.73h-1.44V4.21h3.5v0.52h-1.44v4.2h-0.62V4.73z"/>
			<path class="st0" d="m146.6 4.27c0.31-0.06 0.75-0.1 1.17-0.1 0.65 0 1.07 0.12 1.37 0.38 0.24 0.21 0.37 0.53 0.37 0.9 0 0.62-0.39 1.04-0.89 1.21v0.02c0.36 0.13 0.58 0.46 0.69 0.95 0.15 0.66 0.27 1.11 0.36 1.3h-0.63c-0.08-0.13-0.18-0.54-0.32-1.13-0.14-0.65-0.39-0.9-0.95-0.92h-0.57v2.04h-0.61v-4.65zm0.61 2.15h0.62c0.65 0 1.06-0.36 1.06-0.9 0-0.61-0.44-0.88-1.08-0.88-0.29 0-0.5 0.03-0.6 0.06v1.72z"/>


	<path class="st4" d="m168.07 106.11h-43.7c-1.57 0-2.83-1.27-2.83-2.83v-43.7c0-1.57 1.27-2.83 2.83-2.83h43.7c1.57 0 2.83 1.27 2.83 2.83v43.7c0 1.56-1.26 2.83-2.83 2.83z"/>
	<path class="st4" d="m168.07 164.22h-43.7c-1.57 0-2.83-1.27-2.83-2.83v-43.7c0-1.57 1.27-2.83 2.83-2.83h43.7c1.57 0 2.83 1.27 2.83 2.83v43.7c0 1.56-1.26 2.83-2.83 2.83z"/>



		<path class="st0" d="m228.05 37.82h-48c-1.51 0-2.74-1.23-2.74-2.74v-21.26c0-1.51 1.23-2.74 2.74-2.74h48c1.51 0 2.74 1.23 2.74 2.74v21.26c-0.01 1.52-1.23 2.74-2.74 2.74z"/>
		<path class="st1" d="m226.47 29.51h-44.84c-1.25 0-2.26-1.01-2.26-2.26v-11.9c0-1.25 1.01-2.26 2.26-2.26h44.84c1.25 0 2.26 1.01 2.26 2.26v11.89c0 1.25-1.01 2.27-2.26 2.27z"/>
		<rect class="st2" x="182.03" y="15.82" width="44" height="11.05"/>

			<path class="st3" d="m191.4 36.19-1.54-4.72h0.66l0.74 2.33c0.2 0.64 0.38 1.21 0.5 1.76h0.01c0.13-0.55 0.33-1.14 0.54-1.76l0.8-2.33h0.65l-1.69 4.72h-0.67z"/>
			<path class="st3" d="m196.72 33.98h-1.83v1.7h2.04v0.51h-2.65v-4.72h2.55v0.51h-1.94v1.49h1.83v0.51z"/>
			<path class="st3" d="m197.72 31.47h0.61v4.21h2.02v0.51h-2.63v-4.72z"/>
			<path class="st3" d="m204.78 33.78c0 1.62-0.99 2.49-2.19 2.49-1.25 0-2.12-0.97-2.12-2.4 0-1.5 0.93-2.48 2.19-2.48 1.29 0.01 2.12 0.99 2.12 2.39zm-3.66 0.08c0 1.01 0.55 1.91 1.51 1.91 0.97 0 1.51-0.89 1.51-1.96 0-0.94-0.49-1.92-1.51-1.92-1.01 0-1.51 0.93-1.51 1.97z"/>
			<path class="st3" d="m208.87 36.04c-0.22 0.11-0.67 0.22-1.25 0.22-1.33 0-2.33-0.84-2.33-2.39 0-1.48 1-2.48 2.47-2.48 0.59 0 0.96 0.13 1.12 0.21l-0.15 0.5c-0.23-0.11-0.56-0.2-0.95-0.2-1.11 0-1.84 0.71-1.84 1.95 0 1.16 0.67 1.9 1.81 1.9 0.37 0 0.75-0.08 0.99-0.2l0.13 0.49z"/>
			<path class="st3" d="m210.24 31.47v4.72h-0.61v-4.72h0.61z"/>
			<path class="st3" d="m212.2 31.99h-1.44v-0.52h3.5v0.52h-1.44v4.2h-0.62v-4.2z"/>
			<path class="st3" d="m216.03 36.19v-2l-1.49-2.72h0.69l0.67 1.3c0.18 0.36 0.32 0.64 0.47 0.97h0.01c0.13-0.31 0.29-0.62 0.48-0.97l0.68-1.3h0.69l-1.58 2.71v2.01h-0.62z"/>


			<path class="st0" d="m190.7 8.19c0.27 0.17 0.67 0.31 1.09 0.31 0.62 0 0.99-0.33 0.99-0.81 0-0.44-0.25-0.69-0.89-0.94-0.77-0.27-1.25-0.67-1.25-1.34 0-0.74 0.61-1.28 1.53-1.28 0.48 0 0.83 0.11 1.04 0.23l-0.17 0.5c-0.15-0.08-0.47-0.22-0.9-0.22-0.64 0-0.89 0.38-0.89 0.71 0 0.44 0.29 0.66 0.94 0.91 0.8 0.31 1.2 0.69 1.2 1.39 0 0.73-0.54 1.36-1.65 1.36-0.46 0-0.95-0.13-1.21-0.3l0.17-0.52z"/>
			<path class="st0" d="m194.99 7.45-0.49 1.48h-0.63l1.6-4.72h0.74l1.61 4.72h-0.65l-0.5-1.48h-1.68zm1.55-0.48-0.46-1.36c-0.1-0.31-0.17-0.59-0.25-0.86h-0.01c-0.07 0.28-0.15 0.57-0.24 0.85l-0.46 1.37h1.42z"/>
			<path class="st0" d="m202.47 6.86c-0.04-0.66-0.08-1.45-0.07-2.04h-0.02c-0.16 0.55-0.36 1.14-0.59 1.79l-0.83 2.29h-0.46l-0.76-2.25c-0.22-0.67-0.41-1.27-0.55-1.83h-0.01c-0.01 0.59-0.05 1.38-0.09 2.09l-0.13 2.02h-0.58l0.33-4.72h0.78l0.81 2.28c0.2 0.58 0.36 1.1 0.48 1.59h0.02c0.12-0.48 0.29-0.99 0.5-1.59l0.84-2.28h0.78l0.29 4.72h-0.59l-0.15-2.07z"/>
			<path class="st0" d="m204.11 4.27c0.29-0.05 0.68-0.09 1.17-0.09 0.6 0 1.04 0.14 1.32 0.39 0.26 0.22 0.41 0.57 0.41 0.99 0 0.43-0.13 0.76-0.36 1.01-0.32 0.34-0.85 0.52-1.44 0.52-0.18 0-0.35-0.01-0.49-0.04v1.89h-0.61v-4.67zm0.61 2.27c0.13 0.04 0.3 0.05 0.5 0.05 0.74 0 1.18-0.36 1.18-1.01 0-0.62-0.44-0.92-1.11-0.92-0.27 0-0.47 0.02-0.57 0.05v1.83z"/>
			<path class="st0" d="M207.84,4.21h0.61v4.21h2.02v0.51h-2.63V4.21z"/>
			<path class="st0" d="M213.59,6.72h-1.83v1.7h2.04v0.51h-2.65V4.21h2.55v0.51h-1.94v1.49h1.83V6.72z"/>
			<path class="st0" d="m214.59 4.27c0.31-0.06 0.75-0.1 1.17-0.1 0.65 0 1.07 0.12 1.37 0.38 0.24 0.21 0.37 0.53 0.37 0.9 0 0.62-0.39 1.04-0.89 1.21v0.02c0.36 0.13 0.58 0.46 0.69 0.95 0.15 0.66 0.27 1.11 0.36 1.3h-0.63c-0.08-0.13-0.18-0.54-0.32-1.13-0.14-0.65-0.39-0.9-0.95-0.92h-0.57v2.04h-0.61v-4.65zm0.61 2.15h0.62c0.65 0 1.06-0.36 1.06-0.9 0-0.61-0.44-0.88-1.08-0.88-0.29 0-0.5 0.03-0.6 0.06v1.72z"/>


	<path class="st4" d="m225.9 106.11h-43.7c-1.57 0-2.83-1.27-2.83-2.83v-43.7c0-1.57 1.27-2.83 2.83-2.83h43.7c1.57 0 2.83 1.27 2.83 2.83v43.7c0 1.56-1.27 2.83-2.83 2.83z"/>
	<path class="st4" d="m225.9 164.22h-43.7c-1.57 0-2.83-1.27-2.83-2.83v-43.7c0-1.57 1.27-2.83 2.83-2.83h43.7c1.57 0 2.83 1.27 2.83 2.83v43.7c0 1.56-1.27 2.83-2.83 2.83z"/>


	<path class="st0" d="m324.99 160.41h-72.16c-1.51 0-2.74-1.23-2.74-2.74v-21.26c0-1.51 1.23-2.74 2.74-2.74h72.16c1.51 0 2.74 1.23 2.74 2.74v21.26c-0.01 1.52-1.23 2.74-2.74 2.74z"/>
	<path class="st1" d="m279.79 152.1h-25.55c-1.25 0-2.26-1.01-2.26-2.26v-11.89c0-1.25 1.01-2.26 2.26-2.26h25.55c1.25 0 2.26 1.01 2.26 2.26v11.89c0 1.25-1.01 2.26-2.26 2.26z"/>
	<rect class="st2" x="254.65" y="138.41" width="24.33" height="11.05"/>

		<path class="st3" d="m269.75 154.12c0.29-0.05 0.68-0.09 1.17-0.09 0.6 0 1.04 0.14 1.32 0.39 0.26 0.22 0.41 0.57 0.41 0.99 0 0.43-0.13 0.76-0.36 1.01-0.32 0.34-0.85 0.52-1.44 0.52-0.18 0-0.35-0.01-0.49-0.04v1.89h-0.61v-4.67zm0.61 2.28c0.13 0.04 0.3 0.05 0.5 0.05 0.74 0 1.18-0.36 1.18-1.01 0-0.62-0.44-0.92-1.11-0.92-0.27 0-0.47 0.02-0.57 0.05v1.83z"/>
		<path class="st3" d="m273.65 157.3-0.49 1.48h-0.63l1.6-4.72h0.74l1.61 4.72h-0.65l-0.5-1.48h-1.68zm1.55-0.48-0.46-1.36c-0.1-0.31-0.17-0.59-0.25-0.86h-0.01c-0.07 0.28-0.15 0.57-0.24 0.85l-0.46 1.37h1.42z"/>
		<path class="st3" d="m277.17 154.13c0.31-0.06 0.75-0.1 1.17-0.1 0.65 0 1.07 0.12 1.37 0.38 0.24 0.21 0.37 0.53 0.37 0.9 0 0.62-0.39 1.04-0.89 1.21v0.02c0.36 0.13 0.58 0.46 0.69 0.95 0.15 0.66 0.27 1.11 0.36 1.3h-0.63c-0.08-0.13-0.18-0.54-0.32-1.13-0.14-0.65-0.39-0.9-0.95-0.92h-0.57v2.04h-0.61v-4.65zm0.61 2.15h0.62c0.65 0 1.06-0.36 1.06-0.9 0-0.61-0.44-0.88-1.08-0.88-0.29 0-0.5 0.03-0.6 0.06v1.72z"/>
		<path class="st3" d="m281.74 157.3-0.49 1.48h-0.63l1.6-4.72h0.74l1.61 4.72h-0.65l-0.5-1.48h-1.68zm1.55-0.48-0.46-1.36c-0.1-0.31-0.17-0.59-0.25-0.86h-0.01c-0.07 0.28-0.15 0.57-0.24 0.85l-0.46 1.37h1.42z"/>
		<path class="st3" d="m289.21 156.71c-0.04-0.66-0.08-1.45-0.07-2.04h-0.02c-0.16 0.55-0.36 1.14-0.59 1.79l-0.83 2.29h-0.46l-0.76-2.25c-0.22-0.67-0.41-1.27-0.55-1.83h-0.01c-0.01 0.59-0.05 1.38-0.09 2.09l-0.13 2.02h-0.58l0.33-4.72h0.78l0.81 2.28c0.2 0.58 0.36 1.1 0.48 1.59h0.02c0.12-0.48 0.29-0.99 0.5-1.59l0.84-2.28h0.78l0.29 4.72h-0.59l-0.15-2.07z"/>
		<path class="st3" d="m293.3 156.57h-1.83v1.7h2.04v0.51h-2.65v-4.72h2.55v0.51h-1.94v1.49h1.83v0.51z"/>
		<path class="st3" d="m295.31 154.58h-1.44v-0.52h3.5v0.52h-1.44v4.2h-0.62v-4.2z"/>
		<path class="st3" d="m300.34 156.57h-1.83v1.7h2.04v0.51h-2.65v-4.72h2.55v0.51h-1.94v1.49h1.83v0.51z"/>
		<path class="st3" d="m301.34 154.13c0.31-0.06 0.75-0.1 1.17-0.1 0.65 0 1.07 0.12 1.37 0.38 0.24 0.21 0.37 0.53 0.37 0.9 0 0.62-0.39 1.04-0.89 1.21v0.02c0.36 0.13 0.58 0.46 0.69 0.95 0.15 0.66 0.27 1.11 0.36 1.3h-0.63c-0.08-0.13-0.18-0.54-0.32-1.13-0.14-0.65-0.39-0.9-0.95-0.92h-0.57v2.04h-0.61v-4.65zm0.61 2.15h0.62c0.65 0 1.06-0.36 1.06-0.9 0-0.61-0.44-0.88-1.08-0.88-0.29 0-0.5 0.03-0.6 0.06v1.72z"/>
		<path class="st3" d="m306.37 158.78v-0.38l0.48-0.47c1.16-1.11 1.69-1.69 1.69-2.38 0-0.46-0.22-0.89-0.9-0.89-0.41 0-0.76 0.21-0.97 0.39l-0.2-0.43c0.32-0.27 0.76-0.46 1.29-0.46 0.98 0 1.39 0.67 1.39 1.32 0 0.84-0.61 1.52-1.57 2.44l-0.36 0.34v0.01h2.04v0.51h-2.89z"/>


		<path class="st0" d="m269.06 129.4v0.46h-1.73v-0.46h1.73z"/>
		<path class="st0" d="m271.28 126.86c0.29-0.05 0.68-0.09 1.17-0.09 0.6 0 1.04 0.14 1.32 0.39 0.26 0.22 0.41 0.57 0.41 0.99 0 0.43-0.13 0.76-0.36 1.01-0.32 0.34-0.85 0.52-1.44 0.52-0.18 0-0.35-0.01-0.49-0.04v1.89h-0.61v-4.67zm0.61 2.27c0.13 0.04 0.3 0.05 0.5 0.05 0.74 0 1.18-0.36 1.18-1.01 0-0.62-0.44-0.92-1.11-0.92-0.27 0-0.47 0.02-0.57 0.05v1.83z"/>
		<path class="st0" d="m275.18 130.04-0.49 1.49h-0.63l1.6-4.72h0.74l1.61 4.72h-0.65l-0.5-1.49h-1.68zm1.55-0.48-0.46-1.36c-0.1-0.31-0.17-0.59-0.25-0.86h-0.01c-0.07 0.28-0.15 0.57-0.24 0.85l-0.46 1.37h1.42z"/>
		<path class="st0" d="m278.7 126.86c0.31-0.06 0.75-0.1 1.17-0.1 0.65 0 1.07 0.12 1.37 0.38 0.24 0.21 0.37 0.53 0.37 0.9 0 0.62-0.39 1.04-0.89 1.21v0.02c0.36 0.13 0.58 0.46 0.69 0.95 0.15 0.66 0.27 1.11 0.36 1.3h-0.63c-0.08-0.13-0.18-0.54-0.32-1.13-0.14-0.65-0.39-0.9-0.95-0.92h-0.57v2.04h-0.61v-4.65zm0.61 2.15h0.62c0.65 0 1.06-0.36 1.06-0.9 0-0.61-0.44-0.88-1.08-0.88-0.29 0-0.5 0.03-0.6 0.06v1.72z"/>
		<path class="st0" d="m283.26 130.04-0.49 1.49h-0.63l1.6-4.72h0.74l1.61 4.72h-0.65l-0.5-1.49h-1.68zm1.55-0.48-0.46-1.36c-0.1-0.31-0.17-0.59-0.25-0.86h-0.01c-0.07 0.28-0.15 0.57-0.24 0.85l-0.46 1.37h1.42z"/>
		<path class="st0" d="m290.73 129.45c-0.04-0.66-0.08-1.45-0.07-2.04h-0.02c-0.16 0.55-0.36 1.14-0.59 1.79l-0.83 2.29h-0.46l-0.76-2.25c-0.22-0.67-0.41-1.27-0.55-1.83h-0.01c-0.01 0.59-0.05 1.38-0.09 2.09l-0.13 2.02h-0.58l0.33-4.72h0.78l0.81 2.28c0.2 0.58 0.36 1.1 0.48 1.59h0.02c0.12-0.48 0.29-0.99 0.5-1.59l0.84-2.28h0.78l0.29 4.72h-0.59l-0.15-2.07z"/>
		<path class="st0" d="m294.83 129.31h-1.83v1.7h2.04v0.51h-2.65v-4.72h2.55v0.51h-1.94v1.49h1.83v0.51z"/>
		<path class="st0" d="m296.84 127.32h-1.44v-0.52h3.5v0.52h-1.44v4.2h-0.62v-4.2z"/>
		<path class="st0" d="m301.86 129.31h-1.83v1.7h2.04v0.51h-2.65v-4.72h2.55v0.51h-1.94v1.49h1.83v0.51z"/>
		<path class="st0" d="m302.86 126.86c0.31-0.06 0.75-0.1 1.17-0.1 0.65 0 1.07 0.12 1.37 0.38 0.24 0.21 0.37 0.53 0.37 0.9 0 0.62-0.39 1.04-0.89 1.21v0.02c0.36 0.13 0.58 0.46 0.69 0.95 0.15 0.66 0.27 1.11 0.36 1.3h-0.63c-0.08-0.13-0.18-0.54-0.32-1.13-0.14-0.65-0.39-0.9-0.95-0.92h-0.57v2.04h-0.61v-4.65zm0.61 2.15h0.62c0.65 0 1.06-0.36 1.06-0.9 0-0.61-0.44-0.88-1.08-0.88-0.29 0-0.5 0.03-0.6 0.06v1.72z"/>
		<path class="st0" d="m309.89 127.8v1.65h1.58v0.42h-1.58v1.66h-0.45v-1.66h-1.58v-0.42h1.58v-1.65h0.45z"/>

	<path class="st1" d="m323.46 152.15h-25.56c-1.25 0-2.26-1.01-2.26-2.26v-11.89c0-1.25 1.01-2.26 2.26-2.26h25.55c1.25 0 2.26 1.01 2.26 2.26v11.89c0.01 1.25-1 2.26-2.25 2.26z"/>
	<rect class="st2" x="298.31" y="138.47" width="24.33" height="11.05"/>
	<line class="st5" x1="232.63" x2="246.21" y1="143.89" y2="143.89"/>

<circle cx="18.34" cy="93.49" r="9.16"/>

	<path class="st3" d="m18.25 89.86h-0.03l-1.69 0.92-0.25-1 2.13-1.14h1.13v9.75h-1.27v-8.53z"/>

<circle cx="76.17" cy="93.49" r="9.16"/>

	<path class="st3" d="m73.21 98.38v-0.81l1.04-1c2.49-2.37 3.61-3.63 3.63-5.1 0-0.99-0.48-1.9-1.94-1.9-0.88 0-1.62 0.45-2.07 0.82l-0.42-0.93c0.67-0.57 1.63-0.99 2.76-0.99 2.1 0 2.98 1.44 2.98 2.83 0 1.8-1.3 3.25-3.36 5.24l-0.78 0.72v0.03h4.38v1.09h-6.22z"/>

<circle cx="134" cy="93.49" r="9.16"/>

	<path class="st3" d="m131.35 96.87c0.38 0.24 1.25 0.61 2.16 0.61 1.7 0 2.22-1.08 2.21-1.89-0.01-1.37-1.25-1.95-2.52-1.95h-0.74v-0.99h0.74c0.96 0 2.17-0.5 2.17-1.65 0-0.78-0.5-1.47-1.71-1.47-0.78 0-1.53 0.34-1.95 0.64l-0.34-0.96c0.51-0.38 1.5-0.75 2.55-0.75 1.92 0 2.79 1.14 2.79 2.33 0 1-0.6 1.86-1.8 2.29v0.03c1.2 0.24 2.17 1.14 2.17 2.5 0 1.56-1.21 2.92-3.55 2.92-1.1 0-2.06-0.34-2.54-0.66l0.36-1z"/>

<circle cx="191.82" cy="93.49" r="9.16"/>

	<path class="st3" d="m192.94 98.38v-2.66h-4.53v-0.87l4.35-6.23h1.42v6.06h1.37v1.03h-1.37v2.66h-1.24zm0-3.69v-3.25c0-0.51 0.02-1.02 0.04-1.53h-0.04c-0.3 0.57-0.54 0.99-0.81 1.44l-2.38 3.32v0.03h3.19z"/>

<circle cx="18.34" cy="152.22" r="9.16"/>

	<path class="st3" d="m21.2 147.74h-3.72l-0.38 2.5c0.23-0.03 0.44-0.06 0.79-0.06 0.75 0 1.5 0.17 2.1 0.52 0.76 0.44 1.4 1.28 1.4 2.5 0 1.91-1.52 3.33-3.63 3.33-1.06 0-1.97-0.3-2.43-0.6l0.33-1.01c0.4 0.24 1.2 0.54 2.08 0.54 1.25 0 2.31-0.81 2.31-2.11-0.02-1.26-0.85-2.16-2.81-2.16-0.55 0-0.99 0.06-1.35 0.11l0.63-4.68h4.66v1.12z"/>

<circle cx="76.17" cy="151.49" r="9.16"/>

	<path class="st3" d="m78.77 147.56c-0.27-0.02-0.61 0-0.99 0.06-2.07 0.34-3.17 1.86-3.39 3.46h0.04c0.47-0.62 1.27-1.13 2.35-1.13 1.73 0 2.94 1.25 2.94 3.15 0 1.78-1.21 3.43-3.24 3.43-2.08 0-3.45-1.62-3.45-4.16 0-1.92 0.69-3.43 1.65-4.39 0.81-0.79 1.89-1.29 3.12-1.44 0.39-0.06 0.72-0.08 0.96-0.08v1.1zm-0.37 5.62c0-1.39-0.79-2.23-2.01-2.23-0.79 0-1.53 0.5-1.89 1.2-0.09 0.15-0.15 0.34-0.15 0.58 0.03 1.6 0.77 2.79 2.15 2.79 1.13 0.01 1.9-0.94 1.9-2.34z"/>

<circle cx="134" cy="151.49" r="9.16"/>

	<path class="st3" d="m137.37 146.63v0.87l-4.25 8.88h-1.37l4.23-8.63v-0.03h-4.77v-1.1h6.16z"/>

<circle cx="191.82" cy="151.49" r="9.16"/>

	<path class="st3" d="m188.74 153.91c0-1.23 0.73-2.1 1.93-2.61l-0.01-0.04c-1.08-0.51-1.54-1.35-1.54-2.19 0-1.54 1.3-2.6 3.01-2.6 1.89 0 2.83 1.19 2.83 2.4 0 0.83-0.41 1.71-1.61 2.28v0.04c1.21 0.48 1.96 1.33 1.96 2.52 0 1.7-1.46 2.83-3.31 2.83-2.03 0-3.26-1.21-3.26-2.63zm5.25-0.07c0-1.18-0.82-1.75-2.14-2.13-1.14 0.33-1.75 1.08-1.75 2.01-0.04 0.99 0.71 1.86 1.95 1.86 1.18 0 1.94-0.73 1.94-1.74zm-3.63-4.87c0 0.98 0.74 1.5 1.86 1.8 0.84-0.29 1.48-0.89 1.48-1.77 0-0.78-0.46-1.59-1.65-1.59-1.09 0-1.69 0.72-1.69 1.56z"/>

<circle cx="254.43" cy="133.68" r="9.16"/>

	<path class="st3" d="m252.24 137.63c0.29 0.03 0.62 0 1.07-0.04 0.76-0.11 1.48-0.42 2.04-0.95 0.64-0.58 1.11-1.44 1.29-2.59h-0.05c-0.54 0.66-1.32 1.05-2.29 1.05-1.75 0-2.88-1.32-2.88-2.99 0-1.84 1.33-3.46 3.33-3.46s3.23 1.62 3.23 4.11c0 2.14-0.72 3.64-1.68 4.58-0.75 0.73-1.78 1.18-2.83 1.3-0.48 0.08-0.9 0.09-1.21 0.08v-1.09zm0.48-5.61c0 1.21 0.73 2.07 1.88 2.07 0.88 0 1.57-0.44 1.92-1.02 0.07-0.12 0.12-0.27 0.12-0.48 0-1.67-0.62-2.94-2-2.94-1.13 0.01-1.92 0.99-1.92 2.37z"/>

<circle cx="324.4" cy="133.18" r="9.16"/>

	<path class="st3" d="m320.45 129.54h-0.03l-1.7 0.92-0.25-1 2.13-1.14h1.13v9.75h-1.27v-8.53z"/>
	<path class="st3" d="m331.76 133.08c0 3.31-1.23 5.14-3.39 5.14-1.9 0-3.19-1.79-3.22-5.01 0-3.27 1.41-5.07 3.39-5.07 2.05 0.01 3.22 1.84 3.22 4.94zm-5.29 0.15c0 2.54 0.78 3.98 1.98 3.98 1.35 0 2-1.58 2-4.07 0-2.4-0.62-3.97-1.98-3.97-1.16 0-2 1.41-2 4.06z"/>

</svg>
