<svg id="svg" version="1.1" xmlns="http://www.w3.org/2000/svg" xmlns:xlink="http://www.w3.org/1999/xlink" width="400" height="157.02005730659027" viewBox="0, 0, 400,157.02005730659027"><g id="svgg"><path id="path0" d="M45.444 20.111 C 45.383 20.172,45.333 20.960,45.333 21.861 L 45.333 23.500 46.367 23.500 C 47.092 23.500,47.348 23.448,47.224 23.324 C 47.007 23.107,47.130 20.506,47.372 20.208 C 47.555 19.983,45.668 19.888,45.444 20.111 M362.206 21.201 C 362.288 21.869,362.327 22.660,362.294 22.958 L 362.234 23.500 363.039 23.500 L 363.845 23.500 363.797 21.792 L 363.750 20.083 362.904 20.034 L 362.058 19.985 362.206 21.201 M150.778 35.111 C 150.717 35.172,150.667 50.097,150.667 68.278 L 150.667 101.333 151.833 101.333 L 153.000 101.333 153.000 68.167 L 153.000 35.000 151.944 35.000 C 151.364 35.000,150.839 35.050,150.778 35.111 M255.000 77.315 L 255.000 119.630 255.583 119.698 C 255.904 119.736,256.429 119.736,256.750 119.698 L 257.333 119.630 257.333 77.315 L 257.333 35.000 256.167 35.000 L 255.000 35.000 255.000 77.315 M359.333 68.167 L 359.333 101.349 360.458 101.299 L 361.583 101.250 361.583 68.167 L 361.583 35.083 360.458 35.034 L 359.333 34.985 359.333 68.167 M46.541 68.208 L 46.583 100.250 47.583 100.250 L 48.583 100.250 48.625 68.208 L 48.668 36.167 47.583 36.167 L 46.499 36.167 46.541 68.208 M90.022 46.750 C 89.984 47.944,90.018 48.167,90.239 48.167 C 90.382 48.167,90.500 48.251,90.500 48.354 C 90.500 48.483,90.564 48.488,90.708 48.371 C 90.953 48.171,91.803 48.236,92.040 48.473 C 92.342 48.775,91.974 49.023,91.275 48.990 C 90.058 48.932,90.000 49.009,90.000 50.684 L 90.000 52.167 91.667 52.167 L 93.333 52.167 93.356 51.208 C 93.369 50.681,93.411 50.419,93.451 50.625 C 93.506 50.910,93.638 51.000,94.001 51.000 C 94.418 51.000,94.485 51.069,94.531 51.542 L 94.583 52.083 96.250 52.083 L 97.917 52.083 97.967 51.475 C 98.010 50.964,97.924 50.776,97.426 50.292 C 96.697 49.584,96.692 49.500,97.375 49.501 C 98.505 49.503,99.192 49.811,99.160 50.303 C 99.144 50.549,99.139 51.072,99.149 51.466 L 99.167 52.182 100.292 52.133 L 101.417 52.083 101.469 51.542 L 101.521 51.000 102.594 51.000 L 103.667 51.000 103.667 50.316 L 103.667 49.632 104.333 49.695 C 104.934 49.752,105.000 49.721,105.000 49.381 C 105.000 49.057,105.077 49.010,105.542 49.049 L 106.083 49.095 106.083 50.589 L 106.083 52.083 107.167 52.083 L 108.250 52.083 108.302 51.542 L 108.354 51.000 109.409 51.000 C 110.529 51.000,110.667 50.900,110.667 50.083 C 110.667 49.381,110.492 49.167,109.919 49.167 C 109.619 49.167,109.105 49.054,108.776 48.917 C 108.447 48.779,107.950 48.667,107.672 48.667 C 107.206 48.667,107.167 48.622,107.167 48.083 C 107.167 47.534,107.199 47.500,107.719 47.500 C 108.139 47.500,108.359 47.380,108.640 47.000 C 108.844 46.725,109.124 46.500,109.264 46.500 C 109.453 46.500,109.503 46.360,109.457 45.958 L 109.396 45.417 107.874 45.369 L 106.352 45.321 106.301 46.117 C 106.238 47.101,105.089 47.580,104.950 46.681 C 104.906 46.394,104.875 46.476,104.858 46.925 C 104.834 47.594,104.829 47.599,104.250 47.532 L 103.667 47.464 103.667 46.398 L 103.667 45.333 102.000 45.333 L 100.333 45.333 100.333 45.917 C 100.333 46.472,100.306 46.500,99.750 46.500 C 99.161 46.500,99.121 46.445,99.121 45.639 C 99.121 45.392,98.815 45.359,96.331 45.341 C 93.113 45.318,93.321 45.198,93.356 47.055 C 93.369 47.712,93.411 48.081,93.451 47.875 C 93.517 47.533,93.616 47.500,94.587 47.500 L 95.651 47.500 95.710 46.458 L 95.769 45.417 95.801 46.458 C 95.833 47.497,95.835 47.500,96.333 47.500 C 96.803 47.500,96.833 47.540,96.833 48.144 C 96.833 48.737,96.802 48.781,96.424 48.709 C 96.198 48.666,95.660 48.751,95.227 48.899 C 94.285 49.220,93.559 49.244,93.444 48.958 C 93.397 48.844,93.354 48.994,93.346 49.292 C 93.335 49.779,93.284 49.833,92.833 49.833 L 92.333 49.833 92.333 47.823 C 92.333 46.664,92.269 45.853,92.182 45.907 C 92.099 45.958,92.070 45.850,92.118 45.667 C 92.199 45.359,92.124 45.333,91.136 45.333 L 90.066 45.333 90.022 46.750 M298.598 45.625 C 298.491 45.967,298.506 51.447,298.615 51.875 C 298.679 52.128,298.907 52.167,300.345 52.167 L 302.000 52.167 302.000 51.417 C 302.000 51.004,302.075 50.667,302.167 50.667 C 302.258 50.667,302.333 50.742,302.333 50.833 C 302.333 50.925,302.427 50.998,302.542 50.994 C 302.656 50.991,302.589 50.855,302.393 50.690 C 301.842 50.230,302.030 49.538,302.680 49.633 C 303.203 49.710,303.423 50.702,302.958 50.890 C 302.792 50.957,302.792 50.976,302.958 50.987 C 303.083 50.995,303.167 51.235,303.167 51.583 L 303.167 52.167 304.814 52.167 C 306.722 52.167,306.730 52.158,306.553 50.464 L 306.453 49.500 307.041 49.500 C 307.641 49.500,307.725 49.632,307.864 50.792 C 307.878 50.906,307.959 51.000,308.046 51.000 C 308.132 51.000,308.147 50.869,308.079 50.708 C 307.796 50.042,307.895 49.758,308.411 49.754 C 308.989 49.749,309.233 50.744,308.688 50.889 C 308.539 50.929,309.035 50.970,309.792 50.981 L 311.167 51.000 311.167 51.576 L 311.167 52.151 310.042 52.201 L 308.917 52.250 308.917 52.827 C 308.917 53.538,309.815 54.277,310.339 53.997 C 310.915 53.688,311.167 53.306,311.167 52.738 L 311.167 52.167 312.292 52.157 C 312.910 52.151,314.185 52.155,315.125 52.166 L 316.833 52.185 316.833 51.409 C 316.833 50.750,316.752 50.558,316.292 50.125 L 315.750 49.616 317.458 49.732 L 319.167 49.849 319.167 48.174 L 319.167 46.500 318.594 46.500 C 318.070 46.500,318.017 46.454,317.969 45.958 L 317.917 45.417 316.583 45.369 L 315.250 45.322 315.199 46.113 C 315.133 47.146,314.926 47.377,314.134 47.302 L 313.500 47.241 313.499 47.996 L 313.498 48.750 312.249 48.799 L 311.000 48.848 311.000 48.174 L 311.000 47.500 311.667 47.500 L 312.333 47.500 312.333 46.417 L 312.333 45.333 311.250 45.333 L 310.167 45.333 310.167 45.917 C 310.167 46.422,310.111 46.503,309.750 46.521 C 309.521 46.532,309.240 46.551,309.125 46.563 C 309.010 46.574,308.893 46.790,308.864 47.042 C 308.815 47.467,308.658 47.587,308.256 47.508 C 308.168 47.491,307.999 47.609,307.881 47.770 C 307.763 47.932,307.667 47.993,307.667 47.907 C 307.667 47.819,307.190 47.775,306.584 47.806 C 305.565 47.858,305.500 47.886,305.500 48.264 C 305.500 48.613,305.422 48.667,304.917 48.667 C 304.361 48.667,304.333 48.639,304.333 48.083 L 304.333 47.500 306.000 47.500 L 307.667 47.500 307.667 46.417 L 307.667 45.333 304.833 45.333 L 302.000 45.333 302.000 47.583 L 302.000 49.833 301.375 49.834 L 300.750 49.834 300.801 47.584 L 300.851 45.333 299.770 45.333 C 298.887 45.333,298.672 45.387,298.598 45.625 M313.440 49.130 C 313.395 49.201,313.885 49.230,314.527 49.193 C 315.675 49.129,315.694 49.134,315.639 49.522 C 315.551 50.145,313.674 50.207,313.395 49.596 C 313.291 49.369,313.247 49.142,313.297 49.092 C 313.434 48.955,313.531 48.981,313.440 49.130 M104.667 50.500 C 104.569 50.683,104.510 50.839,104.536 50.846 C 104.929 50.952,105.167 50.941,105.167 50.819 C 105.167 50.735,105.084 50.667,104.982 50.667 C 104.881 50.667,104.841 50.554,104.894 50.417 C 105.033 50.053,104.875 50.111,104.667 50.500 M196.611 52.278 C 196.132 52.757,196.676 54.122,197.400 54.258 C 197.902 54.352,197.988 54.438,198.032 54.892 C 198.081 55.397,198.118 55.420,199.000 55.515 C 199.568 55.575,199.711 55.623,199.375 55.640 C 198.890 55.664,198.833 55.719,198.833 56.167 L 198.833 56.667 197.680 56.667 L 196.527 56.667 196.409 55.000 L 196.290 53.333 195.312 53.333 L 194.333 53.333 194.333 53.896 C 194.333 54.206,194.446 54.729,194.583 55.058 C 194.721 55.387,194.833 55.883,194.833 56.161 C 194.833 56.577,194.901 56.667,195.217 56.667 C 195.556 56.667,195.592 56.733,195.532 57.250 C 195.467 57.804,195.431 57.833,194.819 57.833 C 194.201 57.833,194.179 57.814,194.269 57.361 C 194.331 57.051,194.244 56.666,194.015 56.239 C 193.824 55.881,193.667 55.343,193.667 55.044 C 193.667 54.209,192.095 54.185,192.031 55.020 C 192.010 55.305,192.073 55.638,192.173 55.758 C 192.273 55.878,192.398 56.395,192.451 56.905 C 192.529 57.665,192.603 57.833,192.857 57.833 C 193.100 57.833,193.167 57.959,193.167 58.417 C 193.167 58.987,192.899 59.142,192.125 59.020 C 192.056 59.009,192.000 59.262,192.000 59.583 C 192.000 60.139,191.972 60.167,191.417 60.167 C 190.861 60.167,190.833 60.194,190.833 60.750 C 190.833 61.315,190.813 61.333,190.196 61.333 C 189.542 61.333,189.336 60.499,189.898 60.128 C 190.021 60.046,190.002 60.004,189.842 60.003 C 189.710 60.001,189.392 59.800,189.137 59.555 C 188.739 59.173,188.504 59.102,187.503 59.058 L 186.333 59.006 186.333 59.586 C 186.333 60.138,186.305 60.167,185.750 60.167 C 185.194 60.167,185.167 60.194,185.167 60.750 C 185.167 61.306,185.139 61.333,184.583 61.333 L 184.000 61.333 184.000 62.250 L 184.000 63.167 184.837 63.167 C 185.702 63.167,185.758 63.120,186.052 62.156 C 186.149 61.841,187.333 61.917,187.333 62.238 C 187.333 62.351,187.555 62.439,187.840 62.439 C 188.200 62.439,188.320 62.374,188.258 62.211 C 188.210 62.085,188.245 62.029,188.335 62.085 C 188.809 62.378,188.513 63.644,187.958 63.698 C 187.555 63.737,187.411 63.835,187.393 64.083 C 187.380 64.267,187.361 64.510,187.351 64.625 C 187.341 64.741,187.113 64.833,186.833 64.833 C 186.357 64.833,186.333 64.866,186.331 65.542 C 186.327 66.864,185.431 67.716,185.060 66.750 C 184.996 66.583,184.733 66.500,184.269 66.500 C 183.881 66.500,183.393 66.373,183.163 66.212 C 182.219 65.551,181.667 65.772,181.667 66.811 L 181.667 67.600 182.221 67.535 C 182.584 67.493,182.974 67.591,183.346 67.818 C 183.979 68.203,184.926 68.281,185.056 67.958 C 185.103 67.844,185.146 68.098,185.154 68.524 L 185.167 69.298 184.542 69.357 C 183.500 69.456,182.667 69.335,182.667 69.085 C 182.667 68.675,181.824 68.167,181.144 68.167 L 180.500 68.167 180.500 69.750 C 180.500 71.278,180.513 71.334,180.875 71.345 C 181.081 71.351,181.512 71.402,181.833 71.459 C 182.154 71.515,182.773 71.566,183.208 71.572 L 184.000 71.583 184.000 75.668 L 184.000 79.752 183.289 79.696 C 182.696 79.649,182.496 79.717,182.081 80.107 C 181.545 80.612,181.539 80.615,180.917 80.646 C 180.513 80.666,180.500 80.704,180.500 81.853 L 180.500 83.040 182.125 82.919 C 183.984 82.781,184.000 82.775,184.000 82.274 C 184.000 81.945,184.070 81.908,184.583 81.968 L 185.167 82.036 185.167 83.274 C 185.167 84.454,185.151 84.504,184.838 84.336 C 184.650 84.235,184.277 84.212,183.963 84.282 C 183.663 84.349,183.023 84.406,182.542 84.410 L 181.667 84.417 181.667 85.458 L 181.667 86.500 182.292 86.494 C 182.635 86.491,183.104 86.381,183.333 86.250 C 183.563 86.119,184.031 86.009,184.375 86.006 C 184.967 86.000,185.081 85.882,185.031 85.326 C 185.027 85.277,185.280 85.266,185.595 85.303 C 186.459 85.404,186.479 86.500,185.617 86.500 C 185.314 86.500,184.984 86.582,184.884 86.683 C 184.783 86.783,184.300 86.915,183.809 86.974 L 182.917 87.083 182.866 87.958 L 182.816 88.833 183.356 88.833 C 183.656 88.833,184.048 88.692,184.239 88.514 C 184.807 87.988,185.218 88.012,185.413 88.583 C 185.692 89.403,185.818 89.500,186.593 89.500 C 187.254 89.500,187.333 89.459,187.333 89.117 C 187.333 88.437,188.465 88.697,188.532 89.392 C 188.577 89.849,188.653 89.923,189.125 89.969 C 189.596 90.014,189.667 90.082,189.667 90.493 C 189.667 90.972,189.911 91.167,190.514 91.167 C 190.758 91.167,190.833 91.285,190.833 91.667 C 190.833 92.127,190.880 92.167,191.417 92.167 C 192.121 92.167,192.335 93.207,191.667 93.382 C 190.898 93.583,191.362 95.500,192.179 95.500 C 192.520 95.500,193.167 94.950,193.167 94.659 C 193.167 94.309,193.758 94.598,194.035 95.083 C 194.222 95.412,194.322 95.487,194.326 95.302 C 194.330 95.146,194.258 94.973,194.167 94.917 C 193.789 94.683,194.046 94.500,194.750 94.500 L 195.500 94.500 195.496 95.708 C 195.493 96.906,195.488 96.919,194.955 97.167 C 194.461 97.396,194.413 97.489,194.366 98.292 L 194.316 99.167 195.700 99.144 C 196.461 99.131,196.930 99.091,196.743 99.054 C 196.334 98.972,196.358 97.833,196.768 97.833 C 197.258 97.833,197.667 97.189,197.667 96.417 L 197.667 95.667 198.268 95.667 L 198.868 95.667 198.764 96.375 C 198.706 96.765,198.653 97.254,198.645 97.463 C 198.638 97.672,198.410 98.064,198.140 98.335 C 197.723 98.752,197.655 98.936,197.699 99.539 L 197.750 100.250 199.250 100.301 C 201.432 100.374,201.793 100.282,201.704 99.677 C 201.635 99.210,201.661 99.188,202.441 99.087 C 204.256 98.851,204.500 98.671,204.500 97.571 L 204.500 96.833 205.138 96.833 C 205.739 96.833,205.772 96.860,205.709 97.292 C 205.606 98.000,205.941 98.673,206.502 98.885 C 206.935 99.049,207.000 99.156,207.000 99.709 L 207.000 100.345 208.625 100.298 L 210.250 100.250 210.343 99.667 C 210.394 99.346,210.368 98.943,210.285 98.771 C 210.201 98.600,210.084 98.112,210.023 97.688 C 209.934 97.057,209.846 96.907,209.540 96.863 C 209.236 96.820,209.167 96.704,209.167 96.238 L 209.167 95.667 210.312 95.667 L 211.458 95.667 211.582 96.542 C 211.650 97.023,211.716 97.810,211.728 98.292 L 211.750 99.167 212.708 99.167 L 213.667 99.167 213.661 98.542 C 213.658 98.198,213.548 97.729,213.417 97.500 C 213.286 97.271,213.176 96.765,213.173 96.375 C 213.168 95.806,213.108 95.667,212.867 95.667 C 212.622 95.667,212.579 95.559,212.635 95.083 C 212.741 94.179,213.833 94.184,213.833 95.089 C 213.833 95.413,213.950 95.856,214.092 96.073 C 214.325 96.429,214.425 96.848,214.481 97.708 C 214.496 97.940,214.654 98.000,215.250 98.000 C 216.151 98.000,216.265 97.486,215.649 96.213 C 215.439 95.780,215.327 95.288,215.370 94.994 C 215.428 94.600,215.380 94.500,215.138 94.500 C 214.508 94.500,214.733 93.364,215.375 93.302 C 215.851 93.256,215.923 93.185,215.969 92.708 L 216.021 92.167 217.219 92.195 C 217.891 92.210,218.142 92.251,217.792 92.288 C 216.786 92.393,216.933 93.725,217.999 94.166 C 218.581 94.407,218.679 94.349,218.929 93.620 C 219.057 93.248,219.252 93.061,219.610 92.968 C 219.906 92.891,220.189 92.666,220.303 92.416 C 220.409 92.183,220.684 91.922,220.915 91.834 C 221.201 91.725,221.333 91.549,221.333 91.275 C 221.333 90.543,222.519 90.254,222.776 90.923 C 222.967 91.421,223.913 91.119,223.969 90.542 C 224.017 90.046,224.070 90.000,224.594 90.000 L 225.167 90.000 225.167 88.940 C 225.167 87.895,225.160 87.880,224.731 87.927 C 224.099 87.996,223.833 87.848,223.833 87.427 C 223.833 86.851,223.997 86.814,224.578 87.257 C 224.922 87.519,225.334 87.667,225.724 87.667 L 226.333 87.667 226.333 86.750 L 226.333 85.833 225.411 85.833 C 224.886 85.833,224.329 85.729,224.119 85.592 C 223.564 85.228,223.101 85.366,222.978 85.932 C 222.910 86.243,222.895 86.154,222.936 85.685 C 222.971 85.283,223.000 84.776,223.000 84.560 C 223.000 83.790,223.993 84.014,224.027 84.792 C 224.053 85.407,224.054 85.408,224.121 84.875 C 224.212 84.135,224.924 84.116,225.641 84.833 C 226.033 85.225,226.288 85.333,226.821 85.333 L 227.500 85.333 227.500 84.000 L 227.500 82.667 226.901 82.667 C 226.555 82.667,226.124 82.526,225.879 82.333 C 225.402 81.959,224.244 81.877,224.110 82.208 C 224.064 82.323,224.020 81.535,224.013 80.458 L 224.000 78.500 224.575 78.500 L 225.149 78.500 225.200 79.375 C 225.248 80.212,225.272 80.252,225.750 80.301 C 226.025 80.329,226.558 80.466,226.934 80.606 C 227.310 80.746,227.835 80.835,228.101 80.805 L 228.583 80.750 228.627 75.625 L 228.671 70.500 227.931 70.500 C 227.146 70.500,226.500 71.028,226.500 71.668 C 226.500 71.877,226.314 71.987,225.833 72.064 C 225.315 72.147,225.167 72.244,225.167 72.502 C 225.167 72.770,225.054 72.833,224.583 72.833 L 224.000 72.833 224.013 71.458 C 224.020 70.702,224.064 70.177,224.110 70.292 C 224.297 70.753,225.352 70.527,225.944 69.899 C 226.407 69.408,226.604 69.311,227.013 69.371 L 227.513 69.444 227.465 68.264 C 227.410 66.910,227.069 66.694,225.849 67.241 C 224.977 67.632,224.271 67.652,224.199 67.289 C 224.141 66.996,225.084 66.456,225.549 66.514 C 226.248 66.602,226.333 66.510,226.333 65.667 L 226.333 64.833 225.760 64.833 C 225.444 64.833,224.927 64.986,224.611 65.172 C 224.220 65.403,223.871 65.482,223.518 65.420 C 223.000 65.329,223.000 65.329,222.980 66.123 C 222.964 66.788,222.943 66.835,222.854 66.417 C 222.772 66.028,222.647 65.905,222.291 65.864 C 221.877 65.816,221.833 65.747,221.833 65.146 C 221.833 64.745,221.900 64.521,222.000 64.583 C 222.158 64.681,222.240 64.380,222.202 63.833 C 222.192 63.675,222.334 63.583,222.593 63.583 C 222.869 63.583,223.000 63.677,223.000 63.875 C 223.000 64.123,223.163 64.167,224.083 64.167 L 225.167 64.167 225.167 63.333 L 225.167 62.500 224.583 62.500 C 223.999 62.500,223.937 62.422,223.989 61.744 C 224.022 61.308,223.112 61.197,222.720 61.589 C 222.267 62.042,221.610 61.833,221.395 61.167 C 221.284 60.821,221.080 60.560,220.895 60.525 C 219.960 60.352,220.338 59.801,221.286 59.955 L 221.850 60.046 221.800 58.982 L 221.750 57.917 220.750 57.868 L 219.750 57.819 219.750 58.535 C 219.750 59.414,219.127 59.628,219.030 58.783 C 218.996 58.487,218.833 58.250,218.586 58.137 C 218.138 57.933,217.994 57.558,218.181 57.081 C 218.548 56.141,218.375 55.667,217.667 55.667 C 217.025 55.667,217.000 55.687,217.000 56.212 C 217.000 56.576,216.828 56.966,216.482 57.386 C 216.091 57.860,215.982 58.135,216.037 58.507 C 216.106 58.980,216.083 59.000,215.471 59.000 C 214.853 59.000,214.833 58.982,214.833 58.417 C 214.833 57.906,214.885 57.833,215.250 57.833 C 215.648 57.833,215.667 57.789,215.667 56.833 L 215.667 55.833 214.950 55.833 C 214.046 55.833,213.838 56.045,213.814 56.992 C 213.796 57.682,213.782 57.705,213.667 57.250 C 213.376 56.106,213.465 55.545,213.957 55.421 C 214.680 55.240,214.833 55.016,214.833 54.146 L 214.833 53.333 213.500 53.333 L 212.167 53.333 212.163 53.958 C 212.161 54.321,212.022 54.758,211.833 55.000 C 211.644 55.242,211.506 55.679,211.504 56.042 C 211.500 56.644,211.479 56.667,210.917 56.667 C 210.380 56.667,210.333 56.627,210.333 56.167 C 210.333 55.719,210.277 55.664,209.792 55.643 C 209.281 55.621,209.288 55.614,209.915 55.518 C 210.520 55.426,210.587 55.364,210.674 54.829 C 210.726 54.505,210.939 54.010,211.148 53.728 C 211.910 52.698,211.628 52.258,210.169 52.200 C 208.433 52.131,208.206 52.206,208.296 52.822 C 208.358 53.246,208.305 53.334,207.932 53.428 C 207.332 53.578,206.833 54.265,206.833 54.939 L 206.833 55.500 204.000 55.500 L 201.167 55.500 201.167 54.826 C 201.167 54.149,200.614 53.333,200.155 53.333 C 200.036 53.333,199.990 53.144,200.035 52.840 C 200.082 52.517,200.026 52.315,199.873 52.256 C 199.537 52.127,196.743 52.146,196.611 52.278 M69.333 53.917 C 69.333 54.472,69.306 54.500,68.750 54.500 C 68.169 54.500,68.167 54.503,68.167 55.260 L 68.167 56.020 68.792 55.968 C 69.244 55.931,69.461 55.816,69.576 55.553 C 69.664 55.354,70.020 55.078,70.368 54.942 C 70.956 54.711,71.000 54.646,71.000 54.013 L 71.000 53.333 70.167 53.333 L 69.333 53.333 69.333 53.917 M129.333 53.988 C 129.333 54.525,129.433 54.727,129.890 55.113 C 130.212 55.385,130.611 55.987,130.837 56.542 C 131.202 57.437,131.264 57.500,131.781 57.500 L 132.333 57.500 132.333 56.000 L 132.333 54.500 131.750 54.500 C 131.194 54.500,131.167 54.472,131.167 53.917 L 131.167 53.333 130.250 53.333 L 129.333 53.333 129.333 53.988 M278.111 53.444 C 277.810 53.745,278.009 54.496,278.416 54.598 C 279.078 54.764,279.333 54.576,279.333 53.922 C 279.333 53.347,278.525 53.031,278.111 53.444 M337.333 53.900 C 337.333 54.592,337.465 54.699,338.150 54.562 C 339.034 54.385,338.913 53.413,338.000 53.359 C 337.342 53.320,337.333 53.328,337.333 53.900 M190.208 55.621 C 189.735 55.679,189.667 55.750,189.667 56.177 C 189.667 56.573,189.595 56.667,189.292 56.669 C 188.737 56.673,188.538 56.859,188.493 57.417 C 188.386 58.736,189.733 59.339,190.145 58.156 C 190.257 57.836,190.467 57.641,190.781 57.566 C 191.506 57.393,191.667 57.184,191.667 56.416 C 191.667 55.754,191.321 55.386,190.833 55.529 C 190.787 55.542,190.506 55.584,190.208 55.621 M339.553 55.752 C 339.224 55.992,339.204 81.867,339.532 82.587 C 339.685 82.922,339.841 83.000,340.360 83.000 L 341.000 83.000 341.000 69.352 L 341.000 55.703 340.405 55.634 C 340.077 55.595,339.694 55.649,339.553 55.752 M73.250 56.375 C 71.336 57.036,71.352 56.956,71.339 65.613 C 71.326 73.591,71.343 73.757,72.264 74.481 L 72.703 74.827 100.143 74.788 C 129.937 74.747,128.247 74.805,128.445 73.818 C 128.499 73.545,128.684 73.247,128.855 73.155 C 129.152 72.996,129.167 72.651,129.164 65.869 C 129.161 58.344,129.169 58.419,128.313 58.010 C 127.945 57.834,127.726 57.584,127.637 57.236 C 127.368 56.188,129.126 56.252,100.167 56.226 C 82.324 56.210,73.588 56.258,73.250 56.375 M282.000 56.311 C 280.454 56.489,279.641 57.268,279.669 58.543 C 279.678 58.932,279.676 62.401,279.665 66.252 C 279.642 74.036,279.633 73.959,280.707 74.479 C 281.414 74.822,281.654 74.833,287.894 74.833 L 294.348 74.833 294.731 74.451 L 295.113 74.069 295.568 74.410 C 296.016 74.744,296.236 74.751,307.137 74.786 C 313.249 74.806,318.512 74.834,318.833 74.848 C 323.121 75.030,335.691 74.765,336.157 74.481 C 336.833 74.071,336.923 73.797,336.599 73.147 C 336.083 72.114,336.227 69.566,336.833 69.000 C 337.276 68.587,337.333 68.424,337.333 67.583 C 337.333 66.743,337.276 66.580,336.833 66.167 C 336.201 65.576,336.079 63.815,336.649 63.509 C 337.362 63.128,337.377 61.905,336.674 61.466 C 336.131 61.127,336.181 59.334,336.750 58.765 C 337.449 58.066,337.179 57.467,335.757 56.563 C 335.257 56.245,284.638 56.007,282.000 56.311 M275.778 56.778 C 275.717 56.839,275.667 62.768,275.667 69.954 L 275.667 83.019 276.371 82.968 C 276.885 82.931,277.122 82.824,277.246 82.572 C 277.589 81.881,277.470 57.650,277.121 57.118 C 276.837 56.684,276.067 56.489,275.778 56.778 M208.000 58.417 L 208.000 59.000 209.750 59.000 L 211.500 59.000 211.500 59.575 L 211.500 60.149 209.166 60.200 L 206.833 60.250 206.833 59.625 L 206.833 59.000 204.000 59.000 L 201.167 59.000 201.167 60.167 L 201.167 61.333 200.583 61.333 C 200.027 61.333,200.000 61.306,200.000 60.744 L 200.000 60.155 198.292 60.203 L 196.583 60.250 196.531 60.792 L 196.479 61.333 195.406 61.333 L 194.333 61.333 194.333 61.917 C 194.333 62.472,194.306 62.500,193.750 62.500 C 193.194 62.500,193.167 62.528,193.167 63.083 C 193.167 63.639,193.139 63.667,192.583 63.667 C 192.028 63.667,192.000 63.694,192.000 64.250 L 192.000 64.833 190.792 64.805 C 190.122 64.790,189.862 64.748,190.208 64.712 C 190.774 64.653,190.833 64.600,190.833 64.157 C 190.833 63.785,190.910 63.667,191.153 63.667 C 191.755 63.667,192.000 63.472,192.000 62.993 C 192.000 62.582,192.070 62.514,192.542 62.469 C 193.018 62.423,193.090 62.351,193.136 61.875 C 193.181 61.400,193.247 61.333,193.674 61.333 C 194.172 61.333,194.511 60.756,194.256 60.343 C 194.183 60.225,194.539 60.167,195.323 60.167 L 196.500 60.167 196.500 59.583 L 196.500 59.000 198.250 59.000 L 200.000 59.000 200.000 58.417 L 200.000 57.833 204.000 57.833 L 208.000 57.833 208.000 58.417 M75.101 59.264 C 75.046 59.409,75.000 59.671,75.000 59.847 C 75.000 60.091,74.882 60.167,74.500 60.167 C 74.040 60.167,74.000 60.120,74.000 59.583 C 74.000 59.024,74.025 59.000,74.601 59.000 C 75.081 59.000,75.182 59.053,75.101 59.264 M334.154 59.792 C 334.146 60.227,334.103 60.490,334.056 60.375 C 334.010 60.260,333.762 60.167,333.504 60.167 C 333.094 60.167,333.028 60.095,332.968 59.583 C 332.901 59.007,332.908 59.000,333.533 59.000 L 334.167 59.000 334.154 59.792 M126.667 61.917 L 126.667 63.667 126.083 63.667 L 125.500 63.667 125.500 61.917 L 125.500 60.167 126.083 60.167 L 126.667 60.167 126.667 61.917 M213.833 60.750 C 213.833 61.287,213.873 61.333,214.333 61.333 C 214.715 61.333,214.833 61.409,214.833 61.653 C 214.833 62.395,214.991 62.500,216.101 62.500 C 217.165 62.500,217.167 62.501,217.167 62.982 C 217.167 63.472,217.407 63.667,218.014 63.667 C 218.268 63.667,218.333 63.786,218.333 64.250 C 218.333 64.806,218.306 64.833,217.750 64.833 C 217.194 64.833,217.167 64.806,217.167 64.250 L 217.167 63.667 216.000 63.667 L 214.833 63.667 214.833 63.083 L 214.833 62.500 213.708 62.500 L 212.583 62.500 212.583 61.333 L 212.583 60.167 213.208 60.167 C 213.812 60.167,213.833 60.187,213.833 60.750 M203.271 63.667 C 203.414 63.667,203.500 63.854,203.500 64.167 L 203.500 64.667 204.583 64.667 L 205.667 64.667 205.667 64.167 C 205.667 63.706,205.713 63.667,206.250 63.667 L 206.833 63.667 206.833 64.750 L 206.833 65.833 208.000 65.833 L 209.167 65.833 209.167 65.250 L 209.167 64.667 210.333 64.667 L 211.500 64.667 211.500 65.833 L 211.500 67.000 212.083 67.000 L 212.667 67.000 212.667 68.167 L 212.667 69.333 213.250 69.333 L 213.833 69.333 213.833 70.500 L 213.833 71.667 214.375 71.666 L 214.917 71.666 214.917 73.291 L 214.917 74.917 216.042 74.966 L 217.167 75.015 217.167 76.660 C 217.167 77.821,217.228 78.330,217.375 78.390 C 217.490 78.436,217.004 78.480,216.295 78.487 C 214.824 78.502,214.711 78.630,214.876 80.093 L 214.959 80.833 214.396 80.833 L 213.833 80.833 213.833 81.917 L 213.833 83.000 214.333 83.000 C 215.065 83.000,215.104 84.113,214.375 84.197 C 213.993 84.241,213.908 84.340,213.864 84.792 L 213.812 85.333 212.614 85.344 C 211.956 85.350,210.929 85.368,210.333 85.386 L 209.250 85.417 209.201 86.532 L 209.152 87.647 208.618 87.698 C 208.150 87.744,208.077 87.817,208.031 88.292 L 207.979 88.833 204.580 88.833 L 201.182 88.833 201.133 87.708 L 201.083 86.583 199.958 86.583 L 198.833 86.583 198.833 85.958 C 198.833 85.357,198.811 85.333,198.261 85.333 C 197.736 85.333,197.683 85.288,197.636 84.792 C 197.590 84.315,197.518 84.244,197.042 84.198 C 196.565 84.152,196.500 84.086,196.500 83.656 C 196.500 83.208,196.451 83.167,195.917 83.167 C 195.361 83.167,195.333 83.139,195.333 82.583 L 195.333 82.000 194.261 82.000 L 193.188 82.000 193.136 81.458 C 193.090 80.982,193.018 80.910,192.542 80.864 L 192.000 80.812 192.000 79.667 L 192.000 78.521 192.542 78.469 L 193.083 78.417 193.129 75.625 L 193.175 72.833 193.567 72.833 C 194.172 72.833,194.372 72.454,194.307 71.422 L 194.250 70.500 194.792 70.500 L 195.333 70.500 195.333 69.333 L 195.333 68.167 194.833 68.167 C 194.373 68.167,194.333 68.120,194.333 67.583 C 194.333 67.028,194.361 67.000,194.917 67.000 C 195.472 67.000,195.500 67.028,195.500 67.583 L 195.500 68.167 196.583 68.167 L 197.667 68.167 197.667 67.583 C 197.667 67.028,197.694 67.000,198.250 67.000 C 198.806 67.000,198.833 66.972,198.833 66.417 L 198.833 65.833 200.000 65.833 L 201.167 65.833 201.167 64.761 C 201.167 63.583,201.340 63.439,202.563 63.603 C 202.826 63.638,203.145 63.667,203.271 63.667 M182.866 64.450 L 182.917 65.234 183.738 65.285 C 184.190 65.313,184.684 65.448,184.835 65.585 C 185.479 66.167,186.167 65.909,186.167 65.083 L 186.167 64.333 185.542 64.332 C 185.198 64.332,184.692 64.182,184.417 64.000 C 184.142 63.818,183.669 63.668,183.366 63.668 L 182.815 63.667 182.866 64.450 M195.294 64.781 C 195.134 64.823,194.834 64.824,194.627 64.785 C 194.420 64.745,194.550 64.711,194.917 64.709 C 195.283 64.707,195.453 64.739,195.294 64.781 M198.627 64.781 C 198.468 64.823,198.168 64.824,197.960 64.785 C 197.753 64.745,197.883 64.711,198.250 64.709 C 198.617 64.707,198.786 64.739,198.627 64.781 M126.667 67.583 L 126.667 69.333 126.083 69.333 L 125.500 69.333 125.500 67.583 L 125.500 65.833 126.083 65.833 L 126.667 65.833 126.667 67.583 M189.667 66.417 C 189.667 66.972,189.694 67.000,190.250 67.000 C 190.813 67.000,190.833 67.022,190.834 67.625 L 190.834 68.250 189.709 68.250 L 188.583 68.250 188.583 69.362 L 188.583 70.474 187.958 70.533 L 187.333 70.592 187.333 69.379 L 187.333 68.167 187.917 68.167 L 188.500 68.167 188.500 67.000 L 188.500 65.833 189.083 65.833 C 189.639 65.833,189.667 65.861,189.667 66.417 M219.500 66.417 C 219.500 66.972,219.528 67.000,220.083 67.000 L 220.667 67.000 220.667 68.167 L 220.667 69.333 221.250 69.333 L 221.833 69.333 221.833 72.167 L 221.833 75.000 222.417 75.000 L 223.000 75.000 223.000 76.167 L 223.000 77.333 222.417 77.333 L 221.833 77.333 221.833 79.667 L 221.833 82.000 221.250 82.000 L 220.667 82.000 220.667 83.656 L 220.667 85.312 220.125 85.364 C 219.653 85.410,219.577 85.484,219.532 85.941 C 219.488 86.402,219.412 86.474,218.907 86.533 L 218.333 86.600 218.333 85.480 C 218.333 84.741,218.263 84.333,218.125 84.277 C 218.010 84.231,218.273 84.187,218.708 84.180 L 219.500 84.167 219.500 83.094 L 219.500 82.021 220.042 81.969 L 220.583 81.917 220.619 77.958 L 220.654 74.000 219.494 74.000 L 218.333 74.000 218.333 73.417 L 218.333 72.833 219.236 72.833 C 220.619 72.833,220.667 72.791,220.667 71.566 L 220.667 70.500 220.042 70.500 L 219.417 70.501 219.417 69.375 L 219.417 68.250 218.875 68.198 L 218.333 68.146 218.333 66.989 L 218.333 65.833 218.917 65.833 C 219.472 65.833,219.500 65.861,219.500 66.417 M224.000 67.583 C 224.000 68.120,223.960 68.167,223.500 68.167 C 223.040 68.167,223.000 68.120,223.000 67.583 C 223.000 67.046,223.040 67.000,223.500 67.000 C 223.960 67.000,224.000 67.046,224.000 67.583 M187.367 72.708 L 187.417 73.750 188.583 73.825 L 189.750 73.901 188.583 73.992 L 187.417 74.083 187.417 77.417 L 187.417 80.750 188.542 80.750 L 189.667 80.750 189.667 81.375 C 189.667 81.978,189.646 82.000,189.083 82.000 L 188.500 82.000 188.500 83.083 L 188.500 84.167 189.083 84.167 L 189.667 84.167 189.667 85.333 L 189.667 86.500 190.833 86.500 L 192.000 86.500 192.000 87.667 L 192.000 88.833 193.069 88.833 C 193.773 88.833,194.165 88.762,194.216 88.625 C 194.258 88.510,194.320 89.036,194.354 89.792 L 194.417 91.167 193.792 91.167 C 193.285 91.167,193.163 91.104,193.146 90.833 C 193.134 90.650,193.116 90.406,193.104 90.292 C 193.093 90.177,192.840 90.060,192.542 90.031 C 192.046 89.983,192.000 89.930,192.000 89.406 C 192.000 88.863,191.970 88.833,191.417 88.833 C 190.884 88.833,190.833 88.791,190.833 88.351 C 190.833 87.861,190.593 87.667,189.986 87.667 C 189.732 87.667,189.667 87.547,189.667 87.083 C 189.667 86.529,189.638 86.500,189.091 86.500 L 188.515 86.500 188.466 85.375 L 188.417 84.250 187.875 84.198 L 187.333 84.146 187.333 82.489 L 187.333 80.833 186.750 80.833 L 186.167 80.833 186.167 76.250 L 186.167 71.667 186.742 71.667 L 187.317 71.667 187.367 72.708 M179.444 75.111 C 179.383 75.172,179.333 75.697,179.333 76.278 L 179.333 77.333 180.046 77.333 C 181.448 77.333,182.061 76.132,181.061 75.345 C 180.642 75.016,179.679 74.876,179.444 75.111 M300.208 77.505 C 300.002 77.588,299.831 77.790,299.828 77.953 C 299.823 78.234,299.814 78.235,299.653 77.958 C 299.441 77.593,298.458 77.566,298.166 77.917 C 297.853 78.294,297.916 78.972,298.301 79.384 C 299.058 80.191,299.165 81.000,298.586 81.537 C 297.597 82.454,298.936 83.902,300.327 83.421 C 300.866 83.234,300.917 83.161,300.917 82.567 L 300.917 81.917 302.000 81.833 L 303.083 81.750 303.349 82.333 C 304.058 83.892,305.710 84.037,306.329 82.593 C 306.722 81.676,308.344 81.089,308.925 81.654 C 309.012 81.738,309.308 81.832,309.583 81.862 C 309.954 81.903,310.097 82.013,310.137 82.292 C 310.180 82.596,310.296 82.667,310.753 82.667 C 311.123 82.667,311.471 82.810,311.766 83.083 C 312.283 83.562,312.335 83.574,312.721 83.292 C 312.988 83.096,312.985 83.041,312.661 82.417 C 312.397 81.906,312.317 81.445,312.320 80.450 L 312.325 79.149 311.162 79.183 C 310.367 79.206,310.000 79.282,310.000 79.424 C 310.000 79.537,309.737 79.661,309.417 79.698 C 308.911 79.757,308.833 79.719,308.833 79.410 C 308.833 79.119,308.728 79.050,308.252 79.032 C 307.486 79.003,306.789 78.628,306.096 77.873 C 305.592 77.322,305.484 77.275,305.075 77.420 C 304.127 77.758,304.076 78.923,305.001 79.108 C 305.622 79.233,305.769 79.419,305.908 80.263 C 306.060 81.188,305.838 81.336,304.363 81.288 L 303.170 81.250 303.168 80.542 C 303.166 79.606,302.378 79.486,301.437 80.277 C 301.058 80.597,300.919 80.639,300.811 80.469 C 300.622 80.171,300.630 79.333,300.821 79.333 C 301.481 79.333,301.621 78.265,301.045 77.625 C 300.750 77.298,300.731 77.295,300.208 77.505 M316.323 77.556 C 315.791 77.820,315.679 78.771,316.124 79.252 C 316.663 79.835,316.115 81.066,315.287 81.135 C 314.486 81.202,314.438 81.801,315.156 82.792 C 315.751 83.614,316.597 83.840,317.564 83.436 L 318.170 83.182 318.062 81.716 C 318.003 80.910,317.890 80.124,317.811 79.969 C 317.611 79.581,317.629 79.500,317.912 79.500 C 318.300 79.500,318.714 78.566,318.501 78.169 C 318.173 77.556,316.993 77.224,316.323 77.556 M100.792 78.095 C 100.540 78.232,100.327 78.473,100.320 78.630 C 100.312 78.804,100.274 78.835,100.223 78.708 C 100.106 78.418,99.833 78.447,99.833 78.750 C 99.833 78.887,99.945 79.000,100.082 79.000 C 100.466 79.000,100.247 79.910,99.861 79.919 C 99.642 79.925,99.019 80.562,99.102 80.696 C 99.148 80.772,99.433 80.833,99.734 80.833 C 100.327 80.833,100.719 81.165,100.917 81.833 C 101.223 82.864,102.124 83.287,103.153 82.883 C 103.821 82.621,103.861 82.624,104.342 82.980 C 104.922 83.409,105.088 83.354,105.220 82.692 C 105.439 81.596,107.028 81.936,106.853 83.042 C 106.842 83.110,106.955 83.167,107.104 83.167 C 107.319 83.167,107.353 83.058,107.271 82.646 C 107.214 82.359,107.167 81.582,107.167 80.919 L 107.167 79.713 105.798 79.565 L 104.428 79.417 104.315 78.857 C 104.027 77.435,102.822 77.481,102.651 78.920 L 102.552 79.750 102.526 78.964 C 102.490 77.867,101.826 77.534,100.792 78.095 M93.438 78.875 C 93.383 79.081,93.337 79.825,93.336 80.528 C 93.334 81.437,93.249 81.954,93.042 82.317 C 92.623 83.049,92.889 83.402,93.910 83.468 C 94.796 83.526,95.171 83.295,95.505 82.488 C 95.886 81.568,97.554 81.832,97.692 82.833 C 97.725 83.067,97.860 83.250,98.000 83.250 C 98.138 83.250,98.226 83.140,98.196 83.005 C 98.167 82.870,98.099 82.396,98.047 81.952 C 97.994 81.507,97.902 81.222,97.843 81.318 C 97.783 81.415,97.288 81.514,96.742 81.538 L 95.750 81.583 95.702 80.042 L 95.654 78.500 94.597 78.500 C 93.641 78.500,93.529 78.536,93.438 78.875 M312.500 79.750 C 312.500 79.944,312.722 80.000,313.500 80.000 C 314.278 80.000,314.500 79.944,314.500 79.750 C 314.500 79.556,314.278 79.500,313.500 79.500 C 312.722 79.500,312.500 79.556,312.500 79.750 M308.851 82.542 C 308.836 83.061,308.889 83.167,309.167 83.167 C 309.350 83.167,309.500 83.092,309.500 83.000 C 309.500 82.908,309.439 82.833,309.366 82.833 C 309.292 82.833,309.150 82.627,309.050 82.375 C 308.869 81.917,308.869 81.918,308.851 82.542 M131.021 82.391 C 130.919 82.514,130.789 82.846,130.733 83.128 C 130.590 83.839,129.629 84.556,128.478 84.809 C 127.773 84.964,124.048 85.015,113.561 85.015 C 105.873 85.015,99.433 85.019,99.250 85.024 C 99.067 85.029,92.599 85.021,84.877 85.006 C 69.516 84.975,70.500 84.918,70.500 85.843 L 70.500 86.500 100.239 86.500 L 129.979 86.500 130.031 85.959 C 130.075 85.504,130.163 85.405,130.583 85.333 C 131.004 85.262,131.092 85.163,131.136 84.708 C 131.183 84.213,131.236 84.167,131.761 84.167 L 132.333 84.167 132.333 83.167 L 132.333 82.167 131.770 82.167 C 131.461 82.167,131.124 82.268,131.021 82.391 M192.625 83.121 C 192.281 83.157,191.719 83.157,191.375 83.121 C 191.031 83.085,191.313 83.056,192.000 83.056 C 192.688 83.056,192.969 83.085,192.625 83.121 M276.833 84.417 L 276.833 85.333 277.417 85.333 C 277.972 85.333,278.000 85.361,278.000 85.917 L 278.000 86.500 308.333 86.500 L 338.667 86.500 338.667 85.917 C 338.667 85.361,338.694 85.333,339.250 85.333 L 339.833 85.333 339.833 84.525 L 339.833 83.717 339.125 83.787 C 338.735 83.825,338.267 83.989,338.083 84.151 C 337.075 85.040,338.555 84.997,308.665 84.992 C 278.341 84.986,279.245 85.015,278.415 84.029 C 278.076 83.625,277.836 83.500,277.402 83.500 L 276.833 83.500 276.833 84.417 M186.282 87.458 C 186.240 87.619,186.205 87.487,186.205 87.167 C 186.205 86.846,186.240 86.715,186.282 86.875 C 186.323 87.035,186.323 87.298,186.282 87.458 M217.167 88.844 L 217.167 89.985 216.042 90.034 L 214.917 90.083 214.865 90.615 C 214.823 91.052,214.734 91.156,214.365 91.198 C 213.994 91.241,213.908 91.344,213.864 91.792 L 213.812 92.333 212.656 92.333 L 211.500 92.333 211.500 92.833 L 211.500 93.333 210.333 93.333 L 209.167 93.333 209.167 92.756 L 209.167 92.178 210.875 92.131 L 212.583 92.083 212.583 91.041 L 212.583 89.999 213.708 90.000 L 214.833 90.000 214.833 89.417 C 214.833 88.861,214.861 88.833,215.417 88.833 C 215.981 88.833,216.000 88.813,216.000 88.200 C 216.000 87.575,216.007 87.568,216.583 87.635 L 217.167 87.703 217.167 88.844 M222.417 88.500 C 223.056 88.500,223.236 88.684,223.080 89.176 L 222.972 89.517 222.393 89.175 C 222.075 88.987,221.556 88.833,221.240 88.833 C 220.698 88.833,220.667 88.802,220.667 88.261 C 220.667 87.465,221.714 87.264,221.802 88.042 C 221.848 88.441,221.927 88.500,222.417 88.500 M185.167 91.333 L 185.167 92.167 185.750 92.167 C 186.306 92.167,186.333 92.194,186.333 92.750 C 186.333 93.284,186.375 93.333,186.823 93.333 C 187.253 93.333,187.319 93.399,187.364 93.875 C 187.410 94.351,187.482 94.423,187.958 94.469 C 188.454 94.517,188.500 94.570,188.500 95.094 L 188.500 95.667 189.417 95.667 L 190.333 95.667 190.333 94.911 C 190.333 94.228,190.279 94.123,189.766 93.821 C 189.455 93.637,189.153 93.302,189.097 93.077 C 189.040 92.851,188.879 92.667,188.739 92.667 C 188.599 92.667,188.357 92.440,188.201 92.162 C 188.044 91.884,187.766 91.618,187.582 91.571 C 187.398 91.523,187.120 91.263,186.965 90.992 C 186.717 90.561,186.589 90.500,185.924 90.500 L 185.167 90.500 185.167 91.333 M197.283 91.167 C 197.598 91.167,197.667 91.256,197.667 91.667 L 197.667 92.167 198.833 92.167 L 200.000 92.167 200.000 92.750 L 200.000 93.333 202.250 93.333 L 204.500 93.333 204.533 92.208 L 204.565 91.083 204.624 92.208 L 204.682 93.333 206.549 93.346 C 207.576 93.354,208.323 93.397,208.208 93.444 C 208.094 93.490,208.000 93.747,208.000 94.014 L 208.000 94.500 204.000 94.500 L 200.000 94.500 200.000 94.018 C 200.000 93.440,199.778 93.333,198.570 93.333 C 197.677 93.333,197.667 93.327,197.667 92.833 L 197.667 92.333 196.500 92.333 L 195.333 92.333 195.333 91.750 C 195.333 91.216,195.374 91.167,195.823 91.167 C 196.093 91.167,196.364 91.085,196.426 90.985 C 196.506 90.855,196.588 90.855,196.719 90.985 C 196.818 91.085,197.073 91.167,197.283 91.167 M216.708 94.944 C 216.578 94.996,216.500 95.364,216.500 95.931 L 216.500 96.833 217.417 96.833 L 218.333 96.833 218.333 96.095 C 218.333 95.036,217.661 94.559,216.708 94.944 M192.449 96.171 C 192.082 96.460,192.000 96.659,192.000 97.262 L 192.000 98.000 193.008 98.000 L 194.016 98.000 193.966 96.958 C 193.908 95.741,193.359 95.456,192.449 96.171 M53.369 98.541 L 53.417 100.250 100.000 100.296 C 125.621 100.321,146.755 100.300,146.964 100.249 C 147.333 100.160,147.344 100.105,147.298 98.537 L 147.250 96.917 100.286 96.875 L 53.322 96.833 53.369 98.541 M261.944 96.944 C 261.604 97.285,261.834 100.160,262.208 100.251 C 262.415 100.300,283.283 100.321,308.583 100.296 L 354.583 100.250 354.631 98.542 L 354.678 96.833 308.367 96.833 C 282.896 96.833,262.006 96.883,261.944 96.944 M172.708 102.610 C 172.589 102.659,172.500 102.989,172.500 103.389 L 172.500 104.083 183.341 104.028 C 195.149 103.968,194.507 103.915,194.846 104.972 C 194.954 105.308,195.142 105.699,195.265 105.839 C 195.410 106.006,195.504 106.672,195.535 107.756 L 195.583 109.417 196.583 109.436 C 197.133 109.447,197.894 109.509,198.274 109.573 C 199.084 109.710,200.839 109.425,201.029 109.125 C 201.102 109.010,201.163 108.388,201.164 107.742 L 201.167 106.567 200.542 106.637 C 200.100 106.686,199.763 106.872,199.394 107.270 C 198.986 107.710,198.740 107.833,198.269 107.833 L 197.667 107.833 197.667 107.000 L 197.667 106.167 198.333 106.167 C 199.033 106.167,199.236 105.934,198.667 105.785 C 197.665 105.523,198.394 104.167,199.537 104.167 C 200.398 104.167,200.332 104.101,200.838 105.458 C 201.249 106.558,202.596 106.125,202.925 104.787 C 203.308 103.227,205.910 103.942,205.804 105.579 L 205.750 106.417 206.455 106.468 C 206.843 106.496,207.405 106.410,207.705 106.277 C 208.005 106.144,208.381 105.993,208.542 105.940 C 208.705 105.886,208.834 105.677,208.836 105.464 C 208.842 104.430,209.246 103.971,209.429 104.792 C 209.633 105.709,209.689 105.818,210.009 105.919 C 210.247 105.995,210.333 106.174,210.333 106.595 C 210.333 107.136,210.364 107.167,210.909 107.167 L 211.484 107.167 211.534 108.188 L 211.583 109.209 212.711 109.588 C 213.801 109.955,213.844 109.957,214.005 109.657 C 214.135 109.414,214.099 109.309,213.837 109.169 C 213.654 109.071,213.454 108.786,213.392 108.537 C 213.184 107.692,212.838 107.333,212.231 107.333 C 211.612 107.333,211.473 107.084,212.000 106.917 C 212.183 106.859,212.379 106.626,212.436 106.399 C 212.500 106.144,212.785 105.861,213.183 105.658 C 213.537 105.478,213.938 105.115,214.074 104.852 C 214.463 104.099,214.443 104.101,223.833 104.039 C 236.508 103.956,235.267 103.498,235.206 108.236 L 235.162 111.667 235.917 111.667 L 236.672 111.667 236.628 107.125 L 236.583 102.583 204.750 102.555 C 187.242 102.539,172.823 102.564,172.708 102.610 M211.750 104.393 C 212.058 104.864,211.922 105.333,211.477 105.333 C 211.059 105.333,210.908 104.917,211.141 104.406 C 211.370 103.903,211.428 103.902,211.750 104.393 M203.333 106.819 C 202.436 106.915,202.416 106.929,202.363 107.480 C 202.286 108.287,202.428 108.347,204.134 108.226 L 205.667 108.117 205.667 107.392 L 205.667 106.667 204.958 106.694 C 204.569 106.709,203.838 106.765,203.333 106.819 M210.333 108.477 C 210.333 108.556,210.521 108.585,210.750 108.541 C 210.979 108.497,211.167 108.432,211.167 108.397 C 211.167 108.362,210.979 108.333,210.750 108.333 C 210.521 108.333,210.333 108.398,210.333 108.477 M207.208 109.083 C 206.834 109.352,206.743 109.737,206.934 110.236 C 207.092 110.646,208.125 110.571,208.736 110.105 C 209.021 109.888,209.496 109.657,209.793 109.592 C 210.539 109.428,210.469 109.222,209.625 109.096 C 207.761 108.816,207.582 108.815,207.208 109.083 M93.711 120.969 C 93.284 121.240,93.269 122.103,93.687 122.396 C 94.496 122.962,95.333 122.527,95.333 121.540 C 95.333 121.137,95.416 121.007,95.708 120.951 C 95.915 120.911,95.596 120.870,95.000 120.859 C 94.404 120.848,93.824 120.897,93.711 120.969 M101.042 120.955 C 101.629 121.016,101.667 121.054,101.667 121.589 C 101.667 122.376,102.327 122.746,103.128 122.409 C 103.587 122.216,103.667 122.098,103.667 121.609 C 103.667 120.890,103.505 120.826,101.778 120.861 C 101.029 120.877,100.698 120.919,101.042 120.955 M198.067 120.996 C 197.519 121.217,197.630 122.027,198.230 122.188 C 198.916 122.371,199.167 122.207,199.167 121.575 C 199.167 121.042,199.196 121.017,199.875 120.955 C 200.382 120.910,200.275 120.886,199.500 120.873 C 198.904 120.863,198.259 120.918,198.067 120.996 M205.292 120.954 C 205.782 121.015,205.833 121.074,205.833 121.582 C 205.833 122.374,206.197 122.667,207.179 122.667 L 208.000 122.667 208.000 121.851 C 208.000 120.860,207.932 120.824,206.111 120.860 C 205.363 120.875,204.994 120.917,205.292 120.954 M303.375 120.944 C 303.071 121.066,303.114 122.249,303.432 122.513 C 304.185 123.138,305.667 122.527,305.667 121.591 C 305.667 121.135,305.740 121.009,306.042 120.951 C 306.248 120.911,305.779 120.874,305.000 120.869 C 304.221 120.864,303.490 120.897,303.375 120.944 M311.167 120.982 C 311.652 121.066,311.750 121.154,311.748 121.500 C 311.745 122.088,311.968 122.333,312.507 122.333 C 313.289 122.333,313.500 122.174,313.500 121.585 C 313.500 120.928,313.248 120.828,311.667 120.859 C 310.835 120.876,310.719 120.904,311.167 120.982 M91.278 122.111 C 91.217 122.172,91.167 122.435,91.167 122.694 C 91.167 123.026,91.080 123.172,90.875 123.186 C 90.715 123.196,90.471 123.215,90.333 123.228 C 90.180 123.241,90.063 123.456,90.032 123.782 C 89.990 124.219,89.901 124.322,89.532 124.365 C 89.189 124.404,89.046 124.544,88.924 124.958 C 88.786 125.428,88.691 125.500,88.216 125.500 L 87.667 125.500 87.667 126.486 L 87.667 127.472 88.359 127.428 C 89.142 127.378,89.500 127.027,89.500 126.307 C 89.500 126.021,89.623 125.779,89.822 125.673 C 89.999 125.578,90.167 125.332,90.197 125.125 C 90.233 124.867,90.418 124.700,90.792 124.591 C 91.090 124.503,91.333 124.342,91.333 124.233 C 91.333 124.014,91.704 123.833,92.154 123.833 C 92.617 123.833,93.000 123.280,93.000 122.612 L 93.000 122.000 92.194 122.000 C 91.751 122.000,91.339 122.050,91.278 122.111 M104.199 122.779 C 104.253 123.627,104.295 123.662,105.542 123.914 C 105.794 123.965,106.000 124.117,106.000 124.253 C 106.000 124.389,106.150 124.500,106.333 124.500 C 106.593 124.500,106.667 124.611,106.667 125.004 C 106.667 125.376,106.773 125.556,107.075 125.693 C 107.330 125.809,107.525 126.075,107.594 126.398 C 107.760 127.181,108.127 127.500,108.859 127.500 L 109.500 127.500 109.500 126.500 L 109.500 125.500 108.927 125.500 C 108.403 125.500,108.350 125.454,108.302 124.958 C 108.256 124.482,108.185 124.410,107.708 124.364 C 107.260 124.321,107.167 124.242,107.167 123.906 C 107.167 123.683,107.087 123.500,106.990 123.500 C 106.893 123.500,106.855 123.433,106.905 123.352 C 106.955 123.271,106.903 123.208,106.790 123.212 C 106.145 123.235,106.019 123.145,105.969 122.625 C 105.918 122.096,105.896 122.082,105.032 122.033 L 104.148 121.982 104.199 122.779 M208.667 122.172 C 208.667 122.261,208.750 122.333,208.851 122.333 C 208.953 122.333,208.997 122.434,208.950 122.557 C 208.903 122.680,208.921 122.872,208.990 122.983 C 209.065 123.105,209.121 122.986,209.129 122.690 C 209.138 122.402,209.043 122.155,208.905 122.102 C 208.774 122.052,208.667 122.083,208.667 122.172 M300.952 122.104 C 300.887 122.169,300.833 122.430,300.833 122.684 C 300.833 123.083,300.760 123.153,300.292 123.198 C 299.815 123.244,299.744 123.315,299.698 123.792 C 299.652 124.267,299.586 124.333,299.159 124.333 C 298.786 124.333,298.650 124.426,298.573 124.730 C 298.134 126.480,299.306 126.702,300.863 125.164 C 301.432 124.602,302.107 124.034,302.363 123.901 C 302.849 123.650,303.066 123.141,302.972 122.475 C 302.916 122.079,301.278 121.778,300.952 122.104 M314.414 122.141 C 314.276 122.279,314.325 123.309,314.474 123.401 C 314.606 123.482,315.833 123.211,315.833 123.100 C 315.833 122.358,314.857 121.698,314.414 122.141 M209.500 123.825 C 209.500 124.299,209.602 124.587,209.841 124.792 C 210.028 124.952,210.417 125.327,210.705 125.625 C 211.138 126.074,211.353 126.167,211.956 126.167 L 212.684 126.167 212.634 125.292 C 212.585 124.442,212.568 124.415,212.051 124.365 C 211.588 124.320,211.513 124.245,211.468 123.782 C 211.417 123.258,211.402 123.249,210.458 123.200 L 209.500 123.150 209.500 123.825 M198.276 126.500 C 198.031 126.775,197.723 127.000,197.591 127.000 C 197.236 127.000,196.831 127.673,196.921 128.114 C 196.965 128.326,197.038 128.685,197.085 128.912 C 197.213 129.529,197.732 129.742,198.354 129.431 C 198.809 129.204,198.903 129.204,199.249 129.431 C 199.529 129.614,199.975 129.671,200.860 129.634 L 202.083 129.583 202.035 130.583 C 201.966 132.025,202.074 132.333,202.649 132.333 C 203.423 132.333,203.837 130.775,203.320 129.808 C 203.187 129.560,203.186 129.492,203.317 129.573 C 203.418 129.635,203.499 129.626,203.497 129.552 C 203.492 129.256,203.229 129.065,202.833 129.070 C 202.471 129.075,202.410 128.994,202.365 128.455 L 202.313 127.833 201.111 127.833 L 199.908 127.833 199.970 127.179 C 200.026 126.591,199.981 126.499,199.525 126.263 C 198.845 125.911,198.792 125.922,198.276 126.500 M202.695 126.266 C 202.062 126.709,202.238 127.733,202.958 127.802 C 203.435 127.848,203.500 127.914,203.500 128.344 C 203.500 128.857,203.740 128.948,204.831 128.847 C 205.602 128.775,205.751 127.877,205.091 127.284 C 204.866 127.082,204.451 126.710,204.168 126.458 C 203.579 125.934,203.233 125.889,202.695 126.266 M306.162 126.338 C 305.928 126.572,305.836 126.858,305.863 127.262 L 305.902 127.848 306.743 127.799 C 307.834 127.735,308.119 126.742,307.184 126.259 C 306.555 125.934,306.567 125.933,306.162 126.338 M96.373 126.375 C 96.281 126.490,96.174 126.868,96.136 127.216 L 96.065 127.848 96.991 127.799 C 97.896 127.751,97.918 127.738,97.968 127.224 C 98.046 126.413,96.853 125.777,96.373 126.375 M309.333 126.481 L 308.917 126.598 308.873 132.946 L 308.829 139.293 309.206 139.394 C 310.339 139.698,310.331 139.712,310.353 137.375 C 310.461 125.555,310.516 126.147,309.333 126.481 M99.375 126.607 C 99.214 126.675,99.167 128.115,99.167 133.006 L 99.167 139.318 99.739 139.426 C 100.695 139.605,100.668 139.782,100.650 133.365 C 100.630 126.315,100.589 126.096,99.375 126.607 M212.432 126.809 C 211.854 127.743,212.111 128.333,213.095 128.333 L 213.667 128.333 213.667 127.500 L 213.667 126.667 213.093 126.667 C 212.778 126.667,212.480 126.731,212.432 126.809 M297.611 126.778 C 297.206 127.183,297.511 128.167,298.042 128.164 C 298.911 128.160,299.074 127.978,298.840 127.270 C 298.647 126.684,297.974 126.415,297.611 126.778 M318.506 126.989 C 317.958 128.013,319.074 129.614,320.070 129.232 C 320.277 129.153,320.333 128.869,320.333 127.899 L 320.333 126.667 319.506 126.667 C 318.858 126.667,318.641 126.737,318.506 126.989 M303.829 127.928 C 303.204 129.573,304.844 131.167,307.164 131.167 C 307.349 131.167,307.500 131.242,307.500 131.333 C 307.500 131.425,307.275 131.500,307.000 131.500 C 306.600 131.500,306.495 131.575,306.476 131.875 C 306.429 132.604,306.534 133.417,306.683 133.472 C 306.766 133.503,306.839 133.653,306.846 133.806 C 306.855 133.980,306.891 134.006,306.944 133.874 C 306.990 133.759,307.097 133.707,307.181 133.759 C 307.265 133.811,307.343 133.755,307.355 133.635 C 307.367 133.515,307.432 133.679,307.500 134.000 C 307.573 134.349,307.632 133.461,307.645 131.792 L 307.667 129.000 306.583 129.000 L 305.500 129.000 305.500 128.423 C 305.500 127.469,304.155 127.070,303.829 127.928 M94.363 127.880 C 93.174 129.314,94.282 130.529,97.199 130.990 L 98.000 131.117 98.000 130.058 L 98.000 129.000 96.833 129.000 L 95.667 129.000 95.667 128.333 C 95.667 127.623,94.821 127.329,94.363 127.880 M86.500 129.167 L 86.500 130.500 87.175 130.500 C 87.788 130.500,87.873 130.447,88.092 129.922 C 88.609 128.684,88.229 127.833,87.157 127.833 L 86.500 127.833 86.500 129.167 M109.099 128.195 C 108.373 129.231,109.254 130.984,110.268 130.522 C 110.660 130.343,110.679 130.272,110.632 129.125 L 110.583 127.917 109.974 127.866 C 109.495 127.826,109.308 127.896,109.099 128.195 M204.667 130.417 L 204.667 131.833 205.244 131.833 C 205.932 131.833,206.167 131.498,206.167 130.519 C 206.167 129.459,205.882 129.000,205.223 129.000 L 204.667 129.000 204.667 130.417 M213.417 130.392 C 213.231 130.677,213.144 131.351,213.101 132.850 C 213.027 135.431,213.185 135.826,214.292 135.831 L 214.833 135.833 214.833 133.018 C 214.833 130.604,214.796 130.188,214.570 130.101 C 214.060 129.906,213.672 130.004,213.417 130.392 M296.542 130.110 C 296.387 130.173,296.333 130.914,296.333 133.014 L 296.333 135.833 296.913 135.833 C 297.844 135.833,297.980 135.451,297.920 133.000 C 297.853 130.279,297.574 129.694,296.542 130.110 M189.778 131.278 C 189.717 131.339,189.667 131.864,189.667 132.444 L 189.667 133.500 190.308 133.500 C 191.299 133.500,191.853 132.676,191.422 131.843 C 191.109 131.239,190.147 130.908,189.778 131.278 M97.383 131.802 C 96.744 131.863,96.626 132.138,96.671 133.466 C 96.689 133.989,96.700 135.563,96.697 136.964 L 96.691 139.511 97.304 139.400 C 97.641 139.339,97.937 139.273,97.962 139.252 C 97.986 139.232,97.986 137.536,97.962 135.483 L 97.917 131.750 97.383 131.802 M203.500 133.231 C 203.500 134.244,203.843 134.506,204.658 134.117 C 205.565 133.683,205.127 132.333,204.079 132.333 L 203.500 132.333 203.500 133.231 M200.942 133.138 C 200.791 133.306,200.667 133.529,200.667 133.634 C 200.667 133.739,200.436 133.944,200.154 134.090 C 199.872 134.235,199.569 134.565,199.479 134.821 C 199.390 135.078,199.135 135.370,198.913 135.471 C 198.691 135.573,198.460 135.851,198.400 136.090 C 198.338 136.338,198.114 136.592,197.878 136.682 C 197.510 136.821,197.416 137.797,197.738 138.126 C 197.992 138.386,198.833 137.898,198.833 137.490 C 198.833 137.083,198.905 137.014,199.375 136.969 C 199.849 136.923,199.923 136.850,199.968 136.385 C 200.013 135.922,200.088 135.846,200.551 135.801 C 201.015 135.757,201.090 135.681,201.135 135.218 C 201.180 134.755,201.255 134.680,201.718 134.635 C 202.235 134.585,202.251 134.558,202.300 133.708 L 202.351 132.833 201.785 132.833 C 201.448 132.833,201.107 132.957,200.942 133.138 M86.867 134.796 C 86.184 134.908,86.389 136.898,87.092 136.966 C 88.012 137.056,88.623 135.894,88.036 135.170 C 87.703 134.758,87.498 134.693,86.867 134.796 M307.061 134.786 C 306.226 134.891,306.080 136.725,306.894 136.885 L 307.250 136.955 306.893 136.977 C 306.495 137.003,306.320 137.753,306.459 138.840 C 306.531 139.400,306.562 139.426,307.101 139.363 L 307.667 139.297 307.667 136.982 C 307.667 135.708,307.648 134.679,307.625 134.693 C 307.602 134.708,307.348 134.750,307.061 134.786 M109.089 135.323 C 108.575 136.317,109.721 137.546,110.467 136.800 C 110.677 136.590,110.738 135.546,110.566 135.097 C 110.377 134.606,109.381 134.758,109.089 135.323 M201.167 136.896 C 201.167 138.136,201.220 138.167,203.428 138.167 L 204.648 138.167 204.699 138.864 C 204.767 139.797,205.548 140.208,206.163 139.634 C 207.179 138.687,206.372 137.183,204.624 136.765 C 203.960 136.607,203.169 136.332,202.865 136.155 C 202.562 135.978,202.056 135.833,201.740 135.833 L 201.167 135.833 201.167 136.896 M190.833 137.197 C 190.833 137.727,190.904 138.001,191.042 138.002 C 191.156 138.004,191.407 138.047,191.599 138.098 C 191.873 138.172,191.994 138.083,192.156 137.693 C 192.490 136.885,192.342 136.596,191.539 136.489 L 190.833 136.394 190.833 137.197 M318.796 136.609 C 318.383 137.022,319.006 138.249,319.553 138.102 C 319.753 138.048,320.010 138.004,320.125 138.002 C 320.264 138.001,320.333 137.721,320.333 137.167 L 320.333 136.333 319.702 136.333 C 319.337 136.333,318.955 136.450,318.796 136.609 M297.575 137.314 C 297.534 137.355,297.500 137.793,297.500 138.287 L 297.500 139.185 298.292 139.134 L 299.083 139.083 299.134 138.385 C 299.199 137.499,298.127 136.762,297.575 137.314 M87.667 138.447 C 87.667 139.179,88.687 139.595,88.920 138.958 C 89.210 138.164,89.096 137.927,88.375 137.826 L 87.667 137.728 87.667 138.447 M108.232 138.264 C 108.288 138.409,108.333 138.665,108.333 138.832 C 108.333 139.466,109.405 139.182,109.431 138.542 C 109.452 138.018,109.430 138.000,108.792 138.000 C 108.258 138.000,108.150 138.051,108.232 138.264 M317.704 138.759 C 317.500 138.902,317.333 139.093,317.333 139.184 C 317.333 139.275,316.883 139.798,316.333 140.347 C 315.446 141.231,315.333 141.418,315.333 142.005 L 315.333 142.667 316.083 142.667 C 316.829 142.667,316.833 142.664,316.833 142.083 C 316.833 141.528,316.861 141.500,317.417 141.500 C 317.972 141.500,318.000 141.472,318.000 140.917 C 318.000 140.361,318.028 140.333,318.583 140.333 L 319.167 140.333 319.167 139.417 L 319.167 138.500 318.620 138.500 C 318.320 138.500,317.907 138.617,317.704 138.759 M192.000 139.500 L 192.000 140.333 192.583 140.333 C 193.139 140.333,193.167 140.361,193.167 140.917 C 193.167 141.472,193.194 141.500,193.750 141.500 C 194.306 141.500,194.333 141.528,194.333 142.083 C 194.333 142.661,194.340 142.667,195.066 142.667 C 196.190 142.667,196.379 141.806,195.417 141.072 C 195.096 140.827,194.833 140.551,194.833 140.458 C 194.833 139.990,193.178 138.667,192.593 138.667 L 192.000 138.667 192.000 139.500 M211.208 138.944 C 211.094 138.990,211.001 139.228,211.003 139.472 C 211.009 140.679,212.548 140.744,212.635 139.542 L 212.686 138.833 212.051 138.846 C 211.702 138.854,211.323 138.897,211.208 138.944 M90.292 140.631 C 90.053 140.680,90.000 140.872,90.000 141.679 L 90.000 142.667 90.917 142.667 L 91.833 142.667 91.833 141.949 C 91.833 140.898,91.281 140.426,90.292 140.631 M92.792 142.262 C 92.410 142.469,92.333 142.622,92.333 143.172 L 92.333 143.833 93.233 143.833 L 94.133 143.833 94.133 143.233 C 94.133 142.233,93.582 141.833,92.792 142.262 M103.429 142.262 C 103.285 142.406,103.167 142.700,103.167 142.915 C 103.167 143.130,103.121 143.425,103.066 143.570 C 102.981 143.791,103.115 143.833,103.899 143.833 L 104.833 143.833 104.833 143.203 C 104.833 142.683,104.748 142.521,104.349 142.286 C 103.759 141.937,103.753 141.937,103.429 142.262 M302.262 142.262 C 302.113 142.411,302.000 142.806,302.000 143.179 L 302.000 143.833 303.083 143.833 L 304.167 143.833 304.167 143.250 C 304.167 142.207,302.949 141.575,302.262 142.262 M313.259 142.542 C 313.224 142.656,313.153 142.998,313.100 143.301 L 313.005 143.851 313.794 143.801 C 314.509 143.755,314.588 143.708,314.635 143.308 C 314.713 142.629,313.448 141.924,313.259 142.542 M196.917 142.642 C 196.152 142.890,196.442 143.770,197.298 143.803 L 197.925 143.828 197.862 143.164 C 197.796 142.476,197.659 142.400,196.917 142.642 M96.297 143.395 C 95.855 143.692,95.750 143.874,95.750 144.340 L 95.750 144.917 99.125 144.962 L 102.500 145.007 102.500 144.259 C 102.500 143.212,102.210 143.086,100.177 143.252 C 98.159 143.416,98.029 143.414,97.380 143.202 C 96.924 143.052,96.762 143.081,96.297 143.395 M199.278 143.373 C 198.895 143.685,198.817 143.865,198.862 144.337 L 198.917 144.917 202.292 144.962 L 205.667 145.007 205.667 144.363 C 205.667 143.504,205.219 143.092,204.374 143.172 C 203.219 143.281,200.921 143.251,200.333 143.119 C 199.852 143.011,199.667 143.056,199.278 143.373 M306.333 143.131 C 305.785 143.305,305.500 143.726,305.500 144.363 L 305.500 145.007 308.875 144.962 L 312.250 144.917 312.301 144.302 C 312.386 143.280,311.933 143.105,309.543 143.240 C 308.465 143.301,307.358 143.283,307.083 143.201 C 306.808 143.119,306.471 143.087,306.333 143.131 " stroke="none" fill="#777779" fill-rule="evenodd"></path><path id="path1" d="M47.372 20.208 C 47.130 20.506,47.007 23.107,47.224 23.324 C 47.543 23.643,362.153 23.564,362.275 23.245 C 362.329 23.105,362.308 22.336,362.228 21.537 L 362.083 20.083 204.812 20.042 C 79.121 20.008,47.507 20.042,47.372 20.208 M104.912 45.863 C 104.996 47.204,104.946 47.123,105.625 47.013 C 106.237 46.915,106.251 46.896,106.301 46.115 L 106.352 45.317 105.618 45.355 C 104.924 45.391,104.885 45.419,104.912 45.863 M308.872 46.016 C 308.835 46.533,308.877 46.629,309.122 46.582 C 309.284 46.551,309.585 46.520,309.792 46.513 C 310.108 46.502,310.167 46.407,310.167 45.910 C 310.167 44.966,308.940 45.067,308.872 46.016 M313.571 45.555 C 313.262 46.361,313.572 47.249,314.181 47.300 C 314.918 47.362,315.116 47.140,315.192 46.167 L 315.250 45.417 314.457 45.366 C 313.884 45.329,313.638 45.382,313.571 45.555 M95.686 46.458 L 95.667 47.500 94.602 47.500 L 93.537 47.500 93.432 48.061 C 93.228 49.149,93.638 49.388,95.009 48.978 L 95.640 48.788 95.754 47.421 C 95.817 46.669,95.832 45.911,95.787 45.735 C 95.742 45.560,95.697 45.885,95.686 46.458 M109.226 46.495 C 108.678 46.722,108.333 47.337,108.333 48.087 C 108.333 48.836,108.830 49.167,109.956 49.167 C 110.240 49.167,110.511 49.260,110.558 49.375 C 110.605 49.490,110.638 48.890,110.630 48.042 C 110.621 47.041,110.552 46.499,110.433 46.498 C 110.333 46.496,110.100 46.462,109.917 46.421 C 109.733 46.380,109.423 46.413,109.226 46.495 M305.500 47.672 C 305.500 47.800,305.852 47.844,306.584 47.806 C 307.180 47.775,307.691 47.821,307.720 47.908 C 307.749 47.995,307.817 47.950,307.872 47.807 C 307.956 47.589,307.777 47.543,306.736 47.515 C 305.904 47.493,305.500 47.545,305.500 47.672 M311.000 48.167 L 311.000 48.833 311.667 48.833 L 312.333 48.833 312.333 48.167 L 312.333 47.500 311.667 47.500 L 311.000 47.500 311.000 48.167 M90.000 48.667 C 90.000 49.148,90.150 49.294,90.394 49.050 C 90.458 48.986,90.838 48.954,91.238 48.978 C 91.973 49.024,92.352 48.785,92.040 48.473 C 91.803 48.236,90.953 48.171,90.708 48.371 C 90.564 48.488,90.500 48.483,90.500 48.354 C 90.500 48.251,90.388 48.167,90.250 48.167 C 90.083 48.167,90.000 48.333,90.000 48.667 M298.545 49.500 C 298.545 49.913,298.578 50.081,298.618 49.875 C 298.657 49.669,298.657 49.331,298.618 49.125 C 298.578 48.919,298.545 49.087,298.545 49.500 M105.000 49.391 C 105.000 49.720,104.929 49.752,104.333 49.695 L 103.667 49.632 103.667 50.305 C 103.667 50.943,103.692 50.977,104.161 50.964 C 104.433 50.956,104.623 50.897,104.583 50.833 C 104.543 50.768,104.626 50.573,104.768 50.400 C 104.909 50.226,104.977 50.178,104.918 50.293 C 104.778 50.569,105.221 51.000,105.645 51.000 C 105.991 51.000,106.319 49.804,106.117 49.278 C 105.960 48.867,105.000 48.964,105.000 49.391 M313.297 49.092 C 313.247 49.142,313.291 49.369,313.395 49.596 C 313.674 50.207,315.551 50.145,315.639 49.522 C 315.694 49.134,315.675 49.129,314.527 49.193 C 313.885 49.230,313.395 49.201,313.440 49.130 C 313.531 48.981,313.434 48.955,313.297 49.092 M96.833 49.603 C 96.833 49.946,98.176 51.000,98.613 51.000 C 99.457 51.000,99.402 49.914,98.546 49.677 C 97.854 49.485,96.833 49.441,96.833 49.603 M302.114 49.977 C 302.059 50.264,302.143 50.479,302.387 50.677 C 302.869 51.067,303.167 50.904,303.167 50.251 C 303.167 49.514,302.249 49.275,302.114 49.977 M306.532 50.208 C 306.579 50.862,306.618 50.915,307.042 50.900 C 308.003 50.865,308.023 50.855,307.839 50.511 C 307.744 50.334,307.667 50.034,307.667 49.844 C 307.667 49.561,307.562 49.500,307.074 49.500 L 306.481 49.500 306.532 50.208 M307.895 49.868 C 307.727 50.140,308.195 51.025,308.454 50.925 C 308.586 50.875,308.754 50.833,308.827 50.833 C 308.901 50.833,308.949 50.590,308.934 50.292 C 308.907 49.749,308.158 49.443,307.895 49.868 M316.306 50.142 C 316.596 50.412,316.833 50.716,316.833 50.817 C 316.833 50.918,317.100 51.000,317.427 51.000 C 318.011 51.000,318.019 50.990,317.968 50.375 L 317.917 49.750 316.848 49.700 L 315.780 49.649 316.306 50.142 M199.929 52.267 C 200.027 52.308,200.077 52.550,200.040 52.804 C 199.985 53.175,200.058 53.306,200.405 53.464 C 200.643 53.573,200.924 53.850,201.029 54.081 L 201.220 54.500 204.008 54.500 L 206.795 54.500 207.077 54.070 C 207.231 53.834,207.585 53.562,207.861 53.465 C 208.291 53.315,208.355 53.220,208.295 52.816 C 208.257 52.555,208.306 52.308,208.404 52.267 C 208.503 52.226,206.596 52.193,204.167 52.193 C 201.737 52.193,199.830 52.226,199.929 52.267 M71.000 54.013 C 71.000 54.646,70.956 54.711,70.368 54.942 C 70.020 55.078,69.664 55.354,69.576 55.553 C 69.461 55.817,69.244 55.931,68.790 55.969 L 68.163 56.020 68.169 70.058 L 68.174 84.096 68.703 84.137 C 69.351 84.186,69.399 84.231,69.409 84.794 C 69.417 85.280,70.176 85.505,70.606 85.148 C 70.743 85.034,75.493 84.987,84.864 85.006 C 92.593 85.021,99.067 85.029,99.250 85.024 C 99.433 85.019,105.873 85.015,113.561 85.015 C 124.048 85.015,127.773 84.964,128.478 84.809 C 129.629 84.556,130.590 83.839,130.733 83.128 C 130.879 82.397,131.128 82.167,131.770 82.167 L 132.333 82.167 132.333 69.833 L 132.333 57.500 131.781 57.500 C 131.264 57.500,131.202 57.437,130.837 56.542 C 130.611 55.987,130.212 55.385,129.890 55.113 C 129.433 54.727,129.333 54.525,129.333 53.988 L 129.333 53.333 100.167 53.333 L 71.000 53.333 71.000 54.013 M196.333 54.153 C 196.333 55.385,196.417 55.500,197.318 55.500 L 198.100 55.500 198.033 54.932 C 197.975 54.435,197.895 54.351,197.393 54.257 C 196.992 54.181,196.771 54.025,196.663 53.741 C 196.429 53.126,196.333 53.246,196.333 54.153 M211.098 53.781 C 210.504 54.595,210.458 55.500,211.011 55.500 C 211.615 55.500,212.167 54.752,212.167 53.933 C 212.167 53.181,211.595 53.100,211.098 53.781 M279.302 53.958 L 279.250 54.583 278.042 54.525 L 276.833 54.467 276.833 55.573 C 276.833 56.345,276.921 56.813,277.125 57.124 C 277.569 57.801,277.561 82.305,277.117 82.796 C 276.682 83.277,276.772 83.500,277.402 83.500 C 277.836 83.500,278.076 83.625,278.415 84.029 C 279.245 85.015,278.341 84.986,308.665 84.992 C 338.613 84.997,337.078 85.042,338.098 84.135 C 338.290 83.964,338.728 83.815,339.073 83.802 C 339.833 83.773,339.973 83.497,339.612 82.740 C 339.201 81.879,339.156 56.042,339.565 55.743 C 339.716 55.632,339.833 55.311,339.833 55.006 L 339.833 54.466 338.625 54.524 L 337.417 54.583 337.365 53.958 L 337.313 53.333 324.157 53.333 C 316.920 53.333,311.000 53.392,311.000 53.464 C 311.000 53.979,310.029 54.155,309.429 53.748 L 308.819 53.333 294.086 53.333 L 279.353 53.333 279.302 53.958 M193.667 55.016 C 193.667 55.754,194.138 56.667,194.519 56.667 C 194.912 56.667,194.946 55.926,194.592 55.078 C 194.266 54.298,193.667 54.259,193.667 55.016 M214.748 54.871 C 214.657 55.076,214.342 55.310,214.042 55.395 C 213.546 55.535,213.500 55.605,213.500 56.219 C 213.500 56.916,213.587 56.933,213.904 56.295 C 214.052 55.995,214.255 55.906,214.879 55.866 L 215.667 55.815 215.667 56.824 C 215.667 57.594,215.724 57.833,215.908 57.833 C 216.291 57.833,217.000 56.776,217.000 56.204 C 217.000 55.770,217.072 55.678,217.458 55.619 C 217.710 55.581,217.485 55.539,216.958 55.525 C 216.010 55.500,216.000 55.495,216.000 55.000 C 216.000 54.345,215.026 54.244,214.748 54.871 M191.375 55.615 C 192.148 55.817,191.681 57.351,190.781 57.566 C 190.462 57.643,190.257 57.836,190.140 58.173 C 190.045 58.444,189.906 58.667,189.831 58.667 C 189.755 58.667,189.578 58.711,189.435 58.766 C 189.276 58.827,188.998 58.678,188.713 58.380 C 188.224 57.869,187.502 57.744,187.367 58.148 C 187.320 58.289,187.364 58.334,187.478 58.263 C 187.582 58.199,187.667 58.222,187.667 58.314 C 187.667 58.405,187.592 58.527,187.500 58.583 C 187.163 58.791,187.351 58.960,188.042 59.071 C 188.449 59.136,188.934 59.360,189.182 59.598 C 189.420 59.826,189.901 60.059,190.250 60.116 L 190.885 60.219 190.787 59.609 L 190.688 59.000 191.344 59.000 C 191.983 59.000,192.000 58.985,192.000 58.417 C 192.000 57.987,192.072 57.833,192.273 57.833 C 192.505 57.833,192.532 57.693,192.451 56.905 C 192.338 55.816,192.121 55.493,191.521 55.519 C 191.239 55.532,191.187 55.566,191.375 55.615 M127.044 56.486 C 127.324 56.630,127.557 56.924,127.637 57.236 C 127.726 57.584,127.945 57.834,128.313 58.010 C 129.169 58.419,129.161 58.344,129.164 65.869 C 129.167 72.651,129.152 72.996,128.855 73.155 C 128.684 73.247,128.499 73.545,128.445 73.818 C 128.247 74.805,129.937 74.747,100.143 74.788 L 72.703 74.827 72.264 74.481 C 71.343 73.757,71.326 73.591,71.339 65.613 C 71.352 56.956,71.336 57.036,73.250 56.375 C 74.107 56.079,126.461 56.187,127.044 56.486 M335.757 56.563 C 337.179 57.467,337.449 58.066,336.750 58.765 C 336.181 59.334,336.131 61.127,336.674 61.466 C 337.377 61.905,337.362 63.128,336.649 63.509 C 336.079 63.815,336.201 65.576,336.833 66.167 C 337.276 66.580,337.333 66.743,337.333 67.583 C 337.333 68.424,337.276 68.587,336.833 69.000 C 336.227 69.566,336.083 72.114,336.599 73.147 C 336.923 73.797,336.833 74.071,336.157 74.481 C 335.691 74.765,323.121 75.030,318.833 74.848 C 318.512 74.834,313.249 74.806,307.137 74.786 C 296.236 74.751,296.016 74.744,295.568 74.410 L 295.113 74.069 294.731 74.451 L 294.348 74.833 287.894 74.833 C 281.654 74.833,281.414 74.822,280.707 74.479 C 279.633 73.959,279.642 74.036,279.665 66.252 C 279.676 62.401,279.678 58.932,279.669 58.543 C 279.641 57.268,280.454 56.489,282.000 56.311 C 284.638 56.007,335.257 56.245,335.757 56.563 M218.176 57.063 C 217.994 57.555,218.138 57.933,218.586 58.137 C 218.833 58.250,218.996 58.487,219.030 58.783 C 219.069 59.121,219.175 59.250,219.417 59.250 C 219.807 59.250,219.965 58.497,219.693 57.931 C 219.601 57.740,219.484 57.390,219.433 57.153 C 219.312 56.588,218.376 56.521,218.176 57.063 M220.501 59.995 C 220.212 60.178,220.409 60.436,220.906 60.526 C 221.109 60.562,221.282 60.788,221.371 61.133 C 221.583 61.949,222.673 62.101,222.912 61.347 C 223.148 60.605,222.857 60.213,221.985 60.097 C 221.533 60.037,221.070 59.954,220.956 59.912 C 220.843 59.871,220.638 59.908,220.501 59.995 M186.052 62.156 C 185.758 63.120,185.702 63.167,184.837 63.167 C 184.145 63.167,184.000 63.218,184.000 63.464 C 184.000 64.223,186.092 64.694,186.197 63.958 C 186.238 63.665,186.358 63.583,186.750 63.583 C 187.226 63.583,187.252 63.547,187.300 62.811 L 187.350 62.038 186.741 61.967 C 186.291 61.915,186.111 61.964,186.052 62.156 M222.215 64.129 C 222.206 64.450,222.278 64.664,222.391 64.650 C 222.842 64.596,223.000 64.687,223.000 65.000 C 223.000 65.183,223.056 65.340,223.125 65.347 C 223.194 65.355,223.438 65.392,223.667 65.430 C 224.220 65.521,225.167 64.936,225.167 64.502 C 225.167 64.200,225.058 64.167,224.083 64.167 C 223.163 64.167,223.000 64.123,223.000 63.875 C 223.000 63.270,222.232 63.518,222.215 64.129 M182.833 65.598 C 182.833 66.123,183.435 66.500,184.273 66.500 C 184.676 66.500,185.008 66.588,185.056 66.708 C 185.103 66.823,185.146 66.685,185.154 66.401 C 185.172 65.692,184.739 65.358,183.702 65.280 C 182.888 65.219,182.833 65.238,182.833 65.598 M186.209 65.917 C 186.211 66.283,186.245 66.414,186.285 66.206 C 186.324 65.999,186.323 65.699,186.281 65.540 C 186.239 65.380,186.207 65.550,186.209 65.917 M224.690 66.764 C 223.940 67.079,224.019 67.602,224.807 67.540 C 225.503 67.485,226.333 67.062,226.333 66.762 C 226.333 66.460,225.410 66.461,224.690 66.764 M181.720 67.768 C 181.652 67.946,181.793 68.174,182.142 68.447 C 182.431 68.673,182.667 68.957,182.667 69.078 C 182.667 69.213,182.924 69.323,183.333 69.362 L 184.000 69.425 184.000 68.813 C 184.000 67.846,182.035 66.946,181.720 67.768 M225.792 70.009 C 225.010 70.832,224.835 72.294,225.542 72.105 C 225.748 72.050,226.048 72.004,226.208 72.002 C 226.392 72.001,226.500 71.872,226.500 71.654 C 226.500 71.463,226.729 71.079,227.009 70.799 C 227.692 70.115,227.648 69.432,226.917 69.384 C 226.528 69.359,226.277 69.498,225.792 70.009 M180.500 73.121 L 180.500 74.937 181.000 75.307 C 181.712 75.833,181.712 76.728,181.001 77.133 L 180.502 77.417 180.501 79.054 L 180.500 80.692 181.042 80.640 C 181.356 80.610,181.781 80.395,182.054 80.128 C 182.314 79.874,182.595 79.667,182.679 79.667 C 182.769 79.667,182.833 78.007,182.833 75.684 C 182.833 71.184,182.959 71.554,181.381 71.394 L 180.500 71.304 180.500 73.121 M301.045 77.625 C 301.621 78.265,301.481 79.333,300.821 79.333 C 300.630 79.333,300.622 80.171,300.811 80.469 C 300.919 80.639,301.058 80.597,301.437 80.277 C 302.378 79.486,303.166 79.606,303.168 80.542 L 303.170 81.250 304.363 81.288 C 305.838 81.336,306.060 81.188,305.908 80.263 C 305.769 79.419,305.622 79.233,305.001 79.108 C 304.076 78.923,304.127 77.758,305.075 77.420 C 305.484 77.275,305.592 77.322,306.096 77.873 C 306.728 78.562,307.379 78.948,308.000 79.001 C 308.680 79.060,308.833 79.013,308.833 78.750 C 308.833 78.310,309.965 78.418,310.030 78.863 C 310.079 79.200,310.165 79.224,311.204 79.185 L 312.325 79.144 312.321 80.447 C 312.317 81.445,312.397 81.906,312.661 82.417 C 312.985 83.041,312.988 83.096,312.721 83.292 C 312.335 83.574,312.283 83.562,311.766 83.083 C 311.471 82.810,311.123 82.667,310.753 82.667 C 310.296 82.667,310.180 82.596,310.137 82.292 C 310.097 82.013,309.954 81.903,309.583 81.862 C 309.308 81.832,309.012 81.738,308.925 81.654 C 308.344 81.089,306.722 81.676,306.329 82.593 C 305.710 84.037,304.058 83.892,303.349 82.333 L 303.083 81.750 302.000 81.833 L 300.917 81.917 300.917 82.567 C 300.917 83.161,300.866 83.234,300.327 83.421 C 298.936 83.902,297.597 82.454,298.586 81.537 C 299.165 81.000,299.058 80.191,298.301 79.384 C 297.916 78.972,297.853 78.294,298.166 77.917 C 298.458 77.566,299.441 77.593,299.653 77.958 C 299.814 78.235,299.823 78.234,299.828 77.953 C 299.831 77.790,300.002 77.588,300.208 77.505 C 300.731 77.295,300.750 77.298,301.045 77.625 M318.038 77.694 C 318.746 78.055,318.645 79.500,317.912 79.500 C 317.629 79.500,317.611 79.581,317.811 79.969 C 317.890 80.124,318.003 80.910,318.062 81.716 L 318.170 83.182 317.564 83.436 C 316.597 83.840,315.751 83.614,315.156 82.792 C 314.438 81.801,314.486 81.202,315.287 81.135 C 316.115 81.066,316.663 79.835,316.124 79.252 C 315.086 78.128,316.551 76.935,318.038 77.694 M102.178 78.006 C 102.364 78.106,102.508 78.369,102.520 78.631 L 102.539 79.083 102.646 78.587 C 102.885 77.472,104.072 77.663,104.315 78.857 C 104.422 79.379,104.483 79.423,105.215 79.508 L 106.000 79.599 106.000 79.049 C 106.000 78.533,106.035 78.500,106.583 78.500 L 107.167 78.500 107.167 80.313 C 107.167 81.309,107.214 82.359,107.271 82.646 C 107.353 83.058,107.319 83.167,107.104 83.167 C 106.955 83.167,106.842 83.110,106.853 83.042 C 107.028 81.936,105.439 81.596,105.220 82.692 C 105.088 83.354,104.922 83.409,104.342 82.980 C 103.861 82.624,103.821 82.621,103.153 82.883 C 102.124 83.287,101.223 82.864,100.917 81.833 C 100.719 81.165,100.327 80.833,99.734 80.833 C 99.433 80.833,99.148 80.772,99.102 80.696 C 99.019 80.562,99.642 79.925,99.861 79.919 C 100.247 79.910,100.466 79.000,100.082 79.000 C 99.945 79.000,99.833 78.887,99.833 78.750 C 99.833 78.447,100.106 78.418,100.223 78.708 C 100.274 78.835,100.312 78.804,100.320 78.630 C 100.346 78.065,101.539 77.664,102.178 78.006 M95.702 80.042 L 95.750 81.583 96.742 81.538 C 97.288 81.514,97.783 81.415,97.843 81.318 C 97.902 81.222,97.994 81.507,98.047 81.952 C 98.099 82.396,98.167 82.870,98.196 83.005 C 98.226 83.140,98.138 83.250,98.000 83.250 C 97.860 83.250,97.725 83.067,97.692 82.833 C 97.554 81.832,95.886 81.568,95.505 82.488 C 95.171 83.295,94.796 83.526,93.910 83.468 C 92.886 83.402,92.636 83.063,93.042 82.294 C 93.250 81.899,93.334 81.305,93.351 80.125 L 93.373 78.500 94.514 78.500 L 95.654 78.500 95.702 80.042 M314.500 79.750 C 314.500 79.944,314.278 80.000,313.500 80.000 C 312.722 80.000,312.500 79.944,312.500 79.750 C 312.500 79.556,312.722 79.500,313.500 79.500 C 314.278 79.500,314.500 79.556,314.500 79.750 M225.174 81.068 C 225.182 82.053,225.855 82.667,226.928 82.667 L 227.500 82.667 227.500 81.746 C 227.500 80.716,227.344 80.580,225.875 80.337 L 225.167 80.220 225.174 81.068 M309.366 82.833 C 309.439 82.833,309.500 82.908,309.500 83.000 C 309.500 83.092,309.350 83.167,309.167 83.167 C 308.889 83.167,308.836 83.061,308.851 82.542 C 308.869 81.918,308.869 81.917,309.050 82.375 C 309.150 82.627,309.292 82.833,309.366 82.833 M183.333 82.793 C 181.712 82.914,181.644 82.952,181.699 83.718 L 181.750 84.417 182.583 84.398 C 184.166 84.363,184.216 84.308,183.949 82.917 C 183.931 82.825,183.654 82.769,183.333 82.793 M224.167 84.833 C 224.167 85.109,224.078 85.333,223.968 85.333 C 223.859 85.333,223.915 85.443,224.093 85.578 C 224.474 85.866,226.333 85.930,226.333 85.655 C 226.333 85.280,225.123 84.333,224.643 84.333 C 224.225 84.333,224.167 84.394,224.167 84.833 M185.025 85.708 C 185.006 85.927,184.851 86.000,184.408 86.000 C 183.652 86.000,182.833 86.421,182.833 86.810 C 182.833 87.080,182.931 87.098,183.775 86.983 C 184.885 86.832,185.221 86.562,185.122 85.897 C 185.082 85.633,185.039 85.548,185.025 85.708 M223.937 86.952 C 223.791 87.098,223.808 87.829,223.958 87.852 C 224.669 87.960,225.007 87.957,225.078 87.842 C 225.184 87.670,224.080 86.809,223.937 86.952 M184.833 88.124 C 183.802 88.479,183.599 90.000,184.583 90.000 C 184.991 90.000,185.167 90.075,185.167 90.250 C 185.167 90.436,185.362 90.500,185.924 90.500 C 186.589 90.500,186.717 90.561,186.965 90.992 C 187.120 91.263,187.398 91.523,187.582 91.571 C 187.766 91.618,188.044 91.884,188.201 92.162 C 188.357 92.440,188.599 92.667,188.739 92.667 C 188.879 92.667,189.040 92.851,189.097 93.077 C 189.153 93.302,189.455 93.637,189.766 93.821 C 190.279 94.123,190.333 94.228,190.333 94.911 C 190.333 95.472,190.398 95.667,190.583 95.667 C 190.758 95.667,190.833 95.843,190.833 96.250 C 190.833 97.045,191.560 97.081,192.318 96.323 C 192.717 95.924,192.948 95.823,193.373 95.864 L 193.917 95.917 193.966 96.958 C 194.015 97.990,194.211 98.318,194.384 97.657 C 194.433 97.469,194.705 97.227,194.987 97.121 C 195.817 96.807,195.760 95.667,194.914 95.667 C 194.415 95.667,194.289 95.585,194.066 95.118 C 193.771 94.499,193.236 94.351,193.080 94.844 C 192.647 96.210,191.189 95.421,191.365 93.916 C 191.421 93.441,191.378 93.333,191.133 93.333 C 190.911 93.333,190.833 93.204,190.833 92.833 C 190.833 92.375,190.786 92.333,190.261 92.333 C 189.736 92.333,189.683 92.288,189.636 91.792 C 189.590 91.318,189.517 91.244,189.051 91.199 C 188.588 91.154,188.513 91.078,188.468 90.615 C 188.423 90.150,188.349 90.077,187.875 90.031 C 187.539 89.999,187.333 89.888,187.333 89.739 C 187.333 89.568,187.129 89.500,186.617 89.500 C 185.865 89.500,185.500 89.282,185.500 88.832 C 185.500 88.432,185.118 88.026,184.833 88.124 M221.833 88.669 C 221.833 88.762,222.075 88.985,222.371 89.165 C 222.945 89.514,223.317 89.298,223.103 88.740 C 222.997 88.466,221.833 88.401,221.833 88.669 M221.533 90.700 C 221.423 90.810,221.333 91.074,221.333 91.287 C 221.333 91.548,221.196 91.727,220.915 91.834 C 220.684 91.922,220.409 92.183,220.303 92.416 C 220.189 92.666,219.906 92.891,219.610 92.968 C 219.252 93.061,219.057 93.248,218.929 93.620 C 218.831 93.908,218.696 94.196,218.630 94.260 C 218.458 94.430,217.514 94.005,217.340 93.680 C 217.165 93.353,216.095 93.307,216.063 93.625 C 216.051 93.740,216.032 93.975,216.021 94.147 C 216.009 94.320,215.840 94.503,215.643 94.554 C 215.003 94.722,215.569 96.833,216.254 96.833 C 216.441 96.833,216.500 96.614,216.500 95.920 C 216.500 94.751,217.915 94.277,218.250 95.334 C 218.464 96.007,219.494 95.788,219.426 95.083 C 219.370 94.507,219.377 94.500,220.018 94.500 C 220.648 94.500,220.667 94.483,220.667 93.917 C 220.667 93.361,220.695 93.333,221.248 93.333 C 221.700 93.333,221.824 93.268,221.805 93.042 C 221.744 92.318,221.833 92.167,222.315 92.167 C 223.151 92.167,223.205 90.966,222.383 90.654 C 221.860 90.455,221.774 90.460,221.533 90.700 M213.212 96.458 C 213.291 97.265,213.813 98.822,213.826 98.292 C 213.831 98.111,213.963 98.000,214.175 98.000 C 214.484 98.000,214.508 97.925,214.425 97.221 C 214.238 95.631,213.058 94.889,213.212 96.458 M197.532 97.245 C 197.429 97.472,197.162 97.703,196.939 97.759 C 196.205 97.943,196.243 98.946,196.988 99.086 C 197.405 99.164,197.595 99.132,197.647 98.974 C 197.688 98.853,197.921 98.553,198.166 98.308 C 198.794 97.680,198.794 96.833,198.166 96.833 C 197.854 96.833,197.664 96.957,197.532 97.245 M210.013 97.656 C 210.215 98.935,210.412 99.195,211.136 99.134 C 212.450 99.025,212.031 96.833,210.696 96.833 L 209.883 96.833 210.013 97.656 M204.425 98.308 C 204.312 98.662,203.663 99.000,203.096 99.000 C 202.026 99.000,201.633 99.193,201.705 99.684 C 201.753 100.011,201.694 100.175,201.512 100.224 C 201.368 100.263,202.544 100.303,204.125 100.314 L 207.000 100.333 207.000 99.703 C 207.000 99.153,206.935 99.049,206.487 98.879 C 206.205 98.773,205.933 98.531,205.884 98.343 C 205.761 97.871,204.572 97.843,204.425 98.308 M151.627 101.451 C 151.834 101.491,152.134 101.490,152.294 101.448 C 152.453 101.406,152.283 101.374,151.917 101.375 C 151.550 101.377,151.420 101.411,151.627 101.451 M360.127 101.451 C 360.334 101.491,360.634 101.490,360.794 101.448 C 360.953 101.406,360.783 101.374,360.417 101.375 C 360.050 101.377,359.920 101.411,360.127 101.451 M216.208 102.619 C 216.460 102.658,216.873 102.658,217.125 102.619 C 217.377 102.581,217.171 102.550,216.667 102.550 C 216.162 102.550,215.956 102.581,216.208 102.619 M173.542 104.123 L 172.500 104.183 172.500 107.924 L 172.500 111.665 203.809 111.664 L 235.117 111.664 235.200 109.790 C 235.428 104.628,235.334 104.290,233.621 104.085 C 232.359 103.934,214.972 104.072,214.619 104.236 C 214.455 104.312,214.210 104.589,214.074 104.852 C 213.938 105.115,213.537 105.478,213.183 105.658 C 212.785 105.861,212.500 106.144,212.436 106.399 C 212.379 106.626,212.183 106.859,212.000 106.917 C 211.473 107.084,211.612 107.333,212.231 107.333 C 212.838 107.333,213.184 107.692,213.392 108.537 C 213.454 108.786,213.654 109.071,213.837 109.169 C 214.099 109.309,214.135 109.414,214.005 109.657 C 213.734 110.163,211.606 109.401,211.531 108.772 C 211.502 108.531,211.464 108.333,211.446 108.333 C 211.429 108.333,211.171 108.403,210.874 108.488 L 210.333 108.643 210.333 107.333 C 210.333 106.169,210.296 106.011,210.000 105.917 C 209.817 105.859,209.623 105.610,209.568 105.364 C 209.380 104.516,209.310 104.333,209.175 104.333 C 209.015 104.333,208.839 104.921,208.836 105.464 C 208.834 105.677,208.705 105.886,208.542 105.940 C 208.381 105.993,208.005 106.144,207.705 106.277 C 207.405 106.410,206.843 106.496,206.455 106.468 L 205.750 106.417 205.804 105.579 C 205.848 104.904,205.792 104.681,205.519 104.434 C 204.866 103.843,203.000 103.932,203.000 104.554 C 203.000 104.669,202.850 105.057,202.667 105.417 C 202.483 105.776,202.333 106.265,202.333 106.502 L 202.333 106.934 203.458 106.809 C 205.679 106.562,205.667 106.558,205.667 107.417 L 205.667 108.167 204.625 108.201 C 204.052 108.221,203.321 108.252,203.000 108.271 C 202.679 108.291,202.145 108.312,201.813 108.320 C 201.281 108.332,201.196 108.393,201.110 108.825 C 200.966 109.544,200.503 109.617,196.792 109.506 L 195.333 109.462 195.333 107.757 C 195.333 106.090,195.278 105.843,194.611 104.500 L 194.404 104.083 184.494 104.073 C 179.043 104.068,174.115 104.090,173.542 104.123 M211.141 104.406 C 210.908 104.917,211.059 105.333,211.477 105.333 C 211.922 105.333,212.058 104.864,211.750 104.393 C 211.428 103.902,211.370 103.903,211.141 104.406 M198.541 104.359 C 198.192 104.708,198.278 105.683,198.667 105.785 C 199.236 105.934,199.033 106.167,198.333 106.167 L 197.667 106.167 197.667 107.000 L 197.667 107.833 198.269 107.833 C 198.742 107.833,198.984 107.711,199.394 107.263 C 199.760 106.864,200.092 106.677,200.500 106.638 C 201.183 106.574,201.209 106.382,200.718 105.083 C 200.382 104.197,199.122 103.778,198.541 104.359 M209.625 109.096 C 210.469 109.222,210.539 109.428,209.793 109.592 C 209.496 109.657,209.021 109.888,208.736 110.105 C 208.125 110.571,207.092 110.646,206.934 110.236 C 206.743 109.737,206.834 109.352,207.208 109.083 C 207.582 108.815,207.761 108.816,209.625 109.096 M95.708 120.956 C 95.410 121.009,95.333 121.134,95.333 121.569 C 95.333 122.572,94.435 122.973,93.621 122.333 C 93.046 121.881,93.000 121.903,93.000 122.641 C 93.000 123.312,92.618 123.833,92.126 123.833 C 91.702 123.833,91.333 124.019,91.333 124.233 C 91.333 124.342,91.090 124.503,90.792 124.591 C 90.418 124.700,90.233 124.867,90.197 125.125 C 90.167 125.332,89.999 125.578,89.822 125.673 C 89.615 125.784,89.500 126.022,89.500 126.339 C 89.500 126.969,88.958 127.529,88.440 127.435 C 87.755 127.311,87.569 127.573,87.975 128.089 C 88.722 129.039,88.237 130.500,87.175 130.500 L 86.500 130.500 86.500 132.680 L 86.500 134.861 87.085 134.782 C 88.154 134.638,88.660 135.840,87.890 136.695 C 87.424 137.212,87.667 137.740,88.417 137.833 C 88.965 137.902,89.075 137.976,89.039 138.250 C 89.015 138.433,88.948 138.977,88.891 139.458 L 88.787 140.333 89.393 140.333 C 89.727 140.333,90.000 140.399,90.000 140.480 C 90.000 140.561,90.316 140.632,90.703 140.637 C 91.565 140.649,91.833 140.961,91.833 141.949 C 91.833 142.765,91.920 142.801,92.731 142.322 C 93.506 141.865,94.297 142.302,94.153 143.108 C 93.998 143.970,95.182 144.152,96.247 143.430 C 96.760 143.081,96.916 143.050,97.379 143.201 C 98.025 143.412,98.125 143.414,100.268 143.249 C 101.859 143.127,101.973 143.140,102.310 143.476 C 102.776 143.942,102.974 143.927,103.080 143.417 C 103.128 143.188,103.204 142.821,103.249 142.602 C 103.364 142.038,103.783 141.941,104.413 142.331 C 105.330 142.898,106.000 142.793,106.000 142.083 C 106.000 141.528,106.028 141.500,106.583 141.500 C 107.139 141.500,107.167 141.472,107.167 140.917 C 107.167 140.358,107.192 140.333,107.769 140.333 L 108.371 140.333 108.305 139.167 L 108.239 138.000 108.870 138.000 C 109.513 138.000,109.849 137.069,109.323 136.744 C 108.539 136.259,108.975 134.833,109.907 134.833 C 110.218 134.833,110.510 134.927,110.556 135.042 C 110.603 135.156,110.646 134.145,110.654 132.795 L 110.667 130.340 110.261 130.525 C 109.202 131.008,108.357 129.150,109.167 128.121 C 109.619 127.546,109.597 127.500,108.859 127.500 C 108.127 127.500,107.760 127.181,107.594 126.398 C 107.525 126.075,107.330 125.809,107.075 125.693 C 106.773 125.556,106.667 125.376,106.667 125.004 C 106.667 124.611,106.593 124.500,106.333 124.500 C 106.150 124.500,106.000 124.389,106.000 124.253 C 106.000 124.117,105.794 123.965,105.542 123.914 C 104.297 123.662,104.253 123.625,104.199 122.789 C 104.141 121.890,104.130 121.885,103.264 122.326 C 102.378 122.778,101.667 122.454,101.667 121.598 L 101.667 121.039 100.625 120.938 C 99.520 120.830,96.338 120.842,95.708 120.956 M199.875 120.955 C 199.196 121.017,199.167 121.042,199.167 121.575 C 199.167 122.232,198.904 122.379,198.135 122.154 C 197.493 121.967,196.000 121.996,196.000 122.196 C 196.000 122.272,195.887 122.333,195.750 122.333 C 195.612 122.333,195.509 122.390,195.520 122.458 C 195.607 123.008,195.472 123.167,194.917 123.167 C 194.361 123.167,194.333 123.194,194.333 123.750 C 194.333 124.306,194.306 124.333,193.750 124.333 C 193.194 124.333,193.167 124.361,193.167 124.917 C 193.167 125.472,193.139 125.500,192.583 125.500 L 192.000 125.500 192.000 126.656 L 192.000 127.812 191.458 127.864 L 190.917 127.917 190.869 129.625 C 190.839 130.695,190.885 131.333,190.990 131.333 C 191.613 131.333,191.710 132.627,191.135 133.268 C 190.868 133.565,190.827 133.837,190.868 135.018 L 190.917 136.417 191.583 136.500 C 192.309 136.591,192.359 136.756,192.075 138.125 C 191.964 138.658,191.972 138.667,192.574 138.667 C 193.177 138.667,194.833 139.980,194.833 140.458 C 194.833 140.551,195.104 140.834,195.435 141.086 C 195.975 141.498,196.027 141.605,195.942 142.129 L 195.847 142.713 196.830 142.610 L 197.814 142.507 197.865 143.129 C 197.932 143.935,198.424 144.035,199.243 143.410 C 199.805 142.982,199.860 142.973,200.686 143.171 C 201.253 143.307,202.035 143.339,202.981 143.264 C 204.976 143.106,205.000 143.108,205.407 143.491 C 205.700 143.766,205.991 143.833,206.886 143.833 L 208.000 143.833 208.000 143.250 L 208.000 142.667 209.167 142.667 C 209.808 142.667,210.324 142.610,210.314 142.542 C 210.194 141.784,210.349 141.500,210.881 141.500 C 211.511 141.500,211.740 140.716,211.253 140.229 C 210.581 139.558,211.019 138.833,212.097 138.833 C 212.556 138.833,212.667 138.768,212.667 138.500 C 212.667 138.255,212.778 138.167,213.087 138.167 C 213.759 138.167,214.204 136.069,213.608 135.717 C 212.926 135.314,212.842 131.188,213.497 130.301 C 213.778 129.922,213.829 129.617,213.805 128.465 C 213.790 127.705,213.748 127.365,213.712 127.708 C 213.639 128.407,212.811 128.621,212.271 128.081 C 212.011 127.820,212.169 126.954,212.516 126.740 C 212.942 126.477,212.634 126.167,211.947 126.167 C 211.354 126.167,211.136 126.072,210.705 125.625 C 210.417 125.327,210.028 124.952,209.841 124.792 C 209.603 124.588,209.500 124.299,209.500 123.833 C 209.500 123.375,209.428 123.167,209.268 123.167 C 209.140 123.167,208.991 123.050,208.936 122.908 C 208.879 122.760,208.907 122.693,209.002 122.751 C 209.252 122.906,209.200 122.755,208.875 122.385 C 208.507 121.966,208.000 121.952,208.000 122.361 C 208.000 122.616,207.864 122.667,207.179 122.667 C 206.201 122.667,205.833 122.374,205.833 121.594 C 205.833 121.068,205.802 121.041,205.060 120.939 C 204.270 120.831,201.149 120.841,199.875 120.955 M306.042 120.951 C 305.740 121.009,305.667 121.135,305.667 121.591 C 305.667 122.631,303.991 123.186,303.327 122.367 C 302.944 121.894,302.861 121.904,302.959 122.414 C 303.086 123.082,302.862 123.643,302.363 123.901 C 302.107 124.034,301.429 124.605,300.856 125.171 C 299.883 126.132,299.771 126.196,299.157 126.137 C 298.413 126.066,298.392 126.122,298.778 127.134 C 299.100 127.977,298.969 128.160,298.042 128.164 L 297.500 128.167 297.500 129.178 C 297.500 129.734,297.583 130.344,297.685 130.534 C 297.975 131.077,298.020 135.078,297.740 135.448 C 297.288 136.044,297.429 137.324,297.936 137.232 C 298.921 137.054,299.826 138.859,298.875 139.107 C 298.287 139.261,298.492 140.241,299.125 140.302 C 299.658 140.354,299.774 140.560,299.679 141.292 C 299.662 141.424,299.867 141.500,300.243 141.500 C 300.821 141.500,300.976 141.764,300.853 142.542 C 300.808 142.826,301.938 142.653,302.211 142.333 C 302.879 141.553,304.167 142.157,304.167 143.250 C 304.167 143.968,305.102 144.109,305.759 143.491 C 305.960 143.303,306.264 143.160,306.437 143.173 C 306.609 143.186,307.885 143.209,309.273 143.223 C 311.418 143.246,311.845 143.294,312.120 143.542 C 312.737 144.099,313.167 143.835,313.167 142.898 C 313.167 142.376,313.600 142.208,314.153 142.515 C 314.908 142.934,315.333 142.746,315.333 141.994 C 315.333 141.421,315.452 141.225,316.333 140.347 C 316.883 139.798,317.333 139.275,317.333 139.184 C 317.333 138.887,318.062 138.500,318.620 138.500 C 319.256 138.500,319.282 138.380,318.840 137.513 C 318.436 136.720,318.725 136.333,319.721 136.333 L 320.333 136.333 320.333 132.773 L 320.333 129.212 319.731 129.231 C 318.606 129.266,317.808 126.983,318.850 126.711 C 319.464 126.550,319.215 125.596,318.542 125.531 C 318.046 125.483,318.000 125.430,318.000 124.906 C 318.000 124.363,317.970 124.333,317.417 124.333 C 316.857 124.333,316.833 124.309,316.833 123.727 L 316.833 123.120 315.958 123.224 C 315.477 123.281,314.933 123.348,314.750 123.372 C 314.461 123.411,314.417 123.320,314.417 122.695 L 314.417 121.973 313.875 122.070 C 313.577 122.123,313.070 122.212,312.748 122.269 C 312.026 122.394,311.711 122.159,311.749 121.522 C 311.776 121.062,311.739 121.035,310.930 120.938 C 310.003 120.827,306.641 120.836,306.042 120.951 M199.629 126.334 C 200.390 126.798,202.031 126.798,202.621 126.333 C 203.175 125.898,203.598 125.912,204.050 126.380 C 204.251 126.590,204.617 126.888,204.862 127.043 C 205.642 127.536,205.705 128.739,204.958 128.882 C 204.715 128.929,204.793 128.963,205.182 128.977 C 206.543 129.029,206.605 131.833,205.244 131.833 C 204.599 131.833,204.483 132.160,204.922 132.740 C 205.491 133.493,205.057 134.244,204.069 134.216 C 203.666 134.204,203.500 134.273,203.500 134.451 C 203.500 134.640,203.347 134.687,202.875 134.642 L 202.249 134.582 202.310 135.222 C 202.386 136.022,202.882 136.355,204.599 136.759 C 206.045 137.100,206.355 137.385,206.460 138.474 C 206.583 139.757,205.149 140.516,204.719 139.396 C 204.648 139.212,203.949 139.167,201.149 139.167 L 197.667 139.167 197.667 138.521 C 197.667 138.166,197.620 137.642,197.563 137.358 C 197.474 136.913,197.518 136.818,197.875 136.682 C 198.114 136.592,198.338 136.339,198.400 136.090 C 198.460 135.851,198.691 135.573,198.913 135.471 C 199.135 135.370,199.390 135.078,199.479 134.821 C 199.569 134.565,199.872 134.235,200.154 134.090 C 200.436 133.944,200.667 133.739,200.667 133.634 C 200.667 133.231,201.228 132.833,201.795 132.833 C 202.322 132.833,202.361 132.801,202.238 132.458 C 202.164 132.252,202.099 131.521,202.093 130.833 L 202.083 129.583 200.860 129.634 C 199.975 129.671,199.529 129.614,199.249 129.431 C 198.903 129.204,198.809 129.204,198.354 129.431 C 197.732 129.742,197.213 129.529,197.085 128.912 C 197.038 128.685,196.965 128.326,196.921 128.114 C 196.831 127.673,197.236 127.000,197.591 127.000 C 197.723 127.000,198.031 126.775,198.276 126.500 C 198.802 125.910,198.911 125.896,199.629 126.334 M307.296 126.334 C 307.910 126.708,308.452 126.747,309.395 126.486 C 310.388 126.210,310.385 126.197,310.380 130.951 C 310.370 140.650,310.515 139.768,308.998 139.313 C 308.569 139.184,308.088 139.176,307.452 139.285 L 306.530 139.444 306.457 138.847 C 306.323 137.760,306.501 137.003,306.897 136.977 L 307.250 136.955 306.894 136.885 C 306.111 136.732,306.219 134.833,307.011 134.833 C 307.582 134.833,307.633 134.745,307.490 134.000 C 307.428 133.679,307.367 133.515,307.355 133.635 C 307.343 133.755,307.265 133.811,307.181 133.759 C 307.097 133.707,306.990 133.759,306.944 133.874 C 306.891 134.006,306.855 133.980,306.846 133.806 C 306.839 133.653,306.766 133.503,306.683 133.472 C 306.534 133.417,306.429 132.604,306.476 131.875 C 306.495 131.575,306.600 131.500,307.000 131.500 C 307.275 131.500,307.500 131.425,307.500 131.333 C 307.500 131.242,307.349 131.167,307.164 131.167 C 305.509 131.167,303.667 129.999,303.667 128.950 C 303.667 127.811,303.918 127.450,304.628 127.568 C 305.952 127.788,305.921 127.797,305.863 127.220 C 305.765 126.230,306.440 125.812,307.296 126.334 M97.639 126.432 C 97.923 126.631,98.316 126.684,99.204 126.641 L 100.391 126.583 100.531 127.115 C 100.608 127.407,100.651 130.295,100.627 133.532 L 100.583 139.417 100.000 139.373 C 98.471 139.258,97.869 139.260,97.304 139.380 L 96.691 139.511 96.697 136.964 C 96.700 135.563,96.689 133.989,96.671 133.466 C 96.626 132.138,96.744 131.863,97.383 131.802 C 98.006 131.741,98.169 131.124,97.583 131.041 C 94.610 130.620,93.451 129.726,94.116 128.366 C 94.403 127.778,94.455 127.750,95.250 127.750 C 96.081 127.750,96.084 127.748,96.139 127.167 C 96.234 126.165,96.835 125.870,97.639 126.432 " stroke="none" fill="#241f1e" fill-rule="evenodd"></path></g></svg>