<?xml version="1.0" encoding="utf-8"?>
<!-- Generator: Adobe Illustrator 23.1.0, SVG Export Plug-In . SVG Version: 6.00 Build 0)  -->
<svg version="1.1" id="Ebene_1" xmlns="http://www.w3.org/2000/svg" xmlns:xlink="http://www.w3.org/1999/xlink" x="0px" y="0px"
	 viewBox="0 0 336.1 168.67" style="enable-background:new 0 0 336.1 168.67;" xml:space="preserve">
<style type="text/css">
	.st0{fill:#282727;}
	.st1{fill:#6D6C6C;}
	.st2{fill:none;stroke:#FFFFFF;stroke-miterlimit:10;}
	.st3{fill:#FFFFFF;}
	.st4{fill:none;stroke:#282727;stroke-width:2;stroke-linejoin:round;stroke-miterlimit:10;}
	.st5{fill:none;stroke:#282727;stroke-miterlimit:10;}
</style>
<g>
	<g>
		<path class="st0" d="M54.57,37.82h-48c-1.51,0-2.74-1.23-2.74-2.74V13.82c0-1.51,1.23-2.74,2.74-2.74h48
			c1.51,0,2.74,1.23,2.74,2.74v21.26C57.3,36.6,56.08,37.82,54.57,37.82z"/>
		<path class="st1" d="M52.99,29.51H8.15c-1.25,0-2.26-1.01-2.26-2.26V15.35c0-1.25,1.01-2.26,2.26-2.26h44.84
			c1.25,0,2.26,1.01,2.26,2.26v11.89C55.25,28.49,54.24,29.51,52.99,29.51z"/>
		<rect x="8.55" y="15.82" class="st2" width="44" height="11.05"/>
		<g>
			<path class="st3" d="M19.43,36.04c-0.22,0.11-0.67,0.22-1.25,0.22c-1.33,0-2.33-0.84-2.33-2.39c0-1.48,1-2.48,2.47-2.48
				c0.59,0,0.96,0.13,1.12,0.21l-0.15,0.5c-0.23-0.11-0.56-0.2-0.95-0.2c-1.11,0-1.84,0.71-1.84,1.95c0,1.16,0.67,1.9,1.81,1.9
				c0.37,0,0.75-0.08,0.99-0.2L19.43,36.04z"/>
			<path class="st3" d="M20.8,31.47v2.79c0,1.06,0.47,1.51,1.1,1.51c0.7,0,1.15-0.46,1.15-1.51v-2.79h0.62v2.75
				c0,1.45-0.76,2.05-1.79,2.05c-0.97,0-1.69-0.55-1.69-2.02v-2.78H20.8z"/>
			<path class="st3" d="M27.16,33.98h-1.83v1.7h2.04v0.51h-2.65v-4.72h2.55v0.51h-1.94v1.49h1.83V33.98z"/>
			<path class="st3" d="M29.64,31.47h0.61v4.21h2.02v0.51h-2.63V31.47z"/>
			<path class="st3" d="M36.71,33.78c0,1.62-0.99,2.49-2.19,2.49c-1.25,0-2.12-0.97-2.12-2.4c0-1.5,0.93-2.48,2.19-2.48
				C35.88,31.4,36.71,32.38,36.71,33.78z M33.05,33.86c0,1.01,0.55,1.91,1.51,1.91c0.97,0,1.51-0.89,1.51-1.96
				c0-0.94-0.49-1.92-1.51-1.92C33.55,31.89,33.05,32.82,33.05,33.86z"/>
			<path class="st3" d="M41.53,33.78c0,1.62-0.99,2.49-2.19,2.49c-1.25,0-2.12-0.97-2.12-2.4c0-1.5,0.93-2.48,2.19-2.48
				C40.7,31.4,41.53,32.38,41.53,33.78z M37.87,33.86c0,1.01,0.55,1.91,1.51,1.91c0.97,0,1.51-0.89,1.51-1.96
				c0-0.94-0.49-1.92-1.51-1.92C38.37,31.89,37.87,32.82,37.87,33.86z"/>
			<path class="st3" d="M42.32,31.53c0.29-0.05,0.68-0.09,1.17-0.09c0.6,0,1.04,0.14,1.32,0.39c0.26,0.22,0.41,0.57,0.41,0.99
				c0,0.43-0.13,0.76-0.36,1.01c-0.32,0.34-0.85,0.52-1.44,0.52c-0.18,0-0.35-0.01-0.49-0.04v1.89h-0.61V31.53z M42.93,33.8
				c0.13,0.04,0.3,0.05,0.5,0.05c0.74,0,1.18-0.36,1.18-1.01c0-0.62-0.44-0.92-1.11-0.92c-0.27,0-0.47,0.02-0.57,0.05V33.8z"/>
		</g>
		<g>
			<path class="st0" d="M18.59,4.21v1.98h2.28V4.21h0.62v4.72h-0.62V6.72h-2.28v2.21h-0.61V4.21H18.59z"/>
			<path class="st0" d="M26.58,6.52c0,1.62-0.99,2.49-2.19,2.49c-1.25,0-2.12-0.97-2.12-2.4c0-1.5,0.93-2.48,2.19-2.48
				C25.75,4.13,26.58,5.12,26.58,6.52z M22.92,6.6c0,1.01,0.55,1.91,1.51,1.91c0.97,0,1.51-0.89,1.51-1.96
				c0-0.94-0.49-1.92-1.51-1.92C23.42,4.63,22.92,5.56,22.92,6.6z"/>
			<path class="st0" d="M28.09,4.73h-1.44V4.21h3.5v0.52h-1.44v4.2h-0.62V4.73z"/>
			<path class="st0" d="M35.46,8.78C35.23,8.89,34.78,9,34.21,9c-1.33,0-2.33-0.84-2.33-2.39c0-1.48,1-2.48,2.47-2.48
				c0.59,0,0.96,0.13,1.12,0.21l-0.15,0.5c-0.23-0.11-0.56-0.2-0.95-0.2c-1.11,0-1.84,0.71-1.84,1.95c0,1.16,0.67,1.9,1.81,1.9
				c0.37,0,0.75-0.08,0.99-0.2L35.46,8.78z"/>
			<path class="st0" d="M36.83,4.21V7c0,1.06,0.47,1.51,1.1,1.51c0.7,0,1.15-0.46,1.15-1.51V4.21h0.62v2.75
				c0,1.45-0.76,2.04-1.79,2.04c-0.97,0-1.69-0.55-1.69-2.02V4.21H36.83z"/>
			<path class="st0" d="M43.19,6.72h-1.83v1.7h2.04v0.51h-2.65V4.21h2.55v0.51h-1.94v1.49h1.83V6.72z"/>
		</g>
	</g>
	<path class="st4" d="M52.42,106.11H8.72c-1.57,0-2.83-1.27-2.83-2.83v-43.7c0-1.57,1.27-2.83,2.83-2.83h43.7
		c1.57,0,2.83,1.27,2.83,2.83v43.7C55.25,104.84,53.98,106.11,52.42,106.11z"/>
	<path class="st4" d="M52.42,164.22H8.72c-1.57,0-2.83-1.27-2.83-2.83v-43.7c0-1.57,1.27-2.83,2.83-2.83h43.7
		c1.57,0,2.83,1.27,2.83,2.83v43.7C55.25,162.95,53.98,164.22,52.42,164.22z"/>
</g>
<g>
	<g>
		<path class="st0" d="M112.39,37.82h-48c-1.51,0-2.74-1.23-2.74-2.74V13.82c0-1.51,1.23-2.74,2.74-2.74h48
			c1.51,0,2.74,1.23,2.74,2.74v21.26C115.13,36.6,113.9,37.82,112.39,37.82z"/>
		<path class="st1" d="M110.81,29.51H65.97c-1.25,0-2.26-1.01-2.26-2.26V15.35c0-1.25,1.01-2.26,2.26-2.26h44.84
			c1.25,0,2.26,1.01,2.26,2.26v11.89C113.08,28.49,112.06,29.51,110.81,29.51z"/>
		<rect x="66.38" y="15.82" class="st2" width="44" height="11.05"/>
		<g>
			<path class="st3" d="M78.98,35.45c0.27,0.17,0.67,0.31,1.09,0.31c0.62,0,0.99-0.33,0.99-0.81c0-0.44-0.25-0.69-0.89-0.94
				c-0.77-0.27-1.25-0.67-1.25-1.34c0-0.74,0.61-1.28,1.53-1.28c0.48,0,0.83,0.11,1.04,0.23l-0.17,0.5
				c-0.15-0.08-0.47-0.22-0.9-0.22c-0.64,0-0.89,0.39-0.89,0.71c0,0.44,0.29,0.66,0.94,0.91c0.8,0.31,1.2,0.69,1.2,1.39
				c0,0.73-0.54,1.36-1.65,1.36c-0.46,0-0.95-0.13-1.21-0.3L78.98,35.45z"/>
			<path class="st3" d="M82.52,31.47h0.61v4.21h2.02v0.51h-2.63V31.47z"/>
			<path class="st3" d="M86.43,31.47v4.72h-0.61v-4.72H86.43z"/>
			<path class="st3" d="M90.79,36.04c-0.22,0.11-0.67,0.22-1.25,0.22c-1.33,0-2.33-0.84-2.33-2.39c0-1.48,1-2.48,2.47-2.48
				c0.59,0,0.96,0.13,1.12,0.21l-0.15,0.5c-0.23-0.11-0.56-0.2-0.95-0.2c-1.11,0-1.84,0.71-1.84,1.95c0,1.16,0.66,1.9,1.81,1.9
				c0.37,0,0.75-0.08,0.99-0.2L90.79,36.04z"/>
			<path class="st3" d="M94,33.98h-1.83v1.7h2.04v0.51h-2.65v-4.72h2.55v0.51h-1.94v1.49H94V33.98z"/>
			<path class="st3" d="M95,31.53c0.31-0.06,0.75-0.1,1.17-0.1c0.65,0,1.07,0.12,1.37,0.38c0.24,0.21,0.37,0.53,0.37,0.9
				c0,0.62-0.39,1.04-0.89,1.21v0.02c0.36,0.13,0.58,0.46,0.69,0.95c0.15,0.66,0.27,1.11,0.36,1.3h-0.63
				c-0.08-0.13-0.18-0.54-0.32-1.13c-0.14-0.65-0.39-0.9-0.95-0.92H95.6v2.04H95V31.53z M95.6,33.69h0.62c0.65,0,1.06-0.36,1.06-0.9
				c0-0.61-0.44-0.87-1.08-0.88c-0.29,0-0.5,0.03-0.6,0.06V33.69z"/>
		</g>
		<g>
			<path class="st0" d="M81.3,4.27c0.31-0.06,0.75-0.1,1.17-0.1c0.65,0,1.07,0.12,1.37,0.38c0.24,0.21,0.37,0.53,0.37,0.9
				c0,0.62-0.39,1.04-0.89,1.21v0.02c0.36,0.13,0.58,0.46,0.69,0.95c0.15,0.66,0.27,1.11,0.36,1.3h-0.63
				c-0.08-0.13-0.18-0.54-0.32-1.13c-0.14-0.65-0.39-0.9-0.95-0.92h-0.57v2.04H81.3V4.27z M81.91,6.42h0.62
				c0.65,0,1.06-0.36,1.06-0.9c0-0.61-0.44-0.88-1.08-0.88c-0.29,0-0.5,0.03-0.6,0.06V6.42z"/>
			<path class="st0" d="M89.13,6.52c0,1.62-0.99,2.49-2.19,2.49c-1.25,0-2.12-0.97-2.12-2.4c0-1.5,0.93-2.48,2.19-2.48
				C88.29,4.13,89.13,5.12,89.13,6.52z M85.46,6.6c0,1.01,0.55,1.91,1.51,1.91c0.97,0,1.51-0.89,1.51-1.96
				c0-0.94-0.49-1.92-1.51-1.92C85.97,4.63,85.46,5.56,85.46,6.6z"/>
			<path class="st0" d="M89.91,4.21h0.61v4.21h2.02v0.51h-2.63V4.21z"/>
			<path class="st0" d="M93.22,4.21h0.61v4.21h2.02v0.51h-2.63V4.21z"/>
		</g>
	</g>
	<path class="st4" d="M110.24,106.11h-43.7c-1.57,0-2.83-1.27-2.83-2.83v-43.7c0-1.57,1.27-2.83,2.83-2.83h43.7
		c1.57,0,2.83,1.27,2.83,2.83v43.7C113.08,104.84,111.81,106.11,110.24,106.11z"/>
	<path class="st4" d="M110.24,164.22h-43.7c-1.57,0-2.83-1.27-2.83-2.83v-43.7c0-1.57,1.27-2.83,2.83-2.83h43.7
		c1.57,0,2.83,1.27,2.83,2.83v43.7C113.08,162.95,111.81,164.22,110.24,164.22z"/>
</g>
<g>
	<g>
		<path class="st0" d="M170.22,37.82h-48c-1.51,0-2.74-1.23-2.74-2.74V13.82c0-1.51,1.23-2.74,2.74-2.74h48
			c1.51,0,2.74,1.23,2.74,2.74v21.26C172.96,36.6,171.73,37.82,170.22,37.82z"/>
		<path class="st1" d="M168.64,29.51H123.8c-1.25,0-2.26-1.01-2.26-2.26V15.35c0-1.25,1.01-2.26,2.26-2.26h44.84
			c1.25,0,2.26,1.01,2.26,2.26v11.89C170.9,28.49,169.89,29.51,168.64,29.51z"/>
		<rect x="124.21" y="15.82" class="st2" width="44" height="11.05"/>
		<g>
			<path class="st3" d="M133.78,31.53c0.29-0.05,0.68-0.09,1.17-0.09c0.6,0,1.04,0.14,1.32,0.39c0.26,0.22,0.41,0.57,0.41,0.99
				c0,0.43-0.13,0.76-0.36,1.01c-0.32,0.34-0.85,0.52-1.44,0.52c-0.18,0-0.35-0.01-0.49-0.04v1.89h-0.61V31.53z M134.39,33.8
				c0.13,0.04,0.3,0.05,0.5,0.05c0.74,0,1.18-0.36,1.18-1.01c0-0.62-0.44-0.92-1.11-0.92c-0.27,0-0.47,0.02-0.57,0.05V33.8z"/>
			<path class="st3" d="M137.68,34.71l-0.49,1.49h-0.63l1.6-4.72h0.74l1.61,4.72h-0.65l-0.5-1.49H137.68z M139.23,34.23l-0.46-1.36
				c-0.1-0.31-0.17-0.59-0.25-0.86h-0.01c-0.07,0.28-0.15,0.57-0.24,0.85l-0.46,1.37H139.23z"/>
			<path class="st3" d="M141.56,31.99h-1.44v-0.52h3.5v0.52h-1.44v4.2h-0.62V31.99z"/>
			<path class="st3" d="M145.3,31.99h-1.44v-0.52h3.5v0.52h-1.44v4.2h-0.62V31.99z"/>
			<path class="st3" d="M150.33,33.98h-1.83v1.7h2.04v0.51h-2.65v-4.72h2.55v0.51h-1.94v1.49h1.83V33.98z"/>
			<path class="st3" d="M151.33,31.53c0.31-0.06,0.75-0.1,1.17-0.1c0.65,0,1.07,0.12,1.37,0.38c0.24,0.21,0.37,0.53,0.37,0.9
				c0,0.62-0.39,1.04-0.89,1.21v0.02c0.36,0.13,0.58,0.46,0.69,0.95c0.15,0.66,0.27,1.11,0.36,1.3h-0.63
				c-0.08-0.13-0.18-0.54-0.32-1.13c-0.14-0.65-0.39-0.9-0.95-0.92h-0.57v2.04h-0.61V31.53z M151.94,33.69h0.62
				c0.65,0,1.06-0.36,1.06-0.9c0-0.61-0.44-0.87-1.08-0.88c-0.29,0-0.5,0.03-0.6,0.06V33.69z"/>
			<path class="st3" d="M155.09,36.19v-4.72h0.67l1.51,2.39c0.35,0.55,0.62,1.05,0.85,1.53l0.01-0.01
				c-0.06-0.63-0.07-1.21-0.07-1.94v-1.97h0.57v4.72h-0.62l-1.5-2.4c-0.33-0.53-0.64-1.06-0.88-1.58l-0.02,0.01
				c0.04,0.6,0.05,1.16,0.05,1.95v2.02H155.09z"/>
		</g>
		<g>
			<path class="st0" d="M144.01,4.73h-1.44V4.21h3.5v0.52h-1.44v4.2h-0.62V4.73z"/>
			<path class="st0" d="M146.6,4.27c0.31-0.06,0.75-0.1,1.17-0.1c0.65,0,1.07,0.12,1.37,0.38c0.24,0.21,0.37,0.53,0.37,0.9
				c0,0.62-0.39,1.04-0.89,1.21v0.02c0.36,0.13,0.58,0.46,0.69,0.95c0.15,0.66,0.27,1.11,0.36,1.3h-0.63
				c-0.08-0.13-0.18-0.54-0.32-1.13c-0.14-0.65-0.39-0.9-0.95-0.92h-0.57v2.04h-0.61V4.27z M147.21,6.42h0.62
				c0.65,0,1.06-0.36,1.06-0.9c0-0.61-0.44-0.88-1.08-0.88c-0.29,0-0.5,0.03-0.6,0.06V6.42z"/>
		</g>
	</g>
	<path class="st4" d="M168.07,106.11h-43.7c-1.57,0-2.83-1.27-2.83-2.83v-43.7c0-1.57,1.27-2.83,2.83-2.83h43.7
		c1.57,0,2.83,1.27,2.83,2.83v43.7C170.9,104.84,169.64,106.11,168.07,106.11z"/>
	<path class="st4" d="M168.07,164.22h-43.7c-1.57,0-2.83-1.27-2.83-2.83v-43.7c0-1.57,1.27-2.83,2.83-2.83h43.7
		c1.57,0,2.83,1.27,2.83,2.83v43.7C170.9,162.95,169.64,164.22,168.07,164.22z"/>
</g>
<g>
	<g>
		<path class="st0" d="M228.05,37.82h-48c-1.51,0-2.74-1.23-2.74-2.74V13.82c0-1.51,1.23-2.74,2.74-2.74h48
			c1.51,0,2.74,1.23,2.74,2.74v21.26C230.78,36.6,229.56,37.82,228.05,37.82z"/>
		<path class="st1" d="M226.47,29.51h-44.84c-1.25,0-2.26-1.01-2.26-2.26V15.35c0-1.25,1.01-2.26,2.26-2.26h44.84
			c1.25,0,2.26,1.01,2.26,2.26v11.89C228.73,28.49,227.72,29.51,226.47,29.51z"/>
		<rect x="182.03" y="15.82" class="st2" width="44" height="11.05"/>
		<g>
			<path class="st3" d="M191.4,36.19l-1.54-4.72h0.66l0.74,2.33c0.2,0.64,0.38,1.21,0.5,1.76h0.01c0.13-0.55,0.33-1.14,0.54-1.76
				l0.8-2.33h0.65l-1.69,4.72H191.4z"/>
			<path class="st3" d="M196.72,33.98h-1.83v1.7h2.04v0.51h-2.65v-4.72h2.55v0.51h-1.94v1.49h1.83V33.98z"/>
			<path class="st3" d="M197.72,31.47h0.61v4.21h2.02v0.51h-2.63V31.47z"/>
			<path class="st3" d="M204.78,33.78c0,1.62-0.99,2.49-2.19,2.49c-1.25,0-2.12-0.97-2.12-2.4c0-1.5,0.93-2.48,2.19-2.48
				C203.95,31.4,204.78,32.38,204.78,33.78z M201.12,33.86c0,1.01,0.55,1.91,1.51,1.91c0.97,0,1.51-0.89,1.51-1.96
				c0-0.94-0.49-1.92-1.51-1.92C201.62,31.89,201.12,32.82,201.12,33.86z"/>
			<path class="st3" d="M208.87,36.04c-0.22,0.11-0.67,0.22-1.25,0.22c-1.33,0-2.33-0.84-2.33-2.39c0-1.48,1-2.48,2.47-2.48
				c0.59,0,0.96,0.13,1.12,0.21l-0.15,0.5c-0.23-0.11-0.56-0.2-0.95-0.2c-1.11,0-1.84,0.71-1.84,1.95c0,1.16,0.67,1.9,1.81,1.9
				c0.37,0,0.75-0.08,0.99-0.2L208.87,36.04z"/>
			<path class="st3" d="M210.24,31.47v4.72h-0.61v-4.72H210.24z"/>
			<path class="st3" d="M212.2,31.99h-1.44v-0.52h3.5v0.52h-1.44v4.2h-0.62V31.99z"/>
			<path class="st3" d="M216.03,36.19v-2l-1.49-2.72h0.69l0.67,1.3c0.18,0.36,0.32,0.64,0.47,0.97h0.01
				c0.13-0.31,0.29-0.62,0.48-0.97l0.68-1.3h0.69l-1.58,2.71v2.01H216.03z"/>
		</g>
		<g>
			<path class="st0" d="M190.7,8.19c0.27,0.17,0.67,0.31,1.09,0.31c0.62,0,0.99-0.33,0.99-0.81c0-0.44-0.25-0.69-0.89-0.94
				c-0.77-0.27-1.25-0.67-1.25-1.34c0-0.74,0.61-1.28,1.53-1.28c0.48,0,0.83,0.11,1.04,0.23l-0.17,0.5
				c-0.15-0.08-0.47-0.22-0.9-0.22c-0.64,0-0.89,0.38-0.89,0.71c0,0.44,0.29,0.66,0.94,0.91c0.8,0.31,1.2,0.69,1.2,1.39
				c0,0.73-0.54,1.36-1.65,1.36c-0.46,0-0.95-0.13-1.21-0.3L190.7,8.19z"/>
			<path class="st0" d="M194.99,7.45l-0.49,1.48h-0.63l1.6-4.72h0.74l1.61,4.72h-0.65l-0.5-1.48H194.99z M196.54,6.97l-0.46-1.36
				c-0.1-0.31-0.17-0.59-0.25-0.86h-0.01c-0.07,0.28-0.15,0.57-0.24,0.85l-0.46,1.37H196.54z"/>
			<path class="st0" d="M202.47,6.86c-0.04-0.66-0.08-1.45-0.07-2.04h-0.02c-0.16,0.55-0.36,1.14-0.59,1.79l-0.83,2.29h-0.46
				l-0.76-2.25c-0.22-0.67-0.41-1.27-0.55-1.83h-0.01c-0.01,0.59-0.05,1.38-0.09,2.09l-0.13,2.02h-0.58l0.33-4.72h0.78l0.81,2.28
				c0.2,0.58,0.36,1.1,0.48,1.59h0.02c0.12-0.48,0.29-0.99,0.5-1.59l0.84-2.28h0.78l0.29,4.72h-0.59L202.47,6.86z"/>
			<path class="st0" d="M204.11,4.27c0.29-0.05,0.68-0.09,1.17-0.09c0.6,0,1.04,0.14,1.32,0.39c0.26,0.22,0.41,0.57,0.41,0.99
				c0,0.43-0.13,0.76-0.36,1.01c-0.32,0.34-0.85,0.52-1.44,0.52c-0.18,0-0.35-0.01-0.49-0.04v1.89h-0.61V4.27z M204.72,6.54
				c0.13,0.04,0.3,0.05,0.5,0.05c0.74,0,1.18-0.36,1.18-1.01c0-0.62-0.44-0.92-1.11-0.92c-0.27,0-0.47,0.02-0.57,0.05V6.54z"/>
			<path class="st0" d="M207.84,4.21h0.61v4.21h2.02v0.51h-2.63V4.21z"/>
			<path class="st0" d="M213.59,6.72h-1.83v1.7h2.04v0.51h-2.65V4.21h2.55v0.51h-1.94v1.49h1.83V6.72z"/>
			<path class="st0" d="M214.59,4.27c0.31-0.06,0.75-0.1,1.17-0.1c0.65,0,1.07,0.12,1.37,0.38c0.24,0.21,0.37,0.53,0.37,0.9
				c0,0.62-0.39,1.04-0.89,1.21v0.02c0.36,0.13,0.58,0.46,0.69,0.95c0.15,0.66,0.27,1.11,0.36,1.3h-0.63
				c-0.08-0.13-0.18-0.54-0.32-1.13c-0.14-0.65-0.39-0.9-0.95-0.92h-0.57v2.04h-0.61V4.27z M215.2,6.42h0.62
				c0.65,0,1.06-0.36,1.06-0.9c0-0.61-0.44-0.88-1.08-0.88c-0.29,0-0.5,0.03-0.6,0.06V6.42z"/>
		</g>
	</g>
	<path class="st4" d="M225.9,106.11h-43.7c-1.57,0-2.83-1.27-2.83-2.83v-43.7c0-1.57,1.27-2.83,2.83-2.83h43.7
		c1.57,0,2.83,1.27,2.83,2.83v43.7C228.73,104.84,227.46,106.11,225.9,106.11z"/>
	<path class="st4" d="M225.9,164.22h-43.7c-1.57,0-2.83-1.27-2.83-2.83v-43.7c0-1.57,1.27-2.83,2.83-2.83h43.7
		c1.57,0,2.83,1.27,2.83,2.83v43.7C228.73,162.95,227.46,164.22,225.9,164.22z"/>
</g>
<g>
	<path class="st0" d="M324.99,160.41h-72.16c-1.51,0-2.74-1.23-2.74-2.74v-21.26c0-1.51,1.23-2.74,2.74-2.74h72.16
		c1.51,0,2.74,1.23,2.74,2.74v21.26C327.72,159.19,326.5,160.41,324.99,160.41z"/>
	<path class="st1" d="M279.79,152.1h-25.55c-1.25,0-2.26-1.01-2.26-2.26v-11.89c0-1.25,1.01-2.26,2.26-2.26h25.55
		c1.25,0,2.26,1.01,2.26,2.26v11.89C282.05,151.09,281.04,152.1,279.79,152.1z"/>
	<rect x="254.65" y="138.41" class="st2" width="24.33" height="11.05"/>
	<g>
		<path class="st3" d="M269.75,154.12c0.29-0.05,0.68-0.09,1.17-0.09c0.6,0,1.04,0.14,1.32,0.39c0.26,0.22,0.41,0.57,0.41,0.99
			c0,0.43-0.13,0.76-0.36,1.01c-0.32,0.34-0.85,0.52-1.44,0.52c-0.18,0-0.35-0.01-0.49-0.04v1.89h-0.61V154.12z M270.36,156.4
			c0.13,0.04,0.3,0.05,0.5,0.05c0.74,0,1.18-0.36,1.18-1.01c0-0.62-0.44-0.92-1.11-0.92c-0.27,0-0.47,0.02-0.57,0.05V156.4z"/>
		<path class="st3" d="M273.65,157.3l-0.49,1.48h-0.63l1.6-4.72h0.74l1.61,4.72h-0.65l-0.5-1.48H273.65z M275.2,156.82l-0.46-1.36
			c-0.1-0.31-0.17-0.59-0.25-0.86h-0.01c-0.07,0.28-0.15,0.57-0.24,0.85l-0.46,1.37H275.2z"/>
		<path class="st3" d="M277.17,154.13c0.31-0.06,0.75-0.1,1.17-0.1c0.65,0,1.07,0.12,1.37,0.38c0.24,0.21,0.37,0.53,0.37,0.9
			c0,0.62-0.39,1.04-0.89,1.21v0.02c0.36,0.13,0.58,0.46,0.69,0.95c0.15,0.66,0.27,1.11,0.36,1.3h-0.63
			c-0.08-0.13-0.18-0.54-0.32-1.13c-0.14-0.65-0.39-0.9-0.95-0.92h-0.57v2.04h-0.61V154.13z M277.78,156.28h0.62
			c0.65,0,1.06-0.36,1.06-0.9c0-0.61-0.44-0.88-1.08-0.88c-0.29,0-0.5,0.03-0.6,0.06V156.28z"/>
		<path class="st3" d="M281.74,157.3l-0.49,1.48h-0.63l1.6-4.72h0.74l1.61,4.72h-0.65l-0.5-1.48H281.74z M283.29,156.82l-0.46-1.36
			c-0.1-0.31-0.17-0.59-0.25-0.86h-0.01c-0.07,0.28-0.15,0.57-0.24,0.85l-0.46,1.37H283.29z"/>
		<path class="st3" d="M289.21,156.71c-0.04-0.66-0.08-1.45-0.07-2.04h-0.02c-0.16,0.55-0.36,1.14-0.59,1.79l-0.83,2.29h-0.46
			l-0.76-2.25c-0.22-0.67-0.41-1.27-0.55-1.83h-0.01c-0.01,0.59-0.05,1.38-0.09,2.09l-0.13,2.02h-0.58l0.33-4.72h0.78l0.81,2.28
			c0.2,0.58,0.36,1.1,0.48,1.59h0.02c0.12-0.48,0.29-0.99,0.5-1.59l0.84-2.28h0.78l0.29,4.72h-0.59L289.21,156.71z"/>
		<path class="st3" d="M293.3,156.57h-1.83v1.7h2.04v0.51h-2.65v-4.72h2.55v0.51h-1.94v1.49h1.83V156.57z"/>
		<path class="st3" d="M295.31,154.58h-1.44v-0.52h3.5v0.52h-1.44v4.2h-0.62V154.58z"/>
		<path class="st3" d="M300.34,156.57h-1.83v1.7h2.04v0.51h-2.65v-4.72h2.55v0.51h-1.94v1.49h1.83V156.57z"/>
		<path class="st3" d="M301.34,154.13c0.31-0.06,0.75-0.1,1.17-0.1c0.65,0,1.07,0.12,1.37,0.38c0.24,0.21,0.37,0.53,0.37,0.9
			c0,0.62-0.39,1.04-0.89,1.21v0.02c0.36,0.13,0.58,0.46,0.69,0.95c0.15,0.66,0.27,1.11,0.36,1.3h-0.63
			c-0.08-0.13-0.18-0.54-0.32-1.13c-0.14-0.65-0.39-0.9-0.95-0.92h-0.57v2.04h-0.61V154.13z M301.95,156.28h0.62
			c0.65,0,1.06-0.36,1.06-0.9c0-0.61-0.44-0.88-1.08-0.88c-0.29,0-0.5,0.03-0.6,0.06V156.28z"/>
		<path class="st3" d="M306.37,158.78v-0.38l0.48-0.47c1.16-1.11,1.69-1.69,1.69-2.38c0-0.46-0.22-0.89-0.9-0.89
			c-0.41,0-0.76,0.21-0.97,0.39l-0.2-0.43c0.32-0.27,0.76-0.46,1.29-0.46c0.98,0,1.39,0.67,1.39,1.32c0,0.84-0.61,1.52-1.57,2.44
			l-0.36,0.34v0.01h2.04v0.51H306.37z"/>
	</g>
	<g>
		<path class="st0" d="M269.06,129.4v0.46h-1.73v-0.46H269.06z"/>
		<path class="st0" d="M271.28,126.86c0.29-0.05,0.68-0.09,1.17-0.09c0.6,0,1.04,0.14,1.32,0.39c0.26,0.22,0.41,0.57,0.41,0.99
			c0,0.43-0.13,0.76-0.36,1.01c-0.32,0.34-0.85,0.52-1.44,0.52c-0.18,0-0.35-0.01-0.49-0.04v1.89h-0.61V126.86z M271.89,129.13
			c0.13,0.04,0.3,0.05,0.5,0.05c0.74,0,1.18-0.36,1.18-1.01c0-0.62-0.44-0.92-1.11-0.92c-0.27,0-0.47,0.02-0.57,0.05V129.13z"/>
		<path class="st0" d="M275.18,130.04l-0.49,1.49h-0.63l1.6-4.72h0.74l1.61,4.72h-0.65l-0.5-1.49H275.18z M276.73,129.56l-0.46-1.36
			c-0.1-0.31-0.17-0.59-0.25-0.86h-0.01c-0.07,0.28-0.15,0.57-0.24,0.85l-0.46,1.37H276.73z"/>
		<path class="st0" d="M278.7,126.86c0.31-0.06,0.75-0.1,1.17-0.1c0.65,0,1.07,0.12,1.37,0.38c0.24,0.21,0.37,0.53,0.37,0.9
			c0,0.62-0.39,1.04-0.89,1.21v0.02c0.36,0.13,0.58,0.46,0.69,0.95c0.15,0.66,0.27,1.11,0.36,1.3h-0.63
			c-0.08-0.13-0.18-0.54-0.32-1.13c-0.14-0.65-0.39-0.9-0.95-0.92h-0.57v2.04h-0.61V126.86z M279.31,129.01h0.62
			c0.65,0,1.06-0.36,1.06-0.9c0-0.61-0.44-0.88-1.08-0.88c-0.29,0-0.5,0.03-0.6,0.06V129.01z"/>
		<path class="st0" d="M283.26,130.04l-0.49,1.49h-0.63l1.6-4.72h0.74l1.61,4.72h-0.65l-0.5-1.49H283.26z M284.81,129.56l-0.46-1.36
			c-0.1-0.31-0.17-0.59-0.25-0.86h-0.01c-0.07,0.28-0.15,0.57-0.24,0.85l-0.46,1.37H284.81z"/>
		<path class="st0" d="M290.73,129.45c-0.04-0.66-0.08-1.45-0.07-2.04h-0.02c-0.16,0.55-0.36,1.14-0.59,1.79l-0.83,2.29h-0.46
			l-0.76-2.25c-0.22-0.67-0.41-1.27-0.55-1.83h-0.01c-0.01,0.59-0.05,1.38-0.09,2.09l-0.13,2.02h-0.58l0.33-4.72h0.78l0.81,2.28
			c0.2,0.58,0.36,1.1,0.48,1.59h0.02c0.12-0.48,0.29-0.99,0.5-1.59l0.84-2.28h0.78l0.29,4.72h-0.59L290.73,129.45z"/>
		<path class="st0" d="M294.83,129.31h-1.83v1.7h2.04v0.51h-2.65v-4.72h2.55v0.51h-1.94v1.49h1.83V129.31z"/>
		<path class="st0" d="M296.84,127.32h-1.44v-0.52h3.5v0.52h-1.44v4.2h-0.62V127.32z"/>
		<path class="st0" d="M301.86,129.31h-1.83v1.7h2.04v0.51h-2.65v-4.72h2.55v0.51h-1.94v1.49h1.83V129.31z"/>
		<path class="st0" d="M302.86,126.86c0.31-0.06,0.75-0.1,1.17-0.1c0.65,0,1.07,0.12,1.37,0.38c0.24,0.21,0.37,0.53,0.37,0.9
			c0,0.62-0.39,1.04-0.89,1.21v0.02c0.36,0.13,0.58,0.46,0.69,0.95c0.15,0.66,0.27,1.11,0.36,1.3h-0.63
			c-0.08-0.13-0.18-0.54-0.32-1.13c-0.14-0.65-0.39-0.9-0.95-0.92h-0.57v2.04h-0.61V126.86z M303.47,129.01h0.62
			c0.65,0,1.06-0.36,1.06-0.9c0-0.61-0.44-0.88-1.08-0.88c-0.29,0-0.5,0.03-0.6,0.06V129.01z"/>
		<path class="st0" d="M309.89,127.8v1.65h1.58v0.42h-1.58v1.66h-0.45v-1.66h-1.58v-0.42h1.58v-1.65H309.89z"/>
	</g>
	<path class="st1" d="M323.46,152.15H297.9c-1.25,0-2.26-1.01-2.26-2.26v-11.89c0-1.25,1.01-2.26,2.26-2.26h25.55
		c1.25,0,2.26,1.01,2.26,2.26v11.89C325.72,151.14,324.71,152.15,323.46,152.15z"/>
	<rect x="298.31" y="138.47" class="st2" width="24.33" height="11.05"/>
	<line class="st5" x1="232.63" y1="143.89" x2="246.21" y2="143.89"/>
</g>
<circle cx="18.34" cy="93.49" r="9.16"/>
<g>
	<path class="st3" d="M18.25,89.86h-0.03l-1.69,0.92l-0.25-1l2.13-1.14h1.13v9.75h-1.27V89.86z"/>
</g>
<circle cx="76.17" cy="93.49" r="9.16"/>
<g>
	<path class="st3" d="M73.21,98.38v-0.81l1.04-1c2.49-2.37,3.61-3.63,3.63-5.1c0-0.99-0.48-1.9-1.94-1.9
		c-0.88,0-1.62,0.45-2.07,0.82l-0.42-0.93c0.67-0.57,1.63-0.99,2.76-0.99c2.1,0,2.98,1.44,2.98,2.83c0,1.8-1.3,3.25-3.36,5.24
		l-0.78,0.72v0.03h4.38v1.09H73.21z"/>
</g>
<circle cx="134" cy="93.49" r="9.16"/>
<g>
	<path class="st3" d="M131.35,96.87c0.38,0.24,1.25,0.61,2.16,0.61c1.7,0,2.22-1.08,2.21-1.89c-0.01-1.37-1.25-1.95-2.52-1.95h-0.74
		v-0.99h0.74c0.96,0,2.17-0.5,2.17-1.65c0-0.78-0.5-1.47-1.71-1.47c-0.78,0-1.53,0.34-1.95,0.64l-0.34-0.96
		c0.51-0.38,1.5-0.75,2.55-0.75c1.92,0,2.79,1.14,2.79,2.33c0,1-0.6,1.86-1.8,2.29v0.03c1.2,0.24,2.17,1.14,2.17,2.5
		c0,1.56-1.21,2.92-3.55,2.92c-1.1,0-2.06-0.34-2.54-0.66L131.35,96.87z"/>
</g>
<circle cx="191.82" cy="93.49" r="9.16"/>
<g>
	<path class="st3" d="M192.94,98.38v-2.66h-4.53v-0.87l4.35-6.23h1.42v6.06h1.37v1.03h-1.37v2.66H192.94z M192.94,94.69v-3.25
		c0-0.51,0.02-1.02,0.04-1.53h-0.04c-0.3,0.57-0.54,0.99-0.81,1.44l-2.38,3.32v0.03H192.94z"/>
</g>
<circle cx="18.34" cy="152.22" r="9.16"/>
<g>
	<path class="st3" d="M21.2,147.74h-3.72l-0.38,2.5c0.23-0.03,0.44-0.06,0.79-0.06c0.75,0,1.5,0.17,2.1,0.52
		c0.76,0.44,1.4,1.28,1.4,2.5c0,1.91-1.52,3.33-3.63,3.33c-1.06,0-1.97-0.3-2.43-0.6l0.33-1.01c0.4,0.24,1.2,0.54,2.08,0.54
		c1.25,0,2.31-0.81,2.31-2.11c-0.02-1.26-0.85-2.16-2.81-2.16c-0.55,0-0.99,0.06-1.35,0.11l0.63-4.68h4.66V147.74z"/>
</g>
<circle cx="76.17" cy="151.49" r="9.16"/>
<g>
	<path class="st3" d="M78.77,147.56c-0.27-0.02-0.61,0-0.99,0.06c-2.07,0.34-3.17,1.86-3.39,3.46h0.04
		c0.47-0.62,1.27-1.13,2.35-1.13c1.73,0,2.94,1.25,2.94,3.15c0,1.78-1.21,3.43-3.24,3.43c-2.08,0-3.45-1.62-3.45-4.16
		c0-1.92,0.69-3.43,1.65-4.39c0.81-0.79,1.89-1.29,3.12-1.44c0.39-0.06,0.72-0.08,0.96-0.08V147.56z M78.4,153.18
		c0-1.39-0.79-2.23-2.01-2.23c-0.79,0-1.53,0.5-1.89,1.2c-0.09,0.15-0.15,0.34-0.15,0.58c0.03,1.6,0.77,2.79,2.15,2.79
		C77.63,155.53,78.4,154.58,78.4,153.18z"/>
</g>
<circle cx="134" cy="151.49" r="9.16"/>
<g>
	<path class="st3" d="M137.37,146.63v0.87l-4.25,8.88h-1.37l4.23-8.63v-0.03h-4.77v-1.1H137.37z"/>
</g>
<circle cx="191.82" cy="151.49" r="9.16"/>
<g>
	<path class="st3" d="M188.74,153.91c0-1.23,0.73-2.1,1.93-2.61l-0.01-0.04c-1.08-0.51-1.54-1.35-1.54-2.19c0-1.54,1.3-2.6,3.01-2.6
		c1.89,0,2.83,1.19,2.83,2.4c0,0.83-0.41,1.71-1.61,2.28v0.04c1.21,0.48,1.96,1.33,1.96,2.52c0,1.7-1.46,2.83-3.31,2.83
		C189.97,156.54,188.74,155.33,188.74,153.91z M193.99,153.84c0-1.18-0.82-1.75-2.14-2.13c-1.14,0.33-1.75,1.08-1.75,2.01
		c-0.04,0.99,0.71,1.86,1.95,1.86C193.23,155.58,193.99,154.85,193.99,153.84z M190.36,148.97c0,0.98,0.74,1.5,1.86,1.8
		c0.84-0.29,1.48-0.89,1.48-1.77c0-0.78-0.46-1.59-1.65-1.59C190.96,147.41,190.36,148.13,190.36,148.97z"/>
</g>
<circle cx="254.43" cy="133.68" r="9.16"/>
<g>
	<path class="st3" d="M252.24,137.63c0.29,0.03,0.62,0,1.07-0.04c0.76-0.11,1.48-0.42,2.04-0.95c0.64-0.58,1.11-1.44,1.29-2.59
		h-0.05c-0.54,0.66-1.32,1.05-2.29,1.05c-1.75,0-2.88-1.32-2.88-2.99c0-1.84,1.33-3.46,3.33-3.46c2,0,3.23,1.62,3.23,4.11
		c0,2.14-0.72,3.64-1.68,4.58c-0.75,0.73-1.78,1.18-2.83,1.3c-0.48,0.08-0.9,0.09-1.21,0.08V137.63z M252.72,132.02
		c0,1.21,0.73,2.07,1.88,2.07c0.88,0,1.57-0.44,1.92-1.02c0.07-0.12,0.12-0.27,0.12-0.48c0-1.67-0.62-2.94-2-2.94
		C253.51,129.66,252.72,130.64,252.72,132.02z"/>
</g>
<circle cx="324.4" cy="133.18" r="9.16"/>
<g>
	<path class="st3" d="M320.45,129.54h-0.03l-1.7,0.92l-0.25-1l2.13-1.14h1.13v9.75h-1.27V129.54z"/>
	<path class="st3" d="M331.76,133.08c0,3.31-1.23,5.14-3.39,5.14c-1.9,0-3.19-1.79-3.22-5.01c0-3.27,1.41-5.07,3.39-5.07
		C330.59,128.15,331.76,129.98,331.76,133.08z M326.47,133.23c0,2.54,0.78,3.98,1.98,3.98c1.35,0,2-1.58,2-4.07
		c0-2.4-0.62-3.97-1.98-3.97C327.31,129.17,326.47,130.58,326.47,133.23z"/>
</g>
</svg>
