<svg xmlns="http://www.w3.org/2000/svg" width="400" height="157.02"><g fill-rule="evenodd"><path d="M45.444 20.111c-.061.061-.111.849-.111 1.75V23.5h1.034c.725 0 .981-.052.857-.176-.217-.217-.094-2.818.148-3.116.183-.225-1.704-.32-1.928-.097m316.762 1.09c.082.668.121 1.459.088 1.757l-.06.542H363.845l-.048-1.708-.047-1.709-.846-.049-.846-.049.148 1.216m-211.428 13.91c-.061.061-.111 14.986-.111 33.167v33.055H153V35h-1.056c-.58 0-1.105.05-1.166.111M255 77.315v42.315l.583.068c.321.038.846.038 1.167 0l.583-.068V35H255v42.315m104.333-9.148v33.182l1.125-.05 1.125-.049V35.083l-1.125-.049-1.125-.049v33.182m-312.792.041.042 32.042h2l.042-32.042.043-32.041h-2.169l.042 32.041M90.022 46.75c-.038 1.194-.004 1.417.217 1.417.143 0 .261.084.261.187 0 .129.064.134.208.017.245-.2 1.095-.135 1.332.102.302.302-.066.55-.765.517-1.217-.058-1.275.019-1.275 1.694v1.483h3.333l.023-.959c.013-.527.055-.789.095-.583.055.285.187.375.55.375.417 0 .484.069.53.542l.052.541h3.334l.05-.608c.043-.511-.043-.699-.541-1.183-.729-.708-.734-.792-.051-.791 1.13.002 1.817.31 1.785.802-.016.246-.021.769-.011 1.163l.018.716 1.125-.049 1.125-.05.052-.541.052-.542h2.146v-1.368l.666.063c.601.057.667.026.667-.314 0-.324.077-.371.542-.332l.541.046v2.988h2.167l.052-.541.052-.542h1.055c1.12 0 1.258-.1 1.258-.917 0-.702-.175-.916-.748-.916-.3 0-.814-.113-1.143-.25-.329-.138-.826-.25-1.104-.25-.466 0-.505-.045-.505-.584 0-.549.032-.583.552-.583.42 0 .64-.12.921-.5.204-.275.484-.5.624-.5.189 0 .239-.14.193-.542l-.061-.541-1.522-.048-1.522-.048-.051.796c-.063.984-1.212 1.463-1.351.564-.044-.287-.075-.205-.092.244-.024.669-.029.674-.608.607l-.583-.068V45.333h-3.334v.584c0 .555-.027.583-.583.583-.589 0-.629-.055-.629-.861 0-.247-.306-.28-2.79-.298-3.218-.023-3.01-.143-2.975 1.714.013.657.055 1.026.095.82.066-.342.165-.375 1.136-.375h1.064l.059-1.042.059-1.041.032 1.041c.032 1.039.034 1.042.532 1.042.47 0 .5.04.5.644 0 .593-.031.637-.409.565-.226-.043-.764.042-1.197.19-.942.321-1.668.345-1.783.059-.047-.114-.09.036-.098.334-.011.487-.062.541-.513.541h-.5v-2.01c0-1.159-.064-1.97-.151-1.916-.083.051-.112-.057-.064-.24.081-.308.006-.334-.982-.334h-1.07l-.044 1.417m208.576-1.125c-.107.342-.092 5.822.017 6.25.064.253.292.292 1.73.292H302v-.75c0-.413.075-.75.167-.75.091 0 .166.075.166.166 0 .092.094.165.209.161.114-.003.047-.139-.149-.304-.551-.46-.363-1.152.287-1.057.523.077.743 1.069.278 1.257-.166.067-.166.086 0 .097.125.008.209.248.209.596v.584h1.647c1.908 0 1.916-.009 1.739-1.703l-.1-.964h.588c.6 0 .684.132.823 1.292.014.114.095.208.182.208.086 0 .101-.131.033-.292-.283-.666-.184-.95.332-.954.578-.005.822.99.277 1.135-.149.04.347.081 1.104.092l1.375.019V52.151l-1.125.05-1.125.049v.577c0 .711.898 1.45 1.422 1.17.576-.309.828-.691.828-1.259v-.571l1.125-.01c.618-.006 1.893-.002 2.833.009l1.708.019v-.776c0-.659-.081-.851-.541-1.284l-.542-.509 1.708.116 1.709.117V46.5h-.573c-.524 0-.577-.046-.625-.542l-.052-.541-1.334-.048-1.333-.047-.051.791c-.066 1.033-.273 1.264-1.065 1.189l-.634-.061-.001.755-.001.754-1.249.049-1.249.049V47.5H312.333v-2.167h-2.166v.584c0 .505-.056.586-.417.604-.229.011-.51.03-.625.042-.115.011-.232.227-.261.479-.049.425-.206.545-.608.466-.088-.017-.257.101-.375.262-.118.162-.214.223-.214.137 0-.088-.477-.132-1.083-.101-1.019.052-1.084.08-1.084.458 0 .349-.078.403-.583.403-.556 0-.584-.028-.584-.584V47.5h3.334v-2.167H302v4.5l-.625.001h-.625l.051-2.25.05-2.251h-1.081c-.883 0-1.098.054-1.172.292m14.842 3.505c-.045.071.445.1 1.087.063 1.148-.064 1.167-.059 1.112.329-.088.623-1.965.685-2.244.074-.104-.227-.148-.454-.098-.504.137-.137.234-.111.143.038M104.667 50.5c-.098.183-.157.339-.131.346.393.106.631.095.631-.027 0-.084-.083-.152-.185-.152-.101 0-.141-.113-.088-.25.139-.364-.019-.306-.227.083m91.944 1.778c-.479.479.065 1.844.789 1.98.502.094.588.18.632.634.049.505.086.528.968.623.568.06.711.108.375.125-.485.024-.542.079-.542.527v.5h-2.306L196.409 55l-.119-1.667H194.333v.563c0 .31.113.833.25 1.162.138.329.25.825.25 1.103 0 .416.068.506.384.506.339 0 .375.066.315.583-.065.554-.101.583-.713.583-.618 0-.64-.019-.55-.472.062-.31-.025-.695-.254-1.122-.191-.358-.348-.896-.348-1.195 0-.835-1.572-.859-1.636-.024-.021.285.042.618.142.738.1.12.225.637.278 1.147.078.76.152.928.406.928.243 0 .31.126.31.584 0 .57-.268.725-1.042.603-.069-.011-.125.242-.125.563 0 .556-.028.584-.583.584-.556 0-.584.027-.584.583 0 .565-.02.583-.637.583-.654 0-.86-.834-.298-1.205.123-.082.104-.124-.056-.125-.132-.002-.45-.203-.705-.448-.398-.382-.633-.453-1.634-.497l-1.17-.052v.58c0 .552-.028.581-.583.581-.556 0-.583.027-.583.583 0 .556-.028.583-.584.583H184v1.834h.837c.865 0 .921-.047 1.215-1.011.097-.315 1.281-.239 1.281.082 0 .113.222.201.507.201.36 0 .48-.065.418-.228-.048-.126-.013-.182.077-.126.474.293.178 1.559-.377 1.613-.403.039-.547.137-.565.385a41.72 41.72 0 0 1-.042.542c-.01.116-.238.208-.518.208-.476 0-.5.033-.502.709-.004 1.322-.9 2.174-1.271 1.208-.064-.167-.327-.25-.791-.25-.388 0-.876-.127-1.106-.288-.944-.661-1.496-.44-1.496.599v.789l.554-.065c.363-.042.753.056 1.125.283.633.385 1.58.463 1.71.14.047-.114.09.14.098.566l.013.774-.625.059c-1.042.099-1.875-.022-1.875-.272 0-.41-.843-.918-1.523-.918h-.644v1.583c0 1.528.013 1.584.375 1.595.206.006.637.057.958.114.321.056.94.107 1.375.113l.792.011v8.169l-.711-.056c-.593-.047-.793.021-1.208.411-.536.505-.542.508-1.164.539-.404.02-.417.058-.417 1.207v1.187l1.625-.121c1.859-.138 1.875-.144 1.875-.645 0-.329.07-.366.583-.306l.584.068v1.238c0 1.18-.016 1.23-.329 1.062-.188-.101-.561-.124-.875-.054-.3.067-.94.124-1.421.128l-.875.007V86.5l.625-.006c.343-.003.812-.113 1.041-.244.23-.131.698-.241 1.042-.244.592-.006.706-.124.656-.68-.004-.049.249-.06.564-.023.864.101.884 1.197.022 1.197-.303 0-.633.082-.733.183-.101.1-.584.232-1.075.291l-.892.109-.051.875-.05.875h.54c.3 0 .692-.141.883-.319.568-.526.979-.502 1.174.069.279.82.405.917 1.18.917.661 0 .74-.041.74-.383 0-.68 1.132-.42 1.199.275.045.457.121.531.593.577.471.045.542.113.542.524 0 .479.244.674.847.674.244 0 .319.118.319.5 0 .46.047.5.584.5.704 0 .918 1.04.25 1.215-.769.201-.305 2.118.512 2.118.341 0 .988-.55.988-.841 0-.35.591-.061.868.424.187.329.287.404.291.219.004-.156-.068-.329-.159-.385-.378-.234-.121-.417.583-.417h.75l-.004 1.208c-.003 1.198-.008 1.211-.541 1.459-.494.229-.542.322-.589 1.125l-.05.875 1.384-.023c.761-.013 1.23-.053 1.043-.09-.409-.082-.385-1.221.025-1.221.49 0 .899-.644.899-1.416v-.75h1.201l-.104.708c-.058.39-.111.879-.119 1.088-.007.209-.235.601-.505.872-.417.417-.485.601-.441 1.204l.051.711 1.5.051c2.182.073 2.543-.019 2.454-.624-.069-.467-.043-.489.737-.59 1.815-.236 2.059-.416 2.059-1.516v-.738h.638c.601 0 .634.027.571.459-.103.708.232 1.381.793 1.593.433.164.498.271.498.824v.636l1.625-.047 1.625-.048.093-.583c.051-.321.025-.724-.058-.896-.084-.171-.201-.659-.262-1.083-.089-.631-.177-.781-.483-.825-.304-.043-.373-.159-.373-.625v-.571h2.291l.124.875c.068.481.134 1.268.146 1.75l.022.875H213.667l-.006-.625c-.003-.344-.113-.813-.244-1.042-.131-.229-.241-.735-.244-1.125-.005-.569-.065-.708-.306-.708-.245 0-.288-.108-.232-.584.106-.904 1.198-.899 1.198.006 0 .324.117.767.259.984.233.356.333.775.389 1.635.015.232.173.292.769.292.901 0 1.015-.514.399-1.787-.21-.433-.322-.925-.279-1.219.058-.394.01-.494-.232-.494-.63 0-.405-1.136.237-1.198.476-.046.548-.117.594-.594l.052-.541 1.198.028c.672.015.923.056.573.093-1.006.105-.859 1.437.207 1.878.582.241.68.183.93-.546.128-.372.323-.559.681-.652.296-.077.579-.302.693-.552a1.28 1.28 0 0 1 .612-.582c.286-.109.418-.285.418-.559 0-.732 1.186-1.021 1.443-.352.191.498 1.137.196 1.193-.381.048-.496.101-.542.625-.542h.573v-1.06c0-1.045-.007-1.06-.436-1.013-.632.069-.898-.079-.898-.5 0-.576.164-.613.745-.17.344.262.756.41 1.146.41h.609v-1.834h-.922c-.525 0-1.082-.104-1.292-.241-.555-.364-1.018-.226-1.141.34-.068.311-.083.222-.042-.247.035-.402.064-.909.064-1.125 0-.77.993-.546 1.027.232.026.615.027.616.094.083.091-.74.803-.759 1.52-.042.392.392.647.5 1.18.5h.679v-2.666h-.599c-.346 0-.777-.141-1.022-.334-.477-.374-1.635-.456-1.769-.125-.046.115-.09-.673-.097-1.75L224 78.5h1.149l.051.875c.048.837.072.877.55.926.275.028.808.165 1.184.305.376.14.901.229 1.167.199l.482-.055.044-5.125.044-5.125h-.74c-.785 0-1.431.528-1.431 1.168 0 .209-.186.319-.667.396-.518.083-.666.18-.666.438 0 .268-.113.331-.584.331H224l.013-1.375c.007-.756.051-1.281.097-1.166.187.461 1.242.235 1.834-.393.463-.491.66-.588 1.069-.528l.5.073-.048-1.18c-.055-1.354-.396-1.57-1.616-1.023-.872.391-1.578.411-1.65.048-.058-.293.885-.833 1.35-.775.699.088.784-.004.784-.847v-.834h-.573c-.316 0-.833.153-1.149.339-.391.231-.74.31-1.093.248-.518-.091-.518-.091-.538.703-.016.665-.037.712-.126.294-.082-.389-.207-.512-.563-.553-.414-.048-.458-.117-.458-.718 0-.401.067-.625.167-.563.158.098.24-.203.202-.75-.01-.158.132-.25.391-.25.276 0 .407.094.407.292 0 .248.163.292 1.083.292h1.084V62.5h-.584c-.584 0-.646-.078-.594-.756.033-.436-.877-.547-1.269-.155-.453.453-1.11.244-1.325-.422-.111-.346-.315-.607-.5-.642-.935-.173-.557-.724.391-.57l.564.091-.05-1.064-.05-1.065-1-.049-1-.049v.716c0 .879-.623 1.093-.72.248-.034-.296-.197-.533-.444-.646-.448-.204-.592-.579-.405-1.056.367-.94.194-1.414-.514-1.414-.642 0-.667.02-.667.545 0 .364-.172.754-.518 1.174-.391.474-.5.749-.445 1.121.069.473.046.493-.566.493-.618 0-.638-.018-.638-.583 0-.511.052-.584.417-.584.398 0 .417-.044.417-1v-1h-.717c-.904 0-1.112.212-1.136 1.159-.018.69-.032.713-.147.258-.291-1.144-.202-1.705.29-1.829.723-.181.876-.405.876-1.275v-.813h-2.666l-.004.625c-.002.363-.141.8-.33 1.042-.189.242-.327.679-.329 1.042-.004.602-.025.625-.587.625-.537 0-.584-.04-.584-.5 0-.448-.056-.503-.541-.524-.511-.022-.504-.029.123-.125.605-.092.672-.154.759-.689.052-.324.265-.819.474-1.101.762-1.03.48-1.47-.979-1.528-1.736-.069-1.963.006-1.873.622.062.424.009.512-.364.606-.6.15-1.099.837-1.099 1.511v.561h-5.666v-.674c0-.677-.553-1.493-1.012-1.493-.119 0-.165-.189-.12-.493.047-.323-.009-.525-.162-.584-.336-.129-3.13-.11-3.262.022M69.333 53.917c0 .555-.027.583-.583.583-.581 0-.583.003-.583.76v.76l.625-.052c.452-.037.669-.152.784-.415.088-.199.444-.475.792-.611.588-.231.632-.296.632-.929v-.68H69.333v.584m60 .071c0 .537.1.739.557 1.125.322.272.721.874.947 1.429.365.895.427.958.944.958h.552v-3h-.583c-.556 0-.583-.028-.583-.583v-.584h-1.834v.655m148.778-.544c-.301.301-.102 1.052.305 1.154.662.166.917-.022.917-.676 0-.575-.808-.891-1.222-.478m59.222.456c0 .692.132.799.817.662.884-.177.763-1.149-.15-1.203-.658-.039-.667-.031-.667.541m-147.125 1.721c-.473.058-.541.129-.541.556 0 .396-.072.49-.375.492-.555.004-.754.19-.799.748-.107 1.319 1.24 1.922 1.652.739.112-.32.322-.515.636-.59.725-.173.886-.382.886-1.15 0-.662-.346-1.03-.834-.887a9.347 9.347 0 0 1-.625.092m149.345.131c-.329.24-.349 26.115-.021 26.835.153.335.309.413.828.413h.64V55.703l-.595-.069c-.328-.039-.711.015-.852.118m-266.303.623c-1.914.661-1.898.581-1.911 9.238-.013 7.978.004 8.144.925 8.868l.439.346 27.44-.039c29.794-.041 28.104.017 28.302-.97.054-.273.239-.571.41-.663.297-.159.312-.504.309-7.286-.003-7.525.005-7.45-.851-7.859-.368-.176-.587-.426-.676-.774-.269-1.048 1.489-.984-27.47-1.01-17.843-.016-26.579.032-26.917.149M282 56.311c-1.546.178-2.359.957-2.331 2.232.009.389.007 3.858-.004 7.709-.023 7.784-.032 7.707 1.042 8.227.707.343.947.354 7.187.354h6.454l.383-.382.382-.382.455.341c.448.334.668.341 11.569.376 6.112.02 11.375.048 11.696.062 4.288.182 16.858-.083 17.324-.367.676-.41.766-.684.442-1.334-.516-1.033-.372-3.581.234-4.147.443-.413.5-.576.5-1.417 0-.84-.057-1.003-.5-1.416-.632-.591-.754-2.352-.184-2.658.713-.381.728-1.604.025-2.043-.543-.339-.493-2.132.076-2.701.699-.699.429-1.298-.993-2.202-.5-.318-51.119-.556-53.757-.252m-6.222.467c-.061.061-.111 5.99-.111 13.176v13.065l.704-.051c.514-.037.751-.144.875-.396.343-.691.224-24.922-.125-25.454-.284-.434-1.054-.629-1.343-.34M208 58.417V59h3.5v1.149l-2.334.051-2.333.05V59h-5.666v2.333h-.584c-.556 0-.583-.027-.583-.589v-.589l-1.708.048-1.709.047-.052.542-.052.541h-2.146v.584c0 .555-.027.583-.583.583-.556 0-.583.028-.583.583 0 .556-.028.584-.584.584-.555 0-.583.027-.583.583v.583l-1.208-.028c-.67-.015-.93-.057-.584-.093.566-.059.625-.112.625-.555 0-.372.077-.49.32-.49.602 0 .847-.195.847-.674 0-.411.07-.479.542-.524.476-.046.548-.118.594-.594.045-.475.111-.542.538-.542.498 0 .837-.577.582-.99-.073-.118.283-.176 1.067-.176h1.177V59h3.5V57.833h8v.584m-132.899.847a1.972 1.972 0 0 0-.101.583c0 .244-.118.32-.5.32-.46 0-.5-.047-.5-.584 0-.559.025-.583.601-.583.48 0 .581.053.5.264m259.053.528c-.008.435-.051.698-.098.583-.046-.115-.294-.208-.552-.208-.41 0-.476-.072-.536-.584-.067-.576-.06-.583.565-.583h.634l-.013.792m-207.487 2.125v1.75H125.5v-3.5H126.667v1.75m87.166-1.167c0 .537.04.583.5.583.382 0 .5.076.5.32 0 .742.158.847 1.268.847 1.064 0 1.066.001 1.066.482 0 .49.24.685.847.685.254 0 .319.119.319.583 0 .556-.027.583-.583.583-.556 0-.583-.027-.583-.583v-.583h-2.334V62.5h-2.25v-2.333h.625c.604 0 .625.02.625.583m-10.562 2.917c.143 0 .229.187.229.5v.5h2.167v-.5c0-.461.046-.5.583-.5h.583v2.166h2.334v-1.166h2.333V67H212.667v2.333h1.166v2.334l.542-.001h.542v3.251l1.125.049 1.125.049v1.645c0 1.161.061 1.67.208 1.73.115.046-.371.09-1.08.097-1.471.015-1.584.143-1.419 1.606l.083.74h-1.126V83h.5c.732 0 .771 1.113.042 1.197-.382.044-.467.143-.511.595l-.052.541-1.198.011c-.658.006-1.685.024-2.281.042l-1.083.031-.049 1.115-.049 1.115-.534.051c-.468.046-.541.119-.587.594l-.052.541H201.182l-.049-1.125-.05-1.125h-2.25v-.625c0-.601-.022-.625-.572-.625-.525 0-.578-.045-.625-.541-.046-.477-.118-.548-.594-.594-.477-.046-.542-.112-.542-.542 0-.448-.049-.489-.583-.489-.556 0-.584-.028-.584-.584V82h-2.145l-.052-.542c-.046-.476-.118-.548-.594-.594l-.542-.052v-2.291l.542-.052.541-.052.046-2.792.046-2.792h.392c.605 0 .805-.379.74-1.411l-.057-.922H195.333v-2.333h-.5c-.46 0-.5-.047-.5-.584 0-.555.028-.583.584-.583.555 0 .583.028.583.583v.584h2.167v-.584c0-.555.027-.583.583-.583.556 0 .583-.028.583-.583v-.584h2.334v-1.072c0-1.178.173-1.322 1.396-1.158.263.035.582.064.708.064m-20.405.783.051.784.821.051c.452.028.946.163 1.097.3.644.582 1.332.324 1.332-.502v-.75l-.625-.001c-.344 0-.85-.15-1.125-.332-.275-.182-.748-.332-1.051-.332l-.551-.001.051.783m12.428.331c-.16.042-.46.043-.667.004-.207-.04-.077-.074.29-.076.366-.002.536.03.377.072m3.333 0a1.834 1.834 0 0 1-.667.004c-.207-.04-.077-.074.29-.076.367-.002.536.03.377.072m-71.96 2.802v1.75H125.5v-3.5H126.667v1.75m63-1.166c0 .555.027.583.583.583.563 0 .583.022.584.625v.625h-2.251v2.224l-.625.059-.625.059v-2.425H188.5v-2.334h.583c.556 0 .584.028.584.584m29.833 0c0 .555.028.583.583.583h.584v2.333h1.166V75H223v2.333H221.833V82h-1.166v3.312l-.542.052c-.472.046-.548.12-.593.577-.044.461-.12.533-.625.592l-.574.067v-1.12c0-.739-.07-1.147-.208-1.203-.115-.046.148-.09.583-.097l.792-.013v-2.146l.542-.052.541-.052.036-3.959.035-3.958H218.333V72.833h.903c1.383 0 1.431-.042 1.431-1.267V70.5h-.625l-.625.001V68.25l-.542-.052-.542-.052V65.833h.584c.555 0 .583.028.583.584m4.5 1.166c0 .537-.04.584-.5.584s-.5-.047-.5-.584c0-.537.04-.583.5-.583s.5.046.5.583m-36.633 5.125.05 1.042 1.166.075 1.167.076-1.167.091-1.166.091v6.667h2.25v.625c0 .603-.021.625-.584.625h-.583v2.167H189.667V86.5H192v2.333h1.069c.704 0 1.096-.071 1.147-.208.042-.115.104.411.138 1.167l.063 1.375h-.625c-.507 0-.629-.063-.646-.334-.012-.183-.03-.427-.042-.541-.011-.115-.264-.232-.562-.261-.496-.048-.542-.101-.542-.625 0-.543-.03-.573-.583-.573-.533 0-.584-.042-.584-.482 0-.49-.24-.684-.847-.684-.254 0-.319-.12-.319-.584 0-.554-.029-.583-.576-.583h-.576l-.049-1.125-.049-1.125-.542-.052-.542-.052V80.833h-1.166v-9.166h1.15l.05 1.041m-7.923 2.403c-.061.061-.111.586-.111 1.167v1.055h.713c1.402 0 2.015-1.201 1.015-1.988-.419-.329-1.382-.469-1.617-.234m120.764 2.394c-.206.083-.377.285-.38.448-.005.281-.014.282-.175.005-.212-.365-1.195-.392-1.487-.041-.313.377-.25 1.055.135 1.467.757.807.864 1.616.285 2.153-.989.917.35 2.365 1.741 1.884.539-.187.59-.26.59-.854v-.65l1.083-.084 1.083-.083.266.583c.709 1.559 2.361 1.704 2.98.26.393-.917 2.015-1.504 2.596-.939.087.084.383.178.658.208.371.041.514.151.554.43.043.304.159.375.616.375.37 0 .718.143 1.013.416.517.479.569.491.955.209.267-.196.264-.251-.06-.875-.264-.511-.344-.972-.341-1.967l.005-1.301-1.163.034c-.795.023-1.162.099-1.162.241 0 .113-.263.237-.583.274-.506.059-.584.021-.584-.288 0-.291-.105-.36-.581-.378-.766-.029-1.463-.404-2.156-1.159-.504-.551-.612-.598-1.021-.453-.948.338-.999 1.503-.074 1.688.621.125.768.311.907 1.155.152.925-.07 1.073-1.545 1.025l-1.193-.038-.002-.708c-.002-.936-.79-1.056-1.731-.265-.379.32-.518.362-.626.192-.189-.298-.181-1.136.01-1.136.66 0 .8-1.068.224-1.708-.295-.327-.314-.33-.837-.12m16.115.051c-.532.264-.644 1.215-.199 1.696.539.583-.009 1.814-.837 1.883-.801.067-.849.666-.131 1.657.595.822 1.441 1.048 2.408.644l.606-.254-.108-1.466c-.059-.806-.172-1.592-.251-1.747-.2-.388-.182-.469.101-.469.388 0 .802-.934.589-1.331-.328-.613-1.508-.945-2.178-.613m-215.531.539c-.252.137-.465.378-.472.535-.008.174-.046.205-.097.078-.117-.29-.39-.261-.39.042 0 .137.112.25.249.25.384 0 .165.91-.221.919-.219.006-.842.643-.759.777.046.076.331.137.632.137.593 0 .985.332 1.183 1 .306 1.031 1.207 1.454 2.236 1.05.668-.262.708-.259 1.189.097.58.429.746.374.878-.288.219-1.096 1.808-.756 1.633.35-.011.068.102.125.251.125.215 0 .249-.109.167-.521-.057-.287-.104-1.064-.104-1.727v-1.206l-1.369-.148-1.37-.148-.113-.56c-.288-1.422-1.493-1.376-1.664.063l-.099.83-.026-.786c-.036-1.097-.7-1.43-1.734-.869m-7.354.78c-.055.206-.101.95-.102 1.653-.002.909-.087 1.426-.294 1.789-.419.732-.153 1.085.868 1.151.886.058 1.261-.173 1.595-.98.381-.92 2.049-.656 2.187.345.033.234.168.417.308.417.138 0 .226-.11.196-.245a17.504 17.504 0 0 1-.149-1.053c-.053-.445-.145-.73-.204-.634-.06.097-.555.196-1.101.22l-.992.045-.048-1.541-.048-1.542h-1.057c-.956 0-1.068.036-1.159.375m219.062.875c0 .194.222.25 1 .25s1-.056 1-.25-.222-.25-1-.25-1 .056-1 .25m-3.649 2.792c-.015.519.038.625.316.625.183 0 .333-.075.333-.167 0-.092-.061-.167-.134-.167-.074 0-.216-.206-.316-.458-.181-.458-.181-.457-.199.167m-177.83-.151c-.102.123-.232.455-.288.737-.143.711-1.104 1.428-2.255 1.681-.705.155-4.43.206-14.917.206-7.688 0-14.128.004-14.311.009-.183.005-6.651-.003-14.373-.018-15.361-.031-14.377-.088-14.377.837v.657h59.479l.052-.541c.044-.455.132-.554.552-.626.421-.071.509-.17.553-.625.047-.495.1-.541.625-.541h.572v-2h-.563c-.309 0-.646.101-.749.224m61.604.73a7.247 7.247 0 0 1-1.25 0c-.344-.036-.062-.065.625-.065.688 0 .969.029.625.065m84.208 1.296v.916h.584c.555 0 .583.028.583.584v.583h60.667v-.583c0-.556.027-.584.583-.584h.583v-1.616l-.708.07c-.39.038-.858.202-1.042.364-1.008.889.472.846-29.418.841-30.324-.006-29.42.023-30.25-.963-.339-.404-.579-.529-1.013-.529h-.569v.917m-90.551 3.041c-.042.161-.077.029-.077-.291 0-.321.035-.452.077-.292.041.16.041.423 0 .583m30.885 1.386v1.141l-1.125.049-1.125.049-.052.532c-.042.437-.131.541-.5.583-.371.043-.457.146-.501.594l-.052.541H211.5v1h-2.333V92.178l1.708-.047 1.708-.048v-2.084l1.125.001h1.125v-.583c0-.556.028-.584.584-.584.564 0 .583-.02.583-.633 0-.625.007-.632.583-.565l.584.068v1.141m5.25-.344c.639 0 .819.184.663.676l-.108.341-.579-.342c-.318-.188-.837-.342-1.153-.342-.542 0-.573-.031-.573-.572 0-.796 1.047-.997 1.135-.219.046.399.125.458.615.458m-37.25 2.833v.834h.583c.556 0 .583.027.583.583 0 .534.042.583.49.583.43 0 .496.066.541.542.046.476.118.548.594.594.496.048.542.101.542.625v.573H190.333v-.756c0-.683-.054-.788-.567-1.09-.311-.184-.613-.519-.669-.744-.057-.226-.218-.41-.358-.41-.14 0-.382-.227-.538-.505-.157-.278-.435-.544-.619-.591-.184-.048-.462-.308-.617-.579-.248-.431-.376-.492-1.041-.492h-.757v.833m12.116-.166c.315 0 .384.089.384.5v.5H200v1.166h4.5l.033-1.125.032-1.125.059 1.125.058 1.125 1.867.013c1.027.008 1.774.051 1.659.098-.114.046-.208.303-.208.57v.486h-8v-.482c0-.578-.222-.685-1.43-.685-.893 0-.903-.006-.903-.5v-.5h-2.334v-.583c0-.534.041-.583.49-.583.27 0 .541-.082.603-.182.08-.13.162-.13.293 0 .099.1.354.182.564.182m19.425 3.777c-.13.052-.208.42-.208.987v.902H218.333v-.738c0-1.059-.672-1.536-1.625-1.151m-24.259 1.227c-.367.289-.449.488-.449 1.091V98h2.016l-.05-1.042c-.058-1.217-.607-1.502-1.517-.787m-139.08 2.37.048 1.709 46.583.046c25.621.025 46.755.004 46.964-.047.369-.089.38-.144.334-1.712l-.048-1.62-46.964-.042-46.964-.042.047 1.708m208.575-1.597c-.34.341-.11 3.216.264 3.307.207.049 21.075.07 46.375.045l46-.046.048-1.708.047-1.709h-46.311c-25.471 0-46.361.05-46.423.111m-89.236 5.666c-.119.049-.208.379-.208.779v.694l10.841-.055c11.808-.06 11.166-.113 11.505.944.108.336.296.727.419.867.145.167.239.833.27 1.917l.048 1.661 1 .019c.55.011 1.311.073 1.691.137.81.137 2.565-.148 2.755-.448.073-.115.134-.737.135-1.383l.003-1.175-.625.07c-.442.049-.779.235-1.148.633-.408.44-.654.563-1.125.563h-.602v-1.666h.666c.7 0 .903-.233.334-.382-1.002-.262-.273-1.618.87-1.618.861 0 .795-.066 1.301 1.291.411 1.1 1.758.667 2.087-.671.383-1.56 2.985-.845 2.879.792l-.054.838.705.051c.388.028.95-.058 1.25-.191.3-.133.676-.284.837-.337.163-.054.292-.263.294-.476.006-1.034.41-1.493.593-.672.204.917.26 1.026.58 1.127.238.076.324.255.324.676 0 .541.031.572.576.572h.575l.05 1.021.049 1.021 1.128.379c1.09.367 1.133.369 1.294.069.13-.243.094-.348-.168-.488-.183-.098-.383-.383-.445-.632-.208-.845-.554-1.204-1.161-1.204-.619 0-.758-.249-.231-.416.183-.058.379-.291.436-.518.064-.255.349-.538.747-.741.354-.18.755-.543.891-.806.389-.753.369-.751 9.759-.813 12.675-.083 11.434-.541 11.373 4.197l-.044 3.431h1.51l-.044-4.542-.045-4.542-31.833-.028c-17.508-.016-31.927.009-32.042.055m39.042 1.783c.308.471.172.94-.273.94-.418 0-.569-.416-.336-.927.229-.503.287-.504.609-.013m-8.417 2.426c-.897.096-.917.11-.97.661-.077.807.065.867 1.771.746l1.533-.109v-1.45l-.709.027c-.389.015-1.12.071-1.625.125m7 1.658c0 .079.188.108.417.064.229-.044.417-.109.417-.144 0-.035-.188-.064-.417-.064-.229 0-.417.065-.417.144m-3.125.606c-.374.269-.465.654-.274 1.153.158.41 1.191.335 1.802-.131.285-.217.76-.448 1.057-.513.746-.164.676-.37-.168-.496-1.864-.28-2.043-.281-2.417-.013M93.711 120.969c-.427.271-.442 1.134-.024 1.427.809.566 1.646.131 1.646-.856 0-.403.083-.533.375-.589.207-.04-.112-.081-.708-.092-.596-.011-1.176.038-1.289.11m7.331-.014c.587.061.625.099.625.634 0 .787.66 1.157 1.461.82.459-.193.539-.311.539-.8 0-.719-.162-.783-1.889-.748-.749.016-1.08.058-.736.094m97.025.041c-.548.221-.437 1.031.163 1.192.686.183.937.019.937-.613 0-.533.029-.558.708-.62.507-.045.4-.069-.375-.082-.596-.01-1.241.045-1.433.123m7.225-.042c.49.061.541.12.541.628 0 .792.364 1.085 1.346 1.085H208v-.816c0-.991-.068-1.027-1.889-.991-.748.015-1.117.057-.819.094m98.083-.01c-.304.122-.261 1.305.057 1.569.753.625 2.235.014 2.235-.922 0-.456.073-.582.375-.64.206-.04-.263-.077-1.042-.082-.779-.005-1.51.028-1.625.075m7.792.038c.485.084.583.172.581.518-.003.588.22.833.759.833.782 0 .993-.159.993-.748 0-.657-.252-.757-1.833-.726-.832.017-.948.045-.5.123m-219.889 1.129c-.061.061-.111.324-.111.583 0 .332-.087.478-.292.492-.16.01-.404.029-.542.042-.153.013-.27.228-.301.554-.042.437-.131.54-.5.583-.343.039-.486.179-.608.593-.138.47-.233.542-.708.542h-.549v1.972l.692-.044c.783-.05 1.141-.401 1.141-1.121 0-.286.123-.528.322-.634a.83.83 0 0 0 .375-.548c.036-.258.221-.425.595-.534.298-.088.541-.249.541-.358 0-.219.371-.4.821-.4.463 0 .846-.553.846-1.221V122h-.806c-.443 0-.855.05-.916.111m12.921.668c.054.848.096.883 1.343 1.135.252.051.458.203.458.339s.15.247.333.247c.26 0 .334.111.334.504 0 .372.106.552.408.689.255.116.45.382.519.705.166.783.533 1.102 1.265 1.102h.641v-2h-.573c-.524 0-.577-.046-.625-.542-.046-.476-.117-.548-.594-.594-.448-.043-.541-.122-.541-.458 0-.223-.08-.406-.177-.406-.097 0-.135-.067-.085-.148.05-.081-.002-.144-.115-.14-.645.023-.771-.067-.821-.587-.051-.529-.073-.543-.937-.592l-.884-.051.051.797m104.468-.607c0 .089.083.161.184.161.102 0 .146.101.099.224a.545.545 0 0 0 .04.426c.075.122.131.003.139-.293.009-.288-.086-.535-.224-.588-.131-.05-.238-.019-.238.07m92.285-.068c-.065.065-.119.326-.119.58 0 .399-.073.469-.541.514-.477.046-.548.117-.594.594-.046.475-.112.541-.539.541-.373 0-.509.093-.586.397-.439 1.75.733 1.972 2.29.434.569-.562 1.244-1.13 1.5-1.263.486-.251.703-.76.609-1.426-.056-.396-1.694-.697-2.02-.371m13.462.037c-.138.138-.089 1.168.06 1.26.132.081 1.359-.19 1.359-.301 0-.742-.976-1.402-1.419-.959M209.5 123.825c0 .474.102.762.341.967.187.16.576.535.864.833.433.449.648.542 1.251.542h.728l-.05-.875c-.049-.85-.066-.877-.583-.927-.463-.045-.538-.12-.583-.583-.051-.524-.066-.533-1.01-.582l-.958-.05v.675m-11.224 2.675c-.245.275-.553.5-.685.5-.355 0-.76.673-.67 1.114l.164.798c.128.617.647.83 1.269.519.455-.227.549-.227.895 0 .28.183.726.24 1.611.203l1.223-.051-.048 1c-.069 1.442.039 1.75.614 1.75.774 0 1.188-1.558.671-2.525-.133-.248-.134-.316-.003-.235.101.062.182.053.18-.021-.005-.296-.268-.487-.664-.482-.362.005-.423-.076-.468-.615l-.052-.622H199.908l.062-.654c.056-.588.011-.68-.445-.916-.68-.352-.733-.341-1.249.237m4.419-.234c-.633.443-.457 1.467.263 1.536.477.046.542.112.542.542 0 .513.24.604 1.331.503.771-.072.92-.97.26-1.563l-.923-.826c-.589-.524-.935-.569-1.473-.192m103.467.072c-.234.234-.326.52-.299.924l.039.586.841-.049c1.091-.064 1.376-1.057.441-1.54-.629-.325-.617-.326-1.022.079m-209.789.037c-.092.115-.199.493-.237.841l-.071.632.926-.049c.905-.048.927-.061.977-.575.078-.811-1.115-1.447-1.595-.849m212.96.106-.416.117-.044 6.348-.044 6.347.377.101c1.133.304 1.125.318 1.147-2.019.108-11.82.163-11.228-1.02-10.894m-209.958.126c-.161.068-.208 1.508-.208 6.399v6.312l.572.108c.956.179.929.356.911-6.061-.02-7.05-.061-7.269-1.275-6.758m113.057.202c-.578.934-.321 1.524.663 1.524h.572v-1.666h-.574c-.315 0-.613.064-.661.142m85.179-.031c-.405.405-.1 1.389.431 1.386.869-.004 1.032-.186.798-.894-.193-.586-.866-.855-1.229-.492m20.895.211c-.548 1.024.568 2.625 1.564 2.243.207-.079.263-.363.263-1.333v-1.232h-.827c-.648 0-.865.07-1 .322m-14.677.939c-.625 1.645 1.015 3.239 3.335 3.239.185 0 .336.075.336.166 0 .092-.225.167-.5.167-.4 0-.505.075-.524.375-.047.729.058 1.542.207 1.597.083.031.156.181.163.334.009.174.045.2.098.068.046-.115.153-.167.237-.115.084.052.162-.004.174-.124.012-.12.077.044.145.365.073.349.132-.539.145-2.208l.022-2.792H305.5v-.577c0-.954-1.345-1.353-1.671-.495m-209.466-.048c-1.189 1.434-.081 2.649 2.836 3.11l.801.127V129h-2.333v-.667c0-.71-.846-1.004-1.304-.453m-7.863 1.287v1.333h.675c.613 0 .698-.053.917-.578.517-1.238.137-2.089-.935-2.089H86.5v1.334m22.599-.972c-.726 1.036.155 2.789 1.169 2.327.392-.179.411-.25.364-1.397l-.049-1.208-.609-.051c-.479-.04-.666.03-.875.329m95.568 2.222v1.416h.577c.688 0 .923-.335.923-1.314 0-1.06-.285-1.519-.944-1.519h-.556v1.417m8.75-.025c-.186.285-.273.959-.316 2.458-.074 2.581.084 2.976 1.191 2.981l.541.002v-2.815c0-2.414-.037-2.83-.263-2.917-.51-.195-.898-.097-1.153.291m83.125-.282c-.155.063-.209.804-.209 2.904v2.819h.58c.931 0 1.067-.382 1.007-2.833-.067-2.721-.346-3.306-1.378-2.89m-106.764 1.168c-.061.061-.111.586-.111 1.166v1.056h.641c.991 0 1.545-.824 1.114-1.657-.313-.604-1.275-.935-1.644-.565m-92.395.524c-.639.061-.757.336-.712 1.664.018.523.029 2.097.026 3.498l-.006 2.547.613-.111c.337-.061.633-.127.658-.148.024-.02.024-1.716 0-3.769l-.045-3.733-.534.052m106.117 1.429c0 1.013.343 1.275 1.158.886.907-.434.469-1.784-.579-1.784h-.579v.898m-2.558-.093c-.151.168-.275.391-.275.496 0 .105-.231.31-.513.456-.282.145-.585.475-.675.731-.089.257-.344.549-.566.65-.222.102-.453.38-.513.619a.928.928 0 0 1-.522.592c-.368.139-.462 1.115-.14 1.444.254.26 1.095-.228 1.095-.636 0-.407.072-.476.542-.521.474-.046.548-.119.593-.584.045-.463.12-.539.583-.584.464-.044.539-.12.584-.583.045-.463.12-.538.583-.583.517-.05.533-.077.582-.927l.051-.875h-.566c-.337 0-.678.124-.843.305m-114.075 1.658c-.683.112-.478 2.102.225 2.17.92.09 1.531-1.072.944-1.796-.333-.412-.538-.477-1.169-.374m220.194-.01c-.835.105-.981 1.939-.167 2.099l.356.07-.357.022c-.398.026-.573.776-.434 1.863.072.56.103.586.642.523l.566-.066v-2.315c0-1.274-.019-2.303-.042-2.289-.023.015-.277.057-.564.093m-197.972.537c-.514.994.632 2.223 1.378 1.477.21-.21.271-1.254.099-1.703-.189-.491-1.185-.339-1.477.226m92.078 1.573c0 1.24.053 1.271 2.261 1.271h1.22l.051.697c.068.933.849 1.344 1.464.77 1.016-.947.209-2.451-1.539-2.869-.664-.158-1.455-.433-1.759-.61-.303-.177-.809-.322-1.125-.322h-.573v1.063m-10.334.301c0 .53.071.804.209.805.114.002.365.045.557.096.274.074.395-.015.557-.405.334-.808.186-1.097-.617-1.204l-.706-.095v.803m127.963-.588c-.413.413.21 1.64.757 1.493.2-.054.457-.098.572-.1.139-.001.208-.281.208-.835v-.834h-.631c-.365 0-.747.117-.906.276m-21.221.705c-.041.041-.075.479-.075.973v.898l.792-.051.791-.051.051-.698c.065-.886-1.007-1.623-1.559-1.071m-209.908 1.133c0 .732 1.02 1.148 1.253.511.29-.794.176-1.031-.545-1.132l-.708-.098v.719m20.565-.183c.056.145.101.401.101.568 0 .634 1.072.35 1.098-.29.021-.524-.001-.542-.639-.542-.534 0-.642.051-.56.264m209.472.495c-.204.143-.371.334-.371.425 0 .091-.45.614-1 1.163-.887.884-1 1.071-1 1.658v.662h.75c.746 0 .75-.003.75-.584 0-.555.028-.583.584-.583.555 0 .583-.028.583-.583 0-.556.028-.584.583-.584h.584V138.5h-.547c-.3 0-.713.117-.916.259M192 139.5v.833h.583c.556 0 .584.028.584.584 0 .555.027.583.583.583.556 0 .583.028.583.583 0 .578.007.584.733.584 1.124 0 1.313-.861.351-1.595-.321-.245-.584-.521-.584-.614 0-.468-1.655-1.791-2.24-1.791H192v.833m19.208-.556c-.114.046-.207.284-.205.528.006 1.207 1.545 1.272 1.632.07l.051-.709-.635.013c-.349.008-.728.051-.843.098m-120.916 1.687c-.239.049-.292.241-.292 1.048v.988H91.833v-.718c0-1.051-.552-1.523-1.541-1.318m2.5 1.631c-.382.207-.459.36-.459.91v.661h1.8v-.6c0-1-.551-1.4-1.341-.971m10.637 0a1.06 1.06 0 0 0-.262.653c0 .215-.046.51-.101.655-.085.221.049.263.833.263h.934v-.63c0-.52-.085-.682-.484-.917-.59-.349-.596-.349-.92-.024m198.833 0c-.149.149-.262.544-.262.917v.654h2.167v-.583c0-1.043-1.218-1.675-1.905-.988m10.997.28a9.173 9.173 0 0 0-.159.759l-.095.55.789-.05c.715-.046.794-.093.841-.493.078-.679-1.187-1.384-1.376-.766m-116.342.1c-.765.248-.475 1.128.381 1.161l.627.025-.063-.664c-.066-.688-.203-.764-.945-.522m-100.62.753c-.442.297-.547.479-.547.945v.577l3.375.045 3.375.045v-.748c0-1.047-.29-1.173-2.323-1.007-2.018.164-2.148.162-2.797-.05-.456-.15-.618-.121-1.083.193m102.981-.022c-.383.312-.461.492-.416.964l.055.58 3.375.045 3.375.045v-.644c0-.859-.448-1.271-1.293-1.191-1.155.109-3.453.079-4.041-.053-.481-.108-.666-.063-1.055.254m107.055-.242c-.548.174-.833.595-.833 1.232v.644l3.375-.045 3.375-.045.051-.615c.085-1.022-.368-1.197-2.758-1.062-1.078.061-2.185.043-2.46-.039-.275-.082-.612-.114-.75-.07" fill="#777779"/><path d="M47.372 20.208c-.242.298-.365 2.899-.148 3.116.319.319 314.929.24 315.051-.079.054-.14.033-.909-.047-1.708l-.145-1.454-157.271-.041c-125.691-.034-157.305 0-157.44.166m57.54 25.655c.084 1.341.034 1.26.713 1.15.612-.098.626-.117.676-.898l.051-.798-.734.038c-.694.036-.733.064-.706.508m203.96.153c-.037.517.005.613.25.566.162-.031.463-.062.67-.069.316-.011.375-.106.375-.603 0-.944-1.227-.843-1.295.106m4.699-.461c-.309.806.001 1.694.61 1.745.737.062.935-.16 1.011-1.133l.058-.75-.793-.051c-.573-.037-.819.016-.886.189m-217.885.903-.019 1.042h-2.13l-.105.561c-.204 1.088.206 1.327 1.577.917l.631-.19.114-1.367c.063-.752.078-1.51.033-1.686-.045-.175-.09.15-.101.723m13.54.037c-.548.227-.893.842-.893 1.592 0 .749.497 1.08 1.623 1.08.284 0 .555.093.602.208.047.115.08-.485.072-1.333-.009-1.001-.078-1.543-.197-1.544a3.397 3.397 0 0 1-.516-.077 1.353 1.353 0 0 0-.691.074M305.5 47.672c0 .128.352.172 1.084.134.596-.031 1.107.015 1.136.102.029.087.097.042.152-.101.084-.218-.095-.264-1.136-.292-.832-.022-1.236.03-1.236.157m5.5.495v.666H312.333V47.5H311v.667m-221 .5c0 .481.15.627.394.383.064-.064.444-.096.844-.072.735.046 1.114-.193.802-.505-.237-.237-1.087-.302-1.332-.102-.144.117-.208.112-.208-.017 0-.103-.112-.187-.25-.187-.167 0-.25.166-.25.5m208.545.833c0 .413.033.581.073.375a2.418 2.418 0 0 0 0-.75c-.04-.206-.073-.038-.073.375M105 49.391c0 .329-.071.361-.667.304l-.666-.063v.673c0 .638.025.672.494.659.272-.008.462-.067.422-.131-.04-.065.043-.26.185-.433.141-.174.209-.222.15-.107-.14.276.303.707.727.707.346 0 .674-1.196.472-1.722-.157-.411-1.117-.314-1.117.113m208.297-.299c-.05.05-.006.277.098.504.279.611 2.156.549 2.244-.074.055-.388.036-.393-1.112-.329-.642.037-1.132.008-1.087-.063.091-.149-.006-.175-.143-.038m-216.464.511c0 .343 1.343 1.397 1.78 1.397.844 0 .789-1.086-.067-1.323-.692-.192-1.713-.236-1.713-.074m205.281.374c-.055.287.029.502.273.7.482.39.78.227.78-.426 0-.737-.918-.976-1.053-.274m4.418.231c.047.654.086.707.51.692.961-.035.981-.045.797-.389a1.678 1.678 0 0 1-.172-.667c0-.283-.105-.344-.593-.344h-.593l.051.708m1.363-.34c-.168.272.3 1.157.559 1.057.132-.05.3-.092.373-.092.074 0 .122-.243.107-.541-.027-.543-.776-.849-1.039-.424m8.411.274c.29.27.527.574.527.675 0 .101.267.183.594.183.584 0 .592-.01.541-.625l-.051-.625-1.069-.05-1.068-.051.526.493m-116.377 2.125c.098.041.148.283.111.537-.055.371.018.502.365.66.238.109.519.386.624.617l.191.419H206.795l.282-.43c.154-.236.508-.508.784-.605.43-.15.494-.245.434-.649-.038-.261.011-.508.109-.549.099-.041-1.808-.074-4.237-.074-2.43 0-4.337.033-4.238.074M71 54.013c0 .633-.044.698-.632.929-.348.136-.704.412-.792.611-.115.264-.332.378-.786.416l-.627.051.006 14.038.005 14.038.529.041c.648.049.696.094.706.657.008.486.767.711 1.197.354.137-.114 4.887-.161 14.258-.142 7.729.015 14.203.023 14.386.018.183-.005 6.623-.009 14.311-.009 10.487 0 14.212-.051 14.917-.206 1.151-.253 2.112-.97 2.255-1.681.146-.731.395-.961 1.037-.961h.563V57.5h-.552c-.517 0-.579-.063-.944-.958-.226-.555-.625-1.157-.947-1.429-.457-.386-.557-.588-.557-1.125v-.655H71v.68m125.333.14c0 1.232.084 1.347.985 1.347h.782l-.067-.568c-.058-.497-.138-.581-.64-.675-.401-.076-.622-.232-.73-.516-.234-.615-.33-.495-.33.412m14.765-.372c-.594.814-.64 1.719-.087 1.719.604 0 1.156-.748 1.156-1.567 0-.752-.572-.833-1.069-.152m68.204.177-.052.625-1.208-.058-1.209-.058v1.106c0 .772.088 1.24.292 1.551.444.677.436 25.181-.008 25.672-.435.481-.345.704.285.704.434 0 .674.125 1.013.529.83.986-.074.957 30.25.963 29.948.005 28.413.05 29.433-.857.192-.171.63-.32.975-.333.76-.029.9-.305.539-1.062-.411-.861-.456-26.698-.047-26.997.151-.111.268-.432.268-.737v-.54l-1.208.058-1.208.059-.052-.625-.052-.625h-13.156c-7.237 0-13.157.059-13.157.131 0 .515-.971.691-1.571.284l-.61-.415h-29.466l-.051.625m-85.635 1.058c0 .738.471 1.651.852 1.651.393 0 .427-.741.073-1.589-.326-.78-.925-.819-.925-.062m21.081-.145c-.091.205-.406.439-.706.524-.496.14-.542.21-.542.824 0 .697.087.714.404.076.148-.3.351-.389.975-.429l.788-.051v1.009c0 .77.057 1.009.241 1.009.383 0 1.092-1.057 1.092-1.629 0-.434.072-.526.458-.585.252-.038.027-.08-.5-.094-.948-.025-.958-.03-.958-.525 0-.655-.974-.756-1.252-.129m-23.373.744c.773.202.306 1.736-.594 1.951-.319.077-.524.27-.641.607-.095.271-.234.494-.309.494-.076 0-.253.044-.396.099-.159.061-.437-.088-.722-.386-.489-.511-1.211-.636-1.346-.232-.047.141-.003.186.111.115.104-.064.189-.041.189.051 0 .091-.075.213-.167.269-.337.208-.149.377.542.488.407.065.892.289 1.14.527.238.228.719.461 1.068.518l.635.103-.098-.61-.099-.609h.656c.639 0 .656-.015.656-.583 0-.43.072-.584.273-.584.232 0 .259-.14.178-.928-.113-1.089-.33-1.412-.93-1.386-.282.013-.334.047-.146.096m-64.331.871c.28.144.513.438.593.75.089.348.308.598.676.774.856.409.848.334.851 7.859.003 6.782-.012 7.127-.309 7.286-.171.092-.356.39-.41.663-.198.987 1.492.929-28.302.97l-27.44.039-.439-.346c-.921-.724-.938-.89-.925-8.868.013-8.657-.003-8.577 1.911-9.238.857-.296 53.211-.188 53.794.111m208.713.077c1.422.904 1.692 1.503.993 2.202-.569.569-.619 2.362-.076 2.701.703.439.688 1.662-.025 2.043-.57.306-.448 2.067.184 2.658.443.413.5.576.5 1.416 0 .841-.057 1.004-.5 1.417-.606.566-.75 3.114-.234 4.147.324.65.234.924-.442 1.334-.466.284-13.036.549-17.324.367-.321-.014-5.584-.042-11.696-.062-10.901-.035-11.121-.042-11.569-.376l-.455-.341-.382.382-.383.382h-6.454c-6.24 0-6.48-.011-7.187-.354-1.074-.52-1.065-.443-1.042-8.227.011-3.851.013-7.32.004-7.709-.028-1.275.785-2.054 2.331-2.232 2.638-.304 53.257-.066 53.757.252m-117.581.5c-.182.492-.038.87.41 1.074.247.113.41.35.444.646.039.338.145.467.387.467.39 0 .548-.753.276-1.319a4.202 4.202 0 0 1-.26-.778c-.121-.565-1.057-.632-1.257-.09m2.325 2.932c-.289.183-.092.441.405.531.203.036.376.262.465.607.212.816 1.302.968 1.541.214.236-.742-.055-1.134-.927-1.25-.452-.06-.915-.143-1.029-.185-.113-.041-.318-.004-.455.083m-34.449 2.161c-.294.964-.35 1.011-1.215 1.011-.692 0-.837.051-.837.297 0 .759 2.092 1.23 2.197.494.041-.293.161-.375.553-.375.476 0 .502-.036.55-.772l.05-.773-.609-.071c-.45-.052-.63-.003-.689.189m36.163 1.973c-.009.321.063.535.176.521.451-.054.609.037.609.35 0 .183.056.34.125.347.069.008.313.045.542.083.553.091 1.5-.494 1.5-.928 0-.302-.109-.335-1.084-.335-.92 0-1.083-.044-1.083-.292 0-.605-.768-.357-.785.254m-39.382 1.469c0 .525.602.902 1.44.902.403 0 .735.088.783.208.047.115.09-.023.098-.307.018-.709-.415-1.043-1.452-1.121-.814-.061-.869-.042-.869.318m3.376.319c.002.366.036.497.076.289a1.83 1.83 0 0 0-.004-.666c-.042-.16-.074.01-.072.377m38.481.847c-.75.315-.671.838.117.776.696-.055 1.526-.478 1.526-.778 0-.302-.923-.301-1.643.002m-42.97 1.004c-.068.178.073.406.422.679.289.226.525.51.525.631 0 .135.257.245.666.284l.667.063v-.612c0-.967-1.965-1.867-2.28-1.045m44.072 2.241c-.782.823-.957 2.285-.25 2.096.206-.055.506-.101.666-.103.184-.001.292-.13.292-.348 0-.191.229-.575.509-.855.683-.684.639-1.367-.092-1.415-.389-.025-.64.114-1.125.625M180.5 73.121v1.816l.5.37c.712.526.712 1.421.001 1.826l-.499.284-.001 1.637-.001 1.638.542-.052c.314-.03.739-.245 1.012-.512.26-.254.541-.461.625-.461.09 0 .154-1.66.154-3.983 0-4.5.126-4.13-1.452-4.29l-.881-.09v1.817m120.545 4.504c.576.64.436 1.708-.224 1.708-.191 0-.199.838-.01 1.136.108.17.247.128.626-.192.941-.791 1.729-.671 1.731.265l.002.708 1.193.038c1.475.048 1.697-.1 1.545-1.025-.139-.844-.286-1.03-.907-1.155-.925-.185-.874-1.35.074-1.688.409-.145.517-.098 1.021.453.632.689 1.283 1.075 1.904 1.128.68.059.833.012.833-.251 0-.44 1.132-.332 1.197.113.049.337.135.361 1.174.322l1.121-.041-.004 1.303c-.004.998.076 1.459.34 1.97.324.624.327.679.06.875-.386.282-.438.27-.955-.209a1.474 1.474 0 0 0-1.013-.416c-.457 0-.573-.071-.616-.375-.04-.279-.183-.389-.554-.43-.275-.03-.571-.124-.658-.208-.581-.565-2.203.022-2.596.939-.619 1.444-2.271 1.299-2.98-.26l-.266-.583-1.083.083-1.083.084v.65c0 .594-.051.667-.59.854-1.391.481-2.73-.967-1.741-1.884.579-.537.472-1.346-.285-2.153-.385-.412-.448-1.09-.135-1.467.292-.351 1.275-.324 1.487.041.161.277.17.276.175-.005.003-.163.174-.365.38-.448.523-.21.542-.207.837.12m16.993.069c.708.361.607 1.806-.126 1.806-.283 0-.301.081-.101.469.079.155.192.941.251 1.747l.108 1.466-.606.254c-.967.404-1.813.178-2.408-.644-.718-.991-.67-1.59.131-1.657.828-.069 1.376-1.3.837-1.883-1.038-1.124.427-2.317 1.914-1.558m-215.86.312c.186.1.33.363.342.625l.019.452.107-.496c.239-1.115 1.426-.924 1.669.27.107.522.168.566.9.651l.785.091v-.55c0-.516.035-.549.583-.549h.584v1.813c0 .996.047 2.046.104 2.333.082.412.048.521-.167.521-.149 0-.262-.057-.251-.125.175-1.106-1.414-1.446-1.633-.35-.132.662-.298.717-.878.288-.481-.356-.521-.359-1.189-.097-1.029.404-1.93-.019-2.236-1.05-.198-.668-.59-1-1.183-1-.301 0-.586-.061-.632-.137-.083-.134.54-.771.759-.777.386-.009.605-.919.221-.919a.25.25 0 0 1-.249-.25c0-.303.273-.332.39-.042.051.127.089.096.097-.078.026-.565 1.219-.966 1.858-.624m-6.476 2.036.048 1.541.992-.045c.546-.024 1.041-.123 1.101-.22.059-.096.151.189.204.634.052.444.12.918.149 1.053.03.135-.058.245-.196.245-.14 0-.275-.183-.308-.417-.138-1.001-1.806-1.265-2.187-.345-.334.807-.709 1.038-1.595.98-1.024-.066-1.274-.405-.868-1.174.208-.395.292-.989.309-2.169l.022-1.625H95.654l.048 1.542M314.5 79.75c0 .194-.222.25-1 .25s-1-.056-1-.25.222-.25 1-.25 1 .056 1 .25m-89.326 1.318c.008.985.681 1.599 1.754 1.599h.572v-.921c0-1.03-.156-1.166-1.625-1.409l-.708-.117.007.848m84.192 1.765c.073 0 .134.075.134.167 0 .092-.15.167-.333.167-.278 0-.331-.106-.316-.625.018-.624.018-.625.199-.167.1.252.242.458.316.458m-126.033-.04c-1.621.121-1.689.159-1.634.925l.051.699.833-.019c1.583-.035 1.633-.09 1.366-1.481-.018-.092-.295-.148-.616-.124m40.834 2.04c0 .276-.089.5-.199.5-.109 0-.053.11.125.245.381.288 2.24.352 2.24.077 0-.375-1.21-1.322-1.69-1.322-.418 0-.476.061-.476.5m-39.142.875c-.019.219-.174.292-.617.292-.756 0-1.575.421-1.575.81 0 .27.098.288.942.173 1.11-.151 1.446-.421 1.347-1.086-.04-.264-.083-.349-.097-.189m38.912 1.244c-.146.146-.129.877.021.9.711.108 1.049.105 1.12-.01.106-.172-.998-1.033-1.141-.89m-39.104 1.172c-1.031.355-1.234 1.876-.25 1.876.408 0 .584.075.584.25 0 .186.195.25.757.25.665 0 .793.061 1.041.492.155.271.433.531.617.579.184.047.462.313.619.591.156.278.398.505.538.505s.301.184.358.41c.056.225.358.56.669.744.513.302.567.407.567 1.09 0 .561.065.756.25.756.175 0 .25.176.25.583 0 .795.727.831 1.485.073.399-.399.63-.5 1.055-.459l.544.053.049 1.041c.049 1.032.245 1.36.418.699.049-.188.321-.43.603-.536.83-.314.773-1.454-.073-1.454-.499 0-.625-.082-.848-.549-.295-.619-.83-.767-.986-.274-.433 1.366-1.891.577-1.715-.928.056-.475.013-.583-.232-.583-.222 0-.3-.129-.3-.5 0-.458-.047-.5-.572-.5-.525 0-.578-.045-.625-.541-.046-.474-.119-.548-.585-.593-.463-.045-.538-.121-.583-.584-.045-.465-.119-.538-.593-.584-.336-.032-.542-.143-.542-.292 0-.171-.204-.239-.716-.239-.752 0-1.117-.218-1.117-.668 0-.4-.382-.806-.667-.708m37 .545c0 .093.242.316.538.496.574.349.946.133.732-.425-.106-.274-1.27-.339-1.27-.071m-.3 2.031c-.11.11-.2.374-.2.587 0 .261-.137.44-.418.547a1.28 1.28 0 0 0-.612.582c-.114.25-.397.475-.693.552-.358.093-.553.28-.681.652-.098.288-.233.576-.299.64-.172.17-1.116-.255-1.29-.58-.175-.327-1.245-.373-1.277-.055-.012.115-.031.35-.042.522-.012.173-.181.356-.378.407-.64.168-.074 2.279.611 2.279.187 0 .246-.219.246-.913 0-1.169 1.415-1.643 1.75-.586.214.673 1.244.454 1.176-.251-.056-.576-.049-.583.592-.583.63 0 .649-.017.649-.583 0-.556.028-.584.581-.584.452 0 .576-.065.557-.291-.061-.724.028-.875.51-.875.836 0 .89-1.201.068-1.513-.523-.199-.609-.194-.85.046m-8.321 5.758c.079.807.601 2.364.614 1.834.005-.181.137-.292.349-.292.309 0 .333-.075.25-.779-.187-1.59-1.367-2.332-1.213-.763m-15.68.787c-.103.227-.37.458-.593.514-.734.184-.696 1.187.049 1.327.417.078.607.046.659-.112.041-.121.274-.421.519-.666.628-.628.628-1.475 0-1.475-.312 0-.502.124-.634.412m12.481.411c.202 1.279.399 1.539 1.123 1.478 1.314-.109.895-2.301-.44-2.301h-.813l.13.823m-5.588.652c-.113.354-.762.692-1.329.692-1.07 0-1.463.193-1.391.684.048.327-.011.491-.193.54-.144.039 1.032.079 2.613.09l2.875.019v-.63c0-.55-.065-.654-.513-.824-.282-.106-.554-.348-.603-.536-.123-.472-1.312-.5-1.459-.035m-52.798 3.143c.207.04.507.039.667-.003.159-.042-.011-.074-.377-.073-.367.002-.497.036-.29.076m208.5 0c.207.04.507.039.667-.003.159-.042-.011-.074-.377-.073-.367.002-.497.036-.29.076m-143.919 1.168c.252.039.665.039.917 0 .252-.038.046-.069-.458-.069-.505 0-.711.031-.459.069m-42.666 1.504-1.042.06v7.482l31.309-.001h31.308l.083-1.874c.228-5.162.134-5.5-1.579-5.705-1.262-.151-18.649-.013-19.002.151-.164.076-.409.353-.545.616-.136.263-.537.626-.891.806-.398.203-.683.486-.747.741-.057.227-.253.46-.436.518-.527.167-.388.416.231.416.607 0 .953.359 1.161 1.204.062.249.262.534.445.632.262.14.298.245.168.488-.271.506-2.399-.256-2.474-.885-.029-.241-.067-.439-.085-.439-.017 0-.275.07-.572.155l-.541.155v-1.31c0-1.164-.037-1.322-.333-1.416-.183-.058-.377-.307-.432-.553-.188-.848-.258-1.031-.393-1.031-.16 0-.336.588-.339 1.131-.002.213-.131.422-.294.476-.161.053-.537.204-.837.337-.3.133-.862.219-1.25.191l-.705-.051.054-.838c.044-.675-.012-.898-.285-1.145-.653-.591-2.519-.502-2.519.12 0 .115-.15.503-.333.863-.184.359-.334.848-.334 1.085v.432l1.125-.125c2.221-.247 2.209-.251 2.209.608v.75l-1.042.034c-.573.02-1.304.051-1.625.07-.321.02-.855.041-1.187.049-.532.012-.617.073-.703.505-.144.719-.607.792-4.318.681l-1.459-.044v-1.705c0-1.667-.055-1.914-.722-3.257l-.207-.417-9.91-.01c-5.451-.005-10.379.017-10.952.05m37.599.283c-.233.511-.082.927.336.927.445 0 .581-.469.273-.94-.322-.491-.38-.49-.609.013m-12.6-.047c-.349.349-.263 1.324.126 1.426.569.149.366.382-.334.382h-.666v1.666h.602c.473 0 .715-.122 1.125-.57.366-.399.698-.586 1.106-.625.683-.064.709-.256.218-1.555-.336-.886-1.596-1.305-2.177-.724m11.084 4.737c.844.126.914.332.168.496-.297.065-.772.296-1.057.513-.611.466-1.644.541-1.802.131-.191-.499-.1-.884.274-1.153.374-.268.553-.267 2.417.013m-113.917 11.86c-.298.053-.375.178-.375.613 0 1.003-.898 1.404-1.712.764-.575-.452-.621-.43-.621.308 0 .671-.382 1.192-.874 1.192-.424 0-.793.186-.793.4 0 .109-.243.27-.541.358-.374.109-.559.276-.595.534a.83.83 0 0 1-.375.548c-.207.111-.322.349-.322.666 0 .63-.542 1.19-1.06 1.096-.685-.124-.871.138-.465.654.747.95.262 2.411-.8 2.411H86.5V134.861l.585-.079c1.069-.144 1.575 1.058.805 1.913-.466.517-.223 1.045.527 1.138.548.069.658.143.622.417-.024.183-.091.727-.148 1.208l-.104.875h.606c.334 0 .607.066.607.147 0 .081.316.152.703.157.862.012 1.13.324 1.13 1.312 0 .816.087.852.898.373.775-.457 1.566-.02 1.422.786-.155.862 1.029 1.044 2.094.322.513-.349.669-.38 1.132-.229.646.211.746.213 2.889.048 1.591-.122 1.705-.109 2.042.227.466.466.664.451.77-.059l.169-.815c.115-.564.534-.661 1.164-.271.917.567 1.587.462 1.587-.248 0-.555.028-.583.583-.583.556 0 .584-.028.584-.583 0-.559.025-.584.602-.584h.602l-.066-1.166-.066-1.167h.631c.643 0 .979-.931.453-1.256-.784-.485-.348-1.911.584-1.911.311 0 .603.094.649.209.047.114.09-.897.098-2.247l.013-2.455-.406.185c-1.059.483-1.904-1.375-1.094-2.404.452-.575.43-.621-.308-.621-.732 0-1.099-.319-1.265-1.102-.069-.323-.264-.589-.519-.705-.302-.137-.408-.317-.408-.689 0-.393-.074-.504-.334-.504-.183 0-.333-.111-.333-.247s-.206-.288-.458-.339c-1.245-.252-1.289-.289-1.343-1.125-.058-.899-.069-.904-.935-.463-.886.452-1.597.128-1.597-.728v-.559l-1.042-.101c-1.105-.108-4.287-.096-4.917.018m104.167-.001c-.679.062-.708.087-.708.62 0 .657-.263.804-1.032.579-.642-.187-2.135-.158-2.135.042 0 .076-.113.137-.25.137-.138 0-.241.057-.23.125.087.55-.048.709-.603.709-.556 0-.584.027-.584.583 0 .556-.027.583-.583.583-.556 0-.583.028-.583.584 0 .555-.028.583-.584.583H192v2.312l-.542.052-.541.053-.048 1.708c-.03 1.07.016 1.708.121 1.708.623 0 .72 1.294.145 1.935-.267.297-.308.569-.267 1.75l.049 1.399.666.083c.726.091.776.256.492 1.625-.111.533-.103.542.499.542.603 0 2.259 1.313 2.259 1.791 0 .093.271.376.602.628.54.412.592.519.507 1.043l-.095.584.983-.103.984-.103.051.622c.067.806.559.906 1.378.281.562-.428.617-.437 1.443-.239.567.136 1.349.168 2.295.093 1.995-.158 2.019-.156 2.426.227.293.275.584.342 1.479.342H208v-1.166h1.167c.641 0 1.157-.057 1.147-.125-.12-.758.035-1.042.567-1.042.63 0 .859-.784.372-1.271-.672-.671-.234-1.396.844-1.396.459 0 .57-.065.57-.333 0-.245.111-.333.42-.333.672 0 1.117-2.098.521-2.45-.682-.403-.766-4.529-.111-5.416.281-.379.332-.684.308-1.836-.015-.76-.057-1.1-.093-.757-.073.699-.901.913-1.441.373-.26-.261-.102-1.127.245-1.341.426-.263.118-.573-.569-.573-.593 0-.811-.095-1.242-.542a16.24 16.24 0 0 0-.864-.833c-.238-.204-.341-.493-.341-.959 0-.458-.072-.666-.232-.666-.128 0-.277-.117-.332-.259-.057-.148-.029-.215.066-.157.25.155.198.004-.127-.366-.368-.419-.875-.433-.875-.024 0 .255-.136.306-.821.306-.978 0-1.346-.293-1.346-1.073 0-.526-.031-.553-.773-.655-.79-.108-3.911-.098-5.185.016m106.167-.004c-.302.058-.375.184-.375.64 0 1.04-1.676 1.595-2.34.776-.383-.473-.466-.463-.368.047.127.668-.097 1.229-.596 1.487-.256.133-.934.704-1.507 1.27-.973.961-1.085 1.025-1.699.966-.744-.071-.765-.015-.379.997.322.843.191 1.026-.736 1.03l-.542.003v1.011c0 .556.083 1.166.185 1.356.29.543.335 4.544.055 4.914-.452.596-.311 1.876.196 1.784.985-.178 1.89 1.627.939 1.875-.588.154-.383 1.134.25 1.195.533.052.649.258.554.99-.017.132.188.208.564.208.578 0 .733.264.61 1.042-.045.284 1.085.111 1.358-.209.668-.78 1.956-.176 1.956.917 0 .718.935.859 1.592.241.201-.188.505-.331.678-.318.172.013 1.448.036 2.836.05 2.145.023 2.572.071 2.847.319.617.557 1.047.293 1.047-.644 0-.522.433-.69.986-.383.755.419 1.18.231 1.18-.521 0-.573.119-.769 1-1.647.55-.549 1-1.072 1-1.163 0-.297.729-.684 1.287-.684.636 0 .662-.12.22-.987-.404-.793-.115-1.18.881-1.18h.612v-7.121l-.602.019c-1.125.035-1.923-2.248-.881-2.52.614-.161.365-1.115-.308-1.18-.496-.048-.542-.101-.542-.625 0-.543-.03-.573-.583-.573-.56 0-.584-.024-.584-.606v-.607l-.875.104c-.481.057-1.025.124-1.208.148-.289.039-.333-.052-.333-.677v-.722l-.542.097-1.127.199c-.722.125-1.037-.11-.999-.747.027-.46-.01-.487-.819-.584-.927-.111-4.289-.102-4.888.013m-106.413 5.383c.761.464 2.402.464 2.992-.001.554-.435.977-.421 1.429.047.201.21.567.508.812.663.78.493.843 1.696.096 1.839-.243.047-.165.081.224.095 1.361.052 1.423 2.856.062 2.856-.645 0-.761.327-.322.907.569.753.135 1.504-.853 1.476-.403-.012-.569.057-.569.235 0 .189-.153.236-.625.191l-.626-.06.061.64c.076.8.572 1.133 2.289 1.537 1.446.341 1.756.626 1.861 1.715.123 1.283-1.311 2.042-1.741.922-.071-.184-.77-.229-3.57-.229h-3.482v-.646c0-.355-.047-.879-.104-1.163-.089-.445-.045-.54.312-.676a.922.922 0 0 0 .525-.592c.06-.239.291-.517.513-.619.222-.101.477-.393.566-.65.09-.256.393-.586.675-.731.282-.146.513-.351.513-.456 0-.403.561-.801 1.128-.801.527 0 .566-.032.443-.375-.074-.206-.139-.937-.145-1.625l-.01-1.25-1.223.051c-.885.037-1.331-.02-1.611-.203-.346-.227-.44-.227-.895 0-.622.311-1.141.098-1.269-.519l-.164-.798c-.09-.441.315-1.114.67-1.114.132 0 .44-.225.685-.5.526-.59.635-.604 1.353-.166m107.667 0c.614.374 1.156.413 2.099.152.993-.276.99-.289.985 4.465-.01 9.699.135 8.817-1.382 8.362-.429-.129-.91-.137-1.546-.028l-.922.159-.073-.597c-.134-1.087.044-1.844.44-1.87l.353-.022-.356-.07c-.783-.153-.675-2.052.117-2.052.571 0 .622-.088.479-.833-.062-.321-.123-.485-.135-.365-.012.12-.09.176-.174.124-.084-.052-.191 0-.237.115-.053.132-.089.106-.098-.068-.007-.153-.08-.303-.163-.334-.149-.055-.254-.868-.207-1.597.019-.3.124-.375.524-.375.275 0 .5-.075.5-.167 0-.091-.151-.166-.336-.166-1.655 0-3.497-1.168-3.497-2.217 0-1.139.251-1.5.961-1.382 1.324.22 1.293.229 1.235-.348-.098-.99.577-1.408 1.433-.886m-209.657.098c.284.199.677.252 1.565.209l1.187-.058.14.532c.077.292.12 3.18.096 6.417l-.044 5.885-.583-.044c-1.529-.115-2.131-.113-2.696.007l-.613.131.006-2.547c.003-1.401-.008-2.975-.026-3.498-.045-1.328.073-1.603.712-1.664.623-.061.786-.678.2-.761-2.973-.421-4.132-1.315-3.467-2.675.287-.588.339-.616 1.134-.616.831 0 .834-.002.889-.583.095-1.002.696-1.297 1.5-.735" fill="#241f1e"/></g></svg>