<?xml version="1.0" encoding="UTF-8"?>
<svg enable-background="new 0 0 1160.19 140.1" version="1.1" viewBox="0 0 1160.2 140.1" xml:space="preserve" xmlns="http://www.w3.org/2000/svg">
<style type="text/css">
	.st0{fill:none;stroke:#1E1E1C;stroke-miterlimit:10;}
	.st1{fill:#020203;}
	.st2{fill:#282727;}
	.st3{fill:#FFFFFF;}
	.st4{fill:#6D6C6C;}
	.st5{fill:none;stroke:#FFFFFF;stroke-miterlimit:10;}
	.st6{fill:none;stroke:#1E1E1C;stroke-width:2;stroke-miterlimit:10;}
	.st7{fill:#231F20;}
</style>

	<rect class="st0" x="392.08" y="59.29" width="20" height="34.95"/>

		<path class="st1" d="m402.65 50.96h-0.02l-0.9 0.49-0.14-0.54 1.14-0.61h0.6v5.2h-0.68v-4.54z"/>


		<path class="st1" d="m397.85 98.64c0.3-0.06 0.78-0.11 1.27-0.11 0.7 0 1.14 0.12 1.48 0.39 0.28 0.21 0.45 0.53 0.45 0.95 0 0.52-0.34 0.98-0.91 1.18v0.02c0.51 0.13 1.11 0.55 1.11 1.35 0 0.46-0.18 0.82-0.46 1.08-0.38 0.34-0.98 0.5-1.86 0.5-0.48 0-0.85-0.03-1.08-0.06v-5.3zm0.7 2.21h0.63c0.74 0 1.17-0.38 1.17-0.9 0-0.63-0.48-0.88-1.18-0.88-0.32 0-0.5 0.02-0.62 0.05v1.73zm0 2.58c0.14 0.02 0.34 0.03 0.58 0.03 0.72 0 1.38-0.26 1.38-1.05 0-0.74-0.63-1.04-1.39-1.04h-0.58v2.06z"/>
		<path class="st1" d="m402.19 98.64c0.42-0.06 0.93-0.11 1.48-0.11 1 0 1.71 0.23 2.18 0.67 0.48 0.44 0.76 1.06 0.76 1.94s-0.27 1.6-0.78 2.09c-0.5 0.5-1.33 0.78-2.38 0.78-0.5 0-0.91-0.02-1.26-0.06v-5.31zm0.69 4.77c0.18 0.03 0.43 0.04 0.7 0.04 1.49 0 2.29-0.83 2.29-2.29 0.01-1.27-0.71-2.08-2.18-2.08-0.36 0-0.63 0.03-0.82 0.07v4.26z"/>



	<rect class="st0" x="427.72" y="59.29" width="20" height="34.95"/>

		<path class="st1" d="m436.77 55.5v-0.43l0.55-0.54c1.33-1.26 1.93-1.94 1.93-2.72 0-0.53-0.26-1.02-1.03-1.02-0.47 0-0.86 0.24-1.1 0.44l-0.22-0.5c0.36-0.3 0.87-0.53 1.47-0.53 1.12 0 1.59 0.77 1.59 1.51 0 0.96-0.7 1.73-1.79 2.79l-0.42 0.38v0.02h2.33v0.58h-3.31z"/>


		<path class="st1" d="m433.6 103.11c0.31 0.19 0.77 0.35 1.25 0.35 0.71 0 1.13-0.38 1.13-0.92 0-0.5-0.29-0.79-1.02-1.07-0.88-0.31-1.42-0.77-1.42-1.53 0-0.84 0.7-1.46 1.74-1.46 0.55 0 0.95 0.13 1.19 0.26l-0.19 0.57c-0.18-0.1-0.54-0.26-1.02-0.26-0.74 0-1.02 0.44-1.02 0.81 0 0.5 0.33 0.75 1.07 1.04 0.91 0.35 1.38 0.79 1.38 1.58 0 0.83-0.62 1.55-1.89 1.55-0.52 0-1.09-0.15-1.38-0.34l0.18-0.58z"/>
		<path class="st1" d="m437.64 98.64c0.42-0.06 0.93-0.11 1.48-0.11 1 0 1.71 0.23 2.18 0.67 0.48 0.44 0.76 1.06 0.76 1.94s-0.27 1.6-0.78 2.09c-0.5 0.5-1.34 0.78-2.38 0.78-0.5 0-0.91-0.02-1.26-0.06v-5.31zm0.69 4.77c0.18 0.03 0.43 0.04 0.7 0.04 1.49 0 2.29-0.83 2.29-2.29 0.01-1.27-0.71-2.08-2.18-2.08-0.36 0-0.63 0.03-0.82 0.07v4.26z"/>



	<rect class="st0" x="463.37" y="59.29" width="20" height="34.95"/>

		<path class="st1" d="m472.58 54.69c0.2 0.13 0.66 0.33 1.15 0.33 0.9 0 1.18-0.58 1.18-1.01-0.01-0.73-0.66-1.04-1.34-1.04h-0.39v-0.53h0.39c0.51 0 1.16-0.26 1.16-0.88 0-0.42-0.26-0.78-0.91-0.78-0.42 0-0.82 0.18-1.04 0.34l-0.18-0.51c0.27-0.2 0.8-0.4 1.36-0.4 1.02 0 1.49 0.61 1.49 1.24 0 0.54-0.32 0.99-0.96 1.22v0.02c0.64 0.13 1.16 0.61 1.16 1.34 0 0.83-0.65 1.56-1.9 1.56-0.58 0-1.09-0.18-1.35-0.35l0.18-0.55z"/>


		<path class="st1" d="m472.76 103.79c-0.26 0.13-0.77 0.26-1.42 0.26-1.52 0-2.66-0.96-2.66-2.73 0-1.69 1.14-2.83 2.81-2.83 0.67 0 1.1 0.14 1.28 0.24l-0.17 0.57c-0.26-0.13-0.64-0.22-1.09-0.22-1.26 0-2.1 0.81-2.1 2.22 0 1.32 0.76 2.17 2.07 2.17 0.42 0 0.86-0.09 1.13-0.22l0.15 0.54z"/>
		<path class="st1" d="m473.63 98.64c0.42-0.06 0.93-0.11 1.48-0.11 1 0 1.71 0.23 2.18 0.67 0.48 0.44 0.76 1.06 0.76 1.94s-0.27 1.6-0.78 2.09c-0.5 0.5-1.33 0.78-2.38 0.78-0.5 0-0.91-0.02-1.26-0.06v-5.31zm0.7 4.77c0.18 0.03 0.43 0.04 0.7 0.04 1.49 0 2.29-0.83 2.29-2.29 0.01-1.27-0.71-2.08-2.18-2.08-0.36 0-0.63 0.03-0.82 0.07v4.26z"/>



	<rect class="st0" x="499.01" y="59.29" width="20" height="34.95"/>

		<path class="st1" d="m510.23 55.5v-1.42h-2.41v-0.46l2.32-3.32h0.76v3.23h0.73v0.55h-0.73v1.42h-0.67zm0-1.97v-1.73c0-0.27 0.01-0.54 0.02-0.82h-0.02c-0.16 0.3-0.29 0.53-0.43 0.77l-1.27 1.77v0.02h1.7z"/>


		<path class="st1" d="m508.86 101.21c0 1.85-1.13 2.84-2.5 2.84-1.42 0-2.42-1.1-2.42-2.73 0-1.71 1.06-2.83 2.5-2.83 1.47-0.01 2.42 1.12 2.42 2.72zm-4.18 0.09c0 1.15 0.62 2.18 1.72 2.18s1.73-1.02 1.73-2.24c0-1.07-0.56-2.19-1.72-2.19-1.15 0-1.73 1.07-1.73 2.25z"/>
		<path class="st1" d="m510.46 98.57v2.25h2.61v-2.25h0.7v5.39h-0.7v-2.53h-2.61v2.53h-0.7v-5.39h0.7z"/>



	<rect class="st0" x="534.66" y="59.29" width="20" height="34.95"/>

		<path class="st1" d="m546.81 50.89h-1.98l-0.2 1.34c0.12-0.02 0.23-0.03 0.42-0.03 0.4 0 0.8 0.09 1.12 0.28 0.41 0.23 0.74 0.68 0.74 1.34 0 1.02-0.81 1.77-1.93 1.77-0.57 0-1.05-0.16-1.29-0.32l0.18-0.54c0.22 0.13 0.64 0.29 1.11 0.29 0.66 0 1.23-0.43 1.23-1.13-0.01-0.67-0.46-1.15-1.5-1.15-0.3 0-0.53 0.03-0.72 0.06l0.34-2.49h2.49v0.58z"/>


		<path class="st1" d="m541.74 98.57h0.7v4.81h2.3v0.58h-3v-5.39z"/>
		<path class="st1" d="m545.84 99.16h-1.64v-0.59h3.99v0.59h-1.65v4.8h-0.7v-4.8z"/>



	<rect class="st0" x="570.3" y="59.29" width="20" height="34.95"/>

		<path class="st1" d="m582.32 50.8c-0.14-0.01-0.33 0-0.53 0.03-1.1 0.18-1.69 0.99-1.81 1.85h0.02c0.25-0.33 0.68-0.6 1.26-0.6 0.92 0 1.57 0.66 1.57 1.68 0 0.95-0.65 1.83-1.73 1.83-1.11 0-1.84-0.86-1.84-2.21 0-1.02 0.37-1.83 0.88-2.34 0.43-0.42 1.01-0.69 1.66-0.77 0.21-0.03 0.38-0.04 0.51-0.04v0.57zm-0.2 3c0-0.74-0.42-1.19-1.07-1.19-0.42 0-0.82 0.26-1.01 0.64-0.05 0.08-0.08 0.18-0.08 0.31 0.02 0.86 0.41 1.49 1.14 1.49 0.61-0.01 1.02-0.51 1.02-1.25z"/>


		<path class="st1" d="m576.68 98.57v2.25h2.61v-2.25h0.7v5.39h-0.7v-2.53h-2.61v2.53h-0.7v-5.39h0.7z"/>
		<path class="st1" d="m584.97 103.79c-0.26 0.13-0.77 0.26-1.42 0.26-1.52 0-2.66-0.96-2.66-2.73 0-1.69 1.14-2.83 2.81-2.83 0.67 0 1.1 0.14 1.28 0.24l-0.17 0.57c-0.26-0.13-0.64-0.22-1.09-0.22-1.26 0-2.1 0.81-2.1 2.22 0 1.32 0.76 2.17 2.07 2.17 0.42 0 0.86-0.09 1.13-0.22l0.15 0.54z"/>



	<rect class="st0" x="605.95" y="59.29" width="20" height="34.95"/>

		<path class="st1" d="m618.37 50.3v0.46l-2.26 4.73h-0.73l2.25-4.6v-0.02h-2.54v-0.57h3.28z"/>


		<path class="st1" d="m612.43 98.64c0.35-0.07 0.86-0.11 1.33-0.11 0.74 0 1.22 0.14 1.56 0.44 0.27 0.24 0.42 0.61 0.42 1.02 0 0.71-0.45 1.18-1.02 1.38v0.02c0.42 0.14 0.66 0.53 0.79 1.09 0.18 0.75 0.3 1.27 0.42 1.48h-0.72c-0.09-0.15-0.21-0.62-0.36-1.29-0.16-0.74-0.45-1.02-1.08-1.05h-0.66v2.33h-0.7v-5.31zm0.7 2.46h0.71c0.74 0 1.21-0.41 1.21-1.02 0-0.7-0.5-1-1.24-1.01-0.33 0-0.58 0.03-0.69 0.06v1.97z"/>
		<path class="st1" d="m616.64 103.11c0.31 0.19 0.77 0.35 1.25 0.35 0.71 0 1.13-0.38 1.13-0.92 0-0.5-0.29-0.79-1.02-1.07-0.88-0.31-1.42-0.77-1.42-1.53 0-0.84 0.7-1.46 1.74-1.46 0.55 0 0.95 0.13 1.19 0.26l-0.19 0.57c-0.18-0.1-0.54-0.26-1.02-0.26-0.74 0-1.02 0.44-1.02 0.81 0 0.5 0.33 0.75 1.07 1.04 0.91 0.35 1.38 0.79 1.38 1.58 0 0.83-0.62 1.55-1.89 1.55-0.52 0-1.09-0.15-1.38-0.34l0.18-0.58z"/>



	<rect class="st0" x="641.6" y="59.29" width="20" height="34.95"/>

		<path class="st1" d="m650.58 54.18c0-0.66 0.39-1.12 1.03-1.39l-0.01-0.02c-0.58-0.27-0.82-0.72-0.82-1.17 0-0.82 0.7-1.38 1.61-1.38 1.01 0 1.51 0.63 1.51 1.28 0 0.44-0.22 0.91-0.86 1.22v0.02c0.65 0.26 1.05 0.71 1.05 1.34 0 0.9-0.78 1.51-1.77 1.51-1.09 0-1.74-0.65-1.74-1.41zm2.8-0.03c0-0.63-0.44-0.94-1.14-1.14-0.61 0.18-0.94 0.58-0.94 1.07-0.02 0.53 0.38 0.99 1.04 0.99 0.63 0.01 1.04-0.39 1.04-0.92zm-1.94-2.6c0 0.52 0.39 0.8 0.99 0.96 0.45-0.15 0.79-0.47 0.79-0.94 0-0.42-0.25-0.85-0.88-0.85-0.58 0-0.9 0.38-0.9 0.83z"/>


		<path class="st1" d="m647.72 98.64c0.35-0.07 0.86-0.11 1.34-0.11 0.74 0 1.22 0.14 1.56 0.44 0.27 0.24 0.42 0.61 0.42 1.02 0 0.71-0.45 1.18-1.02 1.38v0.02c0.42 0.14 0.66 0.53 0.79 1.09 0.18 0.75 0.3 1.27 0.42 1.48h-0.72c-0.09-0.15-0.21-0.62-0.36-1.29-0.16-0.74-0.45-1.02-1.08-1.05h-0.66v2.33h-0.7v-5.31zm0.7 2.46h0.71c0.74 0 1.22-0.41 1.22-1.02 0-0.7-0.5-1-1.24-1.01-0.34 0-0.58 0.03-0.69 0.06v1.97z"/>
		<path class="st1" d="m655.81 103.79c-0.26 0.13-0.77 0.26-1.42 0.26-1.52 0-2.66-0.96-2.66-2.73 0-1.69 1.14-2.83 2.81-2.83 0.67 0 1.1 0.14 1.28 0.24l-0.17 0.57c-0.26-0.13-0.64-0.22-1.09-0.22-1.26 0-2.1 0.81-2.1 2.22 0 1.32 0.76 2.17 2.07 2.17 0.42 0 0.86-0.09 1.13-0.22l0.15 0.54z"/>



	<rect class="st0" x="677.24" y="59.29" width="20" height="34.95"/>

		<path class="st1" d="m686.7 55c0.15 0.02 0.33 0 0.57-0.02 0.41-0.06 0.79-0.22 1.09-0.5 0.34-0.31 0.59-0.77 0.69-1.38h-0.02c-0.29 0.35-0.7 0.56-1.22 0.56-0.94 0-1.54-0.7-1.54-1.59 0-0.98 0.71-1.85 1.78-1.85s1.72 0.86 1.72 2.19c0 1.14-0.38 1.94-0.9 2.44-0.4 0.39-0.95 0.63-1.51 0.7-0.26 0.04-0.48 0.05-0.65 0.04v-0.59zm0.25-2.99c0 0.65 0.39 1.1 1 1.1 0.47 0 0.84-0.23 1.02-0.54 0.04-0.06 0.06-0.14 0.06-0.26 0-0.89-0.33-1.57-1.06-1.57-0.6 0.01-1.02 0.54-1.02 1.27z"/>


		<path class="st1" d="m683.73 103.11c0.31 0.19 0.77 0.35 1.25 0.35 0.71 0 1.13-0.38 1.13-0.92 0-0.5-0.29-0.79-1.02-1.07-0.88-0.31-1.42-0.77-1.42-1.53 0-0.84 0.7-1.46 1.74-1.46 0.55 0 0.95 0.13 1.19 0.26l-0.19 0.57c-0.18-0.1-0.54-0.26-1.02-0.26-0.74 0-1.02 0.44-1.02 0.81 0 0.5 0.33 0.75 1.07 1.04 0.91 0.35 1.38 0.79 1.38 1.58 0 0.83-0.62 1.55-1.89 1.55-0.52 0-1.09-0.15-1.38-0.34l0.18-0.58z"/>
		<path class="st1" d="m689.05 99.42h-0.02l-0.9 0.49-0.14-0.54 1.14-0.61h0.6v5.2h-0.68v-4.54z"/>



	<rect class="st0" x="712.89" y="59.29" width="20" height="34.95"/>

		<path class="st1" d="m721.41 50.96h-0.02l-0.9 0.49-0.14-0.54 1.13-0.61h0.6v5.2h-0.68v-4.54z"/>
		<path class="st1" d="m727.44 52.85c0 1.77-0.66 2.74-1.81 2.74-1.02 0-1.7-0.95-1.72-2.67 0-1.74 0.75-2.7 1.81-2.7 1.1-0.01 1.72 0.97 1.72 2.63zm-2.82 0.08c0 1.35 0.42 2.12 1.06 2.12 0.72 0 1.06-0.84 1.06-2.17 0-1.28-0.33-2.12-1.06-2.12-0.62 0-1.06 0.75-1.06 2.17z"/>


		<path class="st1" d="m719.38 103.11c0.31 0.19 0.77 0.35 1.25 0.35 0.71 0 1.13-0.38 1.13-0.92 0-0.5-0.29-0.79-1.01-1.07-0.88-0.31-1.42-0.77-1.42-1.53 0-0.84 0.7-1.46 1.74-1.46 0.55 0 0.95 0.13 1.19 0.26l-0.19 0.57c-0.18-0.1-0.54-0.26-1.02-0.26-0.74 0-1.02 0.44-1.02 0.81 0 0.5 0.33 0.75 1.07 1.04 0.91 0.35 1.38 0.79 1.38 1.58 0 0.83-0.62 1.55-1.89 1.55-0.52 0-1.09-0.15-1.38-0.34l0.17-0.58z"/>
		<path class="st1" d="m723.17 103.96v-0.43l0.55-0.54c1.33-1.26 1.93-1.94 1.93-2.72 0-0.53-0.26-1.02-1.03-1.02-0.47 0-0.86 0.24-1.1 0.44l-0.22-0.5c0.36-0.3 0.87-0.53 1.47-0.53 1.12 0 1.59 0.77 1.59 1.51 0 0.96-0.7 1.73-1.79 2.79l-0.42 0.38v0.02h2.33v0.58h-3.31z"/>



	<rect class="st0" x="748.53" y="59.29" width="20" height="34.95"/>

		<path class="st1" d="m757.05 50.96h-0.02l-0.9 0.49-0.13-0.54 1.13-0.61h0.6v5.2h-0.68v-4.54z"/>
		<path class="st1" d="m761.16 50.96h-0.02l-0.9 0.49-0.14-0.54 1.14-0.61h0.6v5.2h-0.68v-4.54z"/>


		<path class="st1" d="m755.02 103.11c0.31 0.19 0.77 0.35 1.25 0.35 0.71 0 1.13-0.38 1.13-0.92 0-0.5-0.29-0.79-1.01-1.07-0.88-0.31-1.42-0.77-1.42-1.53 0-0.84 0.7-1.46 1.74-1.46 0.55 0 0.95 0.13 1.19 0.26l-0.19 0.57c-0.18-0.1-0.54-0.26-1.02-0.26-0.74 0-1.02 0.44-1.02 0.81 0 0.5 0.33 0.75 1.07 1.04 0.91 0.35 1.38 0.79 1.38 1.58 0 0.83-0.62 1.55-1.89 1.55-0.52 0-1.09-0.15-1.38-0.34l0.17-0.58z"/>
		<path class="st1" d="m758.98 103.15c0.2 0.13 0.66 0.33 1.15 0.33 0.9 0 1.18-0.58 1.17-1.01-0.01-0.73-0.66-1.04-1.34-1.04h-0.39v-0.53h0.39c0.51 0 1.16-0.26 1.16-0.88 0-0.42-0.26-0.78-0.91-0.78-0.42 0-0.82 0.18-1.04 0.34l-0.18-0.51c0.27-0.2 0.8-0.4 1.36-0.4 1.02 0 1.49 0.61 1.49 1.24 0 0.54-0.32 0.99-0.96 1.22v0.02c0.64 0.13 1.16 0.61 1.16 1.34 0 0.83-0.65 1.56-1.89 1.56-0.58 0-1.1-0.18-1.35-0.35l0.18-0.55z"/>



	<rect class="st0" x="784.18" y="59.29" width="20" height="34.95"/>

		<path class="st1" d="m792.7 50.96h-0.02l-0.9 0.49-0.14-0.54 1.14-0.61h0.6v5.2h-0.68v-4.54z"/>
		<path class="st1" d="m795.28 55.5v-0.43l0.55-0.54c1.33-1.26 1.93-1.94 1.93-2.72 0-0.53-0.26-1.02-1.03-1.02-0.47 0-0.86 0.24-1.1 0.44l-0.22-0.5c0.36-0.3 0.87-0.53 1.47-0.53 1.12 0 1.59 0.77 1.59 1.51 0 0.96-0.7 1.73-1.79 2.79l-0.42 0.38v0.02h2.33v0.58h-3.31z"/>


		<path class="st1" d="m790.67 103.11c0.31 0.19 0.77 0.35 1.25 0.35 0.71 0 1.13-0.38 1.13-0.92 0-0.5-0.29-0.79-1.01-1.07-0.88-0.31-1.42-0.77-1.42-1.53 0-0.84 0.7-1.46 1.74-1.46 0.55 0 0.95 0.13 1.19 0.26l-0.19 0.57c-0.18-0.1-0.54-0.26-1.02-0.26-0.74 0-1.02 0.44-1.02 0.81 0 0.5 0.33 0.75 1.07 1.04 0.91 0.35 1.38 0.79 1.38 1.58 0 0.83-0.62 1.55-1.89 1.55-0.52 0-1.09-0.15-1.38-0.34l0.17-0.58z"/>
		<path class="st1" d="m796.63 103.96v-1.42h-2.42v-0.46l2.32-3.32h0.76v3.23h0.73v0.55h-0.73v1.42h-0.66zm0-1.97v-1.74c0-0.27 0.01-0.54 0.02-0.82h-0.02c-0.16 0.3-0.29 0.53-0.43 0.77l-1.27 1.77v0.02h1.7z"/>



	<rect class="st0" x="819.82" y="59.29" width="20" height="34.95"/>

		<path class="st1" d="m828.34 50.96h-0.02l-0.9 0.49-0.14-0.54 1.14-0.61h0.6v5.2h-0.68v-4.54z"/>
		<path class="st1" d="m831.09 54.69c0.2 0.13 0.66 0.33 1.15 0.33 0.9 0 1.18-0.58 1.17-1.01-0.01-0.73-0.66-1.04-1.34-1.04h-0.39v-0.53h0.39c0.51 0 1.16-0.26 1.16-0.88 0-0.42-0.26-0.78-0.91-0.78-0.42 0-0.82 0.18-1.04 0.34l-0.18-0.51c0.27-0.2 0.8-0.4 1.36-0.4 1.02 0 1.49 0.61 1.49 1.24 0 0.54-0.32 0.99-0.96 1.22v0.02c0.64 0.13 1.16 0.61 1.16 1.34 0 0.83-0.65 1.56-1.89 1.56-0.58 0-1.1-0.18-1.35-0.35l0.18-0.55z"/>


		<path class="st1" d="m826.31 103.11c0.31 0.19 0.77 0.35 1.25 0.35 0.71 0 1.13-0.38 1.13-0.92 0-0.5-0.29-0.79-1.02-1.07-0.88-0.31-1.42-0.77-1.42-1.53 0-0.84 0.7-1.46 1.74-1.46 0.55 0 0.95 0.13 1.19 0.26l-0.19 0.57c-0.18-0.1-0.54-0.26-1.02-0.26-0.74 0-1.02 0.44-1.02 0.81 0 0.5 0.33 0.75 1.07 1.04 0.91 0.35 1.38 0.79 1.38 1.58 0 0.83-0.62 1.55-1.89 1.55-0.52 0-1.09-0.15-1.38-0.34l0.18-0.58z"/>
		<path class="st1" d="m833.21 99.36h-1.98l-0.2 1.34c0.12-0.02 0.23-0.03 0.42-0.03 0.4 0 0.8 0.09 1.12 0.28 0.41 0.23 0.74 0.68 0.74 1.34 0 1.02-0.81 1.77-1.93 1.77-0.57 0-1.05-0.16-1.29-0.32l0.18-0.54c0.22 0.13 0.64 0.29 1.11 0.29 0.66 0 1.23-0.43 1.23-1.13-0.01-0.67-0.46-1.15-1.5-1.15-0.3 0-0.53 0.03-0.72 0.06l0.34-2.49h2.49v0.58z"/>



	<rect class="st0" x="855.47" y="59.29" width="20" height="34.95"/>

		<path class="st1" d="m863.99 50.96h-0.02l-0.9 0.49-0.14-0.54 1.14-0.61h0.6v5.2h-0.68v-4.54z"/>
		<path class="st1" d="m868.74 55.5v-1.42h-2.42v-0.46l2.32-3.32h0.76v3.23h0.73v0.55h-0.73v1.42h-0.66zm0-1.97v-1.73c0-0.27 0.01-0.54 0.02-0.82h-0.02c-0.16 0.3-0.29 0.53-0.43 0.77l-1.27 1.77v0.02h1.7z"/>


		<path class="st1" d="m861.96 103.11c0.31 0.19 0.77 0.35 1.25 0.35 0.71 0 1.13-0.38 1.13-0.92 0-0.5-0.29-0.79-1.02-1.07-0.88-0.31-1.42-0.77-1.42-1.53 0-0.84 0.7-1.46 1.74-1.46 0.55 0 0.95 0.13 1.19 0.26l-0.19 0.57c-0.18-0.1-0.54-0.26-1.02-0.26-0.74 0-1.02 0.44-1.02 0.81 0 0.5 0.33 0.75 1.07 1.04 0.91 0.35 1.38 0.79 1.38 1.58 0 0.83-0.62 1.55-1.89 1.55-0.52 0-1.09-0.15-1.38-0.34l0.18-0.58z"/>
		<path class="st1" d="m868.72 99.26c-0.14-0.01-0.33 0-0.53 0.03-1.1 0.18-1.69 0.99-1.81 1.85h0.02c0.25-0.33 0.68-0.6 1.25-0.6 0.92 0 1.57 0.66 1.57 1.68 0 0.95-0.65 1.83-1.73 1.83-1.11 0-1.84-0.86-1.84-2.21 0-1.02 0.37-1.83 0.88-2.34 0.43-0.42 1.01-0.69 1.66-0.77 0.21-0.03 0.38-0.04 0.51-0.04v0.57zm-0.2 3c0-0.74-0.42-1.19-1.07-1.19-0.42 0-0.82 0.26-1.01 0.64-0.05 0.08-0.08 0.18-0.08 0.31 0.02 0.86 0.41 1.49 1.14 1.49 0.61 0 1.02-0.51 1.02-1.25z"/>



	<rect class="st0" x="891.12" y="59.29" width="20" height="34.95"/>

		<path class="st1" d="m899.64 50.96h-0.02l-0.9 0.49-0.14-0.54 1.13-0.61h0.6v5.2h-0.68v-4.54z"/>
		<path class="st1" d="m905.32 50.89h-1.98l-0.2 1.34c0.12-0.02 0.23-0.03 0.42-0.03 0.4 0 0.8 0.09 1.12 0.28 0.41 0.23 0.74 0.68 0.74 1.34 0 1.02-0.81 1.77-1.93 1.77-0.57 0-1.05-0.16-1.29-0.32l0.18-0.54c0.22 0.13 0.64 0.29 1.11 0.29 0.66 0 1.23-0.43 1.23-1.13-0.01-0.67-0.46-1.15-1.5-1.15-0.3 0-0.53 0.03-0.72 0.06l0.34-2.49h2.49v0.58z"/>


		<path class="st1" d="m897.6 103.11c0.31 0.19 0.77 0.35 1.25 0.35 0.71 0 1.13-0.38 1.13-0.92 0-0.5-0.29-0.79-1.02-1.07-0.88-0.31-1.42-0.77-1.42-1.53 0-0.84 0.7-1.46 1.74-1.46 0.55 0 0.95 0.13 1.19 0.26l-0.19 0.57c-0.18-0.1-0.54-0.26-1.02-0.26-0.74 0-1.02 0.44-1.02 0.81 0 0.5 0.33 0.75 1.07 1.04 0.91 0.35 1.38 0.79 1.38 1.58 0 0.83-0.62 1.55-1.89 1.55-0.52 0-1.09-0.15-1.38-0.34l0.18-0.58z"/>
		<path class="st1" d="m904.77 98.76v0.46l-2.26 4.73h-0.73l2.25-4.6v-0.02h-2.54v-0.58h3.28z"/>



	<rect class="st0" x="926.76" y="59.29" width="20" height="34.95"/>

		<path class="st1" d="m935.28 50.96h-0.02l-0.9 0.49-0.14-0.54 1.13-0.61h0.6v5.2h-0.68v-4.54z"/>
		<path class="st1" d="m940.83 50.8c-0.14-0.01-0.33 0-0.53 0.03-1.1 0.18-1.69 0.99-1.81 1.85h0.02c0.25-0.33 0.68-0.6 1.25-0.6 0.92 0 1.57 0.66 1.57 1.68 0 0.95-0.65 1.83-1.73 1.83-1.11 0-1.84-0.86-1.84-2.21 0-1.02 0.37-1.83 0.88-2.34 0.43-0.42 1.01-0.69 1.66-0.77 0.21-0.03 0.38-0.04 0.51-0.04v0.57zm-0.21 3c0-0.74-0.42-1.19-1.07-1.19-0.42 0-0.82 0.26-1.01 0.64-0.05 0.08-0.08 0.18-0.08 0.31 0.02 0.86 0.41 1.49 1.14 1.49 0.62-0.01 1.02-0.51 1.02-1.25z"/>


		<path class="st1" d="m933.25 103.11c0.31 0.19 0.77 0.35 1.25 0.35 0.71 0 1.13-0.38 1.13-0.92 0-0.5-0.29-0.79-1.01-1.07-0.88-0.31-1.42-0.77-1.42-1.53 0-0.84 0.7-1.46 1.74-1.46 0.55 0 0.95 0.13 1.19 0.26l-0.19 0.57c-0.18-0.1-0.54-0.26-1.02-0.26-0.74 0-1.02 0.44-1.02 0.81 0 0.5 0.33 0.75 1.07 1.04 0.91 0.35 1.38 0.79 1.38 1.58 0 0.83-0.62 1.55-1.89 1.55-0.52 0-1.09-0.15-1.38-0.34l0.17-0.58z"/>
		<path class="st1" d="m936.98 102.64c0-0.66 0.39-1.12 1.03-1.39l-0.01-0.02c-0.58-0.27-0.82-0.72-0.82-1.17 0-0.82 0.7-1.38 1.61-1.38 1.01 0 1.51 0.63 1.51 1.28 0 0.44-0.22 0.91-0.86 1.22v0.02c0.65 0.26 1.05 0.71 1.05 1.34 0 0.9-0.78 1.51-1.77 1.51-1.09 0-1.74-0.65-1.74-1.41zm2.8-0.03c0-0.63-0.44-0.94-1.14-1.14-0.61 0.18-0.94 0.58-0.94 1.07-0.02 0.53 0.38 0.99 1.04 0.99 0.63 0.01 1.04-0.38 1.04-0.92zm-1.94-2.6c0 0.52 0.39 0.8 0.99 0.96 0.45-0.15 0.79-0.47 0.79-0.94 0-0.42-0.25-0.85-0.88-0.85-0.58 0-0.9 0.38-0.9 0.83z"/>


<line class="st0" x1="392.08" x2="661.6" y1="106.66" y2="106.97"/>
<line class="st0" x1="677.24" x2="946.76" y1="106.82" y2="106.82"/>

	<path class="st1" d="m524.3 110.97h-1.64v-0.59h3.99v0.59h-1.65v4.8h-0.7v-4.8z"/>
	<path class="st1" d="m527.26 110.45c0.35-0.07 0.86-0.11 1.34-0.11 0.74 0 1.22 0.14 1.56 0.44 0.27 0.24 0.42 0.61 0.42 1.02 0 0.71-0.45 1.18-1.02 1.38v0.02c0.42 0.14 0.66 0.53 0.79 1.09 0.18 0.75 0.3 1.27 0.42 1.48h-0.72c-0.09-0.15-0.21-0.62-0.36-1.29-0.16-0.74-0.45-1.02-1.08-1.05h-0.66v2.33h-0.7v-5.31zm0.69 2.45h0.71c0.74 0 1.22-0.41 1.22-1.02 0-0.7-0.5-1-1.24-1.01-0.34 0-0.58 0.03-0.69 0.06v1.97z"/>


	<path class="st1" d="m783.2 114.92c0.31 0.19 0.77 0.35 1.25 0.35 0.71 0 1.13-0.38 1.13-0.92 0-0.5-0.29-0.79-1.02-1.07-0.88-0.31-1.42-0.77-1.42-1.53 0-0.84 0.7-1.46 1.74-1.46 0.55 0 0.95 0.13 1.19 0.26l-0.19 0.57c-0.18-0.1-0.54-0.26-1.02-0.26-0.74 0-1.02 0.44-1.02 0.81 0 0.5 0.33 0.75 1.07 1.04 0.91 0.35 1.38 0.79 1.38 1.58 0 0.83-0.62 1.55-1.89 1.55-0.52 0-1.09-0.15-1.38-0.34l0.18-0.58z"/>
	<path class="st1" d="m790.03 113.24h-2.09v1.94h2.33v0.58h-3.03v-5.39h2.91v0.58h-2.21v1.7h2.09v0.59z"/>
	<path class="st1" d="m791.17 110.45c0.35-0.07 0.86-0.11 1.34-0.11 0.74 0 1.22 0.14 1.56 0.44 0.27 0.24 0.42 0.61 0.42 1.02 0 0.71-0.45 1.18-1.02 1.38v0.02c0.42 0.14 0.66 0.53 0.79 1.09 0.18 0.75 0.3 1.27 0.42 1.48h-0.72c-0.09-0.15-0.21-0.62-0.36-1.29-0.16-0.74-0.45-1.02-1.08-1.05h-0.66v2.33h-0.7v-5.31zm0.7 2.45h0.71c0.74 0 1.22-0.41 1.22-1.02 0-0.7-0.5-1-1.24-1.01-0.34 0-0.58 0.03-0.69 0.06v1.97z"/>
	<path class="st1" d="m796.39 114.07-0.56 1.69h-0.72l1.83-5.39h0.84l1.84 5.39h-0.74l-0.58-1.69h-1.91zm1.77-0.55-0.53-1.55c-0.12-0.35-0.2-0.67-0.28-0.98h-0.02c-0.08 0.32-0.17 0.65-0.27 0.98l-0.53 1.56h1.63z"/>
	<path class="st1" d="m800.82 110.97h-1.64v-0.59h3.99v0.59h-1.65v4.8h-0.7v-4.8z"/>
	<path class="st1" d="m808.16 113.01c0 1.85-1.13 2.84-2.5 2.84-1.42 0-2.42-1.1-2.42-2.73 0-1.71 1.06-2.83 2.5-2.83 1.47 0 2.42 1.12 2.42 2.72zm-4.18 0.09c0 1.15 0.62 2.18 1.72 2.18s1.73-1.02 1.73-2.24c0-1.07-0.56-2.19-1.72-2.19-1.15 0-1.73 1.07-1.73 2.25z"/>
	<path class="st1" d="m810.67 114.92c0.31 0.19 0.77 0.35 1.25 0.35 0.71 0 1.13-0.38 1.13-0.92 0-0.5-0.29-0.79-1.02-1.07-0.88-0.31-1.42-0.77-1.42-1.53 0-0.84 0.7-1.46 1.74-1.46 0.55 0 0.95 0.13 1.19 0.26l-0.19 0.57c-0.18-0.1-0.54-0.26-1.02-0.26-0.74 0-1.02 0.44-1.02 0.81 0 0.5 0.33 0.75 1.07 1.04 0.91 0.35 1.38 0.79 1.38 1.58 0 0.83-0.62 1.55-1.89 1.55-0.52 0-1.09-0.15-1.38-0.34l0.18-0.58z"/>
	<path class="st1" d="m815.58 114.07-0.56 1.69h-0.72l1.83-5.39h0.84l1.84 5.39h-0.74l-0.58-1.69h-1.91zm1.77-0.55-0.53-1.55c-0.12-0.35-0.2-0.67-0.28-0.98h-0.02c-0.08 0.32-0.17 0.65-0.27 0.98l-0.53 1.56h1.63z"/>
	<path class="st1" d="m824.12 113.4c-0.04-0.75-0.09-1.66-0.08-2.33h-0.02c-0.18 0.63-0.41 1.3-0.68 2.05l-0.95 2.61h-0.53l-0.87-2.57c-0.26-0.76-0.47-1.46-0.62-2.09h-0.02c-0.02 0.67-0.06 1.58-0.1 2.38l-0.14 2.31h-0.66l0.38-5.39h0.89l0.92 2.61c0.22 0.66 0.41 1.26 0.54 1.82h0.02c0.14-0.54 0.33-1.14 0.57-1.82l0.96-2.61h0.89l0.34 5.39h-0.68l-0.16-2.36z"/>
	<path class="st1" d="m826.01 110.44c0.34-0.06 0.78-0.1 1.34-0.1 0.69 0 1.19 0.16 1.51 0.45 0.3 0.26 0.47 0.65 0.47 1.13 0 0.49-0.14 0.87-0.42 1.15-0.37 0.39-0.97 0.59-1.65 0.59-0.21 0-0.4-0.01-0.56-0.05v2.16h-0.7v-5.33zm0.69 2.6c0.15 0.04 0.34 0.06 0.58 0.06 0.84 0 1.35-0.41 1.35-1.15 0-0.71-0.5-1.06-1.27-1.06-0.3 0-0.54 0.02-0.66 0.06v2.09z"/>
	<path class="st1" d="m830.26 110.37h0.7v4.81h2.3v0.58h-3v-5.39z"/>
	<path class="st1" d="m836.83 113.24h-2.09v1.94h2.33v0.58h-3.03v-5.39h2.91v0.58h-2.21v1.7h2.09v0.59z"/>
	<path class="st1" d="m837.97 110.45c0.35-0.07 0.86-0.11 1.34-0.11 0.74 0 1.22 0.14 1.56 0.44 0.27 0.24 0.42 0.61 0.42 1.02 0 0.71-0.45 1.18-1.02 1.38v0.02c0.42 0.14 0.66 0.53 0.79 1.09 0.18 0.75 0.3 1.27 0.42 1.48h-0.72c-0.09-0.15-0.21-0.62-0.36-1.29-0.16-0.74-0.45-1.02-1.08-1.05h-0.66v2.33h-0.7v-5.31zm0.7 2.45h0.71c0.74 0 1.22-0.41 1.22-1.02 0-0.7-0.5-1-1.24-1.01-0.34 0-0.58 0.03-0.69 0.06v1.97z"/>

<rect class="st0" x="326.08" y="66.55" width="36" height="20.21"/>

	<path class="st1" d="m975.1 55.32c-0.26 0.13-0.77 0.26-1.42 0.26-1.52 0-2.66-0.96-2.66-2.73 0-1.69 1.14-2.83 2.81-2.83 0.67 0 1.09 0.14 1.28 0.24l-0.17 0.57c-0.26-0.13-0.64-0.22-1.09-0.22-1.26 0-2.1 0.81-2.1 2.22 0 1.32 0.76 2.17 2.07 2.17 0.42 0 0.86-0.09 1.14-0.22l0.14 0.54z"/>
	<path class="st1" d="m975.97 50.11h0.7v4.81h2.3v0.58h-3v-5.39z"/>
	<path class="st1" d="m982.54 52.97h-2.09v1.94h2.33v0.58h-3.03v-5.39h2.91v0.58h-2.21v1.7h2.09v0.59z"/>
	<path class="st1" d="m984.55 53.8-0.55 1.7h-0.72l1.83-5.39h0.84l1.84 5.39h-0.74l-0.58-1.7h-1.92zm1.77-0.54-0.53-1.55c-0.12-0.35-0.2-0.67-0.28-0.98h-0.02c-0.08 0.32-0.17 0.65-0.27 0.98l-0.53 1.56h1.63z"/>
	<path class="st1" d="m988.58 50.18c0.35-0.07 0.86-0.11 1.33-0.11 0.74 0 1.22 0.14 1.56 0.44 0.27 0.24 0.42 0.61 0.42 1.02 0 0.71-0.45 1.18-1.01 1.38v0.02c0.42 0.14 0.66 0.53 0.79 1.09 0.18 0.75 0.3 1.27 0.42 1.48h-0.72c-0.09-0.15-0.21-0.62-0.36-1.29-0.16-0.74-0.45-1.02-1.08-1.05h-0.66v2.33h-0.7v-5.31zm0.7 2.46h0.71c0.74 0 1.21-0.41 1.21-1.02 0-0.7-0.5-1-1.24-1.01-0.34 0-0.58 0.03-0.69 0.06v1.97z"/>




			<circle class="st0" cx="1041.2" cy="51.17" r="11.85"/>
			<circle class="st0" cx="1041.2" cy="51.17" r="10.13"/>
			<line class="st0" x1="1041.2" x2="1041.2" y1="41.04" y2="49.76"/>

		<line class="st0" x1="1041.2" x2="1041.2" y1="65.11" y2="65.11"/>
		<line class="st0" x1="1041.2" x2="1041.2" y1="65.11" y2="65.11"/>
		<circle class="st0" cx="1041.2" cy="51.17" r="13.94"/>

			<path class="st1" d="m1031.8 72.06h0.7v4.81h2.3v0.58h-3v-5.39z"/>
			<path class="st1" d="m1038.4 74.92h-2.09v1.94h2.33v0.58h-3.03v-5.39h2.91v0.58h-2.21v1.7h2.09v0.59z"/>
			<path class="st1" d="m1040.8 77.45-1.76-5.39h0.75l0.84 2.65c0.23 0.73 0.43 1.38 0.58 2.01h0.02c0.15-0.62 0.38-1.3 0.62-2.01l0.91-2.66h0.74l-1.93 5.39h-0.77z"/>
			<path class="st1" d="m1046.9 74.92h-2.09v1.94h2.33v0.58h-3.03v-5.39h2.91v0.58h-2.21v1.7h2.09v0.59z"/>
			<path class="st1" d="m1048 72.06h0.7v4.81h2.3v0.58h-3v-5.39z"/>


	<circle class="st1" cx="1030.8" cy="69.53" r=".87"/>
	<circle class="st1" cx="1051.9" cy="69.53" r=".87"/>

		<path class="st1" d="m1022.3 69.24v0.52h-1.97v-0.52h1.97z"/>
		<path class="st1" d="m1025.5 69.88c-0.41 0.41-0.83 0.86-1.48 0.86-0.67 0-1.15-0.5-1.15-1.18 0-0.63 0.51-1.18 1.21-1.18 0.59 0 1.03 0.47 1.42 0.86 0.41-0.41 0.83-0.86 1.48-0.86 0.68 0 1.15 0.5 1.15 1.18 0 0.63-0.51 1.18-1.22 1.18-0.58 0-1.02-0.48-1.41-0.86zm-0.32-0.33c-0.31-0.29-0.64-0.7-1.1-0.7-0.4 0-0.7 0.33-0.7 0.7 0 0.41 0.29 0.7 0.68 0.7 0.45 0.01 0.82-0.39 1.12-0.7zm2.45 0c0-0.41-0.29-0.7-0.68-0.7-0.46 0-0.82 0.39-1.13 0.7 0.31 0.29 0.64 0.7 1.1 0.7 0.4 0.01 0.71-0.32 0.71-0.7z"/>


		<path class="st1" d="m1057 68v1.41h1.36v0.36h-1.36v1.42h-0.38v-1.42h-1.35v-0.36h1.35v-1.41h0.38z"/>
		<path class="st1" d="m1059.1 70.82c0.11 0.01 0.25 0 0.42-0.02 0.31-0.04 0.59-0.17 0.82-0.38 0.26-0.23 0.44-0.58 0.52-1.04h-0.02c-0.22 0.26-0.53 0.42-0.92 0.42-0.7 0-1.15-0.53-1.15-1.19 0-0.74 0.53-1.39 1.33-1.39s1.29 0.65 1.29 1.64c0 0.86-0.29 1.46-0.67 1.83-0.3 0.29-0.71 0.47-1.13 0.52-0.19 0.03-0.36 0.04-0.49 0.03v-0.42zm0.19-2.24c0 0.49 0.29 0.83 0.75 0.83 0.35 0 0.63-0.17 0.77-0.41 0.03-0.05 0.05-0.11 0.05-0.19 0-0.67-0.25-1.18-0.8-1.18-0.45 0-0.77 0.39-0.77 0.95z"/>





			<circle class="st0" cx="1041.2" cy="102.17" r="11.85"/>
			<circle class="st0" cx="1041.2" cy="102.17" r="10.13"/>
			<line class="st0" x1="1041.2" x2="1041.2" y1="92.04" y2="100.76"/>

		<line class="st0" x1="1041.2" x2="1041.2" y1="116.11" y2="116.11"/>
		<line class="st0" x1="1041.2" x2="1041.2" y1="116.11" y2="116.11"/>
		<circle class="st0" cx="1041.2" cy="102.17" r="13.94"/>

			<path class="st1" d="m1033.7 123.65h-1.64v-0.59h3.99v0.59h-1.65v4.8h-0.7v-4.8z"/>
			<path class="st1" d="m1037.3 123.06v3.19c0 1.21 0.54 1.72 1.25 1.72 0.8 0 1.31-0.53 1.31-1.72v-3.19h0.7v3.14c0 1.65-0.87 2.33-2.04 2.33-1.1 0-1.93-0.63-1.93-2.3v-3.17h0.71z"/>
			<path class="st1" d="m1041.8 128.45v-5.39h0.76l1.73 2.73c0.4 0.63 0.71 1.2 0.97 1.75l0.02-0.01c-0.06-0.72-0.08-1.38-0.08-2.21v-2.25h0.66v5.39h-0.7l-1.71-2.73c-0.38-0.6-0.74-1.22-1.01-1.8l-0.02 0.01c0.04 0.68 0.06 1.33 0.06 2.22v2.3h-0.68z"/>
			<path class="st1" d="m1049.8 125.92h-2.09v1.94h2.33v0.58h-3.03v-5.39h2.91v0.58h-2.21v1.7h2.09v0.59z"/>


	<circle class="st1" cx="1030.8" cy="120.53" r=".87"/>
	<circle class="st1" cx="1051.9" cy="120.53" r=".87"/>




			<circle class="st0" cx="1090.2" cy="51.17" r="11.85"/>
			<circle class="st0" cx="1090.2" cy="51.17" r="10.13"/>
			<line class="st0" x1="1090.2" x2="1090.2" y1="41.04" y2="49.76"/>

		<line class="st0" x1="1090.2" x2="1090.2" y1="65.11" y2="65.11"/>
		<line class="st0" x1="1090.2" x2="1090.2" y1="65.11" y2="65.11"/>
		<circle class="st0" cx="1090.2" cy="51.17" r="13.94"/>

			<path class="st1" d="m1078.8 75.75-0.56 1.7h-0.72l1.83-5.39h0.84l1.84 5.39h-0.74l-0.58-1.7h-1.91zm1.77-0.54-0.53-1.55c-0.12-0.35-0.2-0.67-0.28-0.98h-0.02c-0.08 0.32-0.17 0.65-0.27 0.98l-0.53 1.56h1.63z"/>
			<path class="st1" d="m1083.3 72.65h-1.64v-0.59h3.99v0.59h-1.65v4.8h-0.7v-4.8z"/>
			<path class="st1" d="m1087.6 72.65h-1.64v-0.59h3.99v0.59h-1.65v4.8h-0.7v-4.8z"/>
			<path class="st1" d="m1090.8 75.75-0.56 1.7h-0.72l1.83-5.39h0.84l1.84 5.39h-0.74l-0.58-1.7h-1.91zm1.77-0.54-0.53-1.55c-0.12-0.35-0.2-0.67-0.28-0.98h-0.02c-0.08 0.32-0.17 0.65-0.27 0.98l-0.53 1.56h1.63z"/>
			<path class="st1" d="m1098.4 77.27c-0.26 0.13-0.77 0.26-1.42 0.26-1.52 0-2.66-0.96-2.66-2.73 0-1.69 1.14-2.83 2.81-2.83 0.67 0 1.09 0.14 1.28 0.24l-0.17 0.57c-0.26-0.13-0.64-0.22-1.09-0.22-1.26 0-2.1 0.81-2.1 2.22 0 1.32 0.76 2.17 2.07 2.17 0.42 0 0.86-0.09 1.13-0.22l0.15 0.54z"/>
			<path class="st1" d="m1099.3 72.06h0.7v2.6h0.02c0.14-0.21 0.29-0.4 0.42-0.58l1.65-2.02h0.86l-1.95 2.29 2.1 3.1h-0.82l-1.77-2.65-0.51 0.59v2.05h-0.7v-5.38z"/>


	<circle class="st1" cx="1079.8" cy="69.53" r=".87"/>
	<circle class="st1" cx="1100.9" cy="69.53" r=".87"/>




			<circle class="st0" cx="1090.2" cy="102.17" r="11.85"/>
			<circle class="st0" cx="1090.2" cy="102.17" r="10.13"/>
			<line class="st0" x1="1090.2" x2="1090.2" y1="92.04" y2="100.76"/>

		<line class="st0" x1="1090.2" x2="1090.2" y1="116.11" y2="116.11"/>
		<line class="st0" x1="1090.2" x2="1090.2" y1="116.11" y2="116.11"/>
		<circle class="st0" cx="1090.2" cy="102.17" r="13.94"/>

			<path class="st1" d="m1079.6 123.13c0.42-0.06 0.93-0.11 1.48-0.11 1 0 1.71 0.23 2.18 0.67 0.48 0.44 0.76 1.06 0.76 1.94s-0.27 1.6-0.78 2.09c-0.5 0.5-1.34 0.78-2.38 0.78-0.5 0-0.91-0.02-1.26-0.06v-5.31zm0.7 4.77c0.18 0.03 0.43 0.04 0.7 0.04 1.49 0 2.29-0.83 2.29-2.29 0.01-1.27-0.71-2.08-2.18-2.08-0.36 0-0.63 0.03-0.82 0.07v4.26z"/>
			<path class="st1" d="m1087.7 125.92h-2.09v1.94h2.33v0.58h-3.03v-5.39h2.91v0.58h-2.21v1.7h2.09v0.59z"/>
			<path class="st1" d="m1092.6 128.27c-0.26 0.13-0.77 0.26-1.42 0.26-1.52 0-2.66-0.96-2.66-2.73 0-1.69 1.14-2.83 2.81-2.83 0.67 0 1.09 0.14 1.28 0.24l-0.17 0.57c-0.26-0.13-0.64-0.22-1.09-0.22-1.26 0-2.1 0.81-2.1 2.22 0 1.32 0.76 2.17 2.07 2.17 0.42 0 0.86-0.09 1.13-0.22l0.15 0.54z"/>
			<path class="st1" d="m1094.4 126.75-0.56 1.7h-0.72l1.83-5.39h0.84l1.84 5.39h-0.74l-0.58-1.7h-1.91zm1.77-0.54-0.53-1.55c-0.12-0.35-0.2-0.67-0.28-0.98h-0.02c-0.08 0.32-0.17 0.65-0.27 0.98l-0.53 1.56h1.63z"/>
			<path class="st1" d="m1099 128.45v-2.29l-1.7-3.1h0.79l0.76 1.49c0.21 0.41 0.37 0.74 0.54 1.11h0.02c0.15-0.35 0.34-0.7 0.54-1.11l0.78-1.49h0.79l-1.81 3.09v2.29h-0.71z"/>


	<circle class="st1" cx="1079.8" cy="120.53" r=".87"/>
	<circle class="st1" cx="1100.9" cy="120.53" r=".87"/>


	<rect class="st0" x="326.39" y="66.32" width="35.68" height="20.44"/>

		<path class="st1" d="m324.2 54.65c0.31 0.19 0.77 0.35 1.25 0.35 0.71 0 1.13-0.38 1.13-0.92 0-0.5-0.29-0.79-1.02-1.07-0.88-0.31-1.42-0.77-1.42-1.53 0-0.84 0.7-1.46 1.74-1.46 0.55 0 0.95 0.13 1.19 0.26l-0.19 0.57c-0.18-0.1-0.54-0.26-1.02-0.26-0.74 0-1.02 0.44-1.02 0.81 0 0.5 0.33 0.75 1.07 1.04 0.91 0.35 1.38 0.79 1.38 1.58 0 0.83-0.62 1.55-1.89 1.55-0.52 0-1.09-0.15-1.38-0.34l0.18-0.58z"/>
		<path class="st1" d="m329.26 50.7h-1.64v-0.59h3.99v0.59h-1.65v4.8h-0.7v-4.8z"/>
		<path class="st1" d="m332.48 53.8-0.56 1.7h-0.72l1.83-5.39h0.84l1.84 5.39h-0.74l-0.58-1.7h-1.91zm1.77-0.54-0.53-1.55c-0.12-0.35-0.2-0.67-0.28-0.98h-0.02c-0.08 0.32-0.17 0.65-0.27 0.98l-0.53 1.56h1.63z"/>
		<path class="st1" d="m336.51 50.18c0.35-0.07 0.86-0.11 1.33-0.11 0.74 0 1.22 0.14 1.56 0.44 0.27 0.24 0.42 0.61 0.42 1.02 0 0.71-0.45 1.18-1.02 1.38v0.02c0.42 0.14 0.66 0.53 0.79 1.09 0.18 0.75 0.3 1.27 0.42 1.48h-0.72c-0.09-0.15-0.21-0.62-0.36-1.29-0.16-0.74-0.45-1.02-1.08-1.05h-0.66v2.33h-0.7v-5.31zm0.69 2.46h0.71c0.74 0 1.21-0.41 1.21-1.02 0-0.7-0.5-1-1.24-1.01-0.34 0-0.58 0.03-0.69 0.06v1.97z"/>
		<path class="st1" d="m341.91 50.7h-1.64v-0.59h3.99v0.59h-1.65v4.8h-0.7v-4.8z"/>
		<path class="st1" d="m344.25 55.82 2.23-5.8h0.54l-2.24 5.8h-0.53z"/>
		<path class="st1" d="m347.51 54.65c0.31 0.19 0.77 0.35 1.25 0.35 0.71 0 1.13-0.38 1.13-0.92 0-0.5-0.29-0.79-1.02-1.07-0.88-0.31-1.42-0.77-1.42-1.53 0-0.84 0.7-1.46 1.74-1.46 0.55 0 0.95 0.13 1.19 0.26l-0.19 0.57c-0.18-0.1-0.54-0.26-1.02-0.26-0.74 0-1.02 0.44-1.02 0.81 0 0.5 0.33 0.75 1.07 1.04 0.91 0.35 1.38 0.79 1.38 1.58 0 0.83-0.62 1.55-1.89 1.55-0.52 0-1.09-0.15-1.38-0.34l0.18-0.58z"/>
		<path class="st1" d="m352.57 50.7h-1.64v-0.59h3.99v0.59h-1.65v4.8h-0.7v-4.8z"/>
		<path class="st1" d="m359.91 52.75c0 1.85-1.13 2.84-2.5 2.84-1.42 0-2.42-1.1-2.42-2.73 0-1.71 1.06-2.83 2.5-2.83 1.47-0.01 2.42 1.12 2.42 2.72zm-4.18 0.09c0 1.15 0.62 2.18 1.72 2.18s1.73-1.02 1.73-2.24c0-1.07-0.56-2.19-1.72-2.19-1.15 0-1.73 1.06-1.73 2.25z"/>
		<path class="st1" d="m360.82 50.17c0.34-0.06 0.78-0.1 1.34-0.1 0.69 0 1.19 0.16 1.51 0.45 0.3 0.26 0.47 0.65 0.47 1.13 0 0.49-0.14 0.87-0.42 1.15-0.37 0.39-0.97 0.59-1.65 0.59-0.21 0-0.4-0.01-0.56-0.05v2.16h-0.7v-5.33zm0.7 2.6c0.15 0.04 0.34 0.06 0.58 0.06 0.84 0 1.35-0.41 1.35-1.15 0-0.71-0.5-1.06-1.27-1.06-0.3 0-0.54 0.02-0.66 0.06v2.09z"/>

	<rect class="st0" x="117.34" y="43.5" width="75" height="37.16"/>


	<path class="st2" d="m294.01 53.08h-28.61c-1.51 0-2.74-1.23-2.74-2.74v-21.26c0-1.51 1.23-2.74 2.74-2.74h28.61c1.51 0 2.74 1.23 2.74 2.74v21.26c0 1.51-1.23 2.74-2.74 2.74z"/>

		<path class="st3" d="m267.51 46.73v4.72h-0.61v-4.72h0.61z"/>
		<path class="st3" d="m268.57 51.45v-4.72h0.67l1.51 2.39c0.35 0.55 0.62 1.05 0.85 1.53l0.01-0.01c-0.06-0.63-0.07-1.2-0.07-1.94v-1.98h0.57v4.72h-0.62l-1.5-2.4c-0.33-0.52-0.64-1.06-0.88-1.58l-0.02 0.01c0.04 0.6 0.05 1.16 0.05 1.95v2.02h-0.57z"/>
		<path class="st3" d="m273.09 50.71c0.27 0.17 0.67 0.31 1.09 0.31 0.62 0 0.99-0.33 0.99-0.81 0-0.44-0.25-0.69-0.89-0.94-0.77-0.27-1.25-0.67-1.25-1.34 0-0.74 0.61-1.28 1.53-1.28 0.48 0 0.83 0.11 1.04 0.23l-0.17 0.5c-0.15-0.08-0.47-0.22-0.9-0.22-0.64 0-0.89 0.39-0.89 0.71 0 0.44 0.29 0.66 0.94 0.91 0.8 0.31 1.2 0.69 1.2 1.39 0 0.73-0.54 1.36-1.65 1.36-0.46 0-0.95-0.13-1.21-0.3l0.17-0.52z"/>
		<path class="st3" d="m277.52 47.25h-1.44v-0.52h3.5v0.52h-1.44v4.2h-0.62v-4.2z"/>
		<path class="st3" d="m281.16 49.33v0.46h-1.73v-0.46h1.73z"/>
		<path class="st3" d="m281.9 46.79c0.31-0.06 0.75-0.1 1.17-0.1 0.65 0 1.07 0.12 1.37 0.38 0.24 0.21 0.37 0.53 0.37 0.9 0 0.62-0.39 1.04-0.89 1.21v0.02c0.36 0.13 0.58 0.46 0.69 0.95 0.15 0.66 0.27 1.11 0.36 1.3h-0.63c-0.08-0.13-0.18-0.54-0.32-1.13-0.14-0.65-0.39-0.9-0.95-0.92h-0.57v2.04h-0.61v-4.65zm0.61 2.15h0.62c0.65 0 1.06-0.36 1.06-0.9 0-0.61-0.44-0.88-1.08-0.88-0.29 0-0.5 0.03-0.6 0.06v1.72z"/>
		<path class="st3" d="m288.11 49.24h-1.83v1.7h2.04v0.51h-2.65v-4.72h2.55v0.51h-1.94v1.49h1.83v0.51z"/>
		<path class="st3" d="m292.41 51.29c-0.22 0.11-0.67 0.22-1.25 0.22-1.33 0-2.33-0.84-2.33-2.39 0-1.48 1-2.48 2.47-2.48 0.59 0 0.96 0.13 1.12 0.21l-0.15 0.5c-0.23-0.11-0.56-0.2-0.95-0.2-1.11 0-1.84 0.71-1.84 1.95 0 1.16 0.67 1.9 1.81 1.9 0.37 0 0.75-0.08 0.99-0.2l0.13 0.49z"/>

	<path class="st4" d="m292.48 44.82h-25.55c-1.25 0-2.26-1.01-2.26-2.26v-11.9c0-1.25 1.01-2.26 2.26-2.26h25.55c1.25 0 2.26 1.01 2.26 2.26v11.89c0 1.25-1.01 2.27-2.26 2.27z"/>
	<rect class="st5" x="267.34" y="31.13" width="24.33" height="11.05"/>

		<path class="st2" d="m270.6 19.98h-1.44v-0.52h3.5v0.52h-1.44v4.2h-0.62v-4.2z"/>
		<path class="st2" d="m273.18 19.53c0.31-0.06 0.75-0.1 1.17-0.1 0.65 0 1.07 0.12 1.37 0.38 0.24 0.21 0.37 0.53 0.37 0.9 0 0.62-0.39 1.04-0.89 1.21v0.02c0.36 0.13 0.58 0.46 0.69 0.95 0.15 0.66 0.27 1.11 0.36 1.3h-0.63c-0.08-0.13-0.18-0.54-0.32-1.13-0.14-0.65-0.39-0.9-0.95-0.92h-0.57v2.04h-0.61v-4.65zm0.61 2.15h0.62c0.65 0 1.06-0.36 1.06-0.9 0-0.61-0.44-0.88-1.08-0.88-0.29 0-0.5 0.03-0.6 0.06v1.72z"/>
		<path class="st2" d="m278.35 22.06v0.46h-1.73v-0.46h1.73z"/>
		<path class="st2" d="m279.09 19.53c0.31-0.06 0.75-0.1 1.17-0.1 0.65 0 1.07 0.12 1.37 0.38 0.24 0.21 0.37 0.53 0.37 0.9 0 0.62-0.39 1.04-0.89 1.21v0.02c0.36 0.13 0.58 0.46 0.69 0.95 0.15 0.66 0.27 1.11 0.36 1.3h-0.63c-0.08-0.13-0.18-0.54-0.32-1.13-0.14-0.65-0.39-0.9-0.95-0.92h-0.57v2.04h-0.61v-4.65zm0.61 2.15h0.62c0.65 0 1.06-0.36 1.06-0.9 0-0.61-0.44-0.88-1.08-0.88-0.29 0-0.5 0.03-0.6 0.06v1.72z"/>
		<path class="st2" d="m285.3 21.97h-1.83v1.7h2.04v0.51h-2.65v-4.72h2.55v0.51h-1.94v1.49h1.83v0.51z"/>
		<path class="st2" d="m289.6 24.03c-0.22 0.11-0.67 0.22-1.25 0.22-1.33 0-2.33-0.84-2.33-2.39 0-1.48 1-2.48 2.47-2.48 0.59 0 0.96 0.13 1.12 0.21l-0.15 0.5c-0.23-0.11-0.56-0.2-0.95-0.2-1.11 0-1.84 0.71-1.84 1.95 0 1.16 0.67 1.9 1.81 1.9 0.37 0 0.75-0.08 0.99-0.2l0.13 0.49z"/>



	<path class="st2" d="m294.01 93.4h-28.61c-1.51 0-2.74-1.23-2.74-2.74v-21.26c0-1.51 1.23-2.74 2.74-2.74h28.61c1.51 0 2.74 1.23 2.74 2.74v21.26c0 1.51-1.23 2.74-2.74 2.74z"/>

		<path class="st3" d="m275.56 87.05h0.61v2.28h0.02c0.13-0.18 0.25-0.35 0.37-0.5l1.44-1.77h0.76l-1.71 2 1.84 2.72h-0.72l-1.55-2.32-0.45 0.52v1.8h-0.61v-4.73z"/>
		<path class="st3" d="m279.96 87.05v4.72h-0.61v-4.72h0.61z"/>
		<path class="st3" d="m281.92 87.57h-1.44v-0.52h3.5v0.52h-1.44v4.2h-0.62v-4.2z"/>

	<path class="st4" d="m292.48 85.13h-25.55c-1.25 0-2.26-1.01-2.26-2.26v-11.89c0-1.25 1.01-2.26 2.26-2.26h25.55c1.25 0 2.26 1.01 2.26 2.26v11.89c0 1.25-1.01 2.26-2.26 2.26z"/>
	<rect class="st5" x="267.34" y="71.45" width="24.33" height="11.05"/>

		<path class="st2" d="m274.04 59.78v4.72h-0.61v-4.72h0.61z"/>
		<path class="st2" d="m275.1 64.5v-4.72h0.67l1.51 2.39c0.35 0.55 0.62 1.05 0.85 1.53l0.01-0.01c-0.06-0.63-0.07-1.2-0.07-1.94v-1.98h0.57v4.72h-0.62l-1.5-2.4c-0.33-0.52-0.64-1.06-0.88-1.58l-0.02 0.01c0.04 0.6 0.05 1.16 0.05 1.95v2.02h-0.57z"/>
		<path class="st2" d="m279.62 63.76c0.27 0.17 0.67 0.31 1.09 0.31 0.62 0 0.99-0.33 0.99-0.81 0-0.44-0.25-0.69-0.89-0.94-0.77-0.27-1.25-0.67-1.25-1.34 0-0.74 0.61-1.28 1.53-1.28 0.48 0 0.83 0.11 1.04 0.23l-0.17 0.5c-0.15-0.08-0.47-0.22-0.9-0.22-0.64 0-0.89 0.39-0.89 0.71 0 0.44 0.29 0.66 0.94 0.91 0.8 0.31 1.2 0.69 1.2 1.39 0 0.73-0.54 1.36-1.65 1.36-0.46 0-0.95-0.13-1.21-0.3l0.17-0.52z"/>
		<path class="st2" d="m284.05 60.3h-1.44v-0.52h3.5v0.52h-1.44v4.2h-0.62v-4.2z"/>


		<path class="st2" d="m294.01 133.41h-28.61c-1.51 0-2.74-1.23-2.74-2.74v-21.26c0-1.51 1.23-2.74 2.74-2.74h28.61c1.51 0 2.74 1.23 2.74 2.74v21.26c-0.01 1.51-1.23 2.74-2.74 2.74z"/>

			<path class="st3" d="m274.71 130.29-0.49 1.48h-0.63l1.6-4.72h0.74l1.61 4.72h-0.65l-0.5-1.48h-1.68zm1.55-0.48-0.46-1.36c-0.1-0.31-0.17-0.59-0.25-0.86h-0.01c-0.07 0.28-0.15 0.57-0.24 0.85l-0.46 1.37h1.42z"/>
			<path class="st3" d="m281.43 131.62c-0.22 0.11-0.67 0.22-1.25 0.22-1.33 0-2.33-0.84-2.33-2.39 0-1.48 1-2.48 2.47-2.48 0.59 0 0.96 0.13 1.12 0.21l-0.15 0.5c-0.23-0.11-0.56-0.2-0.95-0.2-1.11 0-1.84 0.71-1.84 1.95 0 1.16 0.67 1.9 1.81 1.9 0.37 0 0.75-0.08 0.99-0.2l0.13 0.49z"/>
			<path class="st3" d="m285.34 131.62c-0.22 0.11-0.67 0.22-1.25 0.22-1.33 0-2.33-0.84-2.33-2.39 0-1.48 1-2.48 2.47-2.48 0.59 0 0.96 0.13 1.12 0.21l-0.15 0.5c-0.23-0.11-0.56-0.2-0.95-0.2-1.11 0-1.84 0.71-1.84 1.95 0 1.16 0.67 1.9 1.81 1.9 0.37 0 0.75-0.08 0.99-0.2l0.13 0.49z"/>

		<path class="st4" d="m292.48 125.14h-25.55c-1.25 0-2.26-1.01-2.26-2.26v-11.89c0-1.25 1.01-2.26 2.26-2.26h25.55c1.25 0 2.26 1.01 2.26 2.26v11.89c0 1.25-1.02 2.26-2.26 2.26z"/>
		<rect class="st5" x="267.33" y="111.46" width="24.33" height="11.05"/>

			<path class="st2" d="m267.07 99.85c0.29-0.05 0.68-0.09 1.17-0.09 0.6 0 1.04 0.14 1.32 0.39 0.26 0.22 0.41 0.57 0.41 0.99 0 0.43-0.13 0.76-0.36 1.01-0.32 0.34-0.85 0.52-1.44 0.52-0.18 0-0.35-0.01-0.49-0.04v1.89h-0.61v-4.67zm0.61 2.27c0.13 0.04 0.3 0.05 0.5 0.05 0.74 0 1.18-0.36 1.18-1.01 0-0.62-0.44-0.92-1.11-0.92-0.27 0-0.47 0.02-0.57 0.05v1.83z"/>
			<path class="st2" d="m270.97 103.03-0.49 1.48h-0.63l1.6-4.72h0.74l1.61 4.72h-0.65l-0.5-1.48h-1.68zm1.54-0.48-0.46-1.36c-0.1-0.31-0.17-0.59-0.25-0.86h-0.01c-0.07 0.28-0.15 0.57-0.24 0.85l-0.46 1.37h1.42z"/>
			<path class="st2" d="m274.84 100.31h-1.44v-0.52h3.5v0.52h-1.44v4.2h-0.62v-4.2z"/>
			<path class="st2" d="m278.59 100.31h-1.44v-0.52h3.5v0.52h-1.44v4.2h-0.62v-4.2z"/>
			<path class="st2" d="m283.62 102.3h-1.83v1.7h2.04v0.51h-2.65v-4.72h2.55v0.51h-1.94v1.49h1.83v0.51z"/>
			<path class="st2" d="m284.62 99.85c0.31-0.06 0.75-0.1 1.17-0.1 0.65 0 1.07 0.12 1.37 0.38 0.24 0.21 0.37 0.53 0.37 0.9 0 0.62-0.39 1.04-0.89 1.21v0.02c0.36 0.13 0.58 0.46 0.69 0.95 0.15 0.66 0.27 1.11 0.36 1.3h-0.63c-0.08-0.13-0.18-0.54-0.32-1.13-0.14-0.65-0.39-0.9-0.95-0.92h-0.57v2.04h-0.61v-4.65zm0.61 2.16h0.62c0.65 0 1.06-0.36 1.06-0.9 0-0.61-0.44-0.88-1.08-0.88-0.29 0-0.5 0.03-0.6 0.06v1.72z"/>
			<path class="st2" d="m288.38 104.51v-4.72h0.67l1.51 2.39c0.35 0.55 0.62 1.05 0.85 1.53l0.01-0.01c-0.06-0.63-0.07-1.2-0.07-1.94v-1.98h0.57v4.72h-0.62l-1.5-2.4c-0.33-0.52-0.64-1.06-0.88-1.58l-0.02 0.01c0.04 0.6 0.05 1.16 0.05 1.95v2.02h-0.57z"/>




	<path class="st4" d="m248.73 44.97h-25.55c-1.25 0-2.26-1.01-2.26-2.26v-11.9c0-1.25 1.01-2.26 2.26-2.26h25.55c1.25 0 2.26 1.01 2.26 2.26v11.89c0 1.26-1.01 2.27-2.26 2.27z"/>
	<rect class="st5" x="223.58" y="31.29" width="24.33" height="11.05"/>

		<path class="st2" d="m226.91 23.6c0.27 0.17 0.67 0.31 1.09 0.31 0.62 0 0.99-0.33 0.99-0.81 0-0.44-0.25-0.69-0.89-0.94-0.77-0.27-1.25-0.67-1.25-1.34 0-0.74 0.61-1.28 1.53-1.28 0.48 0 0.83 0.11 1.04 0.23l-0.17 0.5c-0.15-0.08-0.47-0.22-0.9-0.22-0.64 0-0.89 0.39-0.89 0.71 0 0.44 0.29 0.66 0.94 0.91 0.8 0.31 1.2 0.69 1.2 1.39 0 0.73-0.54 1.36-1.65 1.36-0.46 0-0.95-0.13-1.21-0.3l0.17-0.52z"/>
		<path class="st2" d="m233.74 24.19c-0.22 0.11-0.67 0.22-1.25 0.22-1.33 0-2.33-0.84-2.33-2.39 0-1.48 1-2.48 2.47-2.48 0.59 0 0.96 0.13 1.12 0.21l-0.15 0.5c-0.23-0.11-0.56-0.2-0.95-0.2-1.11 0-1.84 0.71-1.84 1.95 0 1.16 0.67 1.9 1.81 1.9 0.37 0 0.75-0.08 0.99-0.2l0.13 0.49z"/>
		<path class="st2" d="m235.3 22.86-0.49 1.48h-0.63l1.6-4.72h0.74l1.61 4.72h-0.65l-0.5-1.48h-1.68zm1.54-0.48-0.46-1.36c-0.1-0.31-0.17-0.59-0.25-0.86h-0.01c-0.07 0.28-0.15 0.57-0.24 0.85l-0.46 1.37h1.42z"/>
		<path class="st2" d="m238.82 19.62h0.61v4.21h2.02v0.51h-2.63v-4.72z"/>
		<path class="st2" d="m244.57 22.13h-1.83v1.7h2.04v0.51h-2.65v-4.72h2.55v0.51h-1.94v1.49h1.83v0.51z"/>



	<path class="st2" d="m250.26 93.55h-28.61c-1.51 0-2.74-1.23-2.74-2.74v-21.26c0-1.51 1.23-2.74 2.74-2.74h28.61c1.51 0 2.74 1.23 2.74 2.74v21.26c-0.01 1.52-1.23 2.74-2.74 2.74z"/>

		<path class="st3" d="m225.4 91.92v-4.72h0.67l1.51 2.39c0.35 0.55 0.62 1.05 0.85 1.53l0.01-0.01c-0.06-0.63-0.07-1.2-0.07-1.94v-1.97h0.57v4.72h-0.62l-1.5-2.4c-0.33-0.52-0.64-1.06-0.88-1.58l-0.02 0.01c0.04 0.6 0.05 1.16 0.05 1.95v2.02h-0.57z"/>
		<path class="st3" d="m230.61 87.2v2.8c0 1.06 0.47 1.51 1.1 1.51 0.7 0 1.15-0.46 1.15-1.51v-2.8h0.62v2.75c0 1.45-0.76 2.05-1.79 2.05-0.97 0-1.69-0.55-1.69-2.02v-2.78h0.61z"/>
		<path class="st3" d="m234.53 87.27c0.37-0.06 0.81-0.1 1.3-0.1 0.88 0 1.5 0.2 1.91 0.59 0.42 0.39 0.67 0.93 0.67 1.7s-0.24 1.4-0.68 1.83c-0.44 0.44-1.17 0.68-2.09 0.68-0.43 0-0.8-0.02-1.11-0.06v-4.64zm0.61 4.17c0.15 0.03 0.38 0.04 0.62 0.04 1.3 0 2.01-0.73 2.01-2 0.01-1.11-0.62-1.82-1.91-1.82-0.32 0-0.55 0.03-0.71 0.06v3.72z"/>
		<path class="st3" d="m242.79 91.71c-0.27 0.1-0.81 0.26-1.45 0.26-0.71 0-1.3-0.18-1.77-0.62-0.41-0.39-0.66-1.02-0.66-1.76 0.01-1.41 0.97-2.44 2.56-2.44 0.55 0 0.97 0.12 1.18 0.22l-0.15 0.5c-0.25-0.11-0.57-0.2-1.04-0.2-1.15 0-1.9 0.71-1.9 1.9 0 1.2 0.72 1.91 1.82 1.91 0.4 0 0.67-0.06 0.81-0.13v-1.41h-0.96v-0.49h1.55v2.26z"/>
		<path class="st3" d="m246.16 89.71h-1.83v1.7h2.04v0.51h-2.65v-4.72h2.55v0.51h-1.94v1.49h1.83v0.51z"/>

	<path class="st4" d="m248.73 85.29h-25.55c-1.25 0-2.26-1.01-2.26-2.26v-11.9c0-1.25 1.01-2.26 2.26-2.26h25.55c1.25 0 2.26 1.01 2.26 2.26v11.89c0 1.26-1.01 2.27-2.26 2.27z"/>
	<rect class="st5" x="223.58" y="71.61" width="24.33" height="11.05"/>

		<path class="st2" d="m223.14 63.92c0.27 0.17 0.67 0.31 1.09 0.31 0.62 0 0.99-0.33 0.99-0.81 0-0.44-0.25-0.69-0.89-0.94-0.77-0.27-1.25-0.67-1.25-1.34 0-0.74 0.61-1.28 1.53-1.28 0.48 0 0.83 0.11 1.04 0.23l-0.17 0.5c-0.15-0.08-0.47-0.22-0.9-0.22-0.64 0-0.89 0.39-0.89 0.71 0 0.44 0.29 0.66 0.94 0.91 0.8 0.31 1.2 0.69 1.2 1.39 0 0.73-0.54 1.36-1.65 1.36-0.46 0-0.95-0.13-1.21-0.3l0.17-0.52z"/>
		<path class="st2" d="m227.29 59.94v1.98h2.28v-1.98h0.62v4.72h-0.62v-2.21h-2.28v2.21h-0.61v-4.72h0.61z"/>
		<path class="st2" d="m231.85 59.94v2.79c0 1.06 0.47 1.51 1.1 1.51 0.7 0 1.15-0.46 1.15-1.51v-2.79h0.62v2.75c0 1.45-0.76 2.05-1.79 2.05-0.97 0-1.69-0.55-1.69-2.02v-2.78h0.61z"/>
		<path class="st2" d="m235.77 59.94h2.54v0.51h-1.93v1.57h1.79v0.5h-1.79v2.14h-0.61v-4.72z"/>
		<path class="st2" d="m239.18 59.94h2.54v0.51h-1.93v1.57h1.79v0.5h-1.79v2.14h-0.61v-4.72z"/>
		<path class="st2" d="m242.59 59.94h0.61v4.21h2.02v0.51h-2.63v-4.72z"/>
		<path class="st2" d="m248.33 62.45h-1.83v1.7h2.04v0.51h-2.65v-4.72h2.55v0.51h-1.94v1.49h1.83v0.51z"/>


		<path class="st4" d="m248.72 125.3h-25.55c-1.25 0-2.26-1.01-2.26-2.26v-11.89c0-1.25 1.01-2.26 2.26-2.26h25.55c1.25 0 2.26 1.01 2.26 2.26v11.89c0.01 1.24-1.01 2.26-2.26 2.26z"/>
		<rect class="st5" x="223.58" y="111.61" width="24.33" height="11.05"/>

			<path class="st2" d="m231.71 102.59c-0.04-0.66-0.08-1.45-0.07-2.04h-0.02c-0.16 0.55-0.36 1.14-0.59 1.79l-0.83 2.29h-0.46l-0.76-2.25c-0.22-0.67-0.41-1.27-0.55-1.83h-0.01c-0.01 0.59-0.05 1.38-0.09 2.09l-0.13 2.02h-0.58l0.33-4.72h0.78l0.81 2.28c0.2 0.58 0.36 1.1 0.48 1.59h0.02c0.12-0.48 0.29-0.99 0.5-1.59l0.84-2.28h0.78l0.29 4.72h-0.59l-0.15-2.07z"/>
			<path class="st2" d="m233.97 99.95v2.79c0 1.06 0.47 1.51 1.1 1.51 0.7 0 1.15-0.46 1.15-1.51v-2.79h0.62v2.75c0 1.45-0.76 2.05-1.79 2.05-0.97 0-1.69-0.55-1.69-2.02v-2.78h0.61z"/>
			<path class="st2" d="m238.79 100.47h-1.44v-0.52h3.5v0.52h-1.44v4.2h-0.62v-4.2z"/>
			<path class="st2" d="m243.81 102.45h-1.83v1.7h2.04v0.51h-2.65v-4.72h2.55v0.51h-1.94v1.49h1.83v0.51z"/>



<path class="st2" d="m178.84 133.41h-48c-1.51 0-2.74-1.23-2.74-2.74v-21.26c0-1.51 1.23-2.74 2.74-2.74h48c1.51 0 2.74 1.23 2.74 2.74v21.26c0 1.51-1.23 2.74-2.74 2.74z"/>
<path class="st4" d="m177.26 125.09h-44.84c-1.25 0-2.26-1.01-2.26-2.26v-11.89c0-1.25 1.01-2.26 2.26-2.26h44.84c1.25 0 2.26 1.01 2.26 2.26v11.89c0 1.25-1.01 2.26-2.26 2.26z"/>
<rect class="st5" x="132.83" y="111.41" width="44" height="11.05"/>

	<path class="st3" d="m140.79 131.03c0.27 0.17 0.67 0.31 1.09 0.31 0.62 0 0.99-0.33 0.99-0.81 0-0.44-0.25-0.69-0.89-0.94-0.77-0.27-1.25-0.67-1.25-1.34 0-0.74 0.61-1.28 1.53-1.28 0.48 0 0.83 0.11 1.04 0.23l-0.17 0.5c-0.15-0.08-0.47-0.22-0.9-0.22-0.64 0-0.89 0.39-0.89 0.71 0 0.44 0.29 0.66 0.94 0.91 0.8 0.31 1.2 0.69 1.2 1.39 0 0.73-0.54 1.36-1.65 1.36-0.46 0-0.95-0.13-1.21-0.3l0.17-0.52z"/>
	<path class="st3" d="m145.37 131.78v-2l-1.49-2.72h0.69l0.67 1.3c0.18 0.36 0.32 0.64 0.47 0.97h0.01c0.13-0.31 0.29-0.62 0.48-0.97l0.68-1.3h0.69l-1.58 2.71v2.01h-0.62z"/>
	<path class="st3" d="m148.06 131.78v-4.72h0.67l1.51 2.39c0.35 0.55 0.62 1.05 0.85 1.53l0.01-0.01c-0.06-0.63-0.07-1.2-0.07-1.94v-1.98h0.57v4.72h-0.62l-1.5-2.4c-0.33-0.52-0.64-1.06-0.88-1.58l-0.02 0.01c0.04 0.6 0.05 1.16 0.05 1.95v2.02h-0.57z"/>
	<path class="st3" d="m155.96 131.62c-0.22 0.11-0.67 0.22-1.25 0.22-1.33 0-2.33-0.84-2.33-2.39 0-1.48 1-2.48 2.47-2.48 0.59 0 0.96 0.13 1.12 0.21l-0.15 0.5c-0.23-0.11-0.56-0.2-0.95-0.2-1.11 0-1.84 0.71-1.84 1.95 0 1.16 0.67 1.9 1.81 1.9 0.37 0 0.75-0.08 0.99-0.2l0.13 0.49z"/>
	<path class="st3" d="m162.24 129.37c0 1.62-0.99 2.49-2.19 2.49-1.25 0-2.12-0.97-2.12-2.4 0-1.5 0.93-2.48 2.19-2.48 1.29 0 2.12 0.99 2.12 2.39zm-3.66 0.07c0 1.01 0.55 1.91 1.51 1.91 0.97 0 1.51-0.89 1.51-1.96 0-0.94-0.49-1.92-1.51-1.92-1.01 0.01-1.51 0.94-1.51 1.97z"/>
	<path class="st3" d="m163.03 127.05h2.54v0.51h-1.93v1.57h1.79v0.5h-1.79v2.14h-0.61v-4.72z"/>
	<path class="st3" d="m166.44 127.05h2.54v0.51h-1.93v1.57h1.79v0.5h-1.79v2.14h-0.61v-4.72z"/>


	<path class="st2" d="m147.35 103.77c0.27 0.17 0.67 0.31 1.09 0.31 0.62 0 0.99-0.33 0.99-0.81 0-0.44-0.25-0.69-0.89-0.94-0.77-0.27-1.25-0.67-1.25-1.34 0-0.74 0.61-1.28 1.53-1.28 0.48 0 0.83 0.11 1.04 0.23l-0.17 0.5c-0.15-0.08-0.47-0.22-0.9-0.22-0.64 0-0.89 0.39-0.89 0.71 0 0.44 0.29 0.66 0.94 0.91 0.8 0.31 1.2 0.69 1.2 1.39 0 0.73-0.54 1.36-1.65 1.36-0.46 0-0.95-0.13-1.21-0.3l0.17-0.52z"/>
	<path class="st2" d="m151.93 104.51v-2l-1.49-2.72h0.69l0.67 1.3c0.18 0.36 0.32 0.64 0.47 0.97h0.01c0.13-0.31 0.29-0.62 0.48-0.97l0.68-1.3h0.69l-1.58 2.71v2.01h-0.62z"/>
	<path class="st2" d="m154.62 104.51v-4.72h0.67l1.51 2.39c0.35 0.55 0.62 1.05 0.85 1.53l0.01-0.01c-0.06-0.63-0.07-1.2-0.07-1.94v-1.98h0.57v4.72h-0.62l-1.5-2.4c-0.33-0.52-0.64-1.06-0.88-1.58l-0.02 0.01c0.04 0.6 0.05 1.16 0.05 1.95v2.02h-0.57z"/>
	<path class="st2" d="m162.53 104.36c-0.22 0.11-0.67 0.22-1.25 0.22-1.33 0-2.33-0.84-2.33-2.39 0-1.48 1-2.48 2.47-2.48 0.59 0 0.96 0.13 1.12 0.21l-0.15 0.5c-0.23-0.11-0.56-0.2-0.95-0.2-1.11 0-1.84 0.71-1.84 1.95 0 1.16 0.67 1.9 1.81 1.9 0.37 0 0.75-0.08 0.99-0.2l0.13 0.49z"/>

<circle class="st0" cx="70.71" cy="60.9" r="14.26"/>
<circle class="st6" cx="70.71" cy="60.9" r="18.05"/>
<circle class="st2" cx="981.03" cy="76.76" r="13.55"/>
<circle class="st5" cx="981.03" cy="76.76" r="11.76"/>


		<path class="st2" d="m94.71 127.03h-48c-1.51 0-2.74-1.23-2.74-2.74v-14.89c0-1.51 1.23-2.74 2.74-2.74h48c1.51 0 2.74 1.23 2.74 2.74v14.89c0 1.51-1.23 2.74-2.74 2.74z"/>
		<path class="st4" d="m93.13 125.08h-44.84c-1.25 0-2.26-1.01-2.26-2.26v-11.89c0-1.25 1.01-2.26 2.26-2.26h44.84c1.25 0 2.26 1.01 2.26 2.26v11.89c0 1.24-1.01 2.26-2.26 2.26z"/>
		<rect class="st5" x="48.7" y="111.39" width="44" height="11.05"/>

			<path class="st2" d="m62.86 103.76c0.27 0.17 0.67 0.31 1.09 0.31 0.62 0 0.99-0.33 0.99-0.81 0-0.44-0.25-0.69-0.89-0.94-0.77-0.27-1.25-0.67-1.25-1.34 0-0.74 0.61-1.28 1.53-1.28 0.48 0 0.83 0.11 1.04 0.23l-0.17 0.5c-0.15-0.08-0.47-0.22-0.9-0.22-0.64 0-0.89 0.39-0.89 0.71 0 0.44 0.29 0.66 0.94 0.91 0.8 0.31 1.2 0.69 1.2 1.39 0 0.73-0.54 1.36-1.65 1.36-0.46 0-0.95-0.13-1.21-0.3l0.17-0.52z"/>
			<path class="st2" d="M67,99.78v1.98h2.28v-1.98h0.62v4.72h-0.62v-2.21H67v2.21h-0.61v-4.72H67z"/>
			<path class="st2" d="m71.56 99.78v4.72h-0.61v-4.72h0.61z"/>
			<path class="st2" d="m72.63 99.78h2.54v0.51h-1.93v1.57h1.79v0.5h-1.79v2.14h-0.61v-4.72z"/>
			<path class="st2" d="m76.93 100.3h-1.43v-0.52h3.5v0.52h-1.44v4.2h-0.62v-4.2z"/>




	<path class="st2" d="m62.87 87.63-1.54-4.72h0.66l0.74 2.33c0.2 0.64 0.38 1.21 0.5 1.77h0.01c0.13-0.55 0.33-1.14 0.54-1.76l0.8-2.33h0.65l-1.69 4.72h-0.67z"/>
	<path class="st2" d="m66.1 86.15-0.49 1.48h-0.63l1.6-4.72h0.74l1.61 4.72h-0.65l-0.5-1.48h-1.68zm1.55-0.48-0.46-1.36c-0.1-0.31-0.17-0.59-0.25-0.86h-0.01c-0.07 0.28-0.15 0.57-0.24 0.85l-0.46 1.37h1.42z"/>
	<path class="st2" d="m69.62 82.91h0.61v4.21h2.02v0.51h-2.63v-4.72z"/>
	<path class="st2" d="m73.28 82.91v2.79c0 1.06 0.47 1.51 1.1 1.51 0.7 0 1.15-0.46 1.15-1.51v-2.79h0.62v2.75c0 1.45-0.76 2.05-1.79 2.05-0.97 0-1.69-0.55-1.69-2.02v-2.78h0.61z"/>
	<path class="st2" d="m79.65 85.42h-1.83v1.7h2.04v0.51h-2.66v-4.72h2.55v0.51h-1.94v1.49h1.83v0.51z"/>

<g transform="translate(50.619 -508.1)">
	<g transform="matrix(5.728 0 0 5.728 -398.93 -3466)">
		<g transform="matrix(1.25 0 0 -1.25 160.19 694.82)">
			<path class="st7" d="m-66.89-0.55v-2.72s0-0.12 0.12-0.12h0.33c0.12 0 0.12 0.12 0.12 0.12v2.72s0 0.12-0.12 0.12h-0.33c-0.12 0-0.12-0.12-0.12-0.12"/>
		</g>
		<g transform="matrix(1.25 0 0 -1.25 171.3 713.47)">
			<path class="st7" d="m-74.46 12.15c0-0.07 0.04-0.14 0.1-0.18 0.3-0.2 1.08-0.12 1.08 0.45 0 0.04-0.04 0.07-0.08 0.07-0.06 0.01-0.72 0.02-0.99-0.12-0.07-0.05-0.11-0.12-0.11-0.22h-0.53c0 0.3 0.23 0.6 0.53 0.64 0.21 0.03 0.34 0.06 1.1 0.1 0.05 0 0.14 0.1 0.07 0.19-0.1 0.15-0.19 0.22-0.5 0.22-0.29 0-0.44-0.06-0.54-0.22-0.01-0.02-0.07-0.08-0.13-0.08h-0.36c-0.04 0-0.09 0.05-0.08 0.09 0.17 0.41 0.52 0.61 1.05 0.61 0.48 0 1.1-0.18 1.1-0.84v-1.23s0-0.12-0.12-0.12h-0.19c-0.09 0-0.14 0.02-0.17 0.12-0.01 0.04-0.06 0.07-0.09 0.03-0.31-0.27-0.99-0.33-1.36-0.07-0.21 0.15-0.31 0.35-0.31 0.55 0 0.01 0.53 0.01 0.53 0.01"/>
		</g>
		<g transform="matrix(1.25 0 0 -1.25 207.53 717.71)">
			<path class="st7" d="m-99.13 15.04v1.2c0 0.54-0.47 0.87-0.82 0.87-0.34 0-0.64-0.09-0.86-0.27-0.02-0.02-0.08-0.03-0.08 0.02v0.12s0 0.12-0.12 0.12h-0.28s-0.12 0-0.12-0.12v-1.94c0-0.12 0.12-0.12 0.12-0.12h0.28c0.12 0 0.12 0.12 0.12 0.12v0.95c0 0.26 0.18 0.71 0.76 0.71 0.42 0 0.48-0.29 0.48-0.45v-1.2c0-0.12 0.12-0.12 0.12-0.12h0.28c0-0.01 0.12-0.01 0.12 0.11"/>
		</g>
		<g transform="matrix(1.25 0 0 -1.25 147.35 719.48)">
			<path class="st7" d="m-58.14 16.25c0.95 0 1.34 0.61 1.34 1.13 0 0.5-0.4 1.13-1.35 1.13s-1.35-0.63-1.35-1.13c0-0.53 0.4-1.13 1.36-1.13v0.41c-0.55 0-0.81 0.41-0.81 0.72s0.27 0.73 0.8 0.73 0.8-0.41 0.8-0.72c0-0.32-0.26-0.72-0.79-0.72"/>
		</g>
		<g transform="matrix(1.25 0 0 -1.25 213.98 709.81)">
			<path class="st7" d="m-103.53 9.66c0-0.42 0.31-0.74 0.71-0.74 0.41 0 0.73 0.29 0.73 0.73 0 0.43-0.33 0.71-0.73 0.71-0.37 0-0.71-0.29-0.71-0.7h-0.53c0 0.86 1.16 1.45 1.92 0.87 0.03-0.03 0.07-0.01 0.07 0.06v0.86c0 0.12 0.12 0.12 0.12 0.12h0.28s0.12 0 0.12-0.12v-2.73c0-0.12-0.12-0.12-0.12-0.12h-0.28c-0.12 0-0.12 0.12-0.12 0.13 0 0.06-0.03 0.08-0.07 0.06-0.78-0.61-1.92-0.09-1.92 0.87"/>
		</g>
		<g transform="matrix(1.25 0 0 -1.25 117.82 707.51)">
			<path class="st7" d="m-38.03 8.09v0.39c0.01 0-0.12 0-0.12 0.12v0.61s0 0.12 0.12 0.12h1.05s0.46 0 0.46-0.42-0.46-0.42-0.46-0.42h-1.05v-0.4h0.88c0.16 0 0.29-0.03 0.35-0.12 0.26-0.36 0.17-0.72 0.29-1.09 0.02-0.07 0.08-0.12 0.2-0.12h0.34c0.03 0 0.06 0.04 0.05 0.06-0.14 0.3-0.15 0.61-0.25 0.97-0.05 0.2-0.05 0.29-0.2 0.41-0.01 0.01 0.01 0.03 0.02 0.04 0.21 0.15 0.37 0.39 0.37 0.66 0 0.55-0.44 0.81-0.83 0.81h-1.72s-0.12 0-0.12-0.12v-2.72c0-0.12 0.12-0.12 0.12-0.12h0.27s0.12 0 0.12 0.12v1.09c-0.01 0.13 0.11 0.13 0.11 0.13"/>
		</g>
		<g transform="matrix(1.25 0 0 -1.25 60.809 693.86)">
			<path class="st7" d="m0.8-1.21v-2.95h0.24v2.73h4.58c0.41 0 0.72-0.34 0.72-0.73s-0.3-0.72-0.72-0.72h-3.29v-0.72h4.23v0.22h-4v0.28h3.05c0.56 0 0.94 0.44 0.94 0.94s-0.38 0.94-0.94 0.94c-0.56 0.01-4.81 0.01-4.81 0.01"/>
		</g>
		<g transform="matrix(1.25 0 0 -1.25 84.173 698.68)">
			<path class="st7" d="m-15.12 2.08v-0.22h-1.96v-1.04s0.16 0.75 0.91 0.75h3.07v0.29h-2.02v0.22h2.26v-0.73h-3.28c-0.39 0-0.71-0.3-0.71-0.72s0.3-0.71 0.72-0.71h4.01v-0.22h-4.01c-0.53 0-0.85 0.34-0.94 0.74v-0.74h-0.24v2.37"/>
		</g>
	</g>
</g>





					<path class="st7" d="m1109.6 16.56v0.05c0.34-4.45 4.67-5.19 8.54-5.19 5.94 0 7.41 1.84 7.77 4.11v0.02l0.02 0.2 0.01-0.01c0.09 0.71 0.09 1.45 0.09 2.19v6.83c0 1.25 0.06 2.66 0.77 3.72h-6.47c-0.16-0.45-0.26-1.12-0.23-1.57h-0.06c-1.35 1.54-3.3 1.99-5.35 1.99-3.21 0-5.87-1.54-5.87-5.03 0-5.26 6.15-5.07 9.39-5.67 0.86-0.16 1.73-0.42 1.73-1.47 0-1.12-1.06-1.54-2.09-1.54-1.95 0-2.34 0.99-2.37 1.7h-5.9 0.01m10.35 4.12c-0.77 0.38-1.63 0.61-2.5 0.8-1.41 0.32-2.15 0.67-2.15 1.79 0 0.77 0.83 1.54 1.99 1.54 1.44 0 2.56-0.87 2.66-2.6v-1.53z"/>






					<path class="st7" d="m1138.4 15.41c1.37-2.36 3.95-3.98 7.88-3.98 6.25 0 9.07 4.1 9.07 8.72 0 4.61-2.82 8.75-9.07 8.75-3.94 0-6.52-1.64-7.88-4.01v3.59c-1.28 0-2.72 0.19-4.07 0.19-2.69 0-5.67-0.42-5.67-4.97v-7.95h-2.8l0.01-0.01c0.09 0.71 0.09 1.45 0.09 2.19v6.83c0 1.25 0.06 2.66 0.77 3.72h-6.47c-0.16-0.45-0.26-1.12-0.23-1.57h-0.07c-1.35 1.54-3.3 1.99-5.35 1.99-3.21 0-5.87-1.54-5.87-5.03 0-5.26 6.15-5.07 9.39-5.67 0.86-0.16 1.73-0.42 1.73-1.47 0-1.12-1.06-1.54-2.09-1.54-1.95 0-2.34 0.99-2.37 1.7h-5.9 0.01v0.42c-0.64-0.22-1.22-0.42-2.5-0.42-2.5 0-3.84 1.47-3.84 5.03v6.57h-6.35v-6.89h-12c0.16 1.89 1.25 3.24 3.24 3.24 1.03 0 2.15-0.38 2.66-1.18h5.93c-1.28 3.59-4.78 5.26-8.56 5.26-4.24 0-7.65-2-8.86-5.62v0.05c-0.19 4.37-4.5 5.57-8.46 5.57-3.91 0-8.21-1.57-8.3-5.87h6.06c0.03 0.58 0.29 1.06 0.77 1.47 0.32 0.29 0.93 0.48 1.7 0.48 0.84 0 2.15-0.32 2.15-1.28s-0.54-1.25-3.49-1.76c-4.84-0.83-6.79-2.37-6.79-5.23 0-4.2 4.52-5.29 7.85-5.29 3.59 0 7.92 0.99 8.08 5.26h-5.77c-0.03-0.54-0.32-0.96-0.74-1.25-0.39-0.32-0.9-0.48-1.41-0.48-0.9 0-1.92 0.19-1.92 1.28 0 0.48 0.38 0.7 0.74 0.86 1.06 0.45 3.46 0.58 5.58 1.28 1.48 0.47 2.84 1.23 3.52 2.58v0.02c-0.02-0.25-0.03-0.51-0.03-0.77 0-4.84 3.53-8.78 8.79-8.78 5.65 0 8.55 2.7 9.27 7.54v-7.12h6.09v2.66h0.06c1.02-1.99 2.37-3.08 4.68-3.08 0.64 0 1.25 0.1 1.86 0.26v4.93c0.34-4.45 4.67-5.19 8.54-5.19 5.94 0 7.41 1.84 7.77 4.11v0.02-3.71h2.82v-5.08h6.35v5.07h3.4v3.56zm-47.48 2.88c0-1.54-1.15-2.79-2.79-2.79-1.89 0-2.98 0.99-3.27 2.79h6.06zm28.94 2.72c-0.77 0.38-1.63 0.61-2.5 0.8-1.41 0.32-2.15 0.67-2.15 1.79 0 0.77 0.83 1.54 1.99 1.54 1.44 0 2.56-0.87 2.66-2.6v-1.53zm15.14-5.25v5.8c0 1.54 0.35 2.21 1.95 2.21 0.3 0 0.59-0.01 0.89-0.03l0.01 0.01c-0.43-1.11-0.64-2.34-0.64-3.6 0-1.57 0.33-3.09 1.01-4.4l-3.22 0.01zm11.28 0.28c-2.4 0-2.73 2.34-2.73 4.1s0.32 4.13 2.73 4.13c2.4 0 2.72-2.37 2.72-4.13 0.01-1.76-0.32-4.1-2.72-4.1z"/>






	<path class="st1" d="m566.25 122.58v1.04h-5.65v7.05h-3.14v-7.05h-5.63v-1.04h14.42z"/>
	<path class="st1" d="m568.28 122.58h11.31c1.19 0 2.04 0.09 2.54 0.27s0.75 0.44 0.75 0.78v2.33c0 0.32-0.2 0.57-0.61 0.74s-1.1 0.28-2.08 0.31l3.14 3.66h-3.11l-3.17-3.66h-5.66v3.66h-3.12v-8.09zm10.72 3.39c0.49 0 0.74-0.11 0.74-0.33v-1.7c0-0.22-0.25-0.33-0.74-0.33h-7.61v2.35h7.61z"/>
	<path class="st1" d="m593.64 127.68h-8.75v-1.04h8.75v1.04z"/>
	<path class="st1" d="m606.39 129.63c0.49 0 0.74-0.11 0.74-0.33v-1.99c-0.06-0.2-0.31-0.3-0.74-0.3h-7.46c-1.18 0-2.02-0.09-2.52-0.26s-0.75-0.44-0.75-0.79v-2.33c0-0.34 0.25-0.6 0.75-0.78s1.34-0.27 2.52-0.27h11.33v1.04h-10.73c-0.23 0-0.41 0.03-0.55 0.09s-0.2 0.14-0.2 0.24v1.7c0 0.1 0.07 0.18 0.2 0.24s0.32 0.09 0.55 0.09h7.44c1.19 0 2.04 0.09 2.54 0.27s0.75 0.44 0.75 0.78v2.6c0 0.35-0.25 0.61-0.75 0.79s-1.35 0.26-2.54 0.26h-11.31v-1.04h10.73z"/>


	<path class="st4" d="m131.34 60.22v-6.5l2.44-2.44v9.56l-0.91 0.91-1.53-1.53zm2.43 3.38v9.53l-2.44-2.44v-6.5l1.53-1.53 0.91 0.94z"/>
	<path class="st4" d="m141.61 64.19v6.5l-2.44 2.44v-9.53l0.91-0.94 1.53 1.53zm10.72-13.33-2.41 2.44h-7.9l-2.4-2.44h12.71zm0 22.72h-12.71l2.4-2.44h7.9l2.41 2.44zm-2.11-12.58 1.24 1.22-1.24 1.22h-8.48l-1.2-1.22 1.2-1.22h8.48zm0.13-0.78v-6.5l2.44-2.44v9.56l-0.89 0.91-1.55-1.53z"/>
	<path class="st4" d="m159.12 60.22-1.53 1.53-0.91-0.91v-9.56l2.44 2.44v6.5zm0 10.47-2.44 2.44v-9.53l0.91-0.94 1.53 1.53v6.5zm10.73-19.83-2.41 2.44h-7.9l-2.4-2.44h12.71zm0 22.72h-12.71l2.4-2.44h7.9l2.41 2.44zm0.45-12.74-0.89 0.91-1.55-1.53v-6.5l2.44-2.44v9.56zm0 12.28-2.44-2.44v-6.5l1.55-1.53 0.89 0.94v9.53z"/>
	<path class="st4" d="m176.53 60.22-1.53 1.53-0.91-0.91v-9.56l2.44 2.44v6.5zm0 10.47-2.44 2.44v-9.53l0.91-0.94 1.53 1.53v6.5zm10.72-19.83-2.41 2.44h-7.9l-2.4-2.44h12.71zm0 22.72h-12.71l2.4-2.44h7.9l2.41 2.44zm0.46-12.74-0.89 0.91-1.55-1.53v-6.5l2.44-2.44v9.56zm0 12.28-2.44-2.44v-6.5l1.55-1.53 0.89 0.94v9.53z"/>
	<circle class="st4" cx="172.17" cy="72.36" r="1.04"/>

<circle cx="34.61" cy="60.9" r="9.16"/>

	<path class="st3" d="m34.51 57.27h-0.03l-1.69 0.92-0.25-1 2.13-1.14h1.13v9.75h-1.27v-8.53z"/>

<circle cx="31.98" cy="116.11" r="9.16"/>

	<path class="st3" d="m29.02 121v-0.81l1.04-1c2.49-2.37 3.61-3.63 3.63-5.1 0-0.99-0.48-1.9-1.94-1.9-0.88 0-1.62 0.45-2.07 0.82l-0.42-0.93c0.67-0.57 1.63-0.99 2.76-0.99 2.1 0 2.98 1.44 2.98 2.83 0 1.8-1.3 3.25-3.36 5.24l-0.78 0.72v0.03h4.38v1.09h-6.22z"/>

<circle cx="116.51" cy="61.62" r="9.16"/>

	<path class="st3" d="m113.86 64.99c0.38 0.24 1.25 0.61 2.16 0.61 1.69 0 2.22-1.08 2.21-1.89-0.02-1.37-1.25-1.95-2.52-1.95h-0.73v-0.99h0.73c0.96 0 2.17-0.5 2.17-1.65 0-0.78-0.5-1.47-1.71-1.47-0.78 0-1.53 0.34-1.95 0.64l-0.35-0.96c0.51-0.38 1.5-0.75 2.55-0.75 1.92 0 2.79 1.14 2.79 2.33 0 1-0.6 1.86-1.8 2.29v0.03c1.2 0.24 2.17 1.14 2.17 2.5 0 1.56-1.21 2.92-3.55 2.92-1.1 0-2.06-0.34-2.54-0.66l0.37-1z"/>

<circle cx="116.51" cy="115.81" r="9.16"/>

	<path class="st3" d="m117.63 120.7v-2.66h-4.53v-0.87l4.35-6.23h1.43v6.06h1.36v1.03h-1.36v2.66h-1.25zm0-3.69v-3.25c0-0.51 0.02-1.02 0.04-1.53h-0.04c-0.3 0.57-0.54 0.99-0.81 1.44l-2.38 3.32v0.03h3.19z"/>

<circle cx="207.14" cy="36.61" r="9.16"/>

	<path class="st3" d="m210 32.85h-3.72l-0.38 2.5c0.23-0.03 0.44-0.06 0.79-0.06 0.75 0 1.5 0.17 2.1 0.52 0.76 0.44 1.4 1.28 1.4 2.5 0 1.91-1.52 3.33-3.63 3.33-1.06 0-1.97-0.3-2.43-0.6l0.33-1.01c0.4 0.24 1.2 0.54 2.08 0.54 1.25 0 2.31-0.81 2.31-2.11-0.02-1.26-0.85-2.16-2.81-2.16-0.55 0-0.99 0.06-1.35 0.11l0.63-4.68h4.68v1.12z"/>

<circle cx="206.93" cy="77.13" r="9.16"/>

	<path class="st3" d="m209.53 73.2c-0.27-0.02-0.61 0-0.99 0.06-2.07 0.34-3.17 1.86-3.39 3.46h0.04c0.47-0.62 1.27-1.13 2.35-1.13 1.73 0 2.94 1.25 2.94 3.15 0 1.78-1.21 3.43-3.24 3.43-2.08 0-3.45-1.62-3.45-4.16 0-1.92 0.69-3.43 1.65-4.39 0.81-0.79 1.89-1.29 3.12-1.44 0.39-0.06 0.72-0.08 0.96-0.08v1.1zm-0.37 5.62c0-1.39-0.79-2.23-2.01-2.23-0.79 0-1.53 0.5-1.89 1.2-0.09 0.15-0.15 0.34-0.15 0.58 0.03 1.6 0.77 2.79 2.15 2.79 1.13 0.01 1.9-0.94 1.9-2.34z"/>

<circle cx="207.14" cy="116.83" r="9.16"/>

	<path class="st3" d="m210.51 111.97v0.87l-4.25 8.88h-1.36l4.23-8.63v-0.03h-4.77v-1.1h6.15z"/>

<circle cx="309.14" cy="36.61" r="9.16"/>

	<path class="st3" d="m306.06 39.02c0-1.23 0.73-2.1 1.93-2.61l-0.01-0.04c-1.08-0.51-1.54-1.35-1.54-2.19 0-1.54 1.3-2.6 3.01-2.6 1.89 0 2.83 1.19 2.83 2.4 0 0.83-0.41 1.71-1.6 2.28v0.04c1.21 0.48 1.96 1.33 1.96 2.52 0 1.7-1.46 2.83-3.31 2.83-2.04 0.01-3.27-1.21-3.27-2.63zm5.25-0.06c0-1.18-0.82-1.75-2.15-2.13-1.14 0.33-1.75 1.08-1.75 2.01-0.04 0.99 0.71 1.86 1.95 1.86 1.19 0 1.95-0.74 1.95-1.74zm-3.63-4.88c0 0.98 0.73 1.5 1.86 1.8 0.84-0.29 1.48-0.89 1.48-1.77 0-0.78-0.46-1.59-1.65-1.59-1.09 0-1.69 0.72-1.69 1.56z"/>

<circle cx="308.93" cy="77.13" r="9.16"/>

	<path class="st3" d="m306.73 81.09c0.29 0.03 0.61 0 1.06-0.04 0.77-0.11 1.48-0.42 2.04-0.95 0.65-0.58 1.11-1.44 1.29-2.59h-0.05c-0.54 0.66-1.32 1.05-2.29 1.05-1.75 0-2.88-1.32-2.88-2.99 0-1.84 1.33-3.46 3.33-3.46s3.23 1.62 3.23 4.11c0 2.14-0.72 3.64-1.68 4.58-0.75 0.73-1.78 1.18-2.83 1.3-0.48 0.08-0.9 0.09-1.21 0.08v-1.09zm0.48-5.61c0 1.21 0.73 2.07 1.88 2.07 0.88 0 1.57-0.44 1.92-1.02 0.07-0.12 0.12-0.27 0.12-0.48 0-1.67-0.62-2.94-2-2.94-1.12 0-1.92 0.99-1.92 2.37z"/>

<circle cx="309.14" cy="116.83" r="9.16"/>

	<path class="st3" d="m305.2 113.2h-0.03l-1.69 0.92-0.25-1 2.13-1.14h1.13v9.75h-1.27v-8.53z"/>
	<path class="st3" d="m316.51 116.74c0 3.31-1.23 5.14-3.39 5.14-1.9 0-3.19-1.79-3.22-5.01 0-3.27 1.41-5.07 3.39-5.07 2.05 0.01 3.22 1.84 3.22 4.94zm-5.3 0.15c0 2.54 0.78 3.98 1.98 3.98 1.35 0 2-1.58 2-4.07 0-2.4-0.62-3.97-1.98-3.97-1.16 0-2 1.41-2 4.06z"/>

<circle cx="345.42" cy="99.96" r="9.16"/>

	<path class="st3" d="m341.48 96.33h-0.03l-1.69 0.92-0.25-1 2.13-1.14h1.13v9.75h-1.27v-8.53z"/>
	<path class="st3" d="m349.17 96.33h-0.03l-1.69 0.92-0.25-1 2.13-1.14h1.13v9.75h-1.27v-8.53z"/>

<circle cx="668.46" cy="35.5" r="9.16"/>

	<path class="st3" d="m664.51 31.87h-0.03l-1.69 0.92-0.25-1 2.13-1.14h1.13v9.75h-1.28v-8.53z"/>
	<path class="st3" d="m669.34 40.39v-0.81l1.04-1c2.49-2.37 3.61-3.63 3.63-5.1 0-0.99-0.48-1.9-1.94-1.9-0.88 0-1.62 0.45-2.07 0.82l-0.42-0.93c0.67-0.57 1.63-0.99 2.76-0.99 2.1 0 2.98 1.44 2.98 2.83 0 1.8-1.3 3.25-3.36 5.24l-0.78 0.72v0.03h4.38v1.09h-6.22z"/>

<circle cx="980.82" cy="102.51" r="9.16"/>

	<path class="st3" d="m976.87 98.87h-0.03l-1.69 0.92-0.25-1 2.13-1.14h1.13v9.75h-1.28v-8.53z"/>
	<path class="st3" d="m982.02 105.88c0.38 0.24 1.25 0.61 2.16 0.61 1.7 0 2.22-1.08 2.21-1.89-0.01-1.37-1.25-1.95-2.52-1.95h-0.74v-0.99h0.74c0.96 0 2.17-0.5 2.17-1.65 0-0.78-0.5-1.47-1.71-1.47-0.78 0-1.53 0.34-1.95 0.64l-0.34-0.96c0.51-0.38 1.5-0.75 2.55-0.75 1.92 0 2.79 1.14 2.79 2.33 0 1-0.6 1.86-1.8 2.29v0.03c1.2 0.24 2.17 1.14 2.17 2.5 0 1.56-1.21 2.92-3.55 2.92-1.1 0-2.06-0.34-2.54-0.66l0.36-1z"/>

<circle cx="1015.9" cy="50.3" r="9.16"/>

	<path class="st3" d="m1012 46.67h-0.03l-1.7 0.92-0.25-1 2.13-1.14h1.13v9.75h-1.27v-8.53z"/>
	<path class="st3" d="m1020.9 55.19v-2.66h-4.53v-0.87l4.35-6.23h1.42v6.06h1.37v1.03h-1.37v2.66h-1.24zm0-3.69v-3.25c0-0.51 0.02-1.02 0.04-1.53h-0.04c-0.3 0.57-0.54 0.99-0.81 1.44l-2.38 3.32v0.03h3.19z"/>

<circle cx="1015.9" cy="102.3" r="9.16"/>

	<path class="st3" d="m1012 98.67h-0.03l-1.7 0.92-0.25-1 2.13-1.14h1.13v9.75h-1.27v-8.53z"/>
	<path class="st3" d="m1022.6 98.55h-3.72l-0.38 2.5c0.22-0.03 0.43-0.06 0.79-0.06 0.75 0 1.5 0.17 2.1 0.52 0.76 0.44 1.4 1.28 1.4 2.5 0 1.91-1.52 3.33-3.63 3.33-1.07 0-1.97-0.3-2.43-0.6l0.33-1.01c0.41 0.24 1.2 0.54 2.08 0.54 1.25 0 2.31-0.81 2.31-2.11-0.02-1.26-0.86-2.16-2.81-2.16-0.55 0-0.99 0.06-1.35 0.11l0.63-4.68h4.67v1.12z"/>

<circle cx="1115.9" cy="50.3" r="9.16"/>

	<path class="st3" d="m1112 46.67h-0.03l-1.7 0.92-0.25-1 2.13-1.14h1.13v9.75h-1.27v-8.53z"/>
	<path class="st3" d="m1122.4 46.37c-0.27-0.02-0.62 0-0.99 0.06-2.07 0.34-3.17 1.86-3.39 3.46h0.04c0.46-0.62 1.27-1.13 2.35-1.13 1.73 0 2.94 1.25 2.94 3.15 0 1.78-1.21 3.43-3.24 3.43-2.08 0-3.45-1.62-3.45-4.16 0-1.92 0.69-3.43 1.65-4.39 0.81-0.79 1.89-1.29 3.12-1.44 0.39-0.06 0.72-0.08 0.96-0.08v1.1zm-0.37 5.62c0-1.39-0.79-2.23-2.01-2.23-0.79 0-1.53 0.5-1.89 1.2-0.09 0.15-0.15 0.34-0.15 0.58 0.03 1.6 0.76 2.79 2.14 2.79 1.14 0 1.91-0.94 1.91-2.34z"/>

<circle cx="1115.9" cy="102.3" r="9.16"/>

	<path class="st3" d="m1112 98.67h-0.03l-1.7 0.92-0.25-1 2.13-1.14h1.13v9.75h-1.27v-8.53z"/>
	<path class="st3" d="m1123.1 97.44v0.87l-4.25 8.88h-1.36l4.23-8.63v-0.03h-4.77v-1.1h6.15z"/>

</svg>
