<?xml version="1.0" encoding="UTF-8"?>
<svg enable-background="new 0 0 281.68 725.05" version="1.1" viewBox="0 0 281.68 725.05" xml:space="preserve" xmlns="http://www.w3.org/2000/svg">
<style type="text/css">
	.st0{fill:#EDEDED;}
	.st1{fill:none;stroke:#1E1E1C;stroke-miterlimit:10;}
	.st2{fill:#020203;}
	.st3{fill:#6D6C6C;}
	.st4{fill:#F5F5F5;}
	.st5{opacity:0.3;}
	.st6{fill:none;stroke:#FFFFFF;stroke-miterlimit:10;}
	.st7{fill:#282727;}
	.st8{fill:#FFFFFF;}
	.st9{fill:none;stroke:#000000;stroke-miterlimit:10;}
	.st10{fill:none;stroke:#000000;stroke-width:1.5;stroke-miterlimit:10;}
	.st11{fill:#FFFFFF;stroke:#000000;stroke-miterlimit:10;}
</style>

	<rect class="st0" x="10.81" y="12.87" width="258.24" height="66.39"/>
	<rect class="st0" x="91.21" y="44.29" width="99.05" height="89.65"/>



		<circle class="st1" cx="51.29" cy="106.14" r="16.32"/>

			<polygon class="st1" points="65.52 106.14 64.92 107.16 65.36 108.26 64.61 109.18 64.89 110.34 64.01 111.14 64.11 112.32 63.13 112.98 63.05 114.16 61.97 114.66 61.72 115.82 60.58 116.16 60.16 117.27 58.99 117.43 58.4 118.47 57.22 118.46 56.49 119.39 55.32 119.2 54.46 120.02 53.33 119.66 52.35 120.33 51.29 119.81 50.22 120.33 49.25 119.66 48.12 120.02 47.26 119.2 46.08 119.39 45.35 118.46 44.17 118.47 43.59 117.43 42.41 117.27 41.99 116.16 40.85 115.82 40.6 114.66 39.52 114.16 39.45 112.97 38.46 112.32 38.56 111.13 37.68 110.34 37.96 109.18 37.21 108.26 37.66 107.16 37.05 106.14 37.66 105.12 37.21 104.02 37.96 103.1 37.68 101.94 38.56 101.14 38.46 99.96 39.45 99.3 39.53 98.12 40.6 97.62 40.85 96.46 41.99 96.12 42.41 95.01 43.59 94.84 44.17 93.81 45.36 93.82 46.09 92.89 47.26 93.08 48.12 92.26 49.25 92.62 50.22 91.94 51.29 92.47 52.35 91.94 53.33 92.62 54.46 92.26 55.32 93.08 56.49 92.89 57.22 93.82 58.41 93.81 58.99 94.85 60.16 95.01 60.58 96.12 61.72 96.46 61.97 97.62 63.05 98.12 63.13 99.31 64.12 99.96 64.01 101.14 64.89 101.94 64.61 103.1 65.36 104.02 64.92 105.12"/>

		<line class="st1" x1="51.29" x2="51.29" y1="92.19" y2="104.2"/>

			<path class="st2" d="m45.44 129.68h-1.44v-0.52h3.5v0.52h-1.44v4.2h-0.62v-4.2z"/>
			<path class="st2" d="m48.03 129.23c0.31-0.06 0.75-0.1 1.17-0.1 0.65 0 1.07 0.12 1.37 0.38 0.24 0.21 0.37 0.53 0.37 0.9 0 0.62-0.39 1.04-0.89 1.21v0.02c0.36 0.13 0.58 0.46 0.69 0.95 0.15 0.66 0.27 1.11 0.36 1.3h-0.63c-0.08-0.13-0.18-0.54-0.32-1.13-0.14-0.65-0.39-0.9-0.95-0.92h-0.57v2.04h-0.61v-4.65zm0.61 2.15h0.62c0.65 0 1.06-0.36 1.06-0.9 0-0.61-0.44-0.88-1.08-0.88-0.29 0-0.5 0.03-0.6 0.06v1.72z"/>
			<path class="st2" d="m52.4 129.16v4.72h-0.61v-4.72h0.61z"/>
			<path class="st2" d="m57.44 131.81c-0.04-0.66-0.08-1.45-0.07-2.04h-0.02c-0.16 0.55-0.36 1.14-0.59 1.79l-0.83 2.29h-0.46l-0.76-2.25c-0.22-0.67-0.41-1.27-0.55-1.83h-0.01c-0.01 0.59-0.05 1.38-0.09 2.09l-0.13 2.02h-0.58l0.33-4.72h0.78l0.81 2.28c0.2 0.58 0.36 1.1 0.48 1.59h0.02c0.12-0.48 0.29-0.99 0.5-1.59l0.84-2.28h0.78l0.29 4.72h-0.59l-0.15-2.07z"/>


			<path class="st2" d="m67.66 124.64v1.41h1.36v0.36h-1.36v1.42h-0.38v-1.42h-1.35v-0.36h1.35v-1.41h0.38z"/>
			<path class="st2" d="m69.84 127.46c0.11 0.01 0.25 0 0.42-0.02 0.31-0.04 0.59-0.17 0.82-0.38 0.26-0.23 0.44-0.58 0.52-1.04h-0.02c-0.22 0.26-0.53 0.42-0.92 0.42-0.7 0-1.15-0.53-1.15-1.19 0-0.74 0.53-1.39 1.33-1.39s1.29 0.65 1.29 1.64c0 0.86-0.29 1.46-0.67 1.83-0.3 0.29-0.71 0.47-1.13 0.52-0.19 0.03-0.36 0.04-0.49 0.03v-0.42zm0.19-2.24c0 0.49 0.29 0.83 0.75 0.83 0.35 0 0.63-0.17 0.77-0.41 0.03-0.05 0.05-0.11 0.05-0.19 0-0.67-0.25-1.18-0.8-1.18-0.45 0-0.77 0.4-0.77 0.95z"/>


			<path class="st2" d="m31.13 125.73v0.52h-1.97v-0.52h1.97z"/>
			<path class="st2" d="m34.28 126.37c-0.41 0.41-0.83 0.86-1.48 0.86-0.67 0-1.15-0.5-1.15-1.18 0-0.63 0.51-1.18 1.21-1.18 0.59 0 1.03 0.47 1.42 0.86 0.41-0.41 0.83-0.86 1.48-0.86 0.68 0 1.15 0.5 1.15 1.18 0 0.63-0.51 1.18-1.22 1.18-0.59-0.01-1.03-0.48-1.41-0.86zm-0.32-0.33c-0.31-0.29-0.64-0.7-1.1-0.7-0.4 0-0.7 0.33-0.7 0.7 0 0.41 0.29 0.7 0.68 0.7 0.45 0 0.82-0.39 1.12-0.7zm2.45 0c0-0.41-0.29-0.7-0.68-0.7-0.46 0-0.82 0.39-1.13 0.7 0.31 0.29 0.64 0.7 1.1 0.7 0.4 0 0.71-0.33 0.71-0.7z"/>

		<circle class="st2" cx="39.88" cy="126.32" r=".81"/>
		<circle class="st2" cx="62.87" cy="126.32" r=".81"/>


		<circle class="st1" cx="229.52" cy="106.14" r="16.32"/>

			<polygon class="st1" points="243.75 106.14 243.15 107.16 243.59 108.26 242.84 109.18 243.12 110.34 242.24 111.14 242.34 112.32 241.35 112.98 241.28 114.16 240.2 114.66 239.95 115.82 238.81 116.16 238.39 117.27 237.21 117.43 236.63 118.47 235.45 118.46 234.72 119.39 233.55 119.2 232.68 120.02 231.55 119.66 230.58 120.33 229.52 119.81 228.45 120.33 227.48 119.66 226.35 120.02 225.48 119.2 224.31 119.39 223.58 118.46 222.4 118.47 221.81 117.43 220.64 117.27 220.22 116.16 219.08 115.82 218.83 114.66 217.75 114.16 217.68 112.97 216.69 112.32 216.79 111.13 215.91 110.34 216.19 109.18 215.44 108.26 215.89 107.16 215.28 106.14 215.89 105.12 215.44 104.02 216.19 103.1 215.91 101.94 216.79 101.14 216.69 99.96 217.68 99.3 217.75 98.12 218.83 97.62 219.08 96.46 220.22 96.12 220.64 95.01 221.82 94.84 222.4 93.81 223.59 93.82 224.31 92.89 225.49 93.08 226.35 92.26 227.48 92.62 228.45 91.94 229.52 92.47 230.58 91.94 231.56 92.62 232.69 92.26 233.55 93.08 234.72 92.89 235.45 93.82 236.64 93.81 237.22 94.85 238.39 95.01 238.81 96.12 239.95 96.46 240.2 97.62 241.28 98.12 241.35 99.31 242.34 99.96 242.24 101.14 243.12 101.94 242.84 103.1 243.59 104.02 243.15 105.12"/>

		<line class="st1" x1="229.52" x2="229.52" y1="92.19" y2="104.2"/>

			<path class="st2" d="m223.67 129.68h-1.44v-0.52h3.5v0.52h-1.44v4.2h-0.62v-4.2z"/>
			<path class="st2" d="m226.25 129.23c0.31-0.06 0.75-0.1 1.17-0.1 0.65 0 1.07 0.12 1.37 0.38 0.24 0.21 0.37 0.53 0.37 0.9 0 0.62-0.39 1.04-0.89 1.21v0.02c0.36 0.13 0.58 0.46 0.69 0.95 0.15 0.66 0.27 1.11 0.36 1.3h-0.63c-0.08-0.13-0.18-0.54-0.32-1.13-0.14-0.65-0.39-0.9-0.95-0.92h-0.57v2.04h-0.61v-4.65zm0.61 2.15h0.62c0.65 0 1.06-0.36 1.06-0.9 0-0.61-0.44-0.88-1.08-0.88-0.29 0-0.5 0.03-0.6 0.06v1.72z"/>
			<path class="st2" d="m230.63 129.16v4.72h-0.61v-4.72h0.61z"/>
			<path class="st2" d="m235.67 131.81c-0.04-0.66-0.08-1.45-0.07-2.04h-0.02c-0.16 0.55-0.36 1.14-0.59 1.79l-0.83 2.29h-0.46l-0.76-2.25c-0.22-0.67-0.41-1.27-0.55-1.83h-0.01c-0.01 0.59-0.05 1.38-0.09 2.09l-0.13 2.02h-0.58l0.33-4.72h0.78l0.81 2.28c0.2 0.58 0.36 1.1 0.48 1.59h0.02c0.12-0.48 0.29-0.99 0.5-1.59l0.84-2.28h0.78l0.29 4.72h-0.59l-0.15-2.07z"/>


			<path class="st2" d="m245.89 124.64v1.41h1.36v0.36h-1.36v1.42h-0.38v-1.42h-1.35v-0.36h1.35v-1.41h0.38z"/>
			<path class="st2" d="m248.07 127.46c0.11 0.01 0.25 0 0.42-0.02 0.31-0.04 0.59-0.17 0.82-0.38 0.26-0.23 0.44-0.58 0.52-1.04h-0.02c-0.22 0.26-0.53 0.42-0.92 0.42-0.7 0-1.15-0.53-1.15-1.19 0-0.74 0.53-1.39 1.33-1.39s1.29 0.65 1.29 1.64c0 0.86-0.29 1.46-0.67 1.83-0.3 0.29-0.71 0.47-1.13 0.52-0.19 0.03-0.36 0.04-0.49 0.03v-0.42zm0.19-2.24c0 0.49 0.29 0.83 0.75 0.83 0.35 0 0.63-0.17 0.77-0.41 0.03-0.05 0.05-0.11 0.05-0.19 0-0.67-0.25-1.18-0.8-1.18-0.45 0-0.77 0.4-0.77 0.95z"/>


			<path class="st2" d="m209.36 125.73v0.52h-1.97v-0.52h1.97z"/>
			<path class="st2" d="m212.51 126.37c-0.41 0.41-0.83 0.86-1.48 0.86-0.67 0-1.15-0.5-1.15-1.18 0-0.63 0.51-1.18 1.21-1.18 0.59 0 1.03 0.47 1.42 0.86 0.41-0.41 0.83-0.86 1.48-0.86 0.68 0 1.15 0.5 1.15 1.18 0 0.63-0.51 1.18-1.22 1.18-0.59-0.01-1.03-0.48-1.41-0.86zm-0.32-0.33c-0.31-0.29-0.64-0.7-1.1-0.7-0.4 0-0.7 0.33-0.7 0.7 0 0.41 0.29 0.7 0.68 0.7 0.45 0 0.81-0.39 1.12-0.7zm2.44 0c0-0.41-0.29-0.7-0.68-0.7-0.46 0-0.82 0.39-1.13 0.7 0.31 0.29 0.64 0.7 1.1 0.7 0.41 0 0.71-0.33 0.71-0.7z"/>

		<circle class="st2" cx="218.11" cy="126.32" r=".81"/>
		<circle class="st2" cx="241.09" cy="126.32" r=".81"/>

	<rect class="st3" x="95.97" y="494.96" width="89.26" height="97.77"/>
	<rect class="st4" x="193.47" y="340.96" width="72" height="68.4"/>
	<rect class="st4" x="14.81" y="340.96" width="72" height="68.4"/>
	<rect class="st4" x="95.97" y="341.15" width="88.53" height="112.95"/>



				<circle class="st1" cx="51.29" cy="171.93" r="16.32"/>

					<polygon class="st1" points="65.52 171.93 64.92 172.95 65.36 174.06 64.61 174.98 64.89 176.13 64.01 176.93 64.11 178.11 63.12 178.77 63.05 179.95 61.97 180.46 61.72 181.62 60.58 181.95 60.16 183.06 58.99 183.23 58.4 184.26 57.22 184.25 56.49 185.19 55.32 185 54.46 185.81 53.33 185.45 52.35 186.13 51.29 185.6 50.22 186.13 49.25 185.45 48.12 185.81 47.26 185 46.08 185.19 45.35 184.25 44.17 184.26 43.59 183.23 42.41 183.06 41.99 181.95 40.85 181.61 40.6 180.45 39.52 179.95 39.45 178.77 38.46 178.11 38.56 176.93 37.68 176.13 37.96 174.97 37.21 174.05 37.66 172.95 37.05 171.93 37.66 170.91 37.21 169.81 37.96 168.89 37.68 167.73 38.56 166.94 38.46 165.75 39.45 165.1 39.53 163.91 40.6 163.41 40.85 162.25 41.99 161.91 42.41 160.8 43.59 160.64 44.17 159.6 45.36 159.62 46.09 158.68 47.26 158.87 48.12 158.05 49.25 158.42 50.22 157.74 51.29 158.26 52.35 157.74 53.33 158.42 54.46 158.05 55.32 158.87 56.49 158.68 57.22 159.62 58.41 159.6 58.99 160.64 60.16 160.8 60.58 161.91 61.72 162.25 61.97 163.41 63.05 163.91 63.13 165.1 64.12 165.76 64.01 166.94 64.89 167.74 64.61 168.89 65.36 169.81 64.92 170.91"/>

				<line class="st1" x1="51.29" x2="51.29" y1="157.98" y2="169.99"/>

					<path class="st2" d="m49.31 197.96v1.98h2.28v-1.98h0.62v4.72h-0.62v-2.21h-2.28v2.21h-0.61v-4.72h0.61z"/>
					<path class="st2" d="m53.87 197.96v4.72h-0.61v-4.72h0.61z"/>


					<path class="st2" d="m63.35 192.91v1.41h1.36v0.36h-1.36v1.42h-0.38v-1.42h-1.35v-0.36h1.35v-1.41h0.38z"/>
					<path class="st2" d="m67.44 192.57c-0.11-0.01-0.25 0-0.4 0.02-0.83 0.14-1.26 0.74-1.36 1.39h0.02c0.19-0.25 0.51-0.45 0.94-0.45 0.69 0 1.18 0.5 1.18 1.26 0 0.71-0.49 1.37-1.3 1.37-0.83 0-1.38-0.65-1.38-1.66 0-0.77 0.28-1.37 0.66-1.76 0.32-0.32 0.76-0.52 1.25-0.58 0.16-0.02 0.29-0.03 0.38-0.03v0.44zm-0.15 2.25c0-0.56-0.32-0.89-0.8-0.89-0.32 0-0.61 0.2-0.76 0.48-0.04 0.06-0.06 0.14-0.06 0.23 0.01 0.64 0.31 1.12 0.86 1.12 0.46 0 0.76-0.38 0.76-0.94z"/>


					<path class="st2" d="m35.41 194.2v0.52h-1.97v-0.52h1.97z"/>
					<path class="st2" d="m38.56 194.84c-0.41 0.41-0.83 0.86-1.48 0.86-0.67 0-1.15-0.5-1.15-1.18 0-0.63 0.51-1.18 1.21-1.18 0.59 0 1.03 0.47 1.42 0.86 0.41-0.41 0.83-0.86 1.48-0.86 0.68 0 1.15 0.5 1.15 1.18 0 0.63-0.51 1.18-1.22 1.18-0.58 0-1.02-0.47-1.41-0.86zm-0.32-0.33c-0.31-0.29-0.64-0.7-1.1-0.7-0.4 0-0.7 0.33-0.7 0.7 0 0.41 0.29 0.7 0.68 0.7 0.45 0.01 0.82-0.38 1.12-0.7zm2.45 0c0-0.41-0.29-0.7-0.68-0.7-0.46 0-0.82 0.39-1.13 0.7 0.31 0.29 0.64 0.7 1.1 0.7 0.41 0.01 0.71-0.32 0.71-0.7z"/>


			<path class="st1" d="m49.95 152.77c-9.98 0.69-17.87 9-17.87 19.16 0 7.01 3.76 13.15 9.38 16.5"/>
			<path class="st1" d="m52.63 152.77c9.98 0.69 17.87 9 17.87 19.16 0 7.01-3.76 13.15-9.38 16.5"/>
			<line class="st1" x1="51.29" x2="51.29" y1="191.14" y2="191.14"/>
			<line class="st1" x1="51.29" x2="51.29" y1="191.14" y2="191.14"/>



				<circle class="st1" cx="51.29" cy="238.69" r="16.32"/>

					<polygon class="st1" points="65.52 238.69 64.92 239.71 65.36 240.81 64.61 241.73 64.89 242.89 64.01 243.68 64.11 244.87 63.12 245.52 63.05 246.71 61.97 247.21 61.72 248.37 60.58 248.71 60.16 249.82 58.99 249.98 58.4 251.02 57.22 251.01 56.49 251.94 55.32 251.75 54.46 252.57 53.33 252.2 52.35 252.88 51.29 252.36 50.22 252.88 49.25 252.2 48.12 252.57 47.26 251.75 46.08 251.94 45.35 251 44.17 251.02 43.59 249.98 42.41 249.82 41.99 248.71 40.85 248.37 40.6 247.21 39.52 246.71 39.45 245.52 38.46 244.86 38.56 243.68 37.68 242.89 37.96 241.73 37.21 240.81 37.66 239.71 37.05 238.69 37.66 237.67 37.21 236.56 37.96 235.64 37.68 234.49 38.56 233.69 38.46 232.51 39.45 231.85 39.53 230.67 40.6 230.17 40.85 229.01 41.99 228.67 42.41 227.56 43.59 227.39 44.17 226.36 45.36 226.37 46.09 225.43 47.26 225.62 48.12 224.81 49.25 225.17 50.22 224.49 51.29 225.02 52.35 224.49 53.33 225.17 54.46 224.81 55.32 225.63 56.49 225.44 57.22 226.37 58.41 226.36 58.99 227.4 60.16 227.56 60.58 228.67 61.72 229.01 61.97 230.17 63.05 230.67 63.13 231.85 64.12 232.51 64.01 233.69 64.89 234.49 64.61 235.65 65.36 236.57 64.92 237.67"/>

				<line class="st1" x1="51.29" x2="51.29" y1="224.74" y2="236.75"/>

					<path class="st2" d="m49.82 267.36c-0.04-0.66-0.08-1.45-0.07-2.04h-0.02c-0.16 0.55-0.36 1.14-0.59 1.79l-0.83 2.29h-0.46l-0.76-2.25c-0.22-0.67-0.41-1.27-0.55-1.83h-0.01c-0.01 0.59-0.05 1.38-0.09 2.09l-0.13 2.02h-0.58l0.33-4.72h0.78l0.81 2.28c0.2 0.58 0.36 1.1 0.48 1.59h0.02c0.12-0.48 0.29-0.99 0.5-1.59l0.84-2.28h0.78l0.29 4.72h-0.59l-0.15-2.07z"/>
					<path class="st2" d="m52.08 264.71v4.72h-0.61v-4.72h0.61z"/>
					<path class="st2" d="m53.14 264.77c0.37-0.06 0.81-0.1 1.3-0.1 0.88 0 1.5 0.2 1.91 0.59 0.42 0.39 0.67 0.93 0.67 1.7s-0.24 1.4-0.68 1.83c-0.44 0.44-1.17 0.68-2.09 0.68-0.43 0-0.8-0.02-1.11-0.06v-4.64zm0.61 4.18c0.15 0.03 0.38 0.04 0.62 0.04 1.3 0 2.01-0.73 2.01-2 0.01-1.11-0.62-1.82-1.91-1.82-0.32 0-0.55 0.03-0.71 0.06v3.72z"/>


					<path class="st2" d="m63.35 259.66v1.41h1.36v0.36h-1.36v1.42h-0.38v-1.42h-1.35v-0.36h1.35v-1.41h0.38z"/>
					<path class="st2" d="m67.44 259.33c-0.11-0.01-0.25 0-0.4 0.02-0.83 0.14-1.26 0.74-1.36 1.39h0.02c0.19-0.25 0.51-0.45 0.94-0.45 0.69 0 1.18 0.5 1.18 1.26 0 0.71-0.49 1.37-1.3 1.37-0.83 0-1.38-0.65-1.38-1.66 0-0.77 0.28-1.37 0.66-1.76 0.32-0.32 0.76-0.52 1.25-0.58 0.16-0.02 0.29-0.03 0.38-0.03v0.44zm-0.15 2.25c0-0.56-0.32-0.89-0.8-0.89-0.32 0-0.61 0.2-0.76 0.48-0.04 0.06-0.06 0.14-0.06 0.23 0.01 0.64 0.31 1.12 0.86 1.12 0.46-0.01 0.76-0.38 0.76-0.94z"/>


					<path class="st2" d="m35.41 260.96v0.52h-1.97v-0.52h1.97z"/>
					<path class="st2" d="m38.56 261.6c-0.41 0.41-0.83 0.86-1.48 0.86-0.67 0-1.15-0.5-1.15-1.18 0-0.63 0.51-1.18 1.21-1.18 0.59 0 1.03 0.47 1.42 0.86 0.41-0.41 0.83-0.86 1.48-0.86 0.68 0 1.15 0.5 1.15 1.18 0 0.63-0.51 1.18-1.22 1.18-0.58-0.01-1.02-0.48-1.41-0.86zm-0.32-0.33c-0.31-0.29-0.64-0.7-1.1-0.7-0.4 0-0.7 0.33-0.7 0.7 0 0.41 0.29 0.7 0.68 0.7 0.45 0 0.82-0.39 1.12-0.7zm2.45 0c0-0.41-0.29-0.7-0.68-0.7-0.46 0-0.82 0.39-1.13 0.7 0.31 0.29 0.64 0.7 1.1 0.7 0.41 0 0.71-0.32 0.71-0.7z"/>


			<path class="st1" d="m49.95 219.53c-9.98 0.69-17.87 9-17.87 19.16 0 7.01 3.76 13.15 9.38 16.5"/>
			<path class="st1" d="m52.63 219.53c9.98 0.69 17.87 9 17.87 19.16 0 7.01-3.76 13.15-9.38 16.5"/>
			<line class="st1" x1="51.29" x2="51.29" y1="257.9" y2="257.9"/>
			<line class="st1" x1="51.29" x2="51.29" y1="257.9" y2="257.9"/>



				<circle class="st1" cx="51.29" cy="305.44" r="16.32"/>

					<polygon class="st1" points="65.52 305.44 64.92 306.47 65.36 307.57 64.61 308.49 64.89 309.64 64.01 310.44 64.11 311.62 63.12 312.28 63.05 313.46 61.97 313.97 61.72 315.13 60.58 315.46 60.16 316.57 58.99 316.74 58.4 317.77 57.22 317.76 56.49 318.7 55.32 318.51 54.46 319.32 53.33 318.96 52.35 319.64 51.29 319.11 50.22 319.64 49.25 318.96 48.12 319.32 47.26 318.51 46.08 318.7 45.35 317.76 44.17 317.77 43.59 316.74 42.41 316.57 41.99 315.46 40.85 315.12 40.6 313.96 39.52 313.46 39.45 312.28 38.46 311.62 38.56 310.44 37.68 309.64 37.96 308.49 37.21 307.57 37.66 306.47 37.05 305.44 37.66 304.42 37.21 303.32 37.96 302.4 37.68 301.25 38.56 300.45 38.46 299.26 39.45 298.61 39.53 297.42 40.6 296.92 40.85 295.76 41.99 295.42 42.41 294.31 43.59 294.15 44.17 293.11 45.36 293.13 46.09 292.19 47.26 292.38 48.12 291.56 49.25 291.93 50.22 291.25 51.29 291.78 52.35 291.25 53.33 291.93 54.46 291.56 55.32 292.38 56.49 292.19 57.22 293.13 58.41 293.12 58.99 294.15 60.16 294.32 60.58 295.43 61.72 295.76 61.97 296.92 63.05 297.43 63.13 298.61 64.12 299.27 64.01 300.45 64.89 301.25 64.61 302.4 65.36 303.32 64.92 304.42"/>

				<line class="st1" x1="51.29" x2="51.29" y1="291.49" y2="303.5"/>

					<path class="st2" d="m44.93 331.47h0.61v4.21h2.02v0.51h-2.63v-4.72z"/>
					<path class="st2" d="m52 333.78c0 1.63-0.99 2.49-2.19 2.49-1.25 0-2.12-0.97-2.12-2.4 0-1.5 0.93-2.48 2.19-2.48 1.28 0 2.12 0.99 2.12 2.39zm-3.67 0.08c0 1.01 0.55 1.91 1.51 1.91 0.97 0 1.51-0.89 1.51-1.96 0-0.94-0.49-1.92-1.51-1.92-1 0-1.51 0.93-1.51 1.97z"/>
					<path class="st2" d="m53.56 336.19-1.2-4.72h0.64l0.56 2.39c0.14 0.59 0.27 1.18 0.35 1.63h0.01c0.08-0.47 0.22-1.03 0.39-1.64l0.63-2.38h0.64l0.57 2.4c0.13 0.56 0.26 1.12 0.33 1.62h0.01c0.1-0.52 0.23-1.04 0.38-1.63l0.62-2.38h0.62l-1.34 4.72h-0.64l-0.6-2.46c-0.15-0.6-0.25-1.06-0.31-1.54h-0.01c-0.08 0.47-0.19 0.93-0.36 1.54l-0.67 2.46h-0.62z"/>


					<path class="st2" d="m63.35 326.42v1.41h1.36v0.36h-1.36v1.42h-0.38v-1.42h-1.35v-0.36h1.35v-1.41h0.38z"/>
					<path class="st2" d="m67.44 326.09c-0.11-0.01-0.25 0-0.4 0.02-0.83 0.14-1.26 0.74-1.36 1.39h0.02c0.19-0.25 0.51-0.45 0.94-0.45 0.69 0 1.18 0.5 1.18 1.26 0 0.71-0.49 1.37-1.3 1.37-0.83 0-1.38-0.65-1.38-1.66 0-0.77 0.28-1.37 0.66-1.76 0.32-0.32 0.76-0.52 1.25-0.58 0.16-0.02 0.29-0.03 0.38-0.03v0.44zm-0.15 2.24c0-0.56-0.32-0.89-0.8-0.89-0.32 0-0.61 0.2-0.76 0.48-0.04 0.06-0.06 0.14-0.06 0.23 0.01 0.64 0.31 1.12 0.86 1.12 0.46 0 0.76-0.38 0.76-0.94z"/>


					<path class="st2" d="m35.41 327.71v0.52h-1.97v-0.52h1.97z"/>
					<path class="st2" d="m38.56 328.35c-0.41 0.41-0.83 0.86-1.48 0.86-0.67 0-1.15-0.5-1.15-1.18 0-0.63 0.51-1.18 1.21-1.18 0.59 0 1.03 0.47 1.42 0.86 0.41-0.41 0.83-0.86 1.48-0.86 0.68 0 1.15 0.5 1.15 1.18 0 0.63-0.51 1.18-1.22 1.18-0.58 0-1.02-0.47-1.41-0.86zm-0.32-0.32c-0.31-0.29-0.64-0.7-1.1-0.7-0.4 0-0.7 0.33-0.7 0.7 0 0.41 0.29 0.7 0.68 0.7 0.45 0 0.82-0.39 1.12-0.7zm2.45 0c0-0.41-0.29-0.7-0.68-0.7-0.46 0-0.82 0.39-1.13 0.7 0.31 0.29 0.64 0.7 1.1 0.7 0.41 0 0.71-0.33 0.71-0.7z"/>


			<path class="st1" d="m49.95 286.28c-9.98 0.69-17.87 9-17.87 19.16 0 7.01 3.76 13.15 9.38 16.5"/>
			<path class="st1" d="m52.63 286.28c9.98 0.69 17.87 9 17.87 19.16 0 7.01-3.76 13.15-9.38 16.5"/>
			<line class="st1" x1="51.29" x2="51.29" y1="324.65" y2="324.65"/>
			<line class="st1" x1="51.29" x2="51.29" y1="324.65" y2="324.65"/>



				<circle class="st1" cx="51.29" cy="372.2" r="16.32"/>

					<polygon class="st1" points="65.52 372.2 64.92 373.22 65.36 374.32 64.61 375.24 64.89 376.4 64.01 377.2 64.11 378.38 63.12 379.04 63.05 380.22 61.97 380.72 61.72 381.88 60.58 382.22 60.16 383.33 58.99 383.49 58.4 384.53 57.22 384.52 56.49 385.45 55.32 385.26 54.46 386.08 53.33 385.72 52.35 386.39 51.29 385.87 50.22 386.39 49.25 385.72 48.12 386.08 47.26 385.26 46.08 385.45 45.35 384.52 44.17 384.53 43.59 383.49 42.41 383.33 41.99 382.22 40.85 381.88 40.6 380.72 39.52 380.22 39.45 379.03 38.46 378.38 38.56 377.19 37.68 376.4 37.96 375.24 37.21 374.32 37.66 373.22 37.05 372.2 37.66 371.18 37.21 370.08 37.96 369.16 37.68 368 38.56 367.2 38.46 366.02 39.45 365.36 39.53 364.18 40.6 363.68 40.85 362.52 41.99 362.18 42.41 361.07 43.59 360.91 44.17 359.87 45.36 359.88 46.09 358.95 47.26 359.14 48.12 358.32 49.25 358.68 50.22 358 51.29 358.53 52.35 358 53.33 358.68 54.46 358.32 55.32 359.14 56.49 358.95 57.22 359.88 58.41 359.87 58.99 360.91 60.16 361.07 60.58 362.18 61.72 362.52 61.97 363.68 63.05 364.18 63.13 365.37 64.12 366.02 64.01 367.21 64.89 368 64.61 369.16 65.36 370.08 64.92 371.18"/>

				<line class="st1" x1="51.29" x2="51.29" y1="358.25" y2="370.26"/>

					<path class="st2" d="M42.59,398.22h2.54v0.51H43.2v1.57h1.79v0.5H43.2v2.14h-0.61V398.22z"/>
					<path class="st2" d="M46.61,398.22v4.72H46v-4.72H46.61z"/>
					<path class="st2" d="m47.67 398.22h0.61v4.21h2.02v0.51h-2.63v-4.72z"/>
					<path class="st2" d="m51.26 398.74h-1.44v-0.52h3.5v0.52h-1.44v4.2h-0.62v-4.2z"/>
					<path class="st2" d="m56.28 400.73h-1.83v1.7h2.04v0.51h-2.65v-4.72h2.55v0.51h-1.94v1.49h1.83v0.51z"/>
					<path class="st2" d="m57.28 398.29c0.31-0.06 0.75-0.1 1.17-0.1 0.65 0 1.07 0.12 1.37 0.38 0.24 0.21 0.37 0.53 0.37 0.9 0 0.62-0.39 1.04-0.89 1.21v0.02c0.36 0.13 0.58 0.46 0.69 0.95 0.15 0.66 0.27 1.11 0.36 1.3h-0.63c-0.08-0.13-0.18-0.54-0.32-1.13-0.14-0.65-0.39-0.9-0.95-0.92h-0.57v2.04h-0.61v-4.65zm0.61 2.15h0.62c0.65 0 1.06-0.36 1.06-0.9 0-0.61-0.44-0.88-1.08-0.88-0.29 0-0.5 0.03-0.6 0.06v1.72z"/>


					<path class="st2" d="M62,392.32v1.69h1.96v-1.69h0.53v4.04h-0.53v-1.89H62v1.89h-0.52v-4.04H62z"/>
					<path class="st2" d="m65.91 392.32v4.04h-0.52v-4.04h0.52z"/>


					<path class="st2" d="m29.89 392.85h0.52v3.6h1.73v0.44h-2.25v-4.04z"/>
					<path class="st2" d="m35.94 394.83c0 1.39-0.85 2.13-1.88 2.13-1.07 0-1.82-0.83-1.82-2.05 0-1.28 0.8-2.12 1.88-2.12 1.11 0 1.82 0.84 1.82 2.04zm-3.14 0.07c0 0.86 0.47 1.64 1.29 1.64 0.83 0 1.3-0.76 1.3-1.68 0-0.8-0.42-1.64-1.29-1.64-0.87-0.01-1.3 0.79-1.3 1.68z"/>
					<path class="st2" d="m37.28 396.89-1.03-4.04h0.55l0.48 2.04c0.12 0.5 0.23 1.01 0.3 1.4h0.01c0.07-0.4 0.19-0.88 0.33-1.4l0.54-2.04h0.55l0.49 2.05c0.11 0.48 0.22 0.96 0.28 1.38h0.01c0.08-0.44 0.2-0.89 0.32-1.4l0.53-2.04h0.53l-1.15 4.04h-0.52l-0.51-2.1c-0.13-0.52-0.21-0.91-0.26-1.32h-0.01c-0.07 0.4-0.16 0.8-0.31 1.32l-0.58 2.1h-0.55z"/>


			<path class="st1" d="m49.95 353.04c-9.98 0.69-17.87 9-17.87 19.16 0 7.01 3.76 13.15 9.38 16.5"/>
			<path class="st1" d="m52.63 353.04c9.98 0.69 17.87 9 17.87 19.16 0 7.01-3.76 13.15-9.38 16.5"/>
			<line class="st1" x1="51.29" x2="51.29" y1="391.41" y2="391.41"/>
			<line class="st1" x1="51.29" x2="51.29" y1="391.41" y2="391.41"/>





				<circle class="st1" cx="229.52" cy="171.93" r="16.32"/>

					<polygon class="st1" points="243.75 171.93 243.15 172.95 243.59 174.06 242.84 174.98 243.12 176.13 242.24 176.93 242.34 178.11 241.35 178.77 241.28 179.95 240.2 180.46 239.95 181.62 238.81 181.95 238.39 183.06 237.21 183.23 236.63 184.26 235.45 184.25 234.72 185.19 233.55 185 232.68 185.81 231.55 185.45 230.58 186.13 229.52 185.6 228.45 186.13 227.48 185.45 226.35 185.81 225.48 185 224.31 185.19 223.58 184.25 222.4 184.26 221.81 183.23 220.64 183.06 220.22 181.95 219.08 181.61 218.83 180.45 217.75 179.95 217.68 178.77 216.69 178.11 216.79 176.93 215.91 176.13 216.19 174.97 215.44 174.05 215.89 172.95 215.28 171.93 215.89 170.91 215.44 169.81 216.19 168.89 215.91 167.73 216.79 166.94 216.69 165.75 217.68 165.1 217.75 163.91 218.83 163.41 219.08 162.25 220.22 161.91 220.64 160.8 221.82 160.64 222.4 159.6 223.59 159.62 224.31 158.68 225.49 158.87 226.35 158.05 227.48 158.42 228.45 157.74 229.52 158.26 230.58 157.74 231.55 158.42 232.69 158.05 233.55 158.87 234.72 158.68 235.45 159.62 236.64 159.6 237.22 160.64 238.39 160.8 238.81 161.91 239.95 162.25 240.2 163.41 241.28 163.91 241.35 165.1 242.34 165.76 242.24 166.94 243.12 167.74 242.84 168.89 243.59 169.81 243.15 170.91"/>

				<line class="st1" x1="229.52" x2="229.52" y1="157.98" y2="169.99"/>

					<path class="st2" d="m227.54 197.96v1.98h2.28v-1.98h0.62v4.72h-0.62v-2.21h-2.28v2.21h-0.61v-4.72h0.61z"/>
					<path class="st2" d="m232.1 197.96v4.72h-0.61v-4.72h0.61z"/>


					<path class="st2" d="m241.58 192.91v1.41h1.36v0.36h-1.36v1.42h-0.38v-1.42h-1.35v-0.36h1.35v-1.41h0.38z"/>
					<path class="st2" d="m245.67 192.57c-0.11-0.01-0.25 0-0.4 0.02-0.83 0.14-1.26 0.74-1.36 1.39h0.02c0.19-0.25 0.51-0.45 0.94-0.45 0.69 0 1.18 0.5 1.18 1.26 0 0.71-0.49 1.37-1.3 1.37-0.83 0-1.38-0.65-1.38-1.66 0-0.77 0.28-1.37 0.66-1.76 0.32-0.32 0.76-0.52 1.25-0.58 0.16-0.02 0.29-0.03 0.38-0.03v0.44zm-0.15 2.25c0-0.56-0.32-0.89-0.8-0.89-0.32 0-0.61 0.2-0.76 0.48-0.04 0.06-0.06 0.14-0.06 0.23 0.01 0.64 0.31 1.12 0.86 1.12 0.45 0 0.76-0.38 0.76-0.94z"/>


					<path class="st2" d="m213.64 194.2v0.52h-1.97v-0.52h1.97z"/>
					<path class="st2" d="m216.79 194.84c-0.41 0.41-0.83 0.86-1.48 0.86-0.67 0-1.15-0.5-1.15-1.18 0-0.63 0.51-1.18 1.21-1.18 0.59 0 1.03 0.47 1.42 0.86 0.41-0.41 0.83-0.86 1.48-0.86 0.68 0 1.15 0.5 1.15 1.18 0 0.63-0.51 1.18-1.22 1.18-0.58 0-1.02-0.47-1.41-0.86zm-0.32-0.33c-0.31-0.29-0.64-0.7-1.1-0.7-0.4 0-0.7 0.33-0.7 0.7 0 0.41 0.29 0.7 0.68 0.7 0.45 0.01 0.82-0.38 1.12-0.7zm2.45 0c0-0.41-0.29-0.7-0.68-0.7-0.46 0-0.82 0.39-1.13 0.7 0.31 0.29 0.64 0.7 1.1 0.7 0.4 0.01 0.71-0.32 0.71-0.7z"/>


			<path class="st1" d="m228.18 152.77c-9.98 0.69-17.87 9-17.87 19.16 0 7.01 3.76 13.15 9.38 16.5"/>
			<path class="st1" d="m230.85 152.77c9.98 0.69 17.87 9 17.87 19.16 0 7.01-3.76 13.15-9.38 16.5"/>
			<line class="st1" x1="229.52" x2="229.52" y1="191.14" y2="191.14"/>
			<line class="st1" x1="229.52" x2="229.52" y1="191.14" y2="191.14"/>



				<circle class="st1" cx="229.52" cy="238.69" r="16.32"/>

					<polygon class="st1" points="243.75 238.69 243.15 239.71 243.59 240.81 242.84 241.73 243.12 242.89 242.24 243.68 242.34 244.87 241.35 245.52 241.28 246.71 240.2 247.21 239.95 248.37 238.81 248.71 238.39 249.82 237.21 249.98 236.63 251.02 235.45 251.01 234.72 251.94 233.55 251.75 232.68 252.57 231.55 252.2 230.58 252.88 229.52 252.36 228.45 252.88 227.48 252.2 226.35 252.57 225.48 251.75 224.31 251.94 223.58 251 222.4 251.02 221.81 249.98 220.64 249.82 220.22 248.71 219.08 248.37 218.83 247.21 217.75 246.71 217.68 245.52 216.69 244.86 216.79 243.68 215.91 242.89 216.19 241.73 215.44 240.81 215.89 239.71 215.28 238.69 215.89 237.67 215.44 236.56 216.19 235.64 215.91 234.49 216.79 233.69 216.69 232.51 217.68 231.85 217.75 230.67 218.83 230.17 219.08 229.01 220.22 228.67 220.64 227.56 221.82 227.39 222.4 226.36 223.59 226.37 224.31 225.43 225.49 225.62 226.35 224.81 227.48 225.17 228.45 224.49 229.52 225.02 230.58 224.49 231.55 225.17 232.69 224.81 233.55 225.63 234.72 225.44 235.45 226.37 236.64 226.36 237.22 227.4 238.39 227.56 238.81 228.67 239.95 229.01 240.2 230.17 241.28 230.67 241.35 231.85 242.34 232.51 242.24 233.69 243.12 234.49 242.84 235.65 243.59 236.57 243.15 237.67"/>

				<line class="st1" x1="229.52" x2="229.52" y1="224.74" y2="236.75"/>

					<path class="st2" d="m228.04 267.36c-0.04-0.66-0.08-1.45-0.07-2.04h-0.02c-0.16 0.55-0.36 1.14-0.59 1.79l-0.83 2.29h-0.46l-0.76-2.25c-0.22-0.67-0.41-1.27-0.55-1.83h-0.01c-0.01 0.59-0.05 1.38-0.09 2.09l-0.13 2.02h-0.58l0.33-4.72h0.78l0.81 2.28c0.2 0.58 0.36 1.1 0.48 1.59h0.02c0.12-0.48 0.29-0.99 0.5-1.59l0.84-2.28h0.78l0.29 4.72h-0.59l-0.15-2.07z"/>
					<path class="st2" d="m230.3 264.71v4.72h-0.61v-4.72h0.61z"/>
					<path class="st2" d="m231.37 264.77c0.37-0.06 0.81-0.1 1.3-0.1 0.88 0 1.5 0.2 1.91 0.59 0.42 0.39 0.67 0.93 0.67 1.7s-0.24 1.4-0.68 1.83c-0.44 0.44-1.17 0.68-2.09 0.68-0.43 0-0.8-0.02-1.11-0.06v-4.64zm0.61 4.18c0.15 0.03 0.38 0.04 0.62 0.04 1.3 0 2.01-0.73 2.01-2 0.01-1.11-0.62-1.82-1.91-1.82-0.32 0-0.55 0.03-0.71 0.06v3.72z"/>


					<path class="st2" d="m241.58 259.66v1.41h1.36v0.36h-1.36v1.42h-0.38v-1.42h-1.35v-0.36h1.35v-1.41h0.38z"/>
					<path class="st2" d="m245.67 259.33c-0.11-0.01-0.25 0-0.4 0.02-0.83 0.14-1.26 0.74-1.36 1.39h0.02c0.19-0.25 0.51-0.45 0.94-0.45 0.69 0 1.18 0.5 1.18 1.26 0 0.71-0.49 1.37-1.3 1.37-0.83 0-1.38-0.65-1.38-1.66 0-0.77 0.28-1.37 0.66-1.76 0.32-0.32 0.76-0.52 1.25-0.58 0.16-0.02 0.29-0.03 0.38-0.03v0.44zm-0.15 2.25c0-0.56-0.32-0.89-0.8-0.89-0.32 0-0.61 0.2-0.76 0.48-0.04 0.06-0.06 0.14-0.06 0.23 0.01 0.64 0.31 1.12 0.86 1.12 0.45-0.01 0.76-0.38 0.76-0.94z"/>


					<path class="st2" d="m213.64 260.96v0.52h-1.97v-0.52h1.97z"/>
					<path class="st2" d="m216.79 261.6c-0.41 0.41-0.83 0.86-1.48 0.86-0.67 0-1.15-0.5-1.15-1.18 0-0.63 0.51-1.18 1.21-1.18 0.59 0 1.03 0.47 1.42 0.86 0.41-0.41 0.83-0.86 1.48-0.86 0.68 0 1.15 0.5 1.15 1.18 0 0.63-0.51 1.18-1.22 1.18-0.58-0.01-1.02-0.48-1.41-0.86zm-0.32-0.33c-0.31-0.29-0.64-0.7-1.1-0.7-0.4 0-0.7 0.33-0.7 0.7 0 0.41 0.29 0.7 0.68 0.7 0.45 0 0.82-0.39 1.12-0.7zm2.45 0c0-0.41-0.29-0.7-0.68-0.7-0.46 0-0.82 0.39-1.13 0.7 0.31 0.29 0.64 0.7 1.1 0.7 0.4 0 0.71-0.32 0.71-0.7z"/>


			<path class="st1" d="m228.18 219.53c-9.98 0.69-17.87 9-17.87 19.16 0 7.01 3.76 13.15 9.38 16.5"/>
			<path class="st1" d="m230.85 219.53c9.98 0.69 17.87 9 17.87 19.16 0 7.01-3.76 13.15-9.38 16.5"/>
			<line class="st1" x1="229.52" x2="229.52" y1="257.9" y2="257.9"/>
			<line class="st1" x1="229.52" x2="229.52" y1="257.9" y2="257.9"/>



				<circle class="st1" cx="229.52" cy="305.44" r="16.32"/>

					<polygon class="st1" points="243.75 305.44 243.15 306.47 243.59 307.57 242.84 308.49 243.12 309.64 242.24 310.44 242.34 311.62 241.35 312.28 241.28 313.46 240.2 313.97 239.95 315.13 238.81 315.46 238.39 316.57 237.21 316.74 236.63 317.77 235.45 317.76 234.72 318.7 233.55 318.51 232.68 319.32 231.55 318.96 230.58 319.64 229.52 319.11 228.45 319.64 227.48 318.96 226.35 319.32 225.48 318.51 224.31 318.7 223.58 317.76 222.4 317.77 221.81 316.74 220.64 316.57 220.22 315.46 219.08 315.12 218.83 313.96 217.75 313.46 217.68 312.28 216.69 311.62 216.79 310.44 215.91 309.64 216.19 308.49 215.44 307.57 215.89 306.47 215.28 305.44 215.89 304.42 215.44 303.32 216.19 302.4 215.91 301.25 216.79 300.45 216.69 299.26 217.68 298.61 217.75 297.42 218.83 296.92 219.08 295.76 220.22 295.42 220.64 294.31 221.82 294.15 222.4 293.11 223.59 293.13 224.31 292.19 225.49 292.38 226.35 291.56 227.48 291.93 228.45 291.25 229.52 291.78 230.58 291.25 231.55 291.93 232.69 291.56 233.55 292.38 234.72 292.19 235.45 293.13 236.64 293.12 237.22 294.15 238.39 294.32 238.81 295.43 239.95 295.76 240.2 296.92 241.28 297.43 241.35 298.61 242.34 299.27 242.24 300.45 243.12 301.25 242.84 302.4 243.59 303.32 243.15 304.42"/>

				<line class="st1" x1="229.52" x2="229.52" y1="291.49" y2="303.5"/>

					<path class="st2" d="m223.16 331.47h0.61v4.21h2.02v0.51h-2.63v-4.72z"/>
					<path class="st2" d="m230.23 333.78c0 1.63-0.99 2.49-2.19 2.49-1.25 0-2.12-0.97-2.12-2.4 0-1.5 0.93-2.48 2.19-2.48 1.28 0 2.12 0.99 2.12 2.39zm-3.67 0.08c0 1.01 0.55 1.91 1.51 1.91 0.97 0 1.51-0.89 1.51-1.96 0-0.94-0.49-1.92-1.51-1.92-1 0-1.51 0.93-1.51 1.97z"/>
					<path class="st2" d="m231.78 336.19-1.2-4.72h0.64l0.56 2.39c0.14 0.59 0.27 1.18 0.35 1.63h0.01c0.08-0.47 0.22-1.03 0.39-1.64l0.63-2.38h0.64l0.57 2.4c0.13 0.56 0.26 1.12 0.33 1.62h0.01c0.1-0.52 0.23-1.04 0.38-1.63l0.62-2.38h0.62l-1.34 4.72h-0.64l-0.6-2.46c-0.15-0.6-0.25-1.06-0.31-1.54h-0.01c-0.08 0.47-0.19 0.93-0.36 1.54l-0.67 2.46h-0.62z"/>


					<path class="st2" d="m241.58 326.42v1.41h1.36v0.36h-1.36v1.42h-0.38v-1.42h-1.35v-0.36h1.35v-1.41h0.38z"/>
					<path class="st2" d="m245.67 326.09c-0.11-0.01-0.25 0-0.4 0.02-0.83 0.14-1.26 0.74-1.36 1.39h0.02c0.19-0.25 0.51-0.45 0.94-0.45 0.69 0 1.18 0.5 1.18 1.26 0 0.71-0.49 1.37-1.3 1.37-0.83 0-1.38-0.65-1.38-1.66 0-0.77 0.28-1.37 0.66-1.76 0.32-0.32 0.76-0.52 1.25-0.58 0.16-0.02 0.29-0.03 0.38-0.03v0.44zm-0.15 2.24c0-0.56-0.32-0.89-0.8-0.89-0.32 0-0.61 0.2-0.76 0.48-0.04 0.06-0.06 0.14-0.06 0.23 0.01 0.64 0.31 1.12 0.86 1.12 0.45 0 0.76-0.38 0.76-0.94z"/>


					<path class="st2" d="m213.64 327.71v0.52h-1.97v-0.52h1.97z"/>
					<path class="st2" d="m216.79 328.35c-0.41 0.41-0.83 0.86-1.48 0.86-0.67 0-1.15-0.5-1.15-1.18 0-0.63 0.51-1.18 1.21-1.18 0.59 0 1.03 0.47 1.42 0.86 0.41-0.41 0.83-0.86 1.48-0.86 0.68 0 1.15 0.5 1.15 1.18 0 0.63-0.51 1.18-1.22 1.18-0.58 0-1.02-0.47-1.41-0.86zm-0.32-0.32c-0.31-0.29-0.64-0.7-1.1-0.7-0.4 0-0.7 0.33-0.7 0.7 0 0.41 0.29 0.7 0.68 0.7 0.45 0 0.82-0.39 1.12-0.7zm2.45 0c0-0.41-0.29-0.7-0.68-0.7-0.46 0-0.82 0.39-1.13 0.7 0.31 0.29 0.64 0.7 1.1 0.7 0.4 0 0.71-0.33 0.71-0.7z"/>


			<path class="st1" d="m228.18 286.28c-9.98 0.69-17.87 9-17.87 19.16 0 7.01 3.76 13.15 9.38 16.5"/>
			<path class="st1" d="m230.85 286.28c9.98 0.69 17.87 9 17.87 19.16 0 7.01-3.76 13.15-9.38 16.5"/>
			<line class="st1" x1="229.52" x2="229.52" y1="324.65" y2="324.65"/>
			<line class="st1" x1="229.52" x2="229.52" y1="324.65" y2="324.65"/>



				<circle class="st1" cx="229.52" cy="372.2" r="16.32"/>

					<polygon class="st1" points="243.75 372.2 243.15 373.22 243.59 374.32 242.84 375.24 243.12 376.4 242.24 377.2 242.34 378.38 241.35 379.04 241.28 380.22 240.2 380.72 239.95 381.88 238.81 382.22 238.39 383.33 237.21 383.49 236.63 384.53 235.45 384.52 234.72 385.45 233.55 385.26 232.68 386.08 231.55 385.72 230.58 386.39 229.52 385.87 228.45 386.39 227.48 385.72 226.35 386.08 225.48 385.26 224.31 385.45 223.58 384.52 222.4 384.53 221.81 383.49 220.64 383.33 220.22 382.22 219.08 381.88 218.83 380.72 217.75 380.22 217.68 379.03 216.69 378.38 216.79 377.19 215.91 376.4 216.19 375.24 215.44 374.32 215.89 373.22 215.28 372.2 215.89 371.18 215.44 370.08 216.19 369.16 215.91 368 216.79 367.2 216.69 366.02 217.68 365.36 217.75 364.18 218.83 363.68 219.08 362.52 220.22 362.18 220.64 361.07 221.82 360.91 222.4 359.87 223.59 359.88 224.31 358.95 225.49 359.14 226.35 358.32 227.48 358.68 228.45 358 229.52 358.53 230.58 358 231.55 358.68 232.69 358.32 233.55 359.14 234.72 358.95 235.45 359.88 236.64 359.87 237.22 360.91 238.39 361.07 238.81 362.18 239.95 362.52 240.2 363.68 241.28 364.18 241.35 365.37 242.34 366.02 242.24 367.21 243.12 368 242.84 369.16 243.59 370.08 243.15 371.18"/>

				<line class="st1" x1="229.52" x2="229.52" y1="358.25" y2="370.26"/>

					<path class="st2" d="m220.82 398.22h2.54v0.51h-1.93v1.57h1.79v0.5h-1.79v2.14h-0.61v-4.72z"/>
					<path class="st2" d="m224.84 398.22v4.72h-0.61v-4.72h0.61z"/>
					<path class="st2" d="m225.9 398.22h0.61v4.21h2.02v0.51h-2.63v-4.72z"/>
					<path class="st2" d="m229.48 398.74h-1.44v-0.52h3.5v0.52h-1.44v4.2h-0.62v-4.2z"/>
					<path class="st2" d="m234.51 400.73h-1.83v1.7h2.04v0.51h-2.65v-4.72h2.55v0.51h-1.94v1.49h1.83v0.51z"/>
					<path class="st2" d="m235.51 398.29c0.31-0.06 0.75-0.1 1.17-0.1 0.65 0 1.07 0.12 1.37 0.38 0.24 0.21 0.37 0.53 0.37 0.9 0 0.62-0.39 1.04-0.89 1.21v0.02c0.36 0.13 0.58 0.46 0.69 0.95 0.15 0.66 0.27 1.11 0.36 1.3h-0.63c-0.08-0.13-0.18-0.54-0.32-1.13-0.14-0.65-0.39-0.9-0.95-0.92h-0.57v2.04h-0.61v-4.65zm0.61 2.15h0.62c0.65 0 1.06-0.36 1.06-0.9 0-0.61-0.44-0.88-1.08-0.88-0.29 0-0.5 0.03-0.6 0.06v1.72z"/>


					<path class="st2" d="m240.23 392.32v1.69h1.96v-1.69h0.53v4.04h-0.53v-1.89h-1.96v1.89h-0.52v-4.04h0.52z"/>
					<path class="st2" d="m244.14 392.32v4.04h-0.52v-4.04h0.52z"/>


					<path class="st2" d="m208.12 392.85h0.52v3.6h1.73v0.44h-2.25v-4.04z"/>
					<path class="st2" d="m214.17 394.83c0 1.39-0.85 2.13-1.88 2.13-1.07 0-1.82-0.83-1.82-2.05 0-1.28 0.8-2.12 1.88-2.12 1.1 0 1.82 0.84 1.82 2.04zm-3.14 0.07c0 0.86 0.47 1.64 1.29 1.64 0.83 0 1.3-0.76 1.3-1.68 0-0.8-0.42-1.64-1.29-1.64-0.87-0.01-1.3 0.79-1.3 1.68z"/>
					<path class="st2" d="m215.51 396.89-1.03-4.04h0.55l0.48 2.04c0.12 0.5 0.23 1.01 0.3 1.4h0.01c0.07-0.4 0.19-0.88 0.33-1.4l0.54-2.04h0.55l0.49 2.05c0.11 0.48 0.22 0.96 0.28 1.38h0.01c0.08-0.44 0.2-0.89 0.32-1.4l0.53-2.04h0.53l-1.15 4.04h-0.55l-0.51-2.1c-0.13-0.52-0.21-0.91-0.26-1.32h-0.01c-0.07 0.4-0.16 0.8-0.31 1.32l-0.58 2.1h-0.52z"/>


			<path class="st1" d="m228.18 353.04c-9.98 0.69-17.87 9-17.87 19.16 0 7.01 3.76 13.15 9.38 16.5"/>
			<path class="st1" d="m230.85 353.04c9.98 0.69 17.87 9 17.87 19.16 0 7.01-3.76 13.15-9.38 16.5"/>
			<line class="st1" x1="229.52" x2="229.52" y1="391.41" y2="391.41"/>
			<line class="st1" x1="229.52" x2="229.52" y1="391.41" y2="391.41"/>





				<circle class="st1" cx="140.34" cy="171.93" r="16.32"/>

					<polygon class="st1" points="154.57 171.93 153.97 172.95 154.42 174.06 153.67 174.98 153.94 176.13 153.06 176.93 153.17 178.11 152.18 178.77 152.1 179.95 151.02 180.46 150.77 181.62 149.63 181.95 149.21 183.06 148.04 183.23 147.46 184.26 146.27 184.25 145.54 185.19 144.37 185 143.51 185.81 142.38 185.45 141.4 186.13 140.34 185.6 139.27 186.13 138.3 185.45 137.17 185.81 136.31 185 135.14 185.19 134.41 184.25 133.22 184.26 132.64 183.23 131.46 183.06 131.04 181.95 129.9 181.61 129.65 180.45 128.58 179.95 128.5 178.77 127.51 178.11 127.61 176.93 126.73 176.13 127.01 174.97 126.26 174.05 126.71 172.95 126.11 171.93 126.71 170.91 126.26 169.81 127.01 168.89 126.73 167.73 127.61 166.94 127.51 165.75 128.5 165.1 128.58 163.91 129.65 163.41 129.91 162.25 131.04 161.91 131.47 160.8 132.64 160.64 133.22 159.6 134.41 159.62 135.14 158.68 136.31 158.87 137.17 158.05 138.3 158.42 139.28 157.74 140.34 158.26 141.4 157.74 142.38 158.42 143.51 158.05 144.37 158.87 145.54 158.68 146.27 159.62 147.46 159.6 148.04 160.64 149.22 160.8 149.64 161.91 150.77 162.25 151.03 163.41 152.1 163.91 152.18 165.1 153.17 165.76 153.07 166.94 153.94 167.74 153.67 168.89 154.42 169.81 153.97 170.91"/>

				<line class="st1" x1="140.34" x2="140.34" y1="157.98" y2="169.99"/>

					<path class="st2" d="m123.39 200.6c-0.04-0.66-0.08-1.45-0.07-2.04h-0.02c-0.16 0.55-0.36 1.14-0.59 1.79l-0.83 2.29h-0.46l-0.76-2.25c-0.22-0.67-0.41-1.27-0.55-1.83h-0.01c-0.01 0.59-0.05 1.38-0.09 2.09l-0.13 2.02h-0.58l0.33-4.72h0.78l0.81 2.28c0.2 0.58 0.36 1.1 0.48 1.59h0.02c0.12-0.48 0.29-0.99 0.5-1.59l0.84-2.28h0.78l0.29 4.72h-0.59l-0.15-2.07z"/>
					<path class="st2" d="m125.73 201.19-0.49 1.48h-0.63l1.6-4.72h0.74l1.61 4.72h-0.65l-0.5-1.48h-1.68zm1.55-0.47-0.46-1.36c-0.1-0.31-0.17-0.59-0.25-0.86h-0.01c-0.07 0.28-0.15 0.57-0.24 0.85l-0.46 1.37h1.42z"/>
					<path class="st2" d="m129.16 201.93c0.27 0.17 0.67 0.31 1.09 0.31 0.62 0 0.99-0.33 0.99-0.81 0-0.44-0.25-0.69-0.89-0.94-0.77-0.27-1.25-0.67-1.25-1.34 0-0.74 0.61-1.28 1.53-1.28 0.48 0 0.83 0.11 1.04 0.23l-0.17 0.5c-0.15-0.08-0.47-0.22-0.9-0.22-0.64 0-0.89 0.39-0.89 0.71 0 0.44 0.29 0.66 0.94 0.91 0.8 0.31 1.2 0.69 1.2 1.39 0 0.73-0.54 1.36-1.65 1.36-0.46 0-0.95-0.13-1.21-0.3l0.17-0.52z"/>
					<path class="st2" d="m133.6 198.47h-1.44v-0.52h3.5v0.52h-1.44v4.2h-0.62v-4.2z"/>
					<path class="st2" d="m138.62 200.46h-1.83v1.7h2.04v0.51h-2.65v-4.72h2.55v0.51h-1.94v1.49h1.83v0.51z"/>
					<path class="st2" d="m139.62 198.02c0.31-0.06 0.75-0.1 1.17-0.1 0.65 0 1.07 0.12 1.37 0.38 0.24 0.21 0.37 0.53 0.37 0.9 0 0.62-0.39 1.04-0.89 1.21v0.02c0.36 0.13 0.58 0.46 0.69 0.95 0.15 0.66 0.27 1.11 0.36 1.3h-0.63c-0.08-0.13-0.18-0.54-0.32-1.13-0.14-0.65-0.39-0.9-0.95-0.92h-0.57v2.04h-0.61v-4.65zm0.61 2.15h0.62c0.65 0 1.06-0.36 1.06-0.9 0-0.61-0.44-0.88-1.08-0.88-0.29 0-0.5 0.03-0.6 0.06v1.72z"/>
					<path class="st2" d="m144.87 197.96h0.61v4.21h2.02v0.51h-2.63v-4.72z"/>
					<path class="st2" d="m150.62 200.46h-1.83v1.7h2.04v0.51h-2.65v-4.72h2.55v0.51h-1.94v1.49h1.83v0.51z"/>
					<path class="st2" d="m152.72 202.68-1.54-4.72h0.66l0.74 2.33c0.2 0.64 0.38 1.21 0.5 1.77h0.01c0.13-0.55 0.33-1.14 0.54-1.76l0.8-2.33h0.65l-1.69 4.72h-0.67z"/>
					<path class="st2" d="m158.03 200.46h-1.83v1.7h2.04v0.51h-2.65v-4.72h2.55v0.51h-1.94v1.49h1.83v0.51z"/>
					<path class="st2" d="m159.03 197.96h0.61v4.21h2.02v0.51h-2.63v-4.72z"/>


					<path class="st2" d="m153.07 194.11c0 1.33-0.49 2.06-1.36 2.06-0.76 0-1.28-0.71-1.29-2 0-1.31 0.56-2.03 1.36-2.03 0.82 0 1.29 0.73 1.29 1.97zm-2.12 0.06c0 1.01 0.31 1.59 0.79 1.59 0.54 0 0.8-0.63 0.8-1.63 0-0.96-0.25-1.59-0.79-1.59-0.46 0-0.8 0.57-0.8 1.63z"/>


					<path class="st2" d="m124.46 194.2v0.52h-1.97v-0.52h1.97z"/>
					<path class="st2" d="m127.61 194.84c-0.41 0.41-0.83 0.86-1.48 0.86-0.67 0-1.15-0.5-1.15-1.18 0-0.63 0.51-1.18 1.21-1.18 0.59 0 1.03 0.47 1.42 0.86 0.41-0.41 0.83-0.86 1.48-0.86 0.68 0 1.15 0.5 1.15 1.18 0 0.63-0.51 1.18-1.22 1.18-0.58 0-1.02-0.47-1.41-0.86zm-0.31-0.33c-0.31-0.29-0.64-0.7-1.1-0.7-0.4 0-0.7 0.33-0.7 0.7 0 0.41 0.29 0.7 0.68 0.7 0.44 0.01 0.81-0.38 1.12-0.7zm2.44 0c0-0.41-0.29-0.7-0.68-0.7-0.46 0-0.82 0.39-1.13 0.7 0.31 0.29 0.64 0.7 1.1 0.7 0.41 0.01 0.71-0.32 0.71-0.7z"/>


			<path class="st1" d="m150.17 188.44c5.62-3.35 9.38-9.49 9.38-16.5 0-10.16-7.89-18.47-17.87-19.16-0.4-0.04-0.85-0.06-1.33-0.07-0.49 0-0.94 0.03-1.35 0.07-1.4 0.1-7.68 0.69-12.68 6.03-3.22 3.43-5.19 8.05-5.19 13.13 0 1.99 0.3 3.91 0.86 5.71 1.94 6.24 6.69 9.62 8.51 10.79"/>
			<line class="st1" x1="140.34" x2="140.34" y1="191.14" y2="191.14"/>
			<line class="st1" x1="140.34" x2="140.34" y1="191.14" y2="191.14"/>



				<circle class="st1" cx="140.34" cy="238.97" r="16.32"/>

					<polygon class="st1" points="154.57 238.97 153.97 239.99 154.42 241.09 153.67 242.02 153.94 243.17 153.06 243.97 153.17 245.15 152.18 245.81 152.1 246.99 151.02 247.49 150.77 248.65 149.63 248.99 149.21 250.1 148.04 250.27 147.46 251.3 146.27 251.29 145.54 252.23 144.37 252.04 143.51 252.85 142.38 252.49 141.4 253.17 140.34 252.64 139.27 253.17 138.3 252.49 137.17 252.85 136.31 252.03 135.14 252.22 134.41 251.29 133.22 251.3 132.64 250.26 131.46 250.1 131.04 248.99 129.9 248.65 129.65 247.49 128.58 246.99 128.5 245.81 127.51 245.15 127.61 243.97 126.73 243.17 127.01 242.01 126.26 241.09 126.71 239.99 126.11 238.97 126.71 237.95 126.26 236.85 127.01 235.93 126.73 234.77 127.61 233.98 127.51 232.79 128.5 232.14 128.58 230.95 129.65 230.45 129.91 229.29 131.04 228.95 131.47 227.84 132.64 227.68 133.22 226.64 134.41 226.65 135.14 225.72 136.31 225.91 137.17 225.09 138.3 225.46 139.28 224.78 140.34 225.3 141.4 224.78 142.38 225.46 143.51 225.09 144.37 225.91 145.54 225.72 146.27 226.66 147.46 226.64 148.04 227.68 149.22 227.84 149.64 228.95 150.77 229.29 151.03 230.45 152.1 230.95 152.18 232.14 153.17 232.79 153.07 233.98 153.94 234.77 153.67 235.93 154.42 236.85 153.97 237.95"/>

				<line class="st1" x1="140.34" x2="140.34" y1="225.02" y2="237.03"/>

					<path class="st2" d="m120.74 265.06c0.27-0.06 0.69-0.1 1.11-0.1 0.61 0 1 0.1 1.3 0.34 0.25 0.18 0.39 0.46 0.39 0.83 0 0.46-0.3 0.85-0.8 1.04v0.01c0.45 0.11 0.97 0.48 0.97 1.18 0 0.41-0.16 0.71-0.4 0.95-0.33 0.3-0.86 0.44-1.63 0.44-0.42 0-0.74-0.03-0.95-0.06v-4.63zm0.61 1.93h0.55c0.64 0 1.02-0.34 1.02-0.79 0-0.55-0.42-0.77-1.04-0.77-0.28 0-0.44 0.02-0.54 0.04v1.52zm0 2.26c0.12 0.02 0.29 0.03 0.51 0.03 0.63 0 1.21-0.23 1.21-0.92 0-0.64-0.55-0.91-1.22-0.91h-0.5v1.8z"/>
					<path class="st2" d="m128.57 267.31c0 1.63-0.99 2.49-2.19 2.49-1.25 0-2.12-0.97-2.12-2.4 0-1.5 0.93-2.48 2.19-2.48 1.29 0 2.12 0.99 2.12 2.39zm-3.66 0.07c0 1.01 0.55 1.91 1.51 1.91 0.97 0 1.51-0.89 1.51-1.96 0-0.94-0.49-1.92-1.51-1.92-1.01 0.01-1.51 0.94-1.51 1.97z"/>
					<path class="st2" d="m133.4 267.31c0 1.63-0.99 2.49-2.19 2.49-1.25 0-2.12-0.97-2.12-2.4 0-1.5 0.93-2.48 2.19-2.48 1.28 0 2.12 0.99 2.12 2.39zm-3.67 0.07c0 1.01 0.55 1.91 1.51 1.91 0.97 0 1.51-0.89 1.51-1.96 0-0.94-0.49-1.92-1.51-1.92-1 0.01-1.51 0.94-1.51 1.97z"/>
					<path class="st2" d="m134.9 265.51h-1.44v-0.52h3.5v0.52h-1.44v4.2h-0.62v-4.2z"/>
					<path class="st2" d="m138.1 264.99v1.98h2.28v-1.98h0.62v4.72h-0.62v-2.21h-2.28v2.21h-0.61v-4.72h0.61z"/>
					<path class="st2" d="m143.54 264.99h0.61v4.21h2.02v0.51h-2.63v-4.72z"/>
					<path class="st2" d="m149.28 267.5h-1.83v1.7h2.04v0.51h-2.65v-4.72h2.55v0.51h-1.94v1.5h1.83v0.5z"/>
					<path class="st2" d="m151.38 269.72-1.54-4.72h0.66l0.74 2.32c0.2 0.64 0.38 1.21 0.5 1.77h0.01c0.13-0.55 0.33-1.14 0.54-1.76l0.8-2.33h0.65l-1.69 4.72h-0.67z"/>
					<path class="st2" d="m156.7 267.5h-1.83v1.7h2.04v0.51h-2.65v-4.72h2.55v0.51h-1.94v1.5h1.83v0.5z"/>
					<path class="st2" d="m157.7 264.99h0.61v4.21h2.02v0.51h-2.63v-4.72z"/>


					<path class="st2" d="m153.07 261.15c0 1.33-0.49 2.06-1.36 2.06-0.76 0-1.28-0.71-1.29-2 0-1.31 0.56-2.03 1.36-2.03 0.82-0.01 1.29 0.73 1.29 1.97zm-2.12 0.06c0 1.01 0.31 1.59 0.79 1.59 0.54 0 0.8-0.63 0.8-1.63 0-0.96-0.25-1.59-0.79-1.59-0.46 0-0.8 0.57-0.8 1.63z"/>


					<path class="st2" d="m124.46 261.24v0.52h-1.97v-0.52h1.97z"/>
					<path class="st2" d="m127.61 261.88c-0.41 0.41-0.83 0.86-1.48 0.86-0.67 0-1.15-0.5-1.15-1.18 0-0.63 0.51-1.18 1.21-1.18 0.59 0 1.03 0.47 1.42 0.86 0.41-0.41 0.83-0.86 1.48-0.86 0.68 0 1.15 0.5 1.15 1.18 0 0.63-0.51 1.18-1.22 1.18-0.58 0-1.02-0.47-1.41-0.86zm-0.31-0.33c-0.31-0.29-0.64-0.7-1.1-0.7-0.4 0-0.7 0.33-0.7 0.7 0 0.41 0.29 0.7 0.68 0.7 0.44 0.01 0.81-0.38 1.12-0.7zm2.44 0c0-0.41-0.29-0.7-0.68-0.7-0.46 0-0.82 0.39-1.13 0.7 0.31 0.29 0.64 0.7 1.1 0.7 0.41 0.01 0.71-0.32 0.71-0.7z"/>


			<path class="st1" d="m150.17 255.48c5.62-3.35 9.38-9.49 9.38-16.5 0-10.16-7.89-18.47-17.87-19.16-0.4-0.04-0.85-0.06-1.33-0.07-0.49 0-0.94 0.03-1.35 0.07-1.4 0.1-7.68 0.69-12.68 6.03-3.22 3.43-5.19 8.05-5.19 13.13 0 1.99 0.3 3.91 0.86 5.71 1.94 6.24 6.69 9.62 8.51 10.79"/>
			<line class="st1" x1="140.34" x2="140.34" y1="258.18" y2="258.18"/>
			<line class="st1" x1="140.34" x2="140.34" y1="258.18" y2="258.18"/>



				<circle class="st1" cx="140.34" cy="372.74" r="16.32"/>

					<polygon class="st1" points="154.57 372.74 153.97 373.76 154.42 374.87 153.67 375.79 153.94 376.94 153.06 377.74 153.17 378.92 152.18 379.58 152.1 380.76 151.02 381.26 150.77 382.42 149.63 382.76 149.21 383.87 148.04 384.04 147.46 385.07 146.27 385.06 145.54 386 144.37 385.81 143.51 386.62 142.38 386.26 141.4 386.94 140.34 386.41 139.27 386.94 138.3 386.26 137.17 386.62 136.31 385.8 135.14 385.99 134.41 385.06 133.22 385.07 132.64 384.03 131.46 383.87 131.04 382.76 129.9 382.42 129.65 381.26 128.58 380.76 128.5 379.58 127.51 378.92 127.61 377.74 126.73 376.94 127.01 375.78 126.26 374.86 126.71 373.76 126.11 372.74 126.71 371.72 126.26 370.62 127.01 369.7 126.73 368.54 127.61 367.75 127.51 366.56 128.5 365.91 128.58 364.72 129.65 364.22 129.91 363.06 131.04 362.72 131.47 361.61 132.64 361.45 133.22 360.41 134.41 360.42 135.14 359.49 136.31 359.68 137.17 358.86 138.3 359.23 139.28 358.55 140.34 359.07 141.4 358.55 142.38 359.23 143.51 358.86 144.37 359.68 145.54 359.49 146.27 360.43 147.46 360.41 148.04 361.45 149.22 361.61 149.64 362.72 150.77 363.06 151.03 364.22 152.1 364.72 152.18 365.91 153.17 366.57 153.07 367.75 153.94 368.54 153.67 369.7 154.42 370.62 153.97 371.72"/>

				<line class="st1" x1="140.34" x2="140.34" y1="358.79" y2="370.8"/>

					<path class="st2" d="m113.69 399.28h-1.44v-0.52h3.5v0.52h-1.44v4.2h-0.62v-4.2z"/>
					<path class="st2" d="m116.27 398.83c0.31-0.06 0.75-0.1 1.17-0.1 0.65 0 1.07 0.12 1.37 0.38 0.24 0.21 0.37 0.53 0.37 0.9 0 0.62-0.39 1.04-0.89 1.21v0.02c0.36 0.13 0.58 0.46 0.69 0.95 0.15 0.66 0.27 1.11 0.36 1.3h-0.63c-0.08-0.13-0.18-0.54-0.32-1.13-0.14-0.65-0.39-0.9-0.95-0.92h-0.57v2.04h-0.61v-4.65zm0.61 2.15h0.62c0.65 0 1.06-0.36 1.06-0.9 0-0.61-0.44-0.88-1.08-0.88-0.29 0-0.5 0.03-0.6 0.06v1.72z"/>
					<path class="st2" d="m119.49 403.77 1.95-5.08h0.48l-1.96 5.08h-0.47z"/>
					<path class="st2" d="m122.35 402.74c0.27 0.17 0.67 0.31 1.09 0.31 0.62 0 0.99-0.33 0.99-0.81 0-0.44-0.25-0.69-0.89-0.94-0.77-0.27-1.25-0.67-1.25-1.34 0-0.74 0.61-1.28 1.53-1.28 0.48 0 0.83 0.11 1.04 0.23l-0.17 0.5c-0.15-0.08-0.47-0.22-0.9-0.22-0.64 0-0.89 0.38-0.89 0.71 0 0.44 0.29 0.66 0.94 0.91 0.8 0.31 1.2 0.69 1.2 1.39 0 0.73-0.54 1.36-1.65 1.36-0.46 0-0.95-0.13-1.21-0.3l0.17-0.52z"/>
					<path class="st2" d="m126.65 402-0.49 1.48h-0.63l1.6-4.72h0.74l1.61 4.72h-0.65l-0.5-1.48h-1.68zm1.55-0.48-0.46-1.36c-0.1-0.31-0.17-0.59-0.25-0.86h-0.01c-0.07 0.28-0.15 0.57-0.24 0.85l-0.46 1.37h1.42z"/>
					<path class="st2" d="m134.12 401.41c-0.04-0.66-0.08-1.45-0.07-2.04h-0.02c-0.16 0.55-0.36 1.14-0.59 1.79l-0.83 2.29h-0.46l-0.76-2.25c-0.22-0.67-0.41-1.27-0.55-1.83h-0.01c-0.01 0.59-0.05 1.38-0.09 2.09l-0.13 2.02h-0.58l0.33-4.72h0.78l0.81 2.28c0.2 0.58 0.36 1.1 0.48 1.59h0.02c0.12-0.48 0.29-0.99 0.5-1.59l0.84-2.28h0.78l0.29 4.72h-0.59l-0.15-2.07z"/>
					<path class="st2" d="m135.77 398.82c0.29-0.05 0.68-0.09 1.17-0.09 0.6 0 1.04 0.14 1.32 0.39 0.26 0.22 0.41 0.57 0.41 0.99 0 0.43-0.13 0.76-0.36 1.01-0.32 0.34-0.85 0.52-1.44 0.52-0.18 0-0.35-0.01-0.49-0.04v1.89h-0.61v-4.67zm0.61 2.28c0.13 0.04 0.3 0.05 0.5 0.05 0.74 0 1.18-0.36 1.18-1.01 0-0.62-0.44-0.92-1.11-0.92-0.27 0-0.47 0.02-0.57 0.05v1.83z"/>
					<path class="st2" d="m139.49 398.76h0.61v4.21h2.02v0.51h-2.63v-4.72z"/>
					<path class="st2" d="m145.24 401.27h-1.83v1.7h2.04v0.51h-2.65v-4.72h2.55v0.51h-1.94v1.49h1.83v0.51z"/>
					<path class="st2" d="m146.24 398.83c0.31-0.06 0.75-0.1 1.17-0.1 0.65 0 1.07 0.12 1.37 0.38 0.24 0.21 0.37 0.53 0.37 0.9 0 0.62-0.39 1.04-0.89 1.21v0.02c0.36 0.13 0.58 0.46 0.69 0.95 0.15 0.66 0.27 1.11 0.36 1.3h-0.63c-0.08-0.13-0.18-0.54-0.32-1.13-0.14-0.65-0.39-0.9-0.95-0.92h-0.57v2.04h-0.61v-4.65zm0.61 2.15h0.62c0.65 0 1.06-0.36 1.06-0.9 0-0.61-0.44-0.88-1.08-0.88-0.29 0-0.5 0.03-0.6 0.06v1.72z"/>
					<path class="st2" d="m151.49 398.76h0.61v4.21h2.02v0.51h-2.63v-4.72z"/>
					<path class="st2" d="m157.24 401.27h-1.83v1.7h2.04v0.51h-2.65v-4.72h2.55v0.51h-1.94v1.49h1.83v0.51z"/>
					<path class="st2" d="m159.34 403.49-1.54-4.72h0.66l0.74 2.33c0.2 0.64 0.38 1.21 0.5 1.77h0.01c0.13-0.55 0.33-1.14 0.54-1.76l0.8-2.33h0.65l-1.69 4.72h-0.67z"/>
					<path class="st2" d="m164.65 401.27h-1.83v1.7h2.04v0.51h-2.65v-4.72h2.55v0.51h-1.94v1.49h1.83v0.51z"/>
					<path class="st2" d="m165.65 398.76h0.61v4.21h2.02v0.51h-2.63v-4.72z"/>


					<path class="st2" d="m153.07 394.92c0 1.33-0.49 2.06-1.36 2.06-0.76 0-1.28-0.71-1.29-2 0-1.31 0.56-2.03 1.36-2.03 0.82-0.01 1.29 0.73 1.29 1.97zm-2.12 0.06c0 1.01 0.31 1.59 0.79 1.59 0.54 0 0.8-0.63 0.8-1.63 0-0.96-0.25-1.59-0.79-1.59-0.46 0-0.8 0.57-0.8 1.63z"/>


					<path class="st2" d="m124.46 395.01v0.52h-1.97v-0.52h1.97z"/>
					<path class="st2" d="m127.61 395.65c-0.41 0.41-0.83 0.86-1.48 0.86-0.67 0-1.15-0.5-1.15-1.18 0-0.63 0.51-1.18 1.21-1.18 0.59 0 1.03 0.47 1.42 0.86 0.41-0.41 0.83-0.86 1.48-0.86 0.68 0 1.15 0.5 1.15 1.18 0 0.63-0.51 1.18-1.22 1.18-0.58 0-1.02-0.47-1.41-0.86zm-0.31-0.33c-0.31-0.29-0.64-0.7-1.1-0.7-0.4 0-0.7 0.33-0.7 0.7 0 0.41 0.29 0.7 0.68 0.7 0.44 0.01 0.81-0.38 1.12-0.7zm2.44 0c0-0.41-0.29-0.7-0.68-0.7-0.46 0-0.82 0.39-1.13 0.7 0.31 0.29 0.64 0.7 1.1 0.7 0.41 0.01 0.71-0.32 0.71-0.7z"/>


			<path class="st1" d="m150.17 389.25c5.62-3.35 9.38-9.49 9.38-16.5 0-10.16-7.89-18.47-17.87-19.16-0.4-0.04-0.85-0.06-1.33-0.07-0.49 0-0.94 0.03-1.35 0.07-1.4 0.1-7.68 0.69-12.68 6.03-3.22 3.43-5.19 8.05-5.19 13.13 0 1.99 0.3 3.91 0.86 5.71 1.94 6.24 6.69 9.62 8.51 10.79"/>
			<line class="st1" x1="140.34" x2="140.34" y1="391.95" y2="391.95"/>
			<line class="st1" x1="140.34" x2="140.34" y1="391.95" y2="391.95"/>



				<circle class="st1" cx="140.34" cy="305.44" r="16.32"/>

					<polygon class="st1" points="154.57 305.44 153.97 306.47 154.42 307.57 153.67 308.49 153.94 309.64 153.06 310.44 153.17 311.62 152.18 312.28 152.1 313.46 151.02 313.97 150.77 315.13 149.63 315.46 149.21 316.57 148.04 316.74 147.46 317.77 146.27 317.76 145.54 318.7 144.37 318.51 143.51 319.32 142.38 318.96 141.4 319.64 140.34 319.11 139.27 319.64 138.3 318.96 137.17 319.32 136.31 318.51 135.14 318.7 134.41 317.76 133.22 317.77 132.64 316.74 131.46 316.57 131.04 315.46 129.9 315.12 129.65 313.96 128.58 313.46 128.5 312.28 127.51 311.62 127.61 310.44 126.73 309.64 127.01 308.49 126.26 307.57 126.71 306.47 126.11 305.44 126.71 304.42 126.26 303.32 127.01 302.4 126.73 301.25 127.61 300.45 127.51 299.26 128.5 298.61 128.58 297.42 129.65 296.92 129.91 295.76 131.04 295.42 131.47 294.31 132.64 294.15 133.22 293.11 134.41 293.13 135.14 292.19 136.31 292.38 137.17 291.56 138.3 291.93 139.28 291.25 140.34 291.78 141.4 291.25 142.38 291.93 143.51 291.56 144.37 292.38 145.54 292.19 146.27 293.13 147.46 293.12 148.04 294.15 149.22 294.32 149.64 295.43 150.77 295.76 151.03 296.92 152.1 297.43 152.18 298.61 153.17 299.27 153.07 300.45 153.94 301.25 153.67 302.4 154.42 303.32 153.97 304.42"/>

				<line class="st1" x1="140.34" x2="140.34" y1="291.49" y2="303.5"/>

			<path class="st1" d="m139 286.28c-9.98 0.69-17.87 9-17.87 19.16 0 7.01 3.76 13.15 9.38 16.5"/>
			<path class="st1" d="m141.68 286.28c9.98 0.69 17.87 9 17.87 19.16 0 7.01-3.76 13.15-9.38 16.5"/>

		<g class="st5">

				<circle class="st1" cx="140.34" cy="54.47" r="16.32"/>

					<polygon class="st1" points="154.57 54.47 153.97 55.5 154.42 56.6 153.67 57.52 153.94 58.67 153.06 59.47 153.17 60.65 152.18 61.31 152.1 62.5 151.02 63 150.77 64.16 149.63 64.49 149.21 65.6 148.04 65.77 147.46 66.8 146.27 66.79 145.54 67.73 144.37 67.54 143.51 68.35 142.38 67.99 141.4 68.67 140.34 68.14 139.27 68.67 138.3 67.99 137.17 68.35 136.31 67.54 135.14 67.73 134.41 66.79 133.22 66.8 132.64 65.77 131.46 65.6 131.04 64.49 129.9 64.16 129.65 62.99 128.58 62.49 128.5 61.31 127.51 60.65 127.61 59.47 126.73 58.67 127.01 57.52 126.26 56.6 126.71 55.5 126.11 54.47 126.71 53.45 126.26 52.35 127.01 51.43 126.73 50.28 127.61 49.48 127.51 48.3 128.5 47.64 128.58 46.45 129.65 45.95 129.91 44.79 131.04 44.45 131.47 43.34 132.64 43.18 133.22 42.14 134.41 42.16 135.14 41.22 136.31 41.41 137.17 40.59 138.3 40.96 139.28 40.28 140.34 40.81 141.4 40.28 142.38 40.96 143.51 40.59 144.37 41.41 145.54 41.22 146.27 42.16 147.46 42.15 148.04 43.18 149.22 43.35 149.64 44.46 150.77 44.79 151.03 45.95 152.1 46.46 152.18 47.64 153.17 48.3 153.07 49.48 153.94 50.28 153.67 51.43 154.42 52.35 153.97 53.45"/>

				<line class="st1" x1="140.34" x2="140.34" y1="40.52" y2="52.53"/>

			<line class="st1" x1="140.34" x2="140.34" y1="73.68" y2="73.68"/>
			<line class="st1" x1="140.34" x2="140.34" y1="73.68" y2="73.68"/>
			<circle class="st1" cx="140.34" cy="54.47" r="19.21"/>
		</g>


		<path class="st3" d="m73.71 438.93h-44.84c-1.25 0-2.26-1.01-2.26-2.26v-11.89c0-1.25 1.01-2.26 2.26-2.26h44.84c1.25 0 2.26 1.01 2.26 2.26v11.89c0 1.24-1.01 2.26-2.26 2.26z"/>
		<rect class="st6" x="29.28" y="425.24" width="44" height="11.05"/>

			<path class="st7" d="m49.09 420.19c-0.22 0.11-0.67 0.22-1.25 0.22-1.33 0-2.33-0.84-2.33-2.39 0-1.48 1-2.48 2.47-2.48 0.59 0 0.96 0.13 1.12 0.21l-0.15 0.5c-0.23-0.11-0.56-0.2-0.95-0.2-1.11 0-1.84 0.71-1.84 1.95 0 1.16 0.67 1.9 1.81 1.9 0.37 0 0.75-0.08 0.99-0.2l0.13 0.49z"/>
			<path class="st7" d="m50.46 415.63v2.79c0 1.06 0.47 1.51 1.1 1.51 0.7 0 1.15-0.46 1.15-1.51v-2.79h0.62v2.75c0 1.45-0.76 2.05-1.79 2.05-0.97 0-1.69-0.55-1.69-2.02v-2.78h0.61z"/>
			<path class="st7" d="m56.82 418.14h-1.83v1.7h2.04v0.51h-2.65v-4.72h2.55v0.51h-1.94v1.49h1.83v0.51z"/>


	<rect class="st7" x="24.5" y="445.59" width="53.58" height="9.05"/>

		<path class="st8" d="m47.22 448.41h-1.44v-0.52h3.5v0.52h-1.44v4.2h-0.62v-4.2z"/>
		<path class="st8" d="m50.04 451.13-0.49 1.49h-0.63l1.6-4.72h0.74l1.61 4.72h-0.65l-0.5-1.49h-1.68zm1.55-0.48-0.46-1.36c-0.1-0.31-0.17-0.59-0.25-0.86h-0.01c-0.07 0.28-0.15 0.57-0.24 0.85l-0.46 1.37h1.42z"/>
		<path class="st8" d="m53.56 447.95c0.29-0.05 0.68-0.09 1.17-0.09 0.6 0 1.04 0.14 1.32 0.39 0.26 0.22 0.41 0.57 0.41 0.99 0 0.43-0.13 0.76-0.36 1.01-0.32 0.34-0.85 0.52-1.44 0.52-0.18 0-0.35-0.01-0.49-0.04v1.89h-0.61v-4.67zm0.61 2.27c0.13 0.04 0.3 0.05 0.5 0.05 0.74 0 1.18-0.36 1.18-1.01 0-0.62-0.44-0.92-1.11-0.92-0.27 0-0.47 0.02-0.57 0.05v1.83z"/>


		<path class="st3" d="m162.76 438.92h-44.84c-1.25 0-2.26-1.01-2.26-2.26v-11.89c0-1.25 1.01-2.26 2.26-2.26h44.84c1.25 0 2.26 1.01 2.26 2.26v11.89c0 1.25-1.01 2.26-2.26 2.26z"/>
		<rect class="st6" x="118.33" y="425.24" width="44" height="11.05"/>

			<path class="st7" d="m138.14 420.19c-0.22 0.11-0.67 0.22-1.25 0.22-1.33 0-2.33-0.84-2.33-2.39 0-1.48 1-2.48 2.47-2.48 0.59 0 0.96 0.13 1.12 0.21l-0.15 0.5c-0.23-0.11-0.56-0.2-0.95-0.2-1.11 0-1.84 0.71-1.84 1.95 0 1.16 0.67 1.9 1.81 1.9 0.37 0 0.75-0.08 0.99-0.2l0.13 0.49z"/>
			<path class="st7" d="m139.51 415.63v2.79c0 1.06 0.47 1.51 1.1 1.51 0.7 0 1.15-0.46 1.15-1.51v-2.79h0.62v2.75c0 1.45-0.76 2.04-1.79 2.04-0.97 0-1.69-0.55-1.69-2.02v-2.78h0.61z"/>
			<path class="st7" d="m145.88 418.14h-1.83v1.7h2.04v0.51h-2.65v-4.72h2.55v0.51h-1.94v1.49h1.83v0.51z"/>


	<line class="st9" x1="91.18" x2="91.34" y1="18.78" y2="489.46"/>
	<line class="st9" x1="190.18" x2="190.34" y1="18.78" y2="489.46"/>
	<rect class="st9" x="47.44" y="481.99" width="8.32" height="123.26"/>

		<line class="st10" x1="27.76" x2="44.6" y1="493.78" y2="493.78"/>
		<line class="st10" x1="58.13" x2="74.97" y1="493.78" y2="493.78"/>
		<line class="st9" x1="27.76" x2="44.6" y1="503.84" y2="503.84"/>
		<line class="st9" x1="58.13" x2="74.97" y1="503.84" y2="503.84"/>
		<line class="st9" x1="27.76" x2="44.6" y1="513.9" y2="513.9"/>
		<line class="st9" x1="58.13" x2="74.97" y1="513.9" y2="513.9"/>
		<line class="st9" x1="27.76" x2="44.6" y1="523.97" y2="523.97"/>
		<line class="st9" x1="58.13" x2="74.97" y1="523.97" y2="523.97"/>


		<line class="st9" x1="27.76" x2="44.6" y1="563.78" y2="563.78"/>
		<line class="st9" x1="58.13" x2="74.97" y1="563.78" y2="563.78"/>
		<line class="st9" x1="27.76" x2="44.6" y1="573.84" y2="573.84"/>
		<line class="st9" x1="58.13" x2="74.97" y1="573.84" y2="573.84"/>
		<line class="st9" x1="27.76" x2="44.6" y1="583.9" y2="583.9"/>
		<line class="st9" x1="58.13" x2="74.97" y1="583.9" y2="583.9"/>
		<line class="st10" x1="27.76" x2="44.6" y1="593.97" y2="593.97"/>
		<line class="st10" x1="58.13" x2="74.97" y1="593.97" y2="593.97"/>


		<path class="st7" d="m51.34 468.71h-0.03l-1.47 0.79-0.22-0.87 1.85-0.99h0.97v8.45h-1.1v-7.38z"/>

	<rect class="st11" x="27.76" y="534.12" width="47.21" height="19.87"/>
	<rect class="st11" x="27.76" y="541.46" width="47.21" height="5.19"/>

		<path class="st3" d="m252.36 438.93h-44.84c-1.25 0-2.26-1.01-2.26-2.26v-11.89c0-1.25 1.01-2.26 2.26-2.26h44.84c1.25 0 2.26 1.01 2.26 2.26v11.89c0 1.24-1.01 2.26-2.26 2.26z"/>
		<rect class="st6" x="207.93" y="425.24" width="44" height="11.05"/>

			<path class="st7" d="m227.74 420.19c-0.22 0.11-0.67 0.22-1.25 0.22-1.33 0-2.33-0.84-2.33-2.39 0-1.48 1-2.48 2.47-2.48 0.59 0 0.96 0.13 1.12 0.21l-0.15 0.5c-0.23-0.11-0.56-0.2-0.95-0.2-1.11 0-1.84 0.71-1.84 1.95 0 1.16 0.67 1.9 1.81 1.9 0.37 0 0.75-0.08 0.99-0.2l0.13 0.49z"/>
			<path class="st7" d="m229.11 415.63v2.79c0 1.06 0.47 1.51 1.1 1.51 0.7 0 1.15-0.46 1.15-1.51v-2.79h0.62v2.75c0 1.45-0.76 2.05-1.79 2.05-0.97 0-1.69-0.55-1.69-2.02v-2.78h0.61z"/>
			<path class="st7" d="m235.48 418.14h-1.83v1.7h2.04v0.51h-2.65v-4.72h2.55v0.51h-1.94v1.49h1.83v0.51z"/>


	<rect class="st7" x="203.15" y="445.59" width="53.58" height="9.05"/>

		<path class="st8" d="m225.87 448.41h-1.44v-0.52h3.5v0.52h-1.44v4.2h-0.62v-4.2z"/>
		<path class="st8" d="m228.7 451.13-0.49 1.49h-0.63l1.6-4.72h0.74l1.61 4.72h-0.65l-0.5-1.49h-1.68zm1.54-0.48-0.46-1.36c-0.1-0.31-0.17-0.59-0.25-0.86h-0.01c-0.07 0.28-0.15 0.57-0.24 0.85l-0.46 1.37h1.42z"/>
		<path class="st8" d="m232.22 447.95c0.29-0.05 0.68-0.09 1.17-0.09 0.6 0 1.04 0.14 1.32 0.39 0.26 0.22 0.41 0.57 0.41 0.99 0 0.43-0.13 0.76-0.36 1.01-0.32 0.34-0.85 0.52-1.44 0.52-0.18 0-0.35-0.01-0.49-0.04v1.89h-0.61v-4.67zm0.61 2.27c0.13 0.04 0.3 0.05 0.5 0.05 0.74 0 1.18-0.36 1.18-1.01 0-0.62-0.44-0.92-1.11-0.92-0.27 0-0.47 0.02-0.57 0.05v1.83z"/>

	<rect class="st9" x="226.1" y="481.99" width="8.32" height="123.26"/>

		<line class="st10" x1="206.41" x2="223.25" y1="493.78" y2="493.78"/>
		<line class="st10" x1="236.78" x2="253.62" y1="493.78" y2="493.78"/>
		<line class="st9" x1="206.41" x2="223.25" y1="503.84" y2="503.84"/>
		<line class="st9" x1="236.78" x2="253.62" y1="503.84" y2="503.84"/>
		<line class="st9" x1="206.41" x2="223.25" y1="513.9" y2="513.9"/>
		<line class="st9" x1="236.78" x2="253.62" y1="513.9" y2="513.9"/>
		<line class="st9" x1="206.41" x2="223.25" y1="523.97" y2="523.97"/>
		<line class="st9" x1="236.78" x2="253.62" y1="523.97" y2="523.97"/>


		<line class="st9" x1="206.41" x2="223.25" y1="563.78" y2="563.78"/>
		<line class="st9" x1="236.78" x2="253.62" y1="563.78" y2="563.78"/>
		<line class="st9" x1="206.41" x2="223.25" y1="573.84" y2="573.84"/>
		<line class="st9" x1="236.78" x2="253.62" y1="573.84" y2="573.84"/>
		<line class="st9" x1="206.41" x2="223.25" y1="583.9" y2="583.9"/>
		<line class="st9" x1="236.78" x2="253.62" y1="583.9" y2="583.9"/>
		<line class="st10" x1="206.41" x2="223.25" y1="593.97" y2="593.97"/>
		<line class="st10" x1="236.78" x2="253.62" y1="593.97" y2="593.97"/>


		<path class="st7" d="m229.99 468.71h-0.03l-1.47 0.79-0.22-0.87 1.85-0.99h0.97v8.45h-1.1v-7.38z"/>

	<rect class="st11" x="206.41" y="534.12" width="47.21" height="19.87"/>
	<rect class="st11" x="206.41" y="541.46" width="47.21" height="5.19"/>

		<rect class="st9" transform="matrix(.001545 1 -1 .001545 809.9 527)" x="136.88" y="613.16" width="8.32" height="111.83"/>

		<line class="st10" x1="190.85" x2="190.87" y1="645.15" y2="662"/>
		<line class="st10" x1="190.89" x2="190.92" y1="675.52" y2="692.37"/>
		<line class="st9" x1="180.78" x2="180.81" y1="645.17" y2="662.01"/>
		<line class="st9" x1="180.83" x2="180.86" y1="675.54" y2="692.38"/>
		<line class="st9" x1="170.72" x2="170.75" y1="645.19" y2="662.03"/>
		<line class="st9" x1="170.77" x2="170.79" y1="675.55" y2="692.4"/>
		<line class="st9" x1="160.66" x2="160.68" y1="645.2" y2="662.04"/>
		<line class="st9" x1="160.7" x2="160.73" y1="675.57" y2="692.41"/>


		<line class="st9" x1="120.85" x2="120.87" y1="645.26" y2="662.11"/>
		<line class="st9" x1="120.89" x2="120.92" y1="675.63" y2="692.47"/>
		<line class="st9" x1="110.78" x2="110.81" y1="645.28" y2="662.12"/>
		<line class="st9" x1="110.83" x2="110.86" y1="675.65" y2="692.49"/>
		<line class="st9" x1="100.72" x2="100.75" y1="645.29" y2="662.14"/>
		<line class="st9" x1="100.77" x2="100.79" y1="675.66" y2="692.5"/>
		<line class="st10" x1="90.66" x2="90.68" y1="645.31" y2="662.15"/>
		<line class="st10" x1="90.7" x2="90.73" y1="675.68" y2="692.52"/>


		<rect class="st11" transform="matrix(.001545 1 -1 .001545 809.29 527.26)" x="116.94" y="658.97" width="47.34" height="19.87"/>

		<rect class="st11" transform="matrix(.001545 1 -1 .001545 809.29 527.26)" x="116.94" y="666.31" width="47.34" height="5.19"/>

		<path class="st7" d="m49.7 670.47-0.91 2.76h-1.17l2.98-8.76h1.37l2.99 8.76h-1.21l-0.94-2.76h-3.11zm2.88-0.88-0.86-2.52c-0.19-0.57-0.33-1.09-0.46-1.6h-0.03c-0.13 0.52-0.27 1.05-0.44 1.59l-0.86 2.54h2.65z"/>


		<path class="st7" d="m226.98 664.58c0.49-0.1 1.27-0.18 2.07-0.18 1.13 0 1.86 0.19 2.41 0.64 0.46 0.34 0.73 0.86 0.73 1.55 0 0.84-0.56 1.59-1.48 1.92v0.03c0.83 0.21 1.81 0.9 1.81 2.2 0 0.75-0.3 1.33-0.74 1.75-0.61 0.56-1.6 0.82-3.03 0.82-0.78 0-1.38-0.05-1.75-0.1v-8.63zm1.13 3.59h1.03c1.2 0 1.9-0.62 1.9-1.47 0-1.03-0.78-1.43-1.92-1.43-0.52 0-0.82 0.04-1 0.08v2.82zm0 4.2c0.22 0.04 0.55 0.05 0.95 0.05 1.17 0 2.25-0.43 2.25-1.7 0-1.2-1.03-1.69-2.26-1.69h-0.94v3.34z"/>



			<rect class="st8" x="115.42" y="506.59" width="3.24" height="3.24"/>
			<rect class="st8" x="115.42" y="511.7" width="3.24" height="3.24"/>


			<rect class="st8" x="115.42" y="519.92" width="3.24" height="3.24"/>
			<rect class="st8" x="115.42" y="525.02" width="3.24" height="3.24"/>


			<rect class="st8" x="115.42" y="533.24" width="3.24" height="3.24"/>
			<rect class="st8" x="115.42" y="538.34" width="3.24" height="3.24"/>


			<rect class="st8" x="115.42" y="546.56" width="3.24" height="3.24"/>
			<rect class="st8" x="115.42" y="551.67" width="3.24" height="3.24"/>


			<rect class="st8" x="115.42" y="559.89" width="3.24" height="3.24"/>
			<rect class="st8" x="115.42" y="564.99" width="3.24" height="3.24"/>


			<rect class="st8" x="115.42" y="573.21" width="3.24" height="3.24"/>
			<rect class="st8" x="115.42" y="578.31" width="3.24" height="3.24"/>




			<rect class="st8" x="131.01" y="506.59" width="3.24" height="3.24"/>
			<rect class="st8" x="131.01" y="511.7" width="3.24" height="3.24"/>


			<rect class="st8" x="131.01" y="519.92" width="3.24" height="3.24"/>
			<rect class="st8" x="131.01" y="525.02" width="3.24" height="3.24"/>


			<rect class="st8" x="131.01" y="533.24" width="3.24" height="3.24"/>
			<rect class="st8" x="131.01" y="538.34" width="3.24" height="3.24"/>


			<rect class="st8" x="131.01" y="546.56" width="3.24" height="3.24"/>
			<rect class="st8" x="131.01" y="551.67" width="3.24" height="3.24"/>


			<rect class="st8" x="131.01" y="559.89" width="3.24" height="3.24"/>
			<rect class="st8" x="131.01" y="564.99" width="3.24" height="3.24"/>


			<rect class="st8" x="131.01" y="573.21" width="3.24" height="3.24"/>
			<rect class="st8" x="131.01" y="578.31" width="3.24" height="3.24"/>




			<rect class="st8" x="146.6" y="506.59" width="3.24" height="3.24"/>
			<rect class="st8" x="146.6" y="511.7" width="3.24" height="3.24"/>


			<rect class="st8" x="146.6" y="519.92" width="3.24" height="3.24"/>
			<rect class="st8" x="146.6" y="525.02" width="3.24" height="3.24"/>


			<rect class="st8" x="146.6" y="533.24" width="3.24" height="3.24"/>
			<rect class="st8" x="146.6" y="538.34" width="3.24" height="3.24"/>


			<rect class="st8" x="146.6" y="546.56" width="3.24" height="3.24"/>
			<rect class="st8" x="146.6" y="551.67" width="3.24" height="3.24"/>


			<rect class="st8" x="146.6" y="559.89" width="3.24" height="3.24"/>
			<rect class="st8" x="146.6" y="564.99" width="3.24" height="3.24"/>


			<rect class="st8" x="146.6" y="573.21" width="3.24" height="3.24"/>
			<rect class="st8" x="146.6" y="578.31" width="3.24" height="3.24"/>




			<rect class="st8" x="162.19" y="506.59" width="3.24" height="3.24"/>
			<rect class="st8" x="162.19" y="511.7" width="3.24" height="3.24"/>


			<rect class="st8" x="162.19" y="519.92" width="3.24" height="3.24"/>
			<rect class="st8" x="162.19" y="525.02" width="3.24" height="3.24"/>


			<rect class="st8" x="162.19" y="533.24" width="3.24" height="3.24"/>
			<rect class="st8" x="162.19" y="538.34" width="3.24" height="3.24"/>


			<rect class="st8" x="162.19" y="546.56" width="3.24" height="3.24"/>
			<rect class="st8" x="162.19" y="551.67" width="3.24" height="3.24"/>


			<rect class="st8" x="162.19" y="559.89" width="3.24" height="3.24"/>
			<rect class="st8" x="162.19" y="564.99" width="3.24" height="3.24"/>


			<rect class="st8" x="162.19" y="573.21" width="3.24" height="3.24"/>
			<rect class="st8" x="162.19" y="578.31" width="3.24" height="3.24"/>



		<path class="st2" d="m134.63 487.99c-0.03-0.56-0.07-1.24-0.06-1.75h-0.02c-0.14 0.47-0.31 0.98-0.51 1.54l-0.71 1.96h-0.4l-0.65-1.92c-0.19-0.57-0.35-1.09-0.47-1.57h-0.01c-0.01 0.5-0.04 1.18-0.08 1.79l-0.11 1.73h-0.5l0.28-4.04h0.67l0.69 1.96c0.17 0.5 0.31 0.94 0.41 1.36h0.02c0.1-0.41 0.25-0.85 0.43-1.36l0.72-1.96h0.67l0.25 4.04h-0.51l-0.11-1.78z"/>
		<path class="st2" d="m136.64 488.49-0.42 1.27h-0.54l1.37-4.04h0.63l1.38 4.04h-0.56l-0.43-1.27h-1.43zm1.32-0.41-0.4-1.16c-0.09-0.26-0.15-0.5-0.21-0.74h-0.01c-0.06 0.24-0.13 0.49-0.2 0.73l-0.4 1.17h1.22z"/>
		<path class="st2" d="m139.58 489.13c0.23 0.14 0.58 0.26 0.94 0.26 0.53 0 0.85-0.28 0.85-0.69 0-0.38-0.22-0.59-0.76-0.8-0.66-0.23-1.07-0.58-1.07-1.15 0-0.63 0.52-1.1 1.31-1.1 0.41 0 0.71 0.1 0.89 0.2l-0.14 0.43c-0.13-0.07-0.4-0.19-0.77-0.19-0.55 0-0.76 0.33-0.76 0.61 0 0.38 0.25 0.56 0.8 0.78 0.68 0.26 1.03 0.59 1.03 1.19 0 0.62-0.46 1.16-1.42 1.16-0.39 0-0.82-0.11-1.03-0.26l0.13-0.44z"/>
		<path class="st2" d="m143.38 486.17h-1.23v-0.44h2.99v0.44h-1.24v3.6h-0.53v-3.6z"/>
		<path class="st2" d="m147.69 487.87h-1.57v1.46h1.75v0.44h-2.27v-4.04h2.18v0.44h-1.66v1.28h1.57v0.42z"/>
		<path class="st2" d="m148.55 485.78c0.26-0.05 0.64-0.08 1-0.08 0.56 0 0.92 0.1 1.17 0.33 0.2 0.18 0.32 0.46 0.32 0.77 0 0.53-0.34 0.89-0.76 1.03v0.02c0.31 0.11 0.5 0.4 0.59 0.82 0.13 0.56 0.23 0.95 0.31 1.11h-0.54c-0.07-0.11-0.16-0.46-0.27-0.96-0.12-0.56-0.33-0.77-0.81-0.79h-0.49v1.75h-0.52v-4zm0.52 1.84h0.53c0.56 0 0.91-0.31 0.91-0.77 0-0.52-0.38-0.75-0.93-0.76-0.25 0-0.43 0.02-0.52 0.05v1.48z"/>


		<path class="st2" d="m116.91 486.36h-0.01l-0.68 0.37-0.1-0.4 0.85-0.46h0.45v3.9h-0.51v-3.41z"/>


		<path class="st2" d="m162.54 489.76v-0.32l0.41-0.4c1-0.95 1.45-1.45 1.45-2.04 0-0.4-0.19-0.76-0.77-0.76-0.35 0-0.65 0.18-0.83 0.33l-0.17-0.37c0.27-0.23 0.65-0.4 1.1-0.4 0.84 0 1.19 0.58 1.19 1.13 0 0.72-0.52 1.3-1.34 2.09l-0.31 0.29v0.01h1.75v0.44h-2.48z"/>

	<g class="st5">
		<path class="st7" d="m75.29 62.3h-48c-1.51 0-2.74-1.23-2.74-2.74v-21.26c0-1.51 1.23-2.74 2.74-2.74h48c1.51 0 2.74 1.23 2.74 2.74v21.26c-0.01 1.52-1.23 2.74-2.74 2.74z"/>
		<path class="st3" d="m73.71 53.99h-44.84c-1.25 0-2.26-1.01-2.26-2.26v-11.9c0-1.25 1.01-2.26 2.26-2.26h44.84c1.25 0 2.26 1.01 2.26 2.26v11.89c0 1.25-1.01 2.27-2.26 2.27z"/>
		<rect class="st6" x="29.28" y="40.3" width="44" height="11.05"/>

			<path class="st8" d="m45.28 56.02c0.27-0.06 0.69-0.1 1.11-0.1 0.61 0 1 0.1 1.3 0.34 0.25 0.18 0.39 0.46 0.39 0.83 0 0.46-0.3 0.85-0.8 1.04v0.01c0.45 0.11 0.97 0.48 0.97 1.18 0 0.41-0.16 0.71-0.4 0.95-0.33 0.3-0.86 0.44-1.63 0.44-0.42 0-0.74-0.03-0.95-0.06v-4.63zm0.61 1.93h0.55c0.64 0 1.02-0.34 1.02-0.79 0-0.55-0.42-0.77-1.04-0.77-0.28 0-0.44 0.02-0.54 0.04v1.52zm0 2.26c0.12 0.02 0.29 0.03 0.51 0.03 0.63 0 1.21-0.23 1.21-0.92 0-0.64-0.55-0.91-1.22-0.91h-0.5v1.8z"/>
			<path class="st8" d="m49.07 56.01c0.29-0.05 0.68-0.09 1.17-0.09 0.6 0 1.04 0.14 1.32 0.39 0.26 0.22 0.41 0.57 0.41 0.99 0 0.43-0.13 0.76-0.36 1.01-0.32 0.34-0.85 0.52-1.44 0.52-0.18 0-0.35-0.01-0.49-0.04v1.89h-0.61v-4.67zm0.61 2.27c0.13 0.04 0.3 0.05 0.5 0.05 0.74 0 1.18-0.36 1.18-1.01 0-0.62-0.44-0.92-1.11-0.92-0.27 0-0.47 0.02-0.57 0.05v1.83z"/>
			<path class="st8" d="m56.69 58.6c-0.04-0.66-0.08-1.45-0.07-2.04h-0.02c-0.16 0.55-0.36 1.14-0.59 1.79l-0.83 2.29h-0.46l-0.76-2.25c-0.22-0.67-0.41-1.27-0.55-1.83h-0.01c-0.01 0.59-0.05 1.38-0.09 2.09l-0.13 2.02h-0.58l0.33-4.72h0.78l0.81 2.28c0.2 0.58 0.36 1.1 0.48 1.59h0.02c0.12-0.48 0.29-0.99 0.5-1.59l0.84-2.28h0.78l0.29 4.72h-0.59l-0.15-2.07z"/>


			<path class="st7" d="m43.46 28.69h0.61v4.21h2.02v0.51h-2.63v-4.72z"/>
			<path class="st7" d="m50.52 31c0 1.62-0.99 2.49-2.19 2.49-1.25 0-2.12-0.97-2.12-2.4 0-1.5 0.93-2.48 2.19-2.48 1.29 0 2.12 0.99 2.12 2.39zm-3.66 0.08c0 1.01 0.55 1.91 1.51 1.91 0.97 0 1.51-0.89 1.51-1.96 0-0.94-0.49-1.92-1.51-1.92-1.01 0-1.51 0.93-1.51 1.97z"/>
			<path class="st7" d="m51.98 31.93-0.49 1.48h-0.63l1.6-4.72h0.74l1.61 4.72h-0.65l-0.5-1.48h-1.68zm1.54-0.48-0.46-1.36c-0.1-0.31-0.17-0.59-0.25-0.86h-0.01c-0.07 0.28-0.15 0.57-0.24 0.85l-0.46 1.37h1.42z"/>
			<path class="st7" d="m55.5 28.75c0.37-0.06 0.81-0.1 1.3-0.1 0.88 0 1.5 0.2 1.91 0.59 0.42 0.39 0.67 0.93 0.67 1.7s-0.24 1.4-0.68 1.83c-0.44 0.44-1.17 0.68-2.09 0.68-0.43 0-0.8-0.02-1.11-0.06v-4.64zm0.61 4.18c0.15 0.03 0.38 0.04 0.62 0.04 1.3 0 2.01-0.73 2.01-2 0.01-1.11-0.62-1.82-1.91-1.82-0.32 0-0.55 0.03-0.71 0.06v3.72z"/>

		<path class="st7" d="m253.52 62.3h-48c-1.51 0-2.74-1.23-2.74-2.74v-21.26c0-1.51 1.23-2.74 2.74-2.74h48c1.51 0 2.74 1.23 2.74 2.74v21.26c-0.01 1.52-1.23 2.74-2.74 2.74z"/>
		<path class="st3" d="m251.94 53.99h-44.84c-1.25 0-2.26-1.01-2.26-2.26v-11.9c0-1.25 1.01-2.26 2.26-2.26h44.84c1.25 0 2.26 1.01 2.26 2.26v11.89c0 1.25-1.01 2.27-2.26 2.27z"/>
		<rect class="st6" x="207.5" y="40.3" width="44" height="11.05"/>

			<path class="st8" d="m224.51 55.95h0.61v2.28h0.02c0.13-0.18 0.25-0.35 0.37-0.5l1.44-1.77h0.76l-1.71 2 1.84 2.72h-0.72l-1.55-2.32-0.45 0.52v1.8h-0.61v-4.73z"/>
			<path class="st8" d="m230.75 58.46h-1.84v1.7h2.04v0.51h-2.65v-4.72h2.55v0.51h-1.94v1.49h1.84v0.51z"/>
			<path class="st8" d="m232.82 60.67v-2l-1.49-2.72h0.69l0.67 1.3c0.18 0.36 0.32 0.64 0.47 0.97h0.01c0.13-0.31 0.29-0.62 0.48-0.97l0.68-1.3h0.69l-1.58 2.71v2.01h-0.62z"/>


			<path class="st7" d="m221.68 28.69h0.61v4.21h2.02v0.51h-2.63v-4.72z"/>
			<path class="st7" d="m228.75 31c0 1.62-0.99 2.49-2.19 2.49-1.25 0-2.12-0.97-2.12-2.4 0-1.5 0.93-2.48 2.19-2.48 1.29 0 2.12 0.99 2.12 2.39zm-3.66 0.08c0 1.01 0.55 1.91 1.51 1.91 0.97 0 1.51-0.89 1.51-1.96 0-0.94-0.49-1.92-1.51-1.92-1.01 0-1.51 0.93-1.51 1.97z"/>
			<path class="st7" d="m230.2 31.93-0.49 1.48h-0.63l1.6-4.72h0.74l1.61 4.72h-0.65l-0.5-1.48h-1.68zm1.55-0.48-0.46-1.36c-0.1-0.31-0.17-0.59-0.25-0.86h-0.01c-0.07 0.28-0.15 0.57-0.24 0.85l-0.46 1.37h1.42z"/>
			<path class="st7" d="m233.72 28.75c0.37-0.06 0.81-0.1 1.3-0.1 0.88 0 1.5 0.2 1.91 0.59 0.42 0.39 0.67 0.93 0.67 1.7s-0.24 1.4-0.68 1.83c-0.44 0.44-1.17 0.68-2.09 0.68-0.43 0-0.8-0.02-1.11-0.06v-4.64zm0.61 4.18c0.15 0.03 0.38 0.04 0.62 0.04 1.3 0 2.01-0.73 2.01-2 0.01-1.11-0.62-1.82-1.91-1.82-0.32 0-0.55 0.03-0.71 0.06v3.72z"/>


			<path class="st7" d="m132.64 122.4h-28.61c-1.51 0-2.74-1.23-2.74-2.74v-21.26c0-1.51 1.23-2.74 2.74-2.74h28.61c1.51 0 2.74 1.23 2.74 2.74v21.26c0 1.52-1.23 2.74-2.74 2.74z"/>

				<path class="st8" d="m109.88 120.03c0.27 0.17 0.67 0.31 1.09 0.31 0.62 0 0.99-0.33 0.99-0.81 0-0.44-0.25-0.69-0.89-0.94-0.77-0.27-1.25-0.67-1.25-1.34 0-0.74 0.61-1.28 1.53-1.28 0.48 0 0.83 0.11 1.04 0.23l-0.17 0.5c-0.15-0.08-0.47-0.22-0.9-0.22-0.64 0-0.89 0.39-0.89 0.71 0 0.44 0.29 0.66 0.94 0.91 0.8 0.31 1.2 0.69 1.2 1.39 0 0.73-0.54 1.36-1.65 1.36-0.46 0-0.95-0.13-1.21-0.3l0.17-0.52z"/>
				<path class="st8" d="m117.45 118.36c0 1.62-0.99 2.49-2.19 2.49-1.25 0-2.12-0.97-2.12-2.4 0-1.5 0.93-2.48 2.19-2.48 1.28 0 2.12 0.99 2.12 2.39zm-3.67 0.08c0 1.01 0.55 1.91 1.51 1.91 0.97 0 1.51-0.89 1.51-1.96 0-0.94-0.49-1.92-1.51-1.92-1 0-1.51 0.93-1.51 1.97z"/>
				<path class="st8" d="m118.24 120.77v-4.72h0.67l1.51 2.39c0.35 0.55 0.62 1.05 0.85 1.53l0.01-0.01c-0.06-0.63-0.07-1.2-0.07-1.94v-1.98h0.57v4.72h-0.62l-1.5-2.4c-0.33-0.52-0.64-1.06-0.88-1.58l-0.02 0.01c0.04 0.6 0.05 1.16 0.05 1.95v2.02h-0.57z"/>
				<path class="st8" d="m126.44 120.56c-0.27 0.1-0.81 0.26-1.45 0.26-0.71 0-1.3-0.18-1.77-0.62-0.41-0.39-0.66-1.02-0.66-1.76 0.01-1.41 0.97-2.44 2.56-2.44 0.55 0 0.97 0.12 1.18 0.22l-0.15 0.5c-0.25-0.11-0.57-0.2-1.04-0.2-1.15 0-1.9 0.71-1.9 1.9 0 1.2 0.72 1.91 1.82 1.91 0.4 0 0.67-0.06 0.81-0.13v-1.41h-0.96v-0.49h1.55v2.26z"/>

			<path class="st3" d="m131.11 114.14h-25.55c-1.25 0-2.26-1.01-2.26-2.26v-11.9c0-1.25 1.01-2.26 2.26-2.26h25.55c1.25 0 2.26 1.01 2.26 2.26v11.89c0 1.26-1.01 2.27-2.26 2.27z"/>
			<rect class="st6" x="105.97" y="100.46" width="24.33" height="11.05"/>

				<path class="st7" d="m110.75 88.85c0.27-0.06 0.69-0.1 1.11-0.1 0.61 0 1 0.1 1.3 0.34 0.25 0.18 0.39 0.46 0.39 0.83 0 0.46-0.3 0.85-0.8 1.04v0.01c0.45 0.11 0.97 0.48 0.97 1.18 0 0.41-0.16 0.71-0.4 0.95-0.33 0.3-0.86 0.44-1.63 0.44-0.42 0-0.74-0.03-0.95-0.06v-4.63zm0.61 1.93h0.55c0.64 0 1.02-0.34 1.02-0.79 0-0.55-0.42-0.77-1.04-0.77-0.28 0-0.44 0.02-0.54 0.04v1.52zm0 2.27c0.12 0.02 0.29 0.03 0.51 0.03 0.63 0 1.21-0.23 1.21-0.92 0-0.64-0.55-0.91-1.22-0.91h-0.5v1.8z"/>
				<path class="st7" d="m115.31 92.02-0.49 1.48h-0.63l1.6-4.72h0.74l1.61 4.72h-0.65l-0.5-1.48h-1.68zm1.55-0.47-0.46-1.36c-0.1-0.31-0.17-0.59-0.25-0.86h-0.01c-0.07 0.28-0.15 0.57-0.24 0.85l-0.46 1.37h1.42z"/>
				<path class="st7" d="m122.02 93.35c-0.22 0.11-0.67 0.22-1.25 0.22-1.33 0-2.33-0.84-2.33-2.39 0-1.48 1-2.48 2.47-2.48 0.59 0 0.96 0.13 1.12 0.21l-0.15 0.5c-0.23-0.11-0.56-0.2-0.95-0.2-1.11 0-1.84 0.71-1.84 1.95 0 1.16 0.67 1.9 1.81 1.9 0.37 0 0.75-0.08 0.99-0.2l0.13 0.49z"/>
				<path class="st7" d="m122.78 88.79h0.61v2.28h0.02c0.13-0.18 0.25-0.35 0.37-0.5l1.44-1.77h0.76l-1.71 2 1.84 2.72h-0.72l-1.55-2.32-0.45 0.52v1.8h-0.61v-4.73z"/>



			<path class="st7" d="m177.08 122.35h-28.61c-1.51 0-2.74-1.23-2.74-2.74v-21.26c0-1.51 1.23-2.74 2.74-2.74h28.61c1.51 0 2.74 1.23 2.74 2.74v21.26c0 1.51-1.23 2.74-2.74 2.74z"/>

				<path class="st8" d="m153.77 119.23-0.49 1.48h-0.63l1.6-4.72h0.74l1.61 4.72h-0.65l-0.5-1.48h-1.68zm1.55-0.47-0.46-1.36c-0.1-0.31-0.17-0.59-0.25-0.86h-0.01c-0.07 0.28-0.15 0.57-0.24 0.85l-0.46 1.37h1.42z"/>
				<path class="st8" d="m157.29 116.06c0.31-0.06 0.75-0.1 1.17-0.1 0.65 0 1.07 0.12 1.37 0.38 0.24 0.21 0.37 0.53 0.37 0.9 0 0.62-0.39 1.04-0.89 1.21v0.02c0.36 0.13 0.58 0.46 0.69 0.95 0.15 0.66 0.27 1.11 0.36 1.3h-0.63c-0.08-0.13-0.18-0.54-0.32-1.13-0.14-0.65-0.39-0.9-0.95-0.92h-0.57v2.04h-0.61v-4.65zm0.61 2.15h0.62c0.65 0 1.06-0.36 1.06-0.9 0-0.61-0.44-0.88-1.08-0.88-0.29 0-0.5 0.03-0.6 0.06v1.72z"/>
				<path class="st8" d="m162.02 116.52h-1.44v-0.52h3.5v0.52h-1.44v4.2h-0.62v-4.2z"/>
				<path class="st8" d="m165.21 116v4.72h-0.61v-4.72h0.61z"/>
				<path class="st8" d="m166.19 119.98c0.27 0.17 0.67 0.31 1.09 0.31 0.62 0 0.99-0.33 0.99-0.81 0-0.44-0.25-0.69-0.89-0.94-0.77-0.27-1.25-0.67-1.25-1.34 0-0.74 0.61-1.28 1.53-1.28 0.48 0 0.83 0.11 1.04 0.23l-0.17 0.5c-0.15-0.08-0.47-0.22-0.9-0.22-0.64 0-0.89 0.39-0.89 0.71 0 0.44 0.29 0.66 0.94 0.91 0.8 0.31 1.2 0.69 1.2 1.39 0 0.73-0.54 1.36-1.65 1.36-0.46 0-0.95-0.13-1.21-0.3l0.17-0.52z"/>
				<path class="st8" d="m170.62 116.52h-1.44v-0.52h3.5v0.52h-1.44v4.2h-0.62v-4.2z"/>

			<path class="st3" d="m175.55 114.09h-25.55c-1.25 0-2.26-1.01-2.26-2.26v-11.9c0-1.25 1.01-2.26 2.26-2.26h25.55c1.25 0 2.26 1.01 2.26 2.26v11.89c0 1.25-1.01 2.27-2.26 2.27z"/>
			<rect class="st6" x="150.41" y="100.4" width="24.33" height="11.05"/>

				<path class="st7" d="m157.06 86.23-0.49 1.48h-0.63l1.6-4.72h0.74l1.61 4.72h-0.65l-0.5-1.48h-1.68zm1.55-0.47-0.46-1.36c-0.1-0.31-0.17-0.59-0.25-0.86h-0.01c-0.07 0.28-0.15 0.57-0.24 0.85l-0.46 1.37h1.42z"/>
				<path class="st7" d="m160.58 83.06c0.37-0.06 0.81-0.1 1.3-0.1 0.88 0 1.5 0.2 1.91 0.59 0.42 0.39 0.67 0.93 0.67 1.7s-0.24 1.4-0.68 1.83c-0.44 0.44-1.17 0.68-2.09 0.68-0.43 0-0.8-0.02-1.11-0.06v-4.64zm0.61 4.18c0.15 0.03 0.38 0.04 0.62 0.04 1.3 0 2.01-0.73 2.01-2 0.01-1.11-0.62-1.82-1.91-1.82-0.32 0-0.55 0.03-0.71 0.06v3.72z"/>
				<path class="st7" d="m165.25 83.06c0.37-0.06 0.81-0.1 1.3-0.1 0.88 0 1.5 0.2 1.91 0.59 0.42 0.39 0.67 0.93 0.67 1.7s-0.24 1.4-0.68 1.83c-0.44 0.44-1.17 0.68-2.09 0.68-0.43 0-0.8-0.02-1.11-0.06v-4.64zm0.61 4.18c0.15 0.03 0.38 0.04 0.62 0.04 1.3 0 2.01-0.73 2.01-2 0.01-1.11-0.62-1.82-1.91-1.82-0.32 0-0.55 0.03-0.71 0.06v3.72z"/>
				<path class="st7" d="m150.32 89.06c0.29-0.05 0.68-0.09 1.17-0.09 0.6 0 1.04 0.14 1.32 0.39 0.26 0.22 0.41 0.57 0.41 0.99 0 0.43-0.13 0.76-0.36 1.01-0.32 0.34-0.85 0.52-1.44 0.52-0.18 0-0.35-0.01-0.49-0.04v1.89h-0.61v-4.67zm0.61 2.27c0.13 0.04 0.3 0.05 0.5 0.05 0.74 0 1.18-0.36 1.18-1.01 0-0.62-0.44-0.92-1.11-0.92-0.27 0-0.47 0.02-0.57 0.05v1.83z"/>
				<path class="st7" d="m154.05 89.06c0.31-0.06 0.75-0.1 1.17-0.1 0.65 0 1.07 0.12 1.37 0.38 0.24 0.21 0.37 0.53 0.37 0.9 0 0.62-0.39 1.04-0.89 1.21v0.02c0.36 0.13 0.58 0.46 0.69 0.95 0.15 0.66 0.27 1.11 0.36 1.3h-0.63c-0.08-0.13-0.18-0.54-0.32-1.13-0.14-0.65-0.39-0.9-0.95-0.92h-0.57v2.04h-0.61v-4.65zm0.6 2.15h0.62c0.65 0 1.06-0.36 1.06-0.9 0-0.61-0.44-0.88-1.08-0.88-0.29 0-0.5 0.03-0.6 0.06v1.72z"/>
				<path class="st7" d="M160.26,91.51h-1.83v1.7h2.04v0.51h-2.65V89h2.55v0.51h-1.94V91h1.83V91.51z"/>
				<path class="st7" d="m161.26 89.06c0.29-0.05 0.68-0.09 1.17-0.09 0.6 0 1.04 0.14 1.32 0.39 0.26 0.22 0.41 0.57 0.41 0.99 0 0.43-0.13 0.76-0.36 1.01-0.32 0.34-0.85 0.52-1.44 0.52-0.18 0-0.35-0.01-0.49-0.04v1.89h-0.61v-4.67zm0.6 2.27c0.13 0.04 0.3 0.05 0.5 0.05 0.74 0 1.18-0.36 1.18-1.01 0-0.62-0.44-0.92-1.11-0.92-0.27 0-0.47 0.02-0.57 0.05v1.83z"/>
				<path class="st7" d="m165.16 92.23-0.49 1.48h-0.63l1.6-4.72h0.74l1.61 4.72h-0.65l-0.5-1.48h-1.68zm1.54-0.47-0.46-1.36c-0.1-0.31-0.17-0.59-0.25-0.86h-0.01c-0.07 0.28-0.15 0.57-0.24 0.85l-0.46 1.37h1.42z"/>
				<path class="st7" d="m168.68 89.06c0.31-0.06 0.75-0.1 1.17-0.1 0.65 0 1.07 0.12 1.37 0.38 0.24 0.21 0.37 0.53 0.37 0.9 0 0.62-0.39 1.04-0.89 1.21v0.02c0.36 0.13 0.58 0.46 0.69 0.95 0.15 0.66 0.27 1.11 0.36 1.3h-0.63c-0.08-0.13-0.18-0.54-0.32-1.13-0.14-0.65-0.39-0.9-0.95-0.92h-0.57v2.04h-0.61v-4.65zm0.6 2.15h0.62c0.65 0 1.06-0.36 1.06-0.9 0-0.61-0.44-0.88-1.08-0.88-0.29 0-0.5 0.03-0.6 0.06v1.72z"/>
				<path class="st7" d="M174.89,91.51h-1.83v1.7h2.04v0.51h-2.65V89h2.55v0.51h-1.94V91h1.83V91.51z"/>


	</g>
	<rect class="st9" x="10.81" y="13.25" width="258.32" height="703.58"/>
	<line class="st9" x1="95.76" x2="184.81" y1="133.94" y2="133.94"/>

		<circle cx="14.32" cy="105.88" r="9.16"/>

			<path class="st8" d="m13.55 102.24h-0.03l-1.69 0.92-0.25-1 2.13-1.14h1.13v9.75h-1.27v-8.53z"/>

		<circle cx="15.26" cy="239.94" r="9.16"/>

			<path class="st8" d="m11.62 244.82v-0.81l1.04-1c2.49-2.37 3.61-3.63 3.63-5.1 0-0.99-0.48-1.9-1.94-1.9-0.88 0-1.62 0.45-2.07 0.82l-0.42-0.93c0.67-0.57 1.63-0.99 2.76-0.99 2.1 0 2.98 1.44 2.98 2.83 0 1.8-1.3 3.25-3.36 5.24l-0.78 0.72v0.03h4.38v1.09h-6.22z"/>

		<circle cx="16.26" cy="372.2" r="9.16"/>

			<path class="st8" d="m12.94 375.57c0.38 0.24 1.25 0.61 2.16 0.61 1.69 0 2.22-1.08 2.21-1.89-0.02-1.37-1.25-1.95-2.52-1.95h-0.73v-0.99h0.73c0.96 0 2.17-0.5 2.17-1.65 0-0.78-0.5-1.47-1.71-1.47-0.78 0-1.53 0.34-1.95 0.64l-0.35-0.96c0.51-0.38 1.5-0.75 2.55-0.75 1.92 0 2.79 1.14 2.79 2.33 0 1-0.6 1.86-1.8 2.29v0.03c1.2 0.24 2.17 1.14 2.17 2.5 0 1.56-1.21 2.92-3.55 2.92-1.1 0-2.06-0.34-2.54-0.66l0.37-1z"/>

		<circle cx="15.8" cy="430.71" r="9.16"/>

			<path class="st8" d="m16.25 435.6v-2.66h-4.53v-0.87l4.35-6.23h1.43v6.06h1.36v1.03h-1.36v2.66h-1.25zm0-3.69v-3.25c0-0.51 0.02-1.02 0.04-1.53h-0.04c-0.3 0.57-0.54 0.99-0.81 1.44l-2.38 3.32v0.03h3.19z"/>

		<circle cx="16.26" cy="543.62" r="9.16"/>

			<path class="st8" d="m18.45 539.87h-3.72l-0.38 2.5c0.23-0.03 0.44-0.06 0.79-0.06 0.75 0 1.5 0.17 2.1 0.52 0.76 0.44 1.4 1.28 1.4 2.5 0 1.91-1.52 3.33-3.63 3.33-1.06 0-1.97-0.3-2.43-0.6l0.33-1.01c0.4 0.24 1.2 0.54 2.08 0.54 1.25 0 2.31-0.81 2.31-2.11-0.02-1.26-0.85-2.16-2.81-2.16-0.55 0-0.99 0.06-1.35 0.11l0.63-4.68h4.66v1.12z"/>



		<circle cx="264.32" cy="105.88" r="9.16"/>

			<path class="st8" d="m263.55 102.24h-0.03l-1.69 0.92-0.25-1 2.13-1.14h1.13v9.75h-1.28v-8.53z"/>

		<circle cx="265.26" cy="239.94" r="9.16"/>

			<path class="st8" d="m261.62 244.82v-0.81l1.04-1c2.49-2.37 3.62-3.63 3.63-5.1 0-0.99-0.48-1.9-1.93-1.9-0.88 0-1.62 0.45-2.07 0.82l-0.42-0.93c0.67-0.57 1.63-0.99 2.76-0.99 2.1 0 2.99 1.44 2.99 2.83 0 1.8-1.3 3.25-3.36 5.24l-0.78 0.72v0.03h4.38v1.09h-6.24z"/>

		<circle cx="266.26" cy="372.2" r="9.16"/>

			<path class="st8" d="m262.94 375.57c0.38 0.24 1.25 0.61 2.16 0.61 1.7 0 2.22-1.08 2.21-1.89-0.01-1.37-1.25-1.95-2.52-1.95h-0.74v-0.99h0.74c0.96 0 2.17-0.5 2.17-1.65 0-0.78-0.5-1.47-1.71-1.47-0.78 0-1.53 0.34-1.95 0.64l-0.34-0.96c0.51-0.38 1.5-0.75 2.55-0.75 1.92 0 2.79 1.14 2.79 2.33 0 1-0.6 1.86-1.8 2.29v0.03c1.2 0.24 2.17 1.14 2.17 2.5 0 1.56-1.21 2.92-3.55 2.92-1.1 0-2.06-0.34-2.54-0.66l0.36-1z"/>

		<circle cx="265.8" cy="430.71" r="9.16"/>

			<path class="st8" d="m266.25 435.6v-2.66h-4.53v-0.87l4.35-6.23h1.42v6.06h1.37v1.03h-1.37v2.66h-1.24zm0-3.69v-3.25c0-0.51 0.02-1.02 0.04-1.53h-0.04c-0.3 0.57-0.54 0.99-0.81 1.44l-2.38 3.32v0.03h3.19z"/>

		<circle cx="266.26" cy="543.62" r="9.16"/>

			<path class="st8" d="m268.45 539.87h-3.72l-0.38 2.5c0.23-0.03 0.44-0.06 0.79-0.06 0.75 0 1.5 0.17 2.1 0.52 0.76 0.44 1.39 1.28 1.39 2.5 0 1.91-1.51 3.33-3.63 3.33-1.06 0-1.96-0.3-2.43-0.6l0.33-1.01c0.4 0.24 1.2 0.54 2.08 0.54 1.25 0 2.31-0.81 2.31-2.11-0.01-1.26-0.85-2.16-2.8-2.16-0.55 0-0.99 0.06-1.35 0.11l0.63-4.68h4.66v1.12z"/>



		<circle cx="108.63" cy="171.93" r="9.16"/>

			<path class="st8" d="m111.32 167.07v0.87l-4.25 8.88h-1.36l4.23-8.63v-0.03h-4.77v-1.1h6.15z"/>



		<circle cx="108.5" cy="239.94" r="9.16"/>

			<path class="st8" d="m104.75 242.35c0-1.23 0.73-2.1 1.93-2.61l-0.01-0.04c-1.08-0.51-1.54-1.35-1.54-2.19 0-1.54 1.3-2.6 3.01-2.6 1.89 0 2.83 1.19 2.83 2.4 0 0.83-0.41 1.71-1.6 2.28v0.04c1.21 0.48 1.96 1.33 1.96 2.52 0 1.7-1.46 2.83-3.31 2.83-2.04 0.01-3.27-1.21-3.27-2.63zm5.25-0.06c0-1.18-0.82-1.75-2.15-2.13-1.14 0.33-1.75 1.08-1.75 2.01-0.04 0.99 0.71 1.86 1.95 1.86 1.18 0 1.95-0.74 1.95-1.74zm-3.63-4.88c0 0.98 0.73 1.5 1.86 1.8 0.84-0.29 1.48-0.89 1.48-1.77 0-0.78-0.46-1.59-1.65-1.59-1.09 0-1.69 0.72-1.69 1.56z"/>



		<circle cx="108.96" cy="306.66" r="9.16"/>

			<path class="st8" d="m106.09 310.61c0.29 0.03 0.61 0 1.06-0.04 0.77-0.11 1.48-0.42 2.04-0.95 0.65-0.58 1.11-1.44 1.29-2.59h-0.05c-0.54 0.66-1.32 1.05-2.29 1.05-1.75 0-2.88-1.32-2.88-2.99 0-1.84 1.33-3.46 3.33-3.46s3.23 1.62 3.23 4.11c0 2.14-0.72 3.64-1.68 4.58-0.75 0.73-1.78 1.18-2.83 1.3-0.48 0.08-0.9 0.09-1.21 0.08v-1.09zm0.48-5.61c0 1.21 0.73 2.07 1.88 2.07 0.88 0 1.57-0.44 1.92-1.02 0.07-0.12 0.12-0.27 0.12-0.48 0-1.67-0.62-2.94-2-2.94-1.12 0-1.92 0.99-1.92 2.37z"/>



		<circle cx="109.3" cy="372.92" r="9.16"/>

			<path class="st8" d="m104.68 369.29h-0.03l-1.69 0.92-0.25-1 2.13-1.14h1.13v9.75h-1.27v-8.53z"/>
			<path class="st8" d="m115.99 372.83c0 3.31-1.23 5.14-3.39 5.14-1.9 0-3.19-1.79-3.22-5.01 0-3.27 1.41-5.07 3.39-5.07 2.05 0.01 3.22 1.84 3.22 4.94zm-5.29 0.15c0 2.54 0.78 3.98 1.98 3.98 1.35 0 2-1.58 2-4.07 0-2.4-0.62-3.97-1.98-3.97-1.16 0-2 1.41-2 4.06z"/>



		<circle cx="141.38" cy="452.61" r="9.16"/>

			<path class="st8" d="m136.77 448.98h-0.03l-1.69 0.92-0.25-1 2.13-1.14h1.13v9.75h-1.27v-8.53z"/>
			<path class="st8" d="m144.46 448.98h-0.03l-1.69 0.92-0.25-1 2.13-1.14h1.13v9.75h-1.27v-8.53z"/>



		<circle cx="140.31" cy="598.43" r="9.16"/>

			<path class="st8" d="m135.69 594.79h-0.03l-1.69 0.92-0.25-1 2.13-1.14h1.13v9.75h-1.28v-8.53z"/>
			<path class="st8" d="m140.52 603.31v-0.81l1.04-1c2.49-2.37 3.61-3.63 3.63-5.1 0-0.99-0.48-1.9-1.94-1.9-0.88 0-1.62 0.45-2.07 0.82l-0.42-0.93c0.67-0.57 1.63-0.99 2.76-0.99 2.1 0 2.98 1.44 2.98 2.83 0 1.8-1.3 3.25-3.36 5.24l-0.78 0.72v0.03h4.38v1.09h-6.22z"/>



		<circle cx="141.01" cy="706.78" r="9.16"/>

			<path class="st8" d="m142.94 702.85c-0.27-0.02-0.61 0-0.99 0.06-2.07 0.34-3.17 1.86-3.39 3.46h0.04c0.47-0.62 1.27-1.13 2.35-1.13 1.73 0 2.94 1.25 2.94 3.15 0 1.78-1.21 3.43-3.24 3.43-2.08 0-3.45-1.62-3.45-4.16 0-1.92 0.69-3.43 1.65-4.39 0.81-0.79 1.89-1.29 3.12-1.44 0.39-0.06 0.72-0.08 0.96-0.08v1.1zm-0.37 5.62c0-1.39-0.79-2.23-2.01-2.23-0.79 0-1.53 0.5-1.89 1.2-0.09 0.15-0.15 0.34-0.15 0.58 0.03 1.6 0.77 2.79 2.15 2.79 1.13 0 1.9-0.94 1.9-2.34z"/>



		<path d="m133.87 334.04c-0.03-0.66-0.08-1.45-0.07-2.04h-0.02c-0.16 0.55-0.36 1.14-0.6 1.79l-0.83 2.29h-0.46l-0.76-2.25c-0.22-0.67-0.41-1.27-0.55-1.83h-0.01c-0.01 0.59-0.05 1.38-0.09 2.09l-0.13 2.02h-0.58l0.33-4.72h0.78l0.81 2.28c0.2 0.58 0.36 1.1 0.48 1.59h0.02c0.12-0.48 0.29-0.99 0.5-1.59l0.84-2.28h0.78l0.29 4.72h-0.6l-0.13-2.07z"/>
		<path d="m136.12 331.39v4.72h-0.61v-4.72h0.61z"/>
		<path d="m139.77 336.11-0.6-1.04c-0.25-0.4-0.4-0.66-0.55-0.93h-0.01c-0.13 0.27-0.27 0.53-0.51 0.94l-0.57 1.04h-0.7l1.44-2.39-1.39-2.33h0.71l0.62 1.11c0.17 0.31 0.31 0.55 0.43 0.8h0.02c0.13-0.28 0.25-0.5 0.43-0.8l0.64-1.11h0.7l-1.44 2.3 1.47 2.42h-0.69z"/>
		<path d="m141.79 331.39v4.72h-0.61v-4.72h0.61z"/>
		<path d="m142.86 336.11v-4.72h0.67l1.51 2.39c0.35 0.55 0.62 1.05 0.85 1.53l0.01-0.01c-0.06-0.63-0.07-1.2-0.07-1.94v-1.98h0.57v4.72h-0.62l-1.5-2.4c-0.33-0.52-0.64-1.06-0.88-1.58l-0.02 0.01c0.04 0.6 0.05 1.16 0.05 1.95v2.02h-0.57z"/>
		<path d="m151.06 335.9c-0.27 0.1-0.81 0.26-1.45 0.26-0.71 0-1.3-0.18-1.76-0.62-0.41-0.39-0.66-1.02-0.66-1.76 0.01-1.41 0.97-2.44 2.56-2.44 0.55 0 0.97 0.12 1.18 0.22l-0.15 0.5c-0.25-0.11-0.57-0.2-1.04-0.2-1.15 0-1.9 0.71-1.9 1.9 0 1.2 0.72 1.91 1.82 1.91 0.4 0 0.67-0.06 0.81-0.13v-1.41h-0.96v-0.49h1.55v2.26z"/>


		<path d="m151.48 328c-0.03-0.56-0.07-1.24-0.06-1.75h-0.02c-0.14 0.47-0.31 0.98-0.51 1.54l-0.71 1.96h-0.4l-0.65-1.92c-0.19-0.57-0.35-1.09-0.47-1.57h-0.01c-0.01 0.5-0.04 1.18-0.08 1.79l-0.11 1.73h-0.5l0.28-4.04h0.67l0.69 1.96c0.17 0.5 0.31 0.94 0.41 1.36h0.02c0.1-0.41 0.25-0.85 0.43-1.36l0.72-1.96h0.67l0.25 4.04h-0.51l-0.11-1.78z"/>
		<path d="m153.49 328.5-0.42 1.27h-0.54l1.37-4.04h0.63l1.38 4.04h-0.56l-0.43-1.27h-1.43zm1.33-0.41-0.4-1.16c-0.09-0.26-0.15-0.5-0.21-0.74h-0.01c-0.06 0.24-0.13 0.49-0.2 0.73l-0.4 1.17h1.22z"/>
		<path d="m156.44 329.14c0.23 0.14 0.58 0.26 0.94 0.26 0.53 0 0.85-0.28 0.85-0.69 0-0.38-0.22-0.59-0.76-0.8-0.66-0.23-1.07-0.58-1.07-1.15 0-0.63 0.52-1.1 1.31-1.1 0.41 0 0.71 0.1 0.89 0.2l-0.14 0.43c-0.13-0.07-0.4-0.19-0.77-0.19-0.55 0-0.76 0.33-0.76 0.61 0 0.38 0.25 0.56 0.8 0.78 0.68 0.26 1.03 0.59 1.03 1.19 0 0.62-0.46 1.16-1.42 1.16-0.39 0-0.82-0.11-1.03-0.26l0.13-0.44z"/>
		<path d="m160.24 326.18h-1.23v-0.44h2.99v0.44h-1.24v3.6h-0.53v-3.6z"/>
		<path d="m164.54 327.88h-1.57v1.46h1.75v0.44h-2.27v-4.04h2.18v0.44h-1.66v1.28h1.57v0.42z"/>
		<path d="m165.4 325.79c0.26-0.05 0.64-0.08 1-0.08 0.56 0 0.92 0.1 1.17 0.33 0.2 0.18 0.32 0.46 0.32 0.77 0 0.53-0.34 0.89-0.76 1.03v0.02c0.31 0.11 0.5 0.4 0.59 0.82 0.13 0.56 0.23 0.95 0.31 1.11h-0.54c-0.07-0.11-0.16-0.46-0.27-0.97-0.12-0.56-0.34-0.77-0.81-0.79h-0.49v1.75h-0.52v-3.99zm0.52 1.84h0.53c0.56 0 0.91-0.31 0.91-0.77 0-0.52-0.38-0.75-0.93-0.76-0.25 0-0.43 0.02-0.52 0.05v1.48z"/>


		<path d="m125.13 329.91c-0.19 0.1-0.58 0.19-1.07 0.19-1.14 0-2-0.72-2-2.04 0-1.27 0.86-2.12 2.11-2.12 0.5 0 0.82 0.11 0.96 0.18l-0.13 0.43c-0.2-0.1-0.48-0.17-0.82-0.17-0.95 0-1.58 0.61-1.58 1.67 0 0.99 0.57 1.63 1.55 1.63 0.32 0 0.64-0.07 0.85-0.17l0.13 0.4z"/>
		<path d="m126.3 326v2.39c0 0.91 0.4 1.29 0.94 1.29 0.6 0 0.98-0.4 0.98-1.29v-2.39h0.53v2.36c0 1.24-0.65 1.75-1.53 1.75-0.83 0-1.45-0.47-1.45-1.73v-2.38h0.53z"/>
		<path d="m131.76 328.14h-1.57v1.46h1.75v0.44h-2.27v-4.04h2.18v0.44h-1.66v1.28h1.57v0.42z"/>


</svg>
