<?xml version="1.0" encoding="utf-8"?>
<!-- Generator: Adobe Illustrator 23.1.0, SVG Export Plug-In . SVG Version: 6.00 Build 0)  -->
<svg version="1.1" xmlns="http://www.w3.org/2000/svg" xmlns:xlink="http://www.w3.org/1999/xlink" x="0px" y="0px"
	 viewBox="0 0 244.35 144.42" style="enable-background:new 0 0 244.35 144.42;" xml:space="preserve">
<style type="text/css">
	.st0{fill:#EDEDED;}
	.st1{opacity:0.3;}
	.st2{fill:none;stroke:#1E1E1C;stroke-miterlimit:10;}
	.st3{fill:#020203;}
	.st4{fill:#282727;}
	.st5{fill:#6D6C6C;}
	.st6{fill:none;stroke:#FFFFFF;stroke-miterlimit:10;}
	.st7{fill:#FFFFFF;}
	.st8{fill:none;stroke:#000000;stroke-miterlimit:10;}
</style>
<g id="Ebene_3">
	<rect y="68" class="st0" width="72.47" height="76.42"/>
	<rect x="171.87" y="68" class="st0" width="72.47" height="76.42"/>
</g>
<g id="Ebene_2">
	<g class="st1">
		<circle class="st2" cx="32.53" cy="102.23" r="16.32"/>
		<g>
			<polygon class="st2" points="46.77,102.23 46.16,103.25 46.61,104.35 45.86,105.27 46.14,106.43 45.26,107.23 45.36,108.41 
				44.37,109.07 44.29,110.25 43.22,110.75 42.97,111.91 41.83,112.25 41.41,113.36 40.23,113.52 39.65,114.56 38.46,114.55 
				37.74,115.48 36.56,115.29 35.7,116.11 34.57,115.75 33.6,116.42 32.53,115.9 31.47,116.42 30.49,115.75 29.36,116.11 
				28.5,115.29 27.33,115.48 26.6,114.55 25.41,114.56 24.83,113.52 23.66,113.36 23.24,112.25 22.1,111.91 21.85,110.75 
				20.77,110.25 20.69,109.06 19.71,108.41 19.81,107.22 18.93,106.43 19.21,105.27 18.46,104.35 18.9,103.25 18.3,102.23 
				18.9,101.21 18.46,100.11 19.21,99.19 18.93,98.03 19.81,97.23 19.71,96.05 20.7,95.39 20.77,94.21 21.85,93.71 22.1,92.55 
				23.24,92.21 23.66,91.1 24.84,90.93 25.42,89.9 26.6,89.91 27.33,88.98 28.5,89.17 29.37,88.35 30.49,88.71 31.47,88.03 
				32.53,88.56 33.6,88.03 34.57,88.71 35.7,88.35 36.57,89.17 37.74,88.98 38.47,89.91 39.65,89.9 40.23,90.94 41.41,91.1 
				41.83,92.21 42.97,92.55 43.22,93.71 44.3,94.21 44.37,95.4 45.36,96.05 45.26,97.23 46.14,98.03 45.86,99.19 46.61,100.11 
				46.16,101.21 			"/>
		</g>
		<line class="st2" x1="32.53" y1="88.28" x2="32.53" y2="100.29"/>
		<g>
			<path class="st3" d="M26.69,125.77h-1.44v-0.52h3.5v0.52h-1.44v4.2h-0.62V125.77z"/>
			<path class="st3" d="M29.27,125.32c0.31-0.06,0.75-0.1,1.17-0.1c0.65,0,1.07,0.12,1.37,0.38c0.24,0.21,0.37,0.53,0.37,0.9
				c0,0.62-0.39,1.04-0.89,1.21v0.02c0.36,0.13,0.58,0.46,0.69,0.95c0.15,0.66,0.27,1.11,0.36,1.3h-0.63
				c-0.08-0.13-0.18-0.54-0.32-1.13c-0.14-0.65-0.39-0.9-0.95-0.92h-0.57v2.04h-0.61V125.32z M29.88,127.47h0.62
				c0.65,0,1.06-0.36,1.06-0.9c0-0.61-0.44-0.88-1.08-0.88c-0.29,0-0.5,0.03-0.6,0.06V127.47z"/>
			<path class="st3" d="M33.65,125.25v4.72h-0.61v-4.72H33.65z"/>
			<path class="st3" d="M38.69,127.9c-0.04-0.66-0.08-1.45-0.07-2.04H38.6c-0.16,0.55-0.36,1.14-0.59,1.79l-0.83,2.29h-0.46
				l-0.76-2.25c-0.22-0.67-0.41-1.27-0.55-1.83h-0.01c-0.01,0.59-0.05,1.38-0.09,2.09l-0.13,2.02h-0.58l0.33-4.72h0.78l0.81,2.28
				c0.2,0.58,0.36,1.1,0.48,1.59h0.02c0.12-0.48,0.29-0.99,0.5-1.59l0.84-2.28h0.78l0.29,4.72h-0.59L38.69,127.9z"/>
		</g>
		<g>
			<path class="st3" d="M48.91,120.73v1.41h1.36v0.36h-1.36v1.42h-0.38v-1.42h-1.35v-0.36h1.35v-1.41H48.91z"/>
			<path class="st3" d="M51.08,123.55c0.11,0.01,0.25,0,0.42-0.02c0.31-0.04,0.59-0.17,0.82-0.38c0.26-0.23,0.44-0.58,0.52-1.04
				h-0.02c-0.22,0.26-0.53,0.42-0.92,0.42c-0.7,0-1.15-0.53-1.15-1.19c0-0.74,0.53-1.39,1.33-1.39s1.29,0.65,1.29,1.64
				c0,0.86-0.29,1.46-0.67,1.83c-0.3,0.29-0.71,0.47-1.13,0.52c-0.19,0.03-0.36,0.04-0.49,0.03V123.55z M51.28,121.31
				c0,0.49,0.29,0.83,0.75,0.83c0.35,0,0.63-0.17,0.77-0.41c0.03-0.05,0.05-0.11,0.05-0.19c0-0.67-0.25-1.18-0.8-1.18
				C51.59,120.36,51.28,120.76,51.28,121.31z"/>
		</g>
		<g>
			<path class="st3" d="M12.37,121.82v0.52H10.4v-0.52H12.37z"/>
			<path class="st3" d="M15.53,122.46c-0.41,0.41-0.83,0.86-1.48,0.86c-0.67,0-1.15-0.5-1.15-1.18c0-0.63,0.51-1.18,1.21-1.18
				c0.59,0,1.03,0.47,1.42,0.86c0.41-0.41,0.83-0.86,1.48-0.86c0.68,0,1.15,0.5,1.15,1.18c0,0.63-0.51,1.18-1.22,1.18
				C16.35,123.31,15.91,122.84,15.53,122.46z M15.21,122.13c-0.31-0.29-0.64-0.7-1.1-0.7c-0.4,0-0.7,0.33-0.7,0.7
				c0,0.41,0.29,0.7,0.68,0.7C14.53,122.83,14.9,122.44,15.21,122.13z M17.65,122.13c0-0.41-0.29-0.7-0.68-0.7
				c-0.46,0-0.82,0.39-1.13,0.7c0.31,0.29,0.64,0.7,1.1,0.7C17.35,122.83,17.65,122.5,17.65,122.13z"/>
		</g>
		<circle class="st3" cx="21.13" cy="122.41" r="0.81"/>
		<circle class="st3" cx="44.11" cy="122.41" r="0.81"/>
	</g>
	<g class="st1">
		<circle class="st2" cx="210.76" cy="102.23" r="16.32"/>
		<g>
			<polygon class="st2" points="225,102.23 224.39,103.25 224.84,104.35 224.09,105.27 224.37,106.43 223.49,107.23 223.59,108.41 
				222.6,109.07 222.52,110.25 221.45,110.75 221.2,111.91 220.06,112.25 219.64,113.36 218.46,113.52 217.88,114.56 216.69,114.55 
				215.96,115.48 214.79,115.29 213.93,116.11 212.8,115.75 211.83,116.42 210.76,115.9 209.7,116.42 208.72,115.75 207.59,116.11 
				206.73,115.29 205.56,115.48 204.83,114.55 203.64,114.56 203.06,113.52 201.89,113.36 201.46,112.25 200.33,111.91 
				200.07,110.75 199,110.25 198.92,109.06 197.93,108.41 198.04,107.22 197.16,106.43 197.43,105.27 196.68,104.35 197.13,103.25 
				196.53,102.23 197.13,101.21 196.69,100.11 197.43,99.19 197.16,98.03 198.04,97.23 197.94,96.05 198.92,95.39 199,94.21 
				200.08,93.71 200.33,92.55 201.47,92.21 201.89,91.1 203.06,90.93 203.64,89.9 204.83,89.91 205.56,88.98 206.73,89.17 
				207.59,88.35 208.72,88.71 209.7,88.03 210.76,88.56 211.83,88.03 212.8,88.71 213.93,88.35 214.79,89.17 215.97,88.98 
				216.69,89.91 217.88,89.9 218.46,90.94 219.64,91.1 220.06,92.21 221.2,92.55 221.45,93.71 222.52,94.21 222.6,95.4 
				223.59,96.05 223.49,97.23 224.37,98.03 224.09,99.19 224.84,100.11 224.39,101.21 			"/>
		</g>
		<line class="st2" x1="210.76" y1="88.28" x2="210.76" y2="100.29"/>
		<g>
			<path class="st3" d="M204.92,125.77h-1.44v-0.52h3.5v0.52h-1.44v4.2h-0.62V125.77z"/>
			<path class="st3" d="M207.5,125.32c0.31-0.06,0.75-0.1,1.17-0.1c0.65,0,1.07,0.12,1.37,0.38c0.24,0.21,0.37,0.53,0.37,0.9
				c0,0.62-0.39,1.04-0.89,1.21v0.02c0.36,0.13,0.58,0.46,0.69,0.95c0.15,0.66,0.27,1.11,0.36,1.3h-0.63
				c-0.08-0.13-0.18-0.54-0.32-1.13c-0.14-0.65-0.39-0.9-0.95-0.92h-0.57v2.04h-0.61V125.32z M208.11,127.47h0.62
				c0.65,0,1.06-0.36,1.06-0.9c0-0.61-0.44-0.88-1.08-0.88c-0.29,0-0.5,0.03-0.6,0.06V127.47z"/>
			<path class="st3" d="M211.88,125.25v4.72h-0.61v-4.72H211.88z"/>
			<path class="st3" d="M216.92,127.9c-0.04-0.66-0.08-1.45-0.07-2.04h-0.02c-0.16,0.55-0.36,1.14-0.59,1.79l-0.83,2.29h-0.46
				l-0.76-2.25c-0.22-0.67-0.41-1.27-0.55-1.83h-0.01c-0.01,0.59-0.05,1.38-0.09,2.09l-0.13,2.02h-0.58l0.33-4.72h0.78l0.81,2.28
				c0.2,0.58,0.36,1.1,0.48,1.59h0.02c0.12-0.48,0.29-0.99,0.5-1.59l0.84-2.28h0.78l0.29,4.72h-0.59L216.92,127.9z"/>
		</g>
		<g>
			<path class="st3" d="M227.14,120.73v1.41h1.36v0.36h-1.36v1.42h-0.38v-1.42h-1.35v-0.36h1.35v-1.41H227.14z"/>
			<path class="st3" d="M229.31,123.55c0.11,0.01,0.25,0,0.42-0.02c0.31-0.04,0.59-0.17,0.82-0.38c0.26-0.23,0.44-0.58,0.52-1.04
				h-0.02c-0.22,0.26-0.53,0.42-0.92,0.42c-0.7,0-1.15-0.53-1.15-1.19c0-0.74,0.53-1.39,1.33-1.39s1.29,0.65,1.29,1.64
				c0,0.86-0.29,1.46-0.67,1.83c-0.3,0.29-0.71,0.47-1.13,0.52c-0.19,0.03-0.36,0.04-0.49,0.03V123.55z M229.5,121.31
				c0,0.49,0.29,0.83,0.75,0.83c0.35,0,0.63-0.17,0.77-0.41c0.03-0.05,0.05-0.11,0.05-0.19c0-0.67-0.25-1.18-0.8-1.18
				C229.82,120.36,229.5,120.76,229.5,121.31z"/>
		</g>
		<g>
			<path class="st3" d="M190.6,121.82v0.52h-1.97v-0.52H190.6z"/>
			<path class="st3" d="M193.75,122.46c-0.41,0.41-0.83,0.86-1.48,0.86c-0.67,0-1.15-0.5-1.15-1.18c0-0.63,0.51-1.18,1.21-1.18
				c0.59,0,1.03,0.47,1.42,0.86c0.41-0.41,0.83-0.86,1.48-0.86c0.68,0,1.15,0.5,1.15,1.18c0,0.63-0.51,1.18-1.22,1.18
				C194.58,123.31,194.14,122.84,193.75,122.46z M193.43,122.13c-0.31-0.29-0.64-0.7-1.1-0.7c-0.4,0-0.7,0.33-0.7,0.7
				c0,0.41,0.29,0.7,0.68,0.7C192.76,122.83,193.13,122.44,193.43,122.13z M195.88,122.13c0-0.41-0.29-0.7-0.68-0.7
				c-0.46,0-0.82,0.39-1.13,0.7c0.31,0.29,0.64,0.7,1.1,0.7C195.58,122.83,195.88,122.5,195.88,122.13z"/>
		</g>
		<circle class="st3" cx="199.36" cy="122.41" r="0.81"/>
		<circle class="st3" cx="222.34" cy="122.41" r="0.81"/>
	</g>
	<g>
		<g>
			<circle class="st2" cx="121.59" cy="50.56" r="16.32"/>
			<g>
				<polygon class="st2" points="135.82,50.56 135.22,51.59 135.66,52.69 134.91,53.61 135.19,54.76 134.31,55.56 134.41,56.74 
					133.42,57.4 133.35,58.59 132.27,59.09 132.02,60.25 130.88,60.58 130.46,61.69 129.28,61.86 128.7,62.89 127.52,62.88 
					126.79,63.82 125.62,63.63 124.75,64.44 123.62,64.08 122.65,64.76 121.59,64.23 120.52,64.76 119.55,64.08 118.42,64.44 
					117.55,63.63 116.38,63.82 115.65,62.88 114.47,62.89 113.88,61.86 112.71,61.69 112.29,60.58 111.15,60.25 110.9,59.08 
					109.82,58.58 109.75,57.4 108.76,56.74 108.86,55.56 107.98,54.76 108.26,53.61 107.51,52.69 107.96,51.59 107.35,50.56 
					107.96,49.54 107.51,48.44 108.26,47.52 107.98,46.37 108.86,45.57 108.76,44.39 109.75,43.73 109.82,42.54 110.9,42.04 
					111.15,40.88 112.29,40.54 112.71,39.43 113.89,39.27 114.47,38.23 115.65,38.25 116.38,37.31 117.56,37.5 118.42,36.68 
					119.55,37.05 120.52,36.37 121.59,36.9 122.65,36.37 123.62,37.05 124.76,36.68 125.62,37.5 126.79,37.31 127.52,38.25 
					128.71,38.24 129.29,39.27 130.46,39.44 130.88,40.55 132.02,40.88 132.27,42.04 133.35,42.55 133.42,43.73 134.41,44.39 
					134.31,45.57 135.19,46.37 134.91,47.52 135.66,48.44 135.22,49.54 				"/>
			</g>
			<line class="st2" x1="121.59" y1="36.61" x2="121.59" y2="48.62"/>
		</g>
		<line class="st2" x1="121.59" y1="69.77" x2="121.59" y2="69.77"/>
		<line class="st2" x1="121.59" y1="69.77" x2="121.59" y2="69.77"/>
		<circle class="st2" cx="121.59" cy="50.56" r="19.21"/>
	</g>
	<path class="st4" d="M56.53,58.39h-48c-1.51,0-2.74-1.23-2.74-2.74V34.39c0-1.51,1.23-2.74,2.74-2.74h48
		c1.51,0,2.74,1.23,2.74,2.74v21.26C59.27,57.17,58.05,58.39,56.53,58.39z"/>
	<path class="st5" d="M54.95,50.08H10.11c-1.25,0-2.26-1.01-2.26-2.26V35.92c0-1.25,1.01-2.26,2.26-2.26h44.84
		c1.25,0,2.26,1.01,2.26,2.26v11.89C57.22,49.06,56.2,50.08,54.95,50.08z"/>
	<rect x="10.52" y="36.39" class="st6" width="44" height="11.05"/>
	<g>
		<path class="st7" d="M26.52,52.11c0.27-0.06,0.69-0.1,1.11-0.1c0.61,0,1,0.1,1.3,0.34c0.25,0.18,0.39,0.46,0.39,0.83
			c0,0.46-0.3,0.85-0.8,1.04v0.01c0.45,0.11,0.97,0.48,0.97,1.18c0,0.41-0.16,0.71-0.4,0.95c-0.33,0.3-0.86,0.44-1.63,0.44
			c-0.42,0-0.74-0.03-0.95-0.06V52.11z M27.13,54.04h0.55c0.64,0,1.02-0.34,1.02-0.79c0-0.55-0.42-0.77-1.04-0.77
			c-0.28,0-0.44,0.02-0.54,0.04V54.04z M27.13,56.3c0.12,0.02,0.29,0.03,0.51,0.03c0.63,0,1.21-0.23,1.21-0.92
			c0-0.64-0.55-0.91-1.22-0.91h-0.5V56.3z"/>
		<path class="st7" d="M30.32,52.1c0.29-0.05,0.68-0.09,1.17-0.09c0.6,0,1.04,0.14,1.32,0.39c0.26,0.22,0.41,0.57,0.41,0.99
			c0,0.43-0.13,0.76-0.36,1.01c-0.32,0.34-0.85,0.52-1.44,0.52c-0.18,0-0.35-0.01-0.49-0.04v1.89h-0.61V52.1z M30.93,54.37
			c0.13,0.04,0.3,0.05,0.5,0.05c0.74,0,1.18-0.36,1.18-1.01c0-0.62-0.44-0.92-1.11-0.92c-0.27,0-0.47,0.02-0.57,0.05V54.37z"/>
		<path class="st7" d="M37.93,54.69c-0.04-0.66-0.08-1.45-0.07-2.04h-0.02c-0.16,0.55-0.36,1.14-0.59,1.79l-0.83,2.29h-0.46
			l-0.76-2.25c-0.22-0.67-0.41-1.27-0.55-1.83h-0.01c-0.01,0.59-0.05,1.38-0.09,2.09l-0.13,2.02h-0.58l0.33-4.72h0.78l0.81,2.28
			c0.2,0.58,0.36,1.1,0.48,1.59h0.02c0.12-0.48,0.29-0.99,0.5-1.59l0.84-2.28h0.78l0.29,4.72h-0.59L37.93,54.69z"/>
	</g>
	<g>
		<path class="st4" d="M24.7,24.78h0.61v4.21h2.02v0.51H24.7V24.78z"/>
		<path class="st4" d="M31.77,27.09c0,1.62-0.99,2.49-2.19,2.49c-1.25,0-2.12-0.97-2.12-2.4c0-1.5,0.93-2.48,2.19-2.48
			C30.94,24.7,31.77,25.69,31.77,27.09z M28.11,27.17c0,1.01,0.55,1.91,1.51,1.91c0.97,0,1.51-0.89,1.51-1.96
			c0-0.94-0.49-1.92-1.51-1.92C28.61,25.2,28.11,26.13,28.11,27.17z"/>
		<path class="st4" d="M33.22,28.02l-0.49,1.48H32.1l1.6-4.72h0.74l1.61,4.72H35.4l-0.5-1.48H33.22z M34.77,27.54l-0.46-1.36
			c-0.1-0.31-0.17-0.59-0.25-0.86h-0.01c-0.07,0.28-0.15,0.57-0.24,0.85l-0.46,1.37H34.77z"/>
		<path class="st4" d="M36.74,24.84c0.37-0.06,0.81-0.1,1.3-0.1c0.88,0,1.5,0.2,1.91,0.59c0.42,0.39,0.67,0.93,0.67,1.7
			c0,0.77-0.24,1.4-0.68,1.83c-0.44,0.44-1.17,0.68-2.09,0.68c-0.43,0-0.8-0.02-1.11-0.06V24.84z M37.35,29.02
			c0.15,0.03,0.38,0.04,0.62,0.04c1.3,0,2.01-0.73,2.01-2c0.01-1.11-0.62-1.82-1.91-1.82c-0.32,0-0.55,0.03-0.71,0.06V29.02z"/>
	</g>
	<path class="st4" d="M234.76,58.39h-48c-1.51,0-2.74-1.23-2.74-2.74V34.39c0-1.51,1.23-2.74,2.74-2.74h48
		c1.51,0,2.74,1.23,2.74,2.74v21.26C237.5,57.17,236.27,58.39,234.76,58.39z"/>
	<path class="st5" d="M233.18,50.08h-44.84c-1.25,0-2.26-1.01-2.26-2.26V35.92c0-1.25,1.01-2.26,2.26-2.26h44.84
		c1.25,0,2.26,1.01,2.26,2.26v11.89C235.45,49.06,234.43,50.08,233.18,50.08z"/>
	<rect x="188.75" y="36.39" class="st6" width="44" height="11.05"/>
	<g>
		<path class="st7" d="M205.76,52.04h0.61v2.28h0.02c0.13-0.18,0.25-0.35,0.37-0.5l1.44-1.77h0.76l-1.71,2l1.84,2.72h-0.72
			l-1.55-2.32l-0.45,0.52v1.8h-0.61V52.04z"/>
		<path class="st7" d="M212,54.55h-1.84v1.7h2.04v0.51h-2.65v-4.72h2.55v0.51h-1.94v1.49H212V54.55z"/>
		<path class="st7" d="M214.07,56.76v-2l-1.49-2.72h0.69l0.67,1.3c0.18,0.36,0.32,0.64,0.47,0.97h0.01
			c0.13-0.31,0.29-0.62,0.48-0.97l0.68-1.3h0.69l-1.58,2.71v2.01H214.07z"/>
	</g>
	<g>
		<path class="st4" d="M202.93,24.78h0.61v4.21h2.02v0.51h-2.63V24.78z"/>
		<path class="st4" d="M210,27.09c0,1.62-0.99,2.49-2.19,2.49c-1.25,0-2.12-0.97-2.12-2.4c0-1.5,0.93-2.48,2.19-2.48
			C209.16,24.7,210,25.69,210,27.09z M206.33,27.17c0,1.01,0.55,1.91,1.51,1.91c0.97,0,1.51-0.89,1.51-1.96
			c0-0.94-0.49-1.92-1.51-1.92C206.84,25.2,206.33,26.13,206.33,27.17z"/>
		<path class="st4" d="M211.45,28.02l-0.49,1.48h-0.63l1.6-4.72h0.74l1.61,4.72h-0.65l-0.5-1.48H211.45z M213,27.54l-0.46-1.36
			c-0.1-0.31-0.17-0.59-0.25-0.86h-0.01c-0.07,0.28-0.15,0.57-0.24,0.85l-0.46,1.37H213z"/>
		<path class="st4" d="M214.97,24.84c0.37-0.06,0.81-0.1,1.3-0.1c0.88,0,1.5,0.2,1.91,0.59c0.42,0.39,0.67,0.93,0.67,1.7
			c0,0.77-0.24,1.4-0.68,1.83c-0.44,0.44-1.17,0.68-2.09,0.68c-0.43,0-0.8-0.02-1.11-0.06V24.84z M215.58,29.02
			c0.15,0.03,0.38,0.04,0.62,0.04c1.3,0,2.01-0.73,2.01-2c0.01-1.11-0.62-1.82-1.91-1.82c-0.32,0-0.55,0.03-0.71,0.06V29.02z"/>
	</g>
	<line class="st8" x1="72.43" y1="14.87" x2="72.47" y2="144.64"/>
	<line class="st8" x1="171.43" y1="14.84" x2="171.47" y2="144.61"/>
	<g>
		<path class="st4" d="M113.89,118.49H85.28c-1.51,0-2.74-1.23-2.74-2.74V94.49c0-1.51,1.23-2.74,2.74-2.74h28.61
			c1.51,0,2.74,1.23,2.74,2.74v21.26C116.63,117.27,115.4,118.49,113.89,118.49z"/>
		<g>
			<path class="st7" d="M91.12,116.12c0.27,0.17,0.67,0.31,1.09,0.31c0.62,0,0.99-0.33,0.99-0.81c0-0.44-0.25-0.69-0.89-0.94
				c-0.77-0.27-1.25-0.67-1.25-1.34c0-0.74,0.61-1.28,1.53-1.28c0.48,0,0.83,0.11,1.04,0.23l-0.17,0.5
				c-0.15-0.08-0.47-0.22-0.9-0.22c-0.64,0-0.89,0.39-0.89,0.71c0,0.44,0.29,0.66,0.94,0.91c0.8,0.31,1.2,0.69,1.2,1.39
				c0,0.73-0.54,1.36-1.65,1.36c-0.46,0-0.95-0.13-1.21-0.3L91.12,116.12z"/>
			<path class="st7" d="M98.69,114.45c0,1.62-0.99,2.49-2.19,2.49c-1.25,0-2.12-0.97-2.12-2.4c0-1.5,0.93-2.48,2.19-2.48
				C97.86,112.06,98.69,113.05,98.69,114.45z M95.03,114.53c0,1.01,0.55,1.91,1.51,1.91c0.97,0,1.51-0.89,1.51-1.96
				c0-0.94-0.49-1.92-1.51-1.92C95.54,112.56,95.03,113.49,95.03,114.53z"/>
			<path class="st7" d="M99.48,116.86v-4.72h0.67l1.51,2.39c0.35,0.55,0.62,1.05,0.85,1.53l0.01-0.01c-0.06-0.63-0.07-1.2-0.07-1.94
				v-1.98h0.57v4.72h-0.62l-1.5-2.4c-0.33-0.52-0.64-1.06-0.88-1.58l-0.02,0.01c0.04,0.6,0.05,1.16,0.05,1.95v2.02H99.48z"/>
			<path class="st7" d="M107.68,116.65c-0.27,0.1-0.81,0.26-1.45,0.26c-0.71,0-1.3-0.18-1.77-0.62c-0.41-0.39-0.66-1.02-0.66-1.76
				c0.01-1.41,0.97-2.44,2.56-2.44c0.55,0,0.97,0.12,1.18,0.22l-0.15,0.5c-0.25-0.11-0.57-0.2-1.04-0.2c-1.15,0-1.9,0.71-1.9,1.9
				c0,1.2,0.72,1.91,1.82,1.91c0.4,0,0.67-0.06,0.81-0.13v-1.41h-0.96v-0.49h1.55V116.65z"/>
		</g>
		<path class="st5" d="M112.36,110.23H86.8c-1.25,0-2.26-1.01-2.26-2.26V96.07c0-1.25,1.01-2.26,2.26-2.26h25.55
			c1.25,0,2.26,1.01,2.26,2.26v11.89C114.62,109.22,113.61,110.23,112.36,110.23z"/>
		<rect x="87.21" y="96.55" class="st6" width="24.33" height="11.05"/>
		<g>
			<path class="st4" d="M92,84.94c0.27-0.06,0.69-0.1,1.11-0.1c0.61,0,1,0.1,1.3,0.34c0.25,0.18,0.39,0.46,0.39,0.83
				c0,0.46-0.3,0.85-0.8,1.04v0.01c0.45,0.11,0.97,0.48,0.97,1.18c0,0.41-0.16,0.71-0.4,0.95c-0.33,0.3-0.86,0.44-1.63,0.44
				c-0.42,0-0.74-0.03-0.95-0.06V84.94z M92.61,86.87h0.55c0.64,0,1.02-0.34,1.02-0.79c0-0.55-0.42-0.77-1.04-0.77
				c-0.28,0-0.44,0.02-0.54,0.04V86.87z M92.61,89.14c0.12,0.02,0.29,0.03,0.51,0.03c0.63,0,1.21-0.23,1.21-0.92
				c0-0.64-0.55-0.91-1.22-0.91h-0.5V89.14z"/>
			<path class="st4" d="M96.55,88.11l-0.49,1.48h-0.63l1.6-4.72h0.74l1.61,4.72h-0.65l-0.5-1.48H96.55z M98.1,87.64l-0.46-1.36
				c-0.1-0.31-0.17-0.59-0.25-0.86h-0.01c-0.07,0.28-0.15,0.57-0.24,0.85l-0.46,1.37H98.1z"/>
			<path class="st4" d="M103.27,89.44c-0.22,0.11-0.67,0.22-1.25,0.22c-1.33,0-2.33-0.84-2.33-2.39c0-1.48,1-2.48,2.47-2.48
				c0.59,0,0.96,0.13,1.12,0.21l-0.15,0.5c-0.23-0.11-0.56-0.2-0.95-0.2c-1.11,0-1.84,0.71-1.84,1.95c0,1.16,0.67,1.9,1.81,1.9
				c0.37,0,0.75-0.08,0.99-0.2L103.27,89.44z"/>
			<path class="st4" d="M104.03,84.88h0.61v2.28h0.02c0.13-0.18,0.25-0.35,0.37-0.5l1.44-1.77h0.76l-1.71,2l1.84,2.72h-0.72
				l-1.55-2.32l-0.45,0.52v1.8h-0.61V84.88z"/>
		</g>
	</g>
	<g>
		<path class="st4" d="M158.33,118.44h-28.61c-1.51,0-2.74-1.23-2.74-2.74V94.44c0-1.51,1.23-2.74,2.74-2.74h28.61
			c1.51,0,2.74,1.23,2.74,2.74v21.26C161.07,117.21,159.84,118.44,158.33,118.44z"/>
		<g>
			<path class="st7" d="M135.02,115.32l-0.49,1.48h-0.63l1.6-4.72h0.74l1.61,4.72h-0.65l-0.5-1.48H135.02z M136.56,114.85
				l-0.46-1.36c-0.1-0.31-0.17-0.59-0.25-0.86h-0.01c-0.07,0.28-0.15,0.57-0.24,0.85l-0.46,1.37H136.56z"/>
			<path class="st7" d="M138.54,112.15c0.31-0.06,0.75-0.1,1.17-0.1c0.65,0,1.07,0.12,1.37,0.38c0.24,0.21,0.37,0.53,0.37,0.9
				c0,0.62-0.39,1.04-0.89,1.21v0.02c0.36,0.13,0.58,0.46,0.69,0.95c0.15,0.66,0.27,1.11,0.36,1.3h-0.63
				c-0.08-0.13-0.18-0.54-0.32-1.13c-0.14-0.65-0.39-0.9-0.95-0.92h-0.57v2.04h-0.61V112.15z M139.15,114.3h0.62
				c0.65,0,1.06-0.36,1.06-0.9c0-0.61-0.44-0.88-1.08-0.88c-0.29,0-0.5,0.03-0.6,0.06V114.3z"/>
			<path class="st7" d="M143.26,112.61h-1.44v-0.52h3.5v0.52h-1.44v4.2h-0.62V112.61z"/>
			<path class="st7" d="M146.45,112.09v4.72h-0.61v-4.72H146.45z"/>
			<path class="st7" d="M147.43,116.07c0.27,0.17,0.67,0.31,1.09,0.31c0.62,0,0.99-0.33,0.99-0.81c0-0.44-0.25-0.69-0.89-0.94
				c-0.77-0.27-1.25-0.67-1.25-1.34c0-0.74,0.61-1.28,1.53-1.28c0.48,0,0.83,0.11,1.04,0.23l-0.17,0.5
				c-0.15-0.08-0.47-0.22-0.9-0.22c-0.64,0-0.89,0.39-0.89,0.71c0,0.44,0.29,0.66,0.94,0.91c0.8,0.31,1.2,0.69,1.2,1.39
				c0,0.73-0.54,1.36-1.65,1.36c-0.46,0-0.95-0.13-1.21-0.3L147.43,116.07z"/>
			<path class="st7" d="M151.86,112.61h-1.44v-0.52h3.5v0.52h-1.44v4.2h-0.62V112.61z"/>
		</g>
		<path class="st5" d="M156.8,110.18h-25.55c-1.25,0-2.26-1.01-2.26-2.26V96.02c0-1.25,1.01-2.26,2.26-2.26h25.55
			c1.25,0,2.26,1.01,2.26,2.26v11.89C159.06,109.16,158.05,110.18,156.8,110.18z"/>
		<rect x="131.65" y="96.49" class="st6" width="24.33" height="11.05"/>
		<g>
			<path class="st4" d="M138.31,82.32l-0.49,1.48h-0.63l1.6-4.72h0.74l1.61,4.72h-0.65l-0.5-1.48H138.31z M139.86,81.85l-0.46-1.36
				c-0.1-0.31-0.17-0.59-0.25-0.86h-0.01c-0.07,0.28-0.15,0.57-0.24,0.85l-0.46,1.37H139.86z"/>
			<path class="st4" d="M141.83,79.15c0.37-0.06,0.81-0.1,1.3-0.1c0.88,0,1.5,0.2,1.91,0.59c0.42,0.39,0.67,0.93,0.67,1.7
				c0,0.77-0.24,1.4-0.68,1.83c-0.44,0.44-1.17,0.68-2.09,0.68c-0.43,0-0.8-0.02-1.11-0.06V79.15z M142.44,83.33
				c0.15,0.03,0.38,0.04,0.62,0.04c1.3,0,2.01-0.73,2.01-2c0.01-1.11-0.62-1.82-1.91-1.82c-0.32,0-0.55,0.03-0.71,0.06V83.33z"/>
			<path class="st4" d="M146.49,79.15c0.37-0.06,0.81-0.1,1.3-0.1c0.88,0,1.5,0.2,1.91,0.59c0.42,0.39,0.67,0.93,0.67,1.7
				c0,0.77-0.24,1.4-0.68,1.83c-0.44,0.44-1.17,0.68-2.09,0.68c-0.43,0-0.8-0.02-1.11-0.06V79.15z M147.1,83.33
				c0.15,0.03,0.38,0.04,0.62,0.04c1.3,0,2.01-0.73,2.01-2c0.01-1.11-0.62-1.82-1.91-1.82c-0.32,0-0.55,0.03-0.71,0.06V83.33z"/>
			<path class="st4" d="M131.57,85.14c0.29-0.05,0.68-0.09,1.17-0.09c0.6,0,1.04,0.14,1.32,0.39c0.26,0.22,0.41,0.57,0.41,0.99
				c0,0.43-0.13,0.76-0.36,1.01c-0.32,0.34-0.85,0.52-1.44,0.52c-0.18,0-0.35-0.01-0.49-0.04v1.89h-0.61V85.14z M132.18,87.42
				c0.13,0.04,0.3,0.05,0.5,0.05c0.74,0,1.18-0.36,1.18-1.01c0-0.62-0.44-0.92-1.11-0.92c-0.27,0-0.47,0.02-0.57,0.05V87.42z"/>
			<path class="st4" d="M135.29,85.15c0.31-0.06,0.75-0.1,1.17-0.1c0.65,0,1.07,0.12,1.37,0.38c0.24,0.21,0.37,0.53,0.37,0.9
				c0,0.62-0.39,1.04-0.89,1.21v0.02c0.36,0.13,0.58,0.46,0.69,0.95c0.15,0.66,0.27,1.11,0.36,1.3h-0.63
				c-0.08-0.13-0.18-0.54-0.32-1.13c-0.14-0.65-0.39-0.9-0.95-0.92h-0.57v2.04h-0.61V85.15z M135.9,87.3h0.62
				c0.65,0,1.06-0.36,1.06-0.9c0-0.61-0.44-0.88-1.08-0.88c-0.29,0-0.5,0.03-0.6,0.06V87.3z"/>
			<path class="st4" d="M141.5,87.6h-1.83v1.7h2.04v0.51h-2.65v-4.72h2.55v0.51h-1.94v1.49h1.83V87.6z"/>
			<path class="st4" d="M142.5,85.14c0.29-0.05,0.68-0.09,1.17-0.09c0.6,0,1.04,0.14,1.32,0.39c0.26,0.22,0.41,0.57,0.41,0.99
				c0,0.43-0.13,0.76-0.36,1.01c-0.32,0.34-0.85,0.52-1.44,0.52c-0.18,0-0.35-0.01-0.49-0.04v1.89h-0.61V85.14z M143.11,87.42
				c0.13,0.04,0.3,0.05,0.5,0.05c0.74,0,1.18-0.36,1.18-1.01c0-0.62-0.44-0.92-1.11-0.92c-0.27,0-0.47,0.02-0.57,0.05V87.42z"/>
			<path class="st4" d="M146.4,88.32l-0.49,1.48h-0.63l1.6-4.72h0.74l1.61,4.72h-0.65l-0.5-1.48H146.4z M147.95,87.85l-0.46-1.36
				c-0.1-0.31-0.17-0.59-0.25-0.86h-0.01c-0.07,0.28-0.15,0.57-0.24,0.85l-0.46,1.37H147.95z"/>
			<path class="st4" d="M149.92,85.15c0.31-0.06,0.75-0.1,1.17-0.1c0.65,0,1.07,0.12,1.37,0.38c0.24,0.21,0.37,0.53,0.37,0.9
				c0,0.62-0.39,1.04-0.89,1.21v0.02c0.36,0.13,0.58,0.46,0.69,0.95c0.15,0.66,0.27,1.11,0.36,1.3h-0.63
				c-0.08-0.13-0.18-0.54-0.32-1.13c-0.14-0.65-0.39-0.9-0.95-0.92h-0.57v2.04h-0.61V85.15z M150.53,87.3h0.62
				c0.65,0,1.06-0.36,1.06-0.9c0-0.61-0.44-0.88-1.08-0.88c-0.29,0-0.5,0.03-0.6,0.06V87.3z"/>
			<path class="st4" d="M156.13,87.6h-1.83v1.7h2.04v0.51h-2.65v-4.72h2.55v0.51h-1.94v1.49h1.83V87.6z"/>
		</g>
	</g>
	<line class="st8" x1="77.01" y1="130.03" x2="166.06" y2="130.03"/>
</g>
<g id="Ebene_1">
	<path class="st8" d="M247.52,651.28"/>
	<circle cx="31.62" cy="12.11" r="9.16"/>
	<g>
		<path class="st7" d="M31.52,8.47h-0.03L29.8,9.39l-0.25-1l2.13-1.14h1.13v9.75h-1.27V8.47z"/>
	</g>
	<circle cx="121.17" cy="12.83" r="9.16"/>
	<g>
		<path class="st7" d="M118.21,17.72v-0.81l1.04-1c2.49-2.37,3.61-3.63,3.63-5.1c0-0.99-0.48-1.9-1.94-1.9
			c-0.88,0-1.62,0.45-2.07,0.82l-0.42-0.93c0.67-0.57,1.63-0.99,2.76-0.99c2.1,0,2.98,1.44,2.98,2.83c0,1.8-1.3,3.25-3.36,5.24
			l-0.78,0.72v0.03h4.38v1.09H118.21z"/>
	</g>
	<circle cx="210.6" cy="12.83" r="9.16"/>
	<g>
		<path class="st7" d="M207.95,16.2c0.38,0.24,1.25,0.61,2.16,0.61c1.69,0,2.22-1.08,2.21-1.89c-0.02-1.37-1.25-1.95-2.52-1.95
			h-0.73v-0.99h0.73c0.96,0,2.17-0.5,2.17-1.65c0-0.78-0.5-1.47-1.71-1.47c-0.78,0-1.53,0.34-1.95,0.64l-0.35-0.96
			c0.51-0.38,1.5-0.75,2.55-0.75c1.92,0,2.79,1.14,2.79,2.33c0,1-0.6,1.86-1.8,2.29v0.03c1.2,0.24,2.17,1.14,2.17,2.5
			c0,1.56-1.21,2.92-3.55,2.92c-1.09,0-2.05-0.34-2.54-0.66L207.95,16.2z"/>
	</g>
	<circle cx="99.59" cy="133.89" r="9.16"/>
	<g>
		<path class="st7" d="M100.71,138.78v-2.66h-4.53v-0.87l4.35-6.23h1.43v6.06h1.36v1.03h-1.36v2.66H100.71z M100.71,135.09v-3.25
			c0-0.51,0.02-1.02,0.04-1.53h-0.04c-0.3,0.57-0.54,0.99-0.81,1.44l-2.38,3.32v0.03H100.71z"/>
	</g>
	<circle cx="146.38" cy="133.89" r="9.16"/>
	<g>
		<path class="st7" d="M149.24,130.14h-3.72l-0.38,2.5c0.22-0.03,0.43-0.06,0.79-0.06c0.75,0,1.5,0.17,2.1,0.52
			c0.76,0.44,1.4,1.28,1.4,2.5c0,1.91-1.52,3.33-3.63,3.33c-1.07,0-1.97-0.3-2.43-0.6l0.33-1.01c0.41,0.24,1.2,0.54,2.08,0.54
			c1.25,0,2.31-0.81,2.31-2.11c-0.02-1.26-0.86-2.16-2.81-2.16c-0.55,0-0.99,0.06-1.35,0.11l0.63-4.68h4.67V130.14z"/>
	</g>
</g>
</svg>
