<?xml version="1.0" encoding="utf-8"?>
<!-- Generator: Adobe Illustrator 23.1.0, SVG Export Plug-In . SVG Version: 6.00 Build 0)  -->
<svg version="1.1" id="Ebene_1" xmlns="http://www.w3.org/2000/svg" xmlns:xlink="http://www.w3.org/1999/xlink" x="0px" y="0px"
	 viewBox="0 0 1160.19 140.1" style="enable-background:new 0 0 1160.19 140.1;" xml:space="preserve">
<style type="text/css">
	.st0{fill:none;stroke:#1E1E1C;stroke-miterlimit:10;}
	.st1{fill:#020203;}
	.st2{fill:#282727;}
	.st3{fill:#FFFFFF;}
	.st4{fill:#6D6C6C;}
	.st5{fill:none;stroke:#FFFFFF;stroke-miterlimit:10;}
	.st6{fill:none;stroke:#1E1E1C;stroke-width:2;stroke-miterlimit:10;}
	.st7{fill:#231F20;}
</style>
<g>
	<rect x="392.08" y="59.29" class="st0" width="20" height="34.95"/>
	<g>
		<path class="st1" d="M402.65,50.96h-0.02l-0.9,0.49l-0.14-0.54l1.14-0.61h0.6v5.2h-0.68V50.96z"/>
	</g>
	<g>
		<path class="st1" d="M397.85,98.64c0.3-0.06,0.78-0.11,1.27-0.11c0.7,0,1.14,0.12,1.48,0.39c0.28,0.21,0.45,0.53,0.45,0.95
			c0,0.52-0.34,0.98-0.91,1.18v0.02c0.51,0.13,1.11,0.55,1.11,1.35c0,0.46-0.18,0.82-0.46,1.08c-0.38,0.34-0.98,0.5-1.86,0.5
			c-0.48,0-0.85-0.03-1.08-0.06V98.64z M398.55,100.85h0.63c0.74,0,1.17-0.38,1.17-0.9c0-0.63-0.48-0.88-1.18-0.88
			c-0.32,0-0.5,0.02-0.62,0.05V100.85z M398.55,103.43c0.14,0.02,0.34,0.03,0.58,0.03c0.72,0,1.38-0.26,1.38-1.05
			c0-0.74-0.63-1.04-1.39-1.04h-0.58V103.43z"/>
		<path class="st1" d="M402.19,98.64c0.42-0.06,0.93-0.11,1.48-0.11c1,0,1.71,0.23,2.18,0.67c0.48,0.44,0.76,1.06,0.76,1.94
			c0,0.88-0.27,1.6-0.78,2.09c-0.5,0.5-1.33,0.78-2.38,0.78c-0.5,0-0.91-0.02-1.26-0.06V98.64z M402.88,103.41
			c0.18,0.03,0.43,0.04,0.7,0.04c1.49,0,2.29-0.83,2.29-2.29c0.01-1.27-0.71-2.08-2.18-2.08c-0.36,0-0.63,0.03-0.82,0.07V103.41z"/>
	</g>
</g>
<g>
	<rect x="427.72" y="59.29" class="st0" width="20" height="34.95"/>
	<g>
		<path class="st1" d="M436.77,55.5v-0.43l0.55-0.54c1.33-1.26,1.93-1.94,1.93-2.72c0-0.53-0.26-1.02-1.03-1.02
			c-0.47,0-0.86,0.24-1.1,0.44l-0.22-0.5c0.36-0.3,0.87-0.53,1.47-0.53c1.12,0,1.59,0.77,1.59,1.51c0,0.96-0.7,1.73-1.79,2.79
			l-0.42,0.38v0.02h2.33v0.58H436.77z"/>
	</g>
	<g>
		<path class="st1" d="M433.6,103.11c0.31,0.19,0.77,0.35,1.25,0.35c0.71,0,1.13-0.38,1.13-0.92c0-0.5-0.29-0.79-1.02-1.07
			c-0.88-0.31-1.42-0.77-1.42-1.53c0-0.84,0.7-1.46,1.74-1.46c0.55,0,0.95,0.13,1.19,0.26l-0.19,0.57c-0.18-0.1-0.54-0.26-1.02-0.26
			c-0.74,0-1.02,0.44-1.02,0.81c0,0.5,0.33,0.75,1.07,1.04c0.91,0.35,1.38,0.79,1.38,1.58c0,0.83-0.62,1.55-1.89,1.55
			c-0.52,0-1.09-0.15-1.38-0.34L433.6,103.11z"/>
		<path class="st1" d="M437.64,98.64c0.42-0.06,0.93-0.11,1.48-0.11c1,0,1.71,0.23,2.18,0.67c0.48,0.44,0.76,1.06,0.76,1.94
			c0,0.88-0.27,1.6-0.78,2.09c-0.5,0.5-1.34,0.78-2.38,0.78c-0.5,0-0.91-0.02-1.26-0.06V98.64z M438.33,103.41
			c0.18,0.03,0.43,0.04,0.7,0.04c1.49,0,2.29-0.83,2.29-2.29c0.01-1.27-0.71-2.08-2.18-2.08c-0.36,0-0.63,0.03-0.82,0.07V103.41z"/>
	</g>
</g>
<g>
	<rect x="463.37" y="59.29" class="st0" width="20" height="34.95"/>
	<g>
		<path class="st1" d="M472.58,54.69c0.2,0.13,0.66,0.33,1.15,0.33c0.9,0,1.18-0.58,1.18-1.01c-0.01-0.73-0.66-1.04-1.34-1.04h-0.39
			v-0.53h0.39c0.51,0,1.16-0.26,1.16-0.88c0-0.42-0.26-0.78-0.91-0.78c-0.42,0-0.82,0.18-1.04,0.34l-0.18-0.51
			c0.27-0.2,0.8-0.4,1.36-0.4c1.02,0,1.49,0.61,1.49,1.24c0,0.54-0.32,0.99-0.96,1.22v0.02c0.64,0.13,1.16,0.61,1.16,1.34
			c0,0.83-0.65,1.56-1.9,1.56c-0.58,0-1.09-0.18-1.35-0.35L472.58,54.69z"/>
	</g>
	<g>
		<path class="st1" d="M472.76,103.79c-0.26,0.13-0.77,0.26-1.42,0.26c-1.52,0-2.66-0.96-2.66-2.73c0-1.69,1.14-2.83,2.81-2.83
			c0.67,0,1.1,0.14,1.28,0.24l-0.17,0.57c-0.26-0.13-0.64-0.22-1.09-0.22c-1.26,0-2.1,0.81-2.1,2.22c0,1.32,0.76,2.17,2.07,2.17
			c0.42,0,0.86-0.09,1.13-0.22L472.76,103.79z"/>
		<path class="st1" d="M473.63,98.64c0.42-0.06,0.93-0.11,1.48-0.11c1,0,1.71,0.23,2.18,0.67c0.48,0.44,0.76,1.06,0.76,1.94
			c0,0.88-0.27,1.6-0.78,2.09c-0.5,0.5-1.33,0.78-2.38,0.78c-0.5,0-0.91-0.02-1.26-0.06V98.64z M474.33,103.41
			c0.18,0.03,0.43,0.04,0.7,0.04c1.49,0,2.29-0.83,2.29-2.29c0.01-1.27-0.71-2.08-2.18-2.08c-0.36,0-0.63,0.03-0.82,0.07V103.41z"/>
	</g>
</g>
<g>
	<rect x="499.01" y="59.29" class="st0" width="20" height="34.95"/>
	<g>
		<path class="st1" d="M510.23,55.5v-1.42h-2.41v-0.46l2.32-3.32h0.76v3.23h0.73v0.55h-0.73v1.42H510.23z M510.23,53.53V51.8
			c0-0.27,0.01-0.54,0.02-0.82h-0.02c-0.16,0.3-0.29,0.53-0.43,0.77l-1.27,1.77v0.02H510.23z"/>
	</g>
	<g>
		<path class="st1" d="M508.86,101.21c0,1.85-1.13,2.84-2.5,2.84c-1.42,0-2.42-1.1-2.42-2.73c0-1.71,1.06-2.83,2.5-2.83
			C507.91,98.48,508.86,99.61,508.86,101.21z M504.68,101.3c0,1.15,0.62,2.18,1.72,2.18c1.1,0,1.73-1.02,1.73-2.24
			c0-1.07-0.56-2.19-1.72-2.19C505.26,99.05,504.68,100.12,504.68,101.3z"/>
		<path class="st1" d="M510.46,98.57v2.25h2.61v-2.25h0.7v5.39h-0.7v-2.53h-2.61v2.53h-0.7v-5.39H510.46z"/>
	</g>
</g>
<g>
	<rect x="534.66" y="59.29" class="st0" width="20" height="34.95"/>
	<g>
		<path class="st1" d="M546.81,50.89h-1.98l-0.2,1.34c0.12-0.02,0.23-0.03,0.42-0.03c0.4,0,0.8,0.09,1.12,0.28
			c0.41,0.23,0.74,0.68,0.74,1.34c0,1.02-0.81,1.77-1.93,1.77c-0.57,0-1.05-0.16-1.29-0.32l0.18-0.54c0.22,0.13,0.64,0.29,1.11,0.29
			c0.66,0,1.23-0.43,1.23-1.13c-0.01-0.67-0.46-1.15-1.5-1.15c-0.3,0-0.53,0.03-0.72,0.06l0.34-2.49h2.49V50.89z"/>
	</g>
	<g>
		<path class="st1" d="M541.74,98.57h0.7v4.81h2.3v0.58h-3V98.57z"/>
		<path class="st1" d="M545.84,99.16h-1.64v-0.59h3.99v0.59h-1.65v4.8h-0.7V99.16z"/>
	</g>
</g>
<g>
	<rect x="570.3" y="59.29" class="st0" width="20" height="34.95"/>
	<g>
		<path class="st1" d="M582.32,50.8c-0.14-0.01-0.33,0-0.53,0.03c-1.1,0.18-1.69,0.99-1.81,1.85h0.02c0.25-0.33,0.68-0.6,1.26-0.6
			c0.92,0,1.57,0.66,1.57,1.68c0,0.95-0.65,1.83-1.73,1.83c-1.11,0-1.84-0.86-1.84-2.21c0-1.02,0.37-1.83,0.88-2.34
			c0.43-0.42,1.01-0.69,1.66-0.77c0.21-0.03,0.38-0.04,0.51-0.04V50.8z M582.12,53.8c0-0.74-0.42-1.19-1.07-1.19
			c-0.42,0-0.82,0.26-1.01,0.64c-0.05,0.08-0.08,0.18-0.08,0.31c0.02,0.86,0.41,1.49,1.14,1.49
			C581.71,55.04,582.12,54.54,582.12,53.8z"/>
	</g>
	<g>
		<path class="st1" d="M576.68,98.57v2.25h2.61v-2.25h0.7v5.39h-0.7v-2.53h-2.61v2.53h-0.7v-5.39H576.68z"/>
		<path class="st1" d="M584.97,103.79c-0.26,0.13-0.77,0.26-1.42,0.26c-1.52,0-2.66-0.96-2.66-2.73c0-1.69,1.14-2.83,2.81-2.83
			c0.67,0,1.1,0.14,1.28,0.24l-0.17,0.57c-0.26-0.13-0.64-0.22-1.09-0.22c-1.26,0-2.1,0.81-2.1,2.22c0,1.32,0.76,2.17,2.07,2.17
			c0.42,0,0.86-0.09,1.13-0.22L584.97,103.79z"/>
	</g>
</g>
<g>
	<rect x="605.95" y="59.29" class="st0" width="20" height="34.95"/>
	<g>
		<path class="st1" d="M618.37,50.3v0.46l-2.26,4.73h-0.73l2.25-4.6v-0.02h-2.54V50.3H618.37z"/>
	</g>
	<g>
		<path class="st1" d="M612.43,98.64c0.35-0.07,0.86-0.11,1.33-0.11c0.74,0,1.22,0.14,1.56,0.44c0.27,0.24,0.42,0.61,0.42,1.02
			c0,0.71-0.45,1.18-1.02,1.38v0.02c0.42,0.14,0.66,0.53,0.79,1.09c0.18,0.75,0.3,1.27,0.42,1.48h-0.72
			c-0.09-0.15-0.21-0.62-0.36-1.29c-0.16-0.74-0.45-1.02-1.08-1.05h-0.66v2.33h-0.7V98.64z M613.13,101.1h0.71
			c0.74,0,1.21-0.41,1.21-1.02c0-0.7-0.5-1-1.24-1.01c-0.33,0-0.58,0.03-0.69,0.06V101.1z"/>
		<path class="st1" d="M616.64,103.11c0.31,0.19,0.77,0.35,1.25,0.35c0.71,0,1.13-0.38,1.13-0.92c0-0.5-0.29-0.79-1.02-1.07
			c-0.88-0.31-1.42-0.77-1.42-1.53c0-0.84,0.7-1.46,1.74-1.46c0.55,0,0.95,0.13,1.19,0.26l-0.19,0.57c-0.18-0.1-0.54-0.26-1.02-0.26
			c-0.74,0-1.02,0.44-1.02,0.81c0,0.5,0.33,0.75,1.07,1.04c0.91,0.35,1.38,0.79,1.38,1.58c0,0.83-0.62,1.55-1.89,1.55
			c-0.52,0-1.09-0.15-1.38-0.34L616.64,103.11z"/>
	</g>
</g>
<g>
	<rect x="641.6" y="59.29" class="st0" width="20" height="34.95"/>
	<g>
		<path class="st1" d="M650.58,54.18c0-0.66,0.39-1.12,1.03-1.39l-0.01-0.02c-0.58-0.27-0.82-0.72-0.82-1.17
			c0-0.82,0.7-1.38,1.61-1.38c1.01,0,1.51,0.63,1.51,1.28c0,0.44-0.22,0.91-0.86,1.22v0.02c0.65,0.26,1.05,0.71,1.05,1.34
			c0,0.9-0.78,1.51-1.77,1.51C651.23,55.59,650.58,54.94,650.58,54.18z M653.38,54.15c0-0.63-0.44-0.94-1.14-1.14
			c-0.61,0.18-0.94,0.58-0.94,1.07c-0.02,0.53,0.38,0.99,1.04,0.99C652.97,55.08,653.38,54.68,653.38,54.15z M651.44,51.55
			c0,0.52,0.39,0.8,0.99,0.96c0.45-0.15,0.79-0.47,0.79-0.94c0-0.42-0.25-0.85-0.88-0.85C651.76,50.72,651.44,51.1,651.44,51.55z"/>
	</g>
	<g>
		<path class="st1" d="M647.72,98.64c0.35-0.07,0.86-0.11,1.34-0.11c0.74,0,1.22,0.14,1.56,0.44c0.27,0.24,0.42,0.61,0.42,1.02
			c0,0.71-0.45,1.18-1.02,1.38v0.02c0.42,0.14,0.66,0.53,0.79,1.09c0.18,0.75,0.3,1.27,0.42,1.48h-0.72
			c-0.09-0.15-0.21-0.62-0.36-1.29c-0.16-0.74-0.45-1.02-1.08-1.05h-0.66v2.33h-0.7V98.64z M648.42,101.1h0.71
			c0.74,0,1.22-0.41,1.22-1.02c0-0.7-0.5-1-1.24-1.01c-0.34,0-0.58,0.03-0.69,0.06V101.1z"/>
		<path class="st1" d="M655.81,103.79c-0.26,0.13-0.77,0.26-1.42,0.26c-1.52,0-2.66-0.96-2.66-2.73c0-1.69,1.14-2.83,2.81-2.83
			c0.67,0,1.1,0.14,1.28,0.24l-0.17,0.57c-0.26-0.13-0.64-0.22-1.09-0.22c-1.26,0-2.1,0.81-2.1,2.22c0,1.32,0.76,2.17,2.07,2.17
			c0.42,0,0.86-0.09,1.13-0.22L655.81,103.79z"/>
	</g>
</g>
<g>
	<rect x="677.24" y="59.29" class="st0" width="20" height="34.95"/>
	<g>
		<path class="st1" d="M686.7,55c0.15,0.02,0.33,0,0.57-0.02c0.41-0.06,0.79-0.22,1.09-0.5c0.34-0.31,0.59-0.77,0.69-1.38h-0.02
			c-0.29,0.35-0.7,0.56-1.22,0.56c-0.94,0-1.54-0.7-1.54-1.59c0-0.98,0.71-1.85,1.78-1.85s1.72,0.86,1.72,2.19
			c0,1.14-0.38,1.94-0.9,2.44c-0.4,0.39-0.95,0.63-1.51,0.7c-0.26,0.04-0.48,0.05-0.65,0.04V55z M686.95,52.01
			c0,0.65,0.39,1.1,1,1.1c0.47,0,0.84-0.23,1.02-0.54c0.04-0.06,0.06-0.14,0.06-0.26c0-0.89-0.33-1.57-1.06-1.57
			C687.37,50.75,686.95,51.28,686.95,52.01z"/>
	</g>
	<g>
		<path class="st1" d="M683.73,103.11c0.31,0.19,0.77,0.35,1.25,0.35c0.71,0,1.13-0.38,1.13-0.92c0-0.5-0.29-0.79-1.02-1.07
			c-0.88-0.31-1.42-0.77-1.42-1.53c0-0.84,0.7-1.46,1.74-1.46c0.55,0,0.95,0.13,1.19,0.26l-0.19,0.57c-0.18-0.1-0.54-0.26-1.02-0.26
			c-0.74,0-1.02,0.44-1.02,0.81c0,0.5,0.33,0.75,1.07,1.04c0.91,0.35,1.38,0.79,1.38,1.58c0,0.83-0.62,1.55-1.89,1.55
			c-0.52,0-1.09-0.15-1.38-0.34L683.73,103.11z"/>
		<path class="st1" d="M689.05,99.42h-0.02l-0.9,0.49l-0.14-0.54l1.14-0.61h0.6v5.2h-0.68V99.42z"/>
	</g>
</g>
<g>
	<rect x="712.89" y="59.29" class="st0" width="20" height="34.95"/>
	<g>
		<path class="st1" d="M721.41,50.96h-0.02l-0.9,0.49l-0.14-0.54l1.13-0.61h0.6v5.2h-0.68V50.96z"/>
		<path class="st1" d="M727.44,52.85c0,1.77-0.66,2.74-1.81,2.74c-1.02,0-1.7-0.95-1.72-2.67c0-1.74,0.75-2.7,1.81-2.7
			C726.82,50.21,727.44,51.19,727.44,52.85z M724.62,52.93c0,1.35,0.42,2.12,1.06,2.12c0.72,0,1.06-0.84,1.06-2.17
			c0-1.28-0.33-2.12-1.06-2.12C725.06,50.76,724.62,51.51,724.62,52.93z"/>
	</g>
	<g>
		<path class="st1" d="M719.38,103.11c0.31,0.19,0.77,0.35,1.25,0.35c0.71,0,1.13-0.38,1.13-0.92c0-0.5-0.29-0.79-1.01-1.07
			c-0.88-0.31-1.42-0.77-1.42-1.53c0-0.84,0.7-1.46,1.74-1.46c0.55,0,0.95,0.13,1.19,0.26l-0.19,0.57c-0.18-0.1-0.54-0.26-1.02-0.26
			c-0.74,0-1.02,0.44-1.02,0.81c0,0.5,0.33,0.75,1.07,1.04c0.91,0.35,1.38,0.79,1.38,1.58c0,0.83-0.62,1.55-1.89,1.55
			c-0.52,0-1.09-0.15-1.38-0.34L719.38,103.11z"/>
		<path class="st1" d="M723.17,103.96v-0.43l0.55-0.54c1.33-1.26,1.93-1.94,1.93-2.72c0-0.53-0.26-1.02-1.03-1.02
			c-0.47,0-0.86,0.24-1.1,0.44l-0.22-0.5c0.36-0.3,0.87-0.53,1.47-0.53c1.12,0,1.59,0.77,1.59,1.51c0,0.96-0.7,1.73-1.79,2.79
			l-0.42,0.38v0.02h2.33v0.58H723.17z"/>
	</g>
</g>
<g>
	<rect x="748.53" y="59.29" class="st0" width="20" height="34.95"/>
	<g>
		<path class="st1" d="M757.05,50.96h-0.02l-0.9,0.49L756,50.91l1.13-0.61h0.6v5.2h-0.68V50.96z"/>
		<path class="st1" d="M761.16,50.96h-0.02l-0.9,0.49l-0.14-0.54l1.14-0.61h0.6v5.2h-0.68V50.96z"/>
	</g>
	<g>
		<path class="st1" d="M755.02,103.11c0.31,0.19,0.77,0.35,1.25,0.35c0.71,0,1.13-0.38,1.13-0.92c0-0.5-0.29-0.79-1.01-1.07
			c-0.88-0.31-1.42-0.77-1.42-1.53c0-0.84,0.7-1.46,1.74-1.46c0.55,0,0.95,0.13,1.19,0.26l-0.19,0.57c-0.18-0.1-0.54-0.26-1.02-0.26
			c-0.74,0-1.02,0.44-1.02,0.81c0,0.5,0.33,0.75,1.07,1.04c0.91,0.35,1.38,0.79,1.38,1.58c0,0.83-0.62,1.55-1.89,1.55
			c-0.52,0-1.09-0.15-1.38-0.34L755.02,103.11z"/>
		<path class="st1" d="M758.98,103.15c0.2,0.13,0.66,0.33,1.15,0.33c0.9,0,1.18-0.58,1.17-1.01c-0.01-0.73-0.66-1.04-1.34-1.04
			h-0.39v-0.53h0.39c0.51,0,1.16-0.26,1.16-0.88c0-0.42-0.26-0.78-0.91-0.78c-0.42,0-0.82,0.18-1.04,0.34l-0.18-0.51
			c0.27-0.2,0.8-0.4,1.36-0.4c1.02,0,1.49,0.61,1.49,1.24c0,0.54-0.32,0.99-0.96,1.22v0.02c0.64,0.13,1.16,0.61,1.16,1.34
			c0,0.83-0.65,1.56-1.89,1.56c-0.58,0-1.1-0.18-1.35-0.35L758.98,103.15z"/>
	</g>
</g>
<g>
	<rect x="784.18" y="59.29" class="st0" width="20" height="34.95"/>
	<g>
		<path class="st1" d="M792.7,50.96h-0.02l-0.9,0.49l-0.14-0.54l1.14-0.61h0.6v5.2h-0.68V50.96z"/>
		<path class="st1" d="M795.28,55.5v-0.43l0.55-0.54c1.33-1.26,1.93-1.94,1.93-2.72c0-0.53-0.26-1.02-1.03-1.02
			c-0.47,0-0.86,0.24-1.1,0.44l-0.22-0.5c0.36-0.3,0.87-0.53,1.47-0.53c1.12,0,1.59,0.77,1.59,1.51c0,0.96-0.7,1.73-1.79,2.79
			l-0.42,0.38v0.02h2.33v0.58H795.28z"/>
	</g>
	<g>
		<path class="st1" d="M790.67,103.11c0.31,0.19,0.77,0.35,1.25,0.35c0.71,0,1.13-0.38,1.13-0.92c0-0.5-0.29-0.79-1.01-1.07
			c-0.88-0.31-1.42-0.77-1.42-1.53c0-0.84,0.7-1.46,1.74-1.46c0.55,0,0.95,0.13,1.19,0.26l-0.19,0.57c-0.18-0.1-0.54-0.26-1.02-0.26
			c-0.74,0-1.02,0.44-1.02,0.81c0,0.5,0.33,0.75,1.07,1.04c0.91,0.35,1.38,0.79,1.38,1.58c0,0.83-0.62,1.55-1.89,1.55
			c-0.52,0-1.09-0.15-1.38-0.34L790.67,103.11z"/>
		<path class="st1" d="M796.63,103.96v-1.42h-2.42v-0.46l2.32-3.32h0.76v3.23h0.73v0.55h-0.73v1.42H796.63z M796.63,101.99v-1.74
			c0-0.27,0.01-0.54,0.02-0.82h-0.02c-0.16,0.3-0.29,0.53-0.43,0.77l-1.27,1.77v0.02H796.63z"/>
	</g>
</g>
<g>
	<rect x="819.82" y="59.29" class="st0" width="20" height="34.95"/>
	<g>
		<path class="st1" d="M828.34,50.96h-0.02l-0.9,0.49l-0.14-0.54l1.14-0.61h0.6v5.2h-0.68V50.96z"/>
		<path class="st1" d="M831.09,54.69c0.2,0.13,0.66,0.33,1.15,0.33c0.9,0,1.18-0.58,1.17-1.01c-0.01-0.73-0.66-1.04-1.34-1.04h-0.39
			v-0.53h0.39c0.51,0,1.16-0.26,1.16-0.88c0-0.42-0.26-0.78-0.91-0.78c-0.42,0-0.82,0.18-1.04,0.34l-0.18-0.51
			c0.27-0.2,0.8-0.4,1.36-0.4c1.02,0,1.49,0.61,1.49,1.24c0,0.54-0.32,0.99-0.96,1.22v0.02c0.64,0.13,1.16,0.61,1.16,1.34
			c0,0.83-0.65,1.56-1.89,1.56c-0.58,0-1.1-0.18-1.35-0.35L831.09,54.69z"/>
	</g>
	<g>
		<path class="st1" d="M826.31,103.11c0.31,0.19,0.77,0.35,1.25,0.35c0.71,0,1.13-0.38,1.13-0.92c0-0.5-0.29-0.79-1.02-1.07
			c-0.88-0.31-1.42-0.77-1.42-1.53c0-0.84,0.7-1.46,1.74-1.46c0.55,0,0.95,0.13,1.19,0.26l-0.19,0.57c-0.18-0.1-0.54-0.26-1.02-0.26
			c-0.74,0-1.02,0.44-1.02,0.81c0,0.5,0.33,0.75,1.07,1.04c0.91,0.35,1.38,0.79,1.38,1.58c0,0.83-0.62,1.55-1.89,1.55
			c-0.52,0-1.09-0.15-1.38-0.34L826.31,103.11z"/>
		<path class="st1" d="M833.21,99.36h-1.98l-0.2,1.34c0.12-0.02,0.23-0.03,0.42-0.03c0.4,0,0.8,0.09,1.12,0.28
			c0.41,0.23,0.74,0.68,0.74,1.34c0,1.02-0.81,1.77-1.93,1.77c-0.57,0-1.05-0.16-1.29-0.32l0.18-0.54c0.22,0.13,0.64,0.29,1.11,0.29
			c0.66,0,1.23-0.43,1.23-1.13c-0.01-0.67-0.46-1.15-1.5-1.15c-0.3,0-0.53,0.03-0.72,0.06l0.34-2.49h2.49V99.36z"/>
	</g>
</g>
<g>
	<rect x="855.47" y="59.29" class="st0" width="20" height="34.95"/>
	<g>
		<path class="st1" d="M863.99,50.96h-0.02l-0.9,0.49l-0.14-0.54l1.14-0.61h0.6v5.2h-0.68V50.96z"/>
		<path class="st1" d="M868.74,55.5v-1.42h-2.42v-0.46l2.32-3.32h0.76v3.23h0.73v0.55h-0.73v1.42H868.74z M868.74,53.53V51.8
			c0-0.27,0.01-0.54,0.02-0.82h-0.02c-0.16,0.3-0.29,0.53-0.43,0.77l-1.27,1.77v0.02H868.74z"/>
	</g>
	<g>
		<path class="st1" d="M861.96,103.11c0.31,0.19,0.77,0.35,1.25,0.35c0.71,0,1.13-0.38,1.13-0.92c0-0.5-0.29-0.79-1.02-1.07
			c-0.88-0.31-1.42-0.77-1.42-1.53c0-0.84,0.7-1.46,1.74-1.46c0.55,0,0.95,0.13,1.19,0.26l-0.19,0.57c-0.18-0.1-0.54-0.26-1.02-0.26
			c-0.74,0-1.02,0.44-1.02,0.81c0,0.5,0.33,0.75,1.07,1.04c0.91,0.35,1.38,0.79,1.38,1.58c0,0.83-0.62,1.55-1.89,1.55
			c-0.52,0-1.09-0.15-1.38-0.34L861.96,103.11z"/>
		<path class="st1" d="M868.72,99.26c-0.14-0.01-0.33,0-0.53,0.03c-1.1,0.18-1.69,0.99-1.81,1.85h0.02c0.25-0.33,0.68-0.6,1.25-0.6
			c0.92,0,1.57,0.66,1.57,1.68c0,0.95-0.65,1.83-1.73,1.83c-1.11,0-1.84-0.86-1.84-2.21c0-1.02,0.37-1.83,0.88-2.34
			c0.43-0.42,1.01-0.69,1.66-0.77c0.21-0.03,0.38-0.04,0.51-0.04V99.26z M868.52,102.26c0-0.74-0.42-1.19-1.07-1.19
			c-0.42,0-0.82,0.26-1.01,0.64c-0.05,0.08-0.08,0.18-0.08,0.31c0.02,0.86,0.41,1.49,1.14,1.49
			C868.11,103.51,868.52,103,868.52,102.26z"/>
	</g>
</g>
<g>
	<rect x="891.12" y="59.29" class="st0" width="20" height="34.95"/>
	<g>
		<path class="st1" d="M899.64,50.96h-0.02l-0.9,0.49l-0.14-0.54l1.13-0.61h0.6v5.2h-0.68V50.96z"/>
		<path class="st1" d="M905.32,50.89h-1.98l-0.2,1.34c0.12-0.02,0.23-0.03,0.42-0.03c0.4,0,0.8,0.09,1.12,0.28
			c0.41,0.23,0.74,0.68,0.74,1.34c0,1.02-0.81,1.77-1.93,1.77c-0.57,0-1.05-0.16-1.29-0.32l0.18-0.54c0.22,0.13,0.64,0.29,1.11,0.29
			c0.66,0,1.23-0.43,1.23-1.13c-0.01-0.67-0.46-1.15-1.5-1.15c-0.3,0-0.53,0.03-0.72,0.06l0.34-2.49h2.49V50.89z"/>
	</g>
	<g>
		<path class="st1" d="M897.6,103.11c0.31,0.19,0.77,0.35,1.25,0.35c0.71,0,1.13-0.38,1.13-0.92c0-0.5-0.29-0.79-1.02-1.07
			c-0.88-0.31-1.42-0.77-1.42-1.53c0-0.84,0.7-1.46,1.74-1.46c0.55,0,0.95,0.13,1.19,0.26l-0.19,0.57c-0.18-0.1-0.54-0.26-1.02-0.26
			c-0.74,0-1.02,0.44-1.02,0.81c0,0.5,0.33,0.75,1.07,1.04c0.91,0.35,1.38,0.79,1.38,1.58c0,0.83-0.62,1.55-1.89,1.55
			c-0.52,0-1.09-0.15-1.38-0.34L897.6,103.11z"/>
		<path class="st1" d="M904.77,98.76v0.46l-2.26,4.73h-0.73l2.25-4.6v-0.02h-2.54v-0.58H904.77z"/>
	</g>
</g>
<g>
	<rect x="926.76" y="59.29" class="st0" width="20" height="34.95"/>
	<g>
		<path class="st1" d="M935.28,50.96h-0.02l-0.9,0.49l-0.14-0.54l1.13-0.61h0.6v5.2h-0.68V50.96z"/>
		<path class="st1" d="M940.83,50.8c-0.14-0.01-0.33,0-0.53,0.03c-1.1,0.18-1.69,0.99-1.81,1.85h0.02c0.25-0.33,0.68-0.6,1.25-0.6
			c0.92,0,1.57,0.66,1.57,1.68c0,0.95-0.65,1.83-1.73,1.83c-1.11,0-1.84-0.86-1.84-2.21c0-1.02,0.37-1.83,0.88-2.34
			c0.43-0.42,1.01-0.69,1.66-0.77c0.21-0.03,0.38-0.04,0.51-0.04V50.8z M940.62,53.8c0-0.74-0.42-1.19-1.07-1.19
			c-0.42,0-0.82,0.26-1.01,0.64c-0.05,0.08-0.08,0.18-0.08,0.31c0.02,0.86,0.41,1.49,1.14,1.49
			C940.22,55.04,940.62,54.54,940.62,53.8z"/>
	</g>
	<g>
		<path class="st1" d="M933.25,103.11c0.31,0.19,0.77,0.35,1.25,0.35c0.71,0,1.13-0.38,1.13-0.92c0-0.5-0.29-0.79-1.01-1.07
			c-0.88-0.31-1.42-0.77-1.42-1.53c0-0.84,0.7-1.46,1.74-1.46c0.55,0,0.95,0.13,1.19,0.26l-0.19,0.57c-0.18-0.1-0.54-0.26-1.02-0.26
			c-0.74,0-1.02,0.44-1.02,0.81c0,0.5,0.33,0.75,1.07,1.04c0.91,0.35,1.38,0.79,1.38,1.58c0,0.83-0.62,1.55-1.89,1.55
			c-0.52,0-1.09-0.15-1.38-0.34L933.25,103.11z"/>
		<path class="st1" d="M936.98,102.64c0-0.66,0.39-1.12,1.03-1.39l-0.01-0.02c-0.58-0.27-0.82-0.72-0.82-1.17
			c0-0.82,0.7-1.38,1.61-1.38c1.01,0,1.51,0.63,1.51,1.28c0,0.44-0.22,0.91-0.86,1.22v0.02c0.65,0.26,1.05,0.71,1.05,1.34
			c0,0.9-0.78,1.51-1.77,1.51C937.63,104.05,936.98,103.4,936.98,102.64z M939.78,102.61c0-0.63-0.44-0.94-1.14-1.14
			c-0.61,0.18-0.94,0.58-0.94,1.07c-0.02,0.53,0.38,0.99,1.04,0.99C939.37,103.54,939.78,103.15,939.78,102.61z M937.84,100.01
			c0,0.52,0.39,0.8,0.99,0.96c0.45-0.15,0.79-0.47,0.79-0.94c0-0.42-0.25-0.85-0.88-0.85C938.16,99.18,937.84,99.56,937.84,100.01z"
			/>
	</g>
</g>
<line class="st0" x1="392.08" y1="106.66" x2="661.6" y2="106.97"/>
<line class="st0" x1="677.24" y1="106.82" x2="946.76" y2="106.82"/>
<g>
	<path class="st1" d="M524.3,110.97h-1.64v-0.59h3.99v0.59h-1.65v4.8h-0.7V110.97z"/>
	<path class="st1" d="M527.26,110.45c0.35-0.07,0.86-0.11,1.34-0.11c0.74,0,1.22,0.14,1.56,0.44c0.27,0.24,0.42,0.61,0.42,1.02
		c0,0.71-0.45,1.18-1.02,1.38v0.02c0.42,0.14,0.66,0.53,0.79,1.09c0.18,0.75,0.3,1.27,0.42,1.48h-0.72
		c-0.09-0.15-0.21-0.62-0.36-1.29c-0.16-0.74-0.45-1.02-1.08-1.05h-0.66v2.33h-0.7V110.45z M527.95,112.9h0.71
		c0.74,0,1.22-0.41,1.22-1.02c0-0.7-0.5-1-1.24-1.01c-0.34,0-0.58,0.03-0.69,0.06V112.9z"/>
</g>
<g>
	<path class="st1" d="M783.2,114.92c0.31,0.19,0.77,0.35,1.25,0.35c0.71,0,1.13-0.38,1.13-0.92c0-0.5-0.29-0.79-1.02-1.07
		c-0.88-0.31-1.42-0.77-1.42-1.53c0-0.84,0.7-1.46,1.74-1.46c0.55,0,0.95,0.13,1.19,0.26l-0.19,0.57c-0.18-0.1-0.54-0.26-1.02-0.26
		c-0.74,0-1.02,0.44-1.02,0.81c0,0.5,0.33,0.75,1.07,1.04c0.91,0.35,1.38,0.79,1.38,1.58c0,0.83-0.62,1.55-1.89,1.55
		c-0.52,0-1.09-0.15-1.38-0.34L783.2,114.92z"/>
	<path class="st1" d="M790.03,113.24h-2.09v1.94h2.33v0.58h-3.03v-5.39h2.91v0.58h-2.21v1.7h2.09V113.24z"/>
	<path class="st1" d="M791.17,110.45c0.35-0.07,0.86-0.11,1.34-0.11c0.74,0,1.22,0.14,1.56,0.44c0.27,0.24,0.42,0.61,0.42,1.02
		c0,0.71-0.45,1.18-1.02,1.38v0.02c0.42,0.14,0.66,0.53,0.79,1.09c0.18,0.75,0.3,1.27,0.42,1.48h-0.72
		c-0.09-0.15-0.21-0.62-0.36-1.29c-0.16-0.74-0.45-1.02-1.08-1.05h-0.66v2.33h-0.7V110.45z M791.87,112.9h0.71
		c0.74,0,1.22-0.41,1.22-1.02c0-0.7-0.5-1-1.24-1.01c-0.34,0-0.58,0.03-0.69,0.06V112.9z"/>
	<path class="st1" d="M796.39,114.07l-0.56,1.69h-0.72l1.83-5.39h0.84l1.84,5.39h-0.74l-0.58-1.69H796.39z M798.16,113.52
		l-0.53-1.55c-0.12-0.35-0.2-0.67-0.28-0.98h-0.02c-0.08,0.32-0.17,0.65-0.27,0.98l-0.53,1.56H798.16z"/>
	<path class="st1" d="M800.82,110.97h-1.64v-0.59h3.99v0.59h-1.65v4.8h-0.7V110.97z"/>
	<path class="st1" d="M808.16,113.01c0,1.85-1.13,2.84-2.5,2.84c-1.42,0-2.42-1.1-2.42-2.73c0-1.71,1.06-2.83,2.5-2.83
		C807.21,110.29,808.16,111.41,808.16,113.01z M803.98,113.1c0,1.15,0.62,2.18,1.72,2.18c1.1,0,1.73-1.02,1.73-2.24
		c0-1.07-0.56-2.19-1.72-2.19C804.56,110.85,803.98,111.92,803.98,113.1z"/>
	<path class="st1" d="M810.67,114.92c0.31,0.19,0.77,0.35,1.25,0.35c0.71,0,1.13-0.38,1.13-0.92c0-0.5-0.29-0.79-1.02-1.07
		c-0.88-0.31-1.42-0.77-1.42-1.53c0-0.84,0.7-1.46,1.74-1.46c0.55,0,0.95,0.13,1.19,0.26l-0.19,0.57c-0.18-0.1-0.54-0.26-1.02-0.26
		c-0.74,0-1.02,0.44-1.02,0.81c0,0.5,0.33,0.75,1.07,1.04c0.91,0.35,1.38,0.79,1.38,1.58c0,0.83-0.62,1.55-1.89,1.55
		c-0.52,0-1.09-0.15-1.38-0.34L810.67,114.92z"/>
	<path class="st1" d="M815.58,114.07l-0.56,1.69h-0.72l1.83-5.39h0.84l1.84,5.39h-0.74l-0.58-1.69H815.58z M817.35,113.52
		l-0.53-1.55c-0.12-0.35-0.2-0.67-0.28-0.98h-0.02c-0.08,0.32-0.17,0.65-0.27,0.98l-0.53,1.56H817.35z"/>
	<path class="st1" d="M824.12,113.4c-0.04-0.75-0.09-1.66-0.08-2.33h-0.02c-0.18,0.63-0.41,1.3-0.68,2.05l-0.95,2.61h-0.53
		l-0.87-2.57c-0.26-0.76-0.47-1.46-0.62-2.09h-0.02c-0.02,0.67-0.06,1.58-0.1,2.38l-0.14,2.31h-0.66l0.38-5.39h0.89l0.92,2.61
		c0.22,0.66,0.41,1.26,0.54,1.82h0.02c0.14-0.54,0.33-1.14,0.57-1.82l0.96-2.61h0.89l0.34,5.39h-0.68L824.12,113.4z"/>
	<path class="st1" d="M826.01,110.44c0.34-0.06,0.78-0.1,1.34-0.1c0.69,0,1.19,0.16,1.51,0.45c0.3,0.26,0.47,0.65,0.47,1.13
		c0,0.49-0.14,0.87-0.42,1.15c-0.37,0.39-0.97,0.59-1.65,0.59c-0.21,0-0.4-0.01-0.56-0.05v2.16h-0.7V110.44z M826.7,113.04
		c0.15,0.04,0.34,0.06,0.58,0.06c0.84,0,1.35-0.41,1.35-1.15c0-0.71-0.5-1.06-1.27-1.06c-0.3,0-0.54,0.02-0.66,0.06V113.04z"/>
	<path class="st1" d="M830.26,110.37h0.7v4.81h2.3v0.58h-3V110.37z"/>
	<path class="st1" d="M836.83,113.24h-2.09v1.94h2.33v0.58h-3.03v-5.39h2.91v0.58h-2.21v1.7h2.09V113.24z"/>
	<path class="st1" d="M837.97,110.45c0.35-0.07,0.86-0.11,1.34-0.11c0.74,0,1.22,0.14,1.56,0.44c0.27,0.24,0.42,0.61,0.42,1.02
		c0,0.71-0.45,1.18-1.02,1.38v0.02c0.42,0.14,0.66,0.53,0.79,1.09c0.18,0.75,0.3,1.27,0.42,1.48h-0.72
		c-0.09-0.15-0.21-0.62-0.36-1.29c-0.16-0.74-0.45-1.02-1.08-1.05h-0.66v2.33h-0.7V110.45z M838.67,112.9h0.71
		c0.74,0,1.22-0.41,1.22-1.02c0-0.7-0.5-1-1.24-1.01c-0.34,0-0.58,0.03-0.69,0.06V112.9z"/>
</g>
<rect x="326.08" y="66.55" class="st0" width="36" height="20.21"/>
<g>
	<path class="st1" d="M975.1,55.32c-0.26,0.13-0.77,0.26-1.42,0.26c-1.52,0-2.66-0.96-2.66-2.73c0-1.69,1.14-2.83,2.81-2.83
		c0.67,0,1.09,0.14,1.28,0.24l-0.17,0.57c-0.26-0.13-0.64-0.22-1.09-0.22c-1.26,0-2.1,0.81-2.1,2.22c0,1.32,0.76,2.17,2.07,2.17
		c0.42,0,0.86-0.09,1.14-0.22L975.1,55.32z"/>
	<path class="st1" d="M975.97,50.11h0.7v4.81h2.3v0.58h-3V50.11z"/>
	<path class="st1" d="M982.54,52.97h-2.09v1.94h2.33v0.58h-3.03v-5.39h2.91v0.58h-2.21v1.7h2.09V52.97z"/>
	<path class="st1" d="M984.55,53.8L984,55.5h-0.72l1.83-5.39h0.84l1.84,5.39h-0.74l-0.58-1.7H984.55z M986.32,53.26l-0.53-1.55
		c-0.12-0.35-0.2-0.67-0.28-0.98h-0.02c-0.08,0.32-0.17,0.65-0.27,0.98l-0.53,1.56H986.32z"/>
	<path class="st1" d="M988.58,50.18c0.35-0.07,0.86-0.11,1.33-0.11c0.74,0,1.22,0.14,1.56,0.44c0.27,0.24,0.42,0.61,0.42,1.02
		c0,0.71-0.45,1.18-1.01,1.38v0.02c0.42,0.14,0.66,0.53,0.79,1.09c0.18,0.75,0.3,1.27,0.42,1.48h-0.72
		c-0.09-0.15-0.21-0.62-0.36-1.29c-0.16-0.74-0.45-1.02-1.08-1.05h-0.66v2.33h-0.7V50.18z M989.28,52.64h0.71
		c0.74,0,1.21-0.41,1.21-1.02c0-0.7-0.5-1-1.24-1.01c-0.34,0-0.58,0.03-0.69,0.06V52.64z"/>
</g>
<g>
	<g>
		<g>
			<circle class="st0" cx="1041.21" cy="51.17" r="11.85"/>
			<circle class="st0" cx="1041.21" cy="51.17" r="10.13"/>
			<line class="st0" x1="1041.21" y1="41.04" x2="1041.21" y2="49.76"/>
		</g>
		<line class="st0" x1="1041.21" y1="65.11" x2="1041.21" y2="65.11"/>
		<line class="st0" x1="1041.21" y1="65.11" x2="1041.21" y2="65.11"/>
		<circle class="st0" cx="1041.21" cy="51.17" r="13.94"/>
		<g>
			<path class="st1" d="M1031.84,72.06h0.7v4.81h2.3v0.58h-3V72.06z"/>
			<path class="st1" d="M1038.4,74.92h-2.09v1.94h2.33v0.58h-3.03v-5.39h2.91v0.58h-2.21v1.7h2.09V74.92z"/>
			<path class="st1" d="M1040.8,77.45l-1.76-5.39h0.75l0.84,2.65c0.23,0.73,0.43,1.38,0.58,2.01h0.02c0.15-0.62,0.38-1.3,0.62-2.01
				l0.91-2.66h0.74l-1.93,5.39H1040.8z"/>
			<path class="st1" d="M1046.88,74.92h-2.09v1.94h2.33v0.58h-3.03v-5.39h2.91v0.58h-2.21v1.7h2.09V74.92z"/>
			<path class="st1" d="M1048.02,72.06h0.7v4.81h2.3v0.58h-3V72.06z"/>
		</g>
	</g>
	<circle class="st1" cx="1030.78" cy="69.53" r="0.87"/>
	<circle class="st1" cx="1051.87" cy="69.53" r="0.87"/>
	<g>
		<path class="st1" d="M1022.34,69.24v0.52h-1.97v-0.52H1022.34z"/>
		<path class="st1" d="M1025.49,69.88c-0.41,0.41-0.83,0.86-1.48,0.86c-0.67,0-1.15-0.5-1.15-1.18c0-0.63,0.51-1.18,1.21-1.18
			c0.59,0,1.03,0.47,1.42,0.86c0.41-0.41,0.83-0.86,1.48-0.86c0.68,0,1.15,0.5,1.15,1.18c0,0.63-0.51,1.18-1.22,1.18
			C1026.32,70.74,1025.88,70.26,1025.49,69.88z M1025.17,69.55c-0.31-0.29-0.64-0.7-1.1-0.7c-0.4,0-0.7,0.33-0.7,0.7
			c0,0.41,0.29,0.7,0.68,0.7C1024.5,70.26,1024.87,69.86,1025.17,69.55z M1027.62,69.55c0-0.41-0.29-0.7-0.68-0.7
			c-0.46,0-0.82,0.39-1.13,0.7c0.31,0.29,0.64,0.7,1.1,0.7C1027.31,70.26,1027.62,69.93,1027.62,69.55z"/>
	</g>
	<g>
		<path class="st1" d="M1056.97,68v1.41h1.36v0.36h-1.36v1.42h-0.38v-1.42h-1.35v-0.36h1.35V68H1056.97z"/>
		<path class="st1" d="M1059.14,70.82c0.11,0.01,0.25,0,0.42-0.02c0.31-0.04,0.59-0.17,0.82-0.38c0.26-0.23,0.44-0.58,0.52-1.04
			h-0.02c-0.22,0.26-0.53,0.42-0.92,0.42c-0.7,0-1.15-0.53-1.15-1.19c0-0.74,0.53-1.39,1.33-1.39s1.29,0.65,1.29,1.64
			c0,0.86-0.29,1.46-0.67,1.83c-0.3,0.29-0.71,0.47-1.13,0.52c-0.19,0.03-0.36,0.04-0.49,0.03V70.82z M1059.33,68.58
			c0,0.49,0.29,0.83,0.75,0.83c0.35,0,0.63-0.17,0.77-0.41c0.03-0.05,0.05-0.11,0.05-0.19c0-0.67-0.25-1.18-0.8-1.18
			C1059.65,67.63,1059.33,68.02,1059.33,68.58z"/>
	</g>
</g>
<g>
	<g>
		<g>
			<circle class="st0" cx="1041.21" cy="102.17" r="11.85"/>
			<circle class="st0" cx="1041.21" cy="102.17" r="10.13"/>
			<line class="st0" x1="1041.21" y1="92.04" x2="1041.21" y2="100.76"/>
		</g>
		<line class="st0" x1="1041.21" y1="116.11" x2="1041.21" y2="116.11"/>
		<line class="st0" x1="1041.21" y1="116.11" x2="1041.21" y2="116.11"/>
		<circle class="st0" cx="1041.21" cy="102.17" r="13.94"/>
		<g>
			<path class="st1" d="M1033.66,123.65h-1.64v-0.59h3.99v0.59h-1.65v4.8h-0.7V123.65z"/>
			<path class="st1" d="M1037.31,123.06v3.19c0,1.21,0.54,1.72,1.25,1.72c0.8,0,1.31-0.53,1.31-1.72v-3.19h0.7v3.14
				c0,1.65-0.87,2.33-2.04,2.33c-1.1,0-1.93-0.63-1.93-2.3v-3.17H1037.31z"/>
			<path class="st1" d="M1041.79,128.45v-5.39h0.76l1.73,2.73c0.4,0.63,0.71,1.2,0.97,1.75l0.02-0.01
				c-0.06-0.72-0.08-1.38-0.08-2.21v-2.25h0.66v5.39h-0.7l-1.71-2.73c-0.38-0.6-0.74-1.22-1.01-1.8l-0.02,0.01
				c0.04,0.68,0.06,1.33,0.06,2.22v2.3H1041.79z"/>
			<path class="st1" d="M1049.85,125.92h-2.09v1.94h2.33v0.58h-3.03v-5.39h2.91v0.58h-2.21v1.7h2.09V125.92z"/>
		</g>
	</g>
	<circle class="st1" cx="1030.78" cy="120.53" r="0.87"/>
	<circle class="st1" cx="1051.87" cy="120.53" r="0.87"/>
</g>
<g>
	<g>
		<g>
			<circle class="st0" cx="1090.21" cy="51.17" r="11.85"/>
			<circle class="st0" cx="1090.21" cy="51.17" r="10.13"/>
			<line class="st0" x1="1090.21" y1="41.04" x2="1090.21" y2="49.76"/>
		</g>
		<line class="st0" x1="1090.21" y1="65.11" x2="1090.21" y2="65.11"/>
		<line class="st0" x1="1090.21" y1="65.11" x2="1090.21" y2="65.11"/>
		<circle class="st0" cx="1090.21" cy="51.17" r="13.94"/>
		<g>
			<path class="st1" d="M1078.84,75.75l-0.56,1.7h-0.72l1.83-5.39h0.84l1.84,5.39h-0.74l-0.58-1.7H1078.84z M1080.61,75.21
				l-0.53-1.55c-0.12-0.35-0.2-0.67-0.28-0.98h-0.02c-0.08,0.32-0.17,0.65-0.27,0.98l-0.53,1.56H1080.61z"/>
			<path class="st1" d="M1083.28,72.65h-1.64v-0.59h3.99v0.59h-1.65v4.8h-0.7V72.65z"/>
			<path class="st1" d="M1087.55,72.65h-1.64v-0.59h3.99v0.59h-1.65v4.8h-0.7V72.65z"/>
			<path class="st1" d="M1090.78,75.75l-0.56,1.7h-0.72l1.83-5.39h0.84l1.84,5.39h-0.74l-0.58-1.7H1090.78z M1092.55,75.21
				l-0.53-1.55c-0.12-0.35-0.2-0.67-0.28-0.98h-0.02c-0.08,0.32-0.17,0.65-0.27,0.98l-0.53,1.56H1092.55z"/>
			<path class="st1" d="M1098.45,77.27c-0.26,0.13-0.77,0.26-1.42,0.26c-1.52,0-2.66-0.96-2.66-2.73c0-1.69,1.14-2.83,2.81-2.83
				c0.67,0,1.09,0.14,1.28,0.24l-0.17,0.57c-0.26-0.13-0.64-0.22-1.09-0.22c-1.26,0-2.1,0.81-2.1,2.22c0,1.32,0.76,2.17,2.07,2.17
				c0.42,0,0.86-0.09,1.13-0.22L1098.45,77.27z"/>
			<path class="st1" d="M1099.32,72.06h0.7v2.6h0.02c0.14-0.21,0.29-0.4,0.42-0.58l1.65-2.02h0.86l-1.95,2.29l2.1,3.1h-0.82
				l-1.77-2.65l-0.51,0.59v2.05h-0.7V72.06z"/>
		</g>
	</g>
	<circle class="st1" cx="1079.78" cy="69.53" r="0.87"/>
	<circle class="st1" cx="1100.87" cy="69.53" r="0.87"/>
</g>
<g>
	<g>
		<g>
			<circle class="st0" cx="1090.21" cy="102.17" r="11.85"/>
			<circle class="st0" cx="1090.21" cy="102.17" r="10.13"/>
			<line class="st0" x1="1090.21" y1="92.04" x2="1090.21" y2="100.76"/>
		</g>
		<line class="st0" x1="1090.21" y1="116.11" x2="1090.21" y2="116.11"/>
		<line class="st0" x1="1090.21" y1="116.11" x2="1090.21" y2="116.11"/>
		<circle class="st0" cx="1090.21" cy="102.17" r="13.94"/>
		<g>
			<path class="st1" d="M1079.55,123.13c0.42-0.06,0.93-0.11,1.48-0.11c1,0,1.71,0.23,2.18,0.67c0.48,0.44,0.76,1.06,0.76,1.94
				c0,0.88-0.27,1.6-0.78,2.09c-0.5,0.5-1.34,0.78-2.38,0.78c-0.5,0-0.91-0.02-1.26-0.06V123.13z M1080.25,127.9
				c0.18,0.03,0.43,0.04,0.7,0.04c1.49,0,2.29-0.83,2.29-2.29c0.01-1.27-0.71-2.08-2.18-2.08c-0.36,0-0.63,0.03-0.82,0.07V127.9z"/>
			<path class="st1" d="M1087.67,125.92h-2.09v1.94h2.33v0.58h-3.03v-5.39h2.91v0.58h-2.21v1.7h2.09V125.92z"/>
			<path class="st1" d="M1092.58,128.27c-0.26,0.13-0.77,0.26-1.42,0.26c-1.52,0-2.66-0.96-2.66-2.73c0-1.69,1.14-2.83,2.81-2.83
				c0.67,0,1.09,0.14,1.28,0.24l-0.17,0.57c-0.26-0.13-0.64-0.22-1.09-0.22c-1.26,0-2.1,0.81-2.1,2.22c0,1.32,0.76,2.17,2.07,2.17
				c0.42,0,0.86-0.09,1.13-0.22L1092.58,128.27z"/>
			<path class="st1" d="M1094.36,126.75l-0.56,1.7h-0.72l1.83-5.39h0.84l1.84,5.39h-0.74l-0.58-1.7H1094.36z M1096.13,126.21
				l-0.53-1.55c-0.12-0.35-0.2-0.67-0.28-0.98h-0.02c-0.08,0.32-0.17,0.65-0.27,0.98l-0.53,1.56H1096.13z"/>
			<path class="st1" d="M1098.95,128.45v-2.29l-1.7-3.1h0.79l0.76,1.49c0.21,0.41,0.37,0.74,0.54,1.11h0.02
				c0.15-0.35,0.34-0.7,0.54-1.11l0.78-1.49h0.79l-1.81,3.09v2.29H1098.95z"/>
		</g>
	</g>
	<circle class="st1" cx="1079.78" cy="120.53" r="0.87"/>
	<circle class="st1" cx="1100.87" cy="120.53" r="0.87"/>
</g>
<g>
	<rect x="326.39" y="66.32" class="st0" width="35.68" height="20.44"/>
	<g>
		<path class="st1" d="M324.2,54.65c0.31,0.19,0.77,0.35,1.25,0.35c0.71,0,1.13-0.38,1.13-0.92c0-0.5-0.29-0.79-1.02-1.07
			c-0.88-0.31-1.42-0.77-1.42-1.53c0-0.84,0.7-1.46,1.74-1.46c0.55,0,0.95,0.13,1.19,0.26l-0.19,0.57c-0.18-0.1-0.54-0.26-1.02-0.26
			c-0.74,0-1.02,0.44-1.02,0.81c0,0.5,0.33,0.75,1.07,1.04c0.91,0.35,1.38,0.79,1.38,1.58c0,0.83-0.62,1.55-1.89,1.55
			c-0.52,0-1.09-0.15-1.38-0.34L324.2,54.65z"/>
		<path class="st1" d="M329.26,50.7h-1.64v-0.59h3.99v0.59h-1.65v4.8h-0.7V50.7z"/>
		<path class="st1" d="M332.48,53.8l-0.56,1.7h-0.72l1.83-5.39h0.84l1.84,5.39h-0.74l-0.58-1.7H332.48z M334.25,53.26l-0.53-1.55
			c-0.12-0.35-0.2-0.67-0.28-0.98h-0.02c-0.08,0.32-0.17,0.65-0.27,0.98l-0.53,1.56H334.25z"/>
		<path class="st1" d="M336.51,50.18c0.35-0.07,0.86-0.11,1.33-0.11c0.74,0,1.22,0.14,1.56,0.44c0.27,0.24,0.42,0.61,0.42,1.02
			c0,0.71-0.45,1.18-1.02,1.38v0.02c0.42,0.14,0.66,0.53,0.79,1.09c0.18,0.75,0.3,1.27,0.42,1.48h-0.72
			c-0.09-0.15-0.21-0.62-0.36-1.29c-0.16-0.74-0.45-1.02-1.08-1.05h-0.66v2.33h-0.7V50.18z M337.2,52.64h0.71
			c0.74,0,1.21-0.41,1.21-1.02c0-0.7-0.5-1-1.24-1.01c-0.34,0-0.58,0.03-0.69,0.06V52.64z"/>
		<path class="st1" d="M341.91,50.7h-1.64v-0.59h3.99v0.59h-1.65v4.8h-0.7V50.7z"/>
		<path class="st1" d="M344.25,55.82l2.23-5.8h0.54l-2.24,5.8H344.25z"/>
		<path class="st1" d="M347.51,54.65c0.31,0.19,0.77,0.35,1.25,0.35c0.71,0,1.13-0.38,1.13-0.92c0-0.5-0.29-0.79-1.02-1.07
			c-0.88-0.31-1.42-0.77-1.42-1.53c0-0.84,0.7-1.46,1.74-1.46c0.55,0,0.95,0.13,1.19,0.26l-0.19,0.57c-0.18-0.1-0.54-0.26-1.02-0.26
			c-0.74,0-1.02,0.44-1.02,0.81c0,0.5,0.33,0.75,1.07,1.04c0.91,0.35,1.38,0.79,1.38,1.58c0,0.83-0.62,1.55-1.89,1.55
			c-0.52,0-1.09-0.15-1.38-0.34L347.51,54.65z"/>
		<path class="st1" d="M352.57,50.7h-1.64v-0.59h3.99v0.59h-1.65v4.8h-0.7V50.7z"/>
		<path class="st1" d="M359.91,52.75c0,1.85-1.13,2.84-2.5,2.84c-1.42,0-2.42-1.1-2.42-2.73c0-1.71,1.06-2.83,2.5-2.83
			C358.96,50.02,359.91,51.15,359.91,52.75z M355.73,52.84c0,1.15,0.62,2.18,1.72,2.18c1.1,0,1.73-1.02,1.73-2.24
			c0-1.07-0.56-2.19-1.72-2.19C356.31,50.59,355.73,51.65,355.73,52.84z"/>
		<path class="st1" d="M360.82,50.17c0.34-0.06,0.78-0.1,1.34-0.1c0.69,0,1.19,0.16,1.51,0.45c0.3,0.26,0.47,0.65,0.47,1.13
			c0,0.49-0.14,0.87-0.42,1.15c-0.37,0.39-0.97,0.59-1.65,0.59c-0.21,0-0.4-0.01-0.56-0.05v2.16h-0.7V50.17z M361.52,52.77
			c0.15,0.04,0.34,0.06,0.58,0.06c0.84,0,1.35-0.41,1.35-1.15c0-0.71-0.5-1.06-1.27-1.06c-0.3,0-0.54,0.02-0.66,0.06V52.77z"/>
	</g>
	<rect x="117.34" y="43.5" class="st0" width="75" height="37.16"/>
</g>
<g>
	<path class="st2" d="M294.01,53.08h-28.61c-1.51,0-2.74-1.23-2.74-2.74V29.08c0-1.51,1.23-2.74,2.74-2.74h28.61
		c1.51,0,2.74,1.23,2.74,2.74v21.26C296.75,51.85,295.52,53.08,294.01,53.08z"/>
	<g>
		<path class="st3" d="M267.51,46.73v4.72h-0.61v-4.72H267.51z"/>
		<path class="st3" d="M268.57,51.45v-4.72h0.67l1.51,2.39c0.35,0.55,0.62,1.05,0.85,1.53l0.01-0.01c-0.06-0.63-0.07-1.2-0.07-1.94
			v-1.98h0.57v4.72h-0.62l-1.5-2.4c-0.33-0.52-0.64-1.06-0.88-1.58l-0.02,0.01c0.04,0.6,0.05,1.16,0.05,1.95v2.02H268.57z"/>
		<path class="st3" d="M273.09,50.71c0.27,0.17,0.67,0.31,1.09,0.31c0.62,0,0.99-0.33,0.99-0.81c0-0.44-0.25-0.69-0.89-0.94
			c-0.77-0.27-1.25-0.67-1.25-1.34c0-0.74,0.61-1.28,1.53-1.28c0.48,0,0.83,0.11,1.04,0.23l-0.17,0.5c-0.15-0.08-0.47-0.22-0.9-0.22
			c-0.64,0-0.89,0.39-0.89,0.71c0,0.44,0.29,0.66,0.94,0.91c0.8,0.31,1.2,0.69,1.2,1.39c0,0.73-0.54,1.36-1.65,1.36
			c-0.46,0-0.95-0.13-1.21-0.3L273.09,50.71z"/>
		<path class="st3" d="M277.52,47.25h-1.44v-0.52h3.5v0.52h-1.44v4.2h-0.62V47.25z"/>
		<path class="st3" d="M281.16,49.33v0.46h-1.73v-0.46H281.16z"/>
		<path class="st3" d="M281.9,46.79c0.31-0.06,0.75-0.1,1.17-0.1c0.65,0,1.07,0.12,1.37,0.38c0.24,0.21,0.37,0.53,0.37,0.9
			c0,0.62-0.39,1.04-0.89,1.21v0.02c0.36,0.13,0.58,0.46,0.69,0.95c0.15,0.66,0.27,1.11,0.36,1.3h-0.63
			c-0.08-0.13-0.18-0.54-0.32-1.13c-0.14-0.65-0.39-0.9-0.95-0.92h-0.57v2.04h-0.61V46.79z M282.51,48.94h0.62
			c0.65,0,1.06-0.36,1.06-0.9c0-0.61-0.44-0.88-1.08-0.88c-0.29,0-0.5,0.03-0.6,0.06V48.94z"/>
		<path class="st3" d="M288.11,49.24h-1.83v1.7h2.04v0.51h-2.65v-4.72h2.55v0.51h-1.94v1.49h1.83V49.24z"/>
		<path class="st3" d="M292.41,51.29c-0.22,0.11-0.67,0.22-1.25,0.22c-1.33,0-2.33-0.84-2.33-2.39c0-1.48,1-2.48,2.47-2.48
			c0.59,0,0.96,0.13,1.12,0.21l-0.15,0.5c-0.23-0.11-0.56-0.2-0.95-0.2c-1.11,0-1.84,0.71-1.84,1.95c0,1.16,0.67,1.9,1.81,1.9
			c0.37,0,0.75-0.08,0.99-0.2L292.41,51.29z"/>
	</g>
	<path class="st4" d="M292.48,44.82h-25.55c-1.25,0-2.26-1.01-2.26-2.26V30.66c0-1.25,1.01-2.26,2.26-2.26h25.55
		c1.25,0,2.26,1.01,2.26,2.26v11.89C294.74,43.8,293.73,44.82,292.48,44.82z"/>
	<rect x="267.34" y="31.13" class="st5" width="24.33" height="11.05"/>
	<g>
		<path class="st2" d="M270.6,19.98h-1.44v-0.52h3.5v0.52h-1.44v4.2h-0.62V19.98z"/>
		<path class="st2" d="M273.18,19.53c0.31-0.06,0.75-0.1,1.17-0.1c0.65,0,1.07,0.12,1.37,0.38c0.24,0.21,0.37,0.53,0.37,0.9
			c0,0.62-0.39,1.04-0.89,1.21v0.02c0.36,0.13,0.58,0.46,0.69,0.95c0.15,0.66,0.27,1.11,0.36,1.3h-0.63
			c-0.08-0.13-0.18-0.54-0.32-1.13c-0.14-0.65-0.39-0.9-0.95-0.92h-0.57v2.04h-0.61V19.53z M273.79,21.68h0.62
			c0.65,0,1.06-0.36,1.06-0.9c0-0.61-0.44-0.88-1.08-0.88c-0.29,0-0.5,0.03-0.6,0.06V21.68z"/>
		<path class="st2" d="M278.35,22.06v0.46h-1.73v-0.46H278.35z"/>
		<path class="st2" d="M279.09,19.53c0.31-0.06,0.75-0.1,1.17-0.1c0.65,0,1.07,0.12,1.37,0.38c0.24,0.21,0.37,0.53,0.37,0.9
			c0,0.62-0.39,1.04-0.89,1.21v0.02c0.36,0.13,0.58,0.46,0.69,0.95c0.15,0.66,0.27,1.11,0.36,1.3h-0.63
			c-0.08-0.13-0.18-0.54-0.32-1.13c-0.14-0.65-0.39-0.9-0.95-0.92h-0.57v2.04h-0.61V19.53z M279.7,21.68h0.62
			c0.65,0,1.06-0.36,1.06-0.9c0-0.61-0.44-0.88-1.08-0.88c-0.29,0-0.5,0.03-0.6,0.06V21.68z"/>
		<path class="st2" d="M285.3,21.97h-1.83v1.7h2.04v0.51h-2.65v-4.72h2.55v0.51h-1.94v1.49h1.83V21.97z"/>
		<path class="st2" d="M289.6,24.03c-0.22,0.11-0.67,0.22-1.25,0.22c-1.33,0-2.33-0.84-2.33-2.39c0-1.48,1-2.48,2.47-2.48
			c0.59,0,0.96,0.13,1.12,0.21l-0.15,0.5c-0.23-0.11-0.56-0.2-0.95-0.2c-1.11,0-1.84,0.71-1.84,1.95c0,1.16,0.67,1.9,1.81,1.9
			c0.37,0,0.75-0.08,0.99-0.2L289.6,24.03z"/>
	</g>
</g>
<g>
	<path class="st2" d="M294.01,93.4h-28.61c-1.51,0-2.74-1.23-2.74-2.74V69.4c0-1.51,1.23-2.74,2.74-2.74h28.61
		c1.51,0,2.74,1.23,2.74,2.74v21.26C296.75,92.17,295.52,93.4,294.01,93.4z"/>
	<g>
		<path class="st3" d="M275.56,87.05h0.61v2.28h0.02c0.13-0.18,0.25-0.35,0.37-0.5l1.44-1.77h0.76l-1.71,2l1.84,2.72h-0.72
			l-1.55-2.32l-0.45,0.52v1.8h-0.61V87.05z"/>
		<path class="st3" d="M279.96,87.05v4.72h-0.61v-4.72H279.96z"/>
		<path class="st3" d="M281.92,87.57h-1.44v-0.52h3.5v0.52h-1.44v4.2h-0.62V87.57z"/>
	</g>
	<path class="st4" d="M292.48,85.13h-25.55c-1.25,0-2.26-1.01-2.26-2.26V70.98c0-1.25,1.01-2.26,2.26-2.26h25.55
		c1.25,0,2.26,1.01,2.26,2.26v11.89C294.74,84.12,293.73,85.13,292.48,85.13z"/>
	<rect x="267.34" y="71.45" class="st5" width="24.33" height="11.05"/>
	<g>
		<path class="st2" d="M274.04,59.78v4.72h-0.61v-4.72H274.04z"/>
		<path class="st2" d="M275.1,64.5v-4.72h0.67l1.51,2.39c0.35,0.55,0.62,1.05,0.85,1.53l0.01-0.01c-0.06-0.63-0.07-1.2-0.07-1.94
			v-1.98h0.57v4.72h-0.62l-1.5-2.4c-0.33-0.52-0.64-1.06-0.88-1.58l-0.02,0.01c0.04,0.6,0.05,1.16,0.05,1.95v2.02H275.1z"/>
		<path class="st2" d="M279.62,63.76c0.27,0.17,0.67,0.31,1.09,0.31c0.62,0,0.99-0.33,0.99-0.81c0-0.44-0.25-0.69-0.89-0.94
			c-0.77-0.27-1.25-0.67-1.25-1.34c0-0.74,0.61-1.28,1.53-1.28c0.48,0,0.83,0.11,1.04,0.23l-0.17,0.5c-0.15-0.08-0.47-0.22-0.9-0.22
			c-0.64,0-0.89,0.39-0.89,0.71c0,0.44,0.29,0.66,0.94,0.91c0.8,0.31,1.2,0.69,1.2,1.39c0,0.73-0.54,1.36-1.65,1.36
			c-0.46,0-0.95-0.13-1.21-0.3L279.62,63.76z"/>
		<path class="st2" d="M284.05,60.3h-1.44v-0.52h3.5v0.52h-1.44v4.2h-0.62V60.3z"/>
	</g>
	<g>
		<path class="st2" d="M294.01,133.41H265.4c-1.51,0-2.74-1.23-2.74-2.74v-21.26c0-1.51,1.23-2.74,2.74-2.74h28.61
			c1.51,0,2.74,1.23,2.74,2.74v21.26C296.74,132.18,295.52,133.41,294.01,133.41z"/>
		<g>
			<path class="st3" d="M274.71,130.29l-0.49,1.48h-0.63l1.6-4.72h0.74l1.61,4.72h-0.65l-0.5-1.48H274.71z M276.26,129.81
				l-0.46-1.36c-0.1-0.31-0.17-0.59-0.25-0.86h-0.01c-0.07,0.28-0.15,0.57-0.24,0.85l-0.46,1.37H276.26z"/>
			<path class="st3" d="M281.43,131.62c-0.22,0.11-0.67,0.22-1.25,0.22c-1.33,0-2.33-0.84-2.33-2.39c0-1.48,1-2.48,2.47-2.48
				c0.59,0,0.96,0.13,1.12,0.21l-0.15,0.5c-0.23-0.11-0.56-0.2-0.95-0.2c-1.11,0-1.84,0.71-1.84,1.95c0,1.16,0.67,1.9,1.81,1.9
				c0.37,0,0.75-0.08,0.99-0.2L281.43,131.62z"/>
			<path class="st3" d="M285.34,131.62c-0.22,0.11-0.67,0.22-1.25,0.22c-1.33,0-2.33-0.84-2.33-2.39c0-1.48,1-2.48,2.47-2.48
				c0.59,0,0.96,0.13,1.12,0.21l-0.15,0.5c-0.23-0.11-0.56-0.2-0.95-0.2c-1.11,0-1.84,0.71-1.84,1.95c0,1.16,0.67,1.9,1.81,1.9
				c0.37,0,0.75-0.08,0.99-0.2L285.34,131.62z"/>
		</g>
		<path class="st4" d="M292.48,125.14h-25.55c-1.25,0-2.26-1.01-2.26-2.26v-11.89c0-1.25,1.01-2.26,2.26-2.26h25.55
			c1.25,0,2.26,1.01,2.26,2.26v11.89C294.74,124.13,293.72,125.14,292.48,125.14z"/>
		<rect x="267.33" y="111.46" class="st5" width="24.33" height="11.05"/>
		<g>
			<path class="st2" d="M267.07,99.85c0.29-0.05,0.68-0.09,1.17-0.09c0.6,0,1.04,0.14,1.32,0.39c0.26,0.22,0.41,0.57,0.41,0.99
				c0,0.43-0.13,0.76-0.36,1.01c-0.32,0.34-0.85,0.52-1.44,0.52c-0.18,0-0.35-0.01-0.49-0.04v1.89h-0.61V99.85z M267.68,102.12
				c0.13,0.04,0.3,0.05,0.5,0.05c0.74,0,1.18-0.36,1.18-1.01c0-0.62-0.44-0.92-1.11-0.92c-0.27,0-0.47,0.02-0.57,0.05V102.12z"/>
			<path class="st2" d="M270.97,103.03l-0.49,1.48h-0.63l1.6-4.72h0.74l1.61,4.72h-0.65l-0.5-1.48H270.97z M272.51,102.55
				l-0.46-1.36c-0.1-0.31-0.17-0.59-0.25-0.86h-0.01c-0.07,0.28-0.15,0.57-0.24,0.85l-0.46,1.37H272.51z"/>
			<path class="st2" d="M274.84,100.31h-1.44v-0.52h3.5v0.52h-1.44v4.2h-0.62V100.31z"/>
			<path class="st2" d="M278.59,100.31h-1.44v-0.52h3.5v0.52h-1.44v4.2h-0.62V100.31z"/>
			<path class="st2" d="M283.62,102.3h-1.83v1.7h2.04v0.51h-2.65v-4.72h2.55v0.51h-1.94v1.49h1.83V102.3z"/>
			<path class="st2" d="M284.62,99.85c0.31-0.06,0.75-0.1,1.17-0.1c0.65,0,1.07,0.12,1.37,0.38c0.24,0.21,0.37,0.53,0.37,0.9
				c0,0.62-0.39,1.04-0.89,1.21v0.02c0.36,0.13,0.58,0.46,0.69,0.95c0.15,0.66,0.27,1.11,0.36,1.3h-0.63
				c-0.08-0.13-0.18-0.54-0.32-1.13c-0.14-0.65-0.39-0.9-0.95-0.92h-0.57v2.04h-0.61V99.85z M285.23,102.01h0.62
				c0.65,0,1.06-0.36,1.06-0.9c0-0.61-0.44-0.88-1.08-0.88c-0.29,0-0.5,0.03-0.6,0.06V102.01z"/>
			<path class="st2" d="M288.38,104.51v-4.72h0.67l1.51,2.39c0.35,0.55,0.62,1.05,0.85,1.53l0.01-0.01
				c-0.06-0.63-0.07-1.2-0.07-1.94v-1.98h0.57v4.72h-0.62l-1.5-2.4c-0.33-0.52-0.64-1.06-0.88-1.58l-0.02,0.01
				c0.04,0.6,0.05,1.16,0.05,1.95v2.02H288.38z"/>
		</g>
	</g>
</g>
<g>
	<path class="st4" d="M248.73,44.97h-25.55c-1.25,0-2.26-1.01-2.26-2.26V30.81c0-1.25,1.01-2.26,2.26-2.26h25.55
		c1.25,0,2.26,1.01,2.26,2.26v11.89C250.99,43.96,249.98,44.97,248.73,44.97z"/>
	<rect x="223.58" y="31.29" class="st5" width="24.33" height="11.05"/>
	<g>
		<path class="st2" d="M226.91,23.6c0.27,0.17,0.67,0.31,1.09,0.31c0.62,0,0.99-0.33,0.99-0.81c0-0.44-0.25-0.69-0.89-0.94
			c-0.77-0.27-1.25-0.67-1.25-1.34c0-0.74,0.61-1.28,1.53-1.28c0.48,0,0.83,0.11,1.04,0.23l-0.17,0.5c-0.15-0.08-0.47-0.22-0.9-0.22
			c-0.64,0-0.89,0.39-0.89,0.71c0,0.44,0.29,0.66,0.94,0.91c0.8,0.31,1.2,0.69,1.2,1.39c0,0.73-0.54,1.36-1.65,1.36
			c-0.46,0-0.95-0.13-1.21-0.3L226.91,23.6z"/>
		<path class="st2" d="M233.74,24.19c-0.22,0.11-0.67,0.22-1.25,0.22c-1.33,0-2.33-0.84-2.33-2.39c0-1.48,1-2.48,2.47-2.48
			c0.59,0,0.96,0.13,1.12,0.21l-0.15,0.5c-0.23-0.11-0.56-0.2-0.95-0.2c-1.11,0-1.84,0.71-1.84,1.95c0,1.16,0.67,1.9,1.81,1.9
			c0.37,0,0.75-0.08,0.99-0.2L233.74,24.19z"/>
		<path class="st2" d="M235.3,22.86l-0.49,1.48h-0.63l1.6-4.72h0.74l1.61,4.72h-0.65l-0.5-1.48H235.3z M236.84,22.38l-0.46-1.36
			c-0.1-0.31-0.17-0.59-0.25-0.86h-0.01c-0.07,0.28-0.15,0.57-0.24,0.85l-0.46,1.37H236.84z"/>
		<path class="st2" d="M238.82,19.62h0.61v4.21h2.02v0.51h-2.63V19.62z"/>
		<path class="st2" d="M244.57,22.13h-1.83v1.7h2.04v0.51h-2.65v-4.72h2.55v0.51h-1.94v1.49h1.83V22.13z"/>
	</g>
</g>
<g>
	<path class="st2" d="M250.26,93.55h-28.61c-1.51,0-2.74-1.23-2.74-2.74V69.55c0-1.51,1.23-2.74,2.74-2.74h28.61
		c1.51,0,2.74,1.23,2.74,2.74v21.26C252.99,92.33,251.77,93.55,250.26,93.55z"/>
	<g>
		<path class="st3" d="M225.4,91.92V87.2h0.67l1.51,2.39c0.35,0.55,0.62,1.05,0.85,1.53l0.01-0.01c-0.06-0.63-0.07-1.2-0.07-1.94
			V87.2h0.57v4.72h-0.62l-1.5-2.4c-0.33-0.52-0.64-1.06-0.88-1.58l-0.02,0.01c0.04,0.6,0.05,1.16,0.05,1.95v2.02H225.4z"/>
		<path class="st3" d="M230.61,87.2V90c0,1.06,0.47,1.51,1.1,1.51c0.7,0,1.15-0.46,1.15-1.51V87.2h0.62v2.75
			c0,1.45-0.76,2.05-1.79,2.05c-0.97,0-1.69-0.55-1.69-2.02V87.2H230.61z"/>
		<path class="st3" d="M234.53,87.27c0.37-0.06,0.81-0.1,1.3-0.1c0.88,0,1.5,0.2,1.91,0.59c0.42,0.39,0.67,0.93,0.67,1.7
			c0,0.77-0.24,1.4-0.68,1.83c-0.44,0.44-1.17,0.68-2.09,0.68c-0.43,0-0.8-0.02-1.11-0.06V87.27z M235.14,91.44
			c0.15,0.03,0.38,0.04,0.62,0.04c1.3,0,2.01-0.73,2.01-2c0.01-1.11-0.62-1.82-1.91-1.82c-0.32,0-0.55,0.03-0.71,0.06V91.44z"/>
		<path class="st3" d="M242.79,91.71c-0.27,0.1-0.81,0.26-1.45,0.26c-0.71,0-1.3-0.18-1.77-0.62c-0.41-0.39-0.66-1.02-0.66-1.76
			c0.01-1.41,0.97-2.44,2.56-2.44c0.55,0,0.97,0.12,1.18,0.22l-0.15,0.5c-0.25-0.11-0.57-0.2-1.04-0.2c-1.15,0-1.9,0.71-1.9,1.9
			c0,1.2,0.72,1.91,1.82,1.91c0.4,0,0.67-0.06,0.81-0.13v-1.41h-0.96v-0.49h1.55V91.71z"/>
		<path class="st3" d="M246.16,89.71h-1.83v1.7h2.04v0.51h-2.65V87.2h2.55v0.51h-1.94v1.49h1.83V89.71z"/>
	</g>
	<path class="st4" d="M248.73,85.29h-25.55c-1.25,0-2.26-1.01-2.26-2.26V71.13c0-1.25,1.01-2.26,2.26-2.26h25.55
		c1.25,0,2.26,1.01,2.26,2.26v11.89C250.99,84.28,249.98,85.29,248.73,85.29z"/>
	<rect x="223.58" y="71.61" class="st5" width="24.33" height="11.05"/>
	<g>
		<path class="st2" d="M223.14,63.92c0.27,0.17,0.67,0.31,1.09,0.31c0.62,0,0.99-0.33,0.99-0.81c0-0.44-0.25-0.69-0.89-0.94
			c-0.77-0.27-1.25-0.67-1.25-1.34c0-0.74,0.61-1.28,1.53-1.28c0.48,0,0.83,0.11,1.04,0.23l-0.17,0.5c-0.15-0.08-0.47-0.22-0.9-0.22
			c-0.64,0-0.89,0.39-0.89,0.71c0,0.44,0.29,0.66,0.94,0.91c0.8,0.31,1.2,0.69,1.2,1.39c0,0.73-0.54,1.36-1.65,1.36
			c-0.46,0-0.95-0.13-1.21-0.3L223.14,63.92z"/>
		<path class="st2" d="M227.29,59.94v1.98h2.28v-1.98h0.62v4.72h-0.62v-2.21h-2.28v2.21h-0.61v-4.72H227.29z"/>
		<path class="st2" d="M231.85,59.94v2.79c0,1.06,0.47,1.51,1.1,1.51c0.7,0,1.15-0.46,1.15-1.51v-2.79h0.62v2.75
			c0,1.45-0.76,2.05-1.79,2.05c-0.97,0-1.69-0.55-1.69-2.02v-2.78H231.85z"/>
		<path class="st2" d="M235.77,59.94h2.54v0.51h-1.93v1.57h1.79v0.5h-1.79v2.14h-0.61V59.94z"/>
		<path class="st2" d="M239.18,59.94h2.54v0.51h-1.93v1.57h1.79v0.5h-1.79v2.14h-0.61V59.94z"/>
		<path class="st2" d="M242.59,59.94h0.61v4.21h2.02v0.51h-2.63V59.94z"/>
		<path class="st2" d="M248.33,62.45h-1.83v1.7h2.04v0.51h-2.65v-4.72h2.55v0.51h-1.94v1.49h1.83V62.45z"/>
	</g>
	<g>
		<path class="st4" d="M248.72,125.3h-25.55c-1.25,0-2.26-1.01-2.26-2.26v-11.89c0-1.25,1.01-2.26,2.26-2.26h25.55
			c1.25,0,2.26,1.01,2.26,2.26v11.89C250.99,124.28,249.97,125.3,248.72,125.3z"/>
		<rect x="223.58" y="111.61" class="st5" width="24.33" height="11.05"/>
		<g>
			<path class="st2" d="M231.71,102.59c-0.04-0.66-0.08-1.45-0.07-2.04h-0.02c-0.16,0.55-0.36,1.14-0.59,1.79l-0.83,2.29h-0.46
				l-0.76-2.25c-0.22-0.67-0.41-1.27-0.55-1.83h-0.01c-0.01,0.59-0.05,1.38-0.09,2.09l-0.13,2.02h-0.58l0.33-4.72h0.78l0.81,2.28
				c0.2,0.58,0.36,1.1,0.48,1.59h0.02c0.12-0.48,0.29-0.99,0.5-1.59l0.84-2.28h0.78l0.29,4.72h-0.59L231.71,102.59z"/>
			<path class="st2" d="M233.97,99.95v2.79c0,1.06,0.47,1.51,1.1,1.51c0.7,0,1.15-0.46,1.15-1.51v-2.79h0.62v2.75
				c0,1.45-0.76,2.05-1.79,2.05c-0.97,0-1.69-0.55-1.69-2.02v-2.78H233.97z"/>
			<path class="st2" d="M238.79,100.47h-1.44v-0.52h3.5v0.52h-1.44v4.2h-0.62V100.47z"/>
			<path class="st2" d="M243.81,102.45h-1.83v1.7h2.04v0.51h-2.65v-4.72h2.55v0.51h-1.94v1.49h1.83V102.45z"/>
		</g>
	</g>
</g>
<path class="st2" d="M178.84,133.41h-48c-1.51,0-2.74-1.23-2.74-2.74v-21.26c0-1.51,1.23-2.74,2.74-2.74h48
	c1.51,0,2.74,1.23,2.74,2.74v21.26C181.58,132.18,180.35,133.41,178.84,133.41z"/>
<path class="st4" d="M177.26,125.09h-44.84c-1.25,0-2.26-1.01-2.26-2.26v-11.89c0-1.25,1.01-2.26,2.26-2.26h44.84
	c1.25,0,2.26,1.01,2.26,2.26v11.89C179.52,124.08,178.51,125.09,177.26,125.09z"/>
<rect x="132.83" y="111.41" class="st5" width="44" height="11.05"/>
<g>
	<path class="st3" d="M140.79,131.03c0.27,0.17,0.67,0.31,1.09,0.31c0.62,0,0.99-0.33,0.99-0.81c0-0.44-0.25-0.69-0.89-0.94
		c-0.77-0.27-1.25-0.67-1.25-1.34c0-0.74,0.61-1.28,1.53-1.28c0.48,0,0.83,0.11,1.04,0.23l-0.17,0.5c-0.15-0.08-0.47-0.22-0.9-0.22
		c-0.64,0-0.89,0.39-0.89,0.71c0,0.44,0.29,0.66,0.94,0.91c0.8,0.31,1.2,0.69,1.2,1.39c0,0.73-0.54,1.36-1.65,1.36
		c-0.46,0-0.95-0.13-1.21-0.3L140.79,131.03z"/>
	<path class="st3" d="M145.37,131.78v-2l-1.49-2.72h0.69l0.67,1.3c0.18,0.36,0.32,0.64,0.47,0.97h0.01
		c0.13-0.31,0.29-0.62,0.48-0.97l0.68-1.3h0.69l-1.58,2.71v2.01H145.37z"/>
	<path class="st3" d="M148.06,131.78v-4.72h0.67l1.51,2.39c0.35,0.55,0.62,1.05,0.85,1.53l0.01-0.01c-0.06-0.63-0.07-1.2-0.07-1.94
		v-1.98h0.57v4.72h-0.62l-1.5-2.4c-0.33-0.52-0.64-1.06-0.88-1.58l-0.02,0.01c0.04,0.6,0.05,1.16,0.05,1.95v2.02H148.06z"/>
	<path class="st3" d="M155.96,131.62c-0.22,0.11-0.67,0.22-1.25,0.22c-1.33,0-2.33-0.84-2.33-2.39c0-1.48,1-2.48,2.47-2.48
		c0.59,0,0.96,0.13,1.12,0.21l-0.15,0.5c-0.23-0.11-0.56-0.2-0.95-0.2c-1.11,0-1.84,0.71-1.84,1.95c0,1.16,0.67,1.9,1.81,1.9
		c0.37,0,0.75-0.08,0.99-0.2L155.96,131.62z"/>
	<path class="st3" d="M162.24,129.37c0,1.62-0.99,2.49-2.19,2.49c-1.25,0-2.12-0.97-2.12-2.4c0-1.5,0.93-2.48,2.19-2.48
		C161.41,126.98,162.24,127.97,162.24,129.37z M158.58,129.44c0,1.01,0.55,1.91,1.51,1.91c0.97,0,1.51-0.89,1.51-1.96
		c0-0.94-0.49-1.92-1.51-1.92C159.08,127.48,158.58,128.41,158.58,129.44z"/>
	<path class="st3" d="M163.03,127.05h2.54v0.51h-1.93v1.57h1.79v0.5h-1.79v2.14h-0.61V127.05z"/>
	<path class="st3" d="M166.44,127.05h2.54v0.51h-1.93v1.57h1.79v0.5h-1.79v2.14h-0.61V127.05z"/>
</g>
<g>
	<path class="st2" d="M147.35,103.77c0.27,0.17,0.67,0.31,1.09,0.31c0.62,0,0.99-0.33,0.99-0.81c0-0.44-0.25-0.69-0.89-0.94
		c-0.77-0.27-1.25-0.67-1.25-1.34c0-0.74,0.61-1.28,1.53-1.28c0.48,0,0.83,0.11,1.04,0.23l-0.17,0.5c-0.15-0.08-0.47-0.22-0.9-0.22
		c-0.64,0-0.89,0.39-0.89,0.71c0,0.44,0.29,0.66,0.94,0.91c0.8,0.31,1.2,0.69,1.2,1.39c0,0.73-0.54,1.36-1.65,1.36
		c-0.46,0-0.95-0.13-1.21-0.3L147.35,103.77z"/>
	<path class="st2" d="M151.93,104.51v-2l-1.49-2.72h0.69l0.67,1.3c0.18,0.36,0.32,0.64,0.47,0.97h0.01
		c0.13-0.31,0.29-0.62,0.48-0.97l0.68-1.3h0.69l-1.58,2.71v2.01H151.93z"/>
	<path class="st2" d="M154.62,104.51v-4.72h0.67l1.51,2.39c0.35,0.55,0.62,1.05,0.85,1.53l0.01-0.01c-0.06-0.63-0.07-1.2-0.07-1.94
		v-1.98h0.57v4.72h-0.62l-1.5-2.4c-0.33-0.52-0.64-1.06-0.88-1.58l-0.02,0.01c0.04,0.6,0.05,1.16,0.05,1.95v2.02H154.62z"/>
	<path class="st2" d="M162.53,104.36c-0.22,0.11-0.67,0.22-1.25,0.22c-1.33,0-2.33-0.84-2.33-2.39c0-1.48,1-2.48,2.47-2.48
		c0.59,0,0.96,0.13,1.12,0.21l-0.15,0.5c-0.23-0.11-0.56-0.2-0.95-0.2c-1.11,0-1.84,0.71-1.84,1.95c0,1.16,0.67,1.9,1.81,1.9
		c0.37,0,0.75-0.08,0.99-0.2L162.53,104.36z"/>
</g>
<circle class="st0" cx="70.71" cy="60.9" r="14.26"/>
<circle class="st6" cx="70.71" cy="60.9" r="18.05"/>
<circle class="st2" cx="981.03" cy="76.76" r="13.55"/>
<circle class="st5" cx="981.03" cy="76.76" r="11.76"/>
<g>
	<g>
		<path class="st2" d="M94.71,127.03h-48c-1.51,0-2.74-1.23-2.74-2.74v-14.89c0-1.51,1.23-2.74,2.74-2.74h48
			c1.51,0,2.74,1.23,2.74,2.74v14.89C97.45,125.8,96.22,127.03,94.71,127.03z"/>
		<path class="st4" d="M93.13,125.08H48.29c-1.25,0-2.26-1.01-2.26-2.26v-11.89c0-1.25,1.01-2.26,2.26-2.26h44.84
			c1.25,0,2.26,1.01,2.26,2.26v11.89C95.39,124.06,94.38,125.08,93.13,125.08z"/>
		<rect x="48.7" y="111.39" class="st5" width="44" height="11.05"/>
		<g>
			<path class="st2" d="M62.86,103.76c0.27,0.17,0.67,0.31,1.09,0.31c0.62,0,0.99-0.33,0.99-0.81c0-0.44-0.25-0.69-0.89-0.94
				c-0.77-0.27-1.25-0.67-1.25-1.34c0-0.74,0.61-1.28,1.53-1.28c0.48,0,0.83,0.11,1.04,0.23l-0.17,0.5
				c-0.15-0.08-0.47-0.22-0.9-0.22c-0.64,0-0.89,0.39-0.89,0.71c0,0.44,0.29,0.66,0.94,0.91c0.8,0.31,1.2,0.69,1.2,1.39
				c0,0.73-0.54,1.36-1.65,1.36c-0.46,0-0.95-0.13-1.21-0.3L62.86,103.76z"/>
			<path class="st2" d="M67,99.78v1.98h2.28v-1.98h0.62v4.72h-0.62v-2.21H67v2.21h-0.61v-4.72H67z"/>
			<path class="st2" d="M71.56,99.78v4.72h-0.61v-4.72H71.56z"/>
			<path class="st2" d="M72.63,99.78h2.54v0.51h-1.93v1.57h1.79v0.5h-1.79v2.14h-0.61V99.78z"/>
			<path class="st2" d="M76.93,100.3H75.5v-0.52h3.5v0.52h-1.44v4.2h-0.62V100.3z"/>
		</g>
	</g>
</g>
<g>
	<path class="st2" d="M62.87,87.63l-1.54-4.72h0.66l0.74,2.33c0.2,0.64,0.38,1.21,0.5,1.77h0.01c0.13-0.55,0.33-1.14,0.54-1.76
		l0.8-2.33h0.65l-1.69,4.72H62.87z"/>
	<path class="st2" d="M66.1,86.15l-0.49,1.48h-0.63l1.6-4.72h0.74l1.61,4.72h-0.65l-0.5-1.48H66.1z M67.65,85.67l-0.46-1.36
		c-0.1-0.31-0.17-0.59-0.25-0.86h-0.01c-0.07,0.28-0.15,0.57-0.24,0.85l-0.46,1.37H67.65z"/>
	<path class="st2" d="M69.62,82.91h0.61v4.21h2.02v0.51h-2.63V82.91z"/>
	<path class="st2" d="M73.28,82.91v2.79c0,1.06,0.47,1.51,1.1,1.51c0.7,0,1.15-0.46,1.15-1.51v-2.79h0.62v2.75
		c0,1.45-0.76,2.05-1.79,2.05c-0.97,0-1.69-0.55-1.69-2.02v-2.78H73.28z"/>
	<path class="st2" d="M79.65,85.42h-1.83v1.7h2.04v0.51H77.2v-4.72h2.55v0.51h-1.94v1.49h1.83V85.42z"/>
</g>
<g id="layer1" transform="translate(50.619279,-508.09743)">
	<g id="g42252" transform="matrix(5.7279732,0,0,5.7279732,-398.93324,-3466.0371)">
		<g id="g41979" transform="matrix(1.25,0,0,-1.25,160.19429,694.8154)">
			<path id="path41981" class="st7" d="M-66.89-0.55v-2.72c0,0,0-0.12,0.12-0.12h0.33c0.12,0,0.12,0.12,0.12,0.12l0,2.72
				c0,0,0,0.12-0.12,0.12h-0.33C-66.89-0.43-66.89-0.55-66.89-0.55"/>
		</g>
		<g id="g41983" transform="matrix(1.25,0,0,-1.25,171.29804,713.4654)">
			<path id="path41985" class="st7" d="M-74.46,12.15c0-0.07,0.04-0.14,0.1-0.18c0.3-0.2,1.08-0.12,1.08,0.45
				c0,0.04-0.04,0.07-0.08,0.07c-0.06,0.01-0.72,0.02-0.99-0.12C-74.42,12.32-74.46,12.25-74.46,12.15c0,0-0.53,0-0.53,0
				c0,0.3,0.23,0.6,0.53,0.64c0.21,0.03,0.34,0.06,1.1,0.1c0.05,0,0.14,0.1,0.07,0.19c-0.1,0.15-0.19,0.22-0.5,0.22
				c-0.29,0-0.44-0.06-0.54-0.22C-74.34,13.06-74.4,13-74.46,13l-0.36,0c-0.04,0-0.09,0.05-0.08,0.09c0.17,0.41,0.52,0.61,1.05,0.61
				c0.48,0,1.1-0.18,1.1-0.84l0-1.23c0,0,0-0.12-0.12-0.12h-0.19c-0.09,0-0.14,0.02-0.17,0.12c-0.01,0.04-0.06,0.07-0.09,0.03
				c-0.31-0.27-0.99-0.33-1.36-0.07c-0.21,0.15-0.31,0.35-0.31,0.55C-74.99,12.15-74.46,12.15-74.46,12.15"/>
		</g>
		<g id="g41987" transform="matrix(1.25,0,0,-1.25,207.53054,717.7129)">
			<path id="path41989" class="st7" d="M-99.13,15.04v1.2c0,0.54-0.47,0.87-0.82,0.87c-0.34,0-0.64-0.09-0.86-0.27
				c-0.02-0.02-0.08-0.03-0.08,0.02l0,0.12c0,0,0,0.12-0.12,0.12h-0.28c0,0-0.12,0-0.12-0.12l0-1.94c0-0.12,0.12-0.12,0.12-0.12
				l0.28,0c0.12,0,0.12,0.12,0.12,0.12l0,0.95c0,0.26,0.18,0.71,0.76,0.71c0.42,0,0.48-0.29,0.48-0.45l0-1.2
				c0-0.12,0.12-0.12,0.12-0.12l0.28,0C-99.25,14.92-99.13,14.92-99.13,15.04"/>
		</g>
		<g id="g41991" transform="matrix(1.25,0,0,-1.25,147.34679,719.48415)">
			<path id="path41993" class="st7" d="M-58.14,16.25c0.95,0,1.34,0.61,1.34,1.13c0,0.5-0.4,1.13-1.35,1.13
				c-0.95,0-1.35-0.63-1.35-1.13C-59.5,16.85-59.1,16.25-58.14,16.25v0.41c-0.55,0-0.81,0.41-0.81,0.72c0,0.31,0.27,0.73,0.8,0.73
				c0.53,0,0.8-0.41,0.8-0.72c0-0.32-0.26-0.72-0.79-0.72"/>
		</g>
		<g id="g41995" transform="matrix(1.25,0,0,-1.25,213.98304,709.8054)">
			<path id="path41997" class="st7" d="M-103.53,9.66c0-0.42,0.31-0.74,0.71-0.74c0.41,0,0.73,0.29,0.73,0.73
				c0,0.43-0.33,0.71-0.73,0.71C-103.19,10.36-103.53,10.07-103.53,9.66l-0.53,0c0,0.86,1.16,1.45,1.92,0.87
				c0.03-0.03,0.07-0.01,0.07,0.06l0,0.86c0,0.12,0.12,0.12,0.12,0.12h0.28c0,0,0.12,0,0.12-0.12V8.72c0-0.12-0.12-0.12-0.12-0.12
				l-0.28,0c-0.12,0-0.12,0.12-0.12,0.13c0,0.06-0.03,0.08-0.07,0.06c-0.78-0.61-1.92-0.09-1.92,0.87"/>
		</g>
		<g id="g41999" transform="matrix(1.25,0,0,-1.25,117.81804,707.50665)">
			<path id="path42001" class="st7" d="M-38.03,8.09l0,0.39c0.01,0-0.12,0-0.12,0.12c0,0.15,0,0.61,0,0.61s0,0.12,0.12,0.12h1.05
				c0,0,0.46,0,0.46-0.42c0-0.42-0.46-0.42-0.46-0.42l-1.05,0L-38.03,8.09l0.88,0c0.16,0,0.29-0.03,0.35-0.12
				c0.26-0.36,0.17-0.72,0.29-1.09c0.02-0.07,0.08-0.12,0.2-0.12l0.34,0c0.03,0,0.06,0.04,0.05,0.06c-0.14,0.3-0.15,0.61-0.25,0.97
				c-0.05,0.2-0.05,0.29-0.2,0.41c-0.01,0.01,0.01,0.03,0.02,0.04c0.21,0.15,0.37,0.39,0.37,0.66c0,0.55-0.44,0.81-0.83,0.81
				l-1.72,0c0,0-0.12,0-0.12-0.12l0-2.72c0-0.12,0.12-0.12,0.12-0.12l0.27,0c0,0,0.12,0,0.12,0.12c0,0.19,0,0.82,0,1.09
				C-38.15,8.09-38.03,8.09-38.03,8.09"/>
		</g>
		<g id="g42003" transform="matrix(1.25,0,0,-1.25,60.809286,693.85665)">
			<path id="path42005" class="st7" d="M0.8-1.21v-2.95h0.24v2.73h4.58c0.41,0,0.72-0.34,0.72-0.73s-0.3-0.72-0.72-0.72H2.33v-0.72
				h4.23v0.22h-4v0.28h3.05c0.56,0,0.94,0.44,0.94,0.94c0,0.5-0.38,0.94-0.94,0.94C5.05-1.21,0.8-1.21,0.8-1.21"/>
		</g>
		<g id="g42007" transform="matrix(1.25,0,0,-1.25,84.173036,698.67665)">
			<path id="path42009" class="st7" d="M-15.12,2.08V1.86h-1.96V0.82c0,0,0.16,0.75,0.91,0.75h3.07v0.29h-2.02V2.08h2.26V1.35h-3.28
				c-0.39,0-0.71-0.3-0.71-0.72s0.3-0.71,0.72-0.71h4.01V-0.3h-4.01c-0.53,0-0.85,0.34-0.94,0.74V-0.3h-0.24v2.37"/>
		</g>
	</g>
</g>
<g>
	<g>
		<g>
			<g>
				<g>
					<path class="st7" d="M1109.56,16.56l0,0.05c0.34-4.45,4.67-5.19,8.54-5.19c5.94,0,7.41,1.84,7.77,4.11l0,0.02l0.02,0.2
						l0.01-0.01c0.09,0.71,0.09,1.45,0.09,2.19v6.83c0,1.25,0.06,2.66,0.77,3.72h-6.47c-0.16-0.45-0.26-1.12-0.23-1.57H1120
						c-1.35,1.54-3.3,1.99-5.35,1.99c-3.21,0-5.87-1.54-5.87-5.03c0-5.26,6.15-5.07,9.39-5.67c0.86-0.16,1.73-0.42,1.73-1.47
						c0-1.12-1.06-1.54-2.09-1.54c-1.95,0-2.34,0.99-2.37,1.7h-5.9h0.01 M1119.9,21.01c-0.77,0.38-1.63,0.61-2.5,0.8
						c-1.41,0.32-2.15,0.67-2.15,1.79c0,0.77,0.83,1.54,1.99,1.54c1.44,0,2.56-0.87,2.66-2.6V21.01z"/>
				</g>
			</g>
		</g>
		<g>
			<g>
				<g>
					<path class="st7" d="M1138.44,15.41c1.37-2.36,3.95-3.98,7.88-3.98c6.25,0,9.07,4.1,9.07,8.72c0,4.61-2.82,8.75-9.07,8.75
						c-3.94,0-6.52-1.64-7.88-4.01l0,0.02v3.57c-1.28,0-2.72,0.19-4.07,0.19c-2.69,0-5.67-0.42-5.67-4.97v-7.95h-2.8l0.01-0.01
						c0.09,0.71,0.09,1.45,0.09,2.19v6.83c0,1.25,0.06,2.66,0.77,3.72h-6.47c-0.16-0.45-0.26-1.12-0.23-1.57H1120
						c-1.35,1.54-3.3,1.99-5.35,1.99c-3.21,0-5.87-1.54-5.87-5.03c0-5.26,6.15-5.07,9.39-5.67c0.86-0.16,1.73-0.42,1.73-1.47
						c0-1.12-1.06-1.54-2.09-1.54c-1.95,0-2.34,0.99-2.37,1.7h-5.9h0.01v0.42c-0.64-0.22-1.22-0.42-2.5-0.42
						c-2.5,0-3.84,1.47-3.84,5.03v6.57h-6.35v-6.89h-0.01h-11.99c0.16,1.89,1.25,3.24,3.24,3.24c1.03,0,2.15-0.38,2.66-1.18h5.93
						c-1.28,3.59-4.78,5.26-8.56,5.26c-4.24,0-7.65-2-8.86-5.62l0,0.05c-0.19,4.37-4.5,5.57-8.46,5.57c-3.91,0-8.21-1.57-8.3-5.87
						h6.06c0.03,0.58,0.29,1.06,0.77,1.47c0.32,0.29,0.93,0.48,1.7,0.48c0.84,0,2.15-0.32,2.15-1.28c0-0.96-0.54-1.25-3.49-1.76
						c-4.84-0.83-6.79-2.37-6.79-5.23c0-4.2,4.52-5.29,7.85-5.29c3.59,0,7.92,0.99,8.08,5.26h-5.77c-0.03-0.54-0.32-0.96-0.74-1.25
						c-0.39-0.32-0.9-0.48-1.41-0.48c-0.9,0-1.92,0.19-1.92,1.28c0,0.48,0.38,0.7,0.74,0.86c1.06,0.45,3.46,0.58,5.58,1.28
						c1.48,0.47,2.84,1.23,3.52,2.58l0,0.02c-0.02-0.25-0.03-0.51-0.03-0.77c0-4.84,3.53-8.78,8.79-8.78c5.65,0,8.55,2.7,9.27,7.54
						l0-0.08v-7.04h6.09v2.66h0.06c1.02-1.99,2.37-3.08,4.68-3.08c0.64,0,1.25,0.1,1.86,0.26v4.88l0,0.05
						c0.34-4.45,4.67-5.19,8.54-5.19c5.94,0,7.41,1.84,7.77,4.11l0,0.02v-3.71h2.82V6.78h6.35v5.07h3.4V15.41z M1090.96,18.29
						c0-1.54-1.15-2.79-2.79-2.79c-1.89,0-2.98,0.99-3.27,2.79H1090.96z M1119.9,21.01c-0.77,0.38-1.63,0.61-2.5,0.8
						c-1.41,0.32-2.15,0.67-2.15,1.79c0,0.77,0.83,1.54,1.99,1.54c1.44,0,2.56-0.87,2.66-2.6V21.01z M1135.04,15.76v5.8
						c0,1.54,0.35,2.21,1.95,2.21c0.3,0,0.59-0.01,0.89-0.03l0.01,0.01c-0.43-1.11-0.64-2.34-0.64-3.6c0-1.57,0.33-3.09,1.01-4.4
						L1135.04,15.76z M1146.32,16.04c-2.4,0-2.73,2.34-2.73,4.1c0,1.76,0.32,4.13,2.73,4.13c2.4,0,2.72-2.37,2.72-4.13
						C1149.05,18.38,1148.72,16.04,1146.32,16.04z"/>
				</g>
			</g>
		</g>
	</g>
</g>
<g>
	<path class="st1" d="M566.25,122.58v1.04h-5.65v7.05h-3.14v-7.05h-5.63v-1.04H566.25z"/>
	<path class="st1" d="M568.28,122.58h11.31c1.19,0,2.04,0.09,2.54,0.27s0.75,0.44,0.75,0.78v2.33c0,0.32-0.2,0.57-0.61,0.74
		c-0.41,0.17-1.1,0.28-2.08,0.31l3.14,3.66h-3.11l-3.17-3.66h-5.66v3.66h-3.12V122.58z M579,125.97c0.49,0,0.74-0.11,0.74-0.33v-1.7
		c0-0.22-0.25-0.33-0.74-0.33h-7.61v2.35H579z"/>
	<path class="st1" d="M593.64,127.68h-8.75v-1.04h8.75V127.68z"/>
	<path class="st1" d="M606.39,129.63c0.49,0,0.74-0.11,0.74-0.33v-1.99c-0.06-0.2-0.31-0.3-0.74-0.3h-7.46
		c-1.18,0-2.02-0.09-2.52-0.26s-0.75-0.44-0.75-0.79v-2.33c0-0.34,0.25-0.6,0.75-0.78s1.34-0.27,2.52-0.27h11.33v1.04h-10.73
		c-0.23,0-0.41,0.03-0.55,0.09c-0.14,0.06-0.2,0.14-0.2,0.24v1.7c0,0.1,0.07,0.18,0.2,0.24c0.13,0.06,0.32,0.09,0.55,0.09h7.44
		c1.19,0,2.04,0.09,2.54,0.27c0.5,0.18,0.75,0.44,0.75,0.78v2.6c0,0.35-0.25,0.61-0.75,0.79c-0.5,0.18-1.35,0.26-2.54,0.26h-11.31
		v-1.04H606.39z"/>
</g>
<g>
	<path class="st4" d="M131.34,60.22v-6.5l2.44-2.44v9.56l-0.91,0.91L131.34,60.22z M133.77,63.6v9.53l-2.44-2.44v-6.5l1.53-1.53
		L133.77,63.6z"/>
	<path class="st4" d="M141.61,64.19v6.5l-2.44,2.44V63.6l0.91-0.94L141.61,64.19z M152.33,50.86l-2.41,2.44h-7.9l-2.4-2.44H152.33z
		 M152.33,73.58h-12.71l2.4-2.44h7.9L152.33,73.58z M150.22,61l1.24,1.22l-1.24,1.22h-8.48l-1.2-1.22l1.2-1.22H150.22z
		 M150.35,60.22v-6.5l2.44-2.44v9.56l-0.89,0.91L150.35,60.22z"/>
	<path class="st4" d="M159.12,60.22l-1.53,1.53l-0.91-0.91v-9.56l2.44,2.44V60.22z M159.12,70.69l-2.44,2.44V63.6l0.91-0.94
		l1.53,1.53V70.69z M169.85,50.86l-2.41,2.44h-7.9l-2.4-2.44H169.85z M169.85,73.58h-12.71l2.4-2.44h7.9L169.85,73.58z M170.3,60.84
		l-0.89,0.91l-1.55-1.53v-6.5l2.44-2.44V60.84z M170.3,73.12l-2.44-2.44v-6.5l1.55-1.53l0.89,0.94V73.12z"/>
	<path class="st4" d="M176.53,60.22L175,61.75l-0.91-0.91v-9.56l2.44,2.44V60.22z M176.53,70.69l-2.44,2.44V63.6l0.91-0.94
		l1.53,1.53V70.69z M187.25,50.86l-2.41,2.44h-7.9l-2.4-2.44H187.25z M187.25,73.58h-12.71l2.4-2.44h7.9L187.25,73.58z
		 M187.71,60.84l-0.89,0.91l-1.55-1.53v-6.5l2.44-2.44V60.84z M187.71,73.12l-2.44-2.44v-6.5l1.55-1.53l0.89,0.94V73.12z"/>
	<circle class="st4" cx="172.17" cy="72.36" r="1.04"/>
</g>
<circle cx="34.61" cy="60.9" r="9.16"/>
<g>
	<path class="st3" d="M34.51,57.27h-0.03l-1.69,0.92l-0.25-1l2.13-1.14h1.13v9.75h-1.27V57.27z"/>
</g>
<circle cx="31.98" cy="116.11" r="9.16"/>
<g>
	<path class="st3" d="M29.02,121v-0.81l1.04-1c2.49-2.37,3.61-3.63,3.63-5.1c0-0.99-0.48-1.9-1.94-1.9c-0.88,0-1.62,0.45-2.07,0.82
		l-0.42-0.93c0.67-0.57,1.63-0.99,2.76-0.99c2.1,0,2.98,1.44,2.98,2.83c0,1.8-1.3,3.25-3.36,5.24l-0.78,0.72v0.03h4.38V121H29.02z"
		/>
</g>
<circle cx="116.51" cy="61.62" r="9.16"/>
<g>
	<path class="st3" d="M113.86,64.99c0.38,0.24,1.25,0.61,2.16,0.61c1.69,0,2.22-1.08,2.21-1.89c-0.02-1.37-1.25-1.95-2.52-1.95
		h-0.73v-0.99h0.73c0.96,0,2.17-0.5,2.17-1.65c0-0.78-0.5-1.47-1.71-1.47c-0.78,0-1.53,0.34-1.95,0.64l-0.35-0.96
		c0.51-0.38,1.5-0.75,2.55-0.75c1.92,0,2.79,1.14,2.79,2.33c0,1-0.6,1.86-1.8,2.29v0.03c1.2,0.24,2.17,1.14,2.17,2.5
		c0,1.56-1.21,2.92-3.55,2.92c-1.1,0-2.06-0.34-2.54-0.66L113.86,64.99z"/>
</g>
<circle cx="116.51" cy="115.81" r="9.16"/>
<g>
	<path class="st3" d="M117.63,120.7v-2.66h-4.53v-0.87l4.35-6.23h1.43v6.06h1.36v1.03h-1.36v2.66H117.63z M117.63,117.01v-3.25
		c0-0.51,0.02-1.02,0.04-1.53h-0.04c-0.3,0.57-0.54,0.99-0.81,1.44l-2.38,3.32v0.03H117.63z"/>
</g>
<circle cx="207.14" cy="36.61" r="9.16"/>
<g>
	<path class="st3" d="M210,32.85h-3.72l-0.38,2.5c0.23-0.03,0.44-0.06,0.79-0.06c0.75,0,1.5,0.17,2.1,0.52
		c0.76,0.44,1.4,1.28,1.4,2.5c0,1.91-1.52,3.33-3.63,3.33c-1.06,0-1.97-0.3-2.43-0.6l0.33-1.01c0.4,0.24,1.2,0.54,2.08,0.54
		c1.25,0,2.31-0.81,2.31-2.11c-0.02-1.26-0.85-2.16-2.81-2.16c-0.55,0-0.99,0.06-1.35,0.11l0.63-4.68H210V32.85z"/>
</g>
<circle cx="206.93" cy="77.13" r="9.16"/>
<g>
	<path class="st3" d="M209.53,73.2c-0.27-0.02-0.61,0-0.99,0.06c-2.07,0.34-3.17,1.86-3.39,3.46h0.04c0.47-0.62,1.27-1.13,2.35-1.13
		c1.73,0,2.94,1.25,2.94,3.15c0,1.78-1.21,3.43-3.24,3.43c-2.08,0-3.45-1.62-3.45-4.16c0-1.92,0.69-3.43,1.65-4.39
		c0.81-0.79,1.89-1.29,3.12-1.44c0.39-0.06,0.72-0.08,0.96-0.08V73.2z M209.16,78.82c0-1.39-0.79-2.23-2.01-2.23
		c-0.79,0-1.53,0.5-1.89,1.2c-0.09,0.15-0.15,0.34-0.15,0.58c0.03,1.6,0.77,2.79,2.15,2.79C208.39,81.17,209.16,80.22,209.16,78.82z
		"/>
</g>
<circle cx="207.14" cy="116.83" r="9.16"/>
<g>
	<path class="st3" d="M210.51,111.97v0.87l-4.25,8.88h-1.36l4.23-8.63v-0.03h-4.77v-1.1H210.51z"/>
</g>
<circle cx="309.14" cy="36.61" r="9.16"/>
<g>
	<path class="st3" d="M306.06,39.02c0-1.23,0.73-2.1,1.93-2.61l-0.01-0.04c-1.08-0.51-1.54-1.35-1.54-2.19c0-1.54,1.3-2.6,3.01-2.6
		c1.89,0,2.83,1.19,2.83,2.4c0,0.83-0.41,1.71-1.6,2.28v0.04c1.21,0.48,1.96,1.33,1.96,2.52c0,1.7-1.46,2.83-3.31,2.83
		C307.29,41.66,306.06,40.44,306.06,39.02z M311.31,38.96c0-1.18-0.82-1.75-2.15-2.13c-1.14,0.33-1.75,1.08-1.75,2.01
		c-0.04,0.99,0.71,1.86,1.95,1.86C310.55,40.7,311.31,39.96,311.31,38.96z M307.68,34.08c0,0.98,0.73,1.5,1.86,1.8
		c0.84-0.29,1.48-0.89,1.48-1.77c0-0.78-0.46-1.59-1.65-1.59C308.28,32.52,307.68,33.24,307.68,34.08z"/>
</g>
<circle cx="308.93" cy="77.13" r="9.16"/>
<g>
	<path class="st3" d="M306.73,81.09c0.29,0.03,0.61,0,1.06-0.04c0.77-0.11,1.48-0.42,2.04-0.95c0.65-0.58,1.11-1.44,1.29-2.59h-0.05
		c-0.54,0.66-1.32,1.05-2.29,1.05c-1.75,0-2.88-1.32-2.88-2.99c0-1.84,1.33-3.46,3.33-3.46s3.23,1.62,3.23,4.11
		c0,2.14-0.72,3.64-1.68,4.58c-0.75,0.73-1.78,1.18-2.83,1.3c-0.48,0.08-0.9,0.09-1.21,0.08V81.09z M307.21,75.48
		c0,1.21,0.73,2.07,1.88,2.07c0.88,0,1.57-0.44,1.92-1.02c0.07-0.12,0.12-0.27,0.12-0.48c0-1.67-0.62-2.94-2-2.94
		C308.01,73.11,307.21,74.1,307.21,75.48z"/>
</g>
<circle cx="309.14" cy="116.83" r="9.16"/>
<g>
	<path class="st3" d="M305.2,113.2h-0.03l-1.69,0.92l-0.25-1l2.13-1.14h1.13v9.75h-1.27V113.2z"/>
	<path class="st3" d="M316.51,116.74c0,3.31-1.23,5.14-3.39,5.14c-1.9,0-3.19-1.79-3.22-5.01c0-3.27,1.41-5.07,3.39-5.07
		C315.34,111.81,316.51,113.64,316.51,116.74z M311.21,116.89c0,2.54,0.78,3.98,1.98,3.98c1.35,0,2-1.58,2-4.07
		c0-2.4-0.62-3.97-1.98-3.97C312.05,112.83,311.21,114.24,311.21,116.89z"/>
</g>
<circle cx="345.42" cy="99.96" r="9.16"/>
<g>
	<path class="st3" d="M341.48,96.33h-0.03l-1.69,0.92l-0.25-1l2.13-1.14h1.13v9.75h-1.27V96.33z"/>
	<path class="st3" d="M349.17,96.33h-0.03l-1.69,0.92l-0.25-1l2.13-1.14h1.13v9.75h-1.27V96.33z"/>
</g>
<circle cx="668.46" cy="35.5" r="9.16"/>
<g>
	<path class="st3" d="M664.51,31.87h-0.03l-1.69,0.92l-0.25-1l2.13-1.14h1.13v9.75h-1.28V31.87z"/>
	<path class="st3" d="M669.34,40.39v-0.81l1.04-1c2.49-2.37,3.61-3.63,3.63-5.1c0-0.99-0.48-1.9-1.94-1.9
		c-0.88,0-1.62,0.45-2.07,0.82l-0.42-0.93c0.67-0.57,1.63-0.99,2.76-0.99c2.1,0,2.98,1.44,2.98,2.83c0,1.8-1.3,3.25-3.36,5.24
		l-0.78,0.72v0.03h4.38v1.09H669.34z"/>
</g>
<circle cx="980.82" cy="102.51" r="9.16"/>
<g>
	<path class="st3" d="M976.87,98.87h-0.03l-1.69,0.92l-0.25-1l2.13-1.14h1.13v9.75h-1.28V98.87z"/>
	<path class="st3" d="M982.02,105.88c0.38,0.24,1.25,0.61,2.16,0.61c1.7,0,2.22-1.08,2.21-1.89c-0.01-1.37-1.25-1.95-2.52-1.95
		h-0.74v-0.99h0.74c0.96,0,2.17-0.5,2.17-1.65c0-0.78-0.5-1.47-1.71-1.47c-0.78,0-1.53,0.34-1.95,0.64l-0.34-0.96
		c0.51-0.38,1.5-0.75,2.55-0.75c1.92,0,2.79,1.14,2.79,2.33c0,1-0.6,1.86-1.8,2.29v0.03c1.2,0.24,2.17,1.14,2.17,2.5
		c0,1.56-1.21,2.92-3.55,2.92c-1.1,0-2.06-0.34-2.54-0.66L982.02,105.88z"/>
</g>
<circle cx="1015.91" cy="50.3" r="9.16"/>
<g>
	<path class="st3" d="M1011.97,46.67h-0.03l-1.7,0.92l-0.25-1l2.13-1.14h1.13v9.75h-1.27V46.67z"/>
	<path class="st3" d="M1020.88,55.19v-2.66h-4.53v-0.87l4.35-6.23h1.42v6.06h1.37v1.03h-1.37v2.66H1020.88z M1020.88,51.5v-3.25
		c0-0.51,0.02-1.02,0.04-1.53h-0.04c-0.3,0.57-0.54,0.99-0.81,1.44l-2.38,3.32v0.03H1020.88z"/>
</g>
<circle cx="1015.91" cy="102.3" r="9.16"/>
<g>
	<path class="st3" d="M1011.97,98.67h-0.03l-1.7,0.92l-0.25-1l2.13-1.14h1.13v9.75h-1.27V98.67z"/>
	<path class="st3" d="M1022.62,98.55h-3.72l-0.38,2.5c0.22-0.03,0.43-0.06,0.79-0.06c0.75,0,1.5,0.17,2.1,0.52
		c0.76,0.44,1.4,1.28,1.4,2.5c0,1.91-1.52,3.33-3.63,3.33c-1.07,0-1.97-0.3-2.43-0.6l0.33-1.01c0.41,0.24,1.2,0.54,2.08,0.54
		c1.25,0,2.31-0.81,2.31-2.11c-0.02-1.26-0.86-2.16-2.81-2.16c-0.55,0-0.99,0.06-1.35,0.11l0.63-4.68h4.67V98.55z"/>
</g>
<circle cx="1115.91" cy="50.3" r="9.16"/>
<g>
	<path class="st3" d="M1111.97,46.67h-0.03l-1.7,0.92l-0.25-1l2.13-1.14h1.13v9.75h-1.27V46.67z"/>
	<path class="st3" d="M1122.36,46.37c-0.27-0.02-0.62,0-0.99,0.06c-2.07,0.34-3.17,1.86-3.39,3.46h0.04
		c0.46-0.62,1.27-1.13,2.35-1.13c1.73,0,2.94,1.25,2.94,3.15c0,1.78-1.21,3.43-3.24,3.43c-2.08,0-3.45-1.62-3.45-4.16
		c0-1.92,0.69-3.43,1.65-4.39c0.81-0.79,1.89-1.29,3.12-1.44c0.39-0.06,0.72-0.08,0.96-0.08V46.37z M1121.99,51.99
		c0-1.39-0.79-2.23-2.01-2.23c-0.79,0-1.53,0.5-1.89,1.2c-0.09,0.15-0.15,0.34-0.15,0.58c0.03,1.6,0.76,2.79,2.14,2.79
		C1121.22,54.33,1121.99,53.39,1121.99,51.99z"/>
</g>
<circle cx="1115.91" cy="102.3" r="9.16"/>
<g>
	<path class="st3" d="M1111.97,98.67h-0.03l-1.7,0.92l-0.25-1l2.13-1.14h1.13v9.75h-1.27V98.67z"/>
	<path class="st3" d="M1123.13,97.44v0.87l-4.25,8.88h-1.36l4.23-8.63v-0.03h-4.77v-1.1H1123.13z"/>
</g>
</svg>
